<?xml version="1.0" standalone="no"?>
<!DOCTYPE svg PUBLIC "-//W3C//DTD SVG 1.1//EN" "http://www.w3.org/Graphics/SVG/1.1/DTD/svg11.dtd" >
<svg xmlns="http://www.w3.org/2000/svg" xmlns:xlink="http://www.w3.org/1999/xlink" version="1.1">
<metadata>
Created by FontForge 20200427 at Mon Nov  3 02:34:43 2014
 By www
Copyright (c) 2012 by Ryoichi Tsunekawa. All rights reserved.
</metadata>
<defs>
<font id="AllRoundGothicW03-Book" horiz-adv-x="609" >
  <font-face 
    font-family="AllRoundGothicW03-Book"
    font-weight="300"
    font-stretch="normal"
    units-per-em="1000"
    panose-1="2 11 5 3 2 2 2 2 1 4"
    ascent="800"
    descent="-200"
    x-height="494"
    cap-height="654"
    bbox="-73 -224 4589 920"
    underline-thickness="50"
    underline-position="-125"
    unicode-range="U+0020-FB02"
  />
<missing-glyph horiz-adv-x="650" 
d="M100 0v654h450v-654h-450zM508 612h-366v-570h366v570z" />
    <glyph glyph-name="IJ" unicode="IJ" horiz-adv-x="783" 
d="M70 0v654h72v-654h-72zM659 654h72v-424q0 -111 -64 -177t-184 -66q-118 0 -181 65.5t-63 177.5v7h70v-7q0 -82 44 -129.5t131 -47.5t131 47.5t44 129.5v424z" />
    <glyph glyph-name="ij" unicode="ij" horiz-adv-x="404" 
d="M101 577q-21 0 -36 15.5t-15 35.5q0 21 15 36t36 15t36 -15t15 -36q0 -20 -15 -35.5t-36 -15.5zM68 0v494h67v-494h-67zM303 577q-21 0 -36 15.5t-15 35.5q0 21 15 36t36 15t36 -15t15 -36q0 -20 -15 -35.5t-36 -15.5zM160 -218v58h8q56 0 78.5 26.5t22.5 89.5v538h67
v-535q0 -89 -37.5 -133t-124.5 -44h-14z" />
    <glyph glyph-name="uniFB01" unicode="fi" horiz-adv-x="681" 
d="M65 0v514q0 52 15 91t42.5 65.5t66 39.5t84.5 13t84 -13.5t65.5 -40t42.5 -66t15 -92.5h-66q0 78 -39 114t-102 36q-64 0 -102.5 -36t-38.5 -111v-89h290v-61h-290v-364h-67zM580 577q-21 0 -36 15.5t-15 35.5q0 21 15 36t36 15t36 -15t15 -36q0 -20 -15 -35.5t-36 -15.5
zM547 0v494h67v-494h-67z" />
    <glyph glyph-name="uniFB02" unicode="fl" horiz-adv-x="681" 
d="M65 0v514q0 52 15 91t42.5 65.5t66 39.5t84.5 13t84 -13.5t65.5 -40t42.5 -66t15 -92.5h-66q0 78 -39 114t-102 36q-64 0 -102.5 -36t-38.5 -111v-89h290v-61h-290v-364h-67zM547 0v710h67v-710h-67z" />
    <glyph glyph-name=".notdef" horiz-adv-x="650" 
d="M100 0v654h450v-654h-450zM508 612h-366v-570h366v570z" />
    <glyph glyph-name=".null" horiz-adv-x="0" 
 />
    <glyph glyph-name="nonmarkingreturn" horiz-adv-x="333" 
 />
    <glyph glyph-name="space" unicode=" " horiz-adv-x="266" 
 />
    <glyph glyph-name="exclam" unicode="!" horiz-adv-x="255" 
d="M128 -13q-21 0 -36 15t-15 36t15 36t36 15q20 0 35 -15t15 -36t-15 -36t-35 -15zM100 172l-10 482h75l-9 -482h-56z" />
    <glyph glyph-name="quotedbl" unicode="&#x22;" horiz-adv-x="365" 
d="M85 406l-13 248h74l-12 -248h-49zM231 406l-13 248h74l-12 -248h-49z" />
    <glyph glyph-name="numbersign" unicode="#" horiz-adv-x="582" 
d="M325 0l23 169h-159l-23 -169h-53l23 169h-98l7 51h99l29 214h-97l7 51h98l23 169h53l-24 -169h160l23 169h53l-24 -169h99l-7 -51h-99l-30 -214h98l-7 -51h-98l-23 -169h-53zM385 434h-159l-30 -214h160z" />
    <glyph glyph-name="dollar" unicode="$" horiz-adv-x="522" 
d="M238 -70v74q-43 3 -79 17t-61.5 37.5t-40.5 56t-16 72.5h66q1 -54 36 -85.5t95 -36.5v237q-34 6 -67 15t-59 26.5t-42 46.5t-16 75q0 39 13.5 71.5t37.5 56.5t58 38.5t75 17.5v75h50v-75q78 -8 126.5 -55.5t51.5 -121.5h-65q-2 50 -32 80t-81 36v-232q35 -6 69 -15
t61 -26t44 -46.5t17 -76.5q0 -41 -14 -73.5t-39 -56.5t-60.5 -38.5t-77.5 -18.5v-75h-50zM413 191q0 26 -10 43.5t-27 29t-40 18t-48 11.5v-228q58 7 91.5 39.5t33.5 86.5zM238 588q-54 -5 -85.5 -36.5t-31.5 -84.5q0 -26 9 -43t25 -28.5t37.5 -18.5t45.5 -12v223z" />
    <glyph glyph-name="percent" unicode="%" horiz-adv-x="684" 
d="M100 0l426 654h56l-426 -654h-56zM184 361q-32 0 -59.5 12t-48 33t-32.5 49t-12 60q0 31 12 58.5t32.5 48.5t48 33t59.5 12t60 -12t48.5 -33t32.5 -48.5t12 -58.5q0 -32 -12 -60t-32.5 -49t-48.5 -33t-60 -12zM184 409q45 0 74.5 31t29.5 75q0 21 -8 40t-22 33.5
t-33 22.5t-41 8t-40.5 -8t-32.5 -22.5t-22 -33.5t-8 -40q0 -22 8 -41t22 -33.5t32.5 -23t40.5 -8.5zM500 -13q-32 0 -60 12t-48.5 33t-32.5 48.5t-12 59.5q0 31 12 59t32.5 49t48.5 33t60 12q31 0 59 -12t48.5 -33t32.5 -49t12 -59q0 -32 -12 -59.5t-32.5 -48.5t-48.5 -33
t-59 -12zM500 35q44 0 73.5 30.5t29.5 74.5q0 21 -8 40.5t-22 33.5t-32.5 22.5t-40.5 8.5t-41 -8.5t-33 -22.5t-22 -33.5t-8 -40.5q0 -44 29.5 -74.5t74.5 -30.5z" />
    <glyph glyph-name="ampersand" unicode="&#x26;" horiz-adv-x="566" 
d="M403 319v-2q42 -19 65.5 -53t23.5 -85q0 -44 -17 -79.5t-47 -60.5t-72.5 -38.5t-93.5 -13.5t-93.5 13.5t-72.5 39t-47 61.5t-17 81q0 63 32.5 105t90.5 60v2q-47 17 -73 53.5t-26 91.5q0 39 15 71t42 54.5t65 35t84 12.5q88 0 143 -44t62 -124h-66q-5 45 -39 76t-99 31
q-35 0 -61 -9.5t-43.5 -25.5t-26.5 -37t-9 -45q0 -54 36 -83.5t101 -29.5h274v-57h-131zM425 186q0 61 -41.5 97t-113.5 36h-17q-72 0 -113 -35t-41 -98q0 -29 10 -54.5t30.5 -44t51 -29t71.5 -10.5q40 0 70.5 10.5t51 29t31 44t10.5 54.5z" />
    <glyph glyph-name="quotesingle" unicode="'" horiz-adv-x="219" 
d="M85 406l-13 248h74l-12 -248h-49z" />
    <glyph glyph-name="parenleft" unicode="(" horiz-adv-x="364" 
d="M323 -219q-60 32 -109 78.5t-83.5 105.5t-53 129.5t-18.5 151.5t18.5 151.5t53 129.5t83.5 105.5t109 78.5v-64q-90 -58 -145 -159.5t-55 -241.5t55 -241.5t145 -159.5v-64z" />
    <glyph glyph-name="parenright" unicode=")" horiz-adv-x="364" 
d="M41 711q60 -32 109 -78.5t83.5 -105.5t53 -129.5t18.5 -151.5t-18.5 -151.5t-53 -129.5t-83.5 -105.5t-109 -78.5v64q90 58 145 159.5t55 241.5t-55 241.5t-145 159.5v64z" />
    <glyph glyph-name="asterisk" unicode="*" horiz-adv-x="526" 
d="M365 226l-101 175h-2l-101 -175l-60 44l138 150l-1 2l-200 42l23 71l185 -84l1 2l-21 201h74l-21 -201l1 -2l185 84l23 -71l-200 -42l-1 -2l138 -150z" />
    <glyph glyph-name="plus" unicode="+" horiz-adv-x="562" 
d="M252 31v202h-202v58h202v202h58v-202h202v-58h-202v-202h-58z" />
    <glyph glyph-name="comma" unicode="," horiz-adv-x="239" 
d="M71 -124l33 114q-15 5 -25 18t-10 30q0 21 15 36t36 15q20 0 35 -15t15 -36q0 -15 -6 -28l-53 -134h-40z" />
    <glyph glyph-name="hyphen" unicode="-" horiz-adv-x="346" 
d="M23 239v65h300v-65h-300z" />
    <glyph glyph-name="period" unicode="." horiz-adv-x="239" 
d="M120 -13q-21 0 -36 15t-15 36t15 36t36 15q20 0 35 -15t15 -36t-15 -36t-35 -15z" />
    <glyph glyph-name="slash" unicode="/" horiz-adv-x="426" 
d="M1 -100l342 754h62l-342 -754h-62z" />
    <glyph glyph-name="zero" unicode="0" horiz-adv-x="522" 
d="M492 219q0 -53 -17 -95.5t-47.5 -73t-73 -47t-93.5 -16.5t-93.5 16.5t-73 47t-47.5 73t-17 95.5v216q0 52 17 95t47.5 73.5t73 47t93.5 16.5t93.5 -16.5t73 -47t47.5 -73.5t17 -95v-216zM425 435q0 39 -11.5 70.5t-33 53.5t-52 34t-67.5 12t-67.5 -12t-52 -34t-33 -53.5
t-11.5 -70.5v-216q0 -39 11.5 -70.5t33 -53.5t52 -34t67.5 -12t67.5 12t52 34t33 53.5t11.5 70.5v216z" />
    <glyph glyph-name="one" unicode="1" horiz-adv-x="522" 
d="M272 0v594h-156v60h223v-654h-67z" />
    <glyph glyph-name="two" unicode="2" horiz-adv-x="522" 
d="M55 0v56l254 231q43 38 69 78.5t26 89.5q0 33 -9.5 60.5t-27.5 47.5t-44 31t-59 11q-67 0 -105 -43t-38 -115v-9h-65v9q0 49 14 90t41 69.5t65.5 44.5t87.5 16q48 0 86.5 -16t65.5 -44.5t41.5 -67t14.5 -84.5q0 -33 -8 -60.5t-22.5 -52t-36 -48t-48.5 -47.5l-205 -185v-2
h312v-60h-409z" />
    <glyph glyph-name="three" unicode="3" horiz-adv-x="522" 
d="M183 318v59h79q64 0 98 29t34 84q0 24 -8.5 44.5t-26 36.5t-42.5 25t-58 9q-66 0 -99 -34t-36 -82h-65q5 85 59 131.5t142 46.5q44 0 81 -12.5t63.5 -35t41.5 -54.5t15 -72q0 -55 -25 -91t-71 -53v-2q57 -18 88.5 -59.5t31.5 -105.5q0 -45 -17 -81t-47 -61.5t-71 -39
t-90 -13.5t-90 13.5t-71 39t-47 62.5t-17 83h64q0 -28 11 -53t31 -43.5t50 -29t68 -10.5q39 0 68.5 10.5t49.5 29.5t30 43.5t10 53.5q0 61 -40 96.5t-115 35.5h-79z" />
    <glyph glyph-name="four" unicode="4" horiz-adv-x="522" 
d="M363 0v150h-339v56l339 448h67v-444h77v-60h-77v-150h-67zM363 560l-263 -348v-2h265v350h-2z" />
    <glyph glyph-name="five" unicode="5" horiz-adv-x="522" 
d="M146 594l-27 -220h2q24 31 61 48.5t88 17.5q47 0 87 -16.5t69.5 -45.5t46 -69.5t16.5 -89.5v-7q0 -49 -17 -90t-47 -71t-72.5 -47t-93.5 -17q-47 0 -86.5 14t-69.5 39t-49 60t-24 77h67q11 -57 54 -92.5t108 -35.5q37 0 67 12t51.5 34t33 51.5t11.5 65.5v7
q0 36 -11.5 65.5t-33 51.5t-51.5 34t-67 12q-52 0 -90 -23t-57 -63l-60 19l42 339h339v-60h-287z" />
    <glyph glyph-name="six" unicode="6" horiz-adv-x="522" 
d="M496 217q0 -51 -17 -93.5t-47.5 -73t-73 -47t-93.5 -16.5t-93.5 16.5t-73 47t-47.5 73t-17 93.5v3q0 47 13.5 87.5t48.5 91.5l172 255h75l-157 -229v-2q20 11 44 18t50 7q48 0 87.5 -17t68 -47t44.5 -71t16 -89v-7zM428 222q0 76 -44.5 122t-118.5 46q-36 0 -66 -12
t-51.5 -34.5t-33.5 -53.5t-12 -68v-5q0 -76 44.5 -122t118.5 -46t118.5 46t44.5 122v5z" />
    <glyph glyph-name="seven" unicode="7" horiz-adv-x="522" 
d="M152 0h-74l320 592v2h-346v60h423v-56z" />
    <glyph glyph-name="eight" unicode="8" horiz-adv-x="522" 
d="M491 182q0 -45 -17 -81t-47.5 -61.5t-72.5 -39t-93 -13.5t-93 13.5t-72.5 39t-47.5 61.5t-17 81q0 64 33 105.5t91 59.5v2q-48 17 -74 53t-26 91q0 40 15 72t42 54.5t65 35t84 12.5t84 -12.5t65 -35t42 -54.5t15 -72q0 -55 -26.5 -91t-73.5 -53v-2q57 -18 90.5 -59.5
t33.5 -105.5zM424 187q0 63 -41.5 97.5t-112.5 34.5h-18q-71 0 -112.5 -34.5t-41.5 -97.5q0 -29 10.5 -54.5t30.5 -44t50.5 -29.5t71.5 -11q40 0 71 11t51 29.5t30.5 44t10.5 54.5zM400 489q0 48 -34.5 82.5t-104.5 34.5t-104.5 -34.5t-34.5 -82.5q0 -54 35 -83.5t95 -29.5
h18q60 0 95 29.5t35 83.5z" />
    <glyph glyph-name="nine" unicode="9" horiz-adv-x="522" 
d="M179 0l157 229v2q-20 -11 -44 -18t-50 -7q-48 0 -88 17t-68.5 47t-44 71t-15.5 89v7q0 51 17 93.5t47.5 73t73 47t93.5 16.5t93.5 -16.5t73 -47t47.5 -73t17 -93.5v-3q0 -47 -13.5 -87.5t-48.5 -91.5l-172 -255h-75zM420 437q0 76 -44.5 122t-118.5 46t-118.5 -46
t-44.5 -122v-5q0 -76 44.5 -122t118.5 -46q36 0 66 12t51.5 34.5t33.5 53t12 68.5v5z" />
    <glyph glyph-name="colon" unicode=":" horiz-adv-x="239" 
d="M120 -13q-21 0 -36 15t-15 36t15 36t36 15q20 0 35 -15t15 -36t-15 -36t-35 -15zM120 356q-21 0 -36 15t-15 36t15 36t36 15q20 0 35 -15t15 -36t-15 -36t-35 -15z" />
    <glyph glyph-name="semicolon" unicode=";" horiz-adv-x="239" 
d="M71 -124l33 114q-15 5 -25 18t-10 30q0 21 15 36t36 15q20 0 35 -15t15 -36q0 -15 -6 -28l-53 -134h-40zM120 356q-21 0 -36 15t-15 36t15 36t36 15q20 0 35 -15t15 -36t-15 -36t-35 -15z" />
    <glyph glyph-name="less" unicode="&#x3c;" horiz-adv-x="562" 
d="M50 235v54l462 205v-64l-388 -167v-2l388 -167v-64z" />
    <glyph glyph-name="equal" unicode="=" horiz-adv-x="562" 
d="M50 352v57h462v-57h-462zM50 115v57h462v-57h-462z" />
    <glyph glyph-name="greater" unicode="&#x3e;" horiz-adv-x="562" 
d="M50 30v64l388 167v2l-388 167v64l462 -205v-54z" />
    <glyph glyph-name="question" unicode="?" horiz-adv-x="471" 
d="M176 172v16q0 42 14.5 69.5t36.5 46.5t47 34t47 32.5t36.5 41.5t14.5 62q0 63 -38.5 97t-99.5 34q-60 0 -100.5 -35t-40.5 -98v-8h-63v10q0 44 15.5 80t43 61t65 38.5t81.5 13.5q45 0 82.5 -13.5t64.5 -38t42.5 -60.5t15.5 -81q0 -49 -15 -79.5t-37.5 -51.5t-49 -35.5
t-49 -30t-37.5 -36t-15 -53.5v-16h-61zM207 -13q-20 0 -35.5 15t-15.5 36t15.5 36t35.5 15q21 0 36 -15t15 -36t-15 -36t-36 -15z" />
    <glyph glyph-name="at" unicode="@" horiz-adv-x="764" 
d="M457 230q-26 -35 -60.5 -55.5t-76.5 -20.5q-54 0 -80.5 34t-26.5 85q0 34 13 73.5t37 73.5t59 56t79 22q39 0 64.5 -23t31.5 -60h2l21 70h46l-60 -215q-2 -9 -3.5 -16.5t-1.5 -15.5q0 -18 10.5 -28.5t30.5 -10.5q25 0 49.5 14.5t43.5 41t31 63.5t12 82q0 43 -15 85.5
t-47.5 76t-82.5 54.5t-120 21q-71 0 -130.5 -24.5t-103 -67.5t-68 -102.5t-24.5 -128.5q0 -66 22 -120.5t61.5 -94t96 -61t125.5 -21.5q61 0 115.5 17.5t96.5 47.5l-4 -50q-45 -29 -98 -44t-112 -15q-78 0 -142.5 25.5t-111 70.5t-72 107t-25.5 136q0 79 28 146.5t78.5 117
t119 77.5t149.5 28q80 0 138.5 -25t97 -65.5t57 -91t18.5 -102.5q0 -51 -15.5 -95.5t-42 -77.5t-61 -51.5t-72.5 -18.5q-34 0 -54.5 17t-20.5 55v4h-2zM336 200q31 0 57 15.5t45 39.5t29.5 53t10.5 56q0 37 -19.5 63t-56.5 26q-33 0 -58.5 -18t-43 -44t-27 -56.5t-9.5 -55.5
q0 -35 17 -57t55 -22z" />
    <glyph glyph-name="A" unicode="A" horiz-adv-x="668" 
d="M544 0v220h-423v-220h-70v387q0 64 18.5 116t54.5 88.5t88.5 56t120.5 19.5q69 0 121.5 -19.5t88.5 -56t54.5 -88.5t18.5 -116v-387h-72zM544 387q0 100 -53 157t-159 57q-104 0 -157.5 -57t-53.5 -157v-101h423v101z" />
    <glyph glyph-name="B" unicode="B" horiz-adv-x="623" 
d="M67 0v654h316q90 0 137 -46.5t47 -119.5q0 -52 -24.5 -90.5t-69.5 -57.5v-2q58 -15 91 -59.5t33 -105.5q0 -38 -12.5 -69.5t-36.5 -54.5t-59 -36t-80 -13h-342zM139 300v-234h261q63 0 93.5 33t30.5 84t-32.5 84t-89.5 33h-263zM139 588v-222h239q57 0 87 31t30 80
t-28.5 80t-91.5 31h-236z" />
    <glyph glyph-name="C" unicode="C" horiz-adv-x="751" 
d="M638 435q-15 37 -39.5 68t-57.5 52.5t-73 33.5t-86 12q-61 0 -112 -20.5t-87.5 -57t-56.5 -87t-20 -109.5t20 -109.5t56.5 -87t87.5 -57t112 -20.5q46 0 86 12t73 33.5t57.5 52t39.5 68.5h76q-16 -52 -46.5 -95t-73.5 -73.5t-97 -47t-115 -16.5q-77 0 -140.5 25.5
t-110 71t-72 107.5t-25.5 136q0 73 25.5 135.5t72 108t110 71t140.5 25.5q61 0 115 -16.5t97 -47t73.5 -73.5t46.5 -95h-76z" />
    <glyph glyph-name="D" unicode="D" horiz-adv-x="682" 
d="M67 0v654h234q85 0 149.5 -23.5t108.5 -66.5t66.5 -103.5t22.5 -133.5q0 -74 -22.5 -134t-66.5 -103t-108.5 -66.5t-149.5 -23.5h-234zM301 66q69 0 121 18.5t86 53t51 82.5t17 107t-17 107t-51 82.5t-86 53t-121 18.5h-162v-522h162z" />
    <glyph glyph-name="E" unicode="E" horiz-adv-x="593" 
d="M67 0v654h480v-66h-408v-223h350v-66h-350v-233h408v-66h-480z" />
    <glyph glyph-name="F" unicode="F" horiz-adv-x="568" 
d="M67 0v654h472v-66h-400v-222h342v-66h-342v-300h-72z" />
    <glyph glyph-name="G" unicode="G" horiz-adv-x="757" 
d="M631 449q-32 69 -96.5 110.5t-152.5 41.5q-61 0 -112 -20.5t-87.5 -57t-56.5 -87t-20 -109.5t20 -109.5t56.5 -87t87.5 -57t112 -20.5q53 0 98.5 14.5t80.5 41.5t58.5 65.5t33.5 86.5v2h-312v66h388v-34q-6 -67 -33.5 -123.5t-73 -97.5t-107 -64t-133.5 -23
q-77 0 -140.5 25.5t-110 71t-72 107.5t-25.5 136q0 73 25.5 135.5t72 108t110 71t140.5 25.5q59 0 111.5 -15.5t94.5 -44t73.5 -69t48.5 -89.5h-79z" />
    <glyph glyph-name="H" unicode="H" horiz-adv-x="702" 
d="M563 0v299h-424v-299h-72v654h72v-289h424v289h72v-654h-72z" />
    <glyph glyph-name="I" unicode="I" horiz-adv-x="211" 
d="M70 0v654h72v-654h-72z" />
    <glyph glyph-name="J" unicode="J" horiz-adv-x="572" 
d="M448 654h72v-424q0 -111 -64 -177t-184 -66q-118 0 -181 65.5t-63 177.5v7h70v-7q0 -82 44 -129.5t131 -47.5t131 47.5t44 129.5v424z" />
    <glyph glyph-name="K" unicode="K" horiz-adv-x="572" 
d="M67 0v654h72v-304h2l308 304h93l-331 -323l341 -331h-95l-316 311h-2v-311h-72z" />
    <glyph glyph-name="L" unicode="L" horiz-adv-x="561" 
d="M67 0v654h72v-588h396v-66h-468z" />
    <glyph glyph-name="M" unicode="M" horiz-adv-x="929" 
d="M124 0h-72v434q0 58 17 101.5t46 73t69 44t87 14.5q68 0 118 -31t74 -90h2q24 59 73.5 90t118.5 31q46 0 86.5 -14.5t70 -44t46.5 -73t17 -101.5v-434h-72v434q0 83 -43.5 125t-109.5 42t-109 -43t-43 -124v-434h-72v434q0 81 -43 124t-109 43q-33 0 -60.5 -10.5
t-48 -31.5t-32 -52t-11.5 -73v-434z" />
    <glyph glyph-name="N" unicode="N" horiz-adv-x="653" 
d="M529 0v397q0 95 -51 149.5t-151 54.5t-151.5 -54.5t-51.5 -149.5v-397h-72v397q0 62 18 112t53 85t86.5 54t117.5 19t117 -19t86 -54t53 -85t18 -112v-397h-72z" />
    <glyph glyph-name="O" unicode="O" horiz-adv-x="764" 
d="M730 327q0 -74 -25.5 -136t-72 -107.5t-110.5 -71t-140 -25.5q-77 0 -140.5 25.5t-110 71t-72 107.5t-25.5 136q0 73 25.5 135.5t72 108t110 71t140.5 25.5q76 0 140 -25.5t110.5 -71t72 -108t25.5 -135.5zM382 53q61 0 112 20.5t87.5 57t56.5 87t20 109.5t-20 109.5
t-56.5 87t-87.5 57t-112 20.5t-112 -20.5t-87.5 -57t-56.5 -87t-20 -109.5t20 -109.5t56.5 -87t87.5 -57t112 -20.5z" />
    <glyph glyph-name="P" unicode="P" horiz-adv-x="599" 
d="M67 0v654h283q59 0 102 -15.5t71 -43.5t41.5 -66t13.5 -83t-13.5 -83t-41.5 -66t-71 -44t-102 -16h-211v-237h-72zM351 303q42 0 71.5 11t48 30t26.5 45.5t8 56.5t-8 56t-26.5 45t-48 30t-71.5 11h-212v-285h212z" />
    <glyph glyph-name="Q" unicode="Q" horiz-adv-x="764" 
d="M730 327q0 -85 -33.5 -154t-93.5 -115l130 -161h-84l-99 128q-74 -38 -168 -38q-77 0 -140.5 25.5t-110 71t-72 107.5t-25.5 136q0 73 25.5 135.5t72 108t110 71t140.5 25.5q76 0 140 -25.5t110.5 -71t72 -108t25.5 -135.5zM382 53q67 0 123 25v2l-124 152h84l95 -120
q46 37 72 92t26 123q0 59 -20 109.5t-56.5 87t-87.5 57t-112 20.5t-112 -20.5t-87.5 -57t-56.5 -87t-20 -109.5t20 -109.5t56.5 -87t87.5 -57t112 -20.5z" />
    <glyph glyph-name="R" unicode="R" horiz-adv-x="630" 
d="M515 0l-177 248h-199v-248h-72v654h289q58 0 100 -15.5t69 -42.5t40 -64t13 -80q0 -76 -39.5 -130t-124.5 -69v-2l188 -251h-87zM357 314q41 0 69 10.5t45.5 29t25.5 44t8 54.5t-8 54t-25.5 43t-45.5 28.5t-69 10.5h-218v-274h218z" />
    <glyph glyph-name="S" unicode="S" horiz-adv-x="548" 
d="M429 477q-3 57 -43.5 90t-111.5 33q-72 0 -113.5 -34.5t-41.5 -92.5q0 -35 17 -55t44.5 -31.5t62.5 -17.5t72 -12.5t72 -15.5t62.5 -28t44.5 -49.5t17 -78.5q0 -46 -17 -82.5t-48 -62.5t-75 -40t-98 -14q-53 0 -96.5 13.5t-75 39t-49 62t-18.5 82.5h71q2 -63 46 -97
t122 -34t123 35.5t45 95.5q0 35 -17 55.5t-44.5 32t-62.5 17.5t-72 12.5t-72 15.5t-62.5 27.5t-44.5 49t-17 78.5q0 43 16 79t45.5 62t71 40t92.5 14q49 0 90 -13.5t70 -38.5t45.5 -59.5t18.5 -77.5h-69z" />
    <glyph glyph-name="T" unicode="T" horiz-adv-x="570" 
d="M249 0v588h-222v66h516v-66h-222v-588h-72z" />
    <glyph glyph-name="U" unicode="U" horiz-adv-x="649" 
d="M528 654h70v-397q0 -62 -18 -112t-52.5 -85t-85 -54t-115.5 -19q-66 0 -117.5 19t-86.5 54t-53 85t-18 112v397h72v-397q0 -95 51 -149.5t151 -54.5t151 55t51 149v397z" />
    <glyph glyph-name="V" unicode="V" horiz-adv-x="648" 
d="M285 0l-260 654h80l219 -568h2l219 568h78l-261 -654h-77z" />
    <glyph glyph-name="W" unicode="W" horiz-adv-x="929" 
d="M805 654h72v-434q0 -58 -17 -101.5t-46 -73t-69.5 -44t-86.5 -14.5q-68 0 -118 31t-74 90h-2q-24 -59 -73.5 -90t-118.5 -31q-47 0 -87 14.5t-69.5 44t-46.5 73t-17 101.5v434h72v-434q0 -83 43.5 -125t109.5 -42t109 43t43 124v434h72v-434q0 -81 43 -124t109 -43
q33 0 60.5 10.5t48 31.5t32 52t11.5 73v434z" />
    <glyph glyph-name="X" unicode="X" horiz-adv-x="635" 
d="M22 0l247 333l-236 321h88l197 -276h2l198 276h85l-237 -320l247 -334h-88l-207 289h-2l-208 -289h-86z" />
    <glyph glyph-name="Y" unicode="Y" horiz-adv-x="649" 
d="M289 0v287l-269 367h87l218 -306h2l217 306h85l-268 -366v-288h-72z" />
    <glyph glyph-name="Z" unicode="Z" horiz-adv-x="600" 
d="M133 68v-2h419v-66h-509v62l409 524v2h-394v66h484v-62z" />
    <glyph glyph-name="bracketleft" unicode="[" horiz-adv-x="364" 
d="M85 -197v886h249v-55h-185v-776h185v-55h-249z" />
    <glyph glyph-name="backslash" unicode="\" horiz-adv-x="426" 
d="M363 -100l-342 754h62l342 -754h-62z" />
    <glyph glyph-name="bracketright" unicode="]" horiz-adv-x="364" 
d="M30 -197v55h185v776h-185v55h249v-886h-249z" />
    <glyph glyph-name="asciicircum" unicode="^" horiz-adv-x="562" 
d="M29 230l221 424h55l228 -424h-66l-188 356h-2l-182 -356h-66z" />
    <glyph glyph-name="underscore" unicode="_" horiz-adv-x="500" 
d="M0 -128v45h500v-45h-500z" />
    <glyph glyph-name="grave" unicode="`" horiz-adv-x="320" 
d="M187 570l-115 150h72l103 -150h-60z" />
    <glyph glyph-name="a" unicode="a" 
d="M560 0h-62v117h-2q-25 -60 -80.5 -95t-130.5 -35q-52 0 -98.5 18t-81.5 51.5t-55.5 82t-20.5 108.5q0 56 19.5 104t55 82.5t84 54t107.5 19.5q58 0 107 -19t84 -54t54.5 -83.5t19.5 -106.5v-244zM295 49q44 0 80.5 15t62.5 41.5t40.5 62.5t14.5 79t-14.5 79t-40.5 62.5
t-62.5 41.5t-80.5 15t-80.5 -15t-62.5 -41.5t-40.5 -62.5t-14.5 -79t14.5 -79t40.5 -62.5t62.5 -41.5t80.5 -15z" />
    <glyph glyph-name="b" unicode="b" 
d="M314 -13q-59 0 -107.5 19t-83.5 53.5t-54.5 83t-19.5 107.5v460h67v-318h2q27 53 80.5 84t125.5 31q52 0 98.5 -18t81.5 -51.5t55.5 -82t20.5 -108.5q0 -56 -19.5 -104t-55 -82.5t-84.5 -54t-107 -19.5zM314 49q44 0 80.5 15t62.5 41.5t40.5 62.5t14.5 79t-14.5 79
t-40.5 62.5t-62.5 41.5t-80.5 15q-45 0 -81.5 -15t-62.5 -41.5t-40 -62.5t-14 -79t14 -79t40 -62.5t62.5 -41.5t81.5 -15z" />
    <glyph glyph-name="c" unicode="c" horiz-adv-x="580" 
d="M481 323q-20 56 -69 89t-117 33q-44 0 -80.5 -15t-62.5 -41.5t-40.5 -62.5t-14.5 -79t14.5 -79t40.5 -62.5t62.5 -41.5t80.5 -15q68 0 117 33t69 89h68q-11 -41 -34 -75t-56 -58t-74.5 -37.5t-89.5 -13.5q-59 0 -107.5 19.5t-84 54t-55 82.5t-19.5 104t19.5 104t55 82.5
t84 54t107.5 19.5q48 0 89.5 -13.5t74.5 -37.5t56 -58t34 -75h-68z" />
    <glyph glyph-name="d" unicode="d" 
d="M295 -13q-59 0 -107.5 19.5t-84 54t-55 82.5t-19.5 104q0 60 20.5 108.5t55.5 82t81.5 51.5t98.5 18q72 0 125.5 -31t80.5 -84h2v318h67v-460q0 -59 -19.5 -107.5t-54.5 -83t-84 -53.5t-107 -19zM295 49q44 0 80.5 15t62.5 41.5t40.5 62.5t14.5 79t-14.5 79t-40.5 62.5
t-62.5 41.5t-80.5 15t-80.5 -15t-62.5 -41.5t-40.5 -62.5t-14.5 -79t14.5 -79t40.5 -62.5t62.5 -41.5t80.5 -15z" />
    <glyph glyph-name="e" unicode="e" horiz-adv-x="588" 
d="M98 225q3 -39 19 -71t41.5 -55.5t60 -36.5t76.5 -13q59 0 102.5 23t67.5 66h73q-29 -69 -92.5 -110t-150.5 -41q-59 0 -107.5 19.5t-84 54t-55 82.5t-19.5 104t19.5 104t55 82.5t84 54t107.5 19.5q58 0 107 -19.5t83.5 -54t54 -82.5t19.5 -104v-22h-461zM295 445
q-79 0 -131 -43.5t-64 -114.5v-2h389v2q-6 35 -22.5 64t-41.5 50t-58 32.5t-72 11.5z" />
    <glyph glyph-name="f" unicode="f" horiz-adv-x="479" 
d="M65 0v514q0 52 15 91t42.5 65.5t66 39.5t84.5 13t84 -13.5t65.5 -40t42.5 -66t15 -92.5h-66q0 78 -39 114t-102 36q-64 0 -102.5 -36t-38.5 -111v-89h290v-61h-290v-364h-67z" />
    <glyph glyph-name="g" unicode="g" 
d="M493 106h-2q-27 -54 -80.5 -85t-125.5 -31q-52 0 -98.5 17.5t-81.5 50.5t-55.5 81t-20.5 108q0 56 19.5 104t55 82.5t84 54t107.5 19.5q58 0 107 -19t84 -53.5t54.5 -83t19.5 -107.5v-203q0 -72 -20.5 -122t-55.5 -82t-83 -46.5t-103 -14.5q-90 0 -156 38t-92 121h68
q20 -53 68.5 -76.5t111.5 -23.5q43 0 78.5 11t61.5 35.5t40.5 63t14.5 93.5v68zM493 247q0 43 -14.5 79t-40.5 62.5t-62.5 41.5t-80.5 15t-80.5 -15t-62.5 -41.5t-40.5 -62.5t-14.5 -79t14.5 -78.5t40.5 -61.5t62.5 -40.5t80.5 -14.5t80.5 14.5t62.5 40.5t40.5 61.5
t14.5 78.5z" />
    <glyph glyph-name="h" unicode="h" horiz-adv-x="602" 
d="M309 445q-80 0 -128.5 -48t-48.5 -139v-258h-67v710h67v-308h2q25 50 72.5 77.5t112.5 27.5q49 0 92 -15t74.5 -46t49.5 -78t18 -110v-258h-67v258q0 92 -48 139.5t-129 47.5z" />
    <glyph glyph-name="i" unicode="i" horiz-adv-x="202" 
d="M101 577q-21 0 -36 15.5t-15 35.5q0 21 15 36t36 15t36 -15t15 -36q0 -20 -15 -35.5t-36 -15.5zM68 0v494h67v-494h-67z" />
    <glyph glyph-name="j" unicode="j" horiz-adv-x="202" 
d="M101 577q-21 0 -36 15.5t-15 35.5q0 21 15 36t36 15t36 -15t15 -36q0 -20 -15 -35.5t-36 -15.5zM-42 -218v58h8q56 0 78.5 26.5t22.5 89.5v538h67v-535q0 -89 -37.5 -133t-124.5 -44h-14z" />
    <glyph glyph-name="k" unicode="k" horiz-adv-x="517" 
d="M65 0v710h67v-436h2l260 220h94l-285 -240l295 -254h-95l-269 234h-2v-234h-67z" />
    <glyph glyph-name="l" unicode="l" horiz-adv-x="202" 
d="M68 0v710h67v-710h-67z" />
    <glyph glyph-name="m" unicode="m" horiz-adv-x="854" 
d="M394 0v289q0 78 -40 117t-100 39t-99 -38.5t-39 -117.5v-289h-67v289q0 55 15 96t42 68t63.5 40.5t79.5 13.5q60 0 106.5 -27.5t70.5 -81.5h2q23 54 69.5 81.5t107.5 27.5q43 0 79.5 -13.5t63.5 -40.5t42 -68t15 -96v-289h-67v289q0 79 -39 117.5t-99 38.5t-99.5 -39
t-39.5 -117v-289h-67z" />
    <glyph glyph-name="n" unicode="n" horiz-adv-x="586" 
d="M470 0v258q0 92 -48 139.5t-129 47.5t-129 -47.5t-48 -139.5v-258h-67v258q0 61 17.5 108t49.5 78t77 47t100 16t100 -16t77 -47t49.5 -78t17.5 -108v-258h-67z" />
    <glyph glyph-name="o" unicode="o" horiz-adv-x="590" 
d="M561 247q0 -56 -19.5 -104t-55 -82.5t-84.5 -54t-107 -19.5q-59 0 -107.5 19.5t-84 54t-55 82.5t-19.5 104t19.5 104t55 82.5t84 54t107.5 19.5q58 0 107 -19.5t84.5 -54t55 -82.5t19.5 -104zM295 49q44 0 80.5 15t62.5 41.5t40.5 62.5t14.5 79t-14.5 79t-40.5 62.5
t-62.5 41.5t-80.5 15t-80.5 -15t-62.5 -41.5t-40.5 -62.5t-14.5 -79t14.5 -79t40.5 -62.5t62.5 -41.5t80.5 -15z" />
    <glyph glyph-name="p" unicode="p" 
d="M49 -211v455q0 59 19.5 107.5t54.5 83t83.5 53.5t107.5 19q58 0 107 -19.5t84.5 -54t55 -82.5t19.5 -104q0 -60 -20.5 -108.5t-55.5 -82t-81.5 -51.5t-98.5 -18q-72 0 -125.5 30.5t-80.5 84.5h-2v-313h-67zM314 49q44 0 80.5 15t62.5 41.5t40.5 62.5t14.5 79t-14.5 79
t-40.5 62.5t-62.5 41.5t-80.5 15q-45 0 -81.5 -15t-62.5 -41.5t-40 -62.5t-14 -79t14 -79t40 -62.5t62.5 -41.5t81.5 -15z" />
    <glyph glyph-name="q" unicode="q" 
d="M493 -211v313h-2q-27 -54 -80.5 -84.5t-125.5 -30.5q-52 0 -98.5 18t-81.5 51.5t-55.5 82t-20.5 108.5q0 56 19.5 104t55 82.5t84 54t107.5 19.5q58 0 107 -19t84 -53.5t54.5 -83t19.5 -107.5v-455h-67zM295 49q45 0 81.5 15t62.5 41.5t40 62.5t14 79t-14 79t-40 62.5
t-62.5 41.5t-81.5 15q-44 0 -80.5 -15t-62.5 -41.5t-40.5 -62.5t-14.5 -79t14.5 -79t40.5 -62.5t62.5 -41.5t80.5 -15z" />
    <glyph glyph-name="r" unicode="r" horiz-adv-x="481" 
d="M398 289v7q0 78 -39 113.5t-102 35.5q-64 0 -102.5 -35.5t-38.5 -113.5v-296h-67v296q0 53 15 92.5t42.5 66t66 39.5t84.5 13t84 -13t65.5 -39.5t42.5 -66t15 -93.5v-6h-66z" />
    <glyph glyph-name="s" unicode="s" horiz-adv-x="468" 
d="M356 359q-2 37 -34 62t-88 25q-58 0 -90.5 -25t-32.5 -67q0 -32 24 -46t60 -20.5t78.5 -11t78.5 -17.5t60 -39.5t24 -76.5q0 -34 -14.5 -62.5t-40.5 -49.5t-63.5 -32.5t-83.5 -11.5t-82.5 11.5t-63 32t-41 48t-15.5 60.5h68q2 -40 36.5 -65.5t96.5 -25.5q66 0 100.5 26.5
t34.5 68.5q0 32 -24 46t-60 20.5t-78 11t-78 17t-60 39t-24 77.5q0 33 13 61.5t38 48.5t59.5 31.5t78.5 11.5q43 0 78 -11.5t59.5 -31t37.5 -47t14 -58.5h-66z" />
    <glyph glyph-name="t" unicode="t" horiz-adv-x="470" 
d="M435 182q0 -49 -14 -85.5t-39.5 -61t-60.5 -36.5t-78 -12t-79 12t-61.5 36.5t-39.5 61t-14 85.5v486h67v-174h291v-61h-291v-251q0 -68 34.5 -100.5t92.5 -32.5q57 0 92 32t35 101v11h65v-11z" />
    <glyph glyph-name="u" unicode="u" horiz-adv-x="586" 
d="M470 494h67v-258q0 -62 -17.5 -108.5t-49.5 -77.5t-77 -47t-100 -16t-100 16t-77 47t-49.5 77.5t-17.5 108.5v258h67v-258q0 -91 48 -139t129 -48t129 48t48 139v258z" />
    <glyph glyph-name="v" unicode="v" horiz-adv-x="566" 
d="M243 0l-222 494h75l187 -428h2l187 428h73l-222 -494h-80z" />
    <glyph glyph-name="w" unicode="w" horiz-adv-x="854" 
d="M460 494v-289q0 -78 40 -117t100 -39t99 38.5t39 117.5v289h67v-289q0 -55 -15 -96t-42 -68t-63.5 -40.5t-79.5 -13.5q-60 0 -106.5 27.5t-70.5 81.5h-2q-23 -54 -69.5 -81.5t-107.5 -27.5q-43 0 -79.5 13.5t-63.5 40.5t-42 68t-15 96v289h67v-289q0 -79 39 -117.5
t99 -38.5t99.5 39t39.5 117v289h67z" />
    <glyph glyph-name="x" unicode="x" horiz-adv-x="554" 
d="M19 0l210 251l-202 243h83l167 -206h2l167 206h81l-203 -243l211 -251h-83l-176 214h-2l-174 -214h-81z" />
    <glyph glyph-name="y" unicode="y" horiz-adv-x="602" 
d="M470 494h67v-476q0 -65 -19 -110.5t-52.5 -75t-78.5 -43t-97 -13.5q-42 0 -80 10t-68.5 29.5t-53 49.5t-34.5 70h67q20 -51 63.5 -75.5t105.5 -24.5q40 0 73 10t57 32t37 56.5t13 82.5v79h-2q-26 -50 -73 -77.5t-112 -27.5q-50 0 -92.5 15t-74 46t-49.5 78t-18 110v255
h67v-255q0 -92 48 -139.5t129 -47.5q80 0 128.5 48t48.5 139v255z" />
    <glyph glyph-name="z" unicode="z" horiz-adv-x="534" 
d="M37 0v54l353 378v2h-338v60h430v-54l-353 -378v-2h363v-60h-455z" />
    <glyph glyph-name="braceleft" unicode="{" horiz-adv-x="364" 
d="M301 -197q-91 0 -136 41.5t-45 135.5v189q0 49 -48 49h-25v56h25q48 0 48 49v189q0 94 45 135.5t136 41.5h45v-54h-45q-57 0 -88 -29t-31 -90v-188q0 -33 -13 -54t-41 -27v-2q28 -6 41 -27t13 -54v-188q0 -61 31 -90t88 -29h45v-54h-45z" />
    <glyph glyph-name="bar" unicode="|" horiz-adv-x="346" 
d="M146 -211v1000h53v-1000h-53z" />
    <glyph glyph-name="braceright" unicode="}" horiz-adv-x="364" 
d="M64 689q91 0 136 -41.5t45 -135.5v-189q0 -49 48 -49h25v-56h-25q-48 0 -48 -49v-189q0 -94 -45 -135.5t-136 -41.5h-45v54h45q57 0 88 29t31 90v188q0 33 13 54t41 27v2q-28 6 -41 27t-13 54v188q0 61 -31 90t-88 29h-45v54h45z" />
    <glyph glyph-name="asciitilde" unicode="~" horiz-adv-x="562" 
d="M519 343q-3 -82 -38.5 -124t-92.5 -42q-38 0 -65.5 17t-50.5 37t-45 37t-49 17q-33 0 -55 -25t-25 -80h-55q3 83 38.5 124.5t92.5 41.5q38 0 65.5 -17t50.5 -37t45 -37t49 -17q33 0 55 25t25 80h55z" />
    <glyph glyph-name="uni00A0" unicode="&#xa0;" horiz-adv-x="266" 
 />
    <glyph glyph-name="exclamdown" unicode="&#xa1;" horiz-adv-x="255" 
d="M127 456q21 0 36 -15t15 -36t-15 -36t-36 -15q-20 0 -35 15t-15 36t15 36t35 15zM155 271l10 -482h-75l9 482h56z" />
    <glyph glyph-name="cent" unicode="&#xa2;" horiz-adv-x="522" 
d="M242 668h50v-110q76 -8 129 -51.5t71 -110.5h-69q-16 40 -50 66.5t-81 32.5v-335q47 6 81 32.5t50 67.5h69q-18 -68 -71 -111.5t-129 -50.5v-112h-50v112q-47 4 -86.5 22.5t-67.5 49t-43.5 71t-15.5 87.5t15.5 87t43.5 70.5t67.5 49.5t86.5 23v110zM96 328
q0 -33 10.5 -62t29.5 -51t46 -36.5t60 -18.5v335q-66 -8 -106 -54t-40 -113z" />
    <glyph glyph-name="sterling" unicode="&#xa3;" horiz-adv-x="522" 
d="M208 234q3 -18 3 -39q0 -41 -17.5 -77t-53.5 -56v-2h318v-60h-409v56q51 16 76.5 51t25.5 83q0 12 -1.5 22.5t-3.5 21.5h-97v51l75 4v2q-11 20 -22.5 40t-22 42.5t-17 48t-6.5 57.5q0 40 15 74t42.5 59.5t66 40t85.5 14.5q48 0 86.5 -16t65.5 -44.5t41.5 -69.5t14.5 -90
v-9h-65v9q0 72 -38 115t-105 43q-66 0 -103.5 -36t-37.5 -94q0 -30 7 -53.5t17 -44.5t21.5 -41t20.5 -42h222v-60h-204z" />
    <glyph glyph-name="currency" unicode="&#xa4;" horiz-adv-x="522" 
d="M370 185q-46 -35 -112 -35q-32 0 -59 8.5t-49 23.5l-91 -92l-35 34l91 91q-38 47 -38 113q0 32 10 60t27 51l-90 90l35 35l90 -92q22 16 49.5 24.5t59.5 8.5q65 0 112 -36l93 95l35 -35l-94 -92q17 -22 26.5 -49.5t9.5 -59.5t-10 -60t-27 -51l95 -93l-35 -34zM258 196
q30 0 54.5 10t42 27.5t27.5 41.5t10 53q0 28 -10 52.5t-27.5 42t-42 27.5t-54.5 10q-29 0 -53.5 -10t-42 -27.5t-27 -42t-9.5 -52.5q0 -29 9.5 -53t27 -41.5t42 -27.5t53.5 -10z" />
    <glyph glyph-name="yen" unicode="&#xa5;" horiz-adv-x="522" 
d="M295 119v-119h-67v119h-180v58h180v81h-180v58h180v2l-217 336h77l173 -287h2l172 287h76l-217 -336v-2h180v-58h-179v-81h179v-58h-179z" />
    <glyph glyph-name="brokenbar" unicode="&#xa6;" horiz-adv-x="346" 
d="M146 -211v400h53v-400h-53zM146 389v400h53v-400h-53z" />
    <glyph glyph-name="section" unicode="&#xa7;" horiz-adv-x="556" 
d="M137 -32q2 -50 39 -78.5t99 -28.5q65 0 101.5 29.5t36.5 80.5q0 38 -26.5 55.5t-66 26.5t-86 16t-86 23.5t-66 49t-26.5 92.5q0 55 31.5 90t80.5 52v2q-40 14 -66.5 41t-26.5 82q0 37 15 68t42.5 52.5t65 33.5t82.5 12t82 -11.5t64 -33t42.5 -51.5t16.5 -67h-66
q-2 50 -39 78.5t-99 28.5q-65 0 -102 -29.5t-37 -80.5q0 -38 26.5 -55.5t66.5 -26.5t86 -16t86 -23.5t66.5 -49t26.5 -92.5q0 -55 -32.5 -90t-80.5 -52v-2q40 -14 67 -41t27 -82q0 -38 -15 -68.5t-42.5 -52t-65 -33.5t-82.5 -12q-91 0 -147 44.5t-58 118.5h66zM436 234
q0 34 -14.5 55.5t-38 34.5t-54 19.5t-62.5 12.5q-27 -1 -53.5 -9t-47 -22.5t-33.5 -36t-13 -50.5q0 -35 14 -56t37.5 -34t54 -20t63.5 -12q27 1 53 8.5t47 22t34 36.5t13 51z" />
    <glyph glyph-name="dieresis" unicode="&#xa8;" horiz-adv-x="320" 
d="M253 589q-19 0 -32.5 14t-13.5 32q0 19 13.5 32.5t32.5 13.5t32.5 -13.5t13.5 -32.5q0 -18 -13.5 -32t-32.5 -14zM67 589q-18 0 -32 14t-14 32q0 19 14 32.5t32 13.5q19 0 32.5 -13.5t13.5 -32.5q0 -18 -13.5 -32t-32.5 -14z" />
    <glyph glyph-name="copyright" unicode="&#xa9;" horiz-adv-x="764" 
d="M730 327q0 -74 -25.5 -136t-72 -107.5t-110.5 -71t-140 -25.5q-77 0 -140.5 25.5t-110 71t-72 107.5t-25.5 136q0 73 25.5 135.5t72 108t110 71t140.5 25.5q76 0 140 -25.5t110.5 -71t72 -108t25.5 -135.5zM504 382q-15 35 -47 56t-76 21q-29 0 -53.5 -10t-42 -27.5
t-27 -42t-9.5 -52.5q0 -29 9.5 -53t27 -41.5t42 -27.5t53.5 -10q44 0 76 21t47 56h47q-16 -54 -61 -87.5t-109 -33.5q-39 0 -72 13.5t-57 37t-37 55.5t-13 70t13 70t37 55.5t57 37t72 13.5q64 0 109 -33.5t61 -87.5h-47zM683 327q0 64 -22 118.5t-62 94t-95 61.5t-122 22
t-122.5 -22t-95 -61.5t-61.5 -94t-22 -118.5t22 -118.5t61.5 -94t95 -61.5t122.5 -22t122.5 22t95 61.5t61.5 94t22 118.5z" />
    <glyph glyph-name="ordfeminine" unicode="&#xaa;" horiz-adv-x="435" 
d="M339 326v77h-2q-18 -39 -54.5 -62.5t-83.5 -23.5q-33 0 -64 11.5t-54.5 34t-37.5 55t-14 74.5q0 38 13 70t37 55.5t57 36.5t72 13t71.5 -13t56.5 -36t37 -55.5t13 -71.5v-165h-47zM39 194v47h347v-47h-347zM208 367q28 0 51 9.5t39.5 26t25.5 39.5t9 50q0 55 -34.5 90.5
t-90.5 35.5t-90.5 -35.5t-34.5 -90.5q0 -27 9 -50t25.5 -39.5t39.5 -26t51 -9.5z" />
    <glyph glyph-name="guillemotleft" unicode="&#xab;" horiz-adv-x="540" 
d="M226 48l-170 199l170 199h74l-171 -199l171 -199h-74zM409 48l-170 199l170 199h74l-171 -199l171 -199h-74z" />
    <glyph glyph-name="logicalnot" unicode="&#xac;" horiz-adv-x="562" 
d="M454 61v202h-404v58h462v-260h-58z" />
    <glyph glyph-name="uni00AD" unicode="&#xad;" horiz-adv-x="346" 
d="M23 239v65h300v-65h-300z" />
    <glyph glyph-name="registered" unicode="&#xae;" horiz-adv-x="764" 
d="M730 327q0 -74 -25.5 -136t-72 -107.5t-110.5 -71t-140 -25.5q-77 0 -140.5 25.5t-110 71t-72 107.5t-25.5 136q0 73 25.5 135.5t72 108t110 71t140.5 25.5q76 0 140 -25.5t110.5 -71t72 -108t25.5 -135.5zM683 327q0 64 -22 118.5t-62 94t-95 61.5t-122 22t-122.5 -22
t-95 -61.5t-61.5 -94t-22 -118.5t22 -118.5t61.5 -94t95 -61.5t122.5 -22t122.5 22t95 61.5t61.5 94t22 118.5zM487 161l-92 119h-97v-119h-47v332h168q54 0 84 -29t30 -77q0 -42 -22.5 -70t-64.5 -35v-2l98 -119h-57zM298 452v-131h117q35 0 53 18.5t18 47.5t-18 47t-53 18
h-117z" />
    <glyph glyph-name="macron" unicode="&#xaf;" horiz-adv-x="320" 
d="M10 595v49h300v-49h-300z" />
    <glyph glyph-name="degree" unicode="&#xb0;" horiz-adv-x="318" 
d="M159 410q-27 0 -50.5 10t-41 27.5t-27.5 41t-10 50.5t10 50t27.5 40.5t41 27.5t50.5 10t50 -10t40.5 -27.5t27.5 -40.5t10 -50t-10 -50.5t-27.5 -41t-40.5 -27.5t-50 -10zM236 539q0 32 -22.5 54.5t-54.5 22.5t-54.5 -22.5t-22.5 -54.5q0 -16 6 -30.5t16.5 -25
t24.5 -16.5t30 -6q32 0 54.5 23t22.5 55z" />
    <glyph glyph-name="plusminus" unicode="&#xb1;" horiz-adv-x="562" 
d="M50 10v57h202v179h-202v58h202v192h58v-192h202v-58h-202v-179h202v-57h-462z" />
    <glyph glyph-name="uni00B2" unicode="&#xb2;" horiz-adv-x="340" 
d="M40 242v45l155 144q26 23 41 46t15 51q0 38 -21 61.5t-59 23.5t-59 -24t-21 -65v-6h-51v6q0 63 34.5 100.5t97.5 37.5q60 0 95.5 -38t35.5 -96q0 -41 -19 -70t-52 -60l-116 -106v-2h182v-48h-258z" />
    <glyph glyph-name="uni00B3" unicode="&#xb3;" horiz-adv-x="340" 
d="M119 437v45h49q37 0 56.5 17t19.5 49q0 27 -19.5 46.5t-56.5 19.5t-55.5 -19.5t-20.5 -47.5h-51q3 56 37.5 85.5t89.5 29.5q57 0 92.5 -30t35.5 -81q0 -65 -56 -90v-2q34 -11 52.5 -37t18.5 -65q0 -57 -40 -90t-103 -33q-62 0 -101.5 33t-40.5 93h52q0 -32 23 -54.5
t67 -22.5t67 22.5t23 55.5q0 36 -23 56t-68 20h-48z" />
    <glyph glyph-name="acute" unicode="&#xb4;" horiz-adv-x="320" 
d="M72 570l103 150h72l-115 -150h-60z" />
    <glyph glyph-name="uni00B5" unicode="&#xb5;" horiz-adv-x="604" 
d="M66 -211v705h67v-258q0 -91 48.5 -139t128.5 -48q81 0 129 47.5t48 139.5v258h67v-258q0 -63 -18 -110t-49.5 -78t-74.5 -46t-92 -15q-65 0 -112.5 27.5t-72.5 77.5h-2v-303h-67z" />
    <glyph glyph-name="paragraph" unicode="&#xb6;" horiz-adv-x="596" 
d="M257 -172v377q-51 3 -91.5 21.5t-69 48t-43.5 69t-15 86.5q0 48 17 89t48 71t75.5 47t99.5 17h240v-826h-52v776h-157v-776h-52z" />
    <glyph glyph-name="periodcentered" unicode="&#xb7;" horiz-adv-x="239" 
d="M120 276q-21 0 -36 15t-15 36t15 36t36 15q20 0 35 -15t15 -36t-15 -36t-35 -15z" />
    <glyph glyph-name="cedilla" unicode="&#xb8;" horiz-adv-x="320" 
d="M101 -89l37 89h44l-27 -65v-2q8 3 13 4t13 1q35 0 58.5 -21t23.5 -56q0 -41 -27.5 -63t-75.5 -22q-45 0 -72.5 20t-31.5 56h50q2 -17 16.5 -26t37.5 -9q24 0 38 10t14 33q0 17 -11.5 27.5t-30.5 10.5q-11 0 -17.5 -1.5t-14.5 -6.5z" />
    <glyph glyph-name="uni00B9" unicode="&#xb9;" horiz-adv-x="340" 
d="M172 242v364h-93v48h146v-412h-53z" />
    <glyph glyph-name="ordmasculine" unicode="&#xba;" horiz-adv-x="415" 
d="M386 492q0 -38 -13 -70t-37 -55t-56.5 -36t-71.5 -13t-72 13t-57 36t-37 55t-13 70t13 70t37 55.5t57 36.5t72 13t71.5 -13t56.5 -36.5t37 -55.5t13 -70zM208 367q28 0 51 9.5t39.5 26t25.5 39.5t9 50q0 55 -34.5 90.5t-90.5 35.5t-91 -35.5t-35 -90.5q0 -27 9.5 -50
t26 -39.5t39.5 -26t51 -9.5zM39 194v47h337v-47h-337z" />
    <glyph glyph-name="guillemotright" unicode="&#xbb;" horiz-adv-x="540" 
d="M57 48l171 199l-171 199h74l170 -199l-170 -199h-74zM240 48l171 199l-171 199h74l170 -199l-170 -199h-74z" />
    <glyph glyph-name="onequarter" unicode="&#xbc;" horiz-adv-x="824" 
d="M171 0l426 654h56l-426 -654h-56zM172 242v364h-93v48h146v-412h-53zM709 0v92h-205v44l205 276h53v-273h46v-47h-46v-92h-53zM708 338l-145 -197v-2h147v199h-2z" />
    <glyph glyph-name="onehalf" unicode="&#xbd;" horiz-adv-x="824" 
d="M171 0l426 654h56l-426 -654h-56zM172 242v364h-93v48h146v-412h-53zM524 0v45l155 144q26 23 41 46t15 51q0 38 -21 61.5t-59 23.5t-59 -24t-21 -65v-6h-51v6q0 63 34.5 100.5t97.5 37.5q60 0 95.5 -38t35.5 -96q0 -41 -19 -70t-52 -60l-116 -106v-2h182v-48h-258z" />
    <glyph glyph-name="threequarters" unicode="&#xbe;" horiz-adv-x="824" 
d="M218 0l426 654h56l-426 -654h-56zM709 0v92h-205v44l205 276h53v-273h46v-47h-46v-92h-53zM708 338l-145 -197v-2h147v199h-2zM119 437v45h49q37 0 56.5 17t19.5 49q0 27 -19.5 46.5t-56.5 19.5t-55.5 -19.5t-20.5 -47.5h-51q3 56 37.5 85.5t89.5 29.5q57 0 92.5 -30
t35.5 -81q0 -65 -56 -90v-2q34 -11 52.5 -37t18.5 -65q0 -57 -40 -90t-103 -33q-62 0 -101.5 33t-40.5 93h52q0 -32 23 -54.5t67 -22.5t67 22.5t23 55.5q0 36 -23 56t-68 20h-48z" />
    <glyph glyph-name="questiondown" unicode="&#xbf;" horiz-adv-x="471" 
d="M295 271v-16q0 -42 -14.5 -69.5t-36.5 -46.5t-47 -34t-47 -32.5t-36.5 -41.5t-14.5 -62q0 -63 38.5 -97t99.5 -34q60 0 100.5 35t40.5 98v8h63v-10q0 -44 -15.5 -80t-43 -61t-65 -38.5t-81.5 -13.5q-45 0 -82.5 13.5t-64.5 38t-42.5 60.5t-15.5 81q0 48 15 79t37.5 52
t49 35.5t49 30t37.5 36t15 53.5v16h61zM264 456q20 0 35.5 -15t15.5 -36t-15.5 -36t-35.5 -15q-21 0 -36 15t-15 36t15 36t36 15z" />
    <glyph glyph-name="Agrave" unicode="&#xc0;" horiz-adv-x="668" 
d="M544 0v220h-423v-220h-70v387q0 64 18.5 116t54.5 88.5t88.5 56t120.5 19.5q69 0 121.5 -19.5t88.5 -56t54.5 -88.5t18.5 -116v-387h-72zM544 387q0 100 -53 157t-159 57q-104 0 -157.5 -57t-53.5 -157v-101h423v101zM327 720l-115 150h72l103 -150h-60z" />
    <glyph glyph-name="Aacute" unicode="&#xc1;" horiz-adv-x="668" 
d="M544 0v220h-423v-220h-70v387q0 64 18.5 116t54.5 88.5t88.5 56t120.5 19.5q69 0 121.5 -19.5t88.5 -56t54.5 -88.5t18.5 -116v-387h-72zM544 387q0 100 -53 157t-159 57q-104 0 -157.5 -57t-53.5 -157v-101h423v101zM281 720l103 150h72l-115 -150h-60z" />
    <glyph glyph-name="Acircumflex" unicode="&#xc2;" horiz-adv-x="668" 
d="M544 0v220h-423v-220h-70v387q0 64 18.5 116t54.5 88.5t88.5 56t120.5 19.5q69 0 121.5 -19.5t88.5 -56t54.5 -88.5t18.5 -116v-387h-72zM544 387q0 100 -53 157t-159 57q-104 0 -157.5 -57t-53.5 -157v-101h423v101zM416 720l-81 107h-2l-81 -107h-59l108 150h66
l108 -150h-59z" />
    <glyph glyph-name="Atilde" unicode="&#xc3;" horiz-adv-x="668" 
d="M544 0v220h-423v-220h-70v387q0 64 18.5 116t54.5 88.5t88.5 56t120.5 19.5q69 0 121.5 -19.5t88.5 -56t54.5 -88.5t18.5 -116v-387h-72zM544 387q0 100 -53 157t-159 57q-104 0 -157.5 -57t-53.5 -157v-101h423v101zM508 847q-18 -123 -103 -123q-27 0 -45.5 11
t-33 23.5t-28 23.5t-32.5 11q-25 0 -38.5 -17.5t-20.5 -52.5h-47q18 122 103 122q27 0 45.5 -10.5t33 -23.5t28 -23.5t32.5 -10.5q25 0 38.5 17.5t20.5 52.5h47z" />
    <glyph glyph-name="Adieresis" unicode="&#xc4;" horiz-adv-x="668" 
d="M544 0v220h-423v-220h-70v387q0 64 18.5 116t54.5 88.5t88.5 56t120.5 19.5q69 0 121.5 -19.5t88.5 -56t54.5 -88.5t18.5 -116v-387h-72zM544 387q0 100 -53 157t-159 57q-104 0 -157.5 -57t-53.5 -157v-101h423v101zM427 739q-19 0 -32.5 14t-13.5 32q0 19 13.5 32.5
t32.5 13.5t32.5 -13.5t13.5 -32.5q0 -18 -13.5 -32t-32.5 -14zM241 739q-18 0 -32 14t-14 32q0 19 14 32.5t32 13.5q19 0 32.5 -13.5t13.5 -32.5q0 -18 -13.5 -32t-32.5 -14z" />
    <glyph glyph-name="Aring" unicode="&#xc5;" horiz-adv-x="668" 
d="M544 0v220h-423v-220h-70v387q0 64 18.5 116t54.5 88.5t88.5 56t120.5 19.5q69 0 121.5 -19.5t88.5 -56t54.5 -88.5t18.5 -116v-387h-72zM544 387q0 100 -53 157t-159 57q-104 0 -157.5 -57t-53.5 -157v-101h423v101zM334 707q-41 0 -68.5 27t-27.5 68t27.5 68.5
t68.5 27.5q42 0 69 -27.5t27 -68.5t-27 -68t-69 -27zM383 802q0 21 -13.5 35.5t-35.5 14.5q-21 0 -35 -14.5t-14 -35.5t14 -35.5t35 -14.5q22 0 35.5 14.5t13.5 35.5z" />
    <glyph glyph-name="AE" unicode="&#xc6;" horiz-adv-x="1028" 
d="M504 0v220h-383v-220h-70v374q0 64 18.5 116t54.5 88.5t88.5 56t120.5 19.5h649v-66h-406v-223h348v-66h-348v-233h406v-66h-478zM504 588h-172q-104 0 -157.5 -57t-53.5 -157v-88h383v302z" />
    <glyph glyph-name="Ccedilla" unicode="&#xc7;" horiz-adv-x="751" 
d="M317 -89l32 76v2q-70 5 -128 32.5t-99.5 72.5t-64.5 104.5t-23 128.5q0 73 25.5 135.5t72 108t110 71t140.5 25.5q61 0 115 -16.5t97 -47t73.5 -73.5t46.5 -95h-76q-15 37 -39.5 68t-57.5 52.5t-73 33.5t-86 12q-61 0 -112 -20.5t-87.5 -57t-56.5 -87t-20 -109.5
t20 -109.5t56.5 -87t87.5 -57t112 -20.5q46 0 86 12t73 33.5t57.5 52t39.5 68.5h76q-15 -51 -45 -93t-71.5 -72.5t-93.5 -48t-112 -18.5l-21 -52v-2q8 3 13 4t13 1q35 0 58.5 -21t23.5 -56q0 -41 -27.5 -63t-75.5 -22q-45 0 -72.5 20t-31.5 56h50q2 -17 16.5 -26t37.5 -9
q24 0 38 10t14 33q0 17 -11.5 27.5t-30.5 10.5q-11 0 -17.5 -1.5t-14.5 -6.5z" />
    <glyph glyph-name="Egrave" unicode="&#xc8;" horiz-adv-x="593" 
d="M67 0v654h480v-66h-408v-223h350v-66h-350v-233h408v-66h-480zM302 720l-115 150h72l103 -150h-60z" />
    <glyph glyph-name="Eacute" unicode="&#xc9;" horiz-adv-x="593" 
d="M67 0v654h480v-66h-408v-223h350v-66h-350v-233h408v-66h-480zM257 720l103 150h72l-115 -150h-60z" />
    <glyph glyph-name="Ecircumflex" unicode="&#xca;" horiz-adv-x="593" 
d="M67 0v654h480v-66h-408v-223h350v-66h-350v-233h408v-66h-480zM392 720l-81 107h-2l-81 -107h-59l108 150h66l108 -150h-59z" />
    <glyph glyph-name="Edieresis" unicode="&#xcb;" horiz-adv-x="593" 
d="M67 0v654h480v-66h-408v-223h350v-66h-350v-233h408v-66h-480zM402 739q-19 0 -32.5 14t-13.5 32q0 19 13.5 32.5t32.5 13.5t32.5 -13.5t13.5 -32.5q0 -18 -13.5 -32t-32.5 -14zM216 739q-18 0 -32 14t-14 32q0 19 14 32.5t32 13.5q19 0 32.5 -13.5t13.5 -32.5
q0 -18 -13.5 -32t-32.5 -14z" />
    <glyph glyph-name="Igrave" unicode="&#xcc;" horiz-adv-x="211" 
d="M70 0v654h72v-654h-72zM99 720l-115 150h72l103 -150h-60z" />
    <glyph glyph-name="Iacute" unicode="&#xcd;" horiz-adv-x="211" 
d="M70 0v654h72v-654h-72zM53 720l103 150h72l-115 -150h-60z" />
    <glyph glyph-name="Icircumflex" unicode="&#xce;" horiz-adv-x="211" 
d="M70 0v654h72v-654h-72zM188 720l-81 107h-2l-81 -107h-59l108 150h66l108 -150h-59z" />
    <glyph glyph-name="Idieresis" unicode="&#xcf;" horiz-adv-x="211" 
d="M70 0v654h72v-654h-72zM199 739q-19 0 -32.5 14t-13.5 32q0 19 13.5 32.5t32.5 13.5t32.5 -13.5t13.5 -32.5q0 -18 -13.5 -32t-32.5 -14zM13 739q-18 0 -32 14t-14 32q0 19 14 32.5t32 13.5q19 0 32.5 -13.5t13.5 -32.5q0 -18 -13.5 -32t-32.5 -14z" />
    <glyph glyph-name="Eth" unicode="&#xd0;" horiz-adv-x="690" 
d="M75 0v299h-64v66h64v289h234q85 0 149.5 -23.5t108.5 -66.5t66.5 -103.5t22.5 -133.5q0 -74 -22.5 -134t-66.5 -103t-108.5 -66.5t-149.5 -23.5h-234zM309 66q69 0 121 18.5t86 53t51 82.5t17 107t-17 107t-51 82.5t-86 53t-121 18.5h-162v-223h213v-66h-213v-233h162z
" />
    <glyph glyph-name="Ntilde" unicode="&#xd1;" horiz-adv-x="653" 
d="M529 0v397q0 95 -51 149.5t-151 54.5t-151.5 -54.5t-51.5 -149.5v-397h-72v397q0 62 18 112t53 85t86.5 54t117.5 19t117 -19t86 -54t53 -85t18 -112v-397h-72zM501 847q-18 -123 -103 -123q-27 0 -45.5 11t-33 23.5t-28 23.5t-32.5 11q-25 0 -38.5 -17.5t-20.5 -52.5
h-47q18 122 103 122q27 0 45.5 -10.5t33 -23.5t28 -23.5t32.5 -10.5q25 0 38.5 17.5t20.5 52.5h47z" />
    <glyph glyph-name="Ograve" unicode="&#xd2;" horiz-adv-x="764" 
d="M730 327q0 -74 -25.5 -136t-72 -107.5t-110.5 -71t-140 -25.5q-77 0 -140.5 25.5t-110 71t-72 107.5t-25.5 136q0 73 25.5 135.5t72 108t110 71t140.5 25.5q76 0 140 -25.5t110.5 -71t72 -108t25.5 -135.5zM382 53q61 0 112 20.5t87.5 57t56.5 87t20 109.5t-20 109.5
t-56.5 87t-87.5 57t-112 20.5t-112 -20.5t-87.5 -57t-56.5 -87t-20 -109.5t20 -109.5t56.5 -87t87.5 -57t112 -20.5zM374 720l-115 150h72l103 -150h-60z" />
    <glyph glyph-name="Oacute" unicode="&#xd3;" horiz-adv-x="764" 
d="M730 327q0 -74 -25.5 -136t-72 -107.5t-110.5 -71t-140 -25.5q-77 0 -140.5 25.5t-110 71t-72 107.5t-25.5 136q0 73 25.5 135.5t72 108t110 71t140.5 25.5q76 0 140 -25.5t110.5 -71t72 -108t25.5 -135.5zM382 53q61 0 112 20.5t87.5 57t56.5 87t20 109.5t-20 109.5
t-56.5 87t-87.5 57t-112 20.5t-112 -20.5t-87.5 -57t-56.5 -87t-20 -109.5t20 -109.5t56.5 -87t87.5 -57t112 -20.5zM329 720l103 150h72l-115 -150h-60z" />
    <glyph glyph-name="Ocircumflex" unicode="&#xd4;" horiz-adv-x="764" 
d="M730 327q0 -74 -25.5 -136t-72 -107.5t-110.5 -71t-140 -25.5q-77 0 -140.5 25.5t-110 71t-72 107.5t-25.5 136q0 73 25.5 135.5t72 108t110 71t140.5 25.5q76 0 140 -25.5t110.5 -71t72 -108t25.5 -135.5zM382 53q61 0 112 20.5t87.5 57t56.5 87t20 109.5t-20 109.5
t-56.5 87t-87.5 57t-112 20.5t-112 -20.5t-87.5 -57t-56.5 -87t-20 -109.5t20 -109.5t56.5 -87t87.5 -57t112 -20.5zM464 720l-81 107h-2l-81 -107h-59l108 150h66l108 -150h-59z" />
    <glyph glyph-name="Otilde" unicode="&#xd5;" horiz-adv-x="764" 
d="M730 327q0 -74 -25.5 -136t-72 -107.5t-110.5 -71t-140 -25.5q-77 0 -140.5 25.5t-110 71t-72 107.5t-25.5 136q0 73 25.5 135.5t72 108t110 71t140.5 25.5q76 0 140 -25.5t110.5 -71t72 -108t25.5 -135.5zM382 53q61 0 112 20.5t87.5 57t56.5 87t20 109.5t-20 109.5
t-56.5 87t-87.5 57t-112 20.5t-112 -20.5t-87.5 -57t-56.5 -87t-20 -109.5t20 -109.5t56.5 -87t87.5 -57t112 -20.5zM556 847q-18 -123 -103 -123q-27 0 -45.5 11t-33 23.5t-28 23.5t-32.5 11q-25 0 -38.5 -17.5t-20.5 -52.5h-47q18 122 103 122q27 0 45.5 -10.5t33 -23.5
t28 -23.5t32.5 -10.5q25 0 38.5 17.5t20.5 52.5h47z" />
    <glyph glyph-name="Odieresis" unicode="&#xd6;" horiz-adv-x="764" 
d="M730 327q0 -74 -25.5 -136t-72 -107.5t-110.5 -71t-140 -25.5q-77 0 -140.5 25.5t-110 71t-72 107.5t-25.5 136q0 73 25.5 135.5t72 108t110 71t140.5 25.5q76 0 140 -25.5t110.5 -71t72 -108t25.5 -135.5zM382 53q61 0 112 20.5t87.5 57t56.5 87t20 109.5t-20 109.5
t-56.5 87t-87.5 57t-112 20.5t-112 -20.5t-87.5 -57t-56.5 -87t-20 -109.5t20 -109.5t56.5 -87t87.5 -57t112 -20.5zM475 739q-19 0 -32.5 14t-13.5 32q0 19 13.5 32.5t32.5 13.5t32.5 -13.5t13.5 -32.5q0 -18 -13.5 -32t-32.5 -14zM289 739q-18 0 -32 14t-14 32
q0 19 14 32.5t32 13.5q19 0 32.5 -13.5t13.5 -32.5q0 -18 -13.5 -32t-32.5 -14z" />
    <glyph glyph-name="multiply" unicode="&#xd7;" horiz-adv-x="562" 
d="M281 221l-177 -177l-41 41l177 177l-177 177l41 41l177 -177l177 177l41 -41l-177 -177l177 -177l-41 -41z" />
    <glyph glyph-name="Oslash" unicode="&#xd8;" horiz-adv-x="764" 
d="M34 0l87 94q-42 45 -64.5 104t-22.5 129q0 73 25.5 135.5t72 108t110 71t140.5 25.5q62 0 115 -16.5t97 -47.5l47 51h89l-88 -94q42 -45 65 -104.5t23 -128.5q0 -74 -25.5 -136t-72 -107.5t-110.5 -71t-140 -25.5q-62 0 -115.5 16.5t-96.5 47.5l-47 -51h-89zM106 327
q0 -107 62 -181h2l375 405v2q-68 48 -163 48q-61 0 -112 -20.5t-87.5 -57t-56.5 -87t-20 -109.5zM382 53q61 0 112 20.5t87.5 57t56.5 87t20 109.5q0 53 -16.5 99t-45.5 81h-2l-375 -404v-2q68 -48 163 -48z" />
    <glyph glyph-name="Ugrave" unicode="&#xd9;" horiz-adv-x="649" 
d="M528 654h70v-397q0 -62 -18 -112t-52.5 -85t-85 -54t-115.5 -19q-66 0 -117.5 19t-86.5 54t-53 85t-18 112v397h72v-397q0 -95 51 -149.5t151 -54.5t151 55t51 149v397zM317 720l-115 150h72l103 -150h-60z" />
    <glyph glyph-name="Uacute" unicode="&#xda;" horiz-adv-x="649" 
d="M528 654h70v-397q0 -62 -18 -112t-52.5 -85t-85 -54t-115.5 -19q-66 0 -117.5 19t-86.5 54t-53 85t-18 112v397h72v-397q0 -95 51 -149.5t151 -54.5t151 55t51 149v397zM271 720l103 150h72l-115 -150h-60z" />
    <glyph glyph-name="Ucircumflex" unicode="&#xdb;" horiz-adv-x="649" 
d="M528 654h70v-397q0 -62 -18 -112t-52.5 -85t-85 -54t-115.5 -19q-66 0 -117.5 19t-86.5 54t-53 85t-18 112v397h72v-397q0 -95 51 -149.5t151 -54.5t151 55t51 149v397zM406 720l-81 107h-2l-81 -107h-59l108 150h66l108 -150h-59z" />
    <glyph glyph-name="Udieresis" unicode="&#xdc;" horiz-adv-x="649" 
d="M528 654h70v-397q0 -62 -18 -112t-52.5 -85t-85 -54t-115.5 -19q-66 0 -117.5 19t-86.5 54t-53 85t-18 112v397h72v-397q0 -95 51 -149.5t151 -54.5t151 55t51 149v397zM417 739q-19 0 -32.5 14t-13.5 32q0 19 13.5 32.5t32.5 13.5t32.5 -13.5t13.5 -32.5
q0 -18 -13.5 -32t-32.5 -14zM231 739q-18 0 -32 14t-14 32q0 19 14 32.5t32 13.5q19 0 32.5 -13.5t13.5 -32.5q0 -18 -13.5 -32t-32.5 -14z" />
    <glyph glyph-name="Yacute" unicode="&#xdd;" horiz-adv-x="649" 
d="M289 0v287l-269 367h87l218 -306h2l217 306h85l-268 -366v-288h-72zM271 720l103 150h72l-115 -150h-60z" />
    <glyph glyph-name="Thorn" unicode="&#xde;" horiz-adv-x="601" 
d="M67 0v654h72v-92h216q56 0 98 -16t69.5 -43.5t41.5 -65.5t14 -83t-14 -83.5t-41.5 -66t-69.5 -43.5t-98 -16h-216v-145h-72zM355 211q40 0 68.5 11t46.5 30t26.5 45.5t8.5 56.5t-8.5 56t-26.5 45t-46.5 30t-68.5 11h-216v-285h216z" />
    <glyph glyph-name="germandbls" unicode="&#xdf;" horiz-adv-x="598" 
d="M390 381q88 -11 133 -62.5t45 -131.5q0 -45 -14.5 -81.5t-41.5 -63t-66 -41t-88 -14.5q-46 0 -83 13t-64 36.5t-43.5 56t-19.5 72.5h60q5 -51 44.5 -84.5t101.5 -33.5q67 0 107 38t40 106q0 70 -45.5 108.5t-140.5 38.5h-57v60h15q63 0 102.5 32t39.5 98t-39.5 99.5
t-102.5 33.5t-102 -36t-39 -111v-514h-67v514q0 52 15 91t42.5 65t66 39.5t84.5 13.5t84 -13t65.5 -37t42.5 -59t15 -79q0 -57 -24 -94.5t-66 -57.5v-2v0z" />
    <glyph glyph-name="agrave" unicode="&#xe0;" 
d="M560 0h-62v117h-2q-25 -60 -80.5 -95t-130.5 -35q-52 0 -98.5 18t-81.5 51.5t-55.5 82t-20.5 108.5q0 56 19.5 104t55 82.5t84 54t107.5 19.5q58 0 107 -19t84 -54t54.5 -83.5t19.5 -106.5v-244zM295 49q44 0 80.5 15t62.5 41.5t40.5 62.5t14.5 79t-14.5 79t-40.5 62.5
t-62.5 41.5t-80.5 15t-80.5 -15t-62.5 -41.5t-40.5 -62.5t-14.5 -79t14.5 -79t40.5 -62.5t62.5 -41.5t80.5 -15zM293 570l-115 150h72l103 -150h-60z" />
    <glyph glyph-name="aacute" unicode="&#xe1;" 
d="M560 0h-62v117h-2q-25 -60 -80.5 -95t-130.5 -35q-52 0 -98.5 18t-81.5 51.5t-55.5 82t-20.5 108.5q0 56 19.5 104t55 82.5t84 54t107.5 19.5q58 0 107 -19t84 -54t54.5 -83.5t19.5 -106.5v-244zM295 49q44 0 80.5 15t62.5 41.5t40.5 62.5t14.5 79t-14.5 79t-40.5 62.5
t-62.5 41.5t-80.5 15t-80.5 -15t-62.5 -41.5t-40.5 -62.5t-14.5 -79t14.5 -79t40.5 -62.5t62.5 -41.5t80.5 -15zM247 570l103 150h72l-115 -150h-60z" />
    <glyph glyph-name="acircumflex" unicode="&#xe2;" 
d="M560 0h-62v117h-2q-25 -60 -80.5 -95t-130.5 -35q-52 0 -98.5 18t-81.5 51.5t-55.5 82t-20.5 108.5q0 56 19.5 104t55 82.5t84 54t107.5 19.5q58 0 107 -19t84 -54t54.5 -83.5t19.5 -106.5v-244zM295 49q44 0 80.5 15t62.5 41.5t40.5 62.5t14.5 79t-14.5 79t-40.5 62.5
t-62.5 41.5t-80.5 15t-80.5 -15t-62.5 -41.5t-40.5 -62.5t-14.5 -79t14.5 -79t40.5 -62.5t62.5 -41.5t80.5 -15zM383 570l-81 107h-2l-81 -107h-59l108 150h66l108 -150h-59z" />
    <glyph glyph-name="atilde" unicode="&#xe3;" 
d="M560 0h-62v117h-2q-25 -60 -80.5 -95t-130.5 -35q-52 0 -98.5 18t-81.5 51.5t-55.5 82t-20.5 108.5q0 56 19.5 104t55 82.5t84 54t107.5 19.5q58 0 107 -19t84 -54t54.5 -83.5t19.5 -106.5v-244zM295 49q44 0 80.5 15t62.5 41.5t40.5 62.5t14.5 79t-14.5 79t-40.5 62.5
t-62.5 41.5t-80.5 15t-80.5 -15t-62.5 -41.5t-40.5 -62.5t-14.5 -79t14.5 -79t40.5 -62.5t62.5 -41.5t80.5 -15zM474 697q-18 -123 -103 -123q-27 0 -45.5 11t-33 23.5t-28 23.5t-32.5 11q-25 0 -38.5 -17.5t-20.5 -52.5h-47q18 122 103 122q27 0 45.5 -10.5t33 -23.5
t28 -23.5t32.5 -10.5q25 0 38.5 17.5t20.5 52.5h47z" />
    <glyph glyph-name="adieresis" unicode="&#xe4;" 
d="M560 0h-62v117h-2q-25 -60 -80.5 -95t-130.5 -35q-52 0 -98.5 18t-81.5 51.5t-55.5 82t-20.5 108.5q0 56 19.5 104t55 82.5t84 54t107.5 19.5q58 0 107 -19t84 -54t54.5 -83.5t19.5 -106.5v-244zM295 49q44 0 80.5 15t62.5 41.5t40.5 62.5t14.5 79t-14.5 79t-40.5 62.5
t-62.5 41.5t-80.5 15t-80.5 -15t-62.5 -41.5t-40.5 -62.5t-14.5 -79t14.5 -79t40.5 -62.5t62.5 -41.5t80.5 -15zM393 589q-19 0 -32.5 14t-13.5 32q0 19 13.5 32.5t32.5 13.5t32.5 -13.5t13.5 -32.5q0 -18 -13.5 -32t-32.5 -14zM207 589q-18 0 -32 14t-14 32q0 19 14 32.5
t32 13.5q19 0 32.5 -13.5t13.5 -32.5q0 -18 -13.5 -32t-32.5 -14z" />
    <glyph glyph-name="aring" unicode="&#xe5;" 
d="M560 0h-62v117h-2q-25 -60 -80.5 -95t-130.5 -35q-52 0 -98.5 18t-81.5 51.5t-55.5 82t-20.5 108.5q0 56 19.5 104t55 82.5t84 54t107.5 19.5q58 0 107 -19t84 -54t54.5 -83.5t19.5 -106.5v-244zM295 49q44 0 80.5 15t62.5 41.5t40.5 62.5t14.5 79t-14.5 79t-40.5 62.5
t-62.5 41.5t-80.5 15t-80.5 -15t-62.5 -41.5t-40.5 -62.5t-14.5 -79t14.5 -79t40.5 -62.5t62.5 -41.5t80.5 -15zM300 557q-41 0 -68.5 27t-27.5 68t27.5 68.5t68.5 27.5q42 0 69 -27.5t27 -68.5t-27 -68t-69 -27zM349 652q0 21 -13.5 35.5t-35.5 14.5q-21 0 -35 -14.5
t-14 -35.5t14 -35.5t35 -14.5q22 0 35.5 14.5t13.5 35.5z" />
    <glyph glyph-name="ae" unicode="&#xe6;" horiz-adv-x="1052" 
d="M562 225q3 -39 18.5 -71t41 -55.5t60 -36.5t76.5 -13q60 0 103 23t68 66h73q-29 -68 -91.5 -109.5t-143.5 -41.5q-75 0 -129.5 34.5t-79.5 92.5h-2v-114h-61v114h-2q-25 -58 -79 -92.5t-129 -34.5q-52 0 -98.5 18t-81.5 51.5t-55.5 82t-20.5 108.5q0 56 19.5 104t54 82.5
t83 54t106.5 19.5q85 0 145.5 -39.5t88.5 -105.5h2q28 66 87.5 105.5t146.5 39.5q58 0 106 -19.5t82.5 -54t53.5 -82.5t19 -104v-22h-461zM295 49q44 0 80.5 15t62.5 41.5t40.5 62.5t14.5 79t-14.5 79t-40.5 62.5t-62.5 41.5t-80.5 15t-80.5 -15t-62.5 -41.5t-40.5 -62.5
t-14.5 -79t14.5 -79t40.5 -62.5t62.5 -41.5t80.5 -15zM758 445q-39 0 -72 -12t-58 -33t-41.5 -50.5t-22.5 -64.5h389v2q-12 71 -64 114.5t-131 43.5z" />
    <glyph glyph-name="ccedilla" unicode="&#xe7;" horiz-adv-x="580" 
d="M229 -89l31 76v2q-52 5 -94.5 26.5t-73 55.5t-47 79t-16.5 97q0 56 19.5 104t55 82.5t84 54t107.5 19.5q48 0 89.5 -13.5t74.5 -37.5t56 -58t34 -75h-68q-20 56 -69 89t-117 33q-44 0 -80.5 -15t-62.5 -41.5t-40.5 -62.5t-14.5 -79t14.5 -79t40.5 -62.5t62.5 -41.5
t80.5 -15q68 0 117 33t69 89h68q-11 -41 -33 -74t-53.5 -57t-72 -38t-86.5 -15l-21 -52v-2q8 3 13 4t13 1q35 0 58.5 -21t23.5 -56q0 -41 -27.5 -63t-75.5 -22q-45 0 -72.5 20t-31.5 56h50q2 -17 16.5 -26t37.5 -9q24 0 38 10t14 33q0 17 -11.5 27.5t-30.5 10.5
q-11 0 -17.5 -1.5t-14.5 -6.5z" />
    <glyph glyph-name="egrave" unicode="&#xe8;" horiz-adv-x="588" 
d="M98 225q3 -39 19 -71t41.5 -55.5t60 -36.5t76.5 -13q59 0 102.5 23t67.5 66h73q-29 -69 -92.5 -110t-150.5 -41q-59 0 -107.5 19.5t-84 54t-55 82.5t-19.5 104t19.5 104t55 82.5t84 54t107.5 19.5q58 0 107 -19.5t83.5 -54t54 -82.5t19.5 -104v-22h-461zM295 445
q-79 0 -131 -43.5t-64 -114.5v-2h389v2q-6 35 -22.5 64t-41.5 50t-58 32.5t-72 11.5zM288 570l-115 150h72l103 -150h-60z" />
    <glyph glyph-name="eacute" unicode="&#xe9;" horiz-adv-x="588" 
d="M98 225q3 -39 19 -71t41.5 -55.5t60 -36.5t76.5 -13q59 0 102.5 23t67.5 66h73q-29 -69 -92.5 -110t-150.5 -41q-59 0 -107.5 19.5t-84 54t-55 82.5t-19.5 104t19.5 104t55 82.5t84 54t107.5 19.5q58 0 107 -19.5t83.5 -54t54 -82.5t19.5 -104v-22h-461zM295 445
q-79 0 -131 -43.5t-64 -114.5v-2h389v2q-6 35 -22.5 64t-41.5 50t-58 32.5t-72 11.5zM242 570l103 150h72l-115 -150h-60z" />
    <glyph glyph-name="ecircumflex" unicode="&#xea;" horiz-adv-x="588" 
d="M98 225q3 -39 19 -71t41.5 -55.5t60 -36.5t76.5 -13q59 0 102.5 23t67.5 66h73q-29 -69 -92.5 -110t-150.5 -41q-59 0 -107.5 19.5t-84 54t-55 82.5t-19.5 104t19.5 104t55 82.5t84 54t107.5 19.5q58 0 107 -19.5t83.5 -54t54 -82.5t19.5 -104v-22h-461zM295 445
q-79 0 -131 -43.5t-64 -114.5v-2h389v2q-6 35 -22.5 64t-41.5 50t-58 32.5t-72 11.5zM377 570l-81 107h-2l-81 -107h-59l108 150h66l108 -150h-59z" />
    <glyph glyph-name="edieresis" unicode="&#xeb;" horiz-adv-x="588" 
d="M98 225q3 -39 19 -71t41.5 -55.5t60 -36.5t76.5 -13q59 0 102.5 23t67.5 66h73q-29 -69 -92.5 -110t-150.5 -41q-59 0 -107.5 19.5t-84 54t-55 82.5t-19.5 104t19.5 104t55 82.5t84 54t107.5 19.5q58 0 107 -19.5t83.5 -54t54 -82.5t19.5 -104v-22h-461zM295 445
q-79 0 -131 -43.5t-64 -114.5v-2h389v2q-6 35 -22.5 64t-41.5 50t-58 32.5t-72 11.5zM387 589q-19 0 -32.5 14t-13.5 32q0 19 13.5 32.5t32.5 13.5t32.5 -13.5t13.5 -32.5q0 -18 -13.5 -32t-32.5 -14zM201 589q-18 0 -32 14t-14 32q0 19 14 32.5t32 13.5q19 0 32.5 -13.5
t13.5 -32.5q0 -18 -13.5 -32t-32.5 -14z" />
    <glyph glyph-name="igrave" unicode="&#xec;" horiz-adv-x="202" 
d="M94 570l-115 150h72l103 -150h-60zM68 0v494h67v-494h-67z" />
    <glyph glyph-name="iacute" unicode="&#xed;" horiz-adv-x="202" 
d="M49 570l103 150h72l-115 -150h-60zM68 0v494h67v-494h-67z" />
    <glyph glyph-name="icircumflex" unicode="&#xee;" horiz-adv-x="202" 
d="M68 0v494h67v-494h-67zM184 570l-81 107h-2l-81 -107h-59l108 150h66l108 -150h-59z" />
    <glyph glyph-name="idieresis" unicode="&#xef;" horiz-adv-x="202" 
d="M182 589q-18 0 -32 14t-14 32q0 19 14 32.5t32 13.5q19 0 32.5 -13.5t13.5 -32.5q0 -18 -13.5 -32t-32.5 -14zM20 589q-19 0 -32.5 14t-13.5 32q0 19 13.5 32.5t32.5 13.5t32.5 -13.5t13.5 -32.5q0 -18 -13.5 -32t-32.5 -14zM68 0v494h66v-494h-66z" />
    <glyph glyph-name="eth" unicode="&#xf0;" horiz-adv-x="589" 
d="M96 563l182 55v2q-36 21 -75.5 37t-84.5 26l81 27q84 -22 155 -70l133 41v-57l-79 -24v-2q72 -65 112 -150.5t40 -180.5q0 -66 -19.5 -118t-54.5 -88t-84 -55t-107 -19q-59 0 -107.5 19.5t-84 54t-55 82.5t-19.5 104t18.5 102.5t51 80t77.5 52t98 18.5q58 0 106.5 -22
t82.5 -62h2q-21 46 -53 87t-75 76l-241 -73v57zM295 49q44 0 80.5 15t62.5 41.5t40.5 62.5t14.5 79t-14.5 79t-40.5 62.5t-62.5 41.5t-80.5 15t-80.5 -15t-62.5 -41.5t-40.5 -62.5t-14.5 -79t14.5 -79t40.5 -62.5t62.5 -41.5t80.5 -15z" />
    <glyph glyph-name="ntilde" unicode="&#xf1;" horiz-adv-x="586" 
d="M470 0v258q0 92 -48 139.5t-129 47.5t-129 -47.5t-48 -139.5v-258h-67v258q0 61 17.5 108t49.5 78t77 47t100 16t100 -16t77 -47t49.5 -78t17.5 -108v-258h-67zM467 697q-18 -123 -103 -123q-27 0 -45.5 11t-33 23.5t-28 23.5t-32.5 11q-25 0 -38.5 -17.5t-20.5 -52.5
h-47q18 122 103 122q27 0 45.5 -10.5t33 -23.5t28 -23.5t32.5 -10.5q25 0 38.5 17.5t20.5 52.5h47z" />
    <glyph glyph-name="ograve" unicode="&#xf2;" horiz-adv-x="590" 
d="M561 247q0 -56 -19.5 -104t-55 -82.5t-84.5 -54t-107 -19.5q-59 0 -107.5 19.5t-84 54t-55 82.5t-19.5 104t19.5 104t55 82.5t84 54t107.5 19.5q58 0 107 -19.5t84.5 -54t55 -82.5t19.5 -104zM295 49q44 0 80.5 15t62.5 41.5t40.5 62.5t14.5 79t-14.5 79t-40.5 62.5
t-62.5 41.5t-80.5 15t-80.5 -15t-62.5 -41.5t-40.5 -62.5t-14.5 -79t14.5 -79t40.5 -62.5t62.5 -41.5t80.5 -15zM287 570l-115 150h72l103 -150h-60z" />
    <glyph glyph-name="oacute" unicode="&#xf3;" horiz-adv-x="590" 
d="M561 247q0 -56 -19.5 -104t-55 -82.5t-84.5 -54t-107 -19.5q-59 0 -107.5 19.5t-84 54t-55 82.5t-19.5 104t19.5 104t55 82.5t84 54t107.5 19.5q58 0 107 -19.5t84.5 -54t55 -82.5t19.5 -104zM295 49q44 0 80.5 15t62.5 41.5t40.5 62.5t14.5 79t-14.5 79t-40.5 62.5
t-62.5 41.5t-80.5 15t-80.5 -15t-62.5 -41.5t-40.5 -62.5t-14.5 -79t14.5 -79t40.5 -62.5t62.5 -41.5t80.5 -15zM242 570l103 150h72l-115 -150h-60z" />
    <glyph glyph-name="ocircumflex" unicode="&#xf4;" horiz-adv-x="590" 
d="M561 247q0 -56 -19.5 -104t-55 -82.5t-84.5 -54t-107 -19.5q-59 0 -107.5 19.5t-84 54t-55 82.5t-19.5 104t19.5 104t55 82.5t84 54t107.5 19.5q58 0 107 -19.5t84.5 -54t55 -82.5t19.5 -104zM295 49q44 0 80.5 15t62.5 41.5t40.5 62.5t14.5 79t-14.5 79t-40.5 62.5
t-62.5 41.5t-80.5 15t-80.5 -15t-62.5 -41.5t-40.5 -62.5t-14.5 -79t14.5 -79t40.5 -62.5t62.5 -41.5t80.5 -15zM377 570l-81 107h-2l-81 -107h-59l108 150h66l108 -150h-59z" />
    <glyph glyph-name="otilde" unicode="&#xf5;" horiz-adv-x="590" 
d="M561 247q0 -56 -19.5 -104t-55 -82.5t-84.5 -54t-107 -19.5q-59 0 -107.5 19.5t-84 54t-55 82.5t-19.5 104t19.5 104t55 82.5t84 54t107.5 19.5q58 0 107 -19.5t84.5 -54t55 -82.5t19.5 -104zM295 49q44 0 80.5 15t62.5 41.5t40.5 62.5t14.5 79t-14.5 79t-40.5 62.5
t-62.5 41.5t-80.5 15t-80.5 -15t-62.5 -41.5t-40.5 -62.5t-14.5 -79t14.5 -79t40.5 -62.5t62.5 -41.5t80.5 -15zM469 697q-18 -123 -103 -123q-27 0 -45.5 11t-33 23.5t-28 23.5t-32.5 11q-25 0 -38.5 -17.5t-20.5 -52.5h-47q18 122 103 122q27 0 45.5 -10.5t33 -23.5
t28 -23.5t32.5 -10.5q25 0 38.5 17.5t20.5 52.5h47z" />
    <glyph glyph-name="odieresis" unicode="&#xf6;" horiz-adv-x="590" 
d="M561 247q0 -56 -19.5 -104t-55 -82.5t-84.5 -54t-107 -19.5q-59 0 -107.5 19.5t-84 54t-55 82.5t-19.5 104t19.5 104t55 82.5t84 54t107.5 19.5q58 0 107 -19.5t84.5 -54t55 -82.5t19.5 -104zM295 49q44 0 80.5 15t62.5 41.5t40.5 62.5t14.5 79t-14.5 79t-40.5 62.5
t-62.5 41.5t-80.5 15t-80.5 -15t-62.5 -41.5t-40.5 -62.5t-14.5 -79t14.5 -79t40.5 -62.5t62.5 -41.5t80.5 -15zM388 589q-19 0 -32.5 14t-13.5 32q0 19 13.5 32.5t32.5 13.5t32.5 -13.5t13.5 -32.5q0 -18 -13.5 -32t-32.5 -14zM202 589q-18 0 -32 14t-14 32q0 19 14 32.5
t32 13.5q19 0 32.5 -13.5t13.5 -32.5q0 -18 -13.5 -32t-32.5 -14z" />
    <glyph glyph-name="divide" unicode="&#xf7;" horiz-adv-x="562" 
d="M281 18q-20 0 -34 14t-14 34t14 33.5t34 13.5t34 -13.5t14 -33.5t-14 -34t-34 -14zM281 411q-20 0 -34 13.5t-14 33.5t14 34t34 14t34 -14t14 -34t-14 -33.5t-34 -13.5zM50 233v58h462v-58h-462z" />
    <glyph glyph-name="oslash" unicode="&#xf8;" horiz-adv-x="590" 
d="M29 0l65 71q-31 34 -48 78.5t-17 97.5q0 56 19.5 104t55 82.5t84 54t107.5 19.5q45 0 84.5 -12t71.5 -33l29 32h81l-65 -71q31 -35 48 -79.5t17 -96.5q0 -56 -19.5 -104t-55 -82.5t-84.5 -54t-107 -19.5q-45 0 -84.5 11.5t-71.5 33.5l-29 -32h-81zM295 49q44 0 80.5 15
t62.5 41.5t40.5 62.5t14.5 79q0 37 -10.5 68.5t-30.5 57.5h-2l-266 -292v-2q46 -30 111 -30zM97 247q0 -75 40 -126h2l267 292v2q-47 30 -111 30q-44 0 -80.5 -15t-62.5 -41.5t-40.5 -62.5t-14.5 -79z" />
    <glyph glyph-name="ugrave" unicode="&#xf9;" horiz-adv-x="586" 
d="M470 494h67v-258q0 -62 -17.5 -108.5t-49.5 -77.5t-77 -47t-100 -16t-100 16t-77 47t-49.5 77.5t-17.5 108.5v258h67v-258q0 -91 48 -139t129 -48t129 48t48 139v258zM285 570l-115 150h72l103 -150h-60z" />
    <glyph glyph-name="uacute" unicode="&#xfa;" horiz-adv-x="586" 
d="M470 494h67v-258q0 -62 -17.5 -108.5t-49.5 -77.5t-77 -47t-100 -16t-100 16t-77 47t-49.5 77.5t-17.5 108.5v258h67v-258q0 -91 48 -139t129 -48t129 48t48 139v258zM240 570l103 150h72l-115 -150h-60z" />
    <glyph glyph-name="ucircumflex" unicode="&#xfb;" horiz-adv-x="586" 
d="M470 494h67v-258q0 -62 -17.5 -108.5t-49.5 -77.5t-77 -47t-100 -16t-100 16t-77 47t-49.5 77.5t-17.5 108.5v258h67v-258q0 -91 48 -139t129 -48t129 48t48 139v258zM375 570l-81 107h-2l-81 -107h-59l108 150h66l108 -150h-59z" />
    <glyph glyph-name="udieresis" unicode="&#xfc;" horiz-adv-x="586" 
d="M470 494h67v-258q0 -62 -17.5 -108.5t-49.5 -77.5t-77 -47t-100 -16t-100 16t-77 47t-49.5 77.5t-17.5 108.5v258h67v-258q0 -91 48 -139t129 -48t129 48t48 139v258zM386 589q-19 0 -32.5 14t-13.5 32q0 19 13.5 32.5t32.5 13.5t32.5 -13.5t13.5 -32.5q0 -18 -13.5 -32
t-32.5 -14zM200 589q-18 0 -32 14t-14 32q0 19 14 32.5t32 13.5q19 0 32.5 -13.5t13.5 -32.5q0 -18 -13.5 -32t-32.5 -14z" />
    <glyph glyph-name="yacute" unicode="&#xfd;" horiz-adv-x="602" 
d="M470 494h67v-476q0 -65 -19 -110.5t-52.5 -75t-78.5 -43t-97 -13.5q-42 0 -80 10t-68.5 29.5t-53 49.5t-34.5 70h67q20 -51 63.5 -75.5t105.5 -24.5q40 0 73 10t57 32t37 56.5t13 82.5v79h-2q-26 -50 -73 -77.5t-112 -27.5q-50 0 -92.5 15t-74 46t-49.5 78t-18 110v255
h67v-255q0 -92 48 -139.5t129 -47.5q80 0 128.5 48t48.5 139v255zM248 570l103 150h72l-115 -150h-60z" />
    <glyph glyph-name="thorn" unicode="&#xfe;" horiz-adv-x="625" 
d="M330 49q45 0 81.5 15t62.5 41t40 62.5t14 79.5t-14 79.5t-40 62.5t-62.5 41t-81.5 15t-81.5 -15t-62.5 -41t-40 -62.5t-14 -79.5t14 -79.5t40 -62.5t62.5 -41t81.5 -15zM65 710h67v-318h2q27 53 80.5 84t125.5 31q52 0 98.5 -18t81.5 -51.5t55.5 -82t20.5 -108.5
t-20.5 -108.5t-55.5 -82t-81.5 -51.5t-98.5 -18q-72 0 -125.5 30.5t-80.5 84.5h-2v-313h-67v921z" />
    <glyph glyph-name="ydieresis" unicode="&#xff;" horiz-adv-x="602" 
d="M470 494h67v-476q0 -65 -19 -110.5t-52.5 -75t-78.5 -43t-97 -13.5q-42 0 -80 10t-68.5 29.5t-53 49.5t-34.5 70h67q20 -51 63.5 -75.5t105.5 -24.5q40 0 73 10t57 32t37 56.5t13 82.5v79h-2q-26 -50 -73 -77.5t-112 -27.5q-50 0 -92.5 15t-74 46t-49.5 78t-18 110v255
h67v-255q0 -92 48 -139.5t129 -47.5q80 0 128.5 48t48.5 139v255zM394 589q-19 0 -32.5 14t-13.5 32q0 19 13.5 32.5t32.5 13.5t32.5 -13.5t13.5 -32.5q0 -18 -13.5 -32t-32.5 -14zM208 589q-18 0 -32 14t-14 32q0 19 14 32.5t32 13.5q19 0 32.5 -13.5t13.5 -32.5
q0 -18 -13.5 -32t-32.5 -14z" />
    <glyph glyph-name="Amacron" unicode="&#x100;" horiz-adv-x="668" 
d="M544 0v220h-423v-220h-70v387q0 64 18.5 116t54.5 88.5t88.5 56t120.5 19.5q69 0 121.5 -19.5t88.5 -56t54.5 -88.5t18.5 -116v-387h-72zM544 387q0 100 -53 157t-159 57q-104 0 -157.5 -57t-53.5 -157v-101h423v101zM184 745v49h300v-49h-300z" />
    <glyph glyph-name="amacron" unicode="&#x101;" 
d="M560 0h-62v117h-2q-25 -60 -80.5 -95t-130.5 -35q-52 0 -98.5 18t-81.5 51.5t-55.5 82t-20.5 108.5q0 56 19.5 104t55 82.5t84 54t107.5 19.5q58 0 107 -19t84 -54t54.5 -83.5t19.5 -106.5v-244zM295 49q44 0 80.5 15t62.5 41.5t40.5 62.5t14.5 79t-14.5 79t-40.5 62.5
t-62.5 41.5t-80.5 15t-80.5 -15t-62.5 -41.5t-40.5 -62.5t-14.5 -79t14.5 -79t40.5 -62.5t62.5 -41.5t80.5 -15zM150 595v49h300v-49h-300z" />
    <glyph glyph-name="Abreve" unicode="&#x102;" horiz-adv-x="668" 
d="M544 0v220h-423v-220h-70v387q0 64 18.5 116t54.5 88.5t88.5 56t120.5 19.5q69 0 121.5 -19.5t88.5 -56t54.5 -88.5t18.5 -116v-387h-72zM544 387q0 100 -53 157t-159 57q-104 0 -157.5 -57t-53.5 -157v-101h423v101zM466 861q-2 -64 -37 -100t-95 -36t-95 36t-37 100h49
q8 -86 83 -86t83 86h49z" />
    <glyph glyph-name="abreve" unicode="&#x103;" 
d="M560 0h-62v117h-2q-25 -60 -80.5 -95t-130.5 -35q-52 0 -98.5 18t-81.5 51.5t-55.5 82t-20.5 108.5q0 56 19.5 104t55 82.5t84 54t107.5 19.5q58 0 107 -19t84 -54t54.5 -83.5t19.5 -106.5v-244zM295 49q44 0 80.5 15t62.5 41.5t40.5 62.5t14.5 79t-14.5 79t-40.5 62.5
t-62.5 41.5t-80.5 15t-80.5 -15t-62.5 -41.5t-40.5 -62.5t-14.5 -79t14.5 -79t40.5 -62.5t62.5 -41.5t80.5 -15zM432 711q-2 -64 -37 -100t-95 -36t-95 36t-37 100h49q8 -86 83 -86t83 86h49z" />
    <glyph glyph-name="Aogonek" unicode="&#x104;" horiz-adv-x="668" 
d="M637 -179q-14 -18 -41.5 -31.5t-63.5 -13.5q-48 0 -79.5 25.5t-31.5 70.5q0 100 123 138v210h-423v-220h-70v387q0 64 18.5 116t54.5 88.5t88.5 56t120.5 19.5q69 0 121.5 -19.5t88.5 -56t54.5 -88.5t18.5 -116v-387h-22q-61 -14 -91 -44t-30 -65q0 -33 20 -48t47 -15
q28 0 51.5 11t45.5 38v-56zM544 387q0 100 -53 157t-159 57q-104 0 -157.5 -57t-53.5 -157v-101h423v101z" />
    <glyph glyph-name="aogonek" unicode="&#x105;" 
d="M581 -179q-14 -18 -41.5 -31.5t-63.5 -13.5q-48 0 -79.5 25.5t-31.5 70.5q0 51 33 87t100 54v104h-2q-25 -60 -80.5 -95t-130.5 -35q-52 0 -98.5 18t-81.5 51.5t-55.5 82t-20.5 108.5q0 56 19.5 104t55 82.5t84 54t107.5 19.5q58 0 107 -19t84 -54t54.5 -83.5
t19.5 -106.5v-244h-22q-61 -14 -91 -44t-30 -65q0 -33 20 -48t47 -15q28 0 51.5 11t45.5 38v-56zM295 49q44 0 80.5 15t62.5 41.5t40.5 62.5t14.5 79t-14.5 79t-40.5 62.5t-62.5 41.5t-80.5 15t-80.5 -15t-62.5 -41.5t-40.5 -62.5t-14.5 -79t14.5 -79t40.5 -62.5t62.5 -41.5
t80.5 -15z" />
    <glyph glyph-name="Cacute" unicode="&#x106;" horiz-adv-x="751" 
d="M638 435q-15 37 -39.5 68t-57.5 52.5t-73 33.5t-86 12q-61 0 -112 -20.5t-87.5 -57t-56.5 -87t-20 -109.5t20 -109.5t56.5 -87t87.5 -57t112 -20.5q46 0 86 12t73 33.5t57.5 52t39.5 68.5h76q-16 -52 -46.5 -95t-73.5 -73.5t-97 -47t-115 -16.5q-77 0 -140.5 25.5
t-110 71t-72 107.5t-25.5 136q0 73 25.5 135.5t72 108t110 71t140.5 25.5q61 0 115 -16.5t97 -47t73.5 -73.5t46.5 -95h-76zM329 720l103 150h72l-115 -150h-60z" />
    <glyph glyph-name="cacute" unicode="&#x107;" horiz-adv-x="580" 
d="M481 323q-20 56 -69 89t-117 33q-44 0 -80.5 -15t-62.5 -41.5t-40.5 -62.5t-14.5 -79t14.5 -79t40.5 -62.5t62.5 -41.5t80.5 -15q68 0 117 33t69 89h68q-11 -41 -34 -75t-56 -58t-74.5 -37.5t-89.5 -13.5q-59 0 -107.5 19.5t-84 54t-55 82.5t-19.5 104t19.5 104t55 82.5
t84 54t107.5 19.5q48 0 89.5 -13.5t74.5 -37.5t56 -58t34 -75h-68zM241 570l103 150h72l-115 -150h-60z" />
    <glyph glyph-name="Ccircumflex" unicode="&#x108;" horiz-adv-x="751" 
d="M638 435q-15 37 -39.5 68t-57.5 52.5t-73 33.5t-86 12q-61 0 -112 -20.5t-87.5 -57t-56.5 -87t-20 -109.5t20 -109.5t56.5 -87t87.5 -57t112 -20.5q46 0 86 12t73 33.5t57.5 52t39.5 68.5h76q-16 -52 -46.5 -95t-73.5 -73.5t-97 -47t-115 -16.5q-77 0 -140.5 25.5
t-110 71t-72 107.5t-25.5 136q0 73 25.5 135.5t72 108t110 71t140.5 25.5q61 0 115 -16.5t97 -47t73.5 -73.5t46.5 -95h-76zM464 720l-81 107h-2l-81 -107h-59l108 150h66l108 -150h-59z" />
    <glyph glyph-name="ccircumflex" unicode="&#x109;" horiz-adv-x="580" 
d="M481 323q-20 56 -69 89t-117 33q-44 0 -80.5 -15t-62.5 -41.5t-40.5 -62.5t-14.5 -79t14.5 -79t40.5 -62.5t62.5 -41.5t80.5 -15q68 0 117 33t69 89h68q-11 -41 -34 -75t-56 -58t-74.5 -37.5t-89.5 -13.5q-59 0 -107.5 19.5t-84 54t-55 82.5t-19.5 104t19.5 104t55 82.5
t84 54t107.5 19.5q48 0 89.5 -13.5t74.5 -37.5t56 -58t34 -75h-68zM377 570l-81 107h-2l-81 -107h-59l108 150h66l108 -150h-59z" />
    <glyph glyph-name="Cdotaccent" unicode="&#x10a;" horiz-adv-x="751" 
d="M638 435q-15 37 -39.5 68t-57.5 52.5t-73 33.5t-86 12q-61 0 -112 -20.5t-87.5 -57t-56.5 -87t-20 -109.5t20 -109.5t56.5 -87t87.5 -57t112 -20.5q46 0 86 12t73 33.5t57.5 52t39.5 68.5h76q-16 -52 -46.5 -95t-73.5 -73.5t-97 -47t-115 -16.5q-77 0 -140.5 25.5
t-110 71t-72 107.5t-25.5 136q0 73 25.5 135.5t72 108t110 71t140.5 25.5q61 0 115 -16.5t97 -47t73.5 -73.5t46.5 -95h-76zM381 739q-19 0 -32.5 14t-13.5 32q0 19 13.5 32.5t32.5 13.5t32.5 -13.5t13.5 -32.5q0 -18 -13.5 -32t-32.5 -14z" />
    <glyph glyph-name="cdotaccent" unicode="&#x10b;" horiz-adv-x="580" 
d="M481 323q-20 56 -69 89t-117 33q-44 0 -80.5 -15t-62.5 -41.5t-40.5 -62.5t-14.5 -79t14.5 -79t40.5 -62.5t62.5 -41.5t80.5 -15q68 0 117 33t69 89h68q-11 -41 -34 -75t-56 -58t-74.5 -37.5t-89.5 -13.5q-59 0 -107.5 19.5t-84 54t-55 82.5t-19.5 104t19.5 104t55 82.5
t84 54t107.5 19.5q48 0 89.5 -13.5t74.5 -37.5t56 -58t34 -75h-68zM295 589q-19 0 -32.5 14t-13.5 32q0 19 13.5 32.5t32.5 13.5t32.5 -13.5t13.5 -32.5q0 -18 -13.5 -32t-32.5 -14z" />
    <glyph glyph-name="Ccaron" unicode="&#x10c;" horiz-adv-x="751" 
d="M638 435q-15 37 -39.5 68t-57.5 52.5t-73 33.5t-86 12q-61 0 -112 -20.5t-87.5 -57t-56.5 -87t-20 -109.5t20 -109.5t56.5 -87t87.5 -57t112 -20.5q46 0 86 12t73 33.5t57.5 52t39.5 68.5h76q-16 -52 -46.5 -95t-73.5 -73.5t-97 -47t-115 -16.5q-77 0 -140.5 25.5
t-110 71t-72 107.5t-25.5 136q0 73 25.5 135.5t72 108t110 71t140.5 25.5q61 0 115 -16.5t97 -47t73.5 -73.5t46.5 -95h-76zM349 720l-108 150h59l81 -107h2l81 107h59l-108 -150h-66z" />
    <glyph glyph-name="ccaron" unicode="&#x10d;" horiz-adv-x="580" 
d="M481 323q-20 56 -69 89t-117 33q-44 0 -80.5 -15t-62.5 -41.5t-40.5 -62.5t-14.5 -79t14.5 -79t40.5 -62.5t62.5 -41.5t80.5 -15q68 0 117 33t69 89h68q-11 -41 -34 -75t-56 -58t-74.5 -37.5t-89.5 -13.5q-59 0 -107.5 19.5t-84 54t-55 82.5t-19.5 104t19.5 104t55 82.5
t84 54t107.5 19.5q48 0 89.5 -13.5t74.5 -37.5t56 -58t34 -75h-68zM262 570l-108 150h59l81 -107h2l81 107h59l-108 -150h-66z" />
    <glyph glyph-name="Dcaron" unicode="&#x10e;" horiz-adv-x="682" 
d="M67 0v654h234q85 0 149.5 -23.5t108.5 -66.5t66.5 -103.5t22.5 -133.5q0 -74 -22.5 -134t-66.5 -103t-108.5 -66.5t-149.5 -23.5h-234zM301 66q69 0 121 18.5t86 53t51 82.5t17 107t-17 107t-51 82.5t-86 53t-121 18.5h-162v-522h162zM281 720l-108 150h59l81 -107h2
l81 107h59l-108 -150h-66z" />
    <glyph glyph-name="dcaron" unicode="&#x10f;" horiz-adv-x="759" 
d="M295 -13q-59 0 -107.5 19.5t-84 54t-55 82.5t-19.5 104q0 60 20.5 108.5t55.5 82t81.5 51.5t98.5 18q72 0 125.5 -31t80.5 -84h2v318h67v-460q0 -59 -19.5 -107.5t-54.5 -83t-84 -53.5t-107 -19zM295 49q44 0 80.5 15t62.5 41.5t40.5 62.5t14.5 79t-14.5 79t-40.5 62.5
t-62.5 41.5t-80.5 15t-80.5 -15t-62.5 -41.5t-40.5 -62.5t-14.5 -79t14.5 -79t40.5 -62.5t62.5 -41.5t80.5 -15zM642 464l32 108q-14 5 -23.5 17t-9.5 29q0 20 14 34.5t34 14.5t33.5 -14.5t13.5 -34.5q0 -16 -5 -27l-51 -127h-38z" />
    <glyph glyph-name="Dcroat" unicode="&#x110;" horiz-adv-x="690" 
d="M75 0v299h-64v66h64v289h234q85 0 149.5 -23.5t108.5 -66.5t66.5 -103.5t22.5 -133.5q0 -74 -22.5 -134t-66.5 -103t-108.5 -66.5t-149.5 -23.5h-234zM309 66q69 0 121 18.5t86 53t51 82.5t17 107t-17 107t-51 82.5t-86 53t-121 18.5h-162v-223h213v-66h-213v-233h162z
" />
    <glyph glyph-name="dcroat" unicode="&#x111;" 
d="M295 -13q-59 0 -107.5 19.5t-84 54t-55 82.5t-19.5 104q0 60 20.5 108.5t55.5 82t81.5 51.5t98.5 18q72 0 125.5 -31t80.5 -84h2v157h-147v57h147v104h67v-104h49v-57h-49v-299q0 -59 -19.5 -107.5t-54.5 -83t-84 -53.5t-107 -19zM295 49q44 0 80.5 15t62.5 41.5
t40.5 62.5t14.5 79t-14.5 79t-40.5 62.5t-62.5 41.5t-80.5 15t-80.5 -15t-62.5 -41.5t-40.5 -62.5t-14.5 -79t14.5 -79t40.5 -62.5t62.5 -41.5t80.5 -15z" />
    <glyph glyph-name="Emacron" unicode="&#x112;" horiz-adv-x="593" 
d="M67 0v654h480v-66h-408v-223h350v-66h-350v-233h408v-66h-480zM159 745v49h300v-49h-300z" />
    <glyph glyph-name="emacron" unicode="&#x113;" horiz-adv-x="588" 
d="M98 225q3 -39 19 -71t41.5 -55.5t60 -36.5t76.5 -13q59 0 102.5 23t67.5 66h73q-29 -69 -92.5 -110t-150.5 -41q-59 0 -107.5 19.5t-84 54t-55 82.5t-19.5 104t19.5 104t55 82.5t84 54t107.5 19.5q58 0 107 -19.5t83.5 -54t54 -82.5t19.5 -104v-22h-461zM295 445
q-79 0 -131 -43.5t-64 -114.5v-2h389v2q-6 35 -22.5 64t-41.5 50t-58 32.5t-72 11.5zM144 595v49h300v-49h-300z" />
    <glyph glyph-name="Ebreve" unicode="&#x114;" horiz-adv-x="593" 
d="M67 0v654h480v-66h-408v-223h350v-66h-350v-233h408v-66h-480zM441 861q-2 -64 -37 -100t-95 -36t-95 36t-37 100h49q8 -86 83 -86t83 86h49z" />
    <glyph glyph-name="ebreve" unicode="&#x115;" horiz-adv-x="588" 
d="M98 225q3 -39 19 -71t41.5 -55.5t60 -36.5t76.5 -13q59 0 102.5 23t67.5 66h73q-29 -69 -92.5 -110t-150.5 -41q-59 0 -107.5 19.5t-84 54t-55 82.5t-19.5 104t19.5 104t55 82.5t84 54t107.5 19.5q58 0 107 -19.5t83.5 -54t54 -82.5t19.5 -104v-22h-461zM295 445
q-79 0 -131 -43.5t-64 -114.5v-2h389v2q-6 35 -22.5 64t-41.5 50t-58 32.5t-72 11.5zM426 711q-2 -64 -37 -100t-95 -36t-95 36t-37 100h49q8 -86 83 -86t83 86h49z" />
    <glyph glyph-name="Edotaccent" unicode="&#x116;" horiz-adv-x="593" 
d="M67 0v654h480v-66h-408v-223h350v-66h-350v-233h408v-66h-480zM309 739q-19 0 -32.5 14t-13.5 32q0 19 13.5 32.5t32.5 13.5t32.5 -13.5t13.5 -32.5q0 -18 -13.5 -32t-32.5 -14z" />
    <glyph glyph-name="edotaccent" unicode="&#x117;" horiz-adv-x="588" 
d="M98 225q3 -39 19 -71t41.5 -55.5t60 -36.5t76.5 -13q59 0 102.5 23t67.5 66h73q-29 -69 -92.5 -110t-150.5 -41q-59 0 -107.5 19.5t-84 54t-55 82.5t-19.5 104t19.5 104t55 82.5t84 54t107.5 19.5q58 0 107 -19.5t83.5 -54t54 -82.5t19.5 -104v-22h-461zM295 445
q-79 0 -131 -43.5t-64 -114.5v-2h389v2q-6 35 -22.5 64t-41.5 50t-58 32.5t-72 11.5zM294 589q-19 0 -32.5 14t-13.5 32q0 19 13.5 32.5t32.5 13.5t32.5 -13.5t13.5 -32.5q0 -18 -13.5 -32t-32.5 -14z" />
    <glyph glyph-name="Eogonek" unicode="&#x118;" horiz-adv-x="593" 
d="M547 -179q-14 -18 -41.5 -31.5t-63.5 -13.5q-48 0 -79.5 25.5t-31.5 70.5q0 87 95 128h-359v654h480v-66h-408v-223h350v-66h-350v-233h408v-66h-43q-61 -14 -91 -44t-30 -65q0 -33 20 -48t47 -15q28 0 51.5 11t45.5 38v-56z" />
    <glyph glyph-name="eogonek" unicode="&#x119;" horiz-adv-x="588" 
d="M98 225q3 -39 19 -71t41.5 -55.5t60 -36.5t76.5 -13q59 0 102.5 23t67.5 66h73q-17 -42 -48 -73.5t-73 -51.5q-42 -23 -63.5 -54.5t-21.5 -67.5q0 -33 20 -48t48 -15q27 0 51 11t45 38v-56q-14 -18 -41.5 -31.5t-62.5 -13.5q-48 0 -80 25.5t-32 70.5q0 36 16 64.5
t46 52.5v2q-11 -2 -23 -3t-24 -1q-59 0 -107.5 19.5t-84 54t-55 82.5t-19.5 104t19.5 104t55 82.5t84 54t107.5 19.5q58 0 107 -19.5t83.5 -54t54 -82.5t19.5 -104v-22h-461zM295 445q-79 0 -131 -43.5t-64 -114.5v-2h389v2q-6 35 -22.5 64t-41.5 50t-58 32.5t-72 11.5z" />
    <glyph glyph-name="Ecaron" unicode="&#x11a;" horiz-adv-x="593" 
d="M67 0v654h480v-66h-408v-223h350v-66h-350v-233h408v-66h-480zM277 720l-108 150h59l81 -107h2l81 107h59l-108 -150h-66z" />
    <glyph glyph-name="ecaron" unicode="&#x11b;" horiz-adv-x="588" 
d="M98 225q3 -39 19 -71t41.5 -55.5t60 -36.5t76.5 -13q59 0 102.5 23t67.5 66h73q-29 -69 -92.5 -110t-150.5 -41q-59 0 -107.5 19.5t-84 54t-55 82.5t-19.5 104t19.5 104t55 82.5t84 54t107.5 19.5q58 0 107 -19.5t83.5 -54t54 -82.5t19.5 -104v-22h-461zM295 445
q-79 0 -131 -43.5t-64 -114.5v-2h389v2q-6 35 -22.5 64t-41.5 50t-58 32.5t-72 11.5zM262 570l-108 150h59l81 -107h2l81 107h59l-108 -150h-66z" />
    <glyph glyph-name="Gcircumflex" unicode="&#x11c;" horiz-adv-x="757" 
d="M631 449q-32 69 -96.5 110.5t-152.5 41.5q-61 0 -112 -20.5t-87.5 -57t-56.5 -87t-20 -109.5t20 -109.5t56.5 -87t87.5 -57t112 -20.5q53 0 98.5 14.5t80.5 41.5t58.5 65.5t33.5 86.5v2h-312v66h388v-34q-6 -67 -33.5 -123.5t-73 -97.5t-107 -64t-133.5 -23
q-77 0 -140.5 25.5t-110 71t-72 107.5t-25.5 136q0 73 25.5 135.5t72 108t110 71t140.5 25.5q59 0 111.5 -15.5t94.5 -44t73.5 -69t48.5 -89.5h-79zM464 720l-81 107h-2l-81 -107h-59l108 150h66l108 -150h-59z" />
    <glyph glyph-name="gcircumflex" unicode="&#x11d;" 
d="M493 106h-2q-27 -54 -80.5 -85t-125.5 -31q-52 0 -98.5 17.5t-81.5 50.5t-55.5 81t-20.5 108q0 56 19.5 104t55 82.5t84 54t107.5 19.5q58 0 107 -19t84 -53.5t54.5 -83t19.5 -107.5v-203q0 -72 -20.5 -122t-55.5 -82t-83 -46.5t-103 -14.5q-90 0 -156 38t-92 121h68
q20 -53 68.5 -76.5t111.5 -23.5q43 0 78.5 11t61.5 35.5t40.5 63t14.5 93.5v68zM493 247q0 43 -14.5 79t-40.5 62.5t-62.5 41.5t-80.5 15t-80.5 -15t-62.5 -41.5t-40.5 -62.5t-14.5 -79t14.5 -78.5t40.5 -61.5t62.5 -40.5t80.5 -14.5t80.5 14.5t62.5 40.5t40.5 61.5
t14.5 78.5zM383 570l-81 107h-2l-81 -107h-59l108 150h66l108 -150h-59z" />
    <glyph glyph-name="Gbreve" unicode="&#x11e;" horiz-adv-x="757" 
d="M631 449q-32 69 -96.5 110.5t-152.5 41.5q-61 0 -112 -20.5t-87.5 -57t-56.5 -87t-20 -109.5t20 -109.5t56.5 -87t87.5 -57t112 -20.5q53 0 98.5 14.5t80.5 41.5t58.5 65.5t33.5 86.5v2h-312v66h388v-34q-6 -67 -33.5 -123.5t-73 -97.5t-107 -64t-133.5 -23
q-77 0 -140.5 25.5t-110 71t-72 107.5t-25.5 136q0 73 25.5 135.5t72 108t110 71t140.5 25.5q59 0 111.5 -15.5t94.5 -44t73.5 -69t48.5 -89.5h-79zM513 861q-2 -64 -37 -100t-95 -36t-95 36t-37 100h49q8 -86 83 -86t83 86h49z" />
    <glyph glyph-name="gbreve" unicode="&#x11f;" 
d="M493 106h-2q-27 -54 -80.5 -85t-125.5 -31q-52 0 -98.5 17.5t-81.5 50.5t-55.5 81t-20.5 108q0 56 19.5 104t55 82.5t84 54t107.5 19.5q58 0 107 -19t84 -53.5t54.5 -83t19.5 -107.5v-203q0 -72 -20.5 -122t-55.5 -82t-83 -46.5t-103 -14.5q-90 0 -156 38t-92 121h68
q20 -53 68.5 -76.5t111.5 -23.5q43 0 78.5 11t61.5 35.5t40.5 63t14.5 93.5v68zM493 247q0 43 -14.5 79t-40.5 62.5t-62.5 41.5t-80.5 15t-80.5 -15t-62.5 -41.5t-40.5 -62.5t-14.5 -79t14.5 -78.5t40.5 -61.5t62.5 -40.5t80.5 -14.5t80.5 14.5t62.5 40.5t40.5 61.5
t14.5 78.5zM432 711q-2 -64 -37 -100t-95 -36t-95 36t-37 100h49q8 -86 83 -86t83 86h49z" />
    <glyph glyph-name="Gdotaccent" unicode="&#x120;" horiz-adv-x="757" 
d="M631 449q-32 69 -96.5 110.5t-152.5 41.5q-61 0 -112 -20.5t-87.5 -57t-56.5 -87t-20 -109.5t20 -109.5t56.5 -87t87.5 -57t112 -20.5q53 0 98.5 14.5t80.5 41.5t58.5 65.5t33.5 86.5v2h-312v66h388v-34q-6 -67 -33.5 -123.5t-73 -97.5t-107 -64t-133.5 -23
q-77 0 -140.5 25.5t-110 71t-72 107.5t-25.5 136q0 73 25.5 135.5t72 108t110 71t140.5 25.5q59 0 111.5 -15.5t94.5 -44t73.5 -69t48.5 -89.5h-79zM381 739q-19 0 -32.5 14t-13.5 32q0 19 13.5 32.5t32.5 13.5t32.5 -13.5t13.5 -32.5q0 -18 -13.5 -32t-32.5 -14z" />
    <glyph glyph-name="gdotaccent" unicode="&#x121;" 
d="M493 106h-2q-27 -54 -80.5 -85t-125.5 -31q-52 0 -98.5 17.5t-81.5 50.5t-55.5 81t-20.5 108q0 56 19.5 104t55 82.5t84 54t107.5 19.5q58 0 107 -19t84 -53.5t54.5 -83t19.5 -107.5v-203q0 -72 -20.5 -122t-55.5 -82t-83 -46.5t-103 -14.5q-90 0 -156 38t-92 121h68
q20 -53 68.5 -76.5t111.5 -23.5q43 0 78.5 11t61.5 35.5t40.5 63t14.5 93.5v68zM493 247q0 43 -14.5 79t-40.5 62.5t-62.5 41.5t-80.5 15t-80.5 -15t-62.5 -41.5t-40.5 -62.5t-14.5 -79t14.5 -78.5t40.5 -61.5t62.5 -40.5t80.5 -14.5t80.5 14.5t62.5 40.5t40.5 61.5
t14.5 78.5zM300 589q-19 0 -32.5 14t-13.5 32q0 19 13.5 32.5t32.5 13.5t32.5 -13.5t13.5 -32.5q0 -18 -13.5 -32t-32.5 -14z" />
    <glyph glyph-name="Gcommaaccent" unicode="&#x122;" horiz-adv-x="757" 
d="M631 449q-32 69 -96.5 110.5t-152.5 41.5q-61 0 -112 -20.5t-87.5 -57t-56.5 -87t-20 -109.5t20 -109.5t56.5 -87t87.5 -57t112 -20.5q53 0 98.5 14.5t80.5 41.5t58.5 65.5t33.5 86.5v2h-312v66h388v-34q-6 -67 -33.5 -123.5t-73 -97.5t-107 -64t-133.5 -23
q-77 0 -140.5 25.5t-110 71t-72 107.5t-25.5 136q0 73 25.5 135.5t72 108t110 71t140.5 25.5q59 0 111.5 -15.5t94.5 -44t73.5 -69t48.5 -89.5h-79zM341 -222l27 73q-14 4 -22.5 15.5t-8.5 26.5q0 19 13 32.5t32 13.5t32 -13.5t13 -32.5q0 -5 -1 -11t-6 -14l-43 -90h-36z
" />
    <glyph glyph-name="gcommaaccent" unicode="&#x123;" 
d="M341 751l-27 -73q14 -4 22.5 -15.5t8.5 -26.5q0 -19 -13 -32.5t-32 -13.5t-32 13.5t-13 32.5q0 5 1 11t6 14l43 90h36zM493 106h-2q-27 -54 -80.5 -85t-125.5 -31q-52 0 -98.5 17.5t-81.5 50.5t-55.5 81t-20.5 108q0 56 19.5 104t55 82.5t84 54t107.5 19.5q58 0 107 -19
t84 -53.5t54.5 -83t19.5 -107.5v-203q0 -72 -20.5 -122t-55.5 -82t-83 -46.5t-103 -14.5q-90 0 -156 38t-92 121h68q20 -53 68.5 -76.5t111.5 -23.5q43 0 78.5 11t61.5 35.5t40.5 63t14.5 93.5v68zM493 247q0 43 -14.5 79t-40.5 62.5t-62.5 41.5t-80.5 15t-80.5 -15
t-62.5 -41.5t-40.5 -62.5t-14.5 -79t14.5 -78.5t40.5 -61.5t62.5 -40.5t80.5 -14.5t80.5 14.5t62.5 40.5t40.5 61.5t14.5 78.5z" />
    <glyph glyph-name="Hcircumflex" unicode="&#x124;" horiz-adv-x="702" 
d="M563 0v299h-424v-299h-72v654h72v-289h424v289h72v-654h-72zM433 720l-81 107h-2l-81 -107h-59l108 150h66l108 -150h-59z" />
    <glyph glyph-name="hcircumflex" unicode="&#x125;" horiz-adv-x="602" 
d="M309 445q-80 0 -128.5 -48t-48.5 -139v-258h-67v710h67v-308h2q25 50 72.5 77.5t112.5 27.5q49 0 92 -15t74.5 -46t49.5 -78t18 -110v-258h-67v258q0 92 -48 139.5t-129 47.5zM182 770l-81 107h-2l-81 -107h-59l108 150h66l108 -150h-59z" />
    <glyph glyph-name="Hbar" unicode="&#x126;" horiz-adv-x="702" 
d="M563 0v299h-424v-299h-72v476h-57v57h57v121h72v-121h424v121h72v-121h57v-57h-57v-476h-72zM563 365v111h-424v-111h424z" />
    <glyph glyph-name="hbar" unicode="&#x127;" horiz-adv-x="602" 
d="M309 445q-80 0 -128.5 -48t-48.5 -139v-258h-67v549h-65v57h65v104h67v-104h131v-57h-131v-147h2q25 50 72.5 77.5t112.5 27.5q49 0 92 -15t74.5 -46t49.5 -78t18 -110v-258h-67v258q0 92 -48 139.5t-129 47.5z" />
    <glyph glyph-name="Itilde" unicode="&#x128;" horiz-adv-x="211" 
d="M70 0v654h72v-654h-72zM280 847q-18 -123 -103 -123q-27 0 -45.5 11t-33 23.5t-28 23.5t-32.5 11q-25 0 -38.5 -17.5t-20.5 -52.5h-47q18 122 103 122q27 0 45.5 -10.5t33 -23.5t28 -23.5t32.5 -10.5q25 0 38.5 17.5t20.5 52.5h47z" />
    <glyph glyph-name="itilde" unicode="&#x129;" horiz-adv-x="202" 
d="M275 697q-18 -123 -103 -123q-27 0 -45.5 11t-33 23.5t-28 23.5t-32.5 11q-25 0 -38.5 -17.5t-20.5 -52.5h-47q18 122 103 122q27 0 45.5 -10.5t33 -23.5t28 -23.5t32.5 -10.5q25 0 38.5 17.5t20.5 52.5h47zM68 0v494h67v-494h-67z" />
    <glyph glyph-name="Imacron" unicode="&#x12a;" horiz-adv-x="211" 
d="M70 0v654h72v-654h-72zM-44 745v49h300v-49h-300z" />
    <glyph glyph-name="imacron" unicode="&#x12b;" horiz-adv-x="202" 
d="M-12 595v49h226v-49h-226zM68 0v494h67v-494h-67z" />
    <glyph glyph-name="Ibreve" unicode="&#x12c;" horiz-adv-x="211" 
d="M70 0v654h72v-654h-72zM238 861q-2 -64 -37 -100t-95 -36t-95 36t-37 100h49q8 -86 83 -86t83 86h49z" />
    <glyph glyph-name="ibreve" unicode="&#x12d;" horiz-adv-x="202" 
d="M233 711q-2 -64 -37 -100t-95 -36t-95 36t-37 100h49q8 -86 83 -86t83 86h49zM68 0v494h67v-494h-67z" />
    <glyph glyph-name="Iogonek" unicode="&#x12e;" horiz-adv-x="211" 
d="M131 0q-41 -18 -64.5 -44.5t-23.5 -64.5q0 -33 20 -48t47 -15t51 11t46 38v-56q-14 -18 -41.5 -31.5t-63.5 -13.5q-48 0 -79.5 25.5t-31.5 70.5t21 75.5t59 52.5h-1v654h72v-654h-11z" />
    <glyph glyph-name="iogonek" unicode="&#x12f;" horiz-adv-x="202" 
d="M128 0q-41 -18 -64.5 -44.5t-23.5 -64.5q0 -33 20 -48t47 -15t51 11t45 38v-56q-14 -18 -41 -31.5t-63 -13.5q-48 0 -79.5 25.5t-31.5 70.5t21 75.5t59 52.5v494h67v-494h-7zM101 577q-21 0 -36 15.5t-15 35.5q0 21 15 36t36 15t36 -15t15 -36q0 -20 -15 -35.5t-36 -15.5
z" />
    <glyph glyph-name="Idotaccent" unicode="&#x130;" horiz-adv-x="211" 
d="M70 0v654h72v-654h-72zM106 739q-19 0 -32.5 14t-13.5 32q0 19 13.5 32.5t32.5 13.5t32.5 -13.5t13.5 -32.5q0 -18 -13.5 -32t-32.5 -14z" />
    <glyph glyph-name="dotlessi" unicode="&#x131;" horiz-adv-x="202" 
d="M68 0v494h67v-494h-67z" />
    <glyph glyph-name="Jcircumflex" unicode="&#x134;" horiz-adv-x="572" 
d="M448 654h72v-424q0 -111 -64 -177t-184 -66q-118 0 -181 65.5t-63 177.5v7h70v-7q0 -82 44 -129.5t131 -47.5t131 47.5t44 129.5v424zM547 720l-81 107h-2l-81 -107h-59l108 150h66l108 -150h-59z" />
    <glyph glyph-name="jcircumflex" unicode="&#x135;" horiz-adv-x="202" 
d="M-42 -218v58h8q56 0 78.5 26.5t22.5 89.5v538h67v-535q0 -89 -37.5 -133t-124.5 -44h-14zM184 570l-81 107h-2l-81 -107h-59l108 150h66l108 -150h-59z" />
    <glyph glyph-name="Kcommaaccent" unicode="&#x136;" horiz-adv-x="572" 
d="M67 0v654h72v-304h2l308 304h93l-331 -323l341 -331h-95l-316 311h-2v-311h-72zM245 -222l27 73q-14 4 -22.5 15.5t-8.5 26.5q0 19 13 32.5t32 13.5t32 -13.5t13 -32.5q0 -5 -1 -11t-6 -14l-43 -90h-36z" />
    <glyph glyph-name="kcommaaccent" unicode="&#x137;" horiz-adv-x="517" 
d="M65 0v710h67v-436h2l260 220h94l-285 -240l295 -254h-95l-269 234h-2v-234h-67zM214 -222l27 73q-14 4 -22.5 15.5t-8.5 26.5q0 19 13 32.5t32 13.5t32 -13.5t13 -32.5q0 -5 -1 -11t-6 -14l-43 -90h-36z" />
    <glyph glyph-name="kgreenlandic" unicode="&#x138;" horiz-adv-x="517" 
d="M132 0h-67v494h67v-220h2l260 220h94l-285 -240l295 -254h-95l-269 234h-2v-234z" />
    <glyph glyph-name="Lacute" unicode="&#x139;" horiz-adv-x="561" 
d="M67 0v654h72v-588h396v-66h-468zM52 720l103 150h72l-115 -150h-60z" />
    <glyph glyph-name="lacute" unicode="&#x13a;" horiz-adv-x="202" 
d="M68 0v710h67v-710h-67zM49 770l103 150h72l-115 -150h-60z" />
    <glyph glyph-name="Lcommaaccent" unicode="&#x13b;" horiz-adv-x="561" 
d="M67 0v654h72v-588h396v-66h-468zM250 -222l27 73q-14 4 -22.5 15.5t-8.5 26.5q0 19 13 32.5t32 13.5t32 -13.5t13 -32.5q0 -5 -1 -11t-6 -14l-43 -90h-36z" />
    <glyph glyph-name="lcommaaccent" unicode="&#x13c;" horiz-adv-x="202" 
d="M68 0v710h67v-710h-67zM61 -222l27 73q-14 4 -22.5 15.5t-8.5 26.5q0 19 13 32.5t32 13.5t32 -13.5t13 -32.5q0 -5 -1 -11t-6 -14l-43 -90h-36z" />
    <glyph glyph-name="Lcaron" unicode="&#x13d;" horiz-adv-x="561" 
d="M67 0v654h72v-588h396v-66h-468zM247 464l32 108q-14 5 -23.5 17t-9.5 29q0 20 14 34.5t34 14.5t33.5 -14.5t13.5 -34.5q0 -16 -5 -27l-51 -127h-38z" />
    <glyph glyph-name="lcaron" unicode="&#x13e;" horiz-adv-x="342" 
d="M68 0v710h67v-710h-67zM226 464l32 108q-14 5 -23.5 17t-9.5 29q0 20 14 34.5t34 14.5t33.5 -14.5t13.5 -34.5q0 -16 -5 -27l-51 -127h-38z" />
    <glyph glyph-name="Ldot" unicode="&#x13f;" horiz-adv-x="561" 
d="M67 0v654h72v-588h396v-66h-468zM384 301q-21 0 -36 15t-15 36t15 36t36 15q20 0 35 -15t15 -36t-15 -36t-35 -15z" />
    <glyph glyph-name="ldot" unicode="&#x140;" horiz-adv-x="352" 
d="M68 0v710h67v-710h-67zM277 276q-21 0 -36 15t-15 36t15 36t36 15q20 0 35 -15t15 -36t-15 -36t-35 -15z" />
    <glyph glyph-name="Lslash" unicode="&#x141;" horiz-adv-x="561" 
d="M67 0v209h-2l-65 -44v76l67 46v367h72v-316h2l251 172v-77l-253 -173v-194h396v-66h-468z" />
    <glyph glyph-name="lslash" unicode="&#x142;" horiz-adv-x="212" 
d="M73 0v351h-2l-66 -42v73l68 43v285h67v-242h2l85 54v-73l-87 -55v-394h-67z" />
    <glyph glyph-name="Nacute" unicode="&#x143;" horiz-adv-x="653" 
d="M529 0v397q0 95 -51 149.5t-151 54.5t-151.5 -54.5t-51.5 -149.5v-397h-72v397q0 62 18 112t53 85t86.5 54t117.5 19t117 -19t86 -54t53 -85t18 -112v-397h-72zM273 720l103 150h72l-115 -150h-60z" />
    <glyph glyph-name="nacute" unicode="&#x144;" horiz-adv-x="586" 
d="M470 0v258q0 92 -48 139.5t-129 47.5t-129 -47.5t-48 -139.5v-258h-67v258q0 61 17.5 108t49.5 78t77 47t100 16t100 -16t77 -47t49.5 -78t17.5 -108v-258h-67zM240 570l103 150h72l-115 -150h-60z" />
    <glyph glyph-name="Ncommaaccent" unicode="&#x145;" horiz-adv-x="653" 
d="M529 0v397q0 95 -51 149.5t-151 54.5t-151.5 -54.5t-51.5 -149.5v-397h-72v397q0 62 18 112t53 85t86.5 54t117.5 19t117 -19t86 -54t53 -85t18 -112v-397h-72zM286 -222l27 73q-14 4 -22.5 15.5t-8.5 26.5q0 19 13 32.5t32 13.5t32 -13.5t13 -32.5q0 -5 -1 -11t-6 -14
l-43 -90h-36z" />
    <glyph glyph-name="ncommaaccent" unicode="&#x146;" horiz-adv-x="586" 
d="M470 0v258q0 92 -48 139.5t-129 47.5t-129 -47.5t-48 -139.5v-258h-67v258q0 61 17.5 108t49.5 78t77 47t100 16t100 -16t77 -47t49.5 -78t17.5 -108v-258h-67zM252 -222l27 73q-14 4 -22.5 15.5t-8.5 26.5q0 19 13 32.5t32 13.5t32 -13.5t13 -32.5q0 -5 -1 -11t-6 -14
l-43 -90h-36z" />
    <glyph glyph-name="Ncaron" unicode="&#x147;" horiz-adv-x="653" 
d="M529 0v397q0 95 -51 149.5t-151 54.5t-151.5 -54.5t-51.5 -149.5v-397h-72v397q0 62 18 112t53 85t86.5 54t117.5 19t117 -19t86 -54t53 -85t18 -112v-397h-72zM294 720l-108 150h59l81 -107h2l81 107h59l-108 -150h-66z" />
    <glyph glyph-name="ncaron" unicode="&#x148;" horiz-adv-x="586" 
d="M470 0v258q0 92 -48 139.5t-129 47.5t-129 -47.5t-48 -139.5v-258h-67v258q0 61 17.5 108t49.5 78t77 47t100 16t100 -16t77 -47t49.5 -78t17.5 -108v-258h-67zM260 570l-108 150h59l81 -107h2l81 107h59l-108 -150h-66z" />
    <glyph glyph-name="napostrophe" unicode="&#x149;" horiz-adv-x="695" 
d="M579 0v258q0 92 -48 139.5t-129 47.5t-129 -47.5t-48 -139.5v-258h-67v258q0 61 17.5 108t49.5 78t77 47t100 16t100 -16t77 -47t49.5 -78t17.5 -108v-258h-67zM58 407l33 114q-15 5 -25 18t-10 30q0 21 15 36t36 15q20 0 35 -15t15 -36q0 -15 -6 -28l-53 -134h-40z" />
    <glyph glyph-name="Eng" unicode="&#x14a;" horiz-adv-x="653" 
d="M415 -218v66h16q54 0 76 25.5t22 87.5v436q0 95 -51 149.5t-151 54.5t-151.5 -54.5t-51.5 -149.5v-397h-72v397q0 62 18 112t53 85t86.5 54t117.5 19t117 -19t86 -54t53 -85t18 -112v-438q0 -89 -37.5 -133t-124.5 -44h-24z" />
    <glyph glyph-name="eng" unicode="&#x14b;" horiz-adv-x="586" 
d="M360 -218v58h10q56 0 78 26.5t22 89.5v302q0 92 -48 139.5t-129 47.5t-129 -47.5t-48 -139.5v-258h-67v258q0 61 17.5 108t49.5 78t77 47t100 16t100 -16t77 -47t49.5 -78t17.5 -108v-299q0 -89 -37.5 -133t-124.5 -44h-15z" />
    <glyph glyph-name="Omacron" unicode="&#x14c;" horiz-adv-x="764" 
d="M730 327q0 -74 -25.5 -136t-72 -107.5t-110.5 -71t-140 -25.5q-77 0 -140.5 25.5t-110 71t-72 107.5t-25.5 136q0 73 25.5 135.5t72 108t110 71t140.5 25.5q76 0 140 -25.5t110.5 -71t72 -108t25.5 -135.5zM382 53q61 0 112 20.5t87.5 57t56.5 87t20 109.5t-20 109.5
t-56.5 87t-87.5 57t-112 20.5t-112 -20.5t-87.5 -57t-56.5 -87t-20 -109.5t20 -109.5t56.5 -87t87.5 -57t112 -20.5zM232 745v49h300v-49h-300z" />
    <glyph glyph-name="omacron" unicode="&#x14d;" horiz-adv-x="590" 
d="M561 247q0 -56 -19.5 -104t-55 -82.5t-84.5 -54t-107 -19.5q-59 0 -107.5 19.5t-84 54t-55 82.5t-19.5 104t19.5 104t55 82.5t84 54t107.5 19.5q58 0 107 -19.5t84.5 -54t55 -82.5t19.5 -104zM295 49q44 0 80.5 15t62.5 41.5t40.5 62.5t14.5 79t-14.5 79t-40.5 62.5
t-62.5 41.5t-80.5 15t-80.5 -15t-62.5 -41.5t-40.5 -62.5t-14.5 -79t14.5 -79t40.5 -62.5t62.5 -41.5t80.5 -15zM145 595v49h300v-49h-300z" />
    <glyph glyph-name="Obreve" unicode="&#x14e;" horiz-adv-x="764" 
d="M730 327q0 -74 -25.5 -136t-72 -107.5t-110.5 -71t-140 -25.5q-77 0 -140.5 25.5t-110 71t-72 107.5t-25.5 136q0 73 25.5 135.5t72 108t110 71t140.5 25.5q76 0 140 -25.5t110.5 -71t72 -108t25.5 -135.5zM382 53q61 0 112 20.5t87.5 57t56.5 87t20 109.5t-20 109.5
t-56.5 87t-87.5 57t-112 20.5t-112 -20.5t-87.5 -57t-56.5 -87t-20 -109.5t20 -109.5t56.5 -87t87.5 -57t112 -20.5zM514 861q-2 -64 -37 -100t-95 -36t-95 36t-37 100h49q8 -86 83 -86t83 86h49z" />
    <glyph glyph-name="obreve" unicode="&#x14f;" horiz-adv-x="590" 
d="M561 247q0 -56 -19.5 -104t-55 -82.5t-84.5 -54t-107 -19.5q-59 0 -107.5 19.5t-84 54t-55 82.5t-19.5 104t19.5 104t55 82.5t84 54t107.5 19.5q58 0 107 -19.5t84.5 -54t55 -82.5t19.5 -104zM295 49q44 0 80.5 15t62.5 41.5t40.5 62.5t14.5 79t-14.5 79t-40.5 62.5
t-62.5 41.5t-80.5 15t-80.5 -15t-62.5 -41.5t-40.5 -62.5t-14.5 -79t14.5 -79t40.5 -62.5t62.5 -41.5t80.5 -15zM427 711q-2 -64 -37 -100t-95 -36t-95 36t-37 100h49q8 -86 83 -86t83 86h49z" />
    <glyph glyph-name="Ohungarumlaut" unicode="&#x150;" horiz-adv-x="764" 
d="M730 327q0 -74 -25.5 -136t-72 -107.5t-110.5 -71t-140 -25.5q-77 0 -140.5 25.5t-110 71t-72 107.5t-25.5 136q0 73 25.5 135.5t72 108t110 71t140.5 25.5q76 0 140 -25.5t110.5 -71t72 -108t25.5 -135.5zM382 53q61 0 112 20.5t87.5 57t56.5 87t20 109.5t-20 109.5
t-56.5 87t-87.5 57t-112 20.5t-112 -20.5t-87.5 -57t-56.5 -87t-20 -109.5t20 -109.5t56.5 -87t87.5 -57t112 -20.5zM248 720l103 150h72l-115 -150h-60zM409 720l102 150h73l-115 -150h-60z" />
    <glyph glyph-name="ohungarumlaut" unicode="&#x151;" horiz-adv-x="590" 
d="M561 247q0 -56 -19.5 -104t-55 -82.5t-84.5 -54t-107 -19.5q-59 0 -107.5 19.5t-84 54t-55 82.5t-19.5 104t19.5 104t55 82.5t84 54t107.5 19.5q58 0 107 -19.5t84.5 -54t55 -82.5t19.5 -104zM295 49q44 0 80.5 15t62.5 41.5t40.5 62.5t14.5 79t-14.5 79t-40.5 62.5
t-62.5 41.5t-80.5 15t-80.5 -15t-62.5 -41.5t-40.5 -62.5t-14.5 -79t14.5 -79t40.5 -62.5t62.5 -41.5t80.5 -15zM161 570l103 150h72l-115 -150h-60zM322 570l102 150h73l-115 -150h-60z" />
    <glyph glyph-name="OE" unicode="&#x152;" horiz-adv-x="1182" 
d="M658 0v154h-2q-15 -33 -40 -63t-60 -53t-80 -37t-100 -14q-70 0 -132 23.5t-108.5 67.5t-74 107t-27.5 142t27.5 142t74 107t108.5 67.5t132 23.5q55 0 100 -14t80 -37.5t60 -53.5t40 -62h2v154h478v-66h-406v-223h348v-66h-348v-233h406v-66h-478zM382 53q61 0 112 20.5
t87.5 57t56.5 87t20 109.5t-20 109.5t-56.5 87t-87.5 57t-112 20.5t-112 -20.5t-87.5 -57t-56.5 -87t-20 -109.5t20 -109.5t56.5 -87t87.5 -57t112 -20.5z" />
    <glyph glyph-name="oe" unicode="&#x153;" horiz-adv-x="1052" 
d="M295 49q44 0 80.5 15t62.5 41.5t40.5 62.5t14.5 79t-14.5 79t-40.5 62.5t-62.5 41.5t-80.5 15t-80.5 -15t-62.5 -41.5t-40.5 -62.5t-14.5 -79t14.5 -79t40.5 -62.5t62.5 -41.5t80.5 -15zM758 445q-39 0 -72 -12t-58 -33t-41.5 -50.5t-22.5 -64.5h389v2q-12 71 -64 114.5
t-131 43.5zM762 507q58 0 106 -19.5t82.5 -54t53.5 -82.5t19 -104v-22h-461q3 -39 19 -71t41.5 -55.5t60 -36.5t75.5 -13q58 0 102.5 23t68.5 66h73q-29 -69 -91.5 -110t-148.5 -41q-87 0 -146.5 39.5t-87.5 105.5h-2q-28 -66 -88 -105.5t-146 -39.5q-58 0 -106.5 19.5
t-83 54t-54 82.5t-19.5 104t19.5 104t54 82.5t83 54t106.5 19.5q85 0 145.5 -39.5t88.5 -105.5h2q28 66 87.5 105.5t146.5 39.5z" />
    <glyph glyph-name="Racute" unicode="&#x154;" horiz-adv-x="630" 
d="M515 0l-177 248h-199v-248h-72v654h289q58 0 100 -15.5t69 -42.5t40 -64t13 -80q0 -76 -39.5 -130t-124.5 -69v-2l188 -251h-87zM357 314q41 0 69 10.5t45.5 29t25.5 44t8 54.5t-8 54t-25.5 43t-45.5 28.5t-69 10.5h-218v-274h218zM251 720l103 150h72l-115 -150h-60z
" />
    <glyph glyph-name="racute" unicode="&#x155;" horiz-adv-x="481" 
d="M398 289v7q0 78 -39 113.5t-102 35.5q-64 0 -102.5 -35.5t-38.5 -113.5v-296h-67v296q0 53 15 92.5t42.5 66t66 39.5t84.5 13t84 -13t65.5 -39.5t42.5 -66t15 -93.5v-6h-66zM204 570l103 150h72l-115 -150h-60z" />
    <glyph glyph-name="Rcommaaccent" unicode="&#x156;" horiz-adv-x="630" 
d="M515 0l-177 248h-199v-248h-72v654h289q58 0 100 -15.5t69 -42.5t40 -64t13 -80q0 -76 -39.5 -130t-124.5 -69v-2l188 -251h-87zM357 314q41 0 69 10.5t45.5 29t25.5 44t8 54.5t-8 54t-25.5 43t-45.5 28.5t-69 10.5h-218v-274h218zM276 -222l27 73q-14 4 -22.5 15.5
t-8.5 26.5q0 19 13 32.5t32 13.5t32 -13.5t13 -32.5q0 -5 -1 -11t-6 -14l-43 -90h-36z" />
    <glyph glyph-name="rcommaaccent" unicode="&#x157;" horiz-adv-x="481" 
d="M398 289v7q0 78 -39 113.5t-102 35.5q-64 0 -102.5 -35.5t-38.5 -113.5v-296h-67v296q0 53 15 92.5t42.5 66t66 39.5t84.5 13t84 -13t65.5 -39.5t42.5 -66t15 -93.5v-6h-66zM43 -222l27 73q-14 4 -22.5 15.5t-8.5 26.5q0 19 13 32.5t32 13.5t32 -13.5t13 -32.5
q0 -5 -1 -11t-6 -14l-43 -90h-36z" />
    <glyph glyph-name="Rcaron" unicode="&#x158;" horiz-adv-x="630" 
d="M515 0l-177 248h-199v-248h-72v654h289q58 0 100 -15.5t69 -42.5t40 -64t13 -80q0 -76 -39.5 -130t-124.5 -69v-2l188 -251h-87zM357 314q41 0 69 10.5t45.5 29t25.5 44t8 54.5t-8 54t-25.5 43t-45.5 28.5t-69 10.5h-218v-274h218zM271 720l-108 150h59l81 -107h2l81 107
h59l-108 -150h-66z" />
    <glyph glyph-name="rcaron" unicode="&#x159;" horiz-adv-x="481" 
d="M398 289v7q0 78 -39 113.5t-102 35.5q-64 0 -102.5 -35.5t-38.5 -113.5v-296h-67v296q0 53 15 92.5t42.5 66t66 39.5t84.5 13t84 -13t65.5 -39.5t42.5 -66t15 -93.5v-6h-66zM224 570l-108 150h59l81 -107h2l81 107h59l-108 -150h-66z" />
    <glyph glyph-name="Sacute" unicode="&#x15a;" horiz-adv-x="548" 
d="M429 477q-3 57 -43.5 90t-111.5 33q-72 0 -113.5 -34.5t-41.5 -92.5q0 -35 17 -55t44.5 -31.5t62.5 -17.5t72 -12.5t72 -15.5t62.5 -28t44.5 -49.5t17 -78.5q0 -46 -17 -82.5t-48 -62.5t-75 -40t-98 -14q-53 0 -96.5 13.5t-75 39t-49 62t-18.5 82.5h71q2 -63 46 -97
t122 -34t123 35.5t45 95.5q0 35 -17 55.5t-44.5 32t-62.5 17.5t-72 12.5t-72 15.5t-62.5 27.5t-44.5 49t-17 78.5q0 43 16 79t45.5 62t71 40t92.5 14q49 0 90 -13.5t70 -38.5t45.5 -59.5t18.5 -77.5h-69zM224 720l103 150h72l-115 -150h-60z" />
    <glyph glyph-name="sacute" unicode="&#x15b;" horiz-adv-x="468" 
d="M356 359q-2 37 -34 62t-88 25q-58 0 -90.5 -25t-32.5 -67q0 -32 24 -46t60 -20.5t78.5 -11t78.5 -17.5t60 -39.5t24 -76.5q0 -34 -14.5 -62.5t-40.5 -49.5t-63.5 -32.5t-83.5 -11.5t-82.5 11.5t-63 32t-41 48t-15.5 60.5h68q2 -40 36.5 -65.5t96.5 -25.5q66 0 100.5 26.5
t34.5 68.5q0 32 -24 46t-60 20.5t-78 11t-78 17t-60 39t-24 77.5q0 33 13 61.5t38 48.5t59.5 31.5t78.5 11.5q43 0 78 -11.5t59.5 -31t37.5 -47t14 -58.5h-66zM182 570l103 150h72l-115 -150h-60z" />
    <glyph glyph-name="Scircumflex" unicode="&#x15c;" horiz-adv-x="548" 
d="M429 477q-3 57 -43.5 90t-111.5 33q-72 0 -113.5 -34.5t-41.5 -92.5q0 -35 17 -55t44.5 -31.5t62.5 -17.5t72 -12.5t72 -15.5t62.5 -28t44.5 -49.5t17 -78.5q0 -46 -17 -82.5t-48 -62.5t-75 -40t-98 -14q-53 0 -96.5 13.5t-75 39t-49 62t-18.5 82.5h71q2 -63 46 -97
t122 -34t123 35.5t45 95.5q0 35 -17 55.5t-44.5 32t-62.5 17.5t-72 12.5t-72 15.5t-62.5 27.5t-44.5 49t-17 78.5q0 43 16 79t45.5 62t71 40t92.5 14q49 0 90 -13.5t70 -38.5t45.5 -59.5t18.5 -77.5h-69zM359 720l-81 107h-2l-81 -107h-59l108 150h66l108 -150h-59z" />
    <glyph glyph-name="scircumflex" unicode="&#x15d;" horiz-adv-x="468" 
d="M356 359q-2 37 -34 62t-88 25q-58 0 -90.5 -25t-32.5 -67q0 -32 24 -46t60 -20.5t78.5 -11t78.5 -17.5t60 -39.5t24 -76.5q0 -34 -14.5 -62.5t-40.5 -49.5t-63.5 -32.5t-83.5 -11.5t-82.5 11.5t-63 32t-41 48t-15.5 60.5h68q2 -40 36.5 -65.5t96.5 -25.5q66 0 100.5 26.5
t34.5 68.5q0 32 -24 46t-60 20.5t-78 11t-78 17t-60 39t-24 77.5q0 33 13 61.5t38 48.5t59.5 31.5t78.5 11.5q43 0 78 -11.5t59.5 -31t37.5 -47t14 -58.5h-66zM317 570l-81 107h-2l-81 -107h-59l108 150h66l108 -150h-59z" />
    <glyph glyph-name="Scedilla" unicode="&#x15e;" horiz-adv-x="548" 
d="M210 -89l30 75v2q-93 8 -148.5 59t-57.5 136h71q2 -63 46 -97t122 -34t123 35.5t45 95.5q0 35 -17 55.5t-44.5 32t-62.5 17.5t-72 12.5t-72 15.5t-62.5 27.5t-44.5 49t-17 78.5q0 43 16 79t45.5 62t71 40t92.5 14q49 0 90 -13.5t70 -38.5t45.5 -59.5t18.5 -77.5h-69
q-3 57 -43.5 90t-111.5 33q-72 0 -113.5 -34.5t-41.5 -92.5q0 -35 17 -55t44.5 -31.5t62.5 -17.5t72 -12.5t72 -15.5t62.5 -28t44.5 -49.5t17 -78.5q0 -45 -16 -81t-45.5 -61.5t-71.5 -40.5t-93 -16l-21 -51v-2q8 3 13 4t13 1q35 0 58.5 -21t23.5 -56q0 -41 -27.5 -63
t-75.5 -22q-45 0 -72.5 20t-31.5 56h50q2 -17 16.5 -26t37.5 -9q24 0 38 10t14 33q0 17 -11.5 27.5t-30.5 10.5q-11 0 -17.5 -1.5t-14.5 -6.5z" />
    <glyph glyph-name="scedilla" unicode="&#x15f;" horiz-adv-x="468" 
d="M170 -89l31 76v2q-78 8 -122.5 49t-46.5 101h68q2 -40 36.5 -65.5t96.5 -25.5q66 0 100.5 26.5t34.5 68.5q0 32 -24 46t-60 20.5t-78 11t-78 17t-60 39t-24 77.5q0 33 13 61.5t38 48.5t59.5 31.5t78.5 11.5q43 0 78 -11.5t59.5 -31t37.5 -47t14 -58.5h-66q-2 37 -34 62
t-88 25q-58 0 -90.5 -25t-32.5 -67q0 -32 24 -46t60 -20.5t78.5 -11t78.5 -17.5t60 -39.5t24 -76.5q0 -33 -13.5 -60.5t-38 -48.5t-60 -33.5t-79.5 -13.5l-21 -52v-2q8 3 13 4t13 1q35 0 58.5 -21t23.5 -56q0 -41 -27.5 -63t-75.5 -22q-45 0 -72.5 20t-31.5 56h50
q2 -17 16.5 -26t37.5 -9q24 0 38 10t14 33q0 17 -11.5 27.5t-30.5 10.5q-11 0 -17.5 -1.5t-14.5 -6.5z" />
    <glyph glyph-name="Scaron" unicode="&#x160;" horiz-adv-x="548" 
d="M429 477q-3 57 -43.5 90t-111.5 33q-72 0 -113.5 -34.5t-41.5 -92.5q0 -35 17 -55t44.5 -31.5t62.5 -17.5t72 -12.5t72 -15.5t62.5 -28t44.5 -49.5t17 -78.5q0 -46 -17 -82.5t-48 -62.5t-75 -40t-98 -14q-53 0 -96.5 13.5t-75 39t-49 62t-18.5 82.5h71q2 -63 46 -97
t122 -34t123 35.5t45 95.5q0 35 -17 55.5t-44.5 32t-62.5 17.5t-72 12.5t-72 15.5t-62.5 27.5t-44.5 49t-17 78.5q0 43 16 79t45.5 62t71 40t92.5 14q49 0 90 -13.5t70 -38.5t45.5 -59.5t18.5 -77.5h-69zM244 720l-108 150h59l81 -107h2l81 107h59l-108 -150h-66z" />
    <glyph glyph-name="scaron" unicode="&#x161;" horiz-adv-x="468" 
d="M356 359q-2 37 -34 62t-88 25q-58 0 -90.5 -25t-32.5 -67q0 -32 24 -46t60 -20.5t78.5 -11t78.5 -17.5t60 -39.5t24 -76.5q0 -34 -14.5 -62.5t-40.5 -49.5t-63.5 -32.5t-83.5 -11.5t-82.5 11.5t-63 32t-41 48t-15.5 60.5h68q2 -40 36.5 -65.5t96.5 -25.5q66 0 100.5 26.5
t34.5 68.5q0 32 -24 46t-60 20.5t-78 11t-78 17t-60 39t-24 77.5q0 33 13 61.5t38 48.5t59.5 31.5t78.5 11.5q43 0 78 -11.5t59.5 -31t37.5 -47t14 -58.5h-66zM202 570l-108 150h59l81 -107h2l81 107h59l-108 -150h-66z" />
    <glyph glyph-name="Tcommaaccent" unicode="&#x162;" horiz-adv-x="570" 
d="M223 -89l36 87v2h-10v588h-222v66h516v-66h-222v-588h-17l-27 -65v-2q8 3 13 4t13 1q35 0 58.5 -21t23.5 -56q0 -41 -27.5 -63t-75.5 -22q-45 0 -72.5 20t-31.5 56h50q2 -17 16.5 -26t37.5 -9q24 0 38 10t14 33q0 17 -11.5 27.5t-30.5 10.5q-11 0 -17.5 -1.5t-14.5 -6.5z
" />
    <glyph glyph-name="tcommaaccent" unicode="&#x163;" horiz-adv-x="470" 
d="M169 -89l32 77v2q-70 11 -111 58.5t-41 133.5v486h67v-174h291v-61h-291v-251q0 -68 34.5 -100.5t92.5 -32.5q57 0 92 32t35 101v11h65v-11q0 -49 -14 -85.5t-39 -60.5t-60.5 -36.5t-77.5 -12.5l-21 -52v-2q8 3 13 4t13 1q35 0 58.5 -21t23.5 -56q0 -41 -27.5 -63
t-75.5 -22q-45 0 -72.5 20t-31.5 56h50q2 -17 16.5 -26t37.5 -9q24 0 38 10t14 33q0 17 -11.5 27.5t-30.5 10.5q-11 0 -17.5 -1.5t-14.5 -6.5z" />
    <glyph glyph-name="Tcaron" unicode="&#x164;" horiz-adv-x="570" 
d="M249 0v588h-222v66h516v-66h-222v-588h-72zM252 720l-108 150h59l81 -107h2l81 107h59l-108 -150h-66z" />
    <glyph glyph-name="tcaron" unicode="&#x165;" horiz-adv-x="470" 
d="M435 182q0 -49 -14 -85.5t-39.5 -61t-60.5 -36.5t-78 -12t-79 12t-61.5 36.5t-39.5 61t-14 85.5v486h67v-174h291v-61h-291v-251q0 -68 34.5 -100.5t92.5 -32.5q57 0 92 32t35 101v11h65v-11zM330 553l32 108q-14 5 -23.5 17t-9.5 29q0 20 14 34.5t34 14.5t33.5 -14.5
t13.5 -34.5q0 -16 -5 -27l-51 -127h-38z" />
    <glyph glyph-name="Tbar" unicode="&#x166;" horiz-adv-x="570" 
d="M249 0v299h-141v66h141v223h-222v66h516v-66h-222v-223h140v-66h-140v-299h-72z" />
    <glyph glyph-name="tbar" unicode="&#x167;" horiz-adv-x="470" 
d="M435 182q0 -49 -14 -85.5t-39.5 -61t-60.5 -36.5t-78 -12t-79 12t-61.5 36.5t-39.5 61t-14 85.5v94h-39v57h39v335h67v-174h291v-61h-291v-100h192v-57h-192v-94q0 -68 34.5 -100.5t92.5 -32.5q57 0 92 32t35 101v11h65v-11z" />
    <glyph glyph-name="Utilde" unicode="&#x168;" horiz-adv-x="649" 
d="M528 654h70v-397q0 -62 -18 -112t-52.5 -85t-85 -54t-115.5 -19q-66 0 -117.5 19t-86.5 54t-53 85t-18 112v397h72v-397q0 -95 51 -149.5t151 -54.5t151 55t51 149v397zM498 847q-18 -123 -103 -123q-27 0 -45.5 11t-33 23.5t-28 23.5t-32.5 11q-25 0 -38.5 -17.5
t-20.5 -52.5h-47q18 122 103 122q27 0 45.5 -10.5t33 -23.5t28 -23.5t32.5 -10.5q25 0 38.5 17.5t20.5 52.5h47z" />
    <glyph glyph-name="utilde" unicode="&#x169;" horiz-adv-x="586" 
d="M470 494h67v-258q0 -62 -17.5 -108.5t-49.5 -77.5t-77 -47t-100 -16t-100 16t-77 47t-49.5 77.5t-17.5 108.5v258h67v-258q0 -91 48 -139t129 -48t129 48t48 139v258zM467 697q-18 -123 -103 -123q-27 0 -45.5 11t-33 23.5t-28 23.5t-32.5 11q-25 0 -38.5 -17.5
t-20.5 -52.5h-47q18 122 103 122q27 0 45.5 -10.5t33 -23.5t28 -23.5t32.5 -10.5q25 0 38.5 17.5t20.5 52.5h47z" />
    <glyph glyph-name="Umacron" unicode="&#x16a;" horiz-adv-x="649" 
d="M528 654h70v-397q0 -62 -18 -112t-52.5 -85t-85 -54t-115.5 -19q-66 0 -117.5 19t-86.5 54t-53 85t-18 112v397h72v-397q0 -95 51 -149.5t151 -54.5t151 55t51 149v397zM174 745v49h300v-49h-300z" />
    <glyph glyph-name="umacron" unicode="&#x16b;" horiz-adv-x="586" 
d="M470 494h67v-258q0 -62 -17.5 -108.5t-49.5 -77.5t-77 -47t-100 -16t-100 16t-77 47t-49.5 77.5t-17.5 108.5v258h67v-258q0 -91 48 -139t129 -48t129 48t48 139v258zM143 595v49h300v-49h-300z" />
    <glyph glyph-name="Ubreve" unicode="&#x16c;" horiz-adv-x="649" 
d="M528 654h70v-397q0 -62 -18 -112t-52.5 -85t-85 -54t-115.5 -19q-66 0 -117.5 19t-86.5 54t-53 85t-18 112v397h72v-397q0 -95 51 -149.5t151 -54.5t151 55t51 149v397zM456 861q-2 -64 -37 -100t-95 -36t-95 36t-37 100h49q8 -86 83 -86t83 86h49z" />
    <glyph glyph-name="ubreve" unicode="&#x16d;" horiz-adv-x="586" 
d="M470 494h67v-258q0 -62 -17.5 -108.5t-49.5 -77.5t-77 -47t-100 -16t-100 16t-77 47t-49.5 77.5t-17.5 108.5v258h67v-258q0 -91 48 -139t129 -48t129 48t48 139v258zM425 711q-2 -64 -37 -100t-95 -36t-95 36t-37 100h49q8 -86 83 -86t83 86h49z" />
    <glyph glyph-name="Uring" unicode="&#x16e;" horiz-adv-x="649" 
d="M528 654h70v-397q0 -62 -18 -112t-52.5 -85t-85 -54t-115.5 -19q-66 0 -117.5 19t-86.5 54t-53 85t-18 112v397h72v-397q0 -95 51 -149.5t151 -54.5t151 55t51 149v397zM324 707q-41 0 -68.5 27t-27.5 68t27.5 68.5t68.5 27.5q42 0 69 -27.5t27 -68.5t-27 -68t-69 -27z
M373 802q0 21 -13.5 35.5t-35.5 14.5q-21 0 -35 -14.5t-14 -35.5t14 -35.5t35 -14.5q22 0 35.5 14.5t13.5 35.5z" />
    <glyph glyph-name="uring" unicode="&#x16f;" horiz-adv-x="586" 
d="M470 494h67v-258q0 -62 -17.5 -108.5t-49.5 -77.5t-77 -47t-100 -16t-100 16t-77 47t-49.5 77.5t-17.5 108.5v258h67v-258q0 -91 48 -139t129 -48t129 48t48 139v258zM293 557q-41 0 -68.5 27t-27.5 68t27.5 68.5t68.5 27.5q42 0 69 -27.5t27 -68.5t-27 -68t-69 -27z
M342 652q0 21 -13.5 35.5t-35.5 14.5q-21 0 -35 -14.5t-14 -35.5t14 -35.5t35 -14.5q22 0 35.5 14.5t13.5 35.5z" />
    <glyph glyph-name="Uhungarumlaut" unicode="&#x170;" horiz-adv-x="649" 
d="M528 654h70v-397q0 -62 -18 -112t-52.5 -85t-85 -54t-115.5 -19q-66 0 -117.5 19t-86.5 54t-53 85t-18 112v397h72v-397q0 -95 51 -149.5t151 -54.5t151 55t51 149v397zM191 720l103 150h72l-115 -150h-60zM352 720l102 150h73l-115 -150h-60z" />
    <glyph glyph-name="uhungarumlaut" unicode="&#x171;" horiz-adv-x="586" 
d="M470 494h67v-258q0 -62 -17.5 -108.5t-49.5 -77.5t-77 -47t-100 -16t-100 16t-77 47t-49.5 77.5t-17.5 108.5v258h67v-258q0 -91 48 -139t129 -48t129 48t48 139v258zM159 570l103 150h72l-115 -150h-60zM320 570l102 150h73l-115 -150h-60z" />
    <glyph glyph-name="Uogonek" unicode="&#x172;" horiz-adv-x="649" 
d="M528 654h70v-397q0 -89 -36.5 -152.5t-105.5 -93.5q-41 -23 -61.5 -54t-20.5 -66q0 -33 20 -48t47 -15q28 0 52 11t45 38v-56q-14 -18 -41.5 -31.5t-62.5 -13.5q-48 0 -80 25.5t-32 70.5q0 36 16.5 65t46.5 53v2q-14 -2 -28.5 -3.5t-29.5 -1.5q-66 0 -117.5 19t-86.5 54
t-53 85t-18 112v397h72v-397q0 -95 51 -149.5t151 -54.5t151 55t51 149v397z" />
    <glyph glyph-name="uogonek" unicode="&#x173;" horiz-adv-x="586" 
d="M470 494h67v-258q0 -85 -32 -140.5t-89 -83.5q-42 -23 -63 -54.5t-21 -66.5q0 -33 20 -48t47 -15t51 11t45 38v-56q-14 -18 -41 -31.5t-63 -13.5q-48 0 -79.5 25.5t-31.5 70.5q0 36 16 65t45 52v2q-11 -2 -23.5 -3t-24.5 -1q-55 0 -100 16t-77 47t-49.5 77.5t-17.5 108.5
v258h67v-258q0 -91 48 -139t129 -48t129 48t48 139v258z" />
    <glyph glyph-name="Wcircumflex" unicode="&#x174;" horiz-adv-x="929" 
d="M805 654h72v-434q0 -58 -17 -101.5t-46 -73t-69.5 -44t-86.5 -14.5q-68 0 -118 31t-74 90h-2q-24 -59 -73.5 -90t-118.5 -31q-47 0 -87 14.5t-69.5 44t-46.5 73t-17 101.5v434h72v-434q0 -83 43.5 -125t109.5 -42t109 43t43 124v434h72v-434q0 -81 43 -124t109 -43
q33 0 60.5 10.5t48 31.5t32 52t11.5 73v434zM546 720l-81 107h-2l-81 -107h-59l108 150h66l108 -150h-59z" />
    <glyph glyph-name="wcircumflex" unicode="&#x175;" horiz-adv-x="854" 
d="M460 494v-289q0 -78 40 -117t100 -39t99 38.5t39 117.5v289h67v-289q0 -55 -15 -96t-42 -68t-63.5 -40.5t-79.5 -13.5q-60 0 -106.5 27.5t-70.5 81.5h-2q-23 -54 -69.5 -81.5t-107.5 -27.5q-43 0 -79.5 13.5t-63.5 40.5t-42 68t-15 96v289h67v-289q0 -79 39 -117.5
t99 -38.5t99.5 39t39.5 117v289h67zM509 570l-81 107h-2l-81 -107h-59l108 150h66l108 -150h-59z" />
    <glyph glyph-name="Ycircumflex" unicode="&#x176;" horiz-adv-x="649" 
d="M289 0v287l-269 367h87l218 -306h2l217 306h85l-268 -366v-288h-72zM407 720l-81 107h-2l-81 -107h-59l108 150h66l108 -150h-59z" />
    <glyph glyph-name="ycircumflex" unicode="&#x177;" horiz-adv-x="602" 
d="M470 494h67v-476q0 -65 -19 -110.5t-52.5 -75t-78.5 -43t-97 -13.5q-42 0 -80 10t-68.5 29.5t-53 49.5t-34.5 70h67q20 -51 63.5 -75.5t105.5 -24.5q40 0 73 10t57 32t37 56.5t13 82.5v79h-2q-26 -50 -73 -77.5t-112 -27.5q-50 0 -92.5 15t-74 46t-49.5 78t-18 110v255
h67v-255q0 -92 48 -139.5t129 -47.5q80 0 128.5 48t48.5 139v255zM383 570l-81 107h-2l-81 -107h-59l108 150h66l108 -150h-59z" />
    <glyph glyph-name="Ydieresis" unicode="&#x178;" horiz-adv-x="649" 
d="M289 0v287l-269 367h87l218 -306h2l217 306h85l-268 -366v-288h-72zM417 739q-19 0 -32.5 14t-13.5 32q0 19 13.5 32.5t32.5 13.5t32.5 -13.5t13.5 -32.5q0 -18 -13.5 -32t-32.5 -14zM231 739q-18 0 -32 14t-14 32q0 19 14 32.5t32 13.5q19 0 32.5 -13.5t13.5 -32.5
q0 -18 -13.5 -32t-32.5 -14z" />
    <glyph glyph-name="Zacute" unicode="&#x179;" horiz-adv-x="600" 
d="M133 68v-2h419v-66h-509v62l409 524v2h-394v66h484v-62zM247 720l103 150h72l-115 -150h-60z" />
    <glyph glyph-name="zacute" unicode="&#x17a;" horiz-adv-x="534" 
d="M37 0v54l353 378v2h-338v60h430v-54l-353 -378v-2h363v-60h-455zM214 570l103 150h72l-115 -150h-60z" />
    <glyph glyph-name="Zdotaccent" unicode="&#x17b;" horiz-adv-x="600" 
d="M133 68v-2h419v-66h-509v62l409 524v2h-394v66h484v-62zM299 739q-19 0 -32.5 14t-13.5 32q0 19 13.5 32.5t32.5 13.5t32.5 -13.5t13.5 -32.5q0 -18 -13.5 -32t-32.5 -14z" />
    <glyph glyph-name="zdotaccent" unicode="&#x17c;" horiz-adv-x="534" 
d="M37 0v54l353 378v2h-338v60h430v-54l-353 -378v-2h363v-60h-455zM267 589q-19 0 -32.5 14t-13.5 32q0 19 13.5 32.5t32.5 13.5t32.5 -13.5t13.5 -32.5q0 -18 -13.5 -32t-32.5 -14z" />
    <glyph glyph-name="Zcaron" unicode="&#x17d;" horiz-adv-x="600" 
d="M133 68v-2h419v-66h-509v62l409 524v2h-394v66h484v-62zM267 720l-108 150h59l81 -107h2l81 107h59l-108 -150h-66z" />
    <glyph glyph-name="zcaron" unicode="&#x17e;" horiz-adv-x="534" 
d="M37 0v54l353 378v2h-338v60h430v-54l-353 -378v-2h363v-60h-455zM234 570l-108 150h59l81 -107h2l81 107h59l-108 -150h-66z" />
    <glyph glyph-name="florin" unicode="&#x192;" horiz-adv-x="522" 
d="M56 -108v58h32q56 0 81 29.5t30 87.5l24 287h-128v59h133l8 91q7 88 48 133.5t129 45.5h53v-58h-52q-56 0 -81 -30t-30 -87l-8 -95h148v-59h-153l-24 -284q-8 -87 -48.5 -132.5t-128.5 -45.5h-33z" />
    <glyph glyph-name="AEacute" unicode="&#x1fc;" horiz-adv-x="1028" 
d="M504 0v220h-383v-220h-70v374q0 64 18.5 116t54.5 88.5t88.5 56t120.5 19.5h649v-66h-406v-223h348v-66h-348v-233h406v-66h-478zM504 588h-172q-104 0 -157.5 -57t-53.5 -157v-88h383v302zM461 720l103 150h72l-115 -150h-60z" />
    <glyph glyph-name="aeacute" unicode="&#x1fd;" horiz-adv-x="1052" 
d="M562 225q3 -39 18.5 -71t41 -55.5t60 -36.5t76.5 -13q60 0 103 23t68 66h73q-29 -68 -91.5 -109.5t-143.5 -41.5q-75 0 -129.5 34.5t-79.5 92.5h-2v-114h-61v114h-2q-25 -58 -79 -92.5t-129 -34.5q-52 0 -98.5 18t-81.5 51.5t-55.5 82t-20.5 108.5q0 56 19.5 104t54 82.5
t83 54t106.5 19.5q85 0 145.5 -39.5t88.5 -105.5h2q28 66 87.5 105.5t146.5 39.5q58 0 106 -19.5t82.5 -54t53.5 -82.5t19 -104v-22h-461zM295 49q44 0 80.5 15t62.5 41.5t40.5 62.5t14.5 79t-14.5 79t-40.5 62.5t-62.5 41.5t-80.5 15t-80.5 -15t-62.5 -41.5t-40.5 -62.5
t-14.5 -79t14.5 -79t40.5 -62.5t62.5 -41.5t80.5 -15zM758 445q-39 0 -72 -12t-58 -33t-41.5 -50.5t-22.5 -64.5h389v2q-12 71 -64 114.5t-131 43.5zM473 570l103 150h72l-115 -150h-60z" />
    <glyph glyph-name="Oslashacute" unicode="&#x1fe;" horiz-adv-x="764" 
d="M329 720l103 150h72l-115 -150h-60zM34 0l87 94q-42 45 -64.5 104t-22.5 129q0 73 25.5 135.5t72 108t110 71t140.5 25.5q62 0 115 -16.5t97 -47.5l47 51h89l-88 -94q42 -45 65 -104.5t23 -128.5q0 -74 -25.5 -136t-72 -107.5t-110.5 -71t-140 -25.5q-62 0 -115.5 16.5
t-96.5 47.5l-47 -51h-89zM106 327q0 -107 62 -181h2l375 405v2q-68 48 -163 48q-61 0 -112 -20.5t-87.5 -57t-56.5 -87t-20 -109.5zM382 53q61 0 112 20.5t87.5 57t56.5 87t20 109.5q0 53 -16.5 99t-45.5 81h-2l-375 -404v-2q68 -48 163 -48z" />
    <glyph glyph-name="oslashacute" unicode="&#x1ff;" horiz-adv-x="590" 
d="M242 570l103 150h72l-115 -150h-60zM29 0l65 71q-31 34 -48 78.5t-17 97.5q0 56 19.5 104t55 82.5t84 54t107.5 19.5q45 0 84.5 -12t71.5 -33l29 32h81l-65 -71q31 -35 48 -79.5t17 -96.5q0 -56 -19.5 -104t-55 -82.5t-84.5 -54t-107 -19.5q-45 0 -84.5 11.5t-71.5 33.5
l-29 -32h-81zM295 49q44 0 80.5 15t62.5 41.5t40.5 62.5t14.5 79q0 37 -10.5 68.5t-30.5 57.5h-2l-266 -292v-2q46 -30 111 -30zM97 247q0 -75 40 -126h2l267 292v2q-47 30 -111 30q-44 0 -80.5 -15t-62.5 -41.5t-40.5 -62.5t-14.5 -79z" />
    <glyph glyph-name="Scommaaccent" unicode="&#x218;" horiz-adv-x="548" 
d="M429 477q-3 57 -43.5 90t-111.5 33q-72 0 -113.5 -34.5t-41.5 -92.5q0 -35 17 -55t44.5 -31.5t62.5 -17.5t72 -12.5t72 -15.5t62.5 -28t44.5 -49.5t17 -78.5q0 -46 -17 -82.5t-48 -62.5t-75 -40t-98 -14q-53 0 -96.5 13.5t-75 39t-49 62t-18.5 82.5h71q2 -63 46 -97
t122 -34t123 35.5t45 95.5q0 35 -17 55.5t-44.5 32t-62.5 17.5t-72 12.5t-72 15.5t-62.5 27.5t-44.5 49t-17 78.5q0 43 16 79t45.5 62t71 40t92.5 14q49 0 90 -13.5t70 -38.5t45.5 -59.5t18.5 -77.5h-69zM232 -222l27 73q-14 4 -22.5 15.5t-8.5 26.5q0 19 13 32.5t32 13.5
t32 -13.5t13 -32.5q0 -5 -1 -11t-6 -14l-43 -90h-36z" />
    <glyph glyph-name="scommaaccent" unicode="&#x219;" horiz-adv-x="468" 
d="M356 359q-2 37 -34 62t-88 25q-58 0 -90.5 -25t-32.5 -67q0 -32 24 -46t60 -20.5t78.5 -11t78.5 -17.5t60 -39.5t24 -76.5q0 -34 -14.5 -62.5t-40.5 -49.5t-63.5 -32.5t-83.5 -11.5t-82.5 11.5t-63 32t-41 48t-15.5 60.5h68q2 -40 36.5 -65.5t96.5 -25.5q66 0 100.5 26.5
t34.5 68.5q0 32 -24 46t-60 20.5t-78 11t-78 17t-60 39t-24 77.5q0 33 13 61.5t38 48.5t59.5 31.5t78.5 11.5q43 0 78 -11.5t59.5 -31t37.5 -47t14 -58.5h-66zM190 -222l27 73q-14 4 -22.5 15.5t-8.5 26.5q0 19 13 32.5t32 13.5t32 -13.5t13 -32.5q0 -5 -1 -11t-6 -14
l-43 -90h-36z" />
    <glyph glyph-name="uni021A" unicode="&#x21a;" horiz-adv-x="570" 
d="M249 0v588h-222v66h516v-66h-222v-588h-72zM244 -222l27 73q-14 4 -22.5 15.5t-8.5 26.5q0 19 13 32.5t32 13.5t32 -13.5t13 -32.5q0 -5 -1 -11t-6 -14l-43 -90h-36z" />
    <glyph glyph-name="uni021B" unicode="&#x21b;" horiz-adv-x="470" 
d="M435 182q0 -49 -14 -85.5t-39.5 -61t-60.5 -36.5t-78 -12t-79 12t-61.5 36.5t-39.5 61t-14 85.5v486h67v-174h291v-61h-291v-251q0 -68 34.5 -100.5t92.5 -32.5q57 0 92 32t35 101v11h65v-11zM187 -222l27 73q-14 4 -22.5 15.5t-8.5 26.5q0 19 13 32.5t32 13.5t32 -13.5
t13 -32.5q0 -5 -1 -11t-6 -14l-43 -90h-36z" />
    <glyph glyph-name="uni0237" unicode="&#x237;" horiz-adv-x="202" 
d="M-42 -218v58h8q56 0 78.5 26.5t22.5 89.5v538h67v-535q0 -89 -37.5 -133t-124.5 -44h-14z" />
    <glyph glyph-name="circumflex" unicode="&#x2c6;" horiz-adv-x="320" 
d="M242 570l-81 107h-2l-81 -107h-59l108 150h66l108 -150h-59z" />
    <glyph glyph-name="caron" unicode="&#x2c7;" horiz-adv-x="320" 
d="M127 570l-108 150h59l81 -107h2l81 107h59l-108 -150h-66z" />
    <glyph glyph-name="breve" unicode="&#x2d8;" horiz-adv-x="320" 
d="M292 711q-2 -64 -37 -100t-95 -36t-95 36t-37 100h49q8 -86 83 -86t83 86h49z" />
    <glyph glyph-name="dotaccent" unicode="&#x2d9;" horiz-adv-x="320" 
d="M160 589q-19 0 -32.5 14t-13.5 32q0 19 13.5 32.5t32.5 13.5t32.5 -13.5t13.5 -32.5q0 -18 -13.5 -32t-32.5 -14z" />
    <glyph glyph-name="ring" unicode="&#x2da;" horiz-adv-x="320" 
d="M160 557q-41 0 -68.5 27t-27.5 68t27.5 68.5t68.5 27.5q42 0 69 -27.5t27 -68.5t-27 -68t-69 -27zM209 652q0 21 -13.5 35.5t-35.5 14.5q-21 0 -35 -14.5t-14 -35.5t14 -35.5t35 -14.5q22 0 35.5 14.5t13.5 35.5z" />
    <glyph glyph-name="ogonek" unicode="&#x2db;" horiz-adv-x="320" 
d="M271 -179q-14 -18 -41.5 -31.5t-63.5 -13.5q-48 0 -79.5 25.5t-31.5 70.5q0 54 37 91t112 54l28 -16q-63 -14 -94 -44t-31 -66q0 -33 20 -48t47 -15q28 0 51.5 11t45.5 38v-56z" />
    <glyph glyph-name="tilde" unicode="&#x2dc;" horiz-adv-x="320" 
d="M334 697q-18 -123 -103 -123q-27 0 -45.5 11t-33 23.5t-28 23.5t-32.5 11q-25 0 -38.5 -17.5t-20.5 -52.5h-47q18 122 103 122q27 0 45.5 -10.5t33 -23.5t28 -23.5t32.5 -10.5q25 0 38.5 17.5t20.5 52.5h47z" />
    <glyph glyph-name="hungarumlaut" unicode="&#x2dd;" horiz-adv-x="320" 
d="M-8 570l103 150h72l-115 -150h-60zM153 570l102 150h73l-115 -150h-60z" />
    <glyph glyph-name="pi" unicode="&#x3c0;" horiz-adv-x="620" 
d="M487 0v433h-354v-433h-67v494h488v-494h-67z" />
    <glyph glyph-name="uni1E02" unicode="&#x1e02;" horiz-adv-x="623" 
d="M67 0v654h316q90 0 137 -46.5t47 -119.5q0 -52 -24.5 -90.5t-69.5 -57.5v-2q58 -15 91 -59.5t33 -105.5q0 -38 -12.5 -69.5t-36.5 -54.5t-59 -36t-80 -13h-342zM139 300v-234h261q63 0 93.5 33t30.5 84t-32.5 84t-89.5 33h-263zM139 588v-222h239q57 0 87 31t30 80
t-28.5 80t-91.5 31h-236zM313 739q-19 0 -32.5 14t-13.5 32q0 19 13.5 32.5t32.5 13.5t32.5 -13.5t13.5 -32.5q0 -18 -13.5 -32t-32.5 -14z" />
    <glyph glyph-name="uni1E03" unicode="&#x1e03;" 
d="M314 -13q-59 0 -107.5 19t-83.5 53.5t-54.5 83t-19.5 107.5v460h67v-318h2q27 53 80.5 84t125.5 31q52 0 98.5 -18t81.5 -51.5t55.5 -82t20.5 -108.5q0 -56 -19.5 -104t-55 -82.5t-84.5 -54t-107 -19.5zM314 49q44 0 80.5 15t62.5 41.5t40.5 62.5t14.5 79t-14.5 79
t-40.5 62.5t-62.5 41.5t-80.5 15q-45 0 -81.5 -15t-62.5 -41.5t-40 -62.5t-14 -79t14 -79t40 -62.5t62.5 -41.5t81.5 -15zM327 589q-19 0 -32.5 14t-13.5 32q0 19 13.5 32.5t32.5 13.5t32.5 -13.5t13.5 -32.5q0 -18 -13.5 -32t-32.5 -14z" />
    <glyph glyph-name="uni1E0A" unicode="&#x1e0a;" horiz-adv-x="682" 
d="M67 0v654h234q85 0 149.5 -23.5t108.5 -66.5t66.5 -103.5t22.5 -133.5q0 -74 -22.5 -134t-66.5 -103t-108.5 -66.5t-149.5 -23.5h-234zM301 66q69 0 121 18.5t86 53t51 82.5t17 107t-17 107t-51 82.5t-86 53t-121 18.5h-162v-522h162zM314 739q-19 0 -32.5 14t-13.5 32
q0 19 13.5 32.5t32.5 13.5t32.5 -13.5t13.5 -32.5q0 -18 -13.5 -32t-32.5 -14z" />
    <glyph glyph-name="uni1E0B" unicode="&#x1e0b;" 
d="M295 -13q-59 0 -107.5 19.5t-84 54t-55 82.5t-19.5 104q0 60 20.5 108.5t55.5 82t81.5 51.5t98.5 18q72 0 125.5 -31t80.5 -84h2v318h67v-460q0 -59 -19.5 -107.5t-54.5 -83t-84 -53.5t-107 -19zM295 49q44 0 80.5 15t62.5 41.5t40.5 62.5t14.5 79t-14.5 79t-40.5 62.5
t-62.5 41.5t-80.5 15t-80.5 -15t-62.5 -41.5t-40.5 -62.5t-14.5 -79t14.5 -79t40.5 -62.5t62.5 -41.5t80.5 -15zM281 589q-19 0 -32.5 14t-13.5 32q0 19 13.5 32.5t32.5 13.5t32.5 -13.5t13.5 -32.5q0 -18 -13.5 -32t-32.5 -14z" />
    <glyph glyph-name="uni1E1E" unicode="&#x1e1e;" horiz-adv-x="568" 
d="M67 0v654h472v-66h-400v-222h342v-66h-342v-300h-72zM310 739q-19 0 -32.5 14t-13.5 32q0 19 13.5 32.5t32.5 13.5t32.5 -13.5t13.5 -32.5q0 -18 -13.5 -32t-32.5 -14z" />
    <glyph glyph-name="uni1E1F" unicode="&#x1e1f;" horiz-adv-x="479" 
d="M65 0v514q0 52 15 91t42.5 65.5t66 39.5t84.5 13t84 -13.5t65.5 -40t42.5 -66t15 -92.5h-66q0 78 -39 114t-102 36q-64 0 -102.5 -36t-38.5 -111v-89h290v-61h-290v-364h-67zM269 779q-19 0 -32.5 14t-13.5 32q0 19 13.5 32.5t32.5 13.5t32.5 -13.5t13.5 -32.5
q0 -18 -13.5 -32t-32.5 -14z" />
    <glyph glyph-name="uni1E40" unicode="&#x1e40;" horiz-adv-x="929" 
d="M124 0h-72v434q0 58 17 101.5t46 73t69 44t87 14.5q68 0 118 -31t74 -90h2q24 59 73.5 90t118.5 31q46 0 86.5 -14.5t70 -44t46.5 -73t17 -101.5v-434h-72v434q0 83 -43.5 125t-109.5 42t-109 -43t-43 -124v-434h-72v434q0 81 -43 124t-109 43q-33 0 -60.5 -10.5
t-48 -31.5t-32 -52t-11.5 -73v-434zM464 739q-19 0 -32.5 14t-13.5 32q0 19 13.5 32.5t32.5 13.5t32.5 -13.5t13.5 -32.5q0 -18 -13.5 -32t-32.5 -14z" />
    <glyph glyph-name="uni1E41" unicode="&#x1e41;" horiz-adv-x="854" 
d="M394 0v289q0 78 -40 117t-100 39t-99 -38.5t-39 -117.5v-289h-67v289q0 55 15 96t42 68t63.5 40.5t79.5 13.5q60 0 106.5 -27.5t70.5 -81.5h2q23 54 69.5 81.5t107.5 27.5q43 0 79.5 -13.5t63.5 -40.5t42 -68t15 -96v-289h-67v289q0 79 -39 117.5t-99 38.5t-99.5 -39
t-39.5 -117v-289h-67zM427 589q-19 0 -32.5 14t-13.5 32q0 19 13.5 32.5t32.5 13.5t32.5 -13.5t13.5 -32.5q0 -18 -13.5 -32t-32.5 -14z" />
    <glyph glyph-name="uni1E56" unicode="&#x1e56;" horiz-adv-x="599" 
d="M67 0v654h283q59 0 102 -15.5t71 -43.5t41.5 -66t13.5 -83t-13.5 -83t-41.5 -66t-71 -44t-102 -16h-211v-237h-72zM351 303q42 0 71.5 11t48 30t26.5 45.5t8 56.5t-8 56t-26.5 45t-48 30t-71.5 11h-212v-285h212zM306 739q-19 0 -32.5 14t-13.5 32q0 19 13.5 32.5
t32.5 13.5t32.5 -13.5t13.5 -32.5q0 -18 -13.5 -32t-32.5 -14z" />
    <glyph glyph-name="uni1E57" unicode="&#x1e57;" 
d="M49 -211v455q0 59 19.5 107.5t54.5 83t83.5 53.5t107.5 19q58 0 107 -19.5t84.5 -54t55 -82.5t19.5 -104q0 -60 -20.5 -108.5t-55.5 -82t-81.5 -51.5t-98.5 -18q-72 0 -125.5 30.5t-80.5 84.5h-2v-313h-67zM314 49q44 0 80.5 15t62.5 41.5t40.5 62.5t14.5 79t-14.5 79
t-40.5 62.5t-62.5 41.5t-80.5 15q-45 0 -81.5 -15t-62.5 -41.5t-40 -62.5t-14 -79t14 -79t40 -62.5t62.5 -41.5t81.5 -15zM313 589q-19 0 -32.5 14t-13.5 32q0 19 13.5 32.5t32.5 13.5t32.5 -13.5t13.5 -32.5q0 -18 -13.5 -32t-32.5 -14z" />
    <glyph glyph-name="uni1E60" unicode="&#x1e60;" horiz-adv-x="548" 
d="M429 477q-3 57 -43.5 90t-111.5 33q-72 0 -113.5 -34.5t-41.5 -92.5q0 -35 17 -55t44.5 -31.5t62.5 -17.5t72 -12.5t72 -15.5t62.5 -28t44.5 -49.5t17 -78.5q0 -46 -17 -82.5t-48 -62.5t-75 -40t-98 -14q-53 0 -96.5 13.5t-75 39t-49 62t-18.5 82.5h71q2 -63 46 -97
t122 -34t123 35.5t45 95.5q0 35 -17 55.5t-44.5 32t-62.5 17.5t-72 12.5t-72 15.5t-62.5 27.5t-44.5 49t-17 78.5q0 43 16 79t45.5 62t71 40t92.5 14q49 0 90 -13.5t70 -38.5t45.5 -59.5t18.5 -77.5h-69zM275 739q-19 0 -32.5 14t-13.5 32q0 19 13.5 32.5t32.5 13.5
t32.5 -13.5t13.5 -32.5q0 -18 -13.5 -32t-32.5 -14z" />
    <glyph glyph-name="uni1E61" unicode="&#x1e61;" horiz-adv-x="468" 
d="M356 359q-2 37 -34 62t-88 25q-58 0 -90.5 -25t-32.5 -67q0 -32 24 -46t60 -20.5t78.5 -11t78.5 -17.5t60 -39.5t24 -76.5q0 -34 -14.5 -62.5t-40.5 -49.5t-63.5 -32.5t-83.5 -11.5t-82.5 11.5t-63 32t-41 48t-15.5 60.5h68q2 -40 36.5 -65.5t96.5 -25.5q66 0 100.5 26.5
t34.5 68.5q0 32 -24 46t-60 20.5t-78 11t-78 17t-60 39t-24 77.5q0 33 13 61.5t38 48.5t59.5 31.5t78.5 11.5q43 0 78 -11.5t59.5 -31t37.5 -47t14 -58.5h-66zM235 589q-19 0 -32.5 14t-13.5 32q0 19 13.5 32.5t32.5 13.5t32.5 -13.5t13.5 -32.5q0 -18 -13.5 -32t-32.5 -14z
" />
    <glyph glyph-name="uni1E6A" unicode="&#x1e6a;" horiz-adv-x="570" 
d="M249 0v588h-222v66h516v-66h-222v-588h-72zM285 739q-19 0 -32.5 14t-13.5 32q0 19 13.5 32.5t32.5 13.5t32.5 -13.5t13.5 -32.5q0 -18 -13.5 -32t-32.5 -14z" />
    <glyph glyph-name="uni1E6B" unicode="&#x1e6b;" horiz-adv-x="470" 
d="M435 182q0 -49 -14 -85.5t-39.5 -61t-60.5 -36.5t-78 -12t-79 12t-61.5 36.5t-39.5 61t-14 85.5v486h67v-174h291v-61h-291v-251q0 -68 34.5 -100.5t92.5 -32.5q57 0 92 32t35 101v11h65v-11zM82 747q-19 0 -32.5 14t-13.5 32q0 19 13.5 32.5t32.5 13.5t32.5 -13.5
t13.5 -32.5q0 -18 -13.5 -32t-32.5 -14z" />
    <glyph glyph-name="Wgrave" unicode="&#x1e80;" horiz-adv-x="929" 
d="M805 654h72v-434q0 -58 -17 -101.5t-46 -73t-69.5 -44t-86.5 -14.5q-68 0 -118 31t-74 90h-2q-24 -59 -73.5 -90t-118.5 -31q-47 0 -87 14.5t-69.5 44t-46.5 73t-17 101.5v434h72v-434q0 -83 43.5 -125t109.5 -42t109 43t43 124v434h72v-434q0 -81 43 -124t109 -43
q33 0 60.5 10.5t48 31.5t32 52t11.5 73v434zM457 720l-115 150h72l103 -150h-60z" />
    <glyph glyph-name="wgrave" unicode="&#x1e81;" horiz-adv-x="854" 
d="M460 494v-289q0 -78 40 -117t100 -39t99 38.5t39 117.5v289h67v-289q0 -55 -15 -96t-42 -68t-63.5 -40.5t-79.5 -13.5q-60 0 -106.5 27.5t-70.5 81.5h-2q-23 -54 -69.5 -81.5t-107.5 -27.5q-43 0 -79.5 13.5t-63.5 40.5t-42 68t-15 96v289h67v-289q0 -79 39 -117.5
t99 -38.5t99.5 39t39.5 117v289h67zM419 570l-115 150h72l103 -150h-60z" />
    <glyph glyph-name="Wacute" unicode="&#x1e82;" horiz-adv-x="929" 
d="M805 654h72v-434q0 -58 -17 -101.5t-46 -73t-69.5 -44t-86.5 -14.5q-68 0 -118 31t-74 90h-2q-24 -59 -73.5 -90t-118.5 -31q-47 0 -87 14.5t-69.5 44t-46.5 73t-17 101.5v434h72v-434q0 -83 43.5 -125t109.5 -42t109 43t43 124v434h72v-434q0 -81 43 -124t109 -43
q33 0 60.5 10.5t48 31.5t32 52t11.5 73v434zM411 720l103 150h72l-115 -150h-60z" />
    <glyph glyph-name="wacute" unicode="&#x1e83;" horiz-adv-x="854" 
d="M460 494v-289q0 -78 40 -117t100 -39t99 38.5t39 117.5v289h67v-289q0 -55 -15 -96t-42 -68t-63.5 -40.5t-79.5 -13.5q-60 0 -106.5 27.5t-70.5 81.5h-2q-23 -54 -69.5 -81.5t-107.5 -27.5q-43 0 -79.5 13.5t-63.5 40.5t-42 68t-15 96v289h67v-289q0 -79 39 -117.5
t99 -38.5t99.5 39t39.5 117v289h67zM374 570l103 150h72l-115 -150h-60z" />
    <glyph glyph-name="Wdieresis" unicode="&#x1e84;" horiz-adv-x="929" 
d="M805 654h72v-434q0 -58 -17 -101.5t-46 -73t-69.5 -44t-86.5 -14.5q-68 0 -118 31t-74 90h-2q-24 -59 -73.5 -90t-118.5 -31q-47 0 -87 14.5t-69.5 44t-46.5 73t-17 101.5v434h72v-434q0 -83 43.5 -125t109.5 -42t109 43t43 124v434h72v-434q0 -81 43 -124t109 -43
q33 0 60.5 10.5t48 31.5t32 52t11.5 73v434zM557 739q-19 0 -32.5 14t-13.5 32q0 19 13.5 32.5t32.5 13.5t32.5 -13.5t13.5 -32.5q0 -18 -13.5 -32t-32.5 -14zM371 739q-18 0 -32 14t-14 32q0 19 14 32.5t32 13.5q19 0 32.5 -13.5t13.5 -32.5q0 -18 -13.5 -32t-32.5 -14z
" />
    <glyph glyph-name="wdieresis" unicode="&#x1e85;" horiz-adv-x="854" 
d="M460 494v-289q0 -78 40 -117t100 -39t99 38.5t39 117.5v289h67v-289q0 -55 -15 -96t-42 -68t-63.5 -40.5t-79.5 -13.5q-60 0 -106.5 27.5t-70.5 81.5h-2q-23 -54 -69.5 -81.5t-107.5 -27.5q-43 0 -79.5 13.5t-63.5 40.5t-42 68t-15 96v289h67v-289q0 -79 39 -117.5
t99 -38.5t99.5 39t39.5 117v289h67zM520 589q-19 0 -32.5 14t-13.5 32q0 19 13.5 32.5t32.5 13.5t32.5 -13.5t13.5 -32.5q0 -18 -13.5 -32t-32.5 -14zM334 589q-18 0 -32 14t-14 32q0 19 14 32.5t32 13.5q19 0 32.5 -13.5t13.5 -32.5q0 -18 -13.5 -32t-32.5 -14z" />
    <glyph glyph-name="Ygrave" unicode="&#x1ef2;" horiz-adv-x="649" 
d="M289 0v287l-269 367h87l218 -306h2l217 306h85l-268 -366v-288h-72zM317 720l-115 150h72l103 -150h-60z" />
    <glyph glyph-name="ygrave" unicode="&#x1ef3;" horiz-adv-x="602" 
d="M470 494h67v-476q0 -65 -19 -110.5t-52.5 -75t-78.5 -43t-97 -13.5q-42 0 -80 10t-68.5 29.5t-53 49.5t-34.5 70h67q20 -51 63.5 -75.5t105.5 -24.5q40 0 73 10t57 32t37 56.5t13 82.5v79h-2q-26 -50 -73 -77.5t-112 -27.5q-50 0 -92.5 15t-74 46t-49.5 78t-18 110v255
h67v-255q0 -92 48 -139.5t129 -47.5q80 0 128.5 48t48.5 139v255zM293 570l-115 150h72l103 -150h-60z" />
    <glyph glyph-name="figuredash" unicode="&#x2012;" horiz-adv-x="522" 
d="M50 248v53h422v-53h-422z" />
    <glyph glyph-name="endash" unicode="&#x2013;" horiz-adv-x="500" 
d="M50 248v53h400v-53h-400z" />
    <glyph glyph-name="emdash" unicode="&#x2014;" horiz-adv-x="1000" 
d="M50 248v53h900v-53h-900z" />
    <glyph glyph-name="quoteleft" unicode="&#x2018;" horiz-adv-x="239" 
d="M128 654h40l-33 -114q15 -5 25 -18t10 -30q0 -20 -15 -35.5t-35 -15.5q-21 0 -36 15.5t-15 35.5q0 14 6 28z" />
    <glyph glyph-name="quoteright" unicode="&#x2019;" horiz-adv-x="239" 
d="M71 454l33 114q-15 5 -25 18t-10 30q0 21 15 36t36 15q20 0 35 -15t15 -36q0 -15 -6 -28l-53 -134h-40z" />
    <glyph glyph-name="quotesinglbase" unicode="&#x201a;" horiz-adv-x="239" 
d="M71 -124l33 114q-15 5 -25 18t-10 30q0 21 15 36t36 15q20 0 35 -15t15 -36q0 -15 -6 -28l-53 -134h-40z" />
    <glyph glyph-name="quotedblleft" unicode="&#x201c;" horiz-adv-x="392" 
d="M128 654h40l-33 -114q15 -5 25 -18t10 -30q0 -20 -15 -35.5t-35 -15.5q-21 0 -36 15.5t-15 35.5q0 14 6 28zM281 654h40l-33 -114q15 -5 25 -18t10 -30q0 -20 -15 -35.5t-35 -15.5q-21 0 -36 15.5t-15 35.5q0 14 6 28z" />
    <glyph glyph-name="quotedblright" unicode="&#x201d;" horiz-adv-x="392" 
d="M71 454l33 114q-15 5 -25 18t-10 30q0 21 15 36t36 15q20 0 35 -15t15 -36q0 -15 -6 -28l-53 -134h-40zM224 454l33 114q-15 5 -25 18t-10 30q0 21 15 36t36 15q20 0 35 -15t15 -36q0 -15 -6 -28l-53 -134h-40z" />
    <glyph glyph-name="quotedblbase" unicode="&#x201e;" horiz-adv-x="392" 
d="M71 -124l33 114q-15 5 -25 18t-10 30q0 21 15 36t36 15q20 0 35 -15t15 -36q0 -15 -6 -28l-53 -134h-40zM224 -124l33 114q-15 5 -25 18t-10 30q0 21 15 36t36 15q20 0 35 -15t15 -36q0 -15 -6 -28l-53 -134h-40z" />
    <glyph glyph-name="dagger" unicode="&#x2020;" horiz-adv-x="556" 
d="M265 -104l-24 310l20 206l-1 1l-206 -20v74l207 -20l1 1l-21 206h74l-21 -206l1 -1l207 20v-74l-206 20l-1 -1l20 -206l-24 -310h-26z" />
    <glyph glyph-name="daggerdbl" unicode="&#x2021;" horiz-adv-x="556" 
d="M241 -104l21 206l-1 1l-207 -20v74l206 -20l1 1l-20 137l20 137l-1 1l-206 -20v74l207 -20l1 1l-21 206h74l-21 -206l1 -1l207 20v-74l-206 20l-1 -1l20 -137l-20 -137l1 -1l206 20v-74l-207 20l-1 -1l21 -206h-74z" />
    <glyph glyph-name="bullet" unicode="&#x2022;" horiz-adv-x="396" 
d="M198 141q-27 0 -51 10.5t-41.5 28t-28 41.5t-10.5 51t10.5 51t28 41.5t41.5 28t51 10.5t51 -10.5t41.5 -28t28 -41.5t10.5 -51t-10.5 -51t-28 -41.5t-41.5 -28t-51 -10.5z" />
    <glyph glyph-name="ellipsis" unicode="&#x2026;" horiz-adv-x="1000" 
d="M197 -13q-21 0 -36 15t-15 36t15 36t36 15t36 -15t15 -36t-15 -36t-36 -15zM500 -13q-21 0 -36 15t-15 36t15 36t36 15t36 -15t15 -36t-15 -36t-36 -15zM803 -13q-21 0 -36 15t-15 36t15 36t36 15t36 -15t15 -36t-15 -36t-36 -15z" />
    <glyph glyph-name="perthousand" unicode="&#x2030;" horiz-adv-x="1034" 
d="M850 -13q-32 0 -60 12t-48.5 33t-32.5 48.5t-12 59.5q0 31 12 59t32.5 49t48.5 33t60 12q31 0 59 -12t48.5 -33t32.5 -49t12 -59q0 -32 -12 -59.5t-32.5 -48.5t-48.5 -33t-59 -12zM850 35q44 0 73.5 30.5t29.5 74.5q0 21 -8 40.5t-22 33.5t-32.5 22.5t-40.5 8.5t-41 -8.5
t-33 -22.5t-22 -33.5t-8 -40.5q0 -44 29.5 -74.5t74.5 -30.5zM100 0l426 654h56l-426 -654h-56zM184 361q-32 0 -59.5 12t-48 33t-32.5 49t-12 60q0 31 12 58.5t32.5 48.5t48 33t59.5 12t60 -12t48.5 -33t32.5 -48.5t12 -58.5q0 -32 -12 -60t-32.5 -49t-48.5 -33t-60 -12z
M184 409q45 0 74.5 31t29.5 75q0 21 -8 40t-22 33.5t-33 22.5t-41 8t-40.5 -8t-32.5 -22.5t-22 -33.5t-8 -40q0 -22 8 -41t22 -33.5t32.5 -23t40.5 -8.5zM500 -13q-32 0 -60 12t-48.5 33t-32.5 48.5t-12 59.5q0 31 12 59t32.5 49t48.5 33t60 12q31 0 59 -12t48.5 -33
t32.5 -49t12 -59q0 -32 -12 -59.5t-32.5 -48.5t-48.5 -33t-59 -12zM500 35q44 0 73.5 30.5t29.5 74.5q0 21 -8 40.5t-22 33.5t-32.5 22.5t-40.5 8.5t-41 -8.5t-33 -22.5t-22 -33.5t-8 -40.5q0 -44 29.5 -74.5t74.5 -30.5z" />
    <glyph glyph-name="guilsinglleft" unicode="&#x2039;" horiz-adv-x="357" 
d="M226 48l-170 199l170 199h74l-171 -199l171 -199h-74z" />
    <glyph glyph-name="guilsinglright" unicode="&#x203a;" horiz-adv-x="357" 
d="M57 48l171 199l-171 199h74l170 -199l-170 -199h-74z" />
    <glyph glyph-name="fraction" unicode="&#x2044;" horiz-adv-x="442" 
d="M-20 0l426 654h56l-426 -654h-56z" />
    <glyph glyph-name="uni2070" unicode="&#x2070;" horiz-adv-x="340" 
d="M316 380q0 -33 -10.5 -60t-30 -46t-46 -29.5t-58.5 -10.5q-33 0 -59.5 10.5t-46 29.5t-30 46t-10.5 60v136q0 33 10.5 60t30 46t46 29.5t59.5 10.5q32 0 58.5 -10.5t46 -29.5t30 -46t10.5 -60v-136zM263 516q0 45 -25 71t-67 26q-43 0 -68 -26t-25 -71v-136q0 -45 25 -71
t68 -26q42 0 67 26t25 71v136z" />
    <glyph glyph-name="uni2074" unicode="&#x2074;" horiz-adv-x="340" 
d="M225 242v92h-205v44l205 276h53v-273h46v-47h-46v-92h-53zM224 580l-145 -197v-2h147v199h-2z" />
    <glyph glyph-name="uni2075" unicode="&#x2075;" horiz-adv-x="340" 
d="M106 607l-16 -125h2q14 17 35 27t51 10q28 0 53 -10t43.5 -28t29 -43.5t10.5 -56.5v-5q0 -31 -10.5 -57t-30 -45t-46.5 -29.5t-59 -10.5q-59 0 -98.5 34t-46.5 88h54q6 -32 30 -52.5t61 -20.5q42 0 67.5 26t25.5 67v5q0 41 -25.5 67t-67.5 26q-29 0 -50.5 -12.5
t-33.5 -35.5l-47 13l28 215h215v-47h-174z" />
    <glyph glyph-name="uni2076" unicode="&#x2076;" horiz-adv-x="340" 
d="M318 379q0 -33 -10.5 -59.5t-30 -45.5t-46 -29.5t-58.5 -10.5q-66 0 -106 39.5t-40 105.5v3q0 29 8.5 55t29.5 58l105 159h59l-97 -142v-2q23 14 54 14q29 0 53.5 -11t42 -29.5t27 -44t9.5 -54.5v-6zM265 383q0 44 -25 70t-67 26t-67.5 -26.5t-25.5 -69.5v-4
q0 -44 25 -70t68 -26q42 0 67 26t25 70v4z" />
    <glyph glyph-name="uni2077" unicode="&#x2077;" horiz-adv-x="340" 
d="M111 242h-57l192 363v2h-208v47h267v-45z" />
    <glyph glyph-name="uni2078" unicode="&#x2078;" horiz-adv-x="340" 
d="M242 460q34 -12 53.5 -38t19.5 -65q0 -57 -40 -90t-105 -33t-105 33t-40 90q0 39 19 65t54 38v2q-58 25 -58 89q0 51 35.5 81t94.5 30t95 -30t36 -81q0 -33 -15.5 -55t-43.5 -34v-2zM166 439q-42 0 -65 -20.5t-23 -56.5q0 -35 23 -57.5t69 -22.5t69.5 22.5t23.5 57.5
q0 36 -23.5 56.5t-65.5 20.5h-8zM174 483q35 0 55 17t20 47q0 28 -20 47.5t-59 19.5t-59 -19.5t-20 -47.5q0 -30 20 -47t55 -17h8z" />
    <glyph glyph-name="uni2079" unicode="&#x2079;" horiz-adv-x="340" 
d="M111 242l97 142v2q-23 -14 -54 -14q-29 0 -53.5 10.5t-42 29.5t-27 44.5t-9.5 54.5v6q0 33 10.5 59.5t30 45.5t46 29.5t58.5 10.5q66 0 106 -39.5t40 -105.5v-3q0 -29 -8.5 -55t-29.5 -58l-105 -159h-59zM260 517q0 44 -25 70t-68 26q-42 0 -67 -26t-25 -70v-4
q0 -44 25 -70t67 -26t67.5 26.5t25.5 69.5v4z" />
    <glyph glyph-name="uni2080" unicode="&#x2080;" horiz-adv-x="340" 
d="M316 138q0 -33 -10.5 -60t-30 -46t-46 -29.5t-58.5 -10.5q-33 0 -59.5 10.5t-46 29.5t-30 46t-10.5 60v136q0 33 10.5 60t30 46t46 29.5t59.5 10.5q32 0 58.5 -10.5t46 -29.5t30 -46t10.5 -60v-136zM263 274q0 45 -25 71t-67 26q-43 0 -68 -26t-25 -71v-136q0 -45 25 -71
t68 -26q42 0 67 26t25 71v136z" />
    <glyph glyph-name="uni2081" unicode="&#x2081;" horiz-adv-x="340" 
d="M172 0v364h-93v48h146v-412h-53z" />
    <glyph glyph-name="uni2082" unicode="&#x2082;" horiz-adv-x="340" 
d="M40 0v45l155 144q26 23 41 46t15 51q0 38 -21 61.5t-59 23.5t-59 -24t-21 -65v-6h-51v6q0 63 34.5 100.5t97.5 37.5q60 0 95.5 -38t35.5 -96q0 -41 -19 -70t-52 -60l-116 -106v-2h182v-48h-258z" />
    <glyph glyph-name="uni2083" unicode="&#x2083;" horiz-adv-x="340" 
d="M119 195v45h49q37 0 56.5 17t19.5 49q0 27 -19.5 46.5t-56.5 19.5t-55.5 -19.5t-20.5 -47.5h-51q3 56 37.5 85.5t89.5 29.5q57 0 92.5 -30t35.5 -81q0 -65 -56 -90v-2q34 -11 52.5 -37t18.5 -65q0 -57 -40 -90t-103 -33q-62 0 -101.5 33t-40.5 93h52q0 -32 23 -54.5
t67 -22.5t67 22.5t23 55.5q0 36 -23 56t-68 20h-48z" />
    <glyph glyph-name="uni2084" unicode="&#x2084;" horiz-adv-x="340" 
d="M225 0v92h-205v44l205 276h53v-273h46v-47h-46v-92h-53zM224 338l-145 -197v-2h147v199h-2z" />
    <glyph glyph-name="uni2085" unicode="&#x2085;" horiz-adv-x="340" 
d="M106 365l-16 -125h2q14 17 35 27t51 10q28 0 53 -10t43.5 -28t29 -43.5t10.5 -56.5v-5q0 -31 -10.5 -57t-30 -45t-46.5 -29.5t-59 -10.5q-59 0 -98.5 34t-46.5 88h54q6 -32 30 -52.5t61 -20.5q42 0 67.5 26t25.5 67v5q0 41 -25.5 67t-67.5 26q-29 0 -50.5 -12.5
t-33.5 -35.5l-47 13l28 215h215v-47h-174z" />
    <glyph glyph-name="uni2086" unicode="&#x2086;" horiz-adv-x="340" 
d="M318 137q0 -33 -10.5 -59.5t-30 -45.5t-46 -29.5t-58.5 -10.5q-66 0 -106 39.5t-40 105.5v3q0 29 8.5 55t29.5 58l105 159h59l-97 -142v-2q23 14 54 14q29 0 53.5 -11t42 -29.5t27 -44t9.5 -54.5v-6zM265 141q0 44 -25 70t-67 26t-67.5 -26.5t-25.5 -69.5v-4
q0 -44 25 -70t68 -26q42 0 67 26t25 70v4z" />
    <glyph glyph-name="uni2087" unicode="&#x2087;" horiz-adv-x="340" 
d="M111 0h-57l192 363v2h-208v47h267v-45z" />
    <glyph glyph-name="uni2088" unicode="&#x2088;" horiz-adv-x="340" 
d="M242 218q34 -12 53.5 -38t19.5 -65q0 -57 -40 -90t-105 -33t-105 33t-40 90q0 39 19 65t54 38v2q-58 25 -58 89q0 51 35.5 81t94.5 30t95 -30t36 -81q0 -33 -15.5 -55t-43.5 -34v-2zM166 197q-42 0 -65 -20.5t-23 -56.5q0 -35 23 -57.5t69 -22.5t69.5 22.5t23.5 57.5
q0 36 -23.5 56.5t-65.5 20.5h-8zM174 241q35 0 55 17t20 47q0 28 -20 47.5t-59 19.5t-59 -19.5t-20 -47.5q0 -30 20 -47t55 -17h8z" />
    <glyph glyph-name="uni2089" unicode="&#x2089;" horiz-adv-x="340" 
d="M111 0l97 142v2q-23 -14 -54 -14q-29 0 -53.5 10.5t-42 29.5t-27 44.5t-9.5 54.5v6q0 33 10.5 59.5t30 45.5t46 29.5t58.5 10.5q66 0 106 -39.5t40 -105.5v-3q0 -29 -8.5 -55t-29.5 -58l-105 -159h-59zM260 275q0 44 -25 70t-68 26q-42 0 -67 -26t-25 -70v-4
q0 -44 25 -70t67 -26t67.5 26.5t25.5 69.5v4z" />
    <glyph glyph-name="Euro" unicode="&#x20ac;" horiz-adv-x="522" 
d="M110 437h266l-19 -60h-247v-94h221l-19 -60h-202v-15q0 -36 11.5 -65.5t32 -50t49 -32t63.5 -11.5q60 0 100 31.5t51 84.5h67q-6 -39 -24.5 -72t-47 -56.5t-66 -36.5t-81.5 -13q-49 0 -89.5 16t-70 44.5t-45.5 69t-16 90.5v240q0 49 16 90t45.5 69.5t70 44.5t89.5 16
q44 0 81.5 -13t66 -36.5t47 -56.5t24.5 -72h-67q-11 53 -51 84.5t-100 31.5q-35 0 -63.5 -11.5t-49 -32t-32 -50t-11.5 -65.5v-9z" />
    <glyph glyph-name="uni20B9" unicode="&#x20b9;" horiz-adv-x="522" 
d="M67 476h285v2q-8 54 -46.5 85t-106.5 31h-155l23 60h133q99 0 156 -48.5t65 -129.5h87l-24 -59h-64q-10 -78 -66.5 -124.5t-153.5 -46.5h-45v-2l303 -244h-95l-309 258l16 41h129q67 0 106 31.5t47 84.5v2h-309z" />
    <glyph glyph-name="uni2117" unicode="&#x2117;" horiz-adv-x="764" 
d="M730 327q0 -74 -25.5 -136t-72 -107.5t-110.5 -71t-140 -25.5q-77 0 -140.5 25.5t-110 71t-72 107.5t-25.5 136q0 73 25.5 135.5t72 108t110 71t140.5 25.5q76 0 140 -25.5t110.5 -71t72 -108t25.5 -135.5zM683 327q0 64 -22 118.5t-62 94t-95 61.5t-122 22t-122.5 -22
t-95 -61.5t-61.5 -94t-22 -118.5t22 -118.5t61.5 -94t95 -61.5t122.5 -22t122.5 22t95 61.5t61.5 94t22 118.5zM267 150v333h162q57 0 88.5 -30t31.5 -80q0 -49 -31.5 -80.5t-88.5 -31.5h-115v-111h-47zM427 304q37 0 55.5 18.5t18.5 49.5t-18.5 50t-55.5 19h-113v-137h113z
" />
    <glyph glyph-name="trademark" unicode="&#x2122;" horiz-adv-x="896" 
d="M783 282v311h-2l-147 -311h-44l-146 311h-2v-311h-44v372h68l145 -309h2l146 309h70v-372h-46zM155 282v330h-128v42h303v-42h-129v-330h-46z" />
    <glyph glyph-name="uni2126" unicode="&#x2126;" horiz-adv-x="596" 
d="M36 0v60h148v2q-78 75 -113.5 153.5t-35.5 178.5q0 63 19.5 113.5t54.5 86t83 54.5t106 19t106 -19t83 -54.5t54.5 -86t19.5 -113.5q0 -100 -35.5 -178.5t-113.5 -153.5v-2h148v-60h-217v51q39 40 67.5 79t47 80.5t27.5 86.5t9 96q0 49 -14.5 88.5t-40.5 67t-62 42
t-79 14.5t-79 -14.5t-62 -42t-40.5 -67t-14.5 -88.5q0 -51 9 -96t27.5 -86.5t47 -80.5t67.5 -79v-51h-217z" />
    <glyph glyph-name="onethird" unicode="&#x2153;" horiz-adv-x="824" 
d="M171 0l426 654h56l-426 -654h-56zM172 242v364h-93v48h146v-412h-53zM603 195v45h49q37 0 56.5 17t19.5 49q0 27 -19.5 46.5t-56.5 19.5t-55.5 -19.5t-20.5 -47.5h-51q3 56 37.5 85.5t89.5 29.5q57 0 92.5 -30t35.5 -81q0 -65 -56 -90v-2q34 -11 52.5 -37t18.5 -65
q0 -57 -40 -90t-103 -33q-62 0 -101.5 33t-40.5 93h52q0 -32 23 -54.5t67 -22.5t67 22.5t23 55.5q0 36 -23 56t-68 20h-48z" />
    <glyph glyph-name="twothirds" unicode="&#x2154;" horiz-adv-x="824" 
d="M171 0l426 654h56l-426 -654h-56zM40 242v45l155 144q26 23 41 46t15 51q0 38 -21 61.5t-59 23.5t-59 -24t-21 -65v-6h-51v6q0 63 34.5 100.5t97.5 37.5q60 0 95.5 -38t35.5 -96q0 -41 -19 -70t-52 -60l-116 -106v-2h182v-48h-258zM603 195v45h49q37 0 56.5 17t19.5 49
q0 27 -19.5 46.5t-56.5 19.5t-55.5 -19.5t-20.5 -47.5h-51q3 56 37.5 85.5t89.5 29.5q57 0 92.5 -30t35.5 -81q0 -65 -56 -90v-2q34 -11 52.5 -37t18.5 -65q0 -57 -40 -90t-103 -33q-62 0 -101.5 33t-40.5 93h52q0 -32 23 -54.5t67 -22.5t67 22.5t23 55.5q0 36 -23 56
t-68 20h-48z" />
    <glyph glyph-name="oneeighth" unicode="&#x215b;" horiz-adv-x="824" 
d="M171 0l426 654h56l-426 -654h-56zM172 242v364h-93v48h146v-412h-53zM726 218q34 -12 53.5 -38t19.5 -65q0 -57 -40 -90t-105 -33t-105 33t-40 90q0 39 19 65t54 38v2q-58 25 -58 89q0 51 35.5 81t94.5 30t95 -30t36 -81q0 -33 -15.5 -55t-43.5 -34v-2zM650 197
q-42 0 -65 -20.5t-23 -56.5q0 -35 23 -57.5t69 -22.5t69.5 22.5t23.5 57.5q0 36 -23.5 56.5t-65.5 20.5h-8zM658 241q35 0 55 17t20 47q0 28 -20 47.5t-59 19.5t-59 -19.5t-20 -47.5q0 -30 20 -47t55 -17h8z" />
    <glyph glyph-name="threeeighths" unicode="&#x215c;" horiz-adv-x="824" 
d="M171 0l426 654h56l-426 -654h-56zM726 218q34 -12 53.5 -38t19.5 -65q0 -57 -40 -90t-105 -33t-105 33t-40 90q0 39 19 65t54 38v2q-58 25 -58 89q0 51 35.5 81t94.5 30t95 -30t36 -81q0 -33 -15.5 -55t-43.5 -34v-2zM650 197q-42 0 -65 -20.5t-23 -56.5q0 -35 23 -57.5
t69 -22.5t69.5 22.5t23.5 57.5q0 36 -23.5 56.5t-65.5 20.5h-8zM658 241q35 0 55 17t20 47q0 28 -20 47.5t-59 19.5t-59 -19.5t-20 -47.5q0 -30 20 -47t55 -17h8zM119 437v45h49q37 0 56.5 17t19.5 49q0 27 -19.5 46.5t-56.5 19.5t-55.5 -19.5t-20.5 -47.5h-51
q3 56 37.5 85.5t89.5 29.5q57 0 92.5 -30t35.5 -81q0 -65 -56 -90v-2q34 -11 52.5 -37t18.5 -65q0 -57 -40 -90t-103 -33q-62 0 -101.5 33t-40.5 93h52q0 -32 23 -54.5t67 -22.5t67 22.5t23 55.5q0 36 -23 56t-68 20h-48z" />
    <glyph glyph-name="fiveeighths" unicode="&#x215d;" horiz-adv-x="824" 
d="M171 0l426 654h56l-426 -654h-56zM106 607l-16 -125h2q14 17 35 27t51 10q28 0 53 -10t43.5 -28t29 -43.5t10.5 -56.5v-5q0 -31 -10.5 -57t-30 -45t-46.5 -29.5t-59 -10.5q-59 0 -98.5 34t-46.5 88h54q6 -32 30 -52.5t61 -20.5q42 0 67.5 26t25.5 67v5q0 41 -25.5 67
t-67.5 26q-29 0 -50.5 -12.5t-33.5 -35.5l-47 13l28 215h215v-47h-174zM726 218q34 -12 53.5 -38t19.5 -65q0 -57 -40 -90t-105 -33t-105 33t-40 90q0 39 19 65t54 38v2q-58 25 -58 89q0 51 35.5 81t94.5 30t95 -30t36 -81q0 -33 -15.5 -55t-43.5 -34v-2zM650 197
q-42 0 -65 -20.5t-23 -56.5q0 -35 23 -57.5t69 -22.5t69.5 22.5t23.5 57.5q0 36 -23.5 56.5t-65.5 20.5h-8zM658 241q35 0 55 17t20 47q0 28 -20 47.5t-59 19.5t-59 -19.5t-20 -47.5q0 -30 20 -47t55 -17h8z" />
    <glyph glyph-name="seveneighths" unicode="&#x215e;" horiz-adv-x="824" 
d="M124 0l426 654h56l-426 -654h-56zM726 218q34 -12 53.5 -38t19.5 -65q0 -57 -40 -90t-105 -33t-105 33t-40 90q0 39 19 65t54 38v2q-58 25 -58 89q0 51 35.5 81t94.5 30t95 -30t36 -81q0 -33 -15.5 -55t-43.5 -34v-2zM650 197q-42 0 -65 -20.5t-23 -56.5q0 -35 23 -57.5
t69 -22.5t69.5 22.5t23.5 57.5q0 36 -23.5 56.5t-65.5 20.5h-8zM658 241q35 0 55 17t20 47q0 28 -20 47.5t-59 19.5t-59 -19.5t-20 -47.5q0 -30 20 -47t55 -17h8zM111 242h-57l192 363v2h-208v47h267v-45z" />
    <glyph glyph-name="partialdiff" unicode="&#x2202;" horiz-adv-x="522" 
d="M409 209q0 36 -11.5 64.5t-31.5 49t-48 31.5t-61 11q-68 0 -110.5 -42t-42.5 -115v-2q0 -73 42.5 -115t110.5 -42q67 0 109.5 42.5t42.5 115.5v2zM475 208q0 -51 -16 -92t-44.5 -69.5t-69 -44t-88.5 -15.5q-49 0 -89 15t-69 43.5t-45 69.5t-16 92t15.5 91t43 68.5
t65.5 43.5t83 15q53 0 95 -22t67 -63h2v79q0 90 -43.5 137.5t-131.5 47.5q-35 0 -68 -9t-67 -32v65q35 23 71.5 31t66.5 8q118 0 178 -62t60 -183v-214z" />
    <glyph glyph-name="uni2206" unicode="&#x2206;" horiz-adv-x="596" 
d="M33 0v57l238 597h54l238 -597v-57h-530zM496 60v2l-197 500h-2l-197 -500v-2h396z" />
    <glyph glyph-name="product" unicode="&#x220f;" horiz-adv-x="666" 
d="M548 -131v725h-430v-725h-67v785h564v-785h-67z" />
    <glyph glyph-name="summation" unicode="&#x2211;" horiz-adv-x="666" 
d="M44 -131v56l301 336l-301 337v56h578v-60h-491v-2l299 -331l-300 -331v-2h492v-59h-578z" />
    <glyph glyph-name="minus" unicode="&#x2212;" horiz-adv-x="562" 
d="M50 233v58h462v-58h-462z" />
    <glyph glyph-name="radical" unicode="&#x221a;" horiz-adv-x="562" 
d="M202 -109l-152 419h60l121 -340h2l257 793h62l-288 -872h-62z" />
    <glyph glyph-name="integral" unicode="&#x222b;" horiz-adv-x="402" 
d="M92 -109v47h17q51 0 78.5 31t27.5 90q0 62 -14 130t-30.5 137t-30.5 137.5t-14 131.5q0 78 38.5 123t116.5 45h29v-47h-17q-51 0 -78.5 -31t-27.5 -90q0 -62 14 -129t30.5 -135.5t30.5 -137t14 -131.5q0 -80 -38 -125.5t-117 -45.5h-29z" />
    <glyph glyph-name="approxequal" unicode="&#x2248;" horiz-adv-x="562" 
d="M519 458q-3 -82 -38.5 -124t-92.5 -42q-38 0 -65.5 17t-50.5 37t-45 37t-49 17q-33 0 -55 -25t-25 -80h-55q3 83 38.5 124.5t92.5 41.5q38 0 65.5 -17t50.5 -37t45 -37t49 -17q33 0 55 25t25 80h55zM519 228q-3 -82 -38.5 -124t-92.5 -42q-38 0 -65.5 17t-50.5 37t-45 37
t-49 17q-33 0 -55 -25t-25 -80h-55q3 83 38.5 124.5t92.5 41.5q38 0 65.5 -17t50.5 -37t45 -37t49 -17q33 0 55 25t25 80h55z" />
    <glyph glyph-name="notequal" unicode="&#x2260;" horiz-adv-x="562" 
d="M206 120l-89 -110h-65l88 108v2h-90v57h129l138 168v2h-267v57h305l90 110h65l-88 -108v-2h90v-57h-130l-137 -168v-2h267v-57h-306z" />
    <glyph glyph-name="lessequal" unicode="&#x2264;" horiz-adv-x="562" 
d="M117 296v-2l395 -154v-64l-462 192v54l462 192v-63zM50 10v57h462v-57h-462z" />
    <glyph glyph-name="greaterequal" unicode="&#x2265;" horiz-adv-x="562" 
d="M50 10v57h462v-57h-462zM50 451v63l462 -192v-54l-462 -192v64l395 154v2z" />
    <glyph glyph-name="lozenge" unicode="&#x25ca;" horiz-adv-x="616" 
d="M280 0l-241 327l241 327h55l242 -327l-242 -327h-55zM505 327l-196 269h-2l-196 -269l196 -269h2z" />
    <glyph glyph-name="uniF8FF" unicode="&#xf8ff;" horiz-adv-x="4638" 
d="M1879 368h-2l-80 -368h-111l130 599h133l1 -314h2l139 314h135l-130 -599h-111l80 368h-2l-112 -243h-74zM383 112q-13 -58 -43 -85t-77 -27h-215l130 599h207q39 0 62 -18.5t23 -56.5q0 -7 -1 -15t-3 -16zM1076 0l25 118h-94l-25 -118h-111l106 493q11 53 44 79.5
t79 26.5h112q39 0 62.5 -19t23.5 -56q0 -15 -4 -31l-108 -493h-110zM1641 224q-7 -31 -23.5 -53.5t-36.5 -33.5l27 -137h-108l-23 118h-54l-26 -118h-111l130 599h202q38 0 61.5 -19t23.5 -56q0 -15 -4 -31zM3800 225q-11 -53 -43.5 -80t-78.5 -27h-105l-26 -118h-111
l130 599h210q38 0 61.5 -19t23.5 -56q0 -15 -4 -31zM771 0h-111l26 118h-92l-26 -118h-111l130 599h111l-84 -387h92l84 387h111zM3284 599l-80 -367q-5 -20 13 -20h55q20 0 24 20l79 367h112l-81 -374q-11 -52 -42 -78.5t-75 -28.5l-59 -118h-115l60 118q-39 0 -63 19.5
t-24 57.5q0 14 4 30l81 374h111zM4096 180h-123l-19 -86h158l-20 -94h-269l130 599h268l-21 -94h-156l-51 -231h123zM2899 0h-111l109 505h-91l21 94h292l-21 -94h-90zM248 94q21 0 25 19l81 373q5 19 -13 19h-72l-90 -411h69zM3745 486q5 19 -13 19h-75l-64 -293h72
q19 0 25 20zM1112 505q-21 0 -25 -19l-59 -274h94l59 274q6 19 -13 19h-56zM1587 486q5 19 -14 19h-67l-63 -293h64q21 0 25 20zM4589 366h-34v178h-1l-39 -122h-23l-40 122h-1v-178h-33v207h52l33 -105h1l33 105h52v-207zM4386 543h-49v-177h-34v177h-49v30h132v-30z
M2393 0l25 118h-94l-25 -118h-111l106 493q11 53 44 79.5t79 26.5h112q39 0 62.5 -19t23.5 -56q0 -15 -4 -31l-108 -493h-110zM2429 505q-21 0 -25 -19l-59 -274h94l59 274q5 19 -13 19h-56z" />
    <glyph glyph-name="glyph420" horiz-adv-x="320" 
d="M119 -222l27 73q-14 4 -22.5 15.5t-8.5 26.5q0 19 13 32.5t32 13.5t32 -13.5t13 -32.5q0 -5 -1 -11t-6 -14l-43 -90h-36z" />
    <glyph glyph-name="i.aalt" horiz-adv-x="202" 
d="M101 577q-21 0 -36 15.5t-15 35.5q0 21 15 36t36 15t36 -15t15 -36q0 -20 -15 -35.5t-36 -15.5zM68 0v494h67v-494h-67z" />
    </font>
</defs>
</svg>
