<?xml version="1.0" standalone="no"?>
<!DOCTYPE svg PUBLIC "-//W3C//DTD SVG 1.1//EN" "http://www.w3.org/Graphics/SVG/1.1/DTD/svg11.dtd" >
<svg xmlns="http://www.w3.org/2000/svg" xmlns:xlink="http://www.w3.org/1999/xlink" version="1.1">
<metadata>
Created by FontForge 20200427 at Wed Apr 23 21:57:35 2003
 By www
Copyright (c) The Font Bureau, Inc, 2003. All rights reserved.
</metadata>
<defs>
<font id="Amplitude-Regular" horiz-adv-x="500" >
  <font-face 
    font-family="Amplitude-Regular"
    font-weight="500"
    font-stretch="normal"
    units-per-em="1000"
    panose-1="2 0 6 6 4 0 0 2 0 4"
    ascent="800"
    descent="-200"
    x-height="524"
    cap-height="651"
    bbox="-51 -240 1163 888"
    underline-thickness="20"
    underline-position="-133"
    unicode-range="U+0020-00FB"
  />
<missing-glyph 
 />
    <glyph glyph-name=".notdef" 
 />
    <glyph glyph-name="NUL" horiz-adv-x="0" 
 />
    <glyph glyph-name="nonmarkingreturn" horiz-adv-x="229" 
 />
    <glyph glyph-name="space" unicode=" " horiz-adv-x="229" 
 />
    <glyph glyph-name="space" unicode="&#xa0;" horiz-adv-x="229" 
 />
    <glyph glyph-name="exclam" unicode="!" horiz-adv-x="265" 
d="M81 444v248h104v-248l-30 -248h-44zM132 -11q-28 0 -48.5 19t-20.5 51q0 31 20.5 50.5t48.5 19.5q29 0 49.5 -19.5t20.5 -50.5q0 -32 -20.5 -51t-49.5 -19z" />
    <glyph glyph-name="quotedbl" unicode="&#x22;" horiz-adv-x="391" 
d="M231 567v125h100v-125l-32 -161h-36zM60 567v125h100v-125l-31 -161h-37z" />
    <glyph glyph-name="numbersign" unicode="#" horiz-adv-x="585" 
d="M138 167h-100l12 80h100l27 173h-99l12 80h99l24 151h64l-24 -151h131l24 151h64l-24 -151h99l-12 -80h-100l-26 -173h98l-12 -80h-99l-25 -167h-64l26 167h-132l-25 -167h-64zM347 244l27 179h-136l-27 -179h136z" />
    <glyph glyph-name="dollar" unicode="$" horiz-adv-x="496" 
d="M331 657q29 -5 52 -12t43 -15l-13 -74q-25 8 -47 14.5t-48 9.5l-36 -214q40 -11 71.5 -24.5t53 -34t33 -51.5t11.5 -76q0 -203 -232 -194l-23 -139l-58 11l22 134q-38 6 -66.5 16t-52.5 24l21 67q29 -12 55 -21.5t55 -14.5l39 231q-39 11 -69.5 24t-51.5 33.5t-32 51
t-11 76.5q0 90 52 137t150 47h23l19 114l58 -11l-18 -109v0zM252 585q-65 0 -92 -22t-27 -77q0 -22 3.5 -37.5t14 -27.5t28.5 -21t46 -18l2 9t4 23t5 32.5t6 37.5q7 45 17 101h-7zM231 58q33 0 57.5 5.5t41 18.5t24.5 34t8 54q0 22 -4 38t-14.5 28.5t-29 22.5t-47.5 19
l-36 -220v0z" />
    <glyph glyph-name="percent" unicode="%" horiz-adv-x="834" 
d="M193 250q-40 0 -69.5 17t-49 45.5t-28.5 66t-9 79.5q0 40 9.5 77t29 65.5t49.5 45.5t70 17q41 0 70.5 -17t48.5 -45t28.5 -64.5t9.5 -76.5q0 -42 -9.5 -80t-29.5 -67t-49.5 -46t-70.5 -17zM567 651h69l-369 -651h-68zM638 -14q-40 0 -69.5 17t-48.5 45.5t-28.5 66
t-9.5 79.5q0 40 9.5 77t29 65.5t49.5 45.5t70 17q41 0 70.5 -17t49 -45t28.5 -64.5t9 -76.5q0 -42 -9.5 -80t-29 -67t-49.5 -46t-71 -17zM194 309q33 0 53 26t20 98v46q0 35 -5 58.5t-15 37.5t-23 19.5t-30 5.5t-30.5 -6t-23.5 -20t-15 -37.5t-5 -58.5v-46q0 -36 5 -60
t15 -38t23.5 -19.5t30.5 -5.5zM639 45q34 0 54 26t20 98v46q0 35 -5 58.5t-15 37.5t-23.5 19.5t-30.5 5.5q-16 0 -29.5 -6t-23.5 -20t-15 -37.5t-5 -58.5v-46q0 -36 5 -60t15 -38t23.5 -19.5t29.5 -5.5z" />
    <glyph glyph-name="ampersand" unicode="&#x26;" horiz-adv-x="602" 
d="M425 193q28 71 41 178h80l-12 -70q-8 -48 -22.5 -94.5t-34.5 -81.5l94 -125h-112l-57 76l-27 -51q-14 -11 -44.5 -25t-84.5 -14q-46 0 -84.5 12.5t-66.5 37t-43 60t-15 81.5q0 43 12 74.5t32 54.5t45 40t51 30l-2 2q-38 51 -51.5 90.5t-13.5 81.5q0 36 13 64.5t35 48
t52.5 29.5t64.5 10q30 0 58.5 -9t50 -27.5t35 -46t13.5 -64.5q0 -49 -14 -77.5t-33 -51.5l-100 -48zM264 405q40 22 63.5 52t23.5 85q0 49 -20.5 67t-52.5 18t-54 -17.5t-22 -59.5q0 -18 2 -33t7.5 -29.5t15.5 -30.5t25 -36l12 -16v0zM211 331q-38 -25 -56 -56.5t-18 -82.5
v-13q0 -65 30.5 -93.5t87.5 -28.5q73 0 122 53z" />
    <glyph glyph-name="quoteright" unicode="'" horiz-adv-x="243" 
d="M62 449l43 129l-33 7q-7 7 -13.5 18t-6.5 29q0 32 20 51t49 19t49.5 -19t20.5 -50q0 -26 -10.5 -49t-25.5 -46l-65 -102z" />
    <glyph glyph-name="parenleft" unicode="(" horiz-adv-x="311" 
d="M217 -100q-21 20 -49 56.5t-53.5 88.5t-43 120t-17.5 151q0 80 17.5 145.5t42 116t52.5 86t49 54.5h76q-33 -43 -58.5 -86t-43.5 -89.5t-27.5 -99t-9.5 -114.5v-26q0 -62 9 -114.5t27 -100.5t44.5 -93.5t60.5 -94.5h-76v0z" />
    <glyph glyph-name="parenright" unicode=")" horiz-adv-x="311" 
d="M18 -100q34 49 60 94.5t44 93.5t27 100.5t9 114.5v26q0 62 -9.5 114.5t-27 99t-43 89.5t-58.5 86h76q21 -19 49 -54.5t52.5 -86t42 -116t17.5 -145.5q0 -83 -17.5 -151t-43 -120t-53.5 -88.5t-49 -56.5h-76v0z" />
    <glyph glyph-name="asterisk" unicode="*" horiz-adv-x="423" 
d="M82 408l34 48l75 60l-96 6l-56 17l22 72l57 -18l81 -53l-25 94v58h75v-58l-25 -94l81 53l56 18l23 -72l-56 -17l-96 -6l74 -60l35 -48l-60 -44l-35 47l-35 90l-34 -90l-35 -47z" />
    <glyph glyph-name="plus" unicode="+" horiz-adv-x="497" 
d="M208 266h-154v77h154v167h81v-167h153v-77h-153v-167h-81v167z" />
    <glyph glyph-name="comma" unicode="," horiz-adv-x="252" 
d="M65 -124l45 130l-38 9q-7 7 -13 18.5t-6 28.5q0 34 21.5 54t51.5 20q31 0 52.5 -20.5t21.5 -52.5q0 -28 -13.5 -53.5t-28.5 -49.5l-63 -98z" />
    <glyph glyph-name="hyphen" unicode="-" horiz-adv-x="314" 
d="M53 341h208v-87h-208v87z" />
    <glyph glyph-name="period" unicode="." horiz-adv-x="251" 
d="M126 -11q-30 0 -52 20.5t-22 52.5q0 33 22 53.5t52 20.5t51.5 -20.5t21.5 -53.5q0 -32 -21.5 -52.5t-51.5 -20.5z" />
    <glyph glyph-name="slash" unicode="/" horiz-adv-x="406" 
d="M312 718h78l-300 -818h-78z" />
    <glyph glyph-name="zero" unicode="0" horiz-adv-x="571" 
d="M284 -14q-61 0 -105.5 24.5t-73.5 69.5t-43 108t-14 139q0 74 14.5 135.5t44 106t74 69.5t105.5 25t105.5 -24.5t74 -68.5t43.5 -105.5t14 -135.5q0 -79 -14.5 -143t-43.5 -108t-74 -68t-107 -24zM286 59q35 0 60.5 13t42 43.5t24.5 80t8 121.5v34q0 64 -7.5 109t-24 73
t-42.5 40.5t-62 12.5q-72 0 -103.5 -55t-31.5 -184v-33q0 -72 8 -121t24.5 -78.5t42.5 -42.5t61 -13z" />
    <glyph glyph-name="one" unicode="1" horiz-adv-x="388" 
d="M58 66h95v468h-95v43l140 74h52v-585h91v-66h-283v66z" />
    <glyph glyph-name="two" unicode="2" horiz-adv-x="475" 
d="M41 75l6 22q9 35 26.5 64t39.5 54t47 47.5t50 44.5q27 24 47.5 43t35 37t21.5 37t7 43v12q0 31 -6.5 51t-19.5 32t-32.5 16.5t-45.5 4.5q-44 0 -76.5 -10.5t-69.5 -26.5l-17 70q28 16 70 31.5t109 15.5q51 0 87.5 -14t59.5 -38t34 -57t11 -72q0 -41 -13 -73.5
t-35.5 -59.5t-52.5 -51.5t-63 -50.5q-24 -19 -45.5 -36.5t-38.5 -37t-29 -42t-19 -51.5l-3 -15l113 13h179v-78h-377v75z" />
    <glyph glyph-name="three" unicode="3" horiz-adv-x="484" 
d="M221 -14q-69 0 -115 14.5t-73 31.5l17 66l37.5 -15t35 -11.5t36.5 -7t43 -2.5q69 0 101.5 26.5t32.5 88.5v12q0 65 -35 91t-112 26h-53v69h41q81 0 113 24t32 80v8q0 57 -28.5 77.5t-93.5 20.5q-21 0 -38 -2t-32.5 -5.5t-32 -8.5t-36.5 -11l-11 70q26 12 66.5 23.5
t98.5 11.5q54 0 93 -13t64.5 -35.5t37.5 -53.5t12 -67q0 -67 -34.5 -100t-100.5 -49q72 -14 112.5 -54.5t40.5 -117.5q0 -42 -15 -76.5t-43.5 -59t-69 -38t-91.5 -13.5z" />
    <glyph glyph-name="four" unicode="4" horiz-adv-x="562" 
d="M332 158h-297v49l268 444h126v-420h84v-73h-84v-158h-97v158zM333 231v221l8 155l-60 -132l-147 -244h199z" />
    <glyph glyph-name="five" unicode="5" horiz-adv-x="477" 
d="M218 -14q-71 0 -115.5 15.5t-71.5 33.5l18 69q21 -9 38.5 -17t34.5 -13t35.5 -8t40.5 -3q65 0 98.5 29.5t33.5 102.5v13q0 39 -6.5 65t-19.5 41t-31.5 21t-41.5 6q-41 0 -61.5 -13t-34.5 -33l-73 11l15 345h324v-79h-249l-6 -132l-16 -88q21 22 50 38t77 16q36 0 68 -12
t56.5 -37t38.5 -63.5t14 -92.5q0 -47 -15.5 -86.5t-44 -68t-68 -44.5t-88.5 -16z" />
    <glyph glyph-name="six" unicode="6" horiz-adv-x="542" 
d="M236 406q13 5 28.5 8.5t36.5 3.5q90 0 143.5 -53.5t53.5 -154.5q0 -106 -58.5 -165t-164.5 -59q-51 0 -92.5 17.5t-71 51t-46 83.5t-16.5 116q0 72 23 132.5t59.5 109.5t81 88t87.5 67h132q-47 -29 -91.5 -63t-81.5 -72t-63.5 -79.5t-38.5 -85.5zM150 308q-1 -4 -1 -8v-9
v-42q0 -102 31 -147t97 -45q62 0 91 31.5t29 106.5v23q0 74 -30.5 102t-92.5 28q-39 0 -67.5 -11.5t-56.5 -28.5z" />
    <glyph glyph-name="seven" unicode="7" horiz-adv-x="472" 
d="M307 501l55 78l-95 -7h-237v79h402v-93l-239 -558h-102z" />
    <glyph glyph-name="eight" unicode="8" horiz-adv-x="535" 
d="M185 329q-49 26 -81.5 65.5t-32.5 101.5q0 35 13 65.5t38.5 53t62.5 35.5t84 13q50 0 86.5 -13t60 -35t35 -50.5t11.5 -60.5q0 -34 -8.5 -59t-26.5 -48l-89 -44q31 -12 59 -27.5t49.5 -36.5t34 -49.5t12.5 -68.5q0 -41 -15 -75t-44 -58.5t-71 -38t-96 -13.5q-57 0 -99 13
t-70 37t-42 57t-14 73q0 43 15.5 72.5t38.5 51.5l89 39v0zM298 372q23 14 38 27.5t23.5 28t11.5 31t3 36.5v6q0 41 -23 65t-82 24q-57 0 -78.5 -25t-21.5 -63v-6q0 -23 7 -40.5t22.5 -31.5t40 -26t59.5 -26zM224 307q-48 -27 -68 -57t-20 -72v-14q0 -109 130 -109
q63 0 94 28.5t31 79.5v15q0 23 -9 39t-29 30t-52 27.5t-77 32.5z" />
    <glyph glyph-name="nine" unicode="9" horiz-adv-x="541" 
d="M304 241q-12 -5 -27.5 -8.5t-36.5 -3.5q-90 0 -143.5 54.5t-53.5 155.5q0 51 15 92.5t44 70.5t70.5 45t93.5 16q50 0 91.5 -16.5t71.5 -50t46.5 -83.5t16.5 -118q0 -72 -23.5 -132t-60 -109t-81 -87t-86.5 -67h-133q48 30 92.5 63.5t81 70.5t63 77t38.5 83zM391 333
q1 6 1 12v13v42q0 103 -30.5 145t-97.5 42q-62 0 -91 -30t-29 -105v-23q0 -74 30 -104.5t93 -30.5q38 0 66.5 11.5t57.5 27.5z" />
    <glyph glyph-name="colon" unicode=":" horiz-adv-x="259" 
d="M129 291q-29 0 -51 20.5t-22 52.5q0 33 22 53.5t51 20.5q31 0 52.5 -20.5t21.5 -53.5q0 -32 -21.5 -52.5t-52.5 -20.5zM129 -11q-29 0 -51 20.5t-22 52.5q0 33 22 53.5t51 20.5q31 0 52.5 -20.5t21.5 -53.5q0 -32 -21.5 -52.5t-52.5 -20.5z" />
    <glyph glyph-name="semicolon" unicode=";" horiz-adv-x="259" 
d="M129 291q-29 0 -51 20.5t-22 52.5q0 33 22 53.5t51 20.5q31 0 52.5 -20.5t21.5 -53.5q0 -32 -21.5 -52.5t-52.5 -20.5zM69 -124l45 130l-38 9q-7 7 -13 18.5t-6 28.5q0 34 21.5 54t51.5 20q31 0 52.5 -20.5t21.5 -52.5q0 -28 -13.5 -53.5t-28.5 -49.5l-63 -98z" />
    <glyph glyph-name="less" unicode="&#x3c;" horiz-adv-x="430" 
d="M44 243v87l335 162v-93l-196 -86l-94 -27l94 -27l196 -89v-87z" />
    <glyph glyph-name="equal" unicode="=" horiz-adv-x="471" 
d="M54 429h362v-76h-362v76zM54 255h362v-75h-362v75z" />
    <glyph glyph-name="greater" unicode="&#x3e;" horiz-adv-x="430" 
d="M51 176l196 86l94 27l-94 27l-196 88v88l335 -160v-87l-335 -162v93z" />
    <glyph glyph-name="question" unicode="?" horiz-adv-x="433" 
d="M127 310q-4 29 4.5 44t40.5 27q35 11 57 21t34 24t16.5 34t4.5 51v10q0 29 -5 48.5t-17.5 31t-32.5 16.5t-50 5q-38 0 -69 -7.5t-71 -21.5l-14 70q26 14 70.5 26.5t99.5 12.5q94 0 143.5 -45.5t49.5 -134.5q0 -46 -12.5 -79t-35.5 -55.5t-56 -37t-74 -23.5v-131h-69z
M178 -11q-28 0 -49 19t-21 51q0 31 21 50.5t49 19.5q29 0 49.5 -19.5t20.5 -50.5q0 -32 -20.5 -51t-49.5 -19z" />
    <glyph glyph-name="at" unicode="@" horiz-adv-x="776" 
d="M398 -146q-183 0 -269 99.5t-86 299.5q0 197 88.5 298t272.5 101q92 0 155 -25t101.5 -70t55.5 -107.5t17 -138.5q0 -151 -48 -226.5t-159 -75.5q-22 0 -36 2t-23 4l-25 57l-44 -49q-20 -8 -42 -12.5t-45 -4.5q-25 0 -47 7t-38.5 22t-26 38t-9.5 54q0 42 11.5 72t36 50
t63 32t92.5 18l81 7l9 54q3 20 3 36t-7 27t-21.5 17t-38.5 6q-33 0 -70.5 -7t-75.5 -17v66q42 16 79 24t79 8q87 0 117 -49t14 -144l-39 -229q-3 -21 2.5 -28.5t23.5 -7.5h8q60 0 89.5 61t29.5 172v25q0 64 -12.5 116t-43.5 89t-84 57.5t-133 20.5q-81 0 -138 -20t-93.5 -61
t-53 -104.5t-16.5 -150.5v-26q0 -85 15.5 -148.5t50.5 -105.5t91 -63t138 -21q61 0 116 14t111 33l15 -46q-41 -18 -103.5 -34t-137.5 -16zM340 67q37 0 60.5 12.5t40.5 28.5q8 44 13 77q2 14 4.5 28t4 24.5t2.5 17l1 6.5l-75 -8q-30 -4 -50.5 -10t-33.5 -17t-20.5 -28
t-10.5 -43v-7q-5 -40 10 -60.5t54 -20.5z" />
    <glyph glyph-name="A" unicode="A" horiz-adv-x="573" 
d="M116 0h-87l211 651h98l207 -651h-104l-38 129h-247zM308 445l-24 129l-29 -129l-77 -247h204z" />
    <glyph glyph-name="B" unicode="B" horiz-adv-x="560" 
d="M81 651h205q46 0 85 -9.5t67 -30.5t43.5 -53.5t15.5 -78.5q0 -36 -11 -60.5t-28.5 -41t-38.5 -26.5t-41 -16q22 -4 46 -14.5t44 -29t33 -46t13 -65.5q0 -48 -16 -82t-45 -56t-69 -32t-88 -10h-215v651zM288 366q60 0 84.5 22t24.5 77v11q0 54 -27 75.5t-93 21.5h-96v-207
h107zM288 77q62 0 91 23.5t29 80.5v14q0 58 -27 81t-90 23h-110v-222h107z" />
    <glyph glyph-name="C" unicode="C" horiz-adv-x="506" 
d="M304 -14q-71 0 -120.5 26t-80 72t-44 108.5t-13.5 134.5t14.5 133.5t45.5 106.5t81 70.5t120 25.5q51 0 88.5 -9.5t71.5 -24.5l-12 -79q-23 7 -42 12.5t-37 9t-36 5.5t-39 2q-31 0 -58.5 -10t-47.5 -36.5t-31.5 -71.5t-11.5 -114v-32q0 -71 10.5 -119t30 -77t47.5 -41.5
t63 -12.5q24 0 43 3t36.5 8t35 12t38.5 15l22 -76q-35 -17 -77.5 -29t-96.5 -12z" />
    <glyph glyph-name="D" unicode="D" horiz-adv-x="598" 
d="M81 651h195q140 0 208 -83.5t68 -240.5q0 -164 -69.5 -245.5t-215.5 -81.5h-186v651zM261 76q46 0 81 9.5t58 35.5t35 72.5t12 121.5v31q0 68 -11.5 111.5t-34.5 68.5t-58.5 34.5t-83.5 9.5h-78v-494h80z" />
    <glyph glyph-name="E" unicode="E" horiz-adv-x="505" 
d="M81 651h362v-81h-262v-199h225v-75h-225v-217h280v-79h-380v651z" />
    <glyph glyph-name="F" unicode="F" horiz-adv-x="492" 
d="M81 651h361v-81h-261v-218h228v-75h-228v-277h-100v651z" />
    <glyph glyph-name="G" unicode="G" horiz-adv-x="565" 
d="M386 -6q-17 -4 -39 -6t-42 -2q-71 0 -120.5 25.5t-80 71t-44.5 108t-14 136.5q0 72 15 133.5t47.5 106.5t83.5 70.5t122 25.5q54 0 95.5 -9.5t76.5 -23.5l-12 -80q-46 14 -83.5 22t-81.5 8q-34 0 -63 -10.5t-50 -36.5t-33 -71.5t-12 -114.5v-32q0 -72 10.5 -120
t30.5 -77.5t48 -42t64 -12.5q35 0 62 6t47 15v186h-100v71h193v-349h-33l-29 59z" />
    <glyph glyph-name="H" unicode="H" horiz-adv-x="609" 
d="M181 294v-294h-100v651h100v-279h247v279h100v-651h-100v294h-247z" />
    <glyph glyph-name="I" unicode="I" horiz-adv-x="274" 
d="M87 651h100v-651h-100v651z" />
    <glyph glyph-name="J" unicode="J" horiz-adv-x="364" 
d="M143 -14q-39 0 -67 9t-45 19l10 74q21 -8 39 -14t41 -6q16 0 28 5t20.5 17.5t13 34.5t4.5 56v470h100v-448q0 -104 -33.5 -160.5t-110.5 -56.5z" />
    <glyph glyph-name="K" unicode="K" horiz-adv-x="557" 
d="M420 651h105l-240 -299l74 -56l173 -296h-111l-181 312l-58 -78v-234h-101v651h101v-210l-17 -121z" />
    <glyph glyph-name="L" unicode="L" horiz-adv-x="475" 
d="M81 651h100v-573h261v-78h-361v651z" />
    <glyph glyph-name="M" unicode="M" horiz-adv-x="734" 
d="M82 651h132l120 -432l28 -180l28 180l125 432h137v-651h-98v324l18 288l-46 -209l-117 -403h-105l-112 397l-43 215l17 -289v-323h-84v651z" />
    <glyph glyph-name="N" unicode="N" horiz-adv-x="608" 
d="M82 651h110l201 -389l69 -189l-24 220v358h89v-651h-106l-211 405l-62 179l22 -208v-376h-88v651z" />
    <glyph glyph-name="O" unicode="O" horiz-adv-x="609" 
d="M303 -14q-67 0 -115.5 25t-80 70.5t-46.5 108t-15 137.5q0 74 15.5 135.5t47.5 106t81 69.5t115 25t115 -24.5t80.5 -68.5t47 -105.5t15.5 -135.5q0 -78 -15.5 -141.5t-47 -108t-80.5 -69t-117 -24.5zM305 60q38 0 66.5 13t47.5 43.5t28.5 79.5t9.5 121v34q0 65 -9.5 109
t-28.5 72t-47.5 40t-67.5 12q-77 0 -115 -54t-38 -183v-33q0 -72 10 -120.5t29.5 -78.5t48.5 -42.5t66 -12.5z" />
    <glyph glyph-name="P" unicode="P" horiz-adv-x="545" 
d="M81 651h208q111 0 165.5 -56.5t54.5 -151.5q0 -46 -13.5 -84.5t-40.5 -66.5t-68.5 -44t-97.5 -16h-108v-232h-100v651zM282 303q66 0 93.5 30t27.5 102v15q0 70 -28 96.5t-95 26.5h-99v-270h101z" />
    <glyph glyph-name="Q" unicode="Q" horiz-adv-x="609" 
d="M504 -115l-114 -20l-86 122h-1q-67 0 -115.5 25t-80 70t-46.5 107.5t-15 137.5q0 74 15.5 135.5t47.5 106t81 69.5t115 25t115 -25t80.5 -69.5t47 -105.5t15.5 -134q0 -107 -26.5 -181t-83.5 -116l-79 -9zM305 57q38 0 66.5 13.5t47.5 44t28.5 80.5t9.5 122v34
q0 65 -9.5 109t-28.5 72t-47.5 40t-67.5 12q-77 0 -115 -54t-38 -183v-33q0 -73 10 -122t29.5 -79t48.5 -43t66 -13z" />
    <glyph glyph-name="R" unicode="R" horiz-adv-x="565" 
d="M407 222l119 -222h-107l-135 260h-103v-260h-100v651h208q112 0 167 -51.5t55 -145.5q0 -32 -8 -62.5t-27 -56t-50.5 -43t-78.5 -23.5zM282 327q67 0 94.5 27t27.5 93v15q0 32 -6.5 53.5t-21.5 34.5t-38.5 18t-57.5 5h-99v-246h101z" />
    <glyph glyph-name="S" unicode="S" horiz-adv-x="494" 
d="M240 -14q-72 0 -117 14t-77 32l18 71q42 -18 78.5 -29.5t83.5 -11.5q65 0 95.5 22t30.5 84q0 24 -5.5 41.5t-19 30t-37 22.5t-60.5 20q-44 12 -77.5 26t-56 36t-34 54.5t-11.5 80.5q0 90 52 137t149 47q60 0 98.5 -9t70.5 -23l-14 -76q-19 6 -36 11t-34 8.5t-36.5 5.5
t-45.5 2q-59 0 -85 -20.5t-26 -73.5q0 -25 4.5 -41.5t17.5 -28.5t36.5 -21t61.5 -20q43 -11 77 -25.5t58 -37t37 -55t13 -79.5q0 -96 -53 -145t-156 -49z" />
    <glyph glyph-name="T" unicode="T" horiz-adv-x="488" 
d="M26 570v81h436v-81h-168v-570h-100v570h-168z" />
    <glyph glyph-name="U" unicode="U" horiz-adv-x="599" 
d="M417 651h101v-651h-62l-28 64l-40 -55q-16 -7 -46.5 -15t-71.5 -8q-48 0 -84 14t-60 45t-36.5 80t-12.5 118v408h100v-435q0 -46 6 -76t19.5 -47t35 -24t51.5 -7q45 0 74.5 11t53.5 25v553z" />
    <glyph glyph-name="V" unicode="V" horiz-adv-x="571" 
d="M29 651h104l130 -431l28 -157l29 157l130 431h93l-208 -651h-95z" />
    <glyph glyph-name="W" unicode="W" horiz-adv-x="764" 
d="M28 651h103l75 -371l24 -226l28 214l79 383h103l81 -383l26 -214l27 226l79 371h87l-150 -651h-101l-80 380l-24 211l-26 -211l-82 -380h-100z" />
    <glyph glyph-name="X" unicode="X" horiz-adv-x="532" 
d="M207 335l-173 316h111l93 -178l40 -105l34 105l89 178h93l-171 -315l183 -336h-111l-100 192l-44 106l-34 -106l-98 -192h-93z" />
    <glyph glyph-name="Y" unicode="Y" horiz-adv-x="530" 
d="M220 231l-197 420h107l114 -264l30 -127l30 127l110 264h93l-187 -415v-236h-100v231z" />
    <glyph glyph-name="Z" unicode="Z" horiz-adv-x="496" 
d="M45 92l273 430l55 62l-97 -10h-220v77h392v-96l-270 -423l-65 -71l106 14h231v-75h-405v92z" />
    <glyph glyph-name="bracketleft" unicode="[" horiz-adv-x="287" 
d="M65 718h183v-68h-92v-686h92v-68h-183v822z" />
    <glyph glyph-name="backslash" unicode="\" horiz-adv-x="405" 
d="M16 718h77l300 -818h-77z" />
    <glyph glyph-name="bracketright" unicode="]" horiz-adv-x="287" 
d="M39 -36h92v686h-92v68h183v-822h-183v68z" />
    <glyph glyph-name="asciicircum" unicode="^" horiz-adv-x="494" 
d="M197 691h87l143 -284h-93l-71 157l-24 88l-24 -88l-74 -157h-83z" />
    <glyph glyph-name="underscore" unicode="_" horiz-adv-x="284" 
d="M2 -99h280v-63h-280v63z" />
    <glyph glyph-name="quoteleft" unicode="`" horiz-adv-x="243" 
d="M121 453q-29 0 -49 19t-20 50q0 26 10.5 49t25.5 46l65 102l27 -13l-42 -129l33 -7q7 -7 13.5 -18t6.5 -29q0 -32 -20.5 -51t-49.5 -19z" />
    <glyph glyph-name="a" unicode="a" horiz-adv-x="489" 
d="M317 364q0 20 -4 37t-13.5 29t-25.5 19t-41 7q-36 0 -74 -9.5t-81 -24.5l-14 71q35 15 78 28t97 13q90 0 129.5 -47.5t39.5 -154.5v-246q0 -21 7.5 -28t24.5 -7h21l3 -45q-8 -6 -22.5 -11.5t-35.5 -5.5q-12 0 -24 1.5t-23 5.5l-37 58l-44 -51q-15 -7 -37 -12t-50 -5
q-30 0 -57.5 8t-48 26t-32.5 46.5t-12 70.5q0 40 11 68.5t34 47.5t59 30t86 17l86 10v54zM317 254l-80 -10q-57 -6 -82 -27t-25 -72v-8q0 -45 22 -65t67 -20q38 0 61 13t37 30v159z" />
    <glyph glyph-name="b" unicode="b" horiz-adv-x="519" 
d="M119 -3h-45v721h92v-238q21 21 52 37.5t76 16.5q88 0 135 -66.5t47 -205.5q0 -143 -48.5 -209.5t-142.5 -66.5q-27 0 -48.5 5.5t-33.5 10.5l-56 57zM166 85q22 -16 47 -25.5t55 -9.5q28 0 49 10t35.5 32.5t21.5 59t7 89.5v35q0 54 -7.5 89.5t-21 56.5t-33.5 29t-45 8
q-40 0 -66 -16t-42 -30v-328z" />
    <glyph glyph-name="c" unicode="c" horiz-adv-x="424" 
d="M248 -14q-100 0 -153 69.5t-53 206.5q0 138 52 205t154 67q44 0 80 -9.5t62 -21.5l-14 -70q-34 11 -62.5 17.5t-59.5 6.5q-28 0 -50 -7.5t-36.5 -28t-22 -56t-7.5 -92.5v-16q0 -58 7.5 -96t22.5 -60.5t36.5 -31.5t49.5 -9q36 0 64.5 9.5t61.5 24.5l15 -69
q-25 -14 -62 -26.5t-85 -12.5z" />
    <glyph glyph-name="d" unicode="d" horiz-adv-x="517" 
d="M351 718h92v-718h-57l-31 62l-55 -59q-11 -5 -29 -9.5t-41 -4.5q-92 0 -139.5 69t-47.5 205q0 72 14.5 123t40 84t60 48.5t73.5 15.5q42 0 71 -13.5t49 -30.5v228zM351 422q-16 12 -42 24.5t-61 12.5q-26 0 -46.5 -7.5t-34.5 -28t-21.5 -55t-7.5 -88.5v-38
q0 -105 29 -147.5t82 -42.5q32 0 54 13t48 35v322z" />
    <glyph glyph-name="e" unicode="e" horiz-adv-x="482" 
d="M138 233q1 -49 8.5 -82t23 -53t39.5 -29t57 -9q37 0 70 10t67 24l15 -68q-23 -13 -65.5 -26.5t-92.5 -13.5q-108 0 -163 69t-55 206q0 140 57 206.5t151 66.5q98 0 143 -65.5t45 -178.5v-57h-300v0zM349 299v16q0 83 -24 117t-74 34q-25 0 -45.5 -7.5t-34.5 -26
t-22.5 -51t-10.5 -82.5h211z" />
    <glyph glyph-name="f" unicode="f" horiz-adv-x="311" 
d="M24 455v69h64v60q0 73 32 108t90 35q33 0 58 -7t42 -16l-4 -51h-78q-27 0 -38 -11t-11 -35v-83h116v-69h-116v-455h-91v455h-64z" />
    <glyph glyph-name="g" unicode="g" horiz-adv-x="491" 
d="M477 545v-86h-118l65 -42q3 -11 5.5 -22t2.5 -28q0 -48 -16 -81t-42 -53.5t-60.5 -29t-72.5 -8.5q-52 0 -88 16q-11 -8 -18.5 -19.5t-7.5 -27.5q0 -50 65 -50h115q78 0 118.5 -32t40.5 -98q0 -43 -18 -74t-49.5 -51t-74 -29.5t-91.5 -9.5q-98 0 -148 34t-50 94q0 29 9 46
t17 26l58 29q-27 8 -46 28.5t-19 58.5q0 25 7 40.5t14 24.5l56 30l-60 38q-10 19 -16.5 42.5t-6.5 52.5q0 48 17 80.5t45 52.5t62.5 28.5t68.5 8.5q68 0 117 -31zM241 257q51 0 75 23.5t24 76.5v13q0 48 -24 72t-75 24q-53 0 -77 -24t-24 -71v-13q0 -54 24 -77.5t77 -23.5z
M154 40q-18 -15 -28.5 -33.5t-10.5 -44.5q0 -38 28.5 -56t91.5 -18q73 0 109 26t36 61v6q0 25 -15 42t-59 17h-152v0z" />
    <glyph glyph-name="h" unicode="h" horiz-adv-x="519" 
d="M166 0h-92v718h92v-259l47 54q17 8 40.5 14.5t54.5 6.5q66 0 103.5 -39t37.5 -127v-368h-92v380q0 45 -21 62t-56 17t-60 -10.5t-54 -28.5v-420z" />
    <glyph glyph-name="i" unicode="i" horiz-adv-x="247" 
d="M124 613q-24 0 -42 16t-18 42t18 42.5t42 16.5t41.5 -16.5t17.5 -42.5t-17.5 -42t-41.5 -16zM77 524h92v-524h-92v524z" />
    <glyph glyph-name="j" unicode="j" horiz-adv-x="242" 
d="M121 613q-24 0 -41.5 16t-17.5 42t17.5 42.5t41.5 16.5t41.5 -16.5t17.5 -42.5t-17.5 -42t-41.5 -16zM62 -170q-35 0 -57.5 7.5t-35.5 15.5l7 49h55q25 0 35 11t10 34v577h90v-550q0 -75 -27.5 -109.5t-76.5 -34.5z" />
    <glyph glyph-name="k" unicode="k" horiz-adv-x="474" 
d="M166 0h-92v718h92v-323l-17 -145l202 274h98l-179 -230l66 -67l123 -227h-101l-137 257l-55 -79v-178z" />
    <glyph glyph-name="l" unicode="l" horiz-adv-x="252" 
d="M80 718h92v-718h-92v718z" />
    <glyph glyph-name="m" unicode="m" horiz-adv-x="782" 
d="M482 513q16 8 39 14.5t53 6.5q66 0 102 -39t36 -127v-368h-92v380q0 45 -19.5 62t-54.5 17q-34 0 -57.5 -11t-49.5 -28v-420h-92v380q0 45 -20.5 62t-53.5 17q-32 0 -56.5 -10t-50.5 -27v-422h-92v524h56l33 -65l47 54q16 8 38.5 14.5t53.5 6.5q29 0 51 -5.5t40 -15.5
l37 -58z" />
    <glyph glyph-name="n" unicode="n" horiz-adv-x="519" 
d="M213 513q17 8 40.5 14.5t54.5 6.5q66 0 103.5 -39t37.5 -127v-368h-92v380q0 45 -21 62t-56 17t-60 -10.5t-54 -28.5v-420h-92v524h56l34 -67z" />
    <glyph glyph-name="o" unicode="o" horiz-adv-x="505" 
d="M253 -14q-98 0 -154.5 70.5t-56.5 203.5q0 134 57.5 204t153.5 70q97 0 153.5 -69t56.5 -202q0 -135 -56 -206t-154 -71zM253 57q27 0 48 10t35.5 32.5t22.5 59.5t8 92v16q0 57 -7.5 94.5t-21.5 59.5t-35.5 31t-49.5 9t-49.5 -8.5t-36 -30.5t-22 -58t-7.5 -92v-17
q0 -56 8 -94t22.5 -61t36 -33t48.5 -10z" />
    <glyph glyph-name="p" unicode="p" horiz-adv-x="518" 
d="M211 516q17 7 37.5 12.5t49.5 5.5q88 0 132.5 -69t44.5 -204q0 -132 -45.5 -195.5t-136.5 -63.5q-42 0 -73.5 14t-53.5 31v-209h-92v686h56l32 -63zM166 102q17 -12 43.5 -25t62.5 -13q54 0 81 41.5t27 141.5v33q0 50 -6.5 84.5t-19.5 55.5t-33 30t-46 9q-31 0 -57 -9.5
t-52 -26.5v-321v0z" />
    <glyph glyph-name="q" unicode="q" horiz-adv-x="518" 
d="M353 51q-22 -19 -52.5 -34t-74.5 -15q-86 0 -134.5 64.5t-48.5 197.5q0 134 47 202t134 68q31 0 54.5 -5.5t40.5 -13.5l51 -55l30 64h45v-686h-92v213v0zM353 424q-26 17 -52.5 26t-56.5 9q-25 0 -44.5 -9t-33 -29.5t-21 -55t-7.5 -85.5v-33q0 -99 28 -141t81 -42
q37 0 63.5 14.5t42.5 27.5v318v0z" />
    <glyph glyph-name="r" unicode="r" horiz-adv-x="374" 
d="M217 517q17 8 35 12.5t38 4.5q24 0 40.5 -5t25.5 -10l-17 -84q-14 6 -30.5 10t-42.5 4q-30 0 -53.5 -10.5t-46.5 -26.5v-412h-92v524h56l34 -71z" />
    <glyph glyph-name="s" unicode="s" horiz-adv-x="408" 
d="M193 -14q-54 0 -91.5 11t-60.5 22l11 68q26 -11 59.5 -21t72.5 -10q48 0 73.5 18t25.5 64q0 22 -5 35.5t-18 22.5t-36 16.5t-59 16.5q-28 8 -51 18.5t-40 28t-26.5 43t-9.5 61.5q0 79 47 116.5t125 37.5q48 0 83.5 -9t58.5 -21l-14 -67q-29 10 -56.5 16.5t-65.5 6.5
q-47 0 -70 -15t-23 -60q0 -21 6 -33.5t19 -21t34 -15t51 -14.5q34 -9 59.5 -21t43 -30.5t26.5 -44.5t9 -63q0 -69 -44 -112.5t-134 -43.5z" />
    <glyph glyph-name="t" unicode="t" horiz-adv-x="331" 
d="M198 -11q-60 0 -86.5 33t-26.5 102v331h-62v69h68l44 141h42v-141h114v-69h-114v-351q0 -26 9.5 -35.5t37.5 -9.5h75l5 -49q-20 -8 -46.5 -14.5t-59.5 -6.5z" />
    <glyph glyph-name="u" unicode="u" horiz-adv-x="517" 
d="M351 524h92v-524h-57l-33 64l-45 -55q-18 -8 -42.5 -14t-55.5 -6q-64 0 -102 40t-38 127v368h92v-379q0 -49 20.5 -67.5t54.5 -18.5q37 0 62.5 10.5t51.5 27.5v427z" />
    <glyph glyph-name="v" unicode="v" horiz-adv-x="460" 
d="M19 524h96l92 -323l26 -168l26 168l94 323h87l-162 -524h-95z" />
    <glyph glyph-name="w" unicode="w" horiz-adv-x="669" 
d="M19 524h94l71 -315l15 -157l30 190l67 282h92l66 -282l26 -190l15 157l71 315h83l-130 -524h-92l-65 282l-24 177l-25 -177l-70 -282h-93z" />
    <glyph glyph-name="x" unicode="x" horiz-adv-x="457" 
d="M176 268l-144 256h98l69 -127l38 -100l31 100l64 127h90l-141 -255l150 -269h-98l-75 137l-38 104l-34 -104l-70 -137h-90z" />
    <glyph glyph-name="y" unicode="y" horiz-adv-x="460" 
d="M188 16l-169 508h95l94 -306l25 -152l27 152l93 306h87l-218 -686h-89z" />
    <glyph glyph-name="z" unicode="z" horiz-adv-x="422" 
d="M35 79l225 328l48 49l-94 -8h-166v76h337v-84l-222 -327l-54 -54l97 12h182v-71h-353v79z" />
    <glyph glyph-name="braceleft" unicode="{" horiz-adv-x="307" 
d="M206 -109q-51 0 -83 31t-32 91q0 28 4 54t9.5 49t9.5 42.5t4 35.5q0 43 -22.5 63t-65.5 22v67q43 2 65.5 21t22.5 62q0 16 -4.5 35t-9.5 40.5t-9.5 46t-4.5 51.5q0 32 10 55t26.5 38t38.5 22.5t46 7.5q21 0 37 -4t26 -9l-5 -59h-38q-31 0 -43.5 -17t-4.5 -63l20 -112
q11 -60 -12.5 -98.5t-92.5 -49.5q69 -11 93 -48.5t13 -102.5l-19 -115q-8 -46 3.5 -66t42.5 -20h38l5 -56q-10 -5 -29 -9.5t-39 -4.5z" />
    <glyph glyph-name="bar" unicode="|" horiz-adv-x="197" 
d="M62 718h73v-818h-73v818z" />
    <glyph glyph-name="braceright" unicode="}" horiz-adv-x="307" 
d="M101 -109q-20 0 -39 4.5t-29 9.5l5 56h38q31 0 43.5 18.5t4.5 63.5l-20 120q-11 63 12.5 101t92.5 49q-69 11 -93 48t-12 102l18 106q8 47 -3.5 65.5t-42.5 18.5h-38l-5 59q10 5 26 9t36 4q25 0 47 -7t38.5 -22t26.5 -37.5t10 -53.5q0 -28 -4.5 -52.5t-9.5 -46t-9.5 -40
t-4.5 -34.5q0 -43 23 -63.5t65 -22.5v-67q-42 -2 -65 -21t-23 -61q0 -16 4.5 -36.5t9.5 -44t9.5 -49t4.5 -51.5q0 -64 -32 -94.5t-84 -30.5z" />
    <glyph glyph-name="asciitilde" unicode="~" horiz-adv-x="405" 
d="M268 250q-25 0 -41.5 13t-32.5 28l-27 28q-14 15 -20 19.5t-16 4.5q-16 0 -22 -18.5t-6 -52.5v-13h-56q0 82 24.5 123t64.5 41q26 0 42.5 -13t32.5 -29l26 -27q15 -16 20.5 -20t16.5 -4q15 0 21 18.5t6 51.5v13h57q0 -82 -25 -122.5t-65 -40.5z" />
    <glyph glyph-name="exclamdown" unicode="&#xa1;" horiz-adv-x="265" 
d="M133 395q-29 0 -49.5 19t-20.5 51q0 31 20.5 50t49.5 19q28 0 49 -19t21 -50q0 -32 -21 -51t-49 -19zM81 79l30 248h44l30 -248v-241h-104v241z" />
    <glyph glyph-name="cent" unicode="&#xa2;" horiz-adv-x="426" 
d="M239 59q5 -1 15 -1q36 0 64.5 11t61.5 27l14 -71q-24 -14 -61 -26.5t-85 -12.5q-8 0 -15.5 0.5t-15.5 1.5l-39 -127l-55 18l38 124q-58 26 -88.5 90.5t-30.5 168.5q0 138 52 205t154 67q38 0 72 -8l38 125l57 -17l-176 -575v0zM298 455q-11 2 -22 3t-22 1q-29 0 -51 -8
t-37 -28.5t-22.5 -56.5t-7.5 -93v-16q0 -75 12.5 -116.5t35.5 -61.5l114 376v0z" />
    <glyph glyph-name="sterling" unicode="&#xa3;" horiz-adv-x="469" 
d="M241 289q3 -14 5 -28t2 -31q0 -64 -54 -121l-80 -46l120 15h205v-78h-385v75q23 15 42.5 29t33 30.5t21 36.5t7.5 48q0 19 -3.5 36t-9.5 34h-102v73h69q-14 30 -25 62t-11 71q0 35 11 65.5t34.5 53t60 36t87.5 13.5q32 0 57.5 -3.5t46 -9t37.5 -13t33 -16.5l-18 -71
q-35 15 -65.5 24t-73.5 9q-57 0 -81.5 -20t-24.5 -72v-13q0 -32 10.5 -59.5t22.5 -56.5h154v-73h-126v0z" />
    <glyph glyph-name="fraction" unicode="&#xa4;" horiz-adv-x="310" 
d="M275 651h73l-313 -651h-73z" />
    <glyph glyph-name="yen" unicode="&#xa5;" horiz-adv-x="565" 
d="M527 426v-72h-145l-41 -95h186v-73h-196v-186h-97v186h-196v73h183l-43 95h-140v72h107l-101 225h107l107 -261l29 -153l31 153l105 261h88l-98 -225h114z" />
    <glyph glyph-name="florin" unicode="&#xa6;" horiz-adv-x="380" 
d="M28 -177q-27 0 -45.5 7.5t-33.5 15.5l14 52h49q21 0 29 8t12 29l80 460h-77v69h88l21 118q14 79 49 111t89 32q34 0 56.5 -7.5t39.5 -15.5l-14 -52h-69q-26 0 -37.5 -10t-16.5 -36l-25 -140h100v-69h-111l-78 -447q-13 -71 -42.5 -98t-77.5 -27z" />
    <glyph glyph-name="section" unicode="&#xa7;" horiz-adv-x="452" 
d="M165 361q-38 17 -66 50t-28 92q0 79 47 119.5t125 40.5q48 0 83 -8.5t59 -21.5l-15 -68q-30 11 -56.5 17t-64.5 6q-48 0 -70.5 -18t-22.5 -63q0 -21 6 -34.5t19 -24t34 -18.5t51 -17q33 -10 60 -22t46.5 -30t30.5 -44t11 -63q0 -36 -12.5 -61.5t-34.5 -44.5l-80 -22
q38 -18 64.5 -51t26.5 -91q0 -79 -47 -120t-125 -41q-48 0 -84 9t-60 22l12 65q29 -11 56 -18.5t69 -7.5q48 0 71 20t23 65q0 42 -25.5 62t-84.5 37q-35 11 -62 23.5t-45.5 31.5t-28 45t-9.5 63q0 33 13 58.5t34 42.5l80 20v0zM239 144q47 16 69.5 36.5t22.5 61.5
q0 23 -5 38.5t-18 26.5t-35.5 19.5t-56.5 17.5q-50 -13 -72.5 -33.5t-22.5 -62.5q0 -22 4 -37t16 -26t33.5 -19.5t55.5 -18.5l9 -3v0z" />
    <glyph glyph-name="currency" unicode="&#xa8;" horiz-adv-x="532" 
d="M33 364v66h77q8 52 25.5 95t46.5 73.5t69.5 47.5t94.5 17q48 0 84 -9t69 -23l-14 -76q-22 7 -40 12.5t-34.5 9t-33 5t-35.5 1.5q-26 0 -48 -7.5t-39.5 -25t-29 -47t-16.5 -73.5h186v-66h-191v-17v-32v-35h191v-65h-185q11 -85 45 -120t88 -35q22 0 39.5 2.5t34.5 7.5
t34 12t37 16l22 -71q-32 -17 -72 -29t-94 -12t-94 16.5t-68.5 47t-46 72.5t-25.5 93h-77v65h70q-1 11 -1 23v24v19t1 18h-70z" />
    <glyph glyph-name="quotesingle" unicode="&#xa9;" horiz-adv-x="220" 
d="M60 567v125h100v-125l-31 -161h-37z" />
    <glyph glyph-name="quotedblleft" unicode="&#xaa;" horiz-adv-x="426" 
d="M305 453q-29 0 -49 19t-20 50q0 26 10.5 49t25.5 46l64 102l28 -13l-43 -129l34 -7q7 -7 13 -18t6 -29q0 -32 -20 -51t-49 -19zM121 453q-29 0 -49 19t-20 50q0 26 10.5 49t25.5 46l65 102l27 -13l-42 -129l33 -7q7 -7 13.5 -18t6.5 -29q0 -32 -20.5 -51t-49.5 -19z" />
    <glyph glyph-name="guillemotleft" unicode="&#xab;" horiz-adv-x="464" 
d="M218 168v70l124 167h90l-112 -152l-48 -50l48 -49l112 -154h-89zM42 168v70l125 167h89l-112 -152l-48 -50l48 -49l112 -154h-88z" />
    <glyph glyph-name="guilsinglleft" unicode="&#xac;" horiz-adv-x="288" 
d="M42 168v70l125 167h89l-112 -152l-48 -50l48 -49l112 -154h-88z" />
    <glyph glyph-name="guilsinglright" unicode="&#xad;" horiz-adv-x="287" 
d="M143 152l49 50l-49 49l-111 154h88l125 -167v-71l-124 -167h-89z" />
    <glyph glyph-name="fi" unicode="&#xae;" horiz-adv-x="548" 
d="M422 613q-26 0 -44.5 16.5t-18.5 42.5q0 27 18.5 43.5t44.5 16.5t44 -16.5t18 -43.5q0 -26 -18 -42.5t-44 -16.5zM26 455v69h64v60q0 73 32 108t89 35q29 0 52 -7.5t38 -15.5l-5 -51h-61q-30 0 -42 -11t-12 -35v-83h114v-69h-114v-455h-91v455h-64zM376 524h91v-524h-91
v524z" />
    <glyph glyph-name="fl" unicode="&#xaf;" horiz-adv-x="542" 
d="M26 455v69h64v60q0 73 32 108t89 35q31 0 53.5 -7.5t37.5 -15.5l-5 -51h-62q-30 0 -42 -11t-12 -35v-83h114v-69h-114v-455h-91v455h-64zM370 718h92v-718h-92v718z" />
    <glyph glyph-name="endash" unicode="&#xb1;" horiz-adv-x="421" 
d="M50 333h321v-70h-321v70z" />
    <glyph glyph-name="dagger" unicode="&#xb2;" horiz-adv-x="491" 
d="M134 394h-87v82h87l91 -25l-30 98v122h101v-122l-31 -98l92 25h87v-82h-87l-93 19l32 -115v-164l-29 -296h-44l-28 296v164l31 115z" />
    <glyph glyph-name="daggerdbl" unicode="&#xb3;" horiz-adv-x="491" 
d="M134 394h-87v82h87l92 -25l-31 98v122h101v-122l-32 -98l93 25h87v-82h-87l-92 19l31 -108v-101l-31 -107l92 19h87v-83h-87l-93 25l32 -98v-122h-101v122l31 98l-92 -25h-87v83h87l91 -19l-30 107v101l30 108z" />
    <glyph glyph-name="periodcentered" unicode="&#xb4;" horiz-adv-x="251" 
d="M126 263q-30 0 -52 20.5t-22 52.5q0 33 22 53.5t52 20.5t51.5 -20.5t21.5 -53.5q0 -32 -21.5 -52.5t-51.5 -20.5z" />
    <glyph glyph-name="paragraph" unicode="&#xb6;" horiz-adv-x="508" 
d="M225 324l-72 -13q-54 14 -83.5 55.5t-29.5 114.5q0 84 53.5 127t142.5 43h191v-751h-64v689h-74v-689h-64v424z" />
    <glyph glyph-name="bullet" unicode="&#xb7;" horiz-adv-x="335" 
d="M166 205q-23 0 -44 8.5t-37 24.5t-25.5 37.5t-9.5 47.5q0 27 9.5 49.5t25.5 38t37 24.5t44 9q25 0 46.5 -9t37.5 -24.5t25.5 -38t9.5 -49.5q0 -26 -9.5 -47.5t-25.5 -37.5t-37.5 -24.5t-46.5 -8.5z" />
    <glyph glyph-name="bullet" unicode="&#x2219;" horiz-adv-x="335" 
d="M166 205q-23 0 -44 8.5t-37 24.5t-25.5 37.5t-9.5 47.5q0 27 9.5 49.5t25.5 38t37 24.5t44 9q25 0 46.5 -9t37.5 -24.5t25.5 -38t9.5 -49.5q0 -26 -9.5 -47.5t-25.5 -37.5t-37.5 -24.5t-46.5 -8.5z" />
    <glyph glyph-name="quotesinglbase" unicode="&#xb8;" horiz-adv-x="243" 
d="M62 -119l43 128l-33 7q-7 8 -13.5 19t-6.5 29q0 31 20 50.5t49 19.5t49.5 -19t20.5 -50q0 -26 -10.5 -49t-25.5 -47l-65 -101z" />
    <glyph glyph-name="quotedblbase" unicode="&#xb9;" horiz-adv-x="426" 
d="M246 -119l43 128l-34 7q-7 8 -13 19t-6 29q0 31 20 50.5t49 19.5t49 -19t20 -50q0 -26 -10 -49t-26 -47l-64 -101zM62 -119l43 128l-33 7q-7 8 -13.5 19t-6.5 29q0 31 20 50.5t49 19.5t49.5 -19t20.5 -50q0 -26 -10.5 -49t-25.5 -47l-65 -101z" />
    <glyph glyph-name="quotedblright" unicode="&#xba;" horiz-adv-x="426" 
d="M246 449l43 129l-34 7q-7 7 -13 18t-6 29q0 32 20 51t49 19t49 -19t20 -50q0 -26 -10 -49t-26 -46l-64 -102zM62 449l43 129l-33 7q-7 7 -13.5 18t-6.5 29q0 32 20 51t49 19t49.5 -19t20.5 -50q0 -26 -10.5 -49t-25.5 -46l-65 -102z" />
    <glyph glyph-name="guillemotright" unicode="&#xbb;" horiz-adv-x="463" 
d="M319 152l49 50l-49 49l-112 154h89l125 -167v-71l-124 -167h-90zM143 152l49 50l-49 49l-111 154h88l125 -167v-71l-124 -167h-89z" />
    <glyph glyph-name="ellipsis" unicode="&#xbc;" horiz-adv-x="709" 
d="M582 -11q-30 0 -51.5 20.5t-21.5 52.5q0 33 21.5 53.5t51.5 20.5q31 0 52.5 -20.5t21.5 -53.5q0 -32 -21.5 -52.5t-52.5 -20.5zM354 -11q-29 0 -51 20.5t-22 52.5q0 33 22 53.5t51 20.5q31 0 52.5 -20.5t21.5 -53.5q0 -32 -21.5 -52.5t-52.5 -20.5zM126 -11
q-29 0 -51 20.5t-22 52.5q0 33 22 53.5t51 20.5q31 0 52.5 -20.5t21.5 -53.5q0 -32 -21.5 -52.5t-52.5 -20.5z" />
    <glyph glyph-name="perthousand" unicode="&#xbd;" horiz-adv-x="1200" 
d="M193 250q-40 0 -69.5 17t-49 45.5t-28.5 66t-9 79.5q0 40 9.5 77t29 65.5t49.5 45.5t70 17q41 0 70.5 -17t48.5 -45t28.5 -64.5t9.5 -76.5q0 -42 -9.5 -80t-29.5 -67t-49.5 -46t-70.5 -17zM567 651h69l-369 -651h-68zM1003 -14q-40 0 -69.5 17t-48.5 45.5t-28.5 66
t-9.5 79.5q0 40 9.5 77t29 65.5t49.5 45.5t70 17q41 0 70.5 -17t49 -45t29 -64.5t9.5 -76.5q0 -42 -9.5 -80t-29.5 -67t-50 -46t-71 -17zM638 -14q-40 0 -69.5 17t-48.5 45.5t-28.5 66t-9.5 79.5q0 40 9.5 77t29 65.5t49.5 45.5t70 17q41 0 70.5 -17t49 -45t28.5 -64.5
t9 -76.5q0 -42 -9.5 -80t-29 -67t-49.5 -46t-71 -17zM194 309q33 0 53 26t20 98v46q0 35 -5 58.5t-15 37.5t-23 19.5t-30 5.5t-30.5 -6t-23.5 -20t-15 -37.5t-5 -58.5v-46q0 -36 5 -60t15 -38t23.5 -19.5t30.5 -5.5zM1004 45q34 0 54 26t20 98v46q0 35 -5 58.5t-15 37.5
t-23.5 19.5t-30.5 5.5q-16 0 -29.5 -6t-23.5 -20t-15 -37.5t-5 -58.5v-46q0 -36 5 -60t15 -38t23.5 -19.5t29.5 -5.5zM639 45q34 0 54 26t20 98v46q0 35 -5 58.5t-15 37.5t-23.5 19.5t-30.5 5.5q-16 0 -29.5 -6t-23.5 -20t-15 -37.5t-5 -58.5v-46q0 -36 5 -60t15 -38
t23.5 -19.5t29.5 -5.5z" />
    <glyph glyph-name="questiondown" unicode="&#xbf;" horiz-adv-x="433" 
d="M255 395q-29 0 -49.5 19t-20.5 51q0 31 20.5 50t49.5 19q28 0 49 -19t21 -50q0 -32 -21 -51t-49 -19zM238 -175q-94 0 -143.5 46t-49.5 134q0 47 12.5 79t35.5 54.5t56 36.5t74 23v129h69l14 -111q4 -29 -4.5 -44.5t-40.5 -26.5q-35 -11 -57 -21t-34 -23.5t-16.5 -33.5
t-4.5 -51v-10q0 -57 22.5 -79.5t82.5 -22.5q38 0 69 8t71 22l14 -71q-26 -13 -70.5 -25.5t-99.5 -12.5z" />
    <glyph glyph-name="grave" unicode="&#xc1;" horiz-adv-x="514" 
d="M118 757h115l53 -164h-54z" />
    <glyph glyph-name="acute" unicode="&#xc2;" 
d="M269 757h114l-113 -164h-55z" />
    <glyph glyph-name="circumflex" unicode="&#xc3;" 
d="M212 769h74l113 -176h-88l-41 76l-23 65l-23 -65l-45 -76h-79z" />
    <glyph glyph-name="tilde" unicode="&#xc4;" 
d="M303 596q-20 0 -33.5 8t-27.5 23l-19 22q-9 10 -14.5 14.5t-14.5 4.5q-28 0 -28 -55v-10h-52q0 66 25 100.5t58 34.5q20 0 33.5 -8t27.5 -23l18 -22q10 -10 15.5 -14.5t14.5 -4.5q28 0 28 54v10h52q0 -65 -25 -99.5t-58 -34.5z" />
    <glyph glyph-name="macron" unicode="&#xc5;" 
d="M134 701h232v-79h-232v79z" />
    <glyph glyph-name="breve" unicode="&#xc6;" 
d="M253 610q-33 0 -56.5 11.5t-39 31.5t-23 46.5t-7.5 56.5h67v-11q0 -34 12.5 -51t46.5 -17q35 0 47.5 17t12.5 51v11h67q0 -30 -7.5 -56.5t-23 -46.5t-39.5 -31.5t-57 -11.5z" />
    <glyph glyph-name="dotaccent" unicode="&#xc7;" 
d="M250 595q-24 0 -41 16.5t-17 42.5t17 43t41 17t41 -17t17 -43t-17 -42.5t-41 -16.5z" />
    <glyph glyph-name="dieresis" unicode="&#xc8;" 
d="M337 595q-23 0 -40.5 16.5t-17.5 42.5t17.5 43t40.5 17q24 0 41 -17t17 -43t-17 -42.5t-41 -16.5zM163 595q-24 0 -41 16.5t-17 42.5t17 43t41 17q23 0 40.5 -17t17.5 -43t-17.5 -42.5t-40.5 -16.5z" />
    <glyph glyph-name="ring" unicode="&#xca;" 
d="M250 589q-42 0 -71.5 27t-29.5 83t29.5 83.5t71.5 27.5t71.5 -27.5t29.5 -83.5t-29.5 -83t-71.5 -27zM250 635q23 0 35.5 11.5t12.5 52.5t-12.5 53.5t-35.5 12.5t-35.5 -12.5t-12.5 -53.5t12.5 -52.5t35.5 -11.5z" />
    <glyph glyph-name="cedilla" unicode="&#xcb;" 
d="M249 -240q-26 0 -49.5 7t-37.5 16l8 42q20 -8 37.5 -13.5t34.5 -5.5q53 0 53 38v8q0 19 -7.5 27t-27.5 8q-17 0 -25 -4t-18 -12l-31 25l42 104h49l-36 -84l39 16q32 -2 55.5 -23t23.5 -59q0 -47 -32.5 -68.5t-77.5 -21.5z" />
    <glyph glyph-name="hungarumlaut" unicode="&#xcd;" 
d="M359 757h99l-103 -164h-55zM201 757h99l-103 -164h-55z" />
    <glyph glyph-name="ogonek" unicode="&#xce;" 
d="M253 -239q-42 0 -69.5 23t-27.5 63q0 23 8.5 44.5t23 40.5t32.5 36t36 32h40l-45 -66q-16 -23 -22.5 -40.5t-6.5 -42.5q0 -45 42 -45q17 0 29.5 4t32.5 12l6 -42q-11 -6 -30.5 -12.5t-48.5 -6.5z" />
    <glyph glyph-name="caron" unicode="&#xcf;" 
d="M101 769h88l41 -76l23 -65l23 65l45 76h79l-112 -176h-74z" />
    <glyph glyph-name="emdash" unicode="&#xd0;" horiz-adv-x="639" 
d="M50 333h539v-70h-539v70z" />
    <glyph glyph-name="AE" unicode="&#xe1;" horiz-adv-x="830" 
d="M373 651h396v-81h-262v-199h225v-75h-225v-217h279v-79h-378v129h-223l-70 -129h-98zM408 198v260l9 156l-51 -139l-144 -277h186z" />
    <glyph glyph-name="ordfeminine" unicode="&#xe3;" horiz-adv-x="438" 
d="M277 515q0 35 -14 56.5t-56 21.5q-31 0 -63 -8t-69 -19l-11 62q32 14 68 24.5t81 10.5q78 0 112.5 -40.5t34.5 -131.5v-206q0 -17 6 -23t19 -6h18l2 -40q-7 -5 -22 -9.5t-32 -4.5q-21 0 -40 7l-30 50l-36 -46q-13 -5 -31 -9t-41 -4q-26 0 -49 6.5t-40.5 21.5t-28 39
t-10.5 60q0 69 38.5 99.5t121.5 38.5l72 7v43zM277 426l-66 -8q-48 -5 -66 -23.5t-18 -60.5v-6q0 -38 16 -54.5t52 -16.5q31 0 50 11.5t32 26.5v131z" />
    <glyph glyph-name="Lslash" unicode="&#xe8;" horiz-adv-x="480" 
d="M23 227v81l71 33v310h100v-264l133 61v-81l-133 -61v-227h255v-79h-355v260z" />
    <glyph glyph-name="Oslash" unicode="&#xe9;" horiz-adv-x="609" 
d="M485 588q38 -45 57 -111t19 -148q0 -78 -15.5 -141.5t-47 -108t-80.5 -69t-117 -24.5q-38 0 -69 8t-57 23l-58 -106l-56 32l63 116q-41 45 -60 114t-19 154q0 74 15.5 135.5t47 106t80.5 69.5t115 25q77 0 133 -34l53 97l55 -30l-59 -108v0zM398 560q-34 27 -96 27
q-76 0 -115 -55.5t-39 -184.5v-33q0 -111 22 -171zM211 83q33 -27 92 -27q38 0 67 14t48.5 44.5t29.5 80.5t10 122v34q0 98 -20 151z" />
    <glyph glyph-name="OE" unicode="&#xea;" horiz-adv-x="822" 
d="M330 0q-146 0 -215.5 81.5t-69.5 245.5q0 156 68.5 240t207.5 84h439v-81h-257v-199h220v-75h-220v-217h275v-79h-448v0zM403 76v494h-65q-48 0 -83 -9.5t-58.5 -34.5t-34.5 -68.5t-11 -111.5v-31q0 -75 11.5 -121.5t35 -72.5t58 -35.5t80.5 -9.5h67z" />
    <glyph glyph-name="ordmasculine" unicode="&#xeb;" horiz-adv-x="444" 
d="M224 206q-40 0 -73 15.5t-56.5 45t-36 71.5t-12.5 96q0 109 48.5 169t129.5 60q40 0 72.5 -15.5t56 -44.5t36 -71t12.5 -95q0 -110 -47.5 -170.5t-129.5 -60.5zM224 267q22 0 39 7.5t29 25.5t18 48.5t6 76.5v15q0 48 -6 79t-18 49t-29 25t-39 7t-39.5 -7t-29.5 -25
t-18 -48t-6 -76v-15q0 -48 6.5 -79.5t18.5 -49.5t29.5 -25.5t38.5 -7.5z" />
    <glyph glyph-name="ae" unicode="&#xf1;" horiz-adv-x="746" 
d="M196 -14q-32 0 -60.5 8t-49.5 26t-33 46.5t-12 70.5q0 40 11 68.5t34 47.5t59 30t86 17l88 9v55q0 20 -4 37t-14 29t-26.5 19t-41.5 7q-36 0 -74.5 -9.5t-81.5 -24.5l-13 71q42 17 83 29t92 12t86 -20t50 -68q20 45 58.5 66.5t87.5 21.5q98 0 143 -65.5t45 -178.5v-55
h-299q0 -51 8 -84.5t23.5 -53.5t39.5 -28.5t57 -8.5q36 0 70.5 10.5t69.5 24.5l10 -69q-24 -14 -65.5 -27t-90.5 -13q-125 0 -176 96l-71 -78q-16 -8 -38.5 -13t-50.5 -5zM620 297v18q0 83 -24 117t-74 34q-25 0 -45.5 -7.5t-34.5 -26.5t-22.5 -51.5t-9.5 -83.5h210zM219 52
q24 0 42 6t31.5 16t25 22t21.5 25q-19 56 -20 133l-82 -10q-29 -3 -49.5 -9.5t-33 -18t-18.5 -28.5t-6 -43v-8q0 -45 22 -65t67 -20z" />
    <glyph glyph-name="dotlessi" unicode="&#xf5;" horiz-adv-x="247" 
d="M77 524h92v-524h-92v524z" />
    <glyph glyph-name="lslash" unicode="&#xf8;" horiz-adv-x="311" 
d="M33 254v80l76 42v342h92v-292l77 42v-80l-77 -42v-346h-92v296z" />
    <glyph glyph-name="oslash" unicode="&#xf9;" horiz-adv-x="505" 
d="M402 467q29 -35 44 -86t15 -118q0 -135 -55.5 -206t-153.5 -71q-57 0 -103 26l-53 -96l-52 29l59 106q-30 35 -46 87.5t-16 121.5q0 134 57.5 204t153.5 70q61 0 104 -27l50 89l52 -28l-56 -101v0zM323 446q-14 11 -31.5 15t-39.5 4q-28 0 -50 -9.5t-37 -31.5t-23 -59
t-8 -93v-17q0 -82 13 -125zM182 71q25 -18 70 -18q27 0 49 10t37 33.5t23 61.5t8 93v16q0 39 -3 68.5t-8 51.5z" />
    <glyph glyph-name="oe" unicode="&#xfa;" horiz-adv-x="796" 
d="M458 235q1 -50 8.5 -83.5t23 -54t39.5 -29t57 -8.5q36 0 70.5 10.5t69.5 24.5l10 -69q-24 -14 -65.5 -27t-90.5 -13q-63 0 -106.5 27t-62.5 84q-22 -59 -62 -85t-97 -26q-97 0 -153.5 70.5t-56.5 203.5q0 134 57.5 204t153.5 70q54 0 96.5 -26t61.5 -85q18 58 61 84.5
t97 26.5q98 0 143 -65.5t45 -178.5v-55h-299v0zM668 297v18q0 83 -24 117t-74 34q-25 0 -45 -7.5t-34.5 -26.5t-22.5 -51.5t-10 -83.5h210zM253 57q27 0 48.5 9.5t36 32t22 60t7.5 92.5v16q0 57 -7.5 94.5t-21.5 59.5t-35.5 31t-49.5 9t-49.5 -8.5t-36 -30.5t-22 -58
t-7.5 -92v-17q0 -57 7.5 -95t22.5 -61t36.5 -32.5t48.5 -9.5z" />
    <glyph glyph-name="germandbls" unicode="&#xfb;" horiz-adv-x="576" 
d="M374 -14q-51 0 -83 10t-55 22l11 68q25 -11 52.5 -20.5t65.5 -9.5q49 0 67.5 18t18.5 58q0 22 -4 35t-15 22t-29.5 15t-47.5 15q-22 7 -43 16t-37.5 26t-26 43.5t-9.5 67.5q0 28 6.5 48.5t17.5 36t24.5 26t26.5 17.5l56 6v24q0 33 -3 56.5t-13 38.5t-29.5 22.5t-51.5 7.5
q-63 0 -85.5 -37.5t-22.5 -120.5v-497h-91v474q0 125 47.5 189t152.5 64q52 0 86.5 -15t55.5 -43t29.5 -68t8.5 -90v-47l-47 -8q-48 -8 -66 -23.5t-18 -56.5q0 -21 5.5 -34t16 -21t27 -13t38.5 -12q23 -7 46 -16.5t41.5 -26t30 -44t11.5 -70.5q0 -33 -9.5 -61.5t-29.5 -48.5
t-51 -31.5t-75 -11.5z" />
    <glyph glyph-name="Scaron" horiz-adv-x="494" 
d="M240 -14q-72 0 -117 14t-77 32l18 71q42 -18 78.5 -29.5t83.5 -11.5q65 0 95.5 22t30.5 84q0 24 -5.5 41.5t-19 30t-37 22.5t-60.5 20q-44 12 -77.5 26t-56 36t-34 54.5t-11.5 80.5q0 90 52 137t149 47q60 0 98.5 -9t70.5 -23l-14 -76q-19 6 -36 11t-34 8.5t-36.5 5.5
t-45.5 2q-59 0 -85 -20.5t-26 -73.5q0 -25 4.5 -41.5t17.5 -28.5t36.5 -21t61.5 -20q43 -11 77 -25.5t58 -37t37 -55t13 -79.5q0 -96 -53 -145t-156 -49zM98 888h88l41 -76l23 -65l23 65l45 76h79l-112 -176h-74z" />
    <glyph glyph-name="scaron" horiz-adv-x="408" 
d="M193 -14q-54 0 -91.5 11t-60.5 22l11 68q26 -11 59.5 -21t72.5 -10q48 0 73.5 18t25.5 64q0 22 -5 35.5t-18 22.5t-36 16.5t-59 16.5q-28 8 -51 18.5t-40 28t-26.5 43t-9.5 61.5q0 79 47 116.5t125 37.5q48 0 83.5 -9t58.5 -21l-14 -67q-29 10 -56.5 16.5t-65.5 6.5
q-47 0 -70 -15t-23 -60q0 -21 6 -33.5t19 -21t34 -15t51 -14.5q34 -9 59.5 -21t43 -30.5t26.5 -44.5t9 -63q0 -69 -44 -112.5t-134 -43.5zM55 769h88l41 -76l23 -65l23 65l45 76h79l-112 -176h-74z" />
    <glyph glyph-name="Yacute" horiz-adv-x="530" 
d="M220 231l-197 420h107l114 -264l30 -127l30 127l110 264h93l-187 -415v-236h-100v231zM282 876h114l-113 -164h-55z" />
    <glyph glyph-name="yacute" horiz-adv-x="460" 
d="M188 16l-169 508h95l94 -306l25 -152l27 152l93 306h87l-218 -686h-89zM247 757h114l-113 -164h-55z" />
    <glyph glyph-name="Thorn" horiz-adv-x="543" 
d="M81 651h100v-104h108q111 0 165.5 -56.5t54.5 -149.5q0 -45 -13.5 -83.5t-40.5 -66t-68.5 -43.5t-97.5 -16h-108v-132h-100v651zM282 203q66 0 93.5 29.5t27.5 100.5v15q0 68 -28 94.5t-95 26.5h-99v-266h101z" />
    <glyph glyph-name="thorn" horiz-adv-x="518" 
d="M166 -162h-92v880h92v-238q21 21 52 37.5t76 16.5q88 0 135 -66.5t47 -205.5q0 -143 -47 -209.5t-138 -66.5q-24 0 -42.5 4t-29.5 8l-53 48v-208zM166 89q23 -17 47.5 -28t55.5 -11q29 0 50 9.5t34.5 32t20.5 59t7 90.5v35q0 54 -7.5 89.5t-21 56.5t-33.5 29t-45 8
q-40 0 -66 -16t-42 -30v-324z" />
    <glyph glyph-name="Zcaron" horiz-adv-x="496" 
d="M45 92l273 430l55 62l-97 -10h-220v77h392v-96l-270 -423l-65 -71l106 14h231v-75h-405v92zM97 888h88l41 -76l23 -65l23 65l45 76h79l-112 -176h-74z" />
    <glyph glyph-name="zcaron" horiz-adv-x="422" 
d="M35 79l225 328l48 49l-94 -8h-166v76h337v-84l-222 -327l-54 -54l97 12h182v-71h-353v79zM63 769h88l41 -76l23 -65l23 65l45 76h79l-112 -176h-74z" />
    <glyph glyph-name="onehalf" horiz-adv-x="836" 
d="M36 309h58v254h-58v36l96 57h41v-347h55v-50h-192v50zM544 651h68l-368 -651h-69zM538 57l4 12q11 41 39 69.5t58 53.5q30 26 44.5 43.5t14.5 43.5v8q0 32 -13.5 43t-42.5 11q-23 0 -43 -6t-44 -15l-12 55q18 11 45 20.5t70 9.5q66 0 95 -31.5t29 -82.5q0 -27 -8 -47
t-21.5 -36.5t-31.5 -31t-39 -29.5q-26 -20 -45 -38.5t-27 -47.5l-2 -9l68 10h102v-62h-240v57z" />
    <glyph glyph-name="onequarter" horiz-adv-x="836" 
d="M38 309h59v254h-59v36l97 57h40v-347h56v-50h-193v50zM555 651h69l-369 -651h-68zM659 90h-179v42l158 266h99v-252h51v-56h-51v-90h-78v90zM661 146v117l5 95l-34 -79l-78 -133h107z" />
    <glyph glyph-name="onesuperior" horiz-adv-x="293" 
d="M47 309h58v255h-58v36l96 57h41v-348h55v-50h-192v50z" />
    <glyph glyph-name="threequarters" horiz-adv-x="836" 
d="M156 250q-44 0 -73 8.5t-47 19.5l13 52q24 -9 43.5 -14.5t47.5 -5.5q37 0 55 13.5t18 45.5v9q0 33 -19.5 46t-61.5 13h-35v53h28q45 0 63 13t18 42v6q0 30 -16.5 40.5t-50.5 10.5q-25 0 -42 -4t-42 -12l-8 55q18 8 43 15.5t63 7.5q68 0 100.5 -29t32.5 -76
q0 -41 -22.5 -61t-64.5 -31q46 -8 71.5 -32t25.5 -72q0 -51 -37 -82t-103 -31zM579 651h68l-368 -651h-69zM677 90h-179v42l158 266h99v-252h51v-56h-51v-90h-78v90zM679 146v117l5 95l-34 -79l-79 -133h108z" />
    <glyph glyph-name="threesuperior" horiz-adv-x="352" 
d="M158 250q-44 0 -73.5 8.5t-47.5 19.5l13 52q25 -9 44.5 -14.5t46.5 -5.5q37 0 55 13.5t18 45.5v9q0 33 -19 46t-61 13h-35v53h28q45 0 63 13t18 42v6q0 30 -16.5 40.5t-50.5 10.5q-25 0 -42.5 -4t-42.5 -12l-8 55q18 8 43.5 15.5t63.5 7.5q67 0 99.5 -29t32.5 -76
q0 -41 -22.5 -61t-64.5 -31q46 -8 72 -32t26 -72q0 -51 -37 -82t-103 -31z" />
    <glyph glyph-name="twosuperior" horiz-adv-x="335" 
d="M43 315l4 12q12 42 39.5 70t57.5 54t45 43.5t15 43.5v8q0 31 -14 42t-42 11q-23 0 -43 -5.5t-45 -15.5l-11 56q18 11 45 20.5t70 9.5q65 0 94.5 -32t29.5 -83q0 -26 -8 -46t-21.5 -36.5t-32 -31.5t-38.5 -30q-27 -20 -46 -38t-27 -48l-2 -8l69 9h101v-61h-240v56z" />
    <glyph glyph-name="brokenbar" horiz-adv-x="199" 
d="M63 718h73v-369h-73v369zM63 273h73v-373h-73v373z" />
    <glyph glyph-name="minus" horiz-adv-x="497" 
d="M54 343h388v-77h-388v77z" />
    <glyph glyph-name="multiply" horiz-adv-x="497" 
d="M432 170l-53 -52l-130 132l-5.5 -5.5t-14.5 -15t-21 -21.5l-24 -24q-29 -29 -65 -66l-53 52l131 133l-131 134l53 52q36 -37 65 -66q25 -25 45 -45.5t20 -21.5l130 133l53 -52l-131 -133z" />
    <glyph glyph-name="eth" horiz-adv-x="505" 
d="M202 544l-25 48l84 42q-15 22 -32 42.5t-34 41.5h86q11 -10 22.5 -22t24.5 -28l86 43l25 -49l-76 -38q19 -28 37 -62t32 -75.5t22.5 -90.5t8.5 -106q0 -81 -14.5 -138.5t-41.5 -94t-66 -54t-88 -17.5q-97 0 -154 65t-57 197q0 67 15 116t41.5 80.5t62.5 46.5t79 15
q13 0 22.5 -2t18.5 -4l71 -57q-10 43 -25 78.5t-35 67.5zM361 395q-21 17 -46 28.5t-63 11.5q-27 0 -48.5 -8t-36 -27.5t-22 -53.5t-7.5 -87v-16q0 -55 7.5 -91t22.5 -57t36.5 -29.5t48.5 -8.5t48.5 8t36.5 31.5t22.5 65.5t7.5 111v16q0 29 -2 55.5t-5 50.5z" />
    <glyph glyph-name="Adieresis" horiz-adv-x="573" 
d="M116 0h-87l211 651h98l207 -651h-104l-38 129h-247zM308 445l-24 129l-29 -129l-77 -247h204zM371 714q-23 0 -40.5 16.5t-17.5 42.5t17.5 43t40.5 17q24 0 41 -17t17 -43t-17 -42.5t-41 -16.5zM197 714q-24 0 -41 16.5t-17 42.5t17 43t41 17q23 0 40.5 -17t17.5 -43
t-17.5 -42.5t-40.5 -16.5z" />
    <glyph glyph-name="Aring" horiz-adv-x="573" 
d="M230 624q-20 12 -32.5 35.5t-12.5 58.5q0 56 29.5 83.5t71.5 27.5t71.5 -27.5t29.5 -83.5q0 -33 -11 -56t-30 -36l8.5 -26.5t22.5 -70.5t32 -100.5t37 -115.5q44 -138 99 -313h-104l-38 129h-247l-40 -129h-87zM286 653q24 0 36 12t12 53t-12 53.5t-36 12.5
q-23 0 -35.5 -12.5t-12.5 -53.5t12.5 -53t35.5 -12zM382 198l-74 247l-24 129l-29 -129l-77 -247h204z" />
    <glyph glyph-name="Ccedilla" horiz-adv-x="506" 
d="M254 -10q-57 9 -96.5 38t-64.5 73.5t-36 102t-11 123.5q0 72 14.5 133.5t45.5 106.5t81 70.5t120 25.5q51 0 88.5 -9.5t71.5 -24.5l-12 -79q-23 7 -42 12.5t-37 9t-36 5.5t-39 2q-31 0 -58.5 -10t-47.5 -36.5t-31.5 -71.5t-11.5 -114v-32q0 -71 10.5 -119t30 -77
t47.5 -41.5t63 -12.5q24 0 43 3t36.5 8t35 12t38.5 15l22 -76q-35 -17 -77.5 -29t-96.5 -12h-3l-30 -70l39 16q32 -2 55.5 -23t23.5 -59q0 -47 -32.5 -68.5t-77.5 -21.5q-26 0 -49.5 7t-37.5 16l8 42q20 -8 37.5 -13.5t34.5 -5.5q53 0 53 38v8q0 19 -7.5 27t-27.5 8
q-17 0 -25 -4t-18 -12l-31 25l38 94v0z" />
    <glyph glyph-name="Eacute" horiz-adv-x="505" 
d="M81 651h362v-81h-262v-199h225v-75h-225v-217h280v-79h-380v651zM271 876h114l-113 -164h-55z" />
    <glyph glyph-name="Ntilde" horiz-adv-x="608" 
d="M82 651h110l201 -389l69 -189l-24 220v358h89v-651h-106l-211 405l-62 179l22 -208v-376h-88v651zM355 715q-20 0 -33.5 8t-27.5 23l-19 22q-9 10 -14.5 14.5t-14.5 4.5q-28 0 -28 -55v-10h-52q0 66 25 100.5t58 34.5q20 0 33.5 -8t27.5 -23l18 -22q10 -10 15.5 -14.5
t14.5 -4.5q28 0 28 54v10h52q0 -65 -25 -99.5t-58 -34.5z" />
    <glyph glyph-name="Odieresis" horiz-adv-x="609" 
d="M303 -14q-67 0 -115.5 25t-80 70.5t-46.5 108t-15 137.5q0 74 15.5 135.5t47.5 106t81 69.5t115 25t115 -24.5t80.5 -68.5t47 -105.5t15.5 -135.5q0 -78 -15.5 -141.5t-47 -108t-80.5 -69t-117 -24.5zM305 60q38 0 66.5 13t47.5 43.5t28.5 79.5t9.5 121v34q0 65 -9.5 109
t-28.5 72t-47.5 40t-67.5 12q-77 0 -115 -54t-38 -183v-33q0 -72 10 -120.5t29.5 -78.5t48.5 -42.5t66 -12.5zM389 714q-23 0 -40.5 16.5t-17.5 42.5t17.5 43t40.5 17q24 0 41 -17t17 -43t-17 -42.5t-41 -16.5zM215 714q-24 0 -41 16.5t-17 42.5t17 43t41 17q23 0 40.5 -17
t17.5 -43t-17.5 -42.5t-40.5 -16.5z" />
    <glyph glyph-name="Udieresis" horiz-adv-x="599" 
d="M417 651h101v-651h-62l-28 64l-40 -55q-16 -7 -46.5 -15t-71.5 -8q-48 0 -84 14t-60 45t-36.5 80t-12.5 118v408h100v-435q0 -46 6 -76t19.5 -47t35 -24t51.5 -7q45 0 74.5 11t53.5 25v553zM383 714q-23 0 -40.5 16.5t-17.5 42.5t17.5 43t40.5 17q24 0 41 -17t17 -43
t-17 -42.5t-41 -16.5zM209 714q-24 0 -41 16.5t-17 42.5t17 43t41 17q23 0 40.5 -17t17.5 -43t-17.5 -42.5t-40.5 -16.5z" />
    <glyph glyph-name="aacute" horiz-adv-x="489" 
d="M317 364q0 20 -4 37t-13.5 29t-25.5 19t-41 7q-36 0 -74 -9.5t-81 -24.5l-14 71q35 15 78 28t97 13q90 0 129.5 -47.5t39.5 -154.5v-246q0 -21 7.5 -28t24.5 -7h21l3 -45q-8 -6 -22.5 -11.5t-35.5 -5.5q-12 0 -24 1.5t-23 5.5l-37 58l-44 -51q-15 -7 -37 -12t-50 -5
q-30 0 -57.5 8t-48 26t-32.5 46.5t-12 70.5q0 40 11 68.5t34 47.5t59 30t86 17l86 10v54zM317 254l-80 -10q-57 -6 -82 -27t-25 -72v-8q0 -45 22 -65t67 -20q38 0 61 13t37 30v159zM249 757h114l-113 -164h-55z" />
    <glyph glyph-name="agrave" horiz-adv-x="489" 
d="M317 364q0 20 -4 37t-13.5 29t-25.5 19t-41 7q-36 0 -74 -9.5t-81 -24.5l-14 71q35 15 78 28t97 13q90 0 129.5 -47.5t39.5 -154.5v-246q0 -21 7.5 -28t24.5 -7h21l3 -45q-8 -6 -22.5 -11.5t-35.5 -5.5q-12 0 -24 1.5t-23 5.5l-37 58l-44 -51q-15 -7 -37 -12t-50 -5
q-30 0 -57.5 8t-48 26t-32.5 46.5t-12 70.5q0 40 11 68.5t34 47.5t59 30t86 17l86 10v54zM317 254l-80 -10q-57 -6 -82 -27t-25 -72v-8q0 -45 22 -65t67 -20q38 0 61 13t37 30v159zM111 757h115l53 -164h-54z" />
    <glyph glyph-name="acircumflex" horiz-adv-x="489" 
d="M317 364q0 20 -4 37t-13.5 29t-25.5 19t-41 7q-36 0 -74 -9.5t-81 -24.5l-14 71q35 15 78 28t97 13q90 0 129.5 -47.5t39.5 -154.5v-246q0 -21 7.5 -28t24.5 -7h21l3 -45q-8 -6 -22.5 -11.5t-35.5 -5.5q-12 0 -24 1.5t-23 5.5l-37 58l-44 -51q-15 -7 -37 -12t-50 -5
q-30 0 -57.5 8t-48 26t-32.5 46.5t-12 70.5q0 40 11 68.5t34 47.5t59 30t86 17l86 10v54zM317 254l-80 -10q-57 -6 -82 -27t-25 -72v-8q0 -45 22 -65t67 -20q38 0 61 13t37 30v159zM201 769h74l113 -176h-88l-41 76l-23 65l-23 -65l-45 -76h-79z" />
    <glyph glyph-name="adieresis" horiz-adv-x="489" 
d="M317 364q0 20 -4 37t-13.5 29t-25.5 19t-41 7q-36 0 -74 -9.5t-81 -24.5l-14 71q35 15 78 28t97 13q90 0 129.5 -47.5t39.5 -154.5v-246q0 -21 7.5 -28t24.5 -7h21l3 -45q-8 -6 -22.5 -11.5t-35.5 -5.5q-12 0 -24 1.5t-23 5.5l-37 58l-44 -51q-15 -7 -37 -12t-50 -5
q-30 0 -57.5 8t-48 26t-32.5 46.5t-12 70.5q0 40 11 68.5t34 47.5t59 30t86 17l86 10v54zM317 254l-80 -10q-57 -6 -82 -27t-25 -72v-8q0 -45 22 -65t67 -20q38 0 61 13t37 30v159zM330 595q-23 0 -40.5 16.5t-17.5 42.5t17.5 43t40.5 17q24 0 41 -17t17 -43t-17 -42.5
t-41 -16.5zM156 595q-24 0 -41 16.5t-17 42.5t17 43t41 17q23 0 40.5 -17t17.5 -43t-17.5 -42.5t-40.5 -16.5z" />
    <glyph glyph-name="atilde" horiz-adv-x="489" 
d="M317 364q0 20 -4 37t-13.5 29t-25.5 19t-41 7q-36 0 -74 -9.5t-81 -24.5l-14 71q35 15 78 28t97 13q90 0 129.5 -47.5t39.5 -154.5v-246q0 -21 7.5 -28t24.5 -7h21l3 -45q-8 -6 -22.5 -11.5t-35.5 -5.5q-12 0 -24 1.5t-23 5.5l-37 58l-44 -51q-15 -7 -37 -12t-50 -5
q-30 0 -57.5 8t-48 26t-32.5 46.5t-12 70.5q0 40 11 68.5t34 47.5t59 30t86 17l86 10v54zM317 254l-80 -10q-57 -6 -82 -27t-25 -72v-8q0 -45 22 -65t67 -20q38 0 61 13t37 30v159zM290 596q-20 0 -33.5 8t-27.5 23l-19 22q-9 10 -14.5 14.5t-14.5 4.5q-28 0 -28 -55v-10
h-52q0 66 25 100.5t58 34.5q20 0 33.5 -8t27.5 -23l18 -22q10 -10 15.5 -14.5t14.5 -4.5q28 0 28 54v10h52q0 -65 -25 -99.5t-58 -34.5z" />
    <glyph glyph-name="aring" horiz-adv-x="489" 
d="M317 364q0 20 -4 37t-13.5 29t-25.5 19t-41 7q-36 0 -74 -9.5t-81 -24.5l-14 71q35 15 78 28t97 13q90 0 129.5 -47.5t39.5 -154.5v-246q0 -21 7.5 -28t24.5 -7h21l3 -45q-8 -6 -22.5 -11.5t-35.5 -5.5q-12 0 -24 1.5t-23 5.5l-37 58l-44 -51q-15 -7 -37 -12t-50 -5
q-30 0 -57.5 8t-48 26t-32.5 46.5t-12 70.5q0 40 11 68.5t34 47.5t59 30t86 17l86 10v54zM317 254l-80 -10q-57 -6 -82 -27t-25 -72v-8q0 -45 22 -65t67 -20q38 0 61 13t37 30v159zM239 589q-42 0 -71.5 27t-29.5 83t29.5 83.5t71.5 27.5t71.5 -27.5t29.5 -83.5t-29.5 -83
t-71.5 -27zM239 635q23 0 35.5 11.5t12.5 52.5t-12.5 53.5t-35.5 12.5t-35.5 -12.5t-12.5 -53.5t12.5 -52.5t35.5 -11.5z" />
    <glyph glyph-name="ccedilla" horiz-adv-x="424" 
d="M207 -11q-81 14 -123 82.5t-42 190.5q0 138 52 205t154 67q44 0 80 -9.5t62 -21.5l-14 -70q-34 11 -62.5 17.5t-59.5 6.5q-28 0 -50 -7.5t-36.5 -28t-22 -56t-7.5 -92.5v-16q0 -58 7.5 -96t22.5 -60.5t36.5 -31.5t49.5 -9q36 0 64.5 9.5t61.5 24.5l15 -69
q-24 -14 -60 -26t-81 -13l-30 -70l39 16q32 -2 55.5 -23t23.5 -59q0 -47 -32.5 -68.5t-77.5 -21.5q-26 0 -49.5 7t-37.5 16l8 42q20 -8 37.5 -13.5t34.5 -5.5q53 0 53 38v8q0 19 -7.5 27t-27.5 8q-17 0 -25 -4t-18 -12l-31 25l38 93v0z" />
    <glyph glyph-name="eacute" horiz-adv-x="482" 
d="M138 233q1 -49 8.5 -82t23 -53t39.5 -29t57 -9q37 0 70 10t67 24l15 -68q-23 -13 -65.5 -26.5t-92.5 -13.5q-108 0 -163 69t-55 206q0 140 57 206.5t151 66.5q98 0 143 -65.5t45 -178.5v-57h-300v0zM349 299v16q0 83 -24 117t-74 34q-25 0 -45.5 -7.5t-34.5 -26
t-22.5 -51t-10.5 -82.5h211zM260 757h114l-113 -164h-55z" />
    <glyph glyph-name="egrave" horiz-adv-x="482" 
d="M138 233q1 -49 8.5 -82t23 -53t39.5 -29t57 -9q37 0 70 10t67 24l15 -68q-23 -13 -65.5 -26.5t-92.5 -13.5q-108 0 -163 69t-55 206q0 140 57 206.5t151 66.5q98 0 143 -65.5t45 -178.5v-57h-300v0zM349 299v16q0 83 -24 117t-74 34q-25 0 -45.5 -7.5t-34.5 -26
t-22.5 -51t-10.5 -82.5h211zM113 757h115l53 -164h-54z" />
    <glyph glyph-name="ecircumflex" horiz-adv-x="482" 
d="M138 233q1 -49 8.5 -82t23 -53t39.5 -29t57 -9q37 0 70 10t67 24l15 -68q-23 -13 -65.5 -26.5t-92.5 -13.5q-108 0 -163 69t-55 206q0 140 57 206.5t151 66.5q98 0 143 -65.5t45 -178.5v-57h-300v0zM349 299v16q0 83 -24 117t-74 34q-25 0 -45.5 -7.5t-34.5 -26
t-22.5 -51t-10.5 -82.5h211zM205 769h74l113 -176h-88l-41 76l-23 65l-23 -65l-45 -76h-79z" />
    <glyph glyph-name="edieresis" horiz-adv-x="482" 
d="M138 233q1 -49 8.5 -82t23 -53t39.5 -29t57 -9q37 0 70 10t67 24l15 -68q-23 -13 -65.5 -26.5t-92.5 -13.5q-108 0 -163 69t-55 206q0 140 57 206.5t151 66.5q98 0 143 -65.5t45 -178.5v-57h-300v0zM349 299v16q0 83 -24 117t-74 34q-25 0 -45.5 -7.5t-34.5 -26
t-22.5 -51t-10.5 -82.5h211zM329 595q-23 0 -40.5 16.5t-17.5 42.5t17.5 43t40.5 17q24 0 41 -17t17 -43t-17 -42.5t-41 -16.5zM155 595q-24 0 -41 16.5t-17 42.5t17 43t41 17q23 0 40.5 -17t17.5 -43t-17.5 -42.5t-40.5 -16.5z" />
    <glyph glyph-name="iacute" horiz-adv-x="247" 
d="M77 524h92v-524h-92v524zM140 757h114l-113 -164h-55z" />
    <glyph glyph-name="igrave" horiz-adv-x="247" 
d="M77 524h92v-524h-92v524zM-7 757h115l53 -164h-54z" />
    <glyph glyph-name="icircumflex" horiz-adv-x="247" 
d="M77 524h92v-524h-92v524zM85 769h74l113 -176h-88l-41 76l-23 65l-23 -65l-45 -76h-79z" />
    <glyph glyph-name="idieresis" horiz-adv-x="247" 
d="M77 524h92v-524h-92v524zM210 595q-23 0 -40.5 16.5t-17.5 42.5t17.5 43t40.5 17q24 0 41 -17t17 -43t-17 -42.5t-41 -16.5zM36 595q-24 0 -41 16.5t-17 42.5t17 43t41 17q23 0 40.5 -17t17.5 -43t-17.5 -42.5t-40.5 -16.5z" />
    <glyph glyph-name="ntilde" horiz-adv-x="519" 
d="M213 513q17 8 40.5 14.5t54.5 6.5q66 0 103.5 -39t37.5 -127v-368h-92v380q0 45 -21 62t-56 17t-60 -10.5t-54 -28.5v-420h-92v524h56l34 -67zM311 596q-20 0 -33.5 8t-27.5 23l-19 22q-9 10 -14.5 14.5t-14.5 4.5q-28 0 -28 -55v-10h-52q0 66 25 100.5t58 34.5
q20 0 33.5 -8t27.5 -23l18 -22q10 -10 15.5 -14.5t14.5 -4.5q28 0 28 54v10h52q0 -65 -25 -99.5t-58 -34.5z" />
    <glyph glyph-name="oacute" horiz-adv-x="505" 
d="M253 -14q-98 0 -154.5 70.5t-56.5 203.5q0 134 57.5 204t153.5 70q97 0 153.5 -69t56.5 -202q0 -135 -56 -206t-154 -71zM253 57q27 0 48 10t35.5 32.5t22.5 59.5t8 92v16q0 57 -7.5 94.5t-21.5 59.5t-35.5 31t-49.5 9t-49.5 -8.5t-36 -30.5t-22 -58t-7.5 -92v-17
q0 -56 8 -94t22.5 -61t36 -33t48.5 -10zM270 757h114l-113 -164h-55z" />
    <glyph glyph-name="ograve" horiz-adv-x="505" 
d="M253 -14q-98 0 -154.5 70.5t-56.5 203.5q0 134 57.5 204t153.5 70q97 0 153.5 -69t56.5 -202q0 -135 -56 -206t-154 -71zM253 57q27 0 48 10t35.5 32.5t22.5 59.5t8 92v16q0 57 -7.5 94.5t-21.5 59.5t-35.5 31t-49.5 9t-49.5 -8.5t-36 -30.5t-22 -58t-7.5 -92v-17
q0 -56 8 -94t22.5 -61t36 -33t48.5 -10zM119 757h115l53 -164h-54z" />
    <glyph glyph-name="ocircumflex" horiz-adv-x="505" 
d="M253 -14q-98 0 -154.5 70.5t-56.5 203.5q0 134 57.5 204t153.5 70q97 0 153.5 -69t56.5 -202q0 -135 -56 -206t-154 -71zM253 57q27 0 48 10t35.5 32.5t22.5 59.5t8 92v16q0 57 -7.5 94.5t-21.5 59.5t-35.5 31t-49.5 9t-49.5 -8.5t-36 -30.5t-22 -58t-7.5 -92v-17
q0 -56 8 -94t22.5 -61t36 -33t48.5 -10zM213 769h74l113 -176h-88l-41 76l-23 65l-23 -65l-45 -76h-79z" />
    <glyph glyph-name="odieresis" horiz-adv-x="505" 
d="M253 -14q-98 0 -154.5 70.5t-56.5 203.5q0 134 57.5 204t153.5 70q97 0 153.5 -69t56.5 -202q0 -135 -56 -206t-154 -71zM253 57q27 0 48 10t35.5 32.5t22.5 59.5t8 92v16q0 57 -7.5 94.5t-21.5 59.5t-35.5 31t-49.5 9t-49.5 -8.5t-36 -30.5t-22 -58t-7.5 -92v-17
q0 -56 8 -94t22.5 -61t36 -33t48.5 -10zM338 595q-23 0 -40.5 16.5t-17.5 42.5t17.5 43t40.5 17q24 0 41 -17t17 -43t-17 -42.5t-41 -16.5zM164 595q-24 0 -41 16.5t-17 42.5t17 43t41 17q23 0 40.5 -17t17.5 -43t-17.5 -42.5t-40.5 -16.5z" />
    <glyph glyph-name="otilde" horiz-adv-x="505" 
d="M253 -14q-98 0 -154.5 70.5t-56.5 203.5q0 134 57.5 204t153.5 70q97 0 153.5 -69t56.5 -202q0 -135 -56 -206t-154 -71zM253 57q27 0 48 10t35.5 32.5t22.5 59.5t8 92v16q0 57 -7.5 94.5t-21.5 59.5t-35.5 31t-49.5 9t-49.5 -8.5t-36 -30.5t-22 -58t-7.5 -92v-17
q0 -56 8 -94t22.5 -61t36 -33t48.5 -10zM304 596q-20 0 -33.5 8t-27.5 23l-19 22q-9 10 -14.5 14.5t-14.5 4.5q-28 0 -28 -55v-10h-52q0 66 25 100.5t58 34.5q20 0 33.5 -8t27.5 -23l18 -22q10 -10 15.5 -14.5t14.5 -4.5q28 0 28 54v10h52q0 -65 -25 -99.5t-58 -34.5z" />
    <glyph glyph-name="uacute" horiz-adv-x="517" 
d="M351 524h92v-524h-57l-33 64l-45 -55q-18 -8 -42.5 -14t-55.5 -6q-64 0 -102 40t-38 127v368h92v-379q0 -49 20.5 -67.5t54.5 -18.5q37 0 62.5 10.5t51.5 27.5v427zM277 757h114l-113 -164h-55z" />
    <glyph glyph-name="ugrave" horiz-adv-x="517" 
d="M351 524h92v-524h-57l-33 64l-45 -55q-18 -8 -42.5 -14t-55.5 -6q-64 0 -102 40t-38 127v368h92v-379q0 -49 20.5 -67.5t54.5 -18.5q37 0 62.5 10.5t51.5 27.5v427zM126 757h115l53 -164h-54z" />
    <glyph glyph-name="ucircumflex" horiz-adv-x="517" 
d="M351 524h92v-524h-57l-33 64l-45 -55q-18 -8 -42.5 -14t-55.5 -6q-64 0 -102 40t-38 127v368h92v-379q0 -49 20.5 -67.5t54.5 -18.5q37 0 62.5 10.5t51.5 27.5v427zM220 769h74l113 -176h-88l-41 76l-23 65l-23 -65l-45 -76h-79z" />
    <glyph glyph-name="udieresis" horiz-adv-x="517" 
d="M351 524h92v-524h-57l-33 64l-45 -55q-18 -8 -42.5 -14t-55.5 -6q-64 0 -102 40t-38 127v368h92v-379q0 -49 20.5 -67.5t54.5 -18.5q37 0 62.5 10.5t51.5 27.5v427zM345 595q-23 0 -40.5 16.5t-17.5 42.5t17.5 43t40.5 17q24 0 41 -17t17 -43t-17 -42.5t-41 -16.5z
M171 595q-24 0 -41 16.5t-17 42.5t17 43t41 17q23 0 40.5 -17t17.5 -43t-17.5 -42.5t-40.5 -16.5z" />
    <glyph glyph-name="degree" horiz-adv-x="321" 
d="M161 364q-25 0 -47.5 9t-39.5 27.5t-27 47t-10 66.5t10 66t27.5 46.5t40 27.5t46.5 9t46.5 -9t39.5 -27.5t27 -46t10 -65.5q0 -39 -10 -67t-26.5 -47t-39 -28t-47.5 -9zM161 414q27 0 41.5 19t14.5 72v17q0 53 -14.5 71t-41.5 18q-14 0 -25 -4t-18 -14t-10.5 -27
t-3.5 -43v-16q0 -55 14.5 -74t42.5 -19z" />
    <glyph glyph-name="registered" horiz-adv-x="458" 
d="M227 168q-99 0 -146 66t-47 184q0 114 48.5 179.5t146.5 65.5q97 0 146 -64.5t49 -179.5q0 -128 -48 -189.5t-149 -61.5zM227 205q43 0 73.5 11.5t49.5 37t28 66t9 99.5q0 108 -37 158t-121 50q-85 0 -122 -51.5t-37 -157.5q0 -111 36 -162t121 -51zM287 369l46 -93h-54
l-52 111h-34v-111h-51v284h89q49 0 73 -23t24 -64q0 -29 -14 -51t-55 -29zM228 420q26 0 36.5 11.5t10.5 36.5v6q0 24 -11 34.5t-36 10.5h-35v-99h35z" />
    <glyph glyph-name="copyright" horiz-adv-x="616" 
d="M306 -14q-135 0 -200 89.5t-65 251.5q0 78 16.5 140.5t50 106t83.5 66.5t117 23q133 0 200 -88t67 -246q0 -174 -66 -258.5t-203 -84.5zM306 28q60 0 103 16.5t70 52.5t39.5 93.5t12.5 138.5q0 149 -53 220.5t-170 71.5q-119 0 -171 -73t-52 -221q0 -153 50.5 -226
t170.5 -73zM313 96q-46 0 -78 18t-52 49t-28.5 73.5t-8.5 90.5t9 89.5t29 72t52 48t78 17.5q35 0 59.5 -6.5t50.5 -16.5l-9 -63q-32 11 -52 15.5t-47 4.5q-41 0 -64.5 -33t-23.5 -114v-23q0 -85 22 -121.5t67 -36.5q29 0 49 7t49 18l18 -57q-28 -16 -56 -24t-64 -8z" />
    <glyph glyph-name="trademark" horiz-adv-x="738" 
d="M343 651h86l64 -232l15 -109l18 109l67 232h89v-374h-71v141l14 199l-38 -166l-52 -174h-63l-49 178l-33 162l12 -194v-146h-59v374zM40 594v57h256v-57h-92v-317h-72v317h-92z" />
    <glyph glyph-name="notequal" horiz-adv-x="601" 
d="M319 455v69h59v60q0 73 32 108t90 35q34 0 59 -7t42 -16l-5 -51h-78q-26 0 -37.5 -11t-11.5 -35v-83h116v-69h-116v-455h-91v455h-59zM26 455v69h64v60q0 74 33 108.5t90 34.5q35 0 60 -7t42 -15l-4 -52h-76q-30 0 -42 -11t-12 -35v-83h96v-69h-96v-455h-91v455h-64z" />
    <glyph glyph-name="infinity" horiz-adv-x="836" 
d="M710 613q-25 0 -43.5 16.5t-18.5 42.5q0 27 18.5 43.5t43.5 16.5q26 0 44.5 -16.5t18.5 -43.5q0 -26 -18.5 -42.5t-44.5 -16.5zM319 455v69h59v60q0 73 32.5 108t89.5 35q29 0 52 -7.5t37 -15.5l-5 -51h-60q-30 0 -42.5 -11t-12.5 -35v-83h115v-69h-115v-455h-91v455h-59
zM26 455v69h64v60q0 74 33 108.5t90 34.5q35 0 60 -7t42 -15l-4 -52h-76q-30 0 -42 -11t-12 -35v-83h96v-69h-96v-455h-91v455h-64zM664 524h92v-524h-92v524z" />
    <glyph glyph-name="plusminus" horiz-adv-x="831" 
d="M319 455v69h59v60q0 73 32.5 108t89.5 35q31 0 55 -7.5t38 -15.5l-4 -51h-65q-30 0 -42.5 -11t-12.5 -35v-83h115v-69h-115v-455h-91v455h-59zM26 455v69h64v60q0 74 33 108.5t90 34.5q35 0 60 -7t42 -15l-4 -52h-76q-30 0 -42 -11t-12 -35v-83h96v-69h-96v-455h-91v455
h-64zM659 718h91v-718h-91v718z" />
    <glyph glyph-name="lessequal" horiz-adv-x="265" 
d="M81 444v248h104v-248l-30 -248h-44zM72 -121l43 125l-35 9q-7 6 -12.5 17t-5.5 28q0 32 21 52t49 20q29 0 50 -20t21 -51q0 -27 -13 -52t-28 -48l-60 -93z" />
    <glyph glyph-name="greaterequal" horiz-adv-x="433" 
d="M127 310q-4 29 4.5 44t40.5 27q35 11 57 21t34 24t16.5 34t4.5 51v10q0 29 -5 48.5t-17.5 31t-32.5 16.5t-50 5q-38 0 -69 -7.5t-71 -21.5l-14 70q26 14 70.5 26.5t99.5 12.5q94 0 143.5 -45.5t49.5 -134.5q0 -46 -12.5 -79t-35.5 -55.5t-56 -37t-74 -23.5v-131h-69z
M117 -121l43 125l-35 9q-7 6 -13 17t-6 28q0 32 21 52t50 20t50 -20t21 -51q0 -27 -13 -52t-28 -48l-60 -93z" />
    <glyph glyph-name="mu" horiz-adv-x="521" 
d="M355 524h92v-524h-57l-33 64l-45 -57q-14 -7 -35.5 -12t-47.5 -5q-20 0 -31 3l-53 48l19 -93v-110h-90v686h92v-379q0 -49 20.5 -67.5t54.5 -18.5q37 0 62.5 10.5t51.5 27.5v427z" />
    <glyph glyph-name="partialdiff" horiz-adv-x="594" 
d="M75 -14q-22 0 -36 20.5t-23.5 62.5t-16.5 105.5t-14 150.5h29q5 -50 9 -105t10.5 -101t16 -76t25.5 -30t25.5 30t16 76t11 101t8.5 105q8 87 14 150.5t15 105t22.5 62t35.5 20.5t35.5 -20.5t22.5 -62t15.5 -105t13.5 -150.5q5 -50 9 -105t10.5 -101t16 -76t25.5 -30
t25.5 30t16 76t11 101t8.5 105q8 87 14 150.5t15 105t22.5 62t35.5 20.5t36 -20.5t23.5 -62t16.5 -105t14 -150.5h-29q-4 50 -8.5 105t-11 101t-16 75.5t-25.5 29.5t-25 -29.5t-15 -75.5t-9.5 -101t-8.5 -105q-7 -87 -14 -150.5t-16.5 -105.5t-23.5 -62.5t-36 -20.5
t-36 20.5t-23.5 62.5t-16 105.5t-14.5 150.5q-4 50 -8 105t-10 101t-15 75.5t-25 29.5t-25 -29.5t-15 -75.5t-9.5 -101t-8.5 -105q-7 -87 -14 -150.5t-16.5 -105.5t-23.5 -62.5t-36 -20.5z" />
    <glyph glyph-name="summation" horiz-adv-x="594" 
d="M75 -14q-22 0 -36 20.5t-23.5 62.5t-16.5 105.5t-14 150.5h29q5 -50 9 -105t10.5 -101t16 -76t25.5 -30t25.5 30t16 76t11 101t8.5 105q8 87 14 150.5t15 105t22.5 62t35.5 20.5t35.5 -20.5t22.5 -62t15.5 -105t13.5 -150.5q5 -50 9 -105t10.5 -101t16 -76t25.5 -30
t25.5 30t16 76t11 101t8.5 105q8 87 14 150.5t15 105t22.5 62t35.5 20.5t36 -20.5t23.5 -62t16.5 -105t14 -150.5h-29q-4 50 -8.5 105t-11 101t-16 75.5t-25.5 29.5t-25 -29.5t-15 -75.5t-9.5 -101t-8.5 -105q-7 -87 -14 -150.5t-16.5 -105.5t-23.5 -62.5t-36 -20.5
t-36 20.5t-23.5 62.5t-16 105.5t-14.5 150.5q-4 50 -8 105t-10 101t-15 75.5t-25 29.5t-25 -29.5t-15 -75.5t-9.5 -101t-8.5 -105q-7 -87 -14 -150.5t-16.5 -105.5t-23.5 -62.5t-36 -20.5z" />
    <glyph glyph-name="product" horiz-adv-x="594" 
d="M75 -14q-22 0 -36 20.5t-23.5 62.5t-16.5 105.5t-14 150.5h29q5 -50 9 -105t10.5 -101t16 -76t25.5 -30t25.5 30t16 76t11 101t8.5 105q8 87 14 150.5t15 105t22.5 62t35.5 20.5t35.5 -20.5t22.5 -62t15.5 -105t13.5 -150.5q5 -50 9 -105t10.5 -101t16 -76t25.5 -30
t25.5 30t16 76t11 101t8.5 105q8 87 14 150.5t15 105t22.5 62t35.5 20.5t36 -20.5t23.5 -62t16.5 -105t14 -150.5h-29q-4 50 -8.5 105t-11 101t-16 75.5t-25.5 29.5t-25 -29.5t-15 -75.5t-9.5 -101t-8.5 -105q-7 -87 -14 -150.5t-16.5 -105.5t-23.5 -62.5t-36 -20.5
t-36 20.5t-23.5 62.5t-16 105.5t-14.5 150.5q-4 50 -8 105t-10 101t-15 75.5t-25 29.5t-25 -29.5t-15 -75.5t-9.5 -101t-8.5 -105q-7 -87 -14 -150.5t-16.5 -105.5t-23.5 -62.5t-36 -20.5z" />
    <glyph glyph-name="pi" horiz-adv-x="616" 
d="M306 -14q-135 0 -200 89.5t-65 251.5q0 78 16.5 140.5t50 106t83.5 66.5t117 23q133 0 200 -88t67 -246q0 -174 -66 -258.5t-203 -84.5zM306 28q60 0 103 16.5t70 52.5t39.5 93.5t12.5 138.5q0 149 -53 220.5t-170 71.5q-119 0 -171 -73t-52 -221q0 -153 50.5 -226
t170.5 -73zM185 542h132q74 0 110 -40.5t36 -102.5q0 -30 -8.5 -56.5t-26 -46t-45 -30.5t-66.5 -11h-57v-153h-75v440zM312 310q44 0 59 18.5t15 65.5v14q0 45 -16 60.5t-60 15.5h-50v-174h52z" />
    <glyph glyph-name="integral" horiz-adv-x="594" 
d="M75 -14q-22 0 -36 20.5t-23.5 62.5t-16.5 105.5t-14 150.5h29q5 -50 9 -105t10.5 -101t16 -76t25.5 -30t25.5 30t16 76t11 101t8.5 105q8 87 14 150.5t15 105t22.5 62t35.5 20.5t35.5 -20.5t22.5 -62t15.5 -105t13.5 -150.5q5 -50 9 -105t10.5 -101t16 -76t25.5 -30
t25.5 30t16 76t11 101t8.5 105q8 87 14 150.5t15 105t22.5 62t35.5 20.5t36 -20.5t23.5 -62t16.5 -105t14 -150.5h-29q-4 50 -8.5 105t-11 101t-16 75.5t-25.5 29.5t-25 -29.5t-15 -75.5t-9.5 -101t-8.5 -105q-7 -87 -14 -150.5t-16.5 -105.5t-23.5 -62.5t-36 -20.5
t-36 20.5t-23.5 62.5t-16 105.5t-14.5 150.5q-4 50 -8 105t-10 101t-15 75.5t-25 29.5t-25 -29.5t-15 -75.5t-9.5 -101t-8.5 -105q-7 -87 -14 -150.5t-16.5 -105.5t-23.5 -62.5t-36 -20.5z" />
    <glyph glyph-name="Omega" horiz-adv-x="594" 
d="M75 -14q-22 0 -36 20.5t-23.5 62.5t-16.5 105.5t-14 150.5h29q5 -50 9 -105t10.5 -101t16 -76t25.5 -30t25.5 30t16 76t11 101t8.5 105q8 87 14 150.5t15 105t22.5 62t35.5 20.5t35.5 -20.5t22.5 -62t15.5 -105t13.5 -150.5q5 -50 9 -105t10.5 -101t16 -76t25.5 -30
t25.5 30t16 76t11 101t8.5 105q8 87 14 150.5t15 105t22.5 62t35.5 20.5t36 -20.5t23.5 -62t16.5 -105t14 -150.5h-29q-4 50 -8.5 105t-11 101t-16 75.5t-25.5 29.5t-25 -29.5t-15 -75.5t-9.5 -101t-8.5 -105q-7 -87 -14 -150.5t-16.5 -105.5t-23.5 -62.5t-36 -20.5
t-36 20.5t-23.5 62.5t-16 105.5t-14.5 150.5q-4 50 -8 105t-10 101t-15 75.5t-25 29.5t-25 -29.5t-15 -75.5t-9.5 -101t-8.5 -105q-7 -87 -14 -150.5t-16.5 -105.5t-23.5 -62.5t-36 -20.5z" />
    <glyph glyph-name="logicalnot" horiz-adv-x="594" 
d="M75 -14q-22 0 -36 20.5t-23.5 62.5t-16.5 105.5t-14 150.5h29q5 -50 9 -105t10.5 -101t16 -76t25.5 -30t25.5 30t16 76t11 101t8.5 105q8 87 14 150.5t15 105t22.5 62t35.5 20.5t35.5 -20.5t22.5 -62t15.5 -105t13.5 -150.5q5 -50 9 -105t10.5 -101t16 -76t25.5 -30
t25.5 30t16 76t11 101t8.5 105q8 87 14 150.5t15 105t22.5 62t35.5 20.5t36 -20.5t23.5 -62t16.5 -105t14 -150.5h-29q-4 50 -8.5 105t-11 101t-16 75.5t-25.5 29.5t-25 -29.5t-15 -75.5t-9.5 -101t-8.5 -105q-7 -87 -14 -150.5t-16.5 -105.5t-23.5 -62.5t-36 -20.5
t-36 20.5t-23.5 62.5t-16 105.5t-14.5 150.5q-4 50 -8 105t-10 101t-15 75.5t-25 29.5t-25 -29.5t-15 -75.5t-9.5 -101t-8.5 -105q-7 -87 -14 -150.5t-16.5 -105.5t-23.5 -62.5t-36 -20.5z" />
    <glyph glyph-name="radical" horiz-adv-x="466" 
d="M29 375h94l50 -172l29 -170l27 170l138 515h84l-204 -719h-95z" />
    <glyph glyph-name="approxequal" horiz-adv-x="594" 
d="M75 -14q-22 0 -36 20.5t-23.5 62.5t-16.5 105.5t-14 150.5h29q5 -50 9 -105t10.5 -101t16 -76t25.5 -30t25.5 30t16 76t11 101t8.5 105q8 87 14 150.5t15 105t22.5 62t35.5 20.5t35.5 -20.5t22.5 -62t15.5 -105t13.5 -150.5q5 -50 9 -105t10.5 -101t16 -76t25.5 -30
t25.5 30t16 76t11 101t8.5 105q8 87 14 150.5t15 105t22.5 62t35.5 20.5t36 -20.5t23.5 -62t16.5 -105t14 -150.5h-29q-4 50 -8.5 105t-11 101t-16 75.5t-25.5 29.5t-25 -29.5t-15 -75.5t-9.5 -101t-8.5 -105q-7 -87 -14 -150.5t-16.5 -105.5t-23.5 -62.5t-36 -20.5
t-36 20.5t-23.5 62.5t-16 105.5t-14.5 150.5q-4 50 -8 105t-10 101t-15 75.5t-25 29.5t-25 -29.5t-15 -75.5t-9.5 -101t-8.5 -105q-7 -87 -14 -150.5t-16.5 -105.5t-23.5 -62.5t-36 -20.5z" />
    <glyph glyph-name="Delta" horiz-adv-x="594" 
d="M75 -14q-22 0 -36 20.5t-23.5 62.5t-16.5 105.5t-14 150.5h29q5 -50 9 -105t10.5 -101t16 -76t25.5 -30t25.5 30t16 76t11 101t8.5 105q8 87 14 150.5t15 105t22.5 62t35.5 20.5t35.5 -20.5t22.5 -62t15.5 -105t13.5 -150.5q5 -50 9 -105t10.5 -101t16 -76t25.5 -30
t25.5 30t16 76t11 101t8.5 105q8 87 14 150.5t15 105t22.5 62t35.5 20.5t36 -20.5t23.5 -62t16.5 -105t14 -150.5h-29q-4 50 -8.5 105t-11 101t-16 75.5t-25.5 29.5t-25 -29.5t-15 -75.5t-9.5 -101t-8.5 -105q-7 -87 -14 -150.5t-16.5 -105.5t-23.5 -62.5t-36 -20.5
t-36 20.5t-23.5 62.5t-16 105.5t-14.5 150.5q-4 50 -8 105t-10 101t-15 75.5t-25 29.5t-25 -29.5t-15 -75.5t-9.5 -101t-8.5 -105q-7 -87 -14 -150.5t-16.5 -105.5t-23.5 -62.5t-36 -20.5z" />
    <glyph glyph-name="nonbreakingspace" horiz-adv-x="114" 
 />
    <glyph glyph-name="Agrave" horiz-adv-x="573" 
d="M116 0h-87l211 651h98l207 -651h-104l-38 129h-247zM308 445l-24 129l-29 -129l-77 -247h204zM152 876h115l53 -164h-54z" />
    <glyph glyph-name="Atilde" horiz-adv-x="573" 
d="M116 0h-87l211 651h98l207 -651h-104l-38 129h-247zM308 445l-24 129l-29 -129l-77 -247h204zM337 715q-20 0 -33.5 8t-27.5 23l-19 22q-9 10 -14.5 14.5t-14.5 4.5q-28 0 -28 -55v-10h-52q0 66 25 100.5t58 34.5q20 0 33.5 -8t27.5 -23l18 -22q10 -10 15.5 -14.5
t14.5 -4.5q28 0 28 54v10h52q0 -65 -25 -99.5t-58 -34.5z" />
    <glyph glyph-name="Otilde" horiz-adv-x="609" 
d="M303 -14q-67 0 -115.5 25t-80 70.5t-46.5 108t-15 137.5q0 74 15.5 135.5t47.5 106t81 69.5t115 25t115 -24.5t80.5 -68.5t47 -105.5t15.5 -135.5q0 -78 -15.5 -141.5t-47 -108t-80.5 -69t-117 -24.5zM305 60q38 0 66.5 13t47.5 43.5t28.5 79.5t9.5 121v34q0 65 -9.5 109
t-28.5 72t-47.5 40t-67.5 12q-77 0 -115 -54t-38 -183v-33q0 -72 10 -120.5t29.5 -78.5t48.5 -42.5t66 -12.5zM355 715q-20 0 -33.5 8t-27.5 23l-19 22q-9 10 -14.5 14.5t-14.5 4.5q-28 0 -28 -55v-10h-52q0 66 25 100.5t58 34.5q20 0 33.5 -8t27.5 -23l18 -22
q10 -10 15.5 -14.5t14.5 -4.5q28 0 28 54v10h52q0 -65 -25 -99.5t-58 -34.5z" />
    <glyph glyph-name="divide" horiz-adv-x="617" 
d="M300 191l1 114q0 30 10 43.5t43 21.5q32 6 52 13t32.5 18.5t19 29.5t10.5 46l2 15q5 36 -0.5 59t-20.5 36.5t-39.5 18.5t-56.5 5q-45 0 -106 -14l-12 70q26 9 59 15t75 6q46 0 84 -10.5t65 -32t42 -55t15 -78.5q0 -94 -46 -141t-146 -60l-22 -130zM99 387l-72 244l99 33
l73 -244l44 -233l-43 -16zM281 -11q-28 0 -48.5 19t-20.5 51q0 31 20.5 50.5t48.5 19.5q29 0 49.5 -19.5t20.5 -50.5q0 -32 -20.5 -51t-49.5 -19z" />
    <glyph glyph-name="lozenge" horiz-adv-x="594" 
d="M75 -14q-22 0 -36 20.5t-23.5 62.5t-16.5 105.5t-14 150.5h29q5 -50 9 -105t10.5 -101t16 -76t25.5 -30t25.5 30t16 76t11 101t8.5 105q8 87 14 150.5t15 105t22.5 62t35.5 20.5t35.5 -20.5t22.5 -62t15.5 -105t13.5 -150.5q5 -50 9 -105t10.5 -101t16 -76t25.5 -30
t25.5 30t16 76t11 101t8.5 105q8 87 14 150.5t15 105t22.5 62t35.5 20.5t36 -20.5t23.5 -62t16.5 -105t14 -150.5h-29q-4 50 -8.5 105t-11 101t-16 75.5t-25.5 29.5t-25 -29.5t-15 -75.5t-9.5 -101t-8.5 -105q-7 -87 -14 -150.5t-16.5 -105.5t-23.5 -62.5t-36 -20.5
t-36 20.5t-23.5 62.5t-16 105.5t-14.5 150.5q-4 50 -8 105t-10 101t-15 75.5t-25 29.5t-25 -29.5t-15 -75.5t-9.5 -101t-8.5 -105q-7 -87 -14 -150.5t-16.5 -105.5t-23.5 -62.5t-36 -20.5z" />
    <glyph glyph-name="ydieresis" horiz-adv-x="460" 
d="M188 16l-169 508h95l94 -306l25 -152l27 152l93 306h87l-218 -686h-89zM315 595q-23 0 -40.5 16.5t-17.5 42.5t17.5 43t40.5 17q24 0 41 -17t17 -43t-17 -42.5t-41 -16.5zM141 595q-24 0 -41 16.5t-17 42.5t17 43t41 17q23 0 40.5 -17t17.5 -43t-17.5 -42.5t-40.5 -16.5z
" />
    <glyph glyph-name="Ydieresis" horiz-adv-x="530" 
d="M220 231l-197 420h107l114 -264l30 -127l30 127l110 264h93l-187 -415v-236h-100v231zM354 714q-23 0 -40.5 16.5t-17.5 42.5t17.5 43t40.5 17q24 0 41 -17t17 -43t-17 -42.5t-41 -16.5zM180 714q-24 0 -41 16.5t-17 42.5t17 43t41 17q23 0 40.5 -17t17.5 -43
t-17.5 -42.5t-40.5 -16.5z" />
    <glyph glyph-name="Acircumflex" horiz-adv-x="573" 
d="M116 0h-87l211 651h98l207 -651h-104l-38 129h-247zM308 445l-24 129l-29 -129l-77 -247h204zM246 888h74l113 -176h-88l-41 76l-23 65l-23 -65l-45 -76h-79z" />
    <glyph glyph-name="Ecircumflex" horiz-adv-x="505" 
d="M81 651h362v-81h-262v-199h225v-75h-225v-217h280v-79h-380v651zM223 888h74l113 -176h-88l-41 76l-23 65l-23 -65l-45 -76h-79z" />
    <glyph glyph-name="Aacute" horiz-adv-x="573" 
d="M116 0h-87l211 651h98l207 -651h-104l-38 129h-247zM308 445l-24 129l-29 -129l-77 -247h204zM303 876h114l-113 -164h-55z" />
    <glyph glyph-name="Edieresis" horiz-adv-x="505" 
d="M81 651h362v-81h-262v-199h225v-75h-225v-217h280v-79h-380v651zM352 714q-23 0 -40.5 16.5t-17.5 42.5t17.5 43t40.5 17q24 0 41 -17t17 -43t-17 -42.5t-41 -16.5zM178 714q-24 0 -41 16.5t-17 42.5t17 43t41 17q23 0 40.5 -17t17.5 -43t-17.5 -42.5t-40.5 -16.5z" />
    <glyph glyph-name="Egrave" horiz-adv-x="505" 
d="M81 651h362v-81h-262v-199h225v-75h-225v-217h280v-79h-380v651zM133 876h115l53 -164h-54z" />
    <glyph glyph-name="Iacute" horiz-adv-x="274" 
d="M87 651h100v-651h-100v651zM155 876h114l-113 -164h-55z" />
    <glyph glyph-name="Icircumflex" horiz-adv-x="274" 
d="M87 651h100v-651h-100v651zM98 888h74l113 -176h-88l-41 76l-23 65l-23 -65l-45 -76h-79z" />
    <glyph glyph-name="Idieresis" horiz-adv-x="274" 
d="M87 651h100v-651h-100v651zM223 714q-23 0 -40.5 16.5t-17.5 42.5t17.5 43t40.5 17q24 0 41 -17t17 -43t-17 -42.5t-41 -16.5zM49 714q-24 0 -41 16.5t-17 42.5t17 43t41 17q23 0 40.5 -17t17.5 -43t-17.5 -42.5t-40.5 -16.5z" />
    <glyph glyph-name="Igrave" horiz-adv-x="274" 
d="M87 651h100v-651h-100v651zM4 876h115l53 -164h-54z" />
    <glyph glyph-name="Oacute" horiz-adv-x="609" 
d="M303 -14q-67 0 -115.5 25t-80 70.5t-46.5 108t-15 137.5q0 74 15.5 135.5t47.5 106t81 69.5t115 25t115 -24.5t80.5 -68.5t47 -105.5t15.5 -135.5q0 -78 -15.5 -141.5t-47 -108t-80.5 -69t-117 -24.5zM305 60q38 0 66.5 13t47.5 43.5t28.5 79.5t9.5 121v34q0 65 -9.5 109
t-28.5 72t-47.5 40t-67.5 12q-77 0 -115 -54t-38 -183v-33q0 -72 10 -120.5t29.5 -78.5t48.5 -42.5t66 -12.5zM321 876h114l-113 -164h-55z" />
    <glyph glyph-name="Ocircumflex" horiz-adv-x="609" 
d="M303 -14q-67 0 -115.5 25t-80 70.5t-46.5 108t-15 137.5q0 74 15.5 135.5t47.5 106t81 69.5t115 25t115 -24.5t80.5 -68.5t47 -105.5t15.5 -135.5q0 -78 -15.5 -141.5t-47 -108t-80.5 -69t-117 -24.5zM305 60q38 0 66.5 13t47.5 43.5t28.5 79.5t9.5 121v34q0 65 -9.5 109
t-28.5 72t-47.5 40t-67.5 12q-77 0 -115 -54t-38 -183v-33q0 -72 10 -120.5t29.5 -78.5t48.5 -42.5t66 -12.5zM264 888h74l113 -176h-88l-41 76l-23 65l-23 -65l-45 -76h-79z" />
    <glyph glyph-name="apple" horiz-adv-x="594" 
d="M75 -14q-22 0 -36 20.5t-23.5 62.5t-16.5 105.5t-14 150.5h29q5 -50 9 -105t10.5 -101t16 -76t25.5 -30t25.5 30t16 76t11 101t8.5 105q8 87 14 150.5t15 105t22.5 62t35.5 20.5t35.5 -20.5t22.5 -62t15.5 -105t13.5 -150.5q5 -50 9 -105t10.5 -101t16 -76t25.5 -30
t25.5 30t16 76t11 101t8.5 105q8 87 14 150.5t15 105t22.5 62t35.5 20.5t36 -20.5t23.5 -62t16.5 -105t14 -150.5h-29q-4 50 -8.5 105t-11 101t-16 75.5t-25.5 29.5t-25 -29.5t-15 -75.5t-9.5 -101t-8.5 -105q-7 -87 -14 -150.5t-16.5 -105.5t-23.5 -62.5t-36 -20.5
t-36 20.5t-23.5 62.5t-16 105.5t-14.5 150.5q-4 50 -8 105t-10 101t-15 75.5t-25 29.5t-25 -29.5t-15 -75.5t-9.5 -101t-8.5 -105q-7 -87 -14 -150.5t-16.5 -105.5t-23.5 -62.5t-36 -20.5z" />
    <glyph glyph-name="Ograve" horiz-adv-x="609" 
d="M303 -14q-67 0 -115.5 25t-80 70.5t-46.5 108t-15 137.5q0 74 15.5 135.5t47.5 106t81 69.5t115 25t115 -24.5t80.5 -68.5t47 -105.5t15.5 -135.5q0 -78 -15.5 -141.5t-47 -108t-80.5 -69t-117 -24.5zM305 60q38 0 66.5 13t47.5 43.5t28.5 79.5t9.5 121v34q0 65 -9.5 109
t-28.5 72t-47.5 40t-67.5 12q-77 0 -115 -54t-38 -183v-33q0 -72 10 -120.5t29.5 -78.5t48.5 -42.5t66 -12.5zM170 876h115l53 -164h-54z" />
    <glyph glyph-name="Uacute" horiz-adv-x="599" 
d="M417 651h101v-651h-62l-28 64l-40 -55q-16 -7 -46.5 -15t-71.5 -8q-48 0 -84 14t-60 45t-36.5 80t-12.5 118v408h100v-435q0 -46 6 -76t19.5 -47t35 -24t51.5 -7q45 0 74.5 11t53.5 25v553zM315 876h114l-113 -164h-55z" />
    <glyph glyph-name="Ucircumflex" horiz-adv-x="599" 
d="M417 651h101v-651h-62l-28 64l-40 -55q-16 -7 -46.5 -15t-71.5 -8q-48 0 -84 14t-60 45t-36.5 80t-12.5 118v408h100v-435q0 -46 6 -76t19.5 -47t35 -24t51.5 -7q45 0 74.5 11t53.5 25v553zM258 888h74l113 -176h-88l-41 76l-23 65l-23 -65l-45 -76h-79z" />
    <glyph glyph-name="Ugrave" horiz-adv-x="599" 
d="M417 651h101v-651h-62l-28 64l-40 -55q-16 -7 -46.5 -15t-71.5 -8q-48 0 -84 14t-60 45t-36.5 80t-12.5 118v408h100v-435q0 -46 6 -76t19.5 -47t35 -24t51.5 -7q45 0 74.5 11t53.5 25v553zM172 876h115l53 -164h-54z" />
    <glyph glyph-name="Euro" horiz-adv-x="532" 
d="M33 364v66h77q8 52 25.5 95t46.5 73.5t69.5 47.5t94.5 17q48 0 84 -9t69 -23l-14 -76q-22 7 -40 12.5t-34.5 9t-33 5t-35.5 1.5q-26 0 -48 -7.5t-39.5 -25t-29 -47t-16.5 -73.5h186v-66h-191v-17v-32v-35h191v-65h-185q11 -85 45 -120t88 -35q22 0 39.5 2.5t34.5 7.5
t34 12t37 16l22 -71q-32 -17 -72 -29t-94 -12t-94 16.5t-68.5 47t-46 72.5t-25.5 93h-77v65h70q-1 11 -1 23v24v19t1 18h-70z" />
    <glyph glyph-name="Eth" horiz-adv-x="608" 
d="M18 287v75h73v289h195q140 0 208.5 -83.5t68.5 -240.5q0 -164 -70 -245.5t-216 -81.5h-186v287h-73zM312 362v-75h-121v-211h80q46 0 80.5 9.5t58 35.5t35 72.5t11.5 121.5v31q0 68 -11 111.5t-34.5 68.5t-58.5 34.5t-83 9.5h-78v-208h121z" />
    </font>
</defs>
</svg>
