<?xml version="1.0" standalone="no"?>
<!DOCTYPE svg PUBLIC "-//W3C//DTD SVG 1.1//EN" "http://www.w3.org/Graphics/SVG/1.1/DTD/svg11.dtd" >
<svg xmlns="http://www.w3.org/2000/svg" xmlns:xlink="http://www.w3.org/1999/xlink" version="1.1">
<metadata>
Created by FontForge 20200427 at Tue Mar 18 00:54:57 2014
 By www
Copyright (c) 2008 by by Nick Shinn. Published by Shinn Type Foundry. All rights reserved.
</metadata>
<defs>
<font id="BeaufortW01-Regular" horiz-adv-x="523" >
  <font-face 
    font-family="BeaufortW01-Regular"
    font-weight="400"
    font-stretch="normal"
    units-per-em="1000"
    panose-1="2 2 5 3 5 0 0 2 0 4"
    ascent="742"
    descent="-258"
    x-height="469"
    cap-height="666"
    bbox="-53 -220 1039 898"
    underline-thickness="50"
    underline-position="-183"
    unicode-range="U+0002-2122"
  />
<missing-glyph horiz-adv-x="225" 
 />
    <glyph glyph-name=".notdef" horiz-adv-x="225" 
 />
    <glyph glyph-name=".null" horiz-adv-x="0" 
 />
    <glyph glyph-name="uni000D" unicode="&#xd;" horiz-adv-x="225" 
 />
    <glyph glyph-name="uni0002" horiz-adv-x="0" 
 />
    <glyph glyph-name="uni0009" unicode="&#x9;" horiz-adv-x="225" 
 />
    <glyph glyph-name="uni000A" unicode="&#xa;" horiz-adv-x="0" 
 />
    <glyph glyph-name="space" unicode=" " horiz-adv-x="225" 
 />
    <glyph glyph-name="exclam" unicode="!" horiz-adv-x="282" 
d="M102 541q-2 41 -6.5 65.5t-10 37.5t-10.5 17t-7 5h147q-1 0 -6 -3.5t-10.5 -16t-11 -37.5t-6.5 -68l-8 -268q-1 -24 -6 -45.5t-10 -38.5q-7 -19 -15 -36q-8 17 -15 36q-6 17 -11 38.5t-6 45.5zM198 42q0 -22 -15 -38t-41 -16q-27 0 -41.5 16t-14.5 38t14.5 38t41.5 16
q26 0 41 -16t15 -38z" />
    <glyph glyph-name="quotedbl" unicode="&#x22;" horiz-adv-x="461" 
d="M356 544q0 -36 -5.5 -65t-12.5 -49q-8 -24 -18 -42h-3q-10 18 -18 42q-7 20 -12 49t-5 65v122h74v-122zM179 544q0 -36 -6 -65t-13 -49q-8 -24 -18 -42h-2q-10 18 -18 42q-7 20 -12 49t-5 65v122h74v-122z" />
    <glyph glyph-name="numbersign" unicode="#" horiz-adv-x="526" 
d="M401 432l-45 -185h108v-38h-119l-52 -209h-44l49 209h-139l-53 -209h-44l50 209h-91v38h101l45 185h-101v39h110l48 195h46l-48 -195h140l48 195h48l-48 -195h92v-39h-101zM214 432l-44 -185h139l44 185h-139z" />
    <glyph glyph-name="dollar" unicode="$" 
d="M470 179q0 -70 -47 -117t-139 -55v-77h-52v76q-49 2 -96.5 15.5t-80.5 34.5v148q23 -71 71 -105.5t106 -40.5v254q-36 16 -67.5 33.5t-55 38.5t-37.5 46.5t-14 59.5q0 38 13 68t36.5 51.5t55 34t69.5 16.5v70h52v-70q20 -2 41 -6t40.5 -10t35.5 -13t27 -15v-128
q-18 57 -57.5 85t-86.5 36v-236q39 -19 73 -38t59 -41.5t39.5 -50.5t14.5 -64zM232 610q-48 -5 -78 -32t-30 -67q0 -22 9 -39t24 -31t34.5 -25t40.5 -21v215zM398 156q0 27 -9 47t-25 35.5t-36.5 27.5t-43.5 23v-231q21 2 41.5 9.5t36.5 19.5t26 29.5t10 39.5z" />
    <glyph glyph-name="percent" unicode="%" horiz-adv-x="694" 
d="M332 544q0 -26 -8.5 -50.5t-25.5 -44t-43 -31.5t-60 -12t-59.5 12t-42.5 31.5t-25.5 44t-8.5 50.5t9 51t26.5 44t42.5 30.5t58 11.5q34 0 60 -12t43 -31t25.5 -44t8.5 -50zM277 543q0 40 -23 68.5t-61 28.5t-58.5 -27t-20.5 -68q0 -40 22 -68.5t60 -28.5t59.5 27t21.5 68
zM631 124q0 -26 -8.5 -50.5t-25.5 -44t-43 -31.5t-60 -12t-59.5 12t-42.5 31.5t-25.5 44t-8.5 50.5t9 51t26.5 44t42.5 30.5t58 11.5q34 0 60 -12t43 -31t25.5 -44t8.5 -50zM576 123q0 40 -23 68.5t-61 28.5t-58.5 -27t-20.5 -68q0 -40 22 -68.5t60 -28.5t59.5 27t21.5 68z
M183 0h-58l388 681h56z" />
    <glyph glyph-name="ampersand" unicode="&#x26;" horiz-adv-x="754" 
d="M738 86q-17 -52 -42 -75.5t-56 -23.5q-18 0 -40.5 8.5t-45.5 22t-46.5 29.5t-42.5 31q-45 -42 -99 -67.5t-118 -25.5q-51 0 -89.5 14.5t-64 38t-38.5 54t-13 62.5q0 34 12 61.5t32 50.5t46.5 43t55.5 38q-32 41 -57 86t-25 93q0 35 13 64t35.5 49.5t53 32t66.5 11.5
q39 0 70 -11.5t52.5 -31t33 -45.5t11.5 -55q0 -33 -13.5 -59.5t-35 -49.5t-49.5 -42.5t-57 -37.5q38 -45 87 -93t103 -93q20 26 39.5 59t34.5 66.5t24 66t9 56.5q0 25 -9 37t-20 19h152q-19 -10 -35 -37.5t-29 -67.5q-8 -24 -20.5 -53.5t-28 -60.5t-34.5 -61.5t-40 -56.5
q16 -12 36 -26t41.5 -26t42 -20t37.5 -8t31 8.5t30 25.5zM374 531q0 21 -8 39.5t-22 33t-33.5 22.5t-42.5 8q-42 0 -68 -26t-26 -68q0 -18 7.5 -38t19.5 -40t26 -39.5t28 -36.5q57 37 88 69t31 76zM421 111q-54 45 -104.5 95t-95.5 104q-42 -28 -71 -60t-29 -75
q0 -28 11.5 -52t31.5 -42t46.5 -28.5t55.5 -10.5q45 0 83 19t72 50z" />
    <glyph glyph-name="quotesingle" unicode="'" horiz-adv-x="257" 
d="M166 544q0 -36 -6 -65t-13 -49q-8 -24 -18 -42h-2q-10 18 -18 42q-7 20 -12 49t-5 65v122h74v-122z" />
    <glyph glyph-name="parenleft" unicode="(" horiz-adv-x="312" 
d="M296 -199q-56 20 -101.5 64t-78 104.5t-50.5 132.5t-18 149q0 75 17.5 147t49.5 132t77.5 104.5t101.5 65.5q-41 -32 -71.5 -81t-50.5 -108t-30.5 -124.5t-10.5 -131.5q0 -67 10.5 -133.5t31.5 -126.5t52 -110.5t71 -83.5z" />
    <glyph glyph-name="parenright" unicode=")" horiz-adv-x="312" 
d="M264 250q0 -75 -17.5 -147t-50 -132.5t-78.5 -105t-102 -64.5q40 33 71 82.5t52 109t31.5 126t10.5 132.5t-10.5 132t-31 125.5t-51.5 109t-71 82.5q56 -20 101.5 -65t78 -105.5t50 -132.5t17.5 -147z" />
    <glyph glyph-name="asterisk" unicode="*" horiz-adv-x="399" 
d="M365 584q-34 -6 -70.5 -22.5t-67.5 -36.5q32 -21 66.5 -39t69.5 -23l-53 -77q-9 18 -30 47.5t-68 71.5q-8 -31 -13 -58.5t-5 -50.5q0 -26 4 -46l-87 28q14 14 33.5 44.5t43.5 90.5q-59 -5 -93 -15.5t-52 -19.5v95q17 -10 50 -20.5t95 -14.5q-23 57 -42.5 88t-33.5 45
l88 29q-4 -20 -4 -48q0 -23 4 -50t12 -56q45 40 67.5 68t31.5 48z" />
    <glyph glyph-name="plus" unicode="+" horiz-adv-x="663" 
d="M360 255v-255h-55v255h-245v53h245v253h55v-253h244v-53h-244z" />
    <glyph glyph-name="comma" unicode="," horiz-adv-x="236" 
d="M202 -8q0 -28 -9 -57.5t-28.5 -54.5t-49.5 -42t-71 -20q21 8 39.5 23t32.5 33.5t22 40.5t8 44q0 11 -2 21.5t-7 18.5q-11 -7 -24 -7q-26 0 -39 16t-13 36q0 23 15.5 40.5t44.5 17.5q19 0 34 -9t25.5 -24t16 -35t5.5 -42z" />
    <glyph glyph-name="hyphen" unicode="-" horiz-adv-x="353" 
d="M54 221v61h246v-61h-246z" />
    <glyph glyph-name="period" unicode="." horiz-adv-x="236" 
d="M177 46q0 -23 -15 -40.5t-43 -17.5t-44 17.5t-16 40.5t15.5 40t44.5 17q28 0 43 -17t15 -40z" />
    <glyph glyph-name="slash" unicode="/" horiz-adv-x="431" 
d="M107 -13h-63l293 688h61z" />
    <glyph glyph-name="zero" unicode="0" 
d="M484 348q0 -86 -17.5 -153.5t-47.5 -114t-71 -71t-88 -24.5q-45 0 -85 21t-70 62t-47.5 103t-17.5 143q0 87 17.5 155.5t47.5 115t70.5 71t87.5 24.5q45 0 85.5 -21.5t70.5 -63.5t47.5 -104t17.5 -143zM406 300q0 85 -13 147t-34.5 102.5t-49 59.5t-56.5 19
q-27 0 -52 -16.5t-44 -49t-30 -82t-11 -115.5q0 -85 13 -147t34.5 -102t49 -59.5t57.5 -19.5q27 0 51.5 16t43.5 48t30 81.5t11 117.5z" />
    <glyph glyph-name="one" unicode="1" 
d="M196 0q2 1 10 5.5t16.5 16.5t15 34.5t6.5 60.5v430q-12 -13 -27 -30.5t-30.5 -35t-29.5 -33.5t-23 -26v70q19 20 41.5 46t44.5 52.5t41.5 50t32.5 38.5h25v-562q0 -38 7 -60.5t15.5 -34.5t16.5 -16.5t10 -5.5h-172z" />
    <glyph glyph-name="two" unicode="2" 
d="M470 0h-446l151 163q88 95 139 171.5t51 149.5t-39.5 110t-96.5 37q-25 0 -46 -7.5t-36.5 -20t-24 -29.5t-8.5 -36q0 -23 12 -41t35 -23l-65 -56q-20 9 -35.5 33.5t-15.5 56.5t13.5 63t39.5 55.5t64.5 39.5t89.5 15q37 0 72 -11.5t62.5 -35t44 -58t16.5 -80.5
q0 -42 -17.5 -83.5t-47.5 -86t-71 -91.5t-89 -99l-67 -73h211q34 0 57 7t37.5 15.5t21.5 17t9 11.5z" />
    <glyph glyph-name="three" unicode="3" 
d="M477 168q0 -40 -17 -73.5t-47 -58t-71.5 -38t-90.5 -13.5q-53 0 -90.5 14.5t-62.5 34t-37.5 39.5t-16.5 32l79 52q2 -52 37.5 -87t101.5 -35q63 0 100 32t37 83q0 37 -18.5 66.5t-51.5 50t-77.5 31.5t-96.5 11l15 50q8 -1 21.5 -2t23.5 -1q39 0 69 12.5t51 32.5t32 46.5
t11 55.5q0 25 -9 48.5t-26 41.5t-42 28.5t-57 10.5q-53 0 -85.5 -23t-32.5 -56q0 -14 7 -25.5t18 -17.5l-76 -39q-8 13 -14 28.5t-6 32.5q0 33 16.5 60.5t45 47t66 30.5t80.5 11q44 0 79.5 -12t61 -34t39 -51.5t13.5 -64.5q0 -29 -10 -57.5t-28.5 -52.5t-45 -42.5
t-59.5 -27.5q42 -10 73 -28t51 -40.5t30 -49t10 -53.5z" />
    <glyph glyph-name="four" unicode="4" 
d="M412 163v-60q0 -32 4.5 -52t9.5 -31t10 -15t7 -5h-133q1 0 5.5 3t9.5 14t9.5 31.5t4.5 55.5v59h-324l397 533v-475h80v-58h-80zM339 517l-220 -296h220v296z" />
    <glyph glyph-name="five" unicode="5" 
d="M472 203q0 -49 -16.5 -89.5t-47 -69t-73.5 -44t-95 -15.5q-39 0 -71 10.5t-57 27.5t-42 38.5t-26 43.5l80 49q3 -26 14 -47.5t28 -37.5t39 -25t46 -9q36 0 63 11t45.5 30.5t28 46t9.5 56.5q0 79 -61.5 124t-175.5 45h-84l72 318h200q34 0 55.5 2.5t33.5 5.5t16 6t5 4
l-19 -82h-245l-47 -193h48q62 0 113 -14t87.5 -40.5t56.5 -65t20 -86.5z" />
    <glyph glyph-name="six" unicode="6" 
d="M481 218q0 -43 -13.5 -85t-41 -75t-69 -53t-96.5 -20q-50 0 -90 18.5t-68 51.5t-42.5 78.5t-14.5 99.5q0 70 23 138.5t62.5 128t93.5 105.5t117 70l121 -18q-53 -13 -104 -38.5t-96.5 -64.5t-82.5 -92.5t-61 -120.5l3 -2q26 44 67.5 70.5t92.5 26.5q49 0 86.5 -18.5
t62.5 -49t37.5 -70t12.5 -80.5zM410 198q0 33 -9.5 65t-29 57.5t-48.5 41.5t-69 16q-31 0 -55 -13.5t-41 -35t-26 -49.5t-9 -56q0 -35 10.5 -68.5t31 -60t50 -43t68.5 -16.5q31 0 55 14t40 36.5t24 51.5t8 60z" />
    <glyph glyph-name="seven" unicode="7" 
d="M314 279q-46 -94 -64.5 -163.5t-20.5 -115.5h-109q20 46 46.5 101.5t55 113.5l57 116t54 109.5t46 94.5t32.5 70h-255q-31 0 -52.5 -7t-35 -16.5t-21 -19.5t-11.5 -16l22 120h446z" />
    <glyph glyph-name="eight" unicode="8" 
d="M483 179q0 -44 -18.5 -79.5t-49.5 -61t-72 -39.5t-87 -14q-44 0 -83.5 11.5t-69 34t-47 55.5t-17.5 76q0 29 9.5 56.5t27.5 51.5t45 42.5t63 28.5q-30 10 -52.5 26.5t-37.5 37.5t-22.5 45t-7.5 49q0 40 16.5 73.5t44.5 57.5t64.5 37.5t77.5 13.5q39 0 73.5 -11.5
t60.5 -32.5t41 -51.5t15 -68.5q0 -24 -7 -49t-21.5 -47t-36.5 -39.5t-52 -26.5q74 -23 108.5 -71.5t34.5 -104.5zM386 494q0 30 -10 55t-28.5 44t-43.5 29.5t-55 10.5q-51 0 -82.5 -31.5t-31.5 -84.5q0 -30 10.5 -55.5t28.5 -45t43 -30.5t55 -11q23 0 43.5 8t36.5 23.5
t25 37.5t9 50zM408 162q0 32 -12 60t-34 48.5t-51.5 32.5t-64.5 12q-60 0 -96 -35.5t-36 -92.5q0 -32 12 -59.5t33.5 -48t50.5 -32t64 -11.5q60 0 97 33.5t37 92.5z" />
    <glyph glyph-name="nine" unicode="9" 
d="M481 432q0 -70 -23 -138.5t-62.5 -127.5t-93.5 -105t-117 -70l-121 18q52 13 104 38.5t97.5 64.5t82.5 92t61 121l-4 2q-26 -44 -67.5 -70.5t-92.5 -26.5q-50 0 -87 19t-61.5 49.5t-37 70t-12.5 81.5q0 49 16 91.5t45 73.5t69 48.5t88 17.5q55 0 95.5 -20.5t67.5 -54.5
t40 -79.5t13 -94.5zM404 442q0 35 -10.5 68.5t-30.5 60t-48.5 43t-65.5 16.5q-33 0 -57.5 -14t-41 -37t-25 -52.5t-8.5 -60.5q0 -33 9.5 -65t28.5 -57.5t47.5 -41t66.5 -15.5q33 0 58 13.5t42 35.5t26 49.5t9 56.5z" />
    <glyph glyph-name="colon" unicode=":" horiz-adv-x="236" 
d="M177 362q0 -23 -15.5 -40.5t-43.5 -17.5t-43.5 17.5t-15.5 40.5t15 40t44 17q28 0 43.5 -17t15.5 -40zM177 46q0 -23 -15.5 -40.5t-43.5 -17.5t-43.5 17.5t-15.5 40.5t15 40t44 17q28 0 43.5 -17t15.5 -40z" />
    <glyph glyph-name="semicolon" unicode=";" horiz-adv-x="236" 
d="M180 362q0 -23 -15.5 -40.5t-43.5 -17.5t-43.5 17.5t-15.5 40.5t15 40.5t44 17.5q28 0 43.5 -17.5t15.5 -40.5zM203 -8q0 -28 -9 -57.5t-28.5 -54.5t-49.5 -42t-71 -20q21 8 39.5 23t32.5 33.5t22 40.5t8 44q0 11 -2 21.5t-7 18.5q-11 -7 -24 -7q-26 0 -39 16t-13 36
q0 23 15.5 40.5t44.5 17.5q19 0 34 -9t25.5 -24t16 -35t5.5 -42z" />
    <glyph glyph-name="less" unicode="&#x3c;" horiz-adv-x="663" 
d="M92 257v48l479 262v-62l-413 -222v-5l413 -219v-62z" />
    <glyph glyph-name="equal" unicode="=" horiz-adv-x="663" 
d="M60 361v53h544v-53h-544zM60 156v53h544v-53h-544z" />
    <glyph glyph-name="greater" unicode="&#x3e;" horiz-adv-x="663" 
d="M92 -3v62l414 221v5l-414 220v62l479 -262v-48z" />
    <glyph glyph-name="question" unicode="?" horiz-adv-x="456" 
d="M421 540q0 -36 -15 -65t-37 -54.5t-48.5 -48.5t-48.5 -46t-37 -47.5t-15 -52.5q0 -33 27 -52q-5 -5 -10.5 -6t-10.5 -1q-26 0 -47.5 21t-21.5 53q0 31 13.5 56.5t33.5 48t43 43.5t43 43t33.5 46.5t13.5 53.5q0 48 -30 73t-71 25q-21 0 -42.5 -6.5t-41 -20t-36 -33.5
t-27.5 -48v117q30 19 73.5 31t88.5 12q35 0 66 -8.5t54 -25.5t36.5 -44t13.5 -64zM263 40q0 -21 -14 -36.5t-40 -15.5t-40 15.5t-14 36.5t14 37t40 16t40 -16t14 -37z" />
    <glyph glyph-name="at" unicode="@" horiz-adv-x="936" 
d="M874 307q0 -54 -17 -108.5t-48.5 -99t-75.5 -72t-98 -27.5q-49 0 -72 22.5t-25 81.5q-30 -59 -71 -81.5t-84 -22.5q-54 0 -86.5 41.5t-32.5 119.5q0 49 15.5 102.5t44.5 98t70.5 73t94.5 28.5q17 0 30 -2t28 -7q13 -4 28 -9.5t29 -5.5q23 0 54 16l-56 -329
q-2 -7 -2 -13.5v-12.5q0 -27 13 -45t40 -18q31 0 63 19.5t57.5 55.5t41.5 85.5t16 109.5q0 61 -21 115t-62.5 94.5t-103 64t-141.5 23.5q-87 0 -160 -30.5t-126 -83.5t-82.5 -125t-29.5 -155q0 -77 25 -143.5t75.5 -115.5t125.5 -77t176 -28q102 0 183.5 36t137.5 99l36 -17
q-63 -71 -152.5 -111.5t-206.5 -40.5q-110 0 -193 29t-138.5 81t-83.5 124t-28 158q0 88 30.5 167t88 137.5t140.5 93t189 34.5q80 0 147 -23.5t115 -66.5t75 -104t27 -135zM564 346q0 35 -17 56.5t-66 21.5q-31 0 -57.5 -25t-45.5 -63.5t-30 -84.5t-11 -87q0 -62 20 -90.5
t49 -28.5q33 0 60.5 24t46.5 60q10 20 19.5 50.5t16.5 62t11 59.5t4 45z" />
    <glyph glyph-name="A" unicode="A" horiz-adv-x="692" 
d="M580 115q15 -38 29.5 -60.5t27 -34.5t21 -16t11.5 -4h-183q2 0 7 1.5t10.5 5.5t9.5 12t4 22q0 11 -4.5 25t-12.5 34l-41 106h-257l-40 -102q-7 -18 -11 -31.5t-4 -24.5q0 -15 5 -24.5t11.5 -14.5t12.5 -7t9 -2h-163q2 0 9.5 3.5t19 15t26 34.5t31.5 63l237 578zM330 530
l-109 -274h218z" />
    <glyph glyph-name="B" unicode="B" horiz-adv-x="578" 
d="M521 173q0 -33 -12 -64t-35.5 -55t-59 -39t-82.5 -15h-277q3 0 10.5 3t15 13t13.5 29t6 51v476q0 31 -6.5 49.5t-14.5 28t-16 13t-11 3.5h252q48 0 82.5 -13.5t57 -36t33 -51t10.5 -58.5q0 -28 -9 -54.5t-25.5 -48t-39.5 -36t-50 -19.5q37 -4 66 -20t49.5 -40t31.5 -54
t11 -62zM435 177q0 64 -38.5 103.5t-104.5 39.5h-111v-270h121q40 0 66 11.5t41 29.5t20.5 40.5t5.5 45.5zM402 501q0 27 -10 48.5t-27 36.5t-39.5 23t-47.5 8h-97v-248h104q51 0 84 35t33 97z" />
    <glyph glyph-name="C" unicode="C" horiz-adv-x="629" 
d="M597 82q-38 -44 -93.5 -70.5t-126.5 -26.5q-83 0 -145 28.5t-102.5 75.5t-60.5 107t-20 124q0 67 22 132t66.5 116.5t110.5 83t154 31.5q54 0 100 -12.5t79 -30.5v-145q-24 66 -72.5 100t-125.5 34q-61 0 -107 -25t-77 -65.5t-46.5 -92.5t-15.5 -106q0 -56 16 -109
t48 -95t80 -67.5t112 -25.5q56 0 109.5 28t94.5 76v-65z" />
    <glyph glyph-name="D" unicode="D" horiz-adv-x="703" 
d="M654 339q0 -69 -21 -130.5t-63 -108t-105.5 -73.5t-149.5 -27h-260q3 0 10.5 3.5t16 14t14.5 30t6 53.5v470q0 31 -6.5 49.5t-14.5 28t-16 13t-12 4.5h265q79 0 141.5 -24t105.5 -67.5t66 -103.5t23 -132zM566 333q0 136 -67 210t-201 74h-115v-567h141q65 0 111 25
t75 65.5t42.5 91t13.5 101.5z" />
    <glyph glyph-name="E" unicode="E" horiz-adv-x="521" 
d="M470 0h-416q3 0 10.5 3t16 13t14.5 28.5t6 50.5v477q0 31 -6.5 49.5t-15.5 28t-17.5 13t-11.5 3.5h400v-108q-1 4 -4.5 14t-14 20t-31 17.5t-55.5 7.5h-163v-252h136q24 0 38.5 5.5t22.5 12.5t10.5 13.5t3.5 9.5v-131q0 2 -2.5 8.5t-10.5 14t-22.5 13t-38.5 5.5h-137
v-266h168q30 0 51.5 3t37.5 11t27 21.5t22 34.5z" />
    <glyph glyph-name="F" unicode="F" horiz-adv-x="485" 
d="M452 560q-2 10 -7.5 20t-18 18.5t-33.5 13.5t-54 5h-158v-252h141q24 0 38.5 5.5t22.5 12.5t10.5 13.5t3.5 9.5v-132q-2 11 -11 21q-8 8 -22.5 14.5t-40.5 6.5h-142v-224q0 -30 6 -48t14 -28t15.5 -13t10.5 -3h-173q3 0 10.5 3t16 12.5t14.5 27.5t6 50v479
q0 30 -6.5 48.5t-15 28t-17 13t-11.5 4.5h401v-106z" />
    <glyph glyph-name="G" unicode="G" horiz-adv-x="679" 
d="M517 217q0 28 -6.5 44.5t-14.5 25.5t-16 12.5t-11 3.5h174q-3 0 -10.5 -3t-15.5 -12t-14 -25.5t-6 -44.5v-187q-44 -22 -104.5 -34t-117.5 -12q-81 0 -142.5 28t-102.5 75t-61.5 107.5t-20.5 125.5q0 67 22 132t66 116t111.5 82.5t157.5 31.5q57 0 105.5 -12.5
t81.5 -30.5v-139q-21 60 -74.5 94.5t-131.5 34.5q-60 0 -107 -24t-79 -64.5t-49 -92.5t-17 -109q0 -56 17 -109.5t50 -95.5t82.5 -67.5t115.5 -25.5q27 0 61 6.5t57 15.5v153z" />
    <glyph glyph-name="H" unicode="H" horiz-adv-x="720" 
d="M624 93q0 -30 6 -48.5t13.5 -28t15 -13t10.5 -3.5h-172q3 0 10.5 3t15 12.5t13.5 28t6 49.5v222h-364v-222q0 -30 6 -48.5t13.5 -28t15.5 -13t11 -3.5h-173q3 0 10.5 3t15.5 12.5t14 28t6 49.5v480q0 31 -6 49t-14.5 28t-16 13t-10.5 3h174q-2 0 -9.5 -3t-15.5 -12.5
t-14.5 -28t-6.5 -49.5v-208h364v208q0 31 -6 49t-14 28t-15.5 13t-10.5 3h173q-3 0 -10.5 -3t-15 -13t-13.5 -28t-6 -49v-480z" />
    <glyph glyph-name="I" unicode="I" horiz-adv-x="276" 
d="M178 90q0 -29 6 -46.5t13.5 -27t15.5 -13t11 -3.5h-171q3 0 10.5 3t15 12.5t13.5 27t6 47.5v485q0 30 -6 47.5t-14.5 27t-16 12.5t-10.5 4h173q-2 0 -9.5 -3t-15.5 -12.5t-14.5 -27.5t-6.5 -48v-485z" />
    <glyph glyph-name="J" unicode="J" horiz-adv-x="276" 
d="M98 576q0 29 -6 46.5t-14 27t-16 12.5t-11 4h173q-2 0 -9.5 -3t-15.5 -12t-14 -27t-6 -49v-520q0 -56 -18 -95.5t-44 -64.5t-56 -36.5t-54 -11.5q42 23 66.5 71.5t24.5 136.5v521z" />
    <glyph glyph-name="K" unicode="K" horiz-adv-x="646" 
d="M487 102q28 -33 51.5 -53t40.5 -30.5t27.5 -14.5t13.5 -4h-152l-290 331v-239q0 -30 6 -48t13.5 -28t15.5 -13t11 -3h-172q3 0 10.5 3t15 12.5t13.5 27.5t6 49v481q0 31 -6 49t-14 28t-15.5 13t-10.5 3h173q-2 0 -9.5 -3t-15.5 -12.5t-14.5 -28t-6.5 -49.5v-222l213 217
q28 29 38.5 47.5t10.5 29.5q0 12 -8.5 16t-12.5 5h189q-3 0 -14.5 -3.5t-30.5 -14t-46 -30t-60 -53.5l-198 -201z" />
    <glyph glyph-name="L" unicode="L" horiz-adv-x="527" 
d="M472 0h-419q3 0 10 3.5t14.5 13.5t13.5 30t6 53v473q0 31 -6 49t-14 28t-15.5 13t-10.5 3h172q-3 0 -10.5 -3t-15.5 -13t-14 -28t-6 -49v-523h163q33 0 56.5 2.5t41 10.5t29.5 23.5t22 41.5z" />
    <glyph glyph-name="M" unicode="M" horiz-adv-x="840" 
d="M742 93q0 -29 5.5 -47t12.5 -28t14.5 -13.5t11.5 -4.5h-166q4 1 11 4t14 13t12.5 28t5.5 48v468l-252 -573l-252 573v-462q0 -31 6.5 -50t15 -29.5t17 -14.5t12.5 -5h-159q4 1 12.5 4.5t17.5 13.5t16 29.5t7 51.5v478q0 29 -6.5 46t-15.5 26.5t-17.5 12.5t-11.5 4h145
l229 -518l225 518h135q-3 -1 -10.5 -4t-15 -13t-13.5 -27.5t-6 -46.5v-482z" />
    <glyph glyph-name="N" unicode="N" horiz-adv-x="703" 
d="M555 573q0 30 -6.5 48t-15.5 27.5t-17.5 13t-11.5 4.5h158q-3 0 -11 -3t-16.5 -13t-15.5 -28t-7 -49v-602l-454 561v-440q0 -30 7 -48t16 -27.5t18 -13t12 -3.5h-161q3 0 11 3t16.5 12.5t15.5 27.5t7 49v471q0 25 -8.5 43t-20.5 30t-25 19t-22 11h130l401 -497v404z" />
    <glyph glyph-name="O" unicode="O" horiz-adv-x="742" 
d="M693 341q0 -75 -23.5 -140t-67 -113t-104 -75.5t-135.5 -27.5q-71 0 -129 26t-99 71.5t-63.5 108t-22.5 136.5q0 76 24.5 141t68 113t104.5 75t135 27q70 0 128 -26t98.5 -71.5t63 -108.5t22.5 -136zM613 318q0 67 -17.5 123.5t-50.5 98t-79.5 65t-104.5 23.5
q-51 0 -93.5 -19.5t-72.5 -55.5t-47 -86t-17 -111q0 -69 18 -127t51 -100t79.5 -65.5t103.5 -23.5q51 0 93.5 20t72.5 57t47 88t17 113z" />
    <glyph glyph-name="P" unicode="P" horiz-adv-x="549" 
d="M512 473q0 -40 -14.5 -76.5t-44 -65t-72.5 -45.5t-100 -17q-29 0 -58.5 4t-43.5 9v-190q0 -30 6 -48t14 -27.5t16 -13t12 -3.5h-172q3 0 10.5 3t15.5 12.5t14 27.5t6 49v480q0 31 -6.5 49.5t-15 28t-16.5 13t-11 3.5h247q53 0 93 -16t66.5 -43t40 -62t13.5 -72zM429 467
q0 30 -10 57.5t-29 47.5t-48 32t-66 12h-97v-284q14 -5 42 -8t58 -3q36 0 64 11.5t47 31t29 46t10 57.5z" />
    <glyph glyph-name="Q" unicode="Q" horiz-adv-x="742" 
d="M763 -80q-22 -15 -46.5 -21.5t-47.5 -6.5q-32 0 -65 9t-65 23t-61.5 31.5t-53.5 34.5q-14 -2 -29.5 -3.5t-31.5 -1.5q-71 0 -129 26t-99 71.5t-63.5 108t-22.5 136.5q0 76 24.5 141t68 113t104.5 75t135 27q70 0 128 -26t98.5 -71.5t63 -108.5t22.5 -136q0 -52 -11.5 -99
t-33 -87.5t-52.5 -73.5t-70 -55q27 -24 57.5 -43.5t61.5 -33.5t59.5 -21.5t51.5 -7.5h7zM613 318q0 67 -17.5 123.5t-50.5 98t-79.5 65t-104.5 23.5q-51 0 -93.5 -19.5t-72.5 -55.5t-47 -86t-17 -111q0 -69 18 -127t51 -100t79.5 -65.5t103.5 -23.5q51 0 93.5 20t72.5 57
t47 88t17 113z" />
    <glyph glyph-name="R" unicode="R" horiz-adv-x="592" 
d="M433 0l-140 234q-20 35 -39.5 46.5t-46.5 11.5h-25v-200q0 -30 6 -48t13.5 -28t15.5 -13t11 -3h-171q3 0 10.5 3t15.5 12.5t14 27.5t6 49v479q0 31 -6.5 49.5t-15 28.5t-16.5 13t-11 4h234q49 0 89 -14t68.5 -39t44 -58t15.5 -72q0 -30 -10.5 -61t-32.5 -57t-56.5 -43.5
t-82.5 -21.5q13 -5 27 -19.5t25 -33.5l116 -190q20 -32 42 -42.5t38 -14.5h-138zM422 478q0 26 -9.5 51t-28.5 44.5t-47.5 31.5t-65.5 12h-91v-278h91q42 0 70.5 11.5t46.5 30.5t26 44t8 53z" />
    <glyph glyph-name="S" unicode="S" horiz-adv-x="476" 
d="M436 165q0 -29 -9 -57.5t-28 -51.5q-27 -34 -72.5 -52.5t-110.5 -18.5q-50 0 -94 14.5t-78 37.5v152q26 -83 74 -118t110 -35q25 0 49 7t42.5 20.5t30 34.5t11.5 50q0 44 -23 73t-57 52t-74.5 43t-74.5 45.5t-57 60t-23 85.5q0 41 16.5 73.5t45 55.5t65 35t77.5 12
q42 0 81.5 -13t62.5 -32v-132q-20 68 -62 97.5t-94 29.5q-29 0 -51.5 -9t-38 -24.5t-24 -35t-8.5 -40.5q0 -40 23.5 -66.5t58 -48t75.5 -42t75.5 -47t58 -63.5t23.5 -92z" />
    <glyph glyph-name="T" unicode="T" horiz-adv-x="606" 
d="M575 554q-5 17 -12.5 29t-20.5 19.5t-33 10.5t-50 3h-115v-523q0 -30 6 -48.5t13.5 -28t15.5 -13t11 -3.5h-173q3 0 10.5 3t15.5 12.5t14 27.5t6 50v523h-116q-28 0 -47.5 -3t-33 -9.5t-22 -18.5t-13.5 -30l8 111h528z" />
    <glyph glyph-name="U" unicode="U" horiz-adv-x="674" 
d="M524 572q0 30 -6.5 48.5t-15 28t-17 13t-12.5 4.5h165q-3 0 -11.5 -3t-17 -13t-15 -28.5t-6.5 -49.5v-345q0 -119 -57.5 -180.5t-191.5 -61.5q-133 0 -190.5 59.5t-57.5 178.5v351q0 30 -6 48t-14.5 28t-16 13t-10.5 3h174q-2 0 -9.5 -3t-15.5 -12t-14.5 -27t-6.5 -49
v-350q0 -97 42.5 -141.5t136.5 -44.5q51 0 84.5 13.5t53 38t27.5 58t8 74.5v349z" />
    <glyph glyph-name="V" unicode="V" horiz-adv-x="688" 
d="M541 621q0 14 -5 22.5t-11.5 13.5t-13 7t-9.5 2h167q-2 0 -10.5 -3.5t-20.5 -14.5t-26.5 -32t-29.5 -58l-240 -586l-238 589q-14 34 -28 54.5t-26 31.5t-20.5 14.5t-11.5 4.5h186q-2 0 -6.5 -1.5t-9.5 -6t-9 -12t-4 -20.5q0 -20 16 -58l169 -414l168 420q6 15 9.5 26.5
t3.5 20.5z" />
    <glyph glyph-name="W" unicode="W" horiz-adv-x="962" 
d="M813 616q0 15 -4.5 25t-11 15t-12.5 7.5t-9 2.5h167q-3 0 -12 -3.5t-21 -14t-26 -32t-27 -57.5l-206 -587l-170 484l-176 -484l-203 590q-12 34 -25.5 54.5t-25.5 31.5t-21 14.5t-12 3.5h187q-2 0 -6 -2t-8.5 -6.5t-8 -13.5t-3.5 -23q0 -11 2.5 -25t9.5 -33l133 -387
l132 360l-9 30q-10 32 -22 51.5t-22.5 30t-19 14t-11.5 4.5h175q-2 0 -6.5 -2t-9 -7t-8.5 -13.5t-4 -23.5q0 -21 13 -57l135 -385l136 390q10 29 10 48z" />
    <glyph glyph-name="X" unicode="X" horiz-adv-x="673" 
d="M524 118q26 -39 47 -62t36 -35.5t24.5 -16.5t12.5 -4h-199q2 0 6.5 1t9 4.5t8 9.5t3.5 16q0 11 -7.5 29t-26.5 44l-117 168l-118 -163q-22 -30 -31 -48t-9 -30q0 -19 10.5 -24.5t15.5 -6.5h-170q3 0 11.5 3.5t23 15t35.5 33.5t48 60l151 209l-164 242q-23 34 -41.5 54
t-32 30.5t-21.5 14t-11 4.5h193q-3 -1 -14 -6t-11 -24q0 -11 6.5 -26t22.5 -38l123 -179l122 170q20 29 29 46.5t9 28.5q0 17 -9 22t-13 6h168q-2 0 -10.5 -3t-22.5 -12t-32.5 -27t-40.5 -49l-167 -232z" />
    <glyph glyph-name="Y" unicode="Y" horiz-adv-x="644" 
d="M493 634q0 19 -9.5 25t-14.5 7h152q-2 0 -10 -3.5t-20 -13.5t-28.5 -30t-35.5 -53l-167 -286v-187q0 -30 6 -48.5t13.5 -28t15.5 -13t11 -3.5h-174q3 0 10.5 3t15.5 12.5t14 28t6 49.5v186l-168 289q-19 32 -35 51.5t-28 29.5t-20 13.5t-10 3.5h184q-2 0 -5.5 -1.5
t-8 -4.5t-7.5 -9t-3 -16q0 -11 6.5 -26.5t20.5 -39.5l132 -227l125 216q17 29 24.5 46.5t7.5 29.5z" />
    <glyph glyph-name="Z" unicode="Z" horiz-adv-x="585" 
d="M534 0h-500l374 616h-225q-66 0 -95 -19t-36 -51v120h479l-373 -616h232q39 0 65 3.5t43 12.5t27.5 23.5t19.5 36.5z" />
    <glyph glyph-name="bracketleft" unicode="[" horiz-adv-x="285" 
d="M52 -158v835h189v-42h-128v-749h128v-44h-189z" />
    <glyph glyph-name="backslash" unicode="\" horiz-adv-x="431" 
d="M330 -13l-292 688h61l293 -688h-62z" />
    <glyph glyph-name="bracketright" unicode="]" horiz-adv-x="285" 
d="M44 -158v44h128v749h-128v42h189v-835h-189z" />
    <glyph glyph-name="asciicircum" unicode="^" horiz-adv-x="663" 
d="M510 227l-177 451h-5l-174 -451h-62l213 523h55l212 -523h-62z" />
    <glyph glyph-name="underscore" unicode="_" horiz-adv-x="517" 
d="M0 -127v37h517v-37h-517z" />
    <glyph glyph-name="grave" unicode="`" horiz-adv-x="446" 
d="M101 666h112l64 -150z" />
    <glyph glyph-name="a" unicode="a" horiz-adv-x="468" 
d="M406 -19q-31 5 -52.5 28t-26.5 47q-19 -35 -60.5 -53t-88.5 -18q-27 0 -51 7t-42.5 21t-29 34.5t-10.5 47.5q0 25 14 50.5t46.5 49.5t84.5 45t128 38v52q0 57 -25.5 84.5t-69.5 27.5q-51 0 -75.5 -21t-24.5 -48q0 -17 7 -29t18 -16l-81 -33q-5 9 -9 23t-4 32
q0 24 11.5 48.5t35 43.5t58.5 31t82 12q77 0 113.5 -40t36.5 -101v-216q0 -37 17 -65t57 -28q6 0 16 2zM318 237q-105 -24 -151.5 -55t-46.5 -73q0 -36 24 -56t59 -20q22 0 42.5 7.5t36.5 21t26 31.5t10 39v105z" />
    <glyph glyph-name="b" unicode="b" horiz-adv-x="516" 
d="M477 255q0 -52 -15 -100.5t-43 -86t-68.5 -60t-92.5 -22.5q-38 0 -60 4.5t-36 9.5t-23 9.5t-20 4.5q-14 0 -24 -8.5t-19 -19.5v563q0 31 -4 49.5t-10.5 29t-16 14t-21.5 3.5h-9l136 53v-299q24 38 66.5 62t87.5 24q37 0 69 -15.5t54.5 -45t35.5 -72.5t13 -97zM399 234
q0 36 -7.5 71t-22.5 62t-38.5 43.5t-54.5 16.5q-26 0 -49.5 -12t-40.5 -31t-27 -44t-10 -50v-170q0 -41 27.5 -63.5t81.5 -22.5q34 0 60 17t44 45t27.5 64t9.5 74z" />
    <glyph glyph-name="c" unicode="c" horiz-adv-x="441" 
d="M412 137q-19 -77 -66 -114.5t-104 -37.5q-51 0 -89 18.5t-63.5 50t-38 73t-12.5 87.5q0 60 17.5 110t47.5 85.5t71 55.5t88 20q58 0 98.5 -35.5t43.5 -100.5l-79 -35q2 7 3 15.5t1 16.5q0 42 -25.5 65t-61.5 23q-30 0 -54.5 -13.5t-42.5 -38.5t-27.5 -59t-9.5 -75
q0 -39 9.5 -75.5t29 -65.5t48.5 -46.5t68 -17.5t77 23.5t71 70.5z" />
    <glyph glyph-name="d" unicode="d" horiz-adv-x="517" 
d="M379 -21l-1 87q-24 -35 -67 -58t-86 -23q-47 0 -82 18t-58 49.5t-35 74t-12 92.5q0 55 16 103t45.5 84t70.5 57t92 21q37 0 66.5 -13t45.5 -33v120q0 28 -3.5 45t-10.5 26.5t-16 13t-21 3.5h-9l133 52v-572q0 -30 3.5 -48.5t9.5 -28.5t14.5 -13.5t17.5 -3.5h10zM375 315
q0 56 -28.5 88.5t-82.5 32.5q-36 0 -63.5 -16.5t-46.5 -44t-28.5 -62.5t-9.5 -72q0 -92 34.5 -146t95.5 -54q22 0 45 9t41.5 25t30.5 36t12 43v161z" />
    <glyph glyph-name="e" unicode="e" horiz-adv-x="456" 
d="M427 135q-21 -74 -67 -112t-113 -38q-52 0 -91 20t-65 54t-39 77.5t-13 90.5q0 54 14.5 101t41 82t64 55t84.5 20q46 0 79 -20.5t54.5 -54.5t32.5 -77.5t13 -89.5h-310q0 -47 13 -83.5t35 -61.5t51 -38t61 -13q40 0 80.5 21.5t74.5 66.5zM339 284q0 26 -5.5 54t-17.5 51
t-31.5 38t-48.5 15q-30 0 -52 -14.5t-37.5 -37t-24 -51t-9.5 -55.5h226z" />
    <glyph glyph-name="f" unicode="f" horiz-adv-x="315" 
d="M173 420v-329q0 -30 5 -47.5t12 -27t13.5 -13t9.5 -3.5h-155q3 0 9.5 3t14 12t13 27t5.5 49v329h-83v49h83v22q0 92 39 145.5t108 53.5q17 0 28.5 -1.5t16.5 -3.5v-89q-12 23 -31 32t-35 9q-26 0 -39.5 -23.5t-13.5 -80.5v-64h119v-49h-119z" />
    <glyph glyph-name="g" unicode="g" horiz-adv-x="499" 
d="M463 -41q0 -28 -16 -55.5t-48.5 -49t-81.5 -35t-115 -13.5q-30 0 -60.5 5.5t-55.5 17t-40.5 29.5t-15.5 42q0 18 9 34.5t22.5 31t30.5 25.5t32 17q-30 8 -46.5 25t-16.5 40q0 13 7.5 27t19.5 26.5t27.5 23t32.5 18.5q-45 17 -70.5 55.5t-25.5 86.5q0 33 12 64.5t35 56
t58 39.5t82 15q19 0 38 -3.5t38 -9.5q33 -11 67 -11q21 0 42 5t39 18v-63q-11 -3 -36 -5t-45 -2q18 -20 26.5 -47.5t8.5 -55.5q0 -32 -12 -61t-34.5 -51t-56 -34.5t-76.5 -12.5q-25 0 -43 3q-32 -13 -48.5 -29t-16.5 -31t20 -24.5t55 -10.5l120 -3q37 -1 63.5 -9.5t43 -22
t24 -31t7.5 -35.5zM341 310q0 23 -7 46.5t-21 42t-35.5 30.5t-49.5 12q-26 0 -44.5 -9.5t-31.5 -25t-19 -35.5t-6 -41q0 -26 8 -50.5t22.5 -43.5t36 -30t48.5 -11q24 0 42.5 10t31 26t19 36.5t6.5 42.5zM397 -62q0 29 -25.5 41.5t-81.5 14.5q-34 0 -60 1q-23 1 -42 1.5
t-20 0.5q-32 -17 -50.5 -35.5t-18.5 -40.5q0 -28 32.5 -46t100.5 -18q35 0 65 5t52.5 15t35 25t12.5 36z" />
    <glyph glyph-name="h" unicode="h" horiz-adv-x="522" 
d="M447 87q0 -29 5.5 -46t12 -26t13.5 -12t10 -3h-150q2 0 8 2.5t12 11.5t11 25.5t5 45.5v226q0 33 -7.5 55t-19.5 36t-28 20t-34 6q-24 0 -47.5 -10t-43 -27.5t-31.5 -41t-12 -50.5v-214q0 -28 5 -44.5t11.5 -25.5t13 -12t9.5 -3h-153q3 0 9.5 3t13.5 12t12.5 26t5.5 46
v459q0 30 -3.5 49t-10 29t-16.5 13.5t-22 3.5h-9l134 57v-302q12 19 31 35t41.5 28t47 19t47.5 7q59 0 94 -38t35 -116v-244z" />
    <glyph glyph-name="i" unicode="i" horiz-adv-x="225" 
d="M150 87q0 -29 5.5 -46t12.5 -26t14.5 -12t10.5 -3h-160q3 0 10 3t14.5 12t13 26t5.5 46v265q0 50 -12.5 65t-34.5 15h-11l132 56v-401zM157 620q0 -20 -13.5 -35t-38.5 -15q-24 0 -38 15t-14 35t13.5 35t38.5 15t38.5 -15t13.5 -35z" />
    <glyph glyph-name="j" unicode="j" horiz-adv-x="225" 
d="M151 -13q0 -49 -8 -82.5t-23 -53.5t-36.5 -29t-47.5 -9q-29 0 -52 9.5t-37 20.5q10 -3 23 -3q27 0 47 6t33.5 22.5t20.5 44.5t7 73v372q0 45 -13 59.5t-34 14.5h-11l131 56v-501zM154 620q0 -20 -13.5 -35t-38.5 -15q-24 0 -38 15t-14 35t13.5 35t38.5 15t38.5 -15
t13.5 -35z" />
    <glyph glyph-name="k" unicode="k" horiz-adv-x="517" 
d="M507 15q-17 -13 -40 -19t-49 -6q-35 0 -65 20t-65 64q-37 45 -67 82q-13 15 -25 30.5t-22 27.5t-16.5 20t-7.5 9v-156q0 -29 5 -46t12 -26t13.5 -12t9.5 -3h-154q3 0 9.5 3t13.5 12t12.5 26t5.5 46v460q0 30 -3.5 48.5t-10 28t-16.5 13t-22 3.5h-8l133 53v-434l141 132
q20 19 27.5 32t7.5 21q0 7 -3.5 11.5t-8.5 7.5t-10 4.5t-8 1.5h194q-2 -1 -11.5 -4t-26 -11t-39.5 -23.5t-52 -41.5l-136 -122l150 -176q41 -48 69 -63t48 -15q5 0 15 2z" />
    <glyph glyph-name="l" unicode="l" horiz-adv-x="225" 
d="M150 87q0 -29 5 -46t12 -26t13.5 -12t9.5 -3h-154q3 0 9.5 3t13 12t12 26t5.5 46v460q0 30 -3.5 48t-10 28t-16 13.5t-21.5 3.5h-8l133 53v-606z" />
    <glyph glyph-name="m" unicode="m" horiz-adv-x="786" 
d="M711 87q0 -29 5 -46t12 -26t13.5 -12t9.5 -3h-151q3 0 9 3t12.5 12t11.5 26t5 46v216q0 68 -22.5 96.5t-57.5 28.5q-25 0 -48 -10.5t-40.5 -28t-28 -40.5t-10.5 -49v-213q0 -29 5 -46t11.5 -26t13 -12t9.5 -3h-150q3 0 9 3t12.5 12t11.5 26t5 46v216q0 34 -6.5 58
t-17.5 39t-25.5 21.5t-30.5 6.5q-24 0 -47 -10.5t-40.5 -28t-28.5 -40.5t-11 -49v-213q0 -29 5 -46t11.5 -26t12.5 -12t9 -3h-153q3 0 9.5 3t13.5 11.5t12.5 25.5t5.5 46v256q0 29 -3 46.5t-9.5 27.5t-15.5 13t-21 3h-11l132 56l1 -94q13 22 32.5 39t41.5 28.5t45 17.5t44 6
q42 0 71 -24t37 -67q12 18 29.5 34.5t39.5 29t47.5 20t51.5 7.5q31 0 54 -13t38 -35t22.5 -51.5t7.5 -63.5v-235z" />
    <glyph glyph-name="n" unicode="n" horiz-adv-x="521" 
d="M447 87q0 -29 5 -46t12 -26t13.5 -12t9.5 -3h-152q3 0 9 3t12.5 11.5t11.5 25.5t5 46v225q0 62 -25 89.5t-63 27.5q-24 0 -48 -10.5t-43.5 -28t-31.5 -41t-12 -49.5v-214q0 -28 5 -44.5t12 -25.5t13.5 -12t9.5 -3h-154q3 0 9.5 3t13.5 11.5t12.5 25.5t5.5 46v256
q0 29 -3 47t-9.5 27.5t-15.5 12.5t-21 3h-11l132 56v-94q12 19 32 35.5t43 29t47.5 19.5t46.5 7q24 0 47.5 -8t41.5 -26t29 -47.5t11 -72.5v-244z" />
    <glyph glyph-name="o" unicode="o" horiz-adv-x="539" 
d="M497 243q0 -45 -14 -91t-43 -83t-73 -60.5t-104 -23.5q-57 0 -99 21.5t-69 55.5t-40 77t-13 87q0 45 14 91.5t42.5 83.5t72.5 60.5t103 23.5q58 0 100 -21.5t69.5 -56t40.5 -78t13 -86.5zM418 222q0 36 -10 74.5t-30 69.5t-50 51t-71 20q-37 0 -63.5 -18t-43 -46t-24 -61
t-7.5 -63q0 -37 10 -75.5t30 -69.5t50.5 -51t71.5 -20q37 0 63 18.5t42.5 46t24 61t7.5 63.5z" />
    <glyph glyph-name="p" unicode="p" horiz-adv-x="516" 
d="M477 250q0 -52 -15 -100t-43.5 -84.5t-69.5 -58t-94 -21.5q-38 0 -64 10.5t-43 30.5v-121q0 -28 5 -45t12 -26t13.5 -12t9.5 -4h-151q3 0 9 3t13 12t12 26t5 46v443q0 27 -3.5 43t-9.5 25t-14 12t-18 3h-9l124 56l1 -90q27 43 66 65t82 22q34 0 67 -14.5t58.5 -43.5
t41 -73t15.5 -104zM397 232q0 44 -9 80t-25.5 62t-40.5 40t-54 14q-23 0 -44.5 -10t-38 -27t-27 -41t-10.5 -51v-160q0 -50 25.5 -78t79.5 -28q36 0 63 17t45 44.5t27 63.5t9 74z" />
    <glyph glyph-name="q" unicode="q" horiz-adv-x="516" 
d="M440 -95q0 -28 5 -44.5t11.5 -25.5t12.5 -12t9 -4h-148q3 0 9 3t12 12t11 26t5 46v166q-26 -43 -66.5 -64.5t-85.5 -21.5q-37 0 -69 15.5t-55.5 45t-37 72t-13.5 97.5q0 52 15 100.5t43.5 86t69 60t92.5 22.5q36 0 56.5 -4.5t34 -10t22.5 -10t23 -4.5q15 0 24.5 8.5
t19.5 20.5v-580zM368 351q0 41 -27 63.5t-81 22.5q-35 0 -61.5 -17t-44.5 -45.5t-27 -64.5t-9 -74q0 -40 8 -75t24 -61.5t39 -41.5t53 -15q24 0 46.5 11.5t40.5 31t28.5 44t10.5 50.5v171z" />
    <glyph glyph-name="r" unicode="r" horiz-adv-x="364" 
d="M339 370q-13 19 -32 31.5t-42 12.5t-44 -13.5t-37.5 -38.5t-26.5 -59t-10 -76v-139q0 -29 5 -46t12 -26t13.5 -12.5t9.5 -3.5h-153q3 0 9.5 3t13.5 12t12.5 26.5t5.5 46.5v267q0 25 -3 40.5t-9 23.5t-14 11t-18 3h-10l124 55v-126q7 22 22 44t34.5 39.5t43.5 28.5t50 11
q20 0 44 -11v-104z" />
    <glyph glyph-name="s" unicode="s" horiz-adv-x="370" 
d="M340 122q0 -63 -44.5 -100t-122.5 -37q-40 0 -75.5 11t-57.5 28v117q22 -60 56 -85t78 -25q16 0 33.5 3.5t32 11.5t24 21.5t9.5 33.5q0 19 -8.5 34t-24.5 27.5t-37.5 24t-46.5 25.5q-25 13 -45.5 26.5t-35 29t-22.5 35t-8 45.5q0 30 11 55t31.5 43.5t48 28.5t60.5 10
q69 0 118 -32v-102q-43 89 -119 89q-35 0 -61 -19t-26 -51q0 -15 4 -27t15.5 -23t31 -23.5t50.5 -28.5q28 -15 52 -29t41.5 -30.5t27.5 -37.5t10 -49z" />
    <glyph glyph-name="t" unicode="t" horiz-adv-x="324" 
d="M309 98q-14 -60 -47 -86.5t-74 -26.5q-46 0 -75 33.5t-29 94.5v307h-62l134 159v-110h137v-49h-137v-286q0 -49 17.5 -70t43.5 -21q23 0 48 15.5t44 39.5z" />
    <glyph glyph-name="u" unicode="u" horiz-adv-x="515" 
d="M367 -18v99q-29 -46 -75.5 -71t-94.5 -25q-56 0 -91.5 36.5t-35.5 125.5v228q0 33 -6.5 51t-15.5 27t-18 11.5t-13 4.5h127v-310q0 -60 25 -88.5t62 -28.5q25 0 49.5 12.5t43.5 32t30.5 44t11.5 48.5v204q0 30 -5.5 46.5t-12.5 24.5t-14 10.5t-10 4.5h115v-349
q0 -26 3 -42t9.5 -25t16 -12t21.5 -3h10z" />
    <glyph glyph-name="v" unicode="v" horiz-adv-x="499" 
d="M374 422q0 14 -5.5 23t-13 14.5t-14 7.5t-9.5 2h164q-2 0 -9.5 -3t-18 -11.5t-22.5 -24.5t-23 -43l-176 -420l-178 428q-10 24 -21 38.5t-20 22t-16 10.5t-9 3h175q-2 0 -7.5 -2t-11.5 -6t-10.5 -11.5t-4.5 -19.5q0 -15 10 -38l108 -267l101 255q11 27 11 42z" />
    <glyph glyph-name="w" unicode="w" horiz-adv-x="729" 
d="M605 423q0 14 -5 23t-11.5 14t-13 7t-9.5 2h159q-2 0 -10 -3t-18.5 -11t-22 -24.5t-21.5 -43.5l-158 -420l-129 342l-134 -342l-162 428q-9 24 -19.5 38t-20 22t-16.5 10.5t-10 3.5h166q-2 0 -7.5 -2t-10.5 -6.5t-9 -11.5t-4 -19q0 -14 9 -38l101 -270l93 251
q-2 5 -4 11.5t-4 11.5q-9 24 -19 38t-19 21.5t-15.5 10.5t-8.5 3h164q-3 0 -8.5 -2t-11 -6t-9.5 -12t-4 -20q0 -15 9 -37l95 -267l88 255q5 14 7.5 24.5t2.5 18.5z" />
    <glyph glyph-name="x" unicode="x" horiz-adv-x="485" 
d="M395 79q18 -25 31.5 -40.5t23 -24t15.5 -11.5t8 -3h-156q2 0 8.5 4t6.5 18q0 9 -5.5 22.5t-19.5 34.5l-72 105l-70 -97q-17 -24 -23.5 -39t-6.5 -25q0 -14 7 -18t10 -5h-139q2 0 9 2.5t19 11.5t29 27t39 49l97 136l-105 152q-20 29 -35.5 46.5t-26.5 27t-17.5 13
t-8.5 4.5h161q-3 -1 -11 -5.5t-8 -18.5q0 -9 5.5 -22t18.5 -32l71 -103l73 101q16 22 21.5 35.5t5.5 22.5q0 13 -8 17l-10 5h139q-2 0 -9.5 -3t-19 -11t-27.5 -24t-35 -43l-101 -142z" />
    <glyph glyph-name="y" unicode="y" horiz-adv-x="485" 
d="M483 469l-9 -4.5t-16 -12t-20 -24.5t-21 -41l-130 -331q-38 -97 -83 -163.5t-98 -86.5l-90 81q11 -5 24 -7t24 -2q21 0 39.5 6t36.5 21.5t36.5 43t39.5 70.5l-145 372q-10 25 -21 39.5t-20.5 23t-17 11.5t-10.5 4h171q-6 -2 -16.5 -11t-10.5 -30q0 -11 3.5 -22.5
t8.5 -24.5l99 -262l97 249q14 35 14 57q0 13 -4 21.5t-9.5 13.5t-11 7t-8.5 2h148z" />
    <glyph glyph-name="z" unicode="z" horiz-adv-x="427" 
d="M33 0l262 428h-160q-39 0 -61 -19t-27 -50v110h355l-258 -423h185q33 0 54 17.5t26 48.5v-112h-376z" />
    <glyph glyph-name="braceleft" unicode="{" horiz-adv-x="370" 
d="M332 -189q-48 1 -84 6.5t-59 19t-34.5 38.5t-11.5 67v156q0 49 -7 78.5t-21.5 46t-36 23t-49.5 9.5q28 4 49.5 10.5t36 22.5t21.5 45t7 78v156q0 42 11.5 67t34.5 39t59 19t84 7q-32 -5 -54.5 -13t-36.5 -21.5t-20.5 -33.5t-6.5 -49v-136q0 -59 -10 -95.5t-26.5 -57.5
t-37 -29t-40.5 -9q20 -2 40.5 -9.5t37 -28.5t26.5 -58t10 -96v-136q0 -58 27.5 -82.5t90.5 -33.5z" />
    <glyph glyph-name="bar" unicode="|" horiz-adv-x="224" 
d="M83 -220v1000h58v-1000h-58z" />
    <glyph glyph-name="braceright" unicode="}" horiz-adv-x="370" 
d="M324 255q-29 -3 -50 -9.5t-35.5 -23t-21.5 -46t-7 -78.5v-156q0 -42 -11.5 -67t-34.5 -38.5t-59 -19t-84 -6.5q63 9 90.5 33.5t27.5 82.5v136q0 59 10.5 96t27 58t37 28.5t40.5 9.5q-20 1 -40.5 9t-37 29t-27 57.5t-10.5 95.5v136q0 29 -6.5 49t-20.5 33.5t-36.5 21.5
t-54.5 13q48 -2 84 -7t59 -19t34.5 -39t11.5 -67v-156q0 -49 7 -78t21.5 -45t35.5 -22.5t50 -10.5z" />
    <glyph glyph-name="asciitilde" unicode="~" horiz-adv-x="663" 
d="M577 373q3 -72 -27 -107.5t-83 -35.5q-39 0 -74.5 14t-68.5 31t-64 31t-61 14q-27 0 -42 -21t-15 -64h-54q-1 35 7.5 61.5t24.5 44.5t38 27t48 9q37 0 71 -14t67 -31t64 -31t62 -14q29 0 41.5 25.5t12.5 60.5h53z" />
    <glyph glyph-name="uni00A0" unicode="&#xa0;" horiz-adv-x="291" 
 />
    <glyph glyph-name="exclamdown" unicode="&#xa1;" horiz-adv-x="282" 
d="M181 -53q1 -41 6 -65.5t10.5 -37.5t10.5 -17t7 -5h-147q1 0 6 3.5t10.5 16t10.5 37.5t7 68l8 267q1 24 5 44t9.5 36t10 26.5t6.5 13.5q1 -3 6 -13.5t10.5 -26.5t10 -36t5.5 -44zM196 447q0 -21 -14.5 -36.5t-40.5 -15.5t-39.5 15.5t-13.5 36.5t13.5 36.5t39.5 15.5
t40.5 -15.5t14.5 -36.5z" />
    <glyph glyph-name="cent" unicode="&#xa2;" 
d="M431 237q-17 -69 -54.5 -106t-85.5 -46v-92h-51v89q-46 4 -80.5 24t-57 51t-34 70.5t-11.5 82.5q0 54 13.5 99.5t37.5 80.5t57.5 57.5t74.5 29.5v98h51v-96q26 -2 49.5 -12t41.5 -27t29 -41t12 -54l-79 -34q4 12 4 31q0 42 -27.5 65t-63.5 23q-30 0 -54 -13.5
t-40.5 -38.5t-25.5 -59t-9 -75q0 -40 10 -77t29 -65.5t47.5 -45.5t66.5 -17q40 0 78 24t72 74z" />
    <glyph glyph-name="sterling" unicode="&#xa3;" 
d="M492 25q-39 -40 -126 -40q-35 0 -62.5 5t-51 11t-46 11t-48.5 5q-27 0 -54 -6.5t-47 -19.5l-25 61q37 3 60 21t36 51t17.5 80t4.5 107h-76v49h77q1 64 7 122t25.5 102.5t56.5 71t100 26.5q33 0 64.5 -8.5t50.5 -23.5l-43 -83q-5 26 -25 46.5t-58 20.5q-36 0 -55.5 -21
t-28.5 -58t-11 -87t-2 -108h113v-49h-113q0 -39 -3.5 -78t-12 -72.5t-24.5 -59.5t-41 -39q12 2 25 4t24 2q21 0 37.5 -3t32.5 -6.5t32 -6.5t37 -3q44 0 73 12t49 41z" />
    <glyph glyph-name="currency" unicode="&#xa4;" horiz-adv-x="534" 
d="M401 164l-63 62q-29 -21 -72 -21q-21 0 -39 5.5t-32 15.5l-62 -62l-35 35l63 61q-21 33 -21 73q0 20 4.5 38t15.5 35l-62 61l35 34l62 -61q29 21 71 21q23 0 41 -6t32 -16l59 59l34 -34l-59 -60q20 -31 20 -71q0 -19 -5 -37.5t-16 -34.5l63 -63zM347 333q0 33 -20 60
t-61 27t-60.5 -27t-19.5 -60q0 -17 5 -32.5t15 -28t25 -20t35 -7.5t35.5 7.5t25.5 20t15 28t5 32.5z" />
    <glyph glyph-name="yen" unicode="&#xa5;" horiz-adv-x="522" 
d="M387 628q0 23 -9.5 30t-14.5 8h144q-2 0 -10 -3.5t-19 -14t-25 -30t-28 -52.5l-59 -136h119v-42h-137l-43 -99h180v-43h-185v-144q0 -34 6.5 -54t14.5 -30.5t16 -14t11 -3.5h-175q3 0 11 3t16.5 13.5t15.5 30.5t7 55v144h-191v43h185l-44 99h-141v42h123l-62 138
q-14 31 -27.5 50t-24.5 29.5t-19 14t-11 4.5h169q-3 -1 -12 -7t-9 -28q0 -11 3.5 -26t13.5 -37l99 -225l92 215q20 47 20 70z" />
    <glyph glyph-name="brokenbar" unicode="&#xa6;" horiz-adv-x="224" 
d="M82 325v350h59v-350h-59zM82 -175v350h59v-350h-59z" />
    <glyph glyph-name="section" unicode="&#xa7;" horiz-adv-x="584" 
d="M506 253q0 -48 -25.5 -80.5t-76.5 -54.5q35 -21 56 -48.5t21 -68.5q0 -38 -16 -68.5t-43.5 -52t-64 -33t-78.5 -11.5q-72 0 -122 25.5t-78 60.5q1 1 7.5 9.5t15 19t15.5 20t9 12.5q19 -26 41 -44t45 -29t45.5 -15.5t42.5 -4.5q21 0 40.5 6.5t34.5 18.5t24 29t9 39
q0 31 -24 53t-60.5 40t-79 34t-79 36.5t-60.5 47t-24 65.5q0 48 30 81.5t81 53.5q-50 27 -69.5 55.5t-19.5 63.5q0 38 17 68t46.5 51t68.5 32t83 11q49 0 91 -14.5t66 -42.5q0 -2 -6 -10.5t-13.5 -19t-14.5 -20t-8 -12.5q-26 32 -63.5 49.5t-73.5 17.5q-24 0 -46 -6.5
t-38.5 -17.5t-26.5 -26.5t-10 -34.5q0 -33 24.5 -55.5t61.5 -40.5t79.5 -34t79.5 -37t61.5 -49t24.5 -69zM436 239q0 23 -21 42.5t-51 35.5t-63 29.5t-57 25.5q-48 -17 -70.5 -39t-22.5 -53q0 -26 22.5 -45.5t54 -35.5t66.5 -29.5t60 -26.5q32 13 57 35t25 61z" />
    <glyph glyph-name="dieresis" unicode="&#xa8;" horiz-adv-x="446" 
d="M359 620q0 -19 -12.5 -32t-32.5 -13q-21 0 -34 13t-13 32t13 31.5t34 12.5t33 -12.5t12 -31.5zM185 620q0 -19 -12.5 -32t-33.5 -13t-33.5 13t-12.5 32t12.5 31.5t33.5 12.5t33.5 -12.5t12.5 -31.5z" />
    <glyph glyph-name="copyright" unicode="&#xa9;" horiz-adv-x="754" 
d="M717 333q0 -86 -29 -150.5t-77 -107.5t-109 -64.5t-125 -21.5t-125.5 21.5t-109.5 64.5t-77 107.5t-29 150.5t29 150.5t77 107.5t109.5 64.5t125.5 21.5t125 -21.5t109 -64.5t77 -107.5t29 -150.5zM676 333q0 78 -25.5 136.5t-67.5 97t-96 58t-110 19.5t-110 -19.5
t-96.5 -58.5t-68.5 -97t-26 -135q0 -78 26 -136.5t68.5 -97.5t96.5 -58.5t110 -19.5t109.5 19.5t95.5 58.5t68 97t26 136zM516 166q-19 -26 -56 -44.5t-78 -18.5q-51 0 -89 19t-63 50t-37.5 71t-12.5 82q0 44 13.5 86.5t40 75.5t66 53.5t91.5 20.5q36 0 65 -10t52 -26v-118
q-20 61 -50.5 86.5t-68.5 25.5q-35 0 -62.5 -14t-46 -38t-28.5 -57.5t-10 -72.5q0 -38 10.5 -72t30.5 -59t47.5 -39.5t62.5 -14.5q38 0 67 17t56 51v-54z" />
    <glyph glyph-name="ordfeminine" unicode="&#xaa;" horiz-adv-x="364" 
d="M299 319q-22 4 -37 18.5t-20 31.5q-15 -23 -45 -35t-62 -12q-40 0 -68.5 21t-28.5 60q0 37 44 72t152 59v36q0 41 -18 59.5t-49 18.5q-36 0 -53.5 -15t-17.5 -33q0 -25 22 -32l-64 -25q-4 8 -7 18t-3 23q0 18 8.5 35.5t25.5 31.5t42.5 22.5t59.5 8.5q57 0 83 -28.5
t26 -73.5v-154q0 -27 12.5 -46.5t41.5 -19.5q2 0 16 3zM234 502q-75 -17 -107.5 -39t-32.5 -51q0 -25 16.5 -39t41.5 -14q15 0 30 5.5t26.5 15t18.5 22t7 27.5v73z" />
    <glyph glyph-name="guillemotleft" unicode="&#xab;" horiz-adv-x="416" 
d="M323 72l-125 180l125 180h63l-124 -180l125 -180h-64zM156 72l-124 180l125 180h63l-125 -180l125 -180h-64z" />
    <glyph glyph-name="logicalnot" unicode="&#xac;" horiz-adv-x="664" 
d="M549 139v214h-489v53h544v-267h-55z" />
    <glyph glyph-name="uni00AD" unicode="&#xad;" horiz-adv-x="360" 
d="M56 220v62h248v-62h-248z" />
    <glyph glyph-name="registered" unicode="&#xae;" horiz-adv-x="753" 
d="M717 333q0 -86 -29 -150.5t-76.5 -107.5t-108.5 -64.5t-125 -21.5t-125.5 21.5t-109.5 64.5t-77.5 107.5t-29.5 150.5t29.5 150.5t77.5 107.5t109.5 64.5t125.5 21.5t125 -21.5t108.5 -64.5t76.5 -107.5t29 -150.5zM676 333q0 78 -25.5 136.5t-67.5 97t-96 58t-110 19.5
t-110 -19.5t-96.5 -58.5t-68.5 -97t-26 -135q0 -78 26 -136.5t68.5 -97.5t96.5 -58.5t110 -19.5t109.5 19.5t95.5 58.5t68 97t26 136zM469 119l-64 121q-20 37 -33.5 49.5t-33.5 12.5h-21v-115q0 -18 2.5 -30t6.5 -19.5t7.5 -11.5t5.5 -7h-95q2 3 5.5 7t7 11.5t6 19.5
t2.5 30v302q0 18 -3 30.5t-7 20t-8 11.5l-6 6h144q32 0 56 -10.5t39.5 -27.5t23.5 -39t8 -45t-7 -44t-20.5 -38t-33.5 -27.5t-46 -11.5q11 -4 24 -18t30 -45l43 -79q13 -24 25 -36t20 -17h-78zM461 430q0 16 -5 31.5t-15.5 27.5t-26 19t-36.5 7h-62v-172h64q39 0 60 26.5
t21 60.5z" />
    <glyph glyph-name="macron" unicode="&#xaf;" horiz-adv-x="446" 
d="M69 589v42h307v-42h-307z" />
    <glyph glyph-name="degree" unicode="&#xb0;" horiz-adv-x="410" 
d="M339 554q0 -27 -9 -50.5t-26 -40.5t-41 -27t-53 -10t-53 10t-41 27t-26.5 40.5t-9.5 50.5t9.5 50.5t26.5 40.5t41 27t53 10t53 -10t41 -27t26 -40.5t9 -50.5zM294 554q0 38 -23 62.5t-61 24.5t-61 -24.5t-23 -62.5t23 -63t60 -25q38 0 61.5 25t23.5 63z" />
    <glyph glyph-name="plusminus" unicode="&#xb1;" horiz-adv-x="663" 
d="M360 340v-214h-55v214h-242v54h242v208h55v-208h240v-54h-240zM63 0v53h537v-53h-537z" />
    <glyph glyph-name="uni00B2" unicode="&#xb2;" horiz-adv-x="347" 
d="M249 339q18 0 30.5 4t20.5 9t11.5 9.5t4.5 6.5l-14 -77h-274l91 99q51 54 79.5 96t28.5 80t-22 58.5t-51 20.5q-26 0 -43 -14.5t-17 -34.5q0 -13 8.5 -23.5t21.5 -14.5l-44 -43q-17 6 -29 22.5t-12 39.5q0 19 8 38t24.5 34.5t41.5 25t58 9.5q23 0 45 -7t39.5 -20.5
t28 -34t10.5 -48.5q0 -23 -10 -46t-27.5 -47t-40.5 -50t-49 -53l-38 -39h120z" />
    <glyph glyph-name="uni00B3" unicode="&#xb3;" horiz-adv-x="347" 
d="M306 386q0 -24 -11 -43.5t-30 -33t-44 -21t-53 -7.5q-51 0 -85.5 19t-45.5 52l62 40q2 -32 23 -51.5t53 -19.5q30 0 48.5 15.5t18.5 41.5q0 38 -38 61t-96 24l10 39q8 -2 15 -3t15 -1q38 0 61 23.5t23 53.5q0 25 -19.5 47t-52.5 22q-28 0 -44 -12t-16 -29q0 -7 4 -14.5
t11 -11.5l-58 -27q-14 17 -14 41q0 18 9 34.5t26.5 29.5t41.5 20.5t54 7.5q57 0 89 -28t32 -68q0 -35 -24.5 -64t-62.5 -38q46 -11 72 -38t26 -61z" />
    <glyph glyph-name="acute" unicode="&#xb4;" horiz-adv-x="446" 
d="M185 516l67 150h107z" />
    <glyph glyph-name="mu" unicode="&#xb5;" horiz-adv-x="511" 
d="M363 -18v96q-31 -51 -68.5 -72t-75.5 -21q-23 0 -43.5 7.5t-35.5 24.5v-198h-72v555q0 33 -7 51.5t-16 27.5t-18 11.5t-13 4.5h126v-310q0 -117 90 -117q25 0 49 12t42.5 31.5t29.5 44t11 48.5v205q0 30 -5.5 46.5t-12.5 24.5t-14 10.5t-10 4.5h115v-349q0 -26 3 -42.5
t9.5 -25.5t16 -12t21.5 -3h10z" />
    <glyph glyph-name="paragraph" unicode="&#xb6;" horiz-adv-x="625" 
d="M521 667q-3 -22 -6 -48q-2 -22 -3.5 -50.5t-1.5 -58.5v-690h-51v802h-90v-802h-50v345q-65 0 -114 21t-83 56t-51 80t-17 93t17 93t51 80.5t86 57t122 21.5h191z" />
    <glyph glyph-name="periodcentered" unicode="&#xb7;" horiz-adv-x="235" 
d="M177 241q0 -23 -15.5 -40t-43.5 -17q-29 0 -44 17t-15 40t15 40.5t44 17.5q28 0 43.5 -17.5t15.5 -40.5z" />
    <glyph glyph-name="cedilla" unicode="&#xb8;" horiz-adv-x="446" 
d="M320 -107q0 -27 -24 -49.5t-72 -22.5q-20 0 -39.5 5.5t-33.5 14.5q8 -2 17 -2.5t16 -0.5q35 0 55 17.5t20 38.5q0 19 -18.5 33t-53.5 15l38 67h44l-28 -47q41 -5 60 -25.5t19 -43.5z" />
    <glyph glyph-name="uni00B9" unicode="&#xb9;" horiz-adv-x="266" 
d="M74 291q2 1 8.5 4.5t13 13t12 27.5t5.5 49v196q-19 -21 -41 -46t-37 -41v56q29 31 61 68.5t53 63.5h24v-297q0 -31 5.5 -49t12.5 -27.5t13.5 -13t8.5 -4.5h-139z" />
    <glyph glyph-name="ordmasculine" unicode="&#xba;" horiz-adv-x="403" 
d="M366 508q0 -34 -10.5 -67.5t-31.5 -60t-52.5 -43t-73.5 -16.5q-40 0 -70 15t-49.5 39.5t-29.5 55.5t-10 64q0 34 10.5 67.5t31.5 59.5t52.5 42.5t72.5 16.5q40 0 70 -15t50 -39t30 -55t10 -64zM307 493q0 25 -7 52t-21.5 49t-36 36t-49.5 14q-26 0 -44.5 -13t-30 -33
t-16.5 -43t-5 -43q0 -26 7 -53t21.5 -49.5t35.5 -36.5t50 -14q26 0 44.5 13.5t30 33.5t16.5 43.5t5 43.5z" />
    <glyph glyph-name="guillemotright" unicode="&#xbb;" horiz-adv-x="416" 
d="M259 72h-64l124 180l-124 180h63l125 -180zM92 72h-63l125 180l-125 180h63l125 -180z" />
    <glyph glyph-name="onequarter" unicode="&#xbc;" horiz-adv-x="810" 
d="M652 92v-33q0 -19 3 -30.5t6.5 -17.5t7 -8.5t5.5 -2.5h-107q2 0 6 2.5t7.5 9t6.5 18t3 30.5v32h-183l245 314v-274h56v-40h-56zM225 0h-58l388 681h56zM590 272l-109 -140h109v140zM114 291q2 1 8.5 4.5t13 13t12 27.5t5.5 49v196q-19 -21 -41 -46t-37 -41v56
q29 31 61 68.5t53 63.5h24v-297q0 -31 5.5 -49t12.5 -27.5t13.5 -13t8.5 -4.5h-139z" />
    <glyph glyph-name="onehalf" unicode="&#xbd;" horiz-adv-x="791" 
d="M675 48q18 0 30.5 4t20.5 9t11.5 9.5t4.5 6.5l-14 -77h-274l91 99q51 54 79.5 96t28.5 80t-22 58.5t-51 20.5q-26 0 -43 -14.5t-17 -34.5q0 -13 8.5 -23.5t21.5 -14.5l-44 -43q-17 6 -29 22.5t-12 39.5q0 19 8 38t24.5 34.5t41.5 25t58 9.5q23 0 45 -7t39.5 -20.5t28 -34
t10.5 -48.5q0 -23 -10 -46t-27.5 -47t-40.5 -50t-49 -53l-38 -39h120zM200 0h-58l388 681h56zM114 291q2 1 8.5 4.5t13 13t12 27.5t5.5 49v196q-19 -21 -41 -46t-37 -41v56q29 31 61 68.5t53 63.5h24v-297q0 -31 5.5 -49t12.5 -27.5t13.5 -13t8.5 -4.5h-139z" />
    <glyph glyph-name="threequarters" unicode="&#xbe;" horiz-adv-x="845" 
d="M687 92v-33q0 -19 3 -30.5t6.5 -17.5t7 -8.5t5.5 -2.5h-107q2 0 6 2.5t7.5 9t6.5 18t3 30.5v32h-183l245 314v-274h56v-40h-56zM321 386q0 -24 -11 -43.5t-30 -33t-44 -21t-53 -7.5q-51 0 -85.5 19t-45.5 52l62 40q2 -32 23 -51.5t53 -19.5q30 0 48.5 15.5t18.5 41.5
q0 38 -38 61t-96 24l10 39q8 -2 15 -3t15 -1q38 0 61 23.5t23 53.5q0 25 -19.5 47t-52.5 22q-28 0 -44 -12t-16 -29q0 -7 4 -14.5t11 -11.5l-58 -27q-14 17 -14 41q0 18 9 34.5t26.5 29.5t41.5 20.5t54 7.5q57 0 89 -28t32 -68q0 -35 -24.5 -64t-62.5 -38q46 -11 72 -38
t26 -61zM260 0h-58l388 681h56zM625 272l-109 -140h109v140z" />
    <glyph glyph-name="questiondown" unicode="&#xbf;" horiz-adv-x="456" 
d="M298 459q0 -21 -14 -36.5t-40 -15.5t-40 15.5t-14 36.5t14 36.5t40 15.5t40 -15.5t14 -36.5zM364 -140q-30 -19 -73 -30.5t-88 -11.5q-35 0 -66 8.5t-54 25.5t-36.5 44t-13.5 64q0 35 15 64.5t37 55t48 48.5t48 46t37 47t15 52q0 32 -27 52q8 8 21 8q26 0 48 -21.5
t22 -53.5q0 -31 -13.5 -56.5t-33.5 -48t-43 -43t-43 -42.5t-33.5 -46.5t-13.5 -53.5q0 -48 30 -73.5t71 -25.5q42 0 83 26t63 82v-117z" />
    <glyph glyph-name="Agrave" unicode="&#xc0;" horiz-adv-x="692" 
d="M580 115q15 -38 29.5 -60.5t27 -34.5t21 -16t11.5 -4h-183q2 0 7 1.5t10.5 5.5t9.5 12t4 22q0 11 -4.5 25t-12.5 34l-41 106h-257l-40 -102q-7 -18 -11 -31.5t-4 -24.5q0 -15 5 -24.5t11.5 -14.5t12.5 -7t9 -2h-163q2 0 9.5 3.5t19 15t26 34.5t31.5 63l237 578zM330 530
l-109 -274h218zM218 849h107l68 -147z" />
    <glyph glyph-name="Aacute" unicode="&#xc1;" horiz-adv-x="692" 
d="M580 115q15 -38 29.5 -60.5t27 -34.5t21 -16t11.5 -4h-183q2 0 7 1.5t10.5 5.5t9.5 12t4 22q0 11 -4.5 25t-12.5 34l-41 106h-257l-40 -102q-7 -18 -11 -31.5t-4 -24.5q0 -15 5 -24.5t11.5 -14.5t12.5 -7t9 -2h-163q2 0 9.5 3.5t19 15t26 34.5t31.5 63l237 578zM330 530
l-109 -274h218zM309 702l67 147h107z" />
    <glyph glyph-name="Acircumflex" unicode="&#xc2;" horiz-adv-x="692" 
d="M580 115q15 -38 29.5 -60.5t27 -34.5t21 -16t11.5 -4h-183q2 0 7 1.5t10.5 5.5t9.5 12t4 22q0 11 -4.5 25t-12.5 34l-41 106h-257l-40 -102q-7 -18 -11 -31.5t-4 -24.5q0 -15 5 -24.5t11.5 -14.5t12.5 -7t9 -2h-163q2 0 9.5 3.5t19 15t26 34.5t31.5 63l237 578zM330 530
l-109 -274h218zM478 696q-34 20 -67.5 36.5t-67.5 35.5q-32 -19 -65 -35.5t-65 -36.5q32 42 65 80.5t65 80.5z" />
    <glyph glyph-name="Atilde" unicode="&#xc3;" horiz-adv-x="692" 
d="M580 115q15 -38 29.5 -60.5t27 -34.5t21 -16t11.5 -4h-183q2 0 7 1.5t10.5 5.5t9.5 12t4 22q0 11 -4.5 25t-12.5 34l-41 106h-257l-40 -102q-7 -18 -11 -31.5t-4 -24.5q0 -15 5 -24.5t11.5 -14.5t12.5 -7t9 -2h-163q2 0 9.5 3.5t19 15t26 34.5t31.5 63l237 578zM330 530
l-109 -274h218zM482 816q0 -16 -5 -32.5t-15 -30t-24.5 -22.5t-33.5 -9q-17 0 -34.5 9t-34.5 20t-33.5 20t-30.5 9q-24 -1 -37.5 -22.5t-15.5 -47.5q-9 12 -9 30q0 16 4.5 32t14.5 29.5t24 22t34 8.5q17 0 35.5 -9t36.5 -20t35 -19.5t30 -8.5q25 0 37 22.5t14 47.5
q8 -13 8 -29z" />
    <glyph glyph-name="Adieresis" unicode="&#xc4;" horiz-adv-x="692" 
d="M580 115q15 -38 29.5 -60.5t27 -34.5t21 -16t11.5 -4h-183q2 0 7 1.5t10.5 5.5t9.5 12t4 22q0 11 -4.5 25t-12.5 34l-41 106h-257l-40 -102q-7 -18 -11 -31.5t-4 -24.5q0 -15 5 -24.5t11.5 -14.5t12.5 -7t9 -2h-163q2 0 9.5 3.5t19 15t26 34.5t31.5 63l237 578zM330 530
l-109 -274h218zM479 778q0 -19 -12.5 -32t-33.5 -13t-33.5 13t-12.5 32t12.5 31.5t33.5 12.5t33.5 -12.5t12.5 -31.5zM304 778q0 -19 -12.5 -32t-33.5 -13q-20 0 -33 13t-13 32t13 31.5t33 12.5q21 0 33.5 -12.5t12.5 -31.5z" />
    <glyph glyph-name="Aring" unicode="&#xc5;" horiz-adv-x="692" 
d="M580 115q15 -38 29.5 -60.5t27 -34.5t21 -16t11.5 -4h-183q2 0 7 1.5t10.5 5.5t9.5 12t4 22q0 11 -4.5 25t-12.5 34l-41 106h-257l-40 -102q-7 -18 -11 -31.5t-4 -24.5q0 -15 5 -24.5t11.5 -14.5t12.5 -7t9 -2h-163q2 0 9.5 3.5t19 15t26 34.5t31.5 63l237 578zM330 530
l-109 -274h218zM436 808q0 -37 -24 -63t-66 -26t-66 26t-24 63t24 63.5t66 26.5t66 -26t24 -64zM400 808q0 23 -14 40t-40 17t-41 -17t-15 -40t15 -40t41 -17q25 0 39.5 17t14.5 40z" />
    <glyph glyph-name="AE" unicode="&#xc6;" horiz-adv-x="950" 
d="M468 0q4 1 12.5 5t17 17t15 37t6.5 64v192h-195l-117 -183q-23 -38 -32 -62.5t-9 -38.5q0 -18 7.5 -24t11.5 -7h-183q3 1 13 5t26.5 16.5t39.5 37t52 65.5l283 436q28 42 36 63.5t8 30.5q0 6 -2 8.5t-4 3.5h420v-131q-3 8 -7.5 22t-16 27t-31.5 22.5t-53 9.5h-166v-251
h139q24 0 39 5t23 11.5t11 12.5t4 9v-126q0 2 -2.5 8t-10.5 13t-22.5 12t-39.5 5h-141v-265h173q31 0 53 4.5t38.5 15t28.5 29t24 45.5l-23 -144h-426zM354 365h165v259z" />
    <glyph glyph-name="Ccedilla" unicode="&#xc7;" horiz-adv-x="629" 
d="M459 -107q0 -27 -24 -49.5t-72 -22.5q-20 0 -39.5 5.5t-33.5 14.5q8 -2 17 -2.5t16 -0.5q35 0 55 17.5t20 38.5q0 19 -18.5 33t-53.5 15l25 44q-77 5 -133.5 35t-94 76t-56 104t-18.5 119q0 67 22 132t66.5 116.5t110.5 83t154 31.5q54 0 100 -12.5t79 -30.5v-145
q-24 66 -72.5 100t-125.5 34q-61 0 -107 -25t-77 -65.5t-46.5 -92.5t-15.5 -106q0 -56 16 -109t48 -95t80 -67.5t112 -25.5q56 0 109.5 28t94.5 76v-65q-36 -42 -87 -67.5t-116 -28.5l-14 -24q41 -5 60 -25.5t19 -43.5z" />
    <glyph glyph-name="Egrave" unicode="&#xc8;" horiz-adv-x="521" 
d="M470 0h-416q3 0 10.5 3t16 13t14.5 28.5t6 50.5v477q0 31 -6.5 49.5t-15.5 28t-17.5 13t-11.5 3.5h400v-107q-1 4 -5 14t-15 19.5t-31 17t-54 7.5h-163v-252h136q24 0 38.5 5.5t22.5 12.5t10.5 13.5t3.5 9.5v-131q0 2 -2.5 8.5t-10.5 14t-22.5 13t-38.5 5.5h-137v-266
h168q30 0 51.5 3t37.5 11t27 21.5t22 34.5zM163 849h107l68 -147z" />
    <glyph glyph-name="Eacute" unicode="&#xc9;" horiz-adv-x="521" 
d="M470 0h-416q3 0 10.5 3t16 13t14.5 28.5t6 50.5v477q0 31 -6.5 49.5t-15.5 28t-17.5 13t-11.5 3.5h400v-108q-1 4 -4.5 14t-14 20t-31 17.5t-55.5 7.5h-163v-252h136q24 0 38.5 5.5t22.5 12.5t10.5 13.5t3.5 9.5v-132q-1 11 -10 21q-8 8 -23 14.5t-41 6.5h-137v-266h168
q30 0 51.5 3t37.5 11t27 21.5t22 34.5zM214 702l67 147h107z" />
    <glyph glyph-name="Ecircumflex" unicode="&#xca;" horiz-adv-x="521" 
d="M470 0h-416q3 0 10.5 3t16 13t14.5 28.5t6 50.5v477q0 31 -6.5 49.5t-15.5 28t-17.5 13t-11.5 3.5h400v-107q-1 4 -5 14t-15 19.5t-31 17t-54 7.5h-163v-252h136q24 0 38.5 5.5t22.5 12.5t10.5 13.5t3.5 9.5v-131q0 2 -2.5 8.5t-10.5 14t-22.5 13t-38.5 5.5h-137v-266
h168q30 0 51.5 3t37.5 11t27 21.5t22 34.5zM393 696q-34 20 -67.5 36.5t-67.5 35.5q-32 -19 -65 -35.5t-65 -36.5q32 42 65 80.5t65 80.5z" />
    <glyph glyph-name="Edieresis" unicode="&#xcb;" horiz-adv-x="521" 
d="M470 0h-416q3 0 10.5 3t16 13t14.5 28.5t6 50.5v477q0 31 -6.5 49.5t-15.5 28t-17.5 13t-11.5 3.5h400v-108q-1 4 -4.5 14t-14 20t-31 17.5t-55.5 7.5h-163v-252h136q24 0 38.5 5.5t22.5 12.5t10.5 13.5t3.5 9.5v-132q-1 11 -10 21q-8 8 -23 14.5t-41 6.5h-137v-266h168
q30 0 51.5 3t37.5 11t27 21.5t22 34.5zM394 778q0 -19 -12.5 -32t-33.5 -13t-33.5 13t-12.5 32t12.5 31.5t33.5 12.5t33.5 -12.5t12.5 -31.5zM219 778q0 -19 -12.5 -32t-33.5 -13q-20 0 -33 13t-13 32t13 31.5t33 12.5q21 0 33.5 -12.5t12.5 -31.5z" />
    <glyph glyph-name="Igrave" unicode="&#xcc;" horiz-adv-x="276" 
d="M178 90q0 -29 6 -46.5t13.5 -27t15.5 -13t11 -3.5h-171q3 0 10.5 3t15 12.5t13.5 27t6 47.5v485q0 30 -6 47.5t-14.5 27t-16 12.5t-10.5 4h173q-2 0 -9.5 -3t-15.5 -12.5t-14.5 -27.5t-6.5 -48v-485zM1 849h107l68 -147z" />
    <glyph glyph-name="Iacute" unicode="&#xcd;" horiz-adv-x="276" 
d="M178 90q0 -29 6 -46.5t13.5 -27t15.5 -13t11 -3.5h-171q3 0 10.5 3t15 12.5t13.5 27t6 47.5v485q0 30 -6 47.5t-14.5 27t-16 12.5t-10.5 4h173q-2 0 -9.5 -3t-15.5 -12.5t-14.5 -27.5t-6.5 -48v-485zM101 702l67 147h107z" />
    <glyph glyph-name="Icircumflex" unicode="&#xce;" horiz-adv-x="276" 
d="M178 90q0 -29 6 -46.5t13.5 -27t15.5 -13t11 -3.5h-171q3 0 10.5 3t15 12.5t13.5 27t6 47.5v485q0 30 -6 47.5t-14.5 27t-16 12.5t-10.5 4h173q-2 0 -9.5 -3t-15.5 -12.5t-14.5 -27.5t-6.5 -48v-485zM271 696q-34 20 -67.5 36.5t-67.5 35.5q-32 -19 -65 -35.5t-65 -36.5
q32 42 65 80.5t65 80.5z" />
    <glyph glyph-name="Idieresis" unicode="&#xcf;" horiz-adv-x="276" 
d="M178 90q0 -29 6 -46.5t13.5 -27t15.5 -13t11 -3.5h-171q3 0 10.5 3t15 12.5t13.5 27t6 47.5v485q0 30 -6 47.5t-14.5 27t-16 12.5t-10.5 4h173q-2 0 -9.5 -3t-15.5 -12.5t-14.5 -27.5t-6.5 -48v-485zM272 778q0 -19 -12.5 -32t-33.5 -13t-33.5 13t-12.5 32t12.5 31.5
t33.5 12.5t33.5 -12.5t12.5 -31.5zM97 778q0 -19 -12.5 -32t-33.5 -13q-20 0 -33 13t-13 32t13 31.5t33 12.5q21 0 33.5 -12.5t12.5 -31.5z" />
    <glyph glyph-name="Eth" unicode="&#xd0;" horiz-adv-x="703" 
d="M654 339q0 -69 -21 -130.5t-63 -108t-105.5 -73.5t-149.5 -27h-260q3 0 10.5 3.5t16 14t14.5 30t6 53.5v210h-83v43h83v217q0 31 -6.5 49.5t-14.5 28t-16 13t-12 4.5h265q79 0 141.5 -24t105.5 -67.5t66 -103.5t23 -132zM565 333q0 136 -66.5 210t-200.5 74h-115v-263
h129v-43h-129v-261h141q65 0 110.5 25t74.5 65.5t42.5 91t13.5 101.5z" />
    <glyph glyph-name="Ntilde" unicode="&#xd1;" horiz-adv-x="703" 
d="M555 573q0 30 -6.5 48t-15.5 27.5t-17.5 13t-11.5 4.5h158q-3 0 -11 -3t-16.5 -13t-15.5 -28t-7 -49v-602l-454 561v-440q0 -30 7 -48t16 -27.5t18 -13t12 -3.5h-161q3 0 11 3t16.5 12.5t15.5 27.5t7 49v471q0 25 -8.5 43t-20.5 30t-25 19t-22 11h130l401 -497v404z
M488 816q0 -16 -5 -32.5t-15 -30t-24.5 -22.5t-33.5 -9q-17 0 -34.5 9t-34.5 20t-33.5 20t-30.5 9q-24 -1 -37.5 -22.5t-15.5 -47.5q-9 12 -9 30q0 16 4.5 32t14.5 29.5t24 22t34 8.5q17 0 35.5 -9t36.5 -20t35 -19.5t30 -8.5q25 0 37 22.5t14 47.5q8 -13 8 -29z" />
    <glyph glyph-name="Ograve" unicode="&#xd2;" horiz-adv-x="742" 
d="M693 341q0 -75 -23.5 -140t-67 -113t-104 -75.5t-135.5 -27.5q-71 0 -129 26t-99 71.5t-63.5 108t-22.5 136.5q0 76 24.5 141t68 113t104.5 75t135 27q70 0 128 -26t98.5 -71.5t63 -108.5t22.5 -136zM613 318q0 67 -17.5 123.5t-50.5 98t-79.5 65t-104.5 23.5
q-51 0 -93.5 -19.5t-72.5 -55.5t-47 -86t-17 -111q0 -69 18 -127t51 -100t79.5 -65.5t103.5 -23.5q51 0 93.5 20t72.5 57t47 88t17 113zM263 849h107l68 -147z" />
    <glyph glyph-name="Oacute" unicode="&#xd3;" horiz-adv-x="742" 
d="M693 341q0 -75 -23.5 -140t-67 -113t-104 -75.5t-135.5 -27.5q-71 0 -129 26t-99 71.5t-63.5 108t-22.5 136.5q0 76 24.5 141t68 113t104.5 75t135 27q70 0 128 -26t98.5 -71.5t63 -108.5t22.5 -136zM613 318q0 67 -17.5 123.5t-50.5 98t-79.5 65t-104.5 23.5
q-51 0 -93.5 -19.5t-72.5 -55.5t-47 -86t-17 -111q0 -69 18 -127t51 -100t79.5 -65.5t103.5 -23.5q51 0 93.5 20t72.5 57t47 88t17 113zM314 702l67 147h107z" />
    <glyph glyph-name="Ocircumflex" unicode="&#xd4;" horiz-adv-x="742" 
d="M693 341q0 -75 -23.5 -140t-67 -113t-104 -75.5t-135.5 -27.5q-71 0 -129 26t-99 71.5t-63.5 108t-22.5 136.5q0 76 24.5 141t68 113t104.5 75t135 27q70 0 128 -26t98.5 -71.5t63 -108.5t22.5 -136zM613 318q0 67 -17.5 123.5t-50.5 98t-79.5 65t-104.5 23.5
q-51 0 -93.5 -19.5t-72.5 -55.5t-47 -86t-17 -111q0 -69 18 -127t51 -100t79.5 -65.5t103.5 -23.5q51 0 93.5 20t72.5 57t47 88t17 113zM503 696q-34 20 -67.5 36.5t-67.5 35.5q-32 -19 -65 -35.5t-65 -36.5q32 42 65 80.5t65 80.5z" />
    <glyph glyph-name="Otilde" unicode="&#xd5;" horiz-adv-x="742" 
d="M693 341q0 -75 -23.5 -140t-67 -113t-104 -75.5t-135.5 -27.5q-71 0 -129 26t-99 71.5t-63.5 108t-22.5 136.5q0 76 24.5 141t68 113t104.5 75t135 27q70 0 128 -26t98.5 -71.5t63 -108.5t22.5 -136zM613 318q0 67 -17.5 123.5t-50.5 98t-79.5 65t-104.5 23.5
q-51 0 -93.5 -19.5t-72.5 -55.5t-47 -86t-17 -111q0 -69 18 -127t51 -100t79.5 -65.5t103.5 -23.5q51 0 93.5 20t72.5 57t47 88t17 113zM507 816q0 -16 -5 -32.5t-15 -30t-24.5 -22.5t-33.5 -9q-17 0 -34.5 9t-34.5 20t-33.5 20t-30.5 9q-24 -1 -37.5 -22.5t-15.5 -47.5
q-9 12 -9 30q0 16 4.5 32t14.5 29.5t24 22t34 8.5q17 0 35.5 -9t36.5 -20t35 -19.5t30 -8.5q25 0 37 22.5t14 47.5q8 -13 8 -29z" />
    <glyph glyph-name="Odieresis" unicode="&#xd6;" horiz-adv-x="742" 
d="M693 341q0 -75 -23.5 -140t-67 -113t-104 -75.5t-135.5 -27.5q-71 0 -129 26t-99 71.5t-63.5 108t-22.5 136.5q0 76 24.5 141t68 113t104.5 75t135 27q70 0 128 -26t98.5 -71.5t63 -108.5t22.5 -136zM613 318q0 67 -17.5 123.5t-50.5 98t-79.5 65t-104.5 23.5
q-51 0 -93.5 -19.5t-72.5 -55.5t-47 -86t-17 -111q0 -69 18 -127t51 -100t79.5 -65.5t103.5 -23.5q51 0 93.5 20t72.5 57t47 88t17 113zM504 778q0 -19 -12.5 -32t-33.5 -13t-33.5 13t-12.5 32t12.5 31.5t33.5 12.5t33.5 -12.5t12.5 -31.5zM329 778q0 -19 -12.5 -32
t-33.5 -13q-20 0 -33 13t-13 32t13 31.5t33 12.5q21 0 33.5 -12.5t12.5 -31.5z" />
    <glyph glyph-name="multiply" unicode="&#xd7;" horiz-adv-x="663" 
d="M569 2l-237 239l-237 -239l-37 39l237 237l-237 239l36 38l238 -240l236 239l38 -38l-237 -238l237 -237z" />
    <glyph glyph-name="Oslash" unicode="&#xd8;" horiz-adv-x="742" 
d="M693 341q0 -75 -23.5 -140t-67 -113t-104.5 -75.5t-136 -27.5q-49 0 -91.5 13t-77.5 37l-53 -76l-43 14l61 89q-52 46 -80.5 114.5t-28.5 149.5q0 76 24.5 141t68 113t104.5 75t135 27q49 0 92 -13.5t79 -38.5l48 69l41 -14l-55 -81q52 -46 79.5 -114t27.5 -149zM613 318
q0 66 -18 122t-53 98l-308 -442q62 -56 149 -56q51 0 93.5 20t72.5 57t47 88t17 113zM511 571q-62 56 -150 56q-51 0 -93.5 -19.5t-72.5 -55.5t-47 -86t-17 -111q0 -69 18.5 -126.5t53.5 -99.5z" />
    <glyph glyph-name="Ugrave" unicode="&#xd9;" horiz-adv-x="674" 
d="M524 572q0 30 -6.5 48.5t-15 28t-17 13t-12.5 4.5h165q-3 0 -11.5 -3t-17 -13t-15 -28.5t-6.5 -49.5v-345q0 -119 -57.5 -180.5t-191.5 -61.5q-133 0 -190.5 59.5t-57.5 178.5v351q0 30 -6 48t-14.5 28t-16 13t-10.5 3h174q-2 0 -9.5 -3t-15.5 -12t-14.5 -27t-6.5 -49
v-350q0 -97 42.5 -141.5t136.5 -44.5q51 0 84.5 13.5t53 38t27.5 58t8 74.5v349zM199 849h107l68 -147z" />
    <glyph glyph-name="Uacute" unicode="&#xda;" horiz-adv-x="674" 
d="M524 572q0 30 -6.5 48.5t-15 28t-17 13t-12.5 4.5h165q-3 0 -11.5 -3t-17 -13t-15 -28.5t-6.5 -49.5v-345q0 -119 -57.5 -180.5t-191.5 -61.5q-133 0 -190.5 59.5t-57.5 178.5v351q0 30 -6 48t-14.5 28t-16 13t-10.5 3h174q-2 0 -9.5 -3t-15.5 -12t-14.5 -27t-6.5 -49
v-350q0 -97 42.5 -141.5t136.5 -44.5q51 0 84.5 13.5t53 38t27.5 58t8 74.5v349zM320 702l67 147h107z" />
    <glyph glyph-name="Ucircumflex" unicode="&#xdb;" horiz-adv-x="674" 
d="M524 572q0 30 -6.5 48.5t-15 28t-17 13t-12.5 4.5h165q-3 0 -11.5 -3t-17 -13t-15 -28.5t-6.5 -49.5v-345q0 -119 -57.5 -180.5t-191.5 -61.5q-133 0 -190.5 59.5t-57.5 178.5v351q0 30 -6 48t-14.5 28t-16 13t-10.5 3h174q-2 0 -9.5 -3t-15.5 -12t-14.5 -27t-6.5 -49
v-350q0 -97 42.5 -141.5t136.5 -44.5q51 0 84.5 13.5t53 38t27.5 58t8 74.5v349zM479 696q-34 20 -67.5 36.5t-67.5 35.5q-32 -19 -65 -35.5t-65 -36.5q32 42 65 80.5t65 80.5z" />
    <glyph glyph-name="Udieresis" unicode="&#xdc;" horiz-adv-x="674" 
d="M524 572q0 30 -6.5 48.5t-15 28t-17 13t-12.5 4.5h165q-3 0 -11.5 -3t-17 -13t-15 -28.5t-6.5 -49.5v-345q0 -119 -57.5 -180.5t-191.5 -61.5q-133 0 -190.5 59.5t-57.5 178.5v351q0 30 -6 48t-14.5 28t-16 13t-10.5 3h174q-2 0 -9.5 -3t-15.5 -12t-14.5 -27t-6.5 -49
v-350q0 -97 42.5 -141.5t136.5 -44.5q51 0 84.5 13.5t53 38t27.5 58t8 74.5v349zM480 778q0 -19 -12.5 -32t-33.5 -13t-33.5 13t-12.5 32t12.5 31.5t33.5 12.5t33.5 -12.5t12.5 -31.5zM305 778q0 -19 -12.5 -32t-33.5 -13q-20 0 -33 13t-13 32t13 31.5t33 12.5
q21 0 33.5 -12.5t12.5 -31.5z" />
    <glyph glyph-name="Yacute" unicode="&#xdd;" horiz-adv-x="644" 
d="M493 634q0 19 -9.5 25t-14.5 7h152q-2 0 -10 -3.5t-20 -13.5t-28.5 -30t-35.5 -53l-167 -286v-187q0 -30 6 -48.5t13.5 -28t15.5 -13t11 -3.5h-174q3 0 10.5 3t15.5 12.5t14 28t6 49.5v186l-168 289q-19 32 -35 51.5t-28 29.5t-20 13.5t-10 3.5h184q-2 0 -5.5 -1.5
t-8 -4.5t-7.5 -9t-3 -16q0 -11 6.5 -26.5t20.5 -39.5l132 -227l125 216q17 29 24.5 46.5t7.5 29.5zM235 702l67 147h107z" />
    <glyph glyph-name="Thorn" unicode="&#xde;" horiz-adv-x="559" 
d="M516 351q0 -40 -14 -77.5t-42.5 -67t-71 -47t-98.5 -17.5q-24 0 -56 3.5t-56 13.5v-70q0 -29 6 -46.5t13.5 -26.5t15.5 -12.5t11 -3.5h-172q3 0 10.5 3t15 12t13.5 26.5t6 47.5v487q0 29 -6 46.5t-13.5 27t-15 12.5t-10.5 4h172q-3 0 -10.5 -3t-15.5 -12.5t-14 -27
t-6 -47.5v-29q29 3 60 5t62 2q46 0 85.5 -14.5t68.5 -41t45.5 -64t16.5 -83.5zM432 345q0 35 -11 64.5t-30.5 50.5t-48 33t-62.5 12q-25 0 -51.5 -1.5t-50.5 -5.5v-290q20 -9 51 -12.5t54 -3.5q36 0 64 12t46.5 33t28.5 49t10 59z" />
    <glyph glyph-name="germandbls" unicode="&#xdf;" horiz-adv-x="594" 
d="M551 127q0 -32 -12.5 -58t-35.5 -44.5t-55 -28.5t-71 -10q-42 0 -80.5 11t-62.5 28l27 67q20 -24 54.5 -42t72.5 -18q42 0 66.5 22t24.5 57q0 30 -18 52t-44.5 38.5t-57.5 30.5t-57.5 30t-44.5 35t-18 46q0 25 13 42.5t33 31.5t43 26t43 26.5t33 33t13 44.5
q0 42 -28.5 69t-79.5 27q-32 0 -58 -11.5t-45 -32t-29.5 -48t-10.5 -60.5v-400q0 -30 5 -47.5t12 -27t13.5 -13t9.5 -3.5h-153q3 0 9.5 3t13 12t12 27t5.5 49v368q0 51 17 93.5t47.5 72.5t74 46.5t96.5 16.5q36 0 66.5 -9.5t52.5 -26t34.5 -40t12.5 -50.5q0 -33 -13.5 -56
t-34 -40.5t-44.5 -30t-44.5 -24.5t-34 -24t-13.5 -28q0 -19 18 -33.5t44.5 -28.5t58 -28.5t58 -33.5t44.5 -45.5t18 -62.5z" />
    <glyph glyph-name="agrave" unicode="&#xe0;" horiz-adv-x="468" 
d="M406 -19q-31 5 -52.5 28t-26.5 47q-19 -35 -60.5 -53t-88.5 -18q-27 0 -51 7t-42.5 21t-29 34.5t-10.5 47.5q0 25 14 50.5t46.5 49.5t84.5 45t128 38v52q0 57 -25.5 84.5t-69.5 27.5q-51 0 -75.5 -21t-24.5 -48q0 -17 7 -29t18 -16l-81 -33q-5 9 -9 23t-4 32
q0 24 11.5 48.5t35 43.5t58.5 31t82 12q77 0 113.5 -40t36.5 -101v-216q0 -37 17 -65t57 -28q6 0 16 2zM318 237q-105 -24 -151.5 -55t-46.5 -73q0 -36 24 -56t59 -20q22 0 42.5 7.5t36.5 21t26 31.5t10 39v105zM126 666h112l64 -150z" />
    <glyph glyph-name="aacute" unicode="&#xe1;" horiz-adv-x="468" 
d="M406 -19q-31 5 -52.5 28t-26.5 47q-19 -35 -60.5 -53t-88.5 -18q-27 0 -51 7t-42.5 21t-29 34.5t-10.5 47.5q0 25 14 50.5t46.5 49.5t84.5 45t128 38v52q0 57 -25.5 84.5t-69.5 27.5q-51 0 -75.5 -21t-24.5 -48q0 -17 7 -29t18 -16l-81 -33q-5 9 -9 23t-4 32
q0 24 11.5 48.5t35 43.5t58.5 31t82 12q77 0 113.5 -40t36.5 -101v-216q0 -37 17 -65t57 -28q6 0 16 2zM318 237q-105 -24 -151.5 -55t-46.5 -73q0 -36 24 -56t59 -20q22 0 42.5 7.5t36.5 21t26 31.5t10 39v105zM177 516l67 150h107z" />
    <glyph glyph-name="acircumflex" unicode="&#xe2;" horiz-adv-x="468" 
d="M406 -19q-31 5 -52.5 28t-26.5 47q-19 -35 -60.5 -53t-88.5 -18q-27 0 -51 7t-42.5 21t-29 34.5t-10.5 47.5q0 25 14 50.5t46.5 49.5t84.5 45t128 38v52q0 57 -25.5 84.5t-69.5 27.5q-51 0 -75.5 -21t-24.5 -48q0 -17 7 -29t18 -16l-81 -33q-5 9 -9 23t-4 32
q0 24 11.5 48.5t35 43.5t58.5 31t82 12q77 0 113.5 -40t36.5 -101v-216q0 -37 17 -65t57 -28q6 0 16 2zM318 237q-105 -24 -151.5 -55t-46.5 -73q0 -36 24 -56t59 -20q22 0 42.5 7.5t36.5 21t26 31.5t10 39v105zM231 597q-8 -5 -25.5 -16t-36.5 -23.5t-36.5 -24t-26.5 -16.5
q9 11 26.5 34.5t36.5 49.5t36.5 49.5t25.5 34.5l130 -168z" />
    <glyph glyph-name="atilde" unicode="&#xe3;" horiz-adv-x="468" 
d="M406 -19q-31 5 -52.5 28t-26.5 47q-19 -35 -60.5 -53t-88.5 -18q-27 0 -51 7t-42.5 21t-29 34.5t-10.5 47.5q0 25 14 50.5t46.5 49.5t84.5 45t128 38v52q0 57 -25.5 84.5t-69.5 27.5q-51 0 -75.5 -21t-24.5 -48q0 -17 7 -29t18 -16l-81 -33q-5 9 -9 23t-4 32
q0 24 11.5 48.5t35 43.5t58.5 31t82 12q77 0 113.5 -40t36.5 -101v-216q0 -37 17 -65t57 -28q6 0 16 2zM318 237q-105 -24 -151.5 -55t-46.5 -73q0 -36 24 -56t59 -20q22 0 42.5 7.5t36.5 21t26 31.5t10 39v105zM370 649q0 -17 -5 -34t-15 -31t-25 -23t-34 -9q-16 0 -33.5 9
t-34.5 20t-33.5 20t-30.5 9q-24 0 -37.5 -22t-15.5 -48q-8 11 -8 27t4.5 33t14 31t23.5 22.5t34 8.5q17 0 35.5 -9t36.5 -19.5t35 -19.5t30 -9q25 0 37 22.5t14 47.5q4 -5 6 -12.5t2 -13.5z" />
    <glyph glyph-name="adieresis" unicode="&#xe4;" horiz-adv-x="468" 
d="M406 -19q-31 5 -52.5 28t-26.5 47q-19 -35 -60.5 -53t-88.5 -18q-27 0 -51 7t-42.5 21t-29 34.5t-10.5 47.5q0 25 14 50.5t46.5 49.5t84.5 45t128 38v52q0 57 -25.5 84.5t-69.5 27.5q-51 0 -75.5 -21t-24.5 -48q0 -17 7 -29t18 -16l-81 -33q-5 9 -9 23t-4 32
q0 24 11.5 48.5t35 43.5t58.5 31t82 12q77 0 113.5 -40t36.5 -101v-216q0 -37 17 -65t57 -28q6 0 16 2zM318 237q-105 -24 -151.5 -55t-46.5 -73q0 -36 24 -56t59 -20q22 0 42.5 7.5t36.5 21t26 31.5t10 39v105zM367 620q0 -19 -12.5 -32t-32.5 -13q-21 0 -34 13t-13 32
t13 31.5t34 12.5t33 -12.5t12 -31.5zM193 620q0 -19 -12.5 -32t-33.5 -13t-33.5 13t-12.5 32t12.5 31.5t33.5 12.5t33.5 -12.5t12.5 -31.5z" />
    <glyph glyph-name="aring" unicode="&#xe5;" horiz-adv-x="468" 
d="M406 -19q-31 5 -52.5 28t-26.5 47q-19 -35 -60.5 -53t-88.5 -18q-27 0 -51 7t-42.5 21t-29 34.5t-10.5 47.5q0 25 14 50.5t46.5 49.5t84.5 45t128 38v52q0 57 -25.5 84.5t-69.5 27.5q-51 0 -75.5 -21t-24.5 -48q0 -17 7 -29t18 -16l-81 -33q-5 9 -9 23t-4 32
q0 24 11.5 48.5t35 43.5t58.5 31t82 12q77 0 113.5 -40t36.5 -101v-216q0 -37 17 -65t57 -28q6 0 16 2zM318 237q-105 -24 -151.5 -55t-46.5 -73q0 -36 24 -56t59 -20q22 0 42.5 7.5t36.5 21t26 31.5t10 39v105zM324 611q0 -37 -24 -63t-66 -26t-66 26t-24 63t24 63.5
t66 26.5t66 -26t24 -64zM288 611q0 23 -14 40t-40 17t-41 -17t-15 -40t15 -40t41 -17q25 0 39.5 17t14.5 40z" />
    <glyph glyph-name="ae" unicode="&#xe6;" horiz-adv-x="733" 
d="M703 135q-21 -74 -67 -112t-113 -38q-60 0 -102.5 27t-67.5 70q-9 -22 -27 -40t-41.5 -30.5t-50 -19.5t-53.5 -7q-57 0 -96 28.5t-39 81.5q0 25 14 50.5t46 49.5t84 45t128 38v52q0 57 -25.5 84.5t-69.5 27.5q-51 0 -75.5 -21t-24.5 -48q0 -17 7 -29t18 -16l-81 -33
q-5 9 -8.5 22.5t-3.5 31.5q0 24 11.5 48.5t34.5 44t58 31.5t82 12q52 0 86 -20.5t48 -54.5q26 35 62 55t82 20t79 -20.5t54.5 -54.5t32.5 -77.5t13 -89.5h-310v-4.5t1 -4.5q4 -40 16.5 -74t32.5 -59.5t47 -40t62 -14.5q42 0 83 23.5t73 65.5zM615 284q0 26 -5.5 54t-17.5 51
t-32 38t-49 15q-30 0 -52 -14.5t-37 -37t-23.5 -51t-9.5 -55.5h226zM318 237q-105 -24 -151.5 -55t-46.5 -73q0 -36 24 -56t59 -20q21 0 41.5 7t37 20t26.5 31t10 41v105z" />
    <glyph glyph-name="ccedilla" unicode="&#xe7;" horiz-adv-x="441" 
d="M315 -107q0 -27 -24 -49.5t-72 -22.5q-20 0 -39.5 5.5t-33.5 14.5q8 -2 17 -2.5t16 -0.5q35 0 55 17.5t20 38.5q0 19 -18.5 33t-53.5 15l26 46q-42 6 -74 26.5t-53 50.5t-31.5 68.5t-10.5 80.5q0 60 17.5 110t47.5 85.5t71 55.5t88 20q58 0 98.5 -35.5t43.5 -100.5
l-79 -35q2 7 3 15.5t1 16.5q0 42 -25.5 65t-61.5 23q-30 0 -54.5 -13.5t-42.5 -38.5t-27.5 -59t-9.5 -75q0 -39 9.5 -75.5t29 -65.5t48.5 -46.5t68 -17.5t77 23.5t71 70.5q-18 -75 -62.5 -112t-99.5 -40l-14 -23q41 -5 60 -25.5t19 -43.5z" />
    <glyph glyph-name="egrave" unicode="&#xe8;" horiz-adv-x="456" 
d="M427 135q-21 -74 -67 -112t-113 -38q-52 0 -91 20t-65 54t-39 77.5t-13 90.5q0 54 14.5 101t41 82t64 55t84.5 20q46 0 79 -20.5t54.5 -54.5t32.5 -77.5t13 -89.5h-310q0 -47 13 -83.5t35 -61.5t51 -38t61 -13q40 0 80.5 21.5t74.5 66.5zM339 284q0 26 -5.5 54t-17.5 51
t-31.5 38t-48.5 15q-30 0 -52 -14.5t-37.5 -37t-24 -51t-9.5 -55.5h226zM130 666h112l64 -150z" />
    <glyph glyph-name="eacute" unicode="&#xe9;" horiz-adv-x="456" 
d="M427 135q-21 -74 -67 -112t-113 -38q-52 0 -91 20t-65 54t-39 77.5t-13 90.5q0 54 14.5 101t41 82t64 55t84.5 20q46 0 79 -20.5t54.5 -54.5t32.5 -77.5t13 -89.5h-310q0 -47 13 -83.5t35 -61.5t51 -38t61 -13q40 0 80.5 21.5t74.5 66.5zM339 284q0 26 -5.5 54t-17.5 51
t-31.5 38t-48.5 15q-30 0 -52 -14.5t-37.5 -37t-24 -51t-9.5 -55.5h226zM191 516l67 150h107z" />
    <glyph glyph-name="ecircumflex" unicode="&#xea;" horiz-adv-x="456" 
d="M427 135q-21 -74 -67 -112t-113 -38q-52 0 -91 20t-65 54t-39 77.5t-13 90.5q0 54 14.5 101t41 82t64 55t84.5 20q46 0 79 -20.5t54.5 -54.5t32.5 -77.5t13 -89.5h-310q0 -47 13 -83.5t35 -61.5t51 -38t61 -13q40 0 80.5 21.5t74.5 66.5zM339 284q0 26 -5.5 54t-17.5 51
t-31.5 38t-48.5 15q-30 0 -52 -14.5t-37.5 -37t-24 -51t-9.5 -55.5h226zM239 597q-8 -5 -25.5 -16t-36.5 -23.5t-36.5 -24t-26.5 -16.5q9 11 26.5 34.5t36.5 49.5t36.5 49.5t25.5 34.5l130 -168z" />
    <glyph glyph-name="edieresis" unicode="&#xeb;" horiz-adv-x="456" 
d="M427 135q-21 -74 -67 -112t-113 -38q-52 0 -91 20t-65 54t-39 77.5t-13 90.5q0 54 14.5 101t41 82t64 55t84.5 20q46 0 79 -20.5t54.5 -54.5t32.5 -77.5t13 -89.5h-310q0 -47 13 -83.5t35 -61.5t51 -38t61 -13q40 0 80.5 21.5t74.5 66.5zM339 284q0 26 -5.5 54t-17.5 51
t-31.5 38t-48.5 15q-30 0 -52 -14.5t-37.5 -37t-24 -51t-9.5 -55.5h226zM371 620q0 -19 -12.5 -32t-32.5 -13q-21 0 -34 13t-13 32t13 31.5t34 12.5t33 -12.5t12 -31.5zM197 620q0 -19 -12.5 -32t-33.5 -13t-33.5 13t-12.5 32t12.5 31.5t33.5 12.5t33.5 -12.5t12.5 -31.5z
" />
    <glyph glyph-name="igrave" unicode="&#xec;" horiz-adv-x="225" 
d="M153 87q0 -29 5.5 -46t13 -26t15 -12t10.5 -3h-162q3 0 10 3t14.5 12t13 26t5.5 46v264q0 51 -13 66t-35 15h-10l133 55v-400zM5 666h112l64 -150z" />
    <glyph glyph-name="iacute" unicode="&#xed;" horiz-adv-x="225" 
d="M153 87q0 -29 5.5 -46t13 -26t15 -12t10.5 -3h-162q3 0 10 3t14.5 12t13 26t5.5 46v264q0 51 -13 66t-35 15h-10l133 55v-400zM46 516l67 150h107z" />
    <glyph glyph-name="icircumflex" unicode="&#xee;" horiz-adv-x="225" 
d="M153 87q0 -29 5.5 -46t13 -26t15 -12t10.5 -3h-162q3 0 10 3t14.5 12t13 26t5.5 46v264q0 51 -13 66t-35 15h-10l133 55v-400zM110 597q-8 -5 -25.5 -16t-36.5 -23.5t-36.5 -24t-26.5 -16.5q9 11 26.5 34.5t36.5 49.5t36.5 49.5t25.5 34.5l130 -168z" />
    <glyph glyph-name="idieresis" unicode="&#xef;" horiz-adv-x="225" 
d="M153 87q0 -29 5.5 -46t13 -26t15 -12t10.5 -3h-162q3 0 10 3t14.5 12t13 26t5.5 46v264q0 51 -13 66t-35 15h-10l133 55v-400zM72 620q0 -19 -12.5 -32t-33.5 -13t-33.5 13t-12.5 32t12.5 31.5t33.5 12.5t33.5 -12.5t12.5 -31.5zM246 620q0 -19 -12.5 -32t-32.5 -13
q-21 0 -34 13t-13 32t13 31.5t34 12.5t33 -12.5t12 -31.5z" />
    <glyph glyph-name="eth" unicode="&#xf0;" horiz-adv-x="498" 
d="M456 260q-2 -66 -18.5 -117.5t-44 -86.5t-65 -53t-81.5 -18q-47 0 -85 20t-65 54t-41.5 79.5t-14.5 95.5v10q1 50 15.5 94t39 76.5t57.5 51.5t72 19q48 0 93.5 -33t71.5 -108q-4 28 -14 58.5t-25 60.5t-34 57t-40 50l-97 -50l-15 30l85 44q-38 34 -78 47l74 53
q20 -13 39.5 -30t36.5 -35l100 52l15 -31l-91 -48q59 -75 84.5 -157.5t25.5 -169.5v-15zM381 210q0 52 -12.5 94.5t-33.5 72t-48 45.5t-55 16q-52 0 -84.5 -39.5t-34.5 -118.5v-12q0 -50 11.5 -92.5t32 -73t50 -48t65.5 -17.5q21 0 40 10.5t34 30.5t24.5 50.5t10.5 70.5v11z
" />
    <glyph glyph-name="ntilde" unicode="&#xf1;" horiz-adv-x="521" 
d="M447 87q0 -29 5 -46t12 -26t13.5 -12t9.5 -3h-152q3 0 9 3t12.5 11.5t11.5 25.5t5 46v225q0 62 -25 89.5t-63 27.5q-24 0 -48 -10.5t-43.5 -28t-31.5 -41t-12 -49.5v-214q0 -28 5 -44.5t12 -25.5t13.5 -12t9.5 -3h-154q3 0 9.5 3t13.5 11.5t12.5 25.5t5.5 46v256
q0 29 -3 47t-9.5 27.5t-15.5 12.5t-21 3h-11l132 56v-94q12 19 32 35.5t43 29t47.5 19.5t46.5 7q24 0 47.5 -8t41.5 -26t29 -47.5t11 -72.5v-244zM396 649q0 -17 -5 -34t-15 -31t-25 -23t-34 -9q-16 0 -33.5 9t-34.5 20t-33.5 20t-30.5 9q-24 0 -37.5 -22t-15.5 -48
q-8 11 -8 27t4.5 33t14 31t23.5 22.5t34 8.5q17 0 35.5 -9t36.5 -19.5t35 -19.5t30 -9q25 0 37 22.5t14 47.5q4 -5 6 -12.5t2 -13.5z" />
    <glyph glyph-name="ograve" unicode="&#xf2;" horiz-adv-x="539" 
d="M497 243q0 -45 -14 -91t-43 -83t-73 -60.5t-104 -23.5q-57 0 -99 21.5t-69 55.5t-40 77t-13 87q0 45 14 91.5t42.5 83.5t72.5 60.5t103 23.5q58 0 100 -21.5t69.5 -56t40.5 -78t13 -86.5zM418 222q0 36 -10 74.5t-30 69.5t-50 51t-71 20q-37 0 -63.5 -18t-43 -46t-24 -61
t-7.5 -63q0 -37 10 -75.5t30 -69.5t50.5 -51t71.5 -20q37 0 63 18.5t42.5 46t24 61t7.5 63.5zM151 666h112l64 -150z" />
    <glyph glyph-name="oacute" unicode="&#xf3;" horiz-adv-x="539" 
d="M497 243q0 -45 -14 -91t-43 -83t-73 -60.5t-104 -23.5q-57 0 -99 21.5t-69 55.5t-40 77t-13 87q0 45 14 91.5t42.5 83.5t72.5 60.5t103 23.5q58 0 100 -21.5t69.5 -56t40.5 -78t13 -86.5zM418 222q0 36 -10 74.5t-30 69.5t-50 51t-71 20q-37 0 -63.5 -18t-43 -46t-24 -61
t-7.5 -63q0 -37 10 -75.5t30 -69.5t50.5 -51t71.5 -20q37 0 63 18.5t42.5 46t24 61t7.5 63.5zM213 516l67 150h107z" />
    <glyph glyph-name="ocircumflex" unicode="&#xf4;" horiz-adv-x="539" 
d="M497 243q0 -45 -14 -91t-43 -83t-73 -60.5t-104 -23.5q-57 0 -99 21.5t-69 55.5t-40 77t-13 87q0 45 14 91.5t42.5 83.5t72.5 60.5t103 23.5q58 0 100 -21.5t69.5 -56t40.5 -78t13 -86.5zM418 222q0 36 -10 74.5t-30 69.5t-50 51t-71 20q-37 0 -63.5 -18t-43 -46t-24 -61
t-7.5 -63q0 -37 10 -75.5t30 -69.5t50.5 -51t71.5 -20q37 0 63 18.5t42.5 46t24 61t7.5 63.5zM267 597q-8 -5 -25.5 -16t-36.5 -23.5t-36.5 -24t-26.5 -16.5q9 11 26.5 34.5t36.5 49.5t36.5 49.5t25.5 34.5l130 -168z" />
    <glyph glyph-name="otilde" unicode="&#xf5;" horiz-adv-x="539" 
d="M497 243q0 -45 -14 -91t-43 -83t-73 -60.5t-104 -23.5q-57 0 -99 21.5t-69 55.5t-40 77t-13 87q0 45 14 91.5t42.5 83.5t72.5 60.5t103 23.5q58 0 100 -21.5t69.5 -56t40.5 -78t13 -86.5zM418 222q0 36 -10 74.5t-30 69.5t-50 51t-71 20q-37 0 -63.5 -18t-43 -46t-24 -61
t-7.5 -63q0 -37 10 -75.5t30 -69.5t50.5 -51t71.5 -20q37 0 63 18.5t42.5 46t24 61t7.5 63.5zM405 649q0 -17 -5 -34t-15 -31t-25 -23t-34 -9q-16 0 -33.5 9t-34.5 20t-33.5 20t-30.5 9q-24 0 -37.5 -22t-15.5 -48q-8 11 -8 27t4.5 33t14 31t23.5 22.5t34 8.5q17 0 35.5 -9
t36.5 -19.5t35 -19.5t30 -9q25 0 37 22.5t14 47.5q4 -5 6 -12.5t2 -13.5z" />
    <glyph glyph-name="odieresis" unicode="&#xf6;" horiz-adv-x="539" 
d="M497 243q0 -45 -14 -91t-43 -83t-73 -60.5t-104 -23.5q-57 0 -99 21.5t-69 55.5t-40 77t-13 87q0 45 14 91.5t42.5 83.5t72.5 60.5t103 23.5q58 0 100 -21.5t69.5 -56t40.5 -78t13 -86.5zM418 222q0 36 -10 74.5t-30 69.5t-50 51t-71 20q-37 0 -63.5 -18t-43 -46t-24 -61
t-7.5 -63q0 -37 10 -75.5t30 -69.5t50.5 -51t71.5 -20q37 0 63 18.5t42.5 46t24 61t7.5 63.5zM402 620q0 -19 -12.5 -32t-32.5 -13q-21 0 -34 13t-13 32t13 31.5t34 12.5t33 -12.5t12 -31.5zM228 620q0 -19 -12.5 -32t-33.5 -13t-33.5 13t-12.5 32t12.5 31.5t33.5 12.5
t33.5 -12.5t12.5 -31.5z" />
    <glyph glyph-name="divide" unicode="&#xf7;" horiz-adv-x="663" 
d="M383 476q0 -21 -14 -35.5t-37 -14.5t-37 14.5t-14 35.5t13.5 36t37.5 15q23 0 37 -15t14 -36zM59 256v52h544v-52h-544zM382 87q0 -21 -14 -35.5t-37 -14.5t-37 14.5t-14 35.5t14 36t37 15t37 -15t14 -36z" />
    <glyph glyph-name="oslash" unicode="&#xf8;" horiz-adv-x="539" 
d="M497 243q0 -45 -14 -91t-43 -83t-73 -60.5t-104 -23.5q-36 0 -65.5 8.5t-52.5 24.5l-40 -59l-35 12l46 69q-38 35 -56 85t-18 101q0 45 14 91.5t42.5 83.5t72.5 60.5t103 23.5q35 0 65 -8.5t53 -23.5l37 56l35 -13q-3 -3 -9 -12.5t-12.5 -20t-12.5 -19.5t-9 -13
q39 -35 57.5 -85.5t18.5 -102.5zM355 396q-19 19 -43.5 30t-54.5 11q-37 0 -63.5 -18t-43 -46t-24 -61t-7.5 -63q0 -37 9.5 -75t29.5 -69zM418 222q0 36 -10 74t-30 70l-196 -291q19 -20 43.5 -31t55.5 -11q37 0 63 18.5t42.5 46t24 61t7.5 63.5z" />
    <glyph glyph-name="ugrave" unicode="&#xf9;" horiz-adv-x="515" 
d="M367 -18v99q-29 -46 -75.5 -71t-94.5 -25q-56 0 -91.5 36.5t-35.5 125.5v228q0 33 -6.5 51t-15.5 27t-18 11.5t-13 4.5h127v-310q0 -60 25 -88.5t62 -28.5q25 0 49.5 12.5t43.5 32t30.5 44t11.5 48.5v204q0 30 -5.5 46.5t-12.5 24.5t-14 10.5t-10 4.5h115v-349
q0 -26 3 -42t9.5 -25t16 -12t21.5 -3h10zM129 666h112l64 -150z" />
    <glyph glyph-name="uacute" unicode="&#xfa;" horiz-adv-x="515" 
d="M367 -18v99q-29 -46 -75.5 -71t-94.5 -25q-56 0 -91.5 36.5t-35.5 125.5v228q0 33 -6.5 51t-15.5 27t-18 11.5t-13 4.5h127v-310q0 -60 25 -88.5t62 -28.5q25 0 49.5 12.5t43.5 32t30.5 44t11.5 48.5v204q0 30 -5.5 46.5t-12.5 24.5t-14 10.5t-10 4.5h115v-349
q0 -26 3 -42t9.5 -25t16 -12t21.5 -3h10zM211 516l67 150h107z" />
    <glyph glyph-name="ucircumflex" unicode="&#xfb;" horiz-adv-x="515" 
d="M367 -18v99q-29 -46 -75.5 -71t-94.5 -25q-56 0 -91.5 36.5t-35.5 125.5v228q0 33 -6.5 51t-15.5 27t-18 11.5t-13 4.5h127v-310q0 -60 25 -88.5t62 -28.5q25 0 49.5 12.5t43.5 32t30.5 44t11.5 48.5v204q0 30 -5.5 46.5t-12.5 24.5t-14 10.5t-10 4.5h115v-349
q0 -26 3 -42t9.5 -25t16 -12t21.5 -3h10zM255 597q-8 -5 -25.5 -16t-36.5 -23.5t-36.5 -24t-26.5 -16.5q9 11 26.5 34.5t36.5 49.5t36.5 49.5t25.5 34.5l130 -168z" />
    <glyph glyph-name="udieresis" unicode="&#xfc;" horiz-adv-x="515" 
d="M367 -18v99q-29 -46 -75.5 -71t-94.5 -25q-56 0 -91.5 36.5t-35.5 125.5v228q0 33 -6.5 51t-15.5 27t-18 11.5t-13 4.5h127v-310q0 -60 25 -88.5t62 -28.5q25 0 49.5 12.5t43.5 32t30.5 44t11.5 48.5v204q0 30 -5.5 46.5t-12.5 24.5t-14 10.5t-10 4.5h115v-349
q0 -26 3 -42t9.5 -25t16 -12t21.5 -3h10zM390 620q0 -19 -12.5 -32t-32.5 -13q-21 0 -34 13t-13 32t13 31.5t34 12.5t33 -12.5t12 -31.5zM216 620q0 -19 -12.5 -32t-33.5 -13t-33.5 13t-12.5 32t12.5 31.5t33.5 12.5t33.5 -12.5t12.5 -31.5z" />
    <glyph glyph-name="yacute" unicode="&#xfd;" horiz-adv-x="485" 
d="M483 469l-9 -4.5t-16 -12t-20 -24.5t-21 -41l-130 -331q-38 -97 -83 -163.5t-98 -86.5l-90 81q11 -5 24 -7t24 -2q21 0 39.5 6t36.5 21.5t36.5 43t39.5 70.5l-145 372q-10 25 -21 39.5t-20.5 23t-17 11.5t-10.5 4h171q-6 -2 -16.5 -11t-10.5 -30q0 -11 3.5 -22.5
t8.5 -24.5l99 -262l97 249q14 35 14 57q0 13 -4 21.5t-9.5 13.5t-11 7t-8.5 2h148zM156 516l67 150h107z" />
    <glyph glyph-name="thorn" unicode="&#xfe;" horiz-adv-x="517" 
d="M478 250q0 -52 -15 -100t-43.5 -84.5t-69.5 -58t-94 -21.5q-38 0 -64 10.5t-44 28.5v-120q0 -28 5.5 -44.5t12 -25.5t13.5 -12t10 -4h-152q3 0 9 3t13 12t12 25.5t5 45.5v641q0 30 -3.5 48.5t-10 28.5t-16 13.5t-21.5 3.5h-9l132 52v-291q28 41 66.5 62.5t80.5 21.5
q34 0 67 -14.5t59 -43.5t41.5 -73t15.5 -104zM398 232q0 44 -9 80t-25.5 62t-40.5 40t-54 14q-23 0 -44.5 -10t-38.5 -27t-27.5 -41t-10.5 -51v-161q0 -50 25.5 -77.5t79.5 -27.5q36 0 63.5 17t45.5 44.5t27 63.5t9 74z" />
    <glyph glyph-name="ydieresis" unicode="&#xff;" horiz-adv-x="485" 
d="M483 469l-9 -4.5t-16 -12t-20 -24.5t-21 -41l-130 -331q-38 -97 -83 -163.5t-98 -86.5l-90 81q11 -5 24 -7t24 -2q21 0 39.5 6t36.5 21.5t36.5 43t39.5 70.5l-145 372q-10 25 -21 39.5t-20.5 23t-17 11.5t-10.5 4h171q-6 -2 -16.5 -11t-10.5 -30q0 -11 3.5 -22.5
t8.5 -24.5l99 -262l97 249q14 35 14 57q0 13 -4 21.5t-9.5 13.5t-11 7t-8.5 2h148zM201 620q0 -19 -12.5 -32t-33.5 -13t-33.5 13t-12.5 32t12.5 31.5t33.5 12.5t33.5 -12.5t12.5 -31.5zM375 620q0 -19 -12.5 -32t-32.5 -13q-21 0 -34 13t-13 32t13 31.5t34 12.5t33 -12.5
t12 -31.5z" />
    <glyph glyph-name="OE" unicode="&#x152;" horiz-adv-x="933" 
d="M877 0h-413q-47 -15 -101 -15q-71 0 -129 25.5t-99 71.5t-63.5 108t-22.5 136q0 76 24.5 141t68 113t104.5 75t135 27q27 0 52.5 -4t48.5 -12h374v-138q-1 4 -4.5 18.5t-14 30t-31 28t-55.5 12.5h-174v-252h148q24 0 38.5 6t22 14t10.5 15t3 10v-139q0 3 -3 10.5
t-10.5 15t-21.5 13.5t-38 6h-149v-266h180q30 0 51.5 5t38 17t29.5 31.5t24 49.5zM497 582q-59 45 -136 45q-51 0 -93.5 -19.5t-72.5 -55.5t-47 -86t-17 -111q0 -69 18 -127t51 -99.5t79.5 -65t103.5 -23.5q64 0 114 33v509z" />
    <glyph glyph-name="oe" unicode="&#x153;" horiz-adv-x="837" 
d="M808 135q-21 -74 -67.5 -112t-113.5 -38q-63 0 -106 29t-68 75q-28 -45 -74.5 -74.5t-115.5 -29.5q-57 0 -99 21.5t-69 55.5t-40 77t-13 87q0 45 14 91.5t42.5 83.5t72.5 60.5t103 23.5q68 0 113.5 -28.5t71.5 -72.5q26 47 68 74t96 27q46 0 79 -20.5t54.5 -54.5
t32.5 -77.5t13 -89.5h-309q0 -1 0.5 -4.5t0.5 -4.5q3 -41 14.5 -75t32 -59.5t48 -39.5t62.5 -14q42 0 83.5 23.5t73.5 65.5zM720 284q0 26 -5.5 54t-17.5 51t-32 38t-49 15q-30 0 -52 -14.5t-37.5 -37t-24 -51t-9.5 -55.5h227zM418 222q0 36 -10 74.5t-30 69.5t-50 51
t-71 20q-37 0 -63.5 -18t-43 -46t-24 -61t-7.5 -63q0 -37 10 -75.5t30 -69.5t50.5 -51t71.5 -20q37 0 63 18.5t42.5 46t24 61t7.5 63.5z" />
    <glyph glyph-name="Scaron" unicode="&#x160;" horiz-adv-x="476" 
d="M436 165q0 -29 -9 -57.5t-28 -51.5q-27 -34 -72.5 -52.5t-110.5 -18.5q-50 0 -94 14.5t-78 37.5v152q26 -83 74 -118t110 -35q25 0 49 7t42.5 20.5t30 34.5t11.5 50q0 44 -23 73t-57 52t-74.5 43t-74.5 45.5t-57 60t-23 85.5q0 41 16.5 73.5t45 55.5t65 35t77.5 12
q42 0 81.5 -13t62.5 -32v-132q-20 68 -62 97.5t-94 29.5q-29 0 -51.5 -9t-38 -24.5t-24 -35t-8.5 -40.5q0 -40 23.5 -66.5t58 -48t75.5 -42t75.5 -47t58 -63.5t23.5 -92zM240 723l-129 164l129 -77l125 76z" />
    <glyph glyph-name="scaron" unicode="&#x161;" horiz-adv-x="370" 
d="M340 122q0 -63 -44.5 -100t-122.5 -37q-40 0 -75.5 11t-57.5 28v117q22 -60 56 -85t78 -25q16 0 33.5 3.5t32 11.5t24 21.5t9.5 33.5q0 19 -8.5 34t-24.5 27.5t-37.5 24t-46.5 25.5q-25 13 -45.5 26.5t-35 29t-22.5 35t-8 45.5q0 30 11 55t31.5 43.5t48 28.5t60.5 10
q69 0 118 -32v-102q-43 89 -119 89q-35 0 -61 -19t-26 -51q0 -15 4 -27t15.5 -23t31 -23.5t50.5 -28.5q28 -15 52 -29t41.5 -30.5t27.5 -37.5t10 -49zM187 526l-129 164l129 -77l125 76z" />
    <glyph glyph-name="Ydieresis" unicode="&#x178;" horiz-adv-x="644" 
d="M493 634q0 19 -9.5 25t-14.5 7h152q-2 0 -10 -3.5t-20 -13.5t-28.5 -30t-35.5 -53l-167 -286v-187q0 -30 6 -48.5t13.5 -28t15.5 -13t11 -3.5h-174q3 0 10.5 3t15.5 12.5t14 28t6 49.5v186l-168 289q-19 32 -35 51.5t-28 29.5t-20 13.5t-10 3.5h184q-2 0 -5.5 -1.5
t-8 -4.5t-7.5 -9t-3 -16q0 -11 6.5 -26.5t20.5 -39.5l132 -227l125 216q17 29 24.5 46.5t7.5 29.5zM465 778q0 -19 -12.5 -32t-33.5 -13t-33.5 13t-12.5 32t12.5 31.5t33.5 12.5t33.5 -12.5t12.5 -31.5zM290 778q0 -19 -12.5 -32t-33.5 -13q-20 0 -33 13t-13 32t13 31.5
t33 12.5q21 0 33.5 -12.5t12.5 -31.5z" />
    <glyph glyph-name="Zcaron" unicode="&#x17d;" horiz-adv-x="585" 
d="M534 0h-500l374 616h-225q-66 0 -95 -19t-36 -51v120h479l-373 -616h232q39 0 65 3.5t43 12.5t27.5 23.5t19.5 36.5zM294 723l-129 164l129 -77l125 76z" />
    <glyph glyph-name="zcaron" unicode="&#x17e;" horiz-adv-x="427" 
d="M33 0l262 428h-160q-39 0 -61 -19t-27 -50v110h355l-258 -423h185q33 0 54 17.5t26 48.5v-112h-376zM216 526l-129 164l129 -77l125 76z" />
    <glyph glyph-name="florin" unicode="&#x192;" 
d="M452 601q-11 12 -32 19.5t-41 7.5q-28 0 -44.5 -21t-26 -54t-14.5 -74.5t-9 -82.5h79l-3 -47h-80l-26 -236q-14 -135 -60 -195.5t-136 -60.5q-21 0 -38 6l-34 12l24 65q7 -8 27 -19t41 -11q77 0 95 172l30 267h-74l3 47h75q7 58 18 110t32 91t54 62t83 23q46 0 83 -17z
" />
    <glyph glyph-name="circumflex" unicode="&#x2c6;" horiz-adv-x="446" 
d="M224 597q-8 -5 -25.5 -16t-36.5 -23.5t-36.5 -24t-26.5 -16.5q9 11 26.5 34.5t36.5 49.5t36.5 49.5t25.5 34.5l130 -168z" />
    <glyph glyph-name="tilde" unicode="&#x2dc;" horiz-adv-x="446" 
d="M367 649q0 -17 -5 -34t-15 -31t-25 -23t-34 -9q-16 0 -33.5 9t-34.5 20t-33.5 20t-30.5 9q-24 0 -37.5 -22t-15.5 -48q-8 11 -8 27t4.5 33t14 31t23.5 22.5t34 8.5q17 0 35.5 -9t36.5 -19.5t35 -19.5t30 -9q25 0 37 22.5t14 47.5q4 -5 6 -12.5t2 -13.5z" />
    <glyph glyph-name="endash" unicode="&#x2013;" horiz-adv-x="678" 
d="M39 213v52h600v-52h-600z" />
    <glyph glyph-name="emdash" unicode="&#x2014;" horiz-adv-x="1078" 
d="M39 213v52h1000v-52h-1000z" />
    <glyph glyph-name="quoteleft" unicode="&#x2018;" horiz-adv-x="257" 
d="M208 684q-21 -8 -39.5 -23t-32.5 -33.5t-22 -40t-8 -43.5q0 -14 2.5 -26.5t6.5 -19.5q10 7 23 7q23 0 35.5 -14.5t12.5 -34.5q0 -23 -15.5 -39.5t-41.5 -16.5q-19 0 -33.5 9t-24.5 24t-15.5 35t-5.5 42q0 28 9 57.5t28.5 54.5t49.5 42t71 20z" />
    <glyph glyph-name="quoteright" unicode="&#x2019;" horiz-adv-x="257" 
d="M204 571q0 -28 -9.5 -57.5t-29 -54.5t-49 -42t-70.5 -20q21 9 39.5 23.5t32.5 33.5t22 40.5t8 43.5q0 14 -2.5 26t-7.5 19q-10 -7 -22 -7q-23 0 -35.5 14.5t-12.5 34.5q0 23 15.5 39.5t41.5 16.5q19 0 33.5 -9t24.5 -24t15.5 -35t5.5 -42z" />
    <glyph glyph-name="quotesinglbase" unicode="&#x201a;" horiz-adv-x="257" 
d="M199 -9q0 -28 -9 -57.5t-28.5 -54t-49.5 -41.5t-71 -20q21 9 39.5 23.5t32.5 33.5t22 40.5t8 43.5q0 13 -2.5 25t-6.5 20q-11 -8 -23 -8q-24 0 -36 15.5t-12 34.5q0 21 14.5 38.5t43.5 17.5q37 0 57.5 -32t20.5 -79z" />
    <glyph glyph-name="quotedblleft" unicode="&#x201c;" horiz-adv-x="461" 
d="M410 684q-21 -8 -39.5 -23t-32.5 -33.5t-22 -40t-8 -43.5q0 -16 3 -28t7 -18q10 7 23 7q23 0 35.5 -14.5t12.5 -34.5q0 -23 -16 -39.5t-42 -16.5q-34 0 -56.5 29.5t-22.5 80.5q0 28 9.5 57.5t29 54.5t49 42t70.5 20zM212 684q-21 -8 -39.5 -23t-33 -33.5t-22.5 -40
t-8 -43.5q0 -16 3 -28t7 -18q10 7 23 7q23 0 35.5 -14.5t12.5 -34.5q0 -23 -15.5 -39.5t-41.5 -16.5q-34 0 -57 29.5t-23 80.5q0 28 9.5 57.5t29 54.5t49.5 42t71 20z" />
    <glyph glyph-name="quotedblright" unicode="&#x201d;" horiz-adv-x="461" 
d="M405 571q0 -28 -9.5 -57.5t-29 -54.5t-49.5 -42t-71 -20q21 9 39.5 23.5t32.5 33.5t22 40.5t8 43.5q0 31 -9 45q-10 -7 -23 -7q-24 0 -36 15t-12 34q0 21 14.5 38.5t43.5 17.5q33 0 56 -29.5t23 -80.5zM207 576q0 -28 -9.5 -58.5t-29 -56t-49 -43.5t-70.5 -21
q21 9 39.5 23.5t32.5 33.5t22 40.5t8 43.5q0 30 -10 45q-10 -7 -23 -7q-24 0 -36 15t-12 34q0 21 14.5 38.5t43.5 17.5q34 0 56.5 -27t22.5 -78z" />
    <glyph glyph-name="quotedblbase" unicode="&#x201e;" horiz-adv-x="454" 
d="M396 -9q0 -28 -9 -57.5t-28.5 -54t-49.5 -41.5t-71 -20q21 9 39.5 23.5t32.5 33.5t22 40.5t8 43.5q0 14 -2 25.5t-7 19.5q-11 -8 -23 -8q-23 0 -35.5 14.5t-12.5 35.5q0 23 15.5 39.5t41.5 16.5q37 0 58 -33t21 -78zM203 -9q0 -28 -9 -57.5t-28.5 -54t-49.5 -41.5
t-71 -20q21 9 39.5 23.5t32.5 33.5t22 40.5t8 43.5q0 13 -2.5 25t-6.5 20q-11 -8 -23 -8q-23 0 -35.5 14.5t-12.5 35.5q0 23 16 39.5t42 16.5q38 0 58 -33t20 -78z" />
    <glyph glyph-name="dagger" unicode="&#x2020;" horiz-adv-x="544" 
d="M397 462q24 0 38.5 3t22 6.5t10.5 6.5t3 4v-95q0 1 -2.5 4t-10 7t-22.5 7t-40 3h-93v-374q0 -58 -4.5 -99.5t-10 -69t-10.5 -42.5t-7 -20q-2 5 -6.5 20t-9.5 42.5t-9 69t-4 99.5v374h-95q-25 0 -39.5 -3t-22 -6.5t-10 -7t-2.5 -4.5v95q0 -1 2 -4t9.5 -6.5t22 -6.5
t39.5 -3h96v98q0 35 -4.5 55.5t-10 31.5t-11 14.5t-7.5 4.5h124q-1 0 -6 -3t-10 -13.5t-9.5 -31.5t-4.5 -58v-98h94z" />
    <glyph glyph-name="daggerdbl" unicode="&#x2021;" horiz-adv-x="544" 
d="M470 0q-3 6 -11 10t-21.5 7.5t-39.5 3.5h-96v-96q0 -35 4.5 -55.5t10 -31.5t11 -14.5t7.5 -4.5h-125q1 0 6 3t10.5 13.5t10 31.5t4.5 58v96h-95q-24 0 -38.5 -3t-22 -6.5t-10 -7t-2.5 -4.5v95q0 -1 2 -4.5t10 -7t22.5 -6.5t40.5 -3h93v336h-94q-24 0 -38 -2.5t-22 -6.5
t-11 -7.5t-3 -4.5v95q0 -1 2 -4.5t9.5 -7t22 -6.5t39.5 -3h95v96q0 35 -4.5 55.5t-10 32t-11 15t-7.5 4.5h125q-1 0 -6 -3t-10.5 -14t-10 -32t-4.5 -58v-96h96q24 0 38 3t21.5 6.5t10 7t2.5 4.5v-96q-2 6 -10 11q-8 4 -22.5 7.5t-41.5 3.5h-94v-336h94q24 0 38 2.5t22 6.5
t10.5 7t3.5 5v-95z" />
    <glyph glyph-name="bullet" unicode="&#x2022;" horiz-adv-x="447" 
d="M339 299q0 -23 -8 -44t-22.5 -37t-36 -25.5t-48.5 -9.5t-48.5 9.5t-36.5 25.5t-23 37t-8 44t7.5 44t22.5 37t36.5 25.5t49.5 9.5q27 0 48.5 -9.5t36.5 -25.5t22.5 -37t7.5 -44z" />
    <glyph glyph-name="ellipsis" unicode="&#x2026;" horiz-adv-x="927" 
d="M829 46q0 -23 -15.5 -40.5t-44.5 -17.5t-44.5 17.5t-15.5 40.5t15.5 40.5t44.5 17.5t44.5 -17.5t15.5 -40.5zM523 46q0 -23 -15 -40.5t-44 -17.5t-44.5 17.5t-15.5 40.5t15.5 40.5t44.5 17.5t44 -17.5t15 -40.5zM218 46q0 -23 -15.5 -40.5t-44.5 -17.5q-28 0 -44 17.5
t-16 40.5t15.5 40.5t44.5 17.5t44.5 -17.5t15.5 -40.5z" />
    <glyph glyph-name="perthousand" unicode="&#x2030;" horiz-adv-x="1007" 
d="M324 527q0 -29 -9 -56.5t-26.5 -49.5t-44 -35t-60.5 -13t-59.5 13t-43 35t-26 49.5t-8.5 56.5q0 30 9 57.5t26.5 49t43 34.5t58.5 13q35 0 61 -13t43.5 -35t26.5 -49.5t9 -56.5zM141 0h-53l467 666h51zM643 140q0 -29 -9 -56.5t-26 -49.5t-43.5 -35t-60.5 -13
q-35 0 -60.5 13t-43 35t-26 49.5t-8.5 56.5t9 56.5t27 49.5t43.5 35t58.5 13q34 0 60 -13t43.5 -35t26.5 -49.5t9 -56.5zM266 526q0 47 -22 80t-61 33q-40 0 -59 -31.5t-19 -78.5q0 -48 20.5 -81t60.5 -33q39 0 59.5 32t20.5 79zM585 140q0 47 -21.5 80t-60.5 33
q-40 0 -59.5 -32.5t-19.5 -79.5q0 -48 21 -80t60 -32q40 0 60 32t20 79zM962 140q0 -29 -8.5 -56.5t-26 -49.5t-43.5 -35t-61 -13q-34 0 -60 13t-43 35t-26 49.5t-9 56.5t9 56.5t27 49.5t43.5 35t58.5 13q34 0 60.5 -13t43.5 -35t26 -49.5t9 -56.5zM904 140q0 47 -21 80
t-61 33q-39 0 -58.5 -32.5t-19.5 -79.5q0 -48 20.5 -80t60.5 -32t59.5 32t19.5 79z" />
    <glyph glyph-name="guilsinglleft" unicode="&#x2039;" horiz-adv-x="251" 
d="M157 71l-124 181l125 180h63l-124 -180l125 -181h-65z" />
    <glyph glyph-name="guilsinglright" unicode="&#x203a;" horiz-adv-x="251" 
d="M93 72h-64l124 180l-124 180h63l125 -180z" />
    <glyph glyph-name="Euro" unicode="&#x20ac;" 
d="M493 60q-25 -32 -70 -54t-99 -22q-53 0 -95.5 20t-74 54.5t-51.5 80.5t-29 99h-65v43h60q-1 11 -1.5 20.5t-0.5 19.5q0 14 1 29t3 30h-62v43h68q10 49 31 95.5t55 83t81 58.5t109 22q44 0 81 -11.5t60 -30.5l-31 -75q-20 30 -51 47t-73 17q-40 0 -70.5 -17.5t-52.5 -46.5
t-36 -66t-21 -76h249l-17 -43h-238q-2 -12 -2 -23.5v-21.5q0 -26 3 -54h197l-17 -43h-173q7 -38 21.5 -74t36.5 -63.5t52 -44.5t68 -17q24 0 48 9.5t44.5 25t36.5 35.5t25 41v-90z" />
    <glyph glyph-name="trademark" unicode="&#x2122;" horiz-adv-x="622" 
d="M576 454q0 -26 9 -34t12 -9h-86q1 0 4 1.5t6.5 6t6 13.5t2.5 23v174l-90 -224l-91 223v-171q0 -14 2.5 -23t6.5 -14t7.5 -7t5.5 -2h-77q1 0 4.5 1.5t7.5 6.5t7.5 14.5t3.5 25.5v165q0 25 -9.5 32.5t-12.5 9.5h89l66 -159l64 159h83q-1 0 -4.5 -2t-7 -6.5t-6.5 -13
t-3 -22.5v-168zM258 666l2 -76q-1 5 -3.5 13t-7.5 15.5t-12.5 13t-19.5 5.5h-48v-182q0 -27 8 -35t11 -9h-85q1 0 4.5 1.5t7 6t6 13.5t2.5 23v182h-49q-12 0 -19.5 -5.5t-12 -13t-7.5 -15.5t-4 -13l2 76h225z" />
    </font>
</defs>
</svg>
