<?xml version="1.0" standalone="no"?>
<!DOCTYPE svg PUBLIC "-//W3C//DTD SVG 1.1//EN" "http://www.w3.org/Graphics/SVG/1.1/DTD/svg11.dtd" >
<svg xmlns="http://www.w3.org/2000/svg" xmlns:xlink="http://www.w3.org/1999/xlink" version="1.1">
<metadata>
Created by FontForge 20200427 at Tue Oct 14 06:59:35 2014
 By www
Copyright (c) 2013 by Emil Bertell. All rights reserved.
</metadata>
<defs>
<font id="BonbonBoldW00-Regular" horiz-adv-x="424" >
  <font-face 
    font-family="BonbonBoldW00-Regular"
    font-weight="400"
    font-stretch="normal"
    units-per-em="1000"
    panose-1="1 0 0 0 0 0 0 0 0 0"
    ascent="800"
    descent="-200"
    x-height="517"
    cap-height="876"
    bbox="-1104.33 -933.364 2575.13 1450.96"
    underline-thickness="50"
    underline-position="-175"
    unicode-range="U+0020-FB00"
  />
<missing-glyph horiz-adv-x="150" 
 />
    <glyph glyph-name=".notdef" horiz-adv-x="150" 
 />
    <glyph glyph-name=".null" horiz-adv-x="0" 
 />
    <glyph glyph-name="nonmarkingreturn" horiz-adv-x="333" 
 />
    <glyph glyph-name="space" unicode=" " horiz-adv-x="150" 
 />
    <glyph glyph-name="exclam" unicode="!" horiz-adv-x="321" 
d="M134 176q-11 -2 -16 2.5t-6 14.5t1.5 25t6.5 35q4 24 10 68t13 98t14.5 113t15 114t14.5 100t13 72q1 4 16 4t37 -2.5t47 -7.5t45.5 -12t33.5 -15.5t10 -17.5q-1 -3 -12.5 -30t-29.5 -69l-40.5 -94.5t-46.5 -107.5q-55 -128 -126 -290zM191 22q-5 -14 -19.5 -24
t-33 -15.5t-39.5 -6.5t-38 4q-16 4 -31 13.5t-25.5 22t-15 26.5t1.5 28q5 13 18.5 23t31.5 16t38.5 7t41.5 -4q14 -3 28.5 -12t25.5 -21.5t16 -27t0 -29.5z" />
    <glyph glyph-name="quotedbl" unicode="&#x22;" horiz-adv-x="272" 
d="M81 495q0 -2 -3.5 -4.5t-8 -3.5t-8.5 1.5t-6 10.5q-5 17 -10.5 45t-10 57t-6.5 54t1 36v1q17 5 43.5 2t51 -9.5t40.5 -14t13 -12.5q-11 -17 -27.5 -38.5t-32 -43.5t-26 -43.5t-10.5 -37.5zM233 486q0 -2 -3 -4.5t-7.5 -3.5t-9 1.5t-6.5 10.5q-5 17 -9 46.5t-6.5 60
t-2.5 57t3 37.5v1q17 5 42 2t47.5 -9.5t37 -14t11.5 -12.5q-11 -17 -27.5 -39.5t-32 -46.5t-26.5 -47t-11 -39z" />
    <glyph glyph-name="numbersign" unicode="#" horiz-adv-x="556" 
d="M377 -4q-21 -4 -30 7.5t-6 54.5q1 17 2.5 37t3.5 42q-30 6 -71 10.5t-95 7.5h-9q0 -2 -0.5 -3t-0.5 -3q-14 -54 -21 -84.5t-10 -45.5q-4 -18 -4 -23q-12 -2 -20 0t-12 12t-4.5 28t3.5 47l8 75q-30 1 -47.5 1h-26.5h-11h-2q-5 12 -4 20t11 14t30.5 10t55.5 6
q6 54 12.5 110.5t14.5 113.5q-38 1 -47 0.5t-9 0.5q-8 20 3 31t59 16q7 48 14.5 90t15.5 76q0 1 12.5 1t31 -2t39 -5.5t38 -9t27 -13.5t6.5 -18q-2 -5 -16 -34t-35 -79q29 1 56 2t53 3q8 44 14.5 83.5t14.5 71.5q0 1 12.5 1t31 -2t39.5 -5.5t38 -9t27 -13.5t7 -18
q-2 -5 -14 -30.5t-31 -69.5h60q1 0 0 -23t-6 -50t-15.5 -49t-26.5 -20q-6 1 -16 10.5t-40 21.5q-14 -37 -27.5 -78t-27.5 -88q23 2 46.5 2h48.5q1 0 1 -11t-2 -27.5t-5 -35t-9 -34.5t-14 -26t-19 -8q-3 0 -7.5 3.5t-12 8.5t-20.5 12t-34 14q-11 -45 -17 -69.5t-8 -37.5
q-3 -15 -3 -19zM260 428q-17 -45 -36 -99t-37 -117h22q41 1 76.5 3t70.5 4q5 48 11 98t14 99q-50 8 -121 12z" />
    <glyph glyph-name="dollar" unicode="$" horiz-adv-x="365" 
d="M335 177q8 -37 0.5 -65t-25.5 -48t-43 -33.5t-53 -20.5q-9 -39 -17 -63t-14.5 -37.5t-10.5 -18l-4 -4.5q-9 -2 -19 1t-17.5 15t-11 35t0.5 62q-23 2 -39.5 6t-23.5 11q-12 13 -32 31t-34.5 47.5t-16 72t23.5 103.5l1 1q10 1 34.5 -1.5t49 -9t41.5 -15.5t14 -20
q-1 -2 -8 -15t-16.5 -31t-20 -39t-18 -39t-11 -31.5t1.5 -15.5q7 -3 21 -6.5t30 -4t32 3t27.5 15t16.5 31t-2 51.5q-5 22 -19 50t-30 57.5t-30.5 59t-19.5 53.5q-8 38 -1 66.5t24 48.5t42 33t52 20q5 31 5 56.5t5 42.5q0 1 12 1t29 -1t36.5 -4t35.5 -8t25 -12.5t6 -17.5
l-19 -63l4 -3q16 -16 33 -31.5t27.5 -36.5t10.5 -51t-18 -74v-1q-11 -1 -35 2t-48.5 9t-41.5 15.5t-14 20.5q1 3 15.5 19t30 34.5t26.5 35t4 20.5q-11 6 -32.5 12t-41 1.5t-30.5 -25.5t-1 -68q5 -23 19.5 -53t31 -61.5t31 -62t19.5 -52.5z" />
    <glyph glyph-name="percent" unicode="%" horiz-adv-x="803" 
d="M303 12q-16 0 -23.5 7.5t-5.5 28t14.5 58t36.5 97.5q15 38 34 94.5t39 117t39.5 119t36.5 101.5q-29 -20 -53.5 -33t-46.5 -22q14 -27 15.5 -62.5t-10.5 -73.5q-18 -56 -51 -96.5t-71.5 -66.5t-77 -38t-68.5 -12q-36 0 -66.5 20t-50.5 51.5t-27 71t5 79.5q21 69 63 115.5
t86 72t82 29.5t52 -11q4 -5 7.5 -9t6.5 -9q2 0 4.5 0.5t5.5 0.5q26 0 47.5 -11t35.5 -30q23 8 53.5 25t69.5 44q2 2 5 1q3 0 18 -0.5t34.5 -2.5t41 -5.5t38.5 -8.5t26 -12t4 -16q-3 -5 -31.5 -45.5t-70 -104.5t-90.5 -147t-92 -174q-24 -50 -37 -78.5t-19 -42.5t-7.5 -18z
M742 413q32 -2 60 -19.5t46.5 -46t24.5 -65t-6 -74.5q-18 -56 -52.5 -96t-75 -66t-80.5 -38.5t-70 -12.5q-36 0 -66.5 20t-50.5 52t-27 71.5t5 79.5q21 69 63 115.5t86 72t82 29.5t52 -11zM721 392q-3 0 -7 2q-15 3 -30 -10t-29.5 -37t-27 -57.5t-23.5 -71.5
q-10 -34 -17.5 -69t-9 -63t4.5 -45.5t24 -17.5q17 0 32.5 16t28.5 42.5t24.5 59.5t21.5 67q7 25 13.5 50t11 47.5t5.5 40.5t-3 30q-9 11 -16 15q-2 0 -3 1zM225 444q9 32 20 65t19 61q-20 10 -24 27t6 30q-17 9 -33 -2t-31.5 -35.5t-29.5 -60t-26 -76.5q-10 -34 -17.5 -68.5
t-9 -62.5t4.5 -46t24 -18q17 0 31 16.5t25 43t21 59.5t20 67z" />
    <glyph glyph-name="ampersand" unicode="&#x26;" horiz-adv-x="436" 
d="M322 441h-13.5t-14.5 2q-40 -2 -78 -43.5t-63 -129.5q-14 -48 -19 -90t-0.5 -73t19.5 -48.5t41 -17.5q30 0 48.5 25.5t30 67t18.5 94.5t13 108q0 4 10.5 3t26 -5.5t33 -11t33 -12.5t25.5 -10.5l10 -4.5q-7 -47 -29.5 -94.5t-55.5 -88.5t-73 -72t-82 -43q-9 -41 -14 -65
t-8 -36t-4 -15l-1 -3q-6 -1 -11.5 -1.5t-10.5 -0.5q-29 0 -47 19t-18 67v19t2 21q-29 13 -52.5 38.5t-37 60t-15 77.5t13.5 92q15 50 42.5 84t59.5 55.5t66.5 32.5t64.5 16q-26 10 -50.5 26t-41.5 39t-23.5 54t3.5 70q10 38 30 67.5t45.5 50t54.5 32.5t57 16q8 36 8 61.5
t1 45.5q0 1 12.5 0.5t31.5 -2.5t40.5 -6t39 -10t27.5 -14.5t7 -18.5q-2 -5 -19.5 -28.5t-34.5 -59.5q16 -17 30 -38t21 -49.5t4 -65t-21 -82.5l-1 -1q-11 -2 -35 1t-48.5 9.5t-41.5 15.5t-14 20q1 2 9 14.5t19.5 29.5t24 36.5t22.5 37t14.5 29.5t-0.5 15q-21 11 -41 8
t-37.5 -16.5t-30.5 -37.5t-21 -55q-9 -36 -14 -67t-4.5 -54.5t9 -37t28.5 -13.5q17 0 32 -1t32 -1q1 0 2 -6t-1.5 -12.5t-10.5 -12.5t-24 -6z" />
    <glyph glyph-name="quotesingle" unicode="'" horiz-adv-x="159" 
d="M110 486q0 -2 -3 -4.5t-7.5 -3.5t-9 1.5t-6.5 10.5q-5 17 -9 46.5t-6.5 60t-2.5 57t3 37.5v1q17 5 42 2t47.5 -9.5t37 -14t11.5 -12.5q-11 -17 -27.5 -39.5t-32 -46.5t-26.5 -47t-11 -39z" />
    <glyph glyph-name="parenleft" unicode="(" horiz-adv-x="428" 
d="M208 -128q4 -1 5.5 -4.5t-0.5 -7t-8 -5.5t-18 1q-69 16 -113.5 67t-65 121.5t-18 153t27.5 162.5q31 98 79.5 176.5t105.5 135.5t118 91.5t118 45.5q7 1 8 -3t-2 -10t-8 -11.5t-10 -6.5q-44 -8 -80.5 -45.5t-68 -95t-58 -129.5t-48.5 -148q-21 -74 -38 -154.5
t-18.5 -150.5t19 -120t73.5 -63z" />
    <glyph glyph-name="parenright" unicode=")" horiz-adv-x="428" 
d="M261 791q-4 1 -5.5 4.5t0 7t8 5.5t18.5 -1q69 -16 113.5 -67t65 -121.5t17.5 -153.5t-28 -162q-31 -98 -79 -176.5t-105 -135.5t-118.5 -92t-118.5 -45q-7 -1 -8 3t2 10t8.5 11.5t10.5 6.5q43 8 80 45.5t68.5 95t57.5 129.5t48 148q14 49 27 102t21 104.5t9 98.5t-7.5 85
t-29 63.5t-55.5 34.5z" />
    <glyph glyph-name="asterisk" unicode="*" horiz-adv-x="354" 
d="M288 658q-17 -22 -35 -51t-31 -57q17 10 35.5 20t35 18.5t30.5 14t22 7.5q15 -16 22 -34t8.5 -33.5t-1.5 -25.5t-10 -9q-27 4 -61 4.5t-64 -2.5q17 -9 34.5 -20t33 -21.5t27.5 -19t17 -14.5q-6 -21 -18 -36.5t-24.5 -24.5t-22.5 -11t-13 4q-10 25 -26.5 55t-34.5 54
v-39.5t-1.5 -39t-3 -33.5t-4.5 -22q-21 -5 -40.5 -2t-33.5 9t-21 14t-2 13q17 21 34 49.5t29 55.5q-16 -10 -34 -19.5t-34.5 -17.5t-30 -14t-21.5 -7l-1 1q-15 15 -22 33t-8.5 33.5t2 25.5t9.5 9q26 -5 60.5 -5.5t64.5 2.5q-17 9 -34.5 20t-33.5 21t-27.5 19t-16.5 15v2
q6 20 18 35t24.5 24t23 11.5t12.5 -3.5q10 -26 26 -55.5t34 -53.5v39.5t1.5 39t3 33t4.5 22.5l2 1q20 5 39 2t33.5 -9.5t21.5 -14t3 -12.5z" />
    <glyph glyph-name="plus" unicode="+" horiz-adv-x="329" 
d="M155 107q-11 17 -19.5 40.5t-12.5 55.5q-22 -2 -46.5 -3.5t-50.5 0.5h-1q-5 9 -4 29t6 40t14 35t21 16q2 0 20 -0.5t45 -1.5q8 58 28 125v1q10 2 29.5 -2t38 -12.5t31.5 -19.5t10 -22l-27 -74q41 -2 72.5 -2.5t38.5 -0.5q4 0 -2 -6q-20 -23 -55 -46.5t-89 -39.5
q-16 -42 -27.5 -75t-13.5 -40q-3 -3 -6 3z" />
    <glyph glyph-name="comma" unicode="," horiz-adv-x="158" 
d="M196 9q-11 -27 -43.5 -52t-66.5 -42q-14 -7 -24.5 -8t-17 0.5t-8.5 4.5t1 5q22 12 37 24t21 22t2 16.5t-19 8.5q-20 2 -37.5 10t-28 19.5t-13.5 25.5t6 28q6 11 20 19.5t31 13t36 5.5t36 -3q16 -5 31 -15t25.5 -23t14 -28.5t-2.5 -30.5z" />
    <glyph glyph-name="hyphen" unicode="-" horiz-adv-x="439" 
d="M416 265q-16 -19 -43 -38.5t-66.5 -35.5t-92 -25t-118.5 -6h-1q-5 9 -4 29t6 40t14 35t21 16q2 0 22.5 -0.5t50.5 -1.5t65 -2t66 -2.5t53.5 -2t28.5 -0.5q4 0 -2 -6z" />
    <glyph glyph-name="period" unicode="." horiz-adv-x="183" 
d="M191 22q-5 -14 -19.5 -24t-33 -15.5t-39.5 -6.5t-38 4q-16 4 -31 13.5t-25.5 22t-15 26.5t1.5 28q5 13 18.5 23t31.5 16t38.5 7t41.5 -4q14 -3 28.5 -12t25.5 -21.5t16 -27t0 -29.5z" />
    <glyph glyph-name="slash" unicode="/" horiz-adv-x="258" 
d="M47 -151q-11 -2 -17.5 2.5t-8 24t3 57.5t16.5 103q5 30 14 91t19 137.5t21.5 160.5t22 159t19 134t14.5 85q0 1 13.5 1t33 -1t41.5 -4t40.5 -8t29 -12.5t7.5 -17.5q-2 -6 -22.5 -48t-53 -130t-74 -227.5t-84.5 -338.5q-12 -54 -18.5 -87t-10.5 -51q-4 -21 -6 -30z" />
    <glyph glyph-name="zero" unicode="0" horiz-adv-x="417" 
d="M337 593q28 -2 52.5 -27.5t39.5 -66.5t17 -92t-14 -104q-24 -76 -61.5 -132.5t-80.5 -94.5t-86.5 -57t-79.5 -19q-29 0 -56.5 26.5t-45 70t-21 100t14.5 116.5q16 53 42.5 99t57.5 82.5t63.5 63t62 41t52 16.5t34.5 -11zM278 303q12 42 23 84.5t18 78.5t9 63t-3 38l-6 4
q-20 11 -40 -7.5t-39.5 -56t-37 -89t-33.5 -105.5q-15 -54 -26 -105.5t-15.5 -91t-1 -64t15.5 -24.5q22 0 40.5 23t34.5 61t31 87.5t30 103.5z" />
    <glyph glyph-name="one" unicode="1" horiz-adv-x="222" 
d="M156 607q16 3 34 -3t31 -26.5t17.5 -59.5t-7.5 -103q-8 -45 -19 -101.5t-22.5 -114t-23 -111t-20.5 -92.5q0 -1 -12.5 -1t-31 2t-39 5.5t-38 8.5t-27.5 13t-6 18q4 11 41 113.5t87 298.5q13 53 20.5 83.5t10.5 46t4 19.5z" />
    <glyph glyph-name="two" unicode="2" horiz-adv-x="383" 
d="M312 -27q-29 -10 -53.5 -8t-47.5 9.5t-45 17.5t-46 15.5t-50.5 4t-57.5 -17.5q-5 -2 -7.5 2.5t-3 11.5t0 13.5t3.5 9.5q58 58 101.5 117.5t75 116.5t52 109t31.5 96q8 31 5.5 51t-11 31t-22 15t-27 3.5t-26 -4t-19.5 -6.5q-5 -3 -4 -16t5.5 -31t11 -39t13 -39t11 -30.5
t5.5 -14.5q3 -11 -14 -20.5t-41.5 -16t-49 -9.5t-34.5 -1l-1 1q-22 54 -17.5 95t22 71.5t42 52t42.5 35.5q11 8 37 12t58.5 2t66.5 -12.5t59.5 -30.5t38 -52t2.5 -78q-7 -32 -25.5 -65.5t-43.5 -66t-54.5 -63t-59.5 -57.5q-70 -63 -155 -123l1 -1q54 22 88.5 28t58.5 4.5
t42.5 -4.5t39.5 1q36 8 54 22.5t27 50.5q1 2 4 3.5t6 1.5t5 -2t1 -7q-4 -15 -10 -43.5t-16.5 -57.5t-27 -53.5t-41.5 -33.5z" />
    <glyph glyph-name="three" unicode="3" horiz-adv-x="413" 
d="M381 172q-11 -49 -36 -82t-57.5 -53.5t-68 -30t-67.5 -10t-56 5t-34 15.5q-13 13 -29 30.5t-25.5 45.5t-7 70t27.5 103v1q10 1 34.5 -1.5t49 -9t41.5 -15.5t14 -20q-1 -2 -9.5 -14.5t-21 -30t-26 -38t-24 -38t-15.5 -30.5t0 -15q11 -6 32 -8t44 8t43.5 36.5t31.5 78.5
q14 72 8.5 111.5t-27.5 44.5q-8 -1 -15 -1.5t-13 -0.5q-5 0 -7 3t-1 7.5t3.5 8t5.5 3.5q6 0 9 1q6 2 17 4h5q41 11 63.5 41.5t34.5 77.5q13 49 4.5 72.5t-27 29.5t-40.5 0.5t-37 -12.5q-7 -4 -2 -19.5t14.5 -33.5t19 -33.5t10.5 -18.5q3 -11 -14 -20.5t-41.5 -16t-49 -9.5
t-34.5 -1l-1 1q-15 37 -11 65.5t19 51.5t37 40.5t44 31.5q12 8 38.5 12t58 2t63.5 -12.5t55.5 -30.5t35 -52t1.5 -78q-6 -26 -20 -44t-33.5 -30.5t-43.5 -19.5t-49 -11q20 -9 37.5 -23t29.5 -33.5t15.5 -46t-3.5 -59.5z" />
    <glyph glyph-name="four" unicode="4" horiz-adv-x="363" 
d="M82 146q-6 0 -29 2t-45.5 7t-36.5 13t-4 19l19.5 19.5t45.5 47.5t74.5 84.5t105.5 132.5q31 40 50 65.5t29.5 40.5t14.5 21.5t5 7.5v1q16 3 25.5 -1.5t12.5 -24.5t0 -59.5t-12 -106.5l-24 -174q12 3 24 5.5t23 4.5q1 0 2 -14.5t-2 -32.5t-11 -33t-24 -16q-2 0 -8.5 -0.5
t-16.5 -0.5q-8 -46 -14.5 -86.5t-13.5 -71.5q0 -1 -12.5 -1t-31 2t-39.5 5.5t-38 8.5t-27 13t-7 18q2 5 16.5 32t36.5 75q-18 -1 -33.5 -1.5t-27.5 -0.5q-14 -1 -26 -1h-1zM276 454q2 9 4 17.5t4 16.5q-8 -15 -16.5 -31.5t-19.5 -36.5q-20 -35 -37.5 -67t-34 -61.5
t-33.5 -57.5t-36 -56l89 30q20 48 40 109.5t40 136.5z" />
    <glyph glyph-name="five" unicode="5" horiz-adv-x="391" 
d="M440 617q-3 -19 -10 -43t-23 -45t-42.5 -36t-66.5 -15q-9 0 -23.5 2t-31 6.5t-33.5 10.5t-30 12l-43 -161q14 6 30 10q14 4 29.5 7.5t31.5 5.5q41 4 74 -8t54.5 -38.5t29 -65t-3.5 -87.5t-36 -82t-57.5 -53.5t-68 -30t-67.5 -10t-56.5 5t-34.5 15.5q-13 13 -29 30.5
t-25.5 45.5t-7 70t27.5 103l1 1q10 1 34.5 -1.5t49 -9t41.5 -15.5t14 -20q-1 -2 -9.5 -14.5t-21 -30t-26 -38t-24 -38t-16 -30.5t-0.5 -15q11 -6 28.5 -7t38.5 9.5t43 36.5t42 76q13 32 19.5 62.5t5.5 54t-11.5 37t-31.5 12.5q-29 -3 -56.5 -13t-44.5 -18q-9 -5 -12.5 -3
t-3.5 4q0 3 8.5 33.5t20 70.5t23 79.5t17.5 60.5q3 13 6 26.5t8 24.5t12 18.5t16 7.5q2 0 12 -5.5t26 -12t36.5 -12.5t44.5 -7q25 0 45.5 4t36 10t25.5 11.5t14 7.5q3 3 1 -6z" />
    <glyph glyph-name="six" unicode="6" horiz-adv-x="395" 
d="M409 198q-18 -56 -52.5 -94t-75 -61t-81 -33t-69.5 -10q-35 0 -63 26.5t-44.5 70t-18 100t16.5 116.5q27 88 76.5 152.5t102.5 102.5t98.5 48t65.5 -12t25.5 -46t2.5 -42q-2 -8 -8.5 -10t-8.5 9q-2 16 -8.5 34.5t-21.5 26.5q-23 12 -45 -3.5t-43.5 -51t-41.5 -87.5
t-38 -114q25 30 57 48t63.5 23.5t59.5 -3t45 -32t20.5 -62.5t-14.5 -96zM166 277q-14 -49 -24 -94t-14 -79.5t0 -55t20 -20.5q17 0 32.5 14t28.5 37.5t24.5 54t21.5 64.5q15 55 18 93.5t-7.5 53.5t-33.5 2t-60 -62z" />
    <glyph glyph-name="seven" unicode="7" horiz-adv-x="355" 
d="M450 568q-64 -55 -104 -117t-67 -132.5t-48 -151t-46 -171.5q0 -1 -12.5 -1t-30.5 1.5t-38.5 5t-37.5 9t-27.5 13t-7.5 18.5q8 34 27 74.5t45.5 85t58.5 90t66.5 88.5t69 82t65.5 70v1q-46 -15 -77 -17t-53.5 1t-40 6.5t-38.5 -0.5q-37 -8 -55 -25t-13 -54q0 -3 -2 -5.5
t-5 -3.5t-5.5 0t-3.5 6q-2 16 -5 45t-1 60t12 57t35 35q29 10 56 7t53.5 -12t52.5 -20.5t53.5 -18.5t56 -6.5t60.5 16.5q4 2 7 -2.5t3.5 -11t0 -13.5t-3.5 -9z" />
    <glyph glyph-name="eight" unicode="8" horiz-adv-x="390" 
d="M334 177q10 -48 -2.5 -82t-38.5 -56t-60.5 -33.5t-69 -13t-63 5t-42.5 19.5q-13 13 -27.5 40.5t-16.5 66t16 87t71 103.5v1q6 1 17 -10t20 -26t12.5 -30.5t-5.5 -25.5q-26 -26 -44 -54.5t-28 -52.5t-12 -40.5t5 -20.5q7 -3 21 -6.5t30 -4t32 3t27.5 15t16.5 31t-2 51.5
q-5 22 -16.5 61t-24.5 82t-25 83.5t-17 64.5q-10 46 1 78t34.5 52.5t55.5 30.5t63.5 12.5t58.5 -2t42 -12.5q28 -17 43.5 -42t12.5 -58.5t-27.5 -75.5t-75.5 -93q-4 1 -11 15t-13 31t-9 31.5t1 17.5q38 24 56.5 46.5t23.5 41t0.5 31.5t-11.5 17q-11 6 -32.5 12t-41 1.5
t-30.5 -25.5t-1 -68q5 -23 17.5 -64t26 -86t25.5 -86.5t17 -63.5z" />
    <glyph glyph-name="nine" unicode="9" horiz-adv-x="388" 
d="M15 420q18 56 52.5 94t74.5 61.5t80.5 33.5t69.5 10q34 0 62.5 -26.5t45 -70.5t18 -100t-16.5 -116q-18 -58 -47 -106.5t-62.5 -86t-69.5 -63t-68 -38t-57.5 -12.5t-38.5 15q-19 21 -25 45.5t-3 42.5q2 8 8.5 10t8.5 -9q2 -16 8.5 -35t21.5 -27q21 -11 42 2t41 44.5
t39.5 78.5t36.5 103q-27 -22 -58.5 -33.5t-61.5 -12t-56 10.5t-41.5 34.5t-18 61t14.5 89.5zM168 420q-14 -50 -15 -86.5t9.5 -54t32 -13t51.5 37.5q0 1 0.5 1t0.5 1q15 54 28 105t18.5 91t2 64.5t-20.5 24.5t-32.5 -14t-28.5 -37.5t-24.5 -54.5t-21.5 -65z" />
    <glyph glyph-name="colon" unicode=":" horiz-adv-x="259" 
d="M270 256q-5 -14 -19.5 -24t-33 -15.5t-39.5 -6.5t-38 4q-16 4 -31 13.5t-25.5 22t-15 26.5t1.5 28q5 13 18.5 23t31.5 16t38.5 7t41.5 -4q14 -3 28.5 -12t25.5 -21.5t16 -27t0 -29.5zM191 22q-5 -14 -19.5 -24t-33 -15.5t-39.5 -6.5t-38 4q-16 4 -31 13.5t-25.5 22
t-15 26.5t1.5 28q5 13 18.5 23t31.5 16t38.5 7t41.5 -4q14 -3 28.5 -12t25.5 -21.5t16 -27t0 -29.5z" />
    <glyph glyph-name="semicolon" unicode=";" horiz-adv-x="259" 
d="M196 9q-11 -27 -43.5 -52t-66.5 -42q-14 -7 -24.5 -8t-17 0.5t-8.5 4.5t1 5q22 12 37 24t21 22t2 16.5t-19 8.5q-20 2 -37.5 10t-28 19.5t-13.5 25.5t6 28q6 11 20 19.5t31 13t36 5.5t36 -3q16 -5 31 -15t25.5 -23t14 -28.5t-2.5 -30.5zM270 256q-5 -14 -19.5 -24
t-33 -15.5t-39.5 -6.5t-38 4q-16 4 -31 13.5t-25.5 22t-15 26.5t1.5 28q5 13 18.5 23t31.5 16t38.5 7t41.5 -4q14 -3 28.5 -12t25.5 -21.5t16 -27t0 -29.5z" />
    <glyph glyph-name="less" unicode="&#x3c;" horiz-adv-x="319" 
d="M13 233q5 14 24 37t51.5 52.5t78.5 63.5t104 70l1 1q9 -5 16 -26t9.5 -46t0 -46.5t-11.5 -28.5q-2 -1 -17.5 -6.5t-39 -12.5t-52 -15.5t-56.5 -16.5t-52 -15.5t-39 -11.5q23 3 49 1.5t58 -12t71 -32t88 -59.5q0 -1 1 -1q-2 -11 -8.5 -30.5t-16.5 -38t-21 -30t-21 -5.5
q-2 1 -17.5 15.5t-38.5 35.5t-50 46t-50.5 47t-41 38t-21.5 20q-1 0 1 2q0 2 1 4z" />
    <glyph glyph-name="equal" unicode="=" horiz-adv-x="393" 
d="M370 345q-16 -19 -43.5 -37t-67 -32t-91.5 -21.5t-118 -4.5h-1q-5 9 -4.5 27.5t6 36.5t14 31.5t20.5 14.5q2 0 22.5 -0.5t51 -1.5t65 -2t66 -2.5t54 -2t27.5 -0.5q3 0 -1 -6zM346 195q-16 -19 -43.5 -37t-67 -32t-91.5 -21.5t-118 -4.5h-1q-5 9 -4 27.5t6 36.5t14 31.5
t21 14.5q2 0 22.5 -0.5t50.5 -1.5t65 -2t66 -2.5t53.5 -2t28.5 -0.5q4 0 -2 -6z" />
    <glyph glyph-name="greater" unicode="&#x3e;" horiz-adv-x="329" 
d="M306 233q-5 -14 -24 -38.5t-51.5 -56t-78.5 -67t-104 -71.5l-1 -1q-9 5 -16 26t-9.5 46t0 46.5t11.5 28.5q2 1 18 7t40 14t53.5 18t57.5 19.5t52 17.5t38 13q-24 -3 -50 -0.5t-58 14.5t-71.5 35t-89.5 62q0 1 -1 1q1 10 9.5 30t20 38.5t24.5 30t23 5.5q2 -1 17 -16.5
t37 -37.5t47.5 -48t48 -49.5t39 -40l20.5 -20.5q0 -2 -1 -2q0 -1 -0.5 -2t-0.5 -2z" />
    <glyph glyph-name="question" unicode="?" horiz-adv-x="391" 
d="M162 221q-3 -23 -4 -36.5t-2 -13.5q-14 0 -30.5 4.5t-31 13.5t-23 22.5t-6.5 31.5q3 28 19.5 54.5t39 54.5t49 60t50.5 71t43 86.5t27 106.5q4 32 0.5 52t-12.5 31t-21 15t-24.5 3.5t-24 -4.5t-18.5 -7q-5 -3 -4 -16t5.5 -31t11 -39t12.5 -39t10.5 -31t5.5 -15
q3 -11 -15.5 -21.5t-44.5 -19t-52 -13t-37 -2.5v1q-22 54 -16 96.5t25.5 75t45.5 55.5t44 37q11 8 37 12t58.5 2t66 -12.5t59 -30.5t38.5 -52t3 -78q-9 -41 -32 -79.5t-53 -75.5t-63.5 -72.5t-62 -69t-49 -65.5t-24.5 -62zM191 22q-5 -14 -19.5 -24t-33 -15.5t-39.5 -6.5
t-38 4q-16 4 -31 13.5t-25.5 22t-15 26.5t1.5 28q5 13 18.5 23t31.5 16t38.5 7t41.5 -4q14 -3 28.5 -12t25.5 -21.5t16 -27t0 -29.5z" />
    <glyph glyph-name="at" unicode="@" horiz-adv-x="846" 
d="M828 251q-26 -80 -69.5 -135t-91 -85.5t-90 -38t-66.5 9.5q-11 8 -18.5 27.5t-9.5 46t0.5 58t11.5 63.5q1 4 0.5 3.5t-1.5 -3.5q-9 -26 -21.5 -60t-29.5 -64.5t-39 -51.5t-49 -21q-31 0 -57.5 22.5t-43.5 59t-20.5 84t11.5 97.5q23 75 62 128.5t79.5 84t75.5 38t51 -9.5
q11 -13 20.5 -27.5t16.5 -28.5q17 -2 39 -6t40.5 -10t30.5 -13.5t9 -16.5q-1 -3 -13 -28t-27.5 -63.5t-31 -87t-23.5 -97.5q-8 -50 -3.5 -75t17.5 -28t31.5 12.5t39 46.5t40.5 74t35 95q14 49 21 103t5 106t-13 99.5t-33 84.5t-55.5 60t-79.5 26q-71 4 -142.5 -31t-134 -99
t-109 -152t-66.5 -189q-16 -82 -12 -156t24.5 -134t55.5 -103.5t82 -64.5t103.5 -17t119.5 39q3 2 7 0.5t5 -5.5t-2 -9.5t-14 -11.5q-71 -40 -139.5 -46.5t-127 14t-105 65.5t-75.5 107.5t-36.5 140t11.5 164.5q27 122 86.5 219.5t139 164.5t172 101t184.5 28
q57 -4 100.5 -27.5t73.5 -62t48 -88t23.5 -104.5t-0.5 -112t-23 -110zM525 446q-5 6 -10.5 11.5t-10.5 8.5q-15 8 -28.5 -6t-26.5 -43.5t-25 -69.5t-25 -84t-21.5 -81t-11.5 -64t0 -42t13 -15q17 0 36.5 41t48.5 140l57 189z" />
    <glyph glyph-name="A" unicode="A" horiz-adv-x="643" 
d="M54 -3q-28 -5 -37.5 1.5t-3 28.5t30 61t61.5 101q18 29 51.5 79.5t74 112t84.5 127.5l84 126t71.5 108.5t47.5 75.5q1 1 10 0t21 -5q12 1 39 -0.5t53 -6t43.5 -14t11.5 -25.5q0 -2 -7.5 -23t-18 -57t-22 -84.5t-20.5 -103.5q-13 -74 -22 -148t-14.5 -132.5t-5.5 -94
t5 -30.5q14 11 33.5 42t44.5 79q14 26 19 30t5 -10q0 -5 -3 -15t-12 -26q-23 -40 -46.5 -77.5t-48.5 -63.5q-28 -30 -56 -47t-46 -9q-14 6 -23 24t-14 44.5t-5.5 60t4.5 70.5q2 11 4 30t6 43q-42 -25 -109.5 -43t-158.5 -18q-12 -17 -22 -31.5t-17 -26.5q-32 -54 -50 -84.5
t-27.5 -45.5t-12 -19zM458 309q6 39 12.5 84.5t14 92.5l15 94t14.5 89q-23 -35 -52.5 -79.5t-64.5 -94.5q-68 -95 -132 -179z" />
    <glyph glyph-name="B" unicode="B" horiz-adv-x="460" 
d="M427 173q-18 -56 -60.5 -96t-94 -62.5t-105.5 -27.5t-95 10q-16 6 -34.5 20.5t-32.5 38.5t-19.5 57.5t5.5 75.5q6 25 16.5 62.5t23.5 82.5t27.5 94.5t28.5 98t26.5 93t22.5 80.5q-55 -43 -101 -98q-3 -4 -7 14t-7 42t-3.5 45.5t2.5 24.5q13 13 44 29t73 30t91.5 24
t98.5 10q38 0 80 -12.5t72.5 -39.5t43.5 -69t-6 -102q-14 -45 -42 -82.5t-63.5 -67.5t-76.5 -52.5t-82 -35.5q41 -7 78 -22t63 -38t36 -55t-3 -72zM273 173q12 40 10.5 68t-14.5 46.5t-37 27.5t-58 11q-19 -59 -30 -99.5t-18 -76.5q-5 -26 -10 -49.5t-7 -41.5t1.5 -29
t16.5 -12q23 -2 43.5 4.5t38.5 24.5t34 48.5t30 77.5zM307 782q-18 0 -40 -7t-47 -20q18 -3 35 -7t30.5 -9.5t21 -12.5t4.5 -16q-2 -6 -12 -31t-24.5 -63t-32 -87t-35.5 -103l-20 -60h2q31 5 57 25t47.5 50.5t38.5 71t31 85.5q16 54 18 89.5t-6.5 56.5t-26.5 29.5t-41 8.5z
" />
    <glyph glyph-name="C" unicode="C" horiz-adv-x="343" 
d="M379 466q-11 -2 -35 1t-48.5 9t-41.5 15.5t-14 20.5q1 2 12.5 20t27.5 44t34 56t32.5 56t22.5 44t3 21q-31 15 -56.5 3.5t-50 -50.5t-48.5 -106.5t-52 -163.5q-55 -189 -55.5 -283t41.5 -101q16 -3 41 7t53.5 31t56.5 52.5t49 72.5q14 26 18.5 30t4.5 -10q0 -5 -2.5 -15
t-11.5 -26q-22 -38 -50.5 -73t-60.5 -62t-67.5 -43t-70.5 -16q-38 0 -70 30.5t-49 87.5t-14.5 137.5t33.5 180.5q37 121 88 203t103 126t99.5 50t78.5 -25q13 -13 23.5 -42t13.5 -71t-5 -96t-33 -115z" />
    <glyph glyph-name="D" unicode="D" horiz-adv-x="499" 
d="M72 -3q-16 6 -34.5 20.5t-32.5 38.5t-19.5 57.5t5.5 75.5q6 25 16.5 62.5t23.5 82.5t27.5 94.5t28.5 98t26.5 93t22.5 80.5q-55 -43 -101 -98q-2 -3 -5.5 5t-7 21.5t-6.5 30t-5 31.5t-2.5 25.5t1.5 12.5q13 13 45.5 29t76.5 30t95 24t100 10q56 0 107 -26.5t83.5 -78.5
t39.5 -128t-24 -176q-38 -120 -99 -205t-128 -136.5t-130 -69.5t-104 -4zM307 782q-18 0 -40 -7t-47 -20q18 -3 35 -7t30.5 -9.5t21 -12.5t4.5 -16q-2 -6 -12 -31t-24.5 -63t-32 -87t-35.5 -103t-31 -94.5t-22.5 -72.5t-16 -58t-11.5 -51q-5 -26 -9 -49.5t-5 -41.5
t2.5 -29.5t12.5 -11.5q54 -2 118.5 98t123.5 296q56 187 38 278.5t-100 91.5z" />
    <glyph glyph-name="E" unicode="E" horiz-adv-x="356" 
d="M-21 270q15 50 43 83.5t62 55.5t69.5 33t66.5 16q-27 10 -53 26t-44.5 39t-25.5 54t3 70q10 40 32.5 70.5t51 51.5t61 32t62.5 13.5t55 -4t40 -20.5q16 -17 34 -38.5t28.5 -51t10 -67.5t-20.5 -87l-1 -1q-11 -2 -36.5 1t-51.5 9.5t-44.5 15.5t-15.5 20q0 2 8.5 14.5
t19.5 29.5t23.5 36.5t22.5 37t14.5 29.5t-0.5 15q-21 11 -41 8t-37.5 -16.5t-30.5 -37.5t-21 -55q-9 -36 -14 -67t-4.5 -54.5t9 -37t28.5 -13.5q17 0 32 -1t32 -1q1 0 2.5 -6t-1.5 -12.5t-11 -12.5t-24 -6h-13.5t-14.5 2q-40 -2 -78 -43.5t-63 -129.5q-14 -48 -19 -90
t-0.5 -73t19.5 -48.5t41 -17.5q21 0 48 12t55.5 34.5t56 55t48.5 72.5q14 26 19 30t5 -10q0 -5 -3 -15t-12 -26q-21 -38 -49 -74.5t-60.5 -65.5t-70 -47t-77.5 -18q-51 0 -90 21t-62 58.5t-27.5 89t14.5 112.5z" />
    <glyph glyph-name="F" unicode="F" horiz-adv-x="466" 
d="M515 393q-18 -20 -48.5 -38t-76.5 -30q-37 -105 -84.5 -177.5t-95.5 -111.5t-91.5 -44t-72.5 24q-13 13 -27 42t-20.5 71t-1.5 95.5t30 115.5v1q10 1 34.5 -1.5t49 -9t41.5 -16t14 -20.5q-1 -2 -11 -20t-24 -43.5t-29.5 -55.5t-27.5 -56t-18 -44.5t-1 -20.5
q28 -15 50 -14t42.5 28t43 84.5t52.5 155.5h-24t-24 1q-12 9 -13.5 25.5t4 32.5t17.5 28.5t27 13.5h13t29 -1q25 78 54 140t60.5 109.5t64 81.5t64.5 58q-23 5 -51.5 7.5t-66.5 2.5q-42 0 -80.5 -13t-72.5 -36.5t-62.5 -56t-49.5 -71.5q-17 -32 -26 -60.5t-9 -51t10.5 -38.5
t33.5 -22q8 -2 12.5 21t7 52.5t3.5 55.5t3 29q5 10 26.5 11.5t46.5 -3t47.5 -12.5t29.5 -16h-1q-18 -50 -42 -82.5t-50 -52t-52 -28t-50 -9.5q-30 -1 -63.5 14.5t-55.5 46.5t-24.5 76.5t29.5 103.5q27 49 78.5 84t111.5 57.5t122 33t112 10.5q45 0 78 -5.5t56 -14.5
q42 23 78.5 31.5t62.5 10.5q38 2 58 -11t26.5 -35t1 -49.5t-18.5 -54.5q-3 -6 -13 -8.5t-29.5 1.5t-49.5 15t-71 32l-28 14q-11 -6 -26 -25t-35.5 -61t-47 -111.5t-59.5 -175.5q38 -2 66.5 -2.5t34.5 -0.5q3 0 -1 -7z" />
    <glyph glyph-name="G" unicode="G" horiz-adv-x="438" 
d="M202 17l4 10l4 10q-16 -17 -34.5 -27t-41.5 -10q-28 0 -59 30.5t-50.5 87.5t-20.5 137.5t30 180.5q37 121 91 203t110 126t106.5 50t81.5 -25q13 -13 28.5 -42t24 -71t5 -95.5t-28.5 -114.5v-1q-11 -2 -37 1t-52 9t-44.5 15.5t-15.5 20.5q0 2 10 20t24 44t29.5 56
t27.5 56t18.5 44t1.5 21q-61 31 -111.5 -46.5t-105.5 -270.5q-27 -93 -38 -164t-11.5 -119t7 -73.5t19.5 -27.5q18 -4 33.5 11t29.5 46q14 38 23 64.5t14.5 47t8.5 36t6 30.5q1 5 1 9.5v7.5v7q10 1 35 -1.5t50 -9t43 -15.5t15 -20l-87 -248q-29 -83 -73 -140t-89.5 -88
t-85 -37t-58.5 14q-15 14 -28.5 35t-21 47.5t-7 57t14.5 63.5v1q10 1 34.5 -1.5t49 -9t41.5 -15.5t14 -20q-1 -3 -18 -21t-35 -38.5t-30.5 -38.5t-5.5 -22q35 -17 71.5 39t82.5 174z" />
    <glyph glyph-name="H" unicode="H" horiz-adv-x="504" 
d="M132 0q-26 -5 -52 -1t-43.5 23t-22 55.5t12.5 97.5l12 43h-16.5t-16.5 1h-1q-5 9 -4 22.5t6 26t14 21.5t21 10h6t13 -1q32 117 55 200t38.5 143t26.5 102.5t19 77.5q0 1 13 0.5t31.5 -2.5t40 -6t39 -10t27.5 -14.5t7 -18.5q-2 -5 -13 -33t-30.5 -84.5t-47 -144.5
t-62.5 -214l119 -4q15 57 33.5 122t36.5 123l24.5 80.5t19.5 65t17 62t17 71.5q0 1 13.5 1t32.5 -1t41 -4t39.5 -8.5t27.5 -14t5 -20.5q-1 -2 -10 -24.5t-23 -60t-31.5 -86t-35.5 -101.5q-18 -54 -35 -109t-32 -104.5t-25.5 -90t-14.5 -65.5q-5 -28 -5 -40t3.5 -13.5
t11.5 5.5t20 16q28 24 80 121q14 26 18.5 30t4.5 -10q0 -5 -3 -15t-11 -26q-23 -40 -47 -77.5t-48 -63.5q-14 -15 -30 -27t-31 -19.5t-28.5 -10.5t-22.5 1q-40 16 -47.5 69t11.5 130l14 58q-23 -11 -55.5 -18.5t-73.5 -12.5l-18 -70q-14 -53 -21 -83.5t-10 -46t-3.5 -19.5z
" />
    <glyph glyph-name="I" unicode="I" horiz-adv-x="403" 
d="M420 787q20 4 38 6.5t35 4.5q33 32 64 49.5t58 24.5q34 9 60 4t39.5 -19t14 -35t-16.5 -45q-1 -2 -9 -2t-19.5 0.5t-24.5 2t-24 3.5q-8 1 -18 1.5t-21 0.5q-12 -10 -28.5 -34.5t-38.5 -72t-49.5 -122t-61.5 -184.5q-37 -117 -86 -198.5t-100 -126.5t-97 -52.5t-77 23.5
q-12 13 -33 32.5t-36 50.5t-17.5 75t22.5 106l1 1q7 1 22 0t33.5 -3.5t38 -7t34.5 -10t24 -12.5t7 -14q-1 -2 -9 -15.5t-19 -32.5t-23.5 -41t-22 -41.5t-14 -33.5t0.5 -16q30 -16 53 -13.5t45.5 36t48 103.5t60.5 190q42 147 91 243t100 154q-14 -2 -28 -5.5t-29 -6.5
q-42 -9 -83 -27.5t-77 -45t-65 -61t-47 -74.5q-15 -33 -26 -62.5t-13 -53.5t6 -40.5t31 -22.5q7 -2 10 21t4 52.5t0.5 55.5t1.5 29q5 10 26.5 11.5t46.5 -3t47 -12.5t29 -16q-19 -50 -41.5 -82.5t-46.5 -52t-48.5 -28t-48.5 -9.5q-30 -1 -63 12t-55 41.5t-26 72t25 103.5
q24 51 75 88.5t112 64.5t124.5 44.5t113.5 26.5z" />
    <glyph glyph-name="J" unicode="J" horiz-adv-x="464" 
d="M465 370q-53 -189 -107 -326.5t-107.5 -216t-107 -95.5t-104.5 34q-14 14 -29 35t-24.5 47.5t-10.5 57t12 63.5l1 1q25 2 53 0t50.5 -8t36 -16t9.5 -22q-1 -3 -18 -21t-35 -38.5t-30.5 -38.5t-5.5 -22q37 -19 66 9t58.5 100.5t63.5 187t80 269.5q43 145 90.5 241.5
t94.5 154.5l-51 -11q-42 -9 -82.5 -27.5t-76.5 -45t-65 -61t-48 -74.5q-15 -33 -26 -62.5t-13 -53.5t6 -40.5t31 -22.5q8 -2 11 21t3.5 52.5t0 55.5t1.5 29q5 10 26.5 11.5t46.5 -3t47.5 -12.5t29.5 -16h-1q-18 -50 -40.5 -82.5t-46.5 -52t-48.5 -28t-48.5 -9.5
q-30 -1 -63.5 12t-55.5 41.5t-26 72t25 103.5q25 51 75.5 88.5t111.5 64.5t124.5 44.5t113.5 26.5q18 3 34.5 5.5t31.5 4.5q32 32 61.5 50t57.5 25q33 8 56 3t35.5 -19t14.5 -35t-8 -44q-1 -2 -7.5 -2.5t-16.5 0.5t-21.5 2.5t-21.5 3.5q-9 1 -20 1.5t-24 0.5
q-13 -11 -29.5 -36t-37.5 -72.5t-46.5 -121.5t-55.5 -183z" />
    <glyph glyph-name="K" unicode="K" horiz-adv-x="485" 
d="M358 189q18 -36 29.5 -58.5t19 -34t13 -13t12.5 3.5q17 14 41.5 47.5t50.5 81.5q14 26 18.5 29.5t4.5 -10.5q0 -4 -2.5 -14t-11.5 -26q-23 -41 -47 -78t-48 -63q-14 -15 -28 -29.5t-27 -25t-25 -16.5t-22 -4q-27 5 -56.5 56t-78.5 159q-8 17 -15 29t-18 20l-24 -90
q-14 -54 -21 -83.5t-10 -45.5q-4 -18 -3 -24q-26 -5 -52 -1t-43.5 23t-22 55.5t12.5 97.5q42 152 70.5 257.5t48 178.5t32 122t21.5 88q0 1 13 0.5t31.5 -2.5t40 -6t39 -10t27.5 -14.5t7 -18.5l-13 -32.5t-30.5 -84t-47 -144t-62.5 -213.5q44 16 85 60.5t77 112t66.5 155.5
t53.5 190q0 1 13 1t32 -1t41 -4t39.5 -8.5t27.5 -14t6 -20.5q-65 -199 -157.5 -323t-210.5 -166q28 -6 54 -25.5t49 -63.5z" />
    <glyph glyph-name="L" unicode="L" horiz-adv-x="469" 
d="M287 77q44 -22 78.5 -20.5t61.5 22.5t47 60.5t36 93.5q8 29 12 33.5t7 -9.5q1 -5 0 -15.5t-6 -27.5q-13 -38 -29 -76.5t-37 -72.5t-45.5 -60.5t-54.5 -41t-64.5 -14.5t-73.5 20q-29 14 -51.5 30t-39.5 31q-26 -23 -47.5 -33t-38.5 -12.5t-27.5 1.5t-13.5 10q-20 41 5 73
t79 43q7 17 18 43.5t25 65.5t31.5 92t39.5 123q37 121 87.5 203t103 126t100 50t78.5 -25q13 -13 30.5 -32.5t28.5 -50.5t9.5 -75.5t-26.5 -105.5v-1q-7 -1 -22 0t-33.5 4t-38 7t-34.5 9.5t-24 12t-7 14.5q1 2 10.5 15.5t23 33t28.5 41.5t27 41.5t18 33t1 16.5
q-30 15 -56.5 3.5t-52 -51t-52 -106.5t-56.5 -163q-37 -117 -74 -196t-72 -131q41 -8 91 -32z" />
    <glyph glyph-name="M" unicode="M" horiz-adv-x="684" 
d="M679 499q-12 -74 -21.5 -131t-16 -102t-11.5 -79t-9 -62q-5 -28 4 -28t32 20q6 6 12 13t13.5 18t16.5 27t22 40q14 26 18.5 30t4.5 -10q0 -5 -2.5 -15t-11.5 -26q-23 -40 -47 -77.5t-48 -63.5q-28 -30 -56 -47t-46 -9q-14 6 -23.5 24t-14.5 44.5t-5.5 60t4.5 70.5
q2 19 7 55t11.5 82.5t14.5 100t16 107.5q-31 -88 -68 -187t-76 -193q-30 -69 -41.5 -105t-13.5 -50q0 -3 -0.5 -5.5t-0.5 -4.5h-1q-5 -1 -26.5 -1.5t-44.5 3.5t-40.5 13.5t-14.5 29.5q2 16 6.5 51.5t11 83.5t15 105t17.5 117.5t18.5 120.5t18.5 113q-22 -47 -47.5 -104
t-53 -118.5t-55.5 -125t-53 -123.5q-24 -58 -37.5 -90.5t-19.5 -49.5q-8 -19 -9 -25q-27 -9 -38.5 -4.5t-8.5 26t20 63t47 107.5q40 88 83.5 180.5t83 177t71.5 154.5t49 113q1 2 10.5 3t17.5 -2q18 0 42 -2t45 -7.5t34 -14.5t10 -23q-20 -74 -36.5 -143.5t-31 -137
t-27 -134t-23.5 -135.5q36 84 67.5 171t58 165.5t47.5 144.5t38 108l2 7h1q0 3 7 1q13 1 40.5 -0.5t54 -6.5t44.5 -14.5t12 -25.5q-1 -2 -8.5 -23t-18 -57t-22 -84.5t-20.5 -103.5z" />
    <glyph glyph-name="N" unicode="N" horiz-adv-x="492" 
d="M41 0q-26 -5 -38 -1t-12.5 23t9 55.5t26.5 97.5q42 152 69.5 257.5t45.5 178.5t28.5 122t19.5 88q0 1 13 0t32 -3.5t40.5 -7t39.5 -10.5q16 -3 26 -10t10 -18q-1 -87 -0.5 -166.5t3 -156t7 -152.5t12.5 -156l4 24q15 94 31 189t31 182t28 160.5t23 124.5q0 1 16 0t39 -3
t49 -6.5t47 -10.5t33 -14t7 -17q-24 -44 -52 -97.5t-61 -131t-72 -184.5t-84 -258q-12 -42 -17.5 -71t-6.5 -29l-17 -3.5t-38 -3.5t-39.5 7t-21.5 28t-10.5 75t-16.5 125t-18.5 152.5t-18.5 157.5q-31 -68 -64 -161.5t-67 -222.5q-14 -53 -21 -83.5t-10 -46t-3.5 -19.5z" />
    <glyph glyph-name="O" unicode="O" horiz-adv-x="482" 
d="M506 371q-33 -105 -82.5 -176.5t-105 -114.5t-111 -61.5t-99.5 -18.5q-39 0 -68.5 38t-44.5 100t-13 140t26 158q33 106 82 178t103 115.5t108 61.5t96 17q29 -1 51 -14t34 -35t11.5 -52t-16.5 -64h-1q16 -18 29 -43t18.5 -58t2 -75.5t-19.5 -95.5zM349 371
q31 107 50.5 173t17.5 98q-18 2 -36.5 7t-32 12.5t-20 15.5t-0.5 16q11 16 24 31.5t19.5 27.5t2.5 18.5t-27 5.5q-31 -2 -55 -26t-45.5 -67.5t-41.5 -105.5t-43 -141q-26 -88 -42 -161.5t-18.5 -126t11 -82t46.5 -29.5q30 0 54.5 23t47 66t44 105t44.5 140z" />
    <glyph glyph-name="P" unicode="P" horiz-adv-x="376" 
d="M5 175q8 28 15.5 54.5t15.5 56t18.5 66.5t24 87t32 116t42.5 155q-51 -37 -93 -88q-3 -4 -10 11t-13.5 35t-10.5 38.5t-1 21.5q13 13 45.5 29t76.5 30t95 24t101 10q38 0 83 -14t79.5 -43t50 -72.5t-3.5 -103.5q-16 -48 -55 -92.5t-91.5 -81t-113 -64t-118.5 -40.5
q-5 -15 -7 -24.5t-5.5 -24t-9.5 -39t-18 -69.5q-14 -54 -21 -83.5t-10 -45.5q-4 -18 -3 -24q-26 -5 -50.5 -1t-40.5 23t-18.5 55.5t14.5 97.5zM322 782q-27 0 -61.5 -12t-71.5 -35q17 -2 39.5 -6t41 -10t30.5 -14.5t8 -19.5q-2 -6 -10.5 -27t-21.5 -54.5t-29.5 -78.5
t-34.5 -99l-26 -79q39 12 69 36.5t53.5 57t41 70.5t29.5 77q16 54 18 91t-7 60t-27 33t-41 10z" />
    <glyph glyph-name="Q" unicode="Q" horiz-adv-x="482" 
d="M506 371q-38 -121 -97 -197t-123 -117q2 -26 4 -50.5t3.5 -44t3 -32.5t2.5 -17q1 -1 -0.5 -1.5t-5.5 1.5q-45 24 -91 104q-26 -9 -49.5 -13t-44.5 -4q-39 0 -68.5 38t-44.5 100t-13 140t26 158q33 106 82 178t103 115.5t108 61.5t96 17q29 -1 51 -14t34 -35t11.5 -52
t-16.5 -64h-1q16 -18 29 -43t18.5 -58t2 -75.5t-19.5 -95.5zM273 234q0 -2 2 -22t4 -49q17 41 34 93t36 115q31 107 50.5 173t17.5 98q-18 2 -36.5 7t-32 12.5t-20 15.5t-0.5 16q11 16 24 31.5t19.5 27.5t2.5 18.5t-27 5.5q-31 -2 -55 -26t-45.5 -67.5t-41.5 -105.5
t-43 -141q-26 -88 -42 -161.5t-18.5 -126t11 -82t46.5 -29.5q15 0 29 6q-18 38 -33 84.5t-26 101.5v1q8 7 30.5 13t46.5 7.5t44 -2t23 -14.5z" />
    <glyph glyph-name="R" unicode="R" horiz-adv-x="465" 
d="M5 175q8 28 15.5 54.5t15.5 56t18.5 66.5t24 87t32 116t42.5 155q-51 -37 -93 -88q-3 -4 -10 11t-13.5 35t-10.5 38.5t-1 21.5q13 13 45.5 29t76.5 30t95 24t101 10q38 0 83 -14t79.5 -43t50 -72.5t-3.5 -103.5q-13 -41 -43.5 -77.5t-72 -67.5t-90.5 -56t-100 -42
q33 -13 64.5 -50t59.5 -113q10 -33 20 -50t18.5 -23.5t16 -5t12.5 5.5q9 7 17 15.5t16.5 21t18.5 29.5t23 41q14 26 18.5 29.5t4.5 -10.5q0 -4 -2.5 -14t-11.5 -26q-23 -41 -47 -78t-48 -63q-14 -15 -29.5 -28.5t-31 -22.5t-29 -13.5t-22.5 -1.5q-12 4 -24 17.5t-24.5 39.5
t-27.5 66t-33 96q-8 27 -16.5 49t-18.5 39q-3 -10 -5 -19t-5.5 -23.5t-9.5 -38t-16 -61.5q-14 -54 -21 -83.5t-10 -45.5q-4 -18 -3 -24q-26 -5 -50.5 -1t-40.5 23t-18.5 55.5t14.5 97.5zM322 782q-27 0 -61.5 -12t-71.5 -35q17 -2 39.5 -6t41 -10t30.5 -14.5t8 -19.5
q-2 -6 -10.5 -27t-21.5 -54.5t-29.5 -78.5t-34.5 -99l-24 -71h9.5t9.5 -1q34 14 60.5 39t47.5 56t37 67t27 72q16 54 18 91t-7 60t-27 33t-41 10z" />
    <glyph glyph-name="S" unicode="S" horiz-adv-x="369" 
d="M204 163q12 45 1.5 83.5t-31 74.5t-46.5 71.5t-46 74.5t-28.5 83t5.5 97q11 40 32.5 70.5t49 51.5t58.5 32t60 13.5t53 -4t39 -20.5q17 -17 36.5 -40t32 -54.5t13 -71t-19.5 -88.5v-1q-7 -1 -22 0.5t-33.5 5.5t-38 9.5t-34.5 12t-24 14t-7 14.5q0 2 8.5 14.5t19.5 29.5
t23.5 36.5t22.5 37t14.5 29.5t-0.5 15q-21 11 -42 9.5t-39 -13.5t-32 -34t-21 -53q-12 -51 -2.5 -92.5t29.5 -77.5t45.5 -70.5t45 -71.5t28 -80.5t-5.5 -97.5q-18 -68 -58.5 -110t-87 -60.5t-90 -15t-67.5 27.5q-17 17 -33.5 49.5t-26.5 75t-8.5 91.5t21.5 99l1 1
q10 1 36 -3.5t52.5 -12.5t45 -19t15.5 -22q-1 -2 -9.5 -18.5t-20.5 -40t-25.5 -51t-23.5 -51.5t-15 -41t0 -19q48 -24 88.5 3.5t61.5 107.5z" />
    <glyph glyph-name="T" unicode="T" horiz-adv-x="417" 
d="M-2 665q36 65 91 101.5t121 52t139 13t146 -16.5q47 49 94.5 79.5t92.5 45.5t85 16t73 -9q19 -6 27.5 -26t7.5 -46.5t-10.5 -57.5t-25 -59t-36 -50t-44.5 -31q-19 -8 -49 -5t-64 12t-68 21.5t-62 25.5q-26 -63 -51.5 -153.5t-60.5 -207.5q-36 -117 -85 -198.5
t-99.5 -126.5t-97 -52.5t-77.5 23.5q-13 13 -28.5 42t-24 71t-5 95.5t28.5 115.5q10 4 36 2t53 -8t46 -16.5t15 -23.5q-1 -2 -11 -20t-24 -43.5t-29.5 -55.5t-27.5 -56t-18.5 -44.5t-1.5 -20.5q30 -16 53 -13.5t45.5 36t48 103.5t60.5 190q37 130 84.5 225.5t101.5 164.5
q-100 32 -182 -0.5t-134 -129.5q-17 -32 -26 -60.5t-8.5 -51t11 -38.5t32.5 -22q8 -2 12.5 21t7.5 52.5t4 55.5t3 29q5 10 26.5 11.5t46.5 -3t47 -12.5t29 -16q-19 -50 -43 -82.5t-50 -52t-52 -28t-50 -9.5q-20 -1 -42.5 6t-43.5 21t-37.5 34.5t-23.5 47.5t-2.5 60t26.5 72z
M566 800q27 -7 64.5 -8t72.5 0.5t60.5 5t28.5 5.5q7 5 4.5 13.5t-11.5 17t-23.5 16t-32.5 11.5q-63 14 -104.5 -1t-70.5 -57z" />
    <glyph glyph-name="U" unicode="U" horiz-adv-x="447" 
d="M253 196q7 28 16 68.5t19.5 86t22.5 93.5t26 91l24.5 80.5t19.5 65t17 62t17 71.5q0 1 13.5 1t32.5 -1t41 -4t39.5 -8.5t27.5 -14t5 -20.5q-1 -2 -10 -24.5t-23 -60t-31.5 -86t-35.5 -101.5q-18 -54 -37 -109t-35.5 -104.5t-28.5 -90t-16 -65.5q-8 -45 3 -50t38 15
q14 11 33.5 43.5t45.5 80.5q14 26 18.5 30t4.5 -10q0 -5 -2.5 -15t-11.5 -26q-23 -40 -47 -77.5t-48 -63.5q-28 -30 -56 -47t-46 -9q-16 6 -27 27.5t-16 53.5q-34 -35 -70.5 -56.5t-72.5 -21.5q-43 0 -74 30.5t-44.5 87.5t-7.5 137.5t36 180.5q24 81 40 138t27.5 100t19 77
t13.5 70q0 1 13.5 0.5t33.5 -2.5t42.5 -6t41 -10t29.5 -14.5t8 -18.5q-12 -38 -25 -73t-27.5 -73.5t-30 -84t-32.5 -103.5q-27 -94 -40.5 -164.5t-15 -118.5t7 -73t25.5 -28q18 -4 45 10t56 43q-1 21 1 44t8 47z" />
    <glyph glyph-name="V" unicode="V" horiz-adv-x="472" 
d="M126 0q-33 1 -61 32t-42 87t-10.5 136.5t33.5 180.5q24 81 40.5 138t27.5 100t18.5 77t13.5 70q0 1 13 0.5t32 -2.5t40.5 -6t39 -10t27.5 -14.5t7 -18.5q-13 -38 -26 -73t-27.5 -73.5t-29.5 -84t-32 -103.5q-27 -94 -40.5 -165t-15 -119t7 -73t25.5 -27q18 -2 43.5 31
t53.5 88t57 127t53 148q23 72 36.5 124.5t21 95t10.5 79t5 76.5q0 1 13.5 0.5t33.5 -2.5t43.5 -6t43 -10t31 -14t9.5 -19q-7 -30 -12 -51t-9.5 -38t-9 -33t-10 -34.5t-13.5 -43t-19 -59.5q-23 -70 -57 -135.5t-73.5 -122.5t-81.5 -104t-81.5 -80.5t-73 -51.5t-55.5 -17z" />
    <glyph glyph-name="W" unicode="W" horiz-adv-x="702" 
d="M386 0q-33 1 -61 32t-42 88q-40 -52 -86.5 -86t-93.5 -34q-33 0 -61 30.5t-42 87.5t-10.5 137.5t33.5 180.5q24 81 40.5 138t27.5 100t18.5 77t13.5 70q0 1 13 0.5t32 -2.5t40.5 -6t39 -10t27.5 -14.5t7 -18.5q-13 -38 -26 -73t-27.5 -73.5t-29.5 -84t-32 -103.5
q-27 -94 -40 -163t-14 -115t8 -69.5t26 -26.5q23 -5 58.5 16t71.5 66q-9 56 -3.5 129t32.5 163q24 81 40.5 138t27.5 100t18.5 77t13.5 70q0 1 13 0.5t32 -2.5t40.5 -6t39 -10t27.5 -14.5t7 -18.5q-13 -38 -26 -73t-27.5 -73.5t-29.5 -84t-32 -103.5q-27 -94 -40 -163.5
t-14 -115.5t8 -69.5t26 -25.5q36 -4 81 73t91 231q30 98 45 165.5t22.5 118t10 90t7.5 81.5q0 1 15.5 0.5t38 -2.5t48.5 -6t48 -10t35 -14t11 -19q-15 -60 -43 -141.5t-65.5 -167.5t-83.5 -169.5t-96 -149t-103.5 -105t-105.5 -37.5z" />
    <glyph glyph-name="X" unicode="X" horiz-adv-x="504" 
d="M54 -3q-28 -5 -38 1t-3 27.5t30 60t61 100.5q10 16 23.5 38.5t29.5 51.5q-38 109 -72.5 246t-71.5 301q0 1 23.5 3t52.5 -0.5t54.5 -11t28.5 -27.5q19 -105 37 -191.5t38 -158.5q33 60 66.5 121t63.5 115.5t54.5 98t38.5 67.5q0 1 15 -1t36 -6.5t44.5 -11.5t42 -15.5
t27.5 -18t2 -19.5q-9 -13 -29 -39t-48.5 -61t-63 -77.5t-71 -87t-74 -90t-70.5 -87.5q29 -82 65 -143.5t85 -108.5q8 -10 19.5 -8t22.5 13q7 6 16.5 19t21 31t24 40.5t24.5 46.5q14 26 19 30t5 -10q0 -5 -3 -15t-12 -26q-11 -20 -23.5 -41t-25.5 -41t-26 -38t-25 -31
q-35 -44 -74.5 -59t-62.5 3q-43 31 -79 85.5t-67 130.5q-13 -17 -22.5 -31t-14.5 -22q-32 -54 -50.5 -84.5t-28 -45.5t-12.5 -19z" />
    <glyph glyph-name="Y" unicode="Y" horiz-adv-x="483" 
d="M328 770q-12 -38 -25 -73t-27.5 -73.5t-30 -84t-32.5 -103.5q-55 -188 -63 -283t25 -101q29 -6 58.5 29.5t57.5 108.5q20 61 39 125t36.5 126.5t32.5 120.5t27.5 107t21.5 86.5t14 58.5q0 1 13.5 1t32.5 -1t41 -4t39.5 -8.5t27.5 -14t5 -20.5q-1 -1 -12.5 -36.5
t-30.5 -95t-44 -136t-52.5 -159.5t-55.5 -166.5t-53 -156.5q-34 -99 -81 -159.5t-94.5 -89t-89.5 -27.5t-66 25q-14 14 -28.5 35t-23 47.5t-9 57t13.5 63.5v1q10 1 36 -1.5t52.5 -9t45 -15.5t15.5 -20q-1 -2 -9 -11t-20 -21.5t-25.5 -27t-23.5 -27t-15 -22t0 -11.5
q34 -17 82.5 39t96.5 174l22 59q-24 -35 -53 -55.5t-64 -20.5q-33 0 -58.5 30.5t-37 87.5t-5.5 137.5t36 180.5q24 81 40.5 138t27.5 100t18.5 77t13.5 70q0 1 13 0.5t31.5 -2.5t40 -6t39 -10t27.5 -14.5t7 -18.5z" />
    <glyph glyph-name="Z" unicode="Z" horiz-adv-x="507" 
d="M647 862q28 0 47.5 -12t28.5 -31.5t7 -44.5t-15 -52q-3 -6 -13 -8.5t-29.5 1.5t-49.5 15t-71 32l-5 2q-12 -11 -28.5 -33.5t-36 -61t-42.5 -95.5t-48 -138q-36 -116 -77 -194.5t-83 -129.5q40 -11 83 -30q42 -19 77 -24t64 11t53.5 55t44.5 109q8 29 14 33.5t9 -9.5
q1 -5 0 -15.5t-6 -27.5q-23 -72 -55 -126.5t-74.5 -86t-95.5 -36t-119 24.5q-24 11 -45 21t-38 20q-30 -20 -57 -28.5t-47 -9.5t-33 3t-16 10q-13 25 -9 48t22.5 40.5t50.5 26.5t75 8q21 37 50.5 109.5t67.5 197.5q45 146 101.5 233t117.5 132q-27 9 -62 13.5t-81 1.5
q-49 -3 -83 -18.5t-58 -39.5t-39.5 -55t-27.5 -66q-23 -68 -20 -109t50 -46q8 -1 8.5 23.5t-2 55.5t-5 57.5t-1.5 29.5q3 11 24 14.5t46.5 1.5t49 -7.5t31.5 -12.5v-1q-11 -52 -29 -87.5t-40.5 -58.5t-47.5 -35t-48 -17q-35 -6 -70.5 8t-61.5 42.5t-37 66.5t4 80
q17 46 57 82.5t93 63.5t113 43t117 20t98.5 -2.5t70.5 -17.5q34 17 67 24t64 7z" />
    <glyph glyph-name="bracketleft" unicode="[" horiz-adv-x="453" 
d="M471 777q3 -11 -1 -21t-22.5 -17.5t-55.5 -11t-100 -0.5q-11 -28 -31 -83t-46 -141t-57.5 -206.5t-65.5 -279.5q-8 -38 -15.5 -66t-15.5 -50q37 -6 76 -10.5t71 -7.5q38 -4 73 -6q3 -10 -15.5 -20.5t-53 -18t-82.5 -10.5t-104 0q-1 0 -1.5 0.5t-1.5 0.5q-9 0 -13 9
t-3.5 32.5t6.5 63.5t18 102q6 30 15.5 91.5t21 138t24 160.5t24 159.5t21 134.5t15.5 85q0 1 20 0.5t46 -3.5h6.5t8.5 -1q37 -6 78.5 -10.5t77 -7.5t59 -4.5z" />
    <glyph glyph-name="backslash" unicode="\" horiz-adv-x="243" 
d="M231 -155q-10 -6 -18 -4t-16.5 19.5t-18 54.5t-22.5 102q-6 30 -19.5 91t-30.5 137.5t-35.5 160.5t-34.5 159.5t-28.5 134t-16.5 85.5q0 1 25 6.5t56 7.5t56.5 -2t26.5 -20q0 -6 -5 -50.5t-5 -135.5t11 -233.5t45 -343.5q9 -54 14.5 -87.5t9.5 -51.5q4 -21 6 -30z" />
    <glyph glyph-name="bracketright" unicode="]" horiz-adv-x="452" 
d="M-3 -143q-3 10 1 20.5t22 18t55 11t100 0.5q12 28 31.5 82.5t46 141t57.5 207t66 279.5q8 38 15.5 66t15.5 50q-37 5 -76 10t-71 8q-38 4 -73 6q-3 10 15.5 20t53 17.5t82.5 11t104 0.5q1 0 1 -0.5t1 -0.5q9 0 13.5 -9t3.5 -32.5t-7 -63.5t-17 -102q-6 -30 -15.5 -91.5
t-21 -138t-24 -160.5t-24 -159.5t-21 -134.5t-15.5 -85q-1 -1 -21 -0.5t-46 3.5h-6t-8 1q-37 6 -79 10.5t-77 7.5t-58.5 4.5z" />
    <glyph glyph-name="asciicircum" unicode="^" horiz-adv-x="304" 
d="M40 347q-8 -2 -12 -0.5t-5.5 5t-1.5 6.5t2 4q15 8 40.5 26t54.5 40.5t57 47.5t47 48q6 7 19.5 -4t31.5 -35t39 -58t41 -73q0 -1 1 -1q-9 -15 -31.5 -24t-46 -12.5t-42 -1.5t-19.5 8q-5 26 -12 50.5t-23 48.5q-12 -8 -29.5 -18.5t-37 -22t-38.5 -21t-35 -13.5z" />
    <glyph glyph-name="grave" unicode="`" horiz-adv-x="833" 
d="M524 539q1 -1 1.5 -5t-1 -8t-6 -6.5t-11.5 -0.5q-17 5 -47 20t-61 32.5t-56 34t-32 25.5h-1q6 16 28.5 33.5t47.5 30t45.5 19t22.5 0.5q7 -19 13.5 -45.5t14.5 -52.5t18 -47t24 -30z" />
    <glyph glyph-name="a" unicode="a" horiz-adv-x="412" 
d="M238 197q-9 -26 -18 -60t-22.5 -64.5t-32.5 -51.5t-47 -21q-30 0 -57 22.5t-43.5 59t-20 84t11.5 97.5q23 75 62 128.5t79.5 84t75.5 38t50 -9.5q11 -13 21 -27.5t17 -28.5q17 -2 38.5 -6t40.5 -10t31 -13.5t9 -16.5q-1 -3 -13 -28t-27.5 -63.5t-31 -87t-23.5 -97.5
q-5 -28 -7.5 -44t-1.5 -22t6 -3.5t17 11.5q9 7 20 22t24 34.5t26.5 43t25.5 47.5q14 26 19 30t5 -10q0 -5 -3 -15t-12 -26q-23 -40 -46.5 -77.5t-48.5 -63.5q-56 -61 -92 -46q-13 6 -22.5 24t-14.5 44.5t-4 58t10 63.5q1 4 0.5 3.5t-1.5 -3.5zM284 431q2 6 3 9.5t2 5.5
q-5 6 -10.5 11.5t-10.5 8.5q-15 8 -29 -6t-26.5 -43.5t-25 -69.5t-24.5 -84q-13 -44 -21.5 -81t-11 -64t1.5 -42t18 -15q13 0 21 9.5t15.5 31.5t17 56t24.5 84q18 61 33 110t23 79z" />
    <glyph glyph-name="b" unicode="b" horiz-adv-x="409" 
d="M395 245q-16 -48 -41.5 -87.5t-57 -69.5t-66 -50.5t-67.5 -31.5t-62.5 -13t-50.5 6q-13 4 -26 18t-22 36.5t-11 54.5t8 73q7 29 21.5 79.5t32 112t37 127.5t37 126t31 108.5t19.5 75.5q0 1 13 0.5t31.5 -3t40 -6.5t39 -10t28 -14t7.5 -18q-2 -6 -14.5 -29t-30 -59.5
t-37.5 -83.5t-38 -100q-27 -83 -44 -158q13 32 29 64t33.5 57.5t35.5 41.5t36 16q24 0 49 -15t41.5 -46.5t19 -81.5t-20.5 -120zM274 437q-13 0 -30 -23t-35 -60t-36 -84.5t-33 -96.5l-6 -31q-5 -26 -10.5 -46t-8.5 -33.5t-1 -21t12 -7.5q27 0 54.5 50t61.5 161
q13 44 23 79.5t15 60.5t4 38.5t-10 13.5z" />
    <glyph glyph-name="c" unicode="c" horiz-adv-x="342" 
d="M317 249q-11 -2 -32 1t-41.5 9.5t-34.5 16t-11 20.5q1 2 10 14.5t22 30.5t27.5 39t25.5 39t16.5 31t0.5 16q-15 8 -33.5 -6.5t-37 -43.5t-35.5 -69t-29 -84q-13 -44 -20 -81.5t-7 -65t7.5 -44.5t23.5 -20q19 -3 45 7t53 31t53.5 52.5t47.5 72.5q14 26 19 30t5 -10
q0 -5 -3 -15t-12 -26q-22 -38 -49.5 -73t-59.5 -62t-67.5 -43t-71.5 -16q-34 0 -62.5 22.5t-46 59t-21 84t11.5 97.5q23 75 66 128t89 84t85.5 38t56.5 -9q13 -13 25.5 -31t17 -47t-1.5 -72t-31 -104z" />
    <glyph glyph-name="d" unicode="d" horiz-adv-x="408" 
d="M248 197q-9 -26 -20 -60t-26 -64.5t-35.5 -51.5t-48.5 -21q-30 0 -57 22.5t-43.5 59t-20 84t11.5 97.5q23 75 63.5 128.5t83 84t79 38t51.5 -9.5q5 -5 8.5 -10t7.5 -11l16 52q14 46 25 80.5t20 65t16.5 62t16.5 71.5q0 1 13.5 1t32.5 -1t41 -4t39.5 -8.5t27.5 -14
t5 -20.5q0 -2 -9 -24.5t-23.5 -60t-32 -86t-34.5 -101.5q-18 -54 -35.5 -109t-32 -104.5t-25.5 -90t-15 -65.5q-5 -21 -5.5 -32t2.5 -14t8.5 0.5t13.5 11.5q13 13 34.5 44t46.5 79q14 26 19 30t5 -10q0 -5 -3 -15t-12 -26q-23 -40 -46.5 -77.5t-48.5 -63.5q-56 -61 -92 -46
q-13 6 -21 24t-11 44.5t-0.5 58t11.5 63.5q1 4 0.5 3.5t-1.5 -3.5zM228 242q3 12 9.5 32.5t15 47.5t18.5 59.5t21 67.5q-8 7 -15 12q-15 8 -30.5 -5.5t-29.5 -41.5t-28 -67.5t-26 -83.5q-13 -44 -21.5 -81t-11 -64t1.5 -42t18 -15q13 0 21 9.5t15.5 31.5t17 56t24.5 84z" />
    <glyph glyph-name="e" unicode="e" horiz-adv-x="351" 
d="M395 400q-4 -23 -28.5 -53t-60.5 -62t-80.5 -65t-89.5 -63q-1 -45 12.5 -72.5t40.5 -32.5q16 -3 42.5 7t56 31t59 52.5t50.5 72.5q14 26 19 30t5 -10q0 -5 -3 -15t-12 -26q-22 -38 -52.5 -73t-65.5 -62t-73.5 -43t-75.5 -16q-41 0 -73 22.5t-51.5 59t-24 84t10.5 97.5
q23 75 66.5 128t89 84t85.5 38t57 -9q5 -5 21.5 -16t34 -25t30.5 -30.5t10 -32.5zM155 263q-10 -35 -15 -67q40 37 72.5 82.5t53.5 86t28 69.5t-4 35q-15 8 -33.5 -7t-36.5 -44.5t-35 -70t-30 -84.5z" />
    <glyph glyph-name="f" unicode="f" horiz-adv-x="292" 
d="M372 363q-24 -37 -64 -77.5t-91 -69.5q21 -28 36.5 -62t23.5 -70.5t7.5 -74.5t-9.5 -73q-14 -51 -48 -95.5t-75.5 -75.5t-84 -44t-73.5 -2q-23 7 -37.5 27.5t-20.5 51t-4 69.5t13 84q7 27 25 87.5t41 139.5q-21 7 -29 24.5t-4.5 37t18.5 35.5t40 21q2 0 5 0.5t6 0.5
q24 81 49 164t46.5 154.5t37 125.5t20.5 77q0 1 12.5 0t31.5 -3t40.5 -6t39 -10t27.5 -14t7 -18q-11 -33 -34.5 -92t-51.5 -129t-57 -143.5t-50 -136.5q10 -8 19.5 -16t17.5 -17q25 12 49 30t45 38.5t38.5 42t29.5 40.5q16 26 21 29t4 -11q0 -5 -3.5 -14.5t-13.5 -24.5z
M134 -76q6 27 10 60t6 67.5t0.5 68.5t-6.5 63q-2 0 -6 -2q-14 -44 -26 -84.5t-21.5 -74t-16 -59t-9.5 -40.5q-5 -26 -10 -55.5t-7.5 -55t0 -42.5t12.5 -17q8 0 17.5 13t19.5 36t19.5 54.5t17.5 67.5z" />
    <glyph glyph-name="g" unicode="g" horiz-adv-x="397" 
d="M190 17q23 52 35 87t17 55.5t5 29v8.5q-9 -26 -20.5 -60t-28 -64.5t-37.5 -51.5t-49 -21q-39 0 -66 22.5t-40.5 59t-13 84t15.5 97.5q24 76 62.5 130t78.5 85t74.5 37.5t51.5 -11.5q11 -13 21 -27.5t17 -28.5q17 -2 38.5 -6t40 -10t30.5 -13.5t9 -16.5q-1 -3 -9.5 -27
t-25.5 -71t-42.5 -118.5t-60.5 -168.5q-29 -82 -67 -137.5t-75.5 -85t-70.5 -34t-52 15.5q-14 14 -27 36.5t-20 50t-6.5 59.5t14.5 65l1 1q10 1 34.5 -1.5t48.5 -9t41 -16t14 -20.5q-1 -2 -9 -11.5t-19.5 -23t-24.5 -28.5t-23 -28.5t-15 -23.5t0 -12q34 -18 67.5 34.5
t85.5 168.5zM288 445q-12 15 -22 21q-15 8 -28.5 -6t-26.5 -43.5t-25 -69.5t-25 -84q-12 -44 -20 -81t-11 -64t0.5 -42t13.5 -15q13 0 22 9.5t17.5 31.5t18.5 56t25 84q18 61 33 110t23 79z" />
    <glyph glyph-name="h" unicode="h" 
d="M105 -3q-26 -5 -51 1.5t-41 28.5t-20 61t11 101q7 29 21.5 79.5t32 112t37 127.5t37 126t31 108.5t19.5 75.5q0 1 13 0.5t31.5 -3t40 -6.5t39 -10t28 -14t7.5 -18q-2 -6 -13 -29t-26.5 -59.5t-34 -83.5t-36.5 -100q-16 -47 -28.5 -91.5t-23.5 -85.5q19 43 39.5 79
t41.5 62.5t43 41.5t44 15q31 0 52 -15t28.5 -47t1.5 -81.5t-29 -119.5q-18 -57 -28.5 -93.5t-13 -55.5t2 -22t16.5 6q17 14 37.5 46.5t46.5 80.5q14 26 18.5 30t4.5 -10q0 -5 -2.5 -15t-11.5 -26q-23 -40 -47 -77.5t-48 -63.5q-56 -61 -92 -46q-12 5 -26 23t-22 48.5
t-7 74.5t19 100q16 54 29.5 89t21 55.5t7.5 29t-10 8.5q-18 0 -37 -22.5t-40 -68.5t-45 -116t-53 -166q-5 -23 -7.5 -35.5t-4.5 -19.5q-2 -8 -3 -10z" />
    <glyph glyph-name="i" unicode="i" horiz-adv-x="218" 
d="M21 242q18 61 33 110t23 79q2 5 2.5 8t1.5 5q1 3 2 4q10 1 35 -1.5t50 -9t43 -15.5t15 -20q-1 -3 -11.5 -28t-24 -63.5t-27.5 -87t-22 -97.5q-5 -29 0 -33t19 5q17 14 36.5 41.5t44.5 75.5q14 26 19 30t5 -10q0 -5 -3 -15t-12 -26q-23 -40 -46.5 -77.5t-48.5 -63.5
q-28 -30 -52.5 -45.5t-49.5 -10.5q-48 9 -56.5 71t24.5 174zM305 535q-5 -14 -19.5 -24t-33 -15.5t-39.5 -6.5t-38 4q-16 4 -31 13.5t-25.5 22t-15 26.5t1.5 28q5 13 18.5 23t31.5 16t38.5 7t41.5 -4q14 -3 28.5 -12t25.5 -21.5t16 -27t0 -29.5z" />
    <glyph glyph-name="j" unicode="j" horiz-adv-x="191" 
d="M-48 17q40 115 70 218.5t57 212.5q10 1 35 -1.5t50 -9t43 -15.5t15 -20q-1 -3 -12 -38t-29 -89t-41 -121.5t-47 -136.5q-30 -83 -69 -138.5t-78 -84.5t-73.5 -33.5t-53.5 15.5q-14 14 -28.5 36t-23 49t-9 58t13.5 64v1q10 1 33 -3.5t45.5 -12.5t38 -19t12.5 -22
q-1 -2 -7.5 -10.5t-16.5 -20.5t-20.5 -25.5t-18.5 -25t-11.5 -20.5t1.5 -11q17 -9 30.5 -1t27.5 33.5t29.5 68t36.5 102.5zM299 535q-5 -14 -19.5 -24t-33 -15.5t-39.5 -6.5t-38 4q-16 4 -31 13.5t-25.5 22t-15 26.5t1.5 28q5 13 18.5 23t31.5 16t38.5 7t41.5 -4
q14 -3 28.5 -12t25.5 -21.5t16 -27t0 -29.5z" />
    <glyph glyph-name="k" unicode="k" horiz-adv-x="434" 
d="M104 -3q-26 -5 -50.5 1.5t-40.5 28.5t-20 61t11 101q7 29 21.5 79.5t32 112t37 127.5t37 126t31 108.5t19.5 75.5q0 1 13 0.5t31.5 -3t40 -6.5t39 -10t27.5 -14t7 -18q-2 -6 -11 -29t-23 -59.5t-31 -83.5t-34 -100q-16 -48 -30.5 -93.5t-26.5 -87.5q44 106 91 155t112 49
q27 0 46.5 -14.5t29 -38t7.5 -54.5t-19 -64.5t-50.5 -67t-85.5 -61.5q-1 -1 1 -6q21 -42 32.5 -64.5t18.5 -32t12 -9t13 5.5q8 7 15 15t14.5 19.5t17 28t21.5 40.5q14 26 19 30t5 -10q0 -5 -3 -15t-12 -26q-23 -40 -46.5 -77.5t-47.5 -63.5q-28 -30 -52 -44t-42 -6
q-12 5 -20.5 18t-19 37t-25.5 61.5t-40 91.5q0 -1 7 4q6 5 19 16t39 34q43 38 65 72.5t28.5 60.5t0 41.5t-19.5 15.5q-37 0 -87 -101.5t-110 -297.5q-5 -20 -7.5 -32t-4.5 -18q-2 -7 -2 -9z" />
    <glyph glyph-name="l" unicode="l" horiz-adv-x="199" 
d="M-4 196q7 28 17.5 68.5t23 86t26 93.5t26.5 91q14 46 25 80.5t20 65t16.5 62t16.5 71.5q0 1 13.5 1t32.5 -1t41 -4t39.5 -8.5t27.5 -14t5 -20.5q0 -2 -9 -24.5t-23.5 -60t-32 -86t-34.5 -101.5q-18 -54 -35.5 -109t-32 -104.5t-25.5 -90t-15 -65.5q-5 -27 1 -31t23 7
q14 11 32 38t44 75q14 26 19 30t5 -10q0 -5 -3 -15t-12 -26q-23 -40 -47 -77.5t-48 -63.5q-29 -31 -57 -45.5t-45 -7.5q-15 6 -26 24t-16 44t-3.5 58.5t10.5 69.5z" />
    <glyph glyph-name="m" unicode="m" horiz-adv-x="644" 
d="M104 -3q-26 -5 -51 1.5t-41 28.5t-19.5 61t11.5 101q11 44 25 93t28.5 97.5t27.5 95.5t22 86q0 1 12.5 1t31 -2t39 -5.5t38 -9t27 -13.5t6.5 -18q-3 -8 -20.5 -46.5t-45.5 -122.5q35 75 74.5 123t86.5 48t64 -42.5t5 -117.5q15 35 32 64.5t35.5 50.5t39.5 33t44 12
q30 0 48 -18.5t23.5 -53t-1.5 -83t-26 -108.5q-19 -57 -29.5 -93.5t-13.5 -55t1.5 -21t16.5 6.5q36 30 85 125q14 26 19 30t5 -10q0 -5 -3 -15t-12 -26q-23 -40 -46.5 -77.5t-48.5 -63.5q-32 -35 -60.5 -50.5t-51.5 -5.5q-12 6 -23 24t-16 49.5t-0.5 77t23.5 105.5
q17 54 31.5 90.5t23 59t9.5 32.5t-9 10q-32 0 -74.5 -100t-103.5 -303q-4 -15 -5.5 -24t-2.5 -14t-2 -7q-36 -6 -61 11t-37 52t-10 84.5t21 108.5q17 54 31.5 90.5t23 59t9.5 32.5t-9 10q-32 0 -79 -98t-107 -297q-5 -18 -7 -29t-3 -16q-1 -6 -1 -8z" />
    <glyph glyph-name="n" unicode="n" 
d="M104 -3q-26 -5 -51 1.5t-41 28.5t-19.5 61t11.5 101q11 44 25 93t28.5 97.5t27.5 95.5t22 86q0 1 12.5 1t31 -2t39 -5.5t38 -9t27 -13.5t6.5 -18q-3 -8 -21.5 -48.5t-46.5 -128.5q17 39 35.5 72t37.5 56.5t39 37t41 13.5q30 0 49.5 -18.5t27 -53t2 -83t-24.5 -108.5
q-19 -57 -29.5 -94t-13.5 -56.5t1 -23t16 5.5q17 14 39 48t47 82q14 26 19 30t5 -10q0 -5 -3 -15t-12 -26q-23 -40 -46.5 -77.5t-48.5 -63.5q-11 -12 -24 -25t-27 -22t-29.5 -12.5t-31.5 3.5q-12 5 -22.5 24.5t-15 52t-0.5 78t22 101.5q17 54 32.5 90.5t25 59t10.5 32.5
t-11 10q-68 0 -188 -395q-5 -18 -7 -29t-3 -16q-1 -6 -1 -8z" />
    <glyph glyph-name="o" unicode="o" horiz-adv-x="441" 
d="M496 254q-10 -16 -37 -34t-62 -31q-25 -49 -59 -84.5t-71 -59t-72.5 -34.5t-63.5 -11q-33 0 -62 22.5t-48 59t-24 84t10 97.5q16 51 41 92t54.5 72t61 51t59 30t49.5 9t33 -13q5 -7 10.5 -14t10.5 -15q28 -3 52 -21t39 -47.5t18 -68.5t-12 -85q-3 -10 -6.5 -19.5
t-7.5 -18.5q26 11 47 26.5t31 33.5q14 26 19 30t5 -10q0 -5 -2.5 -15t-12.5 -26zM148 28q16 0 30 13t27 35t24.5 52t22.5 64q-18 15 -27 39.5t-11 53.5t3 59t15.5 56t26 45.5t35.5 26.5q-19 9 -37 -4.5t-34.5 -42.5t-32 -71t-29.5 -91q-13 -44 -22.5 -86t-12.5 -75t2 -53.5
t20 -20.5zM292 445q-10 0 -21 -24t-17.5 -57.5t-5 -70t15.5 -60.5l6 20q12 43 21.5 78.5t14 60.5t2 39t-15.5 14z" />
    <glyph glyph-name="p" unicode="p" horiz-adv-x="415" 
d="M242 526q-4 -15 -13 -33.5t-20.5 -41t-24 -50.5t-24.5 -61q-3 -6 1 -1q14 31 35.5 62.5t45 57t46.5 42t41 16.5q30 0 52 -23t31.5 -62.5t5 -93t-27.5 -114.5q-28 -75 -70.5 -124t-86 -74.5t-80 -28t-52.5 15.5q-6 6 -11 13l-10 14q-16 -59 -26 -106.5t-17 -88t-13 -75
t-13 -67.5q0 -1 -12.5 -1.5t-30.5 0t-38.5 3.5t-37 8t-25.5 13t-4 20q1 1 8.5 24.5t19.5 61.5t27.5 87.5t33.5 102.5q18 54 38 122.5t39 141t35.5 144t26.5 131.5q0 1 12 2t29.5 0.5t38 -2.5t37 -6t26.5 -11t8 -18zM130 207q-13 -38 -23 -71.5t-19 -64.5q5 -7 10.5 -12.5
t11.5 -8.5q16 -8 31.5 2t31.5 34.5t31.5 61t31.5 81.5q19 55 34.5 97.5t24 71t7.5 43.5t-14 15t-33.5 -20.5t-43 -55t-44 -79.5t-37.5 -94z" />
    <glyph glyph-name="q" unicode="q" horiz-adv-x="384" 
d="M174 2q24 50 37.5 85.5t20.5 57.5t8.5 32l1.5 10q-9 -26 -20.5 -58.5t-27 -61t-36.5 -48t-49 -19.5q-30 0 -57 22.5t-44 59t-20.5 84t11.5 97.5q23 75 63.5 128.5t83 84t79 38t52.5 -9.5q11 -12 20 -26.5t16 -28.5q17 -2 37 -6.5t37.5 -10.5t28 -14t7.5 -16
q-1 -3 -9 -26.5t-23.5 -70t-39.5 -118t-57 -170.5q-18 -55 -31.5 -97.5t-24 -79t-19 -70t-18.5 -71.5q0 -1 -12 -0.5t-29 2.5t-36.5 6t-35.5 10t-25.5 14t-6.5 19q6 18 18.5 45t28.5 60t34.5 70.5t36.5 76.5zM238 242q15 52 26 104t20 105h1q-5 5 -8.5 9t-8.5 6
q-15 8 -30.5 -6t-30 -43.5t-28 -69.5t-26.5 -84q-12 -44 -20.5 -81t-11.5 -64t1.5 -42t17.5 -15q26 0 47.5 41t50.5 140z" />
    <glyph glyph-name="r" unicode="r" horiz-adv-x="317" 
d="M30 202q37 66 56.5 128t26.5 115q-35 14 -61 31.5t-31 41.5q-3 13 9.5 23t33 17.5t44.5 13t45.5 8.5t35.5 4.5t14 0.5q2 -27 -8 -58.5t-21 -60.5l24 -9q35 -13 61 -21.5t40 -19.5t16.5 -29.5t-8.5 -51.5q-10 -30 -17.5 -53.5t-13.5 -47t-11.5 -49t-11.5 -60.5
q-8 -36 -4 -43.5t18 6.5q16 16 38 47.5t48 79.5q14 26 19 29.5t5 -10.5q0 -4 -3 -14t-12 -26q-23 -41 -47 -78t-48 -63q-35 -37 -64.5 -50.5t-47.5 -5.5q-14 6 -25.5 24.5t-16 49t-1 73.5t20.5 98q19 63 30.5 98t15.5 52.5t1.5 23t-12.5 9.5l-7 2q-21 -60 -53 -117t-56 -104
q-8 -16 -15 -24t-10 -10q-12 -8 -11.5 -2t14.5 32z" />
    <glyph glyph-name="s" unicode="s" horiz-adv-x="337" 
d="M317 216q0 -21 -5 -43q21 8 37 18.5t24 23.5q16 26 20 30t4 -10q0 -5 -2.5 -15t-12.5 -25q-10 -17 -30.5 -28t-46.5 -19q-19 -51 -59.5 -87.5t-85 -57t-83 -24.5t-53.5 11t-10.5 38t22.5 46.5t47 43.5t65 29q9 48 2 94t-21 88q-22 -34 -42.5 -64.5t-34.5 -57.5
q-8 -17 -15 -25t-10 -10q-12 -8 -11.5 -1.5t14.5 32.5q26 48 45 94t31 89q-22 48 -42 82.5t-23 50.5q-3 13 9.5 22t33 15.5t45 10.5t46 6t36 2.5t14.5 -0.5q3 -35 -7 -71.5t-28 -72.5q22 -24 44.5 -51.5t41 -55.5t30 -56t11.5 -52zM89 43q8 -9 14 -11.5t11.5 5t12 28
t16.5 58.5q0 2 0.5 3t0.5 3q-21 -6 -35 -18t-20.5 -24.5t-6.5 -24.5t7 -19z" />
    <glyph glyph-name="t" unicode="t" horiz-adv-x="216" 
d="M343 518q-19 -22 -44.5 -35.5t-72.5 -20.5q-17 -53 -33 -103t-28.5 -93.5t-22 -79.5t-13.5 -60q-5 -28 -3 -39.5t8.5 -12.5t15.5 6.5t20 17.5q14 13 34 41t45 76q14 26 19 30t5 -10q0 -5 -3 -15t-12 -26q-11 -20 -20.5 -35.5t-18 -29.5t-17.5 -27t-20 -27
q-43 -51 -84 -69.5t-64 -8.5q-14 6 -23.5 24t-13.5 45t-2 60.5t11 69.5q8 32 28 99t46 158q-11 0 -21.5 0.5t-21.5 0.5q-5 9 -4.5 21t6 23t14 18.5t20.5 8.5h28q15 54 30 112.5t30 120.5q0 1 13.5 1t32.5 -1t41 -4t39.5 -8.5t27.5 -14t5 -20.5q-2 -3 -23 -53.5t-50 -132.5
h97q3 0 -1 -7z" />
    <glyph glyph-name="u" unicode="u" horiz-adv-x="430" 
d="M113 523q42 7 69.5 -3.5t38 -41.5t1.5 -83.5t-39 -127.5q-21 -53 -39.5 -91.5t-29 -63t-11.5 -36t12 -11.5q35 0 81.5 91t102.5 266q8 26 14 46t10 31q2 5 2.5 8t1.5 5q1 3 1 4q10 1 35 -1.5t50 -9t43 -16t15 -20.5q-1 -2 -7.5 -19t-16.5 -44t-21.5 -62t-23 -72.5
t-21.5 -75t-15 -70.5q-6 -34 -2.5 -42.5t16.5 2.5q17 14 39 47.5t47 81.5q14 26 19 30t5 -10q0 -5 -3 -15t-12 -26q-23 -40 -46.5 -77.5t-48.5 -63.5q-23 -24 -40 -37t-30.5 -18.5t-23.5 -4.5t-18 4q-11 4 -20.5 17.5t-15.5 35t-7.5 50.5t3.5 66q-33 -72 -69.5 -117
t-75.5 -45q-30 0 -51.5 18t-30.5 51.5t-3 82.5t32 111q28 69 45 117.5t25 79.5q10 36 13 59z" />
    <glyph glyph-name="v" unicode="v" horiz-adv-x="428" 
d="M427 317q-12 -39 -38 -81q28 7 53 26.5t42 50.5q14 26 18.5 29.5t5.5 -10.5q0 -4 -3 -14.5t-12 -25.5q-20 -31 -53 -56.5t-73 -30.5q-30 -41 -67.5 -77t-77 -64t-77.5 -44t-69 -16t-52 20t-28 60t4 101t44 143q19 46 27.5 82.5t11.5 61t2.5 37.5l-0.5 13q32 7 59 -5
t43 -39t17.5 -65.5t-16.5 -84.5q-33 -83 -57 -140t-36 -92t-11.5 -50.5t14.5 -15.5q21 0 42 19.5t41.5 51t38.5 72.5t33 83q-21 30 -29 70.5t-1.5 79t27 69t56.5 41.5q29 9 56.5 -3.5t46.5 -40.5t25.5 -68.5t-7.5 -86.5zM294 482q-14 -4 -23 -22.5t-13 -44.5t-1.5 -55.5
t12.5 -54.5l4 12q12 40 21.5 72.5t13.5 54.5t1.5 32t-15.5 6z" />
    <glyph glyph-name="w" unicode="w" horiz-adv-x="607" 
d="M98 30q15 0 36.5 10.5t44.5 29.5q-12 24 -17 54t-5 60.5t5.5 60t15.5 53.5q13 32 36 57t49.5 42t51.5 26t42 9q22 0 31.5 -33t-8.5 -94q-17 -54 -51 -107t-78 -97q0 -32 10.5 -51.5t36.5 -19.5q21 0 39.5 19t35 49.5t31.5 70.5t29 82q-19 28 -24.5 69t3 81.5t29.5 72.5
t54 42q29 9 55.5 -3.5t43.5 -40.5t21.5 -68.5t-9.5 -86.5q-5 -17 -12.5 -34t-16.5 -34q28 8 51 24.5t36 39.5q14 26 18.5 29.5t4.5 -10.5q0 -4 -2.5 -14.5t-11.5 -25.5q-14 -22 -45.5 -44t-70.5 -32q-27 -42 -62.5 -80.5t-73.5 -67.5t-76 -46.5t-69 -17.5q-29 0 -50 12
t-35 33q-30 -21 -59.5 -33t-55.5 -12q-31 0 -54 20t-31.5 60t1 101t42.5 143q19 46 27.5 82.5t11.5 61t2.5 37.5l-0.5 13q32 7 59 -5t43 -39t17.5 -65.5t-16.5 -84.5q-33 -83 -55 -140t-32.5 -92t-8.5 -50.5t16 -15.5zM352 385q-8 0 -21.5 -20.5t-31.5 -66.5
q-14 -35 -26.5 -75.5t-17.5 -78.5q32 38 57 79.5t37 81.5q9 31 10 55.5t-7 24.5zM484 482q-14 -4 -24 -24t-15.5 -47t-5.5 -57t8 -55l6 18q12 40 23 72.5t17 54.5t5 32t-14 6z" />
    <glyph glyph-name="x" unicode="x" horiz-adv-x="470" 
d="M415 524q16 -16 32 -30t26.5 -34t13.5 -49.5t-8 -76.5v-1q-10 -3 -34.5 -2.5t-50 5t-44.5 12t-17 19.5q1 3 15 20.5t29 38t25 38.5t3 22q-4 2 -13.5 -7.5t-24 -28.5t-32 -45t-37.5 -57q6 -17 10.5 -35.5t8.5 -38.5q14 -78 23.5 -125.5t19.5 -70t21.5 -23.5t29.5 13
q9 7 20 22t24 34.5t26 43t26 47.5q14 26 18.5 30t4.5 -10q0 -5 -2.5 -15t-11.5 -26q-23 -40 -47 -77.5t-48 -63.5q-28 -30 -57.5 -46t-47.5 -8q-7 3 -23 14.5t-35.5 32.5t-40 51.5t-35.5 71.5q-24 -35 -45.5 -65t-39 -51.5t-30 -31.5t-18.5 -4q-13 13 -30 31t-27.5 47.5
t-8.5 72t27 103.5l1 1q10 1 34.5 -1.5t49 -9t41.5 -15.5t14 -20q-1 -2 -9.5 -15t-20 -31t-24.5 -39t-23 -39t-15 -31.5t0 -15.5q4 -2 14.5 9t25.5 31t33.5 48.5t39.5 60.5q-4 11 -5 20q-18 79 -29.5 128.5t-20.5 78t-17.5 40.5t-20.5 16q-14 5 -25 2t-12 -3q10 24 39.5 35.5
t66 2.5t74.5 -43.5t66 -101.5q23 34 44 62.5t38 49t29 29.5t17 4z" />
    <glyph glyph-name="y" unicode="y" horiz-adv-x="426" 
d="M108 523q31 6 59 -5t43 -41.5t12 -82t-34 -127.5q-21 -53 -39.5 -91.5t-29.5 -63t-12 -36t12 -11.5q38 0 89 105.5t113 307.5q3 13 6 21q1 5 2 8t2 5q1 3 1 4q10 1 35 -1.5t50 -8.5t43 -15.5t15 -20.5q-2 -5 -25 -71.5t-61 -179.5q-15 -45 -31.5 -96t-34.5 -108
q-27 -84 -66 -139t-79 -83.5t-75 -32.5t-54 16q-14 14 -27.5 35t-21 47.5t-7.5 57t14 63.5l1 1q10 1 33 -1.5t45 -9t37.5 -16t12.5 -20.5q-1 -3 -16 -20.5t-31 -38.5t-27 -39t-4 -21q17 -9 29.5 -0.5t26 34t29.5 68t39 101.5q14 34 26.5 72.5t25.5 77.5
q-34 -72 -70.5 -117.5t-75.5 -45.5q-30 0 -52 18t-30.5 51.5t-2.5 82.5t31 111q28 69 43 118t21.5 79.5t8 44.5z" />
    <glyph glyph-name="z" unicode="z" horiz-adv-x="324" 
d="M33 -40q14 9 26.5 16.5t24.5 15.5q4 31 -3 50.5t-20 30t-29.5 14t-31.5 3.5v1l2 2q2 3 16 15t52 46q79 70 114 124t43.5 90.5t-2.5 55t-24 18.5q-23 0 -37 -2.5t-22 -5.5q-10 -4 -14 -7q0 -40 -24 -101t-58 -130q-8 -17 -15 -25t-10 -10q-12 -8 -11.5 -1.5t14.5 32.5
q34 67 53 139.5t19 153.5q34 9 72 16q32 6 72 11.5t80 5.5q27 0 43 -18.5t19 -49.5t-7.5 -72t-37 -85.5t-69.5 -91t-104 -87.5q-9 -7 2 -7h14.5t18.5 -1.5t19.5 -6.5t16.5 -15q42 29 72 58.5t53 72.5q14 26 19 30t5 -10q0 -5 -3 -15t-12 -26q-23 -39 -52.5 -71t-72.5 -64
q4 -17 1 -43.5t-15 -64.5q-24 -75 -67.5 -128.5t-89.5 -84.5t-85.5 -38.5t-55.5 10.5q-36 40 -42 73.5t10.5 63.5t51.5 57.5t81 55.5zM-57 -253q15 -8 33 6.5t36 44t34.5 69.5t29.5 84q-2 -2 -4 -2.5t-4 -2.5q-57 -35 -91.5 -66t-49 -57.5t-10 -46t25.5 -29.5z" />
    <glyph glyph-name="braceleft" unicode="{" horiz-adv-x="493" 
d="M304 561q-10 -40 -28.5 -71.5t-42.5 -55.5t-51 -41t-53 -27q21 -6 39.5 -18.5t30 -35t13.5 -57t-11 -83.5q-15 -57 -22.5 -107t-1.5 -89.5t27.5 -66.5t64.5 -37q4 -1 5.5 -4.5t-0.5 -7t-8 -5.5t-18 1q-59 14 -103.5 41.5t-70.5 68t-31 92.5t14 114q14 46 17.5 78.5
t0.5 53.5t-11.5 31t-17.5 11h-2q-15 0 -19.5 5t-3.5 11t5 11t6 5q21 0 39 8t33.5 28t29 55t26.5 88q15 64 51.5 107.5t84.5 72.5t102.5 45.5t105.5 26.5q7 1 8 -3t-2 -10t-8 -11.5t-10 -6.5q-38 -7 -68.5 -26.5t-53.5 -48.5t-39.5 -65.5t-26.5 -76.5z" />
    <glyph glyph-name="bar" unicode="|" horiz-adv-x="258" 
d="M47 -152q-11 -2 -17.5 2.5t-8 24t3 57.5t16.5 103q5 30 14.5 91t21 137.5t24 160.5t24 159t21 134t15.5 85q0 1 12.5 1t31 -1t39.5 -4t38 -8t27 -12.5t7 -17.5q-2 -6 -22.5 -48t-53 -130t-74 -227.5t-84.5 -338.5q-12 -54 -18.5 -87t-10.5 -51q-4 -21 -6 -30z" />
    <glyph glyph-name="braceright" unicode="}" horiz-adv-x="493" 
d="M229 102q10 40 28.5 71.5t42.5 55.5t50.5 40.5t52.5 27.5q-20 6 -38.5 18.5t-30 35t-13.5 56.5t11 84q15 57 22.5 107t2 89.5t-27 66.5t-64.5 37q-4 1 -6 4.5t0 7t8 5.5t18 -1q60 -14 104.5 -41.5t70 -68t30.5 -92.5t-14 -114q-14 -46 -18 -78.5t-0.5 -53.5t11.5 -31
t18 -11h6q13 -1 16.5 -6t2.5 -11t-5 -10.5t-6 -4.5q-21 0 -39 -8t-33.5 -28.5t-29 -55t-26.5 -87.5q-15 -64 -51.5 -107.5t-84.5 -72.5t-102.5 -45.5t-105.5 -26.5q-7 -1 -8 3t2 10t8 11.5t10 6.5q38 7 68.5 26.5t53.5 48.5t39.5 65t26.5 77z" />
    <glyph glyph-name="asciitilde" unicode="~" horiz-adv-x="338" 
d="M370 365q-14 -34 -68.5 -33.5t-139.5 45.5q-49 26 -82 29t-48 -23q-5 -9 -10.5 -15t-8.5 -6t-2.5 7.5t6.5 24.5q7 19 17 39t20.5 36.5t21.5 27t20 12.5q13 2 28.5 -3t33.5 -14t39.5 -20.5t47.5 -22.5q52 -22 74.5 -19.5t9.5 29.5q-5 10 -6.5 17.5t0 10t7.5 -2t16 -19.5
q21 -32 26 -58t-2 -42z" />
    <glyph glyph-name="exclamdown" unicode="&#xa1;" horiz-adv-x="321" 
d="M228 425q11 1 16 -3t6 -14t-1.5 -25t-6.5 -35q-4 -24 -10 -68t-13 -98t-14.5 -113t-15 -114t-14.5 -100.5t-13 -71.5q-1 -3 -16 -3.5t-37 2t-47 7.5t-45.5 12t-33.5 15t-10 18q1 3 12.5 29.5t29.5 68.5t40.5 95t46.5 108q55 128 126 290zM171 579q5 13 19.5 23.5t33 16
t39.5 6.5t38 -4q16 -5 31 -14t25.5 -21.5t15 -26.5t-1.5 -28q-5 -13 -18.5 -23t-31.5 -16t-38.5 -7t-41.5 4q-14 3 -28.5 12t-25.5 21.5t-16 27t0 29.5z" />
    <glyph glyph-name="cent" unicode="&#xa2;" horiz-adv-x="344" 
d="M362 254q-11 -2 -35 1t-48.5 9.5t-41.5 16t-14 20.5q1 2 8 14.5t17.5 30.5t21.5 39t19 39t12 31t-1 16q-15 8 -35 -7t-40.5 -45t-39 -71t-30.5 -85q-13 -44 -21.5 -81.5t-10.5 -65t4 -44.5t22 -20q17 -3 39.5 2t46 20t46.5 40t42 61q14 26 19 30t5 -10q0 -5 -3 -15
t-12 -26q-27 -48 -66 -84.5t-84 -54.5q-9 -41 -15.5 -65.5t-11.5 -38.5q-5 -17 -9 -24q-9 -2 -19 1t-17.5 15t-11.5 35t0 62q-32 4 -56.5 27.5t-38.5 60t-15.5 82t13.5 93.5q13 43 34 79.5t46.5 65.5t53 50.5t54.5 35.5q5 44 4 79.5t4 58.5q0 1 12 1t29 -1t36.5 -4t35.5 -8
t25 -12.5t6 -17.5q-2 -5 -15 -22t-27 -53q3 -2 5 -3t4 -3q13 -13 32.5 -31t32.5 -47t14 -72t-24 -104z" />
    <glyph glyph-name="sterling" unicode="&#xa3;" horiz-adv-x="599" 
d="M287 77q44 -22 78.5 -20.5t61.5 22.5t47 60.5t36 93.5q8 29 12 33.5t7 -9.5q1 -5 0 -15.5t-6 -27.5q-13 -38 -29 -76.5t-37 -72.5t-45.5 -60.5t-54.5 -41t-64.5 -14.5t-73.5 20q-29 14 -51.5 30t-39.5 31q-26 -23 -47.5 -33t-38.5 -12.5t-27.5 1.5t-13.5 10q-20 41 5 73
t79 43q8 17 19 44t25 67h-15.5t-15.5 1h-1q-5 9 -4 24t6 29.5t14 25t21 11.5h8t18 -1q9 27 18.5 57.5t20.5 65.5q37 121 87.5 203t103 126t100 50t78.5 -25q13 -13 30.5 -32.5t28.5 -50.5t9.5 -75.5t-26.5 -105.5v-1q-7 -1 -22 0t-33.5 4t-38 7t-34.5 9.5t-24 12t-7 14.5
q1 2 10.5 15.5t23 33t28.5 41.5t27 41.5t18 33t1 16.5q-30 15 -56.5 3.5t-52 -51t-52 -106.5t-56.5 -163q-11 -35 -23 -67t-23 -61q45 -2 80.5 -2.5t43.5 -0.5q4 0 -2 -7q-20 -23 -58 -40.5t-96 -26.5q-17 -38 -34 -67.5t-34 -54.5q41 -8 91 -32z" />
    <glyph glyph-name="currency" unicode="&#xa4;" horiz-adv-x="339" 
d="M308 256q4 -28 -7 -55t-32 -48l35 -35l-21 -22l-37 38q-27 -18 -61 -24q-26 -4 -50 -0.5t-44 13.5l-27 -27l-21 22l22 23q-14 12 -23 28t-11 36q-4 29 7 55.5t34 46.5l-29 29l21 22l32 -32q24 16 59 22q29 5 55 0t46 -16l27 26l21 -22l-23 -23q23 -24 27 -57zM181 137
q20 4 36.5 14t28.5 25t17.5 33t3.5 37q-5 38 -36 60t-72 14q-20 -3 -36.5 -13.5t-28.5 -25t-17.5 -32.5t-3.5 -37q5 -38 36 -60t72 -15z" />
    <glyph glyph-name="yen" unicode="&#xa5;" horiz-adv-x="546" 
d="M593 767q0 -2 -15.5 -37.5t-40.5 -99t-58 -150.5t-69 -191q20 -1 33.5 -1h17.5q3 0 -1 -5q-18 -21 -65 -35q-5 -14 -11 -26l-12 -24q20 -1 33 -1h17t-1 -5q-20 -24 -75 -38q-36 -52 -79.5 -86.5t-84.5 -52t-74 -18.5t-49 15q-14 15 -32 37.5t-31.5 51t-18 60t9.5 64.5
q0 1 1 1q10 1 33 -3t45 -12t37.5 -19t12.5 -22q-1 -3 -9.5 -21t-17.5 -38.5t-13.5 -38.5t2.5 -22q23 -12 54 11.5t64 77.5h-27t-27 1h-1q-4 7 -3 18t5 21t11 17.5t16 7.5q2 0 18.5 -0.5t41.5 -1.5q4 7 7 14t6 15h-30t-32 1h-1q-4 7 -3 18t5 21t11 17t16 8q2 0 18.5 -0.5
t41.5 -1.5q12 30 23 59t21 58q-26 -42 -56.5 -66t-69.5 -24q-41 0 -68.5 20.5t-41.5 53.5t-15 74t11 81q12 38 19.5 70t14 62.5t12 64t13.5 74.5q0 1 13.5 0.5t33.5 -2.5t42.5 -6t41.5 -10t30 -14.5t8 -18.5q-15 -43 -25.5 -74t-19 -56t-15.5 -46.5t-14 -43.5
q-11 -35 -21 -65.5t-13.5 -53.5t3.5 -38.5t32 -19.5q15 -3 33.5 13t37.5 44.5t37.5 66.5t33.5 81q24 75 39.5 134.5t24.5 101.5q0 1 13.5 1t32.5 -1t41 -4t39.5 -8.5t27.5 -14t5 -20.5z" />
    <glyph glyph-name="brokenbar" unicode="&#xa6;" horiz-adv-x="368" 
d="M76 -172q-11 -2 -15.5 1t-4 20t4.5 53.5t11 102.5q5 46 6 81.5t2 66.5t2.5 61t7.5 66q0 1 22 1t46.5 -4.5t43.5 -13.5t13 -25q-5 -15 -16 -44t-24 -65t-27.5 -77t-28 -81.5t-25 -77.5t-18.5 -65zM191 345q-11 -2 -16 -1t-6 16.5t1.5 50.5t6.5 101q3 48 4 85t2.5 69.5
t3.5 63.5t8 67q0 1 12.5 1t31 -1t40 -4t38.5 -8t27 -12.5t6 -17.5q-5 -15 -17.5 -44t-27.5 -65t-32.5 -77t-33 -81.5t-28.5 -77.5t-20 -65z" />
    <glyph glyph-name="section" unicode="&#xa7;" horiz-adv-x="413" 
d="M326 96q-7 -7 -12 -11.5t-9 -7.5q16 -45 9.5 -81.5t-27 -64.5t-50.5 -46.5t-61.5 -27.5t-60 -7.5t-45.5 14.5q-20 15 -37.5 37.5t-27.5 49.5t-11 57.5t11 60.5v1q10 1 34.5 -2t49 -9t41.5 -15.5t14 -20.5q-1 -3 -14 -21t-26.5 -39t-22.5 -39t-2 -22q35 -18 60 -16
t38.5 18t17 44t-4 62.5t-26.5 72.5t-48 75q-44 55 -60.5 95t-12 73.5t27 64.5t56.5 67q6 7 11 11.5t9 7.5q-16 45 -9 83t28 66.5t52 48t62 28t59 5.5t43 -18q16 -16 32.5 -37t28 -46.5t14.5 -53.5t-9 -57v-1q-11 -2 -35 1t-48.5 9.5t-41.5 15.5t-14 20q1 3 14 19.5t26.5 36
t22.5 36t2 20.5q-41 21 -67.5 19.5t-39.5 -19t-14 -47.5t8.5 -65.5t29 -73.5t46.5 -71q48 -60 63.5 -102.5t9 -76t-30 -62t-53.5 -59.5zM260 158q26 -35 39 -64q5 10 14 22q12 17 19 30.5t6.5 27.5t-8.5 31.5t-25.5 43t-45 61t-66.5 86.5q-26 34 -39 64q-2 -5 -5.5 -10.5
t-8.5 -11.5q-13 -17 -19.5 -30.5t-6 -27.5t9 -31.5t26 -43t45 -61.5t65.5 -86z" />
    <glyph glyph-name="dieresis" unicode="&#xa8;" horiz-adv-x="299" 
d="M164 581q-5 -14 -19.5 -24t-33 -15.5t-39.5 -6.5t-38 4q-16 4 -31 13.5t-25.5 22t-15 26.5t1.5 28q5 13 18.5 23t31.5 16t38.5 7t41.5 -4q14 -3 28.5 -12t25.5 -21.5t16 -27t0 -29.5zM384 581q-5 -14 -19.5 -24t-33 -15.5t-39.5 -6.5t-38 4q-16 4 -31 13.5t-25.5 22
t-15 26.5t1.5 28q5 13 18.5 23t31.5 16t38.5 7t41.5 -4q14 -3 28.5 -12t25.5 -21.5t16 -27t0 -29.5z" />
    <glyph glyph-name="copyright" unicode="&#xa9;" horiz-adv-x="439" 
d="M221 374q35 0 66 -13.5t53.5 -37t35.5 -54.5t13 -67t-13 -68t-36 -55.5t-53.5 -37t-66.5 -13.5t-67 13.5t-54 37t-36 55.5t-13 68t13 67t36 54.5t54 37t67 13.5h1zM220 351q-30 0 -56 -11.5t-45 -32t-30 -48t-11 -59.5q0 -31 11 -58t30 -47t45 -32t56 -12t55.5 11.5
t44.5 32t30 48t11 59.5q0 31 -11 58t-30 47.5t-44.5 32t-55.5 11.5zM282 269q-7 3 -19.5 6t-29.5 3q-39 0 -58 -22t-19 -56q0 -33 19.5 -56t58.5 -23q14 0 27.5 3t23.5 8q1 0 2.5 -3t3 -7t2 -7.5l0.5 -3.5q-14 -8 -31 -11t-34 -3q-49 0 -75 29.5t-26 71.5q0 24 8.5 43.5
t23 33t34 21t40.5 7.5q17 0 32 -3.5t24 -7.5q1 -1 0.5 -4.5t-2 -8t-3 -7.5t-2.5 -3z" />
    <glyph glyph-name="guillemotleft" unicode="&#xab;" horiz-adv-x="337" 
d="M322 129q2 -8 0.5 -15.5t-4.5 -12.5t-6.5 -8t-4.5 -1q-16 29 -56 65t-86 74q-6 5 -7 11t4 16t16 24.5t29 37.5q13 16 26.5 35t25.5 36t21.5 30t14.5 19l1 1q17 -3 30 -18t20 -32.5t8.5 -33t-3.5 -18.5q-11 -7 -26.5 -15t-33 -16.5t-34 -17t-28.5 -16.5q8 -12 22 -30.5
t28.5 -38.5t26.5 -40t16 -36zM183 129q2 -8 0.5 -15.5t-5 -12.5t-6.5 -8t-4 -1q-17 29 -56.5 65t-85.5 74q-13 9 -7 22t19 36q9 16 24 41t31.5 49.5t30.5 44t20 24.5l1 1q16 -6 30 -22.5t23 -34t11.5 -32t-3.5 -16.5q-12 -5 -28.5 -13.5t-34 -20t-34.5 -26t-29 -30.5
q9 -10 24.5 -25t31.5 -32t29 -34.5t18 -33.5z" />
    <glyph glyph-name="logicalnot" unicode="&#xac;" horiz-adv-x="575" 
d="M509 87q-14 9 -26.5 23t-21.5 36.5t-14 54.5t-4 78q-28 -16 -71.5 -31.5t-95 -26.5t-108.5 -17t-112 -4h-1q-5 9 -4 29t6 40t14 35t21 16q2 0 24 -0.5t55.5 -1t74.5 -1.5t80.5 -2.5t73.5 -2.5t55 -1q12 2 28.5 0t32 -7.5t26.5 -13.5t12 -18q0 -2 -2.5 -15.5t-7 -32.5
t-9.5 -41t-9.5 -42t-7.5 -35.5t-3 -20.5q0 -2 -6 2z" />
    <glyph glyph-name="uni00AD" unicode="&#xad;" horiz-adv-x="439" 
d="M416 265q-32 -38 -109 -54t-211 -11h-1q-5 9 -5.5 25.5t2.5 33t10.5 28.5t19.5 13q2 0 23.5 -2t52.5 -5t67 -7t68.5 -7.5t55.5 -5.5t29 -2q4 0 -2 -6z" />
    <glyph glyph-name="registered" unicode="&#xae;" horiz-adv-x="289" 
d="M145 394q20 0 37 -7t30 -19.5t20 -29.5t7 -36q0 -39 -27 -65.5t-67 -26.5t-67.5 26.5t-27.5 65.5q0 19 7.5 36t20 29.5t30 19.5t37.5 7zM144 375q-30 0 -50.5 -21.5t-20.5 -51.5q0 -31 20.5 -52t51.5 -21q30 -1 50 20.5t20 52.5q0 30 -20 51.5t-50 21.5h-1zM130 254h-21
v92q6 1 15 2t20 1q17 0 29 -6.5t12 -20.5q0 -15 -19 -22v-1q13 -4 17 -22q2 -11 3 -16t3 -7h-23q-2 3 -3.5 8.5t-3.5 13.5q-3 15 -19 15h-10v-37zM131 306h10q8 0 14.5 3t6.5 10q0 14 -20 14q-9 0 -11 -1v-26z" />
    <glyph glyph-name="macron" unicode="&#xaf;" horiz-adv-x="329" 
d="M346 641q-16 -19 -43 -38.5t-66.5 -35.5t-92 -25t-118.5 -6h-1q-5 9 -4 30.5t6 43t14 38.5t21 18q2 0 22.5 -1t50.5 -3.5t65 -5t66 -4.5t53.5 -3.5t28.5 -1.5q4 0 -2 -6z" />
    <glyph glyph-name="degree" unicode="&#xb0;" horiz-adv-x="187" 
d="M148 674q21 -3 40.5 -15t33.5 -27t19 -31t-2 -27q-8 -11 -20.5 -21.5t-30.5 -17.5t-41 -10t-51 1q-26 3 -46 15t-32 27t-16 30.5t4 26.5q7 11 22 21.5t34 17.5t41.5 10t44.5 0zM146 569q11 15 11 33.5t-8 33.5t-24 12.5t-27 -17.5t-11 -34t8 -34q9 -15 24.5 -12t26.5 18z
" />
    <glyph glyph-name="plusminus" unicode="&#xb1;" horiz-adv-x="329" 
d="M337 77q-16 -19 -43 -38.5t-66.5 -35.5t-92 -25t-118.5 -6h-1q-5 9 -4 29t6 40t14 35t21 16q2 0 22.5 -0.5t50.5 -1.5t65 -2t66 -2.5t53.5 -2t28.5 -0.5q4 0 -2 -6zM153 107q-11 17 -19.5 40.5t-12.5 55.5q-22 -2 -46.5 -3.5t-50.5 0.5h-1q-5 9 -4 29t6 40t14 35t21 16
q2 0 20 -0.5t45 -1.5q8 58 28 125v1q10 2 29.5 -2t38 -12.5t31.5 -19.5t10 -22l-27 -74q41 -2 72.5 -2.5t38.5 -0.5q4 0 -2 -6q-20 -23 -55 -46.5t-89 -39.5q-16 -42 -27.5 -75t-13.5 -40q-3 -3 -6 3z" />
    <glyph glyph-name="uni00B2" unicode="&#xb2;" horiz-adv-x="383" 
d="M312 173q-29 -10 -53.5 -8t-47.5 9.5t-45 17.5t-46 15.5t-50.5 4t-57.5 -17.5q-5 -2 -7.5 2.5t-3 11.5t0 13.5t3.5 9.5q58 58 101.5 117.5t75 116.5t52 109t31.5 96q8 31 5.5 51t-11 31t-22 15t-27 3.5t-26 -4t-19.5 -6.5q-5 -3 -4 -16t5.5 -31t11 -39t13 -39t11 -30.5
t5.5 -14.5q3 -11 -14 -20.5t-41.5 -16t-49 -9.5t-34.5 -1l-1 1q-22 54 -17.5 95t22 71.5t42 52t42.5 35.5q11 8 37 12t58.5 2t66.5 -12.5t59.5 -30.5t38 -52t2.5 -78q-7 -32 -25.5 -65.5t-43.5 -66t-54.5 -63t-59.5 -57.5q-70 -63 -155 -123l1 -1q54 22 88.5 28t58.5 4.5
t42.5 -4.5t39.5 1q36 8 54 22.5t27 50.5q1 2 4 3.5t6 1.5t5 -2t1 -7q-4 -15 -10 -43.5t-16.5 -57.5t-27 -53.5t-41.5 -33.5z" />
    <glyph glyph-name="uni00B3" unicode="&#xb3;" horiz-adv-x="413" 
d="M381 372q-11 -49 -36 -82t-57.5 -53.5t-68 -30t-67.5 -10t-56 5t-34 15.5q-13 13 -29 30.5t-25.5 45.5t-7 70t27.5 103v1q10 1 34.5 -1.5t49 -9t41.5 -15.5t14 -20q-1 -2 -9.5 -14.5t-21 -30t-26 -38t-24 -38t-15.5 -30.5t0 -15q11 -6 32 -8t44 8t43.5 36.5t31.5 78.5
q14 72 8.5 111.5t-27.5 44.5q-8 -1 -15 -1.5t-13 -0.5q-5 0 -7 3t-1 7.5t3.5 8t5.5 3.5q6 0 9 1q6 2 17 4h5q41 11 63.5 41.5t34.5 77.5q13 49 4.5 72.5t-27 29.5t-40.5 0.5t-37 -12.5q-7 -4 -2 -19.5t14.5 -33.5t19 -33.5t10.5 -18.5q3 -11 -14 -20.5t-41.5 -16t-49 -9.5
t-34.5 -1l-1 1q-15 37 -11 65.5t19 51.5t37 40.5t44 31.5q12 8 38.5 12t58 2t63.5 -12.5t55.5 -30.5t35 -52t1.5 -78q-6 -26 -20 -44t-33.5 -30.5t-43.5 -19.5t-49 -11q20 -9 37.5 -23t29.5 -33.5t15.5 -46t-3.5 -59.5z" />
    <glyph glyph-name="acute" unicode="&#xb4;" horiz-adv-x="188" 
d="M40 533q-1 -2 -5 -1.5t-8 3t-5.5 7t1.5 11.5q8 16 25 41.5t36 51t37 46t28 25.5v1q15 -9 33.5 -28.5t33 -39.5t22 -35.5t1.5 -16.5q-20 -4 -49 -10t-59 -14t-55 -18t-36 -23z" />
    <glyph glyph-name="mu" unicode="&#xb5;" horiz-adv-x="400" 
d="M73 523q31 6 61 -5t46.5 -41.5t15 -82t-32.5 -127.5q-43 -107 -58.5 -154.5t10.5 -47.5q34 0 70.5 86t88.5 253l29 95q2 5 2.5 8t1.5 5q1 3 1 4q10 1 35 -1.5t50 -9t43 -16t15 -20.5q-1 -2 -7.5 -19t-16 -44t-21.5 -62t-23.5 -72.5t-21.5 -75t-15 -70.5q-3 -20 -4 -29.5
t2 -11t9 3t17 12.5q17 14 34 40t42 74q14 26 19 30t5 -10q0 -5 -3 -15t-12 -26q-23 -40 -46.5 -77.5t-48.5 -63.5q-56 -61 -92 -46q-10 4 -21 15t-20 28.5t-14 42t-4 55.5q-28 -65 -58.5 -104.5t-67.5 -39.5q-29 0 -51 15q-10 -59 -24 -115.5t-33 -102.5v-1
q-11 -1 -32.5 4.5t-43 14.5t-36 20.5t-11.5 23.5l144 363l6 20t8 21q28 69 41.5 117.5t18.5 79.5q5 36 3 59zM308 433q1 3 0.5 3.5t-1.5 -1.5z" />
    <glyph glyph-name="mu" unicode="&#x3bc;" horiz-adv-x="400" 
d="M73 523q31 6 61 -5t46.5 -41.5t15 -82t-32.5 -127.5q-43 -107 -58.5 -154.5t10.5 -47.5q34 0 70.5 86t88.5 253l29 95q2 5 2.5 8t1.5 5q1 3 1 4q10 1 35 -1.5t50 -9t43 -16t15 -20.5q-1 -2 -7.5 -19t-16 -44t-21.5 -62t-23.5 -72.5t-21.5 -75t-15 -70.5q-3 -20 -4 -29.5
t2 -11t9 3t17 12.5q17 14 34 40t42 74q14 26 19 30t5 -10q0 -5 -3 -15t-12 -26q-23 -40 -46.5 -77.5t-48.5 -63.5q-56 -61 -92 -46q-10 4 -21 15t-20 28.5t-14 42t-4 55.5q-28 -65 -58.5 -104.5t-67.5 -39.5q-29 0 -51 15q-10 -59 -24 -115.5t-33 -102.5v-1
q-11 -1 -32.5 4.5t-43 14.5t-36 20.5t-11.5 23.5l144 363l6 20t8 21q28 69 41.5 117.5t18.5 79.5q5 36 3 59zM308 433q1 3 0.5 3.5t-1.5 -1.5z" />
    <glyph glyph-name="paragraph" unicode="&#xb6;" horiz-adv-x="775" 
d="M788 554q14 -10 16 -18t-4.5 -11t-19.5 -0.5t-29 13.5l-20 12q-14 -26 -25.5 -61t-24.5 -80.5t-29 -103.5t-38 -130q-37 -117 -88 -198.5t-103.5 -126.5t-100 -52.5t-78.5 23.5q-6 6 -9.5 11t-5.5 10q-45 -32 -84.5 -35t-66.5 24q-12 13 -31.5 32.5t-32.5 50.5t-14 75
t24 106l1 1q10 1 36 -1.5t52.5 -9t45 -16t15.5 -20.5q-1 -2 -9 -15.5t-19 -32.5t-23.5 -41t-22 -41.5t-14 -33.5t0.5 -16q29 -15 54.5 -13t50.5 31.5t52 93t60 171.5q-59 -14 -120 -14q-38 0 -73.5 12.5t-59 39t-30 68.5t12.5 102q20 63 66 114t108.5 87t136.5 56t151 20
q53 76 109 90q29 7 42.5 -2t17.5 -23t1.5 -27t-3.5 -12l-3 -1t-9 -4.5t-15 -11t-19 -21.5q46 -10 89 -27.5t82 -43.5zM438 185q-37 -118 -86.5 -199t-100.5 -126q1 0 1 -0.5t1 -0.5q30 -16 56.5 -13.5t52.5 36t54.5 103.5t63.5 190q42 145 76.5 248t73.5 169l-30 7
q-14 -22 -30.5 -54.5t-36 -82t-43.5 -117.5t-52 -160z" />
    <glyph glyph-name="periodcentered" unicode="&#xb7;" horiz-adv-x="144" 
d="M192 234q-5 -14 -19.5 -24t-33 -15.5t-39.5 -6.5t-38 4q-16 4 -31 13.5t-25.5 22t-15 26.5t1.5 28q5 13 18.5 23t31.5 16t38.5 7t41.5 -4q14 -3 28.5 -12t25.5 -21.5t16 -27t0 -29.5z" />
    <glyph glyph-name="cedilla" unicode="&#xb8;" horiz-adv-x="145" 
d="M73 1q-7 -16 -3 -17.5t10 -2.5q30 -4 54.5 -15t41.5 -26.5t25 -35.5t4 -43q-3 -19 -14 -38t-30 -35t-45.5 -27.5t-60.5 -15.5q-17 -2 -25.5 18t-9 45t6 46.5t20.5 23.5q27 3 37.5 13.5t10.5 24.5t-7.5 23.5t-36.5 19.5q-14 4 -14 13.5t13 33.5q10 19 20.5 17t2.5 -22z
" />
    <glyph glyph-name="uni00B9" unicode="&#xb9;" horiz-adv-x="222" 
d="M156 807q16 3 34 -3t31 -26.5t17.5 -59.5t-7.5 -103q-8 -45 -19 -101.5t-22.5 -114t-23 -111t-20.5 -92.5q0 -1 -12.5 -1t-31 2t-39 5.5t-38 8.5t-27.5 13t-6 18q4 11 41 113.5t87 298.5q13 53 20.5 83.5t10.5 46t4 19.5z" />
    <glyph glyph-name="ordmasculine" unicode="&#xba;" horiz-adv-x="169" 
d="M130 674q21 -3 40.5 -15t33.5 -27t19 -31t-2 -27q-8 -11 -20.5 -21.5t-30.5 -17.5t-41 -10t-51 1q-26 3 -46 15t-32 27t-16 30.5t4 26.5q7 11 22 21.5t34 17.5t41.5 10t44.5 0zM128 569q11 15 11 33.5t-8 33.5t-24 12.5t-27 -17.5t-11 -34t8 -34q9 -15 24.5 -12t26.5 18z
" />
    <glyph glyph-name="guillemotright" unicode="&#xbb;" horiz-adv-x="337" 
d="M52 397q-2 8 -0.5 17t4.5 16t6.5 11t4.5 3q8 -15 22.5 -33t33.5 -37.5t41 -39.5t45 -39q6 -5 7 -11.5t-4 -16t-16 -24.5t-29 -37q-13 -17 -26.5 -35.5t-25.5 -35.5t-21.5 -30t-14.5 -19l-1 -1q-17 3 -30 18t-20 32.5t-8.5 33t3.5 18.5q11 7 26.5 15t33 16.5t34 17
t28.5 16.5q-8 12 -22 30t-28.5 38.5t-26.5 40.5t-16 36zM191 397q-2 8 -0.5 17t5 16t6.5 11t4 3q8 -15 23 -33t33.5 -37.5t40.5 -39.5t45 -39q13 -9 7 -22t-19 -36q-9 -16 -24 -41t-31.5 -50t-30.5 -44.5t-20 -23.5l-1 -1q-16 6 -30 22.5t-23 34t-11.5 32t3.5 16.5
q12 4 28.5 13t34 20.5t34.5 26t29 30.5q-9 10 -24.5 25t-31.5 32t-29.5 34.5t-17.5 33.5z" />
    <glyph glyph-name="onequarter" unicode="&#xbc;" horiz-adv-x="744" 
d="M155 807q16 3 34 -3t31 -26.5t17.5 -59.5t-7.5 -103q-8 -45 -19 -101.5t-22.5 -114t-23 -111t-20.5 -92.5q0 -1 -12.5 -1t-31 2t-39 5.5t-38 8.5t-27.5 13t-6 18q4 11 41 113.5t87 298.5q13 53 20.5 83.5t10.5 46t4 19.5zM218 -151q-11 -2 -17.5 2.5t-8 24t3 57.5
t16.5 103q5 30 14 91t19 137.5t21.5 160.5t22 159t19 134t14.5 85q0 1 13.5 1t33 -1t41.5 -4t40.5 -8t29 -12.5t7.5 -17.5q-2 -6 -22.5 -48t-53 -130t-74 -227.5t-84.5 -338.5q-12 -54 -18.5 -87t-10.5 -51q-4 -21 -6 -30zM441 146q-6 0 -29 2t-45.5 7t-36.5 13t-4 19
l19.5 19.5t45.5 47.5t74.5 84.5t105.5 132.5q31 40 50 65.5t29.5 40.5t14.5 21.5t5 7.5v1q16 3 25.5 -1.5t12.5 -24.5t0 -59.5t-12 -106.5l-24 -174q12 3 24 5.5t23 4.5q1 0 2 -14.5t-2 -32.5t-11 -33t-24 -16q-2 0 -8.5 -0.5t-16.5 -0.5q-8 -46 -14.5 -86.5t-13.5 -71.5
q0 -1 -12.5 -1t-31 2t-39.5 5.5t-38 8.5t-27 13t-7 18q2 5 16.5 32t36.5 75q-18 -1 -33.5 -1.5t-27.5 -0.5q-14 -1 -26 -1h-1zM635 454q2 9 4 17.5t4 16.5q-8 -15 -16.5 -31.5t-19.5 -36.5q-20 -35 -37.5 -67t-34 -61.5t-33.5 -57.5t-36 -56l89 30q20 48 40 109.5t40 136.5z
" />
    <glyph glyph-name="onehalf" unicode="&#xbd;" horiz-adv-x="794" 
d="M165 807q16 3 34 -3t31 -26.5t17.5 -59.5t-7.5 -103q-8 -45 -19 -101.5t-22.5 -114t-23 -111t-20.5 -92.5q0 -1 -12.5 -1t-31 2t-39 5.5t-38 8.5t-27.5 13t-6 18q4 11 41 113.5t87 298.5q13 53 20.5 83.5t10.5 46t4 19.5zM218 -151q-11 -2 -17.5 2.5t-8 24t3 57.5
t16.5 103q5 30 14 91t19 137.5t21.5 160.5t22 159t19 134t14.5 85q0 1 13.5 1t33 -1t41.5 -4t40.5 -8t29 -12.5t7.5 -17.5q-2 -6 -22.5 -48t-53 -130t-74 -227.5t-84.5 -338.5q-12 -54 -18.5 -87t-10.5 -51q-4 -21 -6 -30zM673 -27q-29 -10 -53.5 -8t-47.5 9.5t-45 17.5
t-46 15.5t-50.5 4t-57.5 -17.5q-5 -2 -7.5 2.5t-3 11.5t0 13.5t3.5 9.5q58 58 101.5 117.5t75 116.5t52 109t31.5 96q8 31 5.5 51t-11 31t-22 15t-27 3.5t-26 -4t-19.5 -6.5q-5 -3 -4 -16t5.5 -31t11 -39t13 -39t11 -30.5t5.5 -14.5q3 -11 -14 -20.5t-41.5 -16t-49 -9.5
t-34.5 -1l-1 1q-22 54 -17.5 95t22 71.5t42 52t42.5 35.5q11 8 37 12t58.5 2t66.5 -12.5t59.5 -30.5t38 -52t2.5 -78q-7 -32 -25.5 -65.5t-43.5 -66t-54.5 -63t-59.5 -57.5q-70 -63 -155 -123l1 -1q54 22 88.5 28t58.5 4.5t42.5 -4.5t39.5 1q36 8 54 22.5t27 50.5q1 2 4 3.5
t6 1.5t5 -2t1 -7q-4 -15 -10 -43.5t-16.5 -57.5t-27 -53.5t-41.5 -33.5z" />
    <glyph glyph-name="threequarters" unicode="&#xbe;" horiz-adv-x="949" 
d="M403 -151q-11 -2 -17.5 2.5t-8 24t3 57.5t16.5 103q5 30 14 91t19 137.5t21.5 160.5t22 159t19 134t14.5 85q0 1 13.5 1t33 -1t41.5 -4t40.5 -8t29 -12.5t7.5 -17.5q-2 -6 -22.5 -48t-53 -130t-74 -227.5t-84.5 -338.5q-12 -54 -18.5 -87t-10.5 -51q-4 -21 -6 -30z
M359 372q-11 -49 -36 -82t-57.5 -53.5t-68 -30t-67.5 -10t-56 5t-34 15.5q-13 13 -29 30.5t-25.5 45.5t-7 70t27.5 103v1q10 1 34.5 -1.5t49 -9t41.5 -15.5t14 -20q-1 -2 -9.5 -14.5t-21 -30t-26 -38t-24 -38t-15.5 -30.5t0 -15q11 -6 32 -8t44 8t43.5 36.5t31.5 78.5
q14 72 8.5 111.5t-27.5 44.5q-8 -1 -15 -1.5t-13 -0.5q-5 0 -7 3t-1 7.5t3.5 8t5.5 3.5q6 0 9 1q6 2 17 4h5q41 11 63.5 41.5t34.5 77.5q13 49 4.5 72.5t-27 29.5t-40.5 0.5t-37 -12.5q-7 -4 -2 -19.5t14.5 -33.5t19 -33.5t10.5 -18.5q3 -11 -14 -20.5t-41.5 -16t-49 -9.5
t-34.5 -1l-1 1q-15 37 -11 65.5t19 51.5t37 40.5t44 31.5q12 8 38.5 12t58 2t63.5 -12.5t55.5 -30.5t35 -52t1.5 -78q-6 -26 -20 -44t-33.5 -30.5t-43.5 -19.5t-49 -11q20 -9 37.5 -23t29.5 -33.5t15.5 -46t-3.5 -59.5zM646 146q-6 0 -29 2t-45.5 7t-36.5 13t-4 19
l19.5 19.5t45.5 47.5t74.5 84.5t105.5 132.5q31 40 50 65.5t29.5 40.5t14.5 21.5t5 7.5v1q16 3 25.5 -1.5t12.5 -24.5t0 -59.5t-12 -106.5l-24 -174q12 3 24 5.5t23 4.5q1 0 2 -14.5t-2 -32.5t-11 -33t-24 -16q-2 0 -8.5 -0.5t-16.5 -0.5q-8 -46 -14.5 -86.5t-13.5 -71.5
q0 -1 -12.5 -1t-31 2t-39.5 5.5t-38 8.5t-27 13t-7 18q2 5 16.5 32t36.5 75q-18 -1 -33.5 -1.5t-27.5 -0.5q-14 -1 -26 -1h-1zM840 454q2 9 4 17.5t4 16.5q-8 -15 -16.5 -31.5t-19.5 -36.5q-20 -35 -37.5 -67t-34 -61.5t-33.5 -57.5t-36 -56l89 30q20 48 40 109.5t40 136.5z
" />
    <glyph glyph-name="questiondown" unicode="&#xbf;" horiz-adv-x="391" 
d="M293 394q3 23 4 36.5t2 13.5q13 0 30 -4.5t31 -13.5t23 -22.5t7 -31.5q-3 -28 -19.5 -54.5t-39 -54.5t-49 -60t-50.5 -71t-43 -86.5t-27 -106.5q-6 -48 4.5 -70t28.5 -28t37 -1.5t30 9.5q5 2 4 15.5t-5.5 31.5t-11 39t-12.5 39t-11 31t-5 15q-3 11 15.5 21.5t44.5 19
t52 12.5t37 3v-1q22 -54 16 -96.5t-25.5 -75t-45.5 -55.5t-44 -37q-11 -8 -37 -12t-58.5 -2t-66 12.5t-59 30.5t-38.5 52t-3 78q9 40 32 79t53 76t63.5 72.5t62 69t48.5 65.5t25 62zM264 593q5 13 19.5 23.5t33 16t39.5 6.5t38 -4q16 -5 31 -14t25.5 -21.5t15 -26.5
t-1.5 -28q-5 -13 -18.5 -23t-31.5 -16t-38.5 -7t-41.5 4q-14 3 -28.5 12t-25.5 21.5t-16 27t0 29.5z" />
    <glyph glyph-name="Agrave" unicode="&#xc0;" horiz-adv-x="623" 
d="M54 -3q-28 -5 -37.5 1.5t-3 28.5t30 61t61.5 101q18 29 51.5 79.5t74 112t84.5 127.5l84 126t71.5 108.5t47.5 75.5q1 1 10 0t21 -5q12 1 39 -0.5t53 -6t43.5 -14t11.5 -25.5q0 -2 -7.5 -23t-18 -57t-22 -84.5t-20.5 -103.5q-13 -74 -22 -148t-14.5 -132.5t-5.5 -94
t5 -30.5q14 11 33.5 42t44.5 79q14 26 19 30t5 -10q0 -5 -3 -15t-12 -26q-23 -40 -46.5 -77.5t-48.5 -63.5q-28 -30 -56 -47t-46 -9q-14 6 -23 24t-14 44.5t-5.5 60t4.5 70.5q2 11 4 30t6 43q-42 -25 -109.5 -43t-158.5 -18q-12 -17 -22 -31.5t-17 -26.5q-32 -54 -50 -84.5
t-27.5 -45.5t-12 -19zM458 309q6 39 12.5 84.5t14 92.5l15 94t14.5 89q-23 -35 -52.5 -79.5t-64.5 -94.5q-68 -95 -132 -179zM697 869q1 -1 1.5 -5t-1 -8t-6 -6.5t-11.5 -0.5q-17 5 -47 20t-61 32.5t-56 34t-32 25.5h-1q6 16 28.5 33.5t47.5 30t45.5 19t22.5 0.5
q7 -19 13.5 -45.5t14.5 -52.5t18 -47t24 -30z" />
    <glyph glyph-name="Aacute" unicode="&#xc1;" horiz-adv-x="623" 
d="M54 -3q-28 -5 -37.5 1.5t-3 28.5t30 61t61.5 101q18 29 51.5 79.5t74 112t84.5 127.5l84 126t71.5 108.5t47.5 75.5q1 1 10 0t21 -5q12 1 39 -0.5t53 -6t43.5 -14t11.5 -25.5q0 -2 -7.5 -23t-18 -57t-22 -84.5t-20.5 -103.5q-13 -74 -22 -148t-14.5 -132.5t-5.5 -94
t5 -30.5q14 11 33.5 42t44.5 79q14 26 19 30t5 -10q0 -5 -3 -15t-12 -26q-23 -40 -46.5 -77.5t-48.5 -63.5q-28 -30 -56 -47t-46 -9q-14 6 -23 24t-14 44.5t-5.5 60t4.5 70.5q2 11 4 30t6 43q-42 -25 -109.5 -43t-158.5 -18q-12 -17 -22 -31.5t-17 -26.5q-32 -54 -50 -84.5
t-27.5 -45.5t-12 -19zM458 309q6 39 12.5 84.5t14 92.5l15 94t14.5 89q-23 -35 -52.5 -79.5t-64.5 -94.5q-68 -95 -132 -179zM547 873q-1 -2 -5 -1.5t-8 3t-5.5 7t1.5 11.5q8 16 25 41.5t36 51t37 46t28 25.5v1q15 -9 33.5 -28.5t33 -39.5t22 -35.5t1.5 -16.5
q-20 -4 -49 -10t-59 -14t-55 -18t-36 -23z" />
    <glyph glyph-name="Acircumflex" unicode="&#xc2;" horiz-adv-x="623" 
d="M54 -3q-28 -5 -37.5 1.5t-3 28.5t30 61t61.5 101q18 29 51.5 79.5t74 112t84.5 127.5l84 126t71.5 108.5t47.5 75.5q1 1 10 0t21 -5q12 1 39 -0.5t53 -6t43.5 -14t11.5 -25.5q0 -2 -7.5 -23t-18 -57t-22 -84.5t-20.5 -103.5q-13 -74 -22 -148t-14.5 -132.5t-5.5 -94
t5 -30.5q14 11 33.5 42t44.5 79q14 26 19 30t5 -10q0 -5 -3 -15t-12 -26q-23 -40 -46.5 -77.5t-48.5 -63.5q-28 -30 -56 -47t-46 -9q-14 6 -23 24t-14 44.5t-5.5 60t4.5 70.5q2 11 4 30t6 43q-42 -25 -109.5 -43t-158.5 -18q-12 -17 -22 -31.5t-17 -26.5q-32 -54 -50 -84.5
t-27.5 -45.5t-12 -19zM458 309q6 39 12.5 84.5t14 92.5l15 94t14.5 89q-23 -35 -52.5 -79.5t-64.5 -94.5q-68 -95 -132 -179zM480 847q-8 -2 -12 -0.5t-5.5 5t-1.5 6.5t2 4q15 8 40.5 26t54.5 40.5t57 47.5t47 48q6 7 21 -4t35 -35t42.5 -58t42.5 -73q0 -1 1 -1
q-9 -15 -34.5 -24t-53 -12.5t-49 -1.5t-22.5 8q-5 26 -11.5 49.5t-22.5 47.5q-12 -8 -28 -18.5t-33.5 -21t-35.5 -20t-34 -13.5z" />
    <glyph glyph-name="Atilde" unicode="&#xc3;" horiz-adv-x="623" 
d="M54 -3q-28 -5 -37.5 1.5t-3 28.5t30 61t61.5 101q18 29 51.5 79.5t74 112t84.5 127.5l84 126t71.5 108.5t47.5 75.5q1 1 10 0t21 -5q12 1 39 -0.5t53 -6t43.5 -14t11.5 -25.5q0 -2 -7.5 -23t-18 -57t-22 -84.5t-20.5 -103.5q-13 -74 -22 -148t-14.5 -132.5t-5.5 -94
t5 -30.5q14 11 33.5 42t44.5 79q14 26 19 30t5 -10q0 -5 -3 -15t-12 -26q-23 -40 -46.5 -77.5t-48.5 -63.5q-28 -30 -56 -47t-46 -9q-14 6 -23 24t-14 44.5t-5.5 60t4.5 70.5q2 11 4 30t6 43q-42 -25 -109.5 -43t-158.5 -18q-12 -17 -22 -31.5t-17 -26.5q-32 -54 -50 -84.5
t-27.5 -45.5t-12 -19zM458 309q6 39 12.5 84.5t14 92.5l15 94t14.5 89q-23 -35 -52.5 -79.5t-64.5 -94.5q-68 -95 -132 -179zM794 855q-14 -34 -68.5 -33.5t-139.5 45.5q-49 26 -82 34t-48 -18q-5 -9 -10.5 -15t-8.5 -6t-2.5 7.5t6.5 24.5q7 19 17 37.5t20.5 33t21.5 23.5
t20 11q13 2 28.5 -3t33.5 -14t39.5 -20.5t47.5 -22.5q52 -22 74.5 -19.5t9.5 29.5q-5 10 -6.5 17.5t0 10t7.5 -2t16 -19.5q21 -32 26 -58t-2 -42z" />
    <glyph glyph-name="Adieresis" unicode="&#xc4;" horiz-adv-x="623" 
d="M54 -3q-28 -5 -37.5 1.5t-3 28.5t30 61t61.5 101q18 29 51.5 79.5t74 112t84.5 127.5l84 126t71.5 108.5t47.5 75.5q1 1 10 0t21 -5q12 1 39 -0.5t53 -6t43.5 -14t11.5 -25.5q0 -2 -7.5 -23t-18 -57t-22 -84.5t-20.5 -103.5q-13 -74 -22 -148t-14.5 -132.5t-5.5 -94
t5 -30.5q14 11 33.5 42t44.5 79q14 26 19 30t5 -10q0 -5 -3 -15t-12 -26q-23 -40 -46.5 -77.5t-48.5 -63.5q-28 -30 -56 -47t-46 -9q-14 6 -23 24t-14 44.5t-5.5 60t4.5 70.5q2 11 4 30t6 43q-42 -25 -109.5 -43t-158.5 -18q-12 -17 -22 -31.5t-17 -26.5q-32 -54 -50 -84.5
t-27.5 -45.5t-12 -19zM458 309q6 39 12.5 84.5t14 92.5l15 94t14.5 89q-23 -35 -52.5 -79.5t-64.5 -94.5q-68 -95 -132 -179zM605 881q-5 -14 -19.5 -24t-33 -15.5t-39.5 -6.5t-38 4q-16 4 -31 13.5t-25.5 22t-15 26.5t1.5 28q5 13 18.5 23t31.5 16t38.5 7t41.5 -4
q14 -3 28.5 -12t25.5 -21.5t16 -27t0 -29.5zM825 881q-5 -14 -19.5 -24t-33 -15.5t-39.5 -6.5t-38 4q-16 4 -31 13.5t-25.5 22t-15 26.5t1.5 28q5 13 18.5 23t31.5 16t38.5 7t41.5 -4q14 -3 28.5 -12t25.5 -21.5t16 -27t0 -29.5z" />
    <glyph glyph-name="Aring" unicode="&#xc5;" horiz-adv-x="623" 
d="M54 -3q-28 -5 -37.5 1.5t-3 28.5t30 61t61.5 101q18 29 51.5 79.5t74 112t84.5 127.5l84 126t71.5 108.5t47.5 75.5q1 1 10 0t21 -5q12 1 39 -0.5t53 -6t43.5 -14t11.5 -25.5q0 -2 -7.5 -23t-18 -57t-22 -84.5t-20.5 -103.5q-13 -74 -22 -148t-14.5 -132.5t-5.5 -94
t5 -30.5q14 11 33.5 42t44.5 79q14 26 19 30t5 -10q0 -5 -3 -15t-12 -26q-23 -40 -46.5 -77.5t-48.5 -63.5q-28 -30 -56 -47t-46 -9q-14 6 -23 24t-14 44.5t-5.5 60t4.5 70.5q2 11 4 30t6 43q-42 -25 -109.5 -43t-158.5 -18q-12 -17 -22 -31.5t-17 -26.5q-32 -54 -50 -84.5
t-27.5 -45.5t-12 -19zM458 309q6 39 12.5 84.5t14 92.5l15 94t14.5 89q-23 -35 -52.5 -79.5t-64.5 -94.5q-68 -95 -132 -179zM657 1004q21 -3 40.5 -15t33.5 -27t19 -31t-2 -27q-8 -11 -20.5 -21.5t-30.5 -17.5t-41 -10t-51 1q-26 3 -46 15t-32 27t-16 30.5t4 26.5
q7 11 22 21.5t34 17.5t41.5 10t44.5 0zM655 899q11 15 11 33.5t-8 33.5t-24 12.5t-27 -17.5t-11 -34t8 -34q9 -15 24.5 -12t26.5 18z" />
    <glyph glyph-name="AE" unicode="&#xc6;" horiz-adv-x="835" 
d="M54 -3q-28 -5 -37.5 1.5t-3 28.5t30 61t61.5 101q18 29 51.5 79.5t74 112t84.5 127.5l84 126t71.5 108.5t47.5 75.5q1 1 10 0t21 -5q10 0 30 -0.5t42 -3t41.5 -8t28.5 -14.5q27 14 55.5 21t54 7.5t46.5 -6t34 -19.5q16 -17 34 -38.5t28.5 -51t10 -67.5t-20.5 -87l-1 -1
q-11 -2 -36.5 1t-51.5 9.5t-44.5 15.5t-15.5 20q0 2 8.5 14.5t19.5 29.5t23.5 36.5t22.5 37t14.5 29.5t-0.5 15q-21 11 -41 8t-37.5 -16.5t-30.5 -37.5t-21 -55q-9 -36 -14 -67t-4.5 -54.5t9 -37t28.5 -13.5q17 0 32 -1t32 -1q1 0 2.5 -6t-1.5 -12.5t-11 -12.5t-24 -6h-13.5
t-14.5 2q-40 -2 -78 -43.5t-63 -129.5q-14 -48 -19 -90t-0.5 -73t19.5 -48.5t41 -17.5q21 0 48 12t55.5 34.5t56 55t48.5 72.5q14 26 19 30t5 -10q0 -5 -3 -15t-12 -26q-21 -38 -49 -74.5t-60.5 -65.5t-70 -47t-77.5 -18q-47 0 -84.5 18t-61 50.5t-31.5 77.5t3 99
q1 8 1.5 16.5t2.5 18.5q-42 -25 -109.5 -43t-158.5 -18q-12 -17 -22 -31.5t-17 -26.5q-32 -54 -50 -84.5t-27.5 -45.5t-12 -19zM458 309q6 39 12.5 84.5t14 92.5l15 94t14.5 89q-23 -35 -52.5 -79.5t-64.5 -94.5q-68 -95 -132 -179zM617 436q22 8 42.5 13.5t39.5 8.5
q-19 7 -37.5 16t-34.5 22z" />
    <glyph glyph-name="Ccedilla" unicode="&#xc7;" horiz-adv-x="343" 
d="M379 466q-11 -2 -35 1t-48.5 9t-41.5 15.5t-14 20.5q1 2 12.5 20t27.5 44t34 56t32.5 56t22.5 44t3 21q-31 15 -56.5 3.5t-50 -50.5t-48.5 -106.5t-52 -163.5q-55 -189 -55.5 -283t41.5 -101q16 -3 41 7t53.5 31t56.5 52.5t49 72.5q14 26 18.5 30t4.5 -10q0 -5 -2.5 -15
t-11.5 -26q-22 -38 -50.5 -73t-60.5 -62t-67.5 -43t-70.5 -16q-38 0 -70 30.5t-49 87.5t-14.5 137.5t33.5 180.5q37 121 88 203t103 126t99.5 50t78.5 -25q13 -13 23.5 -42t13.5 -71t-5 -96t-33 -115zM303 1q-7 -16 -3 -17.5t10 -2.5q30 -4 54.5 -15t41.5 -26.5t25 -35.5
t4 -43q-3 -19 -14 -38t-30 -35t-45.5 -27.5t-60.5 -15.5q-17 -2 -25.5 18t-9 45t6 46.5t20.5 23.5q27 3 37.5 13.5t10.5 24.5t-7.5 23.5t-36.5 19.5q-14 4 -14 13.5t13 33.5q10 19 20.5 17t2.5 -22z" />
    <glyph glyph-name="Egrave" unicode="&#xc8;" horiz-adv-x="356" 
d="M463 839q1 -1 1.5 -5t-1 -8t-6 -6.5t-11.5 -0.5q-17 5 -47 20t-61 32.5t-56 34t-32 25.5h-1q6 16 28.5 33.5t47.5 30t45.5 19t22.5 0.5q7 -19 13.5 -45.5t14.5 -52.5t18 -47t24 -30zM-21 270q15 50 43 83.5t62 55.5t69.5 33t66.5 16q-27 10 -53 26t-44.5 39t-25.5 54
t3 70q10 40 32.5 70.5t51 51.5t61 32t62.5 13.5t55 -4t40 -20.5q16 -17 34 -38.5t28.5 -51t10 -67.5t-20.5 -87l-1 -1q-11 -2 -36.5 1t-51.5 9.5t-44.5 15.5t-15.5 20q0 2 8.5 14.5t19.5 29.5t23.5 36.5t22.5 37t14.5 29.5t-0.5 15q-21 11 -41 8t-37.5 -16.5t-30.5 -37.5
t-21 -55q-9 -36 -14 -67t-4.5 -54.5t9 -37t28.5 -13.5q17 0 32 -1t32 -1q1 0 2.5 -6t-1.5 -12.5t-11 -12.5t-24 -6h-13.5t-14.5 2q-40 -2 -78 -43.5t-63 -129.5q-14 -48 -19 -90t-0.5 -73t19.5 -48.5t41 -17.5q21 0 48 12t55.5 34.5t56 55t48.5 72.5q14 26 19 30t5 -10
q0 -5 -3 -15t-12 -26q-21 -38 -49 -74.5t-60.5 -65.5t-70 -47t-77.5 -18q-51 0 -90 21t-62 58.5t-27.5 89t14.5 112.5z" />
    <glyph glyph-name="Eacute" unicode="&#xc9;" horiz-adv-x="356" 
d="M289 855q-1 -2 -5 -1.5t-8 3t-5.5 7t1.5 11.5q8 16 25 41.5t36 51t37 46t28 25.5v1q15 -9 33.5 -28.5t33 -39.5t22 -35.5t1.5 -16.5q-20 -4 -49 -10t-59 -14t-55 -18t-36 -23zM-21 270q15 50 43 83.5t62 55.5t69.5 33t66.5 16q-27 10 -53 26t-44.5 39t-25.5 54t3 70
q10 40 32.5 70.5t51 51.5t61 32t62.5 13.5t55 -4t40 -20.5q16 -17 34 -38.5t28.5 -51t10 -67.5t-20.5 -87l-1 -1q-11 -2 -36.5 1t-51.5 9.5t-44.5 15.5t-15.5 20q0 2 8.5 14.5t19.5 29.5t23.5 36.5t22.5 37t14.5 29.5t-0.5 15q-21 11 -41 8t-37.5 -16.5t-30.5 -37.5t-21 -55
q-9 -36 -14 -67t-4.5 -54.5t9 -37t28.5 -13.5q17 0 32 -1t32 -1q1 0 2.5 -6t-1.5 -12.5t-11 -12.5t-24 -6h-13.5t-14.5 2q-40 -2 -78 -43.5t-63 -129.5q-14 -48 -19 -90t-0.5 -73t19.5 -48.5t41 -17.5q21 0 48 12t55.5 34.5t56 55t48.5 72.5q14 26 19 30t5 -10q0 -5 -3 -15
t-12 -26q-21 -38 -49 -74.5t-60.5 -65.5t-70 -47t-77.5 -18q-51 0 -90 21t-62 58.5t-27.5 89t14.5 112.5z" />
    <glyph glyph-name="Ecircumflex" unicode="&#xca;" horiz-adv-x="356" 
d="M216 867q-8 -2 -12 -0.5t-5.5 5t-1.5 6.5t2 4q15 8 40.5 26t54.5 40.5t57 47.5t47 48q6 7 21 -4t35 -35t42.5 -58t42.5 -73q0 -1 1 -1q-9 -15 -34.5 -24t-53 -12.5t-49 -1.5t-22.5 8q-5 26 -11.5 49.5t-22.5 47.5q-12 -8 -28 -18.5t-33.5 -21t-35.5 -20t-34 -13.5z
M-21 270q15 50 43 83.5t62 55.5t69.5 33t66.5 16q-27 10 -53 26t-44.5 39t-25.5 54t3 70q10 40 32.5 70.5t51 51.5t61 32t62.5 13.5t55 -4t40 -20.5q16 -17 34 -38.5t28.5 -51t10 -67.5t-20.5 -87l-1 -1q-11 -2 -36.5 1t-51.5 9.5t-44.5 15.5t-15.5 20q0 2 8.5 14.5
t19.5 29.5t23.5 36.5t22.5 37t14.5 29.5t-0.5 15q-21 11 -41 8t-37.5 -16.5t-30.5 -37.5t-21 -55q-9 -36 -14 -67t-4.5 -54.5t9 -37t28.5 -13.5q17 0 32 -1t32 -1q1 0 2.5 -6t-1.5 -12.5t-11 -12.5t-24 -6h-13.5t-14.5 2q-40 -2 -78 -43.5t-63 -129.5q-14 -48 -19 -90
t-0.5 -73t19.5 -48.5t41 -17.5q21 0 48 12t55.5 34.5t56 55t48.5 72.5q14 26 19 30t5 -10q0 -5 -3 -15t-12 -26q-21 -38 -49 -74.5t-60.5 -65.5t-70 -47t-77.5 -18q-51 0 -90 21t-62 58.5t-27.5 89t14.5 112.5z" />
    <glyph glyph-name="Edieresis" unicode="&#xcb;" horiz-adv-x="356" 
d="M362 881q-5 -14 -19.5 -24t-33 -15.5t-39.5 -6.5t-38 4q-16 4 -31 13.5t-25.5 22t-15 26.5t1.5 28q5 13 18.5 23t31.5 16t38.5 7t41.5 -4q14 -3 28.5 -12t25.5 -21.5t16 -27t0 -29.5zM582 881q-5 -14 -19.5 -24t-33 -15.5t-39.5 -6.5t-38 4q-16 4 -31 13.5t-25.5 22
t-15 26.5t1.5 28q5 13 18.5 23t31.5 16t38.5 7t41.5 -4q14 -3 28.5 -12t25.5 -21.5t16 -27t0 -29.5zM-21 270q15 50 43 83.5t62 55.5t69.5 33t66.5 16q-27 10 -53 26t-44.5 39t-25.5 54t3 70q10 40 32.5 70.5t51 51.5t61 32t62.5 13.5t55 -4t40 -20.5q16 -17 34 -38.5
t28.5 -51t10 -67.5t-20.5 -87l-1 -1q-11 -2 -36.5 1t-51.5 9.5t-44.5 15.5t-15.5 20q0 2 8.5 14.5t19.5 29.5t23.5 36.5t22.5 37t14.5 29.5t-0.5 15q-21 11 -41 8t-37.5 -16.5t-30.5 -37.5t-21 -55q-9 -36 -14 -67t-4.5 -54.5t9 -37t28.5 -13.5q17 0 32 -1t32 -1q1 0 2.5 -6
t-1.5 -12.5t-11 -12.5t-24 -6h-13.5t-14.5 2q-40 -2 -78 -43.5t-63 -129.5q-14 -48 -19 -90t-0.5 -73t19.5 -48.5t41 -17.5q21 0 48 12t55.5 34.5t56 55t48.5 72.5q14 26 19 30t5 -10q0 -5 -3 -15t-12 -26q-21 -38 -49 -74.5t-60.5 -65.5t-70 -47t-77.5 -18q-51 0 -90 21
t-62 58.5t-27.5 89t14.5 112.5z" />
    <glyph glyph-name="Igrave" unicode="&#xcc;" horiz-adv-x="403" 
d="M420 787q20 4 38 6.5t35 4.5q33 32 64 49.5t58 24.5q34 9 60 4t39.5 -19t14 -35t-16.5 -45q-1 -2 -9 -2t-19.5 0.5t-24.5 2t-24 3.5q-8 1 -18 1.5t-21 0.5q-12 -10 -28.5 -34.5t-38.5 -72t-49.5 -122t-61.5 -184.5q-37 -117 -86 -198.5t-100 -126.5t-97 -52.5t-77 23.5
q-12 13 -33 32.5t-36 50.5t-17.5 75t22.5 106l1 1q7 1 22 0t33.5 -3.5t38 -7t34.5 -10t24 -12.5t7 -14q-1 -2 -9 -15.5t-19 -32.5t-23.5 -41t-22 -41.5t-14 -33.5t0.5 -16q30 -16 53 -13.5t45.5 36t48 103.5t60.5 190q42 147 91 243t100 154q-14 -2 -28 -5.5t-29 -6.5
q-42 -9 -83 -27.5t-77 -45t-65 -61t-47 -74.5q-15 -33 -26 -62.5t-13 -53.5t6 -40.5t31 -22.5q7 -2 10 21t4 52.5t0.5 55.5t1.5 29q5 10 26.5 11.5t46.5 -3t47 -12.5t29 -16q-19 -50 -41.5 -82.5t-46.5 -52t-48.5 -28t-48.5 -9.5q-30 -1 -63 12t-55 41.5t-26 72t25 103.5
q24 51 75 88.5t112 64.5t124.5 44.5t113.5 26.5zM514 863q1 -1 1.5 -5t-1 -8t-6 -6.5t-11.5 -0.5q-17 5 -47 20t-61 32.5t-56 34t-32 25.5h-1q6 16 28.5 33.5t47.5 30t45.5 19t22.5 0.5q7 -19 13.5 -45.5t14.5 -52.5t18 -47t24 -30z" />
    <glyph glyph-name="Iacute" unicode="&#xcd;" horiz-adv-x="403" 
d="M420 787q20 4 38 6.5t35 4.5q33 32 64 49.5t58 24.5q34 9 60 4t39.5 -19t14 -35t-16.5 -45q-1 -2 -9 -2t-19.5 0.5t-24.5 2t-24 3.5q-8 1 -18 1.5t-21 0.5q-12 -10 -28.5 -34.5t-38.5 -72t-49.5 -122t-61.5 -184.5q-37 -117 -86 -198.5t-100 -126.5t-97 -52.5t-77 23.5
q-12 13 -33 32.5t-36 50.5t-17.5 75t22.5 106l1 1q7 1 22 0t33.5 -3.5t38 -7t34.5 -10t24 -12.5t7 -14q-1 -2 -9 -15.5t-19 -32.5t-23.5 -41t-22 -41.5t-14 -33.5t0.5 -16q30 -16 53 -13.5t45.5 36t48 103.5t60.5 190q42 147 91 243t100 154q-14 -2 -28 -5.5t-29 -6.5
q-42 -9 -83 -27.5t-77 -45t-65 -61t-47 -74.5q-15 -33 -26 -62.5t-13 -53.5t6 -40.5t31 -22.5q7 -2 10 21t4 52.5t0.5 55.5t1.5 29q5 10 26.5 11.5t46.5 -3t47 -12.5t29 -16q-19 -50 -41.5 -82.5t-46.5 -52t-48.5 -28t-48.5 -9.5q-30 -1 -63 12t-55 41.5t-26 72t25 103.5
q24 51 75 88.5t112 64.5t124.5 44.5t113.5 26.5zM362 840q-1 -2 -5 -1.5t-8 3t-5.5 7t1.5 11.5q8 16 25 41.5t36 51t37 46t28 25.5v1q15 -9 33.5 -28.5t33 -39.5t22 -35.5t1.5 -16.5q-20 -4 -49 -10t-59 -14t-55 -18t-36 -23z" />
    <glyph glyph-name="Icircumflex" unicode="&#xce;" horiz-adv-x="403" 
d="M420 787q20 4 38 6.5t35 4.5q33 32 64 49.5t58 24.5q34 9 60 4t39.5 -19t14 -35t-16.5 -45q-1 -2 -9 -2t-19.5 0.5t-24.5 2t-24 3.5q-8 1 -18 1.5t-21 0.5q-12 -10 -28.5 -34.5t-38.5 -72t-49.5 -122t-61.5 -184.5q-37 -117 -86 -198.5t-100 -126.5t-97 -52.5t-77 23.5
q-12 13 -33 32.5t-36 50.5t-17.5 75t22.5 106l1 1q7 1 22 0t33.5 -3.5t38 -7t34.5 -10t24 -12.5t7 -14q-1 -2 -9 -15.5t-19 -32.5t-23.5 -41t-22 -41.5t-14 -33.5t0.5 -16q30 -16 53 -13.5t45.5 36t48 103.5t60.5 190q42 147 91 243t100 154q-14 -2 -28 -5.5t-29 -6.5
q-42 -9 -83 -27.5t-77 -45t-65 -61t-47 -74.5q-15 -33 -26 -62.5t-13 -53.5t6 -40.5t31 -22.5q7 -2 10 21t4 52.5t0.5 55.5t1.5 29q5 10 26.5 11.5t46.5 -3t47 -12.5t29 -16q-19 -50 -41.5 -82.5t-46.5 -52t-48.5 -28t-48.5 -9.5q-30 -1 -63 12t-55 41.5t-26 72t25 103.5
q24 51 75 88.5t112 64.5t124.5 44.5t113.5 26.5zM476 895q-8 -2 -12 -0.5t-5.5 5t-1.5 6.5t2 4q15 8 40.5 26t54.5 40.5t57 47.5t47 48q6 7 21 -4t35 -35t42.5 -58t42.5 -73q0 -1 1 -1q-9 -15 -34.5 -24t-53 -12.5t-49 -1.5t-22.5 8q-5 26 -11.5 49.5t-22.5 47.5
q-12 -8 -28 -18.5t-33.5 -21t-35.5 -20t-34 -13.5z" />
    <glyph glyph-name="Idieresis" unicode="&#xcf;" horiz-adv-x="403" 
d="M420 787q20 4 38 6.5t35 4.5q33 32 64 49.5t58 24.5q34 9 60 4t39.5 -19t14 -35t-16.5 -45q-1 -2 -9 -2t-19.5 0.5t-24.5 2t-24 3.5q-8 1 -18 1.5t-21 0.5q-12 -10 -28.5 -34.5t-38.5 -72t-49.5 -122t-61.5 -184.5q-37 -117 -86 -198.5t-100 -126.5t-97 -52.5t-77 23.5
q-12 13 -33 32.5t-36 50.5t-17.5 75t22.5 106l1 1q7 1 22 0t33.5 -3.5t38 -7t34.5 -10t24 -12.5t7 -14q-1 -2 -9 -15.5t-19 -32.5t-23.5 -41t-22 -41.5t-14 -33.5t0.5 -16q30 -16 53 -13.5t45.5 36t48 103.5t60.5 190q42 147 91 243t100 154q-14 -2 -28 -5.5t-29 -6.5
q-42 -9 -83 -27.5t-77 -45t-65 -61t-47 -74.5q-15 -33 -26 -62.5t-13 -53.5t6 -40.5t31 -22.5q7 -2 10 21t4 52.5t0.5 55.5t1.5 29q5 10 26.5 11.5t46.5 -3t47 -12.5t29 -16q-19 -50 -41.5 -82.5t-46.5 -52t-48.5 -28t-48.5 -9.5q-30 -1 -63 12t-55 41.5t-26 72t25 103.5
q24 51 75 88.5t112 64.5t124.5 44.5t113.5 26.5zM525 921q-5 -14 -19.5 -24t-33 -15.5t-39.5 -6.5t-38 4q-16 4 -31 13.5t-25.5 22t-15 26.5t1.5 28q5 13 18.5 23t31.5 16t38.5 7t41.5 -4q14 -3 28.5 -12t25.5 -21.5t16 -27t0 -29.5zM745 921q-5 -14 -19.5 -24t-33 -15.5
t-39.5 -6.5t-38 4q-16 4 -31 13.5t-25.5 22t-15 26.5t1.5 28q5 13 18.5 23t31.5 16t38.5 7t41.5 -4q14 -3 28.5 -12t25.5 -21.5t16 -27t0 -29.5z" />
    <glyph glyph-name="Eth" unicode="&#xd0;" horiz-adv-x="499" 
d="M63 -3q-16 6 -33 20.5t-29 38.5t-16 57.5t7 75.5q5 21 13.5 52t19.5 69q-36 -1 -76 0h-1q-5 9 -2.5 25.5t9.5 33t17.5 28.5t22.5 13h18t41 -1q13 45 26.5 91.5t26 90t23 81t17.5 64.5q-29 -17 -57 -40t-54 -54q-3 -4 -7 8t-7 28.5t-3.5 31.5t2.5 18q13 13 42.5 29
t69.5 30t88 24t97 10q56 0 102 -26.5t73 -78.5t29.5 -128t-28.5 -176q-38 -120 -94.5 -205t-117.5 -136.5t-119.5 -69.5t-99.5 -4zM279 395q-17 -20 -47.5 -37t-75.5 -29q-20 -61 -31 -101.5t-18 -77.5q-5 -26 -11.5 -49.5t-10.5 -41.5t-2 -29.5t15 -11.5q27 -1 61.5 24
t71.5 74.5t73.5 123.5t65.5 172q28 94 36 163.5t-2.5 115.5t-37.5 68.5t-68 22.5q-22 0 -49 -5.5t-56 -17.5q16 -2 35 -6t34 -10t24 -14.5t6 -18.5q-2 -6 -12 -31t-24.5 -63t-32 -87t-35.5 -103l-8 -22q38 -2 66 -2.5t35 -0.5q4 0 -2 -6z" />
    <glyph glyph-name="Ntilde" unicode="&#xd1;" horiz-adv-x="492" 
d="M41 0q-26 -5 -38 -1t-12.5 23t9 55.5t26.5 97.5q42 152 69.5 257.5t45.5 178.5t28.5 122t19.5 88q0 1 13 0t32 -3.5t40.5 -7t39.5 -10.5q16 -3 26 -10t10 -18q-1 -87 -0.5 -166.5t3 -156t7 -152.5t12.5 -156l4 24q15 94 31 189t31 182t28 160.5t23 124.5q0 1 16 0t39 -3
t49 -6.5t47 -10.5t33 -14t7 -17q-24 -44 -52 -97.5t-61 -131t-72 -184.5t-84 -258q-12 -42 -17.5 -71t-6.5 -29l-17 -3.5t-38 -3.5t-39.5 7t-21.5 28t-10.5 75t-16.5 125t-18.5 152.5t-18.5 157.5q-31 -68 -64 -161.5t-67 -222.5q-14 -53 -21 -83.5t-10 -46t-3.5 -19.5z
M620 883q-14 -34 -68.5 -33.5t-139.5 45.5q-49 26 -82 34t-48 -18q-5 -9 -10.5 -15t-8.5 -6t-2.5 7.5t6.5 24.5q7 19 17 37.5t20.5 33t21.5 23.5t20 11q13 2 28.5 -3t33.5 -14t39.5 -20.5t47.5 -22.5q52 -22 74.5 -19.5t9.5 29.5q-5 10 -6.5 17.5t0 10t7.5 -2t16 -19.5
q21 -32 26 -58t-2 -42z" />
    <glyph glyph-name="Ograve" unicode="&#xd2;" horiz-adv-x="482" 
d="M506 371q-33 -105 -82.5 -176.5t-105 -114.5t-111 -61.5t-99.5 -18.5q-39 0 -68.5 38t-44.5 100t-13 140t26 158q33 106 82 178t103 115.5t108 61.5t96 17q29 -1 51 -14t34 -35t11.5 -52t-16.5 -64h-1q16 -18 29 -43t18.5 -58t2 -75.5t-19.5 -95.5zM349 371
q31 107 50.5 173t17.5 98q-18 2 -36.5 7t-32 12.5t-20 15.5t-0.5 16q11 16 24 31.5t19.5 27.5t2.5 18.5t-27 5.5q-31 -2 -55 -26t-45.5 -67.5t-41.5 -105.5t-43 -141q-26 -88 -42 -161.5t-18.5 -126t11 -82t46.5 -29.5q30 0 54.5 23t47 66t44 105t44.5 140zM496 850
q1 -1 1.5 -5t-1 -8t-6 -6.5t-11.5 -0.5q-17 5 -47 20t-61 32.5t-56 34t-32 25.5h-1q6 16 28.5 33.5t47.5 30t45.5 19t22.5 0.5q7 -19 13.5 -45.5t14.5 -52.5t18 -47t24 -30z" />
    <glyph glyph-name="Oacute" unicode="&#xd3;" horiz-adv-x="482" 
d="M506 371q-33 -105 -82.5 -176.5t-105 -114.5t-111 -61.5t-99.5 -18.5q-39 0 -68.5 38t-44.5 100t-13 140t26 158q33 106 82 178t103 115.5t108 61.5t96 17q29 -1 51 -14t34 -35t11.5 -52t-16.5 -64h-1q16 -18 29 -43t18.5 -58t2 -75.5t-19.5 -95.5zM349 371
q31 107 50.5 173t17.5 98q-18 2 -36.5 7t-32 12.5t-20 15.5t-0.5 16q11 16 24 31.5t19.5 27.5t2.5 18.5t-27 5.5q-31 -2 -55 -26t-45.5 -67.5t-41.5 -105.5t-43 -141q-26 -88 -42 -161.5t-18.5 -126t11 -82t46.5 -29.5q30 0 54.5 23t47 66t44 105t44.5 140zM311 829
q-1 -2 -5 -1.5t-8 3t-5.5 7t1.5 11.5q8 16 25 41.5t36 51t37 46t28 25.5v1q15 -9 33.5 -28.5t33 -39.5t22 -35.5t1.5 -16.5q-20 -4 -49 -10t-59 -14t-55 -18t-36 -23z" />
    <glyph glyph-name="Ocircumflex" unicode="&#xd4;" horiz-adv-x="482" 
d="M506 371q-33 -105 -82.5 -176.5t-105 -114.5t-111 -61.5t-99.5 -18.5q-39 0 -68.5 38t-44.5 100t-13 140t26 158q33 106 82 178t103 115.5t108 61.5t96 17q29 -1 51 -14t34 -35t11.5 -52t-16.5 -64h-1q16 -18 29 -43t18.5 -58t2 -75.5t-19.5 -95.5zM349 371
q31 107 50.5 173t17.5 98q-18 2 -36.5 7t-32 12.5t-20 15.5t-0.5 16q11 16 24 31.5t19.5 27.5t2.5 18.5t-27 5.5q-31 -2 -55 -26t-45.5 -67.5t-41.5 -105.5t-43 -141q-26 -88 -42 -161.5t-18.5 -126t11 -82t46.5 -29.5q30 0 54.5 23t47 66t44 105t44.5 140zM262 851
q-8 -2 -12 -0.5t-5.5 5t-1.5 6.5t2 4q15 8 40.5 26t54.5 40.5t57 47.5t47 48q6 7 21 -4t35 -35t42.5 -58t42.5 -73q0 -1 1 -1q-9 -15 -34.5 -24t-53 -12.5t-49 -1.5t-22.5 8q-5 26 -11.5 49.5t-22.5 47.5q-12 -8 -28 -18.5t-33.5 -21t-35.5 -20t-34 -13.5z" />
    <glyph glyph-name="Otilde" unicode="&#xd5;" horiz-adv-x="482" 
d="M506 371q-33 -105 -82.5 -176.5t-105 -114.5t-111 -61.5t-99.5 -18.5q-39 0 -68.5 38t-44.5 100t-13 140t26 158q33 106 82 178t103 115.5t108 61.5t96 17q29 -1 51 -14t34 -35t11.5 -52t-16.5 -64h-1q16 -18 29 -43t18.5 -58t2 -75.5t-19.5 -95.5zM349 371
q31 107 50.5 173t17.5 98q-18 2 -36.5 7t-32 12.5t-20 15.5t-0.5 16q11 16 24 31.5t19.5 27.5t2.5 18.5t-27 5.5q-31 -2 -55 -26t-45.5 -67.5t-41.5 -105.5t-43 -141q-26 -88 -42 -161.5t-18.5 -126t11 -82t46.5 -29.5q30 0 54.5 23t47 66t44 105t44.5 140zM602 822
q-14 -34 -68.5 -33.5t-139.5 45.5q-49 26 -82 34t-48 -18q-5 -9 -10.5 -15t-8.5 -6t-2.5 7.5t6.5 24.5q7 19 17 37.5t20.5 33t21.5 23.5t20 11q13 2 28.5 -3t33.5 -14t39.5 -20.5t47.5 -22.5q52 -22 74.5 -19.5t9.5 29.5q-5 10 -6.5 17.5t0 10t7.5 -2t16 -19.5
q21 -32 26 -58t-2 -42z" />
    <glyph glyph-name="Odieresis" unicode="&#xd6;" horiz-adv-x="482" 
d="M506 371q-33 -105 -82.5 -176.5t-105 -114.5t-111 -61.5t-99.5 -18.5q-39 0 -68.5 38t-44.5 100t-13 140t26 158q33 106 82 178t103 115.5t108 61.5t96 17q29 -1 51 -14t34 -35t11.5 -52t-16.5 -64h-1q16 -18 29 -43t18.5 -58t2 -75.5t-19.5 -95.5zM349 371
q31 107 50.5 173t17.5 98q-18 2 -36.5 7t-32 12.5t-20 15.5t-0.5 16q11 16 24 31.5t19.5 27.5t2.5 18.5t-27 5.5q-31 -2 -55 -26t-45.5 -67.5t-41.5 -105.5t-43 -141q-26 -88 -42 -161.5t-18.5 -126t11 -82t46.5 -29.5q30 0 54.5 23t47 66t44 105t44.5 140zM399 875
q-5 -14 -19.5 -24t-33 -15.5t-39.5 -6.5t-38 4q-16 4 -31 13.5t-25.5 22t-15 26.5t1.5 28q5 13 18.5 23t31.5 16t38.5 7t41.5 -4q14 -3 28.5 -12t25.5 -21.5t16 -27t0 -29.5zM619 875q-5 -14 -19.5 -24t-33 -15.5t-39.5 -6.5t-38 4q-16 4 -31 13.5t-25.5 22t-15 26.5t1.5 28
q5 13 18.5 23t31.5 16t38.5 7t41.5 -4q14 -3 28.5 -12t25.5 -21.5t16 -27t0 -29.5z" />
    <glyph glyph-name="multiply" unicode="&#xd7;" horiz-adv-x="329" 
d="M41 175q4 20 15 42.5t31 47.5q-17 14 -35 30.5t-36 36.5l-1 1q3 10 17.5 23t32.5 23.5t35 15t26 -3.5l45 -47q23 17 49.5 34t58.5 34v1q9 -6 19.5 -22.5t18 -35t9 -35.5t-8.5 -23q-2 -2 -22 -11t-49 -23q27 -29 49 -52t27 -28q3 -3 -6 -3q-30 -3 -71.5 5.5t-91.5 35.5
l-110 -52q-1 0 -2 0.5t0 5.5z" />
    <glyph glyph-name="Oslash" unicode="&#xd8;" horiz-adv-x="482" 
d="M506 371q-33 -105 -82.5 -176.5t-105 -114.5t-111 -61.5t-99.5 -18.5q-39 0 -68.5 38t-44.5 100t-13 140t26 158q33 106 82 178t103 115.5t108 61.5t96 17q29 -1 51 -14t34 -35t11.5 -52t-16.5 -64h-1q16 -18 29 -43t18.5 -58t2 -75.5t-19.5 -95.5zM349 371
q31 107 50.5 173t17.5 98q-18 2 -36.5 7t-32 12.5t-20 15.5t-0.5 16q11 16 24 31.5t19.5 27.5t2.5 18.5t-27 5.5q-31 -2 -55 -26t-45.5 -67.5t-41.5 -105.5t-43 -141q-26 -88 -42 -161.5t-18.5 -126t11 -82t46.5 -29.5q30 0 54.5 23t47 66t44 105t44.5 140zM165 -81
q-11 -2 -17.5 2.5t-8 24t3 57.5t16.5 103q5 30 14 91t19 137.5t21.5 160.5t22 159t19 134t14.5 85q0 1 13.5 1t33 -1t41.5 -4t40.5 -8t29 -12.5t7.5 -17.5q-2 -6 -22.5 -48t-53 -130t-74 -227.5t-84.5 -338.5q-12 -54 -18.5 -87t-10.5 -51q-4 -21 -6 -30z" />
    <glyph glyph-name="Ugrave" unicode="&#xd9;" horiz-adv-x="447" 
d="M253 196q7 28 16 68.5t19.5 86t22.5 93.5t26 91l24.5 80.5t19.5 65t17 62t17 71.5q0 1 13.5 1t32.5 -1t41 -4t39.5 -8.5t27.5 -14t5 -20.5q-1 -2 -10 -24.5t-23 -60t-31.5 -86t-35.5 -101.5q-18 -54 -37 -109t-35.5 -104.5t-28.5 -90t-16 -65.5q-8 -45 3 -50t38 15
q14 11 33.5 43.5t45.5 80.5q14 26 18.5 30t4.5 -10q0 -5 -2.5 -15t-11.5 -26q-23 -40 -47 -77.5t-48 -63.5q-28 -30 -56 -47t-46 -9q-16 6 -27 27.5t-16 53.5q-34 -35 -70.5 -56.5t-72.5 -21.5q-43 0 -74 30.5t-44.5 87.5t-7.5 137.5t36 180.5q24 81 40 138t27.5 100t19 77
t13.5 70q0 1 13.5 0.5t33.5 -2.5t42.5 -6t41 -10t29.5 -14.5t8 -18.5q-12 -38 -25 -73t-27.5 -73.5t-30 -84t-32.5 -103.5q-27 -94 -40.5 -164.5t-15 -118.5t7 -73t25.5 -28q18 -4 45 10t56 43q-1 21 1 44t8 47zM417 852q1 -1 1.5 -5t-1 -8t-6 -6.5t-11.5 -0.5q-17 5 -47 20
t-61 32.5t-56 34t-32 25.5h-1q6 16 28.5 33.5t47.5 30t45.5 19t22.5 0.5q7 -19 13.5 -45.5t14.5 -52.5t18 -47t24 -30z" />
    <glyph glyph-name="Uacute" unicode="&#xda;" horiz-adv-x="447" 
d="M253 196q7 28 16 68.5t19.5 86t22.5 93.5t26 91l24.5 80.5t19.5 65t17 62t17 71.5q0 1 13.5 1t32.5 -1t41 -4t39.5 -8.5t27.5 -14t5 -20.5q-1 -2 -10 -24.5t-23 -60t-31.5 -86t-35.5 -101.5q-18 -54 -37 -109t-35.5 -104.5t-28.5 -90t-16 -65.5q-8 -45 3 -50t38 15
q14 11 33.5 43.5t45.5 80.5q14 26 18.5 30t4.5 -10q0 -5 -2.5 -15t-11.5 -26q-23 -40 -47 -77.5t-48 -63.5q-28 -30 -56 -47t-46 -9q-16 6 -27 27.5t-16 53.5q-34 -35 -70.5 -56.5t-72.5 -21.5q-43 0 -74 30.5t-44.5 87.5t-7.5 137.5t36 180.5q24 81 40 138t27.5 100t19 77
t13.5 70q0 1 13.5 0.5t33.5 -2.5t42.5 -6t41 -10t29.5 -14.5t8 -18.5q-12 -38 -25 -73t-27.5 -73.5t-30 -84t-32.5 -103.5q-27 -94 -40.5 -164.5t-15 -118.5t7 -73t25.5 -28q18 -4 45 10t56 43q-1 21 1 44t8 47zM340 823q-1 -2 -5 -1.5t-8 3t-5.5 7t1.5 11.5q8 16 25 41.5
t36 51t37 46t28 25.5v1q15 -9 33.5 -28.5t33 -39.5t22 -35.5t1.5 -16.5q-20 -4 -49 -10t-59 -14t-55 -18t-36 -23z" />
    <glyph glyph-name="Ucircumflex" unicode="&#xdb;" horiz-adv-x="447" 
d="M253 196q7 28 16 68.5t19.5 86t22.5 93.5t26 91l24.5 80.5t19.5 65t17 62t17 71.5q0 1 13.5 1t32.5 -1t41 -4t39.5 -8.5t27.5 -14t5 -20.5q-1 -2 -10 -24.5t-23 -60t-31.5 -86t-35.5 -101.5q-18 -54 -37 -109t-35.5 -104.5t-28.5 -90t-16 -65.5q-8 -45 3 -50t38 15
q14 11 33.5 43.5t45.5 80.5q14 26 18.5 30t4.5 -10q0 -5 -2.5 -15t-11.5 -26q-23 -40 -47 -77.5t-48 -63.5q-28 -30 -56 -47t-46 -9q-16 6 -27 27.5t-16 53.5q-34 -35 -70.5 -56.5t-72.5 -21.5q-43 0 -74 30.5t-44.5 87.5t-7.5 137.5t36 180.5q24 81 40 138t27.5 100t19 77
t13.5 70q0 1 13.5 0.5t33.5 -2.5t42.5 -6t41 -10t29.5 -14.5t8 -18.5q-12 -38 -25 -73t-27.5 -73.5t-30 -84t-32.5 -103.5q-27 -94 -40.5 -164.5t-15 -118.5t7 -73t25.5 -28q18 -4 45 10t56 43q-1 21 1 44t8 47zM237 881q-8 -2 -12 -0.5t-5.5 5t-1.5 6.5t2 4q15 8 40.5 26
t54.5 40.5t57 47.5t47 48q6 7 21 -4t35 -35t42.5 -58t42.5 -73q0 -1 1 -1q-9 -15 -34.5 -24t-53 -12.5t-49 -1.5t-22.5 8q-5 26 -11.5 49.5t-22.5 47.5q-12 -8 -28 -18.5t-33.5 -21t-35.5 -20t-34 -13.5z" />
    <glyph glyph-name="Udieresis" unicode="&#xdc;" horiz-adv-x="447" 
d="M253 196q7 28 16 68.5t19.5 86t22.5 93.5t26 91l24.5 80.5t19.5 65t17 62t17 71.5q0 1 13.5 1t32.5 -1t41 -4t39.5 -8.5t27.5 -14t5 -20.5q-1 -2 -10 -24.5t-23 -60t-31.5 -86t-35.5 -101.5q-18 -54 -37 -109t-35.5 -104.5t-28.5 -90t-16 -65.5q-8 -45 3 -50t38 15
q14 11 33.5 43.5t45.5 80.5q14 26 18.5 30t4.5 -10q0 -5 -2.5 -15t-11.5 -26q-23 -40 -47 -77.5t-48 -63.5q-28 -30 -56 -47t-46 -9q-16 6 -27 27.5t-16 53.5q-34 -35 -70.5 -56.5t-72.5 -21.5q-43 0 -74 30.5t-44.5 87.5t-7.5 137.5t36 180.5q24 81 40 138t27.5 100t19 77
t13.5 70q0 1 13.5 0.5t33.5 -2.5t42.5 -6t41 -10t29.5 -14.5t8 -18.5q-12 -38 -25 -73t-27.5 -73.5t-30 -84t-32.5 -103.5q-27 -94 -40.5 -164.5t-15 -118.5t7 -73t25.5 -28q18 -4 45 10t56 43q-1 21 1 44t8 47zM380 895q-5 -14 -19.5 -24t-33 -15.5t-39.5 -6.5t-38 4
q-16 4 -31 13.5t-25.5 22t-15 26.5t1.5 28q5 13 18.5 23t31.5 16t38.5 7t41.5 -4q14 -3 28.5 -12t25.5 -21.5t16 -27t0 -29.5zM600 895q-5 -14 -19.5 -24t-33 -15.5t-39.5 -6.5t-38 4q-16 4 -31 13.5t-25.5 22t-15 26.5t1.5 28q5 13 18.5 23t31.5 16t38.5 7t41.5 -4
q14 -3 28.5 -12t25.5 -21.5t16 -27t0 -29.5z" />
    <glyph glyph-name="Yacute" unicode="&#xdd;" horiz-adv-x="483" 
d="M328 770q-12 -38 -25 -73t-27.5 -73.5t-30 -84t-32.5 -103.5q-55 -188 -63 -283t25 -101q29 -6 58.5 29.5t57.5 108.5q20 61 39 125t36.5 126.5t32.5 120.5t27.5 107t21.5 86.5t14 58.5q0 1 13.5 1t32.5 -1t41 -4t39.5 -8.5t27.5 -14t5 -20.5q-1 -1 -12.5 -36.5
t-30.5 -95t-44 -136t-52.5 -159.5t-55.5 -166.5t-53 -156.5q-34 -99 -81 -159.5t-94.5 -89t-89.5 -27.5t-66 25q-14 14 -28.5 35t-23 47.5t-9 57t13.5 63.5v1q10 1 36 -1.5t52.5 -9t45 -15.5t15.5 -20q-1 -2 -9 -11t-20 -21.5t-25.5 -27t-23.5 -27t-15 -22t0 -11.5
q34 -17 82.5 39t96.5 174l22 59q-24 -35 -53 -55.5t-64 -20.5q-33 0 -58.5 30.5t-37 87.5t-5.5 137.5t36 180.5q24 81 40.5 138t27.5 100t18.5 77t13.5 70q0 1 13 0.5t31.5 -2.5t40 -6t39 -10t27.5 -14.5t7 -18.5zM377 846q-1 -2 -5 -1.5t-8 3t-5.5 7t1.5 11.5q8 16 25 41.5
t36 51t37 46t28 25.5v1q15 -9 33.5 -28.5t33 -39.5t22 -35.5t1.5 -16.5q-20 -4 -49 -10t-59 -14t-55 -18t-36 -23z" />
    <glyph glyph-name="Thorn" unicode="&#xde;" horiz-adv-x="464" 
d="M101 -7q-26 -5 -46 -1t-29.5 22.5t-8 55t18.5 97.5q34 124 59.5 216t43.5 161q-34 -29 -67.5 -64t-63.5 -72q-3 -4 -5.5 14t-3.5 42t0 45.5t4 24.5q21 22 62.5 49.5t97.5 48.5q16 61 26.5 103.5t18.5 78.5q0 1 11.5 0.5t28 -3t35.5 -6.5t34 -10t24 -14t6 -18
q-2 -5 -11.5 -29t-26.5 -72h11q48 0 92.5 -15.5t75 -46.5t41 -76t-8.5 -105q-16 -48 -53 -92t-86.5 -79t-108 -61t-116.5 -38q-1 -1 -1 -3q-14 -54 -24 -83.5t-17 -45.5q-8 -18 -13 -24zM297 628q-23 -69 -56 -176.5t-76 -265.5q41 10 76.5 32.5t63.5 53.5t48.5 68.5
t32.5 78.5q18 58 20 97.5t-9.5 64.5t-36 36t-60.5 11h-3z" />
    <glyph glyph-name="germandbls" unicode="&#xdf;" horiz-adv-x="463" 
d="M208 290q10 1 25.5 -5t29 -16t22 -22.5t5.5 -23.5q-1 -2 -11 -14.5t-24 -30.5t-29.5 -39t-27.5 -39t-18.5 -31.5t-1.5 -15.5q15 -8 34.5 0t38.5 29.5t37 55.5t30 78q12 42 9 66t-15 37t-29.5 17t-33.5 6h-19q-11 0 -13 3.5t1.5 8t9.5 8t11 3.5q24 0 40.5 16t28.5 42.5
t21.5 60.5t19.5 69q8 29 13 53.5t4.5 42t-8.5 27.5t-26 10q-26 0 -47.5 -58.5t-50.5 -157.5q-4 -13 -17 -55t-29 -95t-33 -109t-30 -96q-2 -6 -8.5 -26.5t-15.5 -50.5t-19.5 -67t-19.5 -76q0 -1 -12 -1.5t-29 1t-36 4t-34.5 8t-24 14t-3.5 20.5q1 1 6.5 11t16.5 34
t26.5 64.5t35.5 103.5q8 24 20.5 65.5t26 85.5t26 84.5t18.5 61.5q21 71 49 121t61.5 81t70 45t73.5 14q35 0 62 -12t43.5 -33t20.5 -50t-6 -64q-26 -82 -63.5 -125.5t-78.5 -63.5q28 -4 53 -14t41.5 -27.5t22 -43.5t-5.5 -63q-23 -75 -62.5 -122t-80.5 -70t-77 -24.5
t-52 15.5q-13 13 -18 34t-1 54t17.5 78.5t38.5 107.5z" />
    <glyph glyph-name="agrave" unicode="&#xe0;" horiz-adv-x="412" 
d="M238 197q-9 -26 -18 -60t-22.5 -64.5t-32.5 -51.5t-47 -21q-30 0 -57 22.5t-43.5 59t-20 84t11.5 97.5q23 75 62 128.5t79.5 84t75.5 38t50 -9.5q11 -13 21 -27.5t17 -28.5q17 -2 38.5 -6t40.5 -10t31 -13.5t9 -16.5q-1 -3 -13 -28t-27.5 -63.5t-31 -87t-23.5 -97.5
q-5 -28 -7.5 -44t-1.5 -22t6 -3.5t17 11.5q9 7 20 22t24 34.5t26.5 43t25.5 47.5q14 26 19 30t5 -10q0 -5 -3 -15t-12 -26q-23 -40 -46.5 -77.5t-48.5 -63.5q-56 -61 -92 -46q-13 6 -22.5 24t-14.5 44.5t-4 58t10 63.5q1 4 0.5 3.5t-1.5 -3.5zM284 431q2 6 3 9.5t2 5.5
q-5 6 -10.5 11.5t-10.5 8.5q-15 8 -29 -6t-26.5 -43.5t-25 -69.5t-24.5 -84q-13 -44 -21.5 -81t-11 -64t1.5 -42t18 -15q13 0 21 9.5t15.5 31.5t17 56t24.5 84q18 61 33 110t23 79zM401 539q1 -1 1.5 -5t-1 -8t-6 -6.5t-11.5 -0.5q-17 5 -47 20t-61 32.5t-56 34t-32 25.5h-1
q6 16 28.5 33.5t47.5 30t45.5 19t22.5 0.5q7 -19 13.5 -45.5t14.5 -52.5t18 -47t24 -30z" />
    <glyph glyph-name="aacute" unicode="&#xe1;" horiz-adv-x="412" 
d="M238 197q-9 -26 -18 -60t-22.5 -64.5t-32.5 -51.5t-47 -21q-30 0 -57 22.5t-43.5 59t-20 84t11.5 97.5q23 75 62 128.5t79.5 84t75.5 38t50 -9.5q11 -13 21 -27.5t17 -28.5q17 -2 38.5 -6t40.5 -10t31 -13.5t9 -16.5q-1 -3 -13 -28t-27.5 -63.5t-31 -87t-23.5 -97.5
q-5 -28 -7.5 -44t-1.5 -22t6 -3.5t17 11.5q9 7 20 22t24 34.5t26.5 43t25.5 47.5q14 26 19 30t5 -10q0 -5 -3 -15t-12 -26q-23 -40 -46.5 -77.5t-48.5 -63.5q-56 -61 -92 -46q-13 6 -22.5 24t-14.5 44.5t-4 58t10 63.5q1 4 0.5 3.5t-1.5 -3.5zM284 431q2 6 3 9.5t2 5.5
q-5 6 -10.5 11.5t-10.5 8.5q-15 8 -29 -6t-26.5 -43.5t-25 -69.5t-24.5 -84q-13 -44 -21.5 -81t-11 -64t1.5 -42t18 -15q13 0 21 9.5t15.5 31.5t17 56t24.5 84q18 61 33 110t23 79zM241 533q-1 -2 -5 -1.5t-8 3t-5.5 7t1.5 11.5q8 16 25 41.5t36 51t37 46t28 25.5v1
q15 -9 33.5 -28.5t33 -39.5t22 -35.5t1.5 -16.5q-20 -4 -49 -10t-59 -14t-55 -18t-36 -23z" />
    <glyph glyph-name="acircumflex" unicode="&#xe2;" horiz-adv-x="412" 
d="M238 197q-9 -26 -18 -60t-22.5 -64.5t-32.5 -51.5t-47 -21q-30 0 -57 22.5t-43.5 59t-20 84t11.5 97.5q23 75 62 128.5t79.5 84t75.5 38t50 -9.5q11 -13 21 -27.5t17 -28.5q17 -2 38.5 -6t40.5 -10t31 -13.5t9 -16.5q-1 -3 -13 -28t-27.5 -63.5t-31 -87t-23.5 -97.5
q-5 -28 -7.5 -44t-1.5 -22t6 -3.5t17 11.5q9 7 20 22t24 34.5t26.5 43t25.5 47.5q14 26 19 30t5 -10q0 -5 -3 -15t-12 -26q-23 -40 -46.5 -77.5t-48.5 -63.5q-56 -61 -92 -46q-13 6 -22.5 24t-14.5 44.5t-4 58t10 63.5q1 4 0.5 3.5t-1.5 -3.5zM284 431q2 6 3 9.5t2 5.5
q-5 6 -10.5 11.5t-10.5 8.5q-15 8 -29 -6t-26.5 -43.5t-25 -69.5t-24.5 -84q-13 -44 -21.5 -81t-11 -64t1.5 -42t18 -15q13 0 21 9.5t15.5 31.5t17 56t24.5 84q18 61 33 110t23 79zM184 547q-8 -2 -12 -0.5t-5.5 5t-1.5 6.5t2 4q15 8 40.5 26t54.5 40.5t57 47.5t47 48
q6 7 21 -4t35 -35t42.5 -58t42.5 -73q0 -1 1 -1q-9 -15 -34.5 -24t-53 -12.5t-49 -1.5t-22.5 8q-5 26 -11.5 49.5t-22.5 47.5q-12 -8 -28 -18.5t-33.5 -21t-35.5 -20t-34 -13.5z" />
    <glyph glyph-name="atilde" unicode="&#xe3;" horiz-adv-x="412" 
d="M238 197q-9 -26 -18 -60t-22.5 -64.5t-32.5 -51.5t-47 -21q-30 0 -57 22.5t-43.5 59t-20 84t11.5 97.5q23 75 62 128.5t79.5 84t75.5 38t50 -9.5q11 -13 21 -27.5t17 -28.5q17 -2 38.5 -6t40.5 -10t31 -13.5t9 -16.5q-1 -3 -13 -28t-27.5 -63.5t-31 -87t-23.5 -97.5
q-5 -28 -7.5 -44t-1.5 -22t6 -3.5t17 11.5q9 7 20 22t24 34.5t26.5 43t25.5 47.5q14 26 19 30t5 -10q0 -5 -3 -15t-12 -26q-23 -40 -46.5 -77.5t-48.5 -63.5q-56 -61 -92 -46q-13 6 -22.5 24t-14.5 44.5t-4 58t10 63.5q1 4 0.5 3.5t-1.5 -3.5zM284 431q2 6 3 9.5t2 5.5
q-5 6 -10.5 11.5t-10.5 8.5q-15 8 -29 -6t-26.5 -43.5t-25 -69.5t-24.5 -84q-13 -44 -21.5 -81t-11 -64t1.5 -42t18 -15q13 0 21 9.5t15.5 31.5t17 56t24.5 84q18 61 33 110t23 79zM498 555q-14 -34 -68.5 -33.5t-139.5 45.5q-49 26 -82 34t-48 -18q-5 -9 -10.5 -15t-8.5 -6
t-2.5 7.5t6.5 24.5q7 19 17 37.5t20.5 33t21.5 23.5t20 11q13 2 28.5 -3t33.5 -14t39.5 -20.5t47.5 -22.5q52 -22 74.5 -19.5t9.5 29.5q-5 10 -6.5 17.5t0 10t7.5 -2t16 -19.5q21 -32 26 -58t-2 -42z" />
    <glyph glyph-name="adieresis" unicode="&#xe4;" horiz-adv-x="412" 
d="M238 197q-9 -26 -18 -60t-22.5 -64.5t-32.5 -51.5t-47 -21q-30 0 -57 22.5t-43.5 59t-20 84t11.5 97.5q23 75 62 128.5t79.5 84t75.5 38t50 -9.5q11 -13 21 -27.5t17 -28.5q17 -2 38.5 -6t40.5 -10t31 -13.5t9 -16.5q-1 -3 -13 -28t-27.5 -63.5t-31 -87t-23.5 -97.5
q-5 -28 -7.5 -44t-1.5 -22t6 -3.5t17 11.5q9 7 20 22t24 34.5t26.5 43t25.5 47.5q14 26 19 30t5 -10q0 -5 -3 -15t-12 -26q-23 -40 -46.5 -77.5t-48.5 -63.5q-56 -61 -92 -46q-13 6 -22.5 24t-14.5 44.5t-4 58t10 63.5q1 4 0.5 3.5t-1.5 -3.5zM284 431q2 6 3 9.5t2 5.5
q-5 6 -10.5 11.5t-10.5 8.5q-15 8 -29 -6t-26.5 -43.5t-25 -69.5t-24.5 -84q-13 -44 -21.5 -81t-11 -64t1.5 -42t18 -15q13 0 21 9.5t15.5 31.5t17 56t24.5 84q18 61 33 110t23 79zM290 581q-5 -14 -19.5 -24t-33 -15.5t-39.5 -6.5t-38 4q-16 4 -31 13.5t-25.5 22t-15 26.5
t1.5 28q5 13 18.5 23t31.5 16t38.5 7t41.5 -4q14 -3 28.5 -12t25.5 -21.5t16 -27t0 -29.5zM510 581q-5 -14 -19.5 -24t-33 -15.5t-39.5 -6.5t-38 4q-16 4 -31 13.5t-25.5 22t-15 26.5t1.5 28q5 13 18.5 23t31.5 16t38.5 7t41.5 -4q14 -3 28.5 -12t25.5 -21.5t16 -27t0 -29.5
z" />
    <glyph glyph-name="aring" unicode="&#xe5;" horiz-adv-x="412" 
d="M238 197q-9 -26 -18 -60t-22.5 -64.5t-32.5 -51.5t-47 -21q-30 0 -57 22.5t-43.5 59t-20 84t11.5 97.5q23 75 62 128.5t79.5 84t75.5 38t50 -9.5q11 -13 21 -27.5t17 -28.5q17 -2 38.5 -6t40.5 -10t31 -13.5t9 -16.5q-1 -3 -13 -28t-27.5 -63.5t-31 -87t-23.5 -97.5
q-5 -28 -7.5 -44t-1.5 -22t6 -3.5t17 11.5q9 7 20 22t24 34.5t26.5 43t25.5 47.5q14 26 19 30t5 -10q0 -5 -3 -15t-12 -26q-23 -40 -46.5 -77.5t-48.5 -63.5q-56 -61 -92 -46q-13 6 -22.5 24t-14.5 44.5t-4 58t10 63.5q1 4 0.5 3.5t-1.5 -3.5zM284 431q2 6 3 9.5t2 5.5
q-5 6 -10.5 11.5t-10.5 8.5q-15 8 -29 -6t-26.5 -43.5t-25 -69.5t-24.5 -84q-13 -44 -21.5 -81t-11 -64t1.5 -42t18 -15q13 0 21 9.5t15.5 31.5t17 56t24.5 84q18 61 33 110t23 79zM361 674q21 -3 40.5 -15t33.5 -27t19 -31t-2 -27q-8 -11 -20.5 -21.5t-30.5 -17.5t-41 -10
t-51 1q-26 3 -46 15t-32 27t-16 30.5t4 26.5q7 11 22 21.5t34 17.5t41.5 10t44.5 0zM359 569q11 15 11 33.5t-8 33.5t-24 12.5t-27 -17.5t-11 -34t8 -34q9 -15 24.5 -12t26.5 18z" />
    <glyph glyph-name="ae" unicode="&#xe6;" horiz-adv-x="577" 
d="M621 400q-4 -23 -28.5 -49t-61 -53.5t-80.5 -56.5t-88 -57q-8 -57 -0.5 -92t32.5 -40q16 -3 42.5 7t56 31t59 52.5t50.5 72.5q14 26 19 30t5 -10q0 -5 -3 -15t-12 -26q-21 -38 -52.5 -73t-66.5 -62t-71 -43t-67 -16q-41 0 -73.5 31.5t-46.5 82.5q-11 -22 -23.5 -42.5
t-27 -36.5t-31 -25.5t-34.5 -9.5q-31 0 -57.5 22.5t-43.5 59t-20.5 84t11.5 97.5q23 75 66.5 128.5t90 84t86 38t55.5 -9.5q11 -13 21 -28.5t17 -29.5q3 0 5 -1q27 24 53.5 40t50.5 23.5t42.5 6.5t28.5 -11q5 -5 21.5 -16t34 -25t30.5 -30.5t10 -32.5zM258 318l9.5 19
t9.5 17q12 23 22.5 42.5t15.5 34.5q2 5 3 8.5t1 5.5q-5 7 -10.5 12.5t-10.5 8.5q-15 8 -33.5 -6t-36.5 -43.5t-35 -69.5t-30 -84t-21.5 -81t-11 -64t2 -42t17.5 -15t21.5 9.5t16 31.5t16.5 56t24 84q6 20 14 39.5t16 36.5zM381 263q-8 -24 -12 -45q39 36 71 77.5t52.5 78.5
t27.5 63t-4 32q-15 8 -33.5 -7t-36.5 -44.5t-35 -70t-30 -84.5z" />
    <glyph glyph-name="ccedilla" unicode="&#xe7;" horiz-adv-x="342" 
d="M317 249q-11 -2 -32 1t-41.5 9.5t-34.5 16t-11 20.5q1 2 10 14.5t22 30.5t27.5 39t25.5 39t16.5 31t0.5 16q-15 8 -33.5 -6.5t-37 -43.5t-35.5 -69t-29 -84q-13 -44 -20 -81.5t-7 -65t7.5 -44.5t23.5 -20q19 -3 45 7t53 31t53.5 52.5t47.5 72.5q14 26 19 30t5 -10
q0 -5 -3 -15t-12 -26q-22 -38 -49.5 -73t-59.5 -62t-67.5 -43t-71.5 -16q-34 0 -62.5 22.5t-46 59t-21 84t11.5 97.5q23 75 66 128t89 84t85.5 38t56.5 -9q13 -13 25.5 -31t17 -47t-1.5 -72t-31 -104zM144 1q-7 -16 -3 -17.5t10 -2.5q30 -4 54.5 -15t41.5 -26.5t25 -35.5
t4 -43q-3 -19 -14 -38t-30 -35t-45.5 -27.5t-60.5 -15.5q-17 -2 -25.5 18t-9 45t6 46.5t20.5 23.5q27 3 37.5 13.5t10.5 24.5t-7.5 23.5t-36.5 19.5q-14 4 -14 13.5t13 33.5q10 19 20.5 17t2.5 -22z" />
    <glyph glyph-name="egrave" unicode="&#xe8;" horiz-adv-x="351" 
d="M395 400q-4 -23 -28.5 -53t-60.5 -62t-80.5 -65t-89.5 -63q-1 -45 12.5 -72.5t40.5 -32.5q16 -3 42.5 7t56 31t59 52.5t50.5 72.5q14 26 19 30t5 -10q0 -5 -3 -15t-12 -26q-22 -38 -52.5 -73t-65.5 -62t-73.5 -43t-75.5 -16q-41 0 -73 22.5t-51.5 59t-24 84t10.5 97.5
q23 75 66.5 128t89 84t85.5 38t57 -9q5 -5 21.5 -16t34 -25t30.5 -30.5t10 -32.5zM155 263q-10 -35 -15 -67q40 37 72.5 82.5t53.5 86t28 69.5t-4 35q-15 8 -33.5 -7t-36.5 -44.5t-35 -70t-30 -84.5zM388 568q1 -1 1.5 -5t-1 -8t-6 -6.5t-11.5 -0.5q-17 5 -47 20t-61 32.5
t-56 34t-32 25.5h-1q6 16 28.5 33.5t47.5 30t45.5 19t22.5 0.5q7 -19 13.5 -45.5t14.5 -52.5t18 -47t24 -30z" />
    <glyph glyph-name="eacute" unicode="&#xe9;" horiz-adv-x="351" 
d="M395 400q-4 -23 -28.5 -53t-60.5 -62t-80.5 -65t-89.5 -63q-1 -45 12.5 -72.5t40.5 -32.5q16 -3 42.5 7t56 31t59 52.5t50.5 72.5q14 26 19 30t5 -10q0 -5 -3 -15t-12 -26q-22 -38 -52.5 -73t-65.5 -62t-73.5 -43t-75.5 -16q-41 0 -73 22.5t-51.5 59t-24 84t10.5 97.5
q23 75 66.5 128t89 84t85.5 38t57 -9q5 -5 21.5 -16t34 -25t30.5 -30.5t10 -32.5zM155 263q-10 -35 -15 -67q40 37 72.5 82.5t53.5 86t28 69.5t-4 35q-15 8 -33.5 -7t-36.5 -44.5t-35 -70t-30 -84.5zM218 533q-1 -2 -5 -1.5t-8 3t-5.5 7t1.5 11.5q8 16 25 41.5t36 51t37 46
t28 25.5v1q15 -9 33.5 -28.5t33 -39.5t22 -35.5t1.5 -16.5q-20 -4 -49 -10t-59 -14t-55 -18t-36 -23z" />
    <glyph glyph-name="ecircumflex" unicode="&#xea;" horiz-adv-x="351" 
d="M395 400q-4 -23 -28.5 -53t-60.5 -62t-80.5 -65t-89.5 -63q-1 -45 12.5 -72.5t40.5 -32.5q16 -3 42.5 7t56 31t59 52.5t50.5 72.5q14 26 19 30t5 -10q0 -5 -3 -15t-12 -26q-22 -38 -52.5 -73t-65.5 -62t-73.5 -43t-75.5 -16q-41 0 -73 22.5t-51.5 59t-24 84t10.5 97.5
q23 75 66.5 128t89 84t85.5 38t57 -9q5 -5 21.5 -16t34 -25t30.5 -30.5t10 -32.5zM155 263q-10 -35 -15 -67q40 37 72.5 82.5t53.5 86t28 69.5t-4 35q-15 8 -33.5 -7t-36.5 -44.5t-35 -70t-30 -84.5zM157 550q-8 -2 -12 -0.5t-5.5 5t-1.5 6.5t2 4q15 8 40.5 26t54.5 40.5
t57 47.5t47 48q6 7 21 -4t35 -35t42.5 -58t42.5 -73q0 -1 1 -1q-9 -15 -34.5 -24t-53 -12.5t-49 -1.5t-22.5 8q-5 26 -11.5 49.5t-22.5 47.5q-12 -8 -28 -18.5t-33.5 -21t-35.5 -20t-34 -13.5z" />
    <glyph glyph-name="edieresis" unicode="&#xeb;" horiz-adv-x="351" 
d="M395 400q-4 -23 -28.5 -53t-60.5 -62t-80.5 -65t-89.5 -63q-1 -45 12.5 -72.5t40.5 -32.5q16 -3 42.5 7t56 31t59 52.5t50.5 72.5q14 26 19 30t5 -10q0 -5 -3 -15t-12 -26q-22 -38 -52.5 -73t-65.5 -62t-73.5 -43t-75.5 -16q-41 0 -73 22.5t-51.5 59t-24 84t10.5 97.5
q23 75 66.5 128t89 84t85.5 38t57 -9q5 -5 21.5 -16t34 -25t30.5 -30.5t10 -32.5zM155 263q-10 -35 -15 -67q40 37 72.5 82.5t53.5 86t28 69.5t-4 35q-15 8 -33.5 -7t-36.5 -44.5t-35 -70t-30 -84.5zM279 581q-5 -14 -19.5 -24t-33 -15.5t-39.5 -6.5t-38 4q-16 4 -31 13.5
t-25.5 22t-15 26.5t1.5 28q5 13 18.5 23t31.5 16t38.5 7t41.5 -4q14 -3 28.5 -12t25.5 -21.5t16 -27t0 -29.5zM499 581q-5 -14 -19.5 -24t-33 -15.5t-39.5 -6.5t-38 4q-16 4 -31 13.5t-25.5 22t-15 26.5t1.5 28q5 13 18.5 23t31.5 16t38.5 7t41.5 -4q14 -3 28.5 -12
t25.5 -21.5t16 -27t0 -29.5z" />
    <glyph glyph-name="igrave" unicode="&#xec;" horiz-adv-x="218" 
d="M12 242q18 61 33 110t23 79q2 5 2.5 8t1.5 5q1 3 2 4q7 1 21.5 0t32.5 -3.5t36.5 -7t33 -10t23 -12t6.5 -13.5q-1 -3 -11.5 -28t-24 -63.5t-27.5 -87t-22 -97.5q-6 -28 1.5 -32.5t22.5 6.5q17 14 34 40.5t42 74.5q14 26 19 30t5 -10q0 -5 -3 -15t-12 -26
q-23 -40 -46.5 -77.5t-48.5 -63.5q-28 -30 -56 -47t-46 -9q-14 6 -28 24.5t-22.5 50t-8 74t16.5 96.5zM278 529q1 -1 1.5 -5t-1 -8t-6 -6.5t-11.5 -0.5q-17 5 -47 20t-61 32.5t-56 34t-32 25.5h-1q6 16 28.5 33.5t47.5 30t45.5 19t22.5 0.5q7 -19 13.5 -45.5t14.5 -52.5
t18 -47t24 -30z" />
    <glyph glyph-name="iacute" unicode="&#xed;" horiz-adv-x="218" 
d="M12 242q18 61 33 110t23 79q2 5 2.5 8t1.5 5q1 3 2 4q7 1 21.5 0t32.5 -3.5t36.5 -7t33 -10t23 -12t6.5 -13.5q-1 -3 -11.5 -28t-24 -63.5t-27.5 -87t-22 -97.5q-6 -28 1.5 -32.5t22.5 6.5q17 14 34 40.5t42 74.5q14 26 19 30t5 -10q0 -5 -3 -15t-12 -26
q-23 -40 -46.5 -77.5t-48.5 -63.5q-28 -30 -56 -47t-46 -9q-14 6 -28 24.5t-22.5 50t-8 74t16.5 96.5zM128 503q-1 -2 -5 -1.5t-8 3t-5.5 7t1.5 11.5q8 16 25 41.5t36 51t37 46t28 25.5v1q15 -9 33.5 -28.5t33 -39.5t22 -35.5t1.5 -16.5q-20 -4 -49 -10t-59 -14t-55 -18
t-36 -23z" />
    <glyph glyph-name="icircumflex" unicode="&#xee;" horiz-adv-x="218" 
d="M12 242q18 61 33 110t23 79q2 5 2.5 8t1.5 5q1 3 2 4q7 1 21.5 0t32.5 -3.5t36.5 -7t33 -10t23 -12t6.5 -13.5q-1 -3 -11.5 -28t-24 -63.5t-27.5 -87t-22 -97.5q-6 -28 1.5 -32.5t22.5 6.5q17 14 34 40.5t42 74.5q14 26 19 30t5 -10q0 -5 -3 -15t-12 -26
q-23 -40 -46.5 -77.5t-48.5 -63.5q-28 -30 -56 -47t-46 -9q-14 6 -28 24.5t-22.5 50t-8 74t16.5 96.5zM41 547q-8 -2 -12 -0.5t-5.5 5t-1.5 6.5t2 4q15 8 40.5 26t54.5 40.5t57 47.5t47 48q6 7 21 -4t35 -35t42.5 -58t42.5 -73q0 -1 1 -1q-9 -15 -34.5 -24t-53 -12.5
t-49 -1.5t-22.5 8q-5 26 -11.5 49.5t-22.5 47.5q-12 -8 -28 -18.5t-33.5 -21t-35.5 -20t-34 -13.5z" />
    <glyph glyph-name="idieresis" unicode="&#xef;" horiz-adv-x="218" 
d="M12 242q18 61 33 110t23 79q2 5 2.5 8t1.5 5q1 3 2 4q7 1 21.5 0t32.5 -3.5t36.5 -7t33 -10t23 -12t6.5 -13.5q-1 -3 -11.5 -28t-24 -63.5t-27.5 -87t-22 -97.5q-6 -28 1.5 -32.5t22.5 6.5q17 14 34 40.5t42 74.5q14 26 19 30t5 -10q0 -5 -3 -15t-12 -26
q-23 -40 -46.5 -77.5t-48.5 -63.5q-28 -30 -56 -47t-46 -9q-14 6 -28 24.5t-22.5 50t-8 74t16.5 96.5zM177 561q-5 -14 -19.5 -24t-33 -15.5t-39.5 -6.5t-38 4q-16 4 -31 13.5t-25.5 22t-15 26.5t1.5 28q5 13 18.5 23t31.5 16t38.5 7t41.5 -4q14 -3 28.5 -12t25.5 -21.5
t16 -27t0 -29.5zM397 561q-5 -14 -19.5 -24t-33 -15.5t-39.5 -6.5t-38 4q-16 4 -31 13.5t-25.5 22t-15 26.5t1.5 28q5 13 18.5 23t31.5 16t38.5 7t41.5 -4q14 -3 28.5 -12t25.5 -21.5t16 -27t0 -29.5z" />
    <glyph glyph-name="eth" unicode="&#xf0;" horiz-adv-x="478" 
d="M252 736q-4 1 -5.5 4.5t0 7t8 5.5t18.5 -1q48 -11 82 -36t57 -60l56 7t28 5q2 0 1 -4q-12 -25 -62 -52q26 -66 23.5 -147.5t-27.5 -161.5q-24 -76 -62.5 -132.5t-82.5 -94.5t-88 -57t-80 -19q-29 0 -58.5 21.5t-49 59.5t-23.5 89t17 110q29 79 75 129.5t93.5 75.5
t88 26.5t57.5 -17.5l8 -9q5 23 8 44.5t5 42.5q-26 -9 -56 -15h-1q-5 5 -8 18t-4 27t1.5 25.5t9.5 13.5q1 0 16 2t38 5q-7 33 -26.5 56t-56.5 32zM277 303q11 36 21.5 75t20.5 77q-3 3 -9 7q-41 21 -78 -29t-74 -157q-18 -53 -28.5 -98.5t-13.5 -78.5t2 -52t17 -19
q23 0 42 23t36.5 61t33 87.5t30.5 103.5z" />
    <glyph glyph-name="ntilde" unicode="&#xf1;" 
d="M104 -3q-26 -5 -51 1.5t-41 28.5t-19.5 61t11.5 101q11 44 25 93t28.5 97.5t27.5 95.5t22 86q0 1 12.5 1t31 -2t39 -5.5t38 -9t27 -13.5t6.5 -18q-3 -8 -21.5 -48.5t-46.5 -128.5q17 39 35.5 72t37.5 56.5t39 37t41 13.5q30 0 49.5 -18.5t27 -53t2 -83t-24.5 -108.5
q-19 -57 -29.5 -94t-13.5 -56.5t1 -23t16 5.5q17 14 39 48t47 82q14 26 19 30t5 -10q0 -5 -3 -15t-12 -26q-23 -40 -46.5 -77.5t-48.5 -63.5q-11 -12 -24 -25t-27 -22t-29.5 -12.5t-31.5 3.5q-12 5 -22.5 24.5t-15 52t-0.5 78t22 101.5q17 54 32.5 90.5t25 59t10.5 32.5
t-11 10q-68 0 -188 -395q-5 -18 -7 -29t-3 -16q-1 -6 -1 -8zM514 581q-14 -34 -68.5 -33.5t-139.5 45.5q-49 26 -82 34t-48 -18q-5 -9 -10.5 -15t-8.5 -6t-2.5 7.5t6.5 24.5q7 19 17 37.5t20.5 33t21.5 23.5t20 11q13 2 28.5 -3t33.5 -14t39.5 -20.5t47.5 -22.5
q52 -22 74.5 -19.5t9.5 29.5q-5 10 -6.5 17.5t0 10t7.5 -2t16 -19.5q21 -32 26 -58t-2 -42z" />
    <glyph glyph-name="ograve" unicode="&#xf2;" horiz-adv-x="441" 
d="M496 254q-10 -16 -37 -34t-62 -31q-25 -49 -59 -84.5t-71 -59t-72.5 -34.5t-63.5 -11q-33 0 -62 22.5t-48 59t-24 84t10 97.5q16 51 41 92t54.5 72t61 51t59 30t49.5 9t33 -13q5 -7 10.5 -14t10.5 -15q28 -3 52 -21t39 -47.5t18 -68.5t-12 -85q-3 -10 -6.5 -19.5
t-7.5 -18.5q26 11 47 26.5t31 33.5q14 26 19 30t5 -10q0 -5 -2.5 -15t-12.5 -26zM148 28q16 0 30 13t27 35t24.5 52t22.5 64q-18 15 -27 39.5t-11 53.5t3 59t15.5 56t26 45.5t35.5 26.5q-19 9 -37 -4.5t-34.5 -42.5t-32 -71t-29.5 -91q-13 -44 -22.5 -86t-12.5 -75t2 -53.5
t20 -20.5zM292 445q-10 0 -21 -24t-17.5 -57.5t-5 -70t15.5 -60.5l6 20q12 43 21.5 78.5t14 60.5t2 39t-15.5 14zM428 539q1 -1 1.5 -5t-1 -8t-6 -6.5t-11.5 -0.5q-17 5 -47 20t-61 32.5t-56 34t-32 25.5h-1q6 16 28.5 33.5t47.5 30t45.5 19t22.5 0.5q7 -19 13.5 -45.5
t14.5 -52.5t18 -47t24 -30z" />
    <glyph glyph-name="oacute" unicode="&#xf3;" horiz-adv-x="441" 
d="M496 254q-10 -16 -37 -34t-62 -31q-25 -49 -59 -84.5t-71 -59t-72.5 -34.5t-63.5 -11q-33 0 -62 22.5t-48 59t-24 84t10 97.5q16 51 41 92t54.5 72t61 51t59 30t49.5 9t33 -13q5 -7 10.5 -14t10.5 -15q28 -3 52 -21t39 -47.5t18 -68.5t-12 -85q-3 -10 -6.5 -19.5
t-7.5 -18.5q26 11 47 26.5t31 33.5q14 26 19 30t5 -10q0 -5 -2.5 -15t-12.5 -26zM148 28q16 0 30 13t27 35t24.5 52t22.5 64q-18 15 -27 39.5t-11 53.5t3 59t15.5 56t26 45.5t35.5 26.5q-19 9 -37 -4.5t-34.5 -42.5t-32 -71t-29.5 -91q-13 -44 -22.5 -86t-12.5 -75t2 -53.5
t20 -20.5zM292 445q-10 0 -21 -24t-17.5 -57.5t-5 -70t15.5 -60.5l6 20q12 43 21.5 78.5t14 60.5t2 39t-15.5 14zM240 543q-1 -2 -5 -1.5t-8 3t-5.5 7t1.5 11.5q8 16 25 41.5t36 51t37 46t28 25.5v1q15 -9 33.5 -28.5t33 -39.5t22 -35.5t1.5 -16.5q-20 -4 -49 -10t-59 -14
t-55 -18t-36 -23z" />
    <glyph glyph-name="ocircumflex" unicode="&#xf4;" horiz-adv-x="441" 
d="M496 254q-10 -16 -37 -34t-62 -31q-25 -49 -59 -84.5t-71 -59t-72.5 -34.5t-63.5 -11q-33 0 -62 22.5t-48 59t-24 84t10 97.5q16 51 41 92t54.5 72t61 51t59 30t49.5 9t33 -13q5 -7 10.5 -14t10.5 -15q28 -3 52 -21t39 -47.5t18 -68.5t-12 -85q-3 -10 -6.5 -19.5
t-7.5 -18.5q26 11 47 26.5t31 33.5q14 26 19 30t5 -10q0 -5 -2.5 -15t-12.5 -26zM148 28q16 0 30 13t27 35t24.5 52t22.5 64q-18 15 -27 39.5t-11 53.5t3 59t15.5 56t26 45.5t35.5 26.5q-19 9 -37 -4.5t-34.5 -42.5t-32 -71t-29.5 -91q-13 -44 -22.5 -86t-12.5 -75t2 -53.5
t20 -20.5zM292 445q-10 0 -21 -24t-17.5 -57.5t-5 -70t15.5 -60.5l6 20q12 43 21.5 78.5t14 60.5t2 39t-15.5 14zM184 547q-8 -2 -12 -0.5t-5.5 5t-1.5 6.5t2 4q15 8 40.5 26t54.5 40.5t57 47.5t47 48q6 7 21 -4t35 -35t42.5 -58t42.5 -73q0 -1 1 -1q-9 -15 -34.5 -24
t-53 -12.5t-49 -1.5t-22.5 8q-5 26 -11.5 49.5t-22.5 47.5q-12 -8 -28 -18.5t-33.5 -21t-35.5 -20t-34 -13.5z" />
    <glyph glyph-name="otilde" unicode="&#xf5;" horiz-adv-x="441" 
d="M496 254q-10 -16 -37 -34t-62 -31q-25 -49 -59 -84.5t-71 -59t-72.5 -34.5t-63.5 -11q-33 0 -62 22.5t-48 59t-24 84t10 97.5q16 51 41 92t54.5 72t61 51t59 30t49.5 9t33 -13q5 -7 10.5 -14t10.5 -15q28 -3 52 -21t39 -47.5t18 -68.5t-12 -85q-3 -10 -6.5 -19.5
t-7.5 -18.5q26 11 47 26.5t31 33.5q14 26 19 30t5 -10q0 -5 -2.5 -15t-12.5 -26zM148 28q16 0 30 13t27 35t24.5 52t22.5 64q-18 15 -27 39.5t-11 53.5t3 59t15.5 56t26 45.5t35.5 26.5q-19 9 -37 -4.5t-34.5 -42.5t-32 -71t-29.5 -91q-13 -44 -22.5 -86t-12.5 -75t2 -53.5
t20 -20.5zM292 445q-10 0 -21 -24t-17.5 -57.5t-5 -70t15.5 -60.5l6 20q12 43 21.5 78.5t14 60.5t2 39t-15.5 14zM503 555q-14 -34 -68.5 -33.5t-139.5 45.5q-49 26 -82 34t-48 -18q-5 -9 -10.5 -15t-8.5 -6t-2.5 7.5t6.5 24.5q7 19 17 37.5t20.5 33t21.5 23.5t20 11
q13 2 28.5 -3t33.5 -14t39.5 -20.5t47.5 -22.5q52 -22 74.5 -19.5t9.5 29.5q-5 10 -6.5 17.5t0 10t7.5 -2t16 -19.5q21 -32 26 -58t-2 -42z" />
    <glyph glyph-name="odieresis" unicode="&#xf6;" horiz-adv-x="441" 
d="M496 254q-10 -16 -37 -34t-62 -31q-25 -49 -59 -84.5t-71 -59t-72.5 -34.5t-63.5 -11q-33 0 -62 22.5t-48 59t-24 84t10 97.5q16 51 41 92t54.5 72t61 51t59 30t49.5 9t33 -13q5 -7 10.5 -14t10.5 -15q28 -3 52 -21t39 -47.5t18 -68.5t-12 -85q-3 -10 -6.5 -19.5
t-7.5 -18.5q26 11 47 26.5t31 33.5q14 26 19 30t5 -10q0 -5 -2.5 -15t-12.5 -26zM148 28q16 0 30 13t27 35t24.5 52t22.5 64q-18 15 -27 39.5t-11 53.5t3 59t15.5 56t26 45.5t35.5 26.5q-19 9 -37 -4.5t-34.5 -42.5t-32 -71t-29.5 -91q-13 -44 -22.5 -86t-12.5 -75t2 -53.5
t20 -20.5zM292 445q-10 0 -21 -24t-17.5 -57.5t-5 -70t15.5 -60.5l6 20q12 43 21.5 78.5t14 60.5t2 39t-15.5 14zM327 581q-5 -14 -19.5 -24t-33 -15.5t-39.5 -6.5t-38 4q-16 4 -31 13.5t-25.5 22t-15 26.5t1.5 28q5 13 18.5 23t31.5 16t38.5 7t41.5 -4q14 -3 28.5 -12
t25.5 -21.5t16 -27t0 -29.5zM547 581q-5 -14 -19.5 -24t-33 -15.5t-39.5 -6.5t-38 4q-16 4 -31 13.5t-25.5 22t-15 26.5t1.5 28q5 13 18.5 23t31.5 16t38.5 7t41.5 -4q14 -3 28.5 -12t25.5 -21.5t16 -27t0 -29.5z" />
    <glyph glyph-name="divide" unicode="&#xf7;" horiz-adv-x="259" 
d="M264 358q-5 -14 -17 -23.5t-28.5 -14t-34.5 -4.5t-35 6q-13 5 -25.5 13.5t-21 19.5t-11.5 24t3 27q5 13 17 22t27.5 14t34 5t36.5 -5q28 -8 46.5 -31t8.5 -53zM196 53q-5 -14 -17 -23.5t-28.5 -14t-34.5 -4.5t-35 6q-13 5 -25.5 13.5t-21 19.5t-11.5 24t3 27q5 13 17 22
t27.5 14t34 5t36.5 -5q28 -8 46.5 -31t8.5 -53zM355 267q-16 -19 -60 -38.5t-104 -35.5t-130 -25t-136 -6h-1q-5 9 -2.5 29t9.5 40t17.5 35t22.5 16q2 0 30 -0.5t69 -1.5t89 -2t90 -2.5t72 -2t36 -0.5q4 0 -2 -6z" />
    <glyph glyph-name="oslash" unicode="&#xf8;" horiz-adv-x="441" 
d="M496 254q-10 -16 -37 -34t-62 -31q-20 -39 -45.5 -69t-53.5 -52.5t-56.5 -37t-55.5 -22.5q-11 -51 -18 -82t-10 -48q-4 -20 -5 -29q-10 -2 -16.5 2t-9 20t0.5 46.5t12 82.5h-9q-33 0 -62 22.5t-48 59t-24 84t10 97.5q15 49 39 89t52.5 70.5t58.5 51t58 31.5q6 41 11.5 74
t10.5 54q0 1 10.5 1t25.5 -1t32 -4t31 -8t21.5 -12.5t4.5 -17.5q-1 -3 -4.5 -7.5t-9.5 -15t-14.5 -28.5t-19.5 -48l12 -17q28 -3 52 -21t39 -47.5t18 -68.5t-12 -85q-3 -10 -6.5 -19.5t-7.5 -18.5q26 11 47 26.5t31 33.5q14 26 19 30t5 -10q0 -5 -2.5 -15t-12.5 -26zM147 36
q4 24 10 60.5t12 80t12.5 92.5t13.5 97q-9 -23 -17.5 -49t-16.5 -54q-13 -43 -22 -84.5t-12.5 -74.5t0.5 -53.5t18 -22.5zM297 444q-10 -31 -21.5 -71.5t-25.5 -92.5q3 -26 14 -47l6 20q11 40 20.5 74t14 58.5t3.5 40t-11 18.5zM233 215q-8 -33 -16.5 -71t-18.5 -80
q15 23 28 56t26 72q-12 11 -19 23z" />
    <glyph glyph-name="ugrave" unicode="&#xf9;" horiz-adv-x="430" 
d="M113 523q42 7 69.5 -3.5t38 -41.5t1.5 -83.5t-39 -127.5q-21 -53 -39.5 -91.5t-29 -63t-11.5 -36t12 -11.5q35 0 81.5 91t102.5 266q8 26 14 46t10 31q2 5 2.5 8t1.5 5q1 3 1 4q10 1 35 -1.5t50 -9t43 -16t15 -20.5q-1 -2 -7.5 -19t-16.5 -44t-21.5 -62t-23 -72.5
t-21.5 -75t-15 -70.5q-6 -34 -2.5 -42.5t16.5 2.5q17 14 39 47.5t47 81.5q14 26 19 30t5 -10q0 -5 -3 -15t-12 -26q-23 -40 -46.5 -77.5t-48.5 -63.5q-23 -24 -40 -37t-30.5 -18.5t-23.5 -4.5t-18 4q-11 4 -20.5 17.5t-15.5 35t-7.5 50.5t3.5 66q-33 -72 -69.5 -117
t-75.5 -45q-30 0 -51.5 18t-30.5 51.5t-3 82.5t32 111q28 69 45 117.5t25 79.5q10 36 13 59zM355 559q1 -1 1.5 -5t-1 -8t-6 -6.5t-11.5 -0.5q-17 5 -47 20t-61 32.5t-56 34t-32 25.5h-1q6 16 28.5 33.5t47.5 30t45.5 19t22.5 0.5q7 -19 13.5 -45.5t14.5 -52.5t18 -47
t24 -30z" />
    <glyph glyph-name="uacute" unicode="&#xfa;" horiz-adv-x="430" 
d="M113 523q42 7 69.5 -3.5t38 -41.5t1.5 -83.5t-39 -127.5q-21 -53 -39.5 -91.5t-29 -63t-11.5 -36t12 -11.5q35 0 81.5 91t102.5 266q8 26 14 46t10 31q2 5 2.5 8t1.5 5q1 3 1 4q10 1 35 -1.5t50 -9t43 -16t15 -20.5q-1 -2 -7.5 -19t-16.5 -44t-21.5 -62t-23 -72.5
t-21.5 -75t-15 -70.5q-6 -34 -2.5 -42.5t16.5 2.5q17 14 39 47.5t47 81.5q14 26 19 30t5 -10q0 -5 -3 -15t-12 -26q-23 -40 -46.5 -77.5t-48.5 -63.5q-23 -24 -40 -37t-30.5 -18.5t-23.5 -4.5t-18 4q-11 4 -20.5 17.5t-15.5 35t-7.5 50.5t3.5 66q-33 -72 -69.5 -117
t-75.5 -45q-30 0 -51.5 18t-30.5 51.5t-3 82.5t32 111q28 69 45 117.5t25 79.5q10 36 13 59zM245 533q-1 -2 -5 -1.5t-8 3t-5.5 7t1.5 11.5q8 16 25 41.5t36 51t37 46t28 25.5v1q15 -9 33.5 -28.5t33 -39.5t22 -35.5t1.5 -16.5q-20 -4 -49 -10t-59 -14t-55 -18t-36 -23z" />
    <glyph glyph-name="ucircumflex" unicode="&#xfb;" horiz-adv-x="430" 
d="M113 523q42 7 69.5 -3.5t38 -41.5t1.5 -83.5t-39 -127.5q-21 -53 -39.5 -91.5t-29 -63t-11.5 -36t12 -11.5q35 0 81.5 91t102.5 266q8 26 14 46t10 31q2 5 2.5 8t1.5 5q1 3 1 4q10 1 35 -1.5t50 -9t43 -16t15 -20.5q-1 -2 -7.5 -19t-16.5 -44t-21.5 -62t-23 -72.5
t-21.5 -75t-15 -70.5q-6 -34 -2.5 -42.5t16.5 2.5q17 14 39 47.5t47 81.5q14 26 19 30t5 -10q0 -5 -3 -15t-12 -26q-23 -40 -46.5 -77.5t-48.5 -63.5q-23 -24 -40 -37t-30.5 -18.5t-23.5 -4.5t-18 4q-11 4 -20.5 17.5t-15.5 35t-7.5 50.5t3.5 66q-33 -72 -69.5 -117
t-75.5 -45q-30 0 -51.5 18t-30.5 51.5t-3 82.5t32 111q28 69 45 117.5t25 79.5q10 36 13 59zM178 567q-8 -2 -12 -0.5t-5.5 5t-1.5 6.5t2 4q15 8 40.5 26t54.5 40.5t57 47.5t47 48q6 7 21 -4t35 -35t42.5 -58t42.5 -73q0 -1 1 -1q-9 -15 -34.5 -24t-53 -12.5t-49 -1.5
t-22.5 8q-5 26 -11.5 49.5t-22.5 47.5q-12 -8 -28 -18.5t-33.5 -21t-35.5 -20t-34 -13.5z" />
    <glyph glyph-name="udieresis" unicode="&#xfc;" horiz-adv-x="430" 
d="M113 523q42 7 69.5 -3.5t38 -41.5t1.5 -83.5t-39 -127.5q-21 -53 -39.5 -91.5t-29 -63t-11.5 -36t12 -11.5q35 0 81.5 91t102.5 266q8 26 14 46t10 31q2 5 2.5 8t1.5 5q1 3 1 4q10 1 35 -1.5t50 -9t43 -16t15 -20.5q-1 -2 -7.5 -19t-16.5 -44t-21.5 -62t-23 -72.5
t-21.5 -75t-15 -70.5q-6 -34 -2.5 -42.5t16.5 2.5q17 14 39 47.5t47 81.5q14 26 19 30t5 -10q0 -5 -3 -15t-12 -26q-23 -40 -46.5 -77.5t-48.5 -63.5q-23 -24 -40 -37t-30.5 -18.5t-23.5 -4.5t-18 4q-11 4 -20.5 17.5t-15.5 35t-7.5 50.5t3.5 66q-33 -72 -69.5 -117
t-75.5 -45q-30 0 -51.5 18t-30.5 51.5t-3 82.5t32 111q28 69 45 117.5t25 79.5q10 36 13 59zM304 591q-5 -14 -19.5 -24t-33 -15.5t-39.5 -6.5t-38 4q-16 4 -31 13.5t-25.5 22t-15 26.5t1.5 28q5 13 18.5 23t31.5 16t38.5 7t41.5 -4q14 -3 28.5 -12t25.5 -21.5t16 -27
t0 -29.5zM524 591q-5 -14 -19.5 -24t-33 -15.5t-39.5 -6.5t-38 4q-16 4 -31 13.5t-25.5 22t-15 26.5t1.5 28q5 13 18.5 23t31.5 16t38.5 7t41.5 -4q14 -3 28.5 -12t25.5 -21.5t16 -27t0 -29.5z" />
    <glyph glyph-name="yacute" unicode="&#xfd;" horiz-adv-x="426" 
d="M108 523q31 6 59 -5t43 -41.5t12 -82t-34 -127.5q-21 -53 -39.5 -91.5t-29.5 -63t-12 -36t12 -11.5q38 0 89 105.5t113 307.5q3 13 6 21q1 5 2 8t2 5q1 3 1 4q10 1 35 -1.5t50 -8.5t43 -15.5t15 -20.5q-2 -5 -25 -71.5t-61 -179.5q-15 -45 -31.5 -96t-34.5 -108
q-27 -84 -66 -139t-79 -83.5t-75 -32.5t-54 16q-14 14 -27.5 35t-21 47.5t-7.5 57t14 63.5l1 1q10 1 33 -1.5t45 -9t37.5 -16t12.5 -20.5q-1 -3 -16 -20.5t-31 -38.5t-27 -39t-4 -21q17 -9 29.5 -0.5t26 34t29.5 68t39 101.5q14 34 26.5 72.5t25.5 77.5
q-34 -72 -70.5 -117.5t-75.5 -45.5q-30 0 -52 18t-30.5 51.5t-2.5 82.5t31 111q28 69 43 118t21.5 79.5t8 44.5zM233 533q-1 -2 -5 -1.5t-8 3t-5.5 7t1.5 11.5q8 16 25 41.5t36 51t37 46t28 25.5v1q15 -9 33.5 -28.5t33 -39.5t22 -35.5t1.5 -16.5q-20 -4 -49 -10t-59 -14
t-55 -18t-36 -23z" />
    <glyph glyph-name="thorn" unicode="&#xfe;" horiz-adv-x="499" 
d="M443 764q-3 -10 -14.5 -39.5t-27.5 -70t-35 -87.5t-36 -91.5t-31 -82t-19 -59.5q9 26 26 60t39.5 64.5t49 51.5t54.5 21q30 0 53.5 -23t35 -62.5t8.5 -92.5t-26 -114q-28 -75 -70.5 -124t-86 -74.5t-80 -28t-52.5 15.5q-12 12 -21 27q-16 -59 -26 -106.5t-17 -88t-13 -75
t-13 -67.5q0 -1 -12.5 -1.5t-30.5 0t-38.5 3t-37 7.5t-25.5 13t-4 20q1 2 8.5 25.5t19.5 61.5t27.5 87t33.5 102q12 36 30 96.5t38.5 133t42 152t40.5 153.5t34 137t22 103q0 1 12 0.5t30 -2t38.5 -5t38 -9t27.5 -13.5t8 -18zM259 222q-12 -38 -22.5 -71.5t-18.5 -64.5
q5 -7 10.5 -12.5t11.5 -8.5q16 -8 31.5 2t31.5 34.5t31.5 61t31.5 81.5q19 55 34.5 97.5t23.5 71t7.5 43.5t-13.5 15t-33.5 -20.5t-43 -55t-44.5 -79.5t-38 -94z" />
    <glyph glyph-name="ydieresis" unicode="&#xff;" horiz-adv-x="426" 
d="M108 523q31 6 59 -5t43 -41.5t12 -82t-34 -127.5q-21 -53 -39.5 -91.5t-29.5 -63t-12 -36t12 -11.5q38 0 89 105.5t113 307.5q3 13 6 21q1 5 2 8t2 5q1 3 1 4q10 1 35 -1.5t50 -8.5t43 -15.5t15 -20.5q-2 -5 -25 -71.5t-61 -179.5q-15 -45 -31.5 -96t-34.5 -108
q-27 -84 -66 -139t-79 -83.5t-75 -32.5t-54 16q-14 14 -27.5 35t-21 47.5t-7.5 57t14 63.5l1 1q10 1 33 -1.5t45 -9t37.5 -16t12.5 -20.5q-1 -3 -16 -20.5t-31 -38.5t-27 -39t-4 -21q17 -9 29.5 -0.5t26 34t29.5 68t39 101.5q14 34 26.5 72.5t25.5 77.5
q-34 -72 -70.5 -117.5t-75.5 -45.5q-30 0 -52 18t-30.5 51.5t-2.5 82.5t31 111q28 69 43 118t21.5 79.5t8 44.5zM292 591q-5 -14 -19.5 -24t-33 -15.5t-39.5 -6.5t-38 4q-16 4 -31 13.5t-25.5 22t-15 26.5t1.5 28q5 13 18.5 23t31.5 16t38.5 7t41.5 -4q14 -3 28.5 -12
t25.5 -21.5t16 -27t0 -29.5zM512 591q-5 -14 -19.5 -24t-33 -15.5t-39.5 -6.5t-38 4q-16 4 -31 13.5t-25.5 22t-15 26.5t1.5 28q5 13 18.5 23t31.5 16t38.5 7t41.5 -4q14 -3 28.5 -12t25.5 -21.5t16 -27t0 -29.5z" />
    <glyph glyph-name="Amacron" unicode="&#x100;" horiz-adv-x="623" 
d="M54 -3q-28 -5 -37.5 1.5t-3 28.5t30 61t61.5 101q18 29 51.5 79.5t74 112t84.5 127.5l84 126t71.5 108.5t47.5 75.5q1 1 10 0t21 -5q12 1 39 -0.5t53 -6t43.5 -14t11.5 -25.5q0 -2 -7.5 -23t-18 -57t-22 -84.5t-20.5 -103.5q-13 -74 -22 -148t-14.5 -132.5t-5.5 -94
t5 -30.5q14 11 33.5 42t44.5 79q14 26 19 30t5 -10q0 -5 -3 -15t-12 -26q-23 -40 -46.5 -77.5t-48.5 -63.5q-28 -30 -56 -47t-46 -9q-14 6 -23 24t-14 44.5t-5.5 60t4.5 70.5q2 11 4 30t6 43q-42 -25 -109.5 -43t-158.5 -18q-12 -17 -22 -31.5t-17 -26.5q-32 -54 -50 -84.5
t-27.5 -45.5t-12 -19zM458 309q6 39 12.5 84.5t14 92.5l15 94t14.5 89q-23 -35 -52.5 -79.5t-64.5 -94.5q-68 -95 -132 -179zM776 941q-16 -19 -43 -38.5t-66.5 -35.5t-92 -25t-118.5 -6h-1q-5 9 -4 30.5t6 43t14 38.5t21 18q2 0 22.5 -1t50.5 -3.5t65 -5t66 -4.5t53.5 -3.5
t28.5 -1.5q4 0 -2 -6z" />
    <glyph glyph-name="amacron" unicode="&#x101;" horiz-adv-x="412" 
d="M238 197q-9 -26 -18 -60t-22.5 -64.5t-32.5 -51.5t-47 -21q-30 0 -57 22.5t-43.5 59t-20 84t11.5 97.5q23 75 62 128.5t79.5 84t75.5 38t50 -9.5q11 -13 21 -27.5t17 -28.5q17 -2 38.5 -6t40.5 -10t31 -13.5t9 -16.5q-1 -3 -13 -28t-27.5 -63.5t-31 -87t-23.5 -97.5
q-5 -28 -7.5 -44t-1.5 -22t6 -3.5t17 11.5q9 7 20 22t24 34.5t26.5 43t25.5 47.5q14 26 19 30t5 -10q0 -5 -3 -15t-12 -26q-23 -40 -46.5 -77.5t-48.5 -63.5q-56 -61 -92 -46q-13 6 -22.5 24t-14.5 44.5t-4 58t10 63.5q1 4 0.5 3.5t-1.5 -3.5zM284 431q2 6 3 9.5t2 5.5
q-5 6 -10.5 11.5t-10.5 8.5q-15 8 -29 -6t-26.5 -43.5t-25 -69.5t-24.5 -84q-13 -44 -21.5 -81t-11 -64t1.5 -42t18 -15q13 0 21 9.5t15.5 31.5t17 56t24.5 84q18 61 33 110t23 79zM481 641q-16 -19 -43 -38.5t-66.5 -35.5t-92 -25t-118.5 -6h-1q-5 9 -4 30.5t6 43t14 38.5
t21 18q2 0 22.5 -1t50.5 -3.5t65 -5t66 -4.5t53.5 -3.5t28.5 -1.5q4 0 -2 -6z" />
    <glyph glyph-name="Abreve" unicode="&#x102;" horiz-adv-x="623" 
d="M54 -3q-28 -5 -37.5 1.5t-3 28.5t30 61t61.5 101q18 29 51.5 79.5t74 112t84.5 127.5l84 126t71.5 108.5t47.5 75.5q1 1 10 0t21 -5q12 1 39 -0.5t53 -6t43.5 -14t11.5 -25.5q0 -2 -7.5 -23t-18 -57t-22 -84.5t-20.5 -103.5q-13 -74 -22 -148t-14.5 -132.5t-5.5 -94
t5 -30.5q14 11 33.5 42t44.5 79q14 26 19 30t5 -10q0 -5 -3 -15t-12 -26q-23 -40 -46.5 -77.5t-48.5 -63.5q-28 -30 -56 -47t-46 -9q-14 6 -23 24t-14 44.5t-5.5 60t4.5 70.5q2 11 4 30t6 43q-42 -25 -109.5 -43t-158.5 -18q-12 -17 -22 -31.5t-17 -26.5q-32 -54 -50 -84.5
t-27.5 -45.5t-12 -19zM458 309q6 39 12.5 84.5t14 92.5l15 94t14.5 89q-23 -35 -52.5 -79.5t-64.5 -94.5q-68 -95 -132 -179zM720 989q-6 -23 -15.5 -47.5t-24 -45t-33 -33.5t-40.5 -13q-28 0 -51.5 11t-41 29.5t-28.5 42t-14 47.5q-2 16 21 24.5t52.5 9.5t54.5 -6t27 -20
q3 -27 5.5 -42t16.5 -15q15 0 27 13.5t21 46.5q3 10 7.5 15t9 5t7 -5.5t-0.5 -16.5z" />
    <glyph glyph-name="abreve" unicode="&#x103;" horiz-adv-x="412" 
d="M238 197q-9 -26 -18 -60t-22.5 -64.5t-32.5 -51.5t-47 -21q-30 0 -57 22.5t-43.5 59t-20 84t11.5 97.5q23 75 62 128.5t79.5 84t75.5 38t50 -9.5q11 -13 21 -27.5t17 -28.5q17 -2 38.5 -6t40.5 -10t31 -13.5t9 -16.5q-1 -3 -13 -28t-27.5 -63.5t-31 -87t-23.5 -97.5
q-5 -28 -7.5 -44t-1.5 -22t6 -3.5t17 11.5q9 7 20 22t24 34.5t26.5 43t25.5 47.5q14 26 19 30t5 -10q0 -5 -3 -15t-12 -26q-23 -40 -46.5 -77.5t-48.5 -63.5q-56 -61 -92 -46q-13 6 -22.5 24t-14.5 44.5t-4 58t10 63.5q1 4 0.5 3.5t-1.5 -3.5zM284 431q2 6 3 9.5t2 5.5
q-5 6 -10.5 11.5t-10.5 8.5q-15 8 -29 -6t-26.5 -43.5t-25 -69.5t-24.5 -84q-13 -44 -21.5 -81t-11 -64t1.5 -42t18 -15q13 0 21 9.5t15.5 31.5t17 56t24.5 84q18 61 33 110t23 79zM444 669q-6 -23 -15.5 -47.5t-24 -45t-33 -33.5t-40.5 -13q-28 0 -51.5 11t-41 29.5
t-28.5 42t-14 47.5q-2 16 21 24.5t52.5 9.5t54.5 -6t27 -20q3 -27 5.5 -42t16.5 -15q15 0 27 13.5t21 46.5q3 10 7.5 15t9 5t7 -5.5t-0.5 -16.5z" />
    <glyph glyph-name="Aogonek" unicode="&#x104;" horiz-adv-x="623" 
d="M54 -3q-28 -5 -37.5 1.5t-3 28.5t30 61t61.5 101q18 29 51.5 79.5t74 112t84.5 127.5l84 126t71.5 108.5t47.5 75.5q1 1 10 0t21 -5q12 1 39 -0.5t53 -6t43.5 -14t11.5 -25.5q0 -2 -7.5 -23t-18 -57t-22 -84.5t-20.5 -103.5q-13 -74 -22 -148t-14.5 -132.5t-5.5 -94
t5 -30.5q14 11 33.5 42t44.5 79q14 26 19 30t5 -10q0 -5 -3 -15t-12 -26q-23 -40 -46.5 -77.5t-48.5 -63.5q-28 -30 -56 -47t-46 -9q-14 6 -23 24t-14 44.5t-5.5 60t4.5 70.5q2 11 4 30t6 43q-42 -25 -109.5 -43t-158.5 -18q-12 -17 -22 -31.5t-17 -26.5q-32 -54 -50 -84.5
t-27.5 -45.5t-12 -19zM458 309q6 39 12.5 84.5t14 92.5l15 94t14.5 89q-23 -35 -52.5 -79.5t-64.5 -94.5q-68 -95 -132 -179zM492 27q21 7 23.5 -1.5t-14.5 -19.5q-27 -17 -39 -31.5t-10 -32.5q2 -13 22.5 -20.5t47.5 -7.5q10 0 14.5 -17t3.5 -38t-7.5 -39t-19.5 -19
q-27 -3 -53 4.5t-46.5 21t-33.5 31.5t-15 37t7.5 39t27.5 38t42 32.5t50 22.5z" />
    <glyph glyph-name="aogonek" unicode="&#x105;" horiz-adv-x="412" 
d="M238 197q-9 -26 -18 -60t-22.5 -64.5t-32.5 -51.5t-47 -21q-30 0 -57 22.5t-43.5 59t-20 84t11.5 97.5q23 75 62 128.5t79.5 84t75.5 38t50 -9.5q11 -13 21 -27.5t17 -28.5q17 -2 38.5 -6t40.5 -10t31 -13.5t9 -16.5q-1 -3 -13 -28t-27.5 -63.5t-31 -87t-23.5 -97.5
q-5 -28 -7.5 -44t-1.5 -22t6 -3.5t17 11.5q9 7 20 22t24 34.5t26.5 43t25.5 47.5q14 26 19 30t5 -10q0 -5 -3 -15t-12 -26q-23 -40 -46.5 -77.5t-48.5 -63.5q-56 -61 -92 -46q-13 6 -22.5 24t-14.5 44.5t-4 58t10 63.5q1 4 0.5 3.5t-1.5 -3.5zM284 431q2 6 3 9.5t2 5.5
q-5 6 -10.5 11.5t-10.5 8.5q-15 8 -29 -6t-26.5 -43.5t-25 -69.5t-24.5 -84q-13 -44 -21.5 -81t-11 -64t1.5 -42t18 -15q13 0 21 9.5t15.5 31.5t17 56t24.5 84q18 61 33 110t23 79zM281 27q21 7 23.5 -1.5t-14.5 -19.5q-27 -17 -39 -31.5t-10 -32.5q2 -13 22.5 -20.5
t47.5 -7.5q10 0 14.5 -17t3.5 -38t-7.5 -39t-19.5 -19q-27 -3 -53 4.5t-46.5 21t-33.5 31.5t-15 37t7.5 39t27.5 38t42 32.5t50 22.5z" />
    <glyph glyph-name="Cacute" unicode="&#x106;" horiz-adv-x="343" 
d="M379 466q-11 -2 -35 1t-48.5 9t-41.5 15.5t-14 20.5q1 2 12.5 20t27.5 44t34 56t32.5 56t22.5 44t3 21q-31 15 -56.5 3.5t-50 -50.5t-48.5 -106.5t-52 -163.5q-55 -189 -55.5 -283t41.5 -101q16 -3 41 7t53.5 31t56.5 52.5t49 72.5q14 26 18.5 30t4.5 -10q0 -5 -2.5 -15
t-11.5 -26q-22 -38 -50.5 -73t-60.5 -62t-67.5 -43t-70.5 -16q-38 0 -70 30.5t-49 87.5t-14.5 137.5t33.5 180.5q37 121 88 203t103 126t99.5 50t78.5 -25q13 -13 23.5 -42t13.5 -71t-5 -96t-33 -115zM297 853q-1 -2 -5 -1.5t-8 3t-5.5 7t1.5 11.5q8 16 25 41.5t36 51t37 46
t28 25.5v1q15 -9 33.5 -28.5t33 -39.5t22 -35.5t1.5 -16.5q-20 -4 -49 -10t-59 -14t-55 -18t-36 -23z" />
    <glyph glyph-name="cacute" unicode="&#x107;" horiz-adv-x="342" 
d="M317 249q-11 -2 -32 1t-41.5 9.5t-34.5 16t-11 20.5q1 2 10 14.5t22 30.5t27.5 39t25.5 39t16.5 31t0.5 16q-15 8 -33.5 -6.5t-37 -43.5t-35.5 -69t-29 -84q-13 -44 -20 -81.5t-7 -65t7.5 -44.5t23.5 -20q19 -3 45 7t53 31t53.5 52.5t47.5 72.5q14 26 19 30t5 -10
q0 -5 -3 -15t-12 -26q-22 -38 -49.5 -73t-59.5 -62t-67.5 -43t-71.5 -16q-34 0 -62.5 22.5t-46 59t-21 84t11.5 97.5q23 75 66 128t89 84t85.5 38t56.5 -9q13 -13 25.5 -31t17 -47t-1.5 -72t-31 -104zM191 533q-1 -2 -5 -1.5t-8 3t-5.5 7t1.5 11.5q8 16 25 41.5t36 51t37 46
t28 25.5v1q15 -9 33.5 -28.5t33 -39.5t22 -35.5t1.5 -16.5q-20 -4 -49 -10t-59 -14t-55 -18t-36 -23z" />
    <glyph glyph-name="Ccircumflex" unicode="&#x108;" horiz-adv-x="343" 
d="M379 466q-11 -2 -35 1t-48.5 9t-41.5 15.5t-14 20.5q1 2 12.5 20t27.5 44t34 56t32.5 56t22.5 44t3 21q-31 15 -56.5 3.5t-50 -50.5t-48.5 -106.5t-52 -163.5q-55 -189 -55.5 -283t41.5 -101q16 -3 41 7t53.5 31t56.5 52.5t49 72.5q14 26 18.5 30t4.5 -10q0 -5 -2.5 -15
t-11.5 -26q-22 -38 -50.5 -73t-60.5 -62t-67.5 -43t-70.5 -16q-38 0 -70 30.5t-49 87.5t-14.5 137.5t33.5 180.5q37 121 88 203t103 126t99.5 50t78.5 -25q13 -13 23.5 -42t13.5 -71t-5 -96t-33 -115zM210 847q-8 -2 -12 -0.5t-5.5 5t-1.5 6.5t2 4q15 8 40.5 26t54.5 40.5
t57 47.5t47 48q6 7 21 -4t35 -35t42.5 -58t42.5 -73q0 -1 1 -1q-9 -15 -34.5 -24t-53 -12.5t-49 -1.5t-22.5 8q-5 26 -11.5 49.5t-22.5 47.5q-12 -8 -28 -18.5t-33.5 -21t-35.5 -20t-34 -13.5z" />
    <glyph glyph-name="ccircumflex" unicode="&#x109;" horiz-adv-x="342" 
d="M317 249q-11 -2 -32 1t-41.5 9.5t-34.5 16t-11 20.5q1 2 10 14.5t22 30.5t27.5 39t25.5 39t16.5 31t0.5 16q-15 8 -33.5 -6.5t-37 -43.5t-35.5 -69t-29 -84q-13 -44 -20 -81.5t-7 -65t7.5 -44.5t23.5 -20q19 -3 45 7t53 31t53.5 52.5t47.5 72.5q14 26 19 30t5 -10
q0 -5 -3 -15t-12 -26q-22 -38 -49.5 -73t-59.5 -62t-67.5 -43t-71.5 -16q-34 0 -62.5 22.5t-46 59t-21 84t11.5 97.5q23 75 66 128t89 84t85.5 38t56.5 -9q13 -13 25.5 -31t17 -47t-1.5 -72t-31 -104zM155 547q-8 -2 -12 -0.5t-5.5 5t-1.5 6.5t2 4q15 8 40.5 26t54.5 40.5
t57 47.5t47 48q6 7 21 -4t35 -35t42.5 -58t42.5 -73q0 -1 1 -1q-9 -15 -34.5 -24t-53 -12.5t-49 -1.5t-22.5 8q-5 26 -11.5 49.5t-22.5 47.5q-12 -8 -28 -18.5t-33.5 -21t-35.5 -20t-34 -13.5z" />
    <glyph glyph-name="Cdotaccent" unicode="&#x10a;" horiz-adv-x="343" 
d="M379 466q-11 -2 -35 1t-48.5 9t-41.5 15.5t-14 20.5q1 2 12.5 20t27.5 44t34 56t32.5 56t22.5 44t3 21q-31 15 -56.5 3.5t-50 -50.5t-48.5 -106.5t-52 -163.5q-55 -189 -55.5 -283t41.5 -101q16 -3 41 7t53.5 31t56.5 52.5t49 72.5q14 26 18.5 30t4.5 -10q0 -5 -2.5 -15
t-11.5 -26q-22 -38 -50.5 -73t-60.5 -62t-67.5 -43t-70.5 -16q-38 0 -70 30.5t-49 87.5t-14.5 137.5t33.5 180.5q37 121 88 203t103 126t99.5 50t78.5 -25q13 -13 23.5 -42t13.5 -71t-5 -96t-33 -115zM481 895q-5 -14 -19.5 -24t-33 -15.5t-39.5 -6.5t-38 4q-16 4 -31 13.5
t-25.5 22t-15 26.5t1.5 28q5 13 18.5 23t31.5 16t38.5 7t41.5 -4q14 -3 28.5 -12t25.5 -21.5t16 -27t0 -29.5z" />
    <glyph glyph-name="cdotaccent" unicode="&#x10b;" horiz-adv-x="342" 
d="M317 249q-11 -2 -32 1t-41.5 9.5t-34.5 16t-11 20.5q1 2 10 14.5t22 30.5t27.5 39t25.5 39t16.5 31t0.5 16q-15 8 -33.5 -6.5t-37 -43.5t-35.5 -69t-29 -84q-13 -44 -20 -81.5t-7 -65t7.5 -44.5t23.5 -20q19 -3 45 7t53 31t53.5 52.5t47.5 72.5q14 26 19 30t5 -10
q0 -5 -3 -15t-12 -26q-22 -38 -49.5 -73t-59.5 -62t-67.5 -43t-71.5 -16q-34 0 -62.5 22.5t-46 59t-21 84t11.5 97.5q23 75 66 128t89 84t85.5 38t56.5 -9q13 -13 25.5 -31t17 -47t-1.5 -72t-31 -104zM436 595q-5 -14 -19.5 -24t-33 -15.5t-39.5 -6.5t-38 4q-16 4 -31 13.5
t-25.5 22t-15 26.5t1.5 28q5 13 18.5 23t31.5 16t38.5 7t41.5 -4q14 -3 28.5 -12t25.5 -21.5t16 -27t0 -29.5z" />
    <glyph glyph-name="Ccaron" unicode="&#x10c;" horiz-adv-x="343" 
d="M379 466q-11 -2 -35 1t-48.5 9t-41.5 15.5t-14 20.5q1 2 12.5 20t27.5 44t34 56t32.5 56t22.5 44t3 21q-31 15 -56.5 3.5t-50 -50.5t-48.5 -106.5t-52 -163.5q-55 -189 -55.5 -283t41.5 -101q16 -3 41 7t53.5 31t56.5 52.5t49 72.5q14 26 18.5 30t4.5 -10q0 -5 -2.5 -15
t-11.5 -26q-22 -38 -50.5 -73t-60.5 -62t-67.5 -43t-70.5 -16q-38 0 -70 30.5t-49 87.5t-14.5 137.5t33.5 180.5q37 121 88 203t103 126t99.5 50t78.5 -25q13 -13 23.5 -42t13.5 -71t-5 -96t-33 -115zM500 1013q8 2 12 0.5t5.5 -4.5t1 -6.5t-1.5 -4.5q-15 -8 -33 -22.5
t-37.5 -33.5t-39.5 -41t-39 -45q-5 -6 -11.5 -5t-18.5 11q-18 16 -41 31t-46 31.5t-44.5 34.5t-34.5 39l-1 1q9 15 35.5 27t54.5 18.5t50.5 8t23.5 -4.5q3 -13 1 -30t-3.5 -34.5t-1 -34.5t8.5 -29q12 8 32.5 22t43.5 28.5t45.5 26.5t38.5 16z" />
    <glyph glyph-name="ccaron" unicode="&#x10d;" horiz-adv-x="342" 
d="M317 249q-11 -2 -32 1t-41.5 9.5t-34.5 16t-11 20.5q1 2 10 14.5t22 30.5t27.5 39t25.5 39t16.5 31t0.5 16q-15 8 -33.5 -6.5t-37 -43.5t-35.5 -69t-29 -84q-13 -44 -20 -81.5t-7 -65t7.5 -44.5t23.5 -20q19 -3 45 7t53 31t53.5 52.5t47.5 72.5q14 26 19 30t5 -10
q0 -5 -3 -15t-12 -26q-22 -38 -49.5 -73t-59.5 -62t-67.5 -43t-71.5 -16q-34 0 -62.5 22.5t-46 59t-21 84t11.5 97.5q23 75 66 128t89 84t85.5 38t56.5 -9q13 -13 25.5 -31t17 -47t-1.5 -72t-31 -104zM475 693q8 2 12 0.5t5.5 -4.5t1 -6.5t-1.5 -4.5q-15 -8 -33 -22.5
t-37.5 -33.5t-39.5 -41t-39 -45q-5 -6 -11.5 -5t-18.5 11q-18 16 -41 31t-46 31.5t-44.5 34.5t-34.5 39l-1 1q9 15 35.5 27t54.5 18.5t50.5 8t23.5 -4.5q3 -13 1 -30t-3.5 -34.5t-1 -34.5t8.5 -29q12 8 32.5 22t43.5 28.5t45.5 26.5t38.5 16z" />
    <glyph glyph-name="Dcaron" unicode="&#x10e;" horiz-adv-x="499" 
d="M72 -3q-16 6 -34.5 20.5t-32.5 38.5t-19.5 57.5t5.5 75.5q6 25 16.5 62.5t23.5 82.5t27.5 94.5t28.5 98t26.5 93t22.5 80.5q-55 -43 -101 -98q-2 -3 -5.5 5t-7 21.5t-6.5 30t-5 31.5t-2.5 25.5t1.5 12.5q13 13 45.5 29t76.5 30t95 24t100 10q56 0 107 -26.5t83.5 -78.5
t39.5 -128t-24 -176q-38 -120 -99 -205t-128 -136.5t-130 -69.5t-104 -4zM307 782q-18 0 -40 -7t-47 -20q18 -3 35 -7t30.5 -9.5t21 -12.5t4.5 -16q-2 -6 -12 -31t-24.5 -63t-32 -87t-35.5 -103t-31 -94.5t-22.5 -72.5t-16 -58t-11.5 -51q-5 -26 -9 -49.5t-5 -41.5
t2.5 -29.5t12.5 -11.5q54 -2 118.5 98t123.5 296q56 187 38 278.5t-100 91.5zM542 1013q8 2 12 0.5t5.5 -4.5t1 -6.5t-1.5 -4.5q-15 -8 -33 -22.5t-37.5 -33.5t-39.5 -41t-39 -45q-5 -6 -11.5 -5t-18.5 11q-18 16 -41 31t-46 31.5t-44.5 34.5t-34.5 39l-1 1q9 15 35.5 27
t54.5 18.5t50.5 8t23.5 -4.5q3 -13 1 -30t-3.5 -34.5t-1 -34.5t8.5 -29q12 8 32.5 22t43.5 28.5t45.5 26.5t38.5 16z" />
    <glyph glyph-name="dcaron" unicode="&#x10f;" horiz-adv-x="408" 
d="M248 197q-9 -26 -20 -60t-26 -64.5t-35.5 -51.5t-48.5 -21q-30 0 -57 22.5t-43.5 59t-20 84t11.5 97.5q23 75 63.5 128.5t83 84t79 38t51.5 -9.5q5 -5 8.5 -10t7.5 -11l16 52q14 46 25 80.5t20 65t16.5 62t16.5 71.5q0 1 13.5 1t32.5 -1t41 -4t39.5 -8.5t27.5 -14
t5 -20.5q0 -2 -9 -24.5t-23.5 -60t-32 -86t-34.5 -101.5q-18 -54 -35.5 -109t-32 -104.5t-25.5 -90t-15 -65.5q-5 -21 -5.5 -32t2.5 -14t8.5 0.5t13.5 11.5q13 13 34.5 44t46.5 79q14 26 19 30t5 -10q0 -5 -3 -15t-12 -26q-23 -40 -46.5 -77.5t-48.5 -63.5q-56 -61 -92 -46
q-13 6 -21 24t-11 44.5t-0.5 58t11.5 63.5q1 4 0.5 3.5t-1.5 -3.5zM228 242q3 12 9.5 32.5t15 47.5t18.5 59.5t21 67.5q-8 7 -15 12q-15 8 -30.5 -5.5t-29.5 -41.5t-28 -67.5t-26 -83.5q-13 -44 -21.5 -81t-11 -64t1.5 -42t18 -15q13 0 21 9.5t15.5 31.5t17 56t24.5 84z
M575 658q12 14 14 33t-2 41t-12.5 45.5t-18.5 46.5q-3 5 13 12t39 11.5t48.5 5t41.5 -6.5v-1q4 -24 -6.5 -54.5t-27 -60t-36 -53.5t-34.5 -33q-7 -5 -11.5 -4t-7 4.5t-2.5 7.5t2 6z" />
    <glyph glyph-name="Dcroat" unicode="&#x110;" horiz-adv-x="499" 
d="M72 -3q-16 6 -34.5 20.5t-32.5 38.5t-19.5 57.5t5.5 75.5q6 25 16.5 62.5t23.5 82.5t27.5 94.5t28.5 98t26.5 93t22.5 80.5q-55 -43 -101 -98q-2 -3 -5.5 5t-7 21.5t-6.5 30t-5 31.5t-2.5 25.5t1.5 12.5q13 13 45.5 29t76.5 30t95 24t100 10q56 0 107 -26.5t83.5 -78.5
t39.5 -128t-24 -176q-38 -120 -99 -205t-128 -136.5t-130 -69.5t-104 -4zM307 782q-18 0 -40 -7t-47 -20q18 -3 35 -7t30.5 -9.5t21 -12.5t4.5 -16q-2 -6 -12 -31t-24.5 -63t-32 -87t-35.5 -103t-31 -94.5t-22.5 -72.5t-16 -58t-11.5 -51q-5 -26 -9 -49.5t-5 -41.5
t2.5 -29.5t12.5 -11.5q54 -2 118.5 98t123.5 296q56 187 38 278.5t-100 91.5zM321 504q-16 -19 -43 -38.5t-66.5 -35.5t-92 -25t-118.5 -6h-1q-5 9 -4 30.5t6 43t14 38.5t21 18q2 0 22.5 -1t50.5 -3.5t65 -5t66 -4.5t53.5 -3.5t28.5 -1.5q4 0 -2 -6z" />
    <glyph glyph-name="dcroat" unicode="&#x111;" horiz-adv-x="408" 
d="M248 197q-9 -26 -20 -60t-26 -64.5t-35.5 -51.5t-48.5 -21q-30 0 -57 22.5t-43.5 59t-20 84t11.5 97.5q23 75 63.5 128.5t83 84t79 38t51.5 -9.5q5 -5 8.5 -10t7.5 -11l16 52q14 46 25 80.5t20 65t16.5 62t16.5 71.5q0 1 13.5 1t32.5 -1t41 -4t39.5 -8.5t27.5 -14
t5 -20.5q0 -2 -9 -24.5t-23.5 -60t-32 -86t-34.5 -101.5q-18 -54 -35.5 -109t-32 -104.5t-25.5 -90t-15 -65.5q-5 -21 -5.5 -32t2.5 -14t8.5 0.5t13.5 11.5q13 13 34.5 44t46.5 79q14 26 19 30t5 -10q0 -5 -3 -15t-12 -26q-23 -40 -46.5 -77.5t-48.5 -63.5q-56 -61 -92 -46
q-13 6 -21 24t-11 44.5t-0.5 58t11.5 63.5q1 4 0.5 3.5t-1.5 -3.5zM228 242q3 12 9.5 32.5t15 47.5t18.5 59.5t21 67.5q-8 7 -15 12q-15 8 -30.5 -5.5t-29.5 -41.5t-28 -67.5t-26 -83.5q-13 -44 -21.5 -81t-11 -64t1.5 -42t18 -15q13 0 21 9.5t15.5 31.5t17 56t24.5 84z
M605 714q-16 -19 -43 -38.5t-66.5 -35.5t-92 -25t-118.5 -6h-1q-5 9 -4 29t6 40t14 35t21 16q2 0 22.5 -0.5t50.5 -1.5t65 -2t66 -2.5t53.5 -2t28.5 -0.5q4 0 -2 -6z" />
    <glyph glyph-name="Emacron" unicode="&#x112;" horiz-adv-x="356" 
d="M543 931q-16 -19 -43 -38.5t-66.5 -35.5t-92 -25t-118.5 -6h-1q-5 9 -4 30.5t6 43t14 38.5t21 18q2 0 22.5 -1t50.5 -3.5t65 -5t66 -4.5t53.5 -3.5t28.5 -1.5q4 0 -2 -6zM-21 270q15 50 43 83.5t62 55.5t69.5 33t66.5 16q-27 10 -53 26t-44.5 39t-25.5 54t3 70
q10 40 32.5 70.5t51 51.5t61 32t62.5 13.5t55 -4t40 -20.5q16 -17 34 -38.5t28.5 -51t10 -67.5t-20.5 -87l-1 -1q-11 -2 -36.5 1t-51.5 9.5t-44.5 15.5t-15.5 20q0 2 8.5 14.5t19.5 29.5t23.5 36.5t22.5 37t14.5 29.5t-0.5 15q-21 11 -41 8t-37.5 -16.5t-30.5 -37.5t-21 -55
q-9 -36 -14 -67t-4.5 -54.5t9 -37t28.5 -13.5q17 0 32 -1t32 -1q1 0 2.5 -6t-1.5 -12.5t-11 -12.5t-24 -6h-13.5t-14.5 2q-40 -2 -78 -43.5t-63 -129.5q-14 -48 -19 -90t-0.5 -73t19.5 -48.5t41 -17.5q21 0 48 12t55.5 34.5t56 55t48.5 72.5q14 26 19 30t5 -10q0 -5 -3 -15
t-12 -26q-21 -38 -49 -74.5t-60.5 -65.5t-70 -47t-77.5 -18q-51 0 -90 21t-62 58.5t-27.5 89t14.5 112.5z" />
    <glyph glyph-name="emacron" unicode="&#x113;" horiz-adv-x="351" 
d="M395 400q-4 -23 -28.5 -53t-60.5 -62t-80.5 -65t-89.5 -63q-1 -45 12.5 -72.5t40.5 -32.5q16 -3 42.5 7t56 31t59 52.5t50.5 72.5q14 26 19 30t5 -10q0 -5 -3 -15t-12 -26q-22 -38 -52.5 -73t-65.5 -62t-73.5 -43t-75.5 -16q-41 0 -73 22.5t-51.5 59t-24 84t10.5 97.5
q23 75 66.5 128t89 84t85.5 38t57 -9q5 -5 21.5 -16t34 -25t30.5 -30.5t10 -32.5zM155 263q-10 -35 -15 -67q40 37 72.5 82.5t53.5 86t28 69.5t-4 35q-15 8 -33.5 -7t-36.5 -44.5t-35 -70t-30 -84.5zM477 641q-16 -19 -43 -38.5t-66.5 -35.5t-92 -25t-118.5 -6h-1
q-5 9 -4 30.5t6 43t14 38.5t21 18q2 0 22.5 -1t50.5 -3.5t65 -5t66 -4.5t53.5 -3.5t28.5 -1.5q4 0 -2 -6z" />
    <glyph glyph-name="Ebreve" unicode="&#x114;" horiz-adv-x="356" 
d="M465 991q-6 -23 -15.5 -47.5t-24 -45t-33 -33.5t-40.5 -13q-28 0 -51.5 11t-41 29.5t-28.5 42t-14 47.5q-2 16 21 24.5t52.5 9.5t54.5 -6t27 -20q3 -27 5.5 -42t16.5 -15q15 0 27 13.5t21 46.5q3 10 7.5 15t9 5t7 -5.5t-0.5 -16.5zM-21 270q15 50 43 83.5t62 55.5
t69.5 33t66.5 16q-27 10 -53 26t-44.5 39t-25.5 54t3 70q10 40 32.5 70.5t51 51.5t61 32t62.5 13.5t55 -4t40 -20.5q16 -17 34 -38.5t28.5 -51t10 -67.5t-20.5 -87l-1 -1q-11 -2 -36.5 1t-51.5 9.5t-44.5 15.5t-15.5 20q0 2 8.5 14.5t19.5 29.5t23.5 36.5t22.5 37t14.5 29.5
t-0.5 15q-21 11 -41 8t-37.5 -16.5t-30.5 -37.5t-21 -55q-9 -36 -14 -67t-4.5 -54.5t9 -37t28.5 -13.5q17 0 32 -1t32 -1q1 0 2.5 -6t-1.5 -12.5t-11 -12.5t-24 -6h-13.5t-14.5 2q-40 -2 -78 -43.5t-63 -129.5q-14 -48 -19 -90t-0.5 -73t19.5 -48.5t41 -17.5q21 0 48 12
t55.5 34.5t56 55t48.5 72.5q14 26 19 30t5 -10q0 -5 -3 -15t-12 -26q-21 -38 -49 -74.5t-60.5 -65.5t-70 -47t-77.5 -18q-51 0 -90 21t-62 58.5t-27.5 89t14.5 112.5z" />
    <glyph glyph-name="ebreve" unicode="&#x115;" horiz-adv-x="351" 
d="M395 400q-4 -23 -28.5 -53t-60.5 -62t-80.5 -65t-89.5 -63q-1 -45 12.5 -72.5t40.5 -32.5q16 -3 42.5 7t56 31t59 52.5t50.5 72.5q14 26 19 30t5 -10q0 -5 -3 -15t-12 -26q-22 -38 -52.5 -73t-65.5 -62t-73.5 -43t-75.5 -16q-41 0 -73 22.5t-51.5 59t-24 84t10.5 97.5
q23 75 66.5 128t89 84t85.5 38t57 -9q5 -5 21.5 -16t34 -25t30.5 -30.5t10 -32.5zM155 263q-10 -35 -15 -67q40 37 72.5 82.5t53.5 86t28 69.5t-4 35q-15 8 -33.5 -7t-36.5 -44.5t-35 -70t-30 -84.5zM401 669q-6 -23 -15.5 -47.5t-24 -45t-33 -33.5t-40.5 -13
q-28 0 -51.5 11t-41 29.5t-28.5 42t-14 47.5q-2 16 21 24.5t52.5 9.5t54.5 -6t27 -20q3 -27 5.5 -42t16.5 -15q15 0 27 13.5t21 46.5q3 10 7.5 15t9 5t7 -5.5t-0.5 -16.5z" />
    <glyph glyph-name="Edotaccent" unicode="&#x116;" horiz-adv-x="356" 
d="M478 885q-5 -14 -19.5 -24t-33 -15.5t-39.5 -6.5t-38 4q-16 4 -31 13.5t-25.5 22t-15 26.5t1.5 28q5 13 18.5 23t31.5 16t38.5 7t41.5 -4q14 -3 28.5 -12t25.5 -21.5t16 -27t0 -29.5zM-21 270q15 50 43 83.5t62 55.5t69.5 33t66.5 16q-27 10 -53 26t-44.5 39t-25.5 54
t3 70q10 40 32.5 70.5t51 51.5t61 32t62.5 13.5t55 -4t40 -20.5q16 -17 34 -38.5t28.5 -51t10 -67.5t-20.5 -87l-1 -1q-11 -2 -36.5 1t-51.5 9.5t-44.5 15.5t-15.5 20q0 2 8.5 14.5t19.5 29.5t23.5 36.5t22.5 37t14.5 29.5t-0.5 15q-21 11 -41 8t-37.5 -16.5t-30.5 -37.5
t-21 -55q-9 -36 -14 -67t-4.5 -54.5t9 -37t28.5 -13.5q17 0 32 -1t32 -1q1 0 2.5 -6t-1.5 -12.5t-11 -12.5t-24 -6h-13.5t-14.5 2q-40 -2 -78 -43.5t-63 -129.5q-14 -48 -19 -90t-0.5 -73t19.5 -48.5t41 -17.5q21 0 48 12t55.5 34.5t56 55t48.5 72.5q14 26 19 30t5 -10
q0 -5 -3 -15t-12 -26q-21 -38 -49 -74.5t-60.5 -65.5t-70 -47t-77.5 -18q-51 0 -90 21t-62 58.5t-27.5 89t14.5 112.5z" />
    <glyph glyph-name="edotaccent" unicode="&#x117;" horiz-adv-x="351" 
d="M395 400q-4 -23 -28.5 -53t-60.5 -62t-80.5 -65t-89.5 -63q-1 -45 12.5 -72.5t40.5 -32.5q16 -3 42.5 7t56 31t59 52.5t50.5 72.5q14 26 19 30t5 -10q0 -5 -3 -15t-12 -26q-22 -38 -52.5 -73t-65.5 -62t-73.5 -43t-75.5 -16q-41 0 -73 22.5t-51.5 59t-24 84t10.5 97.5
q23 75 66.5 128t89 84t85.5 38t57 -9q5 -5 21.5 -16t34 -25t30.5 -30.5t10 -32.5zM155 263q-10 -35 -15 -67q40 37 72.5 82.5t53.5 86t28 69.5t-4 35q-15 8 -33.5 -7t-36.5 -44.5t-35 -70t-30 -84.5zM422 601q-5 -14 -19.5 -24t-33 -15.5t-39.5 -6.5t-38 4q-16 4 -31 13.5
t-25.5 22t-15 26.5t1.5 28q5 13 18.5 23t31.5 16t38.5 7t41.5 -4q14 -3 28.5 -12t25.5 -21.5t16 -27t0 -29.5z" />
    <glyph glyph-name="Eogonek" unicode="&#x118;" horiz-adv-x="356" 
d="M148 17q21 7 23.5 -1.5t-14.5 -19.5q-27 -17 -39 -31.5t-10 -32.5q2 -13 22.5 -20.5t47.5 -7.5q10 0 14.5 -17t3.5 -38t-7.5 -39t-19.5 -19q-27 -3 -53 4.5t-46.5 21t-33.5 31.5t-15 37t7.5 39t27.5 38t42 32.5t50 22.5zM-21 270q15 50 43 83.5t62 55.5t69.5 33t66.5 16
q-27 10 -53 26t-44.5 39t-25.5 54t3 70q10 40 32.5 70.5t51 51.5t61 32t62.5 13.5t55 -4t40 -20.5q16 -17 34 -38.5t28.5 -51t10 -67.5t-20.5 -87l-1 -1q-11 -2 -36.5 1t-51.5 9.5t-44.5 15.5t-15.5 20q0 2 8.5 14.5t19.5 29.5t23.5 36.5t22.5 37t14.5 29.5t-0.5 15
q-21 11 -41 8t-37.5 -16.5t-30.5 -37.5t-21 -55q-9 -36 -14 -67t-4.5 -54.5t9 -37t28.5 -13.5q17 0 32 -1t32 -1q1 0 2.5 -6t-1.5 -12.5t-11 -12.5t-24 -6h-13.5t-14.5 2q-40 -2 -78 -43.5t-63 -129.5q-14 -48 -19 -90t-0.5 -73t19.5 -48.5t41 -17.5q21 0 48 12t55.5 34.5
t56 55t48.5 72.5q14 26 19 30t5 -10q0 -5 -3 -15t-12 -26q-21 -38 -49 -74.5t-60.5 -65.5t-70 -47t-77.5 -18q-51 0 -90 21t-62 58.5t-27.5 89t14.5 112.5z" />
    <glyph glyph-name="eogonek" unicode="&#x119;" horiz-adv-x="351" 
d="M395 400q-4 -23 -28.5 -53t-60.5 -62t-80.5 -65t-89.5 -63q-1 -45 12.5 -72.5t40.5 -32.5q16 -3 42.5 7t56 31t59 52.5t50.5 72.5q14 26 19 30t5 -10q0 -5 -3 -15t-12 -26q-22 -38 -52.5 -73t-65.5 -62t-73.5 -43t-75.5 -16q-41 0 -73 22.5t-51.5 59t-24 84t10.5 97.5
q23 75 66.5 128t89 84t85.5 38t57 -9q5 -5 21.5 -16t34 -25t30.5 -30.5t10 -32.5zM155 263q-10 -35 -15 -67q40 37 72.5 82.5t53.5 86t28 69.5t-4 35q-15 8 -33.5 -7t-36.5 -44.5t-35 -70t-30 -84.5zM119 27q21 7 23.5 -1.5t-14.5 -19.5q-27 -17 -39 -31.5t-10 -32.5
q2 -13 22.5 -20.5t47.5 -7.5q10 0 14.5 -17t3.5 -38t-7.5 -39t-19.5 -19q-27 -3 -53 4.5t-46.5 21t-33.5 31.5t-15 37t7.5 39t27.5 38t42 32.5t50 22.5z" />
    <glyph glyph-name="Ecaron" unicode="&#x11a;" horiz-adv-x="356" 
d="M498 1034q8 2 12 0.5t5.5 -4.5t1 -6.5t-1.5 -4.5q-15 -8 -33 -22.5t-37.5 -33.5t-39.5 -41t-39 -45q-5 -6 -11.5 -5t-18.5 11q-18 16 -41 31t-46 31.5t-44.5 34.5t-34.5 39l-1 1q9 15 35.5 27t54.5 18.5t50.5 8t23.5 -4.5q3 -13 1 -30t-3.5 -34.5t-1 -34.5t8.5 -29
q12 8 32.5 22t43.5 28.5t45.5 26.5t38.5 16zM-21 270q15 50 43 83.5t62 55.5t69.5 33t66.5 16q-27 10 -53 26t-44.5 39t-25.5 54t3 70q10 40 32.5 70.5t51 51.5t61 32t62.5 13.5t55 -4t40 -20.5q16 -17 34 -38.5t28.5 -51t10 -67.5t-20.5 -87l-1 -1q-11 -2 -36.5 1
t-51.5 9.5t-44.5 15.5t-15.5 20q0 2 8.5 14.5t19.5 29.5t23.5 36.5t22.5 37t14.5 29.5t-0.5 15q-21 11 -41 8t-37.5 -16.5t-30.5 -37.5t-21 -55q-9 -36 -14 -67t-4.5 -54.5t9 -37t28.5 -13.5q17 0 32 -1t32 -1q1 0 2.5 -6t-1.5 -12.5t-11 -12.5t-24 -6h-13.5t-14.5 2
q-40 -2 -78 -43.5t-63 -129.5q-14 -48 -19 -90t-0.5 -73t19.5 -48.5t41 -17.5q21 0 48 12t55.5 34.5t56 55t48.5 72.5q14 26 19 30t5 -10q0 -5 -3 -15t-12 -26q-21 -38 -49 -74.5t-60.5 -65.5t-70 -47t-77.5 -18q-51 0 -90 21t-62 58.5t-27.5 89t14.5 112.5z" />
    <glyph glyph-name="ecaron" unicode="&#x11b;" horiz-adv-x="351" 
d="M395 400q-4 -23 -28.5 -53t-60.5 -62t-80.5 -65t-89.5 -63q-1 -45 12.5 -72.5t40.5 -32.5q16 -3 42.5 7t56 31t59 52.5t50.5 72.5q14 26 19 30t5 -10q0 -5 -3 -15t-12 -26q-22 -38 -52.5 -73t-65.5 -62t-73.5 -43t-75.5 -16q-41 0 -73 22.5t-51.5 59t-24 84t10.5 97.5
q23 75 66.5 128t89 84t85.5 38t57 -9q5 -5 21.5 -16t34 -25t30.5 -30.5t10 -32.5zM155 263q-10 -35 -15 -67q40 37 72.5 82.5t53.5 86t28 69.5t-4 35q-15 8 -33.5 -7t-36.5 -44.5t-35 -70t-30 -84.5zM429 723q8 2 12 0.5t5.5 -4.5t1 -6.5t-1.5 -4.5q-15 -8 -33 -22.5
t-37.5 -33.5t-39.5 -41t-39 -45q-5 -6 -11.5 -5t-18.5 11q-18 16 -41 31t-46 31.5t-44.5 34.5t-34.5 39l-1 1q9 15 35.5 27t54.5 18.5t50.5 8t23.5 -4.5q3 -13 1 -30t-3.5 -34.5t-1 -34.5t8.5 -29q12 8 32.5 22t43.5 28.5t45.5 26.5t38.5 16z" />
    <glyph glyph-name="Gcircumflex" unicode="&#x11c;" horiz-adv-x="438" 
d="M202 17l4 10l4 10q-16 -17 -34.5 -27t-41.5 -10q-28 0 -59 30.5t-50.5 87.5t-20.5 137.5t30 180.5q37 121 91 203t110 126t106.5 50t81.5 -25q13 -13 28.5 -42t24 -71t5 -95.5t-28.5 -114.5v-1q-11 -2 -37 1t-52 9t-44.5 15.5t-15.5 20.5q0 2 10 20t24 44t29.5 56
t27.5 56t18.5 44t1.5 21q-61 31 -111.5 -46.5t-105.5 -270.5q-27 -93 -38 -164t-11.5 -119t7 -73.5t19.5 -27.5q18 -4 33.5 11t29.5 46q14 38 23 64.5t14.5 47t8.5 36t6 30.5q1 5 1 9.5v7.5v7q10 1 35 -1.5t50 -9t43 -15.5t15 -20l-87 -248q-29 -83 -73 -140t-89.5 -88
t-85 -37t-58.5 14q-15 14 -28.5 35t-21 47.5t-7 57t14.5 63.5v1q10 1 34.5 -1.5t49 -9t41.5 -15.5t14 -20q-1 -3 -18 -21t-35 -38.5t-30.5 -38.5t-5.5 -22q35 -17 71.5 39t82.5 174zM266 847q-8 -2 -12 -0.5t-5.5 5t-1.5 6.5t2 4q15 8 40.5 26t54.5 40.5t57 47.5t47 48
q6 7 21 -4t35 -35t42.5 -58t42.5 -73q0 -1 1 -1q-9 -15 -34.5 -24t-53 -12.5t-49 -1.5t-22.5 8q-5 26 -11.5 49.5t-22.5 47.5q-12 -8 -28 -18.5t-33.5 -21t-35.5 -20t-34 -13.5z" />
    <glyph glyph-name="gcircumflex" unicode="&#x11d;" horiz-adv-x="397" 
d="M190 17q23 52 35 87t17 55.5t5 29v8.5q-9 -26 -20.5 -60t-28 -64.5t-37.5 -51.5t-49 -21q-39 0 -66 22.5t-40.5 59t-13 84t15.5 97.5q24 76 62.5 130t78.5 85t74.5 37.5t51.5 -11.5q11 -13 21 -27.5t17 -28.5q17 -2 38.5 -6t40 -10t30.5 -13.5t9 -16.5q-1 -3 -9.5 -27
t-25.5 -71t-42.5 -118.5t-60.5 -168.5q-29 -82 -67 -137.5t-75.5 -85t-70.5 -34t-52 15.5q-14 14 -27 36.5t-20 50t-6.5 59.5t14.5 65l1 1q10 1 34.5 -1.5t48.5 -9t41 -16t14 -20.5q-1 -2 -9 -11.5t-19.5 -23t-24.5 -28.5t-23 -28.5t-15 -23.5t0 -12q34 -18 67.5 34.5
t85.5 168.5zM288 445q-12 15 -22 21q-15 8 -28.5 -6t-26.5 -43.5t-25 -69.5t-25 -84q-12 -44 -20 -81t-11 -64t0.5 -42t13.5 -15q13 0 22 9.5t17.5 31.5t18.5 56t25 84q18 61 33 110t23 79zM157 547q-8 -2 -12 -0.5t-5.5 5t-1.5 6.5t2 4q15 8 40.5 26t54.5 40.5t57 47.5
t47 48q6 7 21 -4t35 -35t42.5 -58t42.5 -73q0 -1 1 -1q-9 -15 -34.5 -24t-53 -12.5t-49 -1.5t-22.5 8q-5 26 -11.5 49.5t-22.5 47.5q-12 -8 -28 -18.5t-33.5 -21t-35.5 -20t-34 -13.5z" />
    <glyph glyph-name="Gbreve" unicode="&#x11e;" horiz-adv-x="438" 
d="M202 17l4 10l4 10q-16 -17 -34.5 -27t-41.5 -10q-28 0 -59 30.5t-50.5 87.5t-20.5 137.5t30 180.5q37 121 91 203t110 126t106.5 50t81.5 -25q13 -13 28.5 -42t24 -71t5 -95.5t-28.5 -114.5v-1q-11 -2 -37 1t-52 9t-44.5 15.5t-15.5 20.5q0 2 10 20t24 44t29.5 56
t27.5 56t18.5 44t1.5 21q-61 31 -111.5 -46.5t-105.5 -270.5q-27 -93 -38 -164t-11.5 -119t7 -73.5t19.5 -27.5q18 -4 33.5 11t29.5 46q14 38 23 64.5t14.5 47t8.5 36t6 30.5q1 5 1 9.5v7.5v7q10 1 35 -1.5t50 -9t43 -15.5t15 -20l-87 -248q-29 -83 -73 -140t-89.5 -88
t-85 -37t-58.5 14q-15 14 -28.5 35t-21 47.5t-7 57t14.5 63.5v1q10 1 34.5 -1.5t49 -9t41.5 -15.5t14 -20q-1 -3 -18 -21t-35 -38.5t-30.5 -38.5t-5.5 -22q35 -17 71.5 39t82.5 174zM506 969q-6 -23 -15.5 -47.5t-24 -45t-33 -33.5t-40.5 -13q-28 0 -51.5 11t-41 29.5
t-28.5 42t-14 47.5q-2 16 21 24.5t52.5 9.5t54.5 -6t27 -20q3 -27 5.5 -42t16.5 -15q15 0 27 13.5t21 46.5q3 10 7.5 15t9 5t7 -5.5t-0.5 -16.5z" />
    <glyph glyph-name="gbreve" unicode="&#x11f;" horiz-adv-x="397" 
d="M190 17q23 52 35 87t17 55.5t5 29v8.5q-9 -26 -20.5 -60t-28 -64.5t-37.5 -51.5t-49 -21q-39 0 -66 22.5t-40.5 59t-13 84t15.5 97.5q24 76 62.5 130t78.5 85t74.5 37.5t51.5 -11.5q11 -13 21 -27.5t17 -28.5q17 -2 38.5 -6t40 -10t30.5 -13.5t9 -16.5q-1 -3 -9.5 -27
t-25.5 -71t-42.5 -118.5t-60.5 -168.5q-29 -82 -67 -137.5t-75.5 -85t-70.5 -34t-52 15.5q-14 14 -27 36.5t-20 50t-6.5 59.5t14.5 65l1 1q10 1 34.5 -1.5t48.5 -9t41 -16t14 -20.5q-1 -2 -9 -11.5t-19.5 -23t-24.5 -28.5t-23 -28.5t-15 -23.5t0 -12q34 -18 67.5 34.5
t85.5 168.5zM288 445q-12 15 -22 21q-15 8 -28.5 -6t-26.5 -43.5t-25 -69.5t-25 -84q-12 -44 -20 -81t-11 -64t0.5 -42t13.5 -15q13 0 22 9.5t17.5 31.5t18.5 56t25 84q18 61 33 110t23 79zM427 669q-6 -23 -15.5 -47.5t-24 -45t-33 -33.5t-40.5 -13q-28 0 -51.5 11
t-41 29.5t-28.5 42t-14 47.5q-2 16 21 24.5t52.5 9.5t54.5 -6t27 -20q3 -27 5.5 -42t16.5 -15q15 0 27 13.5t21 46.5q3 10 7.5 15t9 5t7 -5.5t-0.5 -16.5z" />
    <glyph glyph-name="Gdotaccent" unicode="&#x120;" horiz-adv-x="438" 
d="M202 17l4 10l4 10q-16 -17 -34.5 -27t-41.5 -10q-28 0 -59 30.5t-50.5 87.5t-20.5 137.5t30 180.5q37 121 91 203t110 126t106.5 50t81.5 -25q13 -13 28.5 -42t24 -71t5 -95.5t-28.5 -114.5v-1q-11 -2 -37 1t-52 9t-44.5 15.5t-15.5 20.5q0 2 10 20t24 44t29.5 56
t27.5 56t18.5 44t1.5 21q-61 31 -111.5 -46.5t-105.5 -270.5q-27 -93 -38 -164t-11.5 -119t7 -73.5t19.5 -27.5q18 -4 33.5 11t29.5 46q14 38 23 64.5t14.5 47t8.5 36t6 30.5q1 5 1 9.5v7.5v7q10 1 35 -1.5t50 -9t43 -15.5t15 -20l-87 -248q-29 -83 -73 -140t-89.5 -88
t-85 -37t-58.5 14q-15 14 -28.5 35t-21 47.5t-7 57t14.5 63.5v1q10 1 34.5 -1.5t49 -9t41.5 -15.5t14 -20q-1 -3 -18 -21t-35 -38.5t-30.5 -38.5t-5.5 -22q35 -17 71.5 39t82.5 174zM482 897q-5 -14 -19.5 -24t-33 -15.5t-39.5 -6.5t-38 4q-16 4 -31 13.5t-25.5 22t-15 26.5
t1.5 28q5 13 18.5 23t31.5 16t38.5 7t41.5 -4q14 -3 28.5 -12t25.5 -21.5t16 -27t0 -29.5z" />
    <glyph glyph-name="gdotaccent" unicode="&#x121;" horiz-adv-x="397" 
d="M190 17q23 52 35 87t17 55.5t5 29v8.5q-9 -26 -20.5 -60t-28 -64.5t-37.5 -51.5t-49 -21q-39 0 -66 22.5t-40.5 59t-13 84t15.5 97.5q24 76 62.5 130t78.5 85t74.5 37.5t51.5 -11.5q11 -13 21 -27.5t17 -28.5q17 -2 38.5 -6t40 -10t30.5 -13.5t9 -16.5q-1 -3 -9.5 -27
t-25.5 -71t-42.5 -118.5t-60.5 -168.5q-29 -82 -67 -137.5t-75.5 -85t-70.5 -34t-52 15.5q-14 14 -27 36.5t-20 50t-6.5 59.5t14.5 65l1 1q10 1 34.5 -1.5t48.5 -9t41 -16t14 -20.5q-1 -2 -9 -11.5t-19.5 -23t-24.5 -28.5t-23 -28.5t-15 -23.5t0 -12q34 -18 67.5 34.5
t85.5 168.5zM288 445q-12 15 -22 21q-15 8 -28.5 -6t-26.5 -43.5t-25 -69.5t-25 -84q-12 -44 -20 -81t-11 -64t0.5 -42t13.5 -15q13 0 22 9.5t17.5 31.5t18.5 56t25 84q18 61 33 110t23 79zM446 593q-5 -14 -19.5 -24t-33 -15.5t-39.5 -6.5t-38 4q-16 4 -31 13.5t-25.5 22
t-15 26.5t1.5 28q5 13 18.5 23t31.5 16t38.5 7t41.5 -4q14 -3 28.5 -12t25.5 -21.5t16 -27t0 -29.5z" />
    <glyph glyph-name="uni0122" unicode="&#x122;" horiz-adv-x="438" 
d="M202 17l4 10l4 10q-16 -17 -34.5 -27t-41.5 -10q-28 0 -59 30.5t-50.5 87.5t-20.5 137.5t30 180.5q37 121 91 203t110 126t106.5 50t81.5 -25q13 -13 28.5 -42t24 -71t5 -95.5t-28.5 -114.5v-1q-11 -2 -37 1t-52 9t-44.5 15.5t-15.5 20.5q0 2 10 20t24 44t29.5 56
t27.5 56t18.5 44t1.5 21q-61 31 -111.5 -46.5t-105.5 -270.5q-27 -93 -38 -164t-11.5 -119t7 -73.5t19.5 -27.5q18 -4 33.5 11t29.5 46q14 38 23 64.5t14.5 47t8.5 36t6 30.5q1 5 1 9.5v7.5v7q10 1 35 -1.5t50 -9t43 -15.5t15 -20l-87 -248q-29 -83 -73 -140t-89.5 -88
t-85 -37t-58.5 14q-15 14 -28.5 35t-21 47.5t-7 57t14.5 63.5v1q10 1 34.5 -1.5t49 -9t41.5 -15.5t14 -20q-1 -3 -18 -21t-35 -38.5t-30.5 -38.5t-5.5 -22q35 -17 71.5 39t82.5 174zM130 -390q-11 -27 -43.5 -52t-66.5 -42q-14 -7 -24.5 -8t-17 0.5t-8.5 4.5t1 5
q22 12 37 24t21 22t2 16.5t-19 8.5q-20 2 -37.5 10t-28 19.5t-13.5 25.5t6 28q6 11 20 19.5t31 13t36 5.5t36 -3q16 -5 31 -15t25.5 -23t14 -28.5t-2.5 -30.5z" />
    <glyph glyph-name="uni0123" unicode="&#x123;" horiz-adv-x="397" 
d="M190 17q23 52 35 87t17 55.5t5 29v8.5q-9 -26 -20.5 -60t-28 -64.5t-37.5 -51.5t-49 -21q-39 0 -66 22.5t-40.5 59t-13 84t15.5 97.5q24 76 62.5 130t78.5 85t74.5 37.5t51.5 -11.5q11 -13 21 -27.5t17 -28.5q17 -2 38.5 -6t40 -10t30.5 -13.5t9 -16.5q-1 -3 -9.5 -27
t-25.5 -71t-42.5 -118.5t-60.5 -168.5q-29 -82 -67 -137.5t-75.5 -85t-70.5 -34t-52 15.5q-14 14 -27 36.5t-20 50t-6.5 59.5t14.5 65l1 1q10 1 34.5 -1.5t48.5 -9t41 -16t14 -20.5q-1 -2 -9 -11.5t-19.5 -23t-24.5 -28.5t-23 -28.5t-15 -23.5t0 -12q34 -18 67.5 34.5
t85.5 168.5zM288 445q-12 15 -22 21q-15 8 -28.5 -6t-26.5 -43.5t-25 -69.5t-25 -84q-12 -44 -20 -81t-11 -64t0.5 -42t13.5 -15q13 0 22 9.5t17.5 31.5t18.5 56t25 84q18 61 33 110t23 79zM367 756q-12 -14 -14 -33t2 -41t12.5 -45.5t18.5 -46.5q3 -5 -13 -12t-39.5 -11.5
t-48.5 -5t-41 6.5v1q-4 24 6.5 54.5t27 60t36 53.5t34.5 33q7 4 11.5 3.5t7 -4t2.5 -7.5t-2 -6z" />
    <glyph glyph-name="Hcircumflex" unicode="&#x124;" horiz-adv-x="504" 
d="M132 0q-26 -5 -52 -1t-43.5 23t-22 55.5t12.5 97.5l12 43h-16.5t-16.5 1h-1q-5 9 -4 22.5t6 26t14 21.5t21 10h6t13 -1q32 117 55 200t38.5 143t26.5 102.5t19 77.5q0 1 13 0.5t31.5 -2.5t40 -6t39 -10t27.5 -14.5t7 -18.5q-2 -5 -13 -33t-30.5 -84.5t-47 -144.5
t-62.5 -214l119 -4q15 57 33.5 122t36.5 123l24.5 80.5t19.5 65t17 62t17 71.5q0 1 13.5 1t32.5 -1t41 -4t39.5 -8.5t27.5 -14t5 -20.5q-1 -2 -10 -24.5t-23 -60t-31.5 -86t-35.5 -101.5q-18 -54 -35 -109t-32 -104.5t-25.5 -90t-14.5 -65.5q-5 -28 -5 -40t3.5 -13.5
t11.5 5.5t20 16q28 24 80 121q14 26 18.5 30t4.5 -10q0 -5 -3 -15t-11 -26q-23 -40 -47 -77.5t-48 -63.5q-14 -15 -30 -27t-31 -19.5t-28.5 -10.5t-22.5 1q-40 16 -47.5 69t11.5 130l14 58q-23 -11 -55.5 -18.5t-73.5 -12.5l-18 -70q-14 -53 -21 -83.5t-10 -46t-3.5 -19.5z
M291 903q-8 -2 -12 -0.5t-5.5 5t-1.5 6.5t2 4q15 8 40.5 26t54.5 40.5t57 47.5t47 48q6 7 21 -4t35 -35t42.5 -58t42.5 -73q0 -1 1 -1q-9 -15 -34.5 -24t-53 -12.5t-49 -1.5t-22.5 8q-5 26 -11.5 49.5t-22.5 47.5q-12 -8 -28 -18.5t-33.5 -21t-35.5 -20t-34 -13.5z" />
    <glyph glyph-name="hcircumflex" unicode="&#x125;" 
d="M105 -3q-26 -5 -51 1.5t-41 28.5t-20 61t11 101q7 29 21.5 79.5t32 112t37 127.5t37 126t31 108.5t19.5 75.5q0 1 13 0.5t31.5 -3t40 -6.5t39 -10t28 -14t7.5 -18q-2 -6 -13 -29t-26.5 -59.5t-34 -83.5t-36.5 -100q-16 -47 -28.5 -91.5t-23.5 -85.5q19 43 39.5 79
t41.5 62.5t43 41.5t44 15q31 0 52 -15t28.5 -47t1.5 -81.5t-29 -119.5q-18 -57 -28.5 -93.5t-13 -55.5t2 -22t16.5 6q17 14 37.5 46.5t46.5 80.5q14 26 18.5 30t4.5 -10q0 -5 -2.5 -15t-11.5 -26q-23 -40 -47 -77.5t-48 -63.5q-56 -61 -92 -46q-12 5 -26 23t-22 48.5
t-7 74.5t19 100q16 54 29.5 89t21 55.5t7.5 29t-10 8.5q-18 0 -37 -22.5t-40 -68.5t-45 -116t-53 -166q-5 -23 -7.5 -35.5t-4.5 -19.5q-2 -8 -3 -10zM172 846q-8 -2 -12 -0.5t-5.5 5t-1.5 6.5t2 4q15 8 40.5 26t54.5 40.5t57 47.5t47 48q6 7 21 -4t35 -35t42.5 -58t42.5 -73
q0 -1 1 -1q-9 -15 -34.5 -24t-53 -12.5t-49 -1.5t-22.5 8q-5 26 -11.5 49.5t-22.5 47.5q-12 -8 -28 -18.5t-33.5 -21t-35.5 -20t-34 -13.5z" />
    <glyph glyph-name="Hbar" unicode="&#x126;" horiz-adv-x="504" 
d="M132 0q-26 -5 -52 -1t-43.5 23t-22 55.5t12.5 97.5l12 43h-16.5t-16.5 1h-1q-5 9 -4 22.5t6 26t14 21.5t21 10h6t13 -1q32 117 55 200t38.5 143t26.5 102.5t19 77.5q0 1 13 0.5t31.5 -2.5t40 -6t39 -10t27.5 -14.5t7 -18.5q-2 -5 -13 -33t-30.5 -84.5t-47 -144.5
t-62.5 -214l119 -4q15 57 33.5 122t36.5 123l24.5 80.5t19.5 65t17 62t17 71.5q0 1 13.5 1t32.5 -1t41 -4t39.5 -8.5t27.5 -14t5 -20.5q-1 -2 -10 -24.5t-23 -60t-31.5 -86t-35.5 -101.5q-18 -54 -35 -109t-32 -104.5t-25.5 -90t-14.5 -65.5q-5 -28 -5 -40t3.5 -13.5
t11.5 5.5t20 16q28 24 80 121q14 26 18.5 30t4.5 -10q0 -5 -3 -15t-11 -26q-23 -40 -47 -77.5t-48 -63.5q-14 -15 -30 -27t-31 -19.5t-28.5 -10.5t-22.5 1q-40 16 -47.5 69t11.5 130l14 58q-23 -11 -55.5 -18.5t-73.5 -12.5l-18 -70q-14 -53 -21 -83.5t-10 -46t-3.5 -19.5z
M463 444q6 6 2 6q-6 0 -28.5 1.5t-53.5 3.5t-66 4.5t-65 5t-50.5 3.5t-22.5 1q-12 -1 -21 -18t-14 -38.5t-6 -43t4 -30.5h1q66 -3 118.5 6t92 25t66.5 35.5t43 38.5z" />
    <glyph glyph-name="hbar" unicode="&#x127;" 
d="M105 -3q-26 -5 -51 1.5t-41 28.5t-20 61t11 101q7 29 21.5 79.5t32 112t37 127.5t37 126t31 108.5t19.5 75.5q0 1 13 0.5t31.5 -3t40 -6.5t39 -10t28 -14t7.5 -18q-2 -6 -13 -29t-26.5 -59.5t-34 -83.5t-36.5 -100q-16 -47 -28.5 -91.5t-23.5 -85.5q19 43 39.5 79
t41.5 62.5t43 41.5t44 15q31 0 52 -15t28.5 -47t1.5 -81.5t-29 -119.5q-18 -57 -28.5 -93.5t-13 -55.5t2 -22t16.5 6q17 14 37.5 46.5t46.5 80.5q14 26 18.5 30t4.5 -10q0 -5 -2.5 -15t-11.5 -26q-23 -40 -47 -77.5t-48 -63.5q-56 -61 -92 -46q-12 5 -26 23t-22 48.5
t-7 74.5t19 100q16 54 29.5 89t21 55.5t7.5 29t-10 8.5q-18 0 -37 -22.5t-40 -68.5t-45 -116t-53 -166q-5 -23 -7.5 -35.5t-4.5 -19.5q-2 -8 -3 -10zM372 641q-16 -19 -43 -38.5t-66.5 -35.5t-92 -25t-118.5 -6h-1q-5 9 -4 30.5t6 43t14 38.5t21 18q2 0 22.5 -1t50.5 -3.5
t65 -5t66 -4.5t53.5 -3.5t28.5 -1.5q4 0 -2 -6z" />
    <glyph glyph-name="Itilde" unicode="&#x128;" horiz-adv-x="403" 
d="M420 787q20 4 38 6.5t35 4.5q33 32 64 49.5t58 24.5q34 9 60 4t39.5 -19t14 -35t-16.5 -45q-1 -2 -9 -2t-19.5 0.5t-24.5 2t-24 3.5q-8 1 -18 1.5t-21 0.5q-12 -10 -28.5 -34.5t-38.5 -72t-49.5 -122t-61.5 -184.5q-37 -117 -86 -198.5t-100 -126.5t-97 -52.5t-77 23.5
q-12 13 -33 32.5t-36 50.5t-17.5 75t22.5 106l1 1q7 1 22 0t33.5 -3.5t38 -7t34.5 -10t24 -12.5t7 -14q-1 -2 -9 -15.5t-19 -32.5t-23.5 -41t-22 -41.5t-14 -33.5t0.5 -16q30 -16 53 -13.5t45.5 36t48 103.5t60.5 190q42 147 91 243t100 154q-14 -2 -28 -5.5t-29 -6.5
q-42 -9 -83 -27.5t-77 -45t-65 -61t-47 -74.5q-15 -33 -26 -62.5t-13 -53.5t6 -40.5t31 -22.5q7 -2 10 21t4 52.5t0.5 55.5t1.5 29q5 10 26.5 11.5t46.5 -3t47 -12.5t29 -16q-19 -50 -41.5 -82.5t-46.5 -52t-48.5 -28t-48.5 -9.5q-30 -1 -63 12t-55 41.5t-26 72t25 103.5
q24 51 75 88.5t112 64.5t124.5 44.5t113.5 26.5zM727 903q-14 -34 -68.5 -33.5t-139.5 45.5q-49 26 -82 34t-48 -18q-5 -9 -10.5 -15t-8.5 -6t-2.5 7.5t6.5 24.5q7 19 17 37.5t20.5 33t21.5 23.5t20 11q13 2 28.5 -3t33.5 -14t39.5 -20.5t47.5 -22.5q52 -22 74.5 -19.5
t9.5 29.5q-5 10 -6.5 17.5t0 10t7.5 -2t16 -19.5q21 -32 26 -58t-2 -42z" />
    <glyph glyph-name="itilde" unicode="&#x129;" horiz-adv-x="218" 
d="M12 242q18 61 33 110t23 79q2 5 2.5 8t1.5 5q1 3 2 4q7 1 21.5 0t32.5 -3.5t36.5 -7t33 -10t23 -12t6.5 -13.5q-1 -3 -11.5 -28t-24 -63.5t-27.5 -87t-22 -97.5q-6 -28 1.5 -32.5t22.5 6.5q17 14 34 40.5t42 74.5q14 26 19 30t5 -10q0 -5 -3 -15t-12 -26
q-23 -40 -46.5 -77.5t-48.5 -63.5q-28 -30 -56 -47t-46 -9q-14 6 -28 24.5t-22.5 50t-8 74t16.5 96.5zM371 526q-14 -34 -68.5 -33.5t-139.5 45.5q-49 26 -82 34t-48 -18q-5 -9 -10.5 -15t-8.5 -6t-2.5 7.5t6.5 24.5q7 19 17 37.5t20.5 33t21.5 23.5t20 11q13 2 28.5 -3
t33.5 -14t39.5 -20.5t47.5 -22.5q52 -22 74.5 -19.5t9.5 29.5q-5 10 -6.5 17.5t0 10t7.5 -2t16 -19.5q21 -32 26 -58t-2 -42z" />
    <glyph glyph-name="imacron" unicode="&#x12b;" horiz-adv-x="218" 
d="M12 242q18 61 33 110t23 79q2 5 2.5 8t1.5 5q1 3 2 4q7 1 21.5 0t32.5 -3.5t36.5 -7t33 -10t23 -12t6.5 -13.5q-1 -3 -11.5 -28t-24 -63.5t-27.5 -87t-22 -97.5q-6 -28 1.5 -32.5t22.5 6.5q17 14 34 40.5t42 74.5q14 26 19 30t5 -10q0 -5 -3 -15t-12 -26
q-23 -40 -46.5 -77.5t-48.5 -63.5q-28 -30 -56 -47t-46 -9q-14 6 -28 24.5t-22.5 50t-8 74t16.5 96.5zM388 621q-16 -19 -43 -38.5t-66.5 -35.5t-92 -25t-118.5 -6h-1q-5 9 -4 30.5t6 43t14 38.5t21 18q2 0 22.5 -1t50.5 -3.5t65 -5t66 -4.5t53.5 -3.5t28.5 -1.5q4 0 -2 -6z
" />
    <glyph glyph-name="Ibreve" unicode="&#x12c;" horiz-adv-x="403" 
d="M420 787q20 4 38 6.5t35 4.5q33 32 64 49.5t58 24.5q34 9 60 4t39.5 -19t14 -35t-16.5 -45q-1 -2 -9 -2t-19.5 0.5t-24.5 2t-24 3.5q-8 1 -18 1.5t-21 0.5q-12 -10 -28.5 -34.5t-38.5 -72t-49.5 -122t-61.5 -184.5q-37 -117 -86 -198.5t-100 -126.5t-97 -52.5t-77 23.5
q-12 13 -33 32.5t-36 50.5t-17.5 75t22.5 106l1 1q7 1 22 0t33.5 -3.5t38 -7t34.5 -10t24 -12.5t7 -14q-1 -2 -9 -15.5t-19 -32.5t-23.5 -41t-22 -41.5t-14 -33.5t0.5 -16q30 -16 53 -13.5t45.5 36t48 103.5t60.5 190q42 147 91 243t100 154q-14 -2 -28 -5.5t-29 -6.5
q-42 -9 -83 -27.5t-77 -45t-65 -61t-47 -74.5q-15 -33 -26 -62.5t-13 -53.5t6 -40.5t31 -22.5q7 -2 10 21t4 52.5t0.5 55.5t1.5 29q5 10 26.5 11.5t46.5 -3t47 -12.5t29 -16q-19 -50 -41.5 -82.5t-46.5 -52t-48.5 -28t-48.5 -9.5q-30 -1 -63 12t-55 41.5t-26 72t25 103.5
q24 51 75 88.5t112 64.5t124.5 44.5t113.5 26.5zM579 985q-6 -23 -15.5 -47.5t-24 -45t-33 -33.5t-40.5 -13q-28 0 -51.5 11t-41 29.5t-28.5 42t-14 47.5q-2 16 21 24.5t52.5 9.5t54.5 -6t27 -20q3 -27 5.5 -42t16.5 -15q15 0 27 13.5t21 46.5q3 10 7.5 15t9 5t7 -5.5
t-0.5 -16.5z" />
    <glyph glyph-name="Iogonek" unicode="&#x12e;" horiz-adv-x="403" 
d="M420 787q20 4 38 6.5t35 4.5q33 32 64 49.5t58 24.5q34 9 60 4t39.5 -19t14 -35t-16.5 -45q-1 -2 -9 -2t-19.5 0.5t-24.5 2t-24 3.5q-8 1 -18 1.5t-21 0.5q-12 -10 -28.5 -34.5t-38.5 -72t-49.5 -122t-61.5 -184.5q-37 -117 -86 -198.5t-100 -126.5t-97 -52.5t-77 23.5
q-12 13 -33 32.5t-36 50.5t-17.5 75t22.5 106l1 1q7 1 22 0t33.5 -3.5t38 -7t34.5 -10t24 -12.5t7 -14q-1 -2 -9 -15.5t-19 -32.5t-23.5 -41t-22 -41.5t-14 -33.5t0.5 -16q30 -16 53 -13.5t45.5 36t48 103.5t60.5 190q42 147 91 243t100 154q-14 -2 -28 -5.5t-29 -6.5
q-42 -9 -83 -27.5t-77 -45t-65 -61t-47 -74.5q-15 -33 -26 -62.5t-13 -53.5t6 -40.5t31 -22.5q7 -2 10 21t4 52.5t0.5 55.5t1.5 29q5 10 26.5 11.5t46.5 -3t47 -12.5t29 -16q-19 -50 -41.5 -82.5t-46.5 -52t-48.5 -28t-48.5 -9.5q-30 -1 -63 12t-55 41.5t-26 72t25 103.5
q24 51 75 88.5t112 64.5t124.5 44.5t113.5 26.5zM109 17q21 7 23.5 -1.5t-14.5 -19.5q-27 -17 -39 -31.5t-10 -32.5q2 -13 22.5 -20.5t47.5 -7.5q10 0 14.5 -17t3.5 -38t-7.5 -39t-19.5 -19q-27 -3 -53 4.5t-46.5 21t-33.5 31.5t-15 37t7.5 39t27.5 38t42 32.5t50 22.5z" />
    <glyph glyph-name="iogonek" unicode="&#x12f;" horiz-adv-x="218" 
d="M21 242q18 61 33 110t23 79q2 5 2.5 8t1.5 5q1 3 2 4q10 1 35 -1.5t50 -9t43 -15.5t15 -20q-1 -3 -11.5 -28t-24 -63.5t-27.5 -87t-22 -97.5q-5 -29 0 -33t19 5q17 14 36.5 41.5t44.5 75.5q14 26 19 30t5 -10q0 -5 -3 -15t-12 -26q-23 -40 -46.5 -77.5t-48.5 -63.5
q-28 -30 -52.5 -45.5t-49.5 -10.5q-48 9 -56.5 71t24.5 174zM305 535q-5 -14 -19.5 -24t-33 -15.5t-39.5 -6.5t-38 4q-16 4 -31 13.5t-25.5 22t-15 26.5t1.5 28q5 13 18.5 23t31.5 16t38.5 7t41.5 -4q14 -3 28.5 -12t25.5 -21.5t16 -27t0 -29.5zM67 27q21 7 23.5 -1.5
t-14.5 -19.5q-27 -17 -39 -31.5t-10 -32.5q2 -13 22.5 -20.5t47.5 -7.5q10 0 14.5 -17t3.5 -38t-7.5 -39t-19.5 -19q-27 -3 -53 4.5t-46.5 21t-33.5 31.5t-15 37t7.5 39t27.5 38t42 32.5t50 22.5z" />
    <glyph glyph-name="Idotaccent" unicode="&#x130;" horiz-adv-x="403" 
d="M420 787q20 4 38 6.5t35 4.5q33 32 64 49.5t58 24.5q34 9 60 4t39.5 -19t14 -35t-16.5 -45q-1 -2 -9 -2t-19.5 0.5t-24.5 2t-24 3.5q-8 1 -18 1.5t-21 0.5q-12 -10 -28.5 -34.5t-38.5 -72t-49.5 -122t-61.5 -184.5q-37 -117 -86 -198.5t-100 -126.5t-97 -52.5t-77 23.5
q-12 13 -33 32.5t-36 50.5t-17.5 75t22.5 106l1 1q7 1 22 0t33.5 -3.5t38 -7t34.5 -10t24 -12.5t7 -14q-1 -2 -9 -15.5t-19 -32.5t-23.5 -41t-22 -41.5t-14 -33.5t0.5 -16q30 -16 53 -13.5t45.5 36t48 103.5t60.5 190q42 147 91 243t100 154q-14 -2 -28 -5.5t-29 -6.5
q-42 -9 -83 -27.5t-77 -45t-65 -61t-47 -74.5q-15 -33 -26 -62.5t-13 -53.5t6 -40.5t31 -22.5q7 -2 10 21t4 52.5t0.5 55.5t1.5 29q5 10 26.5 11.5t46.5 -3t47 -12.5t29 -16q-19 -50 -41.5 -82.5t-46.5 -52t-48.5 -28t-48.5 -9.5q-30 -1 -63 12t-55 41.5t-26 72t25 103.5
q24 51 75 88.5t112 64.5t124.5 44.5t113.5 26.5zM600 909q-5 -14 -19.5 -24t-33 -15.5t-39.5 -6.5t-38 4q-16 4 -31 13.5t-25.5 22t-15 26.5t1.5 28q5 13 18.5 23t31.5 16t38.5 7t41.5 -4q14 -3 28.5 -12t25.5 -21.5t16 -27t0 -29.5z" />
    <glyph glyph-name="dotlessi" unicode="&#x131;" horiz-adv-x="191" 
d="M-5 242q18 61 33 110t23 79q2 5 2.5 8t1.5 5q1 3 2 4q7 1 21.5 0t32.5 -3.5t36.5 -7t33 -10t23 -12t6.5 -13.5q-1 -3 -11.5 -28t-24 -63.5t-27.5 -87t-22 -97.5q-6 -28 1.5 -32.5t22.5 6.5q17 14 34 40.5t42 74.5q14 26 19 30t5 -10q0 -5 -3 -15t-12 -26
q-23 -40 -46.5 -77.5t-48.5 -63.5q-28 -30 -56 -47t-46 -9q-14 6 -28 24.5t-22.5 50t-8 74t16.5 96.5z" />
    <glyph glyph-name="Jcircumflex" unicode="&#x134;" horiz-adv-x="455" 
d="M465 370q-53 -189 -107 -326.5t-107.5 -216t-107 -95.5t-104.5 34q-14 14 -29 35t-24.5 47.5t-10.5 57t12 63.5l1 1q25 2 53 0t50.5 -8t36 -16t9.5 -22q-1 -3 -18 -21t-35 -38.5t-30.5 -38.5t-5.5 -22q37 -19 66 9t58.5 100.5t63.5 187t80 269.5q43 145 90.5 241.5
t94.5 154.5l-51 -11q-42 -9 -82.5 -27.5t-76.5 -45t-65 -61t-48 -74.5q-15 -33 -26 -62.5t-13 -53.5t6 -40.5t31 -22.5q8 -2 11 21t3.5 52.5t0 55.5t1.5 29q5 10 26.5 11.5t46.5 -3t47.5 -12.5t29.5 -16h-1q-18 -50 -40.5 -82.5t-46.5 -52t-48.5 -28t-48.5 -9.5
q-30 -1 -63.5 12t-55.5 41.5t-26 72t25 103.5q25 51 75.5 88.5t111.5 64.5t124.5 44.5t113.5 26.5q18 3 34.5 5.5t31.5 4.5q32 32 61.5 50t57.5 25q33 8 56 3t35.5 -19t14.5 -35t-8 -44q-1 -2 -7.5 -2.5t-16.5 0.5t-21.5 2.5t-21.5 3.5q-9 1 -20 1.5t-24 0.5
q-13 -11 -29.5 -36t-37.5 -72.5t-46.5 -121.5t-55.5 -183zM514 886q-8 -2 -12 -0.5t-5.5 5t-1.5 6.5t2 4q15 8 40.5 26t54.5 40.5t57 47.5t47 48q6 7 21 -4t35 -35t42.5 -58t42.5 -73q0 -1 1 -1q-9 -15 -34.5 -24t-53 -12.5t-49 -1.5t-22.5 8q-5 26 -11.5 49.5t-22.5 47.5
q-12 -8 -28 -18.5t-33.5 -21t-35.5 -20t-34 -13.5z" />
    <glyph glyph-name="jcircumflex" unicode="&#x135;" horiz-adv-x="191" 
d="M-42 17q25 66 46 133t36 124.5t25 99.5t15 57q2 5 2.5 8t1.5 5q1 3 1 4q10 1 32 -1.5t43.5 -9t36 -15.5t11.5 -20q-1 -3 -9 -26.5t-23.5 -70t-39.5 -118t-57 -170.5q-27 -84 -64.5 -139t-75.5 -84.5t-71.5 -33.5t-52.5 16q-14 14 -27.5 35t-21 47.5t-7.5 57t14 63.5v1
q10 1 31.5 -1.5t42 -9t34.5 -16t11 -20.5q0 -2 -7 -11t-16 -21.5t-19 -26.5t-17.5 -26.5t-10.5 -22t2 -11.5q17 -9 31.5 -0.5t29.5 34t32.5 68t40.5 101.5zM35 517q-8 -2 -12 -0.5t-5.5 5t-1.5 6.5t2 4q15 8 40.5 26t54.5 40.5t57 47.5t47 48q6 7 21 -4t35 -35t42.5 -58
t42.5 -73q0 -1 1 -1q-9 -15 -34.5 -24t-53 -12.5t-49 -1.5t-22.5 8q-5 26 -11.5 49.5t-22.5 47.5q-12 -8 -28 -18.5t-33.5 -21t-35.5 -20t-34 -13.5z" />
    <glyph glyph-name="uni0136" unicode="&#x136;" horiz-adv-x="485" 
d="M358 189q18 -36 29.5 -58.5t19 -34t13 -13t12.5 3.5q17 14 41.5 47.5t50.5 81.5q14 26 18.5 29.5t4.5 -10.5q0 -4 -2.5 -14t-11.5 -26q-23 -41 -47 -78t-48 -63q-14 -15 -28 -29.5t-27 -25t-25 -16.5t-22 -4q-27 5 -56.5 56t-78.5 159q-8 17 -15 29t-18 20l-24 -90
q-14 -54 -21 -83.5t-10 -45.5q-4 -18 -3 -24q-26 -5 -52 -1t-43.5 23t-22 55.5t12.5 97.5q42 152 70.5 257.5t48 178.5t32 122t21.5 88q0 1 13 0.5t31.5 -2.5t40 -6t39 -10t27.5 -14.5t7 -18.5l-13 -32.5t-30.5 -84t-47 -144t-62.5 -213.5q44 16 85 60.5t77 112t66.5 155.5
t53.5 190q0 1 13 1t32 -1t41 -4t39.5 -8.5t27.5 -14t6 -20.5q-65 -199 -157.5 -323t-210.5 -166q28 -6 54 -25.5t49 -63.5zM301 -129q-11 -27 -43.5 -52t-66.5 -42q-14 -7 -24.5 -8t-17 0.5t-8.5 4.5t1 5q22 12 37 24t21 22t2 16.5t-19 8.5q-20 2 -37.5 10t-28 19.5
t-13.5 25.5t6 28q6 11 20 19.5t31 13t36 5.5t36 -3q16 -5 31 -15t25.5 -23t14 -28.5t-2.5 -30.5z" />
    <glyph glyph-name="uni0137" unicode="&#x137;" horiz-adv-x="434" 
d="M104 -3q-26 -5 -50.5 1.5t-40.5 28.5t-20 61t11 101q7 29 21.5 79.5t32 112t37 127.5t37 126t31 108.5t19.5 75.5q0 1 13 0.5t31.5 -3t40 -6.5t39 -10t27.5 -14t7 -18q-2 -6 -11 -29t-23 -59.5t-31 -83.5t-34 -100q-16 -48 -30.5 -93.5t-26.5 -87.5q44 106 91 155t112 49
q27 0 46.5 -14.5t29 -38t7.5 -54.5t-19 -64.5t-50.5 -67t-85.5 -61.5q-1 -1 1 -6q21 -42 32.5 -64.5t18.5 -32t12 -9t13 5.5q8 7 15 15t14.5 19.5t17 28t21.5 40.5q14 26 19 30t5 -10q0 -5 -3 -15t-12 -26q-23 -40 -46.5 -77.5t-47.5 -63.5q-28 -30 -52 -44t-42 -6
q-12 5 -20.5 18t-19 37t-25.5 61.5t-40 91.5q0 -1 7 4q6 5 19 16t39 34q43 38 65 72.5t28.5 60.5t0 41.5t-19.5 15.5q-37 0 -87 -101.5t-110 -297.5q-5 -20 -7.5 -32t-4.5 -18q-2 -7 -2 -9zM266 -119q-11 -27 -43.5 -52t-66.5 -42q-14 -7 -24.5 -8t-17 0.5t-8.5 4.5t1 5
q22 12 37 24t21 22t2 16.5t-19 8.5q-20 2 -37.5 10t-28 19.5t-13.5 25.5t6 28q6 11 20 19.5t31 13t36 5.5t36 -3q16 -5 31 -15t25.5 -23t14 -28.5t-2.5 -30.5z" />
    <glyph glyph-name="kgreenlandic" unicode="&#x138;" horiz-adv-x="434" 
d="M87 -3q-26 -5 -47.5 1.5t-34 28.5t-13 61t14.5 101q11 44 21.5 91t20.5 94.5t19.5 92.5t18.5 85q0 1 11.5 0.5t28 -3t35 -6.5t34 -10t24 -14t5.5 -18l-58 -190q44 98 100.5 152.5t142.5 54.5q40 0 55 -31t1 -76.5t-58.5 -97.5t-123.5 -95q-1 -1 1 -6q25 -50 38 -78
t20 -40.5t11.5 -12.5t13.5 7q35 30 85 127q14 26 19 30t5 -10q0 -5 -3 -15t-12 -26q-23 -40 -46.5 -77.5t-47.5 -63.5q-57 -61 -93 -46q-12 5 -22 16t-22 33t-28.5 57.5t-41.5 89.5l9 8q7 6 20.5 18.5t39.5 35.5q43 38 66 72.5t30 60.5t1 41.5t-19 15.5q-37 0 -92 -101.5
t-115 -297.5q-5 -20 -7.5 -32t-4.5 -18q-2 -7 -2 -9z" />
    <glyph glyph-name="Lacute" unicode="&#x139;" horiz-adv-x="469" 
d="M287 77q44 -22 78.5 -20.5t61.5 22.5t47 60.5t36 93.5q8 29 12 33.5t7 -9.5q1 -5 0 -15.5t-6 -27.5q-13 -38 -29 -76.5t-37 -72.5t-45.5 -60.5t-54.5 -41t-64.5 -14.5t-73.5 20q-29 14 -51.5 30t-39.5 31q-26 -23 -47.5 -33t-38.5 -12.5t-27.5 1.5t-13.5 10q-20 41 5 73
t79 43q7 17 18 43.5t25 65.5t31.5 92t39.5 123q37 121 87.5 203t103 126t100 50t78.5 -25q13 -13 30.5 -32.5t28.5 -50.5t9.5 -75.5t-26.5 -105.5v-1q-7 -1 -22 0t-33.5 4t-38 7t-34.5 9.5t-24 12t-7 14.5q1 2 10.5 15.5t23 33t28.5 41.5t27 41.5t18 33t1 16.5
q-30 15 -56.5 3.5t-52 -51t-52 -106.5t-56.5 -163q-37 -117 -74 -196t-72 -131q41 -8 91 -32zM399 824q-1 -2 -5 -1.5t-8 3t-5.5 7t1.5 11.5q8 16 25 41.5t36 51t37 46t28 25.5v1q15 -9 33.5 -28.5t33 -39.5t22 -35.5t1.5 -16.5q-20 -4 -49 -10t-59 -14t-55 -18t-36 -23z
" />
    <glyph glyph-name="lacute" unicode="&#x13a;" horiz-adv-x="199" 
d="M-4 196q7 28 17.5 68.5t23 86t26 93.5t26.5 91q14 46 25 80.5t20 65t16.5 62t16.5 71.5q0 1 13.5 1t32.5 -1t41 -4t39.5 -8.5t27.5 -14t5 -20.5q0 -2 -9 -24.5t-23.5 -60t-32 -86t-34.5 -101.5q-18 -54 -35.5 -109t-32 -104.5t-25.5 -90t-15 -65.5q-5 -27 1 -31t23 7
q14 11 32 38t44 75q14 26 19 30t5 -10q0 -5 -3 -15t-12 -26q-23 -40 -47 -77.5t-48 -63.5q-29 -31 -57 -45.5t-45 -7.5q-15 6 -26 24t-16 44t-3.5 58.5t10.5 69.5zM231 872q-1 -2 -5 -1.5t-8 3t-5.5 7t1.5 11.5q8 16 25 41.5t36 51t37 46t28 25.5v1q15 -9 33.5 -28.5
t33 -39.5t22 -35.5t1.5 -16.5q-20 -4 -49 -10t-59 -14t-55 -18t-36 -23z" />
    <glyph glyph-name="uni013B" unicode="&#x13b;" horiz-adv-x="469" 
d="M287 77q44 -22 78.5 -20.5t61.5 22.5t47 60.5t36 93.5q8 29 12 33.5t7 -9.5q1 -5 0 -15.5t-6 -27.5q-13 -38 -29 -76.5t-37 -72.5t-45.5 -60.5t-54.5 -41t-64.5 -14.5t-73.5 20q-29 14 -51.5 30t-39.5 31q-26 -23 -47.5 -33t-38.5 -12.5t-27.5 1.5t-13.5 10q-20 41 5 73
t79 43q7 17 18 43.5t25 65.5t31.5 92t39.5 123q37 121 87.5 203t103 126t100 50t78.5 -25q13 -13 30.5 -32.5t28.5 -50.5t9.5 -75.5t-26.5 -105.5v-1q-7 -1 -22 0t-33.5 4t-38 7t-34.5 9.5t-24 12t-7 14.5q1 2 10.5 15.5t23 33t28.5 41.5t27 41.5t18 33t1 16.5
q-30 15 -56.5 3.5t-52 -51t-52 -106.5t-56.5 -163q-37 -117 -74 -196t-72 -131q41 -8 91 -32zM307 -137q-11 -27 -43.5 -52t-66.5 -42q-14 -7 -24.5 -8t-17 0.5t-8.5 4.5t1 5q22 12 37 24t21 22t2 16.5t-19 8.5q-20 2 -37.5 10t-28 19.5t-13.5 25.5t6 28q6 11 20 19.5t31 13
t36 5.5t36 -3q16 -5 31 -15t25.5 -23t14 -28.5t-2.5 -30.5z" />
    <glyph glyph-name="uni013C" unicode="&#x13c;" horiz-adv-x="199" 
d="M-4 196q7 28 17.5 68.5t23 86t26 93.5t26.5 91q14 46 25 80.5t20 65t16.5 62t16.5 71.5q0 1 13.5 1t32.5 -1t41 -4t39.5 -8.5t27.5 -14t5 -20.5q0 -2 -9 -24.5t-23.5 -60t-32 -86t-34.5 -101.5q-18 -54 -35.5 -109t-32 -104.5t-25.5 -90t-15 -65.5q-5 -27 1 -31t23 7
q14 11 32 38t44 75q14 26 19 30t5 -10q0 -5 -3 -15t-12 -26q-23 -40 -47 -77.5t-48 -63.5q-29 -31 -57 -45.5t-45 -7.5q-15 6 -26 24t-16 44t-3.5 58.5t10.5 69.5zM104 -134q-11 -27 -43.5 -52t-66.5 -42q-14 -7 -24.5 -8t-17 0.5t-8.5 4.5t1 5q22 12 37 24t21 22t2 16.5
t-19 8.5q-20 2 -37.5 10t-28 19.5t-13.5 25.5t6 28q6 11 20 19.5t31 13t36 5.5t36 -3q16 -5 31 -15t25.5 -23t14 -28.5t-2.5 -30.5z" />
    <glyph glyph-name="Lcaron" unicode="&#x13d;" horiz-adv-x="469" 
d="M287 77q44 -22 78.5 -20.5t61.5 22.5t47 60.5t36 93.5q8 29 12 33.5t7 -9.5q1 -5 0 -15.5t-6 -27.5q-13 -38 -29 -76.5t-37 -72.5t-45.5 -60.5t-54.5 -41t-64.5 -14.5t-73.5 20q-29 14 -51.5 30t-39.5 31q-26 -23 -47.5 -33t-38.5 -12.5t-27.5 1.5t-13.5 10q-20 41 5 73
t79 43q7 17 18 43.5t25 65.5t31.5 92t39.5 123q37 121 87.5 203t103 126t100 50t78.5 -25q13 -13 30.5 -32.5t28.5 -50.5t9.5 -75.5t-26.5 -105.5v-1q-7 -1 -22 0t-33.5 4t-38 7t-34.5 9.5t-24 12t-7 14.5q1 2 10.5 15.5t23 33t28.5 41.5t27 41.5t18 33t1 16.5
q-30 15 -56.5 3.5t-52 -51t-52 -106.5t-56.5 -163q-37 -117 -74 -196t-72 -131q41 -8 91 -32zM640 702q12 14 14 33t-2 41t-12.5 45.5t-18.5 46.5q-3 5 13 12t39 11.5t48.5 5t41.5 -6.5v-1q4 -24 -6.5 -54.5t-27 -60t-36 -53.5t-34.5 -33q-7 -5 -11.5 -4t-7 4.5t-2.5 7.5
t2 6z" />
    <glyph glyph-name="lcaron" unicode="&#x13e;" horiz-adv-x="199" 
d="M-4 196q7 28 17.5 68.5t23 86t26 93.5t26.5 91q14 46 25 80.5t20 65t16.5 62t16.5 71.5q0 1 13.5 1t32.5 -1t41 -4t39.5 -8.5t27.5 -14t5 -20.5q0 -2 -9 -24.5t-23.5 -60t-32 -86t-34.5 -101.5q-18 -54 -35.5 -109t-32 -104.5t-25.5 -90t-15 -65.5q-5 -27 1 -31t23 7
q14 11 32 38t44 75q14 26 19 30t5 -10q0 -5 -3 -15t-12 -26q-23 -40 -47 -77.5t-48 -63.5q-29 -31 -57 -45.5t-45 -7.5q-15 6 -26 24t-16 44t-3.5 58.5t10.5 69.5zM350 694q12 14 14 33t-2 41t-12.5 45.5t-18.5 46.5q-3 5 13 12t39 11.5t48.5 5t41.5 -6.5v-1
q4 -24 -6.5 -54.5t-27 -60t-36 -53.5t-34.5 -33q-7 -5 -11.5 -4t-7 4.5t-2.5 7.5t2 6z" />
    <glyph glyph-name="Ldot" unicode="&#x13f;" horiz-adv-x="469" 
d="M287 77q44 -22 78.5 -20.5t61.5 22.5t47 60.5t36 93.5q8 29 12 33.5t7 -9.5q1 -5 0 -15.5t-6 -27.5q-13 -38 -29 -76.5t-37 -72.5t-45.5 -60.5t-54.5 -41t-64.5 -14.5t-73.5 20q-29 14 -51.5 30t-39.5 31q-26 -23 -47.5 -33t-38.5 -12.5t-27.5 1.5t-13.5 10q-20 41 5 73
t79 43q7 17 18 43.5t25 65.5t31.5 92t39.5 123q37 121 87.5 203t103 126t100 50t78.5 -25q13 -13 30.5 -32.5t28.5 -50.5t9.5 -75.5t-26.5 -105.5v-1q-7 -1 -22 0t-33.5 4t-38 7t-34.5 9.5t-24 12t-7 14.5q1 2 10.5 15.5t23 33t28.5 41.5t27 41.5t18 33t1 16.5
q-30 15 -56.5 3.5t-52 -51t-52 -106.5t-56.5 -163q-37 -117 -74 -196t-72 -131q41 -8 91 -32zM511 321q-5 -14 -19.5 -24t-33 -15.5t-39.5 -6.5t-38 4q-16 4 -31 13.5t-25.5 22t-15 26.5t1.5 28q5 13 18.5 23t31.5 16t38.5 7t41.5 -4q14 -3 28.5 -12t25.5 -21.5t16 -27
t0 -29.5z" />
    <glyph glyph-name="ldot" unicode="&#x140;" horiz-adv-x="199" 
d="M-4 196q7 28 17.5 68.5t23 86t26 93.5t26.5 91q14 46 25 80.5t20 65t16.5 62t16.5 71.5q0 1 13.5 1t32.5 -1t41 -4t39.5 -8.5t27.5 -14t5 -20.5q0 -2 -9 -24.5t-23.5 -60t-32 -86t-34.5 -101.5q-18 -54 -35.5 -109t-32 -104.5t-25.5 -90t-15 -65.5q-5 -27 1 -31t23 7
q14 11 32 38t44 75q14 26 19 30t5 -10q0 -5 -3 -15t-12 -26q-23 -40 -47 -77.5t-48 -63.5q-29 -31 -57 -45.5t-45 -7.5q-15 6 -26 24t-16 44t-3.5 58.5t10.5 69.5zM500 543q-5 -14 -19.5 -24t-33 -15.5t-39.5 -6.5t-38 4q-16 4 -31 13.5t-25.5 22t-15 26.5t1.5 28
q5 13 18.5 23t31.5 16t38.5 7t41.5 -4q14 -3 28.5 -12t25.5 -21.5t16 -27t0 -29.5z" />
    <glyph glyph-name="Lslash" unicode="&#x141;" horiz-adv-x="469" 
d="M427 488q-4 -24 -34.5 -57t-77 -69t-104 -72.5t-115.5 -67.5h-1q-9 6 -15 17.5t-7.5 25t2 26t13.5 18.5q1 1 25.5 15t60.5 33.5t78 42.5t79 43t63.5 34t31.5 17q1 2 1.5 0.5t-0.5 -6.5zM287 77q44 -22 78.5 -20.5t61.5 22.5t47 60.5t36 93.5q8 29 12 33.5t7 -9.5
q1 -5 0 -15.5t-6 -27.5q-13 -38 -29 -76.5t-37 -72.5t-45.5 -60.5t-54.5 -41t-64.5 -14.5t-73.5 20q-29 14 -51.5 30t-39.5 31q-26 -23 -47.5 -33t-38.5 -12.5t-27.5 1.5t-13.5 10q-20 41 5 73t79 43q7 17 18 43.5t25 65.5t31.5 92t39.5 123q37 121 87.5 203t103 126t100 50
t78.5 -25q13 -13 30.5 -32.5t28.5 -50.5t9.5 -75.5t-26.5 -105.5v-1q-7 -1 -22 0t-33.5 4t-38 7t-34.5 9.5t-24 12t-7 14.5q1 2 10.5 15.5t23 33t28.5 41.5t27 41.5t18 33t1 16.5q-30 15 -56.5 3.5t-52 -51t-52 -106.5t-56.5 -163q-37 -117 -74 -196t-72 -131q41 -8 91 -32z
" />
    <glyph glyph-name="lslash" unicode="&#x142;" horiz-adv-x="199" 
d="M381 653q-10 -22 -48 -46t-92 -47.5t-119 -43.5t-129 -35h-1q-7 8 -10 21t-1 26.5t8.5 24.5t17.5 15q2 1 29 7.5t67 16t86.5 21t87.5 21t70.5 16.5t34.5 9q3 0 -1 -6zM-4 196q7 28 17.5 68.5t23 86t26 93.5t26.5 91q14 46 25 80.5t20 65t16.5 62t16.5 71.5q0 1 13.5 1
t32.5 -1t41 -4t39.5 -8.5t27.5 -14t5 -20.5q0 -2 -9 -24.5t-23.5 -60t-32 -86t-34.5 -101.5q-18 -54 -35.5 -109t-32 -104.5t-25.5 -90t-15 -65.5q-5 -27 1 -31t23 7q14 11 32 38t44 75q14 26 19 30t5 -10q0 -5 -3 -15t-12 -26q-23 -40 -47 -77.5t-48 -63.5
q-29 -31 -57 -45.5t-45 -7.5q-15 6 -26 24t-16 44t-3.5 58.5t10.5 69.5z" />
    <glyph glyph-name="Nacute" unicode="&#x143;" horiz-adv-x="492" 
d="M41 0q-26 -5 -38 -1t-12.5 23t9 55.5t26.5 97.5q42 152 69.5 257.5t45.5 178.5t28.5 122t19.5 88q0 1 13 0t32 -3.5t40.5 -7t39.5 -10.5q16 -3 26 -10t10 -18q-1 -87 -0.5 -166.5t3 -156t7 -152.5t12.5 -156l4 24q15 94 31 189t31 182t28 160.5t23 124.5q0 1 16 0t39 -3
t49 -6.5t47 -10.5t33 -14t7 -17q-24 -44 -52 -97.5t-61 -131t-72 -184.5t-84 -258q-12 -42 -17.5 -71t-6.5 -29l-17 -3.5t-38 -3.5t-39.5 7t-21.5 28t-10.5 75t-16.5 125t-18.5 152.5t-18.5 157.5q-31 -68 -64 -161.5t-67 -222.5q-14 -53 -21 -83.5t-10 -46t-3.5 -19.5z
M418 820q-1 -2 -5 -1.5t-8 3t-5.5 7t1.5 11.5q8 16 25 41.5t36 51t37 46t28 25.5v1q15 -9 33.5 -28.5t33 -39.5t22 -35.5t1.5 -16.5q-20 -4 -49 -10t-59 -14t-55 -18t-36 -23z" />
    <glyph glyph-name="nacute" unicode="&#x144;" 
d="M104 -3q-26 -5 -51 1.5t-41 28.5t-19.5 61t11.5 101q11 44 25 93t28.5 97.5t27.5 95.5t22 86q0 1 12.5 1t31 -2t39 -5.5t38 -9t27 -13.5t6.5 -18q-3 -8 -21.5 -48.5t-46.5 -128.5q17 39 35.5 72t37.5 56.5t39 37t41 13.5q30 0 49.5 -18.5t27 -53t2 -83t-24.5 -108.5
q-19 -57 -29.5 -94t-13.5 -56.5t1 -23t16 5.5q17 14 39 48t47 82q14 26 19 30t5 -10q0 -5 -3 -15t-12 -26q-23 -40 -46.5 -77.5t-48.5 -63.5q-11 -12 -24 -25t-27 -22t-29.5 -12.5t-31.5 3.5q-12 5 -22.5 24.5t-15 52t-0.5 78t22 101.5q17 54 32.5 90.5t25 59t10.5 32.5
t-11 10q-68 0 -188 -395q-5 -18 -7 -29t-3 -16q-1 -6 -1 -8zM298 563q-1 -2 -5 -1.5t-8 3t-5.5 7t1.5 11.5q8 16 25 41.5t36 51t37 46t28 25.5v1q15 -9 33.5 -28.5t33 -39.5t22 -35.5t1.5 -16.5q-20 -4 -49 -10t-59 -14t-55 -18t-36 -23z" />
    <glyph glyph-name="uni0145" unicode="&#x145;" horiz-adv-x="492" 
d="M41 0q-26 -5 -38 -1t-12.5 23t9 55.5t26.5 97.5q42 152 69.5 257.5t45.5 178.5t28.5 122t19.5 88q0 1 13 0t32 -3.5t40.5 -7t39.5 -10.5q16 -3 26 -10t10 -18q-1 -87 -0.5 -166.5t3 -156t7 -152.5t12.5 -156l4 24q15 94 31 189t31 182t28 160.5t23 124.5q0 1 16 0t39 -3
t49 -6.5t47 -10.5t33 -14t7 -17q-24 -44 -52 -97.5t-61 -131t-72 -184.5t-84 -258q-12 -42 -17.5 -71t-6.5 -29l-17 -3.5t-38 -3.5t-39.5 7t-21.5 28t-10.5 75t-16.5 125t-18.5 152.5t-18.5 157.5q-31 -68 -64 -161.5t-67 -222.5q-14 -53 -21 -83.5t-10 -46t-3.5 -19.5z
M283 -137q-11 -27 -43.5 -52t-66.5 -42q-14 -7 -24.5 -8t-17 0.5t-8.5 4.5t1 5q22 12 37 24t21 22t2 16.5t-19 8.5q-20 2 -37.5 10t-28 19.5t-13.5 25.5t6 28q6 11 20 19.5t31 13t36 5.5t36 -3q16 -5 31 -15t25.5 -23t14 -28.5t-2.5 -30.5z" />
    <glyph glyph-name="uni0146" unicode="&#x146;" 
d="M104 -3q-26 -5 -51 1.5t-41 28.5t-19.5 61t11.5 101q11 44 25 93t28.5 97.5t27.5 95.5t22 86q0 1 12.5 1t31 -2t39 -5.5t38 -9t27 -13.5t6.5 -18q-3 -8 -21.5 -48.5t-46.5 -128.5q17 39 35.5 72t37.5 56.5t39 37t41 13.5q30 0 49.5 -18.5t27 -53t2 -83t-24.5 -108.5
q-19 -57 -29.5 -94t-13.5 -56.5t1 -23t16 5.5q17 14 39 48t47 82q14 26 19 30t5 -10q0 -5 -3 -15t-12 -26q-23 -40 -46.5 -77.5t-48.5 -63.5q-11 -12 -24 -25t-27 -22t-29.5 -12.5t-31.5 3.5q-12 5 -22.5 24.5t-15 52t-0.5 78t22 101.5q17 54 32.5 90.5t25 59t10.5 32.5
t-11 10q-68 0 -188 -395q-5 -18 -7 -29t-3 -16q-1 -6 -1 -8zM242 -105q-11 -27 -43.5 -52t-66.5 -42q-14 -7 -24.5 -8t-17 0.5t-8.5 4.5t1 5q22 12 37 24t21 22t2 16.5t-19 8.5q-20 2 -37.5 10t-28 19.5t-13.5 25.5t6 28q6 11 20 19.5t31 13t36 5.5t36 -3q16 -5 31 -15
t25.5 -23t14 -28.5t-2.5 -30.5z" />
    <glyph glyph-name="Ncaron" unicode="&#x147;" horiz-adv-x="492" 
d="M41 0q-26 -5 -38 -1t-12.5 23t9 55.5t26.5 97.5q42 152 69.5 257.5t45.5 178.5t28.5 122t19.5 88q0 1 13 0t32 -3.5t40.5 -7t39.5 -10.5q16 -3 26 -10t10 -18q-1 -87 -0.5 -166.5t3 -156t7 -152.5t12.5 -156l4 24q15 94 31 189t31 182t28 160.5t23 124.5q0 1 16 0t39 -3
t49 -6.5t47 -10.5t33 -14t7 -17q-24 -44 -52 -97.5t-61 -131t-72 -184.5t-84 -258q-12 -42 -17.5 -71t-6.5 -29l-17 -3.5t-38 -3.5t-39.5 7t-21.5 28t-10.5 75t-16.5 125t-18.5 152.5t-18.5 157.5q-31 -68 -64 -161.5t-67 -222.5q-14 -53 -21 -83.5t-10 -46t-3.5 -19.5z
M571 993q8 2 12 0.5t5.5 -4.5t1 -6.5t-1.5 -4.5q-15 -8 -33 -22.5t-37.5 -33.5t-39.5 -41t-39 -45q-5 -6 -11.5 -5t-18.5 11q-18 16 -41 31t-46 31.5t-44.5 34.5t-34.5 39l-1 1q9 15 35.5 27t54.5 18.5t50.5 8t23.5 -4.5q3 -13 1 -30t-3.5 -34.5t-1 -34.5t8.5 -29
q12 8 32.5 22t43.5 28.5t45.5 26.5t38.5 16z" />
    <glyph glyph-name="ncaron" unicode="&#x148;" 
d="M104 -3q-26 -5 -51 1.5t-41 28.5t-19.5 61t11.5 101q11 44 25 93t28.5 97.5t27.5 95.5t22 86q0 1 12.5 1t31 -2t39 -5.5t38 -9t27 -13.5t6.5 -18q-3 -8 -21.5 -48.5t-46.5 -128.5q17 39 35.5 72t37.5 56.5t39 37t41 13.5q30 0 49.5 -18.5t27 -53t2 -83t-24.5 -108.5
q-19 -57 -29.5 -94t-13.5 -56.5t1 -23t16 5.5q17 14 39 48t47 82q14 26 19 30t5 -10q0 -5 -3 -15t-12 -26q-23 -40 -46.5 -77.5t-48.5 -63.5q-11 -12 -24 -25t-27 -22t-29.5 -12.5t-31.5 3.5q-12 5 -22.5 24.5t-15 52t-0.5 78t22 101.5q17 54 32.5 90.5t25 59t10.5 32.5
t-11 10q-68 0 -188 -395q-5 -18 -7 -29t-3 -16q-1 -6 -1 -8zM443 727q8 2 12 0.5t5.5 -4.5t1 -6.5t-1.5 -4.5q-15 -8 -33 -22.5t-37.5 -33.5t-39.5 -41t-39 -45q-5 -6 -11.5 -5t-18.5 11q-18 16 -41 31t-46 31.5t-44.5 34.5t-34.5 39l-1 1q9 15 35.5 27t54.5 18.5t50.5 8
t23.5 -4.5q3 -13 1 -30t-3.5 -34.5t-1 -34.5t8.5 -29q12 8 32.5 22t43.5 28.5t45.5 26.5t38.5 16z" />
    <glyph glyph-name="napostrophe" unicode="&#x149;" 
d="M104 -3q-26 -5 -51 1.5t-41 28.5t-19.5 61t11.5 101q11 44 25 93t28.5 97.5t27.5 95.5t22 86q0 1 12.5 1t31 -2t39 -5.5t38 -9t27 -13.5t6.5 -18q-3 -8 -21.5 -48.5t-46.5 -128.5q17 39 35.5 72t37.5 56.5t39 37t41 13.5q30 0 49.5 -18.5t27 -53t2 -83t-24.5 -108.5
q-19 -57 -29.5 -94t-13.5 -56.5t1 -23t16 5.5q17 14 39 48t47 82q14 26 19 30t5 -10q0 -5 -3 -15t-12 -26q-23 -40 -46.5 -77.5t-48.5 -63.5q-11 -12 -24 -25t-27 -22t-29.5 -12.5t-31.5 3.5q-12 5 -22.5 24.5t-15 52t-0.5 78t22 101.5q17 54 32.5 90.5t25 59t10.5 32.5
t-11 10q-68 0 -188 -395q-5 -18 -7 -29t-3 -16q-1 -6 -1 -8zM412 670q-11 -27 -43.5 -52t-66.5 -42q-14 -7 -24.5 -8t-17 0.5t-8.5 4.5t1 5q22 12 37 24t21 22t2 16.5t-19 8.5q-20 2 -37.5 10t-28 19.5t-13.5 25.5t6 28q6 11 20 19.5t31 13t36 5.5t36 -3q16 -5 31 -15
t25.5 -23t14 -28.5t-2.5 -30.5z" />
    <glyph glyph-name="Omacron" unicode="&#x14c;" horiz-adv-x="482" 
d="M506 371q-33 -105 -82.5 -176.5t-105 -114.5t-111 -61.5t-99.5 -18.5q-39 0 -68.5 38t-44.5 100t-13 140t26 158q33 106 82 178t103 115.5t108 61.5t96 17q29 -1 51 -14t34 -35t11.5 -52t-16.5 -64h-1q16 -18 29 -43t18.5 -58t2 -75.5t-19.5 -95.5zM349 371
q31 107 50.5 173t17.5 98q-18 2 -36.5 7t-32 12.5t-20 15.5t-0.5 16q11 16 24 31.5t19.5 27.5t2.5 18.5t-27 5.5q-31 -2 -55 -26t-45.5 -67.5t-41.5 -105.5t-43 -141q-26 -88 -42 -161.5t-18.5 -126t11 -82t46.5 -29.5q30 0 54.5 23t47 66t44 105t44.5 140zM585 913
q-16 -19 -43 -38.5t-66.5 -35.5t-92 -25t-118.5 -6h-1q-5 9 -4 30.5t6 43t14 38.5t21 18q2 0 22.5 -1t50.5 -3.5t65 -5t66 -4.5t53.5 -3.5t28.5 -1.5q4 0 -2 -6z" />
    <glyph glyph-name="omacron" unicode="&#x14d;" horiz-adv-x="441" 
d="M496 254q-10 -16 -37 -34t-62 -31q-25 -49 -59 -84.5t-71 -59t-72.5 -34.5t-63.5 -11q-33 0 -62 22.5t-48 59t-24 84t10 97.5q16 51 41 92t54.5 72t61 51t59 30t49.5 9t33 -13q5 -7 10.5 -14t10.5 -15q28 -3 52 -21t39 -47.5t18 -68.5t-12 -85q-3 -10 -6.5 -19.5
t-7.5 -18.5q26 11 47 26.5t31 33.5q14 26 19 30t5 -10q0 -5 -2.5 -15t-12.5 -26zM148 28q16 0 30 13t27 35t24.5 52t22.5 64q-18 15 -27 39.5t-11 53.5t3 59t15.5 56t26 45.5t35.5 26.5q-19 9 -37 -4.5t-34.5 -42.5t-32 -71t-29.5 -91q-13 -44 -22.5 -86t-12.5 -75t2 -53.5
t20 -20.5zM292 445q-10 0 -21 -24t-17.5 -57.5t-5 -70t15.5 -60.5l6 20q12 43 21.5 78.5t14 60.5t2 39t-15.5 14zM496 641q-16 -19 -43 -38.5t-66.5 -35.5t-92 -25t-118.5 -6h-1q-5 9 -4 30.5t6 43t14 38.5t21 18q2 0 22.5 -1t50.5 -3.5t65 -5t66 -4.5t53.5 -3.5t28.5 -1.5
q4 0 -2 -6z" />
    <glyph glyph-name="Obreve" unicode="&#x14e;" horiz-adv-x="482" 
d="M506 371q-33 -105 -82.5 -176.5t-105 -114.5t-111 -61.5t-99.5 -18.5q-39 0 -68.5 38t-44.5 100t-13 140t26 158q33 106 82 178t103 115.5t108 61.5t96 17q29 -1 51 -14t34 -35t11.5 -52t-16.5 -64h-1q16 -18 29 -43t18.5 -58t2 -75.5t-19.5 -95.5zM349 371
q31 107 50.5 173t17.5 98q-18 2 -36.5 7t-32 12.5t-20 15.5t-0.5 16q11 16 24 31.5t19.5 27.5t2.5 18.5t-27 5.5q-31 -2 -55 -26t-45.5 -67.5t-41.5 -105.5t-43 -141q-26 -88 -42 -161.5t-18.5 -126t11 -82t46.5 -29.5q30 0 54.5 23t47 66t44 105t44.5 140zM515 976
q-6 -23 -15.5 -47.5t-24 -45t-33 -33.5t-40.5 -13q-28 0 -51.5 11t-41 29.5t-28.5 42t-14 47.5q-2 16 21 24.5t52.5 9.5t54.5 -6t27 -20q3 -27 5.5 -42t16.5 -15q15 0 27 13.5t21 46.5q3 10 7.5 15t9 5t7 -5.5t-0.5 -16.5z" />
    <glyph glyph-name="obreve" unicode="&#x14f;" horiz-adv-x="441" 
d="M496 254q-10 -16 -37 -34t-62 -31q-25 -49 -59 -84.5t-71 -59t-72.5 -34.5t-63.5 -11q-33 0 -62 22.5t-48 59t-24 84t10 97.5q16 51 41 92t54.5 72t61 51t59 30t49.5 9t33 -13q5 -7 10.5 -14t10.5 -15q28 -3 52 -21t39 -47.5t18 -68.5t-12 -85q-3 -10 -6.5 -19.5
t-7.5 -18.5q26 11 47 26.5t31 33.5q14 26 19 30t5 -10q0 -5 -2.5 -15t-12.5 -26zM148 28q16 0 30 13t27 35t24.5 52t22.5 64q-18 15 -27 39.5t-11 53.5t3 59t15.5 56t26 45.5t35.5 26.5q-19 9 -37 -4.5t-34.5 -42.5t-32 -71t-29.5 -91q-13 -44 -22.5 -86t-12.5 -75t2 -53.5
t20 -20.5zM292 445q-10 0 -21 -24t-17.5 -57.5t-5 -70t15.5 -60.5l6 20q12 43 21.5 78.5t14 60.5t2 39t-15.5 14zM442 669q-6 -23 -15.5 -47.5t-24 -45t-33 -33.5t-40.5 -13q-28 0 -51.5 11t-41 29.5t-28.5 42t-14 47.5q-2 16 21 24.5t52.5 9.5t54.5 -6t27 -20
q3 -27 5.5 -42t16.5 -15q15 0 27 13.5t21 46.5q3 10 7.5 15t9 5t7 -5.5t-0.5 -16.5z" />
    <glyph glyph-name="Ohungarumlaut" unicode="&#x150;" horiz-adv-x="482" 
d="M506 371q-33 -105 -82.5 -176.5t-105 -114.5t-111 -61.5t-99.5 -18.5q-39 0 -68.5 38t-44.5 100t-13 140t26 158q33 106 82 178t103 115.5t108 61.5t96 17q29 -1 51 -14t34 -35t11.5 -52t-16.5 -64h-1q16 -18 29 -43t18.5 -58t2 -75.5t-19.5 -95.5zM349 371
q31 107 50.5 173t17.5 98q-18 2 -36.5 7t-32 12.5t-20 15.5t-0.5 16q11 16 24 31.5t19.5 27.5t2.5 18.5t-27 5.5q-31 -2 -55 -26t-45.5 -67.5t-41.5 -105.5t-43 -141q-26 -88 -42 -161.5t-18.5 -126t11 -82t46.5 -29.5q30 0 54.5 23t47 66t44 105t44.5 140zM431 835
q-1 -2 -5 -2.5t-8 0.5t-7 5t-1 12q3 17 9 45.5t13.5 57.5t16 53t16.5 32v1q17 -5 40 -18.5t42.5 -28.5t31.5 -27.5t6 -15.5q-18 -9 -41.5 -22t-46 -28.5t-41 -32t-25.5 -31.5zM601 835q-1 -2 -5 -2.5t-8 0.5t-7 5t-1 12q3 17 9 45.5t13.5 57.5t16 53t16.5 32v1
q17 -5 40 -18.5t42.5 -28.5t31.5 -27.5t6 -15.5q-18 -9 -41.5 -22t-46 -28.5t-41 -32t-25.5 -31.5z" />
    <glyph glyph-name="ohungarumlaut" unicode="&#x151;" horiz-adv-x="441" 
d="M496 254q-10 -16 -37 -34t-62 -31q-25 -49 -59 -84.5t-71 -59t-72.5 -34.5t-63.5 -11q-33 0 -62 22.5t-48 59t-24 84t10 97.5q16 51 41 92t54.5 72t61 51t59 30t49.5 9t33 -13q5 -7 10.5 -14t10.5 -15q28 -3 52 -21t39 -47.5t18 -68.5t-12 -85q-3 -10 -6.5 -19.5
t-7.5 -18.5q26 11 47 26.5t31 33.5q14 26 19 30t5 -10q0 -5 -2.5 -15t-12.5 -26zM148 28q16 0 30 13t27 35t24.5 52t22.5 64q-18 15 -27 39.5t-11 53.5t3 59t15.5 56t26 45.5t35.5 26.5q-19 9 -37 -4.5t-34.5 -42.5t-32 -71t-29.5 -91q-13 -44 -22.5 -86t-12.5 -75t2 -53.5
t20 -20.5zM292 445q-10 0 -21 -24t-17.5 -57.5t-5 -70t15.5 -60.5l6 20q12 43 21.5 78.5t14 60.5t2 39t-15.5 14zM227 536q-1 -2 -5 -2.5t-8 0.5t-7 5t-1 12q3 17 9 45.5t13.5 57.5t16 53t16.5 32v1q17 -5 40 -18.5t42.5 -28.5t31.5 -27.5t6 -15.5q-18 -9 -41.5 -22
t-46 -28.5t-41 -32t-25.5 -31.5zM397 536q-1 -2 -5 -2.5t-8 0.5t-7 5t-1 12q3 17 9 45.5t13.5 57.5t16 53t16.5 32v1q17 -5 40 -18.5t42.5 -28.5t31.5 -27.5t6 -15.5q-18 -9 -41.5 -22t-46 -28.5t-41 -32t-25.5 -31.5z" />
    <glyph glyph-name="OE" unicode="&#x152;" horiz-adv-x="676" 
d="M506 371q-33 -105 -82.5 -176.5t-105 -114.5t-111 -61.5t-99.5 -18.5q-39 0 -68.5 38t-44.5 100t-13 140t26 158q33 106 82 178t103 115.5t108 61.5t96 17q29 -1 51 -14t34 -35t11.5 -52t-16.5 -64h-1q16 -18 29 -43t18.5 -58t2 -75.5t-19.5 -95.5zM349 371
q31 107 50.5 173t17.5 98q-18 2 -36.5 7t-32 12.5t-20 15.5t-0.5 16q11 16 24 31.5t19.5 27.5t2.5 18.5t-27 5.5q-31 -2 -55 -26t-45.5 -67.5t-41.5 -105.5t-43 -141q-26 -88 -42 -161.5t-18.5 -126t11 -82t46.5 -29.5q30 0 54.5 23t47 66t44 105t44.5 140zM309 270
q15 50 43 83.5t62 55.5t69.5 33t66.5 16q-27 10 -53 26t-44.5 39t-25.5 54t3 70q10 40 32.5 70.5t51 51.5t61 32t62.5 13.5t55 -4t40 -20.5q16 -17 34 -38.5t28.5 -51t10 -67.5t-20.5 -87l-1 -1q-11 -2 -36.5 1t-51.5 9.5t-44.5 15.5t-15.5 20q0 2 8.5 14.5t19.5 29.5
t23.5 36.5t22.5 37t14.5 29.5t-0.5 15q-21 11 -41 8t-37.5 -16.5t-30.5 -37.5t-21 -55q-9 -36 -14 -67t-4.5 -54.5t9 -37t28.5 -13.5q17 0 32 -1t32 -1q1 0 2.5 -6t-1.5 -12.5t-11 -12.5t-24 -6h-13.5t-14.5 2q-40 -2 -78 -43.5t-63 -129.5q-14 -48 -19 -90t-0.5 -73
t19.5 -48.5t41 -17.5q21 0 48 12t55.5 34.5t56 55t48.5 72.5q14 26 19 30t5 -10q0 -5 -3 -15t-12 -26q-21 -38 -49 -74.5t-60.5 -65.5t-70 -47t-77.5 -18q-51 0 -90 21t-62 58.5t-27.5 89t14.5 112.5z" />
    <glyph glyph-name="oe" unicode="&#x153;" horiz-adv-x="602" 
d="M646 410q-4 -23 -28.5 -50t-61 -57t-81 -60.5t-88.5 -59.5q-9 -56 -1 -91t34 -40q16 -3 42.5 7t56 31t59 52.5t51.5 72.5q14 26 18.5 30t4.5 -10q0 -5 -3 -15t-12 -26q-21 -38 -52.5 -73t-66.5 -62t-71 -43t-67 -16q-32 0 -58 17.5t-43 47.5q-42 -34 -83.5 -49.5
t-75.5 -15.5q-32 0 -61 22.5t-48 59t-24 84t10 97.5q24 76 67 130t89 85t85.5 37.5t55.5 -11.5q6 -7 11.5 -14t10.5 -15q2 1 8 1q35 0 59 -24q26 22 51.5 36.5t48 21t40 5t27.5 -10.5q5 -5 21.5 -14.5t34 -21.5t30.5 -27t10 -31zM138 28q16 0 30 12.5t26.5 34t23.5 51
t22 62.5q-16 27 -18 67.5t6 81.5t25 76.5t40 51.5l-7 6q-19 10 -37 -2.5t-35 -41.5t-33 -71.5t-30 -92.5q-13 -44 -22.5 -86t-12.5 -75t2 -53.5t20 -20.5zM302 445q-9 0 -19 -21t-18 -51.5t-11 -66t2 -64.5l3 11q12 43 25 78.5t21.5 60.5t9 39t-12.5 14zM405 276
q-10 -35 -15 -67q40 37 72.5 82.5t53.5 86t28 69.5t-4 35q-15 8 -33.5 -7t-36.5 -44.5t-35 -70t-30 -84.5z" />
    </font>
</defs>
</svg>
