<?xml version="1.0" standalone="no"?>
<!DOCTYPE svg PUBLIC "-//W3C//DTD SVG 1.1//EN" "http://www.w3.org/Graphics/SVG/1.1/DTD/svg11.dtd" >
<svg xmlns="http://www.w3.org/2000/svg" xmlns:xlink="http://www.w3.org/1999/xlink" version="1.1">
<metadata>
Created by FontForge 20200427 at Mon Jul 16 18:29:02 2012
 By www
Copyright (c) 2010 by Bomparte's Fonts. All rights reserved.
</metadata>
<defs>
<font id="CapistranoBFW01-Regular" horiz-adv-x="0" >
  <font-face 
    font-family="CapistranoBFW01-Regular"
    font-weight="400"
    font-variant="small-caps"
    font-stretch="normal"
    units-per-em="1000"
    panose-1="0 0 0 0 0 0 0 0 0 0"
    ascent="750"
    descent="-250"
    x-height="139"
    cap-height="963"
    bbox="-412 -711 1891 1203"
    underline-thickness="50"
    underline-position="-150"
    unicode-range="U+0002-2122"
  />
<missing-glyph 
 />
    <glyph glyph-name=".notdef" 
 />
    <glyph glyph-name=".null" 
 />
    <glyph glyph-name="uni000D" unicode="&#xd;" 
 />
    <glyph glyph-name="uni0002" 
 />
    <glyph glyph-name="uni0009" unicode="&#x9;" 
 />
    <glyph glyph-name="uni000A" unicode="&#xa;" 
 />
    <glyph glyph-name="space" unicode=" " horiz-adv-x="312" 
 />
    <glyph glyph-name="exclam" unicode="!" horiz-adv-x="492" 
d="M357 921q0 11 6.5 18t16.5 7q21 0 21 -25q0 -33 -6 -73t-15.5 -85.5t-21.5 -94.5t-23 -98q-7 -32 -15.5 -66.5t-15.5 -69t-11.5 -68.5t-4.5 -64q0 -25 5 -42q2 -7 4.5 -12.5t2.5 -11.5q0 -9 -6 -15.5t-16 -6.5q-12 0 -19 10t-10.5 24.5t-4.5 31t-1 30.5q0 65 15.5 130
t32.5 140q11 49 23 99.5t21.5 96t15.5 83.5t6 62zM259 89q19 35 54 35q24 0 37 -19q9 -14 9 -34q0 -25 -15 -49t-40 -40q-5 -3 -11 -3q-12 0 -16 9q-3 6 -3 11v3h-4q-17 0 -23 16q-3 7 -3 17q0 13 4 27t11 27zM298 75q-2 -2 -4.5 -5t-2.5 -5v-2q3 -6 9.5 -9t6.5 -10v-3
q0 -1 -0.5 -2t-0.5 -2q13 18 13 34q0 8 -2 12q-1 0 -1.5 0.5t-2.5 0.5q-8 0 -15 -9z" />
    <glyph glyph-name="quotedbl" unicode="&#x22;" horiz-adv-x="436" 
d="M229 822q0 10 6.5 17t17.5 7q9 0 15 -6.5t6 -17.5q0 -24 -6.5 -55t-14 -65t-13.5 -70t-6 -70q0 -11 -6 -17.5t-16 -6.5q-11 0 -17 7.5t-6 19.5q0 39 6 78t13.5 73.5t14 62t6.5 43.5zM332 854q5 19 24 19q21 0 21 -25q0 -8 -5.5 -31.5t-12 -55t-12 -68t-5.5 -70.5
q0 -11 -6 -18.5t-18 -7.5q-21 0 -21 28q0 19 3 48t8 61t11.5 64t12.5 56z" />
    <glyph glyph-name="numbersign" unicode="#" horiz-adv-x="613" 
d="M162 391q-5 -1 -10 -1.5t-10 -0.5q-8 0 -13 6t-5 14q0 15 15 20q8 2 17.5 3.5t20.5 3.5q8 1 21 3t25 4q14 3 29 5q14 46 27 77q3 8 9.5 11.5t12.5 3.5q8 0 14.5 -5.5t6.5 -15.5q0 -5 -4 -15t-8 -21.5t-9 -27.5l71 12q25 79 57 132q5 7 11 14t17 7q8 0 14.5 -6t6.5 -15
q0 -6 -6 -15.5t-9 -14.5q-11 -20 -21 -42t-21 -53q23 5 44.5 8.5t41.5 6.5q5 1 10.5 1.5t12.5 0.5q8 0 14 -5t6 -15q0 -8 -4.5 -13.5t-12.5 -6.5l-127 -21l-24 -89q26 3 51 7q21 3 44 6t40 5q11 2 21 3t18 1t14 -5.5t6 -14.5q0 -18 -18 -21q-35 -5 -82.5 -11t-104.5 -13
q-9 -38 -16.5 -75t-15.5 -78q-2 -8 -8.5 -12.5t-14.5 -4.5t-14 5t-6 14q0 8 3 23l6 30q5 23 10 46.5t10 46.5q-20 -2 -39.5 -4.5t-39.5 -5.5l-12 -41q3 -3 3 -7t-2 -10q-6 -15 -10 -32.5t-9 -36.5q-2 -9 -9.5 -13t-15.5 -4q-9 0 -15.5 6.5t-6.5 15.5q0 5 1 10.5t3 10.5
l26 96q-20 -3 -37 -5q-14 -2 -28 -3t-18 -1q-9 0 -15 5.5t-6 13.5q0 19 18 22l99 11l25 83zM335 335l23 88l-72 -12q-7 -20 -13.5 -41t-13.5 -44z" />
    <glyph glyph-name="dollar" unicode="$" horiz-adv-x="685" 
d="M378 840q2 14 9 22t20 8q22 0 22 -24q0 -6 -2 -18.5t-3 -20.5q-2 -17 -3 -30.5t-2 -27.5q-1 -12 -11 -18l-6 -51q72 26 130 26q47 0 78.5 -21t31.5 -69q0 -39 -24 -78.5t-75 -77.5q-5 -4 -13.5 -9.5t-16.5 -5.5q-9 0 -16 5.5t-7 15.5q0 8 4.5 12.5t9.5 8.5q95 67 95 129
q0 27 -20.5 37t-46.5 10q-29 0 -63 -7.5t-72 -22.5q-7 -66 -14.5 -138.5t-12.5 -138.5l-4 -62q43 3 82 3q30 0 58.5 -3.5t50.5 -15t35.5 -31.5t13.5 -53q0 -38 -26 -75t-65 -67t-84 -51.5t-83 -28.5v-15.5t-1 -16.5q6 0 11 -6.5t5 -14.5q0 -9 -3 -21t-6.5 -25.5t-6.5 -28
t-3 -28.5q0 -9 -5.5 -15t-16.5 -6q-8 0 -12.5 5t-6.5 12.5t-2.5 16t-0.5 16.5q0 29 1.5 58.5t3.5 61.5q-9 -2 -18 -2h-17q-19 0 -38.5 4t-35 13t-25.5 24t-10 36q0 10 3 21t8.5 20.5t13.5 15.5t18 6q8 0 15.5 -5.5t7.5 -15.5q0 -9 -10 -19q-5 -5 -9.5 -11t-4.5 -16
q0 -14 19.5 -22t54.5 -8h15t15 1q2 60 5.5 118.5t7.5 121.5q-16 -1 -32 -1.5t-31 -0.5q-37 0 -70 5.5t-58 19.5t-39.5 38t-14.5 62q0 47 28 92t70 84t91.5 69t92.5 48l12 89q5 31 6 54t3 34zM250 288q35 0 73 3q5 80 12.5 159t16.5 163q-33 -15 -73.5 -40.5t-76 -58
t-60 -69.5t-24.5 -75q0 -26 10.5 -42t28.5 -25t42 -12t51 -3zM446 254q-20 0 -41 -1t-42 -3q-4 -60 -7 -118.5t-6 -115.5q35 9 72.5 28.5t69 44.5t51.5 53t20 52q0 21 -11.5 33t-28.5 18t-37.5 7.5t-39.5 1.5z" />
    <glyph glyph-name="percent" unicode="%" horiz-adv-x="833" 
d="M541 508q9 13 21 28.5t25 29t25.5 22.5t23.5 9q12 0 17.5 -6.5t5.5 -15.5q0 -10 -9.5 -25t-23 -30t-28 -28.5t-24.5 -20.5q-62 -72 -112 -139t-92 -134q-48 -77 -80 -135t-53 -111q-3 -8 -8.5 -17t-16.5 -9q-8 0 -14 4.5t-6 15.5q0 6 1.5 11t4.5 13q22 54 54.5 113.5
t80.5 136.5q64 102 149 208q-26 -11 -56.5 -15.5t-53.5 -4.5q-11 0 -20.5 1.5t-19.5 3.5q1 -5 1 -14q0 -29 -10.5 -55.5t-29.5 -46.5t-45.5 -32t-58.5 -12q-49 0 -79 32t-30 80q0 35 14.5 67t39.5 56t57.5 38.5t67.5 14.5q11 0 16.5 -6.5t5.5 -15.5t-6.5 -15t-15.5 -6
q-25 0 -49 -11t-43.5 -29t-31.5 -42t-12 -51q0 -32 18 -50.5t48 -18.5q20 0 38.5 8t32.5 22t22.5 33t8.5 40q0 20 -5 25q-3 3 -9 5t-11 5q-8 5 -13.5 12t-5.5 18t6.5 17t15.5 6q7 0 11 -2t9 -6q17 -14 43 -22t52 -8q29 0 56.5 6t59.5 20q15 7 25 16t16 17zM562 278q6 2 12 2
q8 0 14 -5.5t6 -14.5q0 -4 -1 -7q36 -3 62 -25.5t26 -63.5q0 -30 -11 -59t-31 -52.5t-49.5 -38t-65.5 -14.5q-45 0 -72.5 27t-27.5 74q0 56 37.5 102.5t100.5 74.5zM467 101q0 -29 16 -43.5t41 -14.5q26 0 47 10.5t35.5 27t22.5 37.5t8 43q0 6 -2 14.5t-8 16t-17.5 13
t-30.5 5.5q-8 0 -13.5 5t-7.5 12q-35 -20 -62 -50.5t-29 -75.5z" />
    <glyph glyph-name="ampersand" unicode="&#x26;" horiz-adv-x="951" 
d="M276 514q0 71 21.5 133t55.5 107.5t77 72t86 26.5q37 0 61 -24t24 -62q0 -30 -11.5 -60.5t-30 -61t-43 -60.5t-50.5 -60q-37 -42 -70.5 -80.5t-59.5 -72.5q30 -114 108.5 -174.5t207.5 -75.5q24 24 50 56t47.5 69t36.5 75.5t17 75.5q1 13 5.5 23.5t19.5 10.5q8 0 14.5 -6
t6.5 -19q0 -17 -3.5 -37t-8.5 -38q-17 -57 -51.5 -112t-77.5 -103q10 -1 19.5 -1h20.5q54 0 105 15.5t84 35.5q6 4 13.5 8.5t15.5 4.5t14 -5.5t6 -14.5q0 -13 -15 -23q-45 -30 -104.5 -47.5t-118.5 -17.5q-21 0 -41 1t-39 3q-27 -26 -58.5 -50t-66.5 -43t-73 -30t-78 -11
q-46 0 -82.5 15t-61.5 42.5t-38.5 65.5t-13.5 83q0 94 68 199l12 18t12 17q-12 60 -12 132zM320 514q0 -23 1.5 -43.5t3.5 -40.5q19 24 43.5 51.5t50.5 56.5t50.5 58.5t44 59t31.5 57.5t12 54q0 19 -11 30.5t-30 11.5q-29 0 -63.5 -21.5t-64 -60t-49 -93t-19.5 -120.5z
M240 148q0 -34 9.5 -63.5t28.5 -51.5t47.5 -34.5t66.5 -12.5q60 0 115.5 29t102.5 68q-55 9 -103.5 29.5t-88.5 51t-69 71.5t-45 92q-64 -95 -64 -179z" />
    <glyph glyph-name="quotesingle" unicode="'" horiz-adv-x="369" 
d="M240 840q0 11 7 17t16 6t15.5 -6t6.5 -17q0 -28 -8 -55.5t-17 -55.5t-17 -56.5t-8 -58.5q0 -11 -7 -17t-16 -6q-12 0 -17 8t-5 17q0 30 8 62t17 62t17 56t8 44z" />
    <glyph glyph-name="parenleft" unicode="(" horiz-adv-x="410" 
d="M307 1014q4 5 9.5 9t13.5 4t15.5 -6t7.5 -16q0 -6 -5 -13q-63 -77 -106.5 -155t-70.5 -159.5t-39 -168t-12 -180.5q0 -68 15 -134t43.5 -124.5t68 -105.5t89.5 -76q13 -8 13 -21q0 -10 -7 -17t-16 -7q-7 0 -12 2t-12 6q-53 29 -96 80.5t-73.5 115.5t-47 136.5
t-16.5 144.5q0 96 12.5 185t40.5 173.5t73.5 165.5t111.5 161z" />
    <glyph glyph-name="parenright" unicode=")" horiz-adv-x="460" 
d="M157 981q0 9 6 15.5t16 6.5q8 0 15 -5q55 -39 96.5 -100t69 -134.5t41 -155.5t13.5 -163q0 -67 -9.5 -148t-33.5 -159.5t-64.5 -146.5t-103.5 -110q-5 -3 -9 -5t-9 -2q-11 0 -17 6.5t-6 17.5t14 21q58 41 95 103.5t58 134.5t29 147t8 141q0 87 -14.5 166.5t-40.5 146
t-63 119t-83 87.5q-5 3 -6.5 7.5t-1.5 9.5z" />
    <glyph glyph-name="asterisk" unicode="*" horiz-adv-x="471" 
d="M387 715q8 -10 8 -19q0 -8 -5 -14t-14 -6q-7 0 -10.5 3.5l-6.5 6.5q-16 16 -31 26t-32 20q0 -28 -2 -56t-2 -60q0 -22 -20 -22q-8 0 -14 5.5t-6 15.5q0 26 1.5 52.5t2.5 55.5q-12 -14 -21.5 -26.5t-19.5 -25.5q-8 -11 -20 -11q-16 0 -16 19q0 5 2.5 10t5.5 9
q13 18 26.5 34t29.5 33q-32 20 -50.5 31.5t-26.5 19.5q-6 6 -6 15q0 7 5.5 13t13.5 6q7 0 16 -7q12 -10 27.5 -20t35.5 -21q0 26 0.5 44t2.5 32q2 11 5.5 20.5t16.5 9.5q19 0 19 -20q0 -8 -1.5 -28t-2.5 -37q14 15 27 27.5t24 20.5q6 5 13 5t13 -5.5t6 -13.5t-7 -15
q-15 -14 -33.5 -31t-37.5 -36q31 -19 52 -33.5t32 -26.5z" />
    <glyph glyph-name="plus" unicode="+" horiz-adv-x="713" 
d="M654 345q9 0 15.5 -5t6.5 -16q0 -16 -13 -21t-25 -10t-20 -9t-12 -4q-11 0 -18 9l-13 -2q-33 -6 -71 -12t-76 -11q-4 -21 -7.5 -41.5t-5.5 -38.5q6 -6 6 -16v-3q-3 -15 -5 -33t-3 -35q-1 -11 -8 -16.5t-18 -5.5q-9 0 -16.5 6.5t-7.5 17.5q0 27 5.5 68.5t13.5 91.5
q-28 -3 -53.5 -5t-46.5 -2q-19 0 -31 2.5t-22 7.5q-13 6 -13 20q0 8 5.5 15.5t15.5 7.5q4 0 10 -2q5 -2 15.5 -4.5t19.5 -2.5q20 0 48 2t61 6q8 36 15 68t16 63q3 10 8.5 16.5t14.5 6.5t15.5 -4.5t6.5 -15.5q0 -3 -1 -8t-3 -11q-7 -27 -13 -52t-13 -57q32 4 67 9.5t71 11.5
q9 1 21 3.5t23.5 5t21 4t13.5 1.5z" />
    <glyph glyph-name="comma" unicode="," horiz-adv-x="302" 
d="M166 51q0 17 8.5 34t30.5 17q20 0 28.5 -17t8.5 -40q0 -17 -6 -40t-16.5 -47t-24.5 -48t-29 -43q-5 -7 -12.5 -14t-18.5 -7q-21 0 -21 21q0 8 5.5 15t10.5 12q20 24 35 55t21 57q-8 7 -14 19t-6 26z" />
    <glyph glyph-name="hyphen" unicode="-" horiz-adv-x="452" 
d="M216 83q0 14 11 19t23 8q36 9 74 12t82 3q11 0 18 -6.5t7 -15.5t-7 -16t-16 -7q-35 0 -72 -3.5t-70 -9.5q-8 -2 -17 -4t-14 -2q-19 0 -19 22z" />
    <glyph glyph-name="period" unicode="." horiz-adv-x="320" 
d="M184 -17q-10 0 -17.5 8t-7.5 22q0 7 3.5 20.5t9.5 27t14 23.5t17 10q18 0 31.5 -5t13.5 -30q0 -12 -7 -25.5t-16.5 -25t-20.5 -18.5t-20 -7z" />
    <glyph glyph-name="slash" unicode="/" horiz-adv-x="422" 
d="M679 944q10 0 18 -7t8 -18q0 -3 -2 -8.5t-4 -8.5q-31 -43 -51.5 -79.5t-42.5 -79.5q-6 -12 -19 -12h-5q-58 -101 -118 -217.5t-117 -235t-109 -232t-95 -209.5q-7 -14 -21 -14q-8 0 -14.5 5t-6.5 15q0 8 5 26q7 28 11 52t8 59q1 8 7.5 14t14.5 6q7 0 15 -6
q45 99 94 203.5t100 207.5q28 56 61.5 122.5t71 134.5t77.5 135t81 125q8 11 15 16.5t18 5.5z" />
    <glyph glyph-name="zero" unicode="0" horiz-adv-x="753" 
d="M355 571q8 7 19 13.5t21 6.5q9 0 16 -5.5t7 -14.5q0 -13 -14 -22q-14 -8 -25 -18t-25 -25q29 17 64.5 27t75.5 10q49 0 90.5 -14t71 -42t46 -69t16.5 -95q0 -85 -29.5 -155t-76 -120t-104 -77.5t-114.5 -27.5q-53 0 -93 17t-66.5 47.5t-40 73.5t-13.5 95t11.5 106.5
t33.5 106.5t54.5 99t74.5 83zM385 476q-8 -4 -13.5 -8.5t-13.5 -4.5q-7 0 -13 7t-6 15v3q-51 -64 -80.5 -144t-29.5 -168q0 -41 11.5 -75.5t33 -59.5t52.5 -39t69 -14q43 0 91.5 21.5t89.5 63.5t68 104.5t27 145.5q0 38 -13.5 70t-37.5 55.5t-57 37t-72 13.5q-26 0 -56 -7
t-50 -16z" />
    <glyph glyph-name="one" unicode="1" horiz-adv-x="532" 
d="M491 27q8 0 14.5 -6t6.5 -16q0 -8 -5 -13t-13 -6q-46 -2 -92.5 -6.5t-91 -10t-85.5 -12.5t-74 -14q-17 -3 -26 -3q-8 0 -12 6t-4 14t5 13t13 7q35 8 76.5 15.5t85.5 13.5q0 30 4 80t11 108t15.5 118.5t18.5 110.5q-9 -18 -27.5 -49t-41.5 -61t-47.5 -51.5t-45.5 -21.5
q-8 0 -14.5 5t-6.5 15q0 14 15 23q13 8 22.5 14.5t19.5 17.5q23 24 47 57t45 71t38 79t27 81q2 8 8 15.5t17 7.5q21 0 21 -21q0 -9 -3 -21.5t-6 -27.5q-14 -68 -26 -147.5t-22 -155t-15.5 -140t-5.5 -101.5q45 6 85 9t69 3z" />
    <glyph glyph-name="two" unicode="2" horiz-adv-x="711" 
d="M170 322q0 53 27 106.5t71 96t100 69.5t113 27q41 0 74 -13t56.5 -36t36.5 -53.5t13 -64.5q0 -47 -13.5 -95t-36.5 -94t-52.5 -87.5t-60.5 -74.5q48 -15 95 -39t84 -58q8 -8 8 -19q0 -9 -6.5 -16t-16.5 -7q-8 0 -15 5.5t-13 10.5q-78 60 -176 87q-21 -19 -45 -36
t-50.5 -30.5t-55 -21.5t-59.5 -8q-12 0 -25 3t-23.5 9.5t-17.5 16.5t-7 25q0 22 13 41t35.5 32.5t52 21.5t63.5 8q27 0 56 -2.5t56 -9.5q30 29 59 66.5t51 80t35.5 89t13.5 92.5q0 28 -10 52.5t-27 41.5t-41.5 27t-52.5 10q-48 0 -94 -22.5t-83 -58.5t-59.5 -81.5
t-22.5 -90.5q0 -37 15 -57q7 -10 13.5 -15.5t6.5 -16.5q0 -10 -7.5 -16t-17.5 -6q-8 0 -16.5 5.5t-14.5 12.5q-14 16 -21.5 42t-7.5 51zM218 29q0 -16 30 -16q42 0 82.5 17.5t77.5 47.5q-17 4 -35.5 6t-33.5 2q-24 0 -46 -5t-38.5 -13t-26.5 -18.5t-10 -20.5z" />
    <glyph glyph-name="three" unicode="3" horiz-adv-x="719" 
d="M491 246q33 0 63 -11t53 -31t36.5 -48.5t13.5 -63.5q0 -56 -27 -108t-72 -92t-103 -63.5t-120 -23.5q-30 0 -56.5 9.5t-46.5 27t-32 42t-12 54.5t8 55.5t22 45.5q5 8 12.5 13t16.5 5q10 0 15.5 -6t5.5 -14q0 -7 -4 -13t-9 -13q-12 -17 -16.5 -35.5t-4.5 -36.5
q0 -41 29.5 -66t74.5 -25q55 0 104 20.5t86 54.5t58.5 78t21.5 90q0 27 -11 48.5t-29.5 37t-42 23.5t-48.5 8q-27 0 -47.5 -5.5t-40.5 -18.5q-10 -6 -18 -11.5t-19 -5.5q-9 0 -16.5 6.5t-7.5 17.5q0 19 22 30q14 7 27.5 10.5t22.5 8.5q37 19 75.5 49t69.5 64t50.5 70
t19.5 68q0 23 -11 40t-29 28t-40 16t-44 5q-65 0 -122.5 -17t-100.5 -42.5t-68.5 -55.5t-25.5 -57q0 -23 13 -29q16 -8 16 -22q0 -9 -7.5 -16t-17.5 -7q-23 0 -37 20.5t-14 49.5q0 39 30.5 78.5t81.5 71.5t116.5 52t134.5 20q35 0 66.5 -7t55.5 -22.5t38 -39.5t14 -57
q0 -35 -17 -71.5t-43 -70t-58.5 -62.5t-63.5 -50h9z" />
    <glyph glyph-name="four" unicode="4" horiz-adv-x="757" 
d="M767 272q20 0 20 -21q-1 -8 -6.5 -15t-13.5 -8q-62 -5 -123.5 -9t-125.5 -10q-1 -8 -3.5 -27.5t-4.5 -41.5t-4 -41t-2 -26q10 -6 10 -19q0 -8 -2 -17t-4.5 -21.5t-4.5 -29.5t-3 -41q-1 -12 -9.5 -18.5t-19.5 -6.5q-10 0 -17 6t-7 17q0 10 0.5 18.5t1.5 16.5q2 23 4 46.5
t5 50t6 58.5t8 71q-82 -8 -161.5 -18t-151.5 -21q-11 -2 -20 -3.5t-14 -1.5h-4t-4 1l-10 -10q-7 -7 -16 -7q-8 0 -15 7t-7 15q0 12 15 25l415 383q6 6 13 6h4.5t2.5 -1q3 12 5 24t4 22q2 8 8 14t16 6q9 0 15 -6.5t6 -15.5q0 -3 -2 -14.5t-4.5 -27.5t-5.5 -36l-6 -40
q-8 -58 -17 -123.5t-16 -128.5q33 3 73 6.5t76 6.5t63 4.5t33 1.5zM167 211q72 10 149.5 19.5t160.5 17.5q8 71 17 142t19 140z" />
    <glyph glyph-name="five" unicode="5" horiz-adv-x="713" 
d="M214 291q1 3 7.5 32t16 67.5t19 79.5t16.5 68q-8 0 -17.5 -2t-17.5 -2t-13.5 5.5t-5.5 16.5q0 20 22 25q12 2 53.5 6t97.5 11q27 3 61.5 8t65.5 9t54 7t26 3q8 0 14 -5t6 -14q0 -6 -3.5 -12t-7.5 -10q-8 -8 -16.5 -21t-24.5 -13q-7 0 -13.5 6t-6.5 14q0 3 1 5
q-51 -7 -112.5 -15t-114.5 -16q-4 -16 -11.5 -45.5t-15.5 -64.5t-16.5 -70t-14.5 -61q41 26 93.5 41t108.5 15q47 0 87.5 -11.5t70 -34.5t46.5 -57t17 -79q0 -60 -33.5 -121.5t-90.5 -111.5t-132.5 -81.5t-160.5 -31.5q-26 0 -49.5 7t-41.5 21t-28.5 34.5t-10.5 48.5
q0 14 3.5 29t10 27t16 20t20.5 8q9 0 16 -5.5t7 -14.5t-4 -15t-9 -12.5t-9 -15.5t-4 -22q0 -32 22.5 -49t60.5 -17q76 0 143 27.5t116.5 71t78 97.5t28.5 106q0 34 -14 59t-39.5 42t-60 25.5t-74.5 8.5q-59 0 -107.5 -18.5t-81.5 -43.5q-8 -6 -15.5 -12.5t-15.5 -6.5t-14 5
t-6 13t2.5 20.5t4.5 21.5z" />
    <glyph glyph-name="six" unicode="6" horiz-adv-x="725" 
d="M165 248q0 58 14.5 117t40.5 113t62.5 101t80.5 81.5t94 54.5t103 20q28 0 55.5 -8t49 -23t34.5 -37.5t13 -51.5q0 -19 -8.5 -32.5t-22.5 -13.5q-9 0 -15 4.5t-6 12.5q0 7 2 10.5t2 11.5q0 19 -9 34.5t-23.5 25.5t-34 15.5t-40.5 5.5q-72 0 -135 -40.5t-109.5 -104.5
t-73 -142t-26.5 -154q0 -56 16 -109.5t54 -97.5q1 50 19 97t50 83t77 58t100 22q34 0 62 -11.5t48 -31t30.5 -45.5t10.5 -56q0 -46 -20.5 -84.5t-55 -66.5t-78.5 -43.5t-92 -15.5q-28 0 -53.5 3.5t-48.5 12.5q7 -14 7 -25q0 -8 -6 -13t-14 -5q-14 0 -20 14q-9 18 -14 47
q-60 36 -90 104.5t-30 162.5zM324 30v-7t1 -7q21 -14 49 -20t60 -6q37 0 72 10.5t62.5 31.5t44.5 52t17 72q0 21 -8 39t-22 31.5t-33 21.5t-40 8q-47 0 -85 -20.5t-64 -52.5t-40 -72.5t-14 -80.5z" />
    <glyph glyph-name="seven" unicode="7" horiz-adv-x="685" 
d="M670 623q11 0 18 -5.5t7 -15.5q0 -19 -17 -22q-6 -1 -22 -3q-48 -76 -95.5 -155.5t-94.5 -162.5q29 4 64 6t62 2t27 -20q0 -9 -6 -15t-17 -6q-15 0 -34.5 -1t-40.5 -3l-42 -4t-39 -5q-57 -100 -103 -185.5t-88 -169.5q-5 -11 -12 -19.5t-18 -8.5q-8 0 -14.5 5t-6.5 14
q0 10 5 19.5t10 20.5q19 39 39 76t41 75.5t43.5 79t48.5 86.5q-10 -2 -30.5 -6t-42 -7.5t-38.5 -6.5t-21 -3q-8 0 -13.5 4t-5.5 15q0 16 19 21q9 3 30.5 7.5t46 9t47.5 8t35 5.5q47 84 94.5 163t95.5 157q-45 -5 -95 -10t-91 -8q-49 -4 -88.5 -7t-84.5 -7q-3 -15 -17 -17
q-26 -2 -51 -3.5t-42 -1.5q-11 0 -17.5 11t-6.5 21q0 8 6 16t15 9q71 5 141 10.5t143 11.5q34 3 76.5 7.5t80.5 8t66 6.5t33 3z" />
    <glyph glyph-name="eight" unicode="8" horiz-adv-x="737" 
d="M671 534q4 2 10 4t11 2q8 0 14 -5.5t6 -14.5q0 -16 -16 -23q-77 -33 -143 -80.5t-116 -107.5q29 -20 56.5 -42.5t48.5 -48.5t34 -56.5t13 -65.5q0 -33 -13 -61t-34.5 -48.5t-50.5 -32t-61 -11.5q-65 0 -104.5 40t-39.5 109q0 54 23.5 104.5t58.5 96.5q-38 26 -71.5 51.5
t-58.5 54t-40 62t-15 74.5q0 50 20 91.5t54.5 71.5t81.5 47t102 17q44 0 82 -10t66.5 -29.5t44.5 -47t16 -61.5q0 -19 -5 -37.5t-15 -32.5q-4 -5 -10 -10t-14 -5t-15 5.5t-7 14.5q0 6 3 11.5t6 10.5q5 9 7 20.5t2 22.5q0 23 -13 42.5t-35 33t-51.5 21t-62.5 7.5
q-47 0 -85 -13.5t-65 -38t-42 -58.5t-15 -75q0 -36 18.5 -66.5t44.5 -56t54.5 -45t48.5 -34.5q51 62 124 116.5t148 86.5zM333 95q0 -49 26 -79t71 -30q23 0 43.5 8.5t35.5 23t24 34.5t9 44q0 51 -38.5 94.5t-97.5 81.5q-31 -38 -52 -83.5t-21 -93.5z" />
    <glyph glyph-name="nine" unicode="9" horiz-adv-x="728" 
d="M115 292q0 68 31 128.5t83 105.5t118.5 71t137.5 26q54 0 96.5 -14t72 -38.5t44.5 -57.5t15 -71q0 -20 -5 -39t-13 -33q-10 -19 -27 -19q-8 0 -14.5 5.5t-6.5 14.5q0 10 7 21q6 10 9 23t3 27q0 28 -13 53t-37 44t-57.5 29.5t-74.5 10.5q-60 0 -117.5 -22t-102 -60.5
t-72 -90.5t-27.5 -111q0 -34 11.5 -60t30.5 -44t44 -27t53 -9q53 0 97 21.5t84 61.5q11 28 27 59.5t32 51.5q19 23 38 23q12 0 19 -8t7 -19q0 -8 -3.5 -18t-8.5 -18q-14 -24 -31 -47t-37 -46q-20 -38 -39.5 -80t-36 -85t-29.5 -85.5t-20 -81.5q-4 -20 -6 -38.5t-2 -36.5
q0 -12 -7.5 -19.5t-18.5 -7.5t-17.5 8.5t-6.5 20.5q0 24 4.5 49t10.5 50q14 62 36 124.5t54 121.5q-32 -23 -70.5 -35t-79.5 -12q-37 0 -70.5 12.5t-59 35.5t-40.5 57t-15 78z" />
    <glyph glyph-name="colon" unicode=":" horiz-adv-x="426" 
d="M235 17q0 17 5.5 27.5t16.5 20.5q12 9 29 9q8 0 15.5 -5t7.5 -15q0 -8 -2 -17.5t-7 -18.5q-8 -14 -18.5 -20t-21.5 -6q-25 0 -25 25zM290 256q2 7 7 11t11 4h2q16 -2 16 -18v-2q-2 -10 -5.5 -22t-8.5 -23q-3 -7 -12 -20.5t-25 -13.5h-1q-19 2 -25 19q-2 5 -2 15
q0 12 4.5 24t13.5 20q5 5 12 5q8 0 12 -4q1 2 1 5z" />
    <glyph glyph-name="semicolon" unicode=";" horiz-adv-x="432" 
d="M249 205q0 8 2 17.5t6.5 17.5t11 13.5t16.5 5.5q9 0 14 6t18 6q6 0 10.5 -3.5t4.5 -10.5q0 -11 -3.5 -24t-11 -24t-19 -18t-27.5 -7q-10 0 -16 6t-6 15zM248 41q0 14 8 23t21 9q20 0 27.5 -16.5t7.5 -37.5q0 -24 -7.5 -49t-20 -50t-28 -48t-30.5 -43q-7 -8 -15 -16
t-18 -8q-8 0 -13 5.5t-5 13.5q0 7 3.5 13.5t8.5 12.5q13 16 26 34t23.5 37.5t17.5 40t7 41.5q0 11 -6.5 16t-6.5 22z" />
    <glyph glyph-name="less" unicode="&#x3c;" horiz-adv-x="332" 
d="M242 403q6 6 15 6q8 0 15 -6t7 -16q0 -9 -7 -16q-40 -38 -77.5 -70t-81.5 -61q50 -23 92.5 -48t81.5 -54q9 -6 9 -18q0 -9 -7 -15t-16 -6q-8 0 -13 4q-44 32 -92.5 60.5t-109.5 52.5q-14 5 -14 19q0 13 11 20q54 33 97 69t90 79z" />
    <glyph glyph-name="equal" unicode="=" horiz-adv-x="625" 
d="M512 418q9 0 16 -7t7 -19q0 -11 -5 -19.5t-17 -11.5q-15 -4 -39.5 -8t-44.5 -11q-5 -2 -8.5 -3t-8.5 -1q-13 0 -19 12q-67 -13 -129 -21.5t-101 -8.5q-17 0 -30 3t-22 7q-16 6 -16 23q0 8 6 14.5t15 6.5q5 0 9.5 -1t9.5 -3q15 -5 28 -5q42 0 125.5 13t202.5 37q4 1 8.5 2
t12.5 1zM445 236q6 1 12 1.5t11 0.5q10 0 18.5 -5.5t8.5 -17.5q0 -14 -14 -23q-8 -5 -18.5 -9.5t-21.5 -9.5q-12 -5 -23 -5q-15 0 -20 14q-57 -11 -116.5 -19.5t-122.5 -8.5q-11 0 -22.5 0.5t-22.5 2.5q-8 2 -13.5 9t-5.5 15t7 14.5t16 6.5q10 0 19.5 -1.5t23.5 -1.5
q68 0 136.5 13t147.5 24z" />
    <glyph glyph-name="greater" unicode="&#x3e;" horiz-adv-x="328" 
d="M284 259q8 0 15 -6t7 -16q0 -14 -13 -20q-79 -35 -188 -132q-6 -6 -15 -6t-15.5 6.5t-6.5 16.5t7 16q89 78 158 118q-26 18 -53 38.5t-50.5 39.5t-42 35t-27.5 27q-6 6 -6 15q0 8 6.5 15t16.5 7t16 -7q8 -9 27.5 -26t45 -37.5t54.5 -43t58 -41.5q2 1 6 1z" />
    <glyph glyph-name="question" unicode="?" horiz-adv-x="859" 
d="M132 518q0 57 40.5 116.5t106 108.5t149.5 80t171 31q48 0 85 -14.5t62 -39t38 -57t13 -68.5q0 -60 -32 -106t-79.5 -81.5t-103.5 -63.5t-103.5 -52.5t-79.5 -47.5t-32 -49q0 -24 16 -34.5t40 -10.5q22 0 35.5 9.5t22.5 18.5t17 9q9 0 15 -5.5t6 -16.5q0 -7 -4 -13
q-12 -17 -37 -31t-55 -14q-45 0 -72 23.5t-27 64.5q0 37 31.5 66t79 55.5t103 52.5t103 58t79 72.5t31.5 94.5q0 28 -10.5 53.5t-30.5 44t-48.5 29.5t-64.5 11q-53 0 -104.5 -13t-98.5 -35.5t-86.5 -52t-68.5 -62t-45.5 -66t-16.5 -64.5q0 -32 18 -53.5t52 -21.5
q56 0 94 30.5t64 76.5q5 9 9.5 15.5t15.5 6.5q8 0 14.5 -6t6.5 -15q0 -6 -3 -12.5t-6 -11.5q-32 -55 -83.5 -91t-114.5 -36q-52 0 -82 33.5t-30 83.5zM370 5q0 13 5.5 27.5t14.5 27t19.5 20.5t19.5 8q11 0 18 -7t7 -19q0 -11 -8 -19q9 0 15.5 -8t6.5 -18q0 -7 -5.5 -16
t-14 -16.5t-19.5 -13t-23 -5.5q-17 0 -26.5 10.5t-9.5 28.5z" />
    <glyph glyph-name="at" unicode="@" horiz-adv-x="987" 
d="M200 93q0 106 32.5 193.5t91.5 150t141.5 96.5t181.5 34q57 0 109.5 -19t92 -53.5t63 -84.5t23.5 -111q0 -49 -12 -94.5t-34.5 -85t-56 -71.5t-76.5 -53q-47 -22 -84 -22q-27 0 -41.5 10t-21.5 20l-3 6q-14 -18 -34 -36t-46 -18q-24 0 -38.5 14.5t-14.5 37.5q0 20 6 38.5
t14.5 34t18 27.5t17.5 20q24 25 49.5 40t45.5 15q5 0 8 -1.5t5 -3.5q6 4 13 4q8 0 14.5 -5t6.5 -15q0 -21 -10.5 -40t-18.5 -46q-4 -13 -4 -26q0 -17 7.5 -26t26.5 -9q30 0 66 18t65 46t49 63t31 75t11 83q0 47 -19 88.5t-52 72t-78 48.5t-98 18q-90 0 -163.5 -30
t-127.5 -88q-59 -62 -85 -144.5t-26 -170.5q0 -80 31.5 -147.5t85.5 -117t127 -77.5t156 -28q64 0 125 17.5t116.5 44.5t103 60.5t84.5 65.5q6 5 11.5 9t11.5 4q8 0 13.5 -5t5.5 -14t-9 -18t-20 -19q-39 -34 -87 -67t-104 -59.5t-119 -43t-132 -16.5q-92 0 -173 28
t-141.5 81.5t-95.5 129.5t-35 172zM514 7q0 -4 2.5 -7.5t10.5 -3.5q5 0 13.5 5t18 14.5t19 22.5t16.5 30q2 4 4 9l4 10q2 14 7 27.5t10 25.5q-7 0 -24.5 -11t-35.5 -30q-21 -23 -33 -46.5t-12 -45.5z" />
    <glyph glyph-name="A" unicode="A" horiz-adv-x="1067" 
d="M1033 368q10 0 16.5 -6.5t6.5 -16.5q0 -9 -6.5 -16t-16.5 -7q-54 0 -112 -5.5t-118 -14.5q32 -54 59 -106.5t53 -104.5q5 -9 16.5 -28.5t19.5 -35.5l9 -18t9.5 -20.5t7.5 -20.5t3 -17q0 -14 -11.5 -21.5t-24.5 -7.5q-16 0 -26 18q-10 19 -15 42.5t-15 45.5
q-5 10 -12 24.5t-15 30.5l-15.5 31t-12.5 26l-40 76t-44 78q-116 -21 -235 -45t-244 -56q-23 -51 -48 -105.5t-47 -104.5q-2 -4 -3.5 -9.5t-1.5 -9.5q0 -5 1.5 -9t1.5 -9q0 -8 -4.5 -21t-11.5 -27l-12 -24t-14 -23q-10 -16 -27 -16q-11 0 -18.5 9t-7.5 20q0 7 4 17
q7 17 21 49.5t32 74t38 87.5t40 89q-14 -3 -34 -9t-39.5 -11t-35 -9t-21.5 -4q-22 0 -22 22q0 19 19 24q38 10 77.5 20t79.5 21q57 126 119.5 246t129.5 248q-17 23 -35.5 45.5t-36.5 48.5q-6 8 -6 16q0 9 9.5 15.5t19.5 6.5q9 0 18 -11q15 -18 29.5 -38t29.5 -40
q11 21 21 39t19 38q7 16 23 16q8 0 15 -5.5t7 -15.5q0 -5 -2.5 -10.5t-4.5 -10.5q-12 -24 -23 -45t-26 -48q63 -91 121.5 -186.5t115.5 -198.5q66 11 129.5 17t123.5 6zM293 247q64 15 129 29.5t122.5 26t104.5 20.5t76 14q-50 86 -100 170t-110 176q-60 -113 -114 -218.5
t-108 -217.5z" />
    <glyph glyph-name="B" unicode="B" horiz-adv-x="1550" 
d="M1506 766q0 -65 -26.5 -125t-68 -112.5t-92 -98t-98.5 -82.5q26 -3 55 -12t53.5 -25t40.5 -40t16 -56q0 -49 -34 -103t-89 -99.5t-124 -75t-139 -29.5q-35 0 -60 23q-7 -5 -17 -5q-8 0 -15.5 5.5t-7.5 16.5q0 4 0.5 14.5t1.5 23t2 25.5t1 23q2 36 2.5 82.5t1.5 90.5
q-8 5 -12 14t-4 17q0 10 4.5 18t12.5 16q2 53 6 114t8 112q3 45 6.5 90t3.5 98q0 13 -1 22.5t-2 17.5t-2 15.5t-1 16.5q0 8 7 15.5t18 7.5q8 0 15.5 -5.5t9.5 -14.5q4 -17 4.5 -35.5t0.5 -38.5q0 -47 -3.5 -94t-7.5 -98q-3 -44 -6.5 -94.5t-5.5 -98.5q38 20 87 30t100 15
q29 21 63 48t68.5 59t66.5 68.5t57 75t40 79t15 80.5q0 35 -14 61t-37.5 44t-54 30t-63.5 18.5t-66 9t-61 2.5q-78 0 -158 -16t-158 -41.5t-153 -58.5t-144 -66q-48 -24 -101.5 -55.5t-105 -67.5t-98.5 -73t-82.5 -71.5t-56.5 -64.5t-21 -50q0 -9 5.5 -15.5t14 -10.5t18 -6
t17.5 -2q26 0 46 5t40 12q6 2 13 2q8 0 14.5 -5.5t6.5 -16.5q0 -16 -14 -21q-47 -18 -106 -18q-17 0 -34 4.5t-31.5 13.5t-23.5 23.5t-9 34.5q0 29 23.5 66t62.5 76t88.5 79.5t101 76.5t101.5 66t89 50q60 30 134 64t158 63t176 48.5t188 19.5q51 0 111 -8t112 -30
t86.5 -61.5t34.5 -101.5zM1089 298q-34 -5 -67 -15.5t-64 -29.5v-11q10 1 27 6.5t35.5 13t36.5 17t32 19.5zM1338 215q0 18 -11 34.5t-30 28.5t-45 19.5t-55 7.5h-16.5t-16.5 -2q-64 -46 -115 -72t-92 -31q0 -26 -0.5 -54.5t-1.5 -56.5q7 7 16 7t15.5 -6.5t6.5 -16.5
q0 -9 -6 -15q-10 -11 -18.5 -30t-8.5 -36t10.5 -29t29.5 -12q56 0 116 25t109.5 64t81 85.5t31.5 89.5z" />
    <glyph glyph-name="C" unicode="C" horiz-adv-x="1000" 
d="M935 103q-33 -31 -82.5 -61.5t-109.5 -55t-127 -40t-136 -15.5q-79 0 -152.5 27.5t-130.5 77t-91 119.5t-34 154q0 74 21.5 147.5t61 139.5t93.5 122.5t119 97.5t138.5 64.5t150.5 23.5q43 0 80 -13t64 -37t42.5 -57t15.5 -73q0 -38 -11 -77.5t-31.5 -76.5t-49 -69
t-64.5 -55q-12 -7 -23 -7q-8 0 -16 8t-8 18q0 9 5.5 15.5t14.5 11.5q28 16 52 40.5t42 53.5t28 63t10 70q0 31 -12 56.5t-33 43.5t-48.5 27.5t-58.5 9.5q-69 0 -134.5 -21t-124.5 -58t-109 -88t-86 -112t-56.5 -129t-20.5 -139t29 -132t78 -105.5t113.5 -70t135.5 -25.5
q118 0 226 44t207 118q6 4 12 4q19 0 19 -20q0 -6 -3 -11.5t-6 -7.5z" />
    <glyph glyph-name="D" unicode="D" horiz-adv-x="1694" 
d="M1193 926q65 0 129 -9.5t122.5 -29.5t108.5 -50.5t86.5 -72.5t57.5 -96t21 -120q0 -73 -29 -147t-78 -142t-113.5 -126.5t-135 -102t-142.5 -68.5t-137 -25q-32 0 -60 9q-5 -16 -24 -16q-10 0 -15.5 7t-5.5 15q0 4 0.5 7t0.5 6q-25 14 -43 41t-18 58q0 39 16 73t51 57
q0 52 1 100q1 41 1.5 83t0.5 68q0 58 -1 91t-2 54t-2 36.5t-1 37.5q0 11 7 17.5t18 6.5q8 0 14.5 -6t7.5 -17q2 -23 3.5 -46t2 -49t1 -56.5t0.5 -68.5q0 -24 -0.5 -63t-1.5 -76q-1 -43 -2 -90q4 2 9 2q8 0 15 -6t7 -17q0 -14 -16 -22q-6 -3 -16 -5q-1 -13 -1 -24v-42
q0 -26 -1.5 -54t-1.5 -57q12 -4 26 -6.5t30 -2.5q55 0 120 22.5t130 62.5t125.5 94t106.5 117t74 132t28 138q0 88 -42 151t-109.5 103.5t-152.5 59.5t-171 19q-146 0 -291 -28t-284.5 -79t-271.5 -123.5t-251 -161.5q-11 -8 -27 -22.5t-31 -31.5t-26 -35t-11 -34t12 -21.5
t26 -5.5q26 0 62 10.5t87 33.5q3 2 8 3.5t10 1.5q9 0 15 -6t6 -16q0 -14 -17 -22q-110 -50 -171 -50q-33 0 -60 16.5t-27 53.5q0 21 11.5 44t29 45t38 40.5t38.5 32.5q119 90 251.5 163t275 125t293.5 81t306 31zM963 70q0 -31 20 -51q1 20 1.5 41.5t0.5 41.5v32
q-22 -32 -22 -64z" />
    <glyph glyph-name="E" unicode="E" horiz-adv-x="1133" 
d="M578 -41q61 0 126.5 14.5t129.5 39t124.5 57.5t111.5 70q5 4 10 6.5t10 2.5q9 0 14 -5.5t5 -12.5q0 -12 -11 -21q-40 -34 -100 -68.5t-130.5 -63t-145.5 -46.5t-144 -18q-37 0 -72.5 7.5t-63 23.5t-44 41.5t-16.5 62.5q0 64 29.5 119t71.5 107q-44 -8 -83 -12t-68 -4
q-35 0 -68 7t-59.5 23.5t-42.5 43.5t-16 66q0 55 23.5 109t60.5 103.5t81 93t86 76.5q51 40 109 77t121 65.5t130 45t136 16.5q29 0 55.5 -5.5t47 -19t33 -35t12.5 -52.5q0 -32 -16.5 -61.5t-41 -54.5t-54 -46t-55.5 -36q-8 -5 -15 -5q-9 0 -16.5 6t-7.5 17q0 8 5.5 13.5
t11.5 8.5q23 12 48.5 29t46.5 37.5t35 44t14 47.5q0 20 -8.5 33t-23 20.5t-33 10.5t-38.5 3q-112 0 -232.5 -51.5t-235.5 -143.5q-35 -28 -75.5 -67t-76 -84t-59 -95t-23.5 -100q0 -27 12 -45.5t31.5 -29.5t45 -15.5t52.5 -4.5q36 0 90 7.5t112 18.5q19 20 51.5 47t68.5 51
t70.5 40.5t58.5 16.5q29 0 44.5 -14.5t15.5 -38.5q0 -21 -18 -39t-45.5 -33t-61.5 -26.5t-66 -20.5t-58 -15t-38 -9q-25 -25 -45 -50.5t-36 -51.5q-24 -38 -35.5 -72t-11.5 -69q0 -27 15 -43.5t37.5 -26.5t48.5 -13.5t49 -3.5zM781 442q-14 0 -34 -9.5t-42 -23t-42.5 -29
t-35.5 -27.5q23 6 52 15t55 19.5t44 22t18 21.5q0 11 -15 11z" />
    <glyph glyph-name="F" unicode="F" horiz-adv-x="1134" 
d="M1337 913q11 -3 20 -8.5t9 -18.5q0 -11 -7 -19.5t-19 -8.5q-6 0 -13.5 2.5l-18 6t-26 6t-39.5 2.5q-40 0 -102 -12t-134.5 -31t-150 -41.5t-148.5 -44.5q-23 -7 -49 -15t-36 -11q-5 -51 -6 -102.5t-3 -108.5q-2 -36 -2 -75.5v-96.5q51 16 117 32t131 29.5t122.5 22
t90.5 8.5q9 0 15.5 -6.5t6.5 -16.5q0 -9 -6 -15.5t-16 -6.5q-27 0 -82 -8.5t-121 -22t-134.5 -30t-123.5 -32.5q1 -48 0.5 -93t3.5 -93q1 -20 4 -45.5t6 -49.5t5 -44t2 -27q0 -9 -5.5 -16t-18.5 -7q-17 0 -23 26q-18 80 -55 157t-85 142q-54 -18 -105.5 -36.5t-104.5 -39.5
q-6 -2 -9 -2q-9 0 -16 6t-7 16q0 15 16 22q49 20 98 37t99 34q-29 36 -62.5 64.5t-69.5 51t-73 40t-71 31.5q-18 7 -38 15t-36 17.5t-26.5 23t-10.5 31.5q0 26 17.5 46t49.5 31q42 14 99.5 28.5t122 29.5t132.5 32t131 37q1 9 2 17.5t3 16.5t8.5 13.5t14.5 5.5q10 0 16 -6.5
t6 -16.5q0 -4 -1 -8l-2 -8q16 5 33.5 10t32.5 10q75 23 154.5 47t153.5 43.5t137 31.5t106 12q50 0 91 -11zM570 122q-2 35 -2.5 76.5t-0.5 79.5q-20 -6 -38.5 -11.5t-36.5 -11.5q23 -31 41.5 -63t36.5 -70zM463 293q25 8 51 16t53 16q0 44 0.5 88.5t0.5 96.5q0 45 2 91
t6 106q-60 -18 -121 -33t-119.5 -28.5t-114 -27t-103.5 -28.5q-12 -4 -27.5 -12t-15.5 -24q0 -9 10 -16.5t24 -13.5t29.5 -11t27.5 -10q48 -20 88.5 -40t76.5 -44.5t68.5 -55t63.5 -70.5z" />
    <glyph glyph-name="G" unicode="G" horiz-adv-x="906" 
d="M886 717q20 14 28 38t8 59q0 32 -14 59.5t-37 47.5t-53.5 31t-63.5 11q-52 0 -107 -20.5t-108 -53t-100.5 -71t-84.5 -74.5q-56 -55 -103 -119t-80.5 -136t-52.5 -150t-19 -162q0 -38 10.5 -74t31 -64.5t51 -46t71.5 -17.5q76 0 144.5 34.5t129 87t112 116t95.5 120.5
q1 15 7 36t15.5 40t22.5 32.5t28 13.5q9 0 16 -7t7 -17q0 -16 -5.5 -27.5t-13 -21t-15.5 -19.5t-12 -23q-5 -14 -6 -27t-1 -33q0 -25 0.5 -45.5t1.5 -39.5t2.5 -37.5t3.5 -37.5q23 22 46 41t49 39q3 2 8.5 4.5t9.5 2.5q9 0 15.5 -6.5t6.5 -16.5q0 -11 -14 -21
q-33 -25 -61 -49.5t-55 -51.5q14 -106 23 -208.5t9 -215.5q0 -26 -2.5 -61.5t-8.5 -74.5t-16.5 -77t-27 -68.5t-39.5 -49t-53 -18.5q-42 0 -69.5 32t-43.5 79t-22.5 99.5t-6.5 93.5q0 67 16 132t44.5 126.5t66.5 118.5t83 107q-4 42 -7 87.5t-4 96.5q-39 -55 -90.5 -114
t-112 -107.5t-130.5 -80t-147 -31.5q-51 0 -91 21.5t-67 56.5t-41 80t-14 92q0 85 19.5 167t55.5 157.5t86 145t111 129.5q37 37 88.5 78t110 75.5t119.5 57t118 22.5q42 0 80.5 -14t68 -39.5t47.5 -61.5t18 -79q0 -17 -2.5 -36.5t-9.5 -38.5t-18.5 -36t-29.5 -29
q-6 -4 -14 -4q-11 0 -17.5 6.5t-6.5 17.5q0 8 4 12.5t9 8.5zM685 -666q23 0 41.5 27t32 70.5t21 98t7.5 108.5q0 95 -7 186.5t-20 191.5q-89 -107 -130 -217t-41 -206q0 -41 5.5 -86.5t17 -83.5t29.5 -63.5t44 -25.5z" />
    <glyph glyph-name="H" unicode="H" horiz-adv-x="1146" 
d="M1157 241q8 -1 14 -7.5t6 -14.5q0 -9 -6 -16t-17 -7q-16 0 -47 3.5t-85 4.5q-5 -62 -7.5 -125.5t-2.5 -137.5q0 -23 1 -37.5t2.5 -23.5t2.5 -14.5t1 -11.5q0 -9 -6 -16t-16 -7q-16 0 -22 17q-16 48 -43 85.5t-59 66.5t-66.5 50t-65.5 36q-45 21 -112.5 39.5t-142.5 28.5
q1 -15 2 -28.5t3 -27.5h5q8 0 13 -7t5 -15q0 -7 -2 -14t-2 -17q0 -9 2.5 -18t2.5 -18q0 -14 -9.5 -20t-20.5 -6q-8 0 -14 3.5t-9 12.5q-11 34 -15 79t-6 81q-20 2 -43 3.5t-55 1.5q-88 0 -149 -7.5t-95 -12.5q-9 -2 -18 -3t-17 -1q-11 0 -16 7.5t-5 15.5q0 17 16 23.5
t35 9.5q33 5 71.5 10t73.5 9t63.5 7t42.5 4q25 2 48.5 3.5t45.5 3.5q-2 70 -3 145.5t-1 145.5q0 79 -6.5 150t-13.5 127q-2 15 -5.5 32t-7 33.5t-6 31t-2.5 25.5q0 12 8 19t18 7q9 0 15 -6t8 -14q6 -24 10.5 -55.5t9.5 -64.5q8 -63 12.5 -133.5t4.5 -151.5q0 -69 1 -144
t3 -144q51 3 103 6t111 4.5t128.5 2.5t153.5 1q1 20 2.5 38.5t2.5 37.5q4 72 9 147.5t5 150.5q0 58 -2.5 97.5t-6 65t-6 40.5t-2.5 26t7 19.5t18 8.5q18 0 23 -20q11 -45 13 -105t2 -132q0 -38 -1.5 -79t-4 -79.5t-5 -71.5t-3.5 -56q-2 -24 -3.5 -45t-2.5 -44q38 -2 71 -3.5
t61 -4.5zM968 13q0 43 2.5 89t6.5 103q-118 0 -235.5 -2t-242.5 -10v-1q75 -9 144.5 -26t117.5 -39q51 -24 107 -64t100 -103v53z" />
    <glyph glyph-name="I" unicode="I" horiz-adv-x="1010" 
d="M940 68q12 0 26 -5t14 -22q0 -9 -6.5 -15.5t-16.5 -6.5q-5 0 -8.5 0.5t-8.5 0.5v-29q0 -32 -2.5 -62.5t-6.5 -57.5q-3 -27 -10.5 -51.5t-22.5 -44t-39.5 -31t-62.5 -11.5q-35 0 -80 6.5t-95.5 17.5t-103.5 25.5t-104.5 29.5t-98 30t-82.5 27q-46 15 -91.5 31.5t-82 34.5
t-59 37.5t-22.5 42.5q0 26 17.5 40.5t45 22t60.5 9t64 1.5q183 0 362.5 -6t365.5 -14q0 176 -21.5 348t-73.5 345q-3 10 -11.5 36t-19 52.5t-21.5 47t-20 20.5q-5 0 -8.5 -18.5t-3.5 -47.5q0 -37 5 -84t14 -98.5t21.5 -104t26.5 -99.5t29 -85.5t30 -62.5q3 -5 5.5 -10.5
t2.5 -10.5q0 -10 -8 -17t-18 -7q-7 0 -14 4.5t-12 13.5q-23 44 -46 113.5t-41 147.5t-29.5 157t-11.5 143q0 36 6 58t15 34t19 16t18 4q20 0 41.5 -21.5t38.5 -60.5q37 -88 62.5 -187t41.5 -203.5t23.5 -211.5t7.5 -211zM855 -204q23 23 30.5 75.5t7.5 119.5v31
q-89 3 -179 7t-182 7t-188.5 5t-199.5 2q-18 0 -38.5 -1t-38.5 -4t-30 -8.5t-12 -14.5q0 -13 34.5 -31t85.5 -37t109 -37.5t104 -32.5q61 -19 122.5 -36.5t119.5 -31.5t110 -22.5t93 -8.5q34 0 52 18z" />
    <glyph glyph-name="J" unicode="J" horiz-adv-x="1177" 
d="M1210 163q18 -8 18 -25q0 -10 -6.5 -17t-17.5 -7q-4 0 -10 2q-57 23 -106.5 41t-100.5 31q12 -43 23 -90.5t19 -95.5t13 -94t5 -87q0 -83 -10.5 -161t-44 -138.5t-97 -97t-169.5 -36.5q-63 0 -139 20t-152.5 55.5t-148.5 85t-128 109.5t-89.5 128t-33.5 140
q0 84 51.5 149t140 109.5t208 68t255.5 23.5q55 0 111.5 -5.5t115.5 -17.5q-43 144 -99 286t-130 278q-37 68 -59.5 95t-29.5 27q-5 0 -5 -9t2 -23t6 -30.5t8 -35t9 -34.5q18 -64 40 -128.5t50 -127.5t62.5 -122.5t78.5 -113.5q3 -4 5.5 -8t2.5 -10q0 -9 -7 -15t-16 -6
q-10 0 -18 10q-43 51 -79.5 112.5t-67 128t-55 136t-42.5 136.5q-12 44 -16.5 78.5t-4.5 53.5q0 20 8.5 38t31.5 18q20 0 40 -16.5t38.5 -39.5t33.5 -47.5t24 -41.5q78 -140 136.5 -289t106.5 -310q57 -14 117 -34t122 -46zM998 -197q0 58 -6 110t-15.5 101t-21 95t-22.5 92
q-126 27 -242 27q-125 0 -235 -20t-193 -58.5t-131 -95t-48 -128.5q0 -65 33 -126.5t86.5 -116t121.5 -100t139 -78t139 -51t120 -18.5q75 0 127.5 21.5t85 66t47.5 114t15 165.5z" />
    <glyph glyph-name="K" unicode="K" horiz-adv-x="1137" 
d="M118 198q23 0 54 12t69 34q2 13 3 26.5t3 26.5q-18 -2 -46 -10t-53.5 -19.5t-44 -25.5t-18.5 -29q0 -8 9.5 -11.5t23.5 -3.5zM289 272q12 6 25.5 15t24.5 17q-5 1 -9.5 1h-9.5q-15 0 -28 -3zM904 -7q-81 0 -142.5 25t-109.5 61t-87 77.5t-75 74.5q-20 19 -42.5 36
t-51.5 26q-25 -19 -52.5 -37.5t-57.5 -37.5q-4 -32 -6 -65.5t-2 -80.5q0 -27 1 -51.5t6 -39.5q2 -6 2 -11q0 -10 -8 -16t-19 -6q-16 0 -23 20q-5 16 -6.5 36.5t-1.5 43.5q0 35 2 69.5t6 74.5q-71 -37 -121 -37q-12 0 -26 2.5t-25.5 8.5t-19 16.5t-7.5 27.5q0 28 24 51
t57.5 40.5t70 27.5t60.5 13q5 68 11 135.5t6 140.5q0 82 -6.5 130.5t-6.5 68.5q0 10 6 19t19 9q19 0 24 -22q8 -31 10.5 -69t2.5 -78q0 -80 -5 -159.5t-14 -167.5q8 1 15.5 1h15.5q16 0 32.5 -1.5t30.5 -4.5q71 55 142.5 116.5t137.5 129t123.5 142t100.5 157.5q9 17 25 17
q8 0 14.5 -6.5t6.5 -15.5t-5 -19q-39 -74 -92.5 -144.5t-117 -138t-135.5 -131.5t-148 -124q36 -19 67.5 -47.5t63 -60.5t65 -64t74.5 -58t91 -42t114 -16q62 0 118 29.5t113 70.5q5 4 10 6.5t10 2.5q9 0 14 -5.5t5 -12.5q0 -12 -11 -21q-57 -49 -124 -82.5t-149 -33.5z" />
    <glyph glyph-name="L" unicode="L" horiz-adv-x="797" 
d="M270 640q0 77 37.5 134.5t96.5 96t133 57.5t146 19q33 0 64 -9.5t55.5 -27.5t39.5 -44t15 -60q0 -62 -37 -112q-8 -11 -20 -11q-9 0 -16.5 6.5t-7.5 16.5q0 6 6 14q30 39 30 86q0 23 -11.5 41t-30.5 30t-43 18.5t-49 6.5q-57 0 -120.5 -15t-116.5 -46.5t-88 -81.5
t-35 -119t23 -140.5t51 -147t51 -154.5t23 -161q81 -2 165 -8t169 -14q23 -3 23 -23q0 -8 -5.5 -15t-15.5 -7q-2 0 -20.5 1.5t-47.5 3.5t-64.5 5t-72.5 5t-72 3.5t-61 1.5q-5 -47 -23.5 -87.5t-49 -71.5t-72.5 -48.5t-94 -17.5q-48 0 -101 17t-97.5 42.5t-73.5 56.5t-29 59
q0 21 14 35t34.5 23t42.5 14t38 8q44 8 100 13t114 5h75t76 -1q0 80 -23 156t-51 150t-51 147.5t-23 149.5zM-31 -60q0 -14 23.5 -36t61 -43t83 -36t89.5 -15q39 0 72 13.5t57.5 37.5t40.5 57t21 72q-24 2 -58 2h-92q-57 0 -110.5 -4t-95.5 -12q-5 -1 -20 -4.5t-31 -9
t-28.5 -11.5t-12.5 -11z" />
    <glyph glyph-name="M" unicode="M" horiz-adv-x="1894" 
d="M1619 -39q37 0 71 14.5t64 37.5t55.5 51.5t46.5 56.5q5 6 8.5 9t9.5 3t11.5 -4.5t5.5 -11.5q0 -9 -8 -22q-18 -28 -42 -54t-51 -49q-88 -73 -171 -73q-63 0 -103.5 31.5t-64 80t-32.5 107.5t-9 115q0 37 2 78t4.5 78t4.5 67.5t2 48.5q0 32 -4 53t-14 21q-11 0 -28 -25.5
t-37 -66t-41.5 -91t-42.5 -101t-38.5 -96t-30.5 -76.5t-27 -69t-32 -67q-10 -17 -24.5 -25.5t-30.5 -8.5q-14 0 -24 9t-17 24t-10.5 34.5t-5.5 40.5q-3 35 -3.5 69t-0.5 53q0 53 3.5 115t8 119t8 101.5t3.5 62.5q0 24 -1.5 42t-12.5 18q-9 0 -23 -17t-30 -44t-33 -60.5
t-32.5 -66.5t-28 -62.5t-20.5 -48.5q-48 -115 -88 -232t-84 -245q-14 -42 -45 -42q-17 0 -24.5 12.5t-7.5 29.5q0 8 2 22t5 30.5t6.5 33.5t6.5 32q18 74 35 153t30.5 159t22 158.5t8.5 152.5q0 28 -2 65t-8.5 76t-18.5 77t-32 68t-49 48.5t-70 18.5q-47 0 -96.5 -24
t-97 -63.5t-89.5 -91.5t-74 -108t-50.5 -113t-18.5 -106q0 -19 7 -36t16 -28q10 -12 10 -24q0 -10 -8.5 -17t-19.5 -7q-13 0 -23 12q-14 17 -22 43t-8 52q0 49 18 109.5t50.5 122t77 120t97 104t111.5 73t120 27.5q49 0 84.5 -19t60.5 -50t41 -72t25 -85.5t12 -89t3 -82.5
q0 -75 -8.5 -155t-23 -161.5t-32 -161.5t-35.5 -155l6 -2q24 75 50 151.5t53.5 149t55.5 138.5t56 122q39 77 72.5 117.5t65.5 40.5q16 0 26.5 -9.5t17 -24t9 -31t2.5 -30.5q0 -37 -3.5 -84t-7.5 -102t-7.5 -117t-3.5 -128q0 -29 1 -57t4 -58q6 -49 16 -49q13 0 47 93
q15 40 34 89t39.5 100t42 100.5t41.5 91.5t37 73.5t29 46.5q30 36 56 36q22 0 34.5 -13.5t18.5 -33.5t7.5 -42t1.5 -39q0 -63 -5.5 -130.5t-5.5 -135.5q0 -41 6.5 -92t24 -96t49 -76t81.5 -31z" />
    <glyph glyph-name="N" unicode="N" horiz-adv-x="1337" 
d="M1062 -37q37 0 71 14t64 36.5t55.5 51t46.5 56.5q5 6 8.5 9t9.5 3t11.5 -4.5t5.5 -11.5q0 -9 -8 -22q-18 -28 -42 -54t-51 -49q-88 -73 -172 -73q-71 0 -114 33.5t-66.5 86t-31.5 116.5t-8 124q0 75 16 153.5t35 148t35 124t16 81.5q0 16 -4.5 28t-17.5 12t-25 -8.5
t-26 -24.5q-67 -76 -125 -163t-107.5 -181t-92 -193t-78.5 -199q-15 -42 -26 -58.5t-27 -16.5t-23.5 13.5t-7.5 28.5q0 21 8 61t20 91t26.5 109.5t26.5 116.5t20 111t8 94q0 40 -6.5 92t-25 99t-53 79.5t-89.5 32.5q-32 0 -61 -12t-55 -31.5t-48 -44t-40 -49.5
q-84 -120 -84 -235q0 -35 5 -59.5t5 -35.5q0 -8 -7 -15.5t-17 -7.5q-14 0 -21 14.5t-10.5 34t-4 39t-0.5 30.5q0 41 12.5 88t35 93.5t54 89t69 75t80 52t87.5 19.5q64 0 107 -31t69 -80t36.5 -110t10.5 -121q0 -33 -6 -76.5t-15.5 -92t-21 -99.5t-23.5 -100
q-6 -25 -13.5 -52.5t-13.5 -57.5l3 -1q10 33 27 76.5t39 92.5t48 102t54 106q38 72 85 140t90 122q38 47 72.5 74.5t63.5 27.5q18 0 29 -8t17.5 -21t9 -28.5t2.5 -30.5q0 -40 -15.5 -96t-34 -122t-34 -140t-15.5 -150q0 -61 8 -118t28 -101t53.5 -70.5t83.5 -26.5z" />
    <glyph glyph-name="O" unicode="O" horiz-adv-x="1028" 
d="M529 964q67 51 129 72.5t111 21.5q10 0 21.5 -1t21.5 -4t16 -9.5t6 -16.5q0 -9 -6 -16.5t-17 -7.5t-20.5 5t-21.5 5q-39 0 -70.5 -10t-60.5 -24q85 -1 151 -31.5t111.5 -84t69 -125.5t23.5 -157q0 -68 -19 -144t-53.5 -150t-84 -141t-111 -118.5t-133.5 -82t-152 -30.5
q-66 0 -126.5 23t-107.5 65t-75 101.5t-28 131.5q0 21 3 44q-24 31 -37 67t-13 75q0 63 18.5 123.5t51.5 115.5t78 103.5t97.5 87.5t110.5 67.5t117 44.5zM101 424q0 -22 5 -41.5t13 -34.5q17 71 47.5 142.5t71.5 139.5t90 131t102 117q-63 -32 -121.5 -78.5t-104.5 -104
t-74 -126t-29 -145.5zM641 934q-22 0 -43.5 -2.5t-45.5 -8.5q-44 -33 -88 -77.5t-85 -96t-78 -108.5t-66.5 -116t-50 -117.5t-29.5 -113.5q31 -31 75 -48.5t91 -17.5q45 0 87 5.5t84 16t84.5 27t88.5 38.5q10 5 18 5t14.5 -6.5t6.5 -15.5q0 -14 -13 -20q-99 -49 -189 -72.5
t-183 -23.5q-43 0 -89.5 14.5t-81.5 43.5v-6q0 -60 25 -110.5t66 -86.5t93.5 -56.5t107.5 -20.5q70 0 134.5 28t120 75t101.5 109.5t78.5 131.5t50 140.5t17.5 136.5q0 69 -18.5 132t-56 112t-94 78.5t-132.5 30.5z" />
    <glyph glyph-name="P" unicode="P" horiz-adv-x="1737" 
d="M1131 899q124 0 232.5 -20t189 -59t126.5 -96.5t46 -132.5q0 -56 -27.5 -109.5t-73 -101.5t-104.5 -88.5t-121.5 -70.5t-124 -46.5t-113.5 -16.5q-36 0 -64 12q-1 -8 -1.5 -15t-0.5 -15q0 -18 2 -36.5t4 -41.5q2 -20 3.5 -38.5t1.5 -29.5q0 -8 -1.5 -19.5t-5.5 -22.5
t-11 -18.5t-18 -7.5q-10 0 -17 8t-7 25q0 48 1.5 110.5t6.5 131.5q-19 22 -19 48q0 22 7.5 44.5t21.5 42.5q0 13 0.5 26.5t1 31.5t1 41t0.5 55q0 38 -4 60.5t-4 42.5q0 9 6.5 16t17.5 7q17 0 22 -18q5 -22 6.5 -49t1.5 -53t-1 -53t-1 -59q6 3 12 3q8 0 15.5 -6t7.5 -16
q0 -13 -12 -20q-12 -8 -25 -25q0 -24 -3 -48.5t-5 -52.5q11 -9 26.5 -12.5t33.5 -3.5q49 0 106 15.5t114 42.5t110 64t93.5 80t65 90.5t24.5 95.5q0 67 -45.5 117t-121 82t-173.5 48t-203 16q-117 0 -230 -17t-216.5 -44t-195 -60.5t-165.5 -65.5q-50 -22 -93.5 -47
t-76 -49.5t-51.5 -47.5t-19 -40t13 -29t33 -21t44.5 -14.5t47.5 -9t42 -4.5t28 -2q11 -1 17.5 -7.5t6.5 -15.5q0 -10 -6.5 -17t-17.5 -7q-17 0 -42.5 2.5t-54 8t-56.5 15.5t-51 24t-37 33t-14 44q0 36 31 70.5t74.5 64.5t89 53.5t74.5 36.5q75 33 169 66.5t200 61.5
t221.5 45.5t234.5 17.5z" />
    <glyph glyph-name="Q" unicode="Q" horiz-adv-x="1083" 
d="M82 272q0 77 18.5 158.5t52 159t81.5 146.5t106.5 120.5t126.5 81.5t142 30q45 0 83 -10.5t61 -26.5q12 -8 12 -20q0 -11 -7 -19t-18 -8q-9 0 -18 6q-18 12 -46 22.5t-67 10.5q-61 0 -119.5 -26t-112 -71.5t-98.5 -107.5t-78 -134t-51.5 -151t-18.5 -158q0 -71 26 -127.5
t69 -97t98.5 -62t114.5 -21.5q58 0 121 16.5t123.5 47t115 73.5t95.5 96.5t65.5 116t24.5 131.5t-21.5 127.5t-62.5 101t-99.5 66.5t-133.5 24t-146.5 -29.5t-127.5 -80.5t-90 -119.5t-34 -147.5q0 -50 20 -86.5t53.5 -60.5t77.5 -35.5t91 -11.5q54 0 99.5 8.5t84.5 22
t72.5 31t63.5 35.5q4 2 8.5 4t9.5 2q8 0 14.5 -6.5t6.5 -16.5q0 -8 -5 -13t-11 -9q-81 -51 -163.5 -77t-179.5 -26q-54 0 -106.5 14t-93.5 43t-66 74t-25 108q0 87 37 164t98.5 134t142.5 90.5t169 33.5q82 0 149.5 -26t115.5 -73.5t74 -115t26 -149.5q0 -78 -27 -147.5
t-72.5 -128t-105.5 -105t-126 -79t-133.5 -50t-128.5 -17.5q-66 0 -130 23.5t-114.5 68t-81.5 110t-31 149.5zM362 -168q34 29 77.5 52.5t91.5 23.5q41 0 65 -18t37.5 -44.5t19.5 -57.5t11.5 -57.5t13 -44.5t24.5 -18q34 0 64.5 27.5t65.5 84.5q9 14 23 14q8 0 15.5 -6.5
t7.5 -16.5t-5 -17q-45 -67 -89 -99t-89 -32q-28 0 -42.5 18t-23 45t-14 58t-14.5 58t-25.5 45t-46.5 18q-38 0 -73.5 -20.5t-64.5 -49.5q-8 -8 -18 -8q-9 0 -15.5 6.5t-6.5 17.5q0 12 11 21z" />
    <glyph glyph-name="R" unicode="R" horiz-adv-x="1195" 
d="M509 23q8 0 14.5 -6.5t6.5 -15.5q0 -6 -5 -14q-5 -7 -11.5 -22t-9.5 -30q-2 -11 -9.5 -16.5t-16.5 -5.5q-14 0 -18.5 8.5t-4.5 21.5q0 54 3 93t6 75.5t6 79t3 104.5q0 51 -1 91t-3 75.5t-6.5 68.5t-11.5 69q-1 4 -2 10t-1 11q0 11 7.5 18t18.5 7q8 0 14.5 -5t9.5 -18
q7 -34 11.5 -69.5t6.5 -75.5t2.5 -85t0.5 -97q0 -66 -4.5 -131.5t-5.5 -140.5zM665 295q22 0 41.5 4t34 9t23 9.5t8.5 5.5q0 5 -13 11.5t-30 6.5t-34.5 -2.5t-32.5 -7t-24.5 -11t-9.5 -13.5q0 -12 37 -12zM1059 110q-20 -18 -46 -39.5t-56 -40t-62.5 -31.5t-65.5 -13
q-36 0 -63.5 22t-27.5 64q0 34 7 60.5t16 49t16 43t7 42.5q0 7 -1 11q-29 -13 -60 -20.5t-58 -7.5q-13 0 -27.5 3t-26.5 9.5t-20 17.5t-8 27q0 22 16 37t39.5 24t49 13t43.5 4q25 0 48 -11.5t33 -30.5q43 25 96 66.5t99.5 93t78.5 109.5t32 115q0 49 -23.5 82.5t-60.5 54.5
t-82.5 30t-89.5 9q-105 0 -200.5 -14t-185 -39.5t-173.5 -60.5t-165 -76q-24 -12 -49.5 -27t-45.5 -30.5t-33 -29.5t-13 -25q0 -16 17 -20.5t35 -4.5q17 0 37.5 4.5t39.5 12.5q9 3 16 3q8 0 14 -5.5t6 -16.5q0 -17 -20 -24q-22 -8 -46 -13t-47 -5q-46 0 -72 18.5t-26 50.5
q0 21 15.5 42t39.5 40.5t53.5 37t58.5 32.5q73 39 156.5 74t176.5 62t195.5 43t215.5 16q55 0 109 -11.5t97 -38t70 -68.5t27 -103q0 -65 -33 -128t-83.5 -119t-110 -102t-112.5 -78q3 -12 3 -27q0 -28 -7 -53t-15.5 -48t-15.5 -46t-7 -47q0 -20 9.5 -34t35.5 -14
q28 0 54.5 10t52 25.5t49 35t46.5 38.5q10 9 20 9q9 0 14 -5.5t5 -12.5q0 -12 -11 -21z" />
    <glyph glyph-name="S" unicode="S" horiz-adv-x="996" 
d="M18 576q0 71 39.5 129.5t105.5 104.5t152 80.5t179 57t186.5 33.5t173.5 11q19 0 45.5 -1.5t55.5 -6t57.5 -13.5t51 -23t36.5 -35t14 -50q0 -36 -16.5 -67t-43.5 -56t-60.5 -44t-67.5 -30q-9 -3 -20 -6t-19 -3t-15.5 5.5t-7.5 16.5q0 14 11 20t25 10q30 8 59.5 22
t53 33.5t38 43.5t14.5 51q0 25 -19.5 42t-50.5 27.5t-68 14.5t-73 4q-67 0 -151.5 -10t-171.5 -30t-170 -50t-147.5 -71t-104 -92.5t-39.5 -114.5q0 -52 35.5 -89t93 -64.5t131.5 -48t151 -40.5t151 -41.5t131.5 -50.5t93 -68.5t35.5 -95.5q0 -63 -39 -109t-98.5 -75
t-130.5 -43t-135 -14q-39 0 -88 7.5t-92 26.5t-72.5 52.5t-29.5 86.5q0 32 12.5 59t33.5 49t47.5 39t54.5 29q26 12 52 20t45 8q11 0 17.5 -6.5t6.5 -15.5q0 -20 -23 -25q-27 -6 -61 -17.5t-64 -31t-50.5 -46t-20.5 -62.5q0 -39 24.5 -64t60.5 -38.5t76 -18.5t71 -5
q26 0 62 4t75 12.5t77.5 23t69 35.5t49.5 49t19 65q0 47 -35.5 80t-93 58t-131.5 44t-151.5 39t-151.5 43t-131.5 55t-93 75.5t-35.5 105.5z" />
    <glyph glyph-name="T" unicode="T" horiz-adv-x="1639" 
d="M1628 935q29 4 53 9t38 5q10 0 16.5 -6t6.5 -17q0 -20 -25 -25q-157 -29 -319 -38t-330 -18q-80 -4 -170.5 -9.5t-185.5 -13t-192.5 -17t-191.5 -21.5q-46 -6 -93.5 -20.5t-85.5 -37.5t-62.5 -54.5t-24.5 -73.5q0 -53 26.5 -103.5t67.5 -96t89.5 -84.5t92.5 -67
q94 -61 190.5 -114t206.5 -107q14 -7 27.5 -16.5t25.5 -18.5t22 -15t17 -6q14 0 17.5 13t3.5 27q0 33 -4 67t-8.5 70t-8 75t-3.5 81q0 64 1 112.5t4 88t8.5 75.5t14.5 75q2 11 9.5 19t19.5 8q11 0 16.5 -6.5t5.5 -17.5q0 -9 -5 -25t-10.5 -52.5t-10.5 -101.5t-5 -173
q0 -42 3.5 -80t8 -74t8.5 -71t4 -70q0 -16 -3.5 -31t-12 -27t-21.5 -19.5t-32 -7.5q-16 0 -30 7t-27.5 16.5t-27 20t-27.5 17.5q-112 53 -209.5 107t-192.5 116q-46 30 -98 71t-96.5 91.5t-73.5 107.5t-29 119q0 55 29.5 95.5t74.5 68t99 44t103 22.5q94 12 192 22t194 17.5
t187 13t171 9.5q143 8 287 18t275 27z" />
    <glyph glyph-name="U" unicode="U" horiz-adv-x="982" 
d="M31 579q0 32 12 73.5t33.5 84.5t51 84t64 73.5t72.5 52t77 19.5q54 0 82.5 -34.5t28.5 -90.5q0 -23 -10.5 -72t-26 -113.5t-33.5 -138.5t-33.5 -145.5t-26 -136t-10.5 -109.5q0 -20 2 -45.5t9.5 -48.5t23.5 -38.5t45 -15.5q30 0 62 19.5t64 51t63.5 73t60 85t53.5 86
t44 77.5q17 112 53.5 227.5t90.5 216.5q20 38 39 55.5t37 17.5q21 0 31 -15t10 -35q0 -17 -6 -42.5t-20 -60.5q-38 -91 -87 -184t-104 -194q-6 -44 -6 -80q0 -65 13 -125t42 -112.5t75 -95.5t113 -74q15 -8 15 -24q0 -9 -7 -16.5t-17 -7.5q-8 0 -14 3q-132 66 -196.5 179
t-68.5 264q-13 -21 -33 -53.5t-45.5 -70t-55.5 -75t-63 -67.5t-69 -49t-74 -19q-39 0 -64 17.5t-39.5 45t-19.5 62t-5 68.5q0 50 10.5 116.5t26 139t33.5 145.5t33.5 135.5t26 110t10.5 68.5q0 15 -3 29t-10.5 25.5t-19.5 18.5t-30 7q-30 0 -61.5 -17.5t-61 -46.5t-55.5 -66
t-45.5 -75.5t-31 -75.5t-11.5 -66q0 -24 7 -41t21 -31q8 -8 8 -19q0 -8 -6.5 -15t-16.5 -7t-19 9q-20 20 -29 48t-9 61zM939 823q-18 -28 -36.5 -66.5t-35 -81.5t-30.5 -88.5t-25 -86.5q30 59 61.5 121.5t57.5 126.5q4 10 8.5 23t8.5 25.5t6.5 23t2.5 15.5q0 3 -2 3
q-6 0 -16 -15z" />
    <glyph glyph-name="V" unicode="V" horiz-adv-x="1167" 
d="M978 851q16 12 37 17t38 5q38 0 62 -28t24 -77q0 -76 -18.5 -151.5t-51 -148t-76 -141t-94.5 -131.5q-32 -40 -78.5 -87.5t-98 -89t-103 -69t-94.5 -27.5q-38 0 -64.5 13.5t-44 36.5t-25.5 55t-8 70q0 57 10.5 114t23.5 114t23.5 114t10.5 114q0 31 -10 58.5t-29 48
t-45.5 32.5t-60.5 12q-29 0 -60 -6.5t-59 -19.5t-51 -31t-38 -42q-8 -13 -21 -13q-8 0 -15 6t-7 16t5 18q17 29 45 50.5t62 36t70 21.5t70 7q43 0 78.5 -14.5t60.5 -40.5t39 -61.5t14 -77.5q0 -59 -10.5 -119t-23.5 -118t-23.5 -113t-10.5 -106q0 -23 4 -46t14.5 -41
t28.5 -29.5t46 -11.5q37 0 84.5 26.5t95 65.5t90 83t69.5 79q44 56 85 119.5t73 132t51.5 142t19.5 150.5q0 23 -10.5 42t-32.5 19q-14 0 -25 -5t-19 -10q-7 -5 -14 -5q-8 0 -15 6.5t-7 16.5q0 11 9 19z" />
    <glyph glyph-name="W" unicode="W" horiz-adv-x="1490" 
d="M1300 966q31 0 54.5 -15t40.5 -40t28 -57t17 -66.5t8.5 -69t2.5 -63.5q0 -75 -8.5 -159t-24.5 -166.5t-40.5 -158.5t-57 -133.5t-72.5 -92t-87 -34.5q-43 0 -68.5 21.5t-39 54.5t-17.5 72t-4 73q0 56 3.5 111.5t13.5 119.5q2 15 4 24.5t2 14.5q0 4 -3 4q-5 0 -11.5 -14
t-16.5 -34q-26 -51 -57.5 -115.5t-61.5 -127.5q-13 -27 -32.5 -68t-45.5 -80t-58 -67t-69 -28q-23 0 -37.5 11t-23 28t-11.5 37.5t-3 40.5q0 90 17.5 178t39 176t39 178t17.5 185q0 30 -3 74t-15 85.5t-37 71t-69 29.5q-42 0 -87.5 -22t-91.5 -58t-90.5 -82t-84 -94.5
t-72 -95t-53.5 -83.5q-8 -14 -17.5 -36.5t-9.5 -42.5q0 -7 -1.5 -15t-4.5 -14.5t-8.5 -11t-14.5 -4.5q-16 0 -23 9t-7 24q0 27 11.5 51.5t23.5 48.5q20 40 54 90.5t76.5 103t91.5 102t101 88.5t104.5 63t100.5 24q55 0 90 -29.5t54 -75t26 -99t7 -101.5q0 -104 -18 -195.5
t-39.5 -177t-39.5 -168.5t-18 -170q0 -13 1.5 -26.5t5 -24t11 -17.5t19.5 -7q22 0 44.5 25.5t43 60t37.5 70.5t28 58q32 67 63.5 131.5t58.5 118.5q9 18 22.5 43t28 47t29 37.5t26.5 15.5q27 0 27 -31q0 -8 -6 -37t-13 -76t-13 -110.5t-6 -140.5q0 -17 1.5 -47t9 -58.5
t23.5 -49.5t45 -21q34 0 65.5 31t58 84t48 122.5t37 147.5t23.5 158.5t8 155.5q0 44 -4 87t-15 78t-32.5 59t-55.5 30q-14 2 -19.5 9.5t-5.5 18.5q0 14 9.5 21.5t22.5 7.5z" />
    <glyph glyph-name="X" unicode="X" horiz-adv-x="976" 
d="M965 124l9 9t12 4t13.5 -5t5.5 -13q0 -6 -3 -11.5t-7 -10.5q-21 -29 -54 -57t-70.5 -50.5t-77 -36.5t-74.5 -14q-65 0 -113 18t-84 50t-64 77.5t-54 99.5q-63 -105 -129 -216.5t-123 -236.5q-17 -36 -27.5 -63.5t-17 -47.5t-9.5 -34.5t-4 -24.5q-1 -8 -7 -14.5t-18 -6.5
q-20 0 -20 24q0 25 12.5 69.5t49.5 122.5q57 121 127 241t144 242q-25 57 -46 131.5t-36 153.5t-23.5 157t-8.5 143q0 12 4 27t22 15q20 0 27 -23q5 -15 8.5 -48t11.5 -63q5 -22 11.5 -36t6.5 -22t-5 -14.5t-16 -6.5q-7 0 -10 2q14 -95 32.5 -185.5t53.5 -182.5
q45 72 100 153t117.5 160.5t130.5 151.5t139 126q12 9 24 9q10 0 16.5 -7t6.5 -16q0 -14 -12 -24q-77 -60 -144.5 -130t-129 -147.5t-117.5 -160.5t-109 -169q21 -48 44.5 -92.5t56 -78.5t77.5 -54.5t109 -20.5q31 0 63 11.5t63 30.5t60.5 44t55.5 51z" />
    <glyph glyph-name="Y" unicode="Y" horiz-adv-x="805" 
d="M63 803q17 34 42.5 64t57.5 52.5t70 36t80 13.5q29 0 49.5 -12t34 -32.5t19.5 -46t6 -52.5q0 -58 -12 -116.5t-27 -118.5t-27 -121t-12 -124q0 -16 1.5 -38t8 -42t19.5 -34t37 -14q19 0 41.5 14.5t46 38t46.5 53.5t43.5 60t37 58t26.5 48q5 43 11 90.5t15 94t21 90.5
t29 82q4 10 11 21.5t15.5 21.5t19.5 16t23 6q23 0 35 -15t12 -38q0 -44 -12.5 -92.5t-33 -98.5t-46 -99t-51.5 -94q-2 -22 -3.5 -42t-1.5 -37q0 -54 6.5 -100t17.5 -88h48q9 0 15.5 -6.5t6.5 -15.5t-6.5 -16t-15.5 -7h-35q16 -53 37.5 -104t41.5 -103.5t34 -108t14 -117.5
q0 -63 -28.5 -108.5t-74 -75t-104 -43.5t-118.5 -14q-48 0 -104 8t-111.5 25.5t-107 44t-91 64.5t-63.5 87.5t-24 111.5q0 61 28 111.5t75.5 90.5t110.5 71t134 52t145 33.5t143 16.5q-11 43 -17.5 90t-6.5 101v1q-20 -30 -48 -68.5t-60 -73t-65 -58.5t-63 -24q-35 0 -57 16
t-35 41.5t-17.5 56t-4.5 59.5q0 61 12 124t27 125t27 120.5t12 110.5q0 19 -3.5 37t-11.5 31.5t-22.5 22t-36.5 8.5q-30 0 -61 -12.5t-59 -34.5t-49.5 -51t-32.5 -62q-2 -8 -8 -12.5t-14 -4.5q-9 0 -16 6.5t-7 16.5q0 8 3 15.5t8 16.5zM770 831q-24 -55 -39 -124.5
t-22 -133.5q13 27 28.5 64t28 76.5t21 76t8.5 61.5q0 9 -5 9q-7 0 -20 -29zM80 -168q0 -53 21 -95t56.5 -75t81.5 -57t96.5 -39t102 -22.5t96.5 -7.5t93.5 10t89 32.5t66.5 59.5t26 92q0 57 -14 111.5t-34.5 107t-42.5 105.5t-37 107q-116 -7 -224.5 -32.5t-192 -67.5
t-134 -100t-50.5 -129z" />
    <glyph glyph-name="Z" unicode="Z" horiz-adv-x="978" 
d="M917 -25q29 24 60 49t56 51q16 17 25 27t16 19q5 6 8.5 9t9.5 3t11.5 -4.5t5.5 -11.5q0 -9 -9 -23q-5 -9 -13.5 -19t-20.5 -23q-35 -38 -75 -68t-78 -65q-6 -60 -35.5 -131.5t-74.5 -144.5q-14 -22 -37 -54.5t-52.5 -62.5t-63.5 -51.5t-69 -21.5q-20 0 -32.5 13t-12.5 34
q0 32 17 71t45 81t63.5 84t72.5 81t72.5 71.5t62.5 54.5q0 38 -4.5 77.5t-15 77.5t-28.5 73t-45 64q-38 41 -89 62.5t-108 21.5q-27 0 -57 -9q-19 -14 -33 -27t-36 -25q-7 -4 -15 -6.5t-14 -2.5q-13 0 -21 8t-8 22q0 11 7 20.5t16 17.5q17 14 43 24.5t52 18.5q71 51 128 101
t106 103q27 29 56 65.5t52.5 76.5t39 82t15.5 83q0 48 -31 78t-82 30q-63 0 -122.5 -16.5t-115.5 -44.5t-108 -65.5t-101 -79.5q-32 -28 -70.5 -65.5t-71.5 -78.5t-55 -81t-22 -72q0 -15 7 -24.5t22 -9.5q12 0 18 -7t6 -17q0 -11 -8 -19t-20 -8q-36 0 -55 24t-19 59
q0 42 26 89.5t63 93t78 85.5t72 66q50 42 104.5 81t114 69t123.5 48t134 18t115 -40t45 -112q0 -48 -16.5 -96t-44 -94.5t-64 -90.5t-76.5 -84t-81 -75.5t-78 -65.5q79 -5 138.5 -38.5t100 -87t61 -122t20.5 -143.5zM670 -459q33 32 62.5 71.5t54.5 84t44.5 92.5t31.5 96
q-58 -50 -116 -113.5t-106 -132.5q-42 -59 -52 -91.5t-10 -40.5q0 -10 9 -10q14 0 36 10.5t46 33.5z" />
    <glyph glyph-name="bracketleft" unicode="[" horiz-adv-x="355" 
d="M86 915q0 10 10 20t21 10q5 0 9 -1t12 -1t19 2.5t25 7.5q38 12 75 19.5t79 7.5q12 0 19.5 -6.5t7.5 -17.5q0 -8 -6.5 -17t-17.5 -9t-23.5 -0.5t-22.5 -1.5q-15 -2 -44 -8t-55 -14q-22 -7 -31.5 -9.5t-15.5 -2.5q-8 0 -12 1q-1 -26 -3 -69t-4.5 -93.5t-5.5 -104t-5 -100.5
q-5 -111 -13.5 -221t-14.5 -223q-4 -75 -7.5 -121t-3.5 -69q0 -17 2 -36t7 -33q29 10 62.5 21t50.5 19q10 5 27.5 10.5t31.5 5.5q9 0 15.5 -6.5t6.5 -16.5q0 -9 -6.5 -18.5t-15.5 -9.5q-6 0 -18.5 -3.5t-22.5 -8.5t-37 -14.5t-57.5 -19.5t-56.5 -17.5t-35 -7.5q-10 0 -16 9
t-6 20q0 21 29 24q-8 13 -10 32.5t-2 37.5q0 16 4 72.5t8 137.5q5 108 13.5 215.5t14.5 222.5q3 50 6 109t6 114t5 98.5t2 63.5z" />
    <glyph glyph-name="backslash" unicode="\" horiz-adv-x="656" 
d="M671 -163q3 -6 3 -12q0 -8 -6.5 -14.5t-16.5 -6.5q-14 0 -20 13q-19 37 -51 101t-71 142.5t-82 166t-84 171.5t-77 158.5t-61 126.5q-7 13 -13.5 27.5t-13.5 29.5q-4 -7 -17 -7q-19 0 -22 18q-2 13 -3.5 25t-3.5 25q-3 23 -5.5 44t-8.5 39q-4 11 -10 25t-6 26q0 9 6.5 16
t16.5 7q13 0 22 -17q6 -13 14 -44q18 -51 41.5 -102.5t42.5 -91.5q25 -52 61.5 -126.5t77.5 -158t84 -171t82 -166.5t70.5 -143t50.5 -101z" />
    <glyph glyph-name="bracketright" unicode="]" horiz-adv-x="509" 
d="M462 1063q0 -19 -18 -22q0 -4 -6 -26q-42 -155 -74.5 -309.5t-48.5 -315.5q-6 -65 -11 -120.5t-8 -105t-4.5 -94t-1.5 -87.5q0 -50 1.5 -74.5t1.5 -40.5q0 -9 -6.5 -16t-15.5 -7q-21 0 -45.5 -2.5t-48.5 -6.5t-45.5 -8.5t-36.5 -8.5q-6 -2 -14 -4.5t-16 -2.5t-14 5.5
t-6 15.5q0 15 15 22q10 4 30 9.5t45.5 10.5t54 9t55.5 6q-3 52 -3 101q0 54 2.5 111t6 113t8.5 108.5t11 97.5q5 39 13 95t21.5 131t35 171t53.5 216q-32 -6 -69.5 -14t-69.5 -16q-13 -3 -28.5 -7t-26.5 -4q-22 0 -22 21q0 8 4 14t15 10q7 2 19 4t29 6q28 6 56.5 13t54.5 12
t48 8.5t37 3.5q9 0 15.5 -6.5t6.5 -15.5z" />
    <glyph glyph-name="asciicircum" unicode="^" horiz-adv-x="446" 
d="M85 168q38 46 70 88.5t61 96.5q6 10 20 12q14 0 19 -14q26 -56 55.5 -101.5t61.5 -84.5q5 -6 8 -10.5t3 -12.5q0 -10 -7.5 -16.5t-16.5 -6.5q-8 0 -14 8q-32 40 -58.5 80t-52.5 88q-27 -46 -57 -84.5t-66 -80.5q-6 -8 -17 -8q-9 0 -15 6.5t-6 14.5t3.5 14t8.5 11z" />
    <glyph glyph-name="underscore" unicode="_" horiz-adv-x="370" 
d="M382 -94q18 0 18 -17q0 -16 -18 -16h-381q-19 0 -19 16q0 17 19 17h381z" />
    <glyph glyph-name="grave" unicode="`" horiz-adv-x="289" 
d="M95 279q0 8 5 14.5t15 6.5q11 0 17 -9q10 -15 26 -26t30 -18q8 -4 13.5 -8.5t5.5 -13.5q0 -19 -20 -19q-10 0 -25.5 7t-30.5 18t-25.5 24t-10.5 24z" />
    <glyph glyph-name="a" unicode="a" horiz-adv-x="255" 
d="M198 119q0 2 -1 2.5t-3 2.5q-5 7 -13 7q-15 0 -37 -18t-36 -45q-4 -8 -7 -16t-3 -18q0 -12 12 -12q11 0 23.5 8.5t24 21t21 27.5t14.5 28q2 6 3.5 8t1.5 4zM378 95q-9 -14 -24.5 -33t-35 -35.5t-41 -28t-41.5 -11.5q-19 0 -32.5 10t-15.5 30q-22 -24 -43 -35t-36 -11
q-21 0 -36 13.5t-15 35.5q0 28 12.5 53.5t31 45t39.5 31t37 11.5q31 0 48 -20q8 -10 8 -22q0 -8 -3 -12q5 -4 5 -11q0 -3 -1 -6.5t-2 -6.5q-3 -12 -5 -22.5t-2 -21.5q0 -21 15 -21t31 10t30.5 24.5t27 30.5t21.5 28q5 6 8.5 9t9.5 3t11.5 -4.5t5.5 -11.5q0 -9 -8 -22z" />
    <glyph glyph-name="b" unicode="b" horiz-adv-x="276" 
d="M321 756q-8 0 -17 -9t-18.5 -24.5t-19.5 -35.5t-19 -42q-46 -107 -73 -223.5t-34 -237.5q19 33 41 76.5t44 92t42.5 100.5t36 102t24.5 95.5t9 81.5q0 10 -4 17t-12 7zM395 91q-16 -19 -37 -32.5t-48 -13.5q-11 0 -24 2.5t-23 8.5q-8 -35 -29 -61q-24 -27 -54 -27
q-29 0 -45.5 22.5t-24.5 54.5t-10.5 66.5t-2.5 58.5q0 33 3.5 69.5t8.5 74t12 73t15 65.5q9 34 20.5 71t25 72.5t28 67.5t28.5 58q8 15 17.5 29t20.5 25t24 18t28 7q26 0 38 -19t12 -47q0 -49 -13 -103.5t-34 -119.5q-18 -54 -40.5 -109t-47.5 -106.5t-51 -96.5t-50 -80
q0 -11 2.5 -29.5t7.5 -36.5t13 -31t19 -13q10 0 18.5 8.5t14 20.5t8.5 25.5t3 24.5q-3 5 -4.5 13t-1.5 15q0 11 6 21.5t20 10.5q15 0 20 -10.5t5 -24.5v-6t-1 -7q5 -6 14 -10.5t20 -4.5q26 0 42 13t27 28q6 8 15 8q7 0 12.5 -5t5.5 -13q0 -6 -4 -13t-9 -12z" />
    <glyph glyph-name="c" unicode="c" horiz-adv-x="240" 
d="M362 94q-17 -24 -38.5 -46t-46.5 -38t-53 -25.5t-58 -9.5q-37 0 -61 24t-24 62q0 20 7.5 41t21 38t31.5 28t40 11q20 0 32.5 -13t12.5 -35q0 -21 -15 -39q-9 -11 -21 -11q-8 0 -14 5.5t-6 14.5q0 11 7 15.5t7 14.5q0 8 -8 8q-9 0 -18.5 -6.5t-17 -17t-12 -24.5t-4.5 -28
q0 -19 12 -33.5t35 -14.5q26 0 49.5 9.5t44 24.5t38.5 34t32 38q9 12 20 12q6 0 10.5 -4.5t4.5 -11.5q0 -10 -8 -23z" />
    <glyph glyph-name="d" unicode="d" horiz-adv-x="426" 
d="M287 217v-14q28 49 58 106t59 116.5t55 119.5t45.5 116t31 106t11.5 89q0 17 -5.5 27t-15.5 10q-15 0 -32 -17t-34.5 -46t-35 -66t-33.5 -76.5t-29.5 -79t-22.5 -72.5q-25 -86 -38.5 -168t-13.5 -151zM367 -18q-42 0 -68.5 30t-37.5 78q-42 -58 -80 -85.5t-73 -27.5
q-22 0 -35 15t-13 41q0 25 13.5 53t38.5 54q9 10 21 19.5t24.5 17t25.5 12t25 4.5q14 0 21 -7t7 -18q0 -8 -5.5 -15t-14.5 -7q-6 0 -8 2.5t-6 2.5q-16 0 -34 -12.5t-33 -31t-24.5 -39t-9.5 -36.5q0 -5 3 -9.5t10 -4.5q15 0 32.5 11.5t36 30t36 42t31.5 46.5q-3 22 -4 41
t-1 33q0 72 14 155t40 171q6 21 18 58t28.5 80.5t37 88.5t44 81.5t50 59.5t55.5 23q32 0 46 -22.5t14 -54.5q0 -68 -27.5 -159.5t-71 -190t-96 -196.5t-103.5 -178q1 -19 6.5 -39.5t16 -37t24.5 -27t32 -10.5q46 0 82.5 28.5t65.5 68.5q9 12 19 12q6 0 11 -4.5t5 -11.5
q0 -11 -8 -22q-16 -23 -35.5 -43.5t-42.5 -36t-49 -24.5t-54 -9z" />
    <glyph glyph-name="e" unicode="e" horiz-adv-x="216" 
d="M177 157q-6 0 -14.5 -7.5t-16 -20t-13 -28t-5.5 -31.5q9 10 18 21t17 22t13 21t5 19q0 4 -4 4zM174 19q20 0 39.5 10t37.5 25t33.5 33t27.5 34q9 12 20 12q6 0 10.5 -4.5t4.5 -11.5q0 -8 -9 -22q-12 -18 -30.5 -38t-40.5 -37.5t-46.5 -29t-48.5 -11.5q-37 0 -61 22.5
t-24 64.5q0 23 7.5 46t20.5 41t30.5 29.5t36.5 11.5q18 0 28.5 -10.5t10.5 -28.5q0 -15 -7.5 -31.5t-19 -32.5t-26 -30.5t-27.5 -25.5q5 -9 14 -12.5t19 -3.5z" />
    <glyph glyph-name="f" unicode="f" horiz-adv-x="239" 
d="M179 -11q-17 0 -25 1t-21 4l-3 -35q44 -67 68 -141t24 -159q0 -24 -1.5 -48.5t-6.5 -44.5t-16.5 -32.5t-30.5 -12.5t-32.5 14t-23 36t-15.5 49t-9.5 54t-4.5 50.5t-1 37.5q0 44 1.5 85.5t5.5 92.5q-17 42 -44 66q-5 5 -8.5 10.5t-3.5 14.5t6.5 17.5t15.5 8.5
q11 0 20.5 -6.5t21.5 -8.5q2 56 9.5 123t18.5 137t24.5 140.5t28 134t29.5 116.5t29 89q18 48 35 66t32 18q17 0 27 -11.5t15.5 -29t7.5 -36.5t2 -34q0 -75 -14 -160.5t-40.5 -170.5t-65.5 -164t-88 -140q-3 -24 -4.5 -42.5t-3.5 -42.5q15 -3 24 -4t22 -1q45 0 83 23.5
t67 66.5q4 5 8.5 9t10.5 4t11 -4t5 -11q0 -11 -7 -22q-31 -48 -80 -77.5t-103 -29.5zM156 198q38 62 66.5 137.5t48 150t29.5 142t10 114.5q0 30 -1.5 49.5t-9.5 19.5q-6 0 -16 -26.5t-21.5 -64.5t-22 -80t-17.5 -73q-4 -20 -9.5 -47t-13.5 -70t-18.5 -104t-24.5 -148z
M123 -226q0 -33 3.5 -70.5t9.5 -69t14 -52t17 -20.5q4 0 7 9.5t4.5 23t2 29t0.5 27.5q0 63 -12 121.5t-44 115.5q-2 -27 -2 -56v-58z" />
    <glyph glyph-name="g" unicode="g" horiz-adv-x="320" 
d="M291 -37q29 41 61 79.5t64 77.5q5 5 9 8.5t10 3.5q16 0 16 -16q0 -12 -7 -21q-13 -19 -29.5 -37.5t-27.5 -32.5q-18 -23 -39 -48.5t-37 -51.5q30 -59 55 -123.5t25 -139.5q0 -49 -7.5 -99.5t-23.5 -92t-41 -67.5t-59 -26t-55.5 17.5t-33.5 44t-16 58t-4 59.5
q0 95 30.5 190t81.5 180q-16 29 -28.5 55.5t-20.5 52.5q-12 -14 -33 -26.5t-42 -12.5q-25 0 -42.5 16t-17.5 45q0 34 14.5 60t36.5 44t47.5 27t48.5 9q10 0 20 -4.5t10 -17.5q0 -9 -7 -15q16 -4 16 -20q0 -7 -4 -12q-5 -8 -9.5 -20.5t-4.5 -24.5q0 -24 13.5 -55t30.5 -64z
M139 35q7 0 17 4t19.5 11.5t18 18t13.5 24.5q2 15 7.5 31.5t16.5 29.5q-1 0 -1.5 0.5t-2.5 0.5q-17 0 -36 -6.5t-34.5 -19t-26 -30.5t-10.5 -42q0 -9 5 -15.5t14 -6.5zM350 -338q0 57 -18.5 113t-47.5 109q-39 -72 -65.5 -156t-26.5 -172q0 -15 2 -39t9 -46t20.5 -38
t36.5 -16q22 0 39 24t28.5 61t17 79.5t5.5 80.5z" />
    <glyph glyph-name="h" unicode="h" horiz-adv-x="313" 
d="M276 645q-27 -52 -48 -109.5t-37 -117.5t-27 -121.5t-18 -121.5q32 38 66.5 83.5t64.5 96.5q41 69 68 144t27 149q0 9 -0.5 20t-3 20t-7.5 15t-13 6q-18 0 -35 -16t-37 -48zM371 75q11 12 20.5 24.5t16.5 21.5q5 6 8.5 9t9.5 3t11.5 -4.5t5.5 -11.5q0 -9 -9 -23
q-5 -9 -14 -20t-19 -22q-28 -32 -53.5 -46.5t-47.5 -14.5q-29 0 -44 21t-23 47q-26 -50 -50 -80.5t-44 -30.5q-14 0 -22 11t-13 27.5t-6.5 36.5t-1.5 38q0 60 9 136t26 156t43 158t60 142q26 48 57 73t61 25q7 0 17 -3t20 -13.5t17 -31t7 -55.5q0 -50 -13 -102.5t-38 -109.5
q-20 -47 -47.5 -94t-61.5 -96q-27 -39 -57.5 -74.5t-56.5 -63.5q-1 -14 -1.5 -28t-0.5 -29q0 -20 2.5 -39t7.5 -19q3 0 13 13.5t21.5 33.5t22.5 44.5t16 46.5q1 2 1 5.5v6.5q0 12 8 21.5t22 9.5q6 0 10.5 -4t4.5 -10q0 -5 -1 -12.5t-1 -17.5q0 -11 2 -27.5t7 -32t12.5 -26.5
t18.5 -11q13 0 29 9.5t38 32.5z" />
    <glyph glyph-name="i" unicode="i" horiz-adv-x="173" 
d="M157 26q15 0 30 9.5t29.5 24t27 30.5t22.5 28q5 7 9.5 11t10.5 4t11.5 -4.5t5.5 -11.5q0 -9 -9 -23q-9 -15 -24.5 -33.5t-34 -35.5t-39.5 -28.5t-41 -11.5q-35 0 -48 22.5t-13 59.5q0 32 6 54t12 34q7 13 20 13q8 0 13.5 -5.5t5.5 -14.5t-8 -29.5t-8 -55.5q0 -10 4 -23.5
t18 -13.5zM297 723q8 0 14 -5.5t6 -13.5q0 -7 -5 -14q-3 -4 -7 -6.5t-4 -7.5q0 -3 1.5 -5.5t1.5 -4.5q0 -5 -3 -9q-3 -5 -5 -14l-4 -18q-5 -17 -26 -17q-9 0 -15.5 6.5t-6.5 17.5q0 21 8.5 43t25.5 39q9 9 19 9z" />
    <glyph glyph-name="j" unicode="j" horiz-adv-x="188" 
d="M104 128q0 11 8 19t17 8t15.5 -5t6.5 -16q0 -32 2 -63t7 -60q13 6 28.5 11.5t24.5 5.5q8 0 14.5 -5t6.5 -16q0 -16 -16 -20q-14 -4 -27.5 -8.5t-26.5 -10.5q5 -72 15.5 -147t10.5 -153q0 -29 -1.5 -66.5t-7 -76t-17 -75.5t-30.5 -66.5t-48 -47t-70 -17.5q-39 0 -64 25.5
t-39.5 64.5t-20 84t-5.5 84q0 61 17.5 123t48.5 117t73 100.5t91 73.5q-5 33 -9 66t-4 71zM-70 -423q0 -42 5.5 -81t16.5 -69t28 -48t40 -18q31 0 52 15.5t35 41.5t22 58.5t11.5 66.5t4.5 67t1 58q0 64 -8 132.5t-16 145.5q-38 -26 -73 -65.5t-61.5 -88.5t-42 -104
t-15.5 -111zM287 677q1 0 2.5 3l3.5 7t5.5 7t8.5 3q7 0 13 -5t6 -13t-5.5 -21t-13.5 -26t-18 -22.5t-20 -9.5q-11 0 -16.5 8.5t-5.5 18.5q0 6 1 15.5t4 18.5t8 15t14 6q6 0 8 -2.5t5 -2.5z" />
    <glyph glyph-name="k" unicode="k" horiz-adv-x="316" 
d="M202 574q-17 -83 -29 -180.5t-21 -192.5q26 43 49.5 90t41 95.5t27.5 98t10 97.5q0 41 -7.5 67.5t-19.5 26.5q-11 0 -25.5 -23.5t-25.5 -78.5zM270 12q20 0 40.5 11t39 27.5t35 35.5t27.5 35q5 6 8.5 9t9.5 3t11.5 -4.5t5.5 -11.5q0 -8 -9 -22q-13 -20 -33 -41.5
t-43.5 -39.5t-48.5 -30t-47 -12q-38 0 -61 25.5t-23 62.5q0 11 5.5 24t19.5 13q18 0 18 -23q2 -2 7 -2q8 0 14.5 9.5t6.5 22.5q0 11 -6 19.5t-19 8.5q-20 0 -37 -16t-29 -39t-18.5 -50t-6.5 -48q0 -14 -6.5 -20t-17.5 -6q-19 0 -19 22q0 10 1.5 31t3.5 48t4.5 56t4.5 54
q4 45 8.5 95t12.5 121q5 48 13.5 103.5t20.5 103.5q5 21 13 44t19 42t26 31.5t35 12.5q23 0 36 -14.5t19 -36t7.5 -46t1.5 -44.5q0 -51 -12.5 -107.5t-35 -115t-54.5 -116t-71 -110.5q-1 -6 -1 -9t-2 -11q14 26 36.5 45.5t53.5 19.5q28 0 44 -19t16 -46q0 -13 -4.5 -26
t-12.5 -23.5t-19.5 -17.5t-26.5 -7q5 -7 14 -14t25 -7z" />
    <glyph glyph-name="l" unicode="l" horiz-adv-x="277" 
d="M125 204q0 -7 0.5 -19.5t1.5 -19.5q31 52 67.5 138.5t70.5 189.5q12 37 25.5 81.5t25 89.5t18.5 87t7 75q0 11 -4 17.5t-12 6.5t-19 -8.5t-30 -39.5q-18 -29 -36 -71t-35 -91q-19 -54 -33.5 -110.5t-25 -112.5t-16 -110t-5.5 -103zM398 93q-13 -21 -32 -41t-40.5 -36
t-45.5 -26t-48 -10q-29 0 -56 14t-48 42.5t-33.5 70t-12.5 97.5q0 50 5.5 106t16 113.5t26 116t34.5 113.5q5 14 13.5 37t20 49t26 53t31.5 49t36 35.5t39 13.5q21 0 35.5 -16t14.5 -50q0 -35 -6.5 -77t-17.5 -87t-24.5 -90.5t-26.5 -87.5q-28 -86 -68.5 -181.5
t-98.5 -185.5q4 -17 12.5 -34t20.5 -30.5t27.5 -22t35.5 -8.5q22 0 42 9.5t37.5 24.5t32.5 32.5t27 34.5q5 6 8.5 9t9.5 3q7 0 12 -4.5t5 -11.5q0 -5 -3 -11.5t-7 -12.5z" />
    <glyph glyph-name="m" unicode="m" horiz-adv-x="375" 
d="M372 36q15 0 29 9.5t27 23t24 27.5t19 24q5 6 9 9.5t10 3.5t10.5 -4.5t4.5 -11.5q0 -8 -9 -22t-23.5 -31t-32 -32t-37 -25.5t-37.5 -10.5q-27 0 -45 15.5t-18 44.5q0 18 4 34q-12 -14 -22 -29.5t-21 -32.5q-13 -23 -30 -23q-15 0 -20.5 11.5t-5.5 26.5q0 9 0.5 21t2.5 21
q-14 -11 -27 -26.5t-25 -29t-23.5 -23t-22.5 -9.5q-14 0 -19.5 9t-5.5 23q0 20 2.5 46t8.5 44q7 19 22 19q8 0 14 -5t6 -15q0 -14 -3.5 -27t-6.5 -33q11 11 23 25t24 26t23.5 20.5t22.5 8.5q15 0 20.5 -9.5t5.5 -25.5q0 -7 -1 -15.5t-1 -19.5q6 10 16 24t21.5 27t24.5 22
t27 9q19 0 19 -20q0 -11 -6 -25t-6 -42q0 -14 8.5 -20.5t19.5 -6.5z" />
    <glyph glyph-name="n" unicode="n" horiz-adv-x="264" 
d="M386 95q-11 -16 -25.5 -34t-32.5 -33.5t-38.5 -25.5t-41.5 -10q-26 0 -38.5 15.5t-12.5 39.5q0 5 0.5 11.5t1.5 9.5q-11 -13 -28 -31q-16 -17 -28.5 -28t-25.5 -11q-16 0 -21.5 12t-5.5 28q0 21 2.5 43.5t7.5 38.5q4 18 21 18t17 -20q0 -11 -3.5 -26.5t-4.5 -38.5
q10 10 20 20.5t20 21.5q14 15 26 27t23 12t16.5 -7.5t5.5 -18.5q0 -14 -1 -29t-1 -26q0 -19 16 -19q14 0 28.5 8.5t28.5 21.5t26.5 28t21.5 29q5 6 8.5 9t9.5 3q7 0 12 -4.5t5 -11.5q0 -8 -9 -22z" />
    <glyph glyph-name="o" unicode="o" horiz-adv-x="225" 
d="M277 90q15 0 23.5 7.5t19.5 22.5q4 5 8.5 9t10.5 4t11 -4t5 -11q0 -12 -8 -23q-13 -19 -29 -33t-39 -14q-8 0 -16 1t-15 4q-7 -32 -29 -54.5t-59 -22.5q-38 0 -55.5 27t-17.5 64q0 18 4.5 36.5t13 35.5t21 31.5t29.5 24.5q8 5 15 5q8 0 13 -5.5t5 -13.5q0 -11 -9 -17
q-23 -14 -35 -40t-12 -55q0 -19 7.5 -34.5t26.5 -15.5q20 0 30 13t13 34q-13 7 -21 18t-8 27q0 15 10 25.5t24 10.5q12 0 22.5 -7t14.5 -20q2 -5 2 -11t2 -9q2 -5 8 -7.5t14 -2.5z" />
    <glyph glyph-name="p" unicode="p" horiz-adv-x="372" 
d="M108 193q3 18 21 18q19 0 19 -19q0 -11 -1.5 -21.5t-1.5 -24.5q0 -18 1.5 -35.5t3.5 -33.5q10 17 24.5 34t31.5 30.5t37 22t43 8.5q36 0 59.5 -23.5t23.5 -59.5q0 -20 -5.5 -39.5t-17 -35.5t-28.5 -25.5t-41 -9.5q-27 0 -43 18.5t-16 44.5q0 17 7 33.5t22 16.5
q8 0 13.5 -5.5t5.5 -13.5t-4.5 -13.5t-4.5 -16.5q0 -10 6 -18t17 -8q23 0 35 21.5t12 48.5q0 20 -11.5 32.5t-30.5 12.5q-32 0 -64.5 -31t-62.5 -89q7 -43 18 -82t21 -81t17.5 -89.5t7.5 -107.5q0 -19 -1.5 -55t-9 -71.5t-24 -62t-47.5 -26.5q-32 0 -52.5 26.5t-33 63
t-17.5 75.5t-5 63q0 43 6 89t17.5 92t27 89.5t34.5 82.5q-5 29 -8.5 60.5t-3.5 67.5q0 11 0.5 24t2.5 23zM72 -323q0 -37 5.5 -73t14.5 -64t21.5 -45.5t26.5 -17.5q7 0 14.5 9t13.5 30t10 54.5t4 81.5q0 45 -5 83t-12.5 73t-16.5 69t-18 72q-13 -33 -23.5 -69.5t-18 -72.5
t-12 -69.5t-4.5 -60.5z" />
    <glyph glyph-name="q" unicode="q" horiz-adv-x="311" 
d="M425 132q8 0 12.5 -5t4.5 -13q0 -6 -4 -12q-35 -59 -88 -98.5t-116 -68.5q-5 -28 -10 -58.5t-10 -62.5q33 -23 60.5 -53t48 -66t32 -77t11.5 -86q0 -29 -4 -68.5t-15.5 -75.5t-33 -61t-55.5 -25q-38 0 -60 29t-33 70.5t-14.5 86t-3.5 75.5q0 51 7 111.5t16 119.5
q-88 58 -207 80q-19 3 -19 19q0 9 6 15t14 7q69 6 127 18.5t108 30.5q3 17 6 33.5t6 32.5q-14 -16 -33 -27.5t-41 -11.5q-30 0 -45 17.5t-15 49.5q0 22 11 46t28.5 44t40 33t46.5 13q15 0 30.5 -7t17.5 -24q2 7 7 12t13 5t14 -5.5t6 -14.5q0 -7 -5 -17q-8 -18 -21 -42
q-1 -4 -3.5 -15.5t-5.5 -27.5t-6.5 -35.5t-6.5 -39.5q51 24 91.5 57.5t66.5 72.5q5 7 10.5 13t13.5 6zM142 33q15 0 30.5 11t29.5 28t25 37t17 38q-5 -5 -13 -5q-5 0 -8 2t-5 4t-5.5 4t-9.5 2q-14 0 -29 -9t-27 -23t-19.5 -30.5t-7.5 -32.5q0 -14 7 -20t15 -6zM177 -163
l6 40t8 42q-29 -10 -60 -17.5t-65 -13.5q60 -21 111 -51zM324 -468q0 69 -31.5 131t-86.5 106q-8 -53 -13 -107t-5 -99q0 -16 1 -38.5t3.5 -47t7 -48.5t12.5 -43.5t20 -31.5t28 -12q20 0 32.5 20t19.5 49.5t9.5 62t2.5 58.5z" />
    <glyph glyph-name="r" unicode="r" horiz-adv-x="230" 
d="M205 16q13 0 29.5 10.5t33 26.5t32 34.5t26.5 33.5q9 12 19 12q6 0 11.5 -4.5t5.5 -11.5q0 -6 -3 -12t-7 -12q-12 -17 -30 -37.5t-39 -38.5t-44.5 -30t-45.5 -12q-26 0 -39.5 16.5t-13.5 43.5q0 26 10 45.5t10 33.5q0 5 -5 7.5t-8 2.5q-5 0 -8 -5q-4 -6 -9 -12.5
t-10 -11.5q-4 -3 -9 -5.5t-10 -2.5q-6 0 -11 4t-5 10q0 4 2.5 8t4.5 7q10 13 10 21q0 5 -2 8t-2 14q0 13 10 20t21 7t18 -7q3 -3 5 -11l12 -4q5 -2 10 -3t8 -3q23 -12 23 -34q0 -13 -3.5 -23.5t-7.5 -20.5t-7.5 -20t-3.5 -22q0 -22 22 -22z" />
    <glyph glyph-name="s" unicode="s" horiz-adv-x="273" 
d="M227 -23q-44 0 -73 24.5t-29 64.5q0 10 5.5 16.5t15.5 6.5q12 0 17 -7.5t7 -16.5q3 -13 8 -13q11 0 19.5 14.5t8.5 35.5q0 18 -8.5 33t-19.5 15q-5 0 -11.5 -5.5t-13.5 -13t-14 -16.5t-13 -16q-9 -11 -20 -11q-6 0 -11 4.5t-5 12.5t5 15t10 13q6 7 15 17t18.5 19
t19.5 15.5t19 6.5q15 0 28 -8t22.5 -21t15 -29t5.5 -31q0 -23 -13 -45t-34 -32q6 -5 14.5 -7t19.5 -2q18 0 36 9t35 24t33.5 34t30.5 38q5 6 8.5 9t9.5 3t11.5 -4.5t5.5 -11.5q0 -11 -8 -22q-11 -15 -27.5 -35.5t-38 -39t-47.5 -31t-57 -12.5z" />
    <glyph glyph-name="t" unicode="t" horiz-adv-x="232" 
d="M355 95q-12 -17 -30 -37t-39 -37t-43.5 -28.5t-43.5 -11.5q-34 0 -53.5 24t-29.5 58.5t-12.5 71.5t-2.5 64q0 24 3 58.5t9 75t15 85t20 90.5q-63 -9 -131.5 -18t-131 -16.5t-113 -12.5t-77.5 -5q-30 0 -53.5 6.5t-40.5 20.5q-13 12 -13 28q0 8 5.5 14.5t14.5 6.5
t13.5 -5.5t11.5 -10.5q11 -8 27.5 -12.5t34.5 -4.5q26 0 78.5 5.5t118 13.5t135.5 17t132 17q12 50 24.5 93t22.5 66q9 22 22 40.5t31 18.5q16 0 22.5 -18.5t6.5 -44.5q0 -32 -3 -64t-9 -75q93 12 183 23.5t172 20.5t152.5 14t124.5 5q27 0 51 -1.5t44 -6.5q10 -2 18.5 -8
t8.5 -17q0 -8 -5.5 -15t-14.5 -7q-7 0 -14 2.5t-17 4.5q-16 2 -32.5 3.5t-38.5 1.5q-53 0 -124.5 -5t-155 -14t-175 -20.5t-185.5 -24.5q-9 -51 -19 -101t-23.5 -99.5t-32.5 -98.5t-46 -97q6 -51 20 -77t33 -26q18 0 36.5 9.5t35 24t31 31t24.5 30.5q4 5 8.5 9t11.5 4
q16 0 16 -16q0 -9 -8 -22zM194 514q-18 -76 -33 -154.5t-19 -159.5q27 66 48.5 148t35.5 170zM249 714q-4 0 -12 -26q-8 -25 -16.5 -61.5t-14.5 -68.5l27 4q3 17 6.5 39t6.5 42.5t4.5 37t1.5 22.5q0 11 -3 11z" />
    <glyph glyph-name="u" unicode="u" horiz-adv-x="326" 
d="M427 127q5 6 8.5 9t9.5 3t10.5 -4.5t4.5 -11.5q0 -9 -8 -22q-13 -21 -30.5 -40t-38 -34t-42.5 -24t-44 -9q-25 0 -42.5 12.5t-23.5 36.5q-23 -27 -52 -44.5t-56 -17.5q-26 0 -38.5 18.5t-12.5 41.5q0 22 7 44.5t18 37.5q10 14 22 14q8 0 13.5 -5.5t5.5 -12.5t-4 -13
t-7 -11q-7 -12 -11.5 -27t-4.5 -27q0 -8 4 -14.5t12 -6.5q14 0 29.5 9.5t30 23t26.5 28.5t18 26q5 8 11 14t14 6t14 -5t6 -13t-3.5 -15t-3.5 -24q0 -35 33 -35q16 0 33.5 8t33.5 21.5t31 29.5t27 33z" />
    <glyph glyph-name="v" unicode="v" horiz-adv-x="233" 
d="M252 122q3 -13 9 -20.5t19 -7.5q28 0 49 27q5 7 9 10t10 3t11 -4t5 -11q0 -10 -8 -23q-14 -20 -34.5 -33t-43.5 -13q-30 0 -45 18q-4 -12 -11 -24.5t-16.5 -23.5t-21 -18t-23.5 -7q-14 0 -26 9t-20.5 23t-13 31t-4.5 33q0 10 1 19t3 16q5 16 22 16q8 0 13.5 -5t5.5 -14
q0 -7 -1.5 -14.5t-1.5 -18.5q0 -8 2 -18t5 -18t7 -13.5t9 -5.5q10 0 19 14t15.5 32.5t10 37t3.5 27.5t5 16t16 7q9 0 14 -6.5t5 -14.5v-13t2 -13z" />
    <glyph glyph-name="w" unicode="w" horiz-adv-x="368" 
d="M333 137q0 11 6 17.5t16 6.5q14 0 19.5 -12t7.5 -27q5 -28 33 -28t49 27q5 7 9 10t10 3t11 -4t5 -11q0 -10 -8 -23q-14 -20 -34.5 -33t-43.5 -13q-14 0 -26 3t-22 11q-15 -29 -40.5 -44.5t-48.5 -15.5q-21 0 -37 11t-21 34q-18 -23 -42.5 -39t-47.5 -16t-36.5 15
t-13.5 42q0 20 6 41.5t16 33.5q9 11 21 11q8 0 13 -5.5t5 -13.5q0 -5 -3 -11t-6.5 -13.5t-6.5 -17.5t-3 -23q0 -7 4 -12.5t12 -5.5q20 0 46 29t48 68q7 13 19 13q19 0 19 -19q0 -10 -6.5 -21t-6.5 -34q0 -11 6.5 -18.5t19.5 -7.5q11 0 21 6t18 15.5t13 21t5 22.5
q0 7 -2.5 13.5t-2.5 13.5z" />
    <glyph glyph-name="x" unicode="x" horiz-adv-x="300" 
d="M340 381q7 13 20 13q8 0 13 -5.5t5 -13.5q0 -5 -2 -9.5t-4 -8.5l-175 -321q18 -6 39 -6q50 0 91 21.5t70 70.5q7 12 18 12q16 0 16 -15q0 -11 -7 -22q-32 -49 -81.5 -78.5t-116.5 -29.5q-27 0 -51 8q-27 -49 -53 -96.5t-49 -89.5t-41.5 -76t-30.5 -55q-5 -9 -6 -19
t-1 -21q0 -9 -6 -15.5t-16 -6.5q-13 0 -18.5 8.5t-5.5 21.5t5.5 25t10.5 21l177 319q-42 31 -42 86q0 18 3 27q7 20 23 20q9 0 14 -6t5 -14q0 -5 -0.5 -10.5t-0.5 -11.5q0 -31 21 -50z" />
    <glyph glyph-name="y" unicode="y" horiz-adv-x="385" 
d="M125 -384q0 -39 9 -73t24 -58.5t33 -39t36 -14.5q34 0 54.5 20t31.5 49t14.5 63t3.5 62q0 71 -6 142.5t-19 146.5q-181 -149 -181 -298zM513 101q-32 -49 -77.5 -85.5t-93.5 -73.5q29 -166 29 -317q0 -77 -15 -123t-37.5 -70.5t-48 -32.5t-45.5 -8q-30 0 -55.5 18.5
t-44 49.5t-29.5 72t-11 85q0 176 214 343q-6 32 -13 63.5t-15 63.5q-8 -17 -19 -36.5t-25.5 -36.5t-33 -28.5t-40.5 -11.5q-33 0 -47.5 24.5t-14.5 58.5q0 22 2.5 38.5t7.5 30.5q6 17 21 17q8 0 13.5 -5.5t5.5 -14.5q0 -10 -5.5 -25.5t-5.5 -41.5q0 -5 1 -12.5t3.5 -14
t7 -11t12.5 -4.5q18 0 34 15.5t29 37t22.5 44.5t13.5 39q2 9 7 16t14 7q16 0 21 -17q12 -45 21.5 -86t17.5 -83q42 31 82 63.5t72 77.5q5 6 8.5 9t9.5 3t10.5 -4.5t4.5 -11.5q0 -9 -8 -22z" />
    <glyph glyph-name="z" unicode="z" horiz-adv-x="319" 
d="M292 -35q29 41 60 78.5t63 76.5q5 5 9 8.5t10 3.5q16 0 16 -16q0 -12 -7 -21q-13 -19 -29.5 -37.5t-27.5 -32.5q-18 -23 -39 -48.5t-37 -51.5q11 -29 18.5 -72.5t7.5 -103.5q0 -65 -11.5 -120.5t-31 -95.5t-44 -62.5t-50.5 -22.5q-20 0 -32 12.5t-18 31.5t-8 41t-2 41
q0 31 7 72.5t22 89t39 97.5t57 98q-5 9 -11 20t-13.5 20.5t-16.5 16t-19 6.5q-15 0 -19.5 -4t-13.5 -4q-8 0 -14 4.5t-6 14.5t7.5 15.5t12.5 12.5q15 17 25 38.5t10 45.5q0 10 -4.5 17t-14.5 8q-9 0 -18.5 -6t-18.5 -14t-17.5 -18t-14.5 -17q-5 -5 -9.5 -9t-10.5 -4
q-17 0 -17 17q0 3 1 8t9 15q17 23 40.5 45t55.5 23q26 0 42 -17t16 -44q0 -23 -8 -46.5t-23 -43.5q46 -10 78 -66zM202 -512q20 0 37 25.5t30 64.5t20 84.5t7 86.5q0 43 -4.5 76t-10.5 58q-42 -67 -72 -147.5t-30 -162.5q0 -14 0.5 -29t3 -27.5t7 -20.5t12.5 -8z" />
    <glyph glyph-name="braceleft" unicode="{" horiz-adv-x="461" 
d="M99 720q0 43 14.5 78t40 60t60.5 38.5t76 13.5q26 0 49.5 -10t40.5 -27q6 -6 6 -15q0 -8 -6.5 -15.5t-16.5 -7.5q-9 0 -15 7q-10 11 -26 17t-32 6q-30 0 -56.5 -10.5t-46.5 -30t-31.5 -46t-11.5 -58.5q0 -36 22 -72.5t49 -75t49 -80.5t22 -88q0 -27 -12 -50t-31 -42
t-42.5 -32.5t-45.5 -21.5q39 -14 63 -46.5t24 -77.5q0 -35 -18 -63t-40 -54t-40 -53t-18 -58q0 -29 23.5 -45.5t54.5 -16.5q38 0 77.5 15t74.5 42q7 5 16 12t17 7q9 0 16 -5.5t7 -15.5q0 -5 -2.5 -10.5t-6.5 -8.5q-39 -35 -91 -58t-108 -23q-24 0 -46 7t-39 21t-27.5 33.5
t-10.5 45.5q0 37 18 67.5t40 57.5t40 52t18 51q0 25 -9.5 42.5t-26 29t-38.5 16.5t-47 5q-8 0 -14.5 6.5t-6.5 14.5q0 14 9.5 19.5t20.5 7.5q22 5 49 16.5t51 28t40 38t16 46.5q0 40 -22 78t-49 76t-49 78t-22 84z" />
    <glyph glyph-name="bar" unicode="|" horiz-adv-x="303" 
d="M285 971q0 -4 -1.5 -8t-2.5 -9q-5 -41 -9.5 -83.5t-4.5 -96.5q0 -9 0.5 -24t1.5 -30t1.5 -28t0.5 -17q0 -15 -14 -20q-8 -162 -17.5 -310.5t-18.5 -294.5t-17.5 -294t-12.5 -309q0 -9 -6.5 -15t-16.5 -6q-21 0 -21 21q0 86 4 172.5t10 178.5t12.5 191.5t12.5 210.5
q3 60 9 135.5t11.5 155.5t10 160t4.5 149q0 42 3 83t12 79q1 3 1 6t1 5q5 21 25 21q9 0 15.5 -6.5t6.5 -16.5z" />
    <glyph glyph-name="braceright" unicode="}" horiz-adv-x="473" 
d="M80 941q25 22 59.5 33.5t69.5 11.5q38 0 69 -12t53 -34t34 -53t12 -68q0 -53 -13.5 -93t-30 -76.5t-30 -74.5t-13.5 -89q0 -48 26.5 -85t74.5 -50q11 7 22.5 11t21.5 4q20 0 35 -5t15 -23q0 -10 -6.5 -17t-15.5 -11.5t-19.5 -6.5t-18.5 -2q-6 0 -12.5 0.5t-12.5 1.5
q-13 -9 -26 -21.5t-23.5 -27.5t-17 -32t-6.5 -36q0 -27 11.5 -49t25.5 -46.5t25.5 -55.5t11.5 -74q0 -32 -14.5 -61.5t-38.5 -52t-55 -35.5t-64 -13q-42 0 -85.5 12t-79.5 39q-8 6 -18 14.5t-10 20.5q0 8 6.5 15t16.5 7q9 0 16 -7q26 -26 66 -41t88 -15q22 0 44.5 9t41 25
t30 37.5t11.5 45.5q0 37 -11.5 65t-25.5 53t-25.5 50t-11.5 57q0 21 6 40t15 35t19.5 29t18.5 21q5 5 8 7q-104 50 -104 168q0 55 13.5 96t30 77.5t30 74t13.5 85.5q0 54 -32 88t-91 34q-46 0 -85 -24q-6 -4 -13.5 -9.5t-16.5 -5.5t-16 5t-7 16t9 18z" />
    <glyph glyph-name="asciitilde" unicode="~" horiz-adv-x="509" 
d="M144 53q0 6 2.5 11t5.5 10q20 35 48 52t58 17q24 0 36.5 -11.5t21.5 -25t19 -24.5t31 -11q5 0 12 2t17 8t22 18t26 32q9 12 19 12q8 0 14 -6t6 -15q0 -6 -2.5 -11t-6.5 -10q-54 -71 -107 -71q-30 0 -44 11t-22.5 24.5t-16.5 25t-25 11.5q-15 0 -27 -6.5t-22 -15.5
t-16.5 -19t-10.5 -17q-7 -12 -18 -12q-8 0 -14 5.5t-6 15.5z" />
    <glyph glyph-name="uni00A0" unicode="&#xa0;" 
 />
    <glyph glyph-name="exclamdown" unicode="&#xa1;" horiz-adv-x="250" 
d="M149 177q0 9 2 22t7 26t13.5 22t21.5 9q15 0 22 -14q8 2 12 2q9 0 16.5 -6t7.5 -17q0 -10 -5 -24.5t-13.5 -28t-20.5 -23t-25 -9.5q-17 0 -27.5 11.5t-10.5 29.5zM163 51q0 8 6.5 14t14.5 6t15 -6t7 -14q0 -32 -7.5 -72t-17.5 -97q-15 -86 -31 -178.5t-16 -188.5
q0 -30 3 -62.5t7 -61t7 -48.5t3 -24q0 -7 -6 -13.5t-17 -6.5q-14 0 -19 17q-6 22 -10 48t-6.5 53t-4 52.5t-1.5 45.5q0 41 4 87t10.5 92.5t14.5 93t16 88.5t18 88.5t10 86.5z" />
    <glyph glyph-name="cent" unicode="&#xa2;" horiz-adv-x="353" 
d="M384 330q8 0 14 -6t6 -15q0 -11 -9 -18q-21 -17 -48.5 -31t-56 -24t-55 -16t-45.5 -7q-6 -35 -11.5 -71t-8.5 -72q-2 -19 -21 -19t-19 21q0 7 1.5 22.5t4.5 35t6.5 41.5t7.5 43q-41 3 -63.5 27.5t-22.5 66.5q0 30 11 58.5t30 52.5t44.5 41.5t55.5 26.5q9 40 17 71t14 51
t22 20q8 0 13 -5.5t5 -14.5q0 -6 -1.5 -12t-3.5 -12q-4 -14 -9.5 -35t-13.5 -56q4 1 10 1q21 0 37 -15t16 -41q0 -9 -3.5 -20.5t-9.5 -22t-14.5 -18t-18.5 -7.5q-9 0 -15.5 5t-6.5 14q0 11 12 21q14 12 14 26q0 16 -14 16q-10 0 -17 -3q-10 -42 -20.5 -91t-19.5 -102
q15 2 34.5 6.5t40.5 12t42 17.5t39 22l14 10t16 5zM107 308q0 -24 11 -36.5t39 -15.5q9 49 18 94t18 86q-37 -18 -61.5 -53t-24.5 -75z" />
    <glyph glyph-name="sterling" unicode="&#xa3;" horiz-adv-x="724" 
d="M550 736q35 0 66.5 -8.5t55.5 -26t38.5 -44t14.5 -62.5q0 -59 -33 -111q-14 -21 -29 -21q-8 0 -14.5 5.5t-6.5 15.5q0 7 3.5 13t7.5 12q8 12 17 34.5t9 51.5q0 25 -11 43t-29 30t-41 17.5t-48 5.5q-39 0 -75.5 -14t-64.5 -38.5t-45 -59.5t-17 -77q0 -36 9 -61t22.5 -47.5
t29.5 -45.5t31 -54h39q23 0 54.5 -1t56.5 -5q18 -3 18 -22q0 -9 -6 -16t-16 -7q-6 0 -12 1t-13 2q-24 2 -51 2.5t-55 0.5q8 -27 8 -64q0 -21 -8 -44.5t-22 -40.5q18 -8 35 -19l34 -22t35 -20t40 -13q23 -5 23 -23q0 -10 -7 -16.5t-16 -6.5q-25 0 -47 9t-43 22t-41.5 28
t-43.5 26q-42 -38 -97.5 -60.5t-115.5 -22.5q-18 0 -39 3.5t-40 12.5t-31.5 24t-12.5 39q0 28 16.5 47t40.5 30t52 16t51 5q45 0 84.5 -11t80.5 -28q13 15 19.5 32.5t6.5 33.5q0 15 -2 31.5t-7 31.5q-35 -2 -67.5 -4.5t-57.5 -2.5q-18 0 -35 4t-17 21q0 9 5.5 16t16.5 7
q14 0 25.5 -1.5t25.5 -1.5t38.5 1t49.5 4q-18 25 -34 48t-28 47t-19.5 51.5t-7.5 63.5q0 52 20 95t53.5 74t78.5 48t95 17zM189 27q45 0 88 16t79 43q-35 14 -68 21t-62 7q-11 0 -30 -2t-38 -7.5t-33 -15.5t-14 -26q0 -15 21.5 -25.5t56.5 -10.5z" />
    <glyph glyph-name="currency" unicode="&#xa4;" horiz-adv-x="921" 
d="M845 230q8 0 14 -6t6 -16q0 -6 -3 -12.5t-8 -13.5q-29 -43 -71 -82.5t-91.5 -69.5t-104 -48t-108.5 -18q-65 0 -121 17t-98 51t-68.5 83.5t-33.5 114.5q-31 -4 -63.5 -6.5t-55.5 -2.5q-22 0 -35.5 4.5t-13.5 20.5q0 9 6 15.5t16 6.5q9 0 16.5 -1t18.5 -1q43 0 109 9
q0 45 12 93q-14 -2 -30 -3.5t-27 -1.5q-15 0 -31 1t-29 4t-21.5 9t-8.5 17q0 8 5.5 15.5t16.5 7.5q7 0 12.5 -1.5t11.5 -3t14 -3t20 -1.5q39 0 81 6q19 57 53.5 112t81 97.5t105 68.5t126.5 26q37 0 74 -10t66.5 -29.5t48 -49.5t18.5 -70q0 -61 -33 -106q-5 -6 -11 -12.5
t-16 -6.5q-8 0 -15 5t-7 15q0 8 4 13t8 11q25 36 25 81q0 27 -14 48t-37 36t-52 22.5t-59 7.5q-55 0 -104 -21t-89.5 -56t-72 -81t-50.5 -95q62 6 140 12t152 6q9 0 15.5 -6.5t6.5 -16.5q0 -9 -6.5 -15.5t-15.5 -6.5q-39 0 -80.5 -2t-81.5 -5t-77.5 -6.5t-68.5 -6.5
q-13 -46 -15 -92q46 8 92 14.5t98 11.5q18 2 38 2.5t31 0.5q7 0 15.5 -0.5t16.5 -3t13.5 -8t5.5 -14.5q0 -8 -5.5 -15.5t-16.5 -7.5q-5 0 -11 2t-26 2q-61 0 -121.5 -9t-127.5 -20q6 -55 28.5 -97.5t58.5 -71t84 -43.5t105 -15q48 0 97.5 16.5t94.5 44.5t83.5 65t64.5 77
q5 8 10 13t16 5z" />
    <glyph glyph-name="yen" unicode="&#xa5;" horiz-adv-x="723" 
d="M680 631q8 0 14 -6t6 -15q0 -8 -6 -20q-6 -13 -16.5 -35.5t-19.5 -40.5q-7 -13 -23 -13q-38 -60 -89.5 -142.5t-104.5 -170.5q-1 -8 -8 -15q-3 -3 -7 -11q9 1 22 2t26.5 2.5t24.5 2.5t16 1q8 0 14.5 -4.5t6.5 -15.5q0 -8 -5 -13.5t-14 -7.5q-24 -3 -58 -6.5t-60 -5.5
q-8 -14 -15 -26.5t-15 -25.5q13 1 29.5 1.5t32 1.5t28.5 1.5t19 0.5q8 0 15.5 -5t7.5 -16q0 -8 -6 -14t-14 -7q-11 -1 -27.5 -1.5t-35 -1.5t-38 -2t-35.5 -2q-22 -38 -39 -72l-31 -62q-7 -13 -21 -13q-8 0 -14 5t-6 14q0 6 2 12.5t4 12.5q9 22 24 47t29 52q-8 0 -15.5 -0.5
t-15.5 -1.5q-7 -9 -17 -9q-9 0 -27.5 2t-28.5 4q-18 3 -18 20q0 8 6 13.5t14 6.5q6 1 41 3.5t85 5.5q8 13 15 26t15 26q-41 -3 -74 -3q-30 0 -46 3q-8 1 -13 6.5t-5 13.5t5.5 14.5t14.5 6.5q6 0 13 -0.5t24 -0.5q21 0 48.5 1t58.5 3q5 8 9.5 16.5t9.5 16.5q-30 40 -59 77.5
t-59 75.5t-62.5 76.5t-69.5 79.5q-2 1 -6 2t-6 4q-17 21 -37.5 38t-40.5 37q-4 4 -4.5 9t-0.5 10q0 12 10 20.5t22 8.5q10 0 18 -8q48 -50 90.5 -98t81.5 -95.5t75.5 -95.5t73.5 -97q43 72 85 139t76 120t55.5 86.5t24.5 38.5q8 13 21 13z" />
    <glyph glyph-name="brokenbar" unicode="&#xa6;" horiz-adv-x="309" 
d="M263 934q11 0 19.5 -6.5t8.5 -18.5q0 -14 -2 -32.5t-5 -40.5t-6.5 -45.5t-6.5 -45.5q-13 -115 -28.5 -231t-15.5 -236q0 -9 -7 -15.5t-16 -6.5t-15 6.5t-6 15.5q0 118 15.5 234.5t29.5 237.5q0 5 -3.5 8t-3.5 14t1.5 22t3.5 26.5t4 37t4 52.5q1 11 9.5 17.5t19.5 6.5z
M194 78h2q8 0 15 -7t7 -24q0 -70 -9 -140t-14 -144q-2 -33 -3 -80.5t-1 -95.5q0 -43 0.5 -81t1.5 -63q0 -9 -6.5 -16t-15.5 -7q-11 0 -17 6.5t-6 17.5q0 25 -0.5 62.5t-0.5 81.5q0 49 1 97t3 82q5 72 14 143t9 146q0 8 6 14.5t14 7.5z" />
    <glyph glyph-name="section" unicode="&#xa7;" horiz-adv-x="512" 
d="M348 826q21 0 43 -6t40 -18.5t30 -31t12 -43.5q0 -34 -17 -60q-4 -6 -10 -12.5t-16 -6.5q-22 0 -22 22q0 8 6 16q14 16 14 41q0 14 -8 24t-20 17t-26.5 10t-27.5 3q-27 0 -54.5 -9t-49 -25.5t-35 -40.5t-13.5 -54q0 -39 24.5 -75t57.5 -73h18q9 0 14.5 -6.5t5.5 -17.5
q0 -8 -5 -13q20 -22 40.5 -46t36.5 -50.5t26 -56t10 -62.5q0 -24 -9 -47.5t-25 -44.5t-39 -38.5t-50 -29.5q-8 -3 -13 -3q-8 0 -14 6.5t-6 15.5q0 13 14 21q16 9 33.5 21t31.5 27t23 33t9 39q0 33 -11.5 60.5t-29 52.5t-38.5 47.5t-40 44.5q-38 -5 -67.5 -22t-50.5 -42.5
t-32 -58.5t-11 -71q0 -35 21 -65.5t53 -60.5t68.5 -60.5t68.5 -64t53 -72.5t21 -85q0 -35 -11 -70.5t-32 -64.5t-51.5 -47.5t-69.5 -18.5q-14 0 -38 4t-41 18q-13 10 -21 21.5t-8 21.5t6.5 16.5t16.5 6.5q11 0 15 -7t10 -13q11 -14 27.5 -18.5t32.5 -4.5q26 0 48 15.5
t37.5 38.5t24.5 50.5t9 51.5q0 40 -21 73.5t-53 63.5t-68.5 59t-68.5 61t-53 68.5t-21 82.5q0 40 11 77.5t32.5 68t53.5 53.5t74 34q-30 35 -52 73t-22 83q0 38 16 70t43.5 55t63.5 36t76 13z" />
    <glyph glyph-name="dieresis" unicode="&#xa8;" horiz-adv-x="316" 
d="M190 231q0 12 8.5 26.5t23.5 14.5q10 0 16 -7q6 -6 6 -15q5 -7 5 -14q0 -11 -11 -20.5t-22 -9.5q-10 0 -18 7t-8 18zM95 232q0 15 7 29.5t22 14.5q9 0 14 -9q4 2 8 2q14 0 14 -15t-10 -30.5t-30 -15.5q-25 0 -25 24z" />
    <glyph glyph-name="copyright" unicode="&#xa9;" horiz-adv-x="953" 
d="M232 290q0 52 22 101t59.5 87t87.5 60.5t106 22.5q21 0 40.5 -6t35 -17t25 -28t9.5 -39q0 -40 -25.5 -71.5t-60.5 -51.5q-5 -3 -12.5 -6.5t-14.5 -3.5q-9 0 -15 5.5t-6 15.5q0 11 6.5 16t14.5 10q10 5 21.5 13.5t22 19t17.5 24t7 29.5q0 12 -6.5 20.5t-16 14t-21 8
t-21.5 2.5q-43 0 -84.5 -18t-73.5 -49t-52 -72t-20 -87q0 -30 10.5 -53.5t29.5 -40t44.5 -25.5t55.5 -9q37 0 72 11.5t66.5 32t58.5 48.5t48 61q5 8 10.5 15.5t17.5 7.5q9 0 14.5 -6.5t5.5 -15.5q0 -7 -3 -14t-8 -15q-21 -35 -51 -66t-67 -54t-78.5 -36.5t-85.5 -13.5
q-39 0 -73 12t-58.5 34.5t-39 54.5t-14.5 72zM449 758q84 -2 160.5 -28t134.5 -74.5t92.5 -118t34.5 -158.5q0 -93 -34 -173t-92.5 -139t-136.5 -92.5t-167 -33.5q-79 0 -146.5 25t-117 70.5t-77.5 110t-28 143.5q0 82 30.5 151t82.5 123t122 92t150 57h-8q-10 1 -16.5 6.5
t-6.5 16.5q0 22 23 22zM441 -14q81 0 151 30.5t122 84t82 125t30 153.5q0 72 -26 130t-73 100.5t-111.5 68.5t-140.5 34q4 -2 8 -7t4 -13q0 -16 -12.5 -19.5t-25.5 -7.5q-64 -18 -123.5 -50.5t-106 -80t-74.5 -108.5t-28 -136q0 -68 25.5 -124t69.5 -96t103 -62t126 -22z
" />
    <glyph glyph-name="ordfeminine" unicode="&#xaa;" horiz-adv-x="367" 
d="M331 533q8 0 13.5 -6t5.5 -15q0 -7 -5 -14q-20 -27 -48 -41.5t-57 -14.5q-42 0 -64 36q-15 -19 -35.5 -30t-41.5 -11q-23 0 -41.5 19t-18.5 44q0 24 8 47.5t22.5 42t33.5 30t41 11.5q26 0 43 -20q4 3 9 3q8 0 14 -5t6 -15q0 -4 -2 -10q-10 -25 -10 -49q0 -16 7.5 -34
t28.5 -18q41 0 74 41q7 9 17 9zM101 478q19 0 35.5 16.5t23.5 39.5q2 4 3 5q0 18 4 31q-3 3 -4 5q-7 15 -19 15q-15 0 -27 -9t-20 -22.5t-12.5 -29.5t-4.5 -29q0 -11 6.5 -16.5t14.5 -5.5zM314 411q8 0 14 -6.5t6 -14.5t-6 -14t-14 -6q-66 0 -124 -15t-108 -39
q-5 -2 -11 -5.5t-13 -3.5q-8 0 -14 6t-6 14q0 10 6.5 14.5t15.5 9.5q60 30 125.5 45t128.5 15z" />
    <glyph glyph-name="guillemotleft" unicode="&#xab;" horiz-adv-x="297" 
d="M148 154q6 6 15 6q8 0 13.5 -5t5.5 -14q0 -8 -6 -14q-12 -12 -31 -32.5t-33 -37.5l35 -35l8 -8t4 -11q0 -8 -5 -14t-14 -6q-6 0 -13 5q-13 13 -25.5 25t-28.5 26q-7 6 -7 15q0 7 3 12q6 9 17 21.5t23 25.5t22.5 24t16.5 17zM221 144q7 7 15 7t13 -5t5 -14q0 -8 -6 -14
q-20 -19 -31 -29t-20 -18q12 -12 21.5 -22t20.5 -21q7 -7 7 -15t-5.5 -13.5t-13.5 -5.5q-9 0 -15 6l-54 54q-7 7 -7 15q0 5 2.5 9.5t5.5 7.5q11 12 28 26.5t34 31.5z" />
    <glyph glyph-name="logicalnot" unicode="&#xac;" horiz-adv-x="555" 
d="M499 361q8 0 14 -7t6 -17q0 -9 -6.5 -15t-14.5 -6t-12 -1q-3 -26 -8 -54t-9.5 -56t-8 -54t-3.5 -47q0 -20 2.5 -29.5t2.5 -14.5q0 -10 -6 -17t-17 -7q-18 0 -22.5 18.5t-4.5 38.5q0 27 2.5 52t6.5 51t9 53.5t10 59.5q-11 -2 -21.5 -3.5t-17.5 -3.5q-29 -6 -63 -12
t-68 -11.5t-64 -8.5t-50 -3q-29 0 -52.5 2t-38.5 7q-9 3 -15 8t-6 15q0 9 5.5 15.5t16.5 6.5q6 0 14.5 -2.5t15.5 -3.5q12 -2 26.5 -3t33.5 -1q18 0 45.5 3t59.5 8t65.5 11.5t64.5 12.5q5 1 21 4t35 6q5 17 24 17q6 0 11 -4t7 -9q2 0 3.5 0.5t6.5 0.5z" />
    <glyph glyph-name="uni00AD" unicode="&#xad;" 
 />
    <glyph glyph-name="registered" unicode="&#xae;" horiz-adv-x="833" 
d="M690 558q8 0 15 -6.5t7 -15.5t-3.5 -19.5t-7.5 -21.5q-16 -42 -42.5 -78.5t-62 -63.5t-78 -42.5t-91.5 -15.5q-64 0 -116 21.5t-89 59.5t-57 89.5t-20 111.5q0 63 22 118t62 96t96 64.5t124 23.5q48 0 90.5 -13.5t74.5 -40t50.5 -64.5t18.5 -86q0 -35 -12.5 -67t-34 -57
t-51.5 -40t-65 -15q-26 0 -49 13.5t-37 37.5q-6 10 -6 24q0 23 21 33q37 16 51.5 32.5t14.5 36.5q0 13 -11 20t-24.5 10.5t-25.5 4.5t-15 1h-11t-12 -1v-17q0 -44 -1 -91.5t-7 -90.5q-3 -20 -24 -20q-10 0 -14.5 6.5t-4.5 16.5q0 8 1 15.5t2 15.5q3 38 3.5 78.5t1.5 77.5
q-6 -2 -15 -5.5t-16.5 -9t-13 -12t-5.5 -13.5q0 -6 5.5 -9t5.5 -14q0 -9 -6 -15.5t-17 -6.5q-17 0 -25 14t-8 32q0 20 13 37.5t36 30.5q45 25 109 25q57 0 90.5 -21t33.5 -59q0 -41 -26.5 -65t-59.5 -39q4 -13 18.5 -21.5t28.5 -8.5q27 0 48.5 11.5t36.5 31t23.5 44
t8.5 51.5q0 37 -15 66t-41 49.5t-60.5 31t-72.5 10.5q-57 0 -104.5 -19t-82 -53t-53.5 -81t-19 -104q0 -52 17.5 -95.5t49 -75t75 -49t95.5 -17.5q41 0 78 13.5t67.5 37.5t53.5 57.5t36 73.5q4 11 8 23.5t20 12.5z" />
    <glyph glyph-name="macron" unicode="&#xaf;" horiz-adv-x="371" 
d="M99 227q0 14 11 19.5t23 7.5q10 2 25 4t31.5 3.5t32.5 2t28 0.5q11 0 18 -6t7 -16q0 -11 -6.5 -17t-16.5 -6q-25 0 -54.5 -2t-48.5 -6q-8 -2 -17 -4t-14 -2q-19 0 -19 22z" />
    <glyph glyph-name="degree" unicode="&#xb0;" horiz-adv-x="383" 
d="M149 566q0 29 18 53.5t53 39.5q18 8 35 8q8 0 14 -6t6 -15q54 -22 54 -75q0 -17 -7 -33t-19.5 -28t-29 -19t-35.5 -7q-41 0 -65 22.5t-24 59.5zM189 566q0 -23 14.5 -32.5t33.5 -9.5q23 0 37.5 15t14.5 32q0 3 -0.5 8.5t-5 12t-13.5 12.5t-26 11q-5 1 -10 6
q-17 -8 -31 -21.5t-14 -33.5z" />
    <glyph glyph-name="plusminus" unicode="&#xb1;" horiz-adv-x="586" 
d="M519 365q9 0 15.5 -6.5t6.5 -15.5t-6.5 -16t-15.5 -7q-50 0 -98.5 -6.5t-101.5 -15.5q-1 -2 -1 -3t-1 -3q-5 -21 -10 -40.5t-9 -34.5q15 -5 15 -21q0 -5 -3 -13.5t-7 -19t-9 -21.5t-8 -20q-6 -14 -23 -14q-14 0 -18 12t-4 26q0 22 7 56q2 12 8 35.5t14 52.5
q-39 -6 -82 -13t-83 -7q-8 0 -14 6.5t-6 15.5t6 15.5t16 6.5q12 0 30.5 2t40 5t44.5 7t45 7q4 1 7.5 1t7.5 1q10 37 17 65.5t11 48.5q3 19 25 19q8 0 14 -7t6 -15q0 -6 -2.5 -18t-6.5 -26.5t-8 -30t-7 -28.5q43 9 88 14t100 6zM462 37q9 0 15.5 -6.5t6.5 -15.5t-6.5 -16
t-15.5 -7q-35 0 -77.5 -2.5t-86.5 -7t-86.5 -10t-76.5 -10.5q-8 -2 -18.5 -4t-18.5 -2t-15 6t-7 14t3.5 15t14.5 9q36 7 83 13.5t97 12t99 8.5t89 3z" />
    <glyph glyph-name="uni00B2" unicode="&#xb2;" horiz-adv-x="601" 
d="M178 732q0 28 15.5 58.5t44 56t68.5 42t89 16.5q53 0 85 -31.5t32 -83.5q0 -49 -28.5 -94.5t-66.5 -80.5q37 -8 72 -21t61 -28q13 -7 13 -21q0 -8 -5.5 -15.5t-15.5 -7.5q-5 0 -10.5 2.5t-10.5 5.5q-29 16 -64.5 30.5t-73.5 20.5q-17 -14 -35.5 -27t-35.5 -23
q-53 -31 -96 -31q-20 0 -31.5 5t-17.5 12.5t-7.5 15.5t-1.5 13q0 24 18.5 39.5t44.5 25t53.5 13t45.5 3.5q21 0 47 -3q19 14 37 32.5t32.5 40.5t23.5 45.5t9 47.5q0 32 -20.5 53t-57.5 21t-68.5 -12t-55 -31t-36.5 -43.5t-13 -48.5q0 -8 3.5 -13t10.5 -5q11 0 17.5 7
t10.5 15q4 9 7.5 17t14.5 8q18 0 18 -20q0 -10 -4 -18q-9 -19 -26 -32t-42 -13q-23 0 -36.5 14.5t-13.5 42.5zM201 547q0 -9 16 -9q22 0 51 12.5t60 36.5q-46 0 -72.5 -7.5t-37.5 -12.5q-17 -9 -17 -20z" />
    <glyph glyph-name="uni00B3" unicode="&#xb3;" horiz-adv-x="625" 
d="M536 579q0 -31 -15 -60.5t-39 -52.5t-53 -37t-57 -14q-34 0 -57 17t-23 52q0 23 8.5 40.5t21.5 30.5q3 4 7.5 7.5t11.5 3.5t13 -4.5t6 -13.5q0 -8 -11 -19q-9 -9 -14.5 -21t-5.5 -23q0 -19 13 -26t32 -7t41 11t40.5 29t30.5 41t12 46q0 32 -18.5 51.5t-51.5 19.5
q-5 0 -10 -1l-10 -2q-7 -5 -18.5 -10t-22.5 -5q-7 0 -12 5.5t-5 13.5q0 14 16 21.5t32 10.5q28 9 52 23.5t42 31.5t28 35t10 35q0 27 -19 43t-46 16q-36 0 -68 -13.5t-56 -34t-38 -44t-14 -43.5q0 -8 2 -16.5t5 -11.5q4 -5 6.5 -8.5t2.5 -8.5q0 -8 -5.5 -13t-13.5 -5
q-11 0 -18 6t-11.5 15t-6 19t-1.5 19q0 29 17.5 60.5t47.5 57.5t69 42.5t82 16.5q45 0 75.5 -26t30.5 -71q0 -22 -8.5 -41.5t-22.5 -35.5t-31.5 -29.5t-35.5 -23.5q32 -11 47.5 -37.5t15.5 -61.5z" />
    <glyph glyph-name="acute" unicode="&#xb4;" horiz-adv-x="399" 
d="M219 282q5 5 10.5 11t14.5 6q8 0 13.5 -6t5.5 -15q0 -8 -7 -17t-18.5 -18.5t-24 -18t-25.5 -14t-24 -5.5q-8 0 -14 4.5t-6 13.5q0 15 15 20q17 5 32 15.5t28 23.5z" />
    <glyph glyph-name="mu" unicode="&#xb5;" horiz-adv-x="433" 
d="M469 122q8 0 14 -5.5t6 -13.5q0 -9 -9 -18q-28 -28 -55.5 -46.5t-64.5 -18.5q-45 0 -67 44q-6 -11 -16.5 -26t-23.5 -28.5t-28 -22.5t-30 -9q-13 0 -19 7q-8 -66 -13.5 -132.5t-14.5 -141.5q-2 -18 -6.5 -46.5t-12 -61t-18.5 -65.5t-26 -59.5t-34.5 -43t-44.5 -16.5
q-47 0 -74 37q-3 5 -5.5 9.5t-2.5 12.5t5 14.5t15 6.5q12 0 18 -11q15 -28 44 -28q15 0 28.5 16t24 41t19.5 55.5t15 59t10 51.5t5 34q10 81 17 163.5t18 175.5q1 12 3.5 26t4.5 27.5t3.5 24.5t1.5 16q0 2 -0.5 4t-0.5 6q0 7 5 14t15 7q13 0 17.5 -9.5t4.5 -21.5
q0 -26 -6.5 -51t-6.5 -52q0 -29 11 -29q8 0 19 8t28 28t26.5 42.5t15.5 47.5q2 11 9 14t12 3q8 0 14 -6.5t6 -15.5q0 -4 -0.5 -10t-0.5 -14q0 -20 6.5 -37t29.5 -17q25 0 45 14t39 33q14 14 25 14z" />
    <glyph glyph-name="mu" unicode="&#x3bc;" horiz-adv-x="433" 
d="M469 122q8 0 14 -5.5t6 -13.5q0 -9 -9 -18q-28 -28 -55.5 -46.5t-64.5 -18.5q-45 0 -67 44q-6 -11 -16.5 -26t-23.5 -28.5t-28 -22.5t-30 -9q-13 0 -19 7q-8 -66 -13.5 -132.5t-14.5 -141.5q-2 -18 -6.5 -46.5t-12 -61t-18.5 -65.5t-26 -59.5t-34.5 -43t-44.5 -16.5
q-47 0 -74 37q-3 5 -5.5 9.5t-2.5 12.5t5 14.5t15 6.5q12 0 18 -11q15 -28 44 -28q15 0 28.5 16t24 41t19.5 55.5t15 59t10 51.5t5 34q10 81 17 163.5t18 175.5q1 12 3.5 26t4.5 27.5t3.5 24.5t1.5 16q0 2 -0.5 4t-0.5 6q0 7 5 14t15 7q13 0 17.5 -9.5t4.5 -21.5
q0 -26 -6.5 -51t-6.5 -52q0 -29 11 -29q8 0 19 8t28 28t26.5 42.5t15.5 47.5q2 11 9 14t12 3q8 0 14 -6.5t6 -15.5q0 -4 -0.5 -10t-0.5 -14q0 -20 6.5 -37t29.5 -17q25 0 45 14t39 33q14 14 25 14z" />
    <glyph glyph-name="paragraph" unicode="&#xb6;" horiz-adv-x="625" 
d="M579 662q3 -5 6 -11.5t3 -13.5q0 -8 -6.5 -15t-16.5 -7q-15 0 -21 14q-6 16 -21 31.5t-37 28t-49.5 20t-58.5 7.5h-13t-13 -1q-10 -49 -19.5 -104.5t-17.5 -117.5q12 0 26.5 1.5t25.5 1.5q8 0 14.5 -6t6.5 -17q0 -18 -20 -21q-14 -2 -28.5 -3t-30.5 -1
q-8 -67 -12.5 -131.5t-5.5 -118.5q0 -26 -0.5 -40t-0.5 -21.5v-10v-3.5q5 -5 5 -11q0 -25 2 -50.5t2 -51.5q0 -11 -7 -17.5t-18 -6.5t-17 8t-8 28q-2 17 -3 34.5t-1 34.5v9.5t0.5 17t0.5 30.5v50q0 54 5 119t13 131q-34 1 -68.5 7.5t-62.5 21.5t-46 40.5t-18 64.5
q0 53 32.5 87.5t79.5 54.5t101 28t96 8q59 0 113 -23.5t88 -74.5zM450 658q20 -2 20 -21q0 -23 -4 -46.5t-8 -47.5q-6 -38 -12.5 -85t-12 -99t-9 -106.5t-3.5 -107.5v-47q4 -3 7 -7.5t3 -10.5q0 -17 -2 -33.5t-2 -37.5q0 -12 0.5 -24t0.5 -29q0 -11 -7 -16.5t-16 -5.5
q-12 0 -18 8t-6 20q0 46 -2.5 91.5t-2.5 91.5q0 57 4 118t9.5 117t12.5 105t13 82q5 24 7 42t4 29q1 8 7 14t17 6z" />
    <glyph glyph-name="periodcentered" unicode="&#xb7;" horiz-adv-x="327" 
d="M207 39q-10 0 -17.5 8t-7.5 22q0 7 3.5 20.5t9.5 27t14 23.5t17 10q18 0 31.5 -5t13.5 -30q0 -12 -7 -25.5t-16.5 -25t-20.5 -18.5t-20 -7z" />
    <glyph glyph-name="cedilla" unicode="&#xb8;" horiz-adv-x="301" 
d="M142 -14q2 6 7 9.5t11 3.5q7 0 12 -5t5 -13t-3 -15.5t-8 -15.5h3q20 0 37 -9t17 -33q0 -25 -20 -40t-46 -15q-17 0 -32 8.5t-15 23.5q0 6 4.5 12t12.5 6q10 0 15.5 -7.5t17.5 -7.5q11 0 19 4.5t8 13.5q0 6 -10 6.5t-20 2.5q-14 3 -22 9.5t-8 19.5q0 11 6 20.5t9 21.5z
" />
    <glyph glyph-name="uni00B9" unicode="&#xb9;" horiz-adv-x="497" 
d="M407 849q-1 -5 -7 -28t-14.5 -56.5t-18.5 -73.5t-17 -80q6 -6 6 -14q0 -7 -1.5 -14t-3.5 -16q-2 -15 -4.5 -31.5t-3.5 -34.5q-2 -22 -27 -22q-20 0 -20 22q0 26 5.5 61.5t13.5 73.5t17.5 75.5t18.5 68.5q-14 -16 -25 -29q-10 -11 -19.5 -21.5t-14.5 -15.5q-9 -9 -19 -9
q-17 0 -17 18q0 10 12 22q33 33 64.5 69.5t63.5 77.5q6 7 15 7q17 0 17 -19q0 -7 -4 -13z" />
    <glyph glyph-name="ordmasculine" unicode="&#xba;" horiz-adv-x="309" 
d="M123 672q11 14 28.5 22.5t34.5 8.5q32 0 50.5 -25t18.5 -57q0 -21 -8 -40.5t-22 -34t-33.5 -23t-42.5 -8.5q-20 0 -37.5 6.5t-30.5 18t-20.5 27t-7.5 33.5q0 29 17.5 51t41.5 22q8 0 11 -1zM186 662q-8 0 -16.5 -4.5t-13.5 -9.5q0 -2 0.5 -3t0.5 -3q0 -8 -6 -14t-15 -6
q-10 0 -17 9q-1 1 -7 1q-5 0 -11.5 -9t-6.5 -23q0 -18 16 -31t39 -13q12 0 23.5 5t20.5 13.5t15 20.5t6 26t-3.5 22.5t-8 12.5t-9 5t-7.5 1zM55 442q25 11 71.5 21.5t128.5 10.5q8 0 14 -6.5t6 -14.5t-6 -14t-14 -6q-54 0 -94 -5t-78 -19q-6 -2 -11 -4t-10 -2
q-8 0 -13.5 5.5t-5.5 14.5q0 14 12 19z" />
    <glyph glyph-name="guillemotright" unicode="&#xbb;" horiz-adv-x="390" 
d="M269 151q0 7 5.5 13t13.5 6t14 -6q44 -45 66 -72q6 -8 6 -14q0 -7 -4 -12q-11 -16 -28.5 -34t-44.5 -39q-7 -5 -14 -5q-8 0 -13 4.5t-5 13.5q0 10 11 19q19 16 31.5 28t23.5 23q-11 12 -25.5 26.5t-28.5 31.5q-3 4 -5.5 8t-2.5 9zM190 133q0 8 6 14t14 6q5 0 8.5 -2
t7.5 -5q14 -12 27 -23.5t28 -27.5q5 -5 5 -14q0 -7 -7 -16q-12 -15 -23 -30.5t-25 -32.5q-6 -8 -15 -8q-8 0 -13.5 5.5t-5.5 13.5q0 5 2.5 9.5t5.5 8.5q8 11 17.5 23t19.5 25q-11 11 -22.5 19.5t-23.5 20.5q-6 6 -6 14z" />
    <glyph glyph-name="onequarter" unicode="&#xbc;" horiz-adv-x="816" 
d="M768 223q5 1 9.5 1.5t8.5 0.5q7 0 13.5 -6t6.5 -15q0 -8 -4.5 -13.5t-12.5 -7.5l-115 -18l-37 -230q-2 -8 -7 -13t-15 -5q-8 0 -14 5t-6 14q0 5 0.5 9t1.5 9l33 205q-42 -7 -79 -13q-32 -5 -63 -10.5t-46 -7.5q-10 -2 -18 -3t-15 -1q-18 0 -18 20q0 7 3.5 12t7.5 10
l289 328q5 5 10 9t11 4q8 0 14.5 -5.5t6.5 -15.5t-11 -21l-41 -256zM621 693q5 5 10 9t12 4q8 0 14 -5.5t6 -14.5q0 -5 -3 -10t-6 -9l-543 -688q-8 -10 -19 -10q-8 0 -14.5 5.5t-6.5 14.5q0 5 2.5 9.5t5.5 8.5zM193 682q6 8 11.5 10.5t10.5 2.5q8 0 14 -5t6 -15
q0 -7 -1.5 -15t-3.5 -15q-2 -8 -4.5 -21.5t-7 -34.5t-11 -51.5t-15.5 -73.5q-8 -37 -18 -86.5t-21 -101.5q-2 -8 -8 -12.5t-14 -4.5t-14.5 5.5t-6.5 14.5q0 3 0.5 6t1.5 7q3 14 10.5 48.5t16.5 77t18.5 87.5t16.5 81q-22 -29 -36.5 -49t-19.5 -27q-8 -9 -18 -9
q-8 0 -14.5 5.5t-6.5 15.5q0 7 5 14zM637 202l32 203l-202 -229z" />
    <glyph glyph-name="onehalf" unicode="&#xbd;" horiz-adv-x="909" 
d="M637 722q7 12 19 12q8 0 14.5 -5.5t6.5 -14.5q0 -8 -7 -18l-513 -764q-6 -9 -17 -9q-7 0 -12 4q-9 6 -9 17q0 7 4 12zM457 186q0 26 16 56.5t45.5 57t70 44t89.5 17.5q53 0 84.5 -31.5t31.5 -83.5q0 -24 -8.5 -48t-22.5 -46t-31 -42.5t-35 -38.5q34 -8 70 -20t63 -29
q13 -7 13 -21q0 -8 -5.5 -15.5t-15.5 -7.5q-5 0 -10.5 2.5t-10.5 5.5q-29 16 -66 29.5t-75 19.5q-17 -14 -34 -26t-34 -22q-53 -31 -96 -31q-20 0 -31.5 5.5t-17.5 13t-7.5 16t-1.5 13.5q0 24 18.5 39.5t44.5 24t53.5 12t45.5 3.5q21 0 47 -3q15 14 33 34t33 42.5t25.5 45.5
t10.5 44q0 32 -20.5 51.5t-52.5 19.5q-37 0 -69.5 -14t-56.5 -34.5t-38 -43t-14 -40.5q0 -8 3 -13t10 -5q11 0 16.5 9t9.5 17q4 9 8.5 15t15.5 6q8 0 14 -6t6 -15q0 -7 -5 -17q-9 -20 -26 -34t-42 -14q-23 0 -37 15t-14 43zM481 4q0 -8 15 -8q20 0 47 12.5t56 32.5
q-43 0 -67.5 -7t-33.5 -12q-11 -6 -14 -10.5t-3 -7.5zM261 640q-1 -5 -7.5 -29t-15.5 -59.5t-19.5 -77.5t-18.5 -84q7 -5 7 -15q0 -7 -1.5 -14.5t-3.5 -16.5q-3 -16 -5.5 -33.5t-3.5 -36.5q-1 -11 -9.5 -17t-20.5 -6q-10 0 -16 6.5t-6 17.5q0 28 5.5 65t14 77.5t18.5 80
t19 71.5l-62 -71q-7 -9 -18 -9q-8 0 -14 5.5t-6 14.5q0 5 2 8.5t6 8.5l140 161q6 7 16 7q8 0 14.5 -5.5t6.5 -15.5q0 -7 -5 -14z" />
    <glyph glyph-name="threequarters" unicode="&#xbe;" horiz-adv-x="996" 
d="M370 348q0 -35 -17 -67.5t-43 -58.5t-58.5 -41.5t-63.5 -15.5q-38 0 -63.5 19t-25.5 58q0 25 9.5 45t23.5 34q4 4 9 8t12 4q8 0 14.5 -5t6.5 -15t-11 -21q-22 -22 -22 -49q0 -20 14.5 -28t34.5 -8q22 0 46 12t44.5 32t34 45.5t13.5 51.5q0 35 -21 56t-57 21q-5 0 -11 -1
t-11 -2q-8 -5 -20.5 -10t-24.5 -5q-8 0 -13.5 6t-5.5 15q0 16 17.5 23.5t34.5 10.5q31 10 58 26.5t46.5 35t31 39t11.5 38.5q0 30 -21 48t-51 18q-40 0 -75.5 -15t-62 -37.5t-42 -49t-15.5 -48.5q0 -9 2 -18t6 -14t6.5 -9t2.5 -9q0 -8 -6 -14t-15 -6q-12 0 -19.5 6.5
t-12 16.5t-6.5 21.5t-2 21.5q0 32 19.5 67t52.5 63.5t76 47t91 18.5q49 0 83 -29.5t34 -78.5q0 -24 -9.5 -45.5t-25 -40t-35 -33t-38.5 -25.5q35 -12 52.5 -41.5t17.5 -67.5zM756 736q8 0 15 -5.5t7 -14.5q0 -5 -2.5 -9.5t-4.5 -7.5q-60 -87 -121.5 -184.5t-121 -199
t-114.5 -204t-102 -198.5q-6 -12 -19 -12q-8 0 -14.5 6t-6.5 15q0 3 2 9q47 97 102.5 200t115.5 205.5t122 201t122 185.5q3 5 8 9t12 4zM932 167q9 0 15 -6.5t6 -15.5q-1 -8 -7 -14t-15 -6h-7q-20 0 -51.5 -3t-67.5 -8q-14 -60 -25.5 -115.5t-20.5 -103.5q-2 -8 -7 -13
t-13 -5t-15 5.5t-7 14.5q0 6 2 14q8 43 18.5 93t22.5 103l-66 -10t-63 -10l-54 -9t-39 -7q-5 -1 -11 -2.5t-13 -1.5q-8 0 -14.5 5.5t-6.5 14.5q0 11 9 18q30 25 71 65t80.5 82t71.5 79t45 56q6 9 18 9q5 0 11 -3q9 -6 9 -18q0 -7 -3 -11q-11 -17 -35 -45.5t-55.5 -62
t-66 -69.5t-66.5 -66q38 7 88 15t100 15q20 85 41 166.5t39 142.5q2 8 7.5 14t13.5 6t14.5 -5t6.5 -13q0 -4 -1 -9t-3 -10q-20 -72 -37 -138.5t-36 -147.5q37 5 67 7.5t50 2.5z" />
    <glyph glyph-name="questiondown" unicode="&#xbf;" horiz-adv-x="344" 
d="M70 40q0 10 6.5 16.5t13.5 11.5q17 11 38 17t41 6q48 0 81 -25.5t33 -74.5q0 -23 -15 -53.5t-38 -66.5t-49 -76t-49 -80.5t-38 -81t-15 -77.5q0 -35 15 -55t52 -20q21 0 47 7.5t53 21.5t52.5 33.5t45.5 43.5q8 9 13.5 15.5t16.5 6.5q9 0 15 -5.5t6 -15.5q0 -7 -3 -12
t-7 -10q-20 -25 -48 -48t-60.5 -41t-66 -29t-64.5 -11q-54 0 -82.5 31t-28.5 88q0 41 15 84.5t38 86t49 82.5t49 74.5t38 62t15 45.5q0 16 -7 26.5t-17.5 17.5t-22.5 10t-23 3q-13 0 -25.5 -4t-23.5 -11l-13.5 -9t-15.5 -5t-14.5 5.5t-6.5 15.5zM166 221q0 7 1.5 16.5
t5.5 17.5t10.5 14t16.5 6q20 0 29 -20q6 3 17 3q12 0 20 -7.5t8 -21.5q0 -11 -6 -21.5t-15.5 -19t-21 -14t-21.5 -5.5q-21 0 -31.5 16t-12.5 36z" />
    <glyph glyph-name="Agrave" unicode="&#xc0;" horiz-adv-x="1067" 
d="M379 991q0 10 6 19.5t20 9.5q12 0 21 -14q14 -20 35 -35.5t38 -23.5q11 -5 18.5 -11t7.5 -18q0 -9 -7 -16t-18 -7q-13 0 -33.5 9.5t-40 23.5t-33.5 31t-14 32zM1033 368q10 0 16.5 -6.5t6.5 -16.5q0 -9 -6.5 -16t-16.5 -7q-54 0 -112 -5.5t-118 -14.5q32 -54 59 -106.5
t53 -104.5q5 -9 16.5 -28.5t19.5 -35.5l9 -18t9.5 -20.5t7.5 -20.5t3 -17q0 -14 -11.5 -21.5t-24.5 -7.5q-16 0 -26 18q-10 19 -15 42.5t-15 45.5q-5 10 -12 24.5t-15 30.5l-15.5 31t-12.5 26l-40 76t-44 78q-116 -21 -235 -45t-244 -56q-23 -51 -48 -105.5t-47 -104.5
q-2 -4 -3.5 -9.5t-1.5 -9.5q0 -5 1.5 -9t1.5 -9q0 -8 -4.5 -21t-11.5 -27l-12 -24t-14 -23q-10 -16 -27 -16q-11 0 -18.5 9t-7.5 20q0 7 4 17q7 17 21 49.5t32 74t38 87.5t40 89q-14 -3 -34 -9t-39.5 -11t-35 -9t-21.5 -4q-22 0 -22 22q0 19 19 24q38 10 77.5 20t79.5 21
q57 126 119.5 246t129.5 248q-17 23 -35.5 45.5t-36.5 48.5q-6 8 -6 16q0 9 9.5 15.5t19.5 6.5q9 0 18 -11q15 -18 29.5 -38t29.5 -40q11 21 21 39t19 38q7 16 23 16q8 0 15 -5.5t7 -15.5q0 -5 -2.5 -10.5t-4.5 -10.5q-12 -24 -23 -45t-26 -48q63 -91 121.5 -186.5
t115.5 -198.5q66 11 129.5 17t123.5 6zM293 247q64 15 129 29.5t122.5 26t104.5 20.5t76 14q-50 86 -100 170t-110 176q-60 -113 -114 -218.5t-108 -217.5z" />
    <glyph glyph-name="Aacute" unicode="&#xc1;" horiz-adv-x="1067" 
d="M582 1037q7 9 12 16.5t15 7.5t16.5 -6t6.5 -15q0 -10 -7 -20q-8 -12 -25 -33.5t-36.5 -42t-38.5 -35.5t-30 -15q-9 0 -15.5 5t-6.5 14q0 8 4 13t9 9q9 7 23 20.5t28 28.5t26 29.5t19 23.5zM1033 368q10 0 16.5 -6.5t6.5 -16.5q0 -9 -6.5 -16t-16.5 -7q-54 0 -112 -5.5
t-118 -14.5q32 -54 59 -106.5t53 -104.5q5 -9 16.5 -28.5t19.5 -35.5l9 -18t9.5 -20.5t7.5 -20.5t3 -17q0 -14 -11.5 -21.5t-24.5 -7.5q-16 0 -26 18q-10 19 -15 42.5t-15 45.5q-5 10 -12 24.5t-15 30.5l-15.5 31t-12.5 26l-40 76t-44 78q-116 -21 -235 -45t-244 -56
q-23 -51 -48 -105.5t-47 -104.5q-2 -4 -3.5 -9.5t-1.5 -9.5q0 -5 1.5 -9t1.5 -9q0 -8 -4.5 -21t-11.5 -27l-12 -24t-14 -23q-10 -16 -27 -16q-11 0 -18.5 9t-7.5 20q0 7 4 17q7 17 21 49.5t32 74t38 87.5t40 89q-14 -3 -34 -9t-39.5 -11t-35 -9t-21.5 -4q-22 0 -22 22
q0 19 19 24q38 10 77.5 20t79.5 21q57 126 119.5 246t129.5 248q-17 23 -35.5 45.5t-36.5 48.5q-6 8 -6 16q0 9 9.5 15.5t19.5 6.5q9 0 18 -11q15 -18 29.5 -38t29.5 -40q11 21 21 39t19 38q7 16 23 16q8 0 15 -5.5t7 -15.5q0 -5 -2.5 -10.5t-4.5 -10.5q-12 -24 -23 -45
t-26 -48q63 -91 121.5 -186.5t115.5 -198.5q66 11 129.5 17t123.5 6zM293 247q64 15 129 29.5t122.5 26t104.5 20.5t76 14q-50 86 -100 170t-110 176q-60 -113 -114 -218.5t-108 -217.5z" />
    <glyph glyph-name="Acircumflex" unicode="&#xc2;" horiz-adv-x="1067" 
d="M514 1009q10 8 18 8q6 0 10 -2t8 -5q16 -17 33.5 -36.5t28.5 -33.5q5 -8 5 -14q0 -9 -6 -16t-17 -7q-9 0 -17 7q-4 5 -16.5 19.5t-20.5 24.5q-10 10 -14 10q-5 0 -16 -11l-10 -10t-15 -14.5t-15.5 -14.5t-11.5 -11q-9 -7 -18 -7q-19 0 -19 19q0 10 8 19q9 8 20 18
t22.5 20.5t22.5 20t20 16.5zM1033 368q10 0 16.5 -6.5t6.5 -16.5q0 -9 -6.5 -16t-16.5 -7q-54 0 -112 -5.5t-118 -14.5q32 -54 59 -106.5t53 -104.5q5 -9 16.5 -28.5t19.5 -35.5l9 -18t9.5 -20.5t7.5 -20.5t3 -17q0 -14 -11.5 -21.5t-24.5 -7.5q-16 0 -26 18
q-10 19 -15 42.5t-15 45.5q-5 10 -12 24.5t-15 30.5l-15.5 31t-12.5 26l-40 76t-44 78q-116 -21 -235 -45t-244 -56q-23 -51 -48 -105.5t-47 -104.5q-2 -4 -3.5 -9.5t-1.5 -9.5q0 -5 1.5 -9t1.5 -9q0 -8 -4.5 -21t-11.5 -27l-12 -24t-14 -23q-10 -16 -27 -16q-11 0 -18.5 9
t-7.5 20q0 7 4 17q7 17 21 49.5t32 74t38 87.5t40 89q-14 -3 -34 -9t-39.5 -11t-35 -9t-21.5 -4q-22 0 -22 22q0 19 19 24q38 10 77.5 20t79.5 21q57 126 119.5 246t129.5 248q-17 23 -35.5 45.5t-36.5 48.5q-6 8 -6 16q0 9 9.5 15.5t19.5 6.5q9 0 18 -11q15 -18 29.5 -38
t29.5 -40q11 21 21 39t19 38q7 16 23 16q8 0 15 -5.5t7 -15.5q0 -5 -2.5 -10.5t-4.5 -10.5q-12 -24 -23 -45t-26 -48q63 -91 121.5 -186.5t115.5 -198.5q66 11 129.5 17t123.5 6zM293 247q64 15 129 29.5t122.5 26t104.5 20.5t76 14q-50 86 -100 170t-110 176
q-60 -113 -114 -218.5t-108 -217.5z" />
    <glyph glyph-name="Atilde" unicode="&#xc3;" horiz-adv-x="1067" 
d="M580 1000q4 9 10.5 16.5t14.5 7.5q22 0 22 -21q0 -11 -5 -23q-4 -9 -10.5 -20.5t-16.5 -21t-23 -16t-29 -6.5q-15 0 -26.5 6t-20.5 13t-17.5 13t-18.5 6q-6 0 -11.5 -5t-10.5 -11.5t-9.5 -14l-7.5 -12.5q-11 -16 -27 -16q-8 0 -14.5 5t-6.5 16q0 14 11 30q6 9 14.5 18.5
t18.5 17.5t22 13.5t24 5.5q16 0 25.5 -6t18 -13t17 -13t21.5 -6q14 0 21.5 11.5t13.5 25.5zM1033 368q10 0 16.5 -6.5t6.5 -16.5q0 -9 -6.5 -16t-16.5 -7q-54 0 -112 -5.5t-118 -14.5q32 -54 59 -106.5t53 -104.5q5 -9 16.5 -28.5t19.5 -35.5l9 -18t9.5 -20.5t7.5 -20.5
t3 -17q0 -14 -11.5 -21.5t-24.5 -7.5q-16 0 -26 18q-10 19 -15 42.5t-15 45.5q-5 10 -12 24.5t-15 30.5l-15.5 31t-12.5 26l-40 76t-44 78q-116 -21 -235 -45t-244 -56q-23 -51 -48 -105.5t-47 -104.5q-2 -4 -3.5 -9.5t-1.5 -9.5q0 -5 1.5 -9t1.5 -9q0 -8 -4.5 -21
t-11.5 -27l-12 -24t-14 -23q-10 -16 -27 -16q-11 0 -18.5 9t-7.5 20q0 7 4 17q7 17 21 49.5t32 74t38 87.5t40 89q-14 -3 -34 -9t-39.5 -11t-35 -9t-21.5 -4q-22 0 -22 22q0 19 19 24q38 10 77.5 20t79.5 21q57 126 119.5 246t129.5 248q-17 23 -35.5 45.5t-36.5 48.5
q-6 8 -6 16q0 9 9.5 15.5t19.5 6.5q9 0 18 -11q15 -18 29.5 -38t29.5 -40q11 21 21 39t19 38q7 16 23 16q8 0 15 -5.5t7 -15.5q0 -5 -2.5 -10.5t-4.5 -10.5q-12 -24 -23 -45t-26 -48q63 -91 121.5 -186.5t115.5 -198.5q66 11 129.5 17t123.5 6zM293 247q64 15 129 29.5
t122.5 26t104.5 20.5t76 14q-50 86 -100 170t-110 176q-60 -113 -114 -218.5t-108 -217.5z" />
    <glyph glyph-name="Adieresis" unicode="&#xc4;" horiz-adv-x="1067" 
d="M533 942q0 15 10 32t28 17q13 0 20 -8q7 -7 7 -18q2 -4 4 -8.5t2 -9.5q0 -13 -13 -24.5t-27 -11.5q-12 0 -21.5 8.5t-9.5 22.5zM388 933q0 18 8.5 35.5t27.5 17.5q5 0 9.5 -3t7.5 -7q4 2 9 2q8 0 13 -5.5t5 -13.5q0 -18 -13 -36.5t-36 -18.5q-31 0 -31 29zM1033 368
q10 0 16.5 -6.5t6.5 -16.5q0 -9 -6.5 -16t-16.5 -7q-54 0 -112 -5.5t-118 -14.5q32 -54 59 -106.5t53 -104.5q5 -9 16.5 -28.5t19.5 -35.5l9 -18t9.5 -20.5t7.5 -20.5t3 -17q0 -14 -11.5 -21.5t-24.5 -7.5q-16 0 -26 18q-10 19 -15 42.5t-15 45.5q-5 10 -12 24.5t-15 30.5
l-15.5 31t-12.5 26l-40 76t-44 78q-116 -21 -235 -45t-244 -56q-23 -51 -48 -105.5t-47 -104.5q-2 -4 -3.5 -9.5t-1.5 -9.5q0 -5 1.5 -9t1.5 -9q0 -8 -4.5 -21t-11.5 -27l-12 -24t-14 -23q-10 -16 -27 -16q-11 0 -18.5 9t-7.5 20q0 7 4 17q7 17 21 49.5t32 74t38 87.5t40 89
q-14 -3 -34 -9t-39.5 -11t-35 -9t-21.5 -4q-22 0 -22 22q0 19 19 24q38 10 77.5 20t79.5 21q57 126 119.5 246t129.5 248q-17 23 -35.5 45.5t-36.5 48.5q-6 8 -6 16q0 9 9.5 15.5t19.5 6.5q9 0 18 -11q15 -18 29.5 -38t29.5 -40q11 21 21 39t19 38q7 16 23 16q8 0 15 -5.5
t7 -15.5q0 -5 -2.5 -10.5t-4.5 -10.5q-12 -24 -23 -45t-26 -48q63 -91 121.5 -186.5t115.5 -198.5q66 11 129.5 17t123.5 6zM293 247q64 15 129 29.5t122.5 26t104.5 20.5t76 14q-50 86 -100 170t-110 176q-60 -113 -114 -218.5t-108 -217.5z" />
    <glyph glyph-name="Aring" unicode="&#xc5;" horiz-adv-x="1067" 
d="M450 938q0 28 18 52.5t50 24.5q29 0 50 -15.5t21 -44.5q0 -15 -5 -29t-14.5 -25t-22.5 -18t-29 -7q-32 0 -50 17t-18 45zM494 938q0 -10 6.5 -14t17.5 -4q12 0 19.5 9t7.5 20q0 22 -25 22q-10 0 -18 -9.5t-8 -23.5zM1033 368q10 0 16.5 -6.5t6.5 -16.5q0 -9 -6.5 -16
t-16.5 -7q-54 0 -112 -5.5t-118 -14.5q32 -54 59 -106.5t53 -104.5q5 -9 16.5 -28.5t19.5 -35.5l9 -18t9.5 -20.5t7.5 -20.5t3 -17q0 -14 -11.5 -21.5t-24.5 -7.5q-16 0 -26 18q-10 19 -15 42.5t-15 45.5q-5 10 -12 24.5t-15 30.5l-15.5 31t-12.5 26l-40 76t-44 78
q-116 -21 -235 -45t-244 -56q-23 -51 -48 -105.5t-47 -104.5q-2 -4 -3.5 -9.5t-1.5 -9.5q0 -5 1.5 -9t1.5 -9q0 -8 -4.5 -21t-11.5 -27l-12 -24t-14 -23q-10 -16 -27 -16q-11 0 -18.5 9t-7.5 20q0 7 4 17q7 17 21 49.5t32 74t38 87.5t40 89q-14 -3 -34 -9t-39.5 -11t-35 -9
t-21.5 -4q-22 0 -22 22q0 19 19 24q38 10 77.5 20t79.5 21q57 126 119.5 246t129.5 248q-17 23 -35.5 45.5t-36.5 48.5q-6 8 -6 16q0 9 9.5 15.5t19.5 6.5q9 0 18 -11q15 -18 29.5 -38t29.5 -40q11 21 21 39t19 38q7 16 23 16q8 0 15 -5.5t7 -15.5q0 -5 -2.5 -10.5
t-4.5 -10.5q-12 -24 -23 -45t-26 -48q63 -91 121.5 -186.5t115.5 -198.5q66 11 129.5 17t123.5 6zM293 247q64 15 129 29.5t122.5 26t104.5 20.5t76 14q-50 86 -100 170t-110 176q-60 -113 -114 -218.5t-108 -217.5z" />
    <glyph glyph-name="AE" unicode="&#xc6;" horiz-adv-x="1484" 
d="M1599 136q8 0 12.5 -5t4.5 -12t-4 -14t-9 -13q-7 -9 -16 -20t-23 -23q-39 -35 -87 -60t-100 -41.5t-105.5 -24.5t-101.5 -8q-51 0 -101.5 11t-92.5 44q7 -13 16.5 -31t18.5 -35t15.5 -31.5t6.5 -20.5q0 -14 -8.5 -21t-21.5 -7q-7 0 -14 1.5t-11 9.5q-10 20 -20.5 38.5
t-16.5 32.5q-2 4 -5.5 12l-7 16t-6 15t-2.5 10q0 5 3 8q-52 103 -102.5 212t-97.5 215q-94 -20 -186.5 -35.5t-189.5 -24.5l-119 -247q11 -6 11 -19q0 -6 -3 -12q-19 -34 -42.5 -65.5t-40.5 -68.5q-7 -13 -21 -13q-11 0 -17.5 6t-6.5 17q0 7 7 23q4 10 14.5 31.5t24 49.5
t29 60.5t31.5 65.5q37 77 81 167q-63 -5 -115.5 -6.5t-104.5 -1.5q-23 0 -23 22q0 11 7 17t16 6q56 0 113.5 1.5t129.5 8.5l222 461q-6 13 -11.5 25.5t-9.5 21.5q-2 5 -4.5 12t-2.5 13q0 10 6.5 16.5t16.5 6.5q15 0 21 -14q3 -6 5.5 -13t4.5 -13l28 57q6 13 21 13q8 0 15 -6
t7 -16q0 -5 -3 -11l-45 -93q31 -76 72.5 -176t90.5 -212q29 7 54 13t51 14q0 2 -0.5 4.5t-0.5 4.5q0 64 21 126t58 117.5t87.5 102t109 80.5t123 53t128.5 19q35 0 69 -6t61 -22t43.5 -42.5t16.5 -67.5q0 -48 -36 -92.5t-94.5 -85t-131.5 -75.5t-147 -64t-141.5 -51
t-115.5 -35q11 -46 46.5 -68t83.5 -28q27 27 61 52.5t71.5 46t78 32.5t79.5 12q38 0 53 -18t15 -38t-16 -37.5t-41.5 -32.5t-59 -27t-68.5 -20.5t-69 -13t-61 -4.5q-6 0 -12.5 0.5t-12.5 0.5q-38 -40 -64 -93t-26 -112q0 -61 48 -94q26 -19 66 -29t91 -10q43 0 89.5 5.5
t93 18t91.5 33.5t84 53q15 12 25.5 23t19.5 22q7 8 11.5 14.5t14.5 6.5zM1329 443q-50 0 -111.5 -27t-116.5 -73q37 2 75.5 9.5t75.5 20.5q54 20 76 35.5t22 23.5q0 11 -21 11zM1383 937q-58 0 -116.5 -17.5t-111.5 -48.5t-99 -73.5t-80 -92.5t-54 -105.5t-20 -112.5
q45 12 109.5 33t134 48.5t138 60.5t123 68.5t88 73t33.5 73.5q0 28 -12 46.5t-32.5 28.5t-46.5 14t-54 4zM370 382q170 18 334 54q-42 97 -78.5 184t-65.5 159zM770 406q36 -81 74 -162.5t77 -162.5q-1 5 -1 12q0 59 23 112t59 100q-53 12 -89.5 43t-49.5 82
q-45 -12 -93 -24z" />
    <glyph glyph-name="Ccedilla" unicode="&#xc7;" horiz-adv-x="1000" 
d="M935 103q-31 -29 -76.5 -58t-101 -53t-118.5 -40.5t-127 -19.5q-1 -7 -4 -16t-8 -17q26 0 46 -18t20 -47q0 -30 -24 -47t-55 -17q-20 0 -38.5 10t-18.5 28q0 8 6 15t15 7q8 0 12 -3t7.5 -7t8 -7t12.5 -3q14 0 23 6.5t9 17.5q0 14 -11 19t-24.5 8t-24.5 7.5t-11 17.5
q0 11 5.5 22t10.5 23q-77 2 -148.5 30.5t-126.5 78t-88 118t-33 151.5q0 74 21.5 147.5t61 139.5t93.5 122.5t119 97.5t138.5 64.5t150.5 23.5q43 0 80 -13t64 -37t42.5 -57t15.5 -73q0 -38 -11 -77.5t-31.5 -76.5t-49 -69t-64.5 -55q-12 -7 -23 -7q-8 0 -16 8t-8 18
q0 9 5.5 15.5t14.5 11.5q28 16 52 40.5t42 53.5t28 63t10 70q0 31 -12 56.5t-33 43.5t-48.5 27.5t-58.5 9.5q-69 0 -134.5 -21t-124.5 -58t-109 -88t-86 -112t-56.5 -129t-20.5 -139t29 -132t78 -105.5t113.5 -70t135.5 -25.5q118 0 226 44t207 118q6 4 12 4q19 0 19 -20
q0 -6 -3 -11.5t-6 -7.5z" />
    <glyph glyph-name="Egrave" unicode="&#xc8;" horiz-adv-x="1133" 
d="M529 1123q0 10 6 19.5t20 9.5q12 0 21 -14q7 -10 21.5 -22t31 -23.5t32 -20.5t24.5 -13q11 -5 18.5 -11t7.5 -18q0 -9 -7 -16t-18 -7q-13 0 -39 12.5t-52.5 30.5t-46 38t-19.5 35zM578 -41q61 0 126.5 14.5t129.5 39t124.5 57.5t111.5 70q5 4 10 6.5t10 2.5q9 0 14 -5.5
t5 -12.5q0 -12 -11 -21q-40 -34 -100 -68.5t-130.5 -63t-145.5 -46.5t-144 -18q-37 0 -72.5 7.5t-63 23.5t-44 41.5t-16.5 62.5q0 64 29.5 119t71.5 107q-44 -8 -83 -12t-68 -4q-35 0 -68 7t-59.5 23.5t-42.5 43.5t-16 66q0 55 23.5 109t60.5 103.5t81 93t86 76.5
q51 40 109 77t121 65.5t130 45t136 16.5q29 0 55.5 -5.5t47 -19t33 -35t12.5 -52.5q0 -32 -16.5 -61.5t-41 -54.5t-54 -46t-55.5 -36q-8 -5 -15 -5q-9 0 -16.5 6t-7.5 17q0 8 5.5 13.5t11.5 8.5q23 12 48.5 29t46.5 37.5t35 44t14 47.5q0 20 -8.5 33t-23 20.5t-33 10.5
t-38.5 3q-112 0 -232.5 -51.5t-235.5 -143.5q-35 -28 -75.5 -67t-76 -84t-59 -95t-23.5 -100q0 -27 12 -45.5t31.5 -29.5t45 -15.5t52.5 -4.5q36 0 90 7.5t112 18.5q19 20 51.5 47t68.5 51t70.5 40.5t58.5 16.5q29 0 44.5 -14.5t15.5 -38.5q0 -21 -18 -39t-45.5 -33
t-61.5 -26.5t-66 -20.5t-58 -15t-38 -9q-25 -25 -45 -50.5t-36 -51.5q-24 -38 -35.5 -72t-11.5 -69q0 -27 15 -43.5t37.5 -26.5t48.5 -13.5t49 -3.5zM781 442q-14 0 -34 -9.5t-42 -23t-42.5 -29t-35.5 -27.5q23 6 52 15t55 19.5t44 22t18 21.5q0 11 -15 11z" />
    <glyph glyph-name="Eacute" unicode="&#xc9;" horiz-adv-x="1133" 
d="M698 1107q7 9 12 16.5t15 7.5t16.5 -6t6.5 -15q0 -10 -7 -20q-8 -12 -25 -33.5t-36.5 -42t-38.5 -35.5t-30 -15q-9 0 -15.5 5t-6.5 14q0 8 4 13t9 9q9 7 23 20.5t28 28.5t26 29.5t19 23.5zM578 -41q61 0 126.5 14.5t129.5 39t124.5 57.5t111.5 70q5 4 10 6.5t10 2.5
q9 0 14 -5.5t5 -12.5q0 -12 -11 -21q-40 -34 -100 -68.5t-130.5 -63t-145.5 -46.5t-144 -18q-37 0 -72.5 7.5t-63 23.5t-44 41.5t-16.5 62.5q0 64 29.5 119t71.5 107q-44 -8 -83 -12t-68 -4q-35 0 -68 7t-59.5 23.5t-42.5 43.5t-16 66q0 55 23.5 109t60.5 103.5t81 93
t86 76.5q51 40 109 77t121 65.5t130 45t136 16.5q29 0 55.5 -5.5t47 -19t33 -35t12.5 -52.5q0 -32 -16.5 -61.5t-41 -54.5t-54 -46t-55.5 -36q-8 -5 -15 -5q-9 0 -16.5 6t-7.5 17q0 8 5.5 13.5t11.5 8.5q23 12 48.5 29t46.5 37.5t35 44t14 47.5q0 20 -8.5 33t-23 20.5
t-33 10.5t-38.5 3q-112 0 -232.5 -51.5t-235.5 -143.5q-35 -28 -75.5 -67t-76 -84t-59 -95t-23.5 -100q0 -27 12 -45.5t31.5 -29.5t45 -15.5t52.5 -4.5q36 0 90 7.5t112 18.5q19 20 51.5 47t68.5 51t70.5 40.5t58.5 16.5q29 0 44.5 -14.5t15.5 -38.5q0 -21 -18 -39
t-45.5 -33t-61.5 -26.5t-66 -20.5t-58 -15t-38 -9q-25 -25 -45 -50.5t-36 -51.5q-24 -38 -35.5 -72t-11.5 -69q0 -27 15 -43.5t37.5 -26.5t48.5 -13.5t49 -3.5zM781 442q-14 0 -34 -9.5t-42 -23t-42.5 -29t-35.5 -27.5q23 6 52 15t55 19.5t44 22t18 21.5q0 11 -15 11z" />
    <glyph glyph-name="Ecircumflex" unicode="&#xca;" horiz-adv-x="1133" 
d="M606 1129q11 11 23 11q11 0 18 -7q18 -17 41.5 -38.5t36.5 -35.5q9 -9 9 -18q0 -10 -7 -18t-17 -8q-6 0 -11 2.5t-9 5.5q-3 2 -9 8t-13 13.5t-14.5 15l-12.5 12.5q-3 3 -6.5 6t-7.5 3q-8 0 -19 -13q-4 -4 -10.5 -12t-14 -17t-15 -17.5t-11.5 -13.5q-5 -5 -10 -8.5
t-12 -3.5q-9 0 -16 5.5t-7 15.5q0 8 3 12.5t7 9.5q6 7 16.5 19t22.5 24.5l24 25t21 21.5zM578 -41q61 0 126.5 14.5t129.5 39t124.5 57.5t111.5 70q5 4 10 6.5t10 2.5q9 0 14 -5.5t5 -12.5q0 -12 -11 -21q-40 -34 -100 -68.5t-130.5 -63t-145.5 -46.5t-144 -18
q-37 0 -72.5 7.5t-63 23.5t-44 41.5t-16.5 62.5q0 64 29.5 119t71.5 107q-44 -8 -83 -12t-68 -4q-35 0 -68 7t-59.5 23.5t-42.5 43.5t-16 66q0 55 23.5 109t60.5 103.5t81 93t86 76.5q51 40 109 77t121 65.5t130 45t136 16.5q29 0 55.5 -5.5t47 -19t33 -35t12.5 -52.5
q0 -32 -16.5 -61.5t-41 -54.5t-54 -46t-55.5 -36q-8 -5 -15 -5q-9 0 -16.5 6t-7.5 17q0 8 5.5 13.5t11.5 8.5q23 12 48.5 29t46.5 37.5t35 44t14 47.5q0 20 -8.5 33t-23 20.5t-33 10.5t-38.5 3q-112 0 -232.5 -51.5t-235.5 -143.5q-35 -28 -75.5 -67t-76 -84t-59 -95
t-23.5 -100q0 -27 12 -45.5t31.5 -29.5t45 -15.5t52.5 -4.5q36 0 90 7.5t112 18.5q19 20 51.5 47t68.5 51t70.5 40.5t58.5 16.5q29 0 44.5 -14.5t15.5 -38.5q0 -21 -18 -39t-45.5 -33t-61.5 -26.5t-66 -20.5t-58 -15t-38 -9q-25 -25 -45 -50.5t-36 -51.5q-24 -38 -35.5 -72
t-11.5 -69q0 -27 15 -43.5t37.5 -26.5t48.5 -13.5t49 -3.5zM781 442q-14 0 -34 -9.5t-42 -23t-42.5 -29t-35.5 -27.5q23 6 52 15t55 19.5t44 22t18 21.5q0 11 -15 11z" />
    <glyph glyph-name="Edieresis" unicode="&#xcb;" horiz-adv-x="1133" 
d="M741 1088q0 9 3 19.5t9 19.5t14.5 15t19.5 6q8 0 14 -2t10 -9q10 -7 10 -22l4.5 -9t2.5 -12q0 -16 -16 -30t-32 -14q-15 0 -27 10.5t-12 27.5zM523 1062q0 20 9.5 38.5t30.5 18.5q5 0 10 -3t9 -7q4 2 9 2q20 0 20 -21q0 -10 -3.5 -20.5t-10.5 -19.5t-17 -15t-23 -6
q-17 0 -25.5 9t-8.5 24zM578 -41q61 0 126.5 14.5t129.5 39t124.5 57.5t111.5 70q5 4 10 6.5t10 2.5q9 0 14 -5.5t5 -12.5q0 -12 -11 -21q-40 -34 -100 -68.5t-130.5 -63t-145.5 -46.5t-144 -18q-37 0 -72.5 7.5t-63 23.5t-44 41.5t-16.5 62.5q0 64 29.5 119t71.5 107
q-44 -8 -83 -12t-68 -4q-35 0 -68 7t-59.5 23.5t-42.5 43.5t-16 66q0 55 23.5 109t60.5 103.5t81 93t86 76.5q51 40 109 77t121 65.5t130 45t136 16.5q29 0 55.5 -5.5t47 -19t33 -35t12.5 -52.5q0 -32 -16.5 -61.5t-41 -54.5t-54 -46t-55.5 -36q-8 -5 -15 -5q-9 0 -16.5 6
t-7.5 17q0 8 5.5 13.5t11.5 8.5q23 12 48.5 29t46.5 37.5t35 44t14 47.5q0 20 -8.5 33t-23 20.5t-33 10.5t-38.5 3q-112 0 -232.5 -51.5t-235.5 -143.5q-35 -28 -75.5 -67t-76 -84t-59 -95t-23.5 -100q0 -27 12 -45.5t31.5 -29.5t45 -15.5t52.5 -4.5q36 0 90 7.5t112 18.5
q19 20 51.5 47t68.5 51t70.5 40.5t58.5 16.5q29 0 44.5 -14.5t15.5 -38.5q0 -21 -18 -39t-45.5 -33t-61.5 -26.5t-66 -20.5t-58 -15t-38 -9q-25 -25 -45 -50.5t-36 -51.5q-24 -38 -35.5 -72t-11.5 -69q0 -27 15 -43.5t37.5 -26.5t48.5 -13.5t49 -3.5zM781 442
q-14 0 -34 -9.5t-42 -23t-42.5 -29t-35.5 -27.5q23 6 52 15t55 19.5t44 22t18 21.5q0 11 -15 11z" />
    <glyph glyph-name="Igrave" unicode="&#xcc;" horiz-adv-x="1010" 
d="M611 1118q0 10 6 19.5t20 9.5q12 0 21 -14q14 -20 35 -35.5t38 -23.5q11 -5 18.5 -11t7.5 -18q0 -9 -7 -16t-18 -7q-13 0 -33.5 9.5t-40 23.5t-33.5 31t-14 32zM940 68q12 0 26 -5t14 -22q0 -9 -6.5 -15.5t-16.5 -6.5q-5 0 -8.5 0.5t-8.5 0.5v-29q0 -32 -2.5 -62.5
t-6.5 -57.5q-3 -27 -10.5 -51.5t-22.5 -44t-39.5 -31t-62.5 -11.5q-35 0 -80 6.5t-95.5 17.5t-103.5 25.5t-104.5 29.5t-98 30t-82.5 27q-46 15 -91.5 31.5t-82 34.5t-59 37.5t-22.5 42.5q0 26 17.5 40.5t45 22t60.5 9t64 1.5q183 0 362.5 -6t365.5 -14q0 176 -21.5 348
t-73.5 345q-3 10 -11.5 36t-19 52.5t-21.5 47t-20 20.5q-5 0 -8.5 -18.5t-3.5 -47.5q0 -37 5 -84t14 -98.5t21.5 -104t26.5 -99.5t29 -85.5t30 -62.5q3 -5 5.5 -10.5t2.5 -10.5q0 -10 -8 -17t-18 -7q-7 0 -14 4.5t-12 13.5q-23 44 -46 113.5t-41 147.5t-29.5 157t-11.5 143
q0 36 6 58t15 34t19 16t18 4q20 0 41.5 -21.5t38.5 -60.5q37 -88 62.5 -187t41.5 -203.5t23.5 -211.5t7.5 -211zM855 -204q23 23 30.5 75.5t7.5 119.5v31q-89 3 -179 7t-182 7t-188.5 5t-199.5 2q-18 0 -38.5 -1t-38.5 -4t-30 -8.5t-12 -14.5q0 -13 34.5 -31t85.5 -37
t109 -37.5t104 -32.5q61 -19 122.5 -36.5t119.5 -31.5t110 -22.5t93 -8.5q34 0 52 18z" />
    <glyph glyph-name="Iacute" unicode="&#xcd;" horiz-adv-x="1010" 
d="M789 1161q7 9 12 16.5t15 7.5t16.5 -6t6.5 -15q0 -10 -7 -20q-8 -12 -25 -33.5t-36.5 -42t-38.5 -35.5t-30 -15q-9 0 -15.5 5t-6.5 14q0 8 4 13t9 9q9 7 23 20.5t28 28.5t26 29.5t19 23.5zM940 68q12 0 26 -5t14 -22q0 -9 -6.5 -15.5t-16.5 -6.5q-5 0 -8.5 0.5t-8.5 0.5
v-29q0 -32 -2.5 -62.5t-6.5 -57.5q-3 -27 -10.5 -51.5t-22.5 -44t-39.5 -31t-62.5 -11.5q-35 0 -80 6.5t-95.5 17.5t-103.5 25.5t-104.5 29.5t-98 30t-82.5 27q-46 15 -91.5 31.5t-82 34.5t-59 37.5t-22.5 42.5q0 26 17.5 40.5t45 22t60.5 9t64 1.5q183 0 362.5 -6
t365.5 -14q0 176 -21.5 348t-73.5 345q-3 10 -11.5 36t-19 52.5t-21.5 47t-20 20.5q-5 0 -8.5 -18.5t-3.5 -47.5q0 -37 5 -84t14 -98.5t21.5 -104t26.5 -99.5t29 -85.5t30 -62.5q3 -5 5.5 -10.5t2.5 -10.5q0 -10 -8 -17t-18 -7q-7 0 -14 4.5t-12 13.5q-23 44 -46 113.5
t-41 147.5t-29.5 157t-11.5 143q0 36 6 58t15 34t19 16t18 4q20 0 41.5 -21.5t38.5 -60.5q37 -88 62.5 -187t41.5 -203.5t23.5 -211.5t7.5 -211zM855 -204q23 23 30.5 75.5t7.5 119.5v31q-89 3 -179 7t-182 7t-188.5 5t-199.5 2q-18 0 -38.5 -1t-38.5 -4t-30 -8.5t-12 -14.5
q0 -13 34.5 -31t85.5 -37t109 -37.5t104 -32.5q61 -19 122.5 -36.5t119.5 -31.5t110 -22.5t93 -8.5q34 0 52 18z" />
    <glyph glyph-name="Icircumflex" unicode="&#xce;" horiz-adv-x="1010" 
d="M690 1126q11 11 23 11q11 0 18 -7q18 -17 41.5 -38.5t36.5 -35.5q9 -9 9 -18q0 -10 -7 -18t-17 -8q-6 0 -11 2.5t-9 5.5q-3 2 -9 8t-13 13.5t-14.5 15l-12.5 12.5q-3 3 -6.5 6t-7.5 3q-8 0 -19 -13q-4 -4 -10.5 -12t-14 -17t-15 -17.5t-11.5 -13.5q-5 -5 -10 -8.5
t-12 -3.5q-9 0 -16 5.5t-7 15.5q0 8 3 12.5t7 9.5q6 7 16.5 19t22.5 24.5l24 25t21 21.5zM940 68q12 0 26 -5t14 -22q0 -9 -6.5 -15.5t-16.5 -6.5q-5 0 -8.5 0.5t-8.5 0.5v-29q0 -32 -2.5 -62.5t-6.5 -57.5q-3 -27 -10.5 -51.5t-22.5 -44t-39.5 -31t-62.5 -11.5
q-35 0 -80 6.5t-95.5 17.5t-103.5 25.5t-104.5 29.5t-98 30t-82.5 27q-46 15 -91.5 31.5t-82 34.5t-59 37.5t-22.5 42.5q0 26 17.5 40.5t45 22t60.5 9t64 1.5q183 0 362.5 -6t365.5 -14q0 176 -21.5 348t-73.5 345q-3 10 -11.5 36t-19 52.5t-21.5 47t-20 20.5
q-5 0 -8.5 -18.5t-3.5 -47.5q0 -37 5 -84t14 -98.5t21.5 -104t26.5 -99.5t29 -85.5t30 -62.5q3 -5 5.5 -10.5t2.5 -10.5q0 -10 -8 -17t-18 -7q-7 0 -14 4.5t-12 13.5q-23 44 -46 113.5t-41 147.5t-29.5 157t-11.5 143q0 36 6 58t15 34t19 16t18 4q20 0 41.5 -21.5
t38.5 -60.5q37 -88 62.5 -187t41.5 -203.5t23.5 -211.5t7.5 -211zM855 -204q23 23 30.5 75.5t7.5 119.5v31q-89 3 -179 7t-182 7t-188.5 5t-199.5 2q-18 0 -38.5 -1t-38.5 -4t-30 -8.5t-12 -14.5q0 -13 34.5 -31t85.5 -37t109 -37.5t104 -32.5q61 -19 122.5 -36.5
t119.5 -31.5t110 -22.5t93 -8.5q34 0 52 18z" />
    <glyph glyph-name="Idieresis" unicode="&#xcf;" horiz-adv-x="1010" 
d="M760 1061q0 8 3 17.5t8.5 17.5t13 13.5t17.5 5.5q16 0 22 -9q8 -7 8 -20l4.5 -9t2.5 -10q0 -14 -15 -27t-29 -13t-24.5 9t-10.5 25zM581 1040q0 18 8.5 35.5t27.5 17.5q5 0 9.5 -3t7.5 -7q4 2 9 2q8 0 13 -5.5t5 -13.5q0 -18 -13 -36.5t-36 -18.5q-31 0 -31 29zM940 68
q12 0 26 -5t14 -22q0 -9 -6.5 -15.5t-16.5 -6.5q-5 0 -8.5 0.5t-8.5 0.5v-29q0 -32 -2.5 -62.5t-6.5 -57.5q-3 -27 -10.5 -51.5t-22.5 -44t-39.5 -31t-62.5 -11.5q-35 0 -80 6.5t-95.5 17.5t-103.5 25.5t-104.5 29.5t-98 30t-82.5 27q-46 15 -91.5 31.5t-82 34.5t-59 37.5
t-22.5 42.5q0 26 17.5 40.5t45 22t60.5 9t64 1.5q183 0 362.5 -6t365.5 -14q0 176 -21.5 348t-73.5 345q-3 10 -11.5 36t-19 52.5t-21.5 47t-20 20.5q-5 0 -8.5 -18.5t-3.5 -47.5q0 -37 5 -84t14 -98.5t21.5 -104t26.5 -99.5t29 -85.5t30 -62.5q3 -5 5.5 -10.5t2.5 -10.5
q0 -10 -8 -17t-18 -7q-7 0 -14 4.5t-12 13.5q-23 44 -46 113.5t-41 147.5t-29.5 157t-11.5 143q0 36 6 58t15 34t19 16t18 4q20 0 41.5 -21.5t38.5 -60.5q37 -88 62.5 -187t41.5 -203.5t23.5 -211.5t7.5 -211zM855 -204q23 23 30.5 75.5t7.5 119.5v31q-89 3 -179 7t-182 7
t-188.5 5t-199.5 2q-18 0 -38.5 -1t-38.5 -4t-30 -8.5t-12 -14.5q0 -13 34.5 -31t85.5 -37t109 -37.5t104 -32.5q61 -19 122.5 -36.5t119.5 -31.5t110 -22.5t93 -8.5q34 0 52 18z" />
    <glyph glyph-name="Eth" unicode="&#xd0;" horiz-adv-x="1230" 
d="M391 294q-2 -32 -5 -64.5t-5.5 -63t-4.5 -58t-2 -48.5q0 -24 2.5 -33.5t2.5 -22.5q0 -9 -5 -15.5t-16 -6.5q-16 0 -22 18.5t-6 59.5q0 22 1.5 50t4 58t5.5 60.5t5 59.5q-19 -2 -39 -6q-23 -5 -44.5 -11t-36.5 -14q-7 -3 -14.5 -7t-15.5 -4t-14 6t-6 16q0 11 8.5 18.5
t19.5 12.5q20 10 47 16.5t50 10.5q14 2 26 3.5t23 3.5q2 12 2 21.5v14.5q0 39 -2 64t-4.5 41.5t-4.5 28t-2 25.5q0 10 6 19.5t17 9.5q17 0 22 -18q7 -23 9.5 -64t2.5 -84v-9.5v-14.5t-0.5 -15.5t-0.5 -12.5q58 6 107 15q35 6 69.5 14.5t60.5 19.5q8 3 18 7.5t16 4.5
q8 0 14.5 -5.5t6.5 -15.5q0 -15 -16 -23q-40 -18 -80.5 -28t-85.5 -18q-25 -5 -56.5 -9t-57.5 -7zM707 817q103 0 189.5 -26t148.5 -71t97 -105t35 -128q0 -59 -22.5 -119t-63 -116t-96 -104t-121 -84t-138.5 -56.5t-148 -20.5q-24 0 -53.5 6.5t-55 21t-42.5 36.5t-17 53
q0 22 11 44t37 41q8 6 19.5 11.5t19.5 5.5t14.5 -6t6.5 -15q0 -14 -13 -20q-7 -3 -16 -8.5t-16.5 -13t-13 -17.5t-5.5 -22q0 -16 11 -29.5t29 -23t40 -15t44 -5.5q71 0 139 19.5t127.5 53t109.5 78.5t86 95.5t56 103.5t20 103q0 63 -33 115.5t-90 90.5t-134 59t-164 21
q-158 0 -274 -30t-191.5 -71.5t-112.5 -85t-37 -70.5q0 -17 11.5 -23.5t24.5 -9.5q5 -1 11.5 -2t12.5 -3.5t10.5 -7t4.5 -13.5q0 -10 -7 -16.5t-18 -6.5q-18 0 -35 5.5t-30.5 16t-21.5 26t-8 34.5q0 51 48.5 105t135.5 98t209 72.5t269 28.5z" />
    <glyph glyph-name="Ntilde" unicode="&#xd1;" horiz-adv-x="1337" 
d="M793 972q5 8 10 13t13 5q9 0 14 -6t5 -14q0 -5 -2 -10.5t-4 -10.5q-8 -16 -26 -31.5t-49 -15.5q-14 0 -24.5 6.5t-19 15t-15.5 15t-13 6.5q-10 0 -20.5 -11.5t-18.5 -19.5q-11 -11 -24 -11q-8 0 -13 5t-5 15q0 6 3 11.5t7 10.5t11 12.5t16.5 14.5t22 12t27.5 5
q14 0 23 -7t16 -15.5t14 -15.5t17 -7q12 0 19 7t16 21zM1062 -37q37 0 71 14t64 36.5t55.5 51t46.5 56.5q5 6 8.5 9t9.5 3t11.5 -4.5t5.5 -11.5q0 -9 -8 -22q-18 -28 -42 -54t-51 -49q-88 -73 -172 -73q-71 0 -114 33.5t-66.5 86t-31.5 116.5t-8 124q0 75 16 153.5t35 148
t35 124t16 81.5q0 16 -4.5 28t-17.5 12t-25 -8.5t-26 -24.5q-67 -76 -125 -163t-107.5 -181t-92 -193t-78.5 -199q-15 -42 -26 -58.5t-27 -16.5t-23.5 13.5t-7.5 28.5q0 21 8 61t20 91t26.5 109.5t26.5 116.5t20 111t8 94q0 40 -6.5 92t-25 99t-53 79.5t-89.5 32.5
q-32 0 -61 -12t-55 -31.5t-48 -44t-40 -49.5q-84 -120 -84 -235q0 -35 5 -59.5t5 -35.5q0 -8 -7 -15.5t-17 -7.5q-14 0 -21 14.5t-10.5 34t-4 39t-0.5 30.5q0 41 12.5 88t35 93.5t54 89t69 75t80 52t87.5 19.5q64 0 107 -31t69 -80t36.5 -110t10.5 -121q0 -33 -6 -76.5
t-15.5 -92t-21 -99.5t-23.5 -100q-6 -25 -13.5 -52.5t-13.5 -57.5l3 -1q10 33 27 76.5t39 92.5t48 102t54 106q38 72 85 140t90 122q38 47 72.5 74.5t63.5 27.5q18 0 29 -8t17.5 -21t9 -28.5t2.5 -30.5q0 -40 -15.5 -96t-34 -122t-34 -140t-15.5 -150q0 -61 8 -118t28 -101
t53.5 -70.5t83.5 -26.5z" />
    <glyph glyph-name="Ograve" unicode="&#xd2;" horiz-adv-x="1028" 
d="M395 1135q0 10 6 19.5t20 9.5q12 0 21 -14q7 -10 18 -21t23.5 -21t24.5 -18t21 -12q11 -5 18.5 -11t7.5 -18q0 -9 -7 -16t-18 -7q-13 0 -36 11.5t-45 28t-38 35.5t-16 34zM529 964q67 51 129 72.5t111 21.5q10 0 21.5 -1t21.5 -4t16 -9.5t6 -16.5q0 -9 -6 -16.5t-17 -7.5
t-20.5 5t-21.5 5q-39 0 -70.5 -10t-60.5 -24q85 -1 151 -31.5t111.5 -84t69 -125.5t23.5 -157q0 -68 -19 -144t-53.5 -150t-84 -141t-111 -118.5t-133.5 -82t-152 -30.5q-66 0 -126.5 23t-107.5 65t-75 101.5t-28 131.5q0 21 3 44q-24 31 -37 67t-13 75q0 63 18.5 123.5
t51.5 115.5t78 103.5t97.5 87.5t110.5 67.5t117 44.5zM101 424q0 -22 5 -41.5t13 -34.5q17 71 47.5 142.5t71.5 139.5t90 131t102 117q-63 -32 -121.5 -78.5t-104.5 -104t-74 -126t-29 -145.5zM641 934q-22 0 -43.5 -2.5t-45.5 -8.5q-44 -33 -88 -77.5t-85 -96t-78 -108.5
t-66.5 -116t-50 -117.5t-29.5 -113.5q31 -31 75 -48.5t91 -17.5q45 0 87 5.5t84 16t84.5 27t88.5 38.5q10 5 18 5t14.5 -6.5t6.5 -15.5q0 -14 -13 -20q-99 -49 -189 -72.5t-183 -23.5q-43 0 -89.5 14.5t-81.5 43.5v-6q0 -60 25 -110.5t66 -86.5t93.5 -56.5t107.5 -20.5
q70 0 134.5 28t120 75t101.5 109.5t78.5 131.5t50 140.5t17.5 136.5q0 69 -18.5 132t-56 112t-94 78.5t-132.5 30.5z" />
    <glyph glyph-name="Oacute" unicode="&#xd3;" horiz-adv-x="1028" 
d="M596 1179q7 9 12 16.5t15 7.5t16.5 -6t6.5 -15q0 -10 -7 -20q-8 -12 -25 -33.5t-36.5 -42t-38.5 -35.5t-30 -15q-9 0 -15.5 5t-6.5 14q0 8 4 13t9 9q9 7 23 20.5t28 28.5t26 29.5t19 23.5zM529 964q67 51 129 72.5t111 21.5q10 0 21.5 -1t21.5 -4t16 -9.5t6 -16.5
q0 -9 -6 -16.5t-17 -7.5t-20.5 5t-21.5 5q-39 0 -70.5 -10t-60.5 -24q85 -1 151 -31.5t111.5 -84t69 -125.5t23.5 -157q0 -68 -19 -144t-53.5 -150t-84 -141t-111 -118.5t-133.5 -82t-152 -30.5q-66 0 -126.5 23t-107.5 65t-75 101.5t-28 131.5q0 21 3 44q-24 31 -37 67
t-13 75q0 63 18.5 123.5t51.5 115.5t78 103.5t97.5 87.5t110.5 67.5t117 44.5zM101 424q0 -22 5 -41.5t13 -34.5q17 71 47.5 142.5t71.5 139.5t90 131t102 117q-63 -32 -121.5 -78.5t-104.5 -104t-74 -126t-29 -145.5zM641 934q-22 0 -43.5 -2.5t-45.5 -8.5
q-44 -33 -88 -77.5t-85 -96t-78 -108.5t-66.5 -116t-50 -117.5t-29.5 -113.5q31 -31 75 -48.5t91 -17.5q45 0 87 5.5t84 16t84.5 27t88.5 38.5q10 5 18 5t14.5 -6.5t6.5 -15.5q0 -14 -13 -20q-99 -49 -189 -72.5t-183 -23.5q-43 0 -89.5 14.5t-81.5 43.5v-6q0 -60 25 -110.5
t66 -86.5t93.5 -56.5t107.5 -20.5q70 0 134.5 28t120 75t101.5 109.5t78.5 131.5t50 140.5t17.5 136.5q0 69 -18.5 132t-56 112t-94 78.5t-132.5 30.5z" />
    <glyph glyph-name="Ocircumflex" unicode="&#xd4;" horiz-adv-x="1028" 
d="M504 1180q11 11 23 11q11 0 18 -7q18 -17 41.5 -38.5t36.5 -35.5q9 -9 9 -18q0 -10 -7 -18t-17 -8q-6 0 -11 2.5t-9 5.5q-3 2 -9 8t-13 13.5t-14.5 15l-12.5 12.5q-3 3 -6.5 6t-7.5 3q-8 0 -19 -13q-4 -4 -10.5 -12t-14 -17t-15 -17.5t-11.5 -13.5q-5 -5 -10 -8.5
t-12 -3.5q-9 0 -16 5.5t-7 15.5q0 8 3 12.5t7 9.5q6 7 16.5 19t22.5 24.5l24 25t21 21.5zM529 964q67 51 129 72.5t111 21.5q10 0 21.5 -1t21.5 -4t16 -9.5t6 -16.5q0 -9 -6 -16.5t-17 -7.5t-20.5 5t-21.5 5q-39 0 -70.5 -10t-60.5 -24q85 -1 151 -31.5t111.5 -84t69 -125.5
t23.5 -157q0 -68 -19 -144t-53.5 -150t-84 -141t-111 -118.5t-133.5 -82t-152 -30.5q-66 0 -126.5 23t-107.5 65t-75 101.5t-28 131.5q0 21 3 44q-24 31 -37 67t-13 75q0 63 18.5 123.5t51.5 115.5t78 103.5t97.5 87.5t110.5 67.5t117 44.5zM101 424q0 -22 5 -41.5t13 -34.5
q17 71 47.5 142.5t71.5 139.5t90 131t102 117q-63 -32 -121.5 -78.5t-104.5 -104t-74 -126t-29 -145.5zM641 934q-22 0 -43.5 -2.5t-45.5 -8.5q-44 -33 -88 -77.5t-85 -96t-78 -108.5t-66.5 -116t-50 -117.5t-29.5 -113.5q31 -31 75 -48.5t91 -17.5q45 0 87 5.5t84 16
t84.5 27t88.5 38.5q10 5 18 5t14.5 -6.5t6.5 -15.5q0 -14 -13 -20q-99 -49 -189 -72.5t-183 -23.5q-43 0 -89.5 14.5t-81.5 43.5v-6q0 -60 25 -110.5t66 -86.5t93.5 -56.5t107.5 -20.5q70 0 134.5 28t120 75t101.5 109.5t78.5 131.5t50 140.5t17.5 136.5q0 69 -18.5 132
t-56 112t-94 78.5t-132.5 30.5z" />
    <glyph glyph-name="Otilde" unicode="&#xd5;" horiz-adv-x="1028" 
d="M578 1135q4 9 10.5 16.5t14.5 7.5q22 0 22 -21q0 -11 -5 -23q-4 -9 -10.5 -20.5t-16.5 -21t-23 -16t-29 -6.5q-15 0 -26.5 6t-20.5 13t-17.5 13t-18.5 6q-6 0 -11.5 -5t-10.5 -11.5t-9.5 -14l-7.5 -12.5q-11 -16 -27 -16q-8 0 -14.5 5t-6.5 16q0 14 11 30q6 9 14.5 18.5
t18.5 17.5t22 13.5t24 5.5q16 0 25.5 -6t18 -13t17 -13t21.5 -6q14 0 21.5 11.5t13.5 25.5zM529 964q67 51 129 72.5t111 21.5q10 0 21.5 -1t21.5 -4t16 -9.5t6 -16.5q0 -9 -6 -16.5t-17 -7.5t-20.5 5t-21.5 5q-39 0 -70.5 -10t-60.5 -24q85 -1 151 -31.5t111.5 -84
t69 -125.5t23.5 -157q0 -68 -19 -144t-53.5 -150t-84 -141t-111 -118.5t-133.5 -82t-152 -30.5q-66 0 -126.5 23t-107.5 65t-75 101.5t-28 131.5q0 21 3 44q-24 31 -37 67t-13 75q0 63 18.5 123.5t51.5 115.5t78 103.5t97.5 87.5t110.5 67.5t117 44.5zM101 424
q0 -22 5 -41.5t13 -34.5q17 71 47.5 142.5t71.5 139.5t90 131t102 117q-63 -32 -121.5 -78.5t-104.5 -104t-74 -126t-29 -145.5zM641 934q-22 0 -43.5 -2.5t-45.5 -8.5q-44 -33 -88 -77.5t-85 -96t-78 -108.5t-66.5 -116t-50 -117.5t-29.5 -113.5q31 -31 75 -48.5t91 -17.5
q45 0 87 5.5t84 16t84.5 27t88.5 38.5q10 5 18 5t14.5 -6.5t6.5 -15.5q0 -14 -13 -20q-99 -49 -189 -72.5t-183 -23.5q-43 0 -89.5 14.5t-81.5 43.5v-6q0 -60 25 -110.5t66 -86.5t93.5 -56.5t107.5 -20.5q70 0 134.5 28t120 75t101.5 109.5t78.5 131.5t50 140.5t17.5 136.5
q0 69 -18.5 132t-56 112t-94 78.5t-132.5 30.5z" />
    <glyph glyph-name="Odieresis" unicode="&#xd6;" horiz-adv-x="1028" 
d="M558 1076q0 15 10 32t28 17q13 0 20 -8q7 -7 7 -18q2 -4 4 -8.5t2 -9.5q0 -13 -13 -24.5t-27 -11.5q-12 0 -21.5 8.5t-9.5 22.5zM390 1032q0 18 8.5 35.5t27.5 17.5q5 0 9.5 -3t7.5 -7q4 2 9 2q8 0 13 -5.5t5 -13.5q0 -18 -13 -36.5t-36 -18.5q-31 0 -31 29zM529 964
q67 51 129 72.5t111 21.5q10 0 21.5 -1t21.5 -4t16 -9.5t6 -16.5q0 -9 -6 -16.5t-17 -7.5t-20.5 5t-21.5 5q-39 0 -70.5 -10t-60.5 -24q85 -1 151 -31.5t111.5 -84t69 -125.5t23.5 -157q0 -68 -19 -144t-53.5 -150t-84 -141t-111 -118.5t-133.5 -82t-152 -30.5
q-66 0 -126.5 23t-107.5 65t-75 101.5t-28 131.5q0 21 3 44q-24 31 -37 67t-13 75q0 63 18.5 123.5t51.5 115.5t78 103.5t97.5 87.5t110.5 67.5t117 44.5zM101 424q0 -22 5 -41.5t13 -34.5q17 71 47.5 142.5t71.5 139.5t90 131t102 117q-63 -32 -121.5 -78.5t-104.5 -104
t-74 -126t-29 -145.5zM641 934q-22 0 -43.5 -2.5t-45.5 -8.5q-44 -33 -88 -77.5t-85 -96t-78 -108.5t-66.5 -116t-50 -117.5t-29.5 -113.5q31 -31 75 -48.5t91 -17.5q45 0 87 5.5t84 16t84.5 27t88.5 38.5q10 5 18 5t14.5 -6.5t6.5 -15.5q0 -14 -13 -20q-99 -49 -189 -72.5
t-183 -23.5q-43 0 -89.5 14.5t-81.5 43.5v-6q0 -60 25 -110.5t66 -86.5t93.5 -56.5t107.5 -20.5q70 0 134.5 28t120 75t101.5 109.5t78.5 131.5t50 140.5t17.5 136.5q0 69 -18.5 132t-56 112t-94 78.5t-132.5 30.5z" />
    <glyph glyph-name="multiply" unicode="&#xd7;" horiz-adv-x="485" 
d="M423 444q0 -8 -9 -19q-32 -37 -65.5 -73t-69.5 -74q32 -26 61 -49t62 -47q11 -9 11 -20q0 -9 -6.5 -16t-16.5 -7q-8 0 -16 6q-61 44 -126 101q-19 -20 -37.5 -39t-37.5 -39q0 -12 -6 -18l-62 -62q-7 -7 -18 -7t-18 7t-7 18q0 12 8 19q32 31 71 70.5t76 78.5
q-32 29 -64.5 60t-64.5 64q-3 3 -4 7.5t-1 8.5q0 8 6 15t15 7q7 0 14 -5q13 -10 27 -16q7 -4 15 -7q13 -7 13 -20q0 -3 -2 -9q20 -19 38.5 -37t38.5 -35q36 38 69.5 73.5t66.5 73.5q7 9 18 9q8 0 14.5 -5.5t6.5 -13.5z" />
    <glyph glyph-name="Oslash" unicode="&#xd8;" horiz-adv-x="1028" 
d="M807 766q66 -49 105.5 -124t39.5 -164q0 -63 -15.5 -127.5t-45 -125t-71.5 -114t-94.5 -93.5t-115 -63t-132.5 -23t-134 26q-18 -38 -36 -75.5t-34 -76.5q-3 -8 -9 -13.5t-16 -5.5q-9 0 -15 5.5t-6 15.5q0 8 4.5 19t9.5 24q7 18 13.5 37t12.5 34q5 12 17 14q5 11 9.5 21
t9.5 20q-74 41 -118.5 110.5t-58.5 156.5q-42 28 -62 77t-20 101q0 72 30 141t80 126.5t115.5 98.5t136.5 57q54 37 118.5 63t131.5 26q20 0 40 -3.5t36 -9.5q14 -6 14 -21q0 -8 -5.5 -15t-15.5 -7q-5 0 -10.5 1.5t-11.5 3.5q-9 2 -21.5 4t-25.5 2q-32 0 -67 -8t-71 -25
q64 -2 127.5 -16.5t122.5 -48.5q7 10 13.5 19.5t11.5 18.5q-2 4 -2 8q0 6 5 13q14 18 32 42t39 49q8 9 13.5 11t9.5 2q8 0 15 -6t7 -16q0 -3 -1.5 -8.5t-5.5 -10.5q-25 -35 -47.5 -68.5t-51.5 -78.5zM121 313v11q0 116 44 226t131 201q-40 -24 -77.5 -59.5t-66 -78
t-45.5 -91.5t-17 -100q0 -64 31 -109zM179 216q14 -61 50.5 -113.5t93.5 -84.5q90 187 196.5 367t225.5 368q-52 29 -112.5 43.5t-125.5 14.5q-21 0 -41.5 -2t-40.5 -6q-56 -40 -103.5 -91t-82 -112t-54 -130.5t-19.5 -145.5q0 -29 3 -54q42 -24 99 -24q44 0 83 15q8 3 14 6
t13 3q8 0 14 -6t6 -16q0 -13 -14 -21q-24 -14 -54 -20t-62 -6q-49 0 -89 15zM478 -23q61 0 116.5 20.5t103.5 56.5t86.5 84.5t65.5 104t42 116t15 119.5q0 73 -32.5 139t-92.5 111q-110 -175 -216.5 -354t-201.5 -376q26 -10 55 -15.5t59 -5.5z" />
    <glyph glyph-name="Ugrave" unicode="&#xd9;" horiz-adv-x="982" 
d="M575 1059q0 13 7.5 20.5t18.5 7.5q9 0 14 -5t9 -14q4 -11 15 -26t24 -30t25.5 -28.5t21.5 -20.5q8 -7 14 -12t6 -15q0 -9 -7 -16t-16 -7q-16 0 -38.5 17.5t-43.5 41.5t-35.5 48.5t-14.5 38.5zM31 579q0 32 12 73.5t33.5 84.5t51 84t64 73.5t72.5 52t77 19.5
q54 0 82.5 -34.5t28.5 -90.5q0 -23 -10.5 -72t-26 -113.5t-33.5 -138.5t-33.5 -145.5t-26 -136t-10.5 -109.5q0 -20 2 -45.5t9.5 -48.5t23.5 -38.5t45 -15.5q30 0 62 19.5t64 51t63.5 73t60 85t53.5 86t44 77.5q17 112 53.5 227.5t90.5 216.5q20 38 39 55.5t37 17.5
q21 0 31 -15t10 -35q0 -17 -6 -42.5t-20 -60.5q-38 -91 -87 -184t-104 -194q-6 -44 -6 -80q0 -65 13 -125t42 -112.5t75 -95.5t113 -74q15 -8 15 -24q0 -9 -7 -16.5t-17 -7.5q-8 0 -14 3q-132 66 -196.5 179t-68.5 264q-13 -21 -33 -53.5t-45.5 -70t-55.5 -75t-63 -67.5
t-69 -49t-74 -19q-39 0 -64 17.5t-39.5 45t-19.5 62t-5 68.5q0 50 10.5 116.5t26 139t33.5 145.5t33.5 135.5t26 110t10.5 68.5q0 15 -3 29t-10.5 25.5t-19.5 18.5t-30 7q-30 0 -61.5 -17.5t-61 -46.5t-55.5 -66t-45.5 -75.5t-31 -75.5t-11.5 -66q0 -24 7 -41t21 -31
q8 -8 8 -19q0 -8 -6.5 -15t-16.5 -7t-19 9q-20 20 -29 48t-9 61zM939 823q-18 -28 -36.5 -66.5t-35 -81.5t-30.5 -88.5t-25 -86.5q30 59 61.5 121.5t57.5 126.5q4 10 8.5 23t8.5 25.5t6.5 23t2.5 15.5q0 3 -2 3q-6 0 -16 -15z" />
    <glyph glyph-name="Uacute" unicode="&#xda;" horiz-adv-x="982" 
d="M754 1044q7 9 12 16.5t15 7.5t16.5 -6t6.5 -15q0 -10 -7 -20q-8 -12 -25 -33.5t-36.5 -42t-38.5 -35.5t-30 -15q-9 0 -15.5 5t-6.5 14q0 8 4 13t9 9q9 7 23 20.5t28 28.5t26 29.5t19 23.5zM31 579q0 32 12 73.5t33.5 84.5t51 84t64 73.5t72.5 52t77 19.5q54 0 82.5 -34.5
t28.5 -90.5q0 -23 -10.5 -72t-26 -113.5t-33.5 -138.5t-33.5 -145.5t-26 -136t-10.5 -109.5q0 -20 2 -45.5t9.5 -48.5t23.5 -38.5t45 -15.5q30 0 62 19.5t64 51t63.5 73t60 85t53.5 86t44 77.5q17 112 53.5 227.5t90.5 216.5q20 38 39 55.5t37 17.5q21 0 31 -15t10 -35
q0 -17 -6 -42.5t-20 -60.5q-38 -91 -87 -184t-104 -194q-6 -44 -6 -80q0 -65 13 -125t42 -112.5t75 -95.5t113 -74q15 -8 15 -24q0 -9 -7 -16.5t-17 -7.5q-8 0 -14 3q-132 66 -196.5 179t-68.5 264q-13 -21 -33 -53.5t-45.5 -70t-55.5 -75t-63 -67.5t-69 -49t-74 -19
q-39 0 -64 17.5t-39.5 45t-19.5 62t-5 68.5q0 50 10.5 116.5t26 139t33.5 145.5t33.5 135.5t26 110t10.5 68.5q0 15 -3 29t-10.5 25.5t-19.5 18.5t-30 7q-30 0 -61.5 -17.5t-61 -46.5t-55.5 -66t-45.5 -75.5t-31 -75.5t-11.5 -66q0 -24 7 -41t21 -31q8 -8 8 -19
q0 -8 -6.5 -15t-16.5 -7t-19 9q-20 20 -29 48t-9 61zM939 823q-18 -28 -36.5 -66.5t-35 -81.5t-30.5 -88.5t-25 -86.5q30 59 61.5 121.5t57.5 126.5q4 10 8.5 23t8.5 25.5t6.5 23t2.5 15.5q0 3 -2 3q-6 0 -16 -15z" />
    <glyph glyph-name="Ucircumflex" unicode="&#xdb;" horiz-adv-x="982" 
d="M680 1035q14 11 25 11q7 0 12 -3t9 -7q19 -20 38 -43.5t31 -39.5q7 -9 7 -17q0 -11 -7 -18.5t-18 -7.5q-12 0 -21 10q-3 3 -8.5 10.5t-11.5 16t-12 16.5t-10 13q-9 12 -15 12q-5 0 -9.5 -3.5t-11.5 -9.5t-19 -17.5t-24 -22.5q-6 -5 -12 -9t-12 -4q-10 0 -16.5 5.5
t-6.5 15.5q0 8 4.5 14.5t12.5 13.5q20 19 38 34t37 30zM31 579q0 32 12 73.5t33.5 84.5t51 84t64 73.5t72.5 52t77 19.5q54 0 82.5 -34.5t28.5 -90.5q0 -23 -10.5 -72t-26 -113.5t-33.5 -138.5t-33.5 -145.5t-26 -136t-10.5 -109.5q0 -20 2 -45.5t9.5 -48.5t23.5 -38.5
t45 -15.5q30 0 62 19.5t64 51t63.5 73t60 85t53.5 86t44 77.5q17 112 53.5 227.5t90.5 216.5q20 38 39 55.5t37 17.5q21 0 31 -15t10 -35q0 -17 -6 -42.5t-20 -60.5q-38 -91 -87 -184t-104 -194q-6 -44 -6 -80q0 -65 13 -125t42 -112.5t75 -95.5t113 -74q15 -8 15 -24
q0 -9 -7 -16.5t-17 -7.5q-8 0 -14 3q-132 66 -196.5 179t-68.5 264q-13 -21 -33 -53.5t-45.5 -70t-55.5 -75t-63 -67.5t-69 -49t-74 -19q-39 0 -64 17.5t-39.5 45t-19.5 62t-5 68.5q0 50 10.5 116.5t26 139t33.5 145.5t33.5 135.5t26 110t10.5 68.5q0 15 -3 29t-10.5 25.5
t-19.5 18.5t-30 7q-30 0 -61.5 -17.5t-61 -46.5t-55.5 -66t-45.5 -75.5t-31 -75.5t-11.5 -66q0 -24 7 -41t21 -31q8 -8 8 -19q0 -8 -6.5 -15t-16.5 -7t-19 9q-20 20 -29 48t-9 61zM939 823q-18 -28 -36.5 -66.5t-35 -81.5t-30.5 -88.5t-25 -86.5q30 59 61.5 121.5
t57.5 126.5q4 10 8.5 23t8.5 25.5t6.5 23t2.5 15.5q0 3 -2 3q-6 0 -16 -15z" />
    <glyph glyph-name="Udieresis" unicode="&#xdc;" horiz-adv-x="982" 
d="M738 941q0 8 3 17.5t8.5 17.5t13 13.5t17.5 5.5q16 0 22 -9q8 -7 8 -20l4.5 -9t2.5 -10q0 -14 -15 -27t-29 -13t-24.5 9t-10.5 25zM559 959q0 18 8.5 35.5t27.5 17.5q5 0 9.5 -3t7.5 -7q4 2 9 2q8 0 13 -5.5t5 -13.5q0 -18 -13 -36.5t-36 -18.5q-31 0 -31 29zM31 579
q0 32 12 73.5t33.5 84.5t51 84t64 73.5t72.5 52t77 19.5q54 0 82.5 -34.5t28.5 -90.5q0 -23 -10.5 -72t-26 -113.5t-33.5 -138.5t-33.5 -145.5t-26 -136t-10.5 -109.5q0 -20 2 -45.5t9.5 -48.5t23.5 -38.5t45 -15.5q30 0 62 19.5t64 51t63.5 73t60 85t53.5 86t44 77.5
q17 112 53.5 227.5t90.5 216.5q20 38 39 55.5t37 17.5q21 0 31 -15t10 -35q0 -17 -6 -42.5t-20 -60.5q-38 -91 -87 -184t-104 -194q-6 -44 -6 -80q0 -65 13 -125t42 -112.5t75 -95.5t113 -74q15 -8 15 -24q0 -9 -7 -16.5t-17 -7.5q-8 0 -14 3q-132 66 -196.5 179t-68.5 264
q-13 -21 -33 -53.5t-45.5 -70t-55.5 -75t-63 -67.5t-69 -49t-74 -19q-39 0 -64 17.5t-39.5 45t-19.5 62t-5 68.5q0 50 10.5 116.5t26 139t33.5 145.5t33.5 135.5t26 110t10.5 68.5q0 15 -3 29t-10.5 25.5t-19.5 18.5t-30 7q-30 0 -61.5 -17.5t-61 -46.5t-55.5 -66
t-45.5 -75.5t-31 -75.5t-11.5 -66q0 -24 7 -41t21 -31q8 -8 8 -19q0 -8 -6.5 -15t-16.5 -7t-19 9q-20 20 -29 48t-9 61zM939 823q-18 -28 -36.5 -66.5t-35 -81.5t-30.5 -88.5t-25 -86.5q30 59 61.5 121.5t57.5 126.5q4 10 8.5 23t8.5 25.5t6.5 23t2.5 15.5q0 3 -2 3
q-6 0 -16 -15z" />
    <glyph glyph-name="Yacute" unicode="&#xdd;" horiz-adv-x="805" 
d="M658 1041q5 6 11 12.5t16 6.5q8 0 14.5 -6.5t6.5 -16.5q0 -5 -2.5 -11t-6.5 -10q-9 -11 -27 -26t-38 -28.5t-39.5 -23t-31.5 -9.5q-8 0 -14.5 5t-6.5 15q0 15 17 22q10 4 24.5 12.5t29 18.5t27 20.5t20.5 18.5zM63 803q17 34 42.5 64t57.5 52.5t70 36t80 13.5
q29 0 49.5 -12t34 -32.5t19.5 -46t6 -52.5q0 -58 -12 -116.5t-27 -118.5t-27 -121t-12 -124q0 -16 1.5 -38t8 -42t19.5 -34t37 -14q19 0 41.5 14.5t46 38t46.5 53.5t43.5 60t37 58t26.5 48q5 43 11 90.5t15 94t21 90.5t29 82q4 10 11 21.5t15.5 21.5t19.5 16t23 6
q23 0 35 -15t12 -38q0 -44 -12.5 -92.5t-33 -98.5t-46 -99t-51.5 -94q-2 -22 -3.5 -42t-1.5 -37q0 -54 6.5 -100t17.5 -88h48q9 0 15.5 -6.5t6.5 -15.5t-6.5 -16t-15.5 -7h-35q16 -53 37.5 -104t41.5 -103.5t34 -108t14 -117.5q0 -63 -28.5 -108.5t-74 -75t-104 -43.5
t-118.5 -14q-48 0 -104 8t-111.5 25.5t-107 44t-91 64.5t-63.5 87.5t-24 111.5q0 61 28 111.5t75.5 90.5t110.5 71t134 52t145 33.5t143 16.5q-11 43 -17.5 90t-6.5 101v1q-20 -30 -48 -68.5t-60 -73t-65 -58.5t-63 -24q-35 0 -57 16t-35 41.5t-17.5 56t-4.5 59.5
q0 61 12 124t27 125t27 120.5t12 110.5q0 19 -3.5 37t-11.5 31.5t-22.5 22t-36.5 8.5q-30 0 -61 -12.5t-59 -34.5t-49.5 -51t-32.5 -62q-2 -8 -8 -12.5t-14 -4.5q-9 0 -16 6.5t-7 16.5q0 8 3 15.5t8 16.5zM770 831q-24 -55 -39 -124.5t-22 -133.5q13 27 28.5 64t28 76.5
t21 76t8.5 61.5q0 9 -5 9q-7 0 -20 -29zM80 -168q0 -53 21 -95t56.5 -75t81.5 -57t96.5 -39t102 -22.5t96.5 -7.5t93.5 10t89 32.5t66.5 59.5t26 92q0 57 -14 111.5t-34.5 107t-42.5 105.5t-37 107q-116 -7 -224.5 -32.5t-192 -67.5t-134 -100t-50.5 -129z" />
    <glyph glyph-name="Thorn" unicode="&#xde;" horiz-adv-x="1335" 
d="M821 732q90 0 179.5 -18.5t161 -53t116.5 -84t45 -110.5q0 -40 -23.5 -78.5t-63.5 -73t-94.5 -64t-116 -50.5t-128 -33t-130.5 -12q-59 0 -102 18q-1 -16 -1.5 -31.5t-0.5 -31.5q0 -14 3 -23.5t3 -22.5q0 -15 0.5 -27l1 -24t1 -25.5t0.5 -31.5q0 -17 -8 -25.5t-22 -8.5
q-28 0 -28 39q0 73 3 151q1 22 1.5 44t0.5 43q-13 13 -22.5 29t-9.5 37q0 14 7 33t27 39q0 78 2 159.5t2 177.5q-69 -8 -137.5 -24t-132 -38t-118.5 -49t-95.5 -58t-63.5 -64.5t-23 -67.5q0 -23 17.5 -40.5t43 -29.5t54 -19t50.5 -8q13 -1 23 -5t10 -18q0 -11 -7.5 -17
t-16.5 -6q-32 0 -70.5 9t-71.5 27t-55.5 45t-22.5 62q0 47 28.5 89t76 78.5t110 67t131 53.5t138.5 38t132 21q0 22 -1 48t-2 50t-2 43t-2 29q-2 19 -4.5 32.5t-2.5 27.5q0 11 7 18t17 7q15 0 22 -19q4 -13 6.5 -37.5t4 -55.5t2.5 -67t1 -71q37 4 74.5 5.5t75.5 1.5z
M767 201q90 0 180.5 24t163.5 62t118.5 85t45.5 94q0 46 -38 86t-101.5 70t-145.5 47t-169 17q-38 0 -75.5 -1.5t-74.5 -5.5q0 -78 -1 -158.5t-2 -146.5q8 6 21.5 14t24.5 8q8 0 15 -6t7 -17q0 -14 -13 -20q-36 -19 -56 -36q-1 -17 -1 -31v-24v-39q45 -22 101 -22z" />
    <glyph glyph-name="germandbls" unicode="&#xdf;" horiz-adv-x="395" 
d="M325 -27q-25 0 -48.5 8.5t-37.5 30.5q-5 8 -9 18.5t-4 23.5q0 10 5 17t16 7q17 0 20 -21q2 -12 8.5 -25.5t19.5 -13.5q16 0 25.5 14.5t9.5 34.5q0 26 -19 41t-42.5 29.5t-42.5 34t-19 54.5q0 40 13.5 81.5t33.5 81.5t44 78.5t44 73.5t33.5 66t13.5 57q0 28 -13.5 50.5
t-43.5 22.5q-21 0 -37.5 -15.5t-30 -41t-24.5 -58t-19.5 -66t-15.5 -65.5t-13 -56q-14 -56 -24 -138t-16.5 -174.5t-10 -188.5t-3.5 -181q0 -59 4 -104.5t9.5 -79.5t9.5 -57t4 -36q0 -8 -6.5 -14t-14.5 -6q-12 0 -17 10t-7 20q-6 24 -11 55t-8 66t-5 72.5t-2 73.5
q0 86 2 170.5t7.5 169.5t16 171.5t28.5 178.5q6 32 13.5 69.5t18 74.5t24.5 71.5t32.5 61t42.5 42.5t55 16q49 0 72.5 -31.5t23.5 -78.5q0 -32 -13.5 -66.5t-33.5 -71.5t-44 -75t-44 -76.5t-33.5 -77t-13.5 -75.5q0 -24 19 -37.5t42.5 -28t42.5 -35t19 -58.5q0 -12 -4 -28
t-17 -27q21 0 41 10.5t38.5 26.5t34.5 35.5t29 36.5q5 6 8.5 9t9.5 3t11.5 -4.5t5.5 -11.5q0 -11 -8 -22q-16 -21 -34 -43t-41.5 -39.5t-52.5 -28.5t-67 -11z" />
    <glyph glyph-name="agrave" unicode="&#xe0;" horiz-adv-x="255" 
d="M198 119q0 2 -1 2.5t-3 2.5q-5 7 -13 7q-15 0 -37 -18t-36 -45q-4 -8 -7 -16t-3 -18q0 -12 12 -12q11 0 23.5 8.5t24 21t21 27.5t14.5 28q2 6 3.5 8t1.5 4zM378 95q-9 -14 -24.5 -33t-35 -35.5t-41 -28t-41.5 -11.5q-19 0 -32.5 10t-15.5 30q-22 -24 -43 -35t-36 -11
q-21 0 -36 13.5t-15 35.5q0 28 12.5 53.5t31 45t39.5 31t37 11.5q31 0 48 -20q8 -10 8 -22q0 -8 -3 -12q5 -4 5 -11q0 -3 -1 -6.5t-2 -6.5q-3 -12 -5 -22.5t-2 -21.5q0 -21 15 -21t31 10t30.5 24.5t27 30.5t21.5 28q5 6 8.5 9t9.5 3t11.5 -4.5t5.5 -11.5q0 -9 -8 -22z
M88 279q0 8 5 14.5t15 6.5q11 0 17 -9q10 -15 26 -26t30 -18q8 -4 13.5 -8.5t5.5 -13.5q0 -19 -20 -19q-10 0 -25.5 7t-30.5 18t-25.5 24t-10.5 24z" />
    <glyph glyph-name="aacute" unicode="&#xe1;" horiz-adv-x="255" 
d="M198 119q0 2 -1 2.5t-3 2.5q-5 7 -13 7q-15 0 -37 -18t-36 -45q-4 -8 -7 -16t-3 -18q0 -12 12 -12q11 0 23.5 8.5t24 21t21 27.5t14.5 28q2 6 3.5 8t1.5 4zM378 95q-9 -14 -24.5 -33t-35 -35.5t-41 -28t-41.5 -11.5q-19 0 -32.5 10t-15.5 30q-22 -24 -43 -35t-36 -11
q-21 0 -36 13.5t-15 35.5q0 28 12.5 53.5t31 45t39.5 31t37 11.5q31 0 48 -20q8 -10 8 -22q0 -8 -3 -12q5 -4 5 -11q0 -3 -1 -6.5t-2 -6.5q-3 -12 -5 -22.5t-2 -21.5q0 -21 15 -21t31 10t30.5 24.5t27 30.5t21.5 28q5 6 8.5 9t9.5 3t11.5 -4.5t5.5 -11.5q0 -9 -8 -22z
M226 300q5 5 10.5 11t14.5 6q8 0 13.5 -6t5.5 -15q0 -8 -7 -17t-18.5 -18.5t-24 -18t-25.5 -14t-24 -5.5q-8 0 -14 4.5t-6 13.5q0 15 15 20q17 5 32 15.5t28 23.5z" />
    <glyph glyph-name="acircumflex" unicode="&#xe2;" horiz-adv-x="255" 
d="M198 119q0 2 -1 2.5t-3 2.5q-5 7 -13 7q-15 0 -37 -18t-36 -45q-4 -8 -7 -16t-3 -18q0 -12 12 -12q11 0 23.5 8.5t24 21t21 27.5t14.5 28q2 6 3.5 8t1.5 4zM378 95q-9 -14 -24.5 -33t-35 -35.5t-41 -28t-41.5 -11.5q-19 0 -32.5 10t-15.5 30q-22 -24 -43 -35t-36 -11
q-21 0 -36 13.5t-15 35.5q0 28 12.5 53.5t31 45t39.5 31t37 11.5q31 0 48 -20q8 -10 8 -22q0 -8 -3 -12q5 -4 5 -11q0 -3 -1 -6.5t-2 -6.5q-3 -12 -5 -22.5t-2 -21.5q0 -21 15 -21t31 10t30.5 24.5t27 30.5t21.5 28q5 6 8.5 9t9.5 3t11.5 -4.5t5.5 -11.5q0 -9 -8 -22z
M172 286q10 8 18 8t15 -7q14 -15 28.5 -30.5t23.5 -27.5q5 -7 5 -13q0 -8 -6 -14.5t-15 -6.5q-8 0 -15 7q-4 4 -12 14.5t-16 18.5q-8 10 -12 10t-7 -3l-8 -8t-13 -12.5t-16 -15.5q-6 -6 -15 -6q-8 0 -14 5t-6 13q0 9 8 17q15 15 28 26.5t29 24.5z" />
    <glyph glyph-name="atilde" unicode="&#xe3;" horiz-adv-x="255" 
d="M198 119q0 2 -1 2.5t-3 2.5q-5 7 -13 7q-15 0 -37 -18t-36 -45q-4 -8 -7 -16t-3 -18q0 -12 12 -12q11 0 23.5 8.5t24 21t21 27.5t14.5 28q2 6 3.5 8t1.5 4zM378 95q-9 -14 -24.5 -33t-35 -35.5t-41 -28t-41.5 -11.5q-19 0 -32.5 10t-15.5 30q-22 -24 -43 -35t-36 -11
q-21 0 -36 13.5t-15 35.5q0 28 12.5 53.5t31 45t39.5 31t37 11.5q31 0 48 -20q8 -10 8 -22q0 -8 -3 -12q5 -4 5 -11q0 -3 -1 -6.5t-2 -6.5q-3 -12 -5 -22.5t-2 -21.5q0 -21 15 -21t31 10t30.5 24.5t27 30.5t21.5 28q5 6 8.5 9t9.5 3t11.5 -4.5t5.5 -11.5q0 -9 -8 -22z
M247 285q7 15 19 15q8 0 13.5 -5t5.5 -14q0 -6 -3 -13q-5 -13 -18.5 -29.5t-41.5 -16.5q-11 0 -19 4.5t-15 9.5t-12.5 9.5t-10.5 4.5q-8 0 -15 -9.5t-13 -16.5q-8 -9 -17 -9q-8 0 -13 5t-5 13t5 15q3 4 8.5 11t13 14t17.5 11.5t21 4.5q10 0 17 -4.5t12.5 -9.5t11.5 -9.5
t14 -4.5q9 0 14 5.5t11 18.5z" />
    <glyph glyph-name="adieresis" unicode="&#xe4;" horiz-adv-x="255" 
d="M198 119q0 2 -1 2.5t-3 2.5q-5 7 -13 7q-15 0 -37 -18t-36 -45q-4 -8 -7 -16t-3 -18q0 -12 12 -12q11 0 23.5 8.5t24 21t21 27.5t14.5 28q2 6 3.5 8t1.5 4zM378 95q-9 -14 -24.5 -33t-35 -35.5t-41 -28t-41.5 -11.5q-19 0 -32.5 10t-15.5 30q-22 -24 -43 -35t-36 -11
q-21 0 -36 13.5t-15 35.5q0 28 12.5 53.5t31 45t39.5 31t37 11.5q31 0 48 -20q8 -10 8 -22q0 -8 -3 -12q5 -4 5 -11q0 -3 -1 -6.5t-2 -6.5q-3 -12 -5 -22.5t-2 -21.5q0 -21 15 -21t31 10t30.5 24.5t27 30.5t21.5 28q5 6 8.5 9t9.5 3t11.5 -4.5t5.5 -11.5q0 -9 -8 -22z
M204 240q0 12 8.5 26.5t23.5 14.5q10 0 16 -7q6 -6 6 -15q5 -7 5 -14q0 -11 -11 -20.5t-22 -9.5q-10 0 -18 7t-8 18zM109 241q0 15 7 29.5t22 14.5q9 0 14 -9q4 2 8 2q14 0 14 -15t-10 -30.5t-30 -15.5q-25 0 -25 24z" />
    <glyph glyph-name="aring" unicode="&#xe5;" horiz-adv-x="255" 
d="M129 253q0 22 14.5 41t38.5 19q23 0 39.5 -12t16.5 -35t-15 -42.5t-41 -19.5q-24 0 -38.5 13.5t-14.5 35.5zM163 253q0 -15 19 -15q10 0 16 7.5t6 16.5q0 17 -20 17q-8 0 -14.5 -7.5t-6.5 -18.5zM198 119q0 2 -1 2.5t-3 2.5q-5 7 -13 7q-15 0 -37 -18t-36 -45
q-4 -8 -7 -16t-3 -18q0 -12 12 -12q11 0 23.5 8.5t24 21t21 27.5t14.5 28q2 6 3.5 8t1.5 4zM378 95q-9 -14 -24.5 -33t-35 -35.5t-41 -28t-41.5 -11.5q-19 0 -32.5 10t-15.5 30q-22 -24 -43 -35t-36 -11q-21 0 -36 13.5t-15 35.5q0 28 12.5 53.5t31 45t39.5 31t37 11.5
q31 0 48 -20q8 -10 8 -22q0 -8 -3 -12q5 -4 5 -11q0 -3 -1 -6.5t-2 -6.5q-3 -12 -5 -22.5t-2 -21.5q0 -21 15 -21t31 10t30.5 24.5t27 30.5t21.5 28q5 6 8.5 9t9.5 3t11.5 -4.5t5.5 -11.5q0 -9 -8 -22z" />
    <glyph glyph-name="ae" unicode="&#xe6;" horiz-adv-x="417" 
d="M368 155q-18 0 -35.5 -17.5t-27.5 -34.5v-6q9 2 21 6t23.5 10.5t19.5 15t8 18.5q0 8 -9 8zM159 11q0 -11 11 -11q21 0 43 18t35 36l-27 -4.5t-29 -7.5t-23.5 -12.5t-9.5 -18.5zM362 -21q-30 0 -53 9t-40 30q-15 -20 -43.5 -38t-58.5 -18q-20 0 -34.5 11.5t-14.5 32.5
q0 23 12.5 38.5t32.5 25t44.5 15t48.5 7.5q1 9 6 18q-2 13 -9.5 20.5t-17.5 7.5q-15 0 -24.5 -6.5t-17.5 -17.5q-7 -8 -17 -8q-8 0 -13.5 5.5t-5.5 13.5q0 6 3.5 11.5t8.5 10.5q30 30 71 30q15 0 28 -7.5t21 -20.5q15 19 37.5 31t43.5 12t34.5 -10.5t13.5 -29.5
q0 -29 -29.5 -57t-92.5 -37q-1 -1 -1 -2v-2q6 -16 23.5 -26t43.5 -10q24 0 46.5 10t41.5 25.5t35 33.5t28 34q9 12 20 12q6 0 10.5 -4.5t4.5 -11.5q0 -8 -9 -22q-12 -18 -30 -38t-41 -37.5t-50 -29t-56 -11.5z" />
    <glyph glyph-name="ccedilla" unicode="&#xe7;" horiz-adv-x="240" 
d="M362 94q-17 -24 -38 -45.5t-45.5 -37.5t-52 -25.5t-56.5 -10.5q-1 -11 -10 -25h3q20 0 37 -9t17 -33q0 -25 -20 -40t-46 -15q-17 0 -32 8.5t-15 23.5q0 6 4.5 12t12.5 6q10 0 15.5 -7.5t17.5 -7.5q11 0 19 4.5t8 13.5q0 6 -10 6.5t-20 2.5q-14 3 -22 9.5t-8 19.5
q0 10 4.5 18t8.5 18q-23 9 -38 30t-15 51q0 20 7.5 41t21 38t31.5 28t40 11q20 0 32.5 -13t12.5 -35q0 -21 -15 -39q-9 -11 -21 -11q-8 0 -14 5.5t-6 14.5q0 11 7 15.5t7 14.5q0 8 -8 8q-9 0 -18.5 -6.5t-17 -17t-12 -24.5t-4.5 -28q0 -19 12 -33.5t35 -14.5q26 0 49.5 9.5
t44 24.5t38.5 34t32 38q9 12 20 12q6 0 10.5 -4.5t4.5 -11.5q0 -10 -8 -23z" />
    <glyph glyph-name="egrave" unicode="&#xe8;" horiz-adv-x="216" 
d="M177 157q-6 0 -14.5 -7.5t-16 -20t-13 -28t-5.5 -31.5q9 10 18 21t17 22t13 21t5 19q0 4 -4 4zM174 19q20 0 39.5 10t37.5 25t33.5 33t27.5 34q9 12 20 12q6 0 10.5 -4.5t4.5 -11.5q0 -8 -9 -22q-12 -18 -30.5 -38t-40.5 -37.5t-46.5 -29t-48.5 -11.5q-37 0 -61 22.5
t-24 64.5q0 23 7.5 46t20.5 41t30.5 29.5t36.5 11.5q18 0 28.5 -10.5t10.5 -28.5q0 -15 -7.5 -31.5t-19 -32.5t-26 -30.5t-27.5 -25.5q5 -9 14 -12.5t19 -3.5zM96 307q0 8 5 14.5t15 6.5q11 0 17 -9q10 -15 26 -26t30 -18q8 -4 13.5 -8.5t5.5 -13.5q0 -19 -20 -19
q-10 0 -25.5 7t-30.5 18t-25.5 24t-10.5 24z" />
    <glyph glyph-name="eacute" unicode="&#xe9;" horiz-adv-x="216" 
d="M177 157q-6 0 -14.5 -7.5t-16 -20t-13 -28t-5.5 -31.5q9 10 18 21t17 22t13 21t5 19q0 4 -4 4zM174 19q20 0 39.5 10t37.5 25t33.5 33t27.5 34q9 12 20 12q6 0 10.5 -4.5t4.5 -11.5q0 -8 -9 -22q-12 -18 -30.5 -38t-40.5 -37.5t-46.5 -29t-48.5 -11.5q-37 0 -61 22.5
t-24 64.5q0 23 7.5 46t20.5 41t30.5 29.5t36.5 11.5q18 0 28.5 -10.5t10.5 -28.5q0 -15 -7.5 -31.5t-19 -32.5t-26 -30.5t-27.5 -25.5q5 -9 14 -12.5t19 -3.5zM229 325q5 5 10.5 11t14.5 6q8 0 13.5 -6t5.5 -15q0 -8 -7 -17t-18.5 -18.5t-24 -18t-25.5 -14t-24 -5.5
q-8 0 -14 4.5t-6 13.5q0 15 15 20q17 5 32 15.5t28 23.5z" />
    <glyph glyph-name="ecircumflex" unicode="&#xea;" horiz-adv-x="216" 
d="M177 157q-6 0 -14.5 -7.5t-16 -20t-13 -28t-5.5 -31.5q9 10 18 21t17 22t13 21t5 19q0 4 -4 4zM174 19q20 0 39.5 10t37.5 25t33.5 33t27.5 34q9 12 20 12q6 0 10.5 -4.5t4.5 -11.5q0 -8 -9 -22q-12 -18 -30.5 -38t-40.5 -37.5t-46.5 -29t-48.5 -11.5q-37 0 -61 22.5
t-24 64.5q0 23 7.5 46t20.5 41t30.5 29.5t36.5 11.5q18 0 28.5 -10.5t10.5 -28.5q0 -15 -7.5 -31.5t-19 -32.5t-26 -30.5t-27.5 -25.5q5 -9 14 -12.5t19 -3.5zM170 309q10 8 18 8t15 -7q14 -15 28.5 -30.5t23.5 -27.5q5 -7 5 -13q0 -8 -6 -14.5t-15 -6.5q-8 0 -15 7
q-4 4 -12 14.5t-16 18.5q-8 10 -12 10t-7 -3l-8 -8t-13 -12.5t-16 -15.5q-6 -6 -15 -6q-8 0 -14 5t-6 13q0 9 8 17q15 15 28 26.5t29 24.5z" />
    <glyph glyph-name="edieresis" unicode="&#xeb;" horiz-adv-x="216" 
d="M177 157q-6 0 -14.5 -7.5t-16 -20t-13 -28t-5.5 -31.5q9 10 18 21t17 22t13 21t5 19q0 4 -4 4zM174 19q20 0 39.5 10t37.5 25t33.5 33t27.5 34q9 12 20 12q6 0 10.5 -4.5t4.5 -11.5q0 -8 -9 -22q-12 -18 -30.5 -38t-40.5 -37.5t-46.5 -29t-48.5 -11.5q-37 0 -61 22.5
t-24 64.5q0 23 7.5 46t20.5 41t30.5 29.5t36.5 11.5q18 0 28.5 -10.5t10.5 -28.5q0 -15 -7.5 -31.5t-19 -32.5t-26 -30.5t-27.5 -25.5q5 -9 14 -12.5t19 -3.5zM199 261q0 12 8.5 26.5t23.5 14.5q10 0 16 -7q6 -6 6 -15q5 -7 5 -14q0 -11 -11 -20.5t-22 -9.5q-10 0 -18 7
t-8 18zM104 262q0 15 7 29.5t22 14.5q9 0 14 -9q4 2 8 2q14 0 14 -15t-10 -30.5t-30 -15.5q-25 0 -25 24z" />
    <glyph glyph-name="igrave" unicode="&#xec;" horiz-adv-x="173" 
d="M157 26q15 0 30 9.5t29.5 24t27 30.5t22.5 28q5 7 9.5 11t10.5 4t11.5 -4.5t5.5 -11.5q0 -9 -9 -23q-9 -15 -24.5 -33.5t-34 -35.5t-39.5 -28.5t-41 -11.5q-35 0 -48 22.5t-13 59.5q0 32 6 54t12 34q7 13 20 13q8 0 13.5 -5.5t5.5 -14.5t-8 -29.5t-8 -55.5q0 -10 4 -23.5
t18 -13.5zM66 285q0 8 5 14.5t15 6.5q11 0 17 -9q10 -15 26 -26t30 -18q8 -4 13.5 -8.5t5.5 -13.5q0 -19 -20 -19q-10 0 -25.5 7t-30.5 18t-25.5 24t-10.5 24z" />
    <glyph glyph-name="iacute" unicode="&#xed;" horiz-adv-x="173" 
d="M157 26q15 0 30 9.5t29.5 24t27 30.5t22.5 28q5 7 9.5 11t10.5 4t11.5 -4.5t5.5 -11.5q0 -9 -9 -23q-9 -15 -24.5 -33.5t-34 -35.5t-39.5 -28.5t-41 -11.5q-35 0 -48 22.5t-13 59.5q0 32 6 54t12 34q7 13 20 13q8 0 13.5 -5.5t5.5 -14.5t-8 -29.5t-8 -55.5q0 -10 4 -23.5
t18 -13.5zM196 283q5 5 10.5 11t14.5 6q8 0 13.5 -6t5.5 -15q0 -8 -7 -17t-18.5 -18.5t-24 -18t-25.5 -14t-24 -5.5q-8 0 -14 4.5t-6 13.5q0 15 15 20q17 5 32 15.5t28 23.5z" />
    <glyph glyph-name="icircumflex" unicode="&#xee;" horiz-adv-x="173" 
d="M157 26q15 0 30 9.5t29.5 24t27 30.5t22.5 28q5 7 9.5 11t10.5 4t11.5 -4.5t5.5 -11.5q0 -9 -9 -23q-9 -15 -24.5 -33.5t-34 -35.5t-39.5 -28.5t-41 -11.5q-35 0 -48 22.5t-13 59.5q0 32 6 54t12 34q7 13 20 13q8 0 13.5 -5.5t5.5 -14.5t-8 -29.5t-8 -55.5q0 -10 4 -23.5
t18 -13.5zM133 282q10 8 18 8t15 -7q14 -15 28.5 -30.5t23.5 -27.5q5 -7 5 -13q0 -8 -6 -14.5t-15 -6.5q-8 0 -15 7q-4 4 -12 14.5t-16 18.5q-8 10 -12 10t-7 -3l-8 -8t-13 -12.5t-16 -15.5q-6 -6 -15 -6q-8 0 -14 5t-6 13q0 9 8 17q15 15 28 26.5t29 24.5z" />
    <glyph glyph-name="idieresis" unicode="&#xef;" horiz-adv-x="173" 
d="M157 26q15 0 30 9.5t29.5 24t27 30.5t22.5 28q5 7 9.5 11t10.5 4t11.5 -4.5t5.5 -11.5q0 -9 -9 -23q-9 -15 -24.5 -33.5t-34 -35.5t-39.5 -28.5t-41 -11.5q-35 0 -48 22.5t-13 59.5q0 32 6 54t12 34q7 13 20 13q8 0 13.5 -5.5t5.5 -14.5t-8 -29.5t-8 -55.5q0 -10 4 -23.5
t18 -13.5zM171 230q0 12 8.5 26.5t23.5 14.5q10 0 16 -7q6 -6 6 -15q5 -7 5 -14q0 -11 -11 -20.5t-22 -9.5q-10 0 -18 7t-8 18zM76 231q0 15 7 29.5t22 14.5q9 0 14 -9q4 2 8 2q14 0 14 -15t-10 -30.5t-30 -15.5q-25 0 -25 24z" />
    <glyph glyph-name="eth" unicode="&#xf0;" horiz-adv-x="321" 
d="M185 658q35 -33 58.5 -75.5t38 -91t20.5 -99.5t6 -100q0 -63 -12.5 -122t-34.5 -104.5t-52.5 -73t-65.5 -27.5q-31 0 -51 19.5t-20 53.5q0 50 28.5 89t71.5 56q11 4 20.5 6t20.5 2q8 0 15 -5t7 -15q0 -11 -8 -16t-23 -7q-19 -3 -35 -13.5t-28 -25.5t-18.5 -32.5
t-6.5 -35.5q0 -15 8 -24t21 -9q22 0 43.5 23t38 62t26.5 90.5t10 108.5q0 50 -6.5 99t-20.5 93.5t-35 81.5t-49 64q-9 -8 -16.5 -15t-15.5 -15l-9.5 -9.5t-12.5 -4.5t-13.5 5.5t-5.5 13.5t7 17q7 8 15.5 16.5t17.5 16.5q-21 13 -44.5 20t-51.5 7q-43 0 -79 -25.5t-50 -68.5
q-6 -18 -22 -18q-19 0 -19 19q0 5 1 10t3 10q17 50 62 82q46 32 104 32q73 0 130 -39q20 17 39.5 32t35.5 26q5 3 10 5.5t11 2.5q8 0 14 -5.5t6 -14.5q0 -10 -10 -17q-14 -8 -33.5 -22.5t-40.5 -32.5z" />
    <glyph glyph-name="ntilde" unicode="&#xf1;" horiz-adv-x="264" 
d="M386 95q-11 -16 -25.5 -34t-32.5 -33.5t-38.5 -25.5t-41.5 -10q-26 0 -38.5 15.5t-12.5 39.5q0 5 0.5 11.5t1.5 9.5q-11 -13 -28 -31q-16 -17 -28.5 -28t-25.5 -11q-16 0 -21.5 12t-5.5 28q0 21 2.5 43.5t7.5 38.5q4 18 21 18t17 -20q0 -11 -3.5 -26.5t-4.5 -38.5
q10 10 20 20.5t20 21.5q14 15 26 27t23 12t16.5 -7.5t5.5 -18.5q0 -14 -1 -29t-1 -26q0 -19 16 -19q14 0 28.5 8.5t28.5 21.5t26.5 28t21.5 29q5 6 8.5 9t9.5 3q7 0 12 -4.5t5 -11.5q0 -8 -9 -22zM239 253q7 15 19 15q8 0 13.5 -5t5.5 -14q0 -6 -3 -13q-5 -13 -18.5 -29.5
t-41.5 -16.5q-11 0 -19 4.5t-15 9.5t-12.5 9.5t-10.5 4.5q-8 0 -15 -9.5t-13 -16.5q-8 -9 -17 -9q-8 0 -13 5t-5 13t5 15q3 4 8.5 11t13 14t17.5 11.5t21 4.5q10 0 17 -4.5t12.5 -9.5t11.5 -9.5t14 -4.5q9 0 14 5.5t11 18.5z" />
    <glyph glyph-name="ograve" unicode="&#xf2;" horiz-adv-x="225" 
d="M277 90q15 0 23.5 7.5t19.5 22.5q4 5 8.5 9t10.5 4t11 -4t5 -11q0 -12 -8 -23q-13 -19 -29 -33t-39 -14q-8 0 -16 1t-15 4q-7 -32 -29 -54.5t-59 -22.5q-38 0 -55.5 27t-17.5 64q0 18 4.5 36.5t13 35.5t21 31.5t29.5 24.5q8 5 15 5q8 0 13 -5.5t5 -13.5q0 -11 -9 -17
q-23 -14 -35 -40t-12 -55q0 -19 7.5 -34.5t26.5 -15.5q20 0 30 13t13 34q-13 7 -21 18t-8 27q0 15 10 25.5t24 10.5q12 0 22.5 -7t14.5 -20q2 -5 2 -11t2 -9q2 -5 8 -7.5t14 -2.5zM119 303q0 8 5 14.5t15 6.5q11 0 17 -9q10 -15 26 -26t30 -18q8 -4 13.5 -8.5t5.5 -13.5
q0 -19 -20 -19q-10 0 -25.5 7t-30.5 18t-25.5 24t-10.5 24z" />
    <glyph glyph-name="oacute" unicode="&#xf3;" horiz-adv-x="225" 
d="M277 90q15 0 23.5 7.5t19.5 22.5q4 5 8.5 9t10.5 4t11 -4t5 -11q0 -12 -8 -23q-13 -19 -29 -33t-39 -14q-8 0 -16 1t-15 4q-7 -32 -29 -54.5t-59 -22.5q-38 0 -55.5 27t-17.5 64q0 18 4.5 36.5t13 35.5t21 31.5t29.5 24.5q8 5 15 5q8 0 13 -5.5t5 -13.5q0 -11 -9 -17
q-23 -14 -35 -40t-12 -55q0 -19 7.5 -34.5t26.5 -15.5q20 0 30 13t13 34q-13 7 -21 18t-8 27q0 15 10 25.5t24 10.5q12 0 22.5 -7t14.5 -20q2 -5 2 -11t2 -9q2 -5 8 -7.5t14 -2.5zM240 305q5 5 10.5 11t14.5 6q8 0 13.5 -6t5.5 -15q0 -8 -7 -17t-18.5 -18.5t-24 -18
t-25.5 -14t-24 -5.5q-8 0 -14 4.5t-6 13.5q0 15 15 20q17 5 32 15.5t28 23.5z" />
    <glyph glyph-name="ocircumflex" unicode="&#xf4;" horiz-adv-x="225" 
d="M191 313q9 6 18 6q8 0 15 -8q13 -15 26 -32t22 -29q5 -7 5 -14q0 -9 -7 -14.5t-16 -5.5q-10 0 -16 9q-4 5 -11.5 15.5t-13.5 19.5q-7 10 -12 10q-6 0 -15 -8q-5 -5 -12.5 -11.5t-16.5 -13.5t-17 -7t-13.5 5t-5.5 13q0 10 9 18q17 14 32 25.5t29 21.5zM277 90
q15 0 23.5 7.5t19.5 22.5q4 5 8.5 9t10.5 4t11 -4t5 -11q0 -12 -8 -23q-13 -19 -29 -33t-39 -14q-8 0 -16 1t-15 4q-7 -32 -29 -54.5t-59 -22.5q-38 0 -55.5 27t-17.5 64q0 18 4.5 36.5t13 35.5t21 31.5t29.5 24.5q8 5 15 5q8 0 13 -5.5t5 -13.5q0 -11 -9 -17
q-23 -14 -35 -40t-12 -55q0 -19 7.5 -34.5t26.5 -15.5q20 0 30 13t13 34q-13 7 -21 18t-8 27q0 15 10 25.5t24 10.5q12 0 22.5 -7t14.5 -20q2 -5 2 -11t2 -9q2 -5 8 -7.5t14 -2.5z" />
    <glyph glyph-name="otilde" unicode="&#xf5;" horiz-adv-x="225" 
d="M258 286q5 8 9.5 10.5t9.5 2.5q7 0 11.5 -5t4.5 -13t-4 -16q-6 -13 -21 -25.5t-36 -12.5q-11 0 -19.5 5.5t-16 11.5t-14 11.5t-12.5 5.5q-8 0 -15 -7.5t-14 -14.5t-16 -7q-17 0 -17 18q0 6 3 11t6 9q8 10 21 19.5t34 9.5q10 0 17.5 -5.5t14.5 -11.5t13.5 -11.5t14.5 -5.5
q14 0 26 21zM277 90q15 0 23.5 7.5t19.5 22.5q4 5 8.5 9t10.5 4t11 -4t5 -11q0 -12 -8 -23q-13 -19 -29 -33t-39 -14q-8 0 -16 1t-15 4q-7 -32 -29 -54.5t-59 -22.5q-38 0 -55.5 27t-17.5 64q0 18 4.5 36.5t13 35.5t21 31.5t29.5 24.5q8 5 15 5q8 0 13 -5.5t5 -13.5
q0 -11 -9 -17q-23 -14 -35 -40t-12 -55q0 -19 7.5 -34.5t26.5 -15.5q20 0 30 13t13 34q-13 7 -21 18t-8 27q0 15 10 25.5t24 10.5q12 0 22.5 -7t14.5 -20q2 -5 2 -11t2 -9q2 -5 8 -7.5t14 -2.5z" />
    <glyph glyph-name="odieresis" unicode="&#xf6;" horiz-adv-x="225" 
d="M219 252q0 12 8.5 26.5t23.5 14.5q10 0 16 -7q6 -6 6 -15q5 -7 5 -14q0 -11 -11 -20.5t-22 -9.5q-10 0 -18 7t-8 18zM116 258q0 15 7 29.5t22 14.5q9 0 14 -9q4 2 8 2q14 0 14 -15t-10 -30.5t-30 -15.5q-25 0 -25 24zM277 90q15 0 23.5 7.5t19.5 22.5q4 5 8.5 9t10.5 4
t11 -4t5 -11q0 -12 -8 -23q-13 -19 -29 -33t-39 -14q-8 0 -16 1t-15 4q-7 -32 -29 -54.5t-59 -22.5q-38 0 -55.5 27t-17.5 64q0 18 4.5 36.5t13 35.5t21 31.5t29.5 24.5q8 5 15 5q8 0 13 -5.5t5 -13.5q0 -11 -9 -17q-23 -14 -35 -40t-12 -55q0 -19 7.5 -34.5t26.5 -15.5
q20 0 30 13t13 34q-13 7 -21 18t-8 27q0 15 10 25.5t24 10.5q12 0 22.5 -7t14.5 -20q2 -5 2 -11t2 -9q2 -5 8 -7.5t14 -2.5z" />
    <glyph glyph-name="divide" unicode="&#xf7;" horiz-adv-x="426" 
d="M188 130q0 8 3 19t9 20.5t14 16.5t18 7q9 0 9.5 -3.5t8.5 -3.5q5 0 6.5 1t6.5 1q7 0 11.5 -7t4.5 -16q0 -24 -19 -43t-46 -19q-11 0 -18.5 8t-7.5 19zM232 371q0 7 3.5 10.5t8 5t8.5 3t4 5.5q0 7 -4.5 9t-4.5 13q0 6 5 11.5t12.5 10t16 7t16.5 2.5q17 0 25.5 -11.5
t8.5 -28.5q0 -24 -23.5 -41t-53.5 -17q-22 0 -22 21zM43 251q0 12 9.5 17t20.5 7q15 2 62.5 8.5t108.5 13t126.5 12t116.5 5.5q13 0 25.5 -3t12.5 -19q0 -8 -7.5 -15.5t-30.5 -7.5q-42 0 -98 -4.5t-112 -10.5t-105 -12.5t-76 -9.5q-8 -1 -16.5 -2.5t-16.5 -1.5q-20 0 -20 23
z" />
    <glyph glyph-name="oslash" unicode="&#xf8;" horiz-adv-x="228" 
d="M263 254q4 6 11 6q5 0 8.5 -3.5t3.5 -8.5q0 -4 -2.5 -8t-4.5 -8q-14 -22 -28.5 -44.5t-28.5 -46.5h1q7 0 14.5 -4.5t12.5 -12.5q4 -6 5 -13.5t3 -10.5q5 -11 22 -11t24.5 8t18.5 23q4 5 8.5 9t10.5 4t11 -4t5 -11q0 -12 -8 -23q-13 -19 -29 -33t-39 -14q-8 0 -16 1t-15 4
q-7 -32 -29 -54.5t-59 -22.5q-17 0 -29 6l-16 -32t-16 -33q-2 -5 -5 -9.5t-10 -4.5q-5 0 -8.5 3t-3.5 9q0 4 1.5 8.5t3.5 7.5q8 15 16 31.5t17 33.5q-12 12 -17.5 31t-5.5 40q0 23 6.5 44.5t17.5 38t26.5 26t33.5 9.5q24 0 37 -13q13 22 26 42.5t26 39.5zM135 69
q0 -14 4 -25q12 24 24.5 46.5t25.5 45.5q-4 2 -6.5 5t-10.5 3q-6 0 -12.5 -6t-12 -16.5t-9 -24t-3.5 -28.5zM213 67q-12 7 -19 26q-10 -17 -20 -35t-19 -36q6 -3 14 -3q19 0 30 13.5t14 34.5z" />
    <glyph glyph-name="ugrave" unicode="&#xf9;" horiz-adv-x="326" 
d="M115 254q0 9 6 15.5t15 6.5q12 0 19 -14q8 -15 20 -31t23 -25q7 -5 11 -10t4 -12t-5.5 -12.5t-13.5 -5.5q-11 0 -24.5 9.5t-25.5 23t-20.5 29t-8.5 26.5zM427 127q5 6 8.5 9t9.5 3t10.5 -4.5t4.5 -11.5q0 -9 -8 -22q-13 -21 -30.5 -40t-38 -34t-42.5 -24t-44 -9
q-25 0 -42.5 12.5t-23.5 36.5q-23 -27 -52 -44.5t-56 -17.5q-26 0 -38.5 18.5t-12.5 41.5q0 22 7 44.5t18 37.5q10 14 22 14q8 0 13.5 -5.5t5.5 -12.5t-4 -13t-7 -11q-7 -12 -11.5 -27t-4.5 -27q0 -8 4 -14.5t12 -6.5q14 0 29.5 9.5t30 23t26.5 28.5t18 26q5 8 11 14t14 6
t14 -5t6 -13t-3.5 -15t-3.5 -24q0 -35 33 -35q16 0 33.5 8t33.5 21.5t31 29.5t27 33z" />
    <glyph glyph-name="uacute" unicode="&#xfa;" horiz-adv-x="326" 
d="M427 127q5 6 8.5 9t9.5 3t10.5 -4.5t4.5 -11.5q0 -9 -8 -22q-13 -21 -30.5 -40t-38 -34t-42.5 -24t-44 -9q-25 0 -42.5 12.5t-23.5 36.5q-23 -27 -52 -44.5t-56 -17.5q-26 0 -38.5 18.5t-12.5 41.5q0 22 7 44.5t18 37.5q10 14 22 14q8 0 13.5 -5.5t5.5 -12.5t-4 -13
t-7 -11q-7 -12 -11.5 -27t-4.5 -27q0 -8 4 -14.5t12 -6.5q14 0 29.5 9.5t30 23t26.5 28.5t18 26q5 8 11 14t14 6t14 -5t6 -13t-3.5 -15t-3.5 -24q0 -35 33 -35q16 0 33.5 8t33.5 21.5t31 29.5t27 33zM251 251q5 5 10.5 11t14.5 6q8 0 13.5 -6t5.5 -15q0 -8 -7 -17
t-18.5 -18.5t-24 -18t-25.5 -14t-24 -5.5q-8 0 -14 4.5t-6 13.5q0 15 15 20q17 5 32 15.5t28 23.5z" />
    <glyph glyph-name="ucircumflex" unicode="&#xfb;" horiz-adv-x="326" 
d="M427 127q5 6 8.5 9t9.5 3t10.5 -4.5t4.5 -11.5q0 -9 -8 -22q-13 -21 -30.5 -40t-38 -34t-42.5 -24t-44 -9q-25 0 -42.5 12.5t-23.5 36.5q-23 -27 -52 -44.5t-56 -17.5q-26 0 -38.5 18.5t-12.5 41.5q0 22 7 44.5t18 37.5q10 14 22 14q8 0 13.5 -5.5t5.5 -12.5t-4 -13
t-7 -11q-7 -12 -11.5 -27t-4.5 -27q0 -8 4 -14.5t12 -6.5q14 0 29.5 9.5t30 23t26.5 28.5t18 26q5 8 11 14t14 6t14 -5t6 -13t-3.5 -15t-3.5 -24q0 -35 33 -35q16 0 33.5 8t33.5 21.5t31 29.5t27 33zM189 263q10 8 18 8t15 -7q14 -15 28.5 -30.5t23.5 -27.5q5 -7 5 -13
q0 -8 -6 -14.5t-15 -6.5q-8 0 -15 7q-4 4 -12 14.5t-16 18.5q-8 10 -12 10t-7 -3l-8 -8t-13 -12.5t-16 -15.5q-6 -6 -15 -6q-8 0 -14 5t-6 13q0 9 8 17q15 15 28 26.5t29 24.5z" />
    <glyph glyph-name="udieresis" unicode="&#xfc;" horiz-adv-x="326" 
d="M427 127q5 6 8.5 9t9.5 3t10.5 -4.5t4.5 -11.5q0 -9 -8 -22q-13 -21 -30.5 -40t-38 -34t-42.5 -24t-44 -9q-25 0 -42.5 12.5t-23.5 36.5q-23 -27 -52 -44.5t-56 -17.5q-26 0 -38.5 18.5t-12.5 41.5q0 22 7 44.5t18 37.5q10 14 22 14q8 0 13.5 -5.5t5.5 -12.5t-4 -13
t-7 -11q-7 -12 -11.5 -27t-4.5 -27q0 -8 4 -14.5t12 -6.5q14 0 29.5 9.5t30 23t26.5 28.5t18 26q5 8 11 14t14 6t14 -5t6 -13t-3.5 -15t-3.5 -24q0 -35 33 -35q16 0 33.5 8t33.5 21.5t31 29.5t27 33zM223 205q0 12 8.5 26.5t23.5 14.5q10 0 16 -7q6 -6 6 -15q5 -7 5 -14
q0 -11 -11 -20.5t-22 -9.5q-10 0 -18 7t-8 18zM128 206q0 15 7 29.5t22 14.5q9 0 14 -9q4 2 8 2q14 0 14 -15t-10 -30.5t-30 -15.5q-25 0 -25 24z" />
    <glyph glyph-name="yacute" unicode="&#xfd;" horiz-adv-x="385" 
d="M236 271q5 8 10 15t14 7q19 0 19 -19q0 -8 -3 -15q-5 -12 -16.5 -25t-25 -24t-26.5 -18t-20 -7q-8 0 -13 4.5t-5 12.5q0 12 13 19q16 9 30 22.5t23 27.5zM125 -384q0 -39 9 -73t24 -58.5t33 -39t36 -14.5q34 0 54.5 20t31.5 49t14.5 63t3.5 62q0 71 -6 142.5t-19 146.5
q-181 -149 -181 -298zM513 101q-32 -49 -77.5 -85.5t-93.5 -73.5q29 -166 29 -317q0 -77 -15 -123t-37.5 -70.5t-48 -32.5t-45.5 -8q-30 0 -55.5 18.5t-44 49.5t-29.5 72t-11 85q0 176 214 343q-6 32 -13 63.5t-15 63.5q-8 -17 -19 -36.5t-25.5 -36.5t-33 -28.5t-40.5 -11.5
q-33 0 -47.5 24.5t-14.5 58.5q0 22 2.5 38.5t7.5 30.5q6 17 21 17q8 0 13.5 -5.5t5.5 -14.5q0 -10 -5.5 -25.5t-5.5 -41.5q0 -5 1 -12.5t3.5 -14t7 -11t12.5 -4.5q18 0 34 15.5t29 37t22.5 44.5t13.5 39q2 9 7 16t14 7q16 0 21 -17q12 -45 21.5 -86t17.5 -83q42 31 82 63.5
t72 77.5q5 6 8.5 9t9.5 3t10.5 -4.5t4.5 -11.5q0 -9 -8 -22z" />
    <glyph glyph-name="thorn" unicode="&#xfe;" horiz-adv-x="326" 
d="M163 657q4 12 10.5 27.5t15.5 29t21.5 22.5t29.5 9q18 0 30.5 -8.5t20 -22t10.5 -32t3 -37.5q0 -57 -9 -113t-23.5 -108t-32.5 -98.5t-36 -86t-34 -70t-27 -49.5v-30q24 40 60 61.5t63 21.5q34 0 55.5 -20t21.5 -59q0 -18 -8.5 -38t-23 -37t-33 -28t-38.5 -11
q-23 0 -35.5 13t-12.5 30q0 10 6 16.5t14 6.5q9 0 12.5 -4t5.5 -9t4.5 -9t10.5 -4q9 0 18.5 6.5t17.5 16.5t13 22.5t5 24.5q0 17 -10 28.5t-28 11.5q-28 0 -61 -31.5t-59 -90.5q2 -91 8 -182.5t6 -190.5q0 -24 -3 -54.5t-11.5 -57.5t-24.5 -45.5t-43 -18.5q-21 0 -34 13
t-21 34.5t-11 49.5t-3 58q0 48 8 99.5t21.5 104t30.5 103t36 96.5q0 10 0.5 21t0.5 22q1 57 4 135t10 161t18.5 162t30.5 139zM202 644q-15 -52 -24.5 -107.5t-15.5 -112t-9.5 -111t-6.5 -104.5q18 37 38.5 87t38 107t29 118.5t11.5 123.5q0 4 -0.5 13.5t-2.5 19.5t-6.5 18
t-12.5 8t-18 -13.5t-21 -46.5zM44 -386q0 -20 1.5 -40.5t5 -37t9 -27t13.5 -10.5q15 0 27.5 34.5t12.5 101.5q0 68 -4 140t-6 141q-14 -42 -24.5 -85.5t-18.5 -83.5t-12 -74.5t-4 -58.5z" />
    <glyph glyph-name="ydieresis" unicode="&#xff;" horiz-adv-x="385" 
d="M125 -384q0 -39 9 -73t24 -58.5t33 -39t36 -14.5q34 0 54.5 20t31.5 49t14.5 63t3.5 62q0 71 -6 142.5t-19 146.5q-181 -149 -181 -298zM513 101q-32 -49 -77.5 -85.5t-93.5 -73.5q29 -166 29 -317q0 -77 -15 -123t-37.5 -70.5t-48 -32.5t-45.5 -8q-30 0 -55.5 18.5
t-44 49.5t-29.5 72t-11 85q0 176 214 343q-6 32 -13 63.5t-15 63.5q-8 -17 -19 -36.5t-25.5 -36.5t-33 -28.5t-40.5 -11.5q-33 0 -47.5 24.5t-14.5 58.5q0 22 2.5 38.5t7.5 30.5q6 17 21 17q8 0 13.5 -5.5t5.5 -14.5q0 -10 -5.5 -25.5t-5.5 -41.5q0 -5 1 -12.5t3.5 -14
t7 -11t12.5 -4.5q18 0 34 15.5t29 37t22.5 44.5t13.5 39q2 9 7 16t14 7q16 0 21 -17q12 -45 21.5 -86t17.5 -83q42 31 82 63.5t72 77.5q5 6 8.5 9t9.5 3t10.5 -4.5t4.5 -11.5q0 -9 -8 -22zM210 231q0 12 8.5 26.5t23.5 14.5q10 0 16 -7q6 -6 6 -15q5 -7 5 -14
q0 -11 -11 -20.5t-22 -9.5q-10 0 -18 7t-8 18zM115 232q0 15 7 29.5t22 14.5q9 0 14 -9q4 2 8 2q14 0 14 -15t-10 -30.5t-30 -15.5q-25 0 -25 24z" />
    <glyph glyph-name="OE" unicode="&#x152;" horiz-adv-x="1447" 
d="M290 484q0 -44 16 -75.5t43.5 -52t64.5 -30.5t80 -10q59 0 137 16.5t166 45.5q20 85 20 165q0 55 -14.5 102.5t-40.5 82.5t-62 55t-79 20q-59 0 -118.5 -25t-106.5 -68.5t-76.5 -101.5t-29.5 -124zM865 484q0 -43 16 -75q132 52 263 121.5t243 166.5q51 45 78 82.5
t27 64.5q0 28 -12 46.5t-32.5 28.5t-47 14t-54.5 4q-62 0 -127 -21.5t-123.5 -59t-107.5 -89t-79 -112.5q-44 -85 -44 -171zM1281 395q-52 0 -113 -19.5t-114 -53.5q8 -1 15.5 -1h15.5q34 0 69 5t67 14q4 1 17.5 6t28.5 11.5t26.5 13.5t11.5 13q0 4 -1 5l-2 2t-5.5 2.5
t-15.5 1.5zM1133 -85q-41 0 -87.5 9.5t-86 31.5t-65.5 57t-26 86q0 57 22 106.5t63 91.5q-25 8 -48 22.5t-40 35.5q-8 -3 -15.5 -6t-15.5 -5q-22 -80 -63 -153t-100 -129t-135.5 -89.5t-169.5 -33.5q-66 0 -120 24t-92.5 65.5t-59.5 98t-21 122.5q0 132 42.5 254.5
t119.5 220.5q82 106 193 163t244 57q51 0 88 -22q21 -13 21 -29q0 -9 -5.5 -16t-16.5 -7q-8 0 -14 4.5t-13 9.5q-13 8 -29 11.5t-31 3.5q-119 0 -221.5 -53t-180.5 -150q-72 -91 -112 -207.5t-40 -239.5q0 -54 17 -102.5t49 -84.5t78 -57t104 -21q78 0 143.5 27t118 73.5
t91 108.5t63.5 133q-85 -27 -157.5 -41t-130.5 -14q-51 0 -96 12.5t-79 39t-54 66.5t-20 95q0 72 31.5 137.5t84 116t120.5 80.5t140 30q45 0 83 -17t67.5 -45.5t50 -67t29.5 -80.5q4 10 8.5 19l9.5 19q32 63 83 118.5t113.5 97.5t134.5 66t146 24q37 0 71.5 -6.5t61 -22.5
t42.5 -42.5t16 -66.5q0 -78 -120 -181q-109 -95 -239.5 -164.5t-267.5 -126.5q31 -27 81 -40q30 24 64.5 43.5t72 34t76.5 22.5t77 8t53.5 -18t15.5 -38q0 -14 -8.5 -26t-21.5 -22t-29.5 -17.5t-31.5 -13.5q-39 -14 -84.5 -21.5t-90.5 -7.5q-17 0 -38 1t-43 6
q-39 -35 -64.5 -82t-25.5 -102q0 -40 22 -66.5t55 -42.5t71.5 -23t71.5 -7q43 0 89.5 5.5t93 18t91.5 33.5t84 53q15 12 25.5 23t19.5 22q7 8 11.5 14.5t14.5 6.5q8 0 12.5 -5t4.5 -12t-4 -14t-9 -13q-7 -9 -16 -20t-23 -23q-39 -35 -87 -60t-100 -41.5t-105.5 -24.5
t-101.5 -8z" />
    <glyph glyph-name="oe" unicode="&#x153;" horiz-adv-x="361" 
d="M327 22q21 0 39.5 9t34 23t29.5 32t27 35q5 6 8.5 9t9.5 3t11.5 -4.5t5.5 -11.5q0 -9 -8 -22q-10 -16 -26 -35.5t-37 -37t-46.5 -29t-53.5 -11.5q-32 0 -56.5 9.5t-40.5 32.5q-31 -33 -67 -33q-32 0 -52 19t-20 55q0 35 17.5 68t45.5 58q6 5 11 8.5t13 3.5t14 -5t6 -14
q0 -10 -10 -17q-26 -18 -42.5 -44.5t-16.5 -55.5q0 -16 9.5 -26.5t24.5 -10.5q13 0 26 7t19 19q-17 3 -31.5 16.5t-14.5 34.5q0 26 19 45t45 19q11 0 20.5 -5t14.5 -16q14 16 30 26t35 10q20 0 34.5 -10.5t14.5 -33.5q0 -16 -10 -30.5t-26.5 -26t-37 -19t-41.5 -9.5
q11 -21 29.5 -28t43.5 -7zM195 112q0 -9 8.5 -13.5t17.5 -4.5q6 9 6 20q0 8 -3.5 13t-9.5 5q-19 0 -19 -20zM318 149q-14 0 -30.5 -17t-25.5 -35q8 1 19.5 4.5t22 8.5t18 12.5t7.5 16.5q0 10 -11 10z" />
    <glyph glyph-name="Scaron" unicode="&#x160;" horiz-adv-x="996" 
d="M654 1152q9 9 18 9q8 0 14 -6t6 -14q0 -7 -4 -12t-11 -13q-8 -9 -16.5 -20.5t-17 -23.5t-16 -23t-12.5 -19q-13 -21 -32 -21q-17 0 -25 15q-8 14 -20 36t-26 41q-4 5 -6.5 9t-2.5 10q0 8 6.5 15t17.5 7q10 0 18 -9q13 -14 23.5 -32t19.5 -37q14 21 32 46t34 42zM18 576
q0 71 39.5 129.5t105.5 104.5t152 80.5t179 57t186.5 33.5t173.5 11q19 0 45.5 -1.5t55.5 -6t57.5 -13.5t51 -23t36.5 -35t14 -50q0 -36 -16.5 -67t-43.5 -56t-60.5 -44t-67.5 -30q-9 -3 -20 -6t-19 -3t-15.5 5.5t-7.5 16.5q0 14 11 20t25 10q30 8 59.5 22t53 33.5t38 43.5
t14.5 51q0 25 -19.5 42t-50.5 27.5t-68 14.5t-73 4q-67 0 -151.5 -10t-171.5 -30t-170 -50t-147.5 -71t-104 -92.5t-39.5 -114.5q0 -52 35.5 -89t93 -64.5t131.5 -48t151 -40.5t151 -41.5t131.5 -50.5t93 -68.5t35.5 -95.5q0 -63 -39 -109t-98.5 -75t-130.5 -43t-135 -14
q-39 0 -88 7.5t-92 26.5t-72.5 52.5t-29.5 86.5q0 32 12.5 59t33.5 49t47.5 39t54.5 29q26 12 52 20t45 8q11 0 17.5 -6.5t6.5 -15.5q0 -20 -23 -25q-27 -6 -61 -17.5t-64 -31t-50.5 -46t-20.5 -62.5q0 -39 24.5 -64t60.5 -38.5t76 -18.5t71 -5q26 0 62 4t75 12.5t77.5 23
t69 35.5t49.5 49t19 65q0 47 -35.5 80t-93 58t-131.5 44t-151.5 39t-151.5 43t-131.5 55t-93 75.5t-35.5 105.5z" />
    <glyph glyph-name="scaron" unicode="&#x161;" horiz-adv-x="272" 
d="M235 345q8 8 16 8q7 0 12 -5t5 -13q0 -6 -3.5 -10.5t-9.5 -12.5q-14 -16 -27.5 -35t-22.5 -33q-6 -9 -12 -14t-15 -5q-15 0 -22 14q-6 13 -17.5 33t-24.5 37q-3 4 -5.5 8t-2.5 9q0 8 6 14t15 6t17 -8q11 -13 20.5 -29.5t18.5 -33.5q12 19 25 36.5t27 33.5zM227 -23
q-44 0 -73 24.5t-29 64.5q0 10 5.5 16.5t15.5 6.5q12 0 17 -7.5t7 -16.5q3 -13 8 -13q11 0 19.5 14.5t8.5 35.5q0 18 -8.5 33t-19.5 15q-5 0 -11.5 -5.5t-13.5 -13t-14 -16.5t-13 -16q-9 -11 -20 -11q-6 0 -11 4.5t-5 12.5t5 15t10 13q6 7 15 17t18.5 19t19.5 15.5t19 6.5
q15 0 28 -8t22.5 -21t15 -29t5.5 -31q0 -23 -13 -45t-34 -32q6 -5 14.5 -7t19.5 -2q18 0 36 9t35 24t33.5 34t30.5 38q5 6 8.5 9t9.5 3t11.5 -4.5t5.5 -11.5q0 -11 -8 -22q-11 -15 -27.5 -35.5t-38 -39t-47.5 -31t-57 -12.5z" />
    <glyph glyph-name="Ydieresis" unicode="&#x178;" horiz-adv-x="805" 
d="M638 1015q0 8 3 17.5t8.5 17.5t13 13.5t17.5 5.5q16 0 22 -9q8 -7 8 -20l4.5 -9t2.5 -10q0 -14 -15 -27t-29 -13t-24.5 9t-10.5 25zM477 1002q0 18 8.5 35.5t27.5 17.5q5 0 9.5 -3t7.5 -7q4 2 9 2q8 0 13 -5.5t5 -13.5q0 -18 -13 -36.5t-36 -18.5q-31 0 -31 29zM63 803
q17 34 42.5 64t57.5 52.5t70 36t80 13.5q29 0 49.5 -12t34 -32.5t19.5 -46t6 -52.5q0 -58 -12 -116.5t-27 -118.5t-27 -121t-12 -124q0 -16 1.5 -38t8 -42t19.5 -34t37 -14q19 0 41.5 14.5t46 38t46.5 53.5t43.5 60t37 58t26.5 48q5 43 11 90.5t15 94t21 90.5t29 82
q4 10 11 21.5t15.5 21.5t19.5 16t23 6q23 0 35 -15t12 -38q0 -44 -12.5 -92.5t-33 -98.5t-46 -99t-51.5 -94q-2 -22 -3.5 -42t-1.5 -37q0 -54 6.5 -100t17.5 -88h48q9 0 15.5 -6.5t6.5 -15.5t-6.5 -16t-15.5 -7h-35q16 -53 37.5 -104t41.5 -103.5t34 -108t14 -117.5
q0 -63 -28.5 -108.5t-74 -75t-104 -43.5t-118.5 -14q-48 0 -104 8t-111.5 25.5t-107 44t-91 64.5t-63.5 87.5t-24 111.5q0 61 28 111.5t75.5 90.5t110.5 71t134 52t145 33.5t143 16.5q-11 43 -17.5 90t-6.5 101v1q-20 -30 -48 -68.5t-60 -73t-65 -58.5t-63 -24q-35 0 -57 16
t-35 41.5t-17.5 56t-4.5 59.5q0 61 12 124t27 125t27 120.5t12 110.5q0 19 -3.5 37t-11.5 31.5t-22.5 22t-36.5 8.5q-30 0 -61 -12.5t-59 -34.5t-49.5 -51t-32.5 -62q-2 -8 -8 -12.5t-14 -4.5q-9 0 -16 6.5t-7 16.5q0 8 3 15.5t8 16.5zM770 831q-24 -55 -39 -124.5
t-22 -133.5q13 27 28.5 64t28 76.5t21 76t8.5 61.5q0 9 -5 9q-7 0 -20 -29zM80 -168q0 -53 21 -95t56.5 -75t81.5 -57t96.5 -39t102 -22.5t96.5 -7.5t93.5 10t89 32.5t66.5 59.5t26 92q0 57 -14 111.5t-34.5 107t-42.5 105.5t-37 107q-116 -7 -224.5 -32.5t-192 -67.5
t-134 -100t-50.5 -129z" />
    <glyph glyph-name="Zcaron" unicode="&#x17d;" horiz-adv-x="978" 
d="M654 1180q9 9 18 9q8 0 14 -6t6 -14q0 -7 -4 -12t-11 -13q-8 -9 -16.5 -20.5t-17 -23.5t-16 -23t-12.5 -19q-13 -21 -32 -21q-17 0 -25 15q-8 14 -20 36t-26 41q-4 5 -6.5 9t-2.5 10q0 8 6.5 15t17.5 7q10 0 18 -9q13 -14 23.5 -32t19.5 -37q14 21 32 46t34 42zM917 -25
q29 24 60 49t56 51q16 17 25 27t16 19q5 6 8.5 9t9.5 3t11.5 -4.5t5.5 -11.5q0 -9 -9 -23q-5 -9 -13.5 -19t-20.5 -23q-35 -38 -75 -68t-78 -65q-6 -60 -35.5 -131.5t-74.5 -144.5q-14 -22 -37 -54.5t-52.5 -62.5t-63.5 -51.5t-69 -21.5q-20 0 -32.5 13t-12.5 34q0 32 17 71
t45 81t63.5 84t72.5 81t72.5 71.5t62.5 54.5q0 38 -4.5 77.5t-15 77.5t-28.5 73t-45 64q-38 41 -89 62.5t-108 21.5q-27 0 -57 -9q-19 -14 -33 -27t-36 -25q-7 -4 -15 -6.5t-14 -2.5q-13 0 -21 8t-8 22q0 11 7 20.5t16 17.5q17 14 43 24.5t52 18.5q71 51 128 101t106 103
q27 29 56 65.5t52.5 76.5t39 82t15.5 83q0 48 -31 78t-82 30q-63 0 -122.5 -16.5t-115.5 -44.5t-108 -65.5t-101 -79.5q-32 -28 -70.5 -65.5t-71.5 -78.5t-55 -81t-22 -72q0 -15 7 -24.5t22 -9.5q12 0 18 -7t6 -17q0 -11 -8 -19t-20 -8q-36 0 -55 24t-19 59q0 42 26 89.5
t63 93t78 85.5t72 66q50 42 104.5 81t114 69t123.5 48t134 18t115 -40t45 -112q0 -48 -16.5 -96t-44 -94.5t-64 -90.5t-76.5 -84t-81 -75.5t-78 -65.5q79 -5 138.5 -38.5t100 -87t61 -122t20.5 -143.5zM670 -459q33 32 62.5 71.5t54.5 84t44.5 92.5t31.5 96
q-58 -50 -116 -113.5t-106 -132.5q-42 -59 -52 -91.5t-10 -40.5q0 -10 9 -10q14 0 36 10.5t46 33.5z" />
    <glyph glyph-name="zcaron" unicode="&#x17e;" horiz-adv-x="319" 
d="M292 -35q29 41 60 78.5t63 76.5q5 5 9 8.5t10 3.5q16 0 16 -16q0 -12 -7 -21q-13 -19 -29.5 -37.5t-27.5 -32.5q-18 -23 -39 -48.5t-37 -51.5q11 -29 18.5 -72.5t7.5 -103.5q0 -65 -11.5 -120.5t-31 -95.5t-44 -62.5t-50.5 -22.5q-20 0 -32 12.5t-18 31.5t-8 41t-2 41
q0 31 7 72.5t22 89t39 97.5t57 98q-5 9 -11 20t-13.5 20.5t-16.5 16t-19 6.5q-15 0 -19.5 -4t-13.5 -4q-8 0 -14 4.5t-6 14.5t7.5 15.5t12.5 12.5q15 17 25 38.5t10 45.5q0 10 -4.5 17t-14.5 8q-9 0 -18.5 -6t-18.5 -14t-17.5 -18t-14.5 -17q-5 -5 -9.5 -9t-10.5 -4
q-17 0 -17 17q0 3 1 8t9 15q17 23 40.5 45t55.5 23q26 0 42 -17t16 -44q0 -23 -8 -46.5t-23 -43.5q46 -10 78 -66zM202 -512q20 0 37 25.5t30 64.5t20 84.5t7 86.5q0 43 -4.5 76t-10.5 58q-42 -67 -72 -147.5t-30 -162.5q0 -14 0.5 -29t3 -27.5t7 -20.5t12.5 -8zM237 347
q8 8 16 8q7 0 12.5 -5t5.5 -13q0 -6 -3.5 -10.5t-9.5 -12.5q-7 -8 -15 -18.5t-16 -21.5t-15 -21t-11 -17q-13 -19 -29 -19q-15 0 -22 14q-6 13 -17.5 33t-24.5 37q-3 4 -5.5 8t-2.5 9q0 8 6 14t15 6t17 -8q11 -13 20.5 -29.5t18.5 -33.5q12 19 29 41.5t31 38.5z" />
    <glyph glyph-name="florin" unicode="&#x192;" horiz-adv-x="402" 
d="M313 726q64 0 102 -37t38 -98q0 -29 -10.5 -56t-30.5 -47q-7 -7 -17 -7q-8 0 -15 6.5t-7 16.5q0 9 5 14.5t10 12.5q20 26 20 60q0 42 -26 66.5t-69 24.5q-42 0 -77.5 -27t-61.5 -71.5t-41 -101t-15 -115.5q0 -34 4 -57q22 4 43.5 6.5t38.5 2.5q43 0 61 -15q7 -6 7 -16
q0 -8 -6 -14.5t-15 -6.5q-7 0 -14 5t-22 5q-23 0 -44 -2.5t-42 -6.5q7 -23 15.5 -48t15.5 -54.5t12 -66t5 -81.5q0 -70 -19.5 -128.5t-52 -101t-74 -66.5t-85.5 -24q-26 0 -42 5t-28 13q-9 6 -19 16t-10 21q0 22 22 22q8 0 16 -8q11 -11 23 -17.5t38 -6.5q29 0 62 18
t60.5 52.5t45.5 86t18 118.5q0 42 -4 73t-10.5 57.5t-15 52.5t-17.5 59q-19 -5 -33 -6.5t-26 -1.5q-22 0 -41.5 13t-19.5 33q0 21 22 21q7 0 10.5 -4t7 -8.5t8.5 -8.5t17 -4q5 0 18.5 2t28.5 6q-2 14 -3 30t-1 35q0 74 19 139.5t51.5 114t76 77t93.5 28.5z" />
    <glyph glyph-name="circumflex" unicode="&#x2c6;" horiz-adv-x="216" 
d="M94 314q10 8 18 8t15 -7q14 -15 28.5 -30.5t23.5 -27.5q5 -7 5 -13q0 -8 -6 -14.5t-15 -6.5q-8 0 -15 7q-4 4 -12 14.5t-16 18.5q-8 10 -12 10t-7 -3l-8 -8t-13 -12.5t-16 -15.5q-6 -6 -15 -6q-8 0 -14 5t-6 13q0 9 8 17q15 15 28 26.5t29 24.5z" />
    <glyph glyph-name="tilde" unicode="&#x2dc;" horiz-adv-x="385" 
d="M250 254q7 15 19 15q8 0 13.5 -5t5.5 -14q0 -6 -3 -13q-5 -13 -18.5 -29.5t-41.5 -16.5q-11 0 -19 4.5t-15 9.5t-12.5 9.5t-10.5 4.5q-8 0 -15 -9.5t-13 -16.5q-8 -9 -17 -9q-8 0 -13 5t-5 13t5 15q3 4 8.5 11t13 14t17.5 11.5t21 4.5q10 0 17 -4.5t12.5 -9.5t11.5 -9.5
t14 -4.5q9 0 14 5.5t11 18.5z" />
    <glyph glyph-name="endash" unicode="&#x2013;" horiz-adv-x="619" 
d="M237 127q40 4 87 5t89 1q76 0 163 -6q22 -2 22 -24q0 -10 -6.5 -16t-17.5 -6q-20 0 -58.5 2.5t-101.5 2.5q-74 0 -116 -2.5t-59 -2.5q-23 0 -23 21q0 23 21 25z" />
    <glyph glyph-name="emdash" unicode="&#x2014;" horiz-adv-x="843" 
d="M801 130q9 0 15 -6t6 -15q0 -8 -6 -14.5t-15 -6.5h-157t-158.5 -0.5t-142 -1t-106.5 -1.5q-8 0 -14.5 6t-6.5 15q0 8 6 14.5t14 6.5q43 1 108.5 1.5t142 1t158 0.5h156.5z" />
    <glyph glyph-name="quoteleft" unicode="&#x2018;" horiz-adv-x="356" 
d="M265 796q6 12 20 12q8 0 15 -6.5t7 -16.5q0 -5 -2 -11q-7 -15 -17 -30t-21 -31q-5 -9 -13 -21t-16.5 -25.5t-16 -26t-12.5 -21.5q5 2 10.5 4t10.5 2q10 0 18 -8t8 -19t-7 -24.5t-18 -25t-23.5 -19.5t-24.5 -8q-17 0 -25 13.5t-8 30.5t7 37.5t18.5 42.5t25.5 45.5t29 46.5
q10 16 19 30.5t16 28.5z" />
    <glyph glyph-name="quoteright" unicode="&#x2019;" horiz-adv-x="364" 
d="M302 859q15 0 23 -9t8 -23q0 -30 -7 -63t-19.5 -65.5t-29.5 -62t-38 -53.5q-11 -12 -22 -12q-19 0 -19 19q0 4 2.5 9.5t5.5 9.5q24 29 40 67.5t26 80.5q-8 2 -14.5 14.5t-6.5 20.5q0 10 3.5 22t10.5 22t16 16.5t21 6.5z" />
    <glyph glyph-name="quotesinglbase" unicode="&#x201a;" horiz-adv-x="285" 
d="M193 115q28 0 28 -33q0 -27 -9 -57t-22 -59t-28 -54.5t-28 -43.5q-7 -10 -20 -10q-20 0 -20 22q0 7 5 14q17 23 35 57.5t29 68.5q-8 1 -13.5 8t-5.5 16q0 11 3.5 23.5t10 23t15.5 17.5t20 7z" />
    <glyph glyph-name="quotedblleft" unicode="&#x201c;" horiz-adv-x="316" 
d="M225 796q6 12 20 12q8 0 15 -6.5t7 -16.5q0 -5 -2 -11q-7 -15 -17 -30t-21 -31q-5 -9 -13 -21t-16.5 -25.5t-16 -26t-12.5 -21.5q5 2 10.5 4t10.5 2q10 0 18 -8t8 -19t-7 -24.5t-18 -25t-23.5 -19.5t-24.5 -8q-17 0 -25 13.5t-8 30.5t7 37.5t18.5 42.5t25.5 45.5t29 46.5
q10 16 19 30.5t16 28.5zM83 801q8 13 22 13q8 0 14 -7t6 -16q0 -10 -6 -19.5t-11 -17.5q-7 -13 -16.5 -31t-19.5 -38t-19.5 -41t-15.5 -40q-2 -6 -3.5 -13.5t-1.5 -9.5v-1q1 0 4 5q9 14 21 14q9 0 15.5 -5.5t6.5 -16.5q0 -7 -2 -13q-9 -26 -24 -38t-31 -12q-18 0 -29 13.5
t-11 33.5q0 21 8.5 48.5t22.5 59t32 65.5t38 67z" />
    <glyph glyph-name="quotedblright" unicode="&#x201d;" horiz-adv-x="511" 
d="M440 913q32 0 32 -29q0 -30 -13.5 -71.5t-33.5 -84.5t-43 -83t-42 -66q-8 -11 -21 -11q-9 0 -16 6t-7 17q0 10 5 16q38 49 63.5 98.5t42.5 106.5q-8 2 -14 11.5t-6 17.5q0 10 4 22.5t11 23.5t16.5 18.5t21.5 7.5zM298 863q31 0 31 -35q0 -27 -9 -57t-22 -59t-28 -54.5
t-28 -43.5q-7 -10 -20 -10q-10 0 -17 6.5t-7 17.5q0 7 5 14q17 23 35 57.5t29 68.5q-8 1 -13.5 8t-5.5 16q0 11 3.5 23.5t10 23t16 17.5t20.5 7z" />
    <glyph glyph-name="quotedblbase" unicode="&#x201e;" horiz-adv-x="407" 
d="M321 124q31 0 31 -30t-10.5 -63t-26.5 -66t-35.5 -63.5t-38.5 -54.5q-8 -11 -21 -11q-20 0 -20 21q0 10 5 16q24 35 47 70.5t37 81.5q-8 2 -14 11.5t-6 17.5q0 10 4 22.5t10.5 23t16 17.5t21.5 7zM193 115q28 0 28 -33q0 -27 -9 -57t-22 -59t-28 -54.5t-28 -43.5
q-7 -10 -20 -10q-20 0 -20 22q0 7 5 14q17 23 35 57.5t29 68.5q-8 1 -13.5 8t-5.5 16q0 11 3.5 23.5t10 23t15.5 17.5t20 7z" />
    <glyph glyph-name="dagger" unicode="&#x2020;" horiz-adv-x="509" 
d="M503 818q11 0 16.5 -6.5t5.5 -16.5q0 -19 -21 -22q-39 -5 -76.5 -13.5t-75.5 -17.5q-2 -15 -4 -35.5t-6 -50.5q-3 -21 -6.5 -52.5t-7 -64t-6 -60.5t-2.5 -42q0 -20 0.5 -37.5t0.5 -31.5t-5.5 -22.5t-18.5 -8.5q-16 0 -21.5 13.5t-5.5 31.5q0 35 3 72.5t7 74t9 70.5t8 61
q3 25 4.5 41.5t3.5 29.5q-15 -3 -32 -7t-35 -8.5t-35 -7.5t-31 -3q-9 0 -15.5 5.5t-6.5 15.5q0 20 20 23q26 5 64 13t76 17q1 10 2 23l2 26t2 24.5t1 19.5v36q0 22 22 22q17 0 20.5 -13t3.5 -31q0 -19 -2 -43.5t-5 -52.5q14 3 34.5 7.5t41.5 9t40.5 8t30.5 3.5z" />
    <glyph glyph-name="daggerdbl" unicode="&#x2021;" horiz-adv-x="526" 
d="M493 819q22 0 22 -23q0 -8 -5 -13.5t-14 -7.5q-11 -2 -26.5 -4.5t-30.5 -5.5q-24 -5 -50.5 -11.5t-52.5 -14.5q-3 -25 -9 -51.5t-10 -49.5q13 3 28.5 6t31 5.5t29 4t21.5 1.5q22 0 22 -21q0 -20 -21 -23q-28 -4 -58.5 -9t-62.5 -13q-9 -47 -16.5 -93t-7.5 -72
q0 -28 2.5 -50t2.5 -29q0 -9 -5.5 -16t-16.5 -7q-17 0 -22 19q-5 17 -6 36.5t-1 42.5q0 26 6 71t16 86q-21 -6 -37.5 -11t-33.5 -12q-12 -5 -20 -5t-13 6t-5 15q0 16 15 23q23 9 49 17t55 16q5 26 9.5 48.5t9.5 50.5q-24 -7 -40 -12.5t-27 -9.5q-9 -3 -19 -3q-19 0 -19 20
q0 16 16 23q6 3 17 7t24 8t27.5 8.5t26.5 7.5q1 12 1 23.5v22.5q0 20 -3.5 40t-3.5 40q0 9 6.5 16t16.5 7q17 0 22 -17q3 -12 5.5 -33.5t2.5 -47.5q0 -10 -0.5 -19.5t-1.5 -19.5q21 6 42.5 12t44.5 11q17 4 34 7t33 3z" />
    <glyph glyph-name="bullet" unicode="&#x2022;" horiz-adv-x="262" 
d="M117 14q-23 0 -37 16.5t-14 42.5q0 17 8 31t21.5 24t30 15.5t33.5 5.5q21 0 37 -16.5t16 -36.5q0 -14 -6.5 -28.5t-18.5 -26.5t-30 -19.5t-40 -7.5z" />
    <glyph glyph-name="ellipsis" unicode="&#x2026;" horiz-adv-x="837" 
d="M175 42q0 14 6 27.5t15 24.5t21 18t24 7q14 0 22 -4.5t13 -9.5q10 -11 10 -29q0 -16 -7.5 -28t-16.5 -23q-8 -8 -19.5 -16.5t-25.5 -8.5q-20 0 -31 13t-11 29zM212 42q0 -5 4 -5q5 0 20 15q8 8 10.5 14.5t2.5 9.5q0 5 -3 5.5t-5 0.5t-6.5 -2t-9.5 -9q-13 -15 -13 -29z
M391 43q0 10 4 22t11 23t17 18.5t22 7.5q9 0 16.5 -6.5t7.5 -16.5q0 -2 -2 -8q4 3 10 3q9 0 16.5 -6.5t7.5 -17.5t-6 -22t-16 -19.5t-22 -14t-24 -5.5q-19 0 -30.5 12t-11.5 30zM450 71q-5 0 -10 -7t-5 -12q0 -4 3 -4q7 0 13 5t6 13q0 5 -7 5zM720 87q0 8 6.5 14.5t14.5 6.5
q21 0 21 -21q0 -14 -7 -28.5t-18.5 -26.5t-25.5 -19.5t-29 -7.5q-17 0 -30 10.5t-13 29.5q0 21 15.5 41.5t39.5 20.5q9 0 16.5 -4.5t9.5 -15.5zM713 71q-5 -5 -14 -5h-4q-3 0 -9 -5t-6 -10t5 -5q11 0 17.5 7.5t10.5 17.5z" />
    <glyph glyph-name="perthousand" unicode="&#x2030;" horiz-adv-x="950" 
d="M553 659l15 15t17 7t15.5 -6t5.5 -15q0 -8 -7.5 -15.5t-12.5 -14.5q-22 -26 -45.5 -59t-50.5 -74t-57.5 -92t-65.5 -114q-8 -15 -27 -50.5t-41.5 -85.5t-45.5 -110.5t-39 -125.5q-3 -11 -7 -25t-20 -14q-8 0 -15 6t-7 15q0 6 1.5 13t3.5 16q16 67 41 132t49.5 118.5
t43 89t23.5 43.5q42 74 77 132.5t66 103.5q-43 -26 -101 -26q-16 0 -31.5 2t-30.5 5q4 -10 6 -20.5t2 -24.5q0 -25 -10.5 -47t-28.5 -38.5t-41.5 -26t-48.5 -9.5q-45 0 -75.5 29t-30.5 78q0 28 12.5 52.5t32.5 44t46.5 34t53.5 22.5q8 2 17.5 4.5t19.5 2.5q11 0 17 -6t6 -15
t-5.5 -15.5t-16.5 -8.5q26 -9 54 -13.5t55 -4.5q20 0 44 7t48 19.5t47 29t42 35.5zM125 471q0 -29 16 -45.5t45 -16.5q19 0 34.5 7t26.5 17.5t17 24t6 27.5q0 20 -8 34t-22 26q-6 5 -8 9.5t-2 9.5q0 10 7 17q-23 -6 -43.5 -16.5t-35.5 -25t-24 -32t-9 -36.5zM815 298
q0 11 6.5 19.5t19.5 8.5q16 0 38.5 -15.5t31.5 -43.5q13 2 24.5 6t17.5 7q5 2 11.5 5.5t13.5 3.5q8 0 14.5 -6.5t6.5 -16.5q0 -13 -12 -20q-16 -10 -37 -16t-36 -8q-3 -32 -16 -62t-34.5 -53t-51 -37.5t-63.5 -14.5q-42 0 -69 28.5t-27 73.5q0 29 9 52.5t26 43.5
q-16 0 -31.5 1t-30.5 3q8 -20 8 -53q0 -27 -10.5 -52.5t-29.5 -46t-44 -32.5t-53 -12q-39 0 -67 28t-28 70q0 31 14 61t38 57q8 8 15.5 14t16.5 6t15.5 -6t6.5 -16q0 -9 -5.5 -14t-12.5 -12q-20 -20 -31.5 -44t-11.5 -46q0 -23 14 -38t36 -15q18 0 34.5 8.5t29.5 22
t20.5 31.5t7.5 36q0 28 -7 43t-17 20q-3 1 -5.5 1t-5.5 1q-8 2 -13 7t-5 15q0 8 6 15t17 7q8 0 16.5 -2t13.5 -3q26 -5 49.5 -7.5t54.5 -2.5q16 0 30 1.5t26 3.5q3 1 8 2t10 1q8 0 14.5 -6.5t6.5 -16.5q0 -13 -12 -20q-42 -23 -60 -47t-18 -59q0 -26 14 -41.5t37 -15.5
q24 0 45 10.5t36.5 28.5t25.5 41t13 48q-22 8 -37 26.5t-17 43.5z" />
    <glyph glyph-name="guilsinglleft" unicode="&#x2039;" horiz-adv-x="160" 
d="M97 135q9 7 16 7q8 0 14 -5.5t6 -14.5t-7 -15q-11 -9 -21 -20.5t-20 -23.5l40 -40q6 -6 6 -14t-6 -14.5t-15 -6.5q-8 0 -14 6l-55 55q-6 6 -6 14q0 5 2.5 9t4.5 6q16 17 27 30t28 27z" />
    <glyph glyph-name="guilsinglright" unicode="&#x203a;" horiz-adv-x="310" 
d="M182 131q0 8 6 14t15 6q7 0 16 -7t18.5 -15.5t18 -17t14 -16.5t5.5 -14q0 -8 -5.5 -19t-26.5 -38q-7 -8 -13 -16.5t-11 -16.5q-5 -7 -10 -13t-15 -6q-8 0 -13.5 5t-5.5 14q0 7 3 13q11 20 25.5 37.5t28.5 37.5q-11 10 -42 36q-8 6 -8 16z" />
    <glyph glyph-name="Euro" unicode="&#x20ac;" horiz-adv-x="921" 
d="M845 230q8 0 14 -6t6 -16q0 -6 -3 -12.5t-8 -13.5q-29 -43 -71 -82.5t-91.5 -69.5t-104 -48t-108.5 -18q-65 0 -121 17t-98 51t-68.5 83.5t-33.5 114.5q-31 -4 -63.5 -6.5t-55.5 -2.5q-22 0 -35.5 4.5t-13.5 20.5q0 9 6 15.5t16 6.5q9 0 16.5 -1t18.5 -1q43 0 109 9
q0 45 12 93q-14 -2 -30 -3.5t-27 -1.5q-15 0 -31 1t-29 4t-21.5 9t-8.5 17q0 8 5.5 15.5t16.5 7.5q7 0 12.5 -1.5t11.5 -3t14 -3t20 -1.5q39 0 81 6q19 57 53.5 112t81 97.5t105 68.5t126.5 26q37 0 74 -10t66.5 -29.5t48 -49.5t18.5 -70q0 -61 -33 -106q-5 -6 -11 -12.5
t-16 -6.5q-8 0 -15 5t-7 15q0 8 4 13t8 11q25 36 25 81q0 27 -14 48t-37 36t-52 22.5t-59 7.5q-55 0 -104 -21t-89.5 -56t-72 -81t-50.5 -95q62 6 140 12t152 6q9 0 15.5 -6.5t6.5 -16.5q0 -9 -6.5 -15.5t-15.5 -6.5q-39 0 -80.5 -2t-81.5 -5t-77.5 -6.5t-68.5 -6.5
q-13 -46 -15 -92q46 8 92 14.5t98 11.5q18 2 38 2.5t31 0.5q7 0 15.5 -0.5t16.5 -3t13.5 -8t5.5 -14.5q0 -8 -5.5 -15.5t-16.5 -7.5q-5 0 -11 2t-26 2q-61 0 -121.5 -9t-127.5 -20q6 -55 28.5 -97.5t58.5 -71t84 -43.5t105 -15q48 0 97.5 16.5t94.5 44.5t83.5 65t64.5 77
q5 8 10 13t16 5z" />
    <glyph glyph-name="trademark" unicode="&#x2122;" horiz-adv-x="895" 
d="M481 808l-42 -8t-39.5 -8t-33 -7t-22.5 -4q-8 -45 -15 -92t-7 -103q0 -8 -6 -14.5t-14 -6.5q-21 0 -21 23q0 41 4.5 83t15.5 102q-32 -5 -57 -9t-37 -4q-7 0 -17 1t-19 4t-15 8.5t-6 15.5q0 8 5.5 14.5t13.5 6.5q6 0 9 -1.5l6 -3t8.5 -3t16.5 -1.5t38 4.5t62 11.5
q2 10 6 20.5t18 10.5q8 0 14 -6t6 -17q15 3 34 6.5t37 7.5t32.5 6.5t20.5 2.5t13 -4.5t7 -15.5q0 -17 -16 -20zM843 625q2 -5 3.5 -9.5t1.5 -10.5q0 -8 -5 -14t-15 -6q-14 0 -19 13q-6 14 -13 37t-14 49t-13.5 53t-11.5 48q-22 -45 -43.5 -90.5t-35.5 -94.5q-5 -15 -20 -15
q-8 0 -13.5 4t-5.5 13v4t2 10q-28 35 -43 76.5t-33 86.5q-16 -45 -28.5 -88.5t-18.5 -77.5q-2 -13 -6 -20.5t-19 -7.5q-8 0 -12.5 6t-4.5 14q0 12 6.5 41t16.5 62.5t21 66.5t19 54q4 9 9 15.5t15 6.5q12 0 19 -12q12 -22 20 -43.5t17 -44.5l18 -46t22 -43q20 51 45.5 103
t49.5 98q6 11 18 11q8 0 13.5 -6t5.5 -14q0 -4 -1.5 -7.5t-3.5 -7.5q2 -4 4 -13l4 -18q4 -17 9.5 -39t12 -47t13.5 -50t14 -47z" />
    <glyph glyph-name="glyph222" 
 />
    <glyph glyph-name="glyph223" 
 />
    </font>
</defs>
</svg>
