<?xml version="1.0" standalone="no"?>
<!DOCTYPE svg PUBLIC "-//W3C//DTD SVG 1.1//EN" "http://www.w3.org/Graphics/SVG/1.1/DTD/svg11.dtd" >
<svg xmlns="http://www.w3.org/2000/svg" xmlns:xlink="http://www.w3.org/1999/xlink" version="1.1">
<metadata>
Created by FontForge 20200427 at Tue Jan  3 08:38:10 2017
 By www
</metadata>
<defs>
<font id="JuventusFans-Bold" horiz-adv-x="0" >
  <font-face 
    font-family="Juventus Fans Bold"
    font-weight="700"
    font-stretch="normal"
    units-per-em="1000"
    panose-1="0 0 8 0 0 0 0 0 0 0"
    ascent="800"
    descent="-200"
    x-height="563"
    cap-height="695"
    bbox="-157 -190 742 1062"
    underline-thickness="50"
    underline-position="-100"
    unicode-range="U+0020-FB02"
  />
<missing-glyph horiz-adv-x="444" 
d="M364 750v-887h-282v887h282zM295 691h-146v-30h58v-33h-59v-29h147v29h-58v33h58v30zM237 576h-89v-92h147v30h-58v62zM207 546v-32h-30v32h30zM295 460h-147v-29h59v-33h-59v-29h89v62h58v29zM295 407h-29v-59h-118v-30h147v89zM295 299h-88v-50h30v20h29v-41h-89v71
h-29v-101h147v101zM295 145h-147v-100h147v100zM266 116v-42h-89v42h89zM295 24h-147v-29h62l-62 -42v-29h147v29h-90l62 42h28v29z" />
    <glyph glyph-name="fi" unicode="fi" horiz-adv-x="430" 
d="M383 0h-113v470h-101v-470h-113v470h-34v93h34v72q0 56 27.5 87t83.5 31h48v-98h-49v-92h217v-563zM267 742h119v-111h-119v111z" />
    <glyph glyph-name="fl" unicode="fl" horiz-adv-x="435" 
d="M388 0h-113v652h-111l3 -89h45v-93h-43v-470h-113v470h-34v93h34v69q0 56 27.5 87t83.5 31h221v-750z" />
    <glyph glyph-name=".notdef" horiz-adv-x="444" 
d="M364 750v-887h-282v887h282zM295 691h-146v-30h58v-33h-59v-29h147v29h-58v33h58v30zM237 576h-89v-92h147v30h-58v62zM207 546v-32h-30v32h30zM295 460h-147v-29h59v-33h-59v-29h89v62h58v29zM295 407h-29v-59h-118v-30h147v89zM295 299h-88v-50h30v20h29v-41h-89v71
h-29v-101h147v101zM295 145h-147v-100h147v100zM266 116v-42h-89v42h89zM295 24h-147v-29h62l-62 -42v-29h147v29h-90l62 42h28v29z" />
    <glyph glyph-name=".null" 
 />
    <glyph glyph-name="nonmarkingreturn" horiz-adv-x="333" 
 />
    <glyph glyph-name="space" unicode=" " horiz-adv-x="172" 
 />
    <glyph glyph-name="exclam" unicode="!" horiz-adv-x="213" 
d="M54 250l-11 445h126l-12 -445h-103zM54 0v156h105v-156h-105z" />
    <glyph glyph-name="quotedbl" unicode="&#x22;" horiz-adv-x="317" 
d="M44 664h89v-237h-89v237zM184 664h89v-237h-89v237z" />
    <glyph glyph-name="numbersign" unicode="#" horiz-adv-x="505" 
d="M474 375h-84v-113h84v-96h-84v-166h-102v166h-81v-166h-102v166h-74v96h74v113h-74v96h74v159h102v-159h81v159h102v-159h84v-96zM288 262v113h-81v-113h81z" />
    <glyph glyph-name="dollar" unicode="$" horiz-adv-x="392" 
d="M345.5 336.5q16.5 -27.5 16.5 -62.5v-117q0 -53 -30 -78t-79 -25h-9l3 -125h-104l3 125q-58 0 -86.5 24.5t-28.5 79.5v109h114v-119h105v65q0 36 -9.5 55t-37.5 31l-110 49q-31 14 -45 41t-14 59v108q0 53 30.5 82.5t76.5 29.5h4l-2 117h104l-2 -117h3q57 0 82 -27.5
t25 -83.5v-77l-111 -30v127h-100v-82q0 -28 9.5 -44.5t35.5 -27.5l105 -45q35 -14 51.5 -41.5z" />
    <glyph glyph-name="percent" unicode="%" horiz-adv-x="528" 
d="M81 -11l-56 36l426 690l57 -34zM231 416q-22 -22 -59 -22h-53q-38 0 -59 21.5t-21 49.5v172q0 28 21 49.5t59 21.5h53q38 0 59.5 -22t21.5 -49v-172q0 -27 -22 -49zM172 465v172h-52v-172h52zM463 9q-22 -22 -59 -22h-54q-38 0 -59 21.5t-21 49.5v172q0 28 21 49.5
t59 21.5h54q38 0 59.5 -22t21.5 -49v-172q0 -27 -22 -49zM403 58v172h-52v-172h52z" />
    <glyph glyph-name="ampersand" unicode="&#x26;" horiz-adv-x="534" 
d="M59 23q28 -28 84 -28h112q31 0 53 15t29 43h16v-112h105v131q0 25 -4 38t-20 23v16q41 4 59.5 26.5t18.5 51.5v178h-105v-211l-132 174l78 65q22 18 28 35t6 45v94q0 93 -106 93h-115q-45 0 -76 -27t-31 -69v-71q0 -32 5.5 -54t22.5 -43l48 -59l-73 -59
q-16 -13 -22.5 -28t-7.5 -31t-1 -53v-105q0 -50 28 -78zM278 605v-85q0 -10 -3.5 -17.5t-14.5 -17.5l-45 -41l-38 56q-11 17 -11 30v75h112zM140 237q0 8 3 12.5t8 9t8 7.5l35 33l147 -194v-4h-201v136z" />
    <glyph glyph-name="quotesingle" unicode="'" horiz-adv-x="177" 
d="M44 664h89v-237h-89v237z" />
    <glyph glyph-name="parenleft" unicode="(" horiz-adv-x="245" 
d="M57.5 80q-23.5 87 -23.5 236q0 101 9.5 169t30 118.5t55.5 104.5h115q-54 -64 -79.5 -154.5t-25.5 -234.5q0 -145 27 -237t81 -151h-116q-50 62 -73.5 149z" />
    <glyph glyph-name="parenright" unicode=")" horiz-adv-x="245" 
d="M-2 -69q54 59 81 151t27 237q0 144 -25.5 234.5t-79.5 154.5h115q35 -54 55.5 -104.5t30 -118.5t9.5 -169q0 -149 -23.5 -236t-73.5 -149h-116z" />
    <glyph glyph-name="asterisk" unicode="*" horiz-adv-x="379" 
d="M350 650l-88 -58l88 -58l-47 -66l-76 55v-91h-75v91l-76 -55l-47 66l88 58l-88 58l47 66l76 -55v87h75v-87l76 55z" />
    <glyph glyph-name="plus" unicode="+" horiz-adv-x="404" 
d="M376 361v-96h-124v-130h-101v130h-123v96h123v130h101v-130h124z" />
    <glyph glyph-name="comma" unicode="," horiz-adv-x="188" 
d="M148 156v-126q0 -41 -28 -70.5t-77 -29.5v226h105z" />
    <glyph glyph-name="hyphen" unicode="-" horiz-adv-x="286" 
d="M45 352h196v-115h-196v115z" />
    <glyph glyph-name="period" unicode="." horiz-adv-x="193" 
d="M44 176h105v-176h-105v176z" />
    <glyph glyph-name="slash" unicode="/" horiz-adv-x="317" 
d="M301 726l-177 -740h-108l177 740h108z" />
    <glyph glyph-name="zero" unicode="0" horiz-adv-x="443" 
d="M365 25q-30 -28 -86 -28h-115q-116 0 -116 111v479q0 111 116 111h115q116 0 116 -111v-479q0 -55 -30 -83zM281 95v505h-119v-505h119z" />
    <glyph glyph-name="one" unicode="1" horiz-adv-x="372" 
d="M278 101h82v-101h-319v101h121v426h-129v98h127l15 73h103v-597z" />
    <glyph glyph-name="two" unicode="2" horiz-adv-x="415" 
d="M41 120q0 42 8 68.5t29.5 48.5t64.5 48q49 29 71.5 47t30.5 36.5t8 48.5v188h-98v-221h-111v204q0 110 116 110h93q116 0 116 -110v-192q0 -43 -8.5 -68t-33.5 -47.5t-77 -52.5q-42 -24 -63 -40t-28.5 -29.5t-7.5 -30.5v-19h230v-109h-340v120z" />
    <glyph glyph-name="three" unicode="3" horiz-adv-x="407" 
d="M37 225h112v-134h101v206h-142l10 103h127v205h-92v-135h-111v118q0 110 116 110h87q116 0 116 -110v-155q0 -29 -17.5 -48.5t-46.5 -24.5v-13q31 -6 50.5 -27.5t19.5 -57.5v-116q0 -57 -8.5 -87.5t-37.5 -46t-89 -15.5h-75q-58 0 -89 27.5t-31 81.5v119z" />
    <glyph glyph-name="four" unicode="4" horiz-adv-x="448" 
d="M13 114v98l215 483h120v-486h85v-95h-85v-114h-116v114h-219zM232 209l17 292h-17l-11 -41q-18 -67 -30 -100l-58 -151h99z" />
    <glyph glyph-name="five" unicode="5" horiz-adv-x="407" 
d="M157 587v-126h14q8 24 25.5 37t50.5 13h23q43 0 68 -27t25 -80v-258q0 -57 -8.5 -87.5t-37.5 -46t-89 -15.5h-71q-113 0 -113 109v167h107v-176h96v311h-90v-60l-111 20v327h319v-108h-208z" />
    <glyph glyph-name="six" unicode="6" horiz-adv-x="428" 
d="M270 485v118h-106v-240h14q18 63 87 63h11q108 0 108 -109v-209q0 -111 -116 -111h-104q-116 0 -116 111v479q0 111 116 111h106q116 0 116 -111v-102h-116zM268 323h-104v-226h104v226z" />
    <glyph glyph-name="seven" unicode="7" horiz-adv-x="380" 
d="M368 564q-64 -51 -97.5 -106t-45.5 -114t-12 -135v-209h-120v183q0 141 36.5 232t128.5 159v12h-246v109h356v-131z" />
    <glyph glyph-name="eight" unicode="8" horiz-adv-x="434" 
d="M377 325q16 -18 16 -50v-169q0 -54 -31 -81.5t-89 -27.5h-107q-59 0 -92 28t-33 81v173q0 52 60 74v13q-27 10 -40.5 26t-13.5 45v147q0 55 31.5 83t89.5 28h103q116 0 116 -110v-148q0 -29 -13.5 -45t-40.5 -26v-13q28 -10 44 -28zM272 600h-110v-194h110v194zM157 93
h120v220h-120v-220z" />
    <glyph glyph-name="nine" unicode="9" horiz-adv-x="428" 
d="M380 587v-479q0 -111 -116 -111h-105q-116 0 -116 111v116h116v-130h105v252h-14q-14 -57 -97 -57h-2q-108 0 -108 109v189q0 111 116 111h105q116 0 116 -111zM159 392h105v206h-105v-206z" />
    <glyph glyph-name="colon" unicode=":" horiz-adv-x="195" 
d="M45 436h105v-176h-105v176zM45 176h105v-176h-105v176z" />
    <glyph glyph-name="semicolon" unicode=";" horiz-adv-x="199" 
d="M47 436h105v-156h-105v156zM152 156v-126q0 -41 -28 -70.5t-77 -29.5v226h105z" />
    <glyph glyph-name="less" unicode="&#x3c;" horiz-adv-x="363" 
d="M332 454l-207 -145l207 -147l-56 -77l-255 181v86l256 180z" />
    <glyph glyph-name="equal" unicode="=" horiz-adv-x="469" 
d="M45 428h379v-91h-379v91zM45 256h379v-91h-379v91z" />
    <glyph glyph-name="greater" unicode="&#x3e;" horiz-adv-x="363" 
d="M86 532l256 -180v-86l-255 -181l-56 77l207 147l-207 145z" />
    <glyph glyph-name="question" unicode="?" horiz-adv-x="391" 
d="M200 351q27 20 37 36.5t10 43.5v174h-115v-161l-111 20v124q0 110 116 110h110q116 0 116 -110v-179q0 -32 -15 -58.5t-47 -51.5l-111 -87l-64 82zM131 156h105v-156h-105v156z" />
    <glyph glyph-name="at" unicode="@" horiz-adv-x="557" 
d="M216 302q0 51 25 75.5t77 24.5h78v169h-246v-605h370l-20 -96h-351q-48 0 -74.5 28t-26.5 82v576q0 110 115 110h235q56 0 83.5 -31t27.5 -87v-469h-102l-5 74h-5q-4 -37 -25.5 -58.5t-55.5 -21.5h-7q-93 0 -93 110v119zM324 180h72v134h-72v-134z" />
    <glyph glyph-name="A" unicode="A" horiz-adv-x="433" 
d="M354.5 671q29.5 -29 29.5 -84v-587h-116v194h-103v-194h-116v590q0 110 116 110h103q57 0 86.5 -29zM165 292h103v308h-103v-308z" />
    <glyph glyph-name="B" unicode="B" horiz-adv-x="436" 
d="M400 270v-161q0 -54 -31 -81.5t-89 -27.5h-230v695h221q116 0 116 -110v-142q0 -32 -16.5 -49t-47.5 -24v-13q77 -16 77 -87zM271 596h-105v-187h105v187zM166 99h115v212h-115v-212z" />
    <glyph glyph-name="C" unicode="C" horiz-adv-x="420" 
d="M266 287h114v-181q0 -111 -116 -111h-100q-116 0 -116 111v483q0 111 116 111h98q116 0 116 -111v-166h-114v177h-100v-502h102v189z" />
    <glyph glyph-name="D" unicode="D" horiz-adv-x="430" 
d="M382 584v-472q0 -54 -29.5 -83t-86.5 -29h-216v695h216q116 0 116 -111zM166 601v-507h100v507h-100z" />
    <glyph glyph-name="E" unicode="E" horiz-adv-x="360" 
d="M328 589h-162v-184h134l-20 -102h-114v-197h170l-20 -106h-266v695h258z" />
    <glyph glyph-name="F" unicode="F" horiz-adv-x="337" 
d="M327 587h-161v-182h137l-20 -102h-117v-303h-116v695h257z" />
    <glyph glyph-name="G" unicode="G" horiz-adv-x="423" 
d="M48 592q0 53 29.5 80.5t86.5 27.5h100q114 0 114 -108v-138h-114v151h-100v-501h100v139h-52v110h166v-353h-106l-2 67h-14q-2 -33 -25 -53t-64 -21h-14q-48 0 -76.5 29.5t-28.5 81.5v488z" />
    <glyph glyph-name="H" unicode="H" horiz-adv-x="440" 
d="M275 695h115v-695h-115v304h-109v-304h-116v695h116v-288h109v288z" />
    <glyph glyph-name="I" unicode="I" horiz-adv-x="216" 
d="M166 0h-116v695h116v-695z" />
    <glyph glyph-name="J" unicode="J" horiz-adv-x="312" 
d="M266 695v-490q0 -96 -57 -150.5t-169 -54.5h-21v107h20q55 0 83 24t28 77v384h-108v103h224z" />
    <glyph glyph-name="K" unicode="K" horiz-adv-x="443" 
d="M378.5 314.5q24.5 -26.5 24.5 -79.5v-235h-121v206q0 49 -16 72.5t-52 23.5h-48v-302h-116v695h116v-283h40q68 0 68 81v202h119v-203q0 -53 -22.5 -83.5t-67.5 -42.5v-11q51 -14 75.5 -40.5z" />
    <glyph glyph-name="L" unicode="L" horiz-adv-x="318" 
d="M166 109h153l-20 -109h-249v695h116v-586z" />
    <glyph glyph-name="M" unicode="M" horiz-adv-x="543" 
d="M166 496h-9l7 -160v-336h-114v695h137l82 -283h5l82 283h137v-695h-114v331l7 165h-9l-69 -234h-73z" />
    <glyph glyph-name="N" unicode="N" horiz-adv-x="437" 
d="M276 439v256h111v-695h-111v237l-109 237h-6v-474h-111v695h109l110 -256h7z" />
    <glyph glyph-name="O" unicode="O" horiz-adv-x="434" 
d="M356 23q-30 -28 -86 -28h-106q-116 0 -116 111v483q0 111 116 111h106q116 0 116 -111v-483q0 -55 -30 -83zM270 93v509h-106v-509h106z" />
    <glyph glyph-name="P" unicode="P" horiz-adv-x="417" 
d="M385 584v-254q0 -111 -116 -111h-103v-219h-116v695h219q116 0 116 -111zM166 594v-274h103v274h-103z" />
    <glyph glyph-name="Q" unicode="Q" horiz-adv-x="434" 
d="M386 589v-483q0 -55 -30 -83t-86 -28h-7l3 -124h-98l3 124h-7q-116 0 -116 111v483q0 111 116 111h106q116 0 116 -111zM270 93v509h-106v-509h106z" />
    <glyph glyph-name="R" unicode="R" horiz-adv-x="429" 
d="M50 695h220q58 0 85.5 -26.5t27.5 -83.5v-240q0 -31 -19.5 -53.5t-47.5 -33.5v-5q73 -24 73 -96v-157h-119v205h-104v-205h-116v695zM166 301h103v295h-103v-295z" />
    <glyph glyph-name="S" unicode="S" horiz-adv-x="405" 
d="M154 230v-138h99v96q0 35 -10 54t-37 37l-104 69q-29 19 -44 49t-15 61v130q0 53 30.5 82.5t76.5 29.5h107q57 0 82 -27.5t25 -83.5v-109l-113 -30v156h-98v-105q0 -27 10 -44.5t35 -33.5l99 -65q68 -45 68 -124v-136q0 -53 -30 -78t-79 -25h-100q-59 0 -87.5 24.5
t-28.5 79.5v131h114z" />
    <glyph glyph-name="T" unicode="T" horiz-adv-x="342" 
d="M321 695l20 -109h-112v-586h-116v586h-112l20 109h300z" />
    <glyph glyph-name="U" unicode="U" horiz-adv-x="437" 
d="M165 96h107v599h116v-589q0 -111 -116 -111h-107q-116 0 -116 111v589h116v-599z" />
    <glyph glyph-name="V" unicode="V" horiz-adv-x="431" 
d="M245.5 158.5q28.5 45.5 28.5 111.5v425h116v-429q0 -128 -73.5 -197t-209.5 -69h-57v695h116v-582h6q45 0 73.5 45.5z" />
    <glyph glyph-name="W" unicode="W" horiz-adv-x="632" 
d="M49 695h114v-591h98v591h110v-591h98v591h114v-587q0 -55 -29.5 -84t-86.5 -29h-50q-39 0 -65 18t-39 56h-3q-11 -37 -37 -55.5t-58 -18.5h-50q-57 0 -86.5 29t-29.5 84v587z" />
    <glyph glyph-name="X" unicode="X" horiz-adv-x="432" 
d="M218 262l62 -105q6 -11 6 -27v-130h111v118q0 39 -4.5 59t-20.5 45l-89 140l83 125q16 25 20.5 44t4.5 57v107h-110v-116q0 -16 -5 -26l-56 -102h-6l-56 101q-7 14 -7 27v116h-110v-94q0 -47 4.5 -68.5t20.5 -45.5l83 -125l-89 -140q-16 -26 -20.5 -46.5t-4.5 -65.5v-110
h111v129q0 17 6 28l60 105h6z" />
    <glyph glyph-name="Y" unicode="Y" horiz-adv-x="408" 
d="M371 695v-393q0 -106 -108 -111v-191h-116v191q-110 3 -110 111v393h116v-403h102v403h116z" />
    <glyph glyph-name="Z" unicode="Z" horiz-adv-x="374" 
d="M343 695v-105l-196 -486h198v-104h-320v106l194 485h-183v104h307z" />
    <glyph glyph-name="bracketleft" unicode="[" horiz-adv-x="253" 
d="M50 708h180v-92h-79v-593h79v-92h-180v777z" />
    <glyph glyph-name="backslash" unicode="\" horiz-adv-x="317" 
d="M16 726h108l177 -740h-108z" />
    <glyph glyph-name="bracketright" unicode="]" horiz-adv-x="253" 
d="M203 708v-777h-180v92h79v593h-79v92h180z" />
    <glyph glyph-name="asciicircum" unicode="^" horiz-adv-x="400" 
d="M379 400h-121l-60 215l-61 -215h-116l135 350h84z" />
    <glyph glyph-name="underscore" unicode="_" horiz-adv-x="346" 
d="M20 -29h306v-93h-306v93z" />
    <glyph glyph-name="grave" unicode="`" horiz-adv-x="168" 
d="M116 892l52 -146h-95l-73 146h116z" />
    <glyph glyph-name="a" unicode="a" horiz-adv-x="392" 
d="M32 187q0 46 27 69.5t70 23.5h105v198h-82v-139h-106v117q0 110 115 110h75q56 0 83.5 -31t27.5 -87v-448h-105l-2 65h-14q-4 -33 -24.5 -52t-56.5 -19h-22q-43 0 -67 26.5t-24 79.5v87zM142 92h92v103h-92v-103z" />
    <glyph glyph-name="b" unicode="b" horiz-adv-x="414" 
d="M45 750h113v-249h14q13 68 78 68h29q44 0 67.5 -26t23.5 -80v-353q0 -113 -113 -113h-106q-58 0 -82 26.5t-24 83.5v643zM158 90h99v380h-99v-380z" />
    <glyph glyph-name="c" unicode="c" horiz-adv-x="386" 
d="M44 453q0 113 113 113h78q113 0 113 -110v-116h-108v136h-83v-391h85v152h106v-130q0 -55 -27 -82.5t-84 -27.5h-80q-113 0 -113 113v343z" />
    <glyph glyph-name="d" unicode="d" horiz-adv-x="416" 
d="M369 0h-110l-3 62h-14q-13 -68 -78 -68h-29q-43 0 -67 26.5t-24 79.5v350q0 113 113 113h99v187h113v-750zM256 472h-99v-380h99v380z" />
    <glyph glyph-name="e" unicode="e" horiz-adv-x="391" 
d="M44 453q0 113 111 113h88q57 0 84 -27.5t27 -82.5v-192h-199v-177h90v112h103v-92q0 -56 -25.5 -83t-82.5 -27h-85q-58 0 -84.5 26t-26.5 87v343zM155 348h90v127h-90v-127z" />
    <glyph glyph-name="f" unicode="f" horiz-adv-x="244" 
d="M166 655v-92h65v-93h-62v-470h-113v470h-34v93h34v72q0 56 27.5 87t83.5 31h70v-98h-71z" />
    <glyph glyph-name="g" unicode="g" horiz-adv-x="400" 
d="M295 478v-14q47 -7 47 -49v-98q0 -55 -26.5 -82.5t-81.5 -27.5h-85h-9v-56h130q105 0 105 -106v-65q0 -56 -26.5 -83t-81.5 -27h-122q-106 0 -106 87v16q0 59 78 68v14h-23q-28 0 -44.5 16.5t-17.5 46.5v16q0 33 20 49t68 18v8q-79 15 -79 111v133q0 113 108 113h238v-88
h-92zM236 294v183h-89v-183h89zM146 49v-89h123v89h-123z" />
    <glyph glyph-name="h" unicode="h" horiz-adv-x="413" 
d="M345 540q23 -29 23 -84v-456h-113v466h-95v-466h-113v750h113v-249h14q13 68 79 68h26q43 0 66 -29z" />
    <glyph glyph-name="i" unicode="i" horiz-adv-x="207" 
d="M44 742h119v-111h-119v111zM160 563v-563h-113v563h113z" />
    <glyph glyph-name="j" unicode="j" horiz-adv-x="211" 
d="M48 742h119v-111h-119v111zM51 563h113v-580q0 -113 -111 -113h-64v99h62v594z" />
    <glyph glyph-name="k" unicode="k" horiz-adv-x="409" 
d="M359 242.5q13 -21.5 13 -61.5v-181h-113v218h-99v-218h-113v750h113v-439h86v252h111v-210q0 -55 -43 -70v-12q32 -7 45 -28.5z" />
    <glyph glyph-name="l" unicode="l" horiz-adv-x="207" 
d="M160 750v-750h-113v750h113z" />
    <glyph glyph-name="m" unicode="m" horiz-adv-x="613" 
d="M545.5 540q22.5 -29 22.5 -84v-456h-113v458h-90v-1v-457h-113v458h-92v-458h-113v563h110l2 -62h15q13 68 79 68h24q33 0 54.5 -17t28.5 -51h12q13 68 79 68h29q43 0 65.5 -29z" />
    <glyph glyph-name="n" unicode="n" horiz-adv-x="413" 
d="M345.5 541.5q22.5 -27.5 22.5 -81.5v-460h-113v466h-95v-466h-113v563h110l2 -62h15q13 68 79 68h27q43 0 65.5 -27.5z" />
    <glyph glyph-name="o" unicode="o" horiz-adv-x="405" 
d="M44 456q0 110 111 110h95q111 0 111 -110v-346q0 -56 -26.5 -84.5t-84.5 -28.5h-95q-58 0 -84.5 28.5t-26.5 84.5v346zM157 88h91v387h-91v-387z" />
    <glyph glyph-name="p" unicode="p" horiz-adv-x="415" 
d="M47 563h108l5 -62h14q6 33 25.5 50.5t56.5 17.5h21q94 0 94 -106v-350q0 -113 -109 -113h-102v-137h-113v700zM160 90h98v380h-98v-380z" />
    <glyph glyph-name="q" unicode="q" horiz-adv-x="414" 
d="M369 -130h-113v192h-14q-13 -68 -78 -68h-28q-43 0 -67.5 26.5t-24.5 79.5v353q0 113 115 113h104q58 0 82 -26.5t24 -83.5v-586zM256 472h-99v-380h99v380z" />
    <glyph glyph-name="r" unicode="r" horiz-adv-x="359" 
d="M47 0v563h108l5 -62h14q6 30 25.5 49t43.5 19h20q38 0 56.5 -26t18.5 -80v-184h-109v187h-69v-466h-113z" />
    <glyph glyph-name="s" unicode="s" horiz-adv-x="373" 
d="M37 214h106v-133h85v84q0 17 -5 26t-15 16l-116 77q-55 37 -55 93v76q0 113 111 113h77q57 0 84 -27.5t27 -82.5v-97h-106v123h-85v-79q0 -17 5 -26t17 -17l112 -75q29 -20 43 -43.5t14 -56.5v-75q0 -113 -111 -113h-77q-57 0 -84 27.5t-27 82.5v107z" />
    <glyph glyph-name="t" unicode="t" horiz-adv-x="249" 
d="M243 563v-95h-73v-468h-113v468h-34v95h42v105h105v-105h73z" />
    <glyph glyph-name="u" unicode="u" horiz-adv-x="413" 
d="M366 563v-563h-110l-2 62h-15q-13 -68 -79 -68h-27q-43 0 -65.5 27.5t-22.5 81.5v460h113v-462h95v462h113z" />
    <glyph glyph-name="v" unicode="v" horiz-adv-x="386" 
d="M237 287q10 72 10 148v128h113v-115q0 -107 -18 -188.5t-42.5 -136.5t-64.5 -125h-84q-40 70 -64.5 125t-42.5 136.5t-18 188.5v115h113v-128q0 -77 9.5 -148.5t39.5 -172.5h10q29 101 39 173z" />
    <glyph glyph-name="w" unicode="w" horiz-adv-x="592" 
d="M59 181.5q-32 99.5 -32 236.5v145h113v-128q0 -80 6 -147t34 -182h10q31 70 40.5 126t9.5 116v37v178h113v-178q0 -50 2 -81t12.5 -80.5t35.5 -117.5h10q27 115 33.5 183.5t6.5 145.5v128h113v-145q0 -131 -31.5 -229t-85.5 -191h-78q-40 67 -67 155h-11
q-28 -85 -71 -155h-78q-53 84 -85 183.5z" />
    <glyph glyph-name="x" unicode="x" horiz-adv-x="375" 
d="M190 198l42 -88q5 -10 5 -21v-89h113v71q0 27 -5.5 42.5t-20.5 41.5l-77 134l73 119q14 23 18.5 38t4.5 44v73h-113v-88q0 -11 -5 -21l-35 -76h-5l-35 75q-5 11 -5 22v88h-113v-62q0 -36 4.5 -54t18.5 -39l74 -119l-81 -134q-14 -24 -18.5 -40.5t-4.5 -50.5v-64h113v88
q0 9 2.5 14.5t3.5 7.5l42 88h4z" />
    <glyph glyph-name="y" unicode="y" horiz-adv-x="405" 
d="M363 563v-410q0 -54 -22.5 -81.5t-65.5 -27.5h-16v-174h-113v174h-16q-43 0 -65.5 27.5t-22.5 81.5v410h113v-425h95v425h113z" />
    <glyph glyph-name="z" unicode="z" horiz-adv-x="330" 
d="M306 563v-93l-162 -373h150v-97h-270v97l161 373h-149v93h270z" />
    <glyph glyph-name="braceleft" unicode="{" horiz-adv-x="255" 
d="M72 283h-59v92h59v223q0 56 24.5 83t81.5 27h54v-82h-55v-211q0 -31 -17.5 -52.5t-46.5 -29.5v-9q64 -18 64 -95v-216h55v-82h-54q-57 0 -81.5 27t-24.5 83v242z" />
    <glyph glyph-name="bar" unicode="|" horiz-adv-x="207" 
d="M157 -137h-107v887h107v-887z" />
    <glyph glyph-name="braceright" unicode="}" horiz-adv-x="255" 
d="M158.5 -42q-24.5 -27 -81.5 -27h-54v82h55v216q0 77 64 95v9q-29 8 -46.5 29.5t-17.5 52.5v211h-55v82h54q57 0 81.5 -27t24.5 -83v-223h59v-92h-59v-242q0 -56 -24.5 -83z" />
    <glyph glyph-name="asciitilde" unicode="~" horiz-adv-x="432" 
d="M45 439h90v-160h25q29 162 134 162h16q33 0 54.5 -23t21.5 -64v-160h-90v162h-26q-13 -87 -49.5 -126.5t-77.5 -39.5h-12q-40 0 -63 23.5t-23 73.5v152z" />
    <glyph glyph-name="exclamdown" unicode="&#xa1;" horiz-adv-x="208" 
d="M52 605h105v-156h-105v156zM52 355h103l12 -445h-126z" />
    <glyph glyph-name="cent" unicode="&#xa2;" horiz-adv-x="391" 
d="M247 413v93h-103v-314h103v105h114v-89q0 -111 -116 -111h-3l3 -125h-104l3 125q-113 2 -113 111v279q0 110 114 111l-4 147h104l-4 -147h4q116 0 116 -111v-74h-114z" />
    <glyph glyph-name="sterling" unicode="&#xa3;" horiz-adv-x="452" 
d="M430 102l-20 -102h-377v102h58v121h-66v89h66v275q0 111 116 111h78q116 0 116 -111v-164h-114v183h-83v-294h170l-20 -89h-150v-121h226z" />
    <glyph glyph-name="currency" unicode="&#xa4;" horiz-adv-x="642" 
 />
    <glyph glyph-name="yen" unicode="&#xa5;" horiz-adv-x="432" 
d="M277 173v-31h115v-64h-115v-78h-116v78h-117v64h117v31h-117v64h117v27q-110 3 -110 111v320h116v-330h102v330h116v-320q0 -106 -108 -111v-27h115v-64h-115z" />
    <glyph glyph-name="brokenbar" unicode="&#xa6;" horiz-adv-x="213" 
d="M53 418v332h107v-332h-107zM160 195v-332h-107v332h107z" />
    <glyph glyph-name="section" unicode="&#xa7;" horiz-adv-x="496" 
d="M462 313q13 -30 13 -73v-62q0 -49 -26.5 -74.5t-71.5 -28.5v-74q0 -53 -30 -78t-79 -25h-71q-59 0 -87.5 24.5t-28.5 79.5v101h105v-111h86v49q0 35 -10 54t-37 37l-145 96q-29 19 -44 49t-15 61v47q0 48 25.5 77t65.5 34v12v80q0 53 30.5 82.5t76.5 29.5h76
q57 0 82 -27.5t25 -83.5v-94h-105v114h-82v-58q0 -29 7 -46t30 -32l165 -109q32 -21 45 -51zM353 169h17v25q0 40 -6 57t-31 34l-170 113q-11 8 -22 20h-17v-37q0 -27 10 -44.5t35 -33.5l140 -92q28 -19 44 -42z" />
    <glyph glyph-name="dieresis" unicode="&#xa8;" horiz-adv-x="207" 
d="M0 880h80v-124h-80v124zM127 880h80v-124h-80v124z" />
    <glyph glyph-name="copyright" unicode="&#xa9;" horiz-adv-x="683" 
d="M46 74v474q0 79 83 79h425q83 0 83 -79v-474q0 -39 -21 -59t-62 -20h-425q-83 0 -83 79zM130 72h423v478h-423v-478zM235.5 146.5q-19.5 18.5 -19.5 54.5v212q0 37 20.5 56.5t67.5 19.5h76q82 0 82 -76v-72h-83v74h-80v-216h81v81h82v-79q0 -36 -20 -54.5t-64 -18.5h-80
q-43 0 -62.5 18.5z" />
    <glyph glyph-name="ordfeminine" unicode="&#xaa;" horiz-adv-x="360" 
d="M31 366q0 46 27 69.5t70 23.5h82v86h-68v-56h-96v27q0 56 25.5 83t82.5 27h49q56 0 84.5 -31t28.5 -87v-258h-98l-2 58h-14q-4 -29 -23 -46.5t-50 -17.5h-16q-42 0 -62 26t-20 80v16zM134 328h76v67l-76 -1v-66z" />
    <glyph glyph-name="guillemotleft" unicode="&#xab;" horiz-adv-x="336" 
d="M144 150l-106 62v154l106 62v-115l-60 -20v-8l60 -20v-115zM289 150l-106 62v154l106 62v-115l-60 -20v-8l60 -20v-115z" />
    <glyph glyph-name="uni00AD" unicode="&#xad;" horiz-adv-x="286" 
d="M45 352h196v-115h-196v115z" />
    <glyph glyph-name="registered" unicode="&#xae;" horiz-adv-x="683" 
d="M616 15q-21 -20 -62 -20h-425q-83 0 -83 79v474q0 79 83 79h425q83 0 83 -79v-474q0 -39 -21 -59zM553 72v478h-423v-478h423zM445.5 467.5q19.5 -18.5 19.5 -54.5v-83q0 -22 -11.5 -32t-35.5 -18v-10q24 -4 38 -20t14 -40v-79h-87v103h-80v-103h-79v355h159
q43 0 62.5 -18.5zM303 415v-107h79v107h-79z" />
    <glyph glyph-name="macron" unicode="&#xaf;" horiz-adv-x="220" 
d="M0 861h220v-76h-220v76z" />
    <glyph glyph-name="degree" unicode="&#xb0;" horiz-adv-x="392" 
d="M37 529q0 110 111 110h97q111 0 111 -110v-97q0 -56 -26.5 -84.5t-84.5 -28.5h-97q-58 0 -84.5 28.5t-26.5 84.5v97zM137 407h119v144h-119v-144z" />
    <glyph glyph-name="plusminus" unicode="&#xb1;" horiz-adv-x="440" 
d="M271 449h123v-94h-123v-70h-103v70h-122v94h122v132h103v-132zM46 129v94h348v-94h-348z" />
    <glyph glyph-name="uni00B2" unicode="&#xb2;" horiz-adv-x="378" 
d="M40 358q0 50 22.5 78t87.5 49q51 16 66.5 26.5t15.5 30.5v63h-87v-92h-102v75q0 110 116 110h73q51 0 78.5 -28t27.5 -82v-58q0 -28 -8 -47t-31.5 -35.5t-69.5 -30.5q-35 -11 -52 -18.5t-22 -14t-5 -16.5v-13h189v-102h-299v105z" />
    <glyph glyph-name="uni00B3" unicode="&#xb3;" horiz-adv-x="380" 
d="M36 405h108v-71h85v101h-106l10 79h91v105h-76v-84h-107v61q0 102 112 102h71q57 0 84.5 -24.5t27.5 -69.5v-54q0 -29 -16 -47t-44 -23v-13q30 -6 48 -24.5t18 -47.5v-56q0 -89 -111 -89h-79q-116 0 -116 101v54z" />
    <glyph glyph-name="acute" unicode="&#xb4;" horiz-adv-x="168" 
d="M52 892h116l-73 -146h-95z" />
    <glyph glyph-name="uni00B5" unicode="&#xb5;" horiz-adv-x="417" 
d="M369 563v-563h-110l-2 62h-15q-13 -68 -79 -68h-13l11 -131h-113v700h113v-462h95v462h113z" />
    <glyph glyph-name="paragraph" unicode="&#xb6;" horiz-adv-x="558" 
d="M35 584q0 111 116 111h388v-87h-66v-608h-106v608h-87v-608h-106v229h-23q-116 0 -116 111v244z" />
    <glyph glyph-name="periodcentered" unicode="&#xb7;" horiz-adv-x="195" 
d="M45 416h105v-156h-105v156z" />
    <glyph glyph-name="cedilla" unicode="&#xb8;" horiz-adv-x="163" 
d="M163 -53q0 -53 -24 -74.5t-71 -21.5h-68v93h99v60h64v-57z" />
    <glyph glyph-name="uni00B9" unicode="&#xb9;" horiz-adv-x="345" 
d="M250 348h82v-95h-289v95h101v191h-109v92h107l15 70h93v-353z" />
    <glyph glyph-name="ordmasculine" unicode="&#xba;" horiz-adv-x="364" 
d="M37 516q0 110 111 110h68q111 0 111 -110v-156q0 -56 -26.5 -84.5t-84.5 -28.5h-68q-58 0 -84.5 28.5t-26.5 84.5v156zM143 334h78v205h-78v-205z" />
    <glyph glyph-name="guillemotright" unicode="&#xbb;" horiz-adv-x="336" 
d="M47 150v115l60 20v8l-60 20v115l106 -62v-154zM192 150v115l60 20v8l-60 20v115l106 -62v-154z" />
    <glyph glyph-name="questiondown" unicode="&#xbf;" horiz-adv-x="389" 
d="M258 449h-105v156h105v-156zM189 254q-27 -20 -37 -36.5t-10 -43.5v-174h115v161l111 -20v-124q0 -110 -116 -110h-110q-116 0 -116 110v179q0 32 15 58.5t47 51.5l111 87l64 -82z" />
    <glyph glyph-name="Agrave" unicode="&#xc0;" horiz-adv-x="433" 
d="M354.5 671q29.5 -29 29.5 -84v-587h-116v194h-103v-194h-116v590q0 110 116 110h103q57 0 86.5 -29zM165 292h103v308h-103v-308zM223 892l52 -146h-95l-73 146h116z" />
    <glyph glyph-name="Aacute" unicode="&#xc1;" horiz-adv-x="433" 
d="M354.5 671q29.5 -29 29.5 -84v-587h-116v194h-103v-194h-116v590q0 110 116 110h103q57 0 86.5 -29zM165 292h103v308h-103v-308zM204 892h116l-73 -146h-95z" />
    <glyph glyph-name="Acircumflex" unicode="&#xc2;" horiz-adv-x="433" 
d="M354.5 671q29.5 -29 29.5 -84v-587h-116v194h-103v-194h-116v590q0 110 116 110h103q57 0 86.5 -29zM165 292h103v308h-103v-308zM106 746l42 146h134l42 -146h-95l-6 110h-17l-5 -110h-95z" />
    <glyph glyph-name="Atilde" unicode="&#xc3;" horiz-adv-x="433" 
d="M354.5 671q29.5 -29 29.5 -84v-587h-116v194h-103v-194h-116v590q0 110 116 110h103q57 0 86.5 -29zM165 292h103v308h-103v-308zM106 889h60v-80h16q14 44 34.5 63t51.5 19q63 0 63 -57v-80h-60v82h-17q-13 -45 -33.5 -65.5t-53.5 -20.5t-47 13.5t-14 43.5v82z" />
    <glyph glyph-name="Adieresis" unicode="&#xc4;" horiz-adv-x="433" 
d="M354.5 671q29.5 -29 29.5 -84v-587h-116v194h-103v-194h-116v590q0 110 116 110h103q57 0 86.5 -29zM165 292h103v308h-103v-308zM108 880h80v-124h-80v124zM235 880h80v-124h-80v124z" />
    <glyph glyph-name="Aring" unicode="&#xc5;" horiz-adv-x="433" 
d="M354.5 671q29.5 -29 29.5 -84v-587h-116v194h-103v-194h-116v590q0 110 116 110h103q57 0 86.5 -29zM165 292h103v308h-103v-308zM106 823q0 42 26 55.5t86 13.5q58 0 85 -14t27 -55v-22q0 -41 -27 -55t-85 -14q-60 0 -86 13.5t-26 55.5v22zM171 786h94v51h-94v-51z" />
    <glyph glyph-name="AE" unicode="&#xc6;" horiz-adv-x="573" 
d="M549 106l-20 -106h-260v199h-104v-199h-116v590q0 110 116 110h67q42 0 66 -21t28 -49h3q4 25 26 45t52 20h114l20 -106h-156v-184h128l-20 -100h-108v-199h164zM165 292h104v308h-104v-308z" />
    <glyph glyph-name="Ccedilla" unicode="&#xc7;" horiz-adv-x="420" 
d="M380 287v-181q0 -53 -27.5 -81.5t-81.5 -29.5v-48q0 -53 -24 -74.5t-71 -21.5h-68v93h99v51h-43q-116 0 -116 111v483q0 111 116 111h98q116 0 116 -111v-166h-114v177h-100v-502h102v189h114z" />
    <glyph glyph-name="Egrave" unicode="&#xc8;" horiz-adv-x="360" 
d="M328 589h-162v-184h134l-20 -102h-114v-197h170l-20 -106h-266v695h258zM180 892l52 -146h-95l-73 146h116z" />
    <glyph glyph-name="Eacute" unicode="&#xc9;" horiz-adv-x="360" 
d="M328 589h-162v-184h134l-20 -102h-114v-197h170l-20 -106h-266v695h258zM175 892h116l-73 -146h-95z" />
    <glyph glyph-name="Ecircumflex" unicode="&#xca;" horiz-adv-x="360" 
d="M328 589h-162v-184h134l-20 -102h-114v-197h170l-20 -106h-266v695h258zM79 746l42 146h134l42 -146h-95l-6 110h-17l-5 -110h-95z" />
    <glyph glyph-name="Edieresis" unicode="&#xcb;" horiz-adv-x="360" 
d="M328 589h-162v-184h134l-20 -102h-114v-197h170l-20 -106h-266v695h258zM80 880h80v-124h-80v124zM207 880h80v-124h-80v124z" />
    <glyph glyph-name="Igrave" unicode="&#xcc;" horiz-adv-x="216" 
d="M166 0h-116v695h116v-695zM115 892l52 -146h-95l-73 146h116z" />
    <glyph glyph-name="Iacute" unicode="&#xcd;" horiz-adv-x="216" 
d="M166 0h-116v695h116v-695zM97 892h116l-73 -146h-95z" />
    <glyph glyph-name="Icircumflex" unicode="&#xce;" horiz-adv-x="216" 
d="M166 0h-116v695h116v-695zM0 746l42 146h134l42 -146h-95l-6 110h-17l-5 -110h-95z" />
    <glyph glyph-name="Idieresis" unicode="&#xcf;" horiz-adv-x="216" 
d="M166 0h-116v695h116v-695zM5 880h80v-124h-80v124zM132 880h80v-124h-80v124z" />
    <glyph glyph-name="Eth" unicode="&#xd0;" horiz-adv-x="434" 
d="M386 584v-472q0 -54 -29.5 -83t-86.5 -29h-216v308h-46v96h46v291h216q116 0 116 -111zM270 94v507h-100v-197h60v-96h-60v-214h100z" />
    <glyph glyph-name="Ntilde" unicode="&#xd1;" horiz-adv-x="437" 
d="M276 439v256h111v-695h-111v237l-109 237h-6v-474h-111v695h109l110 -256h7zM110 889h60v-80h16q14 44 34.5 63t51.5 19q63 0 63 -57v-80h-60v82h-17q-13 -45 -33.5 -65.5t-53.5 -20.5t-47 13.5t-14 43.5v82z" />
    <glyph glyph-name="Ograve" unicode="&#xd2;" horiz-adv-x="434" 
d="M356 23q-30 -28 -86 -28h-106q-116 0 -116 111v483q0 111 116 111h106q116 0 116 -111v-483q0 -55 -30 -83zM270 93v509h-106v-509h106zM222 892l52 -146h-95l-73 146h116z" />
    <glyph glyph-name="Oacute" unicode="&#xd3;" horiz-adv-x="434" 
d="M356 23q-30 -28 -86 -28h-106q-116 0 -116 111v483q0 111 116 111h106q116 0 116 -111v-483q0 -55 -30 -83zM270 93v509h-106v-509h106zM212 892h116l-73 -146h-95z" />
    <glyph glyph-name="Ocircumflex" unicode="&#xd4;" horiz-adv-x="434" 
d="M356 23q-30 -28 -86 -28h-106q-116 0 -116 111v483q0 111 116 111h106q116 0 116 -111v-483q0 -55 -30 -83zM270 93v509h-106v-509h106zM115 746l42 146h134l42 -146h-95l-6 110h-17l-5 -110h-95z" />
    <glyph glyph-name="Otilde" unicode="&#xd5;" horiz-adv-x="434" 
d="M356 23q-30 -28 -86 -28h-106q-116 0 -116 111v483q0 111 116 111h106q116 0 116 -111v-483q0 -55 -30 -83zM270 93v509h-106v-509h106zM111 889h60v-80h16q14 44 34.5 63t51.5 19q63 0 63 -57v-80h-60v82h-17q-13 -45 -33.5 -65.5t-53.5 -20.5t-47 13.5t-14 43.5v82z
" />
    <glyph glyph-name="Odieresis" unicode="&#xd6;" horiz-adv-x="434" 
d="M356 23q-30 -28 -86 -28h-106q-116 0 -116 111v483q0 111 116 111h106q116 0 116 -111v-483q0 -55 -30 -83zM270 93v509h-106v-509h106zM110 880h80v-124h-80v124zM237 880h80v-124h-80v124z" />
    <glyph glyph-name="multiply" unicode="&#xd7;" horiz-adv-x="415" 
d="M384 417l-107 -107l101 -102l-67 -66l-101 101l-106 -106l-73 73l106 106l-100 100l66 67l101 -100l107 107z" />
    <glyph glyph-name="Oslash" unicode="&#xd8;" horiz-adv-x="434" 
d="M382 625q4 -15 4 -36v-483q0 -55 -30 -83t-86 -28h-106q-44 0 -70 16l-43 -116l-79 40l79 140q-3 14 -3 31v483q0 111 116 111h106q38 0 63 -12l34 93l79 -40zM270 602h-106v-269h12l94 143v126zM164 93h106v274h-11l-95 -150v-124z" />
    <glyph glyph-name="Ugrave" unicode="&#xd9;" horiz-adv-x="437" 
d="M165 96h107v599h116v-589q0 -111 -116 -111h-107q-116 0 -116 111v589h116v-599zM229 892l52 -146h-95l-73 146h116z" />
    <glyph glyph-name="Uacute" unicode="&#xda;" horiz-adv-x="437" 
d="M165 96h107v599h116v-589q0 -111 -116 -111h-107q-116 0 -116 111v589h116v-599zM214 892h116l-73 -146h-95z" />
    <glyph glyph-name="Ucircumflex" unicode="&#xdb;" horiz-adv-x="437" 
d="M165 96h107v599h116v-589q0 -111 -116 -111h-107q-116 0 -116 111v589h116v-599zM111 746l42 146h134l42 -146h-95l-6 110h-17l-5 -110h-95z" />
    <glyph glyph-name="Udieresis" unicode="&#xdc;" horiz-adv-x="437" 
d="M165 96h107v599h116v-589q0 -111 -116 -111h-107q-116 0 -116 111v589h116v-599zM115 880h80v-124h-80v124zM242 880h80v-124h-80v124z" />
    <glyph glyph-name="Yacute" unicode="&#xdd;" horiz-adv-x="408" 
d="M371 695v-393q0 -106 -108 -111v-191h-116v191q-110 3 -110 111v393h116v-403h102v403h116zM191 892h116l-73 -146h-95z" />
    <glyph glyph-name="Thorn" unicode="&#xde;" horiz-adv-x="423" 
d="M50 695h116v-101h103q116 0 116 -111v-254q0 -111 -116 -111h-103v-118h-116v695zM166 219h103v274h-103v-274z" />
    <glyph glyph-name="germandbls" unicode="&#xdf;" horiz-adv-x="444" 
d="M394.5 301q21.5 -21 21.5 -52v-139q0 -56 -27.5 -84.5t-85.5 -28.5h-79v95h79v165h-97v102h51v296h-91l3 -145v-510h-113v470h-34v93h34v79q0 111 101 111h104q46 0 77.5 -27t31.5 -79v-239q0 -32 -12 -48t-35 -24v-13q50 -1 71.5 -22z" />
    <glyph glyph-name="agrave" unicode="&#xe0;" horiz-adv-x="392" 
d="M32 187q0 46 27 69.5t70 23.5h105v198h-82v-139h-106v117q0 110 115 110h75q56 0 83.5 -31t27.5 -87v-448h-105l-2 65h-14q-4 -33 -24.5 -52t-56.5 -19h-22q-43 0 -67 26.5t-24 79.5v87zM142 92h92v103h-92v-103zM208 758l52 -146h-95l-73 146h116z" />
    <glyph glyph-name="aacute" unicode="&#xe1;" horiz-adv-x="392" 
d="M32 187q0 46 27 69.5t70 23.5h105v198h-82v-139h-106v117q0 110 115 110h75q56 0 83.5 -31t27.5 -87v-448h-105l-2 65h-14q-4 -33 -24.5 -52t-56.5 -19h-22q-43 0 -67 26.5t-24 79.5v87zM142 92h92v103h-92v-103zM177 758h116l-73 -146h-95z" />
    <glyph glyph-name="acircumflex" unicode="&#xe2;" horiz-adv-x="392" 
d="M32 187q0 46 27 69.5t70 23.5h105v198h-82v-139h-106v117q0 110 115 110h75q56 0 83.5 -31t27.5 -87v-448h-105l-2 65h-14q-4 -33 -24.5 -52t-56.5 -19h-22q-43 0 -67 26.5t-24 79.5v87zM142 92h92v103h-92v-103zM89 612l42 146h134l42 -146h-95l-6 110h-17l-5 -110h-95z
" />
    <glyph glyph-name="atilde" unicode="&#xe3;" horiz-adv-x="392" 
d="M32 187q0 46 27 69.5t70 23.5h105v198h-82v-139h-106v117q0 110 115 110h75q56 0 83.5 -31t27.5 -87v-448h-105l-2 65h-14q-4 -33 -24.5 -52t-56.5 -19h-22q-43 0 -67 26.5t-24 79.5v87zM142 92h92v103h-92v-103zM88 755h60v-80h16q14 44 34.5 63t51.5 19q63 0 63 -57
v-80h-60v82h-17q-13 -45 -33.5 -65.5t-53.5 -20.5t-47 13.5t-14 43.5v82z" />
    <glyph glyph-name="adieresis" unicode="&#xe4;" horiz-adv-x="392" 
d="M32 187q0 46 27 69.5t70 23.5h105v198h-82v-139h-106v117q0 110 115 110h75q56 0 83.5 -31t27.5 -87v-448h-105l-2 65h-14q-4 -33 -24.5 -52t-56.5 -19h-22q-43 0 -67 26.5t-24 79.5v87zM142 92h92v103h-92v-103zM90 746h80v-124h-80v124zM217 746h80v-124h-80v124z" />
    <glyph glyph-name="aring" unicode="&#xe5;" horiz-adv-x="392" 
d="M32 187q0 46 27 69.5t70 23.5h105v198h-82v-139h-106v117q0 110 115 110h75q56 0 83.5 -31t27.5 -87v-448h-105l-2 65h-14q-4 -33 -24.5 -52t-56.5 -19h-22q-43 0 -67 26.5t-24 79.5v87zM142 92h92v103h-92v-103zM85 689q0 42 26 55.5t86 13.5q58 0 85 -14t27 -55v-22
q0 -41 -27 -55t-85 -14q-60 0 -86 13.5t-26 55.5v22zM150 652h94v51h-94v-51z" />
    <glyph glyph-name="ae" unicode="&#xe6;" horiz-adv-x="583" 
d="M347 264v-177h90v112h103v-92q0 -56 -25.5 -83t-82.5 -27h-85q-47 0 -72.5 16t-33.5 52h-15q-4 -33 -24.5 -52t-56.5 -19h-22q-43 0 -67 26.5t-24 79.5v87q0 46 27 69.5t70 23.5h105v198h-82v-139h-106v117q0 110 115 110h75q73 0 98 -53h10q0 20 20.5 36.5t57.5 16.5h19
q54 0 79.5 -27.5t25.5 -82.5v-192h-199zM347 475v-127h90v127h-90zM234 92v104l-92 -1v-103h92z" />
    <glyph glyph-name="ccedilla" unicode="&#xe7;" horiz-adv-x="386" 
d="M240 340v136h-83v-391h85v152h106v-130q0 -102 -93 -109v-51q0 -53 -24 -74.5t-71 -21.5h-68v93h99v53h-34q-113 0 -113 113v343q0 113 113 113h78q113 0 113 -110v-116h-108z" />
    <glyph glyph-name="egrave" unicode="&#xe8;" horiz-adv-x="391" 
d="M44 453q0 113 111 113h88q57 0 84 -27.5t27 -82.5v-192h-199v-177h90v112h103v-92q0 -56 -25.5 -83t-82.5 -27h-85q-58 0 -84.5 26t-26.5 87v343zM155 348h90v127h-90v-127zM211 758l52 -146h-95l-73 146h116z" />
    <glyph glyph-name="eacute" unicode="&#xe9;" horiz-adv-x="391" 
d="M44 453q0 113 111 113h88q57 0 84 -27.5t27 -82.5v-192h-199v-177h90v112h103v-92q0 -56 -25.5 -83t-82.5 -27h-85q-58 0 -84.5 26t-26.5 87v343zM155 348h90v127h-90v-127zM189 758h116l-73 -146h-95z" />
    <glyph glyph-name="ecircumflex" unicode="&#xea;" horiz-adv-x="391" 
d="M44 453q0 113 111 113h88q57 0 84 -27.5t27 -82.5v-192h-199v-177h90v112h103v-92q0 -56 -25.5 -83t-82.5 -27h-85q-58 0 -84.5 26t-26.5 87v343zM155 348h90v127h-90v-127zM90 612l42 146h134l42 -146h-95l-6 110h-17l-5 -110h-95z" />
    <glyph glyph-name="edieresis" unicode="&#xeb;" horiz-adv-x="391" 
d="M44 453q0 113 111 113h88q57 0 84 -27.5t27 -82.5v-192h-199v-177h90v112h103v-92q0 -56 -25.5 -83t-82.5 -27h-85q-58 0 -84.5 26t-26.5 87v343zM155 348h90v127h-90v-127zM95 746h80v-124h-80v124zM222 746h80v-124h-80v124z" />
    <glyph glyph-name="igrave" unicode="&#xec;" horiz-adv-x="207" 
d="M160 563v-563h-113v563h113zM113 758l52 -146h-95l-73 146h116z" />
    <glyph glyph-name="iacute" unicode="&#xed;" horiz-adv-x="207" 
d="M160 563v-563h-113v563h113zM87 758h116l-73 -146h-95z" />
    <glyph glyph-name="icircumflex" unicode="&#xee;" horiz-adv-x="207" 
d="M160 563v-563h-113v563h113zM-5 612l42 146h134l42 -146h-95l-6 110h-17l-5 -110h-95z" />
    <glyph glyph-name="idieresis" unicode="&#xef;" horiz-adv-x="207" 
d="M160 563v-563h-113v563h113zM0 746h80v-124h-80v124zM127 746h80v-124h-80v124z" />
    <glyph glyph-name="eth" unicode="&#xf0;" horiz-adv-x="414" 
d="M334.5 644.5q34.5 -42.5 34.5 -101.5v-440q0 -53 -24 -79.5t-67 -26.5h-143q-43 0 -67 26.5t-24 79.5v347q0 113 113 113h99q1 29 -87 74l-26 -54l-46 22l26 55q-8 4 -15.5 7.5t-13.5 6.5l-21 9l46 90l48 -20l11 23l47 -22l-11 -23q86 -44 120.5 -86.5zM256 92v380h-99
v-380h99z" />
    <glyph glyph-name="ntilde" unicode="&#xf1;" horiz-adv-x="413" 
d="M345.5 541.5q22.5 -27.5 22.5 -81.5v-460h-113v466h-95v-466h-113v563h110l2 -62h15q13 68 79 68h27q43 0 65.5 -27.5zM92 755h60v-80h16q14 44 34.5 63t51.5 19q63 0 63 -57v-80h-60v82h-17q-13 -45 -33.5 -65.5t-53.5 -20.5t-47 13.5t-14 43.5v82z" />
    <glyph glyph-name="ograve" unicode="&#xf2;" horiz-adv-x="405" 
d="M44 456q0 110 111 110h95q111 0 111 -110v-346q0 -56 -26.5 -84.5t-84.5 -28.5h-95q-58 0 -84.5 28.5t-26.5 84.5v346zM157 88h91v387h-91v-387zM205 758l52 -146h-95l-73 146h116z" />
    <glyph glyph-name="oacute" unicode="&#xf3;" horiz-adv-x="405" 
d="M44 456q0 110 111 110h95q111 0 111 -110v-346q0 -56 -26.5 -84.5t-84.5 -28.5h-95q-58 0 -84.5 28.5t-26.5 84.5v346zM157 88h91v387h-91v-387zM184 758h116l-73 -146h-95z" />
    <glyph glyph-name="ocircumflex" unicode="&#xf4;" horiz-adv-x="405" 
d="M44 456q0 110 111 110h95q111 0 111 -110v-346q0 -56 -26.5 -84.5t-84.5 -28.5h-95q-58 0 -84.5 28.5t-26.5 84.5v346zM157 88h91v387h-91v-387zM87 612l42 146h134l42 -146h-95l-6 110h-17l-5 -110h-95z" />
    <glyph glyph-name="otilde" unicode="&#xf5;" horiz-adv-x="405" 
d="M44 456q0 110 111 110h95q111 0 111 -110v-346q0 -56 -26.5 -84.5t-84.5 -28.5h-95q-58 0 -84.5 28.5t-26.5 84.5v346zM157 88h91v387h-91v-387zM85 755h60v-80h16q14 44 34.5 63t51.5 19q63 0 63 -57v-80h-60v82h-17q-13 -45 -33.5 -65.5t-53.5 -20.5t-47 13.5t-14 43.5
v82z" />
    <glyph glyph-name="odieresis" unicode="&#xf6;" horiz-adv-x="405" 
d="M44 456q0 110 111 110h95q111 0 111 -110v-346q0 -56 -26.5 -84.5t-84.5 -28.5h-95q-58 0 -84.5 28.5t-26.5 84.5v346zM157 88h91v387h-91v-387zM95 746h80v-124h-80v124zM222 746h80v-124h-80v124z" />
    <glyph glyph-name="divide" unicode="&#xf7;" horiz-adv-x="429" 
d="M162 402v146h105v-146h-105zM27 256v98h375v-98h-375zM162 58v146h105v-146h-105z" />
    <glyph glyph-name="oslash" unicode="&#xf8;" horiz-adv-x="405" 
d="M358 488q3 -15 3 -32v-346q0 -56 -26.5 -84.5t-84.5 -28.5h-95q-40 0 -63 13l-42 -115l-79 40l77 136q-4 16 -4 39v346q0 110 111 110h95q39 0 62 -13l40 108l79 -40zM248 475h-91v-216h12l79 164v52zM157 88h91v204h-16l-75 -137v-67z" />
    <glyph glyph-name="ugrave" unicode="&#xf9;" horiz-adv-x="413" 
d="M366 563v-563h-110l-2 62h-15q-13 -68 -79 -68h-27q-43 0 -65.5 27.5t-22.5 81.5v460h113v-462h95v462h113zM211 758l52 -146h-95l-73 146h116z" />
    <glyph glyph-name="uacute" unicode="&#xfa;" horiz-adv-x="413" 
d="M366 563v-563h-110l-2 62h-15q-13 -68 -79 -68h-27q-43 0 -65.5 27.5t-22.5 81.5v460h113v-462h95v462h113zM203 758h116l-73 -146h-95z" />
    <glyph glyph-name="ucircumflex" unicode="&#xfb;" horiz-adv-x="413" 
d="M366 563v-563h-110l-2 62h-15q-13 -68 -79 -68h-27q-43 0 -65.5 27.5t-22.5 81.5v460h113v-462h95v462h113zM95 612l42 146h134l42 -146h-95l-6 110h-17l-5 -110h-95z" />
    <glyph glyph-name="udieresis" unicode="&#xfc;" horiz-adv-x="413" 
d="M366 563v-563h-110l-2 62h-15q-13 -68 -79 -68h-27q-43 0 -65.5 27.5t-22.5 81.5v460h113v-462h95v462h113zM101 746h80v-124h-80v124zM228 746h80v-124h-80v124z" />
    <glyph glyph-name="yacute" unicode="&#xfd;" horiz-adv-x="405" 
d="M363 563v-410q0 -54 -22.5 -81.5t-65.5 -27.5h-16v-174h-113v174h-16q-43 0 -65.5 27.5t-22.5 81.5v410h113v-425h95v425h113zM204 758h116l-73 -146h-95z" />
    <glyph glyph-name="thorn" unicode="&#xfe;" horiz-adv-x="415" 
d="M47 750h113v-249h14q6 33 25.5 50.5t56.5 17.5h21q94 0 94 -106v-350q0 -113 -109 -113h-102v-137h-113v887zM160 90h98v380h-98v-380z" />
    <glyph glyph-name="ydieresis" unicode="&#xff;" horiz-adv-x="405" 
d="M363 563v-410q0 -54 -22.5 -81.5t-65.5 -27.5h-16v-174h-113v174h-16q-43 0 -65.5 27.5t-22.5 81.5v410h113v-425h95v425h113zM100 746h80v-124h-80v124zM227 746h80v-124h-80v124z" />
    <glyph glyph-name="Amacron" unicode="&#x100;" horiz-adv-x="433" 
d="M354.5 671q29.5 -29 29.5 -84v-587h-116v194h-103v-194h-116v590q0 110 116 110h103q57 0 86.5 -29zM165 292h103v308h-103v-308zM108 861h220v-76h-220v76z" />
    <glyph glyph-name="amacron" unicode="&#x101;" horiz-adv-x="392" 
d="M32 187q0 46 27 69.5t70 23.5h105v198h-82v-139h-106v117q0 110 115 110h75q56 0 83.5 -31t27.5 -87v-448h-105l-2 65h-14q-4 -33 -24.5 -52t-56.5 -19h-22q-43 0 -67 26.5t-24 79.5v87zM142 92h92v103h-92v-103zM83 727h220v-76h-220v76z" />
    <glyph glyph-name="Abreve" unicode="&#x102;" horiz-adv-x="433" 
d="M354.5 671q29.5 -29 29.5 -84v-587h-116v194h-103v-194h-116v590q0 110 116 110h103q57 0 86.5 -29zM165 292h103v308h-103v-308zM123 876h63v-40h66v40h63v-28q0 -46 -21 -67.5t-75 -21.5q-56 0 -76 21t-20 68v28z" />
    <glyph glyph-name="abreve" unicode="&#x103;" horiz-adv-x="392" 
d="M32 187q0 46 27 69.5t70 23.5h105v198h-82v-139h-106v117q0 110 115 110h75q56 0 83.5 -31t27.5 -87v-448h-105l-2 65h-14q-4 -33 -24.5 -52t-56.5 -19h-22q-43 0 -67 26.5t-24 79.5v87zM142 92h92v103h-92v-103zM95 742h63v-40h66v40h63v-28q0 -46 -21 -67.5t-75 -21.5
q-56 0 -76 21t-20 68v28z" />
    <glyph glyph-name="Aogonek" unicode="&#x104;" horiz-adv-x="433" 
d="M354.5 671q29.5 -29 29.5 -84v-587h-116v194h-103v-194h-116v590q0 110 116 110h103q57 0 86.5 -29zM165 292h103v308h-103v-308zM384 0l-20 -102h71v-73h-71q-39 0 -57.5 15.5t-18.5 52.5v13q0 32 17 50t43 22v22h36z" />
    <glyph glyph-name="aogonek" unicode="&#x105;" horiz-adv-x="392" 
d="M398 -102v-73h-71q-39 0 -57.5 15.5t-18.5 52.5v13q0 32 17 50t43 22v22h-69l-2 65h-14q-4 -33 -24.5 -52t-56.5 -19h-22q-43 0 -67 26.5t-24 79.5v87q0 46 27 69.5t70 23.5h105v198h-82v-139h-106v117q0 110 115 110h75q56 0 83.5 -31t27.5 -87v-448l-20 -102h71z
M234 92v103h-92v-103h92z" />
    <glyph glyph-name="Cacute" unicode="&#x106;" horiz-adv-x="420" 
d="M266 287h114v-181q0 -111 -116 -111h-100q-116 0 -116 111v483q0 111 116 111h98q116 0 116 -111v-166h-114v177h-100v-502h102v189zM216 892h116l-73 -146h-95z" />
    <glyph glyph-name="cacute" unicode="&#x107;" horiz-adv-x="386" 
d="M44 453q0 113 113 113h78q113 0 113 -110v-116h-108v136h-83v-391h85v152h106v-130q0 -55 -27 -82.5t-84 -27.5h-80q-113 0 -113 113v343zM179 758h116l-73 -146h-95z" />
    <glyph glyph-name="Cdotaccent" unicode="&#x10a;" horiz-adv-x="420" 
d="M266 287h114v-181q0 -111 -116 -111h-100q-116 0 -116 111v483q0 111 116 111h98q116 0 116 -111v-166h-114v177h-100v-502h102v189zM166 880h100v-124h-100v124z" />
    <glyph glyph-name="cdotaccent" unicode="&#x10b;" horiz-adv-x="386" 
d="M44 453q0 113 113 113h78q113 0 113 -110v-116h-108v136h-83v-391h85v152h106v-130q0 -55 -27 -82.5t-84 -27.5h-80q-113 0 -113 113v343zM151 746h100v-124h-100v124z" />
    <glyph glyph-name="Ccaron" unicode="&#x10c;" horiz-adv-x="420" 
d="M266 287h114v-181q0 -111 -116 -111h-100q-116 0 -116 111v483q0 111 116 111h98q116 0 116 -111v-166h-114v177h-100v-502h102v189zM117 892h75l20 -100h8l20 100h75l-32 -146h-134z" />
    <glyph glyph-name="ccaron" unicode="&#x10d;" horiz-adv-x="386" 
d="M44 453q0 113 113 113h78q113 0 113 -110v-116h-108v136h-83v-391h85v152h106v-130q0 -55 -27 -82.5t-84 -27.5h-80q-113 0 -113 113v343zM97 758h75l20 -100h8l20 100h75l-32 -146h-134z" />
    <glyph glyph-name="Dcaron" unicode="&#x10e;" horiz-adv-x="430" 
d="M382 584v-472q0 -54 -29.5 -83t-86.5 -29h-216v695h216q116 0 116 -111zM166 601v-507h100v507h-100zM109 892h75l20 -100h8l20 100h75l-32 -146h-134z" />
    <glyph glyph-name="dcaron" unicode="&#x10f;" horiz-adv-x="558" 
d="M369 0h-110l-3 62h-14q-13 -68 -78 -68h-29q-43 0 -67 26.5t-24 79.5v350q0 113 113 113h99v187h113v-750zM256 472h-99v-380h99v380zM559 656v-126q0 -41 -28 -70.5t-77 -29.5h-44v74h44v152h105z" />
    <glyph glyph-name="Dcroat" unicode="&#x110;" horiz-adv-x="434" 
d="M386 584v-472q0 -54 -29.5 -83t-86.5 -29h-216v308h-46v96h46v291h216q116 0 116 -111zM270 94v507h-100v-197h60v-96h-60v-214h100z" />
    <glyph glyph-name="dcroat" unicode="&#x111;" horiz-adv-x="416" 
d="M410 613h-41v-613h-110l-3 62h-14q-13 -68 -78 -68h-29q-43 0 -67 26.5t-24 79.5v350q0 113 113 113h99v50h-94v76h94v61h113v-61h41v-76zM256 92v380h-99v-380h99z" />
    <glyph glyph-name="Emacron" unicode="&#x112;" horiz-adv-x="360" 
d="M328 589h-162v-184h134l-20 -102h-114v-197h170l-20 -106h-266v695h258zM73 861h220v-76h-220v76z" />
    <glyph glyph-name="emacron" unicode="&#x113;" horiz-adv-x="391" 
d="M44 453q0 113 111 113h88q57 0 84 -27.5t27 -82.5v-192h-199v-177h90v112h103v-92q0 -56 -25.5 -83t-82.5 -27h-85q-58 0 -84.5 26t-26.5 87v343zM155 348h90v127h-90v-127zM88 727h220v-76h-220v76z" />
    <glyph glyph-name="Edotaccent" unicode="&#x116;" horiz-adv-x="360" 
d="M328 589h-162v-184h134l-20 -102h-114v-197h170l-20 -106h-266v695h258zM139 880h100v-124h-100v124z" />
    <glyph glyph-name="edotaccent" unicode="&#x117;" horiz-adv-x="391" 
d="M44 453q0 113 111 113h88q57 0 84 -27.5t27 -82.5v-192h-199v-177h90v112h103v-92q0 -56 -25.5 -83t-82.5 -27h-85q-58 0 -84.5 26t-26.5 87v343zM155 348h90v127h-90v-127zM146 746h100v-124h-100v124z" />
    <glyph glyph-name="Eogonek" unicode="&#x118;" horiz-adv-x="360" 
d="M328 589h-162v-184h134l-20 -102h-114v-197h170l-20 -106h-266v695h258zM316 0l-20 -102h71v-73h-71q-39 0 -57.5 15.5t-18.5 52.5v13q0 32 17 50t43 22v22h36z" />
    <glyph glyph-name="eogonek" unicode="&#x119;" horiz-adv-x="391" 
d="M155 264v-177h90v112h103v-92q0 -45 -16.5 -71.5t-52.5 -34.5l-19 -97h71v-73h-71q-39 0 -57.5 15.5t-18.5 52.5v13q0 32 17 50t43 22v13h-4h-85q-58 0 -84.5 26t-26.5 87v343q0 113 111 113h88q57 0 84 -27.5t27 -82.5v-192h-199zM155 475v-127h90v127h-90z" />
    <glyph glyph-name="Ecaron" unicode="&#x11a;" horiz-adv-x="360" 
d="M328 589h-162v-184h134l-20 -102h-114v-197h170l-20 -106h-266v695h258zM93 892h75l20 -100h8l20 100h75l-32 -146h-134z" />
    <glyph glyph-name="ecaron" unicode="&#x11b;" horiz-adv-x="391" 
d="M44 453q0 113 111 113h88q57 0 84 -27.5t27 -82.5v-192h-199v-177h90v112h103v-92q0 -56 -25.5 -83t-82.5 -27h-85q-58 0 -84.5 26t-26.5 87v343zM155 348h90v127h-90v-127zM103 758h75l20 -100h8l20 100h75l-32 -146h-134z" />
    <glyph glyph-name="Gbreve" unicode="&#x11e;" horiz-adv-x="423" 
d="M48 592q0 53 29.5 80.5t86.5 27.5h100q114 0 114 -108v-138h-114v151h-100v-501h100v139h-52v110h166v-353h-106l-2 67h-14q-2 -33 -25 -53t-64 -21h-14q-48 0 -76.5 29.5t-28.5 81.5v488zM121 876h63v-40h66v40h63v-28q0 -46 -21 -67.5t-75 -21.5q-56 0 -76 21t-20 68
v28z" />
    <glyph glyph-name="gbreve" unicode="&#x11f;" horiz-adv-x="400" 
d="M295 478v-14q47 -7 47 -49v-98q0 -55 -26.5 -82.5t-81.5 -27.5h-85h-9v-56h130q105 0 105 -106v-65q0 -56 -26.5 -83t-81.5 -27h-122q-106 0 -106 87v16q0 59 78 68v14h-23q-28 0 -44.5 16.5t-17.5 46.5v16q0 33 20 49t68 18v8q-79 15 -79 111v133q0 113 108 113h238v-88
h-92zM236 294v183h-89v-183h89zM146 49v-89h123v89h-123zM87 727h220v-76h-220v76z" />
    <glyph glyph-name="Gdotaccent" unicode="&#x120;" horiz-adv-x="423" 
d="M48 592q0 53 29.5 80.5t86.5 27.5h100q114 0 114 -108v-138h-114v151h-100v-501h100v139h-52v110h166v-353h-106l-2 67h-14q-2 -33 -25 -53t-64 -21h-14q-48 0 -76.5 29.5t-28.5 81.5v488zM168 880h100v-124h-100v124z" />
    <glyph glyph-name="gdotaccent" unicode="&#x121;" horiz-adv-x="400" 
d="M295 478v-14q47 -7 47 -49v-98q0 -55 -26.5 -82.5t-81.5 -27.5h-85h-9v-56h130q105 0 105 -106v-65q0 -56 -26.5 -83t-81.5 -27h-122q-106 0 -106 87v16q0 59 78 68v14h-23q-28 0 -44.5 16.5t-17.5 46.5v16q0 33 20 49t68 18v8q-79 15 -79 111v133q0 113 108 113h238v-88
h-92zM236 294v183h-89v-183h89zM146 49v-89h123v89h-123zM149 746h100v-124h-100v124z" />
    <glyph glyph-name="Gcommaaccent" unicode="&#x122;" horiz-adv-x="423" 
d="M48 592q0 53 29.5 80.5t86.5 27.5h100q114 0 114 -108v-138h-114v151h-100v-501h100v139h-52v110h166v-353h-106l-2 67h-14q-2 -33 -25 -53t-64 -21h-14q-48 0 -76.5 29.5t-28.5 81.5v488zM259 -60v-46q0 -37 -26 -53.5t-79 -16.5v116h105z" />
    <glyph glyph-name="gcommaaccent" unicode="&#x123;" horiz-adv-x="400" 
d="M248 636h-105v46q0 37 26 53.5t79 16.5v-116zM295 478v-14q47 -7 47 -49v-98q0 -55 -26.5 -82.5t-81.5 -27.5h-85h-9v-56h130q105 0 105 -106v-65q0 -56 -26.5 -83t-81.5 -27h-122q-106 0 -106 87v16q0 59 78 68v14h-23q-28 0 -44.5 16.5t-17.5 46.5v16q0 33 20 49t68 18
v8q-79 15 -79 111v133q0 113 108 113h238v-88h-92zM236 294v183h-89v-183h89zM146 49v-89h123v89h-123z" />
    <glyph glyph-name="Hbar" unicode="&#x126;" horiz-adv-x="444" 
d="M433 596v-83h-41v-513h-115v304h-109v-304h-116v513h-40v83h40v99h116v-99h109v99h115v-99h41zM277 407v106h-109v-106h109z" />
    <glyph glyph-name="hbar" unicode="&#x127;" horiz-adv-x="413" 
d="M345 540q23 -29 23 -84v-456h-113v466h-95v-466h-113v613h-42v76h42v61h113v-61h93v-76h-93v-112h14q13 68 79 68h26q43 0 66 -29z" />
    <glyph glyph-name="Itilde" unicode="&#x128;" horiz-adv-x="216" 
d="M166 0h-116v695h116v-695zM1 889h60v-80h16q14 44 34.5 63t51.5 19q63 0 63 -57v-80h-60v82h-17q-13 -45 -33.5 -65.5t-53.5 -20.5t-47 13.5t-14 43.5v82z" />
    <glyph glyph-name="itilde" unicode="&#x129;" horiz-adv-x="207" 
d="M160 563v-563h-113v563h113zM-9 755h60v-80h16q14 44 34.5 63t51.5 19q63 0 63 -57v-80h-60v82h-17q-13 -45 -33.5 -65.5t-53.5 -20.5t-47 13.5t-14 43.5v82z" />
    <glyph glyph-name="Imacron" unicode="&#x12a;" horiz-adv-x="216" 
d="M166 0h-116v695h116v-695zM-1 861h220v-76h-220v76z" />
    <glyph glyph-name="imacron" unicode="&#x12b;" horiz-adv-x="207" 
d="M160 563v-563h-113v563h113zM-6 727h220v-76h-220v76z" />
    <glyph glyph-name="Iogonek" unicode="&#x12e;" horiz-adv-x="216" 
d="M166 0h-116v695h116v-695zM166 0l-20 -102h71v-73h-71q-39 0 -57.5 15.5t-18.5 52.5v13q0 32 17 50t43 22v22h36z" />
    <glyph glyph-name="iogonek" unicode="&#x12f;" horiz-adv-x="207" 
d="M44 742h119v-111h-119v111zM160 563v-563h-113v563h113zM160 0l-20 -102h71v-73h-71q-39 0 -57.5 15.5t-18.5 52.5v13q0 32 17 50t43 22v22h36z" />
    <glyph glyph-name="Idotaccent" unicode="&#x130;" horiz-adv-x="216" 
d="M166 0h-116v695h116v-695zM60 880h100v-124h-100v124z" />
    <glyph glyph-name="dotlessi" unicode="&#x131;" horiz-adv-x="207" 
d="M160 563v-563h-113v563h113z" />
    <glyph glyph-name="Kcommaaccent" unicode="&#x136;" horiz-adv-x="443" 
d="M378.5 314.5q24.5 -26.5 24.5 -79.5v-235h-121v206q0 49 -16 72.5t-52 23.5h-48v-302h-116v695h116v-283h40q68 0 68 81v202h119v-203q0 -53 -22.5 -83.5t-67.5 -42.5v-11q51 -14 75.5 -40.5zM267 -60v-46q0 -37 -26 -53.5t-79 -16.5v116h105z" />
    <glyph glyph-name="kcommaaccent" unicode="&#x137;" horiz-adv-x="409" 
d="M359 242.5q13 -21.5 13 -61.5v-181h-113v218h-99v-218h-113v750h113v-439h86v252h111v-210q0 -55 -43 -70v-12q32 -7 45 -28.5zM262 -60v-46q0 -37 -26 -53.5t-79 -16.5v116h105z" />
    <glyph glyph-name="Lacute" unicode="&#x139;" horiz-adv-x="318" 
d="M166 109h153l-20 -109h-249v695h116v-586zM127 892h116l-73 -146h-95z" />
    <glyph glyph-name="lacute" unicode="&#x13a;" horiz-adv-x="207" 
d="M160 750v-750h-113v750h113zM84 942h116l-73 -146h-95z" />
    <glyph glyph-name="Lcommaaccent" unicode="&#x13b;" horiz-adv-x="318" 
d="M166 109h153l-20 -109h-249v695h116v-586zM218 -60v-46q0 -37 -26 -53.5t-79 -16.5v116h105z" />
    <glyph glyph-name="lcommaaccent" unicode="&#x13c;" horiz-adv-x="207" 
d="M160 750v-750h-113v750h113zM157 -60v-46q0 -37 -26 -53.5t-79 -16.5v116h105z" />
    <glyph glyph-name="Lcaron" unicode="&#x13d;" horiz-adv-x="358" 
d="M166 109h153l-20 -109h-249v695h116v-586zM332 653v-116q0 -41 -28 -70.5t-77 -29.5h-22v74h24v142h103z" />
    <glyph glyph-name="lcaron" unicode="&#x13e;" horiz-adv-x="350" 
d="M160 750v-750h-113v750h113zM351 656v-126q0 -41 -28 -70.5t-77 -29.5h-44v74h44v152h105z" />
    <glyph glyph-name="Lslash" unicode="&#x141;" horiz-adv-x="323" 
d="M170 109h153l-20 -109h-249v266l-47 -18v104l47 18v325h116v-281l101 38v-104l-101 -38v-201z" />
    <glyph glyph-name="lslash" unicode="&#x142;" horiz-adv-x="247" 
d="M228 481v-88l-49 -19v-374h-113v331l-46 -18v88l46 18v331h113v-288z" />
    <glyph glyph-name="Nacute" unicode="&#x143;" horiz-adv-x="437" 
d="M276 439v256h111v-695h-111v237l-109 237h-6v-474h-111v695h109l110 -256h7zM207 892h116l-73 -146h-95z" />
    <glyph glyph-name="nacute" unicode="&#x144;" horiz-adv-x="413" 
d="M345.5 541.5q22.5 -27.5 22.5 -81.5v-460h-113v466h-95v-466h-113v563h110l2 -62h15q13 68 79 68h27q43 0 65.5 -27.5zM202 758h116l-73 -146h-95z" />
    <glyph glyph-name="Ncommaaccent" unicode="&#x145;" horiz-adv-x="437" 
d="M276 439v256h111v-695h-111v237l-109 237h-6v-474h-111v695h109l110 -256h7zM265 -60v-46q0 -37 -26 -53.5t-79 -16.5v116h105z" />
    <glyph glyph-name="ncommaaccent" unicode="&#x146;" horiz-adv-x="413" 
d="M345.5 541.5q22.5 -27.5 22.5 -81.5v-460h-113v466h-95v-466h-113v563h110l2 -62h15q13 68 79 68h27q43 0 65.5 -27.5zM266 -60v-46q0 -37 -26 -53.5t-79 -16.5v116h105z" />
    <glyph glyph-name="Ncaron" unicode="&#x147;" horiz-adv-x="437" 
d="M276 439v256h111v-695h-111v237l-109 237h-6v-474h-111v695h109l110 -256h7zM118 892h75l20 -100h8l20 100h75l-32 -146h-134z" />
    <glyph glyph-name="ncaron" unicode="&#x148;" horiz-adv-x="413" 
d="M345.5 541.5q22.5 -27.5 22.5 -81.5v-460h-113v466h-95v-466h-113v563h110l2 -62h15q13 68 79 68h27q43 0 65.5 -27.5zM100 758h75l20 -100h8l20 100h75l-32 -146h-134z" />
    <glyph glyph-name="Eng" unicode="&#x14a;" horiz-adv-x="437" 
d="M387 695v-722q0 -160 -178 -160h-21v102h20q37 0 52.5 18t15.5 57v247l-109 237h-6v-474h-111v695h109l110 -256h7v256h111z" />
    <glyph glyph-name="Omacron" unicode="&#x14c;" horiz-adv-x="434" 
d="M356 23q-30 -28 -86 -28h-106q-116 0 -116 111v483q0 111 116 111h106q116 0 116 -111v-483q0 -55 -30 -83zM270 93v509h-106v-509h106zM109 861h220v-76h-220v76z" />
    <glyph glyph-name="omacron" unicode="&#x14d;" horiz-adv-x="405" 
d="M44 456q0 110 111 110h95q111 0 111 -110v-346q0 -56 -26.5 -84.5t-84.5 -28.5h-95q-58 0 -84.5 28.5t-26.5 84.5v346zM157 88h91v387h-91v-387zM86 727h220v-76h-220v76z" />
    <glyph glyph-name="Ohungarumlaut" unicode="&#x150;" horiz-adv-x="434" 
d="M356 23q-30 -28 -86 -28h-106q-116 0 -116 111v483q0 111 116 111h106q116 0 116 -111v-483q0 -55 -30 -83zM270 93v509h-106v-509h106zM155 892h96l-73 -146h-75zM285 892h96l-73 -146h-75z" />
    <glyph glyph-name="ohungarumlaut" unicode="&#x151;" horiz-adv-x="405" 
d="M44 456q0 110 111 110h95q111 0 111 -110v-346q0 -56 -26.5 -84.5t-84.5 -28.5h-95q-58 0 -84.5 28.5t-26.5 84.5v346zM157 88h91v387h-91v-387zM136 758h96l-73 -146h-75zM266 758h96l-73 -146h-75z" />
    <glyph glyph-name="OE" unicode="&#x152;" horiz-adv-x="580" 
d="M556 106l-20 -106h-236v68h-8q-15 -40 -38 -56.5t-64 -16.5h-26q-116 0 -116 111v483q0 111 116 111h26q42 0 64.5 -16t37.5 -57h8v68h228l20 -106h-162v-184h134l-20 -100h-114v-199h170zM270 93v511h-106v-513z" />
    <glyph glyph-name="oe" unicode="&#x153;" horiz-adv-x="593" 
d="M357 264v-177h90v112h103v-92q0 -56 -25.5 -83t-82.5 -27h-55q-43 0 -61 17t-22 51h-14q-8 -68 -91 -68h-44q-58 0 -84.5 28.5t-26.5 84.5v346q0 110 111 110h44q83 0 91 -68h14q4 34 22 51t61 17h58q57 0 84 -27.5t27 -82.5v-192h-199zM155 88h91v387h-91v-387zM447 475
h-90v-127h90v127z" />
    <glyph glyph-name="Racute" unicode="&#x154;" horiz-adv-x="429" 
d="M50 695h220q58 0 85.5 -26.5t27.5 -83.5v-240q0 -31 -19.5 -53.5t-47.5 -33.5v-5q73 -24 73 -96v-157h-119v205h-104v-205h-116v695zM166 301h103v295h-103v-295zM197 892h116l-73 -146h-95z" />
    <glyph glyph-name="racute" unicode="&#x155;" horiz-adv-x="359" 
d="M47 0v563h108l5 -62h14q6 30 25.5 49t43.5 19h20q38 0 56.5 -26t18.5 -80v-184h-109v187h-69v-466h-113zM172 758h116l-73 -146h-95z" />
    <glyph glyph-name="Rcommaaccent" unicode="&#x156;" horiz-adv-x="429" 
d="M50 695h220q58 0 85.5 -26.5t27.5 -83.5v-240q0 -31 -19.5 -53.5t-47.5 -33.5v-5q73 -24 73 -96v-157h-119v205h-104v-205h-116v695zM166 301h103v295h-103v-295zM276 -60v-46q0 -37 -26 -53.5t-79 -16.5v116h105z" />
    <glyph glyph-name="rcommaaccent" unicode="&#x157;" horiz-adv-x="359" 
d="M47 0v563h108l5 -62h14q6 30 25.5 49t43.5 19h20q38 0 56.5 -26t18.5 -80v-184h-109v187h-69v-466h-113zM152 -60v-46q0 -37 -26 -53.5t-79 -16.5v116h105z" />
    <glyph glyph-name="Rcaron" unicode="&#x158;" horiz-adv-x="429" 
d="M50 695h220q58 0 85.5 -26.5t27.5 -83.5v-240q0 -31 -19.5 -53.5t-47.5 -33.5v-5q73 -24 73 -96v-157h-119v205h-104v-205h-116v695zM166 301h103v295h-103v-295zM117 895h75l20 -100h8l20 100h75l-32 -146h-134z" />
    <glyph glyph-name="rcaron" unicode="&#x159;" horiz-adv-x="359" 
d="M47 0v563h108l5 -62h14q6 30 25.5 49t43.5 19h20q38 0 56.5 -26t18.5 -80v-184h-109v187h-69v-466h-113zM75 758h75l20 -100h8l20 100h75l-32 -146h-134z" />
    <glyph glyph-name="Sacute" unicode="&#x15a;" horiz-adv-x="405" 
d="M154 230v-138h99v96q0 35 -10 54t-37 37l-104 69q-29 19 -44 49t-15 61v130q0 53 30.5 82.5t76.5 29.5h107q57 0 82 -27.5t25 -83.5v-109l-113 -30v156h-98v-105q0 -27 10 -44.5t35 -33.5l99 -65q68 -45 68 -124v-136q0 -53 -30 -78t-79 -25h-100q-59 0 -87.5 24.5
t-28.5 79.5v131h114zM215 892h116l-73 -146h-95z" />
    <glyph glyph-name="sacute" unicode="&#x15b;" horiz-adv-x="373" 
d="M37 214h106v-133h85v84q0 17 -5 26t-15 16l-116 77q-55 37 -55 93v76q0 113 111 113h77q57 0 84 -27.5t27 -82.5v-97h-106v123h-85v-79q0 -17 5 -26t17 -17l112 -75q29 -20 43 -43.5t14 -56.5v-75q0 -113 -111 -113h-77q-57 0 -84 27.5t-27 82.5v107zM187 758h116
l-73 -146h-95z" />
    <glyph glyph-name="Scedilla" unicode="&#x15e;" horiz-adv-x="405" 
d="M365 234v-136q0 -53 -29.5 -78t-78.5 -25v-48q0 -53 -24 -74.5t-71 -21.5h-68v93h99v51h-37q-59 0 -87.5 24.5t-28.5 79.5v131h114v-138h99v96q0 35 -10 54t-37 37l-104 69q-29 19 -44 49t-15 61v130q0 53 30.5 82.5t76.5 29.5h107q57 0 82 -27.5t25 -83.5v-109l-113 -30
v156h-98v-105q0 -27 10 -44.5t35 -33.5l99 -65q68 -45 68 -124z" />
    <glyph glyph-name="scedilla" unicode="&#x15f;" horiz-adv-x="373" 
d="M230 359v123h-85v-79q0 -17 5 -26t17 -17l112 -75q29 -20 43 -43.5t14 -56.5v-75q0 -106 -98 -113v-50q0 -53 -24 -74.5t-71 -21.5h-68v93h99v53h-26q-57 0 -84 27.5t-27 82.5v107h106v-133h85v84q0 17 -5 26t-15 16l-116 77q-55 37 -55 93v76q0 113 111 113h77
q57 0 84 -27.5t27 -82.5v-97h-106z" />
    <glyph glyph-name="Scaron" unicode="&#x160;" horiz-adv-x="405" 
d="M154 230v-138h99v96q0 35 -10 54t-37 37l-104 69q-29 19 -44 49t-15 61v130q0 53 30.5 82.5t76.5 29.5h107q57 0 82 -27.5t25 -83.5v-109l-113 -30v156h-98v-105q0 -27 10 -44.5t35 -33.5l99 -65q68 -45 68 -124v-136q0 -53 -30 -78t-79 -25h-100q-59 0 -87.5 24.5
t-28.5 79.5v131h114zM118 892h75l20 -100h8l20 100h75l-32 -146h-134z" />
    <glyph glyph-name="scaron" unicode="&#x161;" horiz-adv-x="373" 
d="M37 214h106v-133h85v84q0 17 -5 26t-15 16l-116 77q-55 37 -55 93v76q0 113 111 113h77q57 0 84 -27.5t27 -82.5v-97h-106v123h-85v-79q0 -17 5 -26t17 -17l112 -75q29 -20 43 -43.5t14 -56.5v-75q0 -113 -111 -113h-77q-57 0 -84 27.5t-27 82.5v107zM85 758h75l20 -100
h8l20 100h75l-32 -146h-134z" />
    <glyph glyph-name="uni0162" unicode="&#x162;" horiz-adv-x="342" 
d="M341 586h-112v-639q0 -53 -24 -74.5t-71 -21.5h-68v93h99v56h-52v586h-112l20 109h300z" />
    <glyph glyph-name="uni0163" unicode="&#x163;" horiz-adv-x="249" 
d="M243 468h-73v-468h-1v-53q0 -53 -24 -74.5t-71 -21.5h-68v93h99v56h-48v468h-34v95h42v105h105v-105h73v-95z" />
    <glyph glyph-name="Tcaron" unicode="&#x164;" horiz-adv-x="342" 
d="M321 695l20 -109h-112v-586h-116v586h-112l20 109h300zM78 892h75l20 -100h8l20 100h75l-32 -146h-134z" />
    <glyph glyph-name="tcaron" unicode="&#x165;" horiz-adv-x="269" 
d="M243 563v-95h-73v-468h-113v468h-34v95h42v105h105v-105h73zM369 834v-126q0 -41 -28 -70.5t-77 -29.5h-44v74h44v152h105z" />
    <glyph glyph-name="Tbar" unicode="&#x166;" horiz-adv-x="348" 
d="M232 586v-152h53v-96h-53v-338h-116v338h-53v96h53v152h-112l20 109h300l20 -109h-112z" />
    <glyph glyph-name="tbar" unicode="&#x167;" horiz-adv-x="252" 
d="M245 468h-73v-109h59v-76h-59v-283h-113v283h-46v76h46v109h-34v95h42v105h105v-105h73v-95z" />
    <glyph glyph-name="Utilde" unicode="&#x168;" horiz-adv-x="437" 
d="M165 96h107v599h116v-589q0 -111 -116 -111h-107q-116 0 -116 111v589h116v-599zM111 889h60v-80h16q14 44 34.5 63t51.5 19q63 0 63 -57v-80h-60v82h-17q-13 -45 -33.5 -65.5t-53.5 -20.5t-47 13.5t-14 43.5v82z" />
    <glyph glyph-name="utilde" unicode="&#x169;" horiz-adv-x="413" 
d="M366 563v-563h-110l-2 62h-15q-13 -68 -79 -68h-27q-43 0 -65.5 27.5t-22.5 81.5v460h113v-462h95v462h113zM104 755h60v-80h16q14 44 34.5 63t51.5 19q63 0 63 -57v-80h-60v82h-17q-13 -45 -33.5 -65.5t-53.5 -20.5t-47 13.5t-14 43.5v82z" />
    <glyph glyph-name="Umacron" unicode="&#x16a;" horiz-adv-x="437" 
d="M165 96h107v599h116v-589q0 -111 -116 -111h-107q-116 0 -116 111v589h116v-599zM106 861h220v-76h-220v76z" />
    <glyph glyph-name="umacron" unicode="&#x16b;" horiz-adv-x="413" 
d="M366 563v-563h-110l-2 62h-15q-13 -68 -79 -68h-27q-43 0 -65.5 27.5t-22.5 81.5v460h113v-462h95v462h113zM105 727h220v-76h-220v76z" />
    <glyph glyph-name="Uring" unicode="&#x16e;" horiz-adv-x="437" 
d="M165 96h107v599h116v-589q0 -111 -116 -111h-107q-116 0 -116 111v589h116v-599zM109 823q0 42 26 55.5t86 13.5q58 0 85 -14t27 -55v-22q0 -41 -27 -55t-85 -14q-60 0 -86 13.5t-26 55.5v22zM174 786h94v51h-94v-51z" />
    <glyph glyph-name="uring" unicode="&#x16f;" horiz-adv-x="413" 
d="M366 563v-563h-110l-2 62h-15q-13 -68 -79 -68h-27q-43 0 -65.5 27.5t-22.5 81.5v460h113v-462h95v462h113zM105 689q0 42 26 55.5t86 13.5q58 0 85 -14t27 -55v-22q0 -41 -27 -55t-85 -14q-60 0 -86 13.5t-26 55.5v22zM170 652h94v51h-94v-51z" />
    <glyph glyph-name="Uhungarumlaut" unicode="&#x170;" horiz-adv-x="437" 
d="M165 96h107v599h116v-589q0 -111 -116 -111h-107q-116 0 -116 111v589h116v-599zM154 892h96l-73 -146h-75zM284 892h96l-73 -146h-75z" />
    <glyph glyph-name="uhungarumlaut" unicode="&#x171;" horiz-adv-x="413" 
d="M366 563v-563h-110l-2 62h-15q-13 -68 -79 -68h-27q-43 0 -65.5 27.5t-22.5 81.5v460h113v-462h95v462h113zM159 758h96l-73 -146h-75zM289 758h96l-73 -146h-75z" />
    <glyph glyph-name="Uogonek" unicode="&#x172;" horiz-adv-x="437" 
d="M388 695v-589q0 -94 -83 -108l-20 -100h71v-73h-71q-39 0 -57.5 15.5t-18.5 52.5v13q0 32 17 50t43 22v17h-104q-116 0 -116 111v589h116v-599h107v599h116z" />
    <glyph glyph-name="uogonek" unicode="&#x173;" horiz-adv-x="413" 
d="M417 -96v-73h-71q-39 0 -57.5 15.5t-18.5 52.5v13q0 32 17 50t43 22v16h-74l-2 62h-15q-13 -68 -79 -68h-27q-43 0 -65.5 27.5t-22.5 81.5v460h113v-462h95v462h113v-563h-1l-19 -96h71z" />
    <glyph glyph-name="Wcircumflex" unicode="&#x174;" horiz-adv-x="632" 
d="M49 695h114v-591h98v591h110v-591h98v591h114v-587q0 -55 -29.5 -84t-86.5 -29h-50q-39 0 -65 18t-39 56h-3q-11 -37 -37 -55.5t-58 -18.5h-50q-57 0 -86.5 29t-29.5 84v587zM207 746l42 146h134l42 -146h-95l-6 110h-17l-5 -110h-95z" />
    <glyph glyph-name="wcircumflex" unicode="&#x175;" horiz-adv-x="592" 
d="M59 181.5q-32 99.5 -32 236.5v145h113v-128q0 -80 6 -147t34 -182h10q31 70 40.5 126t9.5 116v37v178h113v-178q0 -50 2 -81t12.5 -80.5t35.5 -117.5h10q27 115 33.5 183.5t6.5 145.5v128h113v-145q0 -131 -31.5 -229t-85.5 -191h-78q-40 67 -67 155h-11
q-28 -85 -71 -155h-78q-53 84 -85 183.5zM209 612l42 146h134l42 -146h-95l-6 110h-17l-5 -110h-95z" />
    <glyph glyph-name="Ycircumflex" unicode="&#x176;" horiz-adv-x="408" 
d="M371 695v-393q0 -106 -108 -111v-191h-116v191q-110 3 -110 111v393h116v-403h102v403h116zM95 746l42 146h134l42 -146h-95l-6 110h-17l-5 -110h-95z" />
    <glyph glyph-name="ycircumflex" unicode="&#x177;" horiz-adv-x="405" 
d="M363 563v-410q0 -54 -22.5 -81.5t-65.5 -27.5h-16v-174h-113v174h-16q-43 0 -65.5 27.5t-22.5 81.5v410h113v-425h95v425h113zM95 612l42 146h134l42 -146h-95l-6 110h-17l-5 -110h-95z" />
    <glyph glyph-name="Ydieresis" unicode="&#x178;" horiz-adv-x="408" 
d="M371 695v-393q0 -106 -108 -111v-191h-116v191q-110 3 -110 111v393h116v-403h102v403h116zM98 880h80v-124h-80v124zM225 880h80v-124h-80v124z" />
    <glyph glyph-name="Zacute" unicode="&#x179;" horiz-adv-x="374" 
d="M343 695v-105l-196 -486h198v-104h-320v106l194 485h-183v104h307zM177 892h116l-73 -146h-95z" />
    <glyph glyph-name="zacute" unicode="&#x17a;" horiz-adv-x="330" 
d="M306 563v-93l-162 -373h150v-97h-270v97l161 373h-149v93h270zM164 758h116l-73 -146h-95z" />
    <glyph glyph-name="Zdotaccent" unicode="&#x17b;" horiz-adv-x="374" 
d="M343 695v-105l-196 -486h198v-104h-320v106l194 485h-183v104h307zM139 880h100v-124h-100v124z" />
    <glyph glyph-name="zdotaccent" unicode="&#x17c;" horiz-adv-x="330" 
d="M306 563v-93l-162 -373h150v-97h-270v97l161 373h-149v93h270zM124 746h100v-124h-100v124z" />
    <glyph glyph-name="Zcaron" unicode="&#x17d;" horiz-adv-x="374" 
d="M343 695v-105l-196 -486h198v-104h-320v106l194 485h-183v104h307zM86 892h75l20 -100h8l20 100h75l-32 -146h-134z" />
    <glyph glyph-name="zcaron" unicode="&#x17e;" horiz-adv-x="330" 
d="M306 563v-93l-162 -373h150v-97h-270v97l161 373h-149v93h270zM77 758h75l20 -100h8l20 100h75l-32 -146h-134z" />
    <glyph glyph-name="florin" unicode="&#x192;" horiz-adv-x="397" 
d="M252 392h112v-79h-118l-25 -325q-5 -56 -32 -83.5t-84 -27.5h-90l-20 92h113l27 344h-100v79h106l15 195q5 56 32.5 83.5t83.5 27.5h90l20 -92h-113z" />
    <glyph glyph-name="Ohorn" unicode="&#x1a0;" horiz-adv-x="457" 
d="M458 775v-68q0 -36 -18.5 -55.5t-58.5 -20.5q5 -20 5 -42v-483q0 -55 -30 -83t-86 -28h-106q-116 0 -116 111v483q0 111 116 111h208v75h86zM270 93v509h-106v-509h106z" />
    <glyph glyph-name="ohorn" unicode="&#x1a1;" horiz-adv-x="411" 
d="M405 641v-68q0 -59 -50 -72q6 -19 6 -45v-346q0 -56 -26.5 -84.5t-84.5 -28.5h-95q-58 0 -84.5 28.5t-26.5 84.5v346q0 110 111 110h164v75h86zM248 88v387h-91v-387h91z" />
    <glyph glyph-name="Uhorn" unicode="&#x1af;" horiz-adv-x="462" 
d="M465 770v-68q0 -36 -18.5 -55.5t-58.5 -20.5v-520q0 -111 -116 -111h-107q-116 0 -116 111v589h116v-599h107v599h107v75h86z" />
    <glyph glyph-name="uhorn" unicode="&#x1b0;" horiz-adv-x="434" 
d="M447 638v-68q0 -37 -19.5 -56t-61.5 -20v-494h-110l-2 62h-15q-13 -68 -79 -68h-27q-43 0 -65.5 27.5t-22.5 81.5v460h113v-462h95v462h108v75h86z" />
    <glyph glyph-name="uni01CD" unicode="&#x1cd;" horiz-adv-x="433" 
d="M354.5 671q29.5 -29 29.5 -84v-587h-116v194h-103v-194h-116v590q0 110 116 110h103q57 0 86.5 -29zM165 292h103v308h-103v-308zM115 892h75l20 -100h8l20 100h75l-32 -146h-134z" />
    <glyph glyph-name="uni01CE" unicode="&#x1ce;" horiz-adv-x="392" 
d="M32 187q0 46 27 69.5t70 23.5h105v198h-82v-139h-106v117q0 110 115 110h75q56 0 83.5 -31t27.5 -87v-448h-105l-2 65h-14q-4 -33 -24.5 -52t-56.5 -19h-22q-43 0 -67 26.5t-24 79.5v87zM142 92h92v103h-92v-103zM96 758h75l20 -100h8l20 100h75l-32 -146h-134z" />
    <glyph glyph-name="uni01CF" unicode="&#x1cf;" horiz-adv-x="216" 
d="M166 0h-116v695h116v-695zM14 892h75l20 -100h8l20 100h75l-32 -146h-134z" />
    <glyph glyph-name="uni01D0" unicode="&#x1d0;" horiz-adv-x="207" 
d="M160 563v-563h-113v563h113zM4 758h75l20 -100h8l20 100h75l-32 -146h-134z" />
    <glyph glyph-name="uni01D1" unicode="&#x1d1;" horiz-adv-x="434" 
d="M356 23q-30 -28 -86 -28h-106q-116 0 -116 111v483q0 111 116 111h106q116 0 116 -111v-483q0 -55 -30 -83zM270 93v509h-106v-509h106zM123 892h75l20 -100h8l20 100h75l-32 -146h-134z" />
    <glyph glyph-name="uni01D2" unicode="&#x1d2;" horiz-adv-x="405" 
d="M44 456q0 110 111 110h95q111 0 111 -110v-346q0 -56 -26.5 -84.5t-84.5 -28.5h-95q-58 0 -84.5 28.5t-26.5 84.5v346zM157 88h91v387h-91v-387zM89 758h75l20 -100h8l20 100h75l-32 -146h-134z" />
    <glyph glyph-name="uni01D3" unicode="&#x1d3;" horiz-adv-x="437" 
d="M165 96h107v599h116v-589q0 -111 -116 -111h-107q-116 0 -116 111v589h116v-599zM121 892h75l20 -100h8l20 100h75l-32 -146h-134z" />
    <glyph glyph-name="uni01D4" unicode="&#x1d4;" horiz-adv-x="413" 
d="M366 563v-563h-110l-2 62h-15q-13 -68 -79 -68h-27q-43 0 -65.5 27.5t-22.5 81.5v460h113v-462h95v462h113zM110 758h75l20 -100h8l20 100h75l-32 -146h-134z" />
    <glyph glyph-name="uni01D5" unicode="&#x1d5;" horiz-adv-x="437" 
d="M165 96h107v599h116v-589q0 -111 -116 -111h-107q-116 0 -116 111v589h116v-599zM112 1011h220v-76h-220v76zM117 880h80v-124h-80v124zM244 880h80v-124h-80v124z" />
    <glyph glyph-name="uni01D6" unicode="&#x1d6;" horiz-adv-x="413" 
d="M366 563v-563h-110l-2 62h-15q-13 -68 -79 -68h-27q-43 0 -65.5 27.5t-22.5 81.5v460h113v-462h95v462h113zM99 877h220v-76h-220v76zM104 746h80v-124h-80v124zM231 746h80v-124h-80v124z" />
    <glyph glyph-name="uni01D7" unicode="&#x1d7;" horiz-adv-x="437" 
d="M165 96h107v599h116v-589q0 -111 -116 -111h-107q-116 0 -116 111v589h116v-599zM118 880h80v-124h-80v124zM245 880h80v-124h-80v124zM226 1052h116l-73 -146h-95z" />
    <glyph glyph-name="uni01D8" unicode="&#x1d8;" horiz-adv-x="413" 
d="M366 563v-563h-110l-2 62h-15q-13 -68 -79 -68h-27q-43 0 -65.5 27.5t-22.5 81.5v460h113v-462h95v462h113zM97 746h80v-124h-80v124zM224 746h80v-124h-80v124zM205 918h116l-73 -146h-95z" />
    <glyph glyph-name="uni01D9" unicode="&#x1d9;" horiz-adv-x="437" 
d="M165 96h107v599h116v-589q0 -111 -116 -111h-107q-116 0 -116 111v589h116v-599zM118 880h80v-124h-80v124zM245 880h80v-124h-80v124zM123 1062h75l20 -100h8l20 100h75l-32 -146h-134z" />
    <glyph glyph-name="uni01DA" unicode="&#x1da;" horiz-adv-x="413" 
d="M366 563v-563h-110l-2 62h-15q-13 -68 -79 -68h-27q-43 0 -65.5 27.5t-22.5 81.5v460h113v-462h95v462h113zM102 746h80v-124h-80v124zM229 746h80v-124h-80v124zM107 928h75l20 -100h8l20 100h75l-32 -146h-134z" />
    <glyph glyph-name="uni01DB" unicode="&#x1db;" horiz-adv-x="437" 
d="M165 96h107v599h116v-589q0 -111 -116 -111h-107q-116 0 -116 111v589h116v-599zM118 880h80v-124h-80v124zM245 880h80v-124h-80v124zM228 1052l52 -146h-95l-73 146h116z" />
    <glyph glyph-name="uni01DC" unicode="&#x1dc;" horiz-adv-x="413" 
d="M366 563v-563h-110l-2 62h-15q-13 -68 -79 -68h-27q-43 0 -65.5 27.5t-22.5 81.5v460h113v-462h95v462h113zM105 746h80v-124h-80v124zM232 746h80v-124h-80v124zM207 918l52 -146h-95l-73 146h116z" />
    <glyph glyph-name="Scommaaccent" unicode="&#x218;" horiz-adv-x="405" 
d="M154 230v-138h99v96q0 35 -10 54t-37 37l-104 69q-29 19 -44 49t-15 61v130q0 53 30.5 82.5t76.5 29.5h107q57 0 82 -27.5t25 -83.5v-109l-113 -30v156h-98v-105q0 -27 10 -44.5t35 -33.5l99 -65q68 -45 68 -124v-136q0 -53 -30 -78t-79 -25h-100q-59 0 -87.5 24.5
t-28.5 79.5v131h114zM251 -60v-46q0 -37 -26 -53.5t-79 -16.5v116h105z" />
    <glyph glyph-name="scommaaccent" unicode="&#x219;" horiz-adv-x="373" 
d="M37 214h106v-133h85v84q0 17 -5 26t-15 16l-116 77q-55 37 -55 93v76q0 113 111 113h77q57 0 84 -27.5t27 -82.5v-97h-106v123h-85v-79q0 -17 5 -26t17 -17l112 -75q29 -20 43 -43.5t14 -56.5v-75q0 -113 -111 -113h-77q-57 0 -84 27.5t-27 82.5v107zM232 -60v-46
q0 -37 -26 -53.5t-79 -16.5v116h105z" />
    <glyph glyph-name="uni021A" unicode="&#x21a;" horiz-adv-x="342" 
d="M321 695l20 -109h-112v-586h-116v586h-112l20 109h300zM225 -60v-46q0 -37 -26 -53.5t-79 -16.5v116h105z" />
    <glyph glyph-name="uni021B" unicode="&#x21b;" horiz-adv-x="249" 
d="M243 563v-95h-73v-468h-113v468h-34v95h42v105h105v-105h73zM164 -60v-46q0 -37 -26 -53.5t-79 -16.5v116h105z" />
    <glyph glyph-name="uni025F" unicode="&#x25f;" horiz-adv-x="245" 
d="M228 103h-47v-120q0 -113 -111 -113h-64v99h62v134h-48v76h48v384h113v-384h47v-76z" />
    <glyph glyph-name="uni0268" unicode="&#x268;" horiz-adv-x="241" 
d="M177 742v-111h-119v111h119zM226 399v-76h-52v-323h-113v323h-43v76h43v164h113v-164h52z" />
    <glyph glyph-name="uni026E" unicode="&#x26e;" horiz-adv-x="451" 
d="M399 196.5q25 -25.5 25 -65.5v-117q0 -57 -8.5 -87.5t-37.5 -46t-89 -15.5h-93v94h111v213h-92v103h67v128h-122v-403h-113v750h113v-254h122q116 0 116 -110v-74q0 -29 -17.5 -48.5t-46.5 -24.5v-13q40 -4 65 -29.5z" />
    <glyph glyph-name="uni0276" unicode="&#x276;" horiz-adv-x="593" 
d="M357 264v-177h90v112h103v-92q0 -56 -25.5 -83t-82.5 -27h-55q-43 0 -61 17t-22 51h-14q-8 -68 -91 -68h-44q-58 0 -84.5 28.5t-26.5 84.5v346q0 110 111 110h44q83 0 91 -68h14q4 34 22 51t61 17h58q57 0 84 -27.5t27 -82.5v-192h-199zM155 88h91v387h-91v-387zM447 475
h-90v-127h90v127z" />
    <glyph glyph-name="uni0289" unicode="&#x289;" horiz-adv-x="450" 
d="M434 283h-54v-283h-110l-2 62h-15q-13 -68 -79 -68h-27q-43 0 -65.5 27.5t-22.5 81.5v180h-42v76h42v204h113v-204h95v204h113v-204h54v-76zM267 101v182h-95v-182h95z" />
    <glyph glyph-name="uni02A4" unicode="&#x2a4;" horiz-adv-x="660" 
d="M608 196.5q25 -25.5 25 -65.5v-117q0 -57 -8.5 -87.5t-37.5 -46t-89 -15.5h-93v94h111v213h-92v103h67v128h-122v-403h-110l-3 62h-14q-13 -68 -78 -68h-29q-43 0 -67 26.5t-24 79.5v350q0 113 113 113h99v187h113v-254h122q116 0 116 -110v-74q0 -29 -17.5 -48.5
t-46.5 -24.5v-13q40 -4 65 -29.5zM256 92v380h-99v-380h99z" />
    <glyph glyph-name="circumflex" unicode="&#x2c6;" horiz-adv-x="218" 
d="M0 746l42 146h134l42 -146h-95l-6 110h-17l-5 -110h-95z" />
    <glyph glyph-name="caron" unicode="&#x2c7;" horiz-adv-x="198" 
d="M0 892h75l20 -100h8l20 100h75l-32 -146h-134z" />
    <glyph glyph-name="breve" unicode="&#x2d8;" horiz-adv-x="192" 
d="M0 876h63v-40h66v40h63v-28q0 -46 -21 -67.5t-75 -21.5q-56 0 -76 21t-20 68v28z" />
    <glyph glyph-name="dotaccent" unicode="&#x2d9;" horiz-adv-x="100" 
d="M0 880h100v-124h-100v124z" />
    <glyph glyph-name="ring" unicode="&#x2da;" horiz-adv-x="224" 
d="M0 823q0 42 26 55.5t86 13.5q58 0 85 -14t27 -55v-22q0 -41 -27 -55t-85 -14q-60 0 -86 13.5t-26 55.5v22zM65 786h94v51h-94v-51z" />
    <glyph glyph-name="ogonek" unicode="&#x2db;" horiz-adv-x="147" 
d="M96 6l-20 -102h71v-73h-71q-39 0 -57.5 15.5t-18.5 52.5v13q0 32 17 50t43 22v22h36z" />
    <glyph glyph-name="tilde" unicode="&#x2dc;" horiz-adv-x="225" 
d="M0 889h60v-80h16q14 44 34.5 63t51.5 19q63 0 63 -57v-80h-60v82h-17q-13 -45 -33.5 -65.5t-53.5 -20.5t-47 13.5t-14 43.5v82z" />
    <glyph glyph-name="hungarumlaut" unicode="&#x2dd;" horiz-adv-x="278" 
d="M52 892h96l-73 -146h-75zM182 892h96l-73 -146h-75z" />
    <glyph glyph-name="gravecomb" unicode="&#x300;" 
 />
    <glyph glyph-name="acutecomb" unicode="&#x301;" 
 />
    <glyph glyph-name="uni0302" unicode="&#x302;" 
 />
    <glyph glyph-name="tildecomb" unicode="&#x303;" 
 />
    <glyph glyph-name="uni0304" unicode="&#x304;" 
 />
    <glyph glyph-name="uni0306" unicode="&#x306;" 
 />
    <glyph glyph-name="uni0307" unicode="&#x307;" 
 />
    <glyph glyph-name="uni0308" unicode="&#x308;" 
 />
    <glyph glyph-name="hookabovecomb" unicode="&#x309;" 
d="M-126 611v57h50v37h-81v51h81q40 0 58 -14.5t18 -44.5q0 -39 -20 -53t-60 -14v-19h-46z" />
    <glyph glyph-name="uni030A" unicode="&#x30a;" 
 />
    <glyph glyph-name="uni030B" unicode="&#x30b;" 
 />
    <glyph glyph-name="uni030C" unicode="&#x30c;" 
 />
    <glyph glyph-name="uni0312" unicode="&#x312;" 
 />
    <glyph glyph-name="uni031B" unicode="&#x31b;" 
 />
    <glyph glyph-name="dotbelowcomb" unicode="&#x323;" 
 />
    <glyph glyph-name="uni0326" unicode="&#x326;" 
d="M0 -60v-46q0 -37 -26 -53.5t-79 -16.5v116h105z" />
    <glyph glyph-name="uni0327" unicode="&#x327;" 
 />
    <glyph glyph-name="uni0328" unicode="&#x328;" 
 />
    <glyph glyph-name="uni0335" unicode="&#x335;" 
 />
    <glyph glyph-name="uni0336" unicode="&#x336;" 
 />
    <glyph glyph-name="uni0337" unicode="&#x337;" 
 />
    <glyph glyph-name="uni0338" unicode="&#x338;" 
 />
    <glyph glyph-name="uni03A9" unicode="&#x3a9;" horiz-adv-x="536" 
d="M390 563l-43 -465h31v-24h32l1 -91h-286v91h33v24h31l-43 465h-46v48h77v13q-63 25 -63 105q0 56 40 89t113 33q75 0 115 -33t40 -89q0 -80 -63 -105v-13h77v-48h-46zM301 98l48 465h-162l48 -465h66z" />
    <glyph glyph-name="beta" unicode="&#x3b2;" horiz-adv-x="577" 
d="M197 555.5q32 30.5 91 30.5q61 0 92.5 -31t31.5 -85q0 -43 -29 -78t-95 -35q-65 0 -94 35t-29 78q0 55 32 85.5zM103.5 383q3.5 22 15.5 68l23 7q3 -56 37 -85.5t110 -29.5t109.5 29.5t36.5 85.5l23 -7q12 -46 15.5 -68t3.5 -43q0 -42 -30.5 -123.5t-98.5 -238.5h-119
q-68 157 -98.5 238.5t-30.5 123.5q0 21 3.5 43z" />
    <glyph glyph-name="theta" unicode="&#x3b8;" horiz-adv-x="523" 
d="M423 671v-21q-34 -51 -50 -103t-32 -149q10 -4 17.5 -16.5t7.5 -29.5q0 -32 -21.5 -50t-61.5 -18v-10q15 -1 15 -19t-18 -20q0 -34 17 -49.5t49 -23.5v-29h40v-150h-249v150h40v29q32 8 49 23.5t17 49.5q-18 2 -18 20t15 19v10q-40 0 -61.5 18t-21.5 50q0 17 7.5 29.5
t17.5 16.5q-16 97 -32 149t-50 103v21h323z" />
    <glyph glyph-name="uni03BC" unicode="&#x3bc;" horiz-adv-x="551" 
d="M451 831v-19q-27 -126 -60 -262.5t-60 -231.5v-34l38 -200q10 -1 17 -7.5t9 -15.5l17 -78h-273l17 78q2 9 9 15.5t17 7.5l38 200v34q-27 95 -60 231.5t-60 262.5v19h351z" />
    <glyph glyph-name="pi" unicode="&#x3c0;" horiz-adv-x="531" 
d="M382.5 433.5q-21.5 -51.5 -63.5 -95.5v-19q13 -66 35 -190h2q9 0 13.5 -3t6.5 -12l24 -98v-33h-269v33l24 98q2 9 6.5 12t13.5 3h2q22 124 35 190v19q-42 44 -63.5 95.5t-29.5 124.5l-19 191h331l-19 -191q-8 -73 -29.5 -124.5z" />
    <glyph glyph-name="uni03D0" unicode="&#x3d0;" horiz-adv-x="577" 
d="M113.5 611.5q13.5 39.5 48.5 80.5q6 33 23 57h203q17 -24 23 -57q35 -41 48.5 -80.5t13.5 -92.5q0 -78 -25 -135t-69 -121q-23 -33 -33 -52t-10 -36q0 -22 6.5 -41t28.5 -68h40q5 -12 7 -30h-22v-23h22q-2 -17 -7 -30h-249q-5 13 -7 30h22v23h-22q2 18 7 30h40
q22 49 28.5 68t6.5 41q0 17 -10 36t-33 52q-44 64 -69 121t-25 135q0 53 13.5 92.5zM219.5 347.5q-22.5 41.5 -38.5 109t-16 156.5h-15q-16 -42 -16 -95q0 -48 20 -99t49 -90t55 -52l6 11q-22 18 -44.5 59.5zM370 329q29 39 49 90t20 98q0 54 -16 96h-15q0 -89 -16 -156.5
t-38.5 -109t-44.5 -59.5l6 -11q26 13 55 52z" />
    <glyph glyph-name="uni03D1" unicode="&#x3d1;" horiz-adv-x="762" 
d="M308 160q2 -7 4.5 -10.5t8.5 -4.5v-28q-9 -1 -9 -14q0 -32 -20 -50.5t-62 -28.5l-21 -5q-17 -5 -16 -19l2 -17h372l2 17v2q0 13 -16 17l-21 5q-43 10 -62.5 28.5t-19.5 50.5q0 13 -9 14v28q6 1 8.5 4.5t4.5 10.5l1 4q6 26 14.5 43.5t25.5 44.5q13 20 24 40l10 18
q41 73 67.5 128.5t46 126.5t19.5 146q0 58 -20 99.5t-52.5 63t-68.5 21.5q-35 0 -56 -18.5t-21 -47.5q0 -22 11.5 -34t31.5 -23q13 -7 18 -11t5 -11q0 -16 -24 -16h-210q-24 0 -24 16q0 7 5 11t18 11q20 11 31.5 23t11.5 34q0 29 -21 47.5t-56 18.5q-36 0 -68.5 -21.5
t-52.5 -63t-20 -99.5q0 -74 18.5 -142.5t44.5 -124t65 -125.5l15 -27q7 -13 13.5 -23.5t11.5 -19.5q16 -25 24.5 -42.5t14.5 -42.5zM278 273l-26 54q-45 92 -67 144t-35 109t-13 124q0 51 15 87t39 54t51 18q21 0 32 -9t11 -24q0 -13 -8 -20.5t-24 -16.5q-18 -10 -26.5 -19
t-8.5 -26t13 -28t29 -13v-4q0 -9 -10.5 -15t-30.5 -14q-22 -8 -32.5 -14.5t-10.5 -16.5q0 -54 29 -138.5t78 -206.5l8 -19zM479 298q49 122 78 206.5t29 138.5q0 10 -10.5 16.5t-32.5 14.5q-20 8 -30.5 14t-10.5 15v4q16 2 29 13t13 28t-8.5 26t-26.5 19q-16 9 -24 16.5
t-8 20.5q0 15 11 24t32 9q27 0 51 -18t39 -54t15 -87q0 -67 -13 -124t-35 -109t-67 -144l-26 -54l-13 6z" />
    <glyph glyph-name="uni03D5" unicode="&#x3d5;" horiz-adv-x="768" 
d="M308 380.5q24 -26.5 52 -35.5v-6q-16 -1 -16 -15q0 -15 20 -18l-6 -59q-5 -57 -15.5 -86t-24 -39.5t-40.5 -23.5v-18h-21q-19 0 -19 -16q0 -13 4 -21q3 -6 3 -18q0 -7 -3.5 -12.5t-3.5 -10.5t1 -8l2 -11h286l2 11q1 3 1 8t-4 10.5t-4 12.5q0 13 3 18q5 8 5 21
q0 8 -5.5 12t-14.5 4h-21v18q-27 13 -40 23.5t-24 39.5t-16 86l-5 59q20 3 20 18q0 13 -17 15v6q28 9 52 35.5t35 63.5q4 13 9.5 18t14.5 5h64q0 49 11.5 80.5t33.5 71.5q20 36 30.5 65t10.5 71q0 43 -20 64.5t-54 21.5q-31 0 -48 -17.5t-17 -48.5v-42q-72 -8 -153 -8
t-137 8v42q0 31 -17 48.5t-49 17.5q-33 0 -53 -21.5t-20 -64.5q0 -42 10.5 -71t30.5 -65q22 -39 33 -71t11 -81h65q19 0 25 -23q9 -37 33 -63.5zM211 496q-1 40 -11.5 68.5t-30.5 64.5q-19 34 -28.5 59.5t-9.5 60.5q0 33 11 49.5t32 16.5q17 0 27 -11t10 -28v-6h-7
q-19 0 -26.5 -5t-7.5 -17q0 -15 11.5 -19t37.5 -4v-13q8 -98 37 -216h-45zM548 712v13q27 0 38.5 4t11.5 19q0 12 -7.5 17t-26.5 5h-8v6q0 17 10 28t27 11q21 0 32.5 -16.5t11.5 -49.5q0 -35 -9.5 -60.5t-28.5 -59.5q-20 -34 -31 -63.5t-12 -69.5h-44q29 119 36 216z" />
    <glyph glyph-name="Wgrave" unicode="&#x1e80;" horiz-adv-x="632" 
d="M49 695h114v-591h98v591h110v-591h98v591h114v-587q0 -55 -29.5 -84t-86.5 -29h-50q-39 0 -65 18t-39 56h-3q-11 -37 -37 -55.5t-58 -18.5h-50q-57 0 -86.5 29t-29.5 84v587zM328 892l52 -146h-95l-73 146h116z" />
    <glyph glyph-name="wgrave" unicode="&#x1e81;" horiz-adv-x="592" 
d="M59 181.5q-32 99.5 -32 236.5v145h113v-128q0 -80 6 -147t34 -182h10q31 70 40.5 126t9.5 116v37v178h113v-178q0 -50 2 -81t12.5 -80.5t35.5 -117.5h10q27 115 33.5 183.5t6.5 145.5v128h113v-145q0 -131 -31.5 -229t-85.5 -191h-78q-40 67 -67 155h-11
q-28 -85 -71 -155h-78q-53 84 -85 183.5zM328 758l52 -146h-95l-73 146h116z" />
    <glyph glyph-name="Wacute" unicode="&#x1e82;" horiz-adv-x="632" 
d="M49 695h114v-591h98v591h110v-591h98v591h114v-587q0 -55 -29.5 -84t-86.5 -29h-50q-39 0 -65 18t-39 56h-3q-11 -37 -37 -55.5t-58 -18.5h-50q-57 0 -86.5 29t-29.5 84v587zM285 892h116l-73 -146h-95z" />
    <glyph glyph-name="wacute" unicode="&#x1e83;" horiz-adv-x="592" 
d="M59 181.5q-32 99.5 -32 236.5v145h113v-128q0 -80 6 -147t34 -182h10q31 70 40.5 126t9.5 116v37v178h113v-178q0 -50 2 -81t12.5 -80.5t35.5 -117.5h10q27 115 33.5 183.5t6.5 145.5v128h113v-145q0 -131 -31.5 -229t-85.5 -191h-78q-40 67 -67 155h-11
q-28 -85 -71 -155h-78q-53 84 -85 183.5zM297 758h116l-73 -146h-95z" />
    <glyph glyph-name="Wdieresis" unicode="&#x1e84;" horiz-adv-x="632" 
d="M49 695h114v-591h98v591h110v-591h98v591h114v-587q0 -55 -29.5 -84t-86.5 -29h-50q-39 0 -65 18t-39 56h-3q-11 -37 -37 -55.5t-58 -18.5h-50q-57 0 -86.5 29t-29.5 84v587zM212 880h80v-124h-80v124zM339 880h80v-124h-80v124z" />
    <glyph glyph-name="wdieresis" unicode="&#x1e85;" horiz-adv-x="592" 
d="M59 181.5q-32 99.5 -32 236.5v145h113v-128q0 -80 6 -147t34 -182h10q31 70 40.5 126t9.5 116v37v178h113v-178q0 -50 2 -81t12.5 -80.5t35.5 -117.5h10q27 115 33.5 183.5t6.5 145.5v128h113v-145q0 -131 -31.5 -229t-85.5 -191h-78q-40 67 -67 155h-11
q-28 -85 -71 -155h-78q-53 84 -85 183.5zM217 746h80v-124h-80v124zM344 746h80v-124h-80v124z" />
    <glyph glyph-name="uni1EA0" unicode="&#x1ea0;" horiz-adv-x="433" 
d="M354.5 671q29.5 -29 29.5 -84v-587h-116v194h-103v-194h-116v590q0 110 116 110h103q57 0 86.5 -29zM165 292h103v308h-103v-308zM170 -66h100v-124h-100v124z" />
    <glyph glyph-name="uni1EA1" unicode="&#x1ea1;" horiz-adv-x="392" 
d="M32 187q0 46 27 69.5t70 23.5h105v198h-82v-139h-106v117q0 110 115 110h75q56 0 83.5 -31t27.5 -87v-448h-105l-2 65h-14q-4 -33 -24.5 -52t-56.5 -19h-22q-43 0 -67 26.5t-24 79.5v87zM142 92h92v103h-92v-103zM147 -66h100v-124h-100v124z" />
    <glyph glyph-name="uni1EA2" unicode="&#x1ea2;" horiz-adv-x="433" 
d="M354.5 671q29.5 -29 29.5 -84v-587h-116v194h-103v-194h-116v590q0 110 116 110h103q57 0 86.5 -29zM165 292h103v308h-103v-308zM183 740v57h50v37h-81v51h81q40 0 58 -14.5t18 -44.5q0 -39 -20 -53t-60 -14v-19h-46z" />
    <glyph glyph-name="uni1EA3" unicode="&#x1ea3;" horiz-adv-x="392" 
d="M32 187q0 46 27 69.5t70 23.5h105v198h-82v-139h-106v117q0 110 115 110h75q56 0 83.5 -31t27.5 -87v-448h-105l-2 65h-14q-4 -33 -24.5 -52t-56.5 -19h-22q-43 0 -67 26.5t-24 79.5v87zM142 92h92v103h-92v-103zM161 606v57h50v37h-81v51h81q40 0 58 -14.5t18 -44.5
q0 -39 -20 -53t-60 -14v-19h-46z" />
    <glyph glyph-name="uni1EA4" unicode="&#x1ea4;" horiz-adv-x="433" 
d="M354.5 671q29.5 -29 29.5 -84v-587h-116v194h-103v-194h-116v590q0 110 116 110h103q57 0 86.5 -29zM165 292h103v308h-103v-308zM344 946h116l-73 -146h-95zM72 746l42 146h134l42 -146h-95l-6 110h-17l-5 -110h-95z" />
    <glyph glyph-name="uni1EA5" unicode="&#x1ea5;" horiz-adv-x="392" 
d="M32 187q0 46 27 69.5t70 23.5h105v198h-82v-139h-106v117q0 110 115 110h75q56 0 83.5 -31t27.5 -87v-448h-105l-2 65h-14q-4 -33 -24.5 -52t-56.5 -19h-22q-43 0 -67 26.5t-24 79.5v87zM142 92h92v103h-92v-103zM324 812h116l-73 -146h-95zM52 612l42 146h134l42 -146
h-95l-6 110h-17l-5 -110h-95z" />
    <glyph glyph-name="uni1EA6" unicode="&#x1ea6;" horiz-adv-x="433" 
d="M354.5 671q29.5 -29 29.5 -84v-587h-116v194h-103v-194h-116v590q0 110 116 110h103q57 0 86.5 -29zM165 292h103v308h-103v-308zM82 746l42 146h134l42 -146h-95l-6 110h-17l-5 -110h-95zM377 946l52 -146h-95l-73 146h116z" />
    <glyph glyph-name="uni1EA7" unicode="&#x1ea7;" horiz-adv-x="392" 
d="M32 187q0 46 27 69.5t70 23.5h105v198h-82v-139h-106v117q0 110 115 110h75q56 0 83.5 -31t27.5 -87v-448h-105l-2 65h-14q-4 -33 -24.5 -52t-56.5 -19h-22q-43 0 -67 26.5t-24 79.5v87zM142 92h92v103h-92v-103zM52 612l42 146h134l42 -146h-95l-6 110h-17l-5 -110h-95z
M347 812l52 -146h-95l-73 146h116z" />
    <glyph glyph-name="uni1EA8" unicode="&#x1ea8;" horiz-adv-x="433" 
d="M354.5 671q29.5 -29 29.5 -84v-587h-116v194h-103v-194h-116v590q0 110 116 110h103q57 0 86.5 -29zM165 292h103v308h-103v-308zM82 746l42 146h134l42 -146h-95l-6 110h-17l-5 -110h-95zM314 800v57h50v37h-81v51h81q40 0 58 -14.5t18 -44.5q0 -39 -20 -53t-60 -14v-19
h-46z" />
    <glyph glyph-name="uni1EA9" unicode="&#x1ea9;" horiz-adv-x="392" 
d="M32 187q0 46 27 69.5t70 23.5h105v198h-82v-139h-106v117q0 110 115 110h75q56 0 83.5 -31t27.5 -87v-448h-105l-2 65h-14q-4 -33 -24.5 -52t-56.5 -19h-22q-43 0 -67 26.5t-24 79.5v87zM142 92h92v103h-92v-103zM52 612l42 146h134l42 -146h-95l-6 110h-17l-5 -110h-95z
M284 666v57h50v37h-81v51h81q40 0 58 -14.5t18 -44.5q0 -39 -20 -53t-60 -14v-19h-46z" />
    <glyph glyph-name="uni1EAA" unicode="&#x1eaa;" horiz-adv-x="433" 
d="M354.5 671q29.5 -29 29.5 -84v-587h-116v194h-103v-194h-116v590q0 110 116 110h103q57 0 86.5 -29zM165 292h103v308h-103v-308zM106 746l42 146h134l42 -146h-95l-6 110h-17l-5 -110h-95zM102 1047h60v-80h16q14 44 34.5 63t51.5 19q63 0 63 -57v-80h-60v82h-17
q-13 -45 -33.5 -65.5t-53.5 -20.5t-47 13.5t-14 43.5v82z" />
    <glyph glyph-name="uni1EAB" unicode="&#x1eab;" horiz-adv-x="392" 
d="M32 187q0 46 27 69.5t70 23.5h105v198h-82v-139h-106v117q0 110 115 110h75q56 0 83.5 -31t27.5 -87v-448h-105l-2 65h-14q-4 -33 -24.5 -52t-56.5 -19h-22q-43 0 -67 26.5t-24 79.5v87zM142 92h92v103h-92v-103zM89 612l42 146h134l42 -146h-95l-6 110h-17l-5 -110h-95z
M85 913h60v-80h16q14 44 34.5 63t51.5 19q63 0 63 -57v-80h-60v82h-17q-13 -45 -33.5 -65.5t-53.5 -20.5t-47 13.5t-14 43.5v82z" />
    <glyph glyph-name="uni1EAC" unicode="&#x1eac;" horiz-adv-x="433" 
d="M354.5 671q29.5 -29 29.5 -84v-587h-116v194h-103v-194h-116v590q0 110 116 110h103q57 0 86.5 -29zM165 292h103v308h-103v-308zM106 746l42 146h134l42 -146h-95l-6 110h-17l-5 -110h-95zM167 -66h100v-124h-100v124z" />
    <glyph glyph-name="uni1EAD" unicode="&#x1ead;" horiz-adv-x="392" 
d="M32 187q0 46 27 69.5t70 23.5h105v198h-82v-139h-106v117q0 110 115 110h75q56 0 83.5 -31t27.5 -87v-448h-105l-2 65h-14q-4 -33 -24.5 -52t-56.5 -19h-22q-43 0 -67 26.5t-24 79.5v87zM142 92h92v103h-92v-103zM89 612l42 146h134l42 -146h-95l-6 110h-17l-5 -110h-95z
M147 -66h100v-124h-100v124z" />
    <glyph glyph-name="uni1EAE" unicode="&#x1eae;" horiz-adv-x="433" 
d="M332 1056l-73 -146h-95l52 146h116zM143 780q-20 21 -20 68v28h63v-40h66v40h63v-28q0 -46 -21 -67.5t-75 -21.5q-56 0 -76 21zM354.5 671q29.5 -29 29.5 -84v-587h-116v194h-103v-194h-116v590q0 110 116 110h103q57 0 86.5 -29zM165 292h103v308h-103v-308z" />
    <glyph glyph-name="uni1EAF" unicode="&#x1eaf;" horiz-adv-x="392" 
d="M32 187q0 46 27 69.5t70 23.5h105v198h-82v-139h-106v117q0 110 115 110h75q56 0 83.5 -31t27.5 -87v-448h-105l-2 65h-14q-4 -33 -24.5 -52t-56.5 -19h-22q-43 0 -67 26.5t-24 79.5v87zM142 92h92v103h-92v-103zM95 742h63v-40h66v40h63v-28q0 -46 -21 -67.5t-75 -21.5
q-56 0 -76 21t-20 68v28zM200 922h116l-73 -146h-95z" />
    <glyph glyph-name="uni1EB0" unicode="&#x1eb0;" horiz-adv-x="433" 
d="M354.5 671q29.5 -29 29.5 -84v-587h-116v194h-103v-194h-116v590q0 110 116 110h103q57 0 86.5 -29zM165 292h103v308h-103v-308zM123 876h63v-40h66v40h63v-28q0 -46 -21 -67.5t-75 -21.5q-56 0 -76 21t-20 68v28zM219 1056l52 -146h-95l-73 146h116z" />
    <glyph glyph-name="uni1EB1" unicode="&#x1eb1;" horiz-adv-x="392" 
d="M32 187q0 46 27 69.5t70 23.5h105v198h-82v-139h-106v117q0 110 115 110h75q56 0 83.5 -31t27.5 -87v-448h-105l-2 65h-14q-4 -33 -24.5 -52t-56.5 -19h-22q-43 0 -67 26.5t-24 79.5v87zM142 92h92v103h-92v-103zM95 742h63v-40h66v40h63v-28q0 -46 -21 -67.5t-75 -21.5
q-56 0 -76 21t-20 68v28zM188 922l52 -146h-95l-73 146h116z" />
    <glyph glyph-name="uni1EB2" unicode="&#x1eb2;" horiz-adv-x="433" 
d="M354.5 671q29.5 -29 29.5 -84v-587h-116v194h-103v-194h-116v590q0 110 116 110h103q57 0 86.5 -29zM165 292h103v308h-103v-308zM123 876h63v-40h66v40h63v-28q0 -46 -21 -67.5t-75 -21.5q-56 0 -76 21t-20 68v28zM185 898v57h50v37h-81v51h81q40 0 58 -14.5t18 -44.5
q0 -39 -20 -53t-60 -14v-19h-46z" />
    <glyph glyph-name="uni1EB3" unicode="&#x1eb3;" horiz-adv-x="392" 
d="M32 187q0 46 27 69.5t70 23.5h105v198h-82v-139h-106v117q0 110 115 110h75q56 0 83.5 -31t27.5 -87v-448h-105l-2 65h-14q-4 -33 -24.5 -52t-56.5 -19h-22q-43 0 -67 26.5t-24 79.5v87zM142 92h92v103h-92v-103zM95 742h63v-40h66v40h63v-28q0 -46 -21 -67.5t-75 -21.5
q-56 0 -76 21t-20 68v28zM156 764v57h50v37h-81v51h81q40 0 58 -14.5t18 -44.5q0 -39 -20 -53t-60 -14v-19h-46z" />
    <glyph glyph-name="uni1EB4" unicode="&#x1eb4;" horiz-adv-x="433" 
d="M354.5 671q29.5 -29 29.5 -84v-587h-116v194h-103v-194h-116v590q0 110 116 110h103q57 0 86.5 -29zM165 292h103v308h-103v-308zM123 876h63v-40h66v40h63v-28q0 -46 -21 -67.5t-75 -21.5q-56 0 -76 21t-20 68v28zM106 1047h60v-80h16q14 44 34.5 63t51.5 19
q63 0 63 -57v-80h-60v82h-17q-13 -45 -33.5 -65.5t-53.5 -20.5t-47 13.5t-14 43.5v82z" />
    <glyph glyph-name="uni1EB5" unicode="&#x1eb5;" horiz-adv-x="392" 
d="M32 187q0 46 27 69.5t70 23.5h105v198h-82v-139h-106v117q0 110 115 110h75q56 0 83.5 -31t27.5 -87v-448h-105l-2 65h-14q-4 -33 -24.5 -52t-56.5 -19h-22q-43 0 -67 26.5t-24 79.5v87zM142 92h92v103h-92v-103zM95 742h63v-40h66v40h63v-28q0 -46 -21 -67.5t-75 -21.5
q-56 0 -76 21t-20 68v28zM78 913h60v-80h16q14 44 34.5 63t51.5 19q63 0 63 -57v-80h-60v82h-17q-13 -45 -33.5 -65.5t-53.5 -20.5t-47 13.5t-14 43.5v82z" />
    <glyph glyph-name="uni1EB6" unicode="&#x1eb6;" horiz-adv-x="433" 
d="M354.5 671q29.5 -29 29.5 -84v-587h-116v194h-103v-194h-116v590q0 110 116 110h103q57 0 86.5 -29zM165 292h103v308h-103v-308zM123 876h63v-40h66v40h63v-28q0 -46 -21 -67.5t-75 -21.5q-56 0 -76 21t-20 68v28zM172 -66h100v-124h-100v124z" />
    <glyph glyph-name="uni1EB7" unicode="&#x1eb7;" horiz-adv-x="392" 
d="M32 187q0 46 27 69.5t70 23.5h105v198h-82v-139h-106v117q0 110 115 110h75q56 0 83.5 -31t27.5 -87v-448h-105l-2 65h-14q-4 -33 -24.5 -52t-56.5 -19h-22q-43 0 -67 26.5t-24 79.5v87zM142 92h92v103h-92v-103zM95 742h63v-40h66v40h63v-28q0 -46 -21 -67.5t-75 -21.5
q-56 0 -76 21t-20 68v28zM147 -66h100v-124h-100v124z" />
    <glyph glyph-name="uni1EB8" unicode="&#x1eb8;" horiz-adv-x="360" 
d="M328 589h-162v-184h134l-20 -102h-114v-197h170l-20 -106h-266v695h258zM139 -66h100v-124h-100v124z" />
    <glyph glyph-name="uni1EB9" unicode="&#x1eb9;" horiz-adv-x="391" 
d="M44 453q0 113 111 113h88q57 0 84 -27.5t27 -82.5v-192h-199v-177h90v112h103v-92q0 -56 -25.5 -83t-82.5 -27h-85q-58 0 -84.5 26t-26.5 87v343zM155 348h90v127h-90v-127zM146 -66h100v-124h-100v124z" />
    <glyph glyph-name="uni1EBA" unicode="&#x1eba;" horiz-adv-x="360" 
d="M328 589h-162v-184h134l-20 -102h-114v-197h170l-20 -106h-266v695h258zM163 740v57h50v37h-81v51h81q40 0 58 -14.5t18 -44.5q0 -39 -20 -53t-60 -14v-19h-46z" />
    <glyph glyph-name="uni1EBB" unicode="&#x1ebb;" horiz-adv-x="391" 
d="M44 453q0 113 111 113h88q57 0 84 -27.5t27 -82.5v-192h-199v-177h90v112h103v-92q0 -56 -25.5 -83t-82.5 -27h-85q-58 0 -84.5 26t-26.5 87v343zM155 348h90v127h-90v-127zM159 606v57h50v37h-81v51h81q40 0 58 -14.5t18 -44.5q0 -39 -20 -53t-60 -14v-19h-46z" />
    <glyph glyph-name="uni1EBC" unicode="&#x1ebc;" horiz-adv-x="360" 
d="M328 589h-162v-184h134l-20 -102h-114v-197h170l-20 -106h-266v695h258zM86 889h60v-80h16q14 44 34.5 63t51.5 19q63 0 63 -57v-80h-60v82h-17q-13 -45 -33.5 -65.5t-53.5 -20.5t-47 13.5t-14 43.5v82z" />
    <glyph glyph-name="uni1EBD" unicode="&#x1ebd;" horiz-adv-x="391" 
d="M44 453q0 113 111 113h88q57 0 84 -27.5t27 -82.5v-192h-199v-177h90v112h103v-92q0 -56 -25.5 -83t-82.5 -27h-85q-58 0 -84.5 26t-26.5 87v343zM155 348h90v127h-90v-127zM88 755h60v-80h16q14 44 34.5 63t51.5 19q63 0 63 -57v-80h-60v82h-17q-13 -45 -33.5 -65.5
t-53.5 -20.5t-47 13.5t-14 43.5v82z" />
    <glyph glyph-name="uni1EBE" unicode="&#x1ebe;" horiz-adv-x="360" 
d="M328 589h-162v-184h134l-20 -102h-114v-197h170l-20 -106h-266v695h258zM36 746l42 146h134l42 -146h-95l-6 110h-17l-5 -110h-95zM308 946h116l-73 -146h-95z" />
    <glyph glyph-name="uni1EBF" unicode="&#x1ebf;" horiz-adv-x="391" 
d="M44 453q0 113 111 113h88q57 0 84 -27.5t27 -82.5v-192h-199v-177h90v112h103v-92q0 -56 -25.5 -83t-82.5 -27h-85q-58 0 -84.5 26t-26.5 87v343zM155 348h90v127h-90v-127zM326 812h116l-73 -146h-95zM54 612l42 146h134l42 -146h-95l-6 110h-17l-5 -110h-95z" />
    <glyph glyph-name="uni1EC0" unicode="&#x1ec0;" horiz-adv-x="360" 
d="M328 589h-162v-184h134l-20 -102h-114v-197h170l-20 -106h-266v695h258zM24 746l42 146h134l42 -146h-95l-6 110h-17l-5 -110h-95zM319 946l52 -146h-95l-73 146h116z" />
    <glyph glyph-name="uni1EC1" unicode="&#x1ec1;" horiz-adv-x="391" 
d="M44 453q0 113 111 113h88q57 0 84 -27.5t27 -82.5v-192h-199v-177h90v112h103v-92q0 -56 -25.5 -83t-82.5 -27h-85q-58 0 -84.5 26t-26.5 87v343zM155 348h90v127h-90v-127zM349 812l52 -146h-95l-73 146h116zM54 612l42 146h134l42 -146h-95l-6 110h-17l-5 -110h-95z
" />
    <glyph glyph-name="uni1EC2" unicode="&#x1ec2;" horiz-adv-x="360" 
d="M328 589h-162v-184h134l-20 -102h-114v-197h170l-20 -106h-266v695h258zM32 746l42 146h134l42 -146h-95l-6 110h-17l-5 -110h-95zM264 800v57h50v37h-81v51h81q40 0 58 -14.5t18 -44.5q0 -39 -20 -53t-60 -14v-19h-46z" />
    <glyph glyph-name="uni1EC3" unicode="&#x1ec3;" horiz-adv-x="391" 
d="M44 453q0 113 111 113h88q57 0 84 -27.5t27 -82.5v-192h-199v-177h90v112h103v-92q0 -56 -25.5 -83t-82.5 -27h-85q-58 0 -84.5 26t-26.5 87v343zM155 348h90v127h-90v-127zM276 666v57h50v37h-81v51h81q40 0 58 -14.5t18 -44.5q0 -39 -20 -53t-60 -14v-19h-46zM44 612
l42 146h134l42 -146h-95l-6 110h-17l-5 -110h-95z" />
    <glyph glyph-name="uni1EC4" unicode="&#x1ec4;" horiz-adv-x="360" 
d="M328 589h-162v-184h134l-20 -102h-114v-197h170l-20 -106h-266v695h258zM79 746l42 146h134l42 -146h-95l-6 110h-17l-5 -110h-95zM73 1047h60v-80h16q14 44 34.5 63t51.5 19q63 0 63 -57v-80h-60v82h-17q-13 -45 -33.5 -65.5t-53.5 -20.5t-47 13.5t-14 43.5v82z" />
    <glyph glyph-name="uni1EC5" unicode="&#x1ec5;" horiz-adv-x="391" 
d="M44 453q0 113 111 113h88q57 0 84 -27.5t27 -82.5v-192h-199v-177h90v112h103v-92q0 -56 -25.5 -83t-82.5 -27h-85q-58 0 -84.5 26t-26.5 87v343zM155 348h90v127h-90v-127zM90 612l42 146h134l42 -146h-95l-6 110h-17l-5 -110h-95zM84 913h60v-80h16q14 44 34.5 63
t51.5 19q63 0 63 -57v-80h-60v82h-17q-13 -45 -33.5 -65.5t-53.5 -20.5t-47 13.5t-14 43.5v82z" />
    <glyph glyph-name="uni1EC6" unicode="&#x1ec6;" horiz-adv-x="360" 
d="M328 589h-162v-184h134l-20 -102h-114v-197h170l-20 -106h-266v695h258zM73 746l42 146h134l42 -146h-95l-6 110h-17l-5 -110h-95zM146 -66h100v-124h-100v124z" />
    <glyph glyph-name="uni1EC7" unicode="&#x1ec7;" horiz-adv-x="391" 
d="M44 453q0 113 111 113h88q57 0 84 -27.5t27 -82.5v-192h-199v-177h90v112h103v-92q0 -56 -25.5 -83t-82.5 -27h-85q-58 0 -84.5 26t-26.5 87v343zM155 348h90v127h-90v-127zM146 -66h100v-124h-100v124zM89 612l42 146h134l42 -146h-95l-6 110h-17l-5 -110h-95z" />
    <glyph glyph-name="uni1EC8" unicode="&#x1ec8;" horiz-adv-x="216" 
d="M166 0h-116v695h116v-695zM75 740v57h50v37h-81v51h81q40 0 58 -14.5t18 -44.5q0 -39 -20 -53t-60 -14v-19h-46z" />
    <glyph glyph-name="uni1EC9" unicode="&#x1ec9;" horiz-adv-x="207" 
d="M160 563v-563h-113v563h113zM61 606v57h50v37h-81v51h81q40 0 58 -14.5t18 -44.5q0 -39 -20 -53t-60 -14v-19h-46z" />
    <glyph glyph-name="uni1ECA" unicode="&#x1eca;" horiz-adv-x="216" 
d="M166 0h-116v695h116v-695zM54 -66h100v-124h-100v124z" />
    <glyph glyph-name="uni1ECB" unicode="&#x1ecb;" horiz-adv-x="207" 
d="M160 563v-563h-113v563h113zM54 -66h100v-124h-100v124z" />
    <glyph glyph-name="uni1ECC" unicode="&#x1ecc;" horiz-adv-x="434" 
d="M356 23q-30 -28 -86 -28h-106q-116 0 -116 111v483q0 111 116 111h106q116 0 116 -111v-483q0 -55 -30 -83zM270 93v509h-106v-509h106zM166 -66h100v-124h-100v124z" />
    <glyph glyph-name="uni1ECD" unicode="&#x1ecd;" horiz-adv-x="405" 
d="M44 456q0 110 111 110h95q111 0 111 -110v-346q0 -56 -26.5 -84.5t-84.5 -28.5h-95q-58 0 -84.5 28.5t-26.5 84.5v346zM157 88h91v387h-91v-387zM153 -66h100v-124h-100v124z" />
    <glyph glyph-name="uni1ECE" unicode="&#x1ece;" horiz-adv-x="434" 
d="M356 23q-30 -28 -86 -28h-106q-116 0 -116 111v483q0 111 116 111h106q116 0 116 -111v-483q0 -55 -30 -83zM270 93v509h-106v-509h106zM192 740v57h50v37h-81v51h81q40 0 58 -14.5t18 -44.5q0 -39 -20 -53t-60 -14v-19h-46z" />
    <glyph glyph-name="uni1ECF" unicode="&#x1ecf;" horiz-adv-x="405" 
d="M44 456q0 110 111 110h95q111 0 111 -110v-346q0 -56 -26.5 -84.5t-84.5 -28.5h-95q-58 0 -84.5 28.5t-26.5 84.5v346zM157 88h91v387h-91v-387zM156 606v57h50v37h-81v51h81q40 0 58 -14.5t18 -44.5q0 -39 -20 -53t-60 -14v-19h-46z" />
    <glyph glyph-name="uni1ED0" unicode="&#x1ed0;" horiz-adv-x="434" 
d="M356 23q-30 -28 -86 -28h-106q-116 0 -116 111v483q0 111 116 111h106q116 0 116 -111v-483q0 -55 -30 -83zM270 93v509h-106v-509h106zM70 746l42 146h134l42 -146h-95l-6 110h-17l-5 -110h-95zM342 946h116l-73 -146h-95z" />
    <glyph glyph-name="uni1ED1" unicode="&#x1ed1;" horiz-adv-x="405" 
d="M44 456q0 110 111 110h95q111 0 111 -110v-346q0 -56 -26.5 -84.5t-84.5 -28.5h-95q-58 0 -84.5 28.5t-26.5 84.5v346zM157 88h91v387h-91v-387zM49 612l42 146h134l42 -146h-95l-6 110h-17l-5 -110h-95zM321 812h116l-73 -146h-95z" />
    <glyph glyph-name="uni1ED2" unicode="&#x1ed2;" horiz-adv-x="434" 
d="M356 23q-30 -28 -86 -28h-106q-116 0 -116 111v483q0 111 116 111h106q116 0 116 -111v-483q0 -55 -30 -83zM270 93v509h-106v-509h106zM72 746l42 146h134l42 -146h-95l-6 110h-17l-5 -110h-95zM367 946l52 -146h-95l-73 146h116z" />
    <glyph glyph-name="uni1ED3" unicode="&#x1ed3;" horiz-adv-x="405" 
d="M44 456q0 110 111 110h95q111 0 111 -110v-346q0 -56 -26.5 -84.5t-84.5 -28.5h-95q-58 0 -84.5 28.5t-26.5 84.5v346zM157 88h91v387h-91v-387zM59 612l42 146h134l42 -146h-95l-6 110h-17l-5 -110h-95zM354 812l52 -146h-95l-73 146h116z" />
    <glyph glyph-name="uni1ED4" unicode="&#x1ed4;" horiz-adv-x="434" 
d="M356 23q-30 -28 -86 -28h-106q-116 0 -116 111v483q0 111 116 111h106q116 0 116 -111v-483q0 -55 -30 -83zM270 93v509h-106v-509h106zM82 746l42 146h134l42 -146h-95l-6 110h-17l-5 -110h-95zM314 800v57h50v37h-81v51h81q40 0 58 -14.5t18 -44.5q0 -39 -20 -53
t-60 -14v-19h-46z" />
    <glyph glyph-name="uni1ED5" unicode="&#x1ed5;" horiz-adv-x="405" 
d="M44 456q0 110 111 110h95q111 0 111 -110v-346q0 -56 -26.5 -84.5t-84.5 -28.5h-95q-58 0 -84.5 28.5t-26.5 84.5v346zM157 88h91v387h-91v-387zM49 612l42 146h134l42 -146h-95l-6 110h-17l-5 -110h-95zM281 666v57h50v37h-81v51h81q40 0 58 -14.5t18 -44.5
q0 -39 -20 -53t-60 -14v-19h-46z" />
    <glyph glyph-name="uni1ED6" unicode="&#x1ed6;" horiz-adv-x="434" 
d="M356 23q-30 -28 -86 -28h-106q-116 0 -116 111v483q0 111 116 111h106q116 0 116 -111v-483q0 -55 -30 -83zM270 93v509h-106v-509h106zM114 746l42 146h134l42 -146h-95l-6 110h-17l-5 -110h-95zM110 1047h60v-80h16q14 44 34.5 63t51.5 19q63 0 63 -57v-80h-60v82h-17
q-13 -45 -33.5 -65.5t-53.5 -20.5t-47 13.5t-14 43.5v82z" />
    <glyph glyph-name="uni1ED7" unicode="&#x1ed7;" horiz-adv-x="405" 
d="M44 456q0 110 111 110h95q111 0 111 -110v-346q0 -56 -26.5 -84.5t-84.5 -28.5h-95q-58 0 -84.5 28.5t-26.5 84.5v346zM157 88h91v387h-91v-387zM87 612l42 146h134l42 -146h-95l-6 110h-17l-5 -110h-95zM82 913h60v-80h16q14 44 34.5 63t51.5 19q63 0 63 -57v-80h-60v82
h-17q-13 -45 -33.5 -65.5t-53.5 -20.5t-47 13.5t-14 43.5v82z" />
    <glyph glyph-name="uni1ED8" unicode="&#x1ed8;" horiz-adv-x="434" 
d="M356 23q-30 -28 -86 -28h-106q-116 0 -116 111v483q0 111 116 111h106q116 0 116 -111v-483q0 -55 -30 -83zM270 93v509h-106v-509h106zM111 746l42 146h134l42 -146h-95l-6 110h-17l-5 -110h-95zM166 -66h100v-124h-100v124z" />
    <glyph glyph-name="uni1ED9" unicode="&#x1ed9;" horiz-adv-x="405" 
d="M44 456q0 110 111 110h95q111 0 111 -110v-346q0 -56 -26.5 -84.5t-84.5 -28.5h-95q-58 0 -84.5 28.5t-26.5 84.5v346zM157 88h91v387h-91v-387zM87 612l42 146h134l42 -146h-95l-6 110h-17l-5 -110h-95zM146 -66h100v-124h-100v124z" />
    <glyph glyph-name="uni1EDA" unicode="&#x1eda;" horiz-adv-x="457" 
d="M458 775v-68q0 -36 -18.5 -55.5t-58.5 -20.5q5 -20 5 -42v-483q0 -55 -30 -83t-86 -28h-106q-116 0 -116 111v483q0 111 116 111h208v75h86zM270 93v509h-106v-509h106zM212 892h116l-73 -146h-95z" />
    <glyph glyph-name="uni1EDB" unicode="&#x1edb;" horiz-adv-x="411" 
d="M405 641v-68q0 -59 -50 -72q6 -19 6 -45v-346q0 -56 -26.5 -84.5t-84.5 -28.5h-95q-58 0 -84.5 28.5t-26.5 84.5v346q0 110 111 110h164v75h86zM248 88v387h-91v-387h91zM184 758h116l-73 -146h-95z" />
    <glyph glyph-name="uni1EDC" unicode="&#x1edc;" horiz-adv-x="457" 
d="M458 775v-68q0 -36 -18.5 -55.5t-58.5 -20.5q5 -20 5 -42v-483q0 -55 -30 -83t-86 -28h-106q-116 0 -116 111v483q0 111 116 111h208v75h86zM270 93v509h-106v-509h106zM222 892l52 -146h-95l-73 146h116z" />
    <glyph glyph-name="uni1EDD" unicode="&#x1edd;" horiz-adv-x="411" 
d="M405 641v-68q0 -59 -50 -72q6 -19 6 -45v-346q0 -56 -26.5 -84.5t-84.5 -28.5h-95q-58 0 -84.5 28.5t-26.5 84.5v346q0 110 111 110h164v75h86zM248 88v387h-91v-387h91zM201 758l52 -146h-95l-73 146h116z" />
    <glyph glyph-name="uni1EDE" unicode="&#x1ede;" horiz-adv-x="457" 
d="M458 775v-68q0 -36 -18.5 -55.5t-58.5 -20.5q5 -20 5 -42v-483q0 -55 -30 -83t-86 -28h-106q-116 0 -116 111v483q0 111 116 111h208v75h86zM270 93v509h-106v-509h106zM192 740v57h50v37h-81v51h81q40 0 58 -14.5t18 -44.5q0 -39 -20 -53t-60 -14v-19h-46z" />
    <glyph glyph-name="uni1EDF" unicode="&#x1edf;" horiz-adv-x="411" 
d="M405 641v-68q0 -59 -50 -72q6 -19 6 -45v-346q0 -56 -26.5 -84.5t-84.5 -28.5h-95q-58 0 -84.5 28.5t-26.5 84.5v346q0 110 111 110h164v75h86zM248 88v387h-91v-387h91zM164 606v57h50v37h-81v51h81q40 0 58 -14.5t18 -44.5q0 -39 -20 -53t-60 -14v-19h-46z" />
    <glyph glyph-name="uni1EE0" unicode="&#x1ee0;" horiz-adv-x="457" 
d="M458 775v-68q0 -36 -18.5 -55.5t-58.5 -20.5q5 -20 5 -42v-483q0 -55 -30 -83t-86 -28h-106q-116 0 -116 111v483q0 111 116 111h208v75h86zM270 93v509h-106v-509h106zM111 889h60v-80h16q14 44 34.5 63t51.5 19q63 0 63 -57v-80h-60v82h-17q-13 -45 -33.5 -65.5
t-53.5 -20.5t-47 13.5t-14 43.5v82z" />
    <glyph glyph-name="uni1EE1" unicode="&#x1ee1;" horiz-adv-x="411" 
d="M405 641v-68q0 -59 -50 -72q6 -19 6 -45v-346q0 -56 -26.5 -84.5t-84.5 -28.5h-95q-58 0 -84.5 28.5t-26.5 84.5v346q0 110 111 110h164v75h86zM248 88v387h-91v-387h91zM55 755h60v-80h16q14 44 34.5 63t51.5 19q63 0 63 -57v-80h-60v82h-17q-13 -45 -33.5 -65.5
t-53.5 -20.5t-47 13.5t-14 43.5v82z" />
    <glyph glyph-name="uni1EE2" unicode="&#x1ee2;" horiz-adv-x="457" 
d="M458 775v-68q0 -36 -18.5 -55.5t-58.5 -20.5q5 -20 5 -42v-483q0 -55 -30 -83t-86 -28h-106q-116 0 -116 111v483q0 111 116 111h208v75h86zM270 93v509h-106v-509h106zM166 -66h100v-124h-100v124z" />
    <glyph glyph-name="uni1EE3" unicode="&#x1ee3;" horiz-adv-x="411" 
d="M405 641v-68q0 -59 -50 -72q6 -19 6 -45v-346q0 -56 -26.5 -84.5t-84.5 -28.5h-95q-58 0 -84.5 28.5t-26.5 84.5v346q0 110 111 110h164v75h86zM248 88v387h-91v-387h91zM150 -66h100v-124h-100v124z" />
    <glyph glyph-name="uni1EE4" unicode="&#x1ee4;" horiz-adv-x="437" 
d="M165 96h107v599h116v-589q0 -111 -116 -111h-107q-116 0 -116 111v589h116v-599zM166 -66h100v-124h-100v124z" />
    <glyph glyph-name="uni1EE5" unicode="&#x1ee5;" horiz-adv-x="413" 
d="M366 563v-563h-110l-2 62h-15q-13 -68 -79 -68h-27q-43 0 -65.5 27.5t-22.5 81.5v460h113v-462h95v462h113zM154 -66h100v-124h-100v124z" />
    <glyph glyph-name="uni1EE6" unicode="&#x1ee6;" horiz-adv-x="437" 
d="M165 96h107v599h116v-589q0 -111 -116 -111h-107q-116 0 -116 111v589h116v-599zM187 740v57h50v37h-81v51h81q40 0 58 -14.5t18 -44.5q0 -39 -20 -53t-60 -14v-19h-46z" />
    <glyph glyph-name="uni1EE7" unicode="&#x1ee7;" horiz-adv-x="413" 
d="M366 563v-563h-110l-2 62h-15q-13 -68 -79 -68h-27q-43 0 -65.5 27.5t-22.5 81.5v460h113v-462h95v462h113zM174 606v57h50v37h-81v51h81q40 0 58 -14.5t18 -44.5q0 -39 -20 -53t-60 -14v-19h-46z" />
    <glyph glyph-name="uni1EE8" unicode="&#x1ee8;" horiz-adv-x="462" 
d="M465 770v-68q0 -36 -18.5 -55.5t-58.5 -20.5v-520q0 -111 -116 -111h-107q-116 0 -116 111v589h116v-599h107v599h107v75h86zM197 892h116l-73 -146h-95z" />
    <glyph glyph-name="uni1EE9" unicode="&#x1ee9;" horiz-adv-x="434" 
d="M447 638v-68q0 -37 -19.5 -56t-61.5 -20v-494h-110l-2 62h-15q-13 -68 -79 -68h-27q-43 0 -65.5 27.5t-22.5 81.5v460h113v-462h95v462h108v75h86zM213 758h116l-73 -146h-95z" />
    <glyph glyph-name="uni1EEA" unicode="&#x1eea;" horiz-adv-x="462" 
d="M465 770v-68q0 -36 -18.5 -55.5t-58.5 -20.5v-520q0 -111 -116 -111h-107q-116 0 -116 111v589h116v-599h107v599h107v75h86zM229 892l52 -146h-95l-73 146h116z" />
    <glyph glyph-name="uni1EEB" unicode="&#x1eeb;" horiz-adv-x="434" 
d="M447 638v-68q0 -37 -19.5 -56t-61.5 -20v-494h-110l-2 62h-15q-13 -68 -79 -68h-27q-43 0 -65.5 27.5t-22.5 81.5v460h113v-462h95v462h108v75h86zM214 758l52 -146h-95l-73 146h116z" />
    <glyph glyph-name="uni1EEC" unicode="&#x1eec;" horiz-adv-x="462" 
d="M465 770v-68q0 -36 -18.5 -55.5t-58.5 -20.5v-520q0 -111 -116 -111h-107q-116 0 -116 111v589h116v-599h107v599h107v75h86zM187 740v57h50v37h-81v51h81q40 0 58 -14.5t18 -44.5q0 -39 -20 -53t-60 -14v-19h-46z" />
    <glyph glyph-name="uni1EED" unicode="&#x1eed;" horiz-adv-x="434" 
d="M447 638v-68q0 -37 -19.5 -56t-61.5 -20v-494h-110l-2 62h-15q-13 -68 -79 -68h-27q-43 0 -65.5 27.5t-22.5 81.5v460h113v-462h95v462h108v75h86zM178 606v57h50v37h-81v51h81q40 0 58 -14.5t18 -44.5q0 -39 -20 -53t-60 -14v-19h-46z" />
    <glyph glyph-name="uni1EEE" unicode="&#x1eee;" horiz-adv-x="462" 
d="M465 770v-68q0 -36 -18.5 -55.5t-58.5 -20.5v-520q0 -111 -116 -111h-107q-116 0 -116 111v589h116v-599h107v599h107v75h86zM111 889h60v-80h16q14 44 34.5 63t51.5 19q63 0 63 -57v-80h-60v82h-17q-13 -45 -33.5 -65.5t-53.5 -20.5t-47 13.5t-14 43.5v82z" />
    <glyph glyph-name="uni1EEF" unicode="&#x1eef;" horiz-adv-x="434" 
d="M115 629.5q-14 13.5 -14 43.5v82h60v-80h16q14 44 34.5 63t51.5 19q63 0 63 -57v-80h-60v82h-17q-13 -45 -33.5 -65.5t-53.5 -20.5t-47 13.5zM447 638v-68q0 -37 -19.5 -56t-61.5 -20v-494h-110l-2 62h-15q-13 -68 -79 -68h-27q-43 0 -65.5 27.5t-22.5 81.5v460h113v-462
h95v462h108v75h86z" />
    <glyph glyph-name="uni1EF0" unicode="&#x1ef0;" horiz-adv-x="462" 
d="M465 770v-68q0 -36 -18.5 -55.5t-58.5 -20.5v-520q0 -111 -116 -111h-107q-116 0 -116 111v589h116v-599h107v599h107v75h86zM168 -66h100v-124h-100v124z" />
    <glyph glyph-name="uni1EF1" unicode="&#x1ef1;" horiz-adv-x="434" 
d="M447 638v-68q0 -37 -19.5 -56t-61.5 -20v-494h-110l-2 62h-15q-13 -68 -79 -68h-27q-43 0 -65.5 27.5t-22.5 81.5v460h113v-462h95v462h108v75h86zM156 -66h100v-124h-100v124z" />
    <glyph glyph-name="Ygrave" unicode="&#x1ef2;" horiz-adv-x="408" 
d="M371 695v-393q0 -106 -108 -111v-191h-116v191q-110 3 -110 111v393h116v-403h102v403h116zM206 892l52 -146h-95l-73 146h116z" />
    <glyph glyph-name="ygrave" unicode="&#x1ef3;" horiz-adv-x="405" 
d="M363 563v-410q0 -54 -22.5 -81.5t-65.5 -27.5h-16v-174h-113v174h-16q-43 0 -65.5 27.5t-22.5 81.5v410h113v-425h95v425h113zM215 758l52 -146h-95l-73 146h116z" />
    <glyph glyph-name="uni1EF4" unicode="&#x1ef4;" horiz-adv-x="408" 
d="M371 695v-393q0 -106 -108 -111v-191h-116v191q-110 3 -110 111v393h116v-403h102v403h116zM154 -66h100v-124h-100v124z" />
    <glyph glyph-name="uni1EF5" unicode="&#x1ef5;" horiz-adv-x="405" 
d="M363 563v-410q0 -54 -22.5 -81.5t-65.5 -27.5h-16v-174h-113v174h-16q-43 0 -65.5 27.5t-22.5 81.5v410h113v-425h95v425h113zM294 -66h100v-124h-100v124z" />
    <glyph glyph-name="uni1EF6" unicode="&#x1ef6;" horiz-adv-x="408" 
d="M371 695v-393q0 -106 -108 -111v-191h-116v191q-110 3 -110 111v393h116v-403h102v403h116zM164 740v57h50v37h-81v51h81q40 0 58 -14.5t18 -44.5q0 -39 -20 -53t-60 -14v-19h-46z" />
    <glyph glyph-name="uni1EF7" unicode="&#x1ef7;" horiz-adv-x="405" 
d="M363 563v-410q0 -54 -22.5 -81.5t-65.5 -27.5h-16v-174h-113v174h-16q-43 0 -65.5 27.5t-22.5 81.5v410h113v-425h95v425h113zM168 606v57h50v37h-81v51h81q40 0 58 -14.5t18 -44.5q0 -39 -20 -53t-60 -14v-19h-46z" />
    <glyph glyph-name="uni1EF8" unicode="&#x1ef8;" horiz-adv-x="408" 
d="M371 695v-393q0 -106 -108 -111v-191h-116v191q-110 3 -110 111v393h116v-403h102v403h116zM104 889h60v-80h16q14 44 34.5 63t51.5 19q63 0 63 -57v-80h-60v82h-17q-13 -45 -33.5 -65.5t-53.5 -20.5t-47 13.5t-14 43.5v82z" />
    <glyph glyph-name="uni1EF9" unicode="&#x1ef9;" horiz-adv-x="405" 
d="M363 563v-410q0 -54 -22.5 -81.5t-65.5 -27.5h-16v-174h-113v174h-16q-43 0 -65.5 27.5t-22.5 81.5v410h113v-425h95v425h113zM94 755h60v-80h16q14 44 34.5 63t51.5 19q63 0 63 -57v-80h-60v82h-17q-13 -45 -33.5 -65.5t-53.5 -20.5t-47 13.5t-14 43.5v82z" />
    <glyph glyph-name="endash" unicode="&#x2013;" horiz-adv-x="404" 
d="M44 380h316v-108h-316v108z" />
    <glyph glyph-name="emdash" unicode="&#x2014;" horiz-adv-x="494" 
d="M44 380h406v-108h-406v108z" />
    <glyph glyph-name="quoteleft" unicode="&#x2018;" horiz-adv-x="218" 
d="M41 431v126q0 41 28 70.5t77 29.5h44v-74h-44v-152h-105z" />
    <glyph glyph-name="quoteright" unicode="&#x2019;" horiz-adv-x="218" 
d="M183 656v-126q0 -41 -28 -70.5t-77 -29.5h-44v74h44v152h105z" />
    <glyph glyph-name="quotesinglbase" unicode="&#x201a;" horiz-adv-x="214" 
d="M173 181v-126q0 -41 -28 -70.5t-77 -29.5h-44v74h44v152h105z" />
    <glyph glyph-name="quotedblleft" unicode="&#x201c;" horiz-adv-x="412" 
d="M41 430v126q0 41 28 70.5t77 29.5h44v-74h-44v-152h-105zM235 430v126q0 41 28 70.5t77 29.5h44v-74h-44v-152h-105z" />
    <glyph glyph-name="quotedblright" unicode="&#x201d;" horiz-adv-x="412" 
d="M183 656v-126q0 -41 -28 -70.5t-77 -29.5h-44v74h44v152h105zM377 656v-126q0 -41 -28 -70.5t-77 -29.5h-44v74h44v152h105z" />
    <glyph glyph-name="quotedblbase" unicode="&#x201e;" horiz-adv-x="408" 
d="M173 181v-126q0 -41 -28 -70.5t-77 -29.5h-44v74h44v152h105zM367 181v-126q0 -41 -28 -70.5t-77 -29.5h-44v74h44v152h105z" />
    <glyph glyph-name="dagger" unicode="&#x2020;" horiz-adv-x="372" 
d="M244 499h102v-108h-96l-14 -528h-100l-14 528h-96v108h102v183h116v-183z" />
    <glyph glyph-name="daggerdbl" unicode="&#x2021;" horiz-adv-x="372" 
d="M346 417h-102v-126h102v-108h-96l-14 -320h-100l-14 320h-96v108h102v126h-102v108h102v157h116v-157h102v-108z" />
    <glyph glyph-name="bullet" unicode="&#x2022;" horiz-adv-x="298" 
d="M232 190h-166v255h166v-255z" />
    <glyph glyph-name="ellipsis" unicode="&#x2026;" horiz-adv-x="569" 
d="M43 156h105v-156h-105v156zM232 156h105v-156h-105v156zM421 156h105v-156h-105v156z" />
    <glyph glyph-name="perthousand" unicode="&#x2030;" horiz-adv-x="763" 
d="M81 -11l-56 36l426 690l57 -34zM231 416q-22 -22 -59 -22h-53q-38 0 -59 21.5t-21 49.5v172q0 28 21 49.5t59 21.5h53q38 0 59.5 -22t21.5 -49v-172q0 -27 -22 -49zM172 465v172h-52v-172h52zM463 9q-22 -22 -59 -22h-54q-38 0 -59 21.5t-21 49.5v172q0 28 21 49.5
t59 21.5h54q38 0 59.5 -22t21.5 -49v-172q0 -27 -22 -49zM720 9q-22 -22 -59 -22h-54q-38 0 -59 21.5t-21 49.5v172q0 28 21 49.5t59 21.5h54q38 0 59.5 -22t21.5 -49v-172q0 -27 -22 -49zM403 58v172h-52v-172h52zM660 58v172h-52v-172h52z" />
    <glyph glyph-name="guilsinglleft" unicode="&#x2039;" horiz-adv-x="191" 
d="M144 428v-115l-60 -20v-8l60 -20v-115l-106 62v154z" />
    <glyph glyph-name="guilsinglright" unicode="&#x203a;" horiz-adv-x="191" 
d="M47 428l106 -62v-154l-106 -62v115l60 20v8l-60 20v115z" />
    <glyph glyph-name="Euro" unicode="&#x20ac;" horiz-adv-x="435" 
d="M284 503v103h-103v-154h125l-20 -69h-105v-51h165l-20 -69h-145v-171h103v115h114v-99q0 -111 -116 -111h-98q-116 0 -116 111v155h-41v69h41v51h-41v69h41v135q0 111 116 111h98q116 0 116 -111v-84h-114z" />
    <glyph glyph-name="trademark" unicode="&#x2122;" horiz-adv-x="793" 
d="M293 695l20 -97h-92v-288h-109v288h-92l20 97h253zM481 540h-9l7 -154v-76h-107v385h130l52 -163h5l52 163h130v-385h-107v71l7 159h-9l-49 -144h-53z" />
    <glyph glyph-name="partialdiff" unicode="&#x2202;" horiz-adv-x="600" 
 />
    <glyph glyph-name="minus" unicode="&#x2212;" horiz-adv-x="408" 
d="M46 256v98h316v-98h-316z" />
    <glyph glyph-name="radical" unicode="&#x221a;" horiz-adv-x="574" 
d="M580 727h-134l-65 -671q-5 -56 -31.5 -83.5t-79.5 -27.5h-46q-55 0 -81 27t-31 84l-15 149h-95v97h197l25 -261h46l73 773v10h1v1h111v-1h125v-97z" />
    <glyph glyph-name="approxequal" unicode="&#x2248;" horiz-adv-x="434" 
d="M46 551h90v-130h25q17 74 54 103t80 29h16q33 0 54.5 -23t21.5 -64v-130h-90v132h-26q-13 -67 -50.5 -101.5t-76.5 -34.5h-12q-40 0 -63 23.5t-23 73.5v122zM46 281h90v-130h25q17 74 54 103t80 29h16q33 0 54.5 -23t21.5 -64v-130h-90v132h-26q-13 -67 -50.5 -101.5
t-76.5 -34.5h-12q-40 0 -63 23.5t-23 73.5v122z" />
    <glyph glyph-name="notequal" unicode="&#x2260;" horiz-adv-x="469" 
d="M424 337h-139l-19 -81h158v-91h-179l-25 -103l-92 21l20 82h-103v91h124l20 81h-144v91h166l27 115l92 -19l-23 -96h117v-91z" />
    <glyph glyph-name="lessequal" unicode="&#x2264;" horiz-adv-x="383" 
d="M345 252l-56 -77l-255 181v86l256 180l55 -78l-207 -145zM37 143h310v-93h-310v93z" />
    <glyph glyph-name="greaterequal" unicode="&#x2265;" horiz-adv-x="383" 
d="M93 622l256 -180v-86l-255 -181l-56 77l207 147l-207 145zM36 50v93h310v-93h-310z" />
    <glyph glyph-name="lozenge" unicode="&#x25ca;" horiz-adv-x="600" 
 />
    <glyph glyph-name="uniAB53" unicode="&#xab53;" horiz-adv-x="600" 
 />
    <glyph glyph-name="i.loclTRK" horiz-adv-x="207" 
d="M160 563v-563h-113v563h113zM54 746h100v-124h-100v124z" />
    <glyph glyph-name="d.sups" horiz-adv-x="377" 
d="M334 250h-100l-3 62h-14q-13 -68 -78 -68h-9q-43 0 -67 26.5t-24 79.5v160q0 113 113 113h79v127h103v-500zM231 532h-89v-190h89v190z" />
    <glyph glyph-name="h.sups" horiz-adv-x="375" 
d="M311 600q23 -29 23 -84v-266h-103v276h-85v-276h-103v500h103v-189h14q13 68 79 68h6q43 0 66 -29z" />
    <glyph glyph-name="n.sups" horiz-adv-x="376" 
d="M311.5 601.5q22.5 -27.5 22.5 -81.5v-270h-103v276h-85v-276h-103v373h100l2 -62h15q13 68 79 68h7q43 0 65.5 -27.5z" />
    <glyph glyph-name="r.sups" horiz-adv-x="328" 
d="M43 250v373h98l5 -62h14q6 30 25.5 49t43.5 19h3q37 0 54.5 -24t17.5 -72v-114h-99v107h-59v-276h-103z" />
    <glyph glyph-name="s.sups" horiz-adv-x="326" 
d="M33 392h89v-69h81v27q0 22 -22 32l-93 39q-26 11 -40.5 35t-14.5 54v16q0 100 111 100h38q57 0 84 -27.5t27 -82.5v-28h-89v62h-81v-24q0 -21 24 -31l89 -36q30 -13 43.5 -36t13.5 -60v-15q0 -51 -27 -76t-84 -25h-38q-57 0 -84 27.5t-27 82.5v35z" />
    <glyph glyph-name="t.sups" horiz-adv-x="239" 
d="M226 623v-86h-63l-1 -287h-102v287h-39v86h47v65h95v-65h63z" />
    <glyph glyph-name="zero.osf" horiz-adv-x="435" 
d="M361 25q-30 -28 -86 -28h-115q-116 0 -116 111v347q0 111 116 111h115q116 0 116 -111v-347q0 -55 -30 -83zM277 95v373h-119v-373h119z" />
    <glyph glyph-name="one.osf" horiz-adv-x="346" 
d="M234 97h82v-97h-286v97h88v369h-85v97h280v-97h-79v-369z" />
    <glyph glyph-name="two.osf" horiz-adv-x="408" 
d="M38 110q0 45 6 69.5t27.5 44.5t68.5 39q54 22 75.5 33.5t30 26.5t8.5 43v107h-102v-139h-111v122q0 110 116 110h97q116 0 116 -110v-110q0 -41 -10 -65t-33.5 -41t-69.5 -36q-56 -23 -77 -33t-29 -20t-8 -27v-11h226v-113h-331v110z" />
    <glyph glyph-name="three.osf" horiz-adv-x="411" 
d="M34 100h112v-141h111v213h-152l10 103h137v198h-102v-128h-111v111q0 110 116 110h97q116 0 116 -110v-148q0 -29 -17.5 -48.5t-46.5 -24.5v-13q31 -6 50.5 -27.5t19.5 -57.5v-123q0 -57 -8.5 -87.5t-37.5 -46t-89 -15.5h-85q-58 0 -89 27.5t-31 81.5v126z" />
    <glyph glyph-name="four.osf" horiz-adv-x="447" 
d="M14 0v98l211 467h124v-470h85v-95h-85v-114h-116v114h-219zM128 95h105l17 292h-16l-46 -127z" />
    <glyph glyph-name="five.osf" horiz-adv-x="401" 
d="M154 454v-155h14q8 24 25.5 37t50.5 13h23q43 0 68 -27t25 -80v-225q0 -57 -8.5 -87.5t-37.5 -46t-89 -15.5h-71q-113 0 -113 109v134h107v-143h96v278h-90v-60l-111 20v357h319v-109h-208z" />
    <glyph glyph-name="six.osf" horiz-adv-x="426" 
d="M269 455v118h-106v-240h14q18 63 87 63h11q108 0 108 -109v-179q0 -111 -116 -111h-104q-116 0 -116 111v449q0 111 116 111h106q116 0 116 -111v-102h-116zM267 293h-104v-196h104v196z" />
    <glyph glyph-name="seven.osf" horiz-adv-x="377" 
d="M367 432q-94 -75 -128.5 -159t-34.5 -196v-209h-120v183q0 96 14.5 165t52.5 124.5t106 101.5v12h-246v109h356v-131z" />
    <glyph glyph-name="eight.osf" horiz-adv-x="432" 
d="M376 338q16 -18 16 -50v-182q0 -54 -31 -81.5t-89 -27.5h-107q-59 0 -92 28t-33 81v186q0 52 60 74v13q-27 10 -40.5 26t-13.5 45v107q0 55 31.5 83t89.5 28h103q116 0 116 -110v-108q0 -29 -13.5 -45t-40.5 -26v-13q28 -10 44 -28zM271 573h-110v-154h110v154zM156 93
h120v233h-120v-233z" />
    <glyph glyph-name="nine.osf" horiz-adv-x="422" 
d="M377 455v-479q0 -111 -116 -111h-105q-116 0 -116 111v96h116v-110h105v232h-14q-14 -57 -97 -57h-2q-108 0 -108 109v209q0 111 116 111h105q116 0 116 -111zM156 240h105v226h-105v-226z" />
    <glyph glyph-name="zero.osf.zero" horiz-adv-x="435" 
d="M361 25q-30 -28 -86 -28h-115q-116 0 -116 111v347q0 111 116 111h115q116 0 116 -111v-347q0 -55 -30 -83zM277 95v373h-119v-373h119zM200 337h35v-96h-35v96z" />
    <glyph glyph-name="zero.scudodx" horiz-adv-x="438" 
d="M286 317q0 -138 -78 -223t-201 -124h-10v735h289v-388zM212 503q0 63 -62 63h-57q-66 0 -66 -63v-255q0 -63 66 -63h57q62 0 62 63v255zM156 234h-73v283h73v-283z" />
    <glyph glyph-name="one.scudodx" horiz-adv-x="438" 
d="M286 705v-388q0 -138 -78 -223t-201 -124h-10v735h289zM212 188v49h-46v330h-39l-19 -70h-79v-48h81v-212h-83v-49h185z" />
    <glyph glyph-name="two.scudodx" horiz-adv-x="438" 
d="M286 317q0 -138 -78 -223t-201 -124h-10v735h289v-388zM212 188v51h-133v30q0 8 6 14.5t13 10.5l70 32q23 11 33.5 29.5t10.5 47.5v100q0 63 -62 63h-57q-66 0 -66 -63v-115h56v129h74v-112q0 -16 -5.5 -25.5t-18.5 -15.5l-81 -38q-25 -12 -25 -39v-99h185z" />
    <glyph glyph-name="three.scudodx" horiz-adv-x="438" 
d="M286 317q0 -138 -78 -223t-201 -124h-10v735h289v-388zM90 185h60q62 0 62 63v86q0 35 -28 39v10q14 4 21 14t7 22v84q0 63 -62 63h-57q-66 0 -66 -63v-53h56v67h73v-110h-83l-10 -49h93v-124h-76v80h-56v-66q0 -63 66 -63z" />
    <glyph glyph-name="four.scudodx" horiz-adv-x="438" 
d="M286 317q0 -138 -78 -223t-201 -124h-10v735h289v-388zM22 255h102v-67h52v67h35v49h-35v263h-35l-119 -258v-54zM72 304l52 128h10l-10 -128h-52z" />
    <glyph glyph-name="five.scudodx" horiz-adv-x="438" 
d="M286 317q0 -138 -78 -223t-201 -124h-10v735h289v-388zM29 389l56 -11v19h71v-163h-73v89h-56v-75q0 -63 66 -63h57q62 0 62 63v135q0 31 -15.5 47.5t-44.5 16.5h-24q-34 0 -40 -27h-7v92h131v51h-183v-174z" />
    <glyph glyph-name="six.scudodx" horiz-adv-x="438" 
d="M286 317q0 -138 -78 -223t-201 -124h-10v735h289v-388zM94 185h56q62 0 62 63v95q0 31 -15.5 47.5t-44.5 16.5h-24q-34 0 -40 -27h-7v137h77v-70h52v56q0 63 -62 63h-55q-66 0 -66 -63v-255q0 -63 67 -63zM81 338v19h79v-123h-78z" />
    <glyph glyph-name="seven.scudodx" horiz-adv-x="438" 
d="M286 317q0 -138 -78 -223t-201 -124h-10v735h289v-388zM27 563v-51h129v-11q-45 -35 -61 -77.5t-16 -115.5v-120h55v131q0 58 15.5 100t62.5 82v62h-185z" />
    <glyph glyph-name="eight.scudodx" horiz-adv-x="438" 
d="M286 317q0 -138 -78 -223t-201 -124h-10v735h289v-388zM92 185h59q62 0 62 63v84q0 33 -35 43v11q32 11 32 42v75q0 63 -62 63h-53q-66 0 -66 -63v-75q0 -31 32 -42v-11q-35 -10 -35 -43v-84q0 -63 66 -63zM82 407h75v110h-75v-110zM79 234h81v116h-81v-116z" />
    <glyph glyph-name="nine.scudodx" horiz-adv-x="438" 
d="M286 317q0 -138 -78 -223t-201 -124h-10v735h289v-388zM145 566h-56q-62 0 -62 -63v-85q0 -31 15.5 -47.5t44.5 -16.5h24q34 0 40 27h7v-146h-77v72h-54v-59q0 -63 62 -63h57q66 0 66 63v255q0 63 -67 63zM158 424v-19h-79v112h78z" />
    <glyph glyph-name="zero.scudosx" horiz-adv-x="438" 
d="M441 705v-735h-10q-123 39 -201 124t-78 223v388h289zM411 503q0 63 -62 63h-57q-66 0 -66 -63v-255q0 -63 66 -63h57q62 0 62 63v255zM355 234h-73v283h73v-283z" />
    <glyph glyph-name="one.scudosx" horiz-adv-x="438" 
d="M441 705v-735h-10q-123 39 -201 124t-78 223v388h289zM411 188v49h-62v330h-39l-19 -70h-63v-48h65v-212h-67v-49h185z" />
    <glyph glyph-name="two.scudosx" horiz-adv-x="438" 
d="M441 705v-735h-10q-123 39 -201 124t-78 223v388h289zM411 188v51h-133v30q0 8 6 14.5t13 10.5l70 32q23 11 33.5 29.5t10.5 47.5v100q0 63 -62 63h-57q-66 0 -66 -63v-115h56v129h74v-112q0 -16 -5.5 -25.5t-18.5 -15.5l-81 -38q-25 -12 -25 -39v-99h185z" />
    <glyph glyph-name="three.scudosx" horiz-adv-x="438" 
d="M152 705h289v-735h-10q-123 39 -201 124t-78 223v388zM289 185h60q62 0 62 63v86q0 18 -7.5 27.5t-24.5 11.5v10q14 4 21 14t7 22v84q0 63 -62 63h-53q-66 0 -66 -63v-53h56v67h70v-110h-80l-10 -49h92v-124h-75v80h-56v-66q0 -63 66 -63z" />
    <glyph glyph-name="four.scudosx" horiz-adv-x="438" 
d="M441 705v-735h-10q-123 39 -201 124t-78 223v388h289zM222 255h102v-67h52v67h35v49h-35v263h-35l-119 -258v-54zM272 304l52 128h10l-10 -128h-52z" />
    <glyph glyph-name="five.scudosx" horiz-adv-x="438" 
d="M441 705v-735h-10q-123 39 -201 124t-78 223v388h289zM228 389l56 -11v19h71v-163h-73v89h-56v-75q0 -63 66 -63h57q62 0 62 63v135q0 31 -15.5 47.5t-44.5 16.5h-24q-34 0 -40 -27h-7v92h131v51h-183v-174z" />
    <glyph glyph-name="six.scudosx" horiz-adv-x="438" 
d="M441 705v-735h-10q-123 39 -201 124t-78 223v388h289zM293 185h56q62 0 62 63v95q0 31 -15.5 47.5t-44.5 16.5h-24q-34 0 -40 -27h-7v137h77v-70h52v56q0 63 -62 63h-55q-66 0 -66 -63v-255q0 -63 67 -63zM280 338v19h77v-123h-76z" />
    <glyph glyph-name="seven.scudosx" horiz-adv-x="438" 
d="M441 705v-735h-10q-123 39 -201 124t-78 223v388h289zM226 563v-51h129v-6q-45 -34 -61 -79t-16 -119v-120h55v134q0 58 15.5 99.5t62.5 79.5v62h-185z" />
    <glyph glyph-name="eight.scudosx" horiz-adv-x="438" 
d="M441 705v-735h-10q-123 39 -201 124t-78 223v388h289zM292 185h59q62 0 62 63v84q0 33 -35 43v11q32 11 32 42v75q0 63 -62 63h-53q-66 0 -66 -63v-75q0 -31 32 -42v-11q-35 -10 -35 -43v-84q0 -63 66 -63zM282 407h75v110h-75v-110zM279 234h81v116h-81v-116z" />
    <glyph glyph-name="nine.scudosx" horiz-adv-x="438" 
d="M441 705v-735h-10q-123 39 -201 124t-78 223v388h289zM345 566h-56q-62 0 -62 -63v-85q0 -31 15.5 -47.5t44.5 -16.5h23q34 0 40 27h7v-146h-76v72h-54v-59q0 -63 62 -63h57q66 0 66 63v255q0 63 -67 63zM357 424v-19h-78v112h77z" />
    <glyph glyph-name="zero.zero" horiz-adv-x="443" 
d="M365 25q-30 -28 -86 -28h-115q-116 0 -116 111v479q0 111 116 111h115q116 0 116 -111v-479q0 -55 -30 -83zM281 95v505h-119v-505h119zM204 469h35v-228h-35v228z" />
    <glyph glyph-name="uni03020300" 
 />
    <glyph glyph-name="uni03020301" 
 />
    <glyph glyph-name="uni03020303" 
 />
    <glyph glyph-name="uni03020309" 
 />
    <glyph glyph-name="uni03060300" 
 />
    <glyph glyph-name="uni03060301" 
 />
    <glyph glyph-name="uni03060303" 
 />
    <glyph glyph-name="uni03060309" 
 />
    <glyph glyph-name="newGlyph" horiz-adv-x="600" 
 />
    </font>
</defs>
</svg>
