<?xml version="1.0" standalone="no"?>
<!DOCTYPE svg PUBLIC "-//W3C//DTD SVG 1.1//EN" "http://www.w3.org/Graphics/SVG/1.1/DTD/svg11.dtd" >
<svg xmlns="http://www.w3.org/2000/svg" xmlns:xlink="http://www.w3.org/1999/xlink" version="1.1">
<metadata>
Created by FontForge 20200427 at Wed Oct  8 02:21:06 2014
 By www
Copyright (c) Aerotype, 2006. All rights reserved.
</metadata>
<defs>
<font id="LeadvilleW00-Regular" horiz-adv-x="400" >
  <font-face 
    font-family="LeadvilleW00-Regular"
    font-weight="400"
    font-stretch="normal"
    units-per-em="1000"
    panose-1="2 0 0 0 0 0 0 0 0 0"
    ascent="800"
    descent="-200"
    x-height="472"
    cap-height="699"
    bbox="-42 -232 1325 934"
    underline-thickness="50"
    underline-position="-175"
    unicode-range="U+0020-2260"
  />
<missing-glyph horiz-adv-x="241" 
 />
    <glyph glyph-name=".notdef" horiz-adv-x="241" 
 />
    <glyph glyph-name="glyph1" horiz-adv-x="0" 
 />
    <glyph glyph-name="glyph1" horiz-adv-x="0" 
 />
    <glyph glyph-name="glyph2" horiz-adv-x="241" 
 />
    <glyph glyph-name="space" unicode=" " horiz-adv-x="241" 
 />
    <glyph glyph-name="space" unicode="&#xa0;" horiz-adv-x="241" 
 />
    <glyph glyph-name="exclam" unicode="!" horiz-adv-x="232" 
d="M212 704l-85 -520h-29l-78 520h192zM26 131h171l15 -131h-186v131z" />
    <glyph glyph-name="quotedbl" unicode="&#x22;" horiz-adv-x="386" 
d="M206 704l-89 -214h-97l50 214h136zM366 704l-89 -214h-97l50 214h136z" />
    <glyph glyph-name="numbersign" unicode="#" horiz-adv-x="660" 
d="M96 496h132l59 208h97l-59 -208h93l59 208h97l-59 -208h125l-27 -97h-125l-26 -93h127l-25 -97h-129l-59 -209h-97l59 209h-93l-59 -209h-97l59 209h-128l27 97h128l26 93h-130zM272 306h93l26 93h-93z" />
    <glyph glyph-name="dollar" unicode="$" horiz-adv-x="578" 
d="M352 701v-59q26 -13 44 -31q-1 5 -1 8.5v8.5v26h126v-201h-120q-5 16 -18.5 32t-30.5 30v-84q38 -11 75 -26t66 -37.5t47 -54t18 -74.5q0 -45 -17 -81t-45.5 -61.5t-66 -40t-77.5 -17.5v-38h-53v40q-8 1 -15.5 1.5t-15.5 2.5v-44h-53v61q-20 9 -37 20.5t-31 28.5l-10 -20
t-13 -35l-104 -2v213h124q8 -20 26.5 -41t44.5 -38v107q-37 10 -70.5 23.5t-59.5 34t-41.5 48.5t-15.5 69q0 42 14 77t39 61t59.5 41.5t74.5 19.5v32h53v-33q8 -2 15.5 -3t15.5 -3v39h53zM268 279v-117q7 -2 15 -3.5t16 -3.5v115zM268 453q8 -2 15 -4t16 -4v98q-17 6 -31 9
v-99v0zM370 243q-10 4 -18 8v-95q32 9 40 38q1 3 1.5 5.5t0.5 5.5q0 12 -6.5 22.5t-17.5 15.5zM166 510q0 -14 13 -24t36 -18v83q-19 -3 -34 -12t-15 -29z" />
    <glyph glyph-name="percent" unicode="%" horiz-adv-x="930" 
d="M612 704l-198 -704h-97l198 704h97zM221 291q-43 0 -80 16t-64 44.5t-42 67t-15 82.5q0 48 17 86t45 64.5t64.5 41t74.5 14.5q41 0 76 -16.5t61 -44t40.5 -64.5t14.5 -79q0 -41 -14.5 -79.5t-40 -68t-60.5 -47t-77 -17.5zM217 620q-19 0 -31.5 -12.5t-20 -31t-10.5 -39.5
t-3 -38v-6q0 -18 2.5 -38t10 -37t20 -28.5t32.5 -11.5q19 0 32 13.5t20 32t10 39t3 35.5q0 17 -2.5 38.5t-9 40t-19.5 31t-34 12.5zM718 0q-43 0 -80 16t-64 44.5t-42 67t-15 82.5q0 48 17 86t45 64.5t64.5 41t74.5 14.5q41 0 76 -16.5t61 -44t40.5 -64.5t14.5 -79
q0 -41 -14.5 -79.5t-40 -68t-60.5 -47t-77 -17.5zM714 329q-19 0 -31.5 -12.5t-20 -31t-10.5 -39.5t-3 -38v-6q0 -18 2.5 -38t10 -37t20 -28.5t32.5 -11.5q19 0 32 13.5t20 32t10 39t3 35.5q0 17 -2.5 38.5t-9 40t-19.5 31t-34 12.5z" />
    <glyph glyph-name="ampersand" unicode="&#x26;" horiz-adv-x="864" 
d="M842 238q1 -9 1.5 -18t0.5 -18q0 -53 -14 -94t-38 -69t-57 -43t-71 -15q-23 0 -48 5.5t-50 15t-47.5 22.5t-40.5 29q-22 -15 -47 -29t-51.5 -25.5t-53.5 -18.5t-52 -7q-44 0 -89 12.5t-82 39t-60 68t-23 98.5q0 44 15.5 79.5t40.5 64t56.5 50.5t64.5 40q-9 29 -16.5 55.5
t-7.5 54.5q0 46 15.5 80t40 56.5t56 33.5t64.5 11q29 0 57 -8.5t50 -26t35.5 -45t13.5 -66.5q0 -34 -17 -61.5t-39.5 -48.5t-44 -35t-30.5 -21q11 -20 27.5 -42t35.5 -44.5t39 -43.5t38 -37q17 11 33 32.5t29 42.5q15 25 28 52h-96v101h287v-100h-93q-9 -25 -24 -54
t-31.5 -56t-32 -49t-25.5 -34q5 -8 17 -13.5t25.5 -10t26 -6.5t19.5 -2q46 0 69.5 29t23.5 69h72v0zM200 182q6 -20 18.5 -34.5t29 -24.5t35.5 -14.5t38 -4.5q23 0 43.5 6.5t34.5 20.5q-21 19 -42 42.5t-40.5 48t-37 50t-30.5 49.5q-27 -13 -41 -40.5t-14 -59.5q0 -20 6 -39
zM330 484q31 17 50.5 42t19.5 52q0 18 -11.5 36.5t-36.5 18.5q-21 0 -36.5 -17.5t-15.5 -42.5q0 -15 3.5 -29.5t8.5 -26.5t10 -20.5t8 -12.5z" />
    <glyph glyph-name="quotesingle" unicode="'" horiz-adv-x="226" 
d="M206 704l-89 -214h-97l50 214h136z" />
    <glyph glyph-name="parenleft" unicode="(" horiz-adv-x="341" 
d="M321 696q-24 -17 -48.5 -52t-45 -82t-33 -103t-12.5 -116q0 -132 37 -219.5t100 -139.5q-2 -2 -3.5 -5.5t-3.5 -6.5l-4 -8q-59 18 -111.5 51.5t-91.5 81.5t-62 110t-23 136q0 65 22.5 124t62.5 108t94.5 85.5t118.5 55.5q2 1 2.5 -8t0.5 -12z" />
    <glyph glyph-name="parenright" unicode=")" horiz-adv-x="341" 
d="M20 696q0 3 0.5 12t2.5 8q64 -19 118.5 -55.5t94.5 -85.5t62.5 -108t22.5 -124q0 -74 -23 -136t-62 -110t-91.5 -81.5t-111.5 -51.5l-4 8q-3 6 -7 12q63 52 100 139.5t37 219.5q0 60 -12.5 116t-33 103t-45 82t-48.5 52z" />
    <glyph glyph-name="asterisk" unicode="*" horiz-adv-x="371" 
d="M319 634l32 -88l-98 -31l60 -82l-72 -53l-56 89l-48 -80l-7 -1l-72 51l57 79l-95 32l41 88l81 -38v98h96l-10 -98z" />
    <glyph glyph-name="plus" unicode="+" horiz-adv-x="464" 
d="M20 406h162v158h97v-158h165v-97h-165v-169h-97v169h-162v97z" />
    <glyph glyph-name="comma" unicode="," horiz-adv-x="211" 
d="M191 159v-75.5t-0.5 -48t-0.5 -28v-13.5q0 -39 -7.5 -75.5t-25 -65t-47 -45.5t-73.5 -17h-8t-9 1v34v16.5t1 16.5h5q52 0 76 35.5t24 87.5q0 5 -0.5 8.5t-0.5 8.5q-14 0 -31.5 0.5t-32.5 0.5h-36l2 159h164v0z" />
    <glyph glyph-name="hyphen" unicode="-" horiz-adv-x="314" 
d="M20 406h274v-97h-274v97z" />
    <glyph glyph-name="period" unicode="." horiz-adv-x="201" 
d="M20 161h161v-161h-161v161z" />
    <glyph glyph-name="slash" unicode="/" horiz-adv-x="335" 
d="M315 704l-198 -704h-97l198 704h97z" />
    <glyph glyph-name="zero" unicode="0" horiz-adv-x="710" 
d="M362 -2q-73 0 -135.5 27.5t-108.5 75.5t-72 113.5t-26 141.5q0 81 29 146t77 110.5t109.5 70t126.5 24.5q70 0 130 -28t104 -75t69 -110.5t25 -133.5q0 -71 -24.5 -136t-68 -115.5t-103.5 -80.5t-132 -30zM355 559q-32 0 -53 -21t-33.5 -52.5t-18 -67.5t-5.5 -65v-6
q0 -30 4.5 -65t16.5 -65t33.5 -50t55.5 -20q33 0 55 22.5t34.5 54.5t17.5 66.5t5 59.5q0 30 -4 66t-16 68t-34 53.5t-58 21.5z" />
    <glyph glyph-name="one" unicode="1" horiz-adv-x="500" 
d="M150 481h-123v106q9 -1 18.5 -1.5t18.5 -0.5q22 0 44 4t40.5 14.5t32.5 29t22 47.5h161l-4 -537h120v-143h-460v144h130v337z" />
    <glyph glyph-name="two" unicode="2" horiz-adv-x="613" 
d="M590 3h-570v159q30 17 67 39t75.5 46.5t75.5 52t66.5 55.5t48.5 57t22 57q0 3 0.5 5.5t0.5 5.5q0 15 -4 30.5t-14 28.5t-25.5 21t-37.5 8q-28 0 -47.5 -11.5t-32 -29.5t-18.5 -41t-6 -47q0 -7 0.5 -13.5t1.5 -12.5h-160q-3 14 -4 27t-1 26q0 54 22 95t59.5 69.5t86.5 43
t103 14.5q58 0 111.5 -11t94 -33.5t64.5 -58t24 -83.5q0 -17 -3 -35q-7 -39 -34 -75.5t-65 -69.5t-83 -61.5t-87.5 -51.5t-78.5 -39.5t-55 -25.5h92h163v93h148v-234z" />
    <glyph glyph-name="three" unicode="3" horiz-adv-x="649" 
d="M260 403q15 -3 30 -3q21 0 40 5.5t33.5 16.5t23.5 27.5t9 38.5q0 8 -1 13q-4 32 -29 48.5t-54 16.5q-18 0 -33 -7t-26 -18.5t-17.5 -27t-6.5 -32.5q0 -12 3 -24h-177q-2 11 -3 21t-1 20q0 53 25 89.5t64.5 59t88 32t95.5 9.5q48 0 98 -8.5t91.5 -29.5t68 -56.5
t26.5 -89.5q0 -27 -10.5 -49t-28 -38.5t-39.5 -28t-46 -19.5q29 -9 55 -22t46 -32t32 -44t12 -57q0 -60 -31.5 -102.5t-79 -69.5t-102.5 -39.5t-103 -12.5q-55 0 -107.5 15t-94 45.5t-66.5 77t-25 110.5v15t1 15h189q-1 -6 -1 -12v-13q0 -24 6 -45.5t18.5 -38t31.5 -26.5
t46 -10q42 0 71 28.5t29 72.5q0 27 -9 45.5t-24 30t-34.5 17t-41.5 5.5q-23 0 -42 -4v85v0z" />
    <glyph glyph-name="four" unicode="4" horiz-adv-x="739" 
d="M351 246h-331v179l325 255h207v-321h167v-114h-169v-102h113v-143h-451v143h139v103zM351 359v182l-223 -182h223z" />
    <glyph glyph-name="five" unicode="5" horiz-adv-x="660" 
d="M197 230q-1 -3 -1 -6.5v-6.5q0 -21 9 -40t23 -32.5t32.5 -21.5t38.5 -8q54 0 87.5 34t33.5 87q0 21 -8.5 40t-23 33t-33.5 22t-41 8q-31 0 -58.5 -15.5t-46.5 -43.5h-145l45 404h426v-143h-285l-19 -155q33 26 73 36t81 10q49 0 95 -12.5t81.5 -38.5t57 -67.5t21.5 -98.5
q0 -63 -30 -106.5t-77 -71t-103.5 -39.5t-108.5 -12q-47 0 -100 10.5t-97.5 34t-74 61.5t-29.5 94q0 19 5 44h172v0z" />
    <glyph glyph-name="six" unicode="6" horiz-adv-x="708" 
d="M489 479q-3 38 -28.5 64t-76.5 26q-33 0 -59.5 -16.5t-45 -42.5t-28.5 -58.5t-10 -65.5v-9q40 38 93 56t109 18q47 0 91 -13t78.5 -39.5t55 -66t20.5 -91.5q0 -66 -31 -113t-79 -78t-106.5 -45.5t-114.5 -14.5q-72 0 -133.5 23t-107 66.5t-71 105t-25.5 138.5
q0 79 26.5 146.5t74.5 117t114 77.5t146 28q44 0 95.5 -12t95.5 -36.5t73 -63t29 -91.5v-10h-185zM359 351q-23 0 -42.5 -9t-34 -24.5t-23 -36t-8.5 -44.5t9 -43t24 -32.5t34.5 -20.5t40.5 -7q22 0 40.5 9.5t32 24.5t21 34t7.5 39t-7.5 39.5t-21 35.5t-31 25.5t-37.5 9.5h-4
v0z" />
    <glyph glyph-name="seven" unicode="7" horiz-adv-x="648" 
d="M181 522v-125h-161v282h608v-162q-47 -45 -80.5 -98.5t-55.5 -112.5t-32 -121.5t-10 -125.5q0 -14 0.5 -28t1.5 -28h-249q10 72 33 140.5t55.5 133.5t73.5 126.5t87 118.5h-271z" />
    <glyph glyph-name="eight" unicode="8" horiz-adv-x="713" 
d="M557 359q27 -10 52 -23.5t43.5 -32t29.5 -43t11 -57.5q0 -58 -34 -97.5t-86 -64t-113.5 -35.5t-116.5 -11q-44 0 -100 9.5t-105.5 32t-83.5 61t-34 97.5q0 37 13.5 63.5t34.5 46t47 33t52 24.5q-27 6 -49.5 20.5t-39 34t-25.5 43t-9 47.5q0 37 15 65t40.5 48.5t58.5 34.5
t68.5 22t70.5 11.5t65 3.5q20 0 51 -2.5t66.5 -10t71 -20.5t64 -34.5t46.5 -52t18 -72.5q0 -28 -10 -49.5t-27 -38t-39 -29t-46 -24.5zM453 481q0 42 -23 62t-62 20q-45 0 -71.5 -22t-26.5 -68q0 -22 7.5 -35.5t20.5 -21.5t30.5 -11t36.5 -3q16 0 32 4t28.5 13t20 24t7.5 38
zM357 139q19 0 37.5 3.5t33.5 12t24.5 23t10.5 36.5q0 30 -10 49t-26.5 30t-36.5 15.5t-40 4.5q-15 0 -31 -4.5t-30 -15t-23 -26.5t-9 -38q0 -21 8.5 -38t22 -28.5t31.5 -17.5t38 -6z" />
    <glyph glyph-name="nine" unicode="9" horiz-adv-x="708" 
d="M219 207q3 -38 28.5 -64t76.5 -26q33 0 59.5 16.5t45 42.5t28.5 58.5t10 65.5v9q-39 -37 -92.5 -55.5t-109.5 -18.5q-47 0 -91 13t-78 39.5t-55 65.5t-21 92q0 66 31 113t79 78t106.5 45.5t114.5 14.5q72 0 133.5 -23t107 -66.5t71 -105t25.5 -138.5q0 -79 -26.5 -146.5
t-74.5 -117t-114.5 -77.5t-145.5 -28q-44 0 -95.5 12t-95.5 37t-73 63t-29 91v10h185zM349 335q23 0 42.5 9t34 24.5t23 36t8.5 44.5t-9 43t-24 32.5t-34.5 20.5t-40.5 7q-22 0 -40.5 -9.5t-32 -24.5t-21 -34t-7.5 -39t7.5 -39.5t21 -35.5t31 -25.5t37.5 -9.5h4v0z" />
    <glyph glyph-name="colon" unicode=":" horiz-adv-x="201" 
d="M20 161h161v-161h-161v161zM20 401h161v-161h-161v161z" />
    <glyph glyph-name="semicolon" unicode=";" horiz-adv-x="207" 
d="M187 113v-119q0 -39 -7 -75.5t-24.5 -65t-46.5 -45.5t-72 -17h-8t-9 1v34v16.5t1 16.5h5q52 0 74.5 35t22.5 87v9t-1 9q-14 0 -30.5 0.5t-31.5 0.5h-35v159h162v-46zM25 401h161v-161h-161v161z" />
    <glyph glyph-name="less" unicode="&#x3c;" horiz-adv-x="343" 
d="M20 355l229 229l73 -73l-156 -156l157 -156l-73 -73z" />
    <glyph glyph-name="equal" unicode="=" horiz-adv-x="394" 
d="M20 486h354v-97h-354v97zM20 336h354v-97h-354v97z" />
    <glyph glyph-name="greater" unicode="&#x3e;" horiz-adv-x="343" 
d="M93 126l-73 73l157 156l-156 156l73 73l229 -229z" />
    <glyph glyph-name="question" unicode="?" horiz-adv-x="541" 
d="M21 499q-1 7 -1 13v13q0 46 19 83t51 63.5t74.5 40.5t89.5 14q67 0 117 -20t83.5 -53t50 -75t16.5 -85q0 -39 -14 -77t-41.5 -68t-69.5 -50.5t-98 -24.5v-92h-88v212q6 -1 11.5 -1.5t10.5 -0.5q24 0 42 10t30 26.5t18.5 38.5t6.5 46q0 47 -23 69t-52 22q-28 0 -51 -21
t-23 -61q0 -5 0.5 -10.5t1.5 -11.5h-161zM169 131h171v-131h-171v131z" />
    <glyph glyph-name="at" unicode="@" horiz-adv-x="776" 
d="M443 480q1 -2 2 -2.5t2 -2.5t2 -3l40 81h87v-219q0 -12 2.5 -30.5t9 -36.5t18 -31t29.5 -13q12 1 20.5 14t14.5 33t9 43.5t3 45.5q0 58 -22 110.5t-60 92.5t-90.5 63t-113.5 23q-57 0 -110.5 -20.5t-95.5 -58.5t-67 -92t-25 -122q0 -63 22.5 -117.5t62.5 -95t94.5 -63.5
t118.5 -23v-79q-81 0 -149.5 29t-119 80t-79 119.5t-28.5 148.5q0 85 31.5 153.5t84 116.5t120.5 73.5t140 25.5q77 0 143 -29.5t114 -79.5t75.5 -116t27.5 -140q0 -57 -16 -103t-42.5 -78.5t-59 -50t-65.5 -17.5q-39 0 -73.5 27.5t-52.5 87.5q-18 -28 -50.5 -51.5
t-67.5 -23.5q-38 0 -65.5 17t-46.5 45t-28 63.5t-9 73.5t9.5 74.5t28.5 65t47.5 46t66.5 17.5q35 0 63.5 -18.5t47.5 -52.5zM447 313q1 9 1 15.5v12.5t-0.5 13t-0.5 17q0 12 -2.5 27.5t-9.5 28.5t-18 22t-28 9q-12 0 -21.5 -9.5t-16 -24.5t-9.5 -34.5t-3 -39.5t3 -38.5
t9 -33t15 -23.5t21 -9q11 0 22 6t19.5 16t13.5 21.5t5 23.5z" />
    <glyph glyph-name="A" unicode="A" horiz-adv-x="914" 
d="M546 143l-32 93h-164l-30 -94h79v-142h-359v143h102l201 558h237l201 -558h113v-143h-438v142zM477 351l-46 130l-42 -130h88z" />
    <glyph glyph-name="B" unicode="B" horiz-adv-x="875" 
d="M40 561v140q133 1 227.5 1h160.5h34t57 -0.5t54.5 -0.5h27.5q44 0 83.5 -11t69.5 -33.5t48 -57t18 -81.5q0 -54 -32 -94t-81 -52q29 -6 56 -20t47.5 -35.5t32.5 -50t12 -64.5q0 -38 -12.5 -74t-42.5 -64.5t-79.5 -46t-122.5 -17.5h-558v144h132v417h-132zM399 144
q13 0 27 -0.5t29 -0.5t30 0.5t29 0.5q44 2 72.5 22.5t28.5 64.5q0 46 -30.5 67t-72.5 21q-30 -1 -61.5 -1.5t-51.5 -0.5v-173zM399 411q25 -1 55.5 -0.5t56.5 -0.5h2q28 0 51 21t23 56q0 34 -18.5 53.5t-55.5 20.5q-31 1 -62 1h-52v-151z" />
    <glyph glyph-name="C" unicode="C" horiz-adv-x="751" 
d="M729 700v-319h-160q-3 40 -12.5 77t-26.5 65.5t-41.5 45.5t-57.5 17q-45 0 -73.5 -26.5t-44.5 -65.5t-22 -83t-6 -78q0 -35 6 -73.5t21.5 -71t43 -54t70.5 -21.5q37 0 64.5 17.5t45 44.5t26 60.5t8.5 65.5q0 4 -0.5 7.5t-0.5 6.5h160q1 -11 1.5 -15.5t0.5 -14.5
q0 -73 -28.5 -129.5t-76 -95t-110 -58.5t-130.5 -20q-79 0 -143 29t-109 79.5t-69.5 117.5t-24.5 144q0 65 21.5 131t61.5 119.5t97.5 87.5t129.5 34q69 0 125 -24.5t94 -75.5q1 3 5.5 14t9 24t8.5 24t5 14h132z" />
    <glyph glyph-name="D" unicode="D" horiz-adv-x="888" 
d="M40 699q67 -1 129 -1h199h84.5t83.5 -4.5t82 -14t80 -27.5q43 -20 75 -51t53 -69.5t31.5 -82.5t10.5 -90q0 -70 -21.5 -135t-62.5 -114.5t-102 -79.5t-139 -30h-503v144h133v418h-133v137v0zM399 145q8 -1 15 -1h14q49 0 83 15t55 43.5t30.5 68.5t9.5 90q0 43 -10.5 80
t-33 64t-58 42t-85.5 15h-10t-10 -1v-416z" />
    <glyph glyph-name="E" unicode="E" horiz-adv-x="876" 
d="M169 143v419h-129v137h795v-267h-168v130h-271v-143h186v-111h-187v-165h271v172h168l1 -315h-795v143h129z" />
    <glyph glyph-name="F" unicode="F" horiz-adv-x="856" 
d="M169 142v420h-129v137h796v-267h-169v130h-271v-143h186v-111h-187v-166h141v-142h-496v142h129z" />
    <glyph glyph-name="G" unicode="G" horiz-adv-x="860" 
d="M550 84q-35 -48 -90.5 -73.5t-118.5 -25.5q-69 0 -124.5 31.5t-94.5 81.5t-60.5 113.5t-21.5 127.5q0 71 21 139.5t61.5 122.5t99.5 87.5t134 33.5q61 0 115.5 -25t96.5 -76l1 80h161v-272h-164q-4 30 -15.5 58.5t-29.5 50.5t-42.5 35.5t-53.5 13.5q-50 0 -79 -27.5
t-44 -68t-19 -87t-4 -83.5q0 -30 7.5 -65.5t24.5 -65.5t43.5 -50t65.5 -20q26 0 48.5 12t39 32t27 44.5t13.5 50.5q1 9 1.5 16t0.5 12q0 4 -0.5 6.5t-0.5 4.5v3h-130v93h421v-93h-110v-305h-180v88z" />
    <glyph glyph-name="H" unicode="H" horiz-adv-x="992" 
d="M610 416v145h-72v140h434v-140h-133v-418h133v-143h-440v143h78v159h-211v-159h79v-143h-438v143h133v418h-133v140h441v-140h-82v-145h211z" />
    <glyph glyph-name="I" unicode="I" horiz-adv-x="548" 
d="M396 562v-420h132v-142h-488v142h133v420h-133v137h488v-137h-132z" />
    <glyph glyph-name="J" unicode="J" horiz-adv-x="726" 
d="M706 562h-139q-1 -13 -1 -35v-50v-59.5t0.5 -63.5t0.5 -62v-55q0 -56 -19.5 -103t-55.5 -81t-86.5 -53t-111.5 -19q-128 0 -191 71t-63 210q0 14 0.5 28t1.5 28h168v-10v-37q0 -20 2 -43t9 -42t20.5 -31.5t36.5 -12.5q21 0 40.5 23t20.5 67q1 35 1.5 80.5t1 92t0.5 88
v69.5h-148v138h512v-138z" />
    <glyph glyph-name="K" unicode="K" horiz-adv-x="976" 
d="M573 143l-114 156l-60 -50v-106h59l1 -1v-142h-418v142h131v420h-132v139h419v-140h-62v-161l187 161h-78v140h404v-139h-118l-157 -140l218 -279h103v-143h-450v143h67z" />
    <glyph glyph-name="L" unicode="L" horiz-adv-x="828" 
d="M172 143v419h-132v139h487v-139h-123v-419h227v172h177v-315h-768v143h132z" />
    <glyph glyph-name="M" unicode="M" horiz-adv-x="1144" 
d="M598 466l82 234h444v-138h-133v-418h128v-144h-449v144h94v417l-185 -561h-67l-179 561v-418h88v-143h-381v143h126v419h-126v138h476z" />
    <glyph glyph-name="N" unicode="N" horiz-adv-x="948" 
d="M554 561v139h374v-139h-127v-561h-197l-268 411v-268h101v-143h-397v143h133v418h-133v139h366l245 -371v232h-97z" />
    <glyph glyph-name="O" unicode="O" horiz-adv-x="806" 
d="M416 -23q-81 0 -149.5 29t-119 80t-79 119.5t-28.5 148.5q0 85 31.5 153.5t84 116.5t120.5 73.5t140 25.5q77 0 143 -29.5t114 -79.5t75.5 -116t27.5 -140t-26.5 -143t-74.5 -122t-114 -84.5t-145 -31.5zM408 568q-36 0 -58.5 -22.5t-36 -55.5t-19 -70.5t-5.5 -68.5
q0 -32 4 -70t16.5 -71t36 -55t63.5 -22q36 0 60 23.5t37.5 57t19 70.5t5.5 63q0 31 -4.5 69.5t-17.5 72.5t-37 56.5t-64 22.5z" />
    <glyph glyph-name="P" unicode="P" horiz-adv-x="877" 
d="M641 701q47 0 87 -15.5t68.5 -42t44.5 -62.5t16 -78q0 -41 -16.5 -77.5t-46 -63.5t-71 -43t-90.5 -16q-20 0 -59 -0.5t-78 -0.5h-97v-159h135v-143h-494v143h132v419h-132v139h601zM399 391h111q51 2 76.5 29t25.5 59t-24.5 57.5t-73.5 25.5q-30 0 -62 -0.5t-53 -0.5
v-170z" />
    <glyph glyph-name="Q" unicode="Q" horiz-adv-x="811" 
d="M690 50q19 0 42.5 0.5t40.5 0.5t17 -1q1 -7 1 -13v-13q0 -38 -11 -72t-33 -60t-55 -41t-76 -15q-70 0 -113.5 42t-53.5 111q-32 -6 -61 -6q-74 0 -137.5 30t-110 81t-73.5 117.5t-27 138.5q0 85 29 154t79 117.5t116.5 74.5t141.5 26q77 5 145 -24t119 -80t80.5 -119.5
t29.5 -142.5q0 -46 -11.5 -93t-34 -89.5t-55.5 -79.5t-76 -64q-1 -3 -1 -10q0 -17 13.5 -25t27.5 -8q26 0 35.5 20t11.5 43zM433 143q0 30 -9 50t-36 20q-19 -2 -31.5 -14t-12.5 -33q0 -5 6 -10.5t15 -10t20 -7.5t22 -3q8 0 14.5 1.5t11.5 6.5zM409 266q34 0 54.5 -17
t36.5 -39q7 15 12 35.5t8 43t4.5 44t1.5 38.5q0 34 -6 70t-19.5 66t-36 49t-55.5 19q-40 0 -64 -23t-37 -56.5t-17.5 -71t-4.5 -66.5q0 -48 6 -84t26 -76q5 8 11.5 19.5t17 22.5t25.5 18.5t37 7.5z" />
    <glyph glyph-name="R" unicode="R" horiz-adv-x="1030" 
d="M519 143v-144h-479v144h133v419h-133v138h56h95t120.5 -0.5t131.5 -0.5t129 -0.5t114 -1.5h3q36 0 66 -15t52 -39t34.5 -54.5t12.5 -62.5q0 -31 -12.5 -61.5t-33.5 -55.5t-48.5 -41t-57.5 -17q36 -6 57.5 -20.5t33 -36t15.5 -49.5t4 -61q0 -22 12 -32t26.5 -9.5
t26.5 11.5t12 31t-0.5 42t2.5 42h119v-48q0 -57 -11 -101t-36.5 -74t-67 -46t-101.5 -16q-61 0 -102.5 14.5t-67 42.5t-37 69t-11.5 95q0 30 -5.5 49t-18.5 29.5t-34.5 14.5t-54.5 4h-64l-2 -159h122zM399 391h111q51 2 76.5 29t25.5 59t-24.5 57.5t-73.5 25.5
q-30 0 -62 -0.5t-53 -0.5v-170z" />
    <glyph glyph-name="S" unicode="S" horiz-adv-x="742" 
d="M537 468q-6 21 -24 42t-43.5 37.5t-56 27t-61.5 10.5q-14 0 -29.5 -2t-29 -7.5t-22 -15.5t-8.5 -26q0 -25 34 -40t85 -28.5t110.5 -30t110.5 -43t85 -68t34 -104.5q0 -56 -25 -101t-65 -77t-91 -49t-102 -17q-31 0 -66.5 5t-69.5 15t-64 26t-51 38q-2 -5 -10.5 -21.5
t-15.5 -38.5h-122v254h145q9 -23 30 -47t49.5 -43t63.5 -31t71 -12q35 0 54.5 12.5t24.5 34.5q2 8 2 13q0 31 -28 44q-35 18 -79 30.5t-88.5 25t-87 27.5t-76 38.5t-53.5 57.5t-20 85q0 52 24 95t63 73.5t88.5 47.5t100.5 17q25 0 54 -4t57 -12.5t53.5 -21.5t43.5 -31
q-1 7 -1 11.5v9.5v30h148v-236h-142z" />
    <glyph glyph-name="T" unicode="T" horiz-adv-x="838" 
d="M185 143h132v419h-113v-182h-164v319h778v-319h-170v181h-110v-418h138v-144h-491v144z" />
    <glyph glyph-name="U" unicode="U" horiz-adv-x="927" 
d="M525 701h382v-139h-122v-107v-181q0 -68 -21 -121t-59.5 -89.5t-93 -56t-122.5 -19.5q-167 0 -245 76t-78 240q0 16 0.5 38.5t0.5 53t0.5 71.5t0.5 95h-128v139h433v-139l-76 -1v-189q0 -51 1 -88.5t6 -63.5q3 -17 13.5 -31t25 -24t31 -15.5t32.5 -5.5q17 0 34 6
t31.5 16.5t24.5 24t12 29.5q3 17 4 44t1.5 67.5t0.5 97t1 133.5h-90v139z" />
    <glyph glyph-name="V" unicode="V" horiz-adv-x="942" 
d="M544 700h378v-138h-116l-192 -563h-245l-200 563h-129v138h449v-139h-84l114 -342l107 343h-82v138z" />
    <glyph glyph-name="W" unicode="W" horiz-adv-x="1269" 
d="M880 701h369v-140h-126l-174 -561h-233l-82 277l-89 -277h-205l-183 562h-117v139h415v-139h-60l85 -313l94 313h-67v139h327v-140h-64l99 -315l88 316h-77v139z" />
    <glyph glyph-name="X" unicode="X" horiz-adv-x="957" 
d="M621 363l206 -220h110v-144h-455v144h65l-91 104l-89 -104h66v-144h-393v144h116l187 218l-188 201h-115v140h456v-141h-63l85 -96l83 97h-54v140h362v-140h-107z" />
    <glyph glyph-name="Y" unicode="Y" horiz-adv-x="987" 
d="M967 562h-120l-216 -308v-111h121v-144h-475v144h123v92l-249 327h-111v142h474v-142h-90l117 -160l117 160h-95v142h404v-142z" />
    <glyph glyph-name="Z" unicode="Z" horiz-adv-x="791" 
d="M329 143h263v155h176v-299h-728v145l436 418h-248v-151h-170v290h713v-139z" />
    <glyph glyph-name="bracketleft" unicode="[" horiz-adv-x="273" 
d="M180 652v-602h73v-60h-233v721h232v-59h-72z" />
    <glyph glyph-name="backslash" unicode="\" horiz-adv-x="335" 
d="M117 704l198 -704h-97l-198 704h97z" />
    <glyph glyph-name="bracketright" unicode="]" horiz-adv-x="273" 
d="M21 652v59h232v-721h-233v60h73v602h-72z" />
    <glyph glyph-name="asciicircum" unicode="^" horiz-adv-x="498" 
d="M249 701l229 -229l-73 -73l-156 156l-156 -157l-73 73z" />
    <glyph glyph-name="underscore" unicode="_" horiz-adv-x="394" 
d="M20 0h354v-97h-354v97z" />
    <glyph glyph-name="grave" unicode="`" horiz-adv-x="168" 
d="M50 839l68 39l60 -133l-46 -27z" />
    <glyph glyph-name="a" unicode="a" horiz-adv-x="677" 
d="M337 301q4 2 4.5 12.5t0.5 18.5q0 32 -16 44.5t-41 12.5q-32 0 -46.5 -18t-14.5 -39q0 -5 0.5 -9t1.5 -9h-163q-3 18 -3 34q0 43 22 72t55.5 46t73.5 24t76 7q33 0 71.5 -6t71.5 -21t54.5 -41.5t21.5 -66.5v-215q0 -18 10.5 -26.5t24.5 -8.5q12 0 23.5 7.5t13.5 22.5
q3 20 4 37.5t1 31.5q0 11 -0.5 18t-0.5 6q20 0 37 -0.5t38 -0.5q0 -12 -0.5 -32t-2 -41.5t-4.5 -41.5t-8 -33q-20 -49 -61.5 -72t-93.5 -23q-20 0 -41.5 2.5t-41.5 11.5t-37.5 26t-29.5 46q-12 -19 -30.5 -33.5t-41.5 -25t-48.5 -16t-50.5 -5.5q-27 0 -51.5 6.5t-43 21
t-30 36.5t-11.5 53q0 37 20 64t51 45.5t68.5 30.5t71.5 20t60.5 14t35.5 13zM337 235q-17 0 -39 -5t-42 -15.5t-33.5 -27t-13.5 -38.5q0 -15 13.5 -32t38.5 -17q15 0 35 9q26 14 35 38t9 51q0 10 -1 19z" />
    <glyph glyph-name="b" unicode="b" horiz-adv-x="565" 
d="M-42 599v102l263 1q-1 -21 -1 -46v-103q0 -44 0.5 -84.5t1.5 -66.5q12 17 28 33t35 28.5t40.5 20t43.5 7.5q45 0 78 -20.5t54.5 -54.5t32.5 -77.5t11 -89.5q0 -48 -11.5 -94.5t-34.5 -82.5t-57.5 -58.5t-80.5 -22.5q-33 0 -58.5 8.5t-45 24t-34.5 37t-28 47.5
q-5 -13 -11 -31.5t-12 -35.5q-7 -20 -14 -42l-104 1v599h-96zM277 384q-20 -9 -31 -24t-16 -33.5t-6 -39t-1 -41.5q0 -19 1.5 -43t8 -45.5t20 -36t37.5 -14.5q18 0 31.5 11t22.5 29.5t13.5 42.5t4.5 49q0 26 -4.5 51t-13 45.5t-21.5 34t-30 16.5z" />
    <glyph glyph-name="c" unicode="c" horiz-adv-x="539" 
d="M357 291v9q0 38 -16.5 64.5t-48.5 26.5q-19 0 -33.5 -12t-24.5 -31.5t-15 -44t-5 -50.5q0 -27 5.5 -52.5t17 -45.5t28.5 -32.5t41 -12.5q31 0 51.5 11.5t33.5 28.5t19 36t8 33q8 1 16.5 1h16.5q17 0 33 -0.5t35 -0.5q0 -48 -19 -89t-51.5 -71.5t-76.5 -47.5t-95 -17
t-95.5 17t-78.5 48.5t-53.5 75.5t-19.5 97q0 55 18.5 103.5t53 85t84 58t111.5 21.5q39 0 77.5 -14.5t69 -41.5t49.5 -65.5t19 -87.5h-155z" />
    <glyph glyph-name="d" unicode="d" horiz-adv-x="633" 
d="M347 411q2 -2 4 -6.5t3 -4.5v1v38v57.5t-0.5 59t-1.5 43.5h-95v100h267v-589l89 1v-110h-261v65t-1 27q-11 -17 -27 -34t-35.5 -30t-41 -21t-42.5 -8q-46 0 -80.5 21t-58 56t-35 79t-11.5 91t12 92t35.5 80.5t58.5 57t82 21.5q45 0 80 -22.5t59 -64.5zM348 203
q1 11 1.5 19.5t1 16t0.5 16v20.5q0 15 -3.5 34t-11.5 35.5t-21.5 27.5t-34.5 11q-16 0 -27.5 -11.5t-19.5 -30.5t-12 -43t-4 -49q0 -24 3.5 -47t11 -41t19 -29t26.5 -11q14 0 27 7.5t22.5 19.5t15.5 26.5t6 28.5z" />
    <glyph glyph-name="e" unicode="e" horiz-adv-x="549" 
d="M528 225q-20 -2 -57.5 -2h-80.5h-143h-32q0 -23 5.5 -45.5t17 -40.5t29.5 -29t44 -11q44 0 69 18.5t38 58.5h51.5t57.5 1q-9 -43 -33.5 -76.5t-57.5 -57t-73 -35.5t-81 -12q-52 0 -97.5 16t-80 48.5t-54.5 80t-20 110.5q0 53 20 98t55 78t82 51.5t101 18.5q53 0 97.5 -18
t76.5 -50t49.5 -76t17.5 -97v-14.5t-1 -14.5zM362 297q1 5 1 15q0 15 -4.5 30t-13 27t-21 20t-29.5 8q-35 0 -57 -24.5t-22 -69.5v-6h146v0z" />
    <glyph glyph-name="f" unicode="f" horiz-adv-x="559" 
d="M20 365v110h87v32q0 25 2.5 50.5t8.5 42.5q12 32 35 55.5t51.5 39t60.5 23t63 7.5q39 0 76.5 -9.5t67.5 -29.5t48.5 -51t18.5 -74v-13.5t-2 -14.5h-148v5q0 26 -14.5 43.5t-35.5 17.5q-20 0 -37 -16.5t-17 -50.5q0 -8 -0.5 -17.5t-0.5 -18.5v-21h89v-110h-85v-255h84
v-109h-352v109h88v255h-88z" />
    <glyph glyph-name="g" unicode="g" horiz-adv-x="723" 
d="M255 128q-23 0 -50.5 4t-43.5 11h-1q-5 0 -10.5 -7.5t-5.5 -12.5q0 -2 2 -4q0 -21 30.5 -27.5t76.5 -8t100.5 -4t101 -15t78.5 -40t34 -79.5v-6q0 -51 -30 -84t-74 -52.5t-94.5 -27t-91.5 -7.5q-45 0 -90.5 6.5t-82.5 21.5t-60.5 40t-23.5 63q0 14 7 28t17.5 26t22.5 20
t23 10q-32 14 -48.5 35t-16.5 52q0 15 7.5 30t19 28t26 23t28.5 16q-36 25 -57.5 63.5t-21.5 80.5q0 50 22 85.5t57 57.5t78.5 32t87.5 10q29 0 60.5 -5.5t60 -16t52 -26t36.5 -35.5q20 41 50 62.5t73 21.5q51 0 75 -30t24 -70q0 -34 -15 -65q-32 2 -60.5 2t-52.5 1
q3 13 3 27q0 19 -8 33.5t-29 14.5q-12 0 -24 -6t-12 -17q0 -2 2 -8q6 -12 13 -27t7 -38v-7q-3 -53 -28 -87.5t-63.5 -54.5t-86 -28.5t-94.5 -8.5zM201 -46q-15 0 -25.5 -11.5t-10.5 -24.5t11 -22t27 -15t35 -8.5t35 -2.5q10 0 28 1.5t36 6.5t31.5 13.5t13.5 23.5
q-2 14 -21.5 21.5t-47 10.5t-57 4t-51.5 3h-4v0zM255 396q-23 -10 -35 -35.5t-12 -54.5q0 -32 16 -57.5t48 -25.5q16 0 28 7t19.5 19t11 27t3.5 31q0 34 -15.5 62.5t-46.5 29.5l-17 -3v0z" />
    <glyph glyph-name="h" unicode="h" horiz-adv-x="667" 
d="M20 701h258v-143v-55.5t0.5 -51t0.5 -41.5v-25q12 20 29 38.5t38 32.5t44.5 22.5t48.5 8.5q38 0 63.5 -15t41 -40t22 -56t6.5 -63v-201q0 -1 8 -1.5t19.5 -0.5h24.5h22l1 -109h-293v109l37 1q1 15 1.5 37t0.5 44.5v42.5v31q0 15 -1.5 33.5t-6 34.5t-14 27t-25.5 11
q-12 0 -23 -9t-20 -23.5t-14.5 -32.5t-6.5 -36q-2 -45 -2 -81.5t-1 -79.5h40v-109h-296v109h77v490h-80v101z" />
    <glyph glyph-name="i" unicode="i" horiz-adv-x="382" 
d="M362 111v-110h-342v109h88v253h-88v111h258v-363h84zM271 562h-165v140h165v-140z" />
    <glyph glyph-name="j" unicode="j" horiz-adv-x="464" 
d="M444 101q0 -59 -5 -115t-26.5 -100t-65 -70.5t-121.5 -26.5q-45 0 -83 8.5t-65 27.5t-42.5 49.5t-15.5 74.5q0 6 0.5 12.5t1.5 14.5h164q0 -12 1.5 -25t6 -24t12 -18.5t19.5 -7.5q26 0 34.5 22t10.5 49q0 25 0.5 55.5t1 63.5t0.5 66.5v65.5v81.5t-1 56.5h-94v112h267
v-372zM442 562h-175v140h175v-140z" />
    <glyph glyph-name="k" unicode="k" horiz-adv-x="678" 
d="M285 259l118 110h-71v104h268v-104h-96l-46 -47l137 -212h63v-109h-304v110h41l-57 91l-52 -52v-39h33v-110h-296v109h82v489h-85v100h265v-440z" />
    <glyph glyph-name="l" unicode="l" horiz-adv-x="371" 
d="M351 111v-110h-330v110h81v488h-82v101h250v-589h81z" />
    <glyph glyph-name="m" unicode="m" horiz-adv-x="983" 
d="M110 111v259h-89v103h255q-1 -7 -1 -17.5v-22.5v-34q0 -8 1 -16q13 20 31 38.5t39.5 33t45.5 23.5t50 9q96 0 131 -102q9 16 27.5 34t42.5 33t51 24.5t54 9.5q39 0 64 -15t39.5 -40t20 -56t5.5 -62v-203l86 1v-110h-296v110l39 -1v106.5t1 102.5q0 13 -6 23.5t-15.5 17.5
t-20.5 11t-20 4q-18 -2 -31 -11.5t-21.5 -22.5t-12.5 -29t-4 -31v-170h50v-110h-258v110l41 -1v18t-0.5 28.5t-0.5 36v38.5v48t1 37q-1 33 -19 45.5t-34 12.5q-14 0 -26.5 -7t-21.5 -18t-14.5 -24.5t-5.5 -25.5q-1 -19 -1.5 -46t-0.5 -54.5t-0.5 -51.5t-0.5 -36h39v-110
h-304v110h90z" />
    <glyph glyph-name="n" unicode="n" horiz-adv-x="674" 
d="M98 110v256h-78v107h248v-16q0 -15 0.5 -33t0.5 -29t-1 -12q15 21 34.5 40t43 33.5t49 23t52.5 8.5q28 0 51.5 -11t40 -29t25.5 -42.5t9 -51.5v-34.5t-0.5 -43.5t-0.5 -48v-47v-41t1 -29h81v-110h-304v110h53v23v90v51.5t-2 45.5q0 10 -4.5 19t-12 16t-16.5 11t-18 4
q-13 0 -26 -6.5t-23 -16.5t-16 -23t-6 -26q-1 -21 -1.5 -43t-0.5 -46q0 -23 0.5 -48t0.5 -52h34v-109h-291v109h77z" />
    <glyph glyph-name="o" unicode="o" horiz-adv-x="565" 
d="M287 495q52 0 99 -19.5t82.5 -54t56 -80.5t20.5 -98q0 -54 -21.5 -99t-58 -78t-84.5 -51.5t-100 -18.5q-53 0 -99 20t-79.5 55t-53 81.5t-19.5 99.5q0 57 22.5 102t58.5 76.5t82 48t94 16.5zM288 111q24 0 38.5 14.5t22 36t10 47t2.5 47.5q0 19 -2.5 42t-10.5 43t-23 33
t-40 13q-26 0 -41 -17t-22.5 -41.5t-9.5 -51.5t-2 -46q0 -17 4 -38t13 -39t24 -30.5t37 -12.5z" />
    <glyph glyph-name="p" unicode="p" horiz-adv-x="605" 
d="M108 -95v461h-88v107l261 -1q0 -17 1 -34q0 -14 0.5 -30.5t0.5 -29.5v-15q5 16 14 35t22.5 37t32.5 32t43 19q13 3 27 3q39 0 69.5 -22t51 -58t31.5 -82t11 -93q0 -45 -10.5 -88.5t-32 -77t-54.5 -54t-78 -20.5q-38 0 -70.5 20t-51.5 56v-38v-127h75v-121h-342v121h87z
M284 218q0 -20 2 -40t8 -37t18 -27.5t32 -10.5q14 0 25 11t18 29t10.5 41.5t3.5 47.5t-3.5 47.5t-11 42t-18.5 29.5t-26 11q-7 0 -17 -5q-27 -14 -34 -40.5t-7 -55.5v-43z" />
    <glyph glyph-name="q" unicode="q" horiz-adv-x="536" 
d="M571 -95v-121h-330v121h75q0 46 0.5 76t0.5 51q0 11 -0.5 20t-0.5 18q-19 -36 -51.5 -56t-70.5 -20q-45 0 -77.5 19t-54 51t-32 73t-10.5 85q0 48 12.5 95.5t36.5 85t59.5 61t81.5 23.5q38 0 64.5 -13.5t44 -33t27.5 -41.5t15 -39q5 11 11 30.5t13 37.5q7 21 16 44l93 1
v-568h77zM320 261q0 13 -2 30.5t-8 33t-16.5 26.5t-28.5 11q-15 0 -27 -11.5t-19.5 -30t-11.5 -42t-4 -48.5q0 -24 3.5 -47t11 -40.5t18 -28.5t24.5 -11q20 0 32 10.5t18.5 27.5t8.5 37t2 40q0 12 -0.5 23t-0.5 20z" />
    <glyph glyph-name="r" unicode="r" horiz-adv-x="551" 
d="M367 111v-110h-345v110h82v253h-84v109h253v-93q0 -2 -1 -2q-2 0 -2 2q0 1 2 1t4 2q12 17 27.5 33.5t34 30t39 22t43.5 8.5q36 0 58 -16t34 -41.5t15.5 -56.5t3.5 -60v-17.5t-1 -16.5h-151q0 10 -1 26.5t-4.5 32.5t-12 28t-23.5 12q-5 0 -8 -1q-18 -4 -28.5 -20
t-16 -36.5t-7.5 -41.5t-2 -36v-34t-0.5 -40.5t-0.5 -33.5v-14h92z" />
    <glyph glyph-name="s" unicode="s" horiz-adv-x="500" 
d="M118 178q24 -21 50 -38q22 -14 48.5 -25.5t52.5 -11.5t41 10t15 23q0 10 -9.5 19.5t-30.5 16.5q-39 7 -83.5 16t-82 27t-62.5 48.5t-25 82.5q0 33 16 59t42 44.5t59 28.5t66 10q16 0 36 -3t39 -9t35.5 -15.5t25.5 -23.5q1 2 5.5 7t9.5 12q6 7 13 17h87v-141
q-10 0 -26 0.5t-32 0.5t-29.5 -0.5t-19.5 -0.5q-23 29 -48 45t-57 16q-26 0 -46 -9t-20 -22q0 -10 16 -19q26 -11 56.5 -18.5t61 -16t59.5 -20t51 -29.5t35 -45t13 -66q0 -34 -16.5 -63t-43.5 -50.5t-62 -33.5t-72 -12q-21 0 -43 5.5t-42 14.5t-37 19.5t-29 19.5
q-5 -6 -9 -14l-8 -16q-4 -9 -9 -17h-89v177h98z" />
    <glyph glyph-name="t" unicode="t" horiz-adv-x="493" 
d="M20 368q0 35 0.5 64t0.5 43q8 -2 16.5 -2h16.5q32 0 56.5 12.5t41 33.5t25 49t8.5 59q0 7 0.5 13.5t0.5 21.5v13.5t-1 8.5h97l-1 -206h157v-110l-159 -1v-144v-29q0 -15 1 -31.5t5.5 -30t13.5 -22t24 -8.5t24 9t14 22.5t6.5 30.5t1.5 33v30q0 8 1 16h101q1 -11 1.5 -26
t0.5 -32q0 -29 -3 -58t-14 -51q-10 -22 -27 -38t-38.5 -26t-45 -15t-47.5 -5q-63 0 -101 19.5t-57.5 52.5t-25.5 77.5t-6 95.5q0 32 1 65t1 66h-90z" />
    <glyph glyph-name="u" unicode="u" horiz-adv-x="673" 
d="M575 110h78v-107h-248q0 4 0.5 7.5t0.5 8.5q0 16 -1 33.5t-1 28.5t1 12q-15 -21 -34.5 -40t-43 -33.5t-49 -23t-52.5 -8.5q-29 0 -52 11t-39.5 29t-25.5 42.5t-9 51.5v34.5t0.5 44t0.5 48v47.5v41t-1 29h-80v108h250v-192v-72.5t2 -54.5q0 -10 4.5 -19t12 -16t16.5 -11
t18 -4q26 0 47.5 18t21.5 44q2 26 3 55t1 59v42.5t-1 43.5h-74v107h254v-364z" />
    <glyph glyph-name="v" unicode="v" horiz-adv-x="627" 
d="M209 1l-107 366h-82v108h302v-108h-33l58 -205l55 205h-40v108h245v-109h-74l-119 -365h-205z" />
    <glyph glyph-name="w" unicode="w" horiz-adv-x="932" 
d="M342 367h-37l59 -198l64 198h-53v108h256v-108h-47l66 -198l49 198h-33v108h246v-108h-82l-98 -365h-209l-50 133l-47 -133h-201l-104 365h-101v108h322v-108z" />
    <glyph glyph-name="x" unicode="x" horiz-adv-x="697" 
d="M395 111l-76 73l-65 -74h42v-109h-275v109h74l139 147l-118 109h-96v109h367v-108h-51l67 -62l66 62h-46v108h254v-109h-68l-130 -131l126 -125h72v-109h-338v110h56z" />
    <glyph glyph-name="y" unicode="y" horiz-adv-x="646" 
d="M543 366l-58 -164q-12 -35 -26 -73t-28.5 -76.5t-29 -75.5t-27.5 -70q-24 -59 -65 -89.5t-100 -30.5q-35 0 -64 12.5t-50 34.5t-32.5 52t-11.5 65v10.5t1 11.5h107q-1 -3 -1 -10q0 -20 12.5 -39t32.5 -19q17 0 28.5 6.5t18.5 16t10 21t3 22.5v6q-17 45 -37 96t-40 102.5
t-39 100.5t-35 90h-92v106h315v-107h-39l64 -187l64 188h-52v106h254v-107z" />
    <glyph glyph-name="z" unicode="z" horiz-adv-x="519" 
d="M208 110h167v95h124v-204h-479v122l264 243h-126v-69h-126v175h456v-105z" />
    <glyph glyph-name="braceleft" unicode="{" horiz-adv-x="300" 
d="M20 350q14 3 22.5 12.5t13 22t6.5 25.5t3 22q1 69 14.5 119t39 86t64 59.5t91.5 39.5q1 0 2 -3t2 -7t1.5 -8.5t0.5 -5.5q-24 -17 -30 -52t-6 -83v-76v-38.5t-1 -39.5q-1 -22 -13 -47t-29 -33q11 -4 19 -14.5t12.5 -23t6.5 -26.5t2 -26q0 -22 -1 -45.5t-2 -46t-2 -43.5
t-1 -37q0 -37 8.5 -66t34.5 -51q-2 -2 -3.5 -5.5t-3.5 -6.5l-4 -8q-49 15 -87 39t-63.5 61t-38.5 87t-13 118q0 9 -1.5 22.5t-6.5 26.5t-14 23.5t-23 15.5v13z" />
    <glyph glyph-name="bar" unicode="|" horiz-adv-x="137" 
d="M117 704v-704h-97v704h97z" />
    <glyph glyph-name="braceright" unicode="}" horiz-adv-x="300" 
d="M280 337q-14 -5 -23 -15.5t-14 -23.5t-6.5 -26.5t-1.5 -22.5q0 -68 -13 -118t-38.5 -87t-63.5 -61t-87 -39l-4 8q-3 6 -7 12q26 22 34.5 51t8.5 66q0 16 -1 37t-2 43.5t-2 46t-1 45.5q0 12 2 26t6.5 26.5t12.5 23t19 14.5q-17 8 -29 33t-13 47q-2 39 -1.5 78t0.5 76
q0 48 -6 83t-30 52q0 1 0.5 5.5t1.5 8.5t2 7t2 3q53 -16 91.5 -39.5t64 -59.5t38.5 -86t15 -119q1 -9 3 -22t6.5 -25.5t13 -22t22.5 -12.5v-13z" />
    <glyph glyph-name="asciitilde" unicode="~" horiz-adv-x="346" 
d="M20 345q24 22 47.5 25t47 -3.5t47 -18t49 -17.5t53 -2t58.5 29q1 1 2 -12.5t1 -30t-1 -31t-4 -16.5q-28 -21 -54 -25t-51 0.5t-49.5 13t-48.5 13t-47 0.5t-46 -25q-1 -1 -1.5 14.5t-1.5 34.5q-1 22 -1 51z" />
    <glyph glyph-name="exclamdown" unicode="&#xa1;" horiz-adv-x="232" 
d="M20 0l85 520h29l78 -520h-192zM206 573h-171l-15 131h186v-131z" />
    <glyph glyph-name="cent" unicode="&#xa2;" horiz-adv-x="627" 
d="M458 704l-23 -81q10 -8 18.5 -16.5t16.5 -18.5q1 2 4.5 11.5t7.5 20.5t7.5 20.5t4.5 12.5h112v-271h-136q-3 47 -18 88t-42 64l-105 -373q16 -8 43 -8q32 0 55.5 15t38.5 38t22 51.5t7 55.5q0 4 -0.5 6.5t-0.5 5.5h136q1 -9 1 -13v-12q0 -62 -24 -110t-64.5 -81
t-93.5 -50t-111 -17q-21 0 -42 3l-12 -45h-57l16 56q-47 15 -83.5 44.5t-62.5 69t-39.5 87t-13.5 100.5q0 55 18 111.5t52.5 102t83 74t110.5 28.5q56 0 102 -20l15 51h57zM228 341q0 -35 6.5 -73t24.5 -67l100 354h-7q-38 0 -62.5 -22.5t-38 -55.5t-18.5 -70t-5 -66z" />
    <glyph glyph-name="sterling" unicode="&#xa3;" horiz-adv-x="724" 
d="M63 406h75v139h-118v124h434v-124h-110v-139h63v-97h-63v-137h202v154h158v-281h-684v127h118v137h-75v97z" />
    <glyph glyph-name="yen" unicode="&#xa5;" horiz-adv-x="686" 
d="M140 410h36l-79 131h-77v125h330v-125h-63l76 -131h9l78 131h-66v125h282v-125h-84l-73 -131h43v-68h-81l-20 -36h101v-67h-120v-63h84v-127h-331v127h86v63h-131v67h100l-22 36h-78v68z" />
    <glyph glyph-name="brokenbar" unicode="&#xa6;" horiz-adv-x="137" 
d="M117 704v-294h-97v294h97zM117 294v-294h-97v294h97z" />
    <glyph glyph-name="section" unicode="&#xa7;" horiz-adv-x="481" 
d="M114 184q23 -20 48 -36q21 -14 46.5 -25t49.5 -11q25 0 39.5 9.5t14.5 22.5q0 9 -9 18t-28 16q-38 7 -80.5 15.5t-78.5 26t-60 46.5t-24 79q0 34 17.5 60.5t46.5 43.5q-29 18 -46.5 45.5t-17.5 70.5q0 31 15.5 56.5t40 43t56 27t63.5 9.5q16 0 35 -2.5t37.5 -8.5
t34 -15.5t24.5 -22.5q1 2 5.5 7t9.5 11l12 16h82v-135q-9 1 -24 1h-30.5h-28.5t-19 -1q-23 29 -46.5 44t-53.5 15q-25 0 -44 -9t-19 -21q0 -10 15 -18q37 -15 83 -25t86 -27t67.5 -47.5t27.5 -87.5q0 -33 -15.5 -60t-40.5 -47q25 -18 40.5 -45t15.5 -69q0 -33 -16 -60.5
t-42 -47.5t-59.5 -31.5t-68.5 -11.5q-20 0 -41 5t-40.5 13.5t-36 18t-26.5 18.5q-5 -6 -9 -13.5t-8 -14.5q-4 -8 -9 -17h-85v171h94zM270 319q20 5 31 19.5t11 25.5v2q-16 11 -32 17.5t-35 6.5q-25 0 -44 -9t-19 -21q0 -10 15 -18q17 -7 35.5 -12.5t37.5 -10.5z" />
    <glyph glyph-name="dieresis" unicode="&#xa8;" horiz-adv-x="304" 
d="M170 756v92h94v-92h-94zM30 756v92h94v-92h-94z" />
    <glyph glyph-name="copyright" unicode="&#xa9;" horiz-adv-x="776" 
d="M396 -23q-81 0 -149.5 29t-119 80t-79 119.5t-28.5 148.5q0 85 31.5 153.5t84 116.5t120.5 73.5t140 25.5q77 0 143 -29.5t114 -79.5t75.5 -116t27.5 -140t-26.5 -143t-74.5 -122t-114 -84.5t-145 -31.5zM396 56q63 0 115.5 25.5t90.5 67.5t59 96.5t21 113.5
q0 58 -22 110.5t-60 92.5t-90.5 63t-113.5 23q-57 0 -110.5 -20.5t-95.5 -58.5t-67 -92t-25 -122q0 -63 22.5 -117.5t62.5 -95t94.5 -63.5t118.5 -23zM574 535v-172h-87q-1 21 -6 41t-14 35.5t-22.5 25t-30.5 9.5q-24 0 -39.5 -14.5t-24.5 -35.5t-12 -44.5t-3 -42.5
q0 -18 3 -39t11.5 -38.5t23.5 -29t38 -11.5q20 0 34.5 9.5t24 24t14 32.5t4.5 35q0 2 -0.5 4t-0.5 4h87q0 -6 0.5 -8.5t0.5 -7.5q0 -39 -15.5 -69.5t-41 -51.5t-59 -32t-70.5 -11q-43 0 -77.5 16t-58.5 43t-37 63t-13 77q0 35 11.5 71t33 65t52 47t69.5 18q77 0 118 -54
q1 2 3.5 8t5 12.5t5 12.5t2.5 8h71z" />
    <glyph glyph-name="guillemotleft" unicode="&#xab;" horiz-adv-x="424" 
d="M251 199q-18 -17 -31 -29q-11 -11 -20.5 -19.5t-9.5 -7.5q-47 53 -73.5 80.5t-43 43t-27.5 24.5t-26 24q69 53 109 96.5t58 67.5q16 -18 29 -31q11 -11 20 -20.5t8 -9.5q-30 -23 -59.5 -51.5t-53.5 -53.5q39 -45 70 -72.5t50 -41.5zM404 199q-18 -17 -31 -29
q-11 -11 -20.5 -19.5t-9.5 -7.5q-47 53 -73.5 80.5t-43 43t-27.5 24.5t-26 24q69 53 109 96.5t58 67.5q16 -18 29 -31q11 -11 20 -20.5t8 -9.5q-30 -23 -59.5 -51.5t-53.5 -53.5q39 -45 70 -72.5t50 -41.5z" />
    <glyph glyph-name="registered" unicode="&#xae;" horiz-adv-x="776" 
d="M396 -23q-81 0 -149.5 29t-119 80t-79 119.5t-28.5 148.5q0 85 31.5 153.5t84 116.5t120.5 73.5t140 25.5q77 0 143 -29.5t114 -79.5t75.5 -116t27.5 -140t-26.5 -143t-74.5 -122t-114 -84.5t-145 -31.5zM396 56q63 0 115.5 25.5t90.5 67.5t59 96.5t21 113.5
q0 58 -22 110.5t-60 92.5t-90.5 63t-113.5 23q-57 0 -110.5 -20.5t-95.5 -58.5t-67 -92t-25 -122q0 -63 22.5 -117.5t62.5 -95t94.5 -63.5t118.5 -23zM402 266v-68h-223v68h62v195h-62v64h46.5h80t92 -0.5t82.5 -0.5h1q34 0 55.5 -25t21.5 -55q0 -15 -6 -29t-15.5 -25.5
t-22.5 -19t-27 -8.5q34 -5 43 -25.5t9 -51.5q0 -10 5.5 -15t12 -4.5t12 5.5t5.5 14v20t1 19h56v-22q0 -53 -22 -82t-79 -29t-79 26.5t-22 76.5q0 29 -11 37.5t-42 8.5h-30l-1 -74h57zM346 381h52q24 1 35.5 13.5t11.5 27.5t-11 27t-34 12q-14 0 -29 -0.5t-25 -0.5v-79z" />
    <glyph glyph-name="macron" unicode="&#xaf;" 
d="M63 742v68h274v-68h-274z" />
    <glyph glyph-name="degree" unicode="&#xb0;" horiz-adv-x="227" 
d="M20 582q0 20 7.5 37.5t20 30t29.5 20t37 7.5q39 0 66 -27t27 -66q0 -40 -27.5 -67t-66.5 -27q-40 0 -66.5 26.5t-26.5 65.5zM62 583q0 -21 14.5 -35.5t36.5 -14.5q20 0 35 14.5t15 35.5t-15 36t-35 15q-22 0 -36.5 -15t-14.5 -36z" />
    <glyph glyph-name="acute" unicode="&#xb4;" horiz-adv-x="168" 
d="M116 718l-46 27l60 133l68 -39z" />
    <glyph glyph-name="paragraph" unicode="&#xb6;" horiz-adv-x="941" 
d="M777 701v-2h144v-137h-133v-420h133v-142h-578v143h135v159h-98q-39 0 -77.5 0.5t-58.5 0.5q-50 0 -91 16t-70.5 43t-46 63.5t-16.5 77.5q0 42 16 78t44.5 62.5t68.5 42t87 15.5h541zM478 561q-21 0 -53 0.5t-62 0.5q-49 0 -73.5 -25.5t-24.5 -57.5t25.5 -59t76.5 -29
h111v170zM665 143h50v419h-50v-419z" />
    <glyph glyph-name="periodcentered" unicode="&#xb7;" horiz-adv-x="201" 
d="M20 405h161v-161h-161v161z" />
    <glyph glyph-name="cedilla" unicode="&#xb8;" 
d="M283 -103q0 -20 -7 -34t-19 -23t-26.5 -13.5t-29.5 -4.5q-12 0 -24.5 6t-23.5 14t-19 17t-11 14v29q12 -6 19 -11t14.5 -8.5t16.5 -5.5t24 -3q19 -1 26 6t7 18q0 10 -7.5 15.5t-17 8t-19.5 3t-16 0.5v77h48v-42q27 -1 46 -15.5t19 -47.5z" />
    <glyph glyph-name="guillemotright" unicode="&#xbb;" horiz-adv-x="424" 
d="M173 199q19 14 50 41.5t70 72.5q-24 25 -53.5 53.5t-59.5 51.5q-1 0 8 9.5t20 20.5q12 13 29 31q18 -24 58 -67.5t109 -96.5q-15 -15 -26 -24t-27.5 -24.5t-43.5 -43t-73 -80.5q0 -1 -10 7.5t-21 19.5q-13 12 -30 29zM20 199q19 14 50 41.5t70 72.5q-24 25 -53.5 53.5
t-59.5 51.5q-1 0 8 9.5t20 20.5q12 13 29 31q18 -24 58 -67.5t109 -96.5q-15 -15 -26 -24t-27.5 -24.5t-43.5 -43t-73 -80.5q0 -1 -10 7.5t-21 19.5q-13 12 -30 29z" />
    <glyph glyph-name="questiondown" unicode="&#xbf;" horiz-adv-x="541" 
d="M520 227q1 -7 1 -13v-13q0 -46 -19 -83t-51 -63.5t-74.5 -40.5t-89.5 -14q-67 0 -117 20t-83.5 53t-50 74.5t-16.5 85.5q0 39 14 77t41.5 68t69.5 50t98 25v92h88v-212q-6 1 -11.5 1.5t-10.5 0.5q-24 0 -42 -10t-30 -26.5t-18.5 -38.5t-6.5 -46q0 -47 23 -69t52 -22
q28 0 51 21t23 61q0 5 -0.5 10.5t-1.5 11.5h161zM372 595h-171v131h171v-131z" />
    <glyph glyph-name="Agrave" unicode="&#xc0;" horiz-adv-x="914" 
d="M546 143l-32 93h-164l-30 -94h79v-142h-359v143h102l201 558h237l201 -558h113v-143h-438v142zM477 351l-46 130l-42 -130h88zM373 861l68 39l60 -133l-46 -27z" />
    <glyph glyph-name="Aacute" unicode="&#xc1;" horiz-adv-x="914" 
d="M546 143l-32 93h-164l-30 -94h79v-142h-359v143h102l201 558h237l201 -558h113v-143h-438v142zM477 351l-46 130l-42 -130h88zM425 734l-46 27l60 133l68 -39z" />
    <glyph glyph-name="Acircumflex" unicode="&#xc2;" horiz-adv-x="914" 
d="M546 143l-32 93h-164l-30 -94h79v-142h-359v143h102l201 558h237l201 -558h113v-143h-438v142zM477 351l-46 130l-42 -130h88zM507 746l-71 59l-69 -59l-88 10l121 105h70l123 -105z" />
    <glyph glyph-name="Atilde" unicode="&#xc3;" horiz-adv-x="914" 
d="M546 143l-32 93h-164l-30 -94h79v-142h-359v143h102l201 558h237l201 -558h113v-143h-438v142zM477 351l-46 130l-42 -130h88zM313 831q20 18 39.5 20.5t38.5 -3t38.5 -14.5t40.5 -14t43.5 -1.5t47.5 23.5q1 0 2 -10.5t1 -24t-1 -25.5t-4 -14q-23 -17 -44 -20.5t-42 0.5
t-41 10.5t-39.5 10.5t-38.5 0.5t-38 -20.5q-1 -1 -1 11.5t-1 28.5q-1 18 -1 42z" />
    <glyph glyph-name="Adieresis" unicode="&#xc4;" horiz-adv-x="914" 
d="M546 143l-32 93h-164l-30 -94h79v-142h-359v143h102l201 558h237l201 -558h113v-143h-438v142zM477 351l-46 130l-42 -130h88zM466 746v92h94v-92h-94zM326 746v92h94v-92h-94z" />
    <glyph glyph-name="Aring" unicode="&#xc5;" horiz-adv-x="914" 
d="M546 143l-32 93h-164l-30 -94h79v-142h-359v143h102l201 558h237l201 -558h113v-143h-438v142zM477 351l-46 130l-42 -130h88zM539 842q0 -19 -7 -35.5t-19.5 -28.5t-29.5 -19t-36 -7t-35.5 7t-28.5 19.5t-19 29.5t-7 36t7 35.5t19.5 28.5t29.5 19t36 7t35.5 -7
t28.5 -19.5t19 -29.5t7 -36zM488 842q0 17 -12 29.5t-29 12.5t-28 -14t-11 -30t12.5 -27.5t28.5 -11.5t27.5 12.5t11.5 28.5z" />
    <glyph glyph-name="AE" unicode="&#xc6;" horiz-adv-x="1267" 
d="M595 144h-4v92h-170l-66 -93h94v-143h-409v143h107l310 419h-205v137h995v-267h-168v130h-271v-143h186v-111h-187v-165h271v172h168l1 -315h-741v143zM591 351v128l-88 -128h88z" />
    <glyph glyph-name="Ccedilla" unicode="&#xc7;" horiz-adv-x="751" 
d="M463 -103q0 -20 -7 -34t-19 -23t-26.5 -13.5t-29.5 -4.5q-12 0 -24.5 6t-23.5 14t-19 17t-11 14v29q12 -6 19 -11t14.5 -8.5t16.5 -5.5t24 -3q19 -1 26 6t7 18q0 10 -7.5 15.5t-17 8t-19.5 3t-16 0.5v59q-71 6 -128.5 37.5t-98 81t-62 113.5t-21.5 136q0 65 21.5 131
t61.5 119.5t97.5 87.5t129.5 34q69 0 125 -24.5t94 -75.5q1 3 5.5 14t9 24t8.5 24t5 14h132v-319h-160q-3 40 -12.5 77t-26.5 65.5t-41.5 45.5t-57.5 17q-45 0 -73.5 -26.5t-44.5 -65.5t-22 -83t-6 -78q0 -35 6 -73.5t21.5 -71t43 -54t70.5 -21.5q37 0 64.5 17.5t45 44.5
t26 60.5t8.5 65.5q0 4 -0.5 7.5t-0.5 6.5h160q1 -11 1.5 -15.5t0.5 -14.5q0 -71 -27 -126.5t-73 -94t-106.5 -59.5t-126.5 -23v-22q27 -1 46 -15.5t19 -47.5z" />
    <glyph glyph-name="Egrave" unicode="&#xc8;" horiz-adv-x="855" 
d="M169 143v419h-129v137h795v-267h-168v130h-271v-143h186v-111h-187v-165h271v172h168l1 -315h-795v143h129zM356 854l68 39l60 -133l-46 -27z" />
    <glyph glyph-name="Eacute" unicode="&#xc9;" horiz-adv-x="855" 
d="M169 143v419h-129v137h795v-267h-168v130h-271v-143h186v-111h-187v-165h271v172h168l1 -315h-795v143h129zM436 746l-46 27l60 133l68 -39z" />
    <glyph glyph-name="Ecircumflex" unicode="&#xca;" horiz-adv-x="855" 
d="M169 143v419h-129v137h795v-267h-168v130h-271v-143h186v-111h-187v-165h271v172h168l1 -315h-795v143h129zM504 742l-71 59l-69 -59l-88 10l121 105h70l123 -105z" />
    <glyph glyph-name="Edieresis" unicode="&#xcb;" horiz-adv-x="855" 
d="M169 143v419h-129v137h795v-267h-168v130h-271v-143h186v-111h-187v-165h271v172h168l1 -315h-795v143h129zM469 748v92h94v-92h-94zM329 748v92h94v-92h-94z" />
    <glyph glyph-name="Igrave" unicode="&#xcc;" horiz-adv-x="548" 
d="M396 562v-420h132v-142h-488v142h133v420h-133v137h488v-137h-132zM194 854l68 39l60 -133l-46 -27z" />
    <glyph glyph-name="Iacute" unicode="&#xcd;" horiz-adv-x="548" 
d="M396 562v-420h132v-142h-488v142h133v420h-133v137h488v-137h-132zM263 730l-46 27l60 133l68 -39z" />
    <glyph glyph-name="Icircumflex" unicode="&#xce;" horiz-adv-x="548" 
d="M396 562v-420h132v-142h-488v142h133v420h-133v137h488v-137h-132zM340 739l-71 59l-69 -59l-88 10l121 105h70l123 -105z" />
    <glyph glyph-name="Idieresis" unicode="&#xcf;" horiz-adv-x="548" 
d="M396 562v-420h132v-142h-488v142h133v420h-133v137h488v-137h-132zM291 743v92h94v-92h-94zM151 743v92h94v-92h-94z" />
    <glyph glyph-name="Eth" unicode="&#xd0;" horiz-adv-x="888" 
d="M130 366l43 18v178h-133v137q67 -1 129 -1h199h84.5t83.5 -4.5t82 -14t80 -27.5q43 -20 75 -51t53 -69.5t31.5 -82.5t10.5 -90q0 -70 -21.5 -135t-62.5 -114.5t-102 -79.5t-139 -30h-503v144h133v143l-43 -18v97zM399 477l45 19v-97l-45 -19v-235q8 -1 15 -1h14
q49 0 83 15t55 43.5t30.5 68.5t9.5 90q0 43 -10.5 80t-33 64t-58 42t-85.5 15h-10t-10 -1v-84z" />
    <glyph glyph-name="Ntilde" unicode="&#xd1;" horiz-adv-x="948" 
d="M554 561v139h374v-139h-127v-561h-197l-268 411v-268h101v-143h-397v143h133v418h-133v139h366l245 -371v232h-97zM331 835q20 18 39.5 20.5t38.5 -3t38.5 -14.5t40.5 -14t43.5 -1.5t47.5 23.5q1 0 2 -10.5t1 -24t-1 -25.5t-4 -14q-23 -17 -44 -20.5t-42 0.5t-41 10.5
t-39.5 10.5t-38.5 0.5t-38 -20.5q-1 -1 -1 11.5t-1 28.5q-1 18 -1 42z" />
    <glyph glyph-name="Ograve" unicode="&#xd2;" horiz-adv-x="796" 
d="M416 -23q-81 0 -149.5 29t-119 80t-79 119.5t-28.5 148.5q0 85 31.5 153.5t84 116.5t120.5 73.5t140 25.5q77 0 143 -29.5t114 -79.5t75.5 -116t27.5 -140t-26.5 -143t-74.5 -122t-114 -84.5t-145 -31.5zM408 568q-36 0 -58.5 -22.5t-36 -55.5t-19 -70.5t-5.5 -68.5
q0 -32 4 -70t16.5 -71t36 -55t63.5 -22q36 0 60 23.5t37.5 57t19 70.5t5.5 63q0 31 -4.5 69.5t-17.5 72.5t-37 56.5t-64 22.5zM339 865l68 39l60 -133l-46 -27z" />
    <glyph glyph-name="Oacute" unicode="&#xd3;" horiz-adv-x="796" 
d="M416 -23q-81 0 -149.5 29t-119 80t-79 119.5t-28.5 148.5q0 85 31.5 153.5t84 116.5t120.5 73.5t140 25.5q77 0 143 -29.5t114 -79.5t75.5 -116t27.5 -140t-26.5 -143t-74.5 -122t-114 -84.5t-145 -31.5zM408 568q-36 0 -58.5 -22.5t-36 -55.5t-19 -70.5t-5.5 -68.5
q0 -32 4 -70t16.5 -71t36 -55t63.5 -22q36 0 60 23.5t37.5 57t19 70.5t5.5 63q0 31 -4.5 69.5t-17.5 72.5t-37 56.5t-64 22.5zM393 741l-46 27l60 133l68 -39z" />
    <glyph glyph-name="Ocircumflex" unicode="&#xd4;" horiz-adv-x="796" 
d="M416 -23q-81 0 -149.5 29t-119 80t-79 119.5t-28.5 148.5q0 85 31.5 153.5t84 116.5t120.5 73.5t140 25.5q77 0 143 -29.5t114 -79.5t75.5 -116t27.5 -140t-26.5 -143t-74.5 -122t-114 -84.5t-145 -31.5zM408 568q-36 0 -58.5 -22.5t-36 -55.5t-19 -70.5t-5.5 -68.5
q0 -32 4 -70t16.5 -71t36 -55t63.5 -22q36 0 60 23.5t37.5 57t19 70.5t5.5 63q0 31 -4.5 69.5t-17.5 72.5t-37 56.5t-64 22.5zM474 745l-71 59l-69 -59l-88 10l121 105h70l123 -105z" />
    <glyph glyph-name="Otilde" unicode="&#xd5;" horiz-adv-x="796" 
d="M278 835q20 18 39.5 20.5t38.5 -3t38.5 -14.5t40.5 -14t43.5 -1.5t47.5 23.5q1 0 2 -10.5t1 -24t-1 -25.5t-4 -14q-23 -17 -44 -20.5t-42 0.5t-41 10.5t-39.5 10.5t-38.5 0.5t-38 -20.5q-1 -1 -1 11.5t-1 28.5q-1 18 -1 42zM416 -23q-81 0 -149.5 29t-119 80t-79 119.5
t-28.5 148.5q0 85 31.5 153.5t84 116.5t120.5 73.5t140 25.5q77 0 143 -29.5t114 -79.5t75.5 -116t27.5 -140t-26.5 -143t-74.5 -122t-114 -84.5t-145 -31.5zM408 568q-36 0 -58.5 -22.5t-36 -55.5t-19 -70.5t-5.5 -68.5q0 -32 4 -70t16.5 -71t36 -55t63.5 -22q36 0 60 23.5
t37.5 57t19 70.5t5.5 63q0 31 -4.5 69.5t-17.5 72.5t-37 56.5t-64 22.5z" />
    <glyph glyph-name="Odieresis" unicode="&#xd6;" horiz-adv-x="796" 
d="M416 -23q-81 0 -149.5 29t-119 80t-79 119.5t-28.5 148.5q0 85 31.5 153.5t84 116.5t120.5 73.5t140 25.5q77 0 143 -29.5t114 -79.5t75.5 -116t27.5 -140t-26.5 -143t-74.5 -122t-114 -84.5t-145 -31.5zM408 568q-36 0 -58.5 -22.5t-36 -55.5t-19 -70.5t-5.5 -68.5
q0 -32 4 -70t16.5 -71t36 -55t63.5 -22q36 0 60 23.5t37.5 57t19 70.5t5.5 63q0 31 -4.5 69.5t-17.5 72.5t-37 56.5t-64 22.5zM432 751v92h94v-92h-94zM292 751v92h94v-92h-94z" />
    <glyph glyph-name="multiply" unicode="&#xd7;" horiz-adv-x="409" 
d="M20 241l115 115l-112 111l69 69l111 -112l117 117l69 -69l-117 -116l109 -110l-68 -68l-110 109l-114 -114z" />
    <glyph glyph-name="Oslash" unicode="&#xd8;" horiz-adv-x="796" 
d="M416 -23q-81 0 -149.5 29t-119 80t-79 119.5t-28.5 148.5q0 85 31.5 153.5t84 116.5t120.5 73.5t140 25.5q77 0 143 -29.5t114 -79.5t75.5 -116t27.5 -140t-26.5 -143t-74.5 -122t-114 -84.5t-145 -31.5zM531 347q0 37 -6.5 83t-26.5 82l-102 -379h13q36 0 60 23.5
t37.5 57t19 70.5t5.5 63zM408 568q-36 0 -58.5 -22.5t-36 -55.5t-19 -70.5t-5.5 -68.5q0 -19 1 -40.5t4 -43t9 -42t16 -37.5l104 379q-4 0 -7.5 0.5t-7.5 0.5z" />
    <glyph glyph-name="Ugrave" unicode="&#xd9;" horiz-adv-x="927" 
d="M411 863l68 39l60 -133l-46 -27zM525 701h382v-139h-122v-107v-181q0 -68 -21 -121t-59.5 -89.5t-93 -56t-122.5 -19.5q-167 0 -245 76t-78 240q0 16 0.5 38.5t0.5 53t0.5 71.5t0.5 95h-128v139h433v-139l-76 -1v-189q0 -51 1 -88.5t6 -63.5q3 -17 13.5 -31t25 -24
t31 -15.5t32.5 -5.5q17 0 34 6t31.5 16.5t24.5 24t12 29.5q3 17 4 44t1.5 67.5t0.5 97t1 133.5h-90v139z" />
    <glyph glyph-name="Uacute" unicode="&#xda;" horiz-adv-x="927" 
d="M468 743l-46 27l60 133l68 -39zM525 701h382v-139h-122v-107v-181q0 -68 -21 -121t-59.5 -89.5t-93 -56t-122.5 -19.5q-167 0 -245 76t-78 240q0 16 0.5 38.5t0.5 53t0.5 71.5t0.5 95h-128v139h433v-139l-76 -1v-189q0 -51 1 -88.5t6 -63.5q3 -17 13.5 -31t25 -24
t31 -15.5t32.5 -5.5q17 0 34 6t31.5 16.5t24.5 24t12 29.5q3 17 4 44t1.5 67.5t0.5 97t1 133.5h-90v139z" />
    <glyph glyph-name="Ucircumflex" unicode="&#xdb;" horiz-adv-x="927" 
d="M544 742l-71 59l-69 -59l-88 10l121 105h70l123 -105zM525 701h382v-139h-122v-107v-181q0 -68 -21 -121t-59.5 -89.5t-93 -56t-122.5 -19.5q-167 0 -245 76t-78 240q0 16 0.5 38.5t0.5 53t0.5 71.5t0.5 95h-128v139h433v-139l-76 -1v-189q0 -51 1 -88.5t6 -63.5
q3 -17 13.5 -31t25 -24t31 -15.5t32.5 -5.5q17 0 34 6t31.5 16.5t24.5 24t12 29.5q3 17 4 44t1.5 67.5t0.5 97t1 133.5h-90v139z" />
    <glyph glyph-name="Udieresis" unicode="&#xdc;" horiz-adv-x="927" 
d="M525 701h382v-139h-122v-107v-181q0 -68 -21 -121t-59.5 -89.5t-93 -56t-122.5 -19.5q-167 0 -245 76t-78 240q0 16 0.5 38.5t0.5 53t0.5 71.5t0.5 95h-128v139h433v-139l-76 -1v-189q0 -51 1 -88.5t6 -63.5q3 -17 13.5 -31t25 -24t31 -15.5t32.5 -5.5q17 0 34 6
t31.5 16.5t24.5 24t12 29.5q3 17 4 44t1.5 67.5t0.5 97t1 133.5h-90v139zM503 745v92h94v-92h-94zM363 745v92h94v-92h-94z" />
    <glyph glyph-name="Yacute" unicode="&#xdd;" horiz-adv-x="987" 
d="M502 739l-46 27l60 133l68 -39zM967 562h-120l-216 -308v-111h121v-144h-475v144h123v92l-249 327h-111v142h474v-142h-90l117 -160l117 160h-95v142h404v-142z" />
    <glyph glyph-name="Thorn" unicode="&#xde;" horiz-adv-x="857" 
d="M381 781l-1 -160h241q47 0 87 -15.5t68.5 -42t44.5 -62.5t16 -78q0 -41 -16.5 -77.5t-46 -63.5t-71 -43t-90.5 -16q-20 0 -59 -0.5t-78 -0.5h-97v-79h135v-143h-494v143h132v509h-132v129h361zM379 311h111q51 2 76.5 29t25.5 59t-24.5 57.5t-73.5 25.5q-30 0 -62 -0.5
t-53 -0.5v-170z" />
    <glyph glyph-name="agrave" unicode="&#xe0;" horiz-adv-x="667" 
d="M218 667l68 39l60 -133l-46 -27zM328 301q4 2 4.5 12.5t0.5 18.5q0 32 -16 44.5t-41 12.5q-32 0 -46.5 -18t-14.5 -39q0 -5 0.5 -9t1.5 -9h-163q-3 18 -3 34q0 43 22 72t55.5 46t73.5 24t76 7q33 0 71.5 -6t71.5 -21t54.5 -41.5t21.5 -66.5v-215q0 -18 10.5 -26.5
t24.5 -8.5q12 0 23.5 7.5t13.5 22.5q3 20 4 37.5t1 31.5q0 11 -0.5 18t-0.5 6q20 0 37 -0.5t38 -0.5q0 -12 -0.5 -32t-2 -41.5t-4.5 -41.5t-8 -33q-20 -49 -61.5 -72t-93.5 -23q-20 0 -41.5 2.5t-41.5 11.5t-37.5 26t-29.5 46q-12 -19 -30.5 -33.5t-41.5 -25t-48.5 -16
t-50.5 -5.5q-27 0 -51.5 6.5t-43 21t-30 36.5t-11.5 53q0 37 20 64t51 45.5t68.5 30.5t71.5 20t60.5 14t35.5 13zM328 235q-17 0 -39 -5t-42 -15.5t-33.5 -27t-13.5 -38.5q0 -15 13.5 -32t38.5 -17q15 0 35 9q26 14 35 38t9 51q0 10 -1 19z" />
    <glyph glyph-name="aacute" unicode="&#xe1;" horiz-adv-x="667" 
d="M279 547l-46 27l60 133l68 -39zM328 301q4 2 4.5 12.5t0.5 18.5q0 32 -16 44.5t-41 12.5q-32 0 -46.5 -18t-14.5 -39q0 -5 0.5 -9t1.5 -9h-163q-3 18 -3 34q0 43 22 72t55.5 46t73.5 24t76 7q33 0 71.5 -6t71.5 -21t54.5 -41.5t21.5 -66.5v-215q0 -18 10.5 -26.5
t24.5 -8.5q12 0 23.5 7.5t13.5 22.5q3 20 4 37.5t1 31.5q0 11 -0.5 18t-0.5 6q20 0 37 -0.5t38 -0.5q0 -12 -0.5 -32t-2 -41.5t-4.5 -41.5t-8 -33q-20 -49 -61.5 -72t-93.5 -23q-20 0 -41.5 2.5t-41.5 11.5t-37.5 26t-29.5 46q-12 -19 -30.5 -33.5t-41.5 -25t-48.5 -16
t-50.5 -5.5q-27 0 -51.5 6.5t-43 21t-30 36.5t-11.5 53q0 37 20 64t51 45.5t68.5 30.5t71.5 20t60.5 14t35.5 13zM328 235q-17 0 -39 -5t-42 -15.5t-33.5 -27t-13.5 -38.5q0 -15 13.5 -32t38.5 -17q15 0 35 9q26 14 35 38t9 51q0 10 -1 19z" />
    <glyph glyph-name="acircumflex" unicode="&#xe2;" horiz-adv-x="667" 
d="M344 543l-71 59l-69 -59l-88 10l121 105h70l123 -105zM328 301q4 2 4.5 12.5t0.5 18.5q0 32 -16 44.5t-41 12.5q-32 0 -46.5 -18t-14.5 -39q0 -5 0.5 -9t1.5 -9h-163q-3 18 -3 34q0 43 22 72t55.5 46t73.5 24t76 7q33 0 71.5 -6t71.5 -21t54.5 -41.5t21.5 -66.5v-215
q0 -18 10.5 -26.5t24.5 -8.5q12 0 23.5 7.5t13.5 22.5q3 20 4 37.5t1 31.5q0 11 -0.5 18t-0.5 6q20 0 37 -0.5t38 -0.5q0 -12 -0.5 -32t-2 -41.5t-4.5 -41.5t-8 -33q-20 -49 -61.5 -72t-93.5 -23q-20 0 -41.5 2.5t-41.5 11.5t-37.5 26t-29.5 46q-12 -19 -30.5 -33.5
t-41.5 -25t-48.5 -16t-50.5 -5.5q-27 0 -51.5 6.5t-43 21t-30 36.5t-11.5 53q0 37 20 64t51 45.5t68.5 30.5t71.5 20t60.5 14t35.5 13zM328 235q-17 0 -39 -5t-42 -15.5t-33.5 -27t-13.5 -38.5q0 -15 13.5 -32t38.5 -17q15 0 35 9q26 14 35 38t9 51q0 10 -1 19z" />
    <glyph glyph-name="atilde" unicode="&#xe3;" horiz-adv-x="667" 
d="M328 301q4 2 4.5 12.5t0.5 18.5q0 32 -16 44.5t-41 12.5q-32 0 -46.5 -18t-14.5 -39q0 -5 0.5 -9t1.5 -9h-163q-3 18 -3 34q0 43 22 72t55.5 46t73.5 24t76 7q33 0 71.5 -6t71.5 -21t54.5 -41.5t21.5 -66.5v-215q0 -18 10.5 -26.5t24.5 -8.5q12 0 23.5 7.5t13.5 22.5
q3 20 4 37.5t1 31.5q0 11 -0.5 18t-0.5 6q20 0 37 -0.5t38 -0.5q0 -12 -0.5 -32t-2 -41.5t-4.5 -41.5t-8 -33q-20 -49 -61.5 -72t-93.5 -23q-20 0 -41.5 2.5t-41.5 11.5t-37.5 26t-29.5 46q-12 -19 -30.5 -33.5t-41.5 -25t-48.5 -16t-50.5 -5.5q-27 0 -51.5 6.5t-43 21
t-30 36.5t-11.5 53q0 37 20 64t51 45.5t68.5 30.5t71.5 20t60.5 14t35.5 13zM328 235q-17 0 -39 -5t-42 -15.5t-33.5 -27t-13.5 -38.5q0 -15 13.5 -32t38.5 -17q15 0 35 9q26 14 35 38t9 51q0 10 -1 19zM157 631q20 18 39.5 20.5t38.5 -3t38.5 -14.5t40.5 -14t43.5 -1.5
t47.5 23.5q1 0 2 -10.5t1 -24t-1 -25.5t-4 -14q-23 -17 -44 -20.5t-42 0.5t-41 10.5t-39.5 10.5t-38.5 0.5t-38 -20.5q-1 -1 -1 11.5t-1 28.5q-1 18 -1 42z" />
    <glyph glyph-name="adieresis" unicode="&#xe4;" horiz-adv-x="667" 
d="M299 549v92h94v-92h-94zM159 549v92h94v-92h-94zM328 301q4 2 4.5 12.5t0.5 18.5q0 32 -16 44.5t-41 12.5q-32 0 -46.5 -18t-14.5 -39q0 -5 0.5 -9t1.5 -9h-163q-3 18 -3 34q0 43 22 72t55.5 46t73.5 24t76 7q33 0 71.5 -6t71.5 -21t54.5 -41.5t21.5 -66.5v-215
q0 -18 10.5 -26.5t24.5 -8.5q12 0 23.5 7.5t13.5 22.5q3 20 4 37.5t1 31.5q0 11 -0.5 18t-0.5 6q20 0 37 -0.5t38 -0.5q0 -12 -0.5 -32t-2 -41.5t-4.5 -41.5t-8 -33q-20 -49 -61.5 -72t-93.5 -23q-20 0 -41.5 2.5t-41.5 11.5t-37.5 26t-29.5 46q-12 -19 -30.5 -33.5
t-41.5 -25t-48.5 -16t-50.5 -5.5q-27 0 -51.5 6.5t-43 21t-30 36.5t-11.5 53q0 37 20 64t51 45.5t68.5 30.5t71.5 20t60.5 14t35.5 13zM328 235q-17 0 -39 -5t-42 -15.5t-33.5 -27t-13.5 -38.5q0 -15 13.5 -32t38.5 -17q15 0 35 9q26 14 35 38t9 51q0 10 -1 19z" />
    <glyph glyph-name="aring" unicode="&#xe5;" horiz-adv-x="667" 
d="M328 301q4 2 4.5 12.5t0.5 18.5q0 32 -16 44.5t-41 12.5q-32 0 -46.5 -18t-14.5 -39q0 -5 0.5 -9t1.5 -9h-163q-3 18 -3 34q0 43 22 72t55.5 46t73.5 24t76 7q33 0 71.5 -6t71.5 -21t54.5 -41.5t21.5 -66.5v-215q0 -18 10.5 -26.5t24.5 -8.5q12 0 23.5 7.5t13.5 22.5
q3 20 4 37.5t1 31.5q0 11 -0.5 18t-0.5 6q20 0 37 -0.5t38 -0.5q0 -12 -0.5 -32t-2 -41.5t-4.5 -41.5t-8 -33q-20 -49 -61.5 -72t-93.5 -23q-20 0 -41.5 2.5t-41.5 11.5t-37.5 26t-29.5 46q-12 -19 -30.5 -33.5t-41.5 -25t-48.5 -16t-50.5 -5.5q-27 0 -51.5 6.5t-43 21
t-30 36.5t-11.5 53q0 37 20 64t51 45.5t68.5 30.5t71.5 20t60.5 14t35.5 13zM328 235q-17 0 -39 -5t-42 -15.5t-33.5 -27t-13.5 -38.5q0 -15 13.5 -32t38.5 -17q15 0 35 9q26 14 35 38t9 51q0 10 -1 19zM380 642q0 -19 -7 -35.5t-19.5 -28.5t-29.5 -19t-36 -7t-35.5 7
t-28.5 19.5t-19 29.5t-7 36t7 35.5t19.5 28.5t29.5 19t36 7t35.5 -7t28.5 -19.5t19 -29.5t7 -36zM329 642q0 17 -12 29.5t-29 12.5t-28 -14t-11 -30t12.5 -27.5t28.5 -11.5t27.5 12.5t11.5 28.5z" />
    <glyph glyph-name="ae" unicode="&#xe6;" horiz-adv-x="849" 
d="M828 225q-20 -2 -57.5 -2h-80.5h-175q0 -23 5.5 -45.5t17 -40.5t29.5 -29t44 -11q44 0 69 18.5t38 58.5h51.5t57.5 1q-9 -43 -33.5 -76.5t-57.5 -57t-73 -35.5t-81 -12q-70 0 -128.5 29t-90.5 88q-12 -19 -31 -39t-45 -36.5t-58.5 -27.5t-72.5 -11q-27 0 -51.5 6.5
t-43 21t-30 36.5t-11.5 53q0 37 20 64t51 45.5t68.5 30.5t71.5 20t60.5 14t35.5 13q4 2 4.5 12.5t0.5 18.5q0 32 -16 44.5t-41 12.5q-32 0 -46.5 -18t-14.5 -39q0 -5 0.5 -9t1.5 -9h-163q-3 18 -3 34q0 43 22 72t55.5 46t73.5 24t76 7q40 0 86.5 -9t81.5 -33q31 19 67 29.5
t76 10.5q53 0 97.5 -18t76.5 -50t49.5 -76t17.5 -97v-14.5t-1 -14.5zM327 235q-17 0 -39 -5t-42 -15.5t-33.5 -27t-13.5 -38.5q0 -15 13.5 -32t38.5 -17q15 0 35 9q26 14 35 38t9 51q0 10 -1 19zM662 297q1 5 1 15q0 15 -4.5 30t-13 27t-21 20t-29.5 8q-35 0 -57 -24.5
t-22 -69.5v-6h146v0z" />
    <glyph glyph-name="ccedilla" unicode="&#xe7;" horiz-adv-x="529" 
d="M343 -103q0 -20 -7 -34t-19 -23t-26.5 -13.5t-29.5 -4.5q-12 0 -24.5 6t-23.5 14t-19 17t-11 14v29q12 -6 19 -11t14.5 -8.5t16.5 -5.5t24 -3q19 -1 26 6t7 18q0 10 -7.5 15.5t-17 8t-19.5 3t-16 0.5v72q-44 6 -82.5 25t-67 49.5t-44.5 71.5t-16 89q0 55 18.5 103.5
t53 85t84 58t111.5 21.5q39 0 77.5 -14.5t69 -41.5t49.5 -65.5t19 -87.5h-155v9q0 38 -16.5 64.5t-48.5 26.5q-19 0 -33.5 -12t-24.5 -31.5t-15 -44t-5 -50.5q0 -27 5.5 -52.5t17 -45.5t28.5 -32.5t41 -12.5q31 0 51.5 11.5t33.5 28.5t19 36t8 33q8 1 16.5 1h16.5
q17 0 33 -0.5t35 -0.5q0 -47 -18 -87.5t-49 -70.5t-73.5 -47.5t-90.5 -19.5v-34q27 -1 46 -15.5t19 -47.5z" />
    <glyph glyph-name="egrave" unicode="&#xe8;" horiz-adv-x="539" 
d="M224 662l68 39l60 -133l-46 -27zM519 225q-20 -2 -57.5 -2h-80.5h-143h-32q0 -23 5.5 -45.5t17 -40.5t29.5 -29t44 -11q44 0 69 18.5t38 58.5h51.5t57.5 1q-9 -43 -33.5 -76.5t-57.5 -57t-73 -35.5t-81 -12q-52 0 -97.5 16t-80 48.5t-54.5 80t-20 110.5q0 53 20 98t55 78
t82 51.5t101 18.5q53 0 97.5 -18t76.5 -50t49.5 -76t17.5 -97v-14.5t-1 -14.5zM353 297q1 5 1 15q0 15 -4.5 30t-13 27t-21 20t-29.5 8q-35 0 -57 -24.5t-22 -69.5v-6h146v0z" />
    <glyph glyph-name="eacute" unicode="&#xe9;" horiz-adv-x="539" 
d="M271 545l-46 27l60 133l68 -39zM519 225q-20 -2 -57.5 -2h-80.5h-143h-32q0 -23 5.5 -45.5t17 -40.5t29.5 -29t44 -11q44 0 69 18.5t38 58.5h51.5t57.5 1q-9 -43 -33.5 -76.5t-57.5 -57t-73 -35.5t-81 -12q-52 0 -97.5 16t-80 48.5t-54.5 80t-20 110.5q0 53 20 98t55 78
t82 51.5t101 18.5q53 0 97.5 -18t76.5 -50t49.5 -76t17.5 -97v-14.5t-1 -14.5zM353 297q1 5 1 15q0 15 -4.5 30t-13 27t-21 20t-29.5 8q-35 0 -57 -24.5t-22 -69.5v-6h146v0z" />
    <glyph glyph-name="ecircumflex" unicode="&#xea;" horiz-adv-x="539" 
d="M355 544l-71 59l-69 -59l-88 10l121 105h70l123 -105zM519 225q-20 -2 -57.5 -2h-80.5h-143h-32q0 -23 5.5 -45.5t17 -40.5t29.5 -29t44 -11q44 0 69 18.5t38 58.5h51.5t57.5 1q-9 -43 -33.5 -76.5t-57.5 -57t-73 -35.5t-81 -12q-52 0 -97.5 16t-80 48.5t-54.5 80
t-20 110.5q0 53 20 98t55 78t82 51.5t101 18.5q53 0 97.5 -18t76.5 -50t49.5 -76t17.5 -97v-14.5t-1 -14.5zM353 297q1 5 1 15q0 15 -4.5 30t-13 27t-21 20t-29.5 8q-35 0 -57 -24.5t-22 -69.5v-6h146v0z" />
    <glyph glyph-name="edieresis" unicode="&#xeb;" horiz-adv-x="539" 
d="M312 545v92h94v-92h-94zM172 545v92h94v-92h-94zM519 225q-20 -2 -57.5 -2h-80.5h-143h-32q0 -23 5.5 -45.5t17 -40.5t29.5 -29t44 -11q44 0 69 18.5t38 58.5h51.5t57.5 1q-9 -43 -33.5 -76.5t-57.5 -57t-73 -35.5t-81 -12q-52 0 -97.5 16t-80 48.5t-54.5 80t-20 110.5
q0 53 20 98t55 78t82 51.5t101 18.5q53 0 97.5 -18t76.5 -50t49.5 -76t17.5 -97v-14.5t-1 -14.5zM353 297q1 5 1 15q0 15 -4.5 30t-13 27t-21 20t-29.5 8q-35 0 -57 -24.5t-22 -69.5v-6h146v0z" />
    <glyph glyph-name="igrave" unicode="&#xec;" horiz-adv-x="382" 
d="M98 656l68 39l60 -133l-46 -27zM362 111v-110h-342v109h88v253h-88v111h258v-363h84z" />
    <glyph glyph-name="iacute" unicode="&#xed;" horiz-adv-x="382" 
d="M159 537l-46 27l60 133l68 -39zM362 111v-110h-342v109h88v253h-88v111h258v-363h84z" />
    <glyph glyph-name="icircumflex" unicode="&#xee;" horiz-adv-x="398" 
d="M249 545l-71 59l-69 -59l-88 10l121 105h70l123 -105zM378 111v-110h-342v109h88v253h-88v111h258v-363h84z" />
    <glyph glyph-name="idieresis" unicode="&#xef;" horiz-adv-x="382" 
d="M182 544v92h94v-92h-94zM42 544v92h94v-92h-94zM362 111v-110h-342v109h88v253h-88v111h258v-363h84z" />
    <glyph glyph-name="eth" unicode="&#xf0;" horiz-adv-x="708" 
d="M331 520l43 37q-23 12 -50 12q-28 0 -51 -10l-40 122q24 6 48 8.5t46 2.5q45 0 85.5 -9.5t76.5 -26.5l82 71l61 -76l-61 -50q55 -51 86 -122t31 -156q0 -77 -25.5 -138.5t-71 -105t-107 -66.5t-133.5 -23q-56 0 -114.5 14.5t-106.5 45.5t-79 78t-31 113q0 52 20.5 91.5
t55 66t78.5 39.5t91 13q56 0 109 -18t93 -56v9q0 27 -7 54t-20 51l-57 -47zM349 351h-4q-20 0 -37.5 -9.5t-31 -25.5t-21 -35.5t-7.5 -39.5t7.5 -39t21 -34t32 -24.5t40.5 -9.5q21 0 40.5 7t34.5 20.5t24 32.5t9 43t-8.5 44.5t-23 36t-34 24.5t-42.5 9z" />
    <glyph glyph-name="ntilde" unicode="&#xf1;" horiz-adv-x="674" 
d="M185 629q20 18 39.5 20.5t38.5 -3t38.5 -14.5t40.5 -14t43.5 -1.5t47.5 23.5q1 0 2 -10.5t1 -24t-1 -25.5t-4 -14q-23 -17 -44 -20.5t-42 0.5t-41 10.5t-39.5 10.5t-38.5 0.5t-38 -20.5q-1 -1 -1 11.5t-1 28.5q-1 18 -1 42zM98 110v256h-78v107h248v-16q0 -15 0.5 -33
t0.5 -29t-1 -12q15 21 34.5 40t43 33.5t49 23t52.5 8.5q28 0 51.5 -11t40 -29t25.5 -42.5t9 -51.5v-34.5t-0.5 -43.5t-0.5 -48v-47v-41t1 -29h81v-110h-304v110h53v23v90v51.5t-2 45.5q0 10 -4.5 19t-12 16t-16.5 11t-18 4q-13 0 -26 -6.5t-23 -16.5t-16 -23t-6 -26
q-1 -21 -1.5 -43t-0.5 -46q0 -23 0.5 -48t0.5 -52h34v-109h-291v109h77z" />
    <glyph glyph-name="ograve" unicode="&#xf2;" horiz-adv-x="555" 
d="M222 661l68 39l60 -133l-46 -27zM278 495q52 0 99 -19.5t82.5 -54t56 -80.5t20.5 -98q0 -54 -21.5 -99t-58 -78t-84.5 -51.5t-100 -18.5q-53 0 -99 20t-79.5 55t-53 81.5t-19.5 99.5q0 57 22.5 102t58.5 76.5t82 48t94 16.5zM279 111q24 0 38.5 14.5t22 36t10 47
t2.5 47.5q0 19 -2.5 42t-10.5 43t-23 33t-40 13q-26 0 -41 -17t-22.5 -41.5t-9.5 -51.5t-2 -46q0 -17 4 -38t13 -39t24 -30.5t37 -12.5z" />
    <glyph glyph-name="oacute" unicode="&#xf3;" horiz-adv-x="555" 
d="M264 544l-46 27l60 133l68 -39zM278 495q52 0 99 -19.5t82.5 -54t56 -80.5t20.5 -98q0 -54 -21.5 -99t-58 -78t-84.5 -51.5t-100 -18.5q-53 0 -99 20t-79.5 55t-53 81.5t-19.5 99.5q0 57 22.5 102t58.5 76.5t82 48t94 16.5zM279 111q24 0 38.5 14.5t22 36t10 47t2.5 47.5
q0 19 -2.5 42t-10.5 43t-23 33t-40 13q-26 0 -41 -17t-22.5 -41.5t-9.5 -51.5t-2 -46q0 -17 4 -38t13 -39t24 -30.5t37 -12.5z" />
    <glyph glyph-name="ocircumflex" unicode="&#xf4;" horiz-adv-x="555" 
d="M353 547l-71 59l-69 -59l-88 10l121 105h70l123 -105zM278 495q52 0 99 -19.5t82.5 -54t56 -80.5t20.5 -98q0 -54 -21.5 -99t-58 -78t-84.5 -51.5t-100 -18.5q-53 0 -99 20t-79.5 55t-53 81.5t-19.5 99.5q0 57 22.5 102t58.5 76.5t82 48t94 16.5zM279 111q24 0 38.5 14.5
t22 36t10 47t2.5 47.5q0 19 -2.5 42t-10.5 43t-23 33t-40 13q-26 0 -41 -17t-22.5 -41.5t-9.5 -51.5t-2 -46q0 -17 4 -38t13 -39t24 -30.5t37 -12.5z" />
    <glyph glyph-name="otilde" unicode="&#xf5;" horiz-adv-x="555" 
d="M157 625q20 18 39.5 20.5t38.5 -3t38.5 -14.5t40.5 -14t43.5 -1.5t47.5 23.5q1 0 2 -10.5t1 -24t-1 -25.5t-4 -14q-23 -17 -44 -20.5t-42 0.5t-41 10.5t-39.5 10.5t-38.5 0.5t-38 -20.5q-1 -1 -1 11.5t-1 28.5q-1 18 -1 42zM278 495q52 0 99 -19.5t82.5 -54t56 -80.5
t20.5 -98q0 -54 -21.5 -99t-58 -78t-84.5 -51.5t-100 -18.5q-53 0 -99 20t-79.5 55t-53 81.5t-19.5 99.5q0 57 22.5 102t58.5 76.5t82 48t94 16.5zM279 111q24 0 38.5 14.5t22 36t10 47t2.5 47.5q0 19 -2.5 42t-10.5 43t-23 33t-40 13q-26 0 -41 -17t-22.5 -41.5t-9.5 -51.5
t-2 -46q0 -17 4 -38t13 -39t24 -30.5t37 -12.5z" />
    <glyph glyph-name="odieresis" unicode="&#xf6;" horiz-adv-x="555" 
d="M306 540v92h94v-92h-94zM166 540v92h94v-92h-94zM278 495q52 0 99 -19.5t82.5 -54t56 -80.5t20.5 -98q0 -54 -21.5 -99t-58 -78t-84.5 -51.5t-100 -18.5q-53 0 -99 20t-79.5 55t-53 81.5t-19.5 99.5q0 57 22.5 102t58.5 76.5t82 48t94 16.5zM279 111q24 0 38.5 14.5
t22 36t10 47t2.5 47.5q0 19 -2.5 42t-10.5 43t-23 33t-40 13q-26 0 -41 -17t-22.5 -41.5t-9.5 -51.5t-2 -46q0 -17 4 -38t13 -39t24 -30.5t37 -12.5z" />
    <glyph glyph-name="divide" unicode="&#xf7;" horiz-adv-x="454" 
d="M20 406h414v-97h-414v97zM140 251h161v-121h-161v121zM140 581h161v-121h-161v121z" />
    <glyph glyph-name="oslash" unicode="&#xf8;" horiz-adv-x="555" 
d="M277 495q52 0 99 -19.5t82.5 -54t56 -80.5t20.5 -98q0 -54 -21.5 -99t-58 -78t-84.5 -51.5t-100 -18.5q-41 0 -78 12l-10 2v2q-36 13 -66 37t-51.5 55.5t-33.5 69t-12 78.5q0 57 22.5 102t58.5 76.5t82 48t94 16.5zM200 231q0 -19 4 -41t15 -41l63 237q-2 0 -3.5 0.5
t-3.5 0.5q-26 0 -41 -17t-22.5 -41.5t-9.5 -51.5t-2 -46zM278 111q24 0 38.5 14.5t22 36t10 47t2.5 47.5q0 21 -3 46t-14 46l-64 -237h8v0z" />
    <glyph glyph-name="ugrave" unicode="&#xf9;" horiz-adv-x="673" 
d="M233 656l68 39l60 -133l-46 -27zM575 110h78v-107h-248q0 4 0.5 7.5t0.5 8.5q0 16 -1 33.5t-1 28.5t1 12q-15 -21 -34.5 -40t-43 -33.5t-49 -23t-52.5 -8.5q-29 0 -52 11t-39.5 29t-25.5 42.5t-9 51.5v34.5t0.5 44t0.5 48v47.5v41t-1 29h-80v108h250v-192v-72.5t2 -54.5
q0 -10 4.5 -19t12 -16t16.5 -11t18 -4q26 0 47.5 18t21.5 44q2 26 3 55t1 59v42.5t-1 43.5h-74v107h254v-364z" />
    <glyph glyph-name="uacute" unicode="&#xfa;" horiz-adv-x="673" 
d="M302 542l-46 27l60 133l68 -39zM575 110h78v-107h-248q0 4 0.5 7.5t0.5 8.5q0 16 -1 33.5t-1 28.5t1 12q-15 -21 -34.5 -40t-43 -33.5t-49 -23t-52.5 -8.5q-29 0 -52 11t-39.5 29t-25.5 42.5t-9 51.5v34.5t0.5 44t0.5 48v47.5v41t-1 29h-80v108h250v-192v-72.5t2 -54.5
q0 -10 4.5 -19t12 -16t16.5 -11t18 -4q26 0 47.5 18t21.5 44q2 26 3 55t1 59v42.5t-1 43.5h-74v107h254v-364z" />
    <glyph glyph-name="ucircumflex" unicode="&#xfb;" horiz-adv-x="673" 
d="M373 542l-71 59l-69 -59l-88 10l121 105h70l123 -105zM575 110h78v-107h-248q0 4 0.5 7.5t0.5 8.5q0 16 -1 33.5t-1 28.5t1 12q-15 -21 -34.5 -40t-43 -33.5t-49 -23t-52.5 -8.5q-29 0 -52 11t-39.5 29t-25.5 42.5t-9 51.5v34.5t0.5 44t0.5 48v47.5v41t-1 29h-80v108h250
v-192v-72.5t2 -54.5q0 -10 4.5 -19t12 -16t16.5 -11t18 -4q26 0 47.5 18t21.5 44q2 26 3 55t1 59v42.5t-1 43.5h-74v107h254v-364z" />
    <glyph glyph-name="udieresis" unicode="&#xfc;" horiz-adv-x="673" 
d="M322 542v92h94v-92h-94zM182 542v92h94v-92h-94zM575 110h78v-107h-248q0 4 0.5 7.5t0.5 8.5q0 16 -1 33.5t-1 28.5t1 12q-15 -21 -34.5 -40t-43 -33.5t-49 -23t-52.5 -8.5q-29 0 -52 11t-39.5 29t-25.5 42.5t-9 51.5v34.5t0.5 44t0.5 48v47.5v41t-1 29h-80v108h250v-192
v-72.5t2 -54.5q0 -10 4.5 -19t12 -16t16.5 -11t18 -4q26 0 47.5 18t21.5 44q2 26 3 55t1 59v42.5t-1 43.5h-74v107h254v-364z" />
    <glyph glyph-name="yacute" unicode="&#xfd;" horiz-adv-x="646" 
d="M324 533l-46 27l60 133l68 -39zM543 366l-58 -164q-12 -35 -26 -73t-28.5 -76.5t-29 -75.5t-27.5 -70q-24 -59 -65 -89.5t-100 -30.5q-35 0 -64 12.5t-50 34.5t-32.5 52t-11.5 65v10.5t1 11.5h107q-1 -3 -1 -10q0 -20 12.5 -39t32.5 -19q17 0 28.5 6.5t18.5 16t10 21
t3 22.5v6q-17 45 -37 96t-40 102.5t-39 100.5t-35 90h-92v106h315v-107h-39l64 -187l64 188h-52v106h254v-107z" />
    <glyph glyph-name="thorn" unicode="&#xfe;" horiz-adv-x="857" 
d="M381 699l-1 -210h241q47 0 87 -15.5t68.5 -42t44.5 -62.5t16 -78q0 -41 -16.5 -77.5t-46 -63.5t-71 -43t-90.5 -16q-20 0 -59 -0.5t-78 -0.5h-97v-139h135v-143h-494v143h132v619h-132v129h361zM379 179h111q51 2 76.5 29t25.5 59t-24.5 57.5t-73.5 25.5q-30 0 -62 -0.5
t-53 -0.5v-170z" />
    <glyph glyph-name="ydieresis" unicode="&#xff;" horiz-adv-x="646" 
d="M543 366l-58 -164q-12 -35 -26 -73t-28.5 -76.5t-29 -75.5t-27.5 -70q-24 -59 -65 -89.5t-100 -30.5q-35 0 -64 12.5t-50 34.5t-32.5 52t-11.5 65v10.5t1 11.5h107q-1 -3 -1 -10q0 -20 12.5 -39t32.5 -19q17 0 28.5 6.5t18.5 16t10 21t3 22.5v6q-17 45 -37 96t-40 102.5
t-39 100.5t-35 90h-92v106h315v-107h-39l64 -187l64 188h-52v106h254v-107zM370 533v92h94v-92h-94zM230 533v92h94v-92h-94z" />
    <glyph glyph-name="dotlessi" unicode="&#x131;" horiz-adv-x="382" 
d="M362 111v-110h-342v109h88v253h-88v111h258v-363h84z" />
    <glyph glyph-name="Lslash" unicode="&#x141;" horiz-adv-x="828" 
d="M130 366l42 17v179h-132v139h487v-139h-123v-83l40 17v-97l-40 -17v-239h227v172h177v-315h-768v143h132v143l-42 -17v97z" />
    <glyph glyph-name="lslash" unicode="&#x142;" horiz-adv-x="371" 
d="M50 376l52 23v200h-82v101h250v-228l54 24v-97l-54 -24v-264h81v-110h-330v110h81v191l-52 -23v97z" />
    <glyph glyph-name="OE" unicode="&#x152;" horiz-adv-x="1182" 
d="M416 -1q-81 0 -149.5 25.5t-119 72.5t-79 112t-28.5 145q0 85 31.5 150t84 108.5t120.5 65.5t140 22h11h7h6.5t10.5 -1h711v-267h-168v130h-271v-143h186v-111h-187v-165h271v172h168l1 -315h-718q-6 -1 -8.5 -1h-5h-5.5h-9zM408 561q-36 0 -58.5 -21.5t-36 -53t-19 -68
t-5.5 -67.5q0 -32 3.5 -67.5t15.5 -66t34 -51.5t59 -23h105v419z" />
    <glyph glyph-name="oe" unicode="&#x153;" horiz-adv-x="863" 
d="M277 495q46 0 87 -15.5t73 -42.5q32 27 74 42.5t91 15.5q53 0 97.5 -18t76.5 -50t49.5 -76t17.5 -97v-14.5t-1 -14.5q-20 -2 -57.5 -2h-80.5h-175q0 -23 5.5 -45.5t17 -40.5t29.5 -29t44 -11q44 0 69 18.5t38 58.5h51.5t57.5 1q-9 -43 -33.5 -76.5t-57.5 -57t-73 -35.5
t-81 -12q-100 0 -164 56q-33 -26 -74 -40t-87 -14q-53 0 -99 20t-79.5 55t-53 81.5t-19.5 99.5q0 57 22.5 102t58.5 76.5t82 48t94 16.5zM278 111q24 0 38.5 14.5t22 36t10 47t2.5 47.5q0 19 -2.5 42t-10.5 43t-23 33t-40 13q-26 0 -41 -17t-22.5 -41.5t-9.5 -51.5t-2 -46
q0 -17 4 -38t13 -39t24 -30.5t37 -12.5zM676 297q1 5 1 15q0 15 -4.5 30t-13 27t-21 20t-29.5 8q-35 0 -57 -24.5t-22 -69.5v-6h146v0z" />
    <glyph glyph-name="Scaron" unicode="&#x160;" horiz-adv-x="722" 
d="M380 745h-70l-121 105l88 10l69 -59l71 59l86 -9zM518 468q-6 21 -24 42t-43.5 37.5t-56 27t-61.5 10.5q-14 0 -29.5 -2t-29 -7.5t-22 -15.5t-8.5 -26q0 -25 34 -40t85 -28.5t110.5 -30t110.5 -43t85 -68t34 -104.5q0 -56 -25 -101t-65 -77t-91 -49t-102 -17
q-31 0 -66.5 5t-69.5 15t-64 26t-51 38q-2 -5 -10.5 -21.5t-15.5 -38.5h-122v254h145q9 -23 30 -47t49.5 -43t63.5 -31t71 -12q35 0 54.5 12.5t24.5 34.5q2 8 2 13q0 31 -28 44q-35 18 -79 30.5t-88.5 25t-87 27.5t-76 38.5t-53.5 57.5t-20 85q0 52 24 95t63 73.5t88.5 47.5
t100.5 17q25 0 54 -4t57 -12.5t53.5 -21.5t43.5 -31q-1 7 -1 11.5v9.5v30h148v-236h-142z" />
    <glyph glyph-name="scaron" unicode="&#x161;" horiz-adv-x="500" 
d="M286 535h-70l-121 105l88 10l69 -59l71 59l86 -9zM118 178q24 -21 50 -38q22 -14 48.5 -25.5t52.5 -11.5t41 10t15 23q0 10 -9.5 19.5t-30.5 16.5q-39 7 -83.5 16t-82 27t-62.5 48.5t-25 82.5q0 33 16 59t42 44.5t59 28.5t66 10q16 0 36 -3t39 -9t35.5 -15.5t25.5 -23.5
q1 2 5.5 7t9.5 12q6 7 13 17h87v-141q-10 0 -26 0.5t-32 0.5t-29.5 -0.5t-19.5 -0.5q-23 29 -48 45t-57 16q-26 0 -46 -9t-20 -22q0 -10 16 -19q26 -11 56.5 -18.5t61 -16t59.5 -20t51 -29.5t35 -45t13 -66q0 -34 -16.5 -63t-43.5 -50.5t-62 -33.5t-72 -12q-21 0 -43 5.5
t-42 14.5t-37 19.5t-29 19.5q-5 -6 -9 -14l-8 -16q-4 -9 -9 -17h-89v177h98z" />
    <glyph glyph-name="Ydieresis" unicode="&#x178;" horiz-adv-x="987" 
d="M967 562h-120l-216 -308v-111h121v-144h-475v144h123v92l-249 327h-111v142h474v-142h-90l117 -160l117 160h-95v142h404v-142zM540 743v92h94v-92h-94zM400 743v92h94v-92h-94z" />
    <glyph glyph-name="Zcaron" unicode="&#x17d;" horiz-adv-x="791" 
d="M447 744h-70l-121 105l88 10l69 -59l71 59l86 -9zM329 143h263v155h176v-299h-728v145l436 418h-248v-151h-170v290h713v-139z" />
    <glyph glyph-name="zcaron" unicode="&#x17e;" horiz-adv-x="519" 
d="M307 526h-70l-121 105l88 10l69 -59l71 59l86 -9zM208 110h167v95h124v-204h-479v122l264 243h-126v-69h-126v175h456v-105z" />
    <glyph glyph-name="circumflex" unicode="&#x2c6;" 
d="M271 739l-71 59l-69 -59l-88 10l121 105h70l123 -105z" />
    <glyph glyph-name="caron" unicode="&#x2c7;" 
d="M234 739h-70l-121 105l88 10l69 -59l71 59l86 -9z" />
    <glyph glyph-name="breve" unicode="&#x2d8;" 
d="M325 825q-7 -28 -20.5 -46.5t-31 -30t-36.5 -16t-37 -4.5t-38 4.5t-38 15.5t-31.5 29.5t-17.5 47.5h74q2 -20 20 -27.5t32 -7.5q15 0 31 8.5t21 26.5h72v0z" />
    <glyph glyph-name="dotaccent" unicode="&#x2d9;" 
d="M158 734v92h94v-92h-94z" />
    <glyph glyph-name="ring" unicode="&#x2da;" 
d="M291 821q0 -19 -7 -35.5t-19.5 -28.5t-29.5 -19t-36 -7t-35.5 7t-28.5 19.5t-19 29.5t-7 36t7 35.5t19.5 28.5t29.5 19t36 7t35.5 -7t28.5 -19.5t19 -29.5t7 -36zM240 821q0 17 -12 29.5t-29 12.5t-28 -14t-11 -30t12.5 -27.5t28.5 -11.5t27.5 12.5t11.5 28.5z" />
    <glyph glyph-name="ogonek" unicode="&#x2db;" 
d="M278 -130q-3 -5 -10.5 -13.5t-17.5 -17t-22.5 -15t-24.5 -6.5q-14 0 -28.5 4.5t-26 14t-18.5 24t-7 35.5q0 23 8 41.5t18.5 32t21 22.5t15.5 12h46l-16 -16t-19 -23t-16 -28t-7 -30q0 -12 7 -24.5t24 -11.5q15 1 24 3t16 5.5t14.5 9t18.5 12.5v-31v0z" />
    <glyph glyph-name="tilde" unicode="&#x2dc;" 
d="M75 816q20 18 39.5 20.5t38.5 -3t38.5 -14.5t40.5 -14t43.5 -1.5t47.5 23.5q1 0 2 -10.5t1 -24t-1 -25.5t-4 -14q-23 -17 -44 -20.5t-42 0.5t-41 10.5t-39.5 10.5t-38.5 0.5t-38 -20.5q-1 -1 -1 11.5t-1 28.5q-1 18 -1 42z" />
    <glyph glyph-name="hungarumlaut" unicode="&#x2dd;" horiz-adv-x="449" 
d="M257 728l-36 17l60 133l58 -29zM159 728l-36 17l60 133l58 -29z" />
    <glyph glyph-name="endash" unicode="&#x2013;" horiz-adv-x="464" 
d="M20 406h424v-97h-424v97z" />
    <glyph glyph-name="emdash" unicode="&#x2014;" horiz-adv-x="674" 
d="M20 406h634v-97h-634v97z" />
    <glyph glyph-name="quoteleft" unicode="&#x2018;" horiz-adv-x="211" 
d="M20 332v75.5t0.5 48t0.5 27.5v14q0 39 7.5 75.5t25 65t47 45.5t73.5 17h8t9 -1v-34v-16.5t-1 -16.5h-5q-26 0 -45 -9.5t-31 -26t-18 -39t-6 -48.5q0 -5 0.5 -8.5t0.5 -8.5q14 -1 30.5 -1h32.5h37l-2 -159h-164v0z" />
    <glyph glyph-name="quoteright" unicode="&#x2019;" horiz-adv-x="211" 
d="M191 700v-75.5t-0.5 -48t-0.5 -28v-13.5q0 -39 -7.5 -75.5t-25 -65t-47 -45.5t-73.5 -17h-8t-9 1v34v16.5t1 16.5h5q52 0 76 35.5t24 87.5q0 5 -0.5 8.5t-0.5 8.5q-14 0 -31.5 0.5t-32.5 0.5h-36l2 159h164v0z" />
    <glyph glyph-name="quotesinglbase" unicode="&#x201a;" horiz-adv-x="211" 
d="M191 159v-75.5t-0.5 -48t-0.5 -28v-13.5q0 -39 -7.5 -75.5t-25 -65t-47 -45.5t-73.5 -17h-8t-9 1v34v16.5t1 16.5h5q52 0 76 35.5t24 87.5q0 5 -0.5 8.5t-0.5 8.5q-14 0 -31.5 0.5t-32.5 0.5h-36l2 159h164v0z" />
    <glyph glyph-name="quotedblleft" unicode="&#x201c;" horiz-adv-x="416" 
d="M225 332v75.5t0.5 48t0.5 27.5v14q0 39 7.5 75.5t25 65t47 45.5t73.5 17h8t9 -1v-34v-16.5t-1 -16.5h-5q-26 0 -45 -9.5t-31 -26t-18 -39t-6 -48.5q0 -5 0.5 -8.5t0.5 -8.5q14 -1 30.5 -1h32.5h37l-2 -159h-164v0zM20 332v75.5t0.5 48t0.5 27.5v14q0 39 7.5 75.5t25 65
t47 45.5t73.5 17h8t9 -1v-34v-16.5t-1 -16.5h-5q-26 0 -45 -9.5t-31 -26t-18 -39t-6 -48.5q0 -5 0.5 -8.5t0.5 -8.5q14 -1 30.5 -1h32.5h37l-2 -159h-164v0z" />
    <glyph glyph-name="quotedblright" unicode="&#x201d;" horiz-adv-x="416" 
d="M191 700v-75.5t-0.5 -48t-0.5 -28v-13.5q0 -39 -7.5 -75.5t-25 -65t-47 -45.5t-73.5 -17h-8t-9 1v34v16.5t1 16.5h5q52 0 76 35.5t24 87.5q0 5 -0.5 8.5t-0.5 8.5q-14 0 -31.5 0.5t-32.5 0.5h-36l2 159h164v0zM396 700v-75.5t-0.5 -48t-0.5 -28v-13.5q0 -39 -7.5 -75.5
t-25 -65t-47 -45.5t-73.5 -17h-8t-9 1v34v16.5t1 16.5h5q52 0 76 35.5t24 87.5q0 5 -0.5 8.5t-0.5 8.5q-14 0 -31.5 0.5t-32.5 0.5h-36l2 159h164v0z" />
    <glyph glyph-name="quotedblbase" unicode="&#x201e;" horiz-adv-x="416" 
d="M191 159v-75.5t-0.5 -48t-0.5 -28v-13.5q0 -39 -7.5 -75.5t-25 -65t-47 -45.5t-73.5 -17h-8t-9 1v34v16.5t1 16.5h5q52 0 76 35.5t24 87.5q0 5 -0.5 8.5t-0.5 8.5q-14 0 -31.5 0.5t-32.5 0.5h-36l2 159h164v0zM396 159v-75.5t-0.5 -48t-0.5 -28v-13.5q0 -39 -7.5 -75.5
t-25 -65t-47 -45.5t-73.5 -17h-8t-9 1v34v16.5t1 16.5h5q52 0 76 35.5t24 87.5q0 5 -0.5 8.5t-0.5 8.5q-14 0 -31.5 0.5t-32.5 0.5h-36l2 159h164v0z" />
    <glyph glyph-name="dagger" unicode="&#x2020;" horiz-adv-x="354" 
d="M130 662q29 1 51 1q19 0 34.5 -1t14.5 -4q-2 -9 -4 -28.5t-2.5 -40t0.5 -37.5t4 -22q2 -5 19 -5t37 2q23 2 50 5q0 -29 -1 -51q-1 -19 -1.5 -34.5t-1.5 -14.5q-8 4 -23 6.5t-31 3.5t-30 -0.5t-18 -5.5q-2 -2 -3 -15t-1.5 -33t0 -45t0.5 -50q1 -60 4 -135q-29 -4 -51 -6
q-19 -2 -34 -1t-13 9q1 5 2.5 26.5t2 51t1 63t0 62.5t-1.5 49.5t-2 23.5q-4 8 -21 8t-37 -2q-23 -3 -51 -9q-1 28 -2 51q-1 20 -1 35.5t2 15.5q9 -3 26 -5.5t34.5 -3.5t31 0t16.5 6q3 6 4 24.5t0.5 40.5t-2 40.5t-2.5 24.5z" />
    <glyph glyph-name="daggerdbl" unicode="&#x2021;" horiz-adv-x="354" 
d="M130 662q13 1 30.5 1h33t26 -1.5t10.5 -3.5q-1 -4 -3 -14q0 -14 -1 -31t-2 -49q2 -12 4 -14q2 -5 19 -5t37 2q23 2 50 5q0 -29 -1 -51q-1 -19 -1.5 -34.5t-1.5 -14.5q-8 4 -23 6.5t-31 3.5t-30 -0.5t-18 -5.5q-2 -2 -3 -17t-1 -32t1 -32t3 -17q4 -5 18 -6t30 0t31 3.5
t23 6.5q1 1 1.5 -14.5t1.5 -34.5q1 -22 1 -51q-27 3 -50 5q-20 2 -37 1.5t-19 -4.5q-2 -3 -4 -14q2 -19 2 -32t-0.5 -23t0 -19t4.5 -20q0 -2 -5.5 -3t-15 -1.5t-21.5 -0.5h-23q-8 -1 -18.5 -0.5t-16.5 1.5q0 2 1 4q-2 2 -1 4q0 -1 1.5 12t3 30t1 34.5t-5.5 25.5
q-3 4 -16.5 5.5t-31 0.5t-34.5 -3.5t-26 -5.5q-2 -1 -2 15t1 36q1 23 2 51q28 -6 51 -9q20 -2 37 -2t21 8q1 1 1 16v33t-0.5 32.5t-0.5 16.5q-4 8 -21 8t-37 -2q-23 -3 -51 -9q-1 28 -2 51q-1 20 -1 35.5t2 15.5q9 -3 26 -5.5t34.5 -3.5t31 0t16.5 6q2 3 3 12t2 21
q-1 34 -2 49t-3 20q-2 1 1 4q-1 1 -1 4z" />
    <glyph glyph-name="bullet" unicode="&#x2022;" horiz-adv-x="325" 
d="M20 334q0 30 11 56t30.5 45.5t45 30.5t55.5 11t56 -11t45.5 -30.5t30.5 -45.5t11 -56t-11 -55.5t-30.5 -45t-45.5 -30.5t-56 -11t-55.5 11t-45 30.5t-30.5 45t-11 55.5z" />
    <glyph glyph-name="ellipsis" unicode="&#x2026;" horiz-adv-x="763" 
d="M20 161h161v-161h-161v161zM302 161h161v-161h-161v161zM582 161h161v-161h-161v161z" />
    <glyph glyph-name="perthousand" unicode="&#x2030;" horiz-adv-x="1345" 
d="M612 704l-198 -704h-97l198 704h97zM221 291q-43 0 -80 16t-64 44.5t-42 67t-15 82.5q0 48 17 86t45 64.5t64.5 41t74.5 14.5q41 0 76 -16.5t61 -44t40.5 -64.5t14.5 -79q0 -41 -14.5 -79.5t-40 -68t-60.5 -47t-77 -17.5zM217 620q-19 0 -31.5 -12.5t-20 -31t-10.5 -39.5
t-3 -38v-6q0 -18 2.5 -38t10 -37t20 -28.5t32.5 -11.5q19 0 32 13.5t20 32t10 39t3 35.5q0 17 -2.5 38.5t-9 40t-19.5 31t-34 12.5zM718 0q-43 0 -80 16t-64 44.5t-42 67t-15 82.5q0 48 17 86t45 64.5t64.5 41t74.5 14.5q41 0 76 -16.5t61 -44t40.5 -64.5t14.5 -79
q0 -41 -14.5 -79.5t-40 -68t-60.5 -47t-77 -17.5zM714 329q-19 0 -31.5 -12.5t-20 -31t-10.5 -39.5t-3 -38v-6q0 -18 2.5 -38t10 -37t20 -28.5t32.5 -11.5q19 0 32 13.5t20 32t10 39t3 35.5q0 17 -2.5 38.5t-9 40t-19.5 31t-34 12.5zM1133 0q-43 0 -80 16t-64 44.5t-42 67
t-15 82.5q0 48 17 86t45 64.5t64.5 41t74.5 14.5q41 0 76 -16.5t61 -44t40.5 -64.5t14.5 -79q0 -41 -14.5 -79.5t-40 -68t-60.5 -47t-77 -17.5zM1129 329q-19 0 -31.5 -12.5t-20 -31t-10.5 -39.5t-3 -38v-6q0 -18 2.5 -38t10 -37t20 -28.5t32.5 -11.5q19 0 32 13.5t20 32
t10 39t3 35.5q0 17 -2.5 38.5t-9 40t-19.5 31t-34 12.5z" />
    <glyph glyph-name="guilsinglleft" unicode="&#x2039;" horiz-adv-x="271" 
d="M251 199q-18 -17 -31 -29q-11 -11 -20.5 -19.5t-9.5 -7.5q-47 53 -73.5 80.5t-43 43t-27.5 24.5t-26 24q69 53 109 96.5t58 67.5q16 -18 29 -31q11 -11 20 -20.5t8 -9.5q-30 -23 -59.5 -51.5t-53.5 -53.5q39 -45 70 -72.5t50 -41.5z" />
    <glyph glyph-name="guilsinglright" unicode="&#x203a;" horiz-adv-x="271" 
d="M20 199q19 14 50 41.5t70 72.5q-24 25 -53.5 53.5t-59.5 51.5q-1 0 8 9.5t20 20.5q12 13 29 31q18 -24 58 -67.5t109 -96.5q-15 -15 -26 -24t-27.5 -24.5t-43.5 -43t-73 -80.5q0 -1 -10 7.5t-21 19.5q-13 12 -30 29z" />
    <glyph glyph-name="fraction" unicode="&#x2044;" horiz-adv-x="335" 
d="M315 704l-198 -704h-97l198 704h97z" />
    <glyph glyph-name="Euro" unicode="&#x20ac;" horiz-adv-x="700" 
d="M20 486h95q15 38 37.5 72t53 59.5t68 40.5t81.5 15q59 0 106.5 -21t80.5 -64q1 2 4.5 11.5t7.5 20.5t7.5 20.5t4.5 12.5h113v-273h-137q-2 34 -10.5 65.5t-23 56t-35.5 39t-49 14.5q-36 0 -59.5 -20t-37.5 -49h47v-97h-73q-2 -14 -2 -26.5v-23.5v-3h75v-97h-61
q11 -37 36 -62.5t70 -25.5q33 0 56.5 15t38.5 38t22 51.5t7 55.5q0 4 -0.5 7t-0.5 5h137q1 -9 1 -13v-12q0 -62 -24 -110.5t-64.5 -81.5t-94 -50t-111.5 -17q-52 0 -96 15t-79.5 41.5t-61.5 63t-41 80.5h-88v97h70v19v16.5t1 17.5h-71v97z" />
    <glyph glyph-name="trademark" unicode="&#x2122;" horiz-adv-x="906" 
d="M85 449h60v189h-51v-82h-74v144h351v-144h-77v81h-50v-188h63v-65h-222v65zM649 595l37 105h200v-62h-59v-189h57v-64h-202v64h42v188l-83 -252h-30l-81 252v-188h40v-64h-172v64h57v189h-57v62h215z" />
    <glyph glyph-name="minus" unicode="&#x2212;" horiz-adv-x="394" 
d="M20 406h354v-97h-354v97z" />
    <glyph glyph-name="approxequal" unicode="&#x2248;" horiz-adv-x="345" 
d="M20 415q17 16 33 22t33 6q18 0 36.5 -6t37 -12.5t38 -12.5t40.5 -6q20 0 40.5 7t43.5 25q2 1 2.5 -13.5t0.5 -31.5q0 -16 -1 -29.5t-4 -15.5q-19 -14 -37 -19.5t-36 -5.5q-21 0 -41.5 6t-40.5 13t-39.5 13t-38.5 6q-16 0 -31.5 -6t-31.5 -20q-1 -1 -1.5 11.5t-1.5 27.5
q-1 18 -1 41zM20 265q17 16 33 22t33 6q18 0 36.5 -6t37 -12.5t38 -12.5t40.5 -6q20 0 40.5 7t43.5 25q2 1 2.5 -13.5t0.5 -31.5q0 -16 -1 -29.5t-4 -15.5q-19 -14 -37 -19.5t-36 -5.5q-21 0 -41.5 6t-40.5 13t-39.5 13t-38.5 6q-16 0 -31.5 -6t-31.5 -20q-1 -1 -1.5 11.5
t-1.5 27.5q-1 18 -1 41z" />
    <glyph glyph-name="notequal" unicode="&#x2260;" horiz-adv-x="394" 
d="M345 574l-42 -88h71v-97h-118l-25 -53h143v-97h-190l-47 -99h-97l47 99h-67v97h114l25 53h-139v97h186l42 88h97z" />
    </font>
</defs>
</svg>
