<?xml version="1.0" standalone="no"?>
<!DOCTYPE svg PUBLIC "-//W3C//DTD SVG 1.1//EN" "http://www.w3.org/Graphics/SVG/1.1/DTD/svg11.dtd" >
<svg xmlns="http://www.w3.org/2000/svg" xmlns:xlink="http://www.w3.org/1999/xlink" version="1.1">
<metadata>
Created by FontForge 20200427 at Fri Nov  7 20:02:31 2014
 By www
Copyright (c) 2014 by Yellow Design Studio. All rights reserved.
</metadata>
<defs>
<font id="LuloCleanW01-OneBold" horiz-adv-x="1059" >
  <font-face 
    font-family="LuloCleanW01-OneBold"
    font-weight="700"
    font-stretch="normal"
    units-per-em="1000"
    panose-1="2 1 8 4 2 2 0 0 0 3"
    ascent="800"
    descent="-200"
    x-height="780"
    cap-height="780"
    bbox="-69 -305 1520 1119"
    underline-thickness="50"
    underline-position="-175"
    unicode-range="U+0020-2122"
  />
<missing-glyph horiz-adv-x="305" 
 />
    <glyph glyph-name=".notdef" horiz-adv-x="305" 
 />
    <glyph glyph-name=".null" horiz-adv-x="0" 
 />
    <glyph glyph-name="nonmarkingreturn" horiz-adv-x="333" 
 />
    <glyph glyph-name="space" unicode=" " horiz-adv-x="511" 
 />
    <glyph glyph-name="exclam" unicode="!" horiz-adv-x="553" 
d="M273 780l-45 -496h-133l-45 496h223zM35 109q0 26 10 49t27 40t40 27t49 10t49 -10t40 -27t27 -40t10 -49t-10 -49t-27 -40t-40 -27t-49 -10t-49 10t-40 27t-27 40t-10 49z" />
    <glyph glyph-name="quotedbl" unicode="&#x22;" horiz-adv-x="747" 
d="M75 432l-30 348h194l-30 -348h-134zM308 432l-30 348h194l-30 -348h-134z" />
    <glyph glyph-name="numbersign" unicode="#" horiz-adv-x="1016" 
d="M88 618h128l29 162h165l-29 -162h102l29 162h165l-29 -162h99v-172h-129l-19 -113h99v-171h-129l-28 -162h-165l28 162h-102l-28 -162h-165l28 162h-98v171h128l19 113h-98v172zM332 333h102l19 113h-102z" />
    <glyph glyph-name="dollar" unicode="$" horiz-adv-x="831" 
d="M234 281v-1q0 -10 3.5 -20.5t12 -19.5t22.5 -15t35 -6q16 0 25.5 3t14.5 7.5t6.5 9.5t1.5 8q0 4 -2.5 8.5t-11 11t-24.5 15.5t-43 21q-31 15 -71 34t-75 45.5t-59.5 62.5t-24.5 85q0 66 45.5 113.5t120.5 66.5v95h178v-97q74 -21 120 -73.5t46 -129.5v-6h-195v1
q0 10 -3 20.5t-10.5 19.5t-20 15t-31.5 6q-15 0 -23.5 -3.5t-13 -8t-5.5 -9t-1 -6.5q0 -8 14 -21t61 -32q24 -9 63.5 -26t78 -44t66.5 -66t28 -93q0 -35 -12.5 -65t-35.5 -53.5t-55 -40t-71 -25.5v-93h-178v97q-77 21 -124 73t-47 130v6h195z" />
    <glyph glyph-name="percent" unicode="%" horiz-adv-x="1321" 
d="M35 576q0 45 17 85t47 70t70 47t85 17t85 -17t69.5 -47t47 -70t17.5 -85t-17.5 -85t-47 -69.5t-69.5 -46.5t-85 -17t-85 17t-70 46.5t-47 69.5t-17 85zM202 576q0 -22 15 -37t37 -15t37.5 15t15.5 37t-15.5 37.5t-37.5 15.5t-37 -15.5t-15 -37.5zM619 200q0 45 17 85
t47 70t70 47t85 17t85 -17t69.5 -47t47 -70t17.5 -85t-17.5 -85t-47 -69.5t-69.5 -46.5t-85 -17t-85 17t-70 46.5t-47 69.5t-17 85zM786 200q0 -22 15 -37t37 -15t37.5 15t15.5 37t-15.5 37.5t-37.5 15.5t-37 -15.5t-15 -37.5zM158 0l562 780h217l-562 -780h-217z" />
    <glyph glyph-name="ampersand" unicode="&#x26;" horiz-adv-x="1049" 
d="M570 0l-49 53q-79 -43 -137 -55.5t-100 -12.5q-64 0 -112.5 18.5t-81.5 49t-49.5 70.5t-16.5 82q0 38 13 68.5t35 55.5t51.5 46t63.5 40q-26 35 -43.5 75t-17.5 85q0 46 19 86t51.5 70t76 47t91.5 17t90.5 -16.5t74.5 -45t50.5 -67t18.5 -81.5q0 -35 -11.5 -63.5t-31 -52
t-44 -42.5t-49.5 -34l84 -91q36 29 66.5 56.5t50.5 47.5l141 -135q-34 -33 -65.5 -61t-60.5 -51l147 -159h-255zM288 168q22 0 47 7.5t52 20.5l-98 106q-35 -22 -50.5 -42t-15.5 -40q0 -23 17 -37.5t48 -14.5zM312 577q0 -15 10 -31t32 -39q35 21 51 38.5t16 35.5
q0 20 -17 33t-37 13q-23 0 -39 -15t-16 -35z" />
    <glyph glyph-name="quotesingle" unicode="'" horiz-adv-x="514" 
d="M75 432l-30 348h194l-30 -348h-134z" />
    <glyph glyph-name="parenleft" unicode="(" horiz-adv-x="664" 
d="M423 853q-39 -30 -74.5 -75.5t-62.5 -104t-43 -130t-16 -153.5t16 -153t43 -129.5t62.5 -104t74.5 -76.5l-123 -152q-53 43 -103 104.5t-88.5 139.5t-61.5 171t-23 200t23 200.5t61.5 171t88.5 139t103 105.5z" />
    <glyph glyph-name="parenright" unicode=")" horiz-adv-x="664" 
d="M11 -72q39 30 74.5 75.5t62.5 104t43 129.5t16 154q0 82 -16 153t-43 129.5t-62.5 104t-74.5 76.5l123 152q53 -44 103 -105t88.5 -139t61.5 -171t23 -200t-23 -200.5t-61.5 -171t-88.5 -139t-103 -105.5z" />
    <glyph glyph-name="asterisk" unicode="*" horiz-adv-x="769" 
d="M344 665l99 56l60 -185l-115 -11l83 -75l-157 -114l-47 106l-46 -104l-156 115l87 78l-115 12l61 184l100 -59l-23 112h194z" />
    <glyph glyph-name="plus" unicode="+" horiz-adv-x="778" 
d="M365 596v-140h142v-181h-142v-141h-182v141h-142v181h142v140h182z" />
    <glyph glyph-name="comma" unicode="," horiz-adv-x="553" 
d="M25 -101q23 24 44 51.5t30 44.5q-4 4 -14.5 13t-21.5 22.5t-19.5 33t-8.5 45.5t10 49t27 40t40 27t49 10q25 0 47.5 -9.5t39.5 -27t27.5 -42.5t10.5 -57q0 -61 -49 -129.5t-134 -146.5z" />
    <glyph glyph-name="hyphen" unicode="-" horiz-adv-x="647" 
d="M360 232h-303v187h303v-187z" />
    <glyph glyph-name="period" unicode="." horiz-adv-x="550" 
d="M34 109q0 26 10 49t27 40t40 27t49 10t49 -10t40 -27t27 -40t10 -49t-10 -49t-27 -40t-40 -27t-49 -10t-49 10t-40 27t-27 40t-10 49z" />
    <glyph glyph-name="slash" unicode="/" horiz-adv-x="1069" 
d="M817 958l-581 -1136h-214l579 1136h216z" />
    <glyph glyph-name="zero" unicode="0" horiz-adv-x="951" 
d="M31 390q0 78 20.5 151t62 129.5t103 90.5t142.5 34t143 -34t104 -90.5t63 -129.5t21 -151t-21 -151.5t-63 -129.5t-104 -90t-143 -34t-142.5 34t-103 90t-62 129.5t-20.5 151.5zM230 390q0 -100 36.5 -156t92.5 -56q28 0 52 14.5t41.5 42t27.5 66.5t10 89
q0 100 -37.5 155.5t-93.5 55.5t-92.5 -55.5t-36.5 -155.5z" />
    <glyph glyph-name="one" unicode="1" horiz-adv-x="623" 
d="M31 721l171 59h134v-780h-199v550l-106 -37v208z" />
    <glyph glyph-name="two" unicode="2" horiz-adv-x="878" 
d="M601 0h-565v151l276 255q24 22 41.5 39.5t28.5 32t16.5 28.5t5.5 29q0 29 -20 47.5t-55 18.5q-38 0 -63 -22.5t-25 -65.5v-23h-195v23q0 72 26 125.5t67 88t92 51.5t101 17q55 0 104.5 -18t87 -51.5t60 -81.5t22.5 -109q0 -50 -16 -90.5t-40 -74t-52.5 -61t-52.5 -50.5
l-66 -60h222v-199z" />
    <glyph glyph-name="three" unicode="3" horiz-adv-x="856" 
d="M128 226q51 -27 90.5 -37.5t71.5 -10.5q49 0 73.5 17t24.5 46q0 15 -9 28.5t-31 23t-58 15.5t-90 6v162q54 0 87.5 7t53 18.5t26.5 25t7 26.5q0 21 -18 40t-55 19q-11 0 -24 -2.5t-24.5 -8.5t-19 -17.5t-7.5 -29.5v-4h-189v20q0 54 23 96t60 70.5t84.5 43.5t97.5 15
q51 0 100 -15t86.5 -43t60.5 -68t23 -91q0 -50 -22.5 -96t-73.5 -81q57 -29 87.5 -74t30.5 -103q0 -56 -24 -100t-64.5 -75t-94.5 -47.5t-114 -16.5q-65 0 -135.5 18.5t-141.5 58.5z" />
    <glyph glyph-name="four" unicode="4" horiz-adv-x="898" 
d="M372 0v134h-356v155l274 491h222l-260 -459h120v147h193v-147h76v-187h-76v-134h-193z" />
    <glyph glyph-name="five" unicode="5" horiz-adv-x="882" 
d="M568 579h-291l-9 -76q23 11 45.5 14t54.5 3q55 0 101.5 -20t80.5 -54.5t53 -81.5t19 -102q0 -60 -23 -111t-63.5 -87.5t-96 -57.5t-119.5 -21q-53 0 -98.5 13.5t-84 37t-68.5 54.5t-52 66l170 99q28 -37 60.5 -56t71.5 -19q47 0 73.5 24t26.5 59q0 13 -4 27t-13 26
t-24.5 19.5t-37.5 7.5q-28 0 -56.5 -13t-60.5 -45l-169 78l75 417h439v-201z" />
    <glyph glyph-name="six" unicode="6" horiz-adv-x="880" 
d="M530 780l-159 -240q53 -2 99 -20.5t79.5 -52t53 -80t19.5 -103.5q0 -63 -23 -117.5t-63 -95t-94 -63.5t-115 -23q-63 0 -118 23.5t-95.5 63.5t-64 93.5t-23.5 113.5q0 49 15 92.5t50 98.5l198 310h241zM242 345q-21 -28 -21 -58q0 -48 30 -77.5t74 -29.5q21 0 40 8
t32.5 22t21.5 33t8 41q0 21 -8 39.5t-22 32.5t-32.5 22t-40.5 8q-26 0 -45.5 -11t-36.5 -30z" />
    <glyph glyph-name="seven" unicode="7" horiz-adv-x="812" 
d="M32 780h533v-161l-305 -619h-226l303 580h-305v200z" />
    <glyph glyph-name="eight" unicode="8" horiz-adv-x="908" 
d="M30 231q0 64 27.5 109t75.5 73q-34 26 -53 63.5t-19 89.5t22.5 94.5t60.5 72.5t89 46t107 16q55 0 105.5 -16t88.5 -46t61 -72.5t23 -94.5t-20 -89.5t-54 -63.5q48 -28 76 -73t28 -109q0 -56 -25 -101t-67.5 -77.5t-98.5 -50t-117 -17.5q-63 0 -119.5 17.5t-98.5 50
t-67 77.5t-25 101zM234 248q0 -33 27.5 -60.5t78.5 -27.5q25 0 44 7.5t32.5 20t20.5 28t7 32.5q0 16 -7 32t-20.5 28.5t-32.5 20t-44 7.5q-51 0 -78.5 -27t-27.5 -61zM259 557q0 -28 20 -51t61 -23q40 0 60 23t20 51q0 26 -20 48t-60 22q-41 0 -61 -22t-20 -48z" />
    <glyph glyph-name="nine" unicode="9" horiz-adv-x="880" 
d="M120 0l159 240q-53 2 -99 20.5t-79.5 52t-53 80t-19.5 103.5q0 63 23 117.5t63 95t94 63.5t115 23q63 0 118 -23.5t95.5 -63.5t64 -93.5t23.5 -113.5q0 -49 -15 -92.5t-50 -98.5l-198 -310h-241zM408 435q21 28 21 58q0 48 -30 77.5t-74 29.5q-21 0 -40 -8t-32.5 -22
t-21.5 -33t-8 -41q0 -21 8 -39.5t22 -32.5t32.5 -22t40.5 -8q26 0 45.5 11t36.5 30z" />
    <glyph glyph-name="colon" unicode=":" horiz-adv-x="580" 
d="M49 109q0 26 10 49t27 40t40 27t49 10t49 -10t40 -27t27 -40t10 -49t-10 -49t-27 -40t-40 -27t-49 -10t-49 10t-40 27t-27 40t-10 49zM49 443q0 26 10 49t27 40t40 27t49 10t49 -10t40 -27t27 -40t10 -49t-10 -49t-27 -40t-40 -27t-49 -10t-49 10t-40 27t-27 40t-10 49z
" />
    <glyph glyph-name="semicolon" unicode=";" horiz-adv-x="581" 
d="M40 -101q23 24 44 51.5t30 44.5q-4 4 -14.5 13t-21.5 22.5t-19.5 33t-8.5 45.5t10 49t27 40t40 27t49 10q25 0 47.5 -9.5t39.5 -27t27.5 -42.5t10.5 -57q0 -61 -49 -129.5t-134 -146.5zM48 443q0 26 10 49t27 40t40 27t49 10t49 -10t40 -27t27 -40t10 -49t-10 -49
t-27 -40t-40 -27t-49 -10t-49 10t-40 27t-27 40t-10 49z" />
    <glyph glyph-name="less" unicode="&#x3c;" horiz-adv-x="815" 
d="M37 452l483 227v-212l-248 -101l248 -102v-211l-483 226v173z" />
    <glyph glyph-name="equal" unicode="=" horiz-adv-x="810" 
d="M57 570h466v-182h-466v182zM57 344h466v-181h-466v181z" />
    <glyph glyph-name="greater" unicode="&#x3e;" horiz-adv-x="815" 
d="M548 280l-483 -227v212l248 101l-248 102v211l483 -226v-173z" />
    <glyph glyph-name="question" unicode="?" horiz-adv-x="821" 
d="M184 277v32q0 36 11 64.5t28 50.5t37.5 39t40.5 31q21 16 34.5 30.5t13.5 36.5q0 15 -11.5 31t-39.5 16q-26 0 -46.5 -18t-20.5 -61v-9h-195v33q0 61 24.5 106.5t63.5 75.5t87 45t95 15q48 0 92.5 -16t78.5 -46t54 -72.5t20 -95.5q0 -38 -10.5 -68t-27 -53.5t-36 -40.5
t-38.5 -30q-15 -11 -30 -21t-27 -20.5t-19.5 -23.5t-7.5 -29v-2h-171zM145 109q0 26 10 49t27 40t40 27t49 10t49 -10t40 -27t27 -40t10 -49t-10 -49t-27 -40t-40 -27t-49 -10t-49 10t-40 27t-27 40t-10 49z" />
    <glyph glyph-name="at" unicode="@" horiz-adv-x="1190" 
d="M276 373q0 45 18 84.5t48.5 69t71 47t84.5 17.5q40 0 74 -15t59 -40.5t39 -59.5t14 -73q0 -33 -10 -63t-27 -56q9 -10 20 -13t19 -3q34 0 59.5 36t25.5 103q0 56 -20 105.5t-55.5 86t-84 57.5t-105.5 21q-64 0 -121.5 -24.5t-100.5 -67t-68.5 -99.5t-25.5 -121
q0 -56 20 -104.5t55.5 -84.5t84 -56.5t105.5 -20.5q13 0 42 2t65 16l72 -121q-98 -43 -193 -43q-86 0 -159.5 31.5t-127.5 85.5t-85 127t-31 157q0 97 39 183.5t105 151t153 102t184 37.5q86 0 159.5 -32t127.5 -87.5t85 -130.5t31 -160q0 -69 -20 -124t-53.5 -93t-76.5 -58
t-89 -20q-39 0 -79 16.5t-71 57.5q-33 -12 -71 -12q-40 0 -74 14.5t-59 40t-39 60t-14 73.5zM425 384q0 -22 13.5 -37t36.5 -15q25 0 43 17.5t18 42.5q0 22 -14.5 37t-37.5 15q-25 0 -42 -17.5t-17 -42.5z" />
    <glyph glyph-name="A" unicode="A" 
d="M514 780l315 -780h-218l-43 114h-307l-43 -114h-218l316 780h198zM415 524l-86 -229h171z" />
    <glyph glyph-name="B" unicode="B" horiz-adv-x="992" 
d="M60 780h388q63 0 110.5 -16t79 -45t47.5 -68.5t16 -85.5q0 -60 -25.5 -100t-69.5 -64q60 -23 95 -67.5t35 -113.5q0 -48 -17.5 -88.5t-50.5 -70t-80 -45.5t-106 -16h-422v780zM260 318v-137h200q41 0 57.5 19.5t16.5 50.5q0 30 -16.5 48.5t-57.5 18.5h-200zM260 598v-124
h165q41 0 57.5 17t16.5 45t-15.5 45t-47.5 17h-176z" />
    <glyph glyph-name="C" unicode="C" horiz-adv-x="1047" 
d="M807 209q-26 -50 -64 -91t-86 -70.5t-104 -46t-116 -16.5q-84 0 -159.5 32t-132 87t-89.5 128.5t-33 157.5t33 157.5t89.5 128.5t132 87t159.5 32q60 0 115.5 -16.5t103.5 -45.5t86 -70t64 -90l-182 -82q-26 50 -75.5 80.5t-111.5 30.5q-44 0 -82.5 -16.5t-67.5 -45
t-45.5 -67.5t-16.5 -83t16.5 -83t45.5 -67.5t67.5 -45t82.5 -16.5q63 0 112 30.5t75 80.5z" />
    <glyph glyph-name="D" unicode="D" horiz-adv-x="1048" 
d="M60 780h362q91 0 160.5 -31t115.5 -84.5t69.5 -124.5t23.5 -150q0 -80 -23.5 -151t-69.5 -124t-115.5 -84t-160.5 -31h-362v780zM260 586v-393h147q45 0 79 14.5t57 40.5t34.5 62t11.5 80q0 88 -46 142t-136 54h-147z" />
    <glyph glyph-name="E" unicode="E" horiz-adv-x="926" 
d="M60 780h599v-194h-399v-112h328v-181h-328v-100h399v-193h-599v780z" />
    <glyph glyph-name="F" unicode="F" horiz-adv-x="895" 
d="M60 780h579v-194h-380v-138h319v-181h-319v-267h-199v780z" />
    <glyph glyph-name="G" unicode="G" horiz-adv-x="1062" 
d="M415 455h376v-455h-157v73q-29 -44 -83 -66t-114 -22q-85 0 -160 32t-131.5 87t-89.5 128.5t-33 157.5t33 157.5t89.5 128.5t131.5 87t160 32q101 0 187 -44.5t143 -118.5l-163 -110q-29 37 -72.5 58.5t-94.5 21.5q-44 0 -83 -16.5t-67.5 -45t-45 -67.5t-16.5 -83
t16.5 -83t45 -67.5t67.5 -45t83 -16.5q53 0 96 24t71 65v22h-189v166z" />
    <glyph glyph-name="H" unicode="H" horiz-adv-x="1067" 
d="M777 780v-780h-200v290h-318v-290h-199v780h199v-303h318v303h200z" />
    <glyph glyph-name="I" unicode="I" horiz-adv-x="550" 
d="M260 780v-780h-200v780h200z" />
    <glyph glyph-name="J" unicode="J" horiz-adv-x="895" 
d="M612 780v-491q0 -78 -23.5 -135.5t-64 -95t-94.5 -55.5t-115 -18q-59 0 -113 18t-95 55.5t-66 95t-25 135.5v68h200v-65q0 -35 8 -57t22 -35t31.5 -17.5t37.5 -4.5q22 0 40 4.5t31 17.5t20 35t7 57v488h199z" />
    <glyph glyph-name="K" unicode="K" horiz-adv-x="998" 
d="M60 780h200v-269l242 269h258l-308 -335l324 -445h-248l-215 294l-53 -59v-235h-200v780z" />
    <glyph glyph-name="L" unicode="L" horiz-adv-x="876" 
d="M60 780h199v-587h374v-193h-573v780z" />
    <glyph glyph-name="M" unicode="M" horiz-adv-x="1203" 
d="M60 0v780h201l225 -493l226 493h201v-780h-199v367l-162 -337h-131l-162 337v-367h-199z" />
    <glyph glyph-name="N" unicode="N" horiz-adv-x="1067" 
d="M60 0v780h170l348 -436v436h199v-780h-169l-348 435v-435h-200z" />
    <glyph glyph-name="O" unicode="O" horiz-adv-x="1104" 
d="M23 390q0 84 33 157.5t89.5 128.5t132 87t159.5 32q85 0 160.5 -32t132 -87t89 -128.5t32.5 -157.5t-32.5 -157.5t-89 -128.5t-132 -87t-160.5 -32q-84 0 -159.5 32t-132 87t-89.5 128.5t-33 157.5zM225 390q0 -44 16.5 -83t45.5 -67.5t67.5 -45t82.5 -16.5
q45 0 83.5 16.5t67 45t45 67.5t16.5 83t-16.5 83t-45 67.5t-67 45t-83.5 16.5q-44 0 -82.5 -16.5t-67.5 -45t-45.5 -67.5t-16.5 -83z" />
    <glyph glyph-name="P" unicode="P" horiz-adv-x="957" 
d="M60 780h344q78 0 135.5 -24.5t95.5 -66t56.5 -95.5t18.5 -113q0 -62 -18.5 -117t-56.5 -96.5t-95.5 -66t-135.5 -24.5h-144v-177h-200v780zM260 598v-239h133q63 0 89 34.5t26 86.5q0 23 -6 44.5t-20 38t-36 26t-53 9.5h-133z" />
    <glyph glyph-name="Q" unicode="Q" horiz-adv-x="1105" 
d="M23 390q0 84 33 157.5t89.5 128.5t132 87t159.5 32q85 0 160.5 -32t132 -87t89 -128.5t32.5 -157.5q0 -56 -14.5 -107t-41 -96t-64 -81.5t-82.5 -63.5q27 -19 51.5 -31t50.5 -12q4 0 12 1t18 4.5t20 10.5t18 19l151 -122q-21 -29 -47.5 -49t-55.5 -33t-58.5 -18.5
t-56.5 -5.5q-59 0 -107 22.5t-92.5 53t-88.5 61.5t-95 48q-73 12 -136 47.5t-109.5 88.5t-73.5 120.5t-27 142.5zM225 390q0 -44 16.5 -83t45.5 -67.5t67.5 -45t82.5 -16.5q45 0 83.5 16.5t67 45t45 67.5t16.5 83t-16.5 83t-45 67.5t-67 45t-83.5 16.5q-44 0 -82.5 -16.5
t-67.5 -45t-45.5 -67.5t-16.5 -83z" />
    <glyph glyph-name="R" unicode="R" horiz-adv-x="996" 
d="M441 780q75 0 130 -22.5t91 -61.5t53.5 -91t17.5 -110q0 -41 -9.5 -80t-28.5 -72.5t-48 -61t-68 -45.5l169 -236h-239l-148 209h-102v-209h-199v780h381zM259 598v-208h171q30 0 51 8.5t34 22.5t19 33t6 39q0 45 -25 75t-85 30h-171z" />
    <glyph glyph-name="S" unicode="S" horiz-adv-x="929" 
d="M224 234v-5q0 -11 8 -23.5t24 -23t41 -17.5t59 -7q56 0 77.5 15.5t21.5 32.5q0 25 -31 43t-102 42q-47 15 -97.5 35.5t-92.5 50.5t-69.5 73t-27.5 103q0 56 22.5 100.5t63 76t96.5 48.5t123 17q68 0 126.5 -17.5t101 -50.5t67 -79.5t24.5 -104.5v-11h-195v7q0 14 -7.5 29
t-22.5 27t-37.5 19.5t-52.5 7.5q-51 0 -73 -16.5t-22 -36.5q0 -23 29.5 -39t99.5 -40q40 -14 91 -34.5t95.5 -52t75 -77t30.5 -109.5q0 -57 -23.5 -100.5t-65 -72.5t-98 -44t-123.5 -15q-70 0 -130.5 16t-105 46.5t-70 75.5t-25.5 102v9h195z" />
    <glyph glyph-name="T" unicode="T" horiz-adv-x="940" 
d="M12 780h686v-194h-243v-586h-200v586h-243v194z" />
    <glyph glyph-name="U" unicode="U" horiz-adv-x="1045" 
d="M766 780v-439q0 -75 -23.5 -140t-69 -113t-112.5 -75.5t-154 -27.5q-88 0 -155 27.5t-112 75.5t-68 113t-23 140v439h200v-427q0 -85 40 -130t118 -45q79 0 119.5 45t40.5 130v427h199z" />
    <glyph glyph-name="V" unicode="V" 
d="M315 0l-315 780h218l196 -524l197 524h218l-316 -780h-198z" />
    <glyph glyph-name="W" unicode="W" horiz-adv-x="1377" 
d="M218 0l-219 780h213l126 -465l146 465h178l146 -464l126 464h214l-219 -780h-207l-149 453l-148 -453h-207z" />
    <glyph glyph-name="X" unicode="X" horiz-adv-x="998" 
d="M766 780l-262 -388l268 -392h-243l-145 214l-144 -214h-243l268 392l-262 388h236l145 -213l146 213h236z" />
    <glyph glyph-name="Y" unicode="Y" horiz-adv-x="1046" 
d="M407 497l173 283h236l-309 -494v-286h-199v286l-308 494h235z" />
    <glyph glyph-name="Z" unicode="Z" horiz-adv-x="959" 
d="M43 780h649v-146l-364 -441h365v-193h-662v146l363 440h-351v194z" />
    <glyph glyph-name="bracketleft" unicode="[" horiz-adv-x="625" 
d="M361 -217h-303v1215h303v-188h-104v-840h104v-187z" />
    <glyph glyph-name="backslash" unicode="\" horiz-adv-x="1068" 
d="M237 958l579 -1136h-214l-581 1136h216z" />
    <glyph glyph-name="bracketright" unicode="]" horiz-adv-x="625" 
d="M34 997h303v-1215h-303v188h104v840h-104v187z" />
    <glyph glyph-name="asciicircum" unicode="^" horiz-adv-x="928" 
d="M435 780l227 -463h-212l-101 227l-102 -227h-211l226 463h173z" />
    <glyph glyph-name="underscore" unicode="_" horiz-adv-x="937" 
d="M659 -194h-611v172h611v-172z" />
    <glyph glyph-name="grave" unicode="`" horiz-adv-x="587" 
d="M290 818l-290 133l97 168l260 -185z" />
    <glyph glyph-name="a" unicode="a" 
d="M514 780l315 -780h-218l-43 114h-307l-43 -114h-218l316 780h198zM415 524l-86 -229h171z" />
    <glyph glyph-name="b" unicode="b" horiz-adv-x="992" 
d="M60 780h388q63 0 110.5 -16t79 -45t47.5 -68.5t16 -85.5q0 -60 -25.5 -100t-69.5 -64q60 -23 95 -67.5t35 -113.5q0 -48 -17.5 -88.5t-50.5 -70t-80 -45.5t-106 -16h-422v780zM260 318v-137h200q41 0 57.5 19.5t16.5 50.5q0 30 -16.5 48.5t-57.5 18.5h-200zM260 598v-124
h165q41 0 57.5 17t16.5 45t-15.5 45t-47.5 17h-176z" />
    <glyph glyph-name="c" unicode="c" horiz-adv-x="1047" 
d="M807 209q-26 -50 -64 -91t-86 -70.5t-104 -46t-116 -16.5q-84 0 -159.5 32t-132 87t-89.5 128.5t-33 157.5t33 157.5t89.5 128.5t132 87t159.5 32q60 0 115.5 -16.5t103.5 -45.5t86 -70t64 -90l-182 -82q-26 50 -75.5 80.5t-111.5 30.5q-44 0 -82.5 -16.5t-67.5 -45
t-45.5 -67.5t-16.5 -83t16.5 -83t45.5 -67.5t67.5 -45t82.5 -16.5q63 0 112 30.5t75 80.5z" />
    <glyph glyph-name="d" unicode="d" horiz-adv-x="1048" 
d="M60 780h362q91 0 160.5 -31t115.5 -84.5t69.5 -124.5t23.5 -150q0 -80 -23.5 -151t-69.5 -124t-115.5 -84t-160.5 -31h-362v780zM260 586v-393h147q45 0 79 14.5t57 40.5t34.5 62t11.5 80q0 88 -46 142t-136 54h-147z" />
    <glyph glyph-name="e" unicode="e" horiz-adv-x="926" 
d="M60 780h599v-194h-399v-112h328v-181h-328v-100h399v-193h-599v780z" />
    <glyph glyph-name="f" unicode="f" horiz-adv-x="895" 
d="M60 780h579v-194h-380v-138h319v-181h-319v-267h-199v780z" />
    <glyph glyph-name="g" unicode="g" horiz-adv-x="1062" 
d="M415 455h376v-455h-157v73q-29 -44 -83 -66t-114 -22q-85 0 -160 32t-131.5 87t-89.5 128.5t-33 157.5t33 157.5t89.5 128.5t131.5 87t160 32q101 0 187 -44.5t143 -118.5l-163 -110q-29 37 -72.5 58.5t-94.5 21.5q-44 0 -83 -16.5t-67.5 -45t-45 -67.5t-16.5 -83
t16.5 -83t45 -67.5t67.5 -45t83 -16.5q53 0 96 24t71 65v22h-189v166z" />
    <glyph glyph-name="h" unicode="h" horiz-adv-x="1067" 
d="M777 780v-780h-200v290h-318v-290h-199v780h199v-303h318v303h200z" />
    <glyph glyph-name="i" unicode="i" horiz-adv-x="550" 
d="M260 780v-780h-200v780h200z" />
    <glyph glyph-name="j" unicode="j" horiz-adv-x="895" 
d="M612 780v-491q0 -78 -23.5 -135.5t-64 -95t-94.5 -55.5t-115 -18q-59 0 -113 18t-95 55.5t-66 95t-25 135.5v68h200v-65q0 -35 8 -57t22 -35t31.5 -17.5t37.5 -4.5q22 0 40 4.5t31 17.5t20 35t7 57v488h199z" />
    <glyph glyph-name="k" unicode="k" horiz-adv-x="998" 
d="M60 780h200v-269l242 269h258l-308 -335l324 -445h-248l-215 294l-53 -59v-235h-200v780z" />
    <glyph glyph-name="l" unicode="l" horiz-adv-x="876" 
d="M60 780h199v-587h374v-193h-573v780z" />
    <glyph glyph-name="m" unicode="m" horiz-adv-x="1203" 
d="M60 0v780h201l225 -493l226 493h201v-780h-199v367l-162 -337h-131l-162 337v-367h-199z" />
    <glyph glyph-name="n" unicode="n" horiz-adv-x="1067" 
d="M60 0v780h170l348 -436v436h199v-780h-169l-348 435v-435h-200z" />
    <glyph glyph-name="o" unicode="o" horiz-adv-x="1104" 
d="M23 390q0 84 33 157.5t89.5 128.5t132 87t159.5 32q85 0 160.5 -32t132 -87t89 -128.5t32.5 -157.5t-32.5 -157.5t-89 -128.5t-132 -87t-160.5 -32q-84 0 -159.5 32t-132 87t-89.5 128.5t-33 157.5zM225 390q0 -44 16.5 -83t45.5 -67.5t67.5 -45t82.5 -16.5
q45 0 83.5 16.5t67 45t45 67.5t16.5 83t-16.5 83t-45 67.5t-67 45t-83.5 16.5q-44 0 -82.5 -16.5t-67.5 -45t-45.5 -67.5t-16.5 -83z" />
    <glyph glyph-name="p" unicode="p" horiz-adv-x="957" 
d="M60 780h344q78 0 135.5 -24.5t95.5 -66t56.5 -95.5t18.5 -113q0 -62 -18.5 -117t-56.5 -96.5t-95.5 -66t-135.5 -24.5h-144v-177h-200v780zM260 598v-239h133q63 0 89 34.5t26 86.5q0 23 -6 44.5t-20 38t-36 26t-53 9.5h-133z" />
    <glyph glyph-name="q" unicode="q" horiz-adv-x="1105" 
d="M23 390q0 84 33 157.5t89.5 128.5t132 87t159.5 32q85 0 160.5 -32t132 -87t89 -128.5t32.5 -157.5q0 -56 -14.5 -107t-41 -96t-64 -81.5t-82.5 -63.5q27 -19 51.5 -31t50.5 -12q4 0 12 1t18 4.5t20 10.5t18 19l151 -122q-21 -29 -47.5 -49t-55.5 -33t-58.5 -18.5
t-56.5 -5.5q-59 0 -107 22.5t-92.5 53t-88.5 61.5t-95 48q-73 12 -136 47.5t-109.5 88.5t-73.5 120.5t-27 142.5zM225 390q0 -44 16.5 -83t45.5 -67.5t67.5 -45t82.5 -16.5q45 0 83.5 16.5t67 45t45 67.5t16.5 83t-16.5 83t-45 67.5t-67 45t-83.5 16.5q-44 0 -82.5 -16.5
t-67.5 -45t-45.5 -67.5t-16.5 -83z" />
    <glyph glyph-name="r" unicode="r" horiz-adv-x="996" 
d="M441 780q75 0 130 -22.5t91 -61.5t53.5 -91t17.5 -110q0 -41 -9.5 -80t-28.5 -72.5t-48 -61t-68 -45.5l169 -236h-239l-148 209h-102v-209h-199v780h381zM259 598v-208h171q30 0 51 8.5t34 22.5t19 33t6 39q0 45 -25 75t-85 30h-171z" />
    <glyph glyph-name="s" unicode="s" horiz-adv-x="929" 
d="M224 234v-5q0 -11 8 -23.5t24 -23t41 -17.5t59 -7q56 0 77.5 15.5t21.5 32.5q0 25 -31 43t-102 42q-47 15 -97.5 35.5t-92.5 50.5t-69.5 73t-27.5 103q0 56 22.5 100.5t63 76t96.5 48.5t123 17q68 0 126.5 -17.5t101 -50.5t67 -79.5t24.5 -104.5v-11h-195v7q0 14 -7.5 29
t-22.5 27t-37.5 19.5t-52.5 7.5q-51 0 -73 -16.5t-22 -36.5q0 -23 29.5 -39t99.5 -40q40 -14 91 -34.5t95.5 -52t75 -77t30.5 -109.5q0 -57 -23.5 -100.5t-65 -72.5t-98 -44t-123.5 -15q-70 0 -130.5 16t-105 46.5t-70 75.5t-25.5 102v9h195z" />
    <glyph glyph-name="t" unicode="t" horiz-adv-x="940" 
d="M12 780h686v-194h-243v-586h-200v586h-243v194z" />
    <glyph glyph-name="u" unicode="u" horiz-adv-x="1045" 
d="M766 780v-439q0 -75 -23.5 -140t-69 -113t-112.5 -75.5t-154 -27.5q-88 0 -155 27.5t-112 75.5t-68 113t-23 140v439h200v-427q0 -85 40 -130t118 -45q79 0 119.5 45t40.5 130v427h199z" />
    <glyph glyph-name="v" unicode="v" 
d="M315 0l-315 780h218l196 -524l197 524h218l-316 -780h-198z" />
    <glyph glyph-name="w" unicode="w" horiz-adv-x="1377" 
d="M218 0l-219 780h213l126 -465l146 465h178l146 -464l126 464h214l-219 -780h-207l-149 453l-148 -453h-207z" />
    <glyph glyph-name="x" unicode="x" horiz-adv-x="998" 
d="M766 780l-262 -388l268 -392h-243l-145 214l-144 -214h-243l268 392l-262 388h236l145 -213l146 213h236z" />
    <glyph glyph-name="y" unicode="y" horiz-adv-x="1046" 
d="M407 497l173 283h236l-309 -494v-286h-199v286l-308 494h235z" />
    <glyph glyph-name="z" unicode="z" horiz-adv-x="959" 
d="M43 780h649v-146l-364 -441h365v-193h-662v146l363 440h-351v194z" />
    <glyph glyph-name="braceleft" unicode="{" horiz-adv-x="604" 
d="M53 472h19q23 0 32.5 12t9.5 29q0 19 -11.5 45t-26 57.5t-26 69t-11.5 79.5q0 48 17.5 90.5t50.5 74.5t80.5 50.5t107.5 18.5h38v-180h-38q-31 0 -52 -16.5t-21 -50.5q0 -24 13.5 -52.5t29.5 -60t29.5 -64t13.5 -64.5q0 -73 -55 -120q55 -46 55 -119q0 -32 -13.5 -65
t-29.5 -64.5t-29.5 -60t-13.5 -51.5q0 -35 21 -51t52 -16h38v-180h-38q-60 0 -107.5 18.5t-80.5 50t-50.5 74.5t-17.5 91q0 42 11.5 79.5t26 69t26 57.5t11.5 45q0 17 -9.5 29t-32.5 12h-19v163z" />
    <glyph glyph-name="bar" unicode="|" horiz-adv-x="537" 
d="M250 966v-1151h-193v1151h193z" />
    <glyph glyph-name="braceright" unicode="}" horiz-adv-x="604" 
d="M321 309h-19q-23 0 -32.5 -12t-9.5 -29q0 -19 11.5 -45t26 -57.5t26 -69t11.5 -79.5q0 -48 -17.5 -90.5t-50.5 -74.5t-80.5 -50.5t-107.5 -18.5h-38v180h38q31 0 52 16.5t21 50.5q0 24 -13.5 52.5t-29.5 60t-29.5 64t-13.5 64.5q0 73 55 120q-55 46 -55 119q0 32 13.5 65
t29.5 64.5t29.5 60t13.5 51.5q0 35 -21 51t-52 16h-38v180h38q60 0 107.5 -18.5t80.5 -50t50.5 -74.5t17.5 -91q0 -42 -11.5 -79.5t-26 -69t-26 -57.5t-11.5 -45q0 -17 9.5 -29t32.5 -12h19v-163z" />
    <glyph glyph-name="asciitilde" unicode="~" horiz-adv-x="748" 
d="M56 238q0 13 1.5 32.5t6 40.5t13 42.5t23.5 38.5t36.5 27.5t52.5 10.5q28 0 52 -9.5t51 -29.5q6 -5 12 -8.5t12 -3.5q8 0 10 7.5t1 24.5h133q0 -20 -3.5 -52t-17 -63.5t-40 -54t-72.5 -22.5q-28 0 -52 9.5t-51 29.5q-6 5 -12 8.5t-12 3.5q-8 0 -10 -7.5t-1 -24.5h-133z
" />
    <glyph glyph-name="uni00A0" unicode="&#xa0;" horiz-adv-x="511" 
 />
    <glyph glyph-name="exclamdown" unicode="&#xa1;" horiz-adv-x="553" 
d="M50 0l45 496h133l45 -496h-223zM288 671q0 -26 -10 -49t-27 -40t-40 -27t-49 -10t-49 10t-40 27t-27 40t-10 49t10 49t27 40t40 27t49 10t49 -10t40 -27t27 -40t10 -49z" />
    <glyph glyph-name="cent" unicode="&#xa2;" horiz-adv-x="841" 
d="M573 209q-25 -47 -66 -81.5t-92 -52.5v-100h-187v100q-42 14 -76.5 39.5t-60 59t-39.5 74.5t-14 86t14 85.5t39.5 74.5t60 59.5t76.5 39.5v100h187v-101q51 -17 91.5 -52t65.5 -81l-175 -78q-11 15 -29 24t-39 9q-35 0 -58.5 -23.5t-23.5 -57.5t23.5 -57t58.5 -23
q21 0 39.5 9t29.5 24z" />
    <glyph glyph-name="sterling" unicode="&#xa3;" horiz-adv-x="843" 
d="M44 142q27 12 44 25.5t26.5 27.5t13.5 29t5 31h-86v172h50q-8 26 -14 54t-6 63q0 61 20.5 107.5t55 78.5t80 48.5t96.5 16.5q45 0 88.5 -14t78 -42.5t55.5 -73.5t21 -106v-18h-194v6q0 17 -5.5 27.5t-13 16.5t-17 8t-16.5 2q-23 0 -39.5 -12.5t-16.5 -40.5
q0 -24 11 -53.5t23 -67.5h162v-172h-140q-2 -13 -3.5 -27t-6.5 -29h245v-199h-517v142z" />
    <glyph glyph-name="yen" unicode="&#xa5;" horiz-adv-x="1102" 
d="M710 125h-174v-125h-200v125h-174v151h174v11l-13 21h-161v151h66l-200 321h236l172 -283l173 283h235l-200 -321h66v-151h-160l-14 -23v-9h174v-151z" />
    <glyph glyph-name="brokenbar" unicode="&#xa6;" horiz-adv-x="537" 
d="M250 321v-506h-193v506h193zM250 966v-506h-193v506h193z" />
    <glyph glyph-name="section" unicode="&#xa7;" horiz-adv-x="807" 
d="M538 372q0 -31 -15 -64.5t-58 -59.5q17 -21 27 -46t10 -55q0 -41 -17 -71t-46 -50.5t-67.5 -30.5t-81.5 -10q-42 0 -81 10t-70 32t-51 56.5t-23 84.5l-1 15h186v-8q0 -2 0.5 -8t4 -12.5t11 -11.5t21.5 -5q17 0 22 8t5 14q0 10 -8.5 17.5t-25 15t-41.5 17t-58 24.5
q-23 11 -48.5 26.5t-46.5 36.5t-34.5 47.5t-13.5 61.5q0 32 15.5 65.5t57.5 58.5q-37 45 -37 101q0 41 17 72t46 51.5t67 30.5t79 10q43 0 83.5 -11.5t72 -34t51.5 -57.5t22 -81v-16h-186v9q0 3 -0.5 9t-4 12t-11 11t-21.5 5q-17 0 -22 -7.5t-5 -12.5q0 -12 11 -21t29.5 -17
t42.5 -17t50 -21q22 -11 47 -26t46.5 -36.5t35.5 -49t14 -61.5zM254 437q-7 -3 -12 -7q-11 -9 -11 -26q0 -13 8 -21.5t19.5 -15t25.5 -11t26 -9.5l12 -5q6 3 11 7t8.5 10t3.5 16q0 13 -8 21.5t-19.5 15t-25.5 11t-26 9.5z" />
    <glyph glyph-name="dieresis" unicode="&#xa8;" horiz-adv-x="675" 
d="M0 928q0 19 7.5 36.5t20.5 31t31 21t38 7.5t37.5 -7.5t30.5 -21t20.5 -31t7.5 -36.5q0 -20 -7.5 -38t-20.5 -31.5t-30.5 -21t-37.5 -7.5q-41 0 -69 28.5t-28 69.5zM252 928q0 19 7.5 36.5t20.5 31t31 21t38 7.5t37.5 -7.5t30.5 -21t20.5 -31t7.5 -36.5q0 -20 -7.5 -38
t-20.5 -31.5t-30.5 -21t-37.5 -7.5q-41 0 -69 28.5t-28 69.5z" />
    <glyph glyph-name="copyright" unicode="&#xa9;" horiz-adv-x="1118" 
d="M39 390q0 83 32 156.5t87 129t128.5 87.5t157.5 32q83 0 156.5 -32t129 -87.5t87.5 -129t32 -156.5q0 -84 -32 -157.5t-87.5 -128.5t-129 -87t-156.5 -32q-84 0 -157.5 32t-128.5 87t-87 128.5t-32 157.5zM186 390q0 -54 20 -101t55 -82t82 -55t101 -20t101 20.5
t82.5 55.5t56 82t20.5 100q0 54 -20.5 101t-56 82t-82.5 55.5t-101 20.5t-101 -20.5t-82 -55.5t-55 -82t-20 -101zM626 296q-26 -49 -73.5 -79t-106.5 -30q-42 0 -79 15.5t-64.5 43t-43 64.5t-15.5 79t15.5 79t43 64.5t64.5 43t79 15.5q58 0 105.5 -30.5t73.5 -78.5
l-137 -64q-15 23 -42 23q-22 0 -37.5 -15t-15.5 -37t15.5 -37t37.5 -15q14 0 24.5 6t18.5 16z" />
    <glyph glyph-name="ordfeminine" unicode="&#xaa;" horiz-adv-x="757" 
d="M325 384q-36 -21 -91 -21q-43 0 -80.5 16.5t-65.5 46t-44 68.5t-16 84t16 85t44 69t65.5 46t80.5 17q53 0 91 -22v12h142v-412h-142v11zM171 578q0 -32 21 -53.5t54 -21.5q34 0 55.5 21.5t21.5 53.5t-21.5 54.5t-55.5 22.5q-33 0 -54 -22.5t-21 -54.5z" />
    <glyph glyph-name="guillemotleft" unicode="&#xab;" horiz-adv-x="930" 
d="M48 443l283 251v-236l-104 -92l104 -93v-235l-283 250v155zM351 443l283 251v-236l-104 -92l104 -93v-235l-283 250v155z" />
    <glyph glyph-name="registered" unicode="&#xae;" horiz-adv-x="792" 
d="M38 552q0 50 19 94.5t52 77.5t77.5 52t94.5 19t94.5 -19t77.5 -52t52 -77.5t19 -94.5t-19 -94.5t-52 -77.5t-77.5 -52t-94.5 -19t-94.5 19t-77.5 52t-52 77.5t-19 94.5zM101 552q0 -38 14 -70.5t38.5 -57t57 -38.5t70.5 -14q37 0 70 14t57.5 38.5t38.5 57t14 70.5
q0 37 -14 70t-38.5 57.5t-57.5 38.5t-70 14q-38 0 -70.5 -14t-57 -38.5t-38.5 -57.5t-14 -70zM327 440l-38 67h-40v-67h-55v235h101q42 0 64.5 -25t22.5 -58q0 -23 -10.5 -43t-30.5 -31l46 -78h-60zM249 622v-62h43q17 0 25.5 10.5t8.5 21.5q0 12 -8.5 21t-25.5 9h-43z" />
    <glyph glyph-name="macron" unicode="&#xaf;" horiz-adv-x="588" 
d="M358 830h-358v148h358v-148z" />
    <glyph glyph-name="degree" unicode="&#xb0;" horiz-adv-x="674" 
d="M28 600q0 40 15 76t41.5 62t61.5 41.5t75 15.5t76 -15.5t62 -41.5t41.5 -62t15.5 -76t-15.5 -75t-41.5 -61.5t-62 -41.5t-76 -15t-75 15t-61.5 41.5t-41.5 61.5t-15 75zM160 600q0 -26 17.5 -43.5t43.5 -17.5t44.5 17.5t18.5 43.5t-18.5 44.5t-44.5 18.5t-43.5 -18.5
t-17.5 -44.5z" />
    <glyph glyph-name="plusminus" unicode="&#xb1;" horiz-adv-x="796" 
d="M374 689v-140h142v-181h-142v-141h-182v141h-142v181h142v140h182zM516 16h-465v181h465v-181z" />
    <glyph glyph-name="uni00B2" unicode="&#xb2;" horiz-adv-x="668" 
d="M407 273h-385v103l187 164q32 29 47 45t15 33t-12.5 27.5t-36.5 10.5q-26 0 -42 -13.5t-16 -37.5v-16h-135v16q0 47 17.5 82t45.5 58t62.5 34t69.5 11q37 0 71 -11.5t59.5 -34t40.5 -54.5t15 -72q0 -32 -11 -58.5t-27 -48t-35.5 -39.5t-35.5 -32l-34 -29h140v-138z" />
    <glyph glyph-name="uni00B3" unicode="&#xb3;" horiz-adv-x="654" 
d="M86 427q35 -17 61.5 -24t48.5 -7q65 0 65 36q0 16 -27 28.5t-100 12.5v112q36 0 58.5 4t35.5 10.5t17.5 14.5t4.5 15q0 11 -12 22.5t-35 11.5q-7 0 -15.5 -1t-16 -4.5t-12.5 -10t-5 -18.5v-2h-131v14q0 36 15.5 64t41 47t58 28.5t65.5 9.5q35 0 68.5 -10t59 -28.5t41 -45
t15.5 -59.5q0 -32 -14.5 -61.5t-46.5 -52.5q37 -19 57 -47.5t20 -65.5t-16.5 -66t-44 -49.5t-64.5 -31t-78 -10.5q-44 0 -92.5 12t-96.5 39z" />
    <glyph glyph-name="acute" unicode="&#xb4;" horiz-adv-x="587" 
d="M0 934l260 185l97 -168l-290 -133z" />
    <glyph glyph-name="paragraph" unicode="&#xb6;" horiz-adv-x="1069" 
d="M582 0v598h-40v-598h-193v229h-38q-57 0 -107 21.5t-87 59t-58.5 88t-21.5 107.5q0 56 21.5 106t58.5 87.5t87 59.5t107 22h464v-780h-193zM230 505q0 -41 22.5 -67.5t58.5 -26.5h38v187h-38q-36 0 -58.5 -25.5t-22.5 -67.5z" />
    <glyph glyph-name="periodcentered" unicode="&#xb7;" horiz-adv-x="550" 
d="M42 365q0 26 10 49t27 40t40 27t49 10t49 -10t40 -27t27 -40t10 -49t-10 -49t-27 -40t-40 -27t-49 -10t-49 10t-40 27t-27 40t-10 49z" />
    <glyph glyph-name="cedilla" unicode="&#xb8;" horiz-adv-x="553" 
d="M224 12l-11 -58q22 -7 37.5 -19t25.5 -27.5t14 -33t4 -35.5q0 -27 -9 -50.5t-26 -41t-42.5 -27.5t-59.5 -10q-26 0 -51 5t-45 11q-24 7 -46 16l52 120q17 -8 38 -16.5t44 -8.5q24 0 30.5 8.5t6.5 14.5q0 3 -1.5 8.5t-6 9.5t-12.5 5t-21 -3l-48 43l35 89h92z" />
    <glyph glyph-name="uni00B9" unicode="&#xb9;" horiz-adv-x="495" 
d="M18 742l116 38h93v-507h-138v348l-71 -24v145z" />
    <glyph glyph-name="ordmasculine" unicode="&#xba;" horiz-adv-x="721" 
d="M27 578q0 45 17 85t46 69t69 46t85 17q46 0 86 -17t70 -46t47 -69t17 -85t-17 -84t-47 -68.5t-70 -46t-86 -16.5q-45 0 -85 16.5t-69 46t-46 68.5t-17 84zM169 578q0 -32 21.5 -53.5t53.5 -21.5q34 0 56 21.5t22 53.5t-22 54.5t-56 22.5q-32 0 -53.5 -22.5t-21.5 -54.5z
" />
    <glyph glyph-name="guillemotright" unicode="&#xbb;" horiz-adv-x="930" 
d="M349 289l-283 -251v236l104 92l-104 93v235l283 -250v-155zM652 289l-283 -251v236l104 92l-104 93v235l283 -250v-155z" />
    <glyph glyph-name="onequarter" unicode="&#xbc;" horiz-adv-x="1202" 
d="M44 742l116 38h93v-507h-138v348l-71 -24v145zM752 0v85h-240v107l186 315h153l-172 -292h73v91h134v-91h51v-130h-51v-85h-134zM141 0l462 780h151l-462 -780h-151z" />
    <glyph glyph-name="onehalf" unicode="&#xbd;" horiz-adv-x="1242" 
d="M39 742l116 38h93v-507h-138v348l-71 -24v145zM969 0h-385v103l187 164q32 29 47 45t15 33t-12.5 27.5t-36.5 10.5q-26 0 -42 -13.5t-16 -37.5v-16h-135v16q0 47 17.5 82t45.5 58t62.5 34t69.5 11q37 0 71 -11.5t59.5 -34t40.5 -54.5t15 -72q0 -32 -11 -58.5t-27 -48
t-35.5 -39.5t-35.5 -32l-34 -29h140v-138zM136 0l462 780h151l-462 -780h-151z" />
    <glyph glyph-name="threequarters" unicode="&#xbe;" horiz-adv-x="1318" 
d="M868 0v85h-240v107l186 315h153l-172 -292h73v91h134v-91h51v-130h-51v-85h-134zM257 0l462 780h151l-462 -780h-151zM112 427q35 -17 61.5 -24t48.5 -7q65 0 65 36q0 16 -27 28.5t-100 12.5v112q36 0 58.5 4t35.5 10.5t17.5 14.5t4.5 15q0 11 -12 22.5t-35 11.5
q-7 0 -15.5 -1t-16 -4.5t-12.5 -10t-5 -18.5v-2h-131v14q0 36 15.5 64t41 47t58 28.5t65.5 9.5q35 0 68.5 -10t59 -28.5t41 -45t15.5 -59.5q0 -32 -14.5 -61.5t-46.5 -52.5q37 -19 57 -47.5t20 -65.5t-16.5 -66t-44 -49.5t-64.5 -31t-78 -10.5q-44 0 -92.5 12t-96.5 39z" />
    <glyph glyph-name="questiondown" unicode="&#xbf;" horiz-adv-x="821" 
d="M407 503v-32q0 -36 -11 -64.5t-28 -50.5t-38 -39t-40 -31q-21 -16 -34.5 -30.5t-13.5 -36.5q0 -15 11.5 -31t39.5 -16q26 0 46.5 18t20.5 61v9h195v-33q0 -61 -24.5 -106.5t-63.5 -75.5t-87 -45t-95 -15q-48 0 -92.5 16t-78.5 46t-54 72.5t-20 95.5q0 38 10.5 68t27 53.5
t36 40.5t38.5 30q15 11 30 21t27 20.5t19.5 23t7.5 29.5v2h171zM446 671q0 -26 -10 -49t-27 -40t-40 -27t-49 -10t-49 10t-40 27t-27 40t-10 49t10 49t27 40t40 27t49 10t49 -10t40 -27t27 -40t10 -49z" />
    <glyph glyph-name="Agrave" unicode="&#xc0;" 
d="M514 780l315 -780h-218l-43 114h-307l-43 -114h-218l316 780h198zM415 524l-86 -229h171zM527 818l-290 133l97 168l260 -185z" />
    <glyph glyph-name="Aacute" unicode="&#xc1;" 
d="M514 780l315 -780h-218l-43 114h-307l-43 -114h-218l316 780h198zM415 524l-86 -229h171zM237 934l260 185l97 -168l-290 -133z" />
    <glyph glyph-name="Acircumflex" unicode="&#xc2;" 
d="M514 780l315 -780h-218l-43 114h-307l-43 -114h-218l316 780h198zM415 524l-86 -229h171zM556 825l-141 93l-143 -93l-85 107l228 179l227 -179z" />
    <glyph glyph-name="Atilde" unicode="&#xc3;" 
d="M514 780l315 -780h-218l-43 114h-307l-43 -114h-218l316 780h198zM415 524l-86 -229h171zM213 849q0 13 1.5 32.5t6 40.5t13 42.5t23.5 38.5t36.5 27.5t52.5 10.5q28 0 52 -9.5t51 -29.5q6 -5 12 -8.5t12 -3.5q8 0 10 7.5t1 24.5h133q0 -20 -3.5 -52t-17 -63.5t-40 -54
t-72.5 -22.5q-28 0 -52 9.5t-51 29.5q-6 5 -12 8.5t-12 3.5q-8 0 -10 -7.5t-1 -24.5h-133z" />
    <glyph glyph-name="Adieresis" unicode="&#xc4;" 
d="M514 780l315 -780h-218l-43 114h-307l-43 -114h-218l316 780h198zM415 524l-86 -229h171zM193 928q0 19 7.5 36.5t20.5 31t31 21t38 7.5t37.5 -7.5t30.5 -21t20.5 -31t7.5 -36.5q0 -20 -7.5 -38t-20.5 -31.5t-30.5 -21t-37.5 -7.5q-41 0 -69 28.5t-28 69.5zM445 928
q0 19 7.5 36.5t20.5 31t31 21t38 7.5t37.5 -7.5t30.5 -21t20.5 -31t7.5 -36.5q0 -20 -7.5 -38t-20.5 -31.5t-30.5 -21t-37.5 -7.5q-41 0 -69 28.5t-28 69.5z" />
    <glyph glyph-name="Aring" unicode="&#xc5;" 
d="M250 911q0 34 13 64.5t35.5 53.5t52.5 36t64 13t64.5 -13.5t53 -36t36 -53t13.5 -64.5q0 -41 -18.5 -75t-49.5 -57l315 -779h-218l-43 114h-307l-43 -114h-218l315 779q-30 23 -47.5 57t-17.5 75zM415 524l-86 -229h171zM367 911q0 -20 14 -34t34 -14t34 14t14 34t-14 34
t-34 14t-34 -14t-14 -34z" />
    <glyph glyph-name="AE" unicode="&#xc6;" horiz-adv-x="1511" 
d="M645 114h-308l-90 -114h-257l627 780h627v-194h-400v-112h329v-181h-329v-100h400v-193h-599v114zM645 295v210l-166 -210h166z" />
    <glyph glyph-name="Ccedilla" unicode="&#xc7;" horiz-adv-x="1047" 
d="M807 209q-24 -47 -59.5 -86t-79 -68t-95 -47t-106.5 -22l-9 -47q22 -7 37.5 -19t25.5 -27.5t14 -33t4 -35.5q0 -27 -9 -50.5t-26 -41t-42.5 -27.5t-59.5 -10q-26 0 -51 5t-45 11q-24 7 -46 16l52 120q17 -8 38 -16.5t44 -8.5q24 0 30.5 8.5t6.5 14.5q0 3 -1.5 8.5t-6 9.5
t-12.5 5t-21 -3l-48 43l32 82q-74 11 -138 46.5t-111.5 89t-74.5 121t-27 143.5q0 84 33 157.5t89.5 128.5t132 87t159.5 32q60 0 115.5 -16.5t103.5 -45.5t86 -70t64 -90l-182 -82q-26 50 -75.5 80.5t-111.5 30.5q-44 0 -82.5 -16.5t-67.5 -45t-45.5 -67.5t-16.5 -83
t16.5 -83t45.5 -67.5t67.5 -45t82.5 -16.5q63 0 112 30.5t75 80.5z" />
    <glyph glyph-name="Egrave" unicode="&#xc8;" horiz-adv-x="926" 
d="M60 780h599v-194h-399v-112h328v-181h-328v-100h399v-193h-599v780zM471 818l-290 133l97 168l260 -185z" />
    <glyph glyph-name="Eacute" unicode="&#xc9;" horiz-adv-x="926" 
d="M60 780h599v-194h-399v-112h328v-181h-328v-100h399v-193h-599v780zM181 934l260 185l97 -168l-290 -133z" />
    <glyph glyph-name="Ecircumflex" unicode="&#xca;" horiz-adv-x="926" 
d="M60 780h599v-194h-399v-112h328v-181h-328v-100h399v-193h-599v780zM500 825l-141 93l-143 -93l-85 107l228 179l227 -179z" />
    <glyph glyph-name="Edieresis" unicode="&#xcb;" horiz-adv-x="926" 
d="M60 780h599v-194h-399v-112h328v-181h-328v-100h399v-193h-599v780zM137 928q0 19 7.5 36.5t20.5 31t31 21t38 7.5t37.5 -7.5t30.5 -21t20.5 -31t7.5 -36.5q0 -20 -7.5 -38t-20.5 -31.5t-30.5 -21t-37.5 -7.5q-41 0 -69 28.5t-28 69.5zM389 928q0 19 7.5 36.5t20.5 31
t31 21t38 7.5t37.5 -7.5t30.5 -21t20.5 -31t7.5 -36.5q0 -20 -7.5 -38t-20.5 -31.5t-30.5 -21t-37.5 -7.5q-41 0 -69 28.5t-28 69.5z" />
    <glyph glyph-name="Igrave" unicode="&#xcc;" horiz-adv-x="550" 
d="M260 780v-780h-200v780h200zM271 818l-290 133l97 168l260 -185z" />
    <glyph glyph-name="Iacute" unicode="&#xcd;" horiz-adv-x="550" 
d="M260 780v-780h-200v780h200zM-19 934l260 185l97 -168l-290 -133z" />
    <glyph glyph-name="Icircumflex" unicode="&#xce;" horiz-adv-x="550" 
d="M260 780v-780h-200v780h200zM300 825l-141 93l-143 -93l-85 107l228 179l227 -179z" />
    <glyph glyph-name="Idieresis" unicode="&#xcf;" horiz-adv-x="550" 
d="M260 780v-780h-200v780h200zM-63 928q0 19 7.5 36.5t20.5 31t31 21t38 7.5t37.5 -7.5t30.5 -21t20.5 -31t7.5 -36.5q0 -20 -7.5 -38t-20.5 -31.5t-30.5 -21t-37.5 -7.5q-41 0 -69 28.5t-28 69.5zM189 928q0 19 7.5 36.5t20.5 31t31 21t38 7.5t37.5 -7.5t30.5 -21
t20.5 -31t7.5 -36.5q0 -20 -7.5 -38t-20.5 -31.5t-30.5 -21t-37.5 -7.5q-41 0 -69 28.5t-28 69.5z" />
    <glyph glyph-name="Eth" unicode="&#xd0;" horiz-adv-x="1053" 
d="M65 297h-57v172h57v311h362q91 0 160.5 -31t115.5 -84.5t69.5 -124.5t23.5 -150q0 -80 -23.5 -151t-69.5 -124t-115.5 -84t-160.5 -31h-362v297zM430 297h-165v-104h147q45 0 79 14.5t57 40.5t34.5 62t11.5 80q0 88 -46 142t-136 54h-147v-117h165v-172z" />
    <glyph glyph-name="Ntilde" unicode="&#xd1;" horiz-adv-x="1067" 
d="M60 0v780h170l348 -436v436h199v-780h-169l-348 435v-435h-200zM217 849q0 13 1.5 32.5t6 40.5t13 42.5t23.5 38.5t36.5 27.5t52.5 10.5q28 0 52 -9.5t51 -29.5q6 -5 12 -8.5t12 -3.5q8 0 10 7.5t1 24.5h133q0 -20 -3.5 -52t-17 -63.5t-40 -54t-72.5 -22.5q-28 0 -52 9.5
t-51 29.5q-6 5 -12 8.5t-12 3.5q-8 0 -10 -7.5t-1 -24.5h-133z" />
    <glyph glyph-name="Ograve" unicode="&#xd2;" horiz-adv-x="1104" 
d="M23 390q0 84 33 157.5t89.5 128.5t132 87t159.5 32q85 0 160.5 -32t132 -87t89 -128.5t32.5 -157.5t-32.5 -157.5t-89 -128.5t-132 -87t-160.5 -32q-84 0 -159.5 32t-132 87t-89.5 128.5t-33 157.5zM225 390q0 -44 16.5 -83t45.5 -67.5t67.5 -45t82.5 -16.5
q45 0 83.5 16.5t67 45t45 67.5t16.5 83t-16.5 83t-45 67.5t-67 45t-83.5 16.5q-44 0 -82.5 -16.5t-67.5 -45t-45.5 -67.5t-16.5 -83zM549 818l-290 133l97 168l260 -185z" />
    <glyph glyph-name="Oacute" unicode="&#xd3;" horiz-adv-x="1104" 
d="M23 390q0 84 33 157.5t89.5 128.5t132 87t159.5 32q85 0 160.5 -32t132 -87t89 -128.5t32.5 -157.5t-32.5 -157.5t-89 -128.5t-132 -87t-160.5 -32q-84 0 -159.5 32t-132 87t-89.5 128.5t-33 157.5zM225 390q0 -44 16.5 -83t45.5 -67.5t67.5 -45t82.5 -16.5
q45 0 83.5 16.5t67 45t45 67.5t16.5 83t-16.5 83t-45 67.5t-67 45t-83.5 16.5q-44 0 -82.5 -16.5t-67.5 -45t-45.5 -67.5t-16.5 -83zM260 934l260 185l97 -168l-290 -133z" />
    <glyph glyph-name="Ocircumflex" unicode="&#xd4;" horiz-adv-x="1104" 
d="M23 390q0 84 33 157.5t89.5 128.5t132 87t159.5 32q85 0 160.5 -32t132 -87t89 -128.5t32.5 -157.5t-32.5 -157.5t-89 -128.5t-132 -87t-160.5 -32q-84 0 -159.5 32t-132 87t-89.5 128.5t-33 157.5zM225 390q0 -44 16.5 -83t45.5 -67.5t67.5 -45t82.5 -16.5
q45 0 83.5 16.5t67 45t45 67.5t16.5 83t-16.5 83t-45 67.5t-67 45t-83.5 16.5q-44 0 -82.5 -16.5t-67.5 -45t-45.5 -67.5t-16.5 -83zM578 825l-141 93l-143 -93l-85 107l228 179l227 -179z" />
    <glyph glyph-name="Otilde" unicode="&#xd5;" horiz-adv-x="1104" 
d="M23 390q0 84 33 157.5t89.5 128.5t132 87t159.5 32q85 0 160.5 -32t132 -87t89 -128.5t32.5 -157.5t-32.5 -157.5t-89 -128.5t-132 -87t-160.5 -32q-84 0 -159.5 32t-132 87t-89.5 128.5t-33 157.5zM225 390q0 -44 16.5 -83t45.5 -67.5t67.5 -45t82.5 -16.5
q45 0 83.5 16.5t67 45t45 67.5t16.5 83t-16.5 83t-45 67.5t-67 45t-83.5 16.5q-44 0 -82.5 -16.5t-67.5 -45t-45.5 -67.5t-16.5 -83zM236 849q0 13 1.5 32.5t6 40.5t13 42.5t23.5 38.5t36.5 27.5t52.5 10.5q28 0 52 -9.5t51 -29.5q6 -5 12 -8.5t12 -3.5q8 0 10 7.5t1 24.5
h133q0 -20 -3.5 -52t-17 -63.5t-40 -54t-72.5 -22.5q-28 0 -52 9.5t-51 29.5q-6 5 -12 8.5t-12 3.5q-8 0 -10 -7.5t-1 -24.5h-133z" />
    <glyph glyph-name="Odieresis" unicode="&#xd6;" horiz-adv-x="1104" 
d="M23 390q0 84 33 157.5t89.5 128.5t132 87t159.5 32q85 0 160.5 -32t132 -87t89 -128.5t32.5 -157.5t-32.5 -157.5t-89 -128.5t-132 -87t-160.5 -32q-84 0 -159.5 32t-132 87t-89.5 128.5t-33 157.5zM225 390q0 -44 16.5 -83t45.5 -67.5t67.5 -45t82.5 -16.5
q45 0 83.5 16.5t67 45t45 67.5t16.5 83t-16.5 83t-45 67.5t-67 45t-83.5 16.5q-44 0 -82.5 -16.5t-67.5 -45t-45.5 -67.5t-16.5 -83zM215 928q0 19 7.5 36.5t20.5 31t31 21t38 7.5t37.5 -7.5t30.5 -21t20.5 -31t7.5 -36.5q0 -20 -7.5 -38t-20.5 -31.5t-30.5 -21t-37.5 -7.5
q-41 0 -69 28.5t-28 69.5zM467 928q0 19 7.5 36.5t20.5 31t31 21t38 7.5t37.5 -7.5t30.5 -21t20.5 -31t7.5 -36.5q0 -20 -7.5 -38t-20.5 -31.5t-30.5 -21t-37.5 -7.5q-41 0 -69 28.5t-28 69.5z" />
    <glyph glyph-name="multiply" unicode="&#xd7;" horiz-adv-x="821" 
d="M40 240l127 127l-127 127l129 128l126 -127l127 127l129 -128l-127 -127l127 -127l-129 -128l-127 126l-126 -126z" />
    <glyph glyph-name="Oslash" unicode="&#xd8;" horiz-adv-x="1103" 
d="M23 390q0 84 33 157.5t89.5 128.5t131.5 87t160 32q54 0 104.5 -13.5t95.5 -37.5l29 36h169l-94 -117q51 -54 80.5 -124t29.5 -149q0 -84 -33 -157.5t-89 -128.5t-131.5 -87t-160.5 -32q-55 0 -105 13.5t-95 37.5l-29 -36h-169l93 116q-51 54 -80 124.5t-29 149.5z
M649 390q0 32 -9 61.5t-25 54.5l-254 -315q35 -13 76 -13q45 0 83.5 16.5t67 45t45 67.5t16.5 83zM225 390q0 -65 34 -116l253 314q-37 14 -75 14q-44 0 -83 -16.5t-67.5 -45t-45 -67.5t-16.5 -83z" />
    <glyph glyph-name="Ugrave" unicode="&#xd9;" horiz-adv-x="1045" 
d="M766 780v-439q0 -75 -23.5 -140t-69 -113t-112.5 -75.5t-154 -27.5q-88 0 -155 27.5t-112 75.5t-68 113t-23 140v439h200v-427q0 -85 40 -130t118 -45q79 0 119.5 45t40.5 130v427h199zM519 818l-290 133l97 168l260 -185z" />
    <glyph glyph-name="Uacute" unicode="&#xda;" horiz-adv-x="1045" 
d="M766 780v-439q0 -75 -23.5 -140t-69 -113t-112.5 -75.5t-154 -27.5q-88 0 -155 27.5t-112 75.5t-68 113t-23 140v439h200v-427q0 -85 40 -130t118 -45q79 0 119.5 45t40.5 130v427h199zM229 934l260 185l97 -168l-290 -133z" />
    <glyph glyph-name="Ucircumflex" unicode="&#xdb;" horiz-adv-x="1045" 
d="M766 780v-439q0 -75 -23.5 -140t-69 -113t-112.5 -75.5t-154 -27.5q-88 0 -155 27.5t-112 75.5t-68 113t-23 140v439h200v-427q0 -85 40 -130t118 -45q79 0 119.5 45t40.5 130v427h199zM548 825l-141 93l-143 -93l-85 107l228 179l227 -179z" />
    <glyph glyph-name="Udieresis" unicode="&#xdc;" horiz-adv-x="1045" 
d="M766 780v-439q0 -75 -23.5 -140t-69 -113t-112.5 -75.5t-154 -27.5q-88 0 -155 27.5t-112 75.5t-68 113t-23 140v439h200v-427q0 -85 40 -130t118 -45q79 0 119.5 45t40.5 130v427h199zM185 928q0 19 7.5 36.5t20.5 31t31 21t38 7.5t37.5 -7.5t30.5 -21t20.5 -31
t7.5 -36.5q0 -20 -7.5 -38t-20.5 -31.5t-30.5 -21t-37.5 -7.5q-41 0 -69 28.5t-28 69.5zM437 928q0 19 7.5 36.5t20.5 31t31 21t38 7.5t37.5 -7.5t30.5 -21t20.5 -31t7.5 -36.5q0 -20 -7.5 -38t-20.5 -31.5t-30.5 -21t-37.5 -7.5q-41 0 -69 28.5t-28 69.5z" />
    <glyph glyph-name="Yacute" unicode="&#xdd;" horiz-adv-x="1046" 
d="M407 497l173 283h236l-309 -494v-286h-199v286l-308 494h235zM229 934l260 185l97 -168l-290 -133z" />
    <glyph glyph-name="Thorn" unicode="&#xde;" horiz-adv-x="966" 
d="M60 780h200v-90h144q78 0 135.5 -24.5t95.5 -66t56.5 -95.5t18.5 -113q0 -62 -18.5 -117t-56.5 -96.5t-95.5 -66t-135.5 -24.5h-144v-87h-200v780zM260 508v-239h133q63 0 89 34.5t26 86.5q0 23 -6 44.5t-20 38t-36 26t-53 9.5h-133z" />
    <glyph glyph-name="germandbls" unicode="&#xdf;" horiz-adv-x="1114" 
d="M443 228q27 -36 62.5 -50t64.5 -14q46 0 72 22.5t26 54.5q0 25 -14.5 43.5t-41.5 28.5t-64 10.5t-82 -11.5l-99 136l199 155q-17 5 -38 8.5t-42 6t-40.5 3.5t-34.5 1q-44 0 -76 -12.5t-53.5 -34t-32 -50.5t-10.5 -62v-463h-188v478q0 62 22 121t67 104.5t113 73t160 27.5
q39 0 88 -5t101 -14.5t104.5 -22.5t99.5 -29v-142l-156 -121q32 -5 69 -21t68.5 -44t52.5 -68t21 -94t-21 -101t-59 -82t-90 -55t-113 -20q-42 0 -83.5 8.5t-80 26.5t-72 44.5t-59.5 62.5z" />
    <glyph glyph-name="agrave" unicode="&#xe0;" 
d="M514 780l315 -780h-218l-43 114h-307l-43 -114h-218l316 780h198zM415 524l-86 -229h171zM527 818l-290 133l97 168l260 -185z" />
    <glyph glyph-name="aacute" unicode="&#xe1;" 
d="M514 780l315 -780h-218l-43 114h-307l-43 -114h-218l316 780h198zM415 524l-86 -229h171zM237 934l260 185l97 -168l-290 -133z" />
    <glyph glyph-name="acircumflex" unicode="&#xe2;" 
d="M514 780l315 -780h-218l-43 114h-307l-43 -114h-218l316 780h198zM415 524l-86 -229h171zM556 825l-141 93l-143 -93l-85 107l228 179l227 -179z" />
    <glyph glyph-name="atilde" unicode="&#xe3;" 
d="M514 780l315 -780h-218l-43 114h-307l-43 -114h-218l316 780h198zM415 524l-86 -229h171zM213 849q0 13 1.5 32.5t6 40.5t13 42.5t23.5 38.5t36.5 27.5t52.5 10.5q28 0 52 -9.5t51 -29.5q6 -5 12 -8.5t12 -3.5q8 0 10 7.5t1 24.5h133q0 -20 -3.5 -52t-17 -63.5t-40 -54
t-72.5 -22.5q-28 0 -52 9.5t-51 29.5q-6 5 -12 8.5t-12 3.5q-8 0 -10 -7.5t-1 -24.5h-133z" />
    <glyph glyph-name="adieresis" unicode="&#xe4;" 
d="M514 780l315 -780h-218l-43 114h-307l-43 -114h-218l316 780h198zM415 524l-86 -229h171zM193 928q0 19 7.5 36.5t20.5 31t31 21t38 7.5t37.5 -7.5t30.5 -21t20.5 -31t7.5 -36.5q0 -20 -7.5 -38t-20.5 -31.5t-30.5 -21t-37.5 -7.5q-41 0 -69 28.5t-28 69.5zM445 928
q0 19 7.5 36.5t20.5 31t31 21t38 7.5t37.5 -7.5t30.5 -21t20.5 -31t7.5 -36.5q0 -20 -7.5 -38t-20.5 -31.5t-30.5 -21t-37.5 -7.5q-41 0 -69 28.5t-28 69.5z" />
    <glyph glyph-name="aring" unicode="&#xe5;" 
d="M250 911q0 34 13 64.5t35.5 53.5t52.5 36t64 13t64.5 -13.5t53 -36t36 -53t13.5 -64.5q0 -41 -18.5 -75t-49.5 -57l315 -779h-218l-43 114h-307l-43 -114h-218l315 779q-30 23 -47.5 57t-17.5 75zM415 524l-86 -229h171zM367 911q0 -20 14 -34t34 -14t34 14t14 34t-14 34
t-34 14t-34 -14t-14 -34z" />
    <glyph glyph-name="ae" unicode="&#xe6;" horiz-adv-x="1511" 
d="M645 114h-308l-90 -114h-257l627 780h627v-194h-400v-112h329v-181h-329v-100h400v-193h-599v114zM645 295v210l-166 -210h166z" />
    <glyph glyph-name="ccedilla" unicode="&#xe7;" horiz-adv-x="1047" 
d="M807 209q-24 -47 -59.5 -86t-79 -68t-95 -47t-106.5 -22l-9 -47q22 -7 37.5 -19t25.5 -27.5t14 -33t4 -35.5q0 -27 -9 -50.5t-26 -41t-42.5 -27.5t-59.5 -10q-26 0 -51 5t-45 11q-24 7 -46 16l52 120q17 -8 38 -16.5t44 -8.5q24 0 30.5 8.5t6.5 14.5q0 3 -1.5 8.5t-6 9.5
t-12.5 5t-21 -3l-48 43l32 82q-74 11 -138 46.5t-111.5 89t-74.5 121t-27 143.5q0 84 33 157.5t89.5 128.5t132 87t159.5 32q60 0 115.5 -16.5t103.5 -45.5t86 -70t64 -90l-182 -82q-26 50 -75.5 80.5t-111.5 30.5q-44 0 -82.5 -16.5t-67.5 -45t-45.5 -67.5t-16.5 -83
t16.5 -83t45.5 -67.5t67.5 -45t82.5 -16.5q63 0 112 30.5t75 80.5z" />
    <glyph glyph-name="egrave" unicode="&#xe8;" horiz-adv-x="926" 
d="M60 780h599v-194h-399v-112h328v-181h-328v-100h399v-193h-599v780zM471 818l-290 133l97 168l260 -185z" />
    <glyph glyph-name="eacute" unicode="&#xe9;" horiz-adv-x="926" 
d="M60 780h599v-194h-399v-112h328v-181h-328v-100h399v-193h-599v780zM181 934l260 185l97 -168l-290 -133z" />
    <glyph glyph-name="ecircumflex" unicode="&#xea;" horiz-adv-x="926" 
d="M60 780h599v-194h-399v-112h328v-181h-328v-100h399v-193h-599v780zM500 825l-141 93l-143 -93l-85 107l228 179l227 -179z" />
    <glyph glyph-name="edieresis" unicode="&#xeb;" horiz-adv-x="926" 
d="M60 780h599v-194h-399v-112h328v-181h-328v-100h399v-193h-599v780zM137 928q0 19 7.5 36.5t20.5 31t31 21t38 7.5t37.5 -7.5t30.5 -21t20.5 -31t7.5 -36.5q0 -20 -7.5 -38t-20.5 -31.5t-30.5 -21t-37.5 -7.5q-41 0 -69 28.5t-28 69.5zM389 928q0 19 7.5 36.5t20.5 31
t31 21t38 7.5t37.5 -7.5t30.5 -21t20.5 -31t7.5 -36.5q0 -20 -7.5 -38t-20.5 -31.5t-30.5 -21t-37.5 -7.5q-41 0 -69 28.5t-28 69.5z" />
    <glyph glyph-name="igrave" unicode="&#xec;" horiz-adv-x="550" 
d="M260 780v-780h-200v780h200zM271 818l-290 133l97 168l260 -185z" />
    <glyph glyph-name="iacute" unicode="&#xed;" horiz-adv-x="550" 
d="M260 780v-780h-200v780h200zM-19 934l260 185l97 -168l-290 -133z" />
    <glyph glyph-name="icircumflex" unicode="&#xee;" horiz-adv-x="550" 
d="M260 780v-780h-200v780h200zM300 825l-141 93l-143 -93l-85 107l228 179l227 -179z" />
    <glyph glyph-name="idieresis" unicode="&#xef;" horiz-adv-x="550" 
d="M260 780v-780h-200v780h200zM-63 928q0 19 7.5 36.5t20.5 31t31 21t38 7.5t37.5 -7.5t30.5 -21t20.5 -31t7.5 -36.5q0 -20 -7.5 -38t-20.5 -31.5t-30.5 -21t-37.5 -7.5q-41 0 -69 28.5t-28 69.5zM189 928q0 19 7.5 36.5t20.5 31t31 21t38 7.5t37.5 -7.5t30.5 -21
t20.5 -31t7.5 -36.5q0 -20 -7.5 -38t-20.5 -31.5t-30.5 -21t-37.5 -7.5q-41 0 -69 28.5t-28 69.5z" />
    <glyph glyph-name="eth" unicode="&#xf0;" horiz-adv-x="1053" 
d="M65 297h-57v172h57v311h362q91 0 160.5 -31t115.5 -84.5t69.5 -124.5t23.5 -150q0 -80 -23.5 -151t-69.5 -124t-115.5 -84t-160.5 -31h-362v297zM430 297h-165v-104h147q45 0 79 14.5t57 40.5t34.5 62t11.5 80q0 88 -46 142t-136 54h-147v-117h165v-172z" />
    <glyph glyph-name="ntilde" unicode="&#xf1;" horiz-adv-x="1067" 
d="M60 0v780h170l348 -436v436h199v-780h-169l-348 435v-435h-200zM217 849q0 13 1.5 32.5t6 40.5t13 42.5t23.5 38.5t36.5 27.5t52.5 10.5q28 0 52 -9.5t51 -29.5q6 -5 12 -8.5t12 -3.5q8 0 10 7.5t1 24.5h133q0 -20 -3.5 -52t-17 -63.5t-40 -54t-72.5 -22.5q-28 0 -52 9.5
t-51 29.5q-6 5 -12 8.5t-12 3.5q-8 0 -10 -7.5t-1 -24.5h-133z" />
    <glyph glyph-name="ograve" unicode="&#xf2;" horiz-adv-x="1104" 
d="M23 390q0 84 33 157.5t89.5 128.5t132 87t159.5 32q85 0 160.5 -32t132 -87t89 -128.5t32.5 -157.5t-32.5 -157.5t-89 -128.5t-132 -87t-160.5 -32q-84 0 -159.5 32t-132 87t-89.5 128.5t-33 157.5zM225 390q0 -44 16.5 -83t45.5 -67.5t67.5 -45t82.5 -16.5
q45 0 83.5 16.5t67 45t45 67.5t16.5 83t-16.5 83t-45 67.5t-67 45t-83.5 16.5q-44 0 -82.5 -16.5t-67.5 -45t-45.5 -67.5t-16.5 -83zM549 818l-290 133l97 168l260 -185z" />
    <glyph glyph-name="oacute" unicode="&#xf3;" horiz-adv-x="1104" 
d="M23 390q0 84 33 157.5t89.5 128.5t132 87t159.5 32q85 0 160.5 -32t132 -87t89 -128.5t32.5 -157.5t-32.5 -157.5t-89 -128.5t-132 -87t-160.5 -32q-84 0 -159.5 32t-132 87t-89.5 128.5t-33 157.5zM225 390q0 -44 16.5 -83t45.5 -67.5t67.5 -45t82.5 -16.5
q45 0 83.5 16.5t67 45t45 67.5t16.5 83t-16.5 83t-45 67.5t-67 45t-83.5 16.5q-44 0 -82.5 -16.5t-67.5 -45t-45.5 -67.5t-16.5 -83zM260 934l260 185l97 -168l-290 -133z" />
    <glyph glyph-name="ocircumflex" unicode="&#xf4;" horiz-adv-x="1104" 
d="M23 390q0 84 33 157.5t89.5 128.5t132 87t159.5 32q85 0 160.5 -32t132 -87t89 -128.5t32.5 -157.5t-32.5 -157.5t-89 -128.5t-132 -87t-160.5 -32q-84 0 -159.5 32t-132 87t-89.5 128.5t-33 157.5zM225 390q0 -44 16.5 -83t45.5 -67.5t67.5 -45t82.5 -16.5
q45 0 83.5 16.5t67 45t45 67.5t16.5 83t-16.5 83t-45 67.5t-67 45t-83.5 16.5q-44 0 -82.5 -16.5t-67.5 -45t-45.5 -67.5t-16.5 -83zM578 825l-141 93l-143 -93l-85 107l228 179l227 -179z" />
    <glyph glyph-name="otilde" unicode="&#xf5;" horiz-adv-x="1104" 
d="M23 390q0 84 33 157.5t89.5 128.5t132 87t159.5 32q85 0 160.5 -32t132 -87t89 -128.5t32.5 -157.5t-32.5 -157.5t-89 -128.5t-132 -87t-160.5 -32q-84 0 -159.5 32t-132 87t-89.5 128.5t-33 157.5zM225 390q0 -44 16.5 -83t45.5 -67.5t67.5 -45t82.5 -16.5
q45 0 83.5 16.5t67 45t45 67.5t16.5 83t-16.5 83t-45 67.5t-67 45t-83.5 16.5q-44 0 -82.5 -16.5t-67.5 -45t-45.5 -67.5t-16.5 -83zM236 849q0 13 1.5 32.5t6 40.5t13 42.5t23.5 38.5t36.5 27.5t52.5 10.5q28 0 52 -9.5t51 -29.5q6 -5 12 -8.5t12 -3.5q8 0 10 7.5t1 24.5
h133q0 -20 -3.5 -52t-17 -63.5t-40 -54t-72.5 -22.5q-28 0 -52 9.5t-51 29.5q-6 5 -12 8.5t-12 3.5q-8 0 -10 -7.5t-1 -24.5h-133z" />
    <glyph glyph-name="odieresis" unicode="&#xf6;" horiz-adv-x="1104" 
d="M23 390q0 84 33 157.5t89.5 128.5t132 87t159.5 32q85 0 160.5 -32t132 -87t89 -128.5t32.5 -157.5t-32.5 -157.5t-89 -128.5t-132 -87t-160.5 -32q-84 0 -159.5 32t-132 87t-89.5 128.5t-33 157.5zM225 390q0 -44 16.5 -83t45.5 -67.5t67.5 -45t82.5 -16.5
q45 0 83.5 16.5t67 45t45 67.5t16.5 83t-16.5 83t-45 67.5t-67 45t-83.5 16.5q-44 0 -82.5 -16.5t-67.5 -45t-45.5 -67.5t-16.5 -83zM215 928q0 19 7.5 36.5t20.5 31t31 21t38 7.5t37.5 -7.5t30.5 -21t20.5 -31t7.5 -36.5q0 -20 -7.5 -38t-20.5 -31.5t-30.5 -21t-37.5 -7.5
q-41 0 -69 28.5t-28 69.5zM467 928q0 19 7.5 36.5t20.5 31t31 21t38 7.5t37.5 -7.5t30.5 -21t20.5 -31t7.5 -36.5q0 -20 -7.5 -38t-20.5 -31.5t-30.5 -21t-37.5 -7.5q-41 0 -69 28.5t-28 69.5z" />
    <glyph glyph-name="divide" unicode="&#xf7;" horiz-adv-x="773" 
d="M145 603q0 26 10 49t27 40t40 27t49 10t49 -10t40 -27t27 -40t10 -49t-10 -49t-27 -40t-40 -27t-49 -10t-49 10t-40 27t-27 40t-10 49zM145 128q0 26 10 49t27 40t40 27t49 10t49 -10t40 -27t27 -40t10 -49t-10 -49t-27 -40t-40 -27t-49 -10t-49 10t-40 27t-27 40t-10 49
zM504 275h-465v181h465v-181z" />
    <glyph glyph-name="oslash" unicode="&#xf8;" horiz-adv-x="1103" 
d="M23 390q0 84 33 157.5t89.5 128.5t131.5 87t160 32q54 0 104.5 -13.5t95.5 -37.5l29 36h169l-94 -117q51 -54 80.5 -124t29.5 -149q0 -84 -33 -157.5t-89 -128.5t-131.5 -87t-160.5 -32q-55 0 -105 13.5t-95 37.5l-29 -36h-169l93 116q-51 54 -80 124.5t-29 149.5z
M649 390q0 32 -9 61.5t-25 54.5l-254 -315q35 -13 76 -13q45 0 83.5 16.5t67 45t45 67.5t16.5 83zM225 390q0 -65 34 -116l253 314q-37 14 -75 14q-44 0 -83 -16.5t-67.5 -45t-45 -67.5t-16.5 -83z" />
    <glyph glyph-name="ugrave" unicode="&#xf9;" horiz-adv-x="1045" 
d="M766 780v-439q0 -75 -23.5 -140t-69 -113t-112.5 -75.5t-154 -27.5q-88 0 -155 27.5t-112 75.5t-68 113t-23 140v439h200v-427q0 -85 40 -130t118 -45q79 0 119.5 45t40.5 130v427h199zM519 818l-290 133l97 168l260 -185z" />
    <glyph glyph-name="uacute" unicode="&#xfa;" horiz-adv-x="1045" 
d="M766 780v-439q0 -75 -23.5 -140t-69 -113t-112.5 -75.5t-154 -27.5q-88 0 -155 27.5t-112 75.5t-68 113t-23 140v439h200v-427q0 -85 40 -130t118 -45q79 0 119.5 45t40.5 130v427h199zM229 934l260 185l97 -168l-290 -133z" />
    <glyph glyph-name="ucircumflex" unicode="&#xfb;" horiz-adv-x="1045" 
d="M766 780v-439q0 -75 -23.5 -140t-69 -113t-112.5 -75.5t-154 -27.5q-88 0 -155 27.5t-112 75.5t-68 113t-23 140v439h200v-427q0 -85 40 -130t118 -45q79 0 119.5 45t40.5 130v427h199zM548 825l-141 93l-143 -93l-85 107l228 179l227 -179z" />
    <glyph glyph-name="udieresis" unicode="&#xfc;" horiz-adv-x="1045" 
d="M766 780v-439q0 -75 -23.5 -140t-69 -113t-112.5 -75.5t-154 -27.5q-88 0 -155 27.5t-112 75.5t-68 113t-23 140v439h200v-427q0 -85 40 -130t118 -45q79 0 119.5 45t40.5 130v427h199zM185 928q0 19 7.5 36.5t20.5 31t31 21t38 7.5t37.5 -7.5t30.5 -21t20.5 -31
t7.5 -36.5q0 -20 -7.5 -38t-20.5 -31.5t-30.5 -21t-37.5 -7.5q-41 0 -69 28.5t-28 69.5zM437 928q0 19 7.5 36.5t20.5 31t31 21t38 7.5t37.5 -7.5t30.5 -21t20.5 -31t7.5 -36.5q0 -20 -7.5 -38t-20.5 -31.5t-30.5 -21t-37.5 -7.5q-41 0 -69 28.5t-28 69.5z" />
    <glyph glyph-name="yacute" unicode="&#xfd;" horiz-adv-x="1046" 
d="M407 497l173 283h236l-309 -494v-286h-199v286l-308 494h235zM229 934l260 185l97 -168l-290 -133z" />
    <glyph glyph-name="thorn" unicode="&#xfe;" horiz-adv-x="966" 
d="M60 780h200v-90h144q78 0 135.5 -24.5t95.5 -66t56.5 -95.5t18.5 -113q0 -62 -18.5 -117t-56.5 -96.5t-95.5 -66t-135.5 -24.5h-144v-87h-200v780zM260 508v-239h133q63 0 89 34.5t26 86.5q0 23 -6 44.5t-20 38t-36 26t-53 9.5h-133z" />
    <glyph glyph-name="ydieresis" unicode="&#xff;" horiz-adv-x="1046" 
d="M407 497l173 283h236l-309 -494v-286h-199v286l-308 494h235zM185 928q0 19 7.5 36.5t20.5 31t31 21t38 7.5t37.5 -7.5t30.5 -21t20.5 -31t7.5 -36.5q0 -20 -7.5 -38t-20.5 -31.5t-30.5 -21t-37.5 -7.5q-41 0 -69 28.5t-28 69.5zM437 928q0 19 7.5 36.5t20.5 31t31 21
t38 7.5t37.5 -7.5t30.5 -21t20.5 -31t7.5 -36.5q0 -20 -7.5 -38t-20.5 -31.5t-30.5 -21t-37.5 -7.5q-41 0 -69 28.5t-28 69.5z" />
    <glyph glyph-name="dotlessi" unicode="&#x131;" horiz-adv-x="550" 
d="M260 780v-780h-200v780h200z" />
    <glyph glyph-name="OE" unicode="&#x152;" horiz-adv-x="1404" 
d="M463 0q-104 0 -185.5 31.5t-138 85t-86 124t-29.5 149.5q0 78 29.5 149t86 124.5t138 85t185.5 31.5h675v-194h-399v-112h328v-181h-328v-100h399v-193h-675zM226 390q0 -42 14.5 -78t44 -62.5t74 -41.5t104.5 -15h76v393h-76q-60 0 -104.5 -15t-74 -41t-44 -62
t-14.5 -78z" />
    <glyph glyph-name="oe" unicode="&#x153;" horiz-adv-x="1404" 
d="M463 0q-104 0 -185.5 31.5t-138 85t-86 124t-29.5 149.5q0 78 29.5 149t86 124.5t138 85t185.5 31.5h675v-194h-399v-112h328v-181h-328v-100h399v-193h-675zM226 390q0 -42 14.5 -78t44 -62.5t74 -41.5t104.5 -15h76v393h-76q-60 0 -104.5 -15t-74 -41t-44 -62
t-14.5 -78z" />
    <glyph glyph-name="Scaron" unicode="&#x160;" horiz-adv-x="929" 
d="M224 234v-5q0 -11 8 -23.5t24 -23t41 -17.5t59 -7q56 0 77.5 15.5t21.5 32.5q0 25 -31 43t-102 42q-47 15 -97.5 35.5t-92.5 50.5t-69.5 73t-27.5 103q0 56 22.5 100.5t63 76t96.5 48.5t123 17q68 0 126.5 -17.5t101 -50.5t67 -79.5t24.5 -104.5v-11h-195v7q0 14 -7.5 29
t-22.5 27t-37.5 19.5t-52.5 7.5q-51 0 -73 -16.5t-22 -36.5q0 -23 29.5 -39t99.5 -40q40 -14 91 -34.5t95.5 -52t75 -77t30.5 -109.5q0 -57 -23.5 -100.5t-65 -72.5t-98 -44t-123.5 -15q-70 0 -130.5 16t-105 46.5t-70 75.5t-25.5 102v9h195zM568 1004l-227 -179l-228 179
l85 107l143 -92l141 92z" />
    <glyph glyph-name="scaron" unicode="&#x161;" horiz-adv-x="929" 
d="M224 234v-5q0 -11 8 -23.5t24 -23t41 -17.5t59 -7q56 0 77.5 15.5t21.5 32.5q0 25 -31 43t-102 42q-47 15 -97.5 35.5t-92.5 50.5t-69.5 73t-27.5 103q0 56 22.5 100.5t63 76t96.5 48.5t123 17q68 0 126.5 -17.5t101 -50.5t67 -79.5t24.5 -104.5v-11h-195v7q0 14 -7.5 29
t-22.5 27t-37.5 19.5t-52.5 7.5q-51 0 -73 -16.5t-22 -36.5q0 -23 29.5 -39t99.5 -40q40 -14 91 -34.5t95.5 -52t75 -77t30.5 -109.5q0 -57 -23.5 -100.5t-65 -72.5t-98 -44t-123.5 -15q-70 0 -130.5 16t-105 46.5t-70 75.5t-25.5 102v9h195zM568 1004l-227 -179l-228 179
l85 107l143 -92l141 92z" />
    <glyph glyph-name="Ydieresis" unicode="&#x178;" horiz-adv-x="1046" 
d="M407 497l173 283h236l-309 -494v-286h-199v286l-308 494h235zM185 928q0 19 7.5 36.5t20.5 31t31 21t38 7.5t37.5 -7.5t30.5 -21t20.5 -31t7.5 -36.5q0 -20 -7.5 -38t-20.5 -31.5t-30.5 -21t-37.5 -7.5q-41 0 -69 28.5t-28 69.5zM437 928q0 19 7.5 36.5t20.5 31t31 21
t38 7.5t37.5 -7.5t30.5 -21t20.5 -31t7.5 -36.5q0 -20 -7.5 -38t-20.5 -31.5t-30.5 -21t-37.5 -7.5q-41 0 -69 28.5t-28 69.5z" />
    <glyph glyph-name="Zcaron" unicode="&#x17d;" horiz-adv-x="959" 
d="M43 780h649v-146l-364 -441h365v-193h-662v146l363 440h-351v194zM589 1004l-227 -179l-228 179l85 107l143 -92l141 92z" />
    <glyph glyph-name="zcaron" unicode="&#x17e;" horiz-adv-x="959" 
d="M43 780h649v-146l-364 -441h365v-193h-662v146l363 440h-351v194zM589 1004l-227 -179l-228 179l85 107l143 -92l141 92z" />
    <glyph glyph-name="circumflex" unicode="&#x2c6;" horiz-adv-x="723" 
d="M388 825l-141 93l-143 -93l-85 107l228 179l227 -179z" />
    <glyph glyph-name="tilde" unicode="&#x2dc;" horiz-adv-x="700" 
d="M33 849q0 13 1.5 32.5t6 40.5t13 42.5t23.5 38.5t36.5 27.5t52.5 10.5q28 0 52 -9.5t51 -29.5q6 -5 12 -8.5t12 -3.5q8 0 10 7.5t1 24.5h133q0 -20 -3.5 -52t-17 -63.5t-40 -54t-72.5 -22.5q-28 0 -52 9.5t-51 29.5q-6 5 -12 8.5t-12 3.5q-8 0 -10 -7.5t-1 -24.5h-133z
" />
    <glyph glyph-name="endash" unicode="&#x2013;" horiz-adv-x="863" 
d="M577 232h-520v187h520v-187z" />
    <glyph glyph-name="emdash" unicode="&#x2014;" horiz-adv-x="1022" 
d="M736 232h-679v187h679v-187z" />
    <glyph glyph-name="quoteleft" unicode="&#x2018;" horiz-adv-x="552" 
d="M288 730q-23 -24 -44 -51.5t-30 -44.5q4 -5 14.5 -13.5t21.5 -22t19.5 -33t8.5 -45.5t-10 -49t-27 -40t-40 -27t-49 -10q-25 0 -47.5 9.5t-40 27t-27.5 42.5t-10 57q0 61 49 129.5t134 146.5z" />
    <glyph glyph-name="quoteright" unicode="&#x2019;" horiz-adv-x="548" 
d="M37 458q23 24 44 51.5t30 44.5q-4 4 -14.5 13t-21.5 22.5t-19.5 33t-8.5 45.5t10 49t27 40t40 27t49 10q25 0 47.5 -9.5t39.5 -27t27.5 -42.5t10.5 -57q0 -61 -49 -129.5t-134 -146.5z" />
    <glyph glyph-name="quotesinglbase" unicode="&#x201a;" horiz-adv-x="553" 
d="M25 -101q23 24 44 51.5t30 44.5q-4 4 -14.5 13t-21.5 22.5t-19.5 33t-8.5 45.5t10 49t27 40t40 27t49 10q25 0 47.5 -9.5t39.5 -27t27.5 -42.5t10.5 -57q0 -61 -49 -129.5t-134 -146.5z" />
    <glyph glyph-name="quotedblleft" unicode="&#x201c;" horiz-adv-x="820" 
d="M288 730q-23 -24 -44 -51.5t-30 -44.5q4 -5 14.5 -13.5t21.5 -22t19.5 -33t8.5 -45.5t-10 -49t-27 -40t-40 -27t-49 -10q-25 0 -47.5 9.5t-40 27t-27.5 42.5t-10 57q0 61 49 129.5t134 146.5zM556 730q-23 -24 -44 -51.5t-30 -44.5q4 -5 14.5 -13.5t21.5 -22t19.5 -33
t8.5 -45.5t-10 -49t-27 -40t-40 -27t-49 -10q-25 0 -47.5 9.5t-40 27t-27.5 42.5t-10 57q0 61 49 129.5t134 146.5z" />
    <glyph glyph-name="quotedblright" unicode="&#x201d;" horiz-adv-x="817" 
d="M37 458q23 24 44 51.5t30 44.5q-4 4 -14.5 13t-21.5 22.5t-19.5 33t-8.5 45.5t10 49t27 40t40 27t49 10q25 0 47.5 -9.5t39.5 -27t27.5 -42.5t10.5 -57q0 -61 -49 -129.5t-134 -146.5zM306 458q23 24 44 51.5t30 44.5q-4 4 -14.5 13t-21.5 22.5t-19.5 33t-8.5 45.5t10 49
t27 40t40 27t49 10q25 0 47.5 -9.5t39.5 -27t27.5 -42.5t10.5 -57q0 -61 -49 -129.5t-134 -146.5z" />
    <glyph glyph-name="quotedblbase" unicode="&#x201e;" horiz-adv-x="822" 
d="M25 -101q23 24 44 51.5t30 44.5q-4 4 -14.5 13t-21.5 22.5t-19.5 33t-8.5 45.5t10 49t27 40t40 27t49 10q25 0 47.5 -9.5t39.5 -27t27.5 -42.5t10.5 -57q0 -61 -49 -129.5t-134 -146.5zM294 -101q23 24 44 51.5t30 44.5q-4 4 -14.5 13t-21.5 22.5t-19.5 33t-8.5 45.5
t10 49t27 40t40 27t49 10q25 0 47.5 -9.5t39.5 -27t27.5 -42.5t10.5 -57q0 -61 -49 -129.5t-134 -146.5z" />
    <glyph glyph-name="dagger" unicode="&#x2020;" horiz-adv-x="719" 
d="M118 668q0 26 10 49t27 40t40 27t49 10t49 -10t40 -27t27 -40t10 -49q0 -25 -9 -47t-25 -39v-54h116v-150h-116v-525h-182v525h-117v150h117v52q-36 36 -36 88z" />
    <glyph glyph-name="daggerdbl" unicode="&#x2021;" horiz-adv-x="725" 
d="M121 668q0 26 10 49t27 40t40 27t49 10t49 -10t40 -27t27 -40t10 -49q0 -25 -9 -47t-25 -39v-54h116v-150h-116v-60h116v-150h-116v-315h-182v315h-117v150h117v60h-117v150h117v52q-36 36 -36 88z" />
    <glyph glyph-name="bullet" unicode="&#x2022;" horiz-adv-x="682" 
d="M67 325q0 32 12.5 60.5t34.5 50.5t51 34.5t61 12.5q33 0 62 -12.5t50.5 -34.5t34.5 -50.5t13 -60.5q0 -33 -13 -62.5t-34.5 -51t-50.5 -34.5t-62 -13q-32 0 -61 13t-51 34.5t-34.5 51t-12.5 62.5z" />
    <glyph glyph-name="ellipsis" unicode="&#x2026;" horiz-adv-x="1122" 
d="M34 109q0 26 10 49t27 40t40 27t49 10t49 -10t40 -27t27 -40t10 -49t-10 -49t-27 -40t-40 -27t-49 -10t-49 10t-40 27t-27 40t-10 49zM322 109q0 26 10 49t27 40t40 27t49 10t49 -10t40 -27t27 -40t10 -49t-10 -49t-27 -40t-40 -27t-49 -10t-49 10t-40 27t-27 40t-10 49z
M606 109q0 26 10 49t27 40t40 27t49 10t49 -10t40 -27t27 -40t10 -49t-10 -49t-27 -40t-40 -27t-49 -10t-49 10t-40 27t-27 40t-10 49z" />
    <glyph glyph-name="perthousand" unicode="&#x2030;" horiz-adv-x="1783" 
d="M35 576q0 45 17 85t47 70t70 47t85 17t85 -17t69.5 -47t47 -70t17.5 -85t-17.5 -85t-47 -69.5t-69.5 -46.5t-85 -17t-85 17t-70 46.5t-47 69.5t-17 85zM202 576q0 -22 15 -37t37 -15t37.5 15t15.5 37t-15.5 37.5t-37.5 15.5t-37 -15.5t-15 -37.5zM619 200q0 45 17 85
t47 70t70 47t85 17t85 -17t69.5 -47t47 -70t17.5 -85t-17.5 -85t-47 -69.5t-69.5 -46.5t-85 -17t-85 17t-70 46.5t-47 69.5t-17 85zM786 200q0 -22 15 -37t37 -15t37.5 15t15.5 37t-15.5 37.5t-37.5 15.5t-37 -15.5t-15 -37.5zM158 0l562 780h217l-562 -780h-217zM1082 200
q0 45 17 85t47 70t70 47t85 17t85 -17t69.5 -47t47 -70t17.5 -85t-17.5 -85t-47 -69.5t-69.5 -46.5t-85 -17t-85 17t-70 46.5t-47 69.5t-17 85zM1249 200q0 -22 15 -37t37 -15t37.5 15t15.5 37t-15.5 37.5t-37.5 15.5t-37 -15.5t-15 -37.5z" />
    <glyph glyph-name="guilsinglleft" unicode="&#x2039;" horiz-adv-x="627" 
d="M48 443l283 251v-236l-104 -92l104 -93v-235l-283 250v155z" />
    <glyph glyph-name="guilsinglright" unicode="&#x203a;" horiz-adv-x="627" 
d="M349 289l-283 -251v236l104 92l-104 93v235l283 -250v-155z" />
    <glyph glyph-name="Euro" unicode="&#x20ac;" horiz-adv-x="1140" 
d="M873 209q-26 -50 -64 -91t-86 -70.5t-104 -46t-116 -16.5q-64 0 -123.5 18.5t-109.5 52.5t-89 80.5t-62 102.5h-77v130h48q-1 5 -1 10.5v10.5v13h-47v130h74q22 57 61 105.5t89.5 83t111 54t125.5 19.5q60 0 115.5 -16.5t103.5 -45.5t86 -70t64 -90l-182 -82
q-26 50 -75.5 80.5t-111.5 30.5q-47 0 -87.5 -18.5t-69.5 -50.5h222v-130h-277q-1 -4 -0.5 -7t0.5 -6v-10.5t1 -10.5h234v-130h-172q29 -29 67 -45t82 -16q63 0 112 30.5t75 80.5z" />
    <glyph glyph-name="trademark" unicode="&#x2122;" horiz-adv-x="1099" 
d="M668 448v116l-46 -81h-45l-45 80v-115h-140v332h145l62 -113l64 113h144v-332h-139zM41 780h324v-138h-92v-194h-140v194h-92v138z" />
    </font>
</defs>
</svg>
