<?xml version="1.0" standalone="no"?>
<!DOCTYPE svg PUBLIC "-//W3C//DTD SVG 1.1//EN" "http://www.w3.org/Graphics/SVG/1.1/DTD/svg11.dtd" >
<svg xmlns="http://www.w3.org/2000/svg" xmlns:xlink="http://www.w3.org/1999/xlink" version="1.1">
<metadata>
Created by FontForge 20200427 at Wed May 11 17:59:48 2016
 By www
Copyright (c) 2016 Monotype Imaging Inc.  All rights reserved.
</metadata>
<defs>
<font id="Posterama2001W04-Bold" horiz-adv-x="660" >
  <font-face 
    font-family="Posterama2001W04-Bold"
    font-weight="700"
    font-stretch="normal"
    units-per-em="1000"
    panose-1="2 11 8 4 2 2 0 2 0 0"
    ascent="800"
    descent="-200"
    x-height="700"
    cap-height="700"
    bbox="-347 -288 1685 1045"
    underline-thickness="50"
    underline-position="-125"
    unicode-range="U+000D-FEFF"
  />
<missing-glyph horiz-adv-x="1037" 
d="M999 216.5q-24 -39.5 -68.5 -60.5t-104.5 -21q-30 0 -30 30v318q0 80 -37.5 142.5t-101.5 97.5t-139 35t-138.5 -35t-101.5 -97.5t-38 -142.5v-318q0 -30 -29 -30q-60 0 -104.5 21t-68.5 60.5t-24 92.5q0 52 18 89.5t48.5 58.5t69.5 26q0 100 50.5 182.5t135 130.5
t182.5 48t183 -48t135.5 -130.5t50.5 -182.5q39 -5 69.5 -26t48.5 -58.5t18 -89.5q0 -53 -24 -92.5zM454 114l-2 55q-1 44 -8.5 77t-17 55.5t-24.5 52.5q-13 26 -20.5 43t-12.5 39.5t-5 51.5q0 43 20.5 78.5t56 56.5t77.5 21q43 0 78.5 -21t56 -56.5t20.5 -78.5
q0 -29 -5 -51.5t-12 -39.5t-20 -43q-15 -30 -24.5 -52.5t-17 -55.5t-8.5 -77l-2 -55q-2 -29 -29 -29h-72q-27 0 -29 29zM559 -125h-80q-35 0 -35 35v80q0 35 35 35h80q35 0 35 -35v-80q0 -35 -35 -35z" />
    <glyph glyph-name="uniFB00" unicode="ff" horiz-adv-x="1144" 
d="M806 6.5q-6 -6.5 -20 -6.5h-121q-27 0 -27 26v221h-374q-9 0 -12 -3.5t-3 -11.5v-206q0 -14 -6.5 -20t-20.5 -6h-121q-13 0 -19.5 6.5t-6.5 19.5v648q0 14 6.5 20t19.5 6h423q14 0 20 -6t6 -20v-108q0 -14 -6 -20t-20 -6h-260q-9 0 -12 -3.5t-3 -11.5v-103q0 -9 3 -12
t12 -3h374v267q0 26 27 26h423q14 0 20 -6t6 -20v-108q0 -14 -6 -20t-20 -6h-260q-9 0 -12.5 -3.5t-3.5 -11.5v-103q0 -9 3.5 -12t12.5 -3h226q14 0 20 -6.5t6 -20.5v-107q0 -13 -6 -19.5t-20 -6.5h-226q-9 0 -12.5 -3.5t-3.5 -11.5v-206q0 -13 -6 -19.5z" />
    <glyph glyph-name="uniFB01" unicode="fi" horiz-adv-x="908" 
d="M242.5 6q-6.5 -6 -20.5 -6h-121q-13 0 -19.5 6.5t-6.5 19.5v648q0 14 6.5 20t19.5 6h426q27 0 27 -26v-108q0 -14 -6.5 -20t-20.5 -6h-263q-9 0 -12 -3.5t-3 -11.5v-103q0 -9 3 -12t12 -3h229q14 0 20.5 -6.5t6.5 -20.5v-107q0 -14 -6.5 -20t-20.5 -6h-229q-9 0 -12 -3.5
t-3 -11.5v-206q0 -14 -6.5 -20zM826.5 6q-6.5 -6 -20.5 -6h-121q-13 0 -19.5 6.5t-6.5 19.5v648q0 14 6.5 20t19.5 6h121q14 0 20.5 -6t6.5 -20v-648q0 -14 -6.5 -20z" />
    <glyph glyph-name="uniFB02" unicode="fl" horiz-adv-x="1156" 
d="M242.5 6q-6.5 -6 -20.5 -6h-121q-13 0 -19.5 6.5t-6.5 19.5v648q0 14 6.5 20t19.5 6h426q27 0 27 -26v-108q0 -14 -6.5 -20t-20.5 -6h-263q-9 0 -12 -3.5t-3 -11.5v-103q0 -9 3 -12t12 -3h229q14 0 20.5 -6.5t6.5 -20.5v-107q0 -14 -6.5 -20t-20.5 -6h-229q-9 0 -12 -3.5
t-3 -11.5v-206q0 -14 -6.5 -20zM836 159.5q3 -3.5 12 -3.5h257q14 0 20 -6t6 -20v-104q0 -13 -6 -19.5t-20 -6.5h-420q-13 0 -19.5 6.5t-6.5 19.5v648q0 14 6.5 20t19.5 6h121q14 0 20.5 -6t6.5 -20v-503q0 -8 3 -11.5z" />
    <glyph glyph-name="uniFB03" unicode="ffi" horiz-adv-x="1462" 
d="M806 6.5q-6 -6.5 -20 -6.5h-121q-27 0 -27 26v221h-374q-9 0 -12 -3.5t-3 -11.5v-206q0 -14 -6.5 -20t-20.5 -6h-121q-13 0 -19.5 6.5t-6.5 19.5v648q0 14 6.5 20t19.5 6h423q14 0 20 -6t6 -20v-108q0 -14 -6 -20t-20 -6h-260q-9 0 -12 -3.5t-3 -11.5v-103q0 -9 3 -12
t12 -3h374v267q0 26 27 26h423q14 0 20 -6t6 -20v-108q0 -14 -6 -20t-20 -6h-260q-9 0 -12.5 -3.5t-3.5 -11.5v-103q0 -9 3.5 -12t12.5 -3h226q14 0 20 -6.5t6 -20.5v-107q0 -13 -6 -19.5t-20 -6.5h-226q-9 0 -12.5 -3.5t-3.5 -11.5v-206q0 -13 -6 -19.5zM1380.5 6
q-6.5 -6 -20.5 -6h-121q-13 0 -19.5 6.5t-6.5 19.5v648q0 14 6.5 20t19.5 6h121q14 0 20.5 -6t6.5 -20v-648q0 -14 -6.5 -20z" />
    <glyph glyph-name="uniFB04" unicode="ffl" horiz-adv-x="1710" 
d="M806 6.5q-6 -6.5 -20 -6.5h-121q-27 0 -27 26v221h-374q-9 0 -12 -3.5t-3 -11.5v-206q0 -14 -6.5 -20t-20.5 -6h-121q-13 0 -19.5 6.5t-6.5 19.5v648q0 14 6.5 20t19.5 6h423q14 0 20 -6t6 -20v-108q0 -14 -6 -20t-20 -6h-260q-9 0 -12 -3.5t-3 -11.5v-103q0 -9 3 -12
t12 -3h374v267q0 26 27 26h423q14 0 20 -6t6 -20v-108q0 -14 -6 -20t-20 -6h-260q-9 0 -12.5 -3.5t-3.5 -11.5v-103q0 -9 3.5 -12t12.5 -3h226q14 0 20 -6.5t6 -20.5v-107q0 -13 -6 -19.5t-20 -6.5h-226q-9 0 -12.5 -3.5t-3.5 -11.5v-206q0 -13 -6 -19.5zM1390 159.5
q3 -3.5 12 -3.5h257q14 0 20 -6t6 -20v-104q0 -13 -6 -19.5t-20 -6.5h-420q-13 0 -19.5 6.5t-6.5 19.5v648q0 14 6.5 20t19.5 6h121q14 0 20.5 -6t6.5 -20v-503q0 -8 3 -11.5z" />
    <glyph glyph-name="uniFDFC" unicode="&#xfdfc;" horiz-adv-x="1005" arabic-form="isolated" 
d="M100 311v-14q0 -61 33 -94.5t93 -33.5q66 0 99.5 48.5t33.5 160.5v322h58v-424q0 -150 -54.5 -213t-137.5 -63q-80 0 -131.5 55.5t-51.5 180.5v75h58zM573 700v-264q0 -58 9.5 -89.5t29.5 -44.5t54 -13q47 0 70 25.5t23 82.5v14h58v-50q0 -130 -42.5 -186t-108.5 -56
q-67 0 -109 49t-42 165v367h58zM620.5 -68.5q35.5 -4.5 68.5 -4.5q111 0 168.5 57.5t57.5 184.5v43h58v-75q0 -185 -65 -282.5t-191 -97.5q-21 0 -44.5 3t-36.5 7l-82 178q31 -9 66.5 -13.5zM539 75.5q16 15.5 38 15.5q23 0 39 -15.5t16 -39.5q0 -22 -16 -37.5t-39 -15.5
q-22 0 -38 15.5t-16 37.5q0 24 16 39.5zM716 75.5q16 15.5 38 15.5q23 0 39 -15.5t16 -39.5q0 -22 -16 -37.5t-39 -15.5q-22 0 -38 15.5t-16 37.5q0 24 16 39.5z" />
    <glyph glyph-name=".notdef" horiz-adv-x="1037" 
d="M999 216.5q-24 -39.5 -68.5 -60.5t-104.5 -21q-30 0 -30 30v318q0 80 -37.5 142.5t-101.5 97.5t-139 35t-138.5 -35t-101.5 -97.5t-38 -142.5v-318q0 -30 -29 -30q-60 0 -104.5 21t-68.5 60.5t-24 92.5q0 52 18 89.5t48.5 58.5t69.5 26q0 100 50.5 182.5t135 130.5
t182.5 48t183 -48t135.5 -130.5t50.5 -182.5q39 -5 69.5 -26t48.5 -58.5t18 -89.5q0 -53 -24 -92.5zM454 114l-2 55q-1 44 -8.5 77t-17 55.5t-24.5 52.5q-13 26 -20.5 43t-12.5 39.5t-5 51.5q0 43 20.5 78.5t56 56.5t77.5 21q43 0 78.5 -21t56 -56.5t20.5 -78.5
q0 -29 -5 -51.5t-12 -39.5t-20 -43q-15 -30 -24.5 -52.5t-17 -55.5t-8.5 -77l-2 -55q-2 -29 -29 -29h-72q-27 0 -29 29zM559 -125h-80q-35 0 -35 35v80q0 35 35 35h80q35 0 35 -35v-80q0 -35 -35 -35z" />
    <glyph glyph-name="glyph1" horiz-adv-x="0" 
 />
    <glyph glyph-name="glyph1" horiz-adv-x="0" 
 />
    <glyph glyph-name="uni000D" unicode="&#xd;" horiz-adv-x="275" 
 />
    <glyph glyph-name="space" unicode=" " horiz-adv-x="275" 
 />
    <glyph glyph-name="exclam" unicode="!" horiz-adv-x="296" 
d="M87.5 203.5q-6.5 6.5 -8.5 24.5l-29 432q-2 22 6 31t30 9h124q22 0 30 -9t6 -31l-29 -432q-1 -18 -7.5 -24.5t-23.5 -6.5h-76q-16 0 -22.5 6.5zM63.5 116.5q12.5 19.5 34.5 31t50 11.5t50 -11.5t34 -31t12 -44.5q0 -24 -12 -43.5t-34 -30.5t-50 -11t-50 11t-34.5 30.5
t-12.5 43.5q0 25 12.5 44.5z" />
    <glyph glyph-name="quotedbl" unicode="&#x22;" horiz-adv-x="415" 
d="M186.5 707.5q6.5 -5.5 6.5 -18.5l-1 -10l-16 -154q-1 -13 -7 -19t-18 -6h-67q-13 0 -18.5 5.5t-7.5 19.5l-16 154l-1 10q0 13 6.5 18.5t22.5 5.5h94q16 0 22.5 -5.5zM368.5 705.5q6.5 -7.5 4.5 -26.5l-17 -154q-2 -14 -7 -19.5t-18 -5.5h-67q-13 0 -18.5 5.5t-7.5 19.5
l-15 154q-2 19 4 26.5t23 7.5h94q18 0 24.5 -7.5z" />
    <glyph glyph-name="numbersign" unicode="#" 
d="M453 676q3 14 9.5 19t20.5 5h76q12 0 18 -4.5t6 -14.5q0 -6 -1 -10l-33 -137h59q14 0 20.5 -6t6.5 -20v-71q0 -14 -6.5 -20.5t-20.5 -6.5h-85l-29 -120h75q14 0 20.5 -6.5t6.5 -20.5v-71q0 -26 -27 -26h-100l-34 -142q-3 -14 -9.5 -19t-21.5 -5h-76q-12 0 -17.5 4
t-5.5 14q0 7 1 11l33 137h-100l-34 -142q-3 -13 -10 -18.5t-21 -5.5h-76q-12 0 -17.5 4t-5.5 14q0 7 1 11l33 137h-58q-13 0 -19.5 6.5t-6.5 19.5v71q0 14 6 20.5t20 6.5h84l28 120h-73q-14 0 -20 6.5t-6 20.5v71q0 14 6.5 20t19.5 6h98l35 142q3 14 9 19t21 5h76
q12 0 17.5 -4t5.5 -14q0 -7 -1 -11l-33 -137h100zM365 290l29 120h-101l-29 -120h101z" />
    <glyph glyph-name="dollar" unicode="$" 
d="M334 704l24 -1v66q0 15 4 20.5t16 5.5t16 -5.5t4 -20.5v-69q48 -5 96.5 -23t90.5 -45q8 -5 12 -10t4 -12q0 -8 -8 -22l-45 -75q-5 -9 -9.5 -12.5t-9.5 -3.5t-19 7q-57 32 -112 42v-127q117 -18 171.5 -66t54.5 -134q0 -55 -29 -101.5t-80.5 -77t-116.5 -39.5v-70
q0 -15 -4 -20.5t-16 -5.5t-16 5.5t-4 20.5v66l-24 -1l-24 1v-66q0 -15 -4 -20.5t-16 -5.5t-16 5.5t-4 20.5v68q-121 11 -217 74q-16 10 -16 23q0 9 7 20l48 80q6 9 10 13t10 4q7 0 18 -8q29 -20 65 -34t75 -19v130q-115 18 -170.5 65.5t-55.5 136.5q0 58 28 103.5t79 74.5
t119 38v69q0 15 4 20.5t16 5.5t16 -5.5t4 -20.5v-66zM358 551l-24 1l-24 -1v-119l48 -7v126zM222.5 458.5q14.5 -12.5 47.5 -19.5v108q-31 -6 -46.5 -20.5t-15.5 -33.5q0 -22 14.5 -34.5zM310 149l24 -1l24 1v121l-48 7v-128zM445.5 243q-14.5 13 -47.5 20v-109
q30 6 46 20.5t16 35.5q0 20 -14.5 33z" />
    <glyph glyph-name="percent" unicode="%" horiz-adv-x="859" 
d="M108 359.5q-40 22.5 -62.5 64t-22.5 98.5q0 58 22 101.5t63 66.5t95 23q53 0 93 -22.5t62.5 -64t22.5 -98.5q0 -59 -22.5 -102t-63 -66t-94.5 -23q-53 0 -93 22.5zM208 -9q-7 -4 -23 -4h-88q-19 0 -19 12q0 4 3.5 10t9.5 13l542 670q10 13 17.5 17t23.5 4h88q19 0 19 -12
q0 -4 -3.5 -10t-9.5 -13l-542 -670q-11 -13 -18 -17zM246 469q16 20 16 56t-16 56t-44 20q-29 0 -44.5 -20t-15.5 -56q0 -37 15.5 -56.5t44.5 -19.5q28 0 44 20zM563 9.5q-40 22.5 -62.5 64t-22.5 98.5q0 59 22.5 102t63 66t94.5 23q53 0 93 -22.5t62.5 -64t22.5 -98.5
q0 -58 -22.5 -101.5t-63 -66.5t-94.5 -23q-53 0 -93 22.5zM701 119.5q16 20.5 16 55.5q0 37 -15.5 56.5t-44.5 19.5t-44.5 -20t-15.5 -56t16 -56t44 -20t44 20.5z" />
    <glyph glyph-name="ampersand" unicode="&#x26;" horiz-adv-x="750" 
d="M146.5 612q28.5 46 82 73.5t126.5 27.5q71 0 122.5 -24.5t78.5 -67.5t27 -98q0 -127 -152 -193l71 -71q19 17 39 44t34 53q10 19 23 19q9 0 20 -7l85 -55q8 -5 12 -11t4 -13q0 -6 -7 -22q-16 -31 -44.5 -67t-52.5 -57l110 -112q10 -10 10 -18q0 -6 -6 -9.5t-16 -3.5h-145
q-16 0 -23.5 3.5t-18.5 14.5l-35 35q-47 -34 -98.5 -52t-112.5 -18q-80 0 -136.5 26.5t-85 74t-28.5 110.5q0 66 36.5 114.5t101.5 74.5q-24 28 -37 60t-13 70q0 53 28.5 99zM400 552.5q-15 16.5 -45 16.5t-46.5 -17t-16.5 -42q0 -42 46 -82q37 13 57 34t20 49
q0 25 -15 41.5zM220 174.5q10 -17.5 28.5 -27.5t43.5 -10q26 0 47 7t39 21l-113 118q-26 -11 -40.5 -28.5t-14.5 -42.5q0 -20 10 -37.5z" />
    <glyph glyph-name="quotesingle" unicode="'" horiz-adv-x="234" 
d="M186.5 707.5q6.5 -5.5 6.5 -18.5l-1 -10l-16 -154q-1 -13 -7 -19t-18 -6h-67q-13 0 -18.5 5.5t-7.5 19.5l-16 154l-1 10q0 13 6.5 18.5t22.5 5.5h94q16 0 22.5 -5.5z" />
    <glyph glyph-name="parenleft" unicode="(" horiz-adv-x="389" 
d="M81 614.5q56 126.5 150 227.5q15 17 28 17q10 0 23 -10l70 -52q14 -10 14 -20q0 -8 -12 -22q-74 -83 -118 -187t-44 -218t44 -218t118 -187q12 -14 12 -22q0 -10 -14 -20l-70 -52q-13 -10 -23 -10q-13 0 -28 17q-93 101 -149.5 226.5t-56.5 262.5q0 141 56 267.5z" />
    <glyph glyph-name="parenright" unicode=")" horiz-adv-x="389" 
d="M308 85.5q-56 -126.5 -150 -227.5q-15 -17 -28 -17q-10 0 -23 10l-69 52q-8 6 -11 11t-3 10q0 8 11 21q75 84 118.5 188t43.5 217t-43.5 217t-118.5 188q-11 13 -11 21q0 5 3.5 10t10.5 11l69 52q13 10 23 10q13 0 28 -17q93 -101 149.5 -226.5t56.5 -262.5
q0 -141 -56 -267.5z" />
    <glyph glyph-name="asterisk" unicode="*" horiz-adv-x="481" 
d="M299 695q6 -5 6 -16l-1 -9l-12 -100l90 42q12 6 19 6q12 0 18 -19l25 -75q3 -7 3 -13q0 -9 -5.5 -13.5t-18.5 -6.5l-99 -19l69 -73q11 -11 11 -20q0 -11 -14 -20l-64 -46q-10 -7 -17 -7q-6 0 -10.5 4t-9.5 13l-49 88l-48 -88q-10 -17 -20 -17q-8 0 -18 7l-63 46
q-14 10 -14 20q0 9 11 20l68 73l-98 19q-13 2 -18.5 6.5t-5.5 13.5q0 6 3 13l24 75q3 10 7 14.5t11 4.5t19 -6l91 -42l-12 100q-1 4 -1 10q0 11 5.5 15.5t19.5 4.5h79q13 0 19 -5z" />
    <glyph glyph-name="plus" unicode="+" 
d="M62 257q-6 6 -6 20v86q0 14 6 20t20 6h164q8 0 11.5 3.5t3.5 12.5v163q0 14 6.5 20t19.5 6h85q14 0 20.5 -6t6.5 -20v-163q0 -9 3 -12.5t12 -3.5h163q14 0 20.5 -6t6.5 -20v-86q0 -14 -6.5 -20t-20.5 -6h-163q-9 0 -12 -3.5t-3 -12.5v-163q0 -14 -6.5 -20t-20.5 -6h-85
q-13 0 -19.5 6.5t-6.5 19.5v163q0 9 -3.5 12.5t-11.5 3.5h-164q-14 0 -20 6z" />
    <glyph glyph-name="comma" unicode="," horiz-adv-x="283" 
d="M211.5 140.5q26.5 -25.5 26.5 -69.5q0 -27 -9 -55t-29 -65l-33 -62q-8 -15 -16.5 -20t-26.5 -5h-50q-23 0 -23 14q0 6 6 17l52 94q-27 7 -45.5 28.5t-18.5 56.5q0 26 12.5 47t34.5 33t49 12q44 0 70.5 -25.5z" />
    <glyph glyph-name="hyphen" unicode="-" horiz-adv-x="468" 
d="M391 274h-315q-13 0 -19.5 6.5t-6.5 19.5v83q0 14 6 20.5t20 6.5h315q14 0 20.5 -6.5t6.5 -20.5v-83q0 -26 -27 -26z" />
    <glyph glyph-name="period" unicode="." horiz-adv-x="283" 
d="M57.5 122.5q12.5 20.5 34.5 32t50 11.5t50 -11.5t34 -32t12 -46.5q0 -25 -12 -45t-34 -31.5t-50 -11.5t-50 11.5t-34.5 31.5t-12.5 45q0 26 12.5 46.5z" />
    <glyph glyph-name="slash" unicode="/" horiz-adv-x="458" 
d="M301.5 708.5q6.5 4.5 23.5 4.5h109q20 0 20 -14q0 -4 -3 -12l-281 -676q-7 -15 -14 -19.5t-23 -4.5h-109q-20 0 -20 14q0 5 3 12l282 676q6 15 12.5 19.5z" />
    <glyph glyph-name="zero" unicode="0" 
d="M66 541q36 83 104 127.5t160 44.5t160 -43.5t104 -124.5t36 -191q0 -113 -36 -196t-104 -127t-160 -44t-160 43t-104 123.5t-36 191.5q0 113 36 196zM241 200.5q31 -53.5 89 -53.5q38 0 65 25t41 71t14 107q0 96 -31 149.5t-89 53.5t-89 -54t-31 -150q0 -95 31 -148.5z
" />
    <glyph glyph-name="one" unicode="1" horiz-adv-x="439" 
d="M323 6.5q-6 -6.5 -20 -6.5h-121q-14 0 -20.5 6t-6.5 20v498q0 9 -3.5 12.5t-12.5 3.5h-83q-13 0 -19.5 6.5t-6.5 19.5v108q0 14 6.5 20t19.5 6h247q14 0 20 -6t6 -20v-648q0 -13 -6 -19.5z" />
    <glyph glyph-name="two" unicode="2" 
d="M598.5 6q-6.5 -6 -20.5 -6h-521q-13 0 -20 4t-7 11q0 11 15 26l227 236q45 46 70.5 77t39 57.5t13.5 51.5q0 42 -29.5 66t-79.5 24q-39 0 -72 -12.5t-69 -38.5q-12 -9 -20 -9q-11 0 -19 14l-50 78q-9 14 -9 22q0 11 15 23q106 83 239 83q80 0 142 -29.5t97 -83t35 -122.5
q0 -41 -12 -75t-39 -71t-77 -91l-76 -81h207q14 -1 20.5 -7t6.5 -19v-108q0 -14 -6.5 -20z" />
    <glyph glyph-name="three" unicode="3" 
d="M373.5 158.5q32.5 11.5 51 32.5t18.5 49q0 46 -46.5 69.5t-144.5 23.5q-30 0 -30 16q0 7 8 20l113 171h-241q-14 1 -20 7t-6 19v108q0 14 6.5 20t19.5 6h487q13 0 20 -4t7 -12t-10 -25l-150 -223q80 -17 123.5 -66.5t43.5 -126.5q0 -71 -38.5 -129.5t-111 -92.5
t-169.5 -34q-154 0 -260 84q-8 7 -11.5 12.5t-3.5 11.5q0 9 6 19l51 85q9 15 20 15q8 0 19 -8q80 -59 175 -59q41 0 73.5 11.5z" />
    <glyph glyph-name="four" unicode="4" 
d="M611 272q16 0 22.5 -6.5t6.5 -21.5v-96q0 -15 -6.5 -21.5t-22.5 -6.5h-75v-92q0 -15 -6.5 -21.5t-21.5 -6.5h-118q-15 0 -21.5 6.5t-6.5 21.5v92h-302q-27 0 -41 12.5t-14 28.5q0 13 6.5 25.5t21.5 30.5l374 445q25 30 42.5 42.5t35.5 12.5q24 0 37.5 -16.5t13.5 -50.5
v-378h75zM369 421l-125 -149h125v149z" />
    <glyph glyph-name="five" unicode="5" 
d="M268.5 536.5q-3.5 -3.5 -4.5 -12.5l-5 -74q47 11 100 11q81 0 138.5 -27.5t87.5 -78t30 -116.5q0 -71 -36 -128t-107.5 -90.5t-173.5 -33.5q-137 0 -241 70q-9 6 -12.5 11t-3.5 12q0 10 7 23l43 80q9 18 20 18q7 0 20 -8q35 -21 77 -33.5t90 -12.5q65 0 101 21.5t36 60.5
q0 80 -142 80q-44 0 -90 -7.5t-84 -18.5q-9 -3 -15 -3q-9 0 -13 6.5t-3 19.5l21 360q1 19 9 26.5t26 7.5h404q14 0 20.5 -6t6.5 -20v-108q0 -14 -6.5 -20t-20.5 -6h-267q-9 0 -12.5 -3.5z" />
    <glyph glyph-name="six" unicode="6" 
d="M280 695q9 5 28 5h146q11 0 16.5 -3.5t5.5 -8.5q0 -7 -8 -18l-139 -176q21 6 45 6q73 0 130 -29.5t89 -84.5t32 -130q0 -78 -38.5 -139t-105.5 -95.5t-151 -34.5t-148.5 31t-100.5 89.5t-36 137.5q0 45 9 84.5t30.5 82t59.5 96.5l115 165q12 17 21 22zM239 195
q14 -23 38.5 -35.5t55.5 -12.5q33 0 58.5 13t39.5 36t14 54q0 29 -14 51.5t-38.5 35.5t-56.5 13q-33 0 -58 -13t-39 -36t-14 -53t14 -53z" />
    <glyph glyph-name="seven" unicode="7" 
d="M319 6q-9 -6 -26 -6h-124q-13 0 -19.5 3.5t-6.5 12.5t5 19l239 505h-313q-15 0 -22 6.5t-7 22.5v103q0 15 7 21.5t22 6.5h527q29 0 29 -17q0 -9 -6 -21l-288 -632q-8 -18 -17 -24z" />
    <glyph glyph-name="eight" unicode="8" 
d="M471 687.5q58 -26.5 88.5 -73.5t30.5 -108q0 -52 -20.5 -88t-58.5 -56q51 -21 80 -62.5t29 -96.5q0 -72 -38 -121t-104.5 -72.5t-152.5 -23.5q-83 0 -147.5 23.5t-101 71.5t-36.5 118q0 58 28.5 99t80.5 64q-38 20 -58.5 55.5t-20.5 88.5q0 61 32 108t91.5 73.5
t140.5 26.5q79 0 137 -26.5zM267.5 544.5q-23.5 -17.5 -23.5 -49.5t22.5 -50t63.5 -18q39 0 62.5 17.5t23.5 49.5t-22.5 50t-63.5 18q-39 0 -62.5 -17.5zM411 266q-30 20 -81 20q-50 0 -80 -20t-30 -54q0 -35 27.5 -54.5t81.5 -19.5t83 20t29 54t-30 54z" />
    <glyph glyph-name="nine" unicode="9" 
d="M380 5q-9 -5 -28 -5h-146q-11 0 -16.5 3.5t-5.5 8.5q0 7 8 18l139 176q-21 -6 -45 -6q-73 0 -130 29.5t-89 84.5t-32 130q0 78 38.5 139t105.5 95.5t151 34.5t148.5 -31t100.5 -89.5t36 -137.5q0 -45 -9 -84.5t-30.5 -82t-59.5 -96.5l-115 -165q-12 -17 -21 -22zM421 505
q-14 23 -38.5 35.5t-55.5 12.5q-33 0 -58.5 -13t-39.5 -36t-14 -54q0 -29 14 -51.5t38.5 -35.5t56.5 -13q33 0 58 13t39 36t14 53t-14 53z" />
    <glyph glyph-name="colon" unicode=":" horiz-adv-x="283" 
d="M57.5 476.5q12.5 20.5 34.5 32t50 11.5t50 -11.5t34 -32t12 -46.5q0 -25 -12 -45t-34 -31.5t-50 -11.5t-50 11.5t-34.5 31.5t-12.5 45q0 26 12.5 46.5zM57.5 122.5q12.5 20.5 34.5 32t50 11.5t50 -11.5t34 -32t12 -46.5q0 -25 -12 -45t-34 -31.5t-50 -11.5t-50 11.5
t-34.5 31.5t-12.5 45q0 26 12.5 46.5z" />
    <glyph glyph-name="semicolon" unicode=";" horiz-adv-x="283" 
d="M211.5 140.5q26.5 -25.5 26.5 -69.5q0 -27 -9 -55t-29 -65l-33 -62q-8 -15 -16.5 -20t-26.5 -5h-50q-23 0 -23 14q0 6 6 17l52 94q-27 7 -45.5 28.5t-18.5 56.5q0 26 12.5 47t34.5 33t49 12q44 0 70.5 -25.5zM57.5 476.5q12.5 20.5 34.5 32t50 11.5t50 -11.5t34 -32
t12 -46.5q0 -25 -12 -45t-34 -31.5t-50 -11.5t-50 11.5t-34.5 31.5t-12.5 45q0 26 12.5 46.5z" />
    <glyph glyph-name="less" unicode="&#x3c;" 
d="M542 170q5 -8 5 -24v-95q0 -23 -15 -23q-5 0 -17 5l-422 223q-14 7 -18.5 14.5t-4.5 22.5v54q0 15 4.5 22.5t18.5 14.5l422 223q12 5 17 5q15 0 15 -23v-95q0 -16 -5 -24t-21 -16l-263 -134l263 -134q16 -8 21 -16z" />
    <glyph glyph-name="equal" unicode="=" 
d="M592 373.5q-6 -6.5 -20 -6.5h-483q-14 0 -20.5 6.5t-6.5 20.5v85q0 26 27 26h483q14 0 20 -6t6 -20v-85q0 -14 -6 -20.5zM592 141.5q-6 -6.5 -20 -6.5h-483q-27 0 -27 26v85q0 14 6.5 20.5t20.5 6.5h483q14 0 20 -6.5t6 -20.5v-85q0 -13 -6 -19.5z" />
    <glyph glyph-name="greater" unicode="&#x3e;" 
d="M118 470q-5 8 -5 24v95q0 23 15 23q5 0 17 -5l422 -223q14 -7 18.5 -14.5t4.5 -22.5v-54q0 -15 -4.5 -22.5t-18.5 -14.5l-422 -223q-12 -5 -17 -5q-15 0 -15 23v95q0 16 5 24t21 16l263 134l-263 134q-16 8 -21 16z" />
    <glyph glyph-name="question" unicode="?" horiz-adv-x="572" 
d="M174.5 203.5q-6.5 6.5 -6.5 19.5v15q0 38 7 62.5t26 46.5t58 47q36 23 55 38t28.5 29t9.5 31q0 29 -25 45t-68 16q-39 0 -73 -13t-68 -37q-12 -9 -20 -9q-11 0 -19 14l-50 78q-9 14 -9 22q0 11 15 23q104 82 232 82q78 0 138 -25.5t93.5 -72.5t33.5 -109
q0 -60 -30.5 -104.5t-100.5 -86.5q-25 -15 -37.5 -28t-17 -26.5t-4.5 -32.5v-5q0 -14 -6 -20t-19 -6h-123q-13 0 -19.5 6.5zM169.5 116.5q12.5 19.5 34.5 31t50 11.5t50 -11.5t34 -31t12 -44.5q0 -24 -12 -43.5t-34 -30.5t-50 -11t-50 11t-34.5 30.5t-12.5 43.5
q0 25 12.5 44.5z" />
    <glyph glyph-name="at" unicode="@" horiz-adv-x="1000" 
d="M233 -146q-92 50 -145 146t-53 228q0 138 60.5 248.5t170 174t252.5 63.5q142 0 243 -53.5t152.5 -142.5t51.5 -195q0 -96 -32.5 -166.5t-88 -107.5t-120.5 -37q-54 0 -91.5 26t-55.5 73q-68 -87 -165 -87q-45 0 -81 23t-56.5 66t-20.5 99q0 70 30 136t82.5 107.5
t114.5 41.5q41 0 69.5 -16.5t49.5 -50.5l8 29q5 18 12 23.5t23 5.5h78q14 0 21 -4.5t7 -14.5l-2 -12l-31 -112q-23 -83 -23 -129q0 -31 12 -50.5t35 -19.5q25 0 45 20.5t31 59.5t11 92q0 80 -33 139t-102.5 91t-173.5 32q-106 0 -184 -45t-119.5 -124.5t-41.5 -181.5
q0 -93 35 -158.5t96.5 -99t140.5 -33.5q56 0 106 14.5t91 38.5q13 7 21 7q11 0 20 -16l33 -59q7 -11 7 -22q0 -13 -19 -25q-55 -34 -122.5 -53t-142.5 -19q-114 0 -206 50zM447 342.5q-23 -21.5 -36 -54.5t-13 -65q0 -29 13 -47t38 -18q29 0 53 22.5t38 55.5t14 63
q0 29 -15 47t-42 18t-50 -21.5z" />
    <glyph glyph-name="A" unicode="A" horiz-adv-x="734" 
d="M188 32q-9 -19 -19 -25.5t-29 -6.5h-122q-22 0 -22 14q0 9 5 18l319 635q14 29 24 40t22 11t21.5 -11t24.5 -40l321 -635q5 -9 5 -17q0 -15 -23 -15h-128q-19 0 -28.5 6.5t-18.5 25.5l-177 364z" />
    <glyph glyph-name="B" unicode="B" horiz-adv-x="681" 
d="M81.5 694q6.5 6 19.5 6h262q131 0 198.5 -46t67.5 -149q0 -51 -23.5 -87t-63.5 -55q50 -15 79.5 -55t29.5 -94q0 -111 -74.5 -162.5t-210.5 -51.5h-265q-13 0 -19.5 6.5t-6.5 19.5v648q0 14 6.5 20zM252 544.5q-3 -3.5 -3 -11.5v-89q0 -8 3 -11.5t12 -3.5h89q52 0 75 14
t23 46t-23 45.5t-75 13.5h-89q-9 0 -12 -3.5zM446 167q25 15 25 48t-26 47.5t-79 14.5h-102q-9 0 -12 -3t-3 -12v-95q0 -8 3 -11.5t12 -3.5h102q55 0 80 15z" />
    <glyph glyph-name="C" unicode="C" horiz-adv-x="711" 
d="M585 206q12 9 20 9q5 0 9 -3t9 -9l57 -82q6 -9 6 -17q0 -9 -15 -23q-54 -45 -121 -69.5t-141 -24.5q-105 0 -190 46.5t-133.5 128.5t-48.5 184q0 105 49 188.5t135.5 131t195.5 47.5q74 0 139.5 -25t118.5 -69q12 -10 12 -19q0 -8 -7 -18l-58 -82q-9 -13 -19 -13
q-9 0 -20 8q-81 58 -167 58q-57 0 -102.5 -25.5t-71 -72t-25.5 -106.5q0 -58 25.5 -104t71 -72t102.5 -26q92 0 169 59z" />
    <glyph glyph-name="D" unicode="D" horiz-adv-x="767" 
d="M81.5 694q6.5 6 19.5 6h246q121 0 207 -42t131 -119t45 -181q0 -109 -47 -189.5t-137.5 -124.5t-215.5 -44h-229q-13 0 -19.5 6.5t-6.5 19.5v648q0 14 6.5 20zM252 536.5q-3 -3.5 -3 -11.5v-350q0 -8 3 -11.5t12 -3.5h65q108 0 164.5 51t56.5 142q0 57 -25 99t-73.5 65
t-118.5 23h-69q-9 0 -12 -3.5z" />
    <glyph glyph-name="E" unicode="E" horiz-adv-x="594" 
d="M542.5 154q6.5 -6 6.5 -20v-108q0 -26 -27 -26h-421q-13 0 -19.5 6.5t-6.5 19.5v648q0 14 6.5 20t19.5 6h420q27 0 27 -26v-108q0 -14 -6.5 -20t-20.5 -6h-257q-9 0 -12 -3.5t-3 -11.5v-78q0 -9 3 -12t12 -3h224q14 0 20 -6.5t6 -20.5v-107q0 -13 -6 -19.5t-20 -6.5h-224
q-9 0 -12 -3.5t-3 -11.5v-82q0 -8 3 -11.5t12 -3.5h258q14 0 20.5 -6z" />
    <glyph glyph-name="F" unicode="F" horiz-adv-x="584" 
d="M242.5 6q-6.5 -6 -20.5 -6h-121q-13 0 -19.5 6.5t-6.5 19.5v648q0 14 6.5 20t19.5 6h426q27 0 27 -26v-108q0 -14 -6.5 -20t-20.5 -6h-263q-9 0 -12 -3.5t-3 -11.5v-103q0 -9 3 -12t12 -3h229q14 0 20.5 -6.5t6.5 -20.5v-107q0 -14 -6.5 -20t-20.5 -6h-229q-9 0 -12 -3.5
t-3 -11.5v-206q0 -14 -6.5 -20z" />
    <glyph glyph-name="G" unicode="G" horiz-adv-x="762" 
d="M702 70q-5 -8 -19 -15q-66 -33 -133.5 -50.5t-141.5 -17.5q-105 0 -189.5 44.5t-133 125.5t-48.5 186q0 110 49 194t135.5 130t195.5 46q75 0 141.5 -21t119.5 -58q17 -11 17 -23q0 -10 -7 -20l-51 -79q-5 -8 -10 -11.5t-12 -3.5q-8 0 -19 6q-87 50 -179 50
q-61 0 -106 -26.5t-69.5 -73t-24.5 -105.5q0 -60 25 -106t69 -71.5t101 -25.5q61 0 106 17q9 4 12 8t3 14v141q0 14 6 20.5t20 6.5h122q14 0 20 -6.5t6 -20.5v-231q0 -16 -5 -24z" />
    <glyph glyph-name="H" unicode="H" horiz-adv-x="760" 
d="M658 0h-121q-13 0 -19.5 6.5t-6.5 19.5v236q0 8 -3.5 11.5t-12.5 3.5h-231q-9 0 -12 -3.5t-3 -11.5v-236q0 -14 -6.5 -20t-20.5 -6h-121q-13 0 -19.5 6.5t-6.5 19.5v648q0 14 6.5 20t19.5 6h121q14 0 20.5 -6t6.5 -20v-222q0 -8 3 -11.5t12 -3.5h231q9 0 12.5 3.5
t3.5 11.5v222q0 14 6.5 20t19.5 6h121q27 0 27 -26v-648q0 -26 -27 -26z" />
    <glyph glyph-name="I" unicode="I" horiz-adv-x="324" 
d="M242.5 6q-6.5 -6 -20.5 -6h-121q-13 0 -19.5 6.5t-6.5 19.5v648q0 14 6.5 20t19.5 6h121q14 0 20.5 -6t6.5 -20v-648q0 -14 -6.5 -20z" />
    <glyph glyph-name="J" unicode="J" horiz-adv-x="338" 
d="M-38.5 -42.5q4.5 5.5 14.5 5.5q8 0 21 -1.5t23 -1.5q34 0 54 25.5t20 73.5v615q0 14 6.5 20t20.5 6h121q14 0 20 -6t6 -20v-627q0 -119 -53.5 -183t-171.5 -64q-50 0 -77 7q-14 4 -18.5 11t-2.5 22l11 98q1 14 5.5 19.5z" />
    <glyph glyph-name="K" unicode="K" horiz-adv-x="707" 
d="M242.5 6q-6.5 -6 -20.5 -6h-121q-13 0 -19.5 6.5t-6.5 19.5v648q0 14 6.5 20t19.5 6h121q14 0 20.5 -6t6.5 -20v-648q0 -14 -6.5 -20zM505.5 695q9.5 5 28.5 5h141q21 0 21 -14q0 -6 -6 -15l-232 -311l242 -331q7 -8 7 -16q0 -6 -6 -9.5t-16 -3.5h-145q-20 0 -29.5 5
t-20.5 21l-215 305q-9 14 -9 23q0 10 10 24l209 295q11 17 20.5 22z" />
    <glyph glyph-name="L" unicode="L" horiz-adv-x="572" 
d="M252 163.5q3 -3.5 12 -3.5h257q14 0 20 -6t6 -20v-108q0 -13 -6 -19.5t-20 -6.5h-420q-13 0 -19.5 6.5t-6.5 19.5v648q0 14 6.5 20t19.5 6h121q14 0 20.5 -6t6.5 -20v-499q0 -8 3 -11.5z" />
    <glyph glyph-name="M" unicode="M" horiz-adv-x="859" 
d="M249 26q0 -14 -6.5 -20t-20.5 -6h-121q-13 0 -19.5 6.5t-6.5 19.5v646q0 18 6 28t18 10q9 0 19 -7t24 -23l288 -312l287 312q16 17 25 23.5t18 6.5q24 0 24 -38v-646q0 -13 -6 -19.5t-20 -6.5h-121q-27 0 -27 26v302l-143 -163q-14 -15 -22 -21t-16 -6t-16 6t-21 21
l-143 163v-302z" />
    <glyph glyph-name="N" unicode="N" horiz-adv-x="760" 
d="M517.5 694q6.5 6 19.5 6h121q27 0 27 -26v-648q0 -39 -24 -39q-10 0 -21.5 7.5t-30.5 25.5l-360 338v-332q0 -14 -6.5 -20t-20.5 -6h-121q-13 0 -19.5 6.5t-6.5 19.5v648q0 39 24 39q10 0 21.5 -7.5t30.5 -25.5l360 -338v332q0 14 6.5 20z" />
    <glyph glyph-name="O" unicode="O" horiz-adv-x="823" 
d="M85.5 536q48.5 83 133.5 130t192 47q108 0 193.5 -46.5t133.5 -129t48 -187.5t-48.5 -187.5t-134.5 -129t-194 -46.5q-106 0 -191 46t-133 128.5t-48 186.5q0 105 48.5 188zM242 243q25 -46 69 -71t99 -25t99.5 25.5t70.5 71.5t26 105q0 61 -25.5 107t-70 71.5
t-99.5 25.5t-99.5 -25.5t-69.5 -72t-25 -106.5t25 -106z" />
    <glyph glyph-name="P" unicode="P" horiz-adv-x="675" 
d="M252 184.5q-3 -3.5 -3 -11.5v-147q0 -14 -6.5 -20t-20.5 -6h-121q-13 0 -19.5 6.5t-6.5 19.5v648q0 14 6.5 20t19.5 6h235q309 0 309 -253q0 -128 -81 -193.5t-235 -65.5h-65q-9 0 -12 -3.5zM252 536.5q-3 -3.5 -3 -11.5v-162q0 -8 3 -11.5t12 -3.5h65q67 0 101.5 24.5
t34.5 73.5t-33.5 71.5t-102.5 22.5h-65q-9 0 -12 -3.5z" />
    <glyph glyph-name="Q" unicode="Q" horiz-adv-x="823" 
d="M85 537q48 83 133 129.5t192 46.5q108 0 193.5 -46.5t134 -129.5t48.5 -188q0 -80 -29.5 -147.5t-83.5 -115.5t-125 -71l96 -146q6 -9 6 -16t-6.5 -10.5t-18.5 -3.5h-121q-21 0 -31.5 6t-22.5 24l-75 119q-98 7 -175 55t-120 127.5t-43 178.5q0 105 48 188zM242 243
q25 -46 69 -71t99 -25t100 25t70.5 71t25.5 106q0 61 -25.5 107t-70.5 71.5t-100 25.5t-99 -25.5t-69 -71.5t-25 -107q0 -60 25 -106z" />
    <glyph glyph-name="R" unicode="R" horiz-adv-x="688" 
d="M242.5 6q-6.5 -6 -20.5 -6h-121q-13 0 -19.5 6.5t-6.5 19.5v648q0 14 6.5 20t19.5 6h229q157 0 234 -57.5t77 -177.5q0 -126 -118 -183l153 -250q7 -10 7 -18q0 -14 -25 -14h-130q-21 0 -31 5.5t-21 24.5l-160 278q-1 1 -3.5 6.5t-2.5 9.5q0 10 20 13q58 7 94.5 34.5
t36.5 76.5q0 51 -34 75.5t-101 24.5h-62q-9 0 -12 -3t-3 -12v-507q0 -14 -6.5 -20z" />
    <glyph glyph-name="S" unicode="S" horiz-adv-x="600" 
d="M551 627q12 -9 12 -20q0 -10 -7 -20l-54 -86q-9 -14 -19 -14q-8 0 -19 8q-39 29 -78 44.5t-81 15.5q-40 0 -63 -15.5t-23 -40.5q0 -19 12 -30.5t36 -20.5t70 -20q78 -19 128 -46.5t75 -68.5t25 -100q0 -70 -34.5 -121t-98 -78t-146.5 -27q-76 0 -140 22.5t-115 62.5
q-15 12 -15 23q0 10 8 22l52 83q9 15 20 15q7 0 19 -9q36 -28 81 -44.5t90 -16.5q48 0 73.5 15.5t25.5 41.5q0 18 -12 30t-38 21.5t-76 21.5q-74 18 -122 44t-73 67.5t-25 102.5q0 70 34 120.5t94.5 77t138.5 26.5q138 0 245 -86z" />
    <glyph glyph-name="T" unicode="T" horiz-adv-x="602" 
d="M581 546.5q-6 -6.5 -20 -6.5h-158q-8 0 -11.5 -3.5t-3.5 -11.5v-499q0 -13 -6 -19.5t-20 -6.5h-122q-13 0 -19.5 6.5t-6.5 19.5v499q0 8 -3.5 11.5t-11.5 3.5h-158q-13 0 -19.5 6.5t-6.5 19.5v108q0 14 6.5 20t19.5 6h520q14 0 20 -6t6 -20v-108q0 -13 -6 -19.5z" />
    <glyph glyph-name="U" unicode="U" horiz-adv-x="773" 
d="M662.5 128.5q-40.5 -70.5 -113.5 -106t-169 -35.5q-93 0 -162.5 34t-108.5 104t-39 175v374q0 14 6.5 20t19.5 6h121q14 0 20.5 -6t6.5 -20v-360q0 -81 36 -124t106 -43q69 0 106 43t37 124v360q0 14 6.5 20t19.5 6h121q14 0 20.5 -6t6.5 -20v-372q0 -103 -40.5 -173.5z
" />
    <glyph glyph-name="V" unicode="V" horiz-adv-x="734" 
d="M546 668q9 19 19 25.5t29 6.5h122q22 0 22 -14q0 -9 -5 -18l-319 -635q-14 -29 -24 -40t-22 -11t-21.5 11t-24.5 40l-321 635q-5 9 -5 17q0 15 23 15h128q19 0 28.5 -6.5t18.5 -25.5l177 -364z" />
    <glyph glyph-name="W" unicode="W" horiz-adv-x="967" 
d="M318.5 -6q-7.5 -10 -18.5 -10t-19 10.5t-21 41.5l-256 632q-4 8 -4 16q0 16 24 16h126q19 0 27 -6t15 -25l120 -312l134 299q12 26 20 35t19 9t18.5 -9t19.5 -35l133 -296l119 309q7 19 15.5 25t27.5 6h125q24 0 24 -16q0 -8 -4 -16l-255 -632q-13 -31 -21 -41.5
t-19 -10.5q-10 0 -17.5 9.5t-21.5 39.5l-145 323l-145 -323q-13 -29 -20.5 -39z" />
    <glyph glyph-name="X" unicode="X" horiz-adv-x="689" 
d="M687 29q6 -9 6 -15q0 -7 -6 -10.5t-15 -3.5h-151q-19 0 -28 5.5t-20 23.5l-124 192l-126 -196q-10 -16 -18.5 -20.5t-25.5 -4.5h-146q-11 0 -16.5 3.5t-5.5 10.5q0 6 6 15l219 323l-214 319q-6 9 -6 15q0 7 6 10.5t16 3.5h151q19 0 28 -5.5t20 -23.5l117 -187l122 191
q10 16 19 20.5t26 4.5h146q21 0 21 -13q0 -5 -6 -16l-214 -317z" />
    <glyph glyph-name="Y" unicode="Y" horiz-adv-x="673" 
d="M477 672q10 18 19 23t28 5h133q21 0 21 -13q0 -7 -6 -16l-247 -412v-233q0 -13 -6 -19.5t-20 -6.5h-122q-13 0 -19.5 6.5t-6.5 19.5v228l-250 417q-6 9 -6 16q0 13 21 13h138q19 0 28 -5t19 -23l138 -244z" />
    <glyph glyph-name="Z" unicode="Z" horiz-adv-x="636" 
d="M588.5 6q-6.5 -6 -20.5 -6h-520q-28 0 -28 16q0 9 7 20l294 504h-257q-14 1 -20 7t-6 19v108q0 14 6.5 20t19.5 6h510q26 0 26 -16q0 -9 -7 -20l-293 -504h268q14 0 20.5 -6t6.5 -20v-108q0 -14 -6.5 -20z" />
    <glyph glyph-name="bracketleft" unicode="[" horiz-adv-x="391" 
d="M75 879.5q6 6.5 20 6.5h243q25 0 25 -25v-82q0 -13 -6 -19t-19 -6h-97q-9 0 -12 -3.5t-3 -12.5v-778q0 -9 3 -12.5t12 -3.5h97q13 0 19 -6t6 -19v-81q0 -13 -6 -19.5t-19 -6.5h-243q-14 0 -20 6.5t-6 20.5v1020q0 14 6 20.5z" />
    <glyph glyph-name="backslash" unicode="\" horiz-adv-x="458" 
d="M454 1q0 -14 -20 -14h-109q-16 0 -23 4.5t-13 19.5l-282 676q-3 6 -3 12q0 14 20 14h109q17 0 24 -4.5t13 -19.5l281 -676q3 -7 3 -12z" />
    <glyph glyph-name="bracketright" unicode="]" horiz-adv-x="391" 
d="M316 -181.5q-6 -6.5 -20 -6.5h-242q-13 0 -19.5 6t-6.5 20v81q0 13 6 19t20 6h96q9 0 12.5 3.5t3.5 12.5v778q0 9 -3.5 12.5t-12.5 3.5h-96q-14 0 -20 6t-6 19v82q0 13 6.5 19t19.5 6h242q14 0 20 -6.5t6 -20.5v-1020q0 -14 -6 -20.5z" />
    <glyph glyph-name="asciicircum" unicode="^" horiz-adv-x="540" 
d="M144.5 449.5q-4.5 -3.5 -10.5 -3.5t-17 6l-60 34q-14 8 -14 17q0 7 9 17l147 171q10 12 17.5 15.5t22.5 3.5h62q15 0 23 -3.5t18 -15.5l147 -171q8 -10 8 -17q0 -9 -14 -17l-60 -34q-9 -6 -17 -6q-10 0 -22 14l-114 135l-114 -135q-7 -7 -11.5 -10.5z" />
    <glyph glyph-name="underscore" unicode="_" horiz-adv-x="500" 
d="M484 -179.5q-6 -6.5 -20 -6.5h-428q-14 0 -20 6.5t-6 20.5v59q0 14 6 20.5t20 6.5h428q14 0 20 -6.5t6 -20.5v-59q0 -14 -6 -20.5z" />
    <glyph glyph-name="grave" unicode="`" horiz-adv-x="500" 
d="M148 974q11 0 27 -11l176 -133q11 -8 11 -17q0 -10 -11 -18l-43 -33q-11 -8 -20 -8t-24 9l-195 118q-16 9 -16 20q0 10 13 20l56 42q14 11 26 11z" />
    <glyph glyph-name="a" unicode="a" horiz-adv-x="734" 
d="M188 32q-9 -19 -19 -25.5t-29 -6.5h-122q-22 0 -22 14q0 9 5 18l319 635q14 29 24 40t22 11t21.5 -11t24.5 -40l321 -635q5 -9 5 -17q0 -15 -23 -15h-128q-19 0 -28.5 6.5t-18.5 25.5l-177 364z" />
    <glyph glyph-name="b" unicode="b" horiz-adv-x="681" 
d="M81.5 694q6.5 6 19.5 6h262q131 0 198.5 -46t67.5 -149q0 -51 -23.5 -87t-63.5 -55q50 -15 79.5 -55t29.5 -94q0 -111 -74.5 -162.5t-210.5 -51.5h-265q-13 0 -19.5 6.5t-6.5 19.5v648q0 14 6.5 20zM252 544.5q-3 -3.5 -3 -11.5v-89q0 -8 3 -11.5t12 -3.5h89q52 0 75 14
t23 46t-23 45.5t-75 13.5h-89q-9 0 -12 -3.5zM446 167q25 15 25 48t-26 47.5t-79 14.5h-102q-9 0 -12 -3t-3 -12v-95q0 -8 3 -11.5t12 -3.5h102q55 0 80 15z" />
    <glyph glyph-name="c" unicode="c" horiz-adv-x="711" 
d="M585 206q12 9 20 9q5 0 9 -3t9 -9l57 -82q6 -9 6 -17q0 -9 -15 -23q-54 -45 -121 -69.5t-141 -24.5q-105 0 -190 46.5t-133.5 128.5t-48.5 184q0 105 49 188.5t135.5 131t195.5 47.5q74 0 139.5 -25t118.5 -69q12 -10 12 -19q0 -8 -7 -18l-58 -82q-9 -13 -19 -13
q-9 0 -20 8q-81 58 -167 58q-57 0 -102.5 -25.5t-71 -72t-25.5 -106.5q0 -58 25.5 -104t71 -72t102.5 -26q92 0 169 59z" />
    <glyph glyph-name="d" unicode="d" horiz-adv-x="767" 
d="M81.5 694q6.5 6 19.5 6h246q121 0 207 -42t131 -119t45 -181q0 -109 -47 -189.5t-137.5 -124.5t-215.5 -44h-229q-13 0 -19.5 6.5t-6.5 19.5v648q0 14 6.5 20zM252 536.5q-3 -3.5 -3 -11.5v-350q0 -8 3 -11.5t12 -3.5h65q108 0 164.5 51t56.5 142q0 57 -25 99t-73.5 65
t-118.5 23h-69q-9 0 -12 -3.5z" />
    <glyph glyph-name="e" unicode="e" horiz-adv-x="594" 
d="M542.5 154q6.5 -6 6.5 -20v-108q0 -26 -27 -26h-421q-13 0 -19.5 6.5t-6.5 19.5v648q0 14 6.5 20t19.5 6h420q27 0 27 -26v-108q0 -14 -6.5 -20t-20.5 -6h-257q-9 0 -12 -3.5t-3 -11.5v-78q0 -9 3 -12t12 -3h224q14 0 20 -6.5t6 -20.5v-107q0 -13 -6 -19.5t-20 -6.5h-224
q-9 0 -12 -3.5t-3 -11.5v-82q0 -8 3 -11.5t12 -3.5h258q14 0 20.5 -6z" />
    <glyph glyph-name="f" unicode="f" horiz-adv-x="584" 
d="M242.5 6q-6.5 -6 -20.5 -6h-121q-13 0 -19.5 6.5t-6.5 19.5v648q0 14 6.5 20t19.5 6h426q27 0 27 -26v-108q0 -14 -6.5 -20t-20.5 -6h-263q-9 0 -12 -3.5t-3 -11.5v-103q0 -9 3 -12t12 -3h229q14 0 20.5 -6.5t6.5 -20.5v-107q0 -14 -6.5 -20t-20.5 -6h-229q-9 0 -12 -3.5
t-3 -11.5v-206q0 -14 -6.5 -20z" />
    <glyph glyph-name="g" unicode="g" horiz-adv-x="762" 
d="M702 70q-5 -8 -19 -15q-66 -33 -133.5 -50.5t-141.5 -17.5q-105 0 -189.5 44.5t-133 125.5t-48.5 186q0 110 49 194t135.5 130t195.5 46q75 0 141.5 -21t119.5 -58q17 -11 17 -23q0 -10 -7 -20l-51 -79q-5 -8 -10 -11.5t-12 -3.5q-8 0 -19 6q-87 50 -179 50
q-61 0 -106 -26.5t-69.5 -73t-24.5 -105.5q0 -60 25 -106t69 -71.5t101 -25.5q61 0 106 17q9 4 12 8t3 14v141q0 14 6 20.5t20 6.5h122q14 0 20 -6.5t6 -20.5v-231q0 -16 -5 -24z" />
    <glyph glyph-name="h" unicode="h" horiz-adv-x="760" 
d="M658 0h-121q-13 0 -19.5 6.5t-6.5 19.5v236q0 8 -3.5 11.5t-12.5 3.5h-231q-9 0 -12 -3.5t-3 -11.5v-236q0 -14 -6.5 -20t-20.5 -6h-121q-13 0 -19.5 6.5t-6.5 19.5v648q0 14 6.5 20t19.5 6h121q14 0 20.5 -6t6.5 -20v-222q0 -8 3 -11.5t12 -3.5h231q9 0 12.5 3.5
t3.5 11.5v222q0 14 6.5 20t19.5 6h121q27 0 27 -26v-648q0 -26 -27 -26z" />
    <glyph glyph-name="i" unicode="i" horiz-adv-x="324" 
d="M242.5 6q-6.5 -6 -20.5 -6h-121q-13 0 -19.5 6.5t-6.5 19.5v648q0 14 6.5 20t19.5 6h121q14 0 20.5 -6t6.5 -20v-648q0 -14 -6.5 -20z" />
    <glyph glyph-name="j" unicode="j" horiz-adv-x="338" 
d="M-38.5 -42.5q4.5 5.5 14.5 5.5q8 0 21 -1.5t23 -1.5q34 0 54 25.5t20 73.5v615q0 14 6.5 20t20.5 6h121q14 0 20 -6t6 -20v-627q0 -119 -53.5 -183t-171.5 -64q-50 0 -77 7q-14 4 -18.5 11t-2.5 22l11 98q1 14 5.5 19.5z" />
    <glyph glyph-name="k" unicode="k" horiz-adv-x="707" 
d="M242.5 6q-6.5 -6 -20.5 -6h-121q-13 0 -19.5 6.5t-6.5 19.5v648q0 14 6.5 20t19.5 6h121q14 0 20.5 -6t6.5 -20v-648q0 -14 -6.5 -20zM505.5 695q9.5 5 28.5 5h141q21 0 21 -14q0 -6 -6 -15l-232 -311l242 -331q7 -8 7 -16q0 -6 -6 -9.5t-16 -3.5h-145q-20 0 -29.5 5
t-20.5 21l-215 305q-9 14 -9 23q0 10 10 24l209 295q11 17 20.5 22z" />
    <glyph glyph-name="l" unicode="l" horiz-adv-x="572" 
d="M252 163.5q3 -3.5 12 -3.5h257q14 0 20 -6t6 -20v-108q0 -13 -6 -19.5t-20 -6.5h-420q-13 0 -19.5 6.5t-6.5 19.5v648q0 14 6.5 20t19.5 6h121q14 0 20.5 -6t6.5 -20v-499q0 -8 3 -11.5z" />
    <glyph glyph-name="m" unicode="m" horiz-adv-x="859" 
d="M249 26q0 -14 -6.5 -20t-20.5 -6h-121q-13 0 -19.5 6.5t-6.5 19.5v646q0 18 6 28t18 10q9 0 19 -7t24 -23l288 -312l287 312q16 17 25 23.5t18 6.5q24 0 24 -38v-646q0 -13 -6 -19.5t-20 -6.5h-121q-27 0 -27 26v302l-143 -163q-14 -15 -22 -21t-16 -6t-16 6t-21 21
l-143 163v-302z" />
    <glyph glyph-name="n" unicode="n" horiz-adv-x="760" 
d="M517.5 694q6.5 6 19.5 6h121q27 0 27 -26v-648q0 -39 -24 -39q-10 0 -21.5 7.5t-30.5 25.5l-360 338v-332q0 -14 -6.5 -20t-20.5 -6h-121q-13 0 -19.5 6.5t-6.5 19.5v648q0 39 24 39q10 0 21.5 -7.5t30.5 -25.5l360 -338v332q0 14 6.5 20z" />
    <glyph glyph-name="o" unicode="o" horiz-adv-x="823" 
d="M85.5 536q48.5 83 133.5 130t192 47q108 0 193.5 -46.5t133.5 -129t48 -187.5t-48.5 -187.5t-134.5 -129t-194 -46.5q-106 0 -191 46t-133 128.5t-48 186.5q0 105 48.5 188zM242 243q25 -46 69 -71t99 -25t99.5 25.5t70.5 71.5t26 105q0 61 -25.5 107t-70 71.5
t-99.5 25.5t-99.5 -25.5t-69.5 -72t-25 -106.5t25 -106z" />
    <glyph glyph-name="p" unicode="p" horiz-adv-x="675" 
d="M252 184.5q-3 -3.5 -3 -11.5v-147q0 -14 -6.5 -20t-20.5 -6h-121q-13 0 -19.5 6.5t-6.5 19.5v648q0 14 6.5 20t19.5 6h235q309 0 309 -253q0 -128 -81 -193.5t-235 -65.5h-65q-9 0 -12 -3.5zM252 536.5q-3 -3.5 -3 -11.5v-162q0 -8 3 -11.5t12 -3.5h65q67 0 101.5 24.5
t34.5 73.5t-33.5 71.5t-102.5 22.5h-65q-9 0 -12 -3.5z" />
    <glyph glyph-name="q" unicode="q" horiz-adv-x="823" 
d="M85 537q48 83 133 129.5t192 46.5q108 0 193.5 -46.5t134 -129.5t48.5 -188q0 -80 -29.5 -147.5t-83.5 -115.5t-125 -71l96 -146q6 -9 6 -16t-6.5 -10.5t-18.5 -3.5h-121q-21 0 -31.5 6t-22.5 24l-75 119q-98 7 -175 55t-120 127.5t-43 178.5q0 105 48 188zM242 243
q25 -46 69 -71t99 -25t100 25t70.5 71t25.5 106q0 61 -25.5 107t-70.5 71.5t-100 25.5t-99 -25.5t-69 -71.5t-25 -107q0 -60 25 -106z" />
    <glyph glyph-name="r" unicode="r" horiz-adv-x="688" 
d="M242.5 6q-6.5 -6 -20.5 -6h-121q-13 0 -19.5 6.5t-6.5 19.5v648q0 14 6.5 20t19.5 6h229q157 0 234 -57.5t77 -177.5q0 -126 -118 -183l153 -250q7 -10 7 -18q0 -14 -25 -14h-130q-21 0 -31 5.5t-21 24.5l-160 278q-1 1 -3.5 6.5t-2.5 9.5q0 10 20 13q58 7 94.5 34.5
t36.5 76.5q0 51 -34 75.5t-101 24.5h-62q-9 0 -12 -3t-3 -12v-507q0 -14 -6.5 -20z" />
    <glyph glyph-name="s" unicode="s" horiz-adv-x="600" 
d="M551 627q12 -9 12 -20q0 -10 -7 -20l-54 -86q-9 -14 -19 -14q-8 0 -19 8q-39 29 -78 44.5t-81 15.5q-40 0 -63 -15.5t-23 -40.5q0 -19 12 -30.5t36 -20.5t70 -20q78 -19 128 -46.5t75 -68.5t25 -100q0 -70 -34.5 -121t-98 -78t-146.5 -27q-76 0 -140 22.5t-115 62.5
q-15 12 -15 23q0 10 8 22l52 83q9 15 20 15q7 0 19 -9q36 -28 81 -44.5t90 -16.5q48 0 73.5 15.5t25.5 41.5q0 18 -12 30t-38 21.5t-76 21.5q-74 18 -122 44t-73 67.5t-25 102.5q0 70 34 120.5t94.5 77t138.5 26.5q138 0 245 -86z" />
    <glyph glyph-name="t" unicode="t" horiz-adv-x="602" 
d="M581 546.5q-6 -6.5 -20 -6.5h-158q-8 0 -11.5 -3.5t-3.5 -11.5v-499q0 -13 -6 -19.5t-20 -6.5h-122q-13 0 -19.5 6.5t-6.5 19.5v499q0 8 -3.5 11.5t-11.5 3.5h-158q-13 0 -19.5 6.5t-6.5 19.5v108q0 14 6.5 20t19.5 6h520q14 0 20 -6t6 -20v-108q0 -13 -6 -19.5z" />
    <glyph glyph-name="u" unicode="u" horiz-adv-x="773" 
d="M662.5 128.5q-40.5 -70.5 -113.5 -106t-169 -35.5q-93 0 -162.5 34t-108.5 104t-39 175v374q0 14 6.5 20t19.5 6h121q14 0 20.5 -6t6.5 -20v-360q0 -81 36 -124t106 -43q69 0 106 43t37 124v360q0 14 6.5 20t19.5 6h121q14 0 20.5 -6t6.5 -20v-372q0 -103 -40.5 -173.5z
" />
    <glyph glyph-name="v" unicode="v" horiz-adv-x="734" 
d="M546 668q9 19 19 25.5t29 6.5h122q22 0 22 -14q0 -9 -5 -18l-319 -635q-14 -29 -24 -40t-22 -11t-21.5 11t-24.5 40l-321 635q-5 9 -5 17q0 15 23 15h128q19 0 28.5 -6.5t18.5 -25.5l177 -364z" />
    <glyph glyph-name="w" unicode="w" horiz-adv-x="967" 
d="M318.5 -6q-7.5 -10 -18.5 -10t-19 10.5t-21 41.5l-256 632q-4 8 -4 16q0 16 24 16h126q19 0 27 -6t15 -25l120 -312l134 299q12 26 20 35t19 9t18.5 -9t19.5 -35l133 -296l119 309q7 19 15.5 25t27.5 6h125q24 0 24 -16q0 -8 -4 -16l-255 -632q-13 -31 -21 -41.5
t-19 -10.5q-10 0 -17.5 9.5t-21.5 39.5l-145 323l-145 -323q-13 -29 -20.5 -39z" />
    <glyph glyph-name="x" unicode="x" horiz-adv-x="689" 
d="M687 29q6 -9 6 -15q0 -7 -6 -10.5t-15 -3.5h-151q-19 0 -28 5.5t-20 23.5l-124 192l-126 -196q-10 -16 -18.5 -20.5t-25.5 -4.5h-146q-11 0 -16.5 3.5t-5.5 10.5q0 6 6 15l219 323l-214 319q-6 9 -6 15q0 7 6 10.5t16 3.5h151q19 0 28 -5.5t20 -23.5l117 -187l122 191
q10 16 19 20.5t26 4.5h146q21 0 21 -13q0 -5 -6 -16l-214 -317z" />
    <glyph glyph-name="y" unicode="y" horiz-adv-x="673" 
d="M477 672q10 18 19 23t28 5h133q21 0 21 -13q0 -7 -6 -16l-247 -412v-233q0 -13 -6 -19.5t-20 -6.5h-122q-13 0 -19.5 6.5t-6.5 19.5v228l-250 417q-6 9 -6 16q0 13 21 13h138q19 0 28 -5t19 -23l138 -244z" />
    <glyph glyph-name="z" unicode="z" horiz-adv-x="636" 
d="M588.5 6q-6.5 -6 -20.5 -6h-520q-28 0 -28 16q0 9 7 20l294 504h-257q-14 1 -20 7t-6 19v108q0 14 6.5 20t19.5 6h510q26 0 26 -16q0 -9 -7 -20l-293 -504h268q14 0 20.5 -6t6.5 -20v-108q0 -14 -6.5 -20z" />
    <glyph glyph-name="braceleft" unicode="{" horiz-adv-x="403" 
d="M244 291q25 -38 25 -105v-134q0 -37 8 -59t26 -33.5t49 -13.5q14 -1 18.5 -5t4.5 -17v-90q0 -12 -5.5 -17t-18.5 -5q-121 0 -180 56t-59 163v145q0 50 -18.5 75t-61.5 32q-13 2 -17.5 7t-4.5 17v86q0 12 4.5 17t17.5 7q43 7 61.5 32t18.5 75v145q0 107 59 163t180 56
q13 0 18.5 -5t5.5 -17v-90q0 -13 -4.5 -17t-18.5 -5q-31 -2 -49 -13.5t-26 -33.5t-8 -59v-134q0 -67 -25 -105t-82 -59q57 -21 82 -59z" />
    <glyph glyph-name="bar" unicode="|" horiz-adv-x="287" 
d="M81.5 794q6.5 6 19.5 6h85q14 0 20 -6t6 -20v-878q0 -14 -6 -20t-20 -6h-85q-13 0 -19.5 6t-6.5 20v878q0 14 6.5 20z" />
    <glyph glyph-name="braceright" unicode="}" horiz-adv-x="403" 
d="M159.5 408.5q-24.5 37.5 -24.5 105.5v134q0 54 -19 78.5t-65 27.5q-14 1 -18.5 5t-4.5 17v90q0 12 5.5 17t18.5 5q121 0 180.5 -56t59.5 -163v-145q0 -49 18.5 -74t60.5 -33q13 -2 17.5 -7t4.5 -17v-86q0 -12 -4.5 -17t-17.5 -7q-42 -8 -60.5 -33t-18.5 -74v-145
q0 -107 -59.5 -163t-180.5 -56q-13 0 -18.5 5t-5.5 17v90q0 13 4.5 17t18.5 5q46 3 65 27.5t19 78.5v134q0 68 24.5 105.5t82.5 58.5q-58 21 -82.5 58.5z" />
    <glyph glyph-name="asciitilde" unicode="~" 
d="M489 370.5q21 11.5 44 34.5q6 6 11 9t10 3q9 0 18 -12l41 -54q9 -10 9 -21q0 -9 -9 -21q-31 -38 -75 -62t-100 -24q-33 0 -62 8.5t-67 24.5q-30 13 -50 19t-39 6q-27 0 -48.5 -11.5t-44.5 -34.5q-10 -12 -20 -12q-9 0 -18 12l-41 54q-9 12 -9 21q0 11 9 21
q31 37 74.5 61.5t99.5 24.5q34 0 63 -8.5t67 -24.5q31 -13 50 -19t38 -6q28 0 49 11.5z" />
    <glyph glyph-name="uni00A0" unicode="&#xa0;" horiz-adv-x="275" 
 />
    <glyph glyph-name="exclamdown" unicode="&#xa1;" horiz-adv-x="296" 
d="M232.5 583.5q-12.5 -19.5 -34.5 -31t-50 -11.5t-50 11.5t-34 31t-12 44.5q0 24 12 43.5t34 30.5t50 11t50 -11t34.5 -30.5t12.5 -43.5q0 -25 -12.5 -44.5zM209.5 496.5q6.5 -6.5 7.5 -24.5l29 -432q2 -22 -6 -31t-30 -9h-124q-22 0 -30 9t-6 31l29 432q2 18 8.5 24.5
t22.5 6.5h76q17 0 23.5 -6.5z" />
    <glyph glyph-name="cent" unicode="&#xa2;" 
d="M173.5 98q-63.5 41 -98.5 105.5t-35 142.5q0 80 35 146t98.5 108t144.5 52v107q0 14 6.5 20.5t20.5 6.5h65q14 0 20.5 -6.5t6.5 -20.5v-110q48 -6 91 -25.5t78 -46.5q15 -11 15 -23q0 -8 -8 -22l-48 -83q-7 -13 -18 -13q-7 0 -20 8q-39 27 -90 36v-260q47 8 90 38
q15 10 22 10q9 0 17 -14l45 -79q8 -16 8 -24q0 -6 -4 -11.5t-12 -12.5q-33 -27 -76 -46.5t-90 -28.5v-111q0 -14 -6.5 -20.5t-20.5 -6.5h-65q-14 0 -20.5 6.5t-6.5 20.5v106q-81 10 -144.5 51zM241.5 266q27.5 -35 76.5 -48v263q-49 -12 -76.5 -46.5t-27.5 -84.5
q0 -49 27.5 -84z" />
    <glyph glyph-name="sterling" unicode="&#xa3;" 
d="M298 191.5q-14 -25.5 -31 -41.5q24 3 41 3q29 0 81 -8q9 -1 32.5 -4t43.5 -3q61 0 104 23q11 6 17 6q11 0 16 -15l33 -84q4 -9 4 -17q0 -7 -4 -12.5t-13 -11.5q-64 -41 -166 -41q-22 0 -48 2.5t-50 5.5q-59 9 -106 9q-74 0 -139 -20q-7 -3 -13 -3q-11 0 -15 13l-37 90
q-3 9 -3 15q0 11 14 18q44 23 69.5 54.5t25.5 68.5q0 25 -7 44h-96q-14 0 -20 6.5t-6 20.5v86q0 14 6 20.5t20 6.5h61q-8 26 -8 56q0 66 30.5 119t92.5 84t152 31q126 0 216 -71q14 -10 14 -21q0 -9 -7 -20l-49 -82q-4 -6 -7.5 -9t-7.5 -3q-5 0 -15 5q-36 21 -67.5 31
t-70.5 10q-53 0 -80 -22.5t-27 -62.5q0 -24 8 -45h189q14 0 20 -6.5t6 -20.5v-86q0 -14 -6 -20.5t-20 -6.5h-167q4 -18 4 -39q0 -27 -14 -52.5z" />
    <glyph glyph-name="currency" unicode="&#xa4;" 
d="M222 136l-83 -84q-10 -10 -19 -10t-19 10l-59 59q-10 10 -10 19t10 19l84 83q-28 47 -28 107q0 61 28 107l-84 84q-10 12 -10 19q0 8 10 18l59 60q9 10 19 10t19 -10l83 -84q53 28 107 28q56 0 107 -28l84 84q9 9 18 9q10 0 19 -9l60 -60q9 -9 9 -19q0 -9 -9 -18l-84 -84
q28 -51 28 -107q0 -54 -28 -107l84 -83q10 -9 10 -19t-10 -19l-60 -59q-10 -10 -18 -10q-7 0 -19 10l-84 84q-48 -28 -107 -28q-57 0 -107 28zM376.5 257.5q21.5 12.5 34.5 34t13 47.5t-13 47.5t-34.5 34.5t-47.5 13t-47.5 -13t-34 -34.5t-12.5 -47.5t12.5 -47.5t34 -34
t47.5 -12.5t47.5 12.5z" />
    <glyph glyph-name="yen" unicode="&#xa5;" 
d="M425 345h105q14 0 20.5 -6t6.5 -20v-58q0 -14 -6.5 -20t-20.5 -6h-105q-8 0 -8 -8v-25q0 -8 8 -8h105q14 0 20.5 -6t6.5 -20v-58q0 -14 -6.5 -20t-20.5 -6h-105q-8 0 -8 -8v-50q0 -26 -27 -26h-121q-13 0 -19.5 6.5t-6.5 19.5v50q0 8 -8 8h-106q-14 0 -20 6t-6 20v58
q0 14 6 20t20 6h106q8 0 8 8v25q0 8 -8 8h-106q-14 0 -20 6t-6 20v58q0 14 6 20t20 6h106q8 0 8 8v4l-241 314q-6 9 -6 15t5.5 10t14.5 4h140q17 0 26 -5t20 -21l129 -181l132 181q11 16 20 21t27 5h133q10 0 15.5 -3.5t5.5 -9.5q0 -9 -7 -17l-240 -313v-4q0 -8 8 -8z" />
    <glyph glyph-name="brokenbar" unicode="&#xa6;" horiz-adv-x="287" 
d="M81.5 794q6.5 6 19.5 6h85q14 0 20 -6t6 -20v-348q0 -14 -6 -20t-20 -6h-85q-13 0 -19.5 6.5t-6.5 19.5v348q0 14 6.5 20zM81.5 264q6.5 6 19.5 6h85q14 0 20 -6t6 -20v-348q0 -14 -6 -20t-20 -6h-85q-13 0 -19.5 6t-6.5 20v348q0 14 6.5 20z" />
    <glyph glyph-name="section" unicode="&#xa7;" horiz-adv-x="679" 
d="M86 334.5q26 41.5 70 68.5q-34 37 -34 94q0 69 35.5 118t94 74t128.5 25q133 0 234 -75q14 -10 14 -21q0 -8 -7 -18l-51 -83q-5 -8 -9 -11t-9 -3q-6 0 -19 8q-68 43 -146 43q-38 0 -60 -12.5t-22 -34.5q0 -17 12.5 -28t37 -19t70.5 -19q72 -17 119 -40.5t72.5 -61
t25.5 -92.5q0 -50 -27 -90.5t-69 -67.5q35 -40 35 -96q0 -65 -35.5 -115.5t-99.5 -78.5t-145 -28q-143 0 -250 79q-7 5 -10 10t-3 11q0 10 7 21l50 84q5 8 9 11.5t9 3.5q6 0 19 -8q81 -52 164 -52q48 0 74.5 13t26.5 37q0 17 -12 27t-36 18t-75 20q-105 24 -159.5 70
t-54.5 127q0 50 26 91.5zM251.5 291q-11.5 -14 -11.5 -31q0 -26 26 -41.5t86 -27.5q48 -10 71 -18q19 8 29.5 21t10.5 30q0 18 -11 30.5t-35.5 22t-66.5 18.5q-39 9 -67 18q-20 -8 -31.5 -22z" />
    <glyph glyph-name="dieresis" unicode="&#xa8;" horiz-adv-x="500" 
d="M88 883q21 21 55 21t55.5 -21t21.5 -54q0 -32 -21.5 -53t-55.5 -21t-55 21t-21 53q0 33 21 54zM301 883q21 21 55 21t55.5 -21t21.5 -54q0 -32 -21.5 -53t-55.5 -21t-55 21t-21 53q0 33 21 54z" />
    <glyph glyph-name="copyright" unicode="&#xa9;" horiz-adv-x="571" 
d="M62.5 584.5q34.5 59.5 94 94t129.5 34.5t129 -34.5t93.5 -93t34.5 -128.5q0 -71 -34.5 -130.5t-94 -94t-129.5 -34.5t-129 34.5t-93.5 93.5t-34.5 129t34.5 129.5zM115 356q26 -45 71 -71.5t100 -26.5q54 0 99 26.5t71 72t26 99.5t-26 99.5t-71 71.5t-99 26t-99 -26.5
t-71.5 -71.5t-26.5 -99q0 -55 26 -100zM170 526.5q19 32.5 52 51t75 18.5q59 0 103 -37q7 -6 7 -10t-3 -9l-27 -38q-4 -6 -9 -6q-3 0 -8 3q-27 21 -59 21q-29 0 -46.5 -18t-17.5 -47q0 -28 17.5 -45.5t45.5 -17.5q34 0 60 21q4 4 9 4t9 -6l24 -37q4 -4 4 -9q0 -7 -7 -11
q-45 -38 -105 -38q-41 0 -73.5 18t-51 49.5t-18.5 70.5q0 40 19 72.5z" />
    <glyph glyph-name="ordfeminine" unicode="&#xaa;" horiz-adv-x="456" 
d="M161 291q-40 0 -70.5 16.5t-47 46t-16.5 68.5q0 66 57.5 104.5t173.5 38.5h28v2q0 46 -71 46q-56 0 -110 -33q-10 -5 -14 -5q-8 0 -14 10l-27 46q-6 9 -6 15q0 4 4 8.5t10 9.5q33 22 75 35.5t92 13.5q85 0 131 -35.5t46 -106.5v-251q0 -19 -18 -19h-76q-10 0 -14 4.5
t-4 14.5v19q-55 -48 -129 -48zM271 407q8 5 11.5 9.5t3.5 13.5v40q0 6 -2 8.5t-9 2.5h-7q-124 0 -124 -52q0 -20 14 -31t40 -11q38 0 73 20z" />
    <glyph glyph-name="guillemotleft" unicode="&#xab;" horiz-adv-x="548" 
d="M273 200q0 -10 -5 -19l-33 -67q-6 -14 -17 -14q-9 0 -18 11l-147 158q-14 15 -18.5 25.5t-4.5 27.5v56q0 17 4.5 27.5t18.5 25.5l147 158q9 11 18 11q11 0 17 -14l33 -67q5 -9 5 -19q0 -12 -12 -26l-117 -124l117 -124q12 -13 12 -26zM507 200q0 -10 -5 -19l-33 -67
q-6 -14 -17 -14q-9 0 -18 11l-147 158q-14 15 -18.5 25.5t-4.5 27.5v56q0 17 4.5 27.5t18.5 25.5l147 158q9 11 18 11q11 0 17 -14l33 -67q5 -9 5 -19q0 -12 -12 -26l-117 -124l117 -124q12 -13 12 -26z" />
    <glyph glyph-name="logicalnot" unicode="&#xac;" 
d="M551 118.5q-6 -6.5 -20 -6.5h-86q-13 0 -19.5 6.5t-6.5 19.5v178q0 8 -3.5 11.5t-11.5 3.5h-308q-13 0 -19.5 6.5t-6.5 19.5v85q0 14 6 20.5t20 6.5h435q14 0 20 -6.5t6 -20.5v-304q0 -13 -6 -19.5z" />
    <glyph glyph-name="uni00AD" unicode="&#xad;" horiz-adv-x="468" 
d="M391 274h-315q-13 0 -19.5 6.5t-6.5 19.5v83q0 14 6 20.5t20 6.5h315q14 0 20.5 -6.5t6.5 -20.5v-83q0 -26 -27 -26z" />
    <glyph glyph-name="registered" unicode="&#xae;" horiz-adv-x="571" 
d="M62.5 584.5q34.5 59.5 94 94t129.5 34.5t129 -34.5t93.5 -93t34.5 -128.5q0 -71 -34.5 -130.5t-94 -94t-129.5 -34.5t-129 34.5t-93.5 93.5t-34.5 129t34.5 129.5zM115 356q26 -45 71 -71.5t100 -26.5q54 0 99 26.5t71 72t26 99.5t-26 99.5t-71 71.5t-99 26t-99 -26.5
t-71.5 -71.5t-26.5 -99q0 -55 26 -100zM251 395v-56q0 -7 -3 -10.5t-11 -3.5h-56q-7 0 -10.5 3.5t-3.5 10.5v236q0 8 3.5 11t10.5 3h104q60 0 92.5 -22.5t32.5 -68.5q0 -26 -12.5 -45.5t-34.5 -30.5l54 -82q3 -4 3 -8q0 -3 -3 -5t-8 -2h-64q-8 0 -12.5 2.5t-8.5 10.5l-33 56
q-3 5 -5.5 6.5t-7.5 1.5h-21q-6 0 -6 -7zM253 521.5q-2 -1.5 -2 -6.5v-46q0 -4 2 -5.5t6 -1.5h22q43 0 43 31q0 30 -43 30h-22q-4 0 -6 -1.5z" />
    <glyph glyph-name="macron" unicode="&#xaf;" horiz-adv-x="500" 
d="M93.5 784q-6.5 6 -6.5 19v66q0 14 6.5 20t20.5 6h272q14 0 20.5 -6t6.5 -20v-66q0 -13 -6.5 -19t-20.5 -6h-272q-14 0 -20.5 6z" />
    <glyph glyph-name="degree" unicode="&#xb0;" horiz-adv-x="452" 
d="M60 617q26 44 70 70t96 26t96 -26t70 -70t26 -96t-26 -96t-70 -70t-96 -26t-96 26t-70 70t-26 96t26 96zM160 483q10 -17 27.5 -27t38.5 -10t38 10t27 27t10 38t-10 38t-27 27t-38 10t-38.5 -10t-27.5 -27t-10 -38t10 -38z" />
    <glyph glyph-name="plusminus" unicode="&#xb1;" 
d="M78.5 359.5q-6.5 6.5 -6.5 20.5v84q0 26 27 26h148q8 0 11.5 3.5t3.5 11.5v126q0 14 6.5 20t19.5 6h84q14 0 20.5 -6t6.5 -20v-126q0 -8 3 -11.5t12 -3.5h148q14 0 20 -6t6 -20v-84q0 -14 -6 -20.5t-20 -6.5h-148q-9 0 -12 -3t-3 -12v-125q0 -14 -6.5 -20t-20.5 -6h-84
q-13 0 -19.5 6.5t-6.5 19.5v125q0 9 -3.5 12t-11.5 3h-148q-14 0 -20.5 6.5zM582 6.5q-6 -6.5 -20 -6.5h-463q-27 0 -27 26v85q0 26 27 26h463q14 0 20 -6t6 -20v-85q0 -13 -6 -19.5z" />
    <glyph glyph-name="uni00B2" unicode="&#xb2;" horiz-adv-x="406" 
d="M364 445q-4 -4 -14 -4h-306q-16 0 -16 9q0 7 8 15l119 128q38 41 53 63t15 41q0 23 -15 36t-41 13q-43 0 -81 -30q-7 -5 -11 -5q-5 0 -11 9l-33 54q-6 9 -6 14q0 7 10 14q62 48 141 48q54 0 91.5 -19t56.5 -51t19 -71q0 -34 -14 -61t-50 -66l-34 -37h105q10 0 14 -4.5
t4 -14.5v-68q0 -9 -4 -13z" />
    <glyph glyph-name="uni00B3" unicode="&#xb3;" horiz-adv-x="406" 
d="M230.5 547q19.5 12 19.5 35q0 26 -27 37.5t-81 11.5q-15 0 -15 8q0 3 1.5 6t3.5 6l57 85h-129q-10 0 -14 4t-4 14v68q0 10 4 14t14 4h294q7 0 11 -2.5t4 -6.5q0 -6 -6 -14l-89 -124q46 -10 71 -38t25 -73q0 -43 -22.5 -77.5t-66 -54t-102.5 -19.5q-46 0 -85 12t-66 34
q-10 7 -10 16q0 7 4 12l34 55q7 10 13 10q4 0 11 -5q39 -30 99 -30q32 0 51.5 12z" />
    <glyph glyph-name="acute" unicode="&#xb4;" horiz-adv-x="500" 
d="M447 901q0 -11 -16 -20l-195 -118q-15 -9 -25 -9q-8 0 -19 8l-43 33q-11 9 -11 18q0 8 11 17l176 133q16 11 27 11q12 0 26 -11l56 -42q13 -10 13 -20z" />
    <glyph glyph-name="uni00B5" unicode="&#xb5;" horiz-adv-x="616" 
d="M69 486q4 4 13 4h133q9 0 13.5 -4t4.5 -14v-225q0 -53 18.5 -80.5t58.5 -27.5t59 27.5t19 80.5v225q0 10 4 14t13 4h133q10 0 14 -4t4 -14v-233q0 -124 -64.5 -187.5t-181.5 -63.5q-42 0 -77 12v-205q0 -13 -6.5 -19t-19.5 -6h-117q-13 0 -19 6t-6 19v677q0 10 4 14z" />
    <glyph glyph-name="paragraph" unicode="&#xb6;" horiz-adv-x="631" 
d="M212.5 565.5q-33.5 -18.5 -51.5 -51t-18 -72.5t18 -72.5t51.5 -51t77.5 -18.5h27q14 0 20 -6t6 -20v-408q0 -14 -6 -20t-20 -6h-65q-27 0 -27 26v329q-59 11 -105 46t-72 87t-26 113q0 72 35 131.5t96.5 93.5t137.5 34h290q14 0 20 -6t6 -20v-64q0 -14 -6 -20t-20 -6h-43
q-8 0 -11.5 -3.5t-3.5 -12.5v-702q0 -14 -6.5 -20t-20.5 -6h-64q-14 0 -20.5 6t-6.5 20v702q0 9 -3 12.5t-12 3.5h-100q-44 0 -77.5 -18.5zM237 489q19 19 47 19t47 -19t19 -47t-19 -47t-47 -19t-47 19t-19 47t19 47z" />
    <glyph glyph-name="periodcentered" unicode="&#xb7;" horiz-adv-x="283" 
d="M57.5 397q12.5 20 34.5 31.5t50 11.5t50 -11.5t34 -31.5t12 -46t-12 -46t-34 -31.5t-50 -11.5t-50 11.5t-34.5 31.5t-12.5 46t12.5 46z" />
    <glyph glyph-name="cedilla" unicode="&#xb8;" horiz-adv-x="500" 
d="M138.5 -153.5q2.5 2.5 6.5 2.5t10 -3q30 -14 67 -14q28 0 43.5 8.5t15.5 23.5t-15 23t-42 8q-23 0 -46 -5q-2 -1 -6 -1q-8 0 -8 7q0 5 2 8l54 106h83l-30 -58q49 0 77.5 -23t28.5 -63q0 -33 -20 -58.5t-55.5 -39.5t-80.5 -14q-28 0 -54 6.5t-47 16.5q-11 5 -11 13
q0 4 3 10l20 39q2 5 4.5 7.5z" />
    <glyph glyph-name="uni00B9" unicode="&#xb9;" horiz-adv-x="301" 
d="M212.5 836q4.5 -4 4.5 -14v-364q0 -9 -4 -13t-14 -4h-81q-10 0 -14 4t-4 13v268q0 5 -2.5 7.5t-8.5 2.5h-44q-10 0 -14 4t-4 14v68q0 10 4 14t14 4h154q9 0 13.5 -4z" />
    <glyph glyph-name="ordmasculine" unicode="&#xba;" horiz-adv-x="456" 
d="M120.5 316.5q-45.5 25.5 -70.5 73t-25 110.5q0 64 25.5 112.5t72 74.5t108.5 26q60 0 105 -25.5t70 -72.5t25 -110q0 -65 -25.5 -113.5t-72 -74.5t-108.5 -26q-59 0 -104.5 25.5zM289.5 423q22.5 29 22.5 79q0 51 -21.5 79.5t-61.5 28.5t-62.5 -29t-22.5 -79t22 -79
t61 -29q40 0 62.5 29z" />
    <glyph glyph-name="guillemotright" unicode="&#xbb;" horiz-adv-x="548" 
d="M41 499q0 10 6 20l32 67q8 14 17 14q8 0 19 -11l146 -158q14 -15 18.5 -25.5t4.5 -27.5v-56q0 -17 -4.5 -27.5t-18.5 -25.5l-146 -158q-11 -11 -19 -11q-9 0 -17 14l-32 67q-6 11 -6 20q0 12 13 25l117 124l-117 124q-13 13 -13 25zM275 499q0 10 6 20l32 67q8 14 17 14
q8 0 19 -11l146 -158q14 -15 18.5 -25.5t4.5 -27.5v-56q0 -17 -4.5 -27.5t-18.5 -25.5l-146 -158q-11 -11 -19 -11q-9 0 -17 14l-32 67q-6 11 -6 20q0 12 13 25l117 124l-117 124q-13 13 -13 25z" />
    <glyph glyph-name="onequarter" unicode="&#xbc;" horiz-adv-x="802" 
d="M212.5 696q4.5 -4 4.5 -14v-364q0 -9 -4 -13t-14 -4h-81q-10 0 -14 4t-4 13v268q0 5 -2.5 7.5t-8.5 2.5h-44q-10 0 -14 4t-4 14v68q0 10 4 14t14 4h154q9 0 13.5 -4zM749 163q9 0 13.5 -4t4.5 -14v-60q0 -18 -18 -18h-39v-50q0 -17 -18 -17h-81q-18 0 -18 17v50h-166
q-21 0 -32 10t-11 24q0 18 17 36l215 241q15 17 28.5 25.5t26.5 8.5q17 0 28 -11t11 -31v-207h39zM596 250l-74 -87h74v87zM194.5 -9q-6.5 -4 -20.5 -4h-82q-10 0 -15 3.5t-5 9.5q0 4 3 9.5t8 12.5l466 670q9 13 15.5 17t20.5 4h82q10 0 15 -3.5t5 -9.5q0 -4 -3 -9.5
t-8 -12.5l-466 -670q-9 -13 -15.5 -17z" />
    <glyph glyph-name="onehalf" unicode="&#xbd;" horiz-adv-x="876" 
d="M212.5 696q4.5 -4 4.5 -14v-364q0 -9 -4 -13t-14 -4h-81q-10 0 -14 4t-4 13v268q0 5 -2.5 7.5t-8.5 2.5h-44q-10 0 -14 4t-4 14v68q0 10 4 14t14 4h154q9 0 13.5 -4zM844 4q-4 -4 -14 -4h-306q-16 0 -16 9q0 7 8 15l119 128q38 41 53 63t15 41q0 23 -15 36t-41 13
q-43 0 -81 -30q-7 -5 -11 -5q-5 0 -11 9l-33 54q-6 9 -6 14q0 7 10 14q62 48 141 48q54 0 91.5 -19t56.5 -51t19 -71q0 -34 -14 -61t-50 -66l-34 -37h105q10 0 14 -4.5t4 -14.5v-68q0 -9 -4 -13zM194.5 -9q-6.5 -4 -20.5 -4h-82q-10 0 -15 3.5t-5 9.5q0 4 3 9.5t8 12.5
l466 670q9 13 15.5 17t20.5 4h82q10 0 15 -3.5t5 -9.5q0 -4 -3 -9.5t-8 -12.5l-466 -670q-9 -13 -15.5 -17z" />
    <glyph glyph-name="threequarters" unicode="&#xbe;" horiz-adv-x="900" 
d="M230.5 407q19.5 12 19.5 35q0 26 -27 37.5t-81 11.5q-15 0 -15 8q0 3 1.5 6t3.5 6l57 85h-129q-10 0 -14 4t-4 14v68q0 10 4 14t14 4h294q7 0 11 -2.5t4 -6.5q0 -6 -6 -14l-89 -124q46 -10 71 -38t25 -73q0 -43 -22.5 -77.5t-66 -54t-102.5 -19.5q-46 0 -85 12t-66 34
q-10 7 -10 16q0 7 4 12l34 55q7 10 13 10q4 0 11 -5q39 -30 99 -30q32 0 51.5 12zM847 163q9 0 13.5 -4t4.5 -14v-60q0 -18 -18 -18h-39v-50q0 -17 -18 -17h-81q-18 0 -18 17v50h-166q-21 0 -32 10t-11 24q0 18 17 36l215 241q15 17 28.5 25.5t26.5 8.5q17 0 28 -11t11 -31
v-207h39zM694 250l-74 -87h74v87zM292.5 -9q-6.5 -4 -20.5 -4h-82q-10 0 -15 3.5t-5 9.5q0 4 3 9.5t8 12.5l466 670q9 13 15.5 17t20.5 4h82q10 0 15 -3.5t5 -9.5q0 -4 -3 -9.5t-8 -12.5l-466 -670q-9 -13 -15.5 -17z" />
    <glyph glyph-name="questiondown" unicode="&#xbf;" horiz-adv-x="572" 
d="M402.5 583.5q-12.5 -19.5 -34.5 -31t-50 -11.5t-50 11.5t-34 31t-12 44.5q0 24 12 43.5t34 30.5t50 11t50 -11t34.5 -30.5t12.5 -43.5q0 -25 -12.5 -44.5zM398 497q6 -6 6 -20v-15q0 -38 -7 -62.5t-26 -46.5t-58 -47q-36 -23 -55 -38t-28.5 -29t-9.5 -31q0 -29 25 -45
t68 -16q39 0 73 13t68 37q12 9 20 9q11 0 19 -14l50 -78q9 -13 9 -22q0 -11 -15 -23q-104 -82 -232 -82q-78 0 -138 25.5t-93.5 72.5t-33.5 109q0 60 30.5 104.5t100.5 86.5q25 15 37.5 28t17 26.5t4.5 32.5v5q0 14 6 20t19 6h123q14 0 20 -6z" />
    <glyph glyph-name="Agrave" unicode="&#xc0;" horiz-adv-x="734" 
d="M188 32q-9 -19 -19 -25.5t-29 -6.5h-122q-22 0 -22 14q0 9 5 18l319 635q14 29 24 40t22 11t21.5 -11t24.5 -40l321 -635q5 -9 5 -17q0 -15 -23 -15h-128q-19 0 -28.5 6.5t-18.5 25.5l-177 364zM265 974q11 0 27 -11l176 -133q11 -8 11 -17q0 -10 -11 -18l-43 -33
q-11 -8 -20 -8t-24 9l-195 118q-16 9 -16 20q0 10 13 20l56 42q14 11 26 11z" />
    <glyph glyph-name="Aacute" unicode="&#xc1;" horiz-adv-x="734" 
d="M188 32q-9 -19 -19 -25.5t-29 -6.5h-122q-22 0 -22 14q0 9 5 18l319 635q14 29 24 40t22 11t21.5 -11t24.5 -40l321 -635q5 -9 5 -17q0 -15 -23 -15h-128q-19 0 -28.5 6.5t-18.5 25.5l-177 364zM564 901q0 -11 -16 -20l-195 -118q-15 -9 -25 -9q-8 0 -19 8l-43 33
q-11 9 -11 18q0 8 11 17l176 133q16 11 27 11q12 0 26 -11l56 -42q13 -10 13 -20z" />
    <glyph glyph-name="Acircumflex" unicode="&#xc2;" horiz-adv-x="734" 
d="M188 32q-9 -19 -19 -25.5t-29 -6.5h-122q-22 0 -22 14q0 9 5 18l319 635q14 29 24 40t22 11t21.5 -11t24.5 -40l321 -635q5 -9 5 -17q0 -15 -23 -15h-128q-19 0 -28.5 6.5t-18.5 25.5l-177 364zM244 754q-8 0 -20 6l-56 30q-13 7 -13 16q0 8 10 17l126 115q12 11 19.5 14
t24.5 3h64q17 0 24.5 -3t19.5 -14l126 -115q10 -9 10 -17q0 -9 -13 -16l-56 -30q-12 -6 -20 -6q-13 0 -26 13l-97 92l-97 -92q-13 -13 -26 -13z" />
    <glyph glyph-name="Atilde" unicode="&#xc3;" horiz-adv-x="734" 
d="M188 32q-9 -19 -19 -25.5t-29 -6.5h-122q-22 0 -22 14q0 9 5 18l319 635q14 29 24 40t22 11t21.5 -11t24.5 -40l321 -635q5 -9 5 -17q0 -15 -23 -15h-128q-19 0 -28.5 6.5t-18.5 25.5l-177 364zM398.5 769q-20.5 6 -48.5 17q-20 9 -33.5 13t-26.5 4q-19 0 -34 -8t-31 -24
q-7 -7 -15 -7q-7 0 -14 8l-35 51q-6 8 -6 14q0 7 9 16q22 26 54.5 42.5t71.5 16.5q25 0 45.5 -6t48.5 -17q15 -6 31 -11t29 -5q19 0 34.5 8t30.5 23q8 8 15 8t14 -9l35 -51q6 -7 6 -13t-9 -17q-22 -26 -54.5 -42.5t-71.5 -16.5q-25 0 -45.5 6z" />
    <glyph glyph-name="Adieresis" unicode="&#xc4;" horiz-adv-x="734" 
d="M188 32q-9 -19 -19 -25.5t-29 -6.5h-122q-22 0 -22 14q0 9 5 18l319 635q14 29 24 40t22 11t21.5 -11t24.5 -40l321 -635q5 -9 5 -17q0 -15 -23 -15h-128q-19 0 -28.5 6.5t-18.5 25.5l-177 364zM205 883q21 21 55 21t55.5 -21t21.5 -54q0 -32 -21.5 -53t-55.5 -21t-55 21
t-21 53q0 33 21 54zM418 883q21 21 55 21t55.5 -21t21.5 -54q0 -32 -21.5 -53t-55.5 -21t-55 21t-21 53q0 33 21 54z" />
    <glyph glyph-name="Aring" unicode="&#xc5;" horiz-adv-x="734" 
d="M226 867.5q22 37.5 59.5 59.5t82.5 22t82.5 -22t59.5 -59.5t22 -82.5q0 -51 -28.5 -92.5t-74.5 -59.5l304 -601q5 -9 5 -17q0 -15 -23 -15h-128q-19 0 -28.5 6.5t-18.5 25.5l-177 364l-175 -364q-9 -19 -19 -25.5t-29 -6.5h-122q-22 0 -22 14q0 9 5 18l302 602
q-44 19 -71.5 60t-27.5 91q0 45 22 82.5zM330.5 747.5q15.5 -15.5 37.5 -15.5q23 0 38 15.5t15 37.5q0 23 -15 38t-38 15q-22 0 -37.5 -15t-15.5 -38q0 -22 15.5 -37.5z" />
    <glyph glyph-name="AE" unicode="&#xc6;" horiz-adv-x="1042" 
d="M409.5 695q8.5 5 26.5 5h533q27 0 27 -26v-108q0 -14 -6.5 -20t-20.5 -6h-257q-9 0 -12 -3.5t-3 -11.5v-78q0 -9 3 -12t12 -3h224q14 0 20 -6.5t6 -20.5v-107q0 -13 -6 -19.5t-20 -6.5h-224q-9 0 -12 -3.5t-3 -11.5v-82q0 -8 3 -11.5t12 -3.5h258q14 0 20.5 -6t6.5 -20
v-108q0 -26 -27 -26h-421q-13 0 -19.5 6.5t-6.5 19.5v142q0 9 -3.5 12t-11.5 3h-212q-10 0 -14 -2.5t-9 -10.5l-87 -144q-10 -16 -18.5 -21t-26.5 -5h-137q-10 0 -14.5 4t-4.5 10q0 7 9 21l397 639q10 16 18.5 21zM519.5 346q3.5 3 3.5 12v211q0 5 -1 7.5t-3 2.5q-4 0 -8 -7
l-131 -213q-3 -6 -3 -9q0 -7 12 -7h119q8 0 11.5 3z" />
    <glyph glyph-name="Ccedilla" unicode="&#xc7;" horiz-adv-x="711" 
d="M258.5 -153.5q2.5 2.5 6.5 2.5t10 -3q32 -14 67 -14q28 0 43.5 8.5t15.5 23.5t-14.5 23t-41.5 8q-24 0 -47 -5q-2 -1 -6 -1q-8 0 -8 7q0 5 2 8l46 90q-86 16 -153 65t-104.5 123.5t-37.5 163.5q0 105 49 188.5t135.5 131t195.5 47.5q74 0 139.5 -25t118.5 -69
q12 -10 12 -19q0 -8 -7 -18l-58 -82q-9 -13 -19 -13q-9 0 -20 8q-81 58 -167 58q-57 0 -102.5 -25.5t-71 -72t-25.5 -106.5q0 -58 25.5 -104t71 -72t102.5 -26q92 0 169 59q12 9 20 9q5 0 9 -3t9 -9l57 -82q6 -9 6 -17q0 -9 -15 -23q-54 -45 -120.5 -69.5t-139.5 -24.5
l-18 -35h3q47 0 75 -23t28 -63q0 -33 -19.5 -58.5t-54.5 -39.5t-79 -14q-30 0 -56.5 6.5t-47.5 16.5q-11 5 -11 13q0 4 3 10l20 39q2 5 4.5 7.5z" />
    <glyph glyph-name="Egrave" unicode="&#xc8;" horiz-adv-x="594" 
d="M542.5 154q6.5 -6 6.5 -20v-108q0 -26 -27 -26h-421q-13 0 -19.5 6.5t-6.5 19.5v648q0 14 6.5 20t19.5 6h420q27 0 27 -26v-108q0 -14 -6.5 -20t-20.5 -6h-257q-9 0 -12 -3.5t-3 -11.5v-78q0 -9 3 -12t12 -3h224q14 0 20 -6.5t6 -20.5v-107q0 -13 -6 -19.5t-20 -6.5h-224
q-9 0 -12 -3.5t-3 -11.5v-82q0 -8 3 -11.5t12 -3.5h258q14 0 20.5 -6zM210 974q11 0 27 -11l176 -133q11 -8 11 -17q0 -10 -11 -18l-43 -33q-11 -8 -20 -8t-24 9l-195 118q-16 9 -16 20q0 10 13 20l56 42q14 11 26 11z" />
    <glyph glyph-name="Eacute" unicode="&#xc9;" horiz-adv-x="594" 
d="M542.5 154q6.5 -6 6.5 -20v-108q0 -26 -27 -26h-421q-13 0 -19.5 6.5t-6.5 19.5v648q0 14 6.5 20t19.5 6h420q27 0 27 -26v-108q0 -14 -6.5 -20t-20.5 -6h-257q-9 0 -12 -3.5t-3 -11.5v-78q0 -9 3 -12t12 -3h224q14 0 20 -6.5t6 -20.5v-107q0 -13 -6 -19.5t-20 -6.5h-224
q-9 0 -12 -3.5t-3 -11.5v-82q0 -8 3 -11.5t12 -3.5h258q14 0 20.5 -6zM509 901q0 -11 -16 -20l-195 -118q-15 -9 -25 -9q-8 0 -19 8l-43 33q-11 9 -11 18q0 8 11 17l176 133q16 11 27 11q12 0 26 -11l56 -42q13 -10 13 -20z" />
    <glyph glyph-name="Ecircumflex" unicode="&#xca;" horiz-adv-x="594" 
d="M542.5 154q6.5 -6 6.5 -20v-108q0 -26 -27 -26h-421q-13 0 -19.5 6.5t-6.5 19.5v648q0 14 6.5 20t19.5 6h420q27 0 27 -26v-108q0 -14 -6.5 -20t-20.5 -6h-257q-9 0 -12 -3.5t-3 -11.5v-78q0 -9 3 -12t12 -3h224q14 0 20 -6.5t6 -20.5v-107q0 -13 -6 -19.5t-20 -6.5h-224
q-9 0 -12 -3.5t-3 -11.5v-82q0 -8 3 -11.5t12 -3.5h258q14 0 20.5 -6zM189 754q-8 0 -20 6l-56 30q-13 7 -13 16q0 8 10 17l126 115q12 11 19.5 14t24.5 3h64q17 0 24.5 -3t19.5 -14l126 -115q10 -9 10 -17q0 -9 -13 -16l-56 -30q-12 -6 -20 -6q-13 0 -26 13l-97 92l-97 -92
q-13 -13 -26 -13z" />
    <glyph glyph-name="Edieresis" unicode="&#xcb;" horiz-adv-x="594" 
d="M542.5 154q6.5 -6 6.5 -20v-108q0 -26 -27 -26h-421q-13 0 -19.5 6.5t-6.5 19.5v648q0 14 6.5 20t19.5 6h420q27 0 27 -26v-108q0 -14 -6.5 -20t-20.5 -6h-257q-9 0 -12 -3.5t-3 -11.5v-78q0 -9 3 -12t12 -3h224q14 0 20 -6.5t6 -20.5v-107q0 -13 -6 -19.5t-20 -6.5h-224
q-9 0 -12 -3.5t-3 -11.5v-82q0 -8 3 -11.5t12 -3.5h258q14 0 20.5 -6zM150 883q21 21 55 21t55.5 -21t21.5 -54q0 -32 -21.5 -53t-55.5 -21t-55 21t-21 53q0 33 21 54zM363 883q21 21 55 21t55.5 -21t21.5 -54q0 -32 -21.5 -53t-55.5 -21t-55 21t-21 53q0 33 21 54z" />
    <glyph glyph-name="Igrave" unicode="&#xcc;" horiz-adv-x="324" 
d="M242.5 6q-6.5 -6 -20.5 -6h-121q-13 0 -19.5 6.5t-6.5 19.5v648q0 14 6.5 20t19.5 6h121q14 0 20.5 -6t6.5 -20v-648q0 -14 -6.5 -20zM60 974q11 0 27 -11l176 -133q11 -8 11 -17q0 -10 -11 -18l-43 -33q-11 -8 -20 -8t-24 9l-195 118q-16 9 -16 20q0 10 13 20l56 42
q14 11 26 11z" />
    <glyph glyph-name="Iacute" unicode="&#xcd;" horiz-adv-x="324" 
d="M242.5 6q-6.5 -6 -20.5 -6h-121q-13 0 -19.5 6.5t-6.5 19.5v648q0 14 6.5 20t19.5 6h121q14 0 20.5 -6t6.5 -20v-648q0 -14 -6.5 -20zM359 901q0 -11 -16 -20l-195 -118q-15 -9 -25 -9q-8 0 -19 8l-43 33q-11 9 -11 18q0 8 11 17l176 133q16 11 27 11q12 0 26 -11l56 -42
q13 -10 13 -20z" />
    <glyph glyph-name="Icircumflex" unicode="&#xce;" horiz-adv-x="324" 
d="M242.5 6q-6.5 -6 -20.5 -6h-121q-13 0 -19.5 6.5t-6.5 19.5v648q0 14 6.5 20t19.5 6h121q14 0 20.5 -6t6.5 -20v-648q0 -14 -6.5 -20zM39 754q-8 0 -20 6l-56 30q-13 7 -13 16q0 8 10 17l126 115q12 11 19.5 14t24.5 3h64q17 0 24.5 -3t19.5 -14l126 -115q10 -9 10 -17
q0 -9 -13 -16l-56 -30q-12 -6 -20 -6q-13 0 -26 13l-97 92l-97 -92q-13 -13 -26 -13z" />
    <glyph glyph-name="Idieresis" unicode="&#xcf;" horiz-adv-x="324" 
d="M242.5 6q-6.5 -6 -20.5 -6h-121q-13 0 -19.5 6.5t-6.5 19.5v648q0 14 6.5 20t19.5 6h121q14 0 20.5 -6t6.5 -20v-648q0 -14 -6.5 -20zM0 883q21 21 55 21t55.5 -21t21.5 -54q0 -32 -21.5 -53t-55.5 -21t-55 21t-21 53q0 33 21 54zM213 883q21 21 55 21t55.5 -21t21.5 -54
q0 -32 -21.5 -53t-55.5 -21t-55 21t-21 53q0 33 21 54z" />
    <glyph glyph-name="Eth" unicode="&#xd0;" horiz-adv-x="775" 
d="M71.5 282.5q-3.5 3.5 -11.5 3.5h-32q-14 0 -20.5 6t-6.5 19v79q0 14 6.5 20t20.5 6h32q8 0 11.5 3t3.5 11v244q0 14 6.5 20t19.5 6h246q121 0 207 -42t131 -119t45 -181q0 -109 -47 -189.5t-137.5 -124.5t-215.5 -44h-229q-13 0 -19.5 6.5t-6.5 19.5v245q0 8 -3.5 11.5z
M252 536.5q-3 -3.5 -3 -11.5v-95q0 -8 3 -11t11 -3h108q14 0 20 -6t6 -20v-79q0 -14 -6 -19.5t-20 -5.5h-108q-8 0 -11 -3.5t-3 -11.5v-96q0 -8 3 -11.5t12 -3.5h65q108 0 164.5 51t56.5 142q0 57 -25 99t-73.5 65t-118.5 23h-69q-9 0 -12 -3.5z" />
    <glyph glyph-name="Ntilde" unicode="&#xd1;" horiz-adv-x="760" 
d="M517.5 694q6.5 6 19.5 6h121q27 0 27 -26v-648q0 -39 -24 -39q-10 0 -21.5 7.5t-30.5 25.5l-360 338v-332q0 -14 -6.5 -20t-20.5 -6h-121q-13 0 -19.5 6.5t-6.5 19.5v648q0 39 24 39q10 0 21.5 -7.5t30.5 -25.5l360 -338v332q0 14 6.5 20zM411.5 769q-20.5 6 -48.5 17
q-20 9 -33.5 13t-26.5 4q-19 0 -34 -8t-31 -24q-7 -7 -15 -7q-7 0 -14 8l-35 51q-6 8 -6 14q0 7 9 16q22 26 54.5 42.5t71.5 16.5q25 0 45.5 -6t48.5 -17q15 -6 31 -11t29 -5q19 0 34.5 8t30.5 23q8 8 15 8t14 -9l35 -51q6 -7 6 -13t-9 -17q-22 -26 -54.5 -42.5t-71.5 -16.5
q-25 0 -45.5 6z" />
    <glyph glyph-name="Ograve" unicode="&#xd2;" horiz-adv-x="823" 
d="M85.5 536q48.5 83 133.5 130t192 47q108 0 193.5 -46.5t133.5 -129t48 -187.5t-48.5 -187.5t-134.5 -129t-194 -46.5q-106 0 -191 46t-133 128.5t-48 186.5q0 105 48.5 188zM242 243q25 -46 69 -71t99 -25t99.5 25.5t70.5 71.5t26 105q0 61 -25.5 107t-70 71.5
t-99.5 25.5t-99.5 -25.5t-69.5 -72t-25 -106.5t25 -106zM309 974q11 0 27 -11l176 -133q11 -8 11 -17q0 -10 -11 -18l-43 -33q-11 -8 -20 -8t-24 9l-195 118q-16 9 -16 20q0 10 13 20l56 42q14 11 26 11z" />
    <glyph glyph-name="Oacute" unicode="&#xd3;" horiz-adv-x="823" 
d="M85.5 536q48.5 83 133.5 130t192 47q108 0 193.5 -46.5t133.5 -129t48 -187.5t-48.5 -187.5t-134.5 -129t-194 -46.5q-106 0 -191 46t-133 128.5t-48 186.5q0 105 48.5 188zM242 243q25 -46 69 -71t99 -25t99.5 25.5t70.5 71.5t26 105q0 61 -25.5 107t-70 71.5
t-99.5 25.5t-99.5 -25.5t-69.5 -72t-25 -106.5t25 -106zM608 901q0 -11 -16 -20l-195 -118q-15 -9 -25 -9q-8 0 -19 8l-43 33q-11 9 -11 18q0 8 11 17l176 133q16 11 27 11q12 0 26 -11l56 -42q13 -10 13 -20z" />
    <glyph glyph-name="Ocircumflex" unicode="&#xd4;" horiz-adv-x="823" 
d="M85.5 536q48.5 83 133.5 130t192 47q108 0 193.5 -46.5t133.5 -129t48 -187.5t-48.5 -187.5t-134.5 -129t-194 -46.5q-106 0 -191 46t-133 128.5t-48 186.5q0 105 48.5 188zM242 243q25 -46 69 -71t99 -25t99.5 25.5t70.5 71.5t26 105q0 61 -25.5 107t-70 71.5
t-99.5 25.5t-99.5 -25.5t-69.5 -72t-25 -106.5t25 -106zM288 754q-8 0 -20 6l-56 30q-13 7 -13 16q0 8 10 17l126 115q12 11 19.5 14t24.5 3h64q17 0 24.5 -3t19.5 -14l126 -115q10 -9 10 -17q0 -9 -13 -16l-56 -30q-12 -6 -20 -6q-13 0 -26 13l-97 92l-97 -92
q-13 -13 -26 -13z" />
    <glyph glyph-name="Otilde" unicode="&#xd5;" horiz-adv-x="823" 
d="M85.5 536q48.5 83 133.5 130t192 47q108 0 193.5 -46.5t133.5 -129t48 -187.5t-48.5 -187.5t-134.5 -129t-194 -46.5q-106 0 -191 46t-133 128.5t-48 186.5q0 105 48.5 188zM242 243q25 -46 69 -71t99 -25t99.5 25.5t70.5 71.5t26 105q0 61 -25.5 107t-70 71.5
t-99.5 25.5t-99.5 -25.5t-69.5 -72t-25 -106.5t25 -106zM442.5 769q-20.5 6 -48.5 17q-20 9 -33.5 13t-26.5 4q-19 0 -34 -8t-31 -24q-7 -7 -15 -7q-7 0 -14 8l-35 51q-6 8 -6 14q0 7 9 16q22 26 54.5 42.5t71.5 16.5q25 0 45.5 -6t48.5 -17q15 -6 31 -11t29 -5q19 0 34.5 8
t30.5 23q8 8 15 8t14 -9l35 -51q6 -7 6 -13t-9 -17q-22 -26 -54.5 -42.5t-71.5 -16.5q-25 0 -45.5 6z" />
    <glyph glyph-name="Odieresis" unicode="&#xd6;" horiz-adv-x="823" 
d="M85.5 536q48.5 83 133.5 130t192 47q108 0 193.5 -46.5t133.5 -129t48 -187.5t-48.5 -187.5t-134.5 -129t-194 -46.5q-106 0 -191 46t-133 128.5t-48 186.5q0 105 48.5 188zM242 243q25 -46 69 -71t99 -25t99.5 25.5t70.5 71.5t26 105q0 61 -25.5 107t-70 71.5
t-99.5 25.5t-99.5 -25.5t-69.5 -72t-25 -106.5t25 -106zM249 883q21 21 55 21t55.5 -21t21.5 -54q0 -32 -21.5 -53t-55.5 -21t-55 21t-21 53q0 33 21 54zM462 883q21 21 55 21t55.5 -21t21.5 -54q0 -32 -21.5 -53t-55.5 -21t-55 21t-21 53q0 33 21 54z" />
    <glyph glyph-name="multiply" unicode="&#xd7;" 
d="M580 158q0 -9 -10 -19l-59 -59q-10 -10 -18 -10q-7 0 -19 10l-133 133q-6 6 -11 6t-11 -6l-132 -133q-10 -10 -18 -10q-7 0 -19 10l-60 59q-10 9 -10 19t10 19l133 132q6 6 6 11t-6 11l-133 132q-10 9 -10 19t10 19l60 59q10 10 19 10t18 -10l132 -133q6 -6 11 -6t11 6
l133 133q10 10 19 10t18 -10l59 -59q10 -10 10 -19t-10 -19l-132 -132q-7 -7 -7 -11q0 -2 3 -6t4 -5l132 -132q10 -10 10 -19z" />
    <glyph glyph-name="Oslash" unicode="&#xd8;" horiz-adv-x="823" 
d="M762 486q24 -63 24 -136q0 -105 -48.5 -187.5t-134.5 -129t-194 -46.5q-59 0 -112 14.5t-97 42.5l-32 -36q-11 -13 -19 -17t-24 -4h-64q-9 0 -14 3.5t-5 8.5q0 4 4 9.5t11 13.5l71 80q-44 48 -67.5 110.5t-23.5 135.5q0 105 48.5 188t133.5 130t192 47q119 0 211 -58
l33 37q11 13 19.5 17t23.5 4h63q10 0 15 -3.5t5 -8.5q0 -4 -4 -9.5t-11 -13.5l-72 -81q44 -48 68 -111zM248 234l261 293q-43 26 -98 26t-99.5 -25.5t-69.5 -72t-25 -106.5q0 -71 31 -115zM573 465l-260 -293q41 -25 97 -25q55 0 99.5 25.5t70.5 71.5t26 105q0 70 -33 116z
" />
    <glyph glyph-name="Ugrave" unicode="&#xd9;" horiz-adv-x="773" 
d="M662.5 128.5q-40.5 -70.5 -113.5 -106t-169 -35.5q-93 0 -162.5 34t-108.5 104t-39 175v374q0 14 6.5 20t19.5 6h121q14 0 20.5 -6t6.5 -20v-360q0 -81 36 -124t106 -43q69 0 106 43t37 124v360q0 14 6.5 20t19.5 6h121q14 0 20.5 -6t6.5 -20v-372q0 -103 -40.5 -173.5z
M284 974q11 0 27 -11l176 -133q11 -8 11 -17q0 -10 -11 -18l-43 -33q-11 -8 -20 -8t-24 9l-195 118q-16 9 -16 20q0 10 13 20l56 42q14 11 26 11z" />
    <glyph glyph-name="Uacute" unicode="&#xda;" horiz-adv-x="773" 
d="M662.5 128.5q-40.5 -70.5 -113.5 -106t-169 -35.5q-93 0 -162.5 34t-108.5 104t-39 175v374q0 14 6.5 20t19.5 6h121q14 0 20.5 -6t6.5 -20v-360q0 -81 36 -124t106 -43q69 0 106 43t37 124v360q0 14 6.5 20t19.5 6h121q14 0 20.5 -6t6.5 -20v-372q0 -103 -40.5 -173.5z
M583 901q0 -11 -16 -20l-195 -118q-15 -9 -25 -9q-8 0 -19 8l-43 33q-11 9 -11 18q0 8 11 17l176 133q16 11 27 11q12 0 26 -11l56 -42q13 -10 13 -20z" />
    <glyph glyph-name="Ucircumflex" unicode="&#xdb;" horiz-adv-x="773" 
d="M662.5 128.5q-40.5 -70.5 -113.5 -106t-169 -35.5q-93 0 -162.5 34t-108.5 104t-39 175v374q0 14 6.5 20t19.5 6h121q14 0 20.5 -6t6.5 -20v-360q0 -81 36 -124t106 -43q69 0 106 43t37 124v360q0 14 6.5 20t19.5 6h121q14 0 20.5 -6t6.5 -20v-372q0 -103 -40.5 -173.5z
M263 754q-8 0 -20 6l-56 30q-13 7 -13 16q0 8 10 17l126 115q12 11 19.5 14t24.5 3h64q17 0 24.5 -3t19.5 -14l126 -115q10 -9 10 -17q0 -9 -13 -16l-56 -30q-12 -6 -20 -6q-13 0 -26 13l-97 92l-97 -92q-13 -13 -26 -13z" />
    <glyph glyph-name="Udieresis" unicode="&#xdc;" horiz-adv-x="773" 
d="M662.5 128.5q-40.5 -70.5 -113.5 -106t-169 -35.5q-93 0 -162.5 34t-108.5 104t-39 175v374q0 14 6.5 20t19.5 6h121q14 0 20.5 -6t6.5 -20v-360q0 -81 36 -124t106 -43q69 0 106 43t37 124v360q0 14 6.5 20t19.5 6h121q14 0 20.5 -6t6.5 -20v-372q0 -103 -40.5 -173.5z
M224 883q21 21 55 21t55.5 -21t21.5 -54q0 -32 -21.5 -53t-55.5 -21t-55 21t-21 53q0 33 21 54zM437 883q21 21 55 21t55.5 -21t21.5 -54q0 -32 -21.5 -53t-55.5 -21t-55 21t-21 53q0 33 21 54z" />
    <glyph glyph-name="Yacute" unicode="&#xdd;" horiz-adv-x="673" 
d="M477 672q10 18 19 23t28 5h133q21 0 21 -13q0 -7 -6 -16l-247 -412v-233q0 -13 -6 -19.5t-20 -6.5h-122q-13 0 -19.5 6.5t-6.5 19.5v228l-250 417q-6 9 -6 16q0 13 21 13h138q19 0 28 -5t19 -23l138 -244zM535 901q0 -11 -16 -20l-195 -118q-15 -9 -25 -9q-8 0 -19 8
l-43 33q-11 9 -11 18q0 8 11 17l176 133q16 11 27 11q12 0 26 -11l56 -42q13 -10 13 -20z" />
    <glyph glyph-name="Thorn" unicode="&#xde;" horiz-adv-x="675" 
d="M252 608.5q3 -3.5 12 -3.5h85q141 0 218.5 -63t77.5 -186q0 -82 -36 -139.5t-104 -87t-161 -29.5h-80q-9 0 -12 -3t-3 -12v-59q0 -14 -6.5 -20t-20.5 -6h-121q-13 0 -19.5 6.5t-6.5 19.5v648q0 14 6.5 20t19.5 6h121q14 0 20.5 -6t6.5 -20v-53q0 -9 3 -12.5zM252 442
q-3 -3 -3 -12v-155q0 -8 3 -11.5t12 -3.5h68q133 0 133 95q0 48 -32.5 69t-99.5 21h-69q-9 0 -12 -3z" />
    <glyph glyph-name="germandbls" unicode="&#xdf;" horiz-adv-x="885" 
d="M535 451.5q10 -11.5 32.5 -20t65.5 -18.5q74 -18 121.5 -43t71.5 -64t24 -95q0 -67 -34 -118t-96 -78.5t-145 -27.5q-144 0 -251 79q-13 10 -13 20q0 7 8 21l51 85q9 16 19 16q7 0 18 -8q36 -26 79 -40.5t86 -14.5q49 0 73.5 14.5t24.5 39.5q0 18 -11 29t-35.5 20
t-72.5 20q-69 16 -113 39.5t-66.5 59t-22.5 86.5q0 33 11.5 59.5t33.5 44.5l-17 1q-66 0 -101 -44q-17 -21 -24.5 -53.5t-7.5 -87.5v-347q0 -13 -6 -19.5t-20 -6.5h-121q-27 0 -27 26v359q0 68 7.5 112.5t24 76.5t45.5 60q44 42 107 63t163 21q102 0 202.5 -22t173.5 -59
q12 -6 17 -12t5 -14q0 -10 -7 -23l-42 -79q-5 -9 -9.5 -13.5t-11.5 -4.5q-8 0 -20 6q-68 33 -127 33q-35 0 -54 -13.5t-19 -36.5q0 -17 10 -28.5z" />
    <glyph glyph-name="agrave" unicode="&#xe0;" horiz-adv-x="734" 
d="M188 32q-9 -19 -19 -25.5t-29 -6.5h-122q-22 0 -22 14q0 9 5 18l319 635q14 29 24 40t22 11t21.5 -11t24.5 -40l321 -635q5 -9 5 -17q0 -15 -23 -15h-128q-19 0 -28.5 6.5t-18.5 25.5l-177 364zM265 974q11 0 27 -11l176 -133q11 -8 11 -17q0 -10 -11 -18l-43 -33
q-11 -8 -20 -8t-24 9l-195 118q-16 9 -16 20q0 10 13 20l56 42q14 11 26 11z" />
    <glyph glyph-name="aacute" unicode="&#xe1;" horiz-adv-x="734" 
d="M188 32q-9 -19 -19 -25.5t-29 -6.5h-122q-22 0 -22 14q0 9 5 18l319 635q14 29 24 40t22 11t21.5 -11t24.5 -40l321 -635q5 -9 5 -17q0 -15 -23 -15h-128q-19 0 -28.5 6.5t-18.5 25.5l-177 364zM564 901q0 -11 -16 -20l-195 -118q-15 -9 -25 -9q-8 0 -19 8l-43 33
q-11 9 -11 18q0 8 11 17l176 133q16 11 27 11q12 0 26 -11l56 -42q13 -10 13 -20z" />
    <glyph glyph-name="acircumflex" unicode="&#xe2;" horiz-adv-x="734" 
d="M188 32q-9 -19 -19 -25.5t-29 -6.5h-122q-22 0 -22 14q0 9 5 18l319 635q14 29 24 40t22 11t21.5 -11t24.5 -40l321 -635q5 -9 5 -17q0 -15 -23 -15h-128q-19 0 -28.5 6.5t-18.5 25.5l-177 364zM244 754q-8 0 -20 6l-56 30q-13 7 -13 16q0 8 10 17l126 115q12 11 19.5 14
t24.5 3h64q17 0 24.5 -3t19.5 -14l126 -115q10 -9 10 -17q0 -9 -13 -16l-56 -30q-12 -6 -20 -6q-13 0 -26 13l-97 92l-97 -92q-13 -13 -26 -13z" />
    <glyph glyph-name="atilde" unicode="&#xe3;" horiz-adv-x="734" 
d="M188 32q-9 -19 -19 -25.5t-29 -6.5h-122q-22 0 -22 14q0 9 5 18l319 635q14 29 24 40t22 11t21.5 -11t24.5 -40l321 -635q5 -9 5 -17q0 -15 -23 -15h-128q-19 0 -28.5 6.5t-18.5 25.5l-177 364zM398.5 769q-20.5 6 -48.5 17q-20 9 -33.5 13t-26.5 4q-19 0 -34 -8t-31 -24
q-7 -7 -15 -7q-7 0 -14 8l-35 51q-6 8 -6 14q0 7 9 16q22 26 54.5 42.5t71.5 16.5q25 0 45.5 -6t48.5 -17q15 -6 31 -11t29 -5q19 0 34.5 8t30.5 23q8 8 15 8t14 -9l35 -51q6 -7 6 -13t-9 -17q-22 -26 -54.5 -42.5t-71.5 -16.5q-25 0 -45.5 6z" />
    <glyph glyph-name="adieresis" unicode="&#xe4;" horiz-adv-x="734" 
d="M188 32q-9 -19 -19 -25.5t-29 -6.5h-122q-22 0 -22 14q0 9 5 18l319 635q14 29 24 40t22 11t21.5 -11t24.5 -40l321 -635q5 -9 5 -17q0 -15 -23 -15h-128q-19 0 -28.5 6.5t-18.5 25.5l-177 364zM205 883q21 21 55 21t55.5 -21t21.5 -54q0 -32 -21.5 -53t-55.5 -21t-55 21
t-21 53q0 33 21 54zM418 883q21 21 55 21t55.5 -21t21.5 -54q0 -32 -21.5 -53t-55.5 -21t-55 21t-21 53q0 33 21 54z" />
    <glyph glyph-name="aring" unicode="&#xe5;" horiz-adv-x="734" 
d="M226 867.5q22 37.5 59.5 59.5t82.5 22t82.5 -22t59.5 -59.5t22 -82.5q0 -51 -28.5 -92.5t-74.5 -59.5l304 -601q5 -9 5 -17q0 -15 -23 -15h-128q-19 0 -28.5 6.5t-18.5 25.5l-177 364l-175 -364q-9 -19 -19 -25.5t-29 -6.5h-122q-22 0 -22 14q0 9 5 18l302 602
q-44 19 -71.5 60t-27.5 91q0 45 22 82.5zM330.5 747.5q15.5 -15.5 37.5 -15.5q23 0 38 15.5t15 37.5q0 23 -15 38t-38 15q-22 0 -37.5 -15t-15.5 -38q0 -22 15.5 -37.5z" />
    <glyph glyph-name="ae" unicode="&#xe6;" horiz-adv-x="1042" 
d="M409.5 695q8.5 5 26.5 5h533q27 0 27 -26v-108q0 -14 -6.5 -20t-20.5 -6h-257q-9 0 -12 -3.5t-3 -11.5v-78q0 -9 3 -12t12 -3h224q14 0 20 -6.5t6 -20.5v-107q0 -13 -6 -19.5t-20 -6.5h-224q-9 0 -12 -3.5t-3 -11.5v-82q0 -8 3 -11.5t12 -3.5h258q14 0 20.5 -6t6.5 -20
v-108q0 -26 -27 -26h-421q-13 0 -19.5 6.5t-6.5 19.5v142q0 9 -3.5 12t-11.5 3h-212q-10 0 -14 -2.5t-9 -10.5l-87 -144q-10 -16 -18.5 -21t-26.5 -5h-137q-10 0 -14.5 4t-4.5 10q0 7 9 21l397 639q10 16 18.5 21zM519.5 346q3.5 3 3.5 12v211q0 5 -1 7.5t-3 2.5q-4 0 -8 -7
l-131 -213q-3 -6 -3 -9q0 -7 12 -7h119q8 0 11.5 3z" />
    <glyph glyph-name="ccedilla" unicode="&#xe7;" horiz-adv-x="711" 
d="M258.5 -153.5q2.5 2.5 6.5 2.5t10 -3q32 -14 67 -14q28 0 43.5 8.5t15.5 23.5t-14.5 23t-41.5 8q-24 0 -47 -5q-2 -1 -6 -1q-8 0 -8 7q0 5 2 8l46 90q-86 16 -153 65t-104.5 123.5t-37.5 163.5q0 105 49 188.5t135.5 131t195.5 47.5q74 0 139.5 -25t118.5 -69
q12 -10 12 -19q0 -8 -7 -18l-58 -82q-9 -13 -19 -13q-9 0 -20 8q-81 58 -167 58q-57 0 -102.5 -25.5t-71 -72t-25.5 -106.5q0 -58 25.5 -104t71 -72t102.5 -26q92 0 169 59q12 9 20 9q5 0 9 -3t9 -9l57 -82q6 -9 6 -17q0 -9 -15 -23q-54 -45 -120.5 -69.5t-139.5 -24.5
l-18 -35h3q47 0 75 -23t28 -63q0 -33 -19.5 -58.5t-54.5 -39.5t-79 -14q-30 0 -56.5 6.5t-47.5 16.5q-11 5 -11 13q0 4 3 10l20 39q2 5 4.5 7.5z" />
    <glyph glyph-name="egrave" unicode="&#xe8;" horiz-adv-x="594" 
d="M542.5 154q6.5 -6 6.5 -20v-108q0 -26 -27 -26h-421q-13 0 -19.5 6.5t-6.5 19.5v648q0 14 6.5 20t19.5 6h420q27 0 27 -26v-108q0 -14 -6.5 -20t-20.5 -6h-257q-9 0 -12 -3.5t-3 -11.5v-78q0 -9 3 -12t12 -3h224q14 0 20 -6.5t6 -20.5v-107q0 -13 -6 -19.5t-20 -6.5h-224
q-9 0 -12 -3.5t-3 -11.5v-82q0 -8 3 -11.5t12 -3.5h258q14 0 20.5 -6zM210 974q11 0 27 -11l176 -133q11 -8 11 -17q0 -10 -11 -18l-43 -33q-11 -8 -20 -8t-24 9l-195 118q-16 9 -16 20q0 10 13 20l56 42q14 11 26 11z" />
    <glyph glyph-name="eacute" unicode="&#xe9;" horiz-adv-x="594" 
d="M542.5 154q6.5 -6 6.5 -20v-108q0 -26 -27 -26h-421q-13 0 -19.5 6.5t-6.5 19.5v648q0 14 6.5 20t19.5 6h420q27 0 27 -26v-108q0 -14 -6.5 -20t-20.5 -6h-257q-9 0 -12 -3.5t-3 -11.5v-78q0 -9 3 -12t12 -3h224q14 0 20 -6.5t6 -20.5v-107q0 -13 -6 -19.5t-20 -6.5h-224
q-9 0 -12 -3.5t-3 -11.5v-82q0 -8 3 -11.5t12 -3.5h258q14 0 20.5 -6zM509 901q0 -11 -16 -20l-195 -118q-15 -9 -25 -9q-8 0 -19 8l-43 33q-11 9 -11 18q0 8 11 17l176 133q16 11 27 11q12 0 26 -11l56 -42q13 -10 13 -20z" />
    <glyph glyph-name="ecircumflex" unicode="&#xea;" horiz-adv-x="594" 
d="M542.5 154q6.5 -6 6.5 -20v-108q0 -26 -27 -26h-421q-13 0 -19.5 6.5t-6.5 19.5v648q0 14 6.5 20t19.5 6h420q27 0 27 -26v-108q0 -14 -6.5 -20t-20.5 -6h-257q-9 0 -12 -3.5t-3 -11.5v-78q0 -9 3 -12t12 -3h224q14 0 20 -6.5t6 -20.5v-107q0 -13 -6 -19.5t-20 -6.5h-224
q-9 0 -12 -3.5t-3 -11.5v-82q0 -8 3 -11.5t12 -3.5h258q14 0 20.5 -6zM189 754q-8 0 -20 6l-56 30q-13 7 -13 16q0 8 10 17l126 115q12 11 19.5 14t24.5 3h64q17 0 24.5 -3t19.5 -14l126 -115q10 -9 10 -17q0 -9 -13 -16l-56 -30q-12 -6 -20 -6q-13 0 -26 13l-97 92l-97 -92
q-13 -13 -26 -13z" />
    <glyph glyph-name="edieresis" unicode="&#xeb;" horiz-adv-x="594" 
d="M542.5 154q6.5 -6 6.5 -20v-108q0 -26 -27 -26h-421q-13 0 -19.5 6.5t-6.5 19.5v648q0 14 6.5 20t19.5 6h420q27 0 27 -26v-108q0 -14 -6.5 -20t-20.5 -6h-257q-9 0 -12 -3.5t-3 -11.5v-78q0 -9 3 -12t12 -3h224q14 0 20 -6.5t6 -20.5v-107q0 -13 -6 -19.5t-20 -6.5h-224
q-9 0 -12 -3.5t-3 -11.5v-82q0 -8 3 -11.5t12 -3.5h258q14 0 20.5 -6zM150 883q21 21 55 21t55.5 -21t21.5 -54q0 -32 -21.5 -53t-55.5 -21t-55 21t-21 53q0 33 21 54zM363 883q21 21 55 21t55.5 -21t21.5 -54q0 -32 -21.5 -53t-55.5 -21t-55 21t-21 53q0 33 21 54z" />
    <glyph glyph-name="igrave" unicode="&#xec;" horiz-adv-x="324" 
d="M242.5 6q-6.5 -6 -20.5 -6h-121q-13 0 -19.5 6.5t-6.5 19.5v648q0 14 6.5 20t19.5 6h121q14 0 20.5 -6t6.5 -20v-648q0 -14 -6.5 -20zM60 974q11 0 27 -11l176 -133q11 -8 11 -17q0 -10 -11 -18l-43 -33q-11 -8 -20 -8t-24 9l-195 118q-16 9 -16 20q0 10 13 20l56 42
q14 11 26 11z" />
    <glyph glyph-name="iacute" unicode="&#xed;" horiz-adv-x="324" 
d="M242.5 6q-6.5 -6 -20.5 -6h-121q-13 0 -19.5 6.5t-6.5 19.5v648q0 14 6.5 20t19.5 6h121q14 0 20.5 -6t6.5 -20v-648q0 -14 -6.5 -20zM359 901q0 -11 -16 -20l-195 -118q-15 -9 -25 -9q-8 0 -19 8l-43 33q-11 9 -11 18q0 8 11 17l176 133q16 11 27 11q12 0 26 -11l56 -42
q13 -10 13 -20z" />
    <glyph glyph-name="icircumflex" unicode="&#xee;" horiz-adv-x="324" 
d="M242.5 6q-6.5 -6 -20.5 -6h-121q-13 0 -19.5 6.5t-6.5 19.5v648q0 14 6.5 20t19.5 6h121q14 0 20.5 -6t6.5 -20v-648q0 -14 -6.5 -20zM39 754q-8 0 -20 6l-56 30q-13 7 -13 16q0 8 10 17l126 115q12 11 19.5 14t24.5 3h64q17 0 24.5 -3t19.5 -14l126 -115q10 -9 10 -17
q0 -9 -13 -16l-56 -30q-12 -6 -20 -6q-13 0 -26 13l-97 92l-97 -92q-13 -13 -26 -13z" />
    <glyph glyph-name="idieresis" unicode="&#xef;" horiz-adv-x="324" 
d="M242.5 6q-6.5 -6 -20.5 -6h-121q-13 0 -19.5 6.5t-6.5 19.5v648q0 14 6.5 20t19.5 6h121q14 0 20.5 -6t6.5 -20v-648q0 -14 -6.5 -20zM0 883q21 21 55 21t55.5 -21t21.5 -54q0 -32 -21.5 -53t-55.5 -21t-55 21t-21 53q0 33 21 54zM213 883q21 21 55 21t55.5 -21t21.5 -54
q0 -32 -21.5 -53t-55.5 -21t-55 21t-21 53q0 33 21 54z" />
    <glyph glyph-name="eth" unicode="&#xf0;" horiz-adv-x="775" 
d="M71.5 282.5q-3.5 3.5 -11.5 3.5h-32q-14 0 -20.5 6t-6.5 19v79q0 14 6.5 20t20.5 6h32q8 0 11.5 3t3.5 11v244q0 14 6.5 20t19.5 6h246q121 0 207 -42t131 -119t45 -181q0 -109 -47 -189.5t-137.5 -124.5t-215.5 -44h-229q-13 0 -19.5 6.5t-6.5 19.5v245q0 8 -3.5 11.5z
M252 536.5q-3 -3.5 -3 -11.5v-95q0 -8 3 -11t11 -3h108q14 0 20 -6t6 -20v-79q0 -14 -6 -19.5t-20 -5.5h-108q-8 0 -11 -3.5t-3 -11.5v-96q0 -8 3 -11.5t12 -3.5h65q108 0 164.5 51t56.5 142q0 57 -25 99t-73.5 65t-118.5 23h-69q-9 0 -12 -3.5z" />
    <glyph glyph-name="ntilde" unicode="&#xf1;" horiz-adv-x="760" 
d="M517.5 694q6.5 6 19.5 6h121q27 0 27 -26v-648q0 -39 -24 -39q-10 0 -21.5 7.5t-30.5 25.5l-360 338v-332q0 -14 -6.5 -20t-20.5 -6h-121q-13 0 -19.5 6.5t-6.5 19.5v648q0 39 24 39q10 0 21.5 -7.5t30.5 -25.5l360 -338v332q0 14 6.5 20zM411.5 769q-20.5 6 -48.5 17
q-20 9 -33.5 13t-26.5 4q-19 0 -34 -8t-31 -24q-7 -7 -15 -7q-7 0 -14 8l-35 51q-6 8 -6 14q0 7 9 16q22 26 54.5 42.5t71.5 16.5q25 0 45.5 -6t48.5 -17q15 -6 31 -11t29 -5q19 0 34.5 8t30.5 23q8 8 15 8t14 -9l35 -51q6 -7 6 -13t-9 -17q-22 -26 -54.5 -42.5t-71.5 -16.5
q-25 0 -45.5 6z" />
    <glyph glyph-name="ograve" unicode="&#xf2;" horiz-adv-x="823" 
d="M85.5 536q48.5 83 133.5 130t192 47q108 0 193.5 -46.5t133.5 -129t48 -187.5t-48.5 -187.5t-134.5 -129t-194 -46.5q-106 0 -191 46t-133 128.5t-48 186.5q0 105 48.5 188zM242 243q25 -46 69 -71t99 -25t99.5 25.5t70.5 71.5t26 105q0 61 -25.5 107t-70 71.5
t-99.5 25.5t-99.5 -25.5t-69.5 -72t-25 -106.5t25 -106zM309 974q11 0 27 -11l176 -133q11 -8 11 -17q0 -10 -11 -18l-43 -33q-11 -8 -20 -8t-24 9l-195 118q-16 9 -16 20q0 10 13 20l56 42q14 11 26 11z" />
    <glyph glyph-name="oacute" unicode="&#xf3;" horiz-adv-x="823" 
d="M85.5 536q48.5 83 133.5 130t192 47q108 0 193.5 -46.5t133.5 -129t48 -187.5t-48.5 -187.5t-134.5 -129t-194 -46.5q-106 0 -191 46t-133 128.5t-48 186.5q0 105 48.5 188zM242 243q25 -46 69 -71t99 -25t99.5 25.5t70.5 71.5t26 105q0 61 -25.5 107t-70 71.5
t-99.5 25.5t-99.5 -25.5t-69.5 -72t-25 -106.5t25 -106zM608 901q0 -11 -16 -20l-195 -118q-15 -9 -25 -9q-8 0 -19 8l-43 33q-11 9 -11 18q0 8 11 17l176 133q16 11 27 11q12 0 26 -11l56 -42q13 -10 13 -20z" />
    <glyph glyph-name="ocircumflex" unicode="&#xf4;" horiz-adv-x="823" 
d="M85.5 536q48.5 83 133.5 130t192 47q108 0 193.5 -46.5t133.5 -129t48 -187.5t-48.5 -187.5t-134.5 -129t-194 -46.5q-106 0 -191 46t-133 128.5t-48 186.5q0 105 48.5 188zM242 243q25 -46 69 -71t99 -25t99.5 25.5t70.5 71.5t26 105q0 61 -25.5 107t-70 71.5
t-99.5 25.5t-99.5 -25.5t-69.5 -72t-25 -106.5t25 -106zM288 754q-8 0 -20 6l-56 30q-13 7 -13 16q0 8 10 17l126 115q12 11 19.5 14t24.5 3h64q17 0 24.5 -3t19.5 -14l126 -115q10 -9 10 -17q0 -9 -13 -16l-56 -30q-12 -6 -20 -6q-13 0 -26 13l-97 92l-97 -92
q-13 -13 -26 -13z" />
    <glyph glyph-name="otilde" unicode="&#xf5;" horiz-adv-x="823" 
d="M85.5 536q48.5 83 133.5 130t192 47q108 0 193.5 -46.5t133.5 -129t48 -187.5t-48.5 -187.5t-134.5 -129t-194 -46.5q-106 0 -191 46t-133 128.5t-48 186.5q0 105 48.5 188zM242 243q25 -46 69 -71t99 -25t99.5 25.5t70.5 71.5t26 105q0 61 -25.5 107t-70 71.5
t-99.5 25.5t-99.5 -25.5t-69.5 -72t-25 -106.5t25 -106zM442.5 769q-20.5 6 -48.5 17q-20 9 -33.5 13t-26.5 4q-19 0 -34 -8t-31 -24q-7 -7 -15 -7q-7 0 -14 8l-35 51q-6 8 -6 14q0 7 9 16q22 26 54.5 42.5t71.5 16.5q25 0 45.5 -6t48.5 -17q15 -6 31 -11t29 -5q19 0 34.5 8
t30.5 23q8 8 15 8t14 -9l35 -51q6 -7 6 -13t-9 -17q-22 -26 -54.5 -42.5t-71.5 -16.5q-25 0 -45.5 6z" />
    <glyph glyph-name="odieresis" unicode="&#xf6;" horiz-adv-x="823" 
d="M85.5 536q48.5 83 133.5 130t192 47q108 0 193.5 -46.5t133.5 -129t48 -187.5t-48.5 -187.5t-134.5 -129t-194 -46.5q-106 0 -191 46t-133 128.5t-48 186.5q0 105 48.5 188zM242 243q25 -46 69 -71t99 -25t99.5 25.5t70.5 71.5t26 105q0 61 -25.5 107t-70 71.5
t-99.5 25.5t-99.5 -25.5t-69.5 -72t-25 -106.5t25 -106zM249 883q21 21 55 21t55.5 -21t21.5 -54q0 -32 -21.5 -53t-55.5 -21t-55 21t-21 53q0 33 21 54zM462 883q21 21 55 21t55.5 -21t21.5 -54q0 -32 -21.5 -53t-55.5 -21t-55 21t-21 53q0 33 21 54z" />
    <glyph glyph-name="divide" unicode="&#xf7;" 
d="M269 588.5q24 22.5 61 22.5q38 0 62 -22.5t24 -57.5t-24 -57.5t-62 -22.5q-37 0 -61 22.5t-24 57.5t24 57.5zM592 257q-6 -6 -20 -6h-483q-14 0 -20.5 6t-6.5 20v86q0 14 6.5 20t20.5 6h483q14 0 20 -6t6 -20v-86q0 -14 -6 -20zM268.5 166.5q23.5 22.5 61.5 22.5
t62 -22.5t24 -58.5q0 -35 -24 -57t-62 -22q-25 0 -44 10t-30 28t-11 41q0 36 23.5 58.5z" />
    <glyph glyph-name="oslash" unicode="&#xf8;" horiz-adv-x="823" 
d="M762 486q24 -63 24 -136q0 -105 -48.5 -187.5t-134.5 -129t-194 -46.5q-59 0 -112 14.5t-97 42.5l-32 -36q-11 -13 -19 -17t-24 -4h-64q-9 0 -14 3.5t-5 8.5q0 4 4 9.5t11 13.5l71 80q-44 48 -67.5 110.5t-23.5 135.5q0 105 48.5 188t133.5 130t192 47q119 0 211 -58
l33 37q11 13 19.5 17t23.5 4h63q10 0 15 -3.5t5 -8.5q0 -4 -4 -9.5t-11 -13.5l-72 -81q44 -48 68 -111zM248 234l261 293q-43 26 -98 26t-99.5 -25.5t-69.5 -72t-25 -106.5q0 -71 31 -115zM573 465l-260 -293q41 -25 97 -25q55 0 99.5 25.5t70.5 71.5t26 105q0 70 -33 116z
" />
    <glyph glyph-name="ugrave" unicode="&#xf9;" horiz-adv-x="773" 
d="M662.5 128.5q-40.5 -70.5 -113.5 -106t-169 -35.5q-93 0 -162.5 34t-108.5 104t-39 175v374q0 14 6.5 20t19.5 6h121q14 0 20.5 -6t6.5 -20v-360q0 -81 36 -124t106 -43q69 0 106 43t37 124v360q0 14 6.5 20t19.5 6h121q14 0 20.5 -6t6.5 -20v-372q0 -103 -40.5 -173.5z
M284 974q11 0 27 -11l176 -133q11 -8 11 -17q0 -10 -11 -18l-43 -33q-11 -8 -20 -8t-24 9l-195 118q-16 9 -16 20q0 10 13 20l56 42q14 11 26 11z" />
    <glyph glyph-name="uacute" unicode="&#xfa;" horiz-adv-x="773" 
d="M662.5 128.5q-40.5 -70.5 -113.5 -106t-169 -35.5q-93 0 -162.5 34t-108.5 104t-39 175v374q0 14 6.5 20t19.5 6h121q14 0 20.5 -6t6.5 -20v-360q0 -81 36 -124t106 -43q69 0 106 43t37 124v360q0 14 6.5 20t19.5 6h121q14 0 20.5 -6t6.5 -20v-372q0 -103 -40.5 -173.5z
M583 901q0 -11 -16 -20l-195 -118q-15 -9 -25 -9q-8 0 -19 8l-43 33q-11 9 -11 18q0 8 11 17l176 133q16 11 27 11q12 0 26 -11l56 -42q13 -10 13 -20z" />
    <glyph glyph-name="ucircumflex" unicode="&#xfb;" horiz-adv-x="773" 
d="M662.5 128.5q-40.5 -70.5 -113.5 -106t-169 -35.5q-93 0 -162.5 34t-108.5 104t-39 175v374q0 14 6.5 20t19.5 6h121q14 0 20.5 -6t6.5 -20v-360q0 -81 36 -124t106 -43q69 0 106 43t37 124v360q0 14 6.5 20t19.5 6h121q14 0 20.5 -6t6.5 -20v-372q0 -103 -40.5 -173.5z
M263 754q-8 0 -20 6l-56 30q-13 7 -13 16q0 8 10 17l126 115q12 11 19.5 14t24.5 3h64q17 0 24.5 -3t19.5 -14l126 -115q10 -9 10 -17q0 -9 -13 -16l-56 -30q-12 -6 -20 -6q-13 0 -26 13l-97 92l-97 -92q-13 -13 -26 -13z" />
    <glyph glyph-name="udieresis" unicode="&#xfc;" horiz-adv-x="773" 
d="M662.5 128.5q-40.5 -70.5 -113.5 -106t-169 -35.5q-93 0 -162.5 34t-108.5 104t-39 175v374q0 14 6.5 20t19.5 6h121q14 0 20.5 -6t6.5 -20v-360q0 -81 36 -124t106 -43q69 0 106 43t37 124v360q0 14 6.5 20t19.5 6h121q14 0 20.5 -6t6.5 -20v-372q0 -103 -40.5 -173.5z
M224 883q21 21 55 21t55.5 -21t21.5 -54q0 -32 -21.5 -53t-55.5 -21t-55 21t-21 53q0 33 21 54zM437 883q21 21 55 21t55.5 -21t21.5 -54q0 -32 -21.5 -53t-55.5 -21t-55 21t-21 53q0 33 21 54z" />
    <glyph glyph-name="yacute" unicode="&#xfd;" horiz-adv-x="673" 
d="M477 672q10 18 19 23t28 5h133q21 0 21 -13q0 -7 -6 -16l-247 -412v-233q0 -13 -6 -19.5t-20 -6.5h-122q-13 0 -19.5 6.5t-6.5 19.5v228l-250 417q-6 9 -6 16q0 13 21 13h138q19 0 28 -5t19 -23l138 -244zM535 901q0 -11 -16 -20l-195 -118q-15 -9 -25 -9q-8 0 -19 8
l-43 33q-11 9 -11 18q0 8 11 17l176 133q16 11 27 11q12 0 26 -11l56 -42q13 -10 13 -20z" />
    <glyph glyph-name="thorn" unicode="&#xfe;" horiz-adv-x="675" 
d="M252 608.5q3 -3.5 12 -3.5h85q141 0 218.5 -63t77.5 -186q0 -82 -36 -139.5t-104 -87t-161 -29.5h-80q-9 0 -12 -3t-3 -12v-59q0 -14 -6.5 -20t-20.5 -6h-121q-13 0 -19.5 6.5t-6.5 19.5v648q0 14 6.5 20t19.5 6h121q14 0 20.5 -6t6.5 -20v-53q0 -9 3 -12.5zM252 442
q-3 -3 -3 -12v-155q0 -8 3 -11.5t12 -3.5h68q133 0 133 95q0 48 -32.5 69t-99.5 21h-69q-9 0 -12 -3z" />
    <glyph glyph-name="ydieresis" unicode="&#xff;" horiz-adv-x="673" 
d="M475 672q10 18 19 23t28 5h133q21 0 21 -13q0 -7 -6 -16l-247 -412v-233q0 -13 -6 -19.5t-20 -6.5h-122q-13 0 -19.5 6.5t-6.5 19.5v228l-250 417q-6 9 -6 16q0 13 21 13h138q19 0 28 -5t19 -23l138 -244zM174 883q21 21 55 21t55.5 -21t21.5 -54q0 -32 -21.5 -53
t-55.5 -21t-55 21t-21 53q0 33 21 54zM387 883q21 21 55 21t55.5 -21t21.5 -54q0 -32 -21.5 -53t-55.5 -21t-55 21t-21 53q0 33 21 54z" />
    <glyph glyph-name="Amacron" unicode="&#x100;" horiz-adv-x="734" 
d="M188 32q-9 -19 -19 -25.5t-29 -6.5h-122q-22 0 -22 14q0 9 5 18l319 635q14 29 24 40t22 11t21.5 -11t24.5 -40l321 -635q5 -9 5 -17q0 -15 -23 -15h-128q-19 0 -28.5 6.5t-18.5 25.5l-177 364zM210.5 784q-6.5 6 -6.5 19v66q0 14 6.5 20t20.5 6h272q14 0 20.5 -6
t6.5 -20v-66q0 -13 -6.5 -19t-20.5 -6h-272q-14 0 -20.5 6z" />
    <glyph glyph-name="amacron" unicode="&#x101;" horiz-adv-x="734" 
d="M188 32q-9 -19 -19 -25.5t-29 -6.5h-122q-22 0 -22 14q0 9 5 18l319 635q14 29 24 40t22 11t21.5 -11t24.5 -40l321 -635q5 -9 5 -17q0 -15 -23 -15h-128q-19 0 -28.5 6.5t-18.5 25.5l-177 364zM210.5 784q-6.5 6 -6.5 19v66q0 14 6.5 20t20.5 6h272q14 0 20.5 -6
t6.5 -20v-66q0 -13 -6.5 -19t-20.5 -6h-272q-14 0 -20.5 6z" />
    <glyph glyph-name="Abreve" unicode="&#x102;" horiz-adv-x="734" 
d="M188 32q-9 -19 -19 -25.5t-29 -6.5h-122q-22 0 -22 14q0 9 5 18l319 635q14 29 24 40t22 11t21.5 -11t24.5 -40l321 -635q5 -9 5 -17q0 -15 -23 -15h-128q-19 0 -28.5 6.5t-18.5 25.5l-177 364zM258.5 776.5q-42.5 22.5 -62 60.5t-19.5 84q0 12 4.5 17t17.5 5h67
q12 0 17.5 -4t7.5 -15q6 -28 25 -44t51 -16t51 16.5t25 43.5q2 11 7.5 15t17.5 4h67q13 0 17.5 -5t4.5 -17q0 -46 -20 -83.5t-62.5 -60.5t-108.5 -23q-65 0 -107.5 22.5z" />
    <glyph glyph-name="abreve" unicode="&#x103;" horiz-adv-x="734" 
d="M188 32q-9 -19 -19 -25.5t-29 -6.5h-122q-22 0 -22 14q0 9 5 18l319 635q14 29 24 40t22 11t21.5 -11t24.5 -40l321 -635q5 -9 5 -17q0 -15 -23 -15h-128q-19 0 -28.5 6.5t-18.5 25.5l-177 364zM258.5 776.5q-42.5 22.5 -62 60.5t-19.5 84q0 12 4.5 17t17.5 5h67
q12 0 17.5 -4t7.5 -15q6 -28 25 -44t51 -16t51 16.5t25 43.5q2 11 7.5 15t17.5 4h67q13 0 17.5 -5t4.5 -17q0 -46 -20 -83.5t-62.5 -60.5t-108.5 -23q-65 0 -107.5 22.5z" />
    <glyph glyph-name="Aogonek" unicode="&#x104;" horiz-adv-x="734" 
d="M612.5 -37.5q-17.5 -22.5 -17.5 -48.5q0 -24 16.5 -38.5t41.5 -14.5q32 0 59 15q8 5 12 5q8 0 12 -10l22 -42q3 -6 3 -11q0 -10 -12 -17q-47 -31 -108 -31q-43 0 -76 16t-51.5 44t-18.5 64q0 31 15 59t44 51l-191 392l-175 -364q-9 -19 -19 -25.5t-29 -6.5h-122
q-22 0 -22 14q0 9 5 18l319 635q14 29 24 40t22 11t21.5 -11t24.5 -40l321 -635q5 -9 5 -17q0 -15 -23 -15h-54q-31 -15 -48.5 -37.5z" />
    <glyph glyph-name="aogonek" unicode="&#x105;" horiz-adv-x="734" 
d="M612.5 -37.5q-17.5 -22.5 -17.5 -48.5q0 -24 16.5 -38.5t41.5 -14.5q32 0 59 15q8 5 12 5q8 0 12 -10l22 -42q3 -6 3 -11q0 -10 -12 -17q-47 -31 -108 -31q-43 0 -76 16t-51.5 44t-18.5 64q0 31 15 59t44 51l-191 392l-175 -364q-9 -19 -19 -25.5t-29 -6.5h-122
q-22 0 -22 14q0 9 5 18l319 635q14 29 24 40t22 11t21.5 -11t24.5 -40l321 -635q5 -9 5 -17q0 -15 -23 -15h-54q-31 -15 -48.5 -37.5z" />
    <glyph glyph-name="Cacute" unicode="&#x106;" horiz-adv-x="711" 
d="M585 206q12 9 20 9q5 0 9 -3t9 -9l57 -82q6 -9 6 -17q0 -9 -15 -23q-54 -45 -121 -69.5t-141 -24.5q-105 0 -190 46.5t-133.5 128.5t-48.5 184q0 105 49 188.5t135.5 131t195.5 47.5q74 0 139.5 -25t118.5 -69q12 -10 12 -19q0 -8 -7 -18l-58 -82q-9 -13 -19 -13
q-9 0 -20 8q-81 58 -167 58q-57 0 -102.5 -25.5t-71 -72t-25.5 -106.5q0 -58 25.5 -104t71 -72t102.5 -26q92 0 169 59zM592 901q0 -11 -16 -20l-195 -118q-15 -9 -25 -9q-8 0 -19 8l-43 33q-11 9 -11 18q0 8 11 17l176 133q16 11 27 11q12 0 26 -11l56 -42q13 -10 13 -20z
" />
    <glyph glyph-name="cacute" unicode="&#x107;" horiz-adv-x="711" 
d="M585 206q12 9 20 9q5 0 9 -3t9 -9l57 -82q6 -9 6 -17q0 -9 -15 -23q-54 -45 -121 -69.5t-141 -24.5q-105 0 -190 46.5t-133.5 128.5t-48.5 184q0 105 49 188.5t135.5 131t195.5 47.5q74 0 139.5 -25t118.5 -69q12 -10 12 -19q0 -8 -7 -18l-58 -82q-9 -13 -19 -13
q-9 0 -20 8q-81 58 -167 58q-57 0 -102.5 -25.5t-71 -72t-25.5 -106.5q0 -58 25.5 -104t71 -72t102.5 -26q92 0 169 59zM592 901q0 -11 -16 -20l-195 -118q-15 -9 -25 -9q-8 0 -19 8l-43 33q-11 9 -11 18q0 8 11 17l176 133q16 11 27 11q12 0 26 -11l56 -42q13 -10 13 -20z
" />
    <glyph glyph-name="Ccircumflex" unicode="&#x108;" horiz-adv-x="711" 
d="M585 206q12 9 20 9q5 0 9 -3t9 -9l57 -82q6 -9 6 -17q0 -9 -15 -23q-54 -45 -121 -69.5t-141 -24.5q-105 0 -190 46.5t-133.5 128.5t-48.5 184q0 105 49 188.5t135.5 131t195.5 47.5q74 0 139.5 -25t118.5 -69q12 -10 12 -19q0 -8 -7 -18l-58 -82q-9 -13 -19 -13
q-9 0 -20 8q-81 58 -167 58q-57 0 -102.5 -25.5t-71 -72t-25.5 -106.5q0 -58 25.5 -104t71 -72t102.5 -26q92 0 169 59zM272 754q-8 0 -20 6l-56 30q-13 7 -13 16q0 8 10 17l126 115q12 11 19.5 14t24.5 3h64q17 0 24.5 -3t19.5 -14l126 -115q10 -9 10 -17q0 -9 -13 -16
l-56 -30q-12 -6 -20 -6q-13 0 -26 13l-97 92l-97 -92q-13 -13 -26 -13z" />
    <glyph glyph-name="ccircumflex" unicode="&#x109;" horiz-adv-x="711" 
d="M585 206q12 9 20 9q5 0 9 -3t9 -9l57 -82q6 -9 6 -17q0 -9 -15 -23q-54 -45 -121 -69.5t-141 -24.5q-105 0 -190 46.5t-133.5 128.5t-48.5 184q0 105 49 188.5t135.5 131t195.5 47.5q74 0 139.5 -25t118.5 -69q12 -10 12 -19q0 -8 -7 -18l-58 -82q-9 -13 -19 -13
q-9 0 -20 8q-81 58 -167 58q-57 0 -102.5 -25.5t-71 -72t-25.5 -106.5q0 -58 25.5 -104t71 -72t102.5 -26q92 0 169 59zM272 754q-8 0 -20 6l-56 30q-13 7 -13 16q0 8 10 17l126 115q12 11 19.5 14t24.5 3h64q17 0 24.5 -3t19.5 -14l126 -115q10 -9 10 -17q0 -9 -13 -16
l-56 -30q-12 -6 -20 -6q-13 0 -26 13l-97 92l-97 -92q-13 -13 -26 -13z" />
    <glyph glyph-name="Cdotaccent" unicode="&#x10a;" horiz-adv-x="711" 
d="M585 206q12 9 20 9q5 0 9 -3t9 -9l57 -82q6 -9 6 -17q0 -9 -15 -23q-54 -45 -121 -69.5t-141 -24.5q-105 0 -190 46.5t-133.5 128.5t-48.5 184q0 105 49 188.5t135.5 131t195.5 47.5q74 0 139.5 -25t118.5 -69q12 -10 12 -19q0 -8 -7 -18l-58 -82q-9 -13 -19 -13
q-9 0 -20 8q-81 58 -167 58q-57 0 -102.5 -25.5t-71 -72t-25.5 -106.5q0 -58 25.5 -104t71 -72t102.5 -26q92 0 169 59zM320 874.5q11 18.5 30.5 29t44.5 10.5t44.5 -10.5t30.5 -29t11 -41.5t-11 -41t-30.5 -28t-44.5 -10t-44.5 10t-30.5 28t-11 41t11 41.5z" />
    <glyph glyph-name="cdotaccent" unicode="&#x10b;" horiz-adv-x="711" 
d="M585 206q12 9 20 9q5 0 9 -3t9 -9l57 -82q6 -9 6 -17q0 -9 -15 -23q-54 -45 -121 -69.5t-141 -24.5q-105 0 -190 46.5t-133.5 128.5t-48.5 184q0 105 49 188.5t135.5 131t195.5 47.5q74 0 139.5 -25t118.5 -69q12 -10 12 -19q0 -8 -7 -18l-58 -82q-9 -13 -19 -13
q-9 0 -20 8q-81 58 -167 58q-57 0 -102.5 -25.5t-71 -72t-25.5 -106.5q0 -58 25.5 -104t71 -72t102.5 -26q92 0 169 59zM320 874.5q11 18.5 30.5 29t44.5 10.5t44.5 -10.5t30.5 -29t11 -41.5t-11 -41t-30.5 -28t-44.5 -10t-44.5 10t-30.5 28t-11 41t11 41.5z" />
    <glyph glyph-name="Ccaron" unicode="&#x10c;" horiz-adv-x="711" 
d="M585 206q12 9 20 9q5 0 9 -3t9 -9l57 -82q6 -9 6 -17q0 -9 -15 -23q-54 -45 -121 -69.5t-141 -24.5q-105 0 -190 46.5t-133.5 128.5t-48.5 184q0 105 49 188.5t135.5 131t195.5 47.5q74 0 139.5 -25t118.5 -69q12 -10 12 -19q0 -8 -7 -18l-58 -82q-9 -13 -19 -13
q-9 0 -20 8q-81 58 -167 58q-57 0 -102.5 -25.5t-71 -72t-25.5 -106.5q0 -58 25.5 -104t71 -72t102.5 -26q92 0 169 59zM518 955q8 0 20 -6l56 -30q13 -7 13 -16q0 -8 -10 -17l-126 -115q-12 -11 -19.5 -14t-24.5 -3h-64q-17 0 -24.5 3t-19.5 14l-126 115q-10 9 -10 17
q0 9 13 16l56 30q12 6 20 6q13 0 26 -13l97 -92l97 92q13 13 26 13z" />
    <glyph glyph-name="ccaron" unicode="&#x10d;" horiz-adv-x="711" 
d="M585 206q12 9 20 9q5 0 9 -3t9 -9l57 -82q6 -9 6 -17q0 -9 -15 -23q-54 -45 -121 -69.5t-141 -24.5q-105 0 -190 46.5t-133.5 128.5t-48.5 184q0 105 49 188.5t135.5 131t195.5 47.5q74 0 139.5 -25t118.5 -69q12 -10 12 -19q0 -8 -7 -18l-58 -82q-9 -13 -19 -13
q-9 0 -20 8q-81 58 -167 58q-57 0 -102.5 -25.5t-71 -72t-25.5 -106.5q0 -58 25.5 -104t71 -72t102.5 -26q92 0 169 59zM518 955q8 0 20 -6l56 -30q13 -7 13 -16q0 -8 -10 -17l-126 -115q-12 -11 -19.5 -14t-24.5 -3h-64q-17 0 -24.5 3t-19.5 14l-126 115q-10 9 -10 17
q0 9 13 16l56 30q12 6 20 6q13 0 26 -13l97 -92l97 92q13 13 26 13z" />
    <glyph glyph-name="Dcaron" unicode="&#x10e;" horiz-adv-x="767" 
d="M81.5 694q6.5 6 19.5 6h246q121 0 207 -42t131 -119t45 -181q0 -109 -47 -189.5t-137.5 -124.5t-215.5 -44h-229q-13 0 -19.5 6.5t-6.5 19.5v648q0 14 6.5 20zM252 536.5q-3 -3.5 -3 -11.5v-350q0 -8 3 -11.5t12 -3.5h65q108 0 164.5 51t56.5 142q0 57 -25 99t-73.5 65
t-118.5 23h-69q-9 0 -12 -3.5zM483 955q8 0 20 -6l56 -30q13 -7 13 -16q0 -8 -10 -17l-126 -115q-12 -11 -19.5 -14t-24.5 -3h-64q-17 0 -24.5 3t-19.5 14l-126 115q-10 9 -10 17q0 9 13 16l56 30q12 6 20 6q13 0 26 -13l97 -92l97 92q13 13 26 13z" />
    <glyph glyph-name="dcaron" unicode="&#x10f;" horiz-adv-x="767" 
d="M81.5 694q6.5 6 19.5 6h246q121 0 207 -42t131 -119t45 -181q0 -109 -47 -189.5t-137.5 -124.5t-215.5 -44h-229q-13 0 -19.5 6.5t-6.5 19.5v648q0 14 6.5 20zM252 536.5q-3 -3.5 -3 -11.5v-350q0 -8 3 -11.5t12 -3.5h65q108 0 164.5 51t56.5 142q0 57 -25 99t-73.5 65
t-118.5 23h-69q-9 0 -12 -3.5zM483 955q8 0 20 -6l56 -30q13 -7 13 -16q0 -8 -10 -17l-126 -115q-12 -11 -19.5 -14t-24.5 -3h-64q-17 0 -24.5 3t-19.5 14l-126 115q-10 9 -10 17q0 9 13 16l56 30q12 6 20 6q13 0 26 -13l97 -92l97 92q13 13 26 13z" />
    <glyph glyph-name="Dcroat" unicode="&#x110;" horiz-adv-x="775" 
d="M71.5 282.5q-3.5 3.5 -11.5 3.5h-32q-14 0 -20.5 6t-6.5 19v79q0 14 6.5 20t20.5 6h32q8 0 11.5 3t3.5 11v244q0 14 6.5 20t19.5 6h246q121 0 207 -42t131 -119t45 -181q0 -109 -47 -189.5t-137.5 -124.5t-215.5 -44h-229q-13 0 -19.5 6.5t-6.5 19.5v245q0 8 -3.5 11.5z
M252 536.5q-3 -3.5 -3 -11.5v-95q0 -8 3 -11t11 -3h108q14 0 20 -6t6 -20v-79q0 -14 -6 -19.5t-20 -5.5h-108q-8 0 -11 -3.5t-3 -11.5v-96q0 -8 3 -11.5t12 -3.5h65q108 0 164.5 51t56.5 142q0 57 -25 99t-73.5 65t-118.5 23h-69q-9 0 -12 -3.5z" />
    <glyph glyph-name="dcroat" unicode="&#x111;" horiz-adv-x="775" 
d="M71.5 282.5q-3.5 3.5 -11.5 3.5h-32q-14 0 -20.5 6t-6.5 19v79q0 14 6.5 20t20.5 6h32q8 0 11.5 3t3.5 11v244q0 14 6.5 20t19.5 6h246q121 0 207 -42t131 -119t45 -181q0 -109 -47 -189.5t-137.5 -124.5t-215.5 -44h-229q-13 0 -19.5 6.5t-6.5 19.5v245q0 8 -3.5 11.5z
M252 536.5q-3 -3.5 -3 -11.5v-95q0 -8 3 -11t11 -3h108q14 0 20 -6t6 -20v-79q0 -14 -6 -19.5t-20 -5.5h-108q-8 0 -11 -3.5t-3 -11.5v-96q0 -8 3 -11.5t12 -3.5h65q108 0 164.5 51t56.5 142q0 57 -25 99t-73.5 65t-118.5 23h-69q-9 0 -12 -3.5z" />
    <glyph glyph-name="Emacron" unicode="&#x112;" horiz-adv-x="594" 
d="M542.5 154q6.5 -6 6.5 -20v-108q0 -26 -27 -26h-421q-13 0 -19.5 6.5t-6.5 19.5v648q0 14 6.5 20t19.5 6h420q27 0 27 -26v-108q0 -14 -6.5 -20t-20.5 -6h-257q-9 0 -12 -3.5t-3 -11.5v-78q0 -9 3 -12t12 -3h224q14 0 20 -6.5t6 -20.5v-107q0 -13 -6 -19.5t-20 -6.5h-224
q-9 0 -12 -3.5t-3 -11.5v-82q0 -8 3 -11.5t12 -3.5h258q14 0 20.5 -6zM155.5 784q-6.5 6 -6.5 19v66q0 14 6.5 20t20.5 6h272q14 0 20.5 -6t6.5 -20v-66q0 -13 -6.5 -19t-20.5 -6h-272q-14 0 -20.5 6z" />
    <glyph glyph-name="emacron" unicode="&#x113;" horiz-adv-x="594" 
d="M542.5 154q6.5 -6 6.5 -20v-108q0 -26 -27 -26h-421q-13 0 -19.5 6.5t-6.5 19.5v648q0 14 6.5 20t19.5 6h420q27 0 27 -26v-108q0 -14 -6.5 -20t-20.5 -6h-257q-9 0 -12 -3.5t-3 -11.5v-78q0 -9 3 -12t12 -3h224q14 0 20 -6.5t6 -20.5v-107q0 -13 -6 -19.5t-20 -6.5h-224
q-9 0 -12 -3.5t-3 -11.5v-82q0 -8 3 -11.5t12 -3.5h258q14 0 20.5 -6zM155.5 784q-6.5 6 -6.5 19v66q0 14 6.5 20t20.5 6h272q14 0 20.5 -6t6.5 -20v-66q0 -13 -6.5 -19t-20.5 -6h-272q-14 0 -20.5 6z" />
    <glyph glyph-name="Ebreve" unicode="&#x114;" horiz-adv-x="594" 
d="M542.5 154q6.5 -6 6.5 -20v-108q0 -26 -27 -26h-421q-13 0 -19.5 6.5t-6.5 19.5v648q0 14 6.5 20t19.5 6h420q27 0 27 -26v-108q0 -14 -6.5 -20t-20.5 -6h-257q-9 0 -12 -3.5t-3 -11.5v-78q0 -9 3 -12t12 -3h224q14 0 20 -6.5t6 -20.5v-107q0 -13 -6 -19.5t-20 -6.5h-224
q-9 0 -12 -3.5t-3 -11.5v-82q0 -8 3 -11.5t12 -3.5h258q14 0 20.5 -6zM203.5 776.5q-42.5 22.5 -62 60.5t-19.5 84q0 12 4.5 17t17.5 5h67q12 0 17.5 -4t7.5 -15q6 -28 25 -44t51 -16t51 16.5t25 43.5q2 11 7.5 15t17.5 4h67q13 0 17.5 -5t4.5 -17q0 -46 -20 -83.5
t-62.5 -60.5t-108.5 -23q-65 0 -107.5 22.5z" />
    <glyph glyph-name="ebreve" unicode="&#x115;" horiz-adv-x="594" 
d="M542.5 154q6.5 -6 6.5 -20v-108q0 -26 -27 -26h-421q-13 0 -19.5 6.5t-6.5 19.5v648q0 14 6.5 20t19.5 6h420q27 0 27 -26v-108q0 -14 -6.5 -20t-20.5 -6h-257q-9 0 -12 -3.5t-3 -11.5v-78q0 -9 3 -12t12 -3h224q14 0 20 -6.5t6 -20.5v-107q0 -13 -6 -19.5t-20 -6.5h-224
q-9 0 -12 -3.5t-3 -11.5v-82q0 -8 3 -11.5t12 -3.5h258q14 0 20.5 -6zM203.5 776.5q-42.5 22.5 -62 60.5t-19.5 84q0 12 4.5 17t17.5 5h67q12 0 17.5 -4t7.5 -15q6 -28 25 -44t51 -16t51 16.5t25 43.5q2 11 7.5 15t17.5 4h67q13 0 17.5 -5t4.5 -17q0 -46 -20 -83.5
t-62.5 -60.5t-108.5 -23q-65 0 -107.5 22.5z" />
    <glyph glyph-name="Edotaccent" unicode="&#x116;" horiz-adv-x="594" 
d="M542.5 154q6.5 -6 6.5 -20v-108q0 -26 -27 -26h-421q-13 0 -19.5 6.5t-6.5 19.5v648q0 14 6.5 20t19.5 6h420q27 0 27 -26v-108q0 -14 -6.5 -20t-20.5 -6h-257q-9 0 -12 -3.5t-3 -11.5v-78q0 -9 3 -12t12 -3h224q14 0 20 -6.5t6 -20.5v-107q0 -13 -6 -19.5t-20 -6.5h-224
q-9 0 -12 -3.5t-3 -11.5v-82q0 -8 3 -11.5t12 -3.5h258q14 0 20.5 -6zM237 874.5q11 18.5 30.5 29t44.5 10.5t44.5 -10.5t30.5 -29t11 -41.5t-11 -41t-30.5 -28t-44.5 -10t-44.5 10t-30.5 28t-11 41t11 41.5z" />
    <glyph glyph-name="edotaccent" unicode="&#x117;" horiz-adv-x="594" 
d="M542.5 154q6.5 -6 6.5 -20v-108q0 -26 -27 -26h-421q-13 0 -19.5 6.5t-6.5 19.5v648q0 14 6.5 20t19.5 6h420q27 0 27 -26v-108q0 -14 -6.5 -20t-20.5 -6h-257q-9 0 -12 -3.5t-3 -11.5v-78q0 -9 3 -12t12 -3h224q14 0 20 -6.5t6 -20.5v-107q0 -13 -6 -19.5t-20 -6.5h-224
q-9 0 -12 -3.5t-3 -11.5v-82q0 -8 3 -11.5t12 -3.5h258q14 0 20.5 -6zM237 874.5q11 18.5 30.5 29t44.5 10.5t44.5 -10.5t30.5 -29t11 -41.5t-11 -41t-30.5 -28t-44.5 -10t-44.5 10t-30.5 28t-11 41t11 41.5z" />
    <glyph glyph-name="Eogonek" unicode="&#x118;" horiz-adv-x="594" 
d="M81.5 694q6.5 6 19.5 6h420q27 0 27 -26v-108q0 -14 -6.5 -20t-20.5 -6h-257q-9 0 -12 -3.5t-3 -11.5v-78q0 -9 3 -12t12 -3h224q14 0 20 -6.5t6 -20.5v-107q0 -13 -6 -19.5t-20 -6.5h-224q-9 0 -12 -3.5t-3 -11.5v-82q0 -8 3 -11.5t12 -3.5h258q14 0 20.5 -6t6.5 -20
v-108q0 -26 -27 -26h-91q-31 -15 -48.5 -37.5t-17.5 -48.5q0 -24 16.5 -38.5t41.5 -14.5q32 0 59 15q8 5 12 5q8 0 12 -10l22 -42q3 -6 3 -11q0 -10 -12 -17q-47 -31 -108 -31q-43 0 -76 16t-51.5 44t-18.5 64q0 60 54 106h-218q-13 0 -19.5 6.5t-6.5 19.5v648q0 14 6.5 20z
" />
    <glyph glyph-name="eogonek" unicode="&#x119;" horiz-adv-x="594" 
d="M81.5 694q6.5 6 19.5 6h420q27 0 27 -26v-108q0 -14 -6.5 -20t-20.5 -6h-257q-9 0 -12 -3.5t-3 -11.5v-78q0 -9 3 -12t12 -3h224q14 0 20 -6.5t6 -20.5v-107q0 -13 -6 -19.5t-20 -6.5h-224q-9 0 -12 -3.5t-3 -11.5v-82q0 -8 3 -11.5t12 -3.5h258q14 0 20.5 -6t6.5 -20
v-108q0 -26 -27 -26h-91q-31 -15 -48.5 -37.5t-17.5 -48.5q0 -24 16.5 -38.5t41.5 -14.5q32 0 59 15q8 5 12 5q8 0 12 -10l22 -42q3 -6 3 -11q0 -10 -12 -17q-47 -31 -108 -31q-43 0 -76 16t-51.5 44t-18.5 64q0 60 54 106h-218q-13 0 -19.5 6.5t-6.5 19.5v648q0 14 6.5 20z
" />
    <glyph glyph-name="Ecaron" unicode="&#x11a;" horiz-adv-x="594" 
d="M542.5 154q6.5 -6 6.5 -20v-108q0 -26 -27 -26h-421q-13 0 -19.5 6.5t-6.5 19.5v648q0 14 6.5 20t19.5 6h420q27 0 27 -26v-108q0 -14 -6.5 -20t-20.5 -6h-257q-9 0 -12 -3.5t-3 -11.5v-78q0 -9 3 -12t12 -3h224q14 0 20 -6.5t6 -20.5v-107q0 -13 -6 -19.5t-20 -6.5h-224
q-9 0 -12 -3.5t-3 -11.5v-82q0 -8 3 -11.5t12 -3.5h258q14 0 20.5 -6zM435 955q8 0 20 -6l56 -30q13 -7 13 -16q0 -8 -10 -17l-126 -115q-12 -11 -19.5 -14t-24.5 -3h-64q-17 0 -24.5 3t-19.5 14l-126 115q-10 9 -10 17q0 9 13 16l56 30q12 6 20 6q13 0 26 -13l97 -92l97 92
q13 13 26 13z" />
    <glyph glyph-name="ecaron" unicode="&#x11b;" horiz-adv-x="594" 
d="M542.5 154q6.5 -6 6.5 -20v-108q0 -26 -27 -26h-421q-13 0 -19.5 6.5t-6.5 19.5v648q0 14 6.5 20t19.5 6h420q27 0 27 -26v-108q0 -14 -6.5 -20t-20.5 -6h-257q-9 0 -12 -3.5t-3 -11.5v-78q0 -9 3 -12t12 -3h224q14 0 20 -6.5t6 -20.5v-107q0 -13 -6 -19.5t-20 -6.5h-224
q-9 0 -12 -3.5t-3 -11.5v-82q0 -8 3 -11.5t12 -3.5h258q14 0 20.5 -6zM435 955q8 0 20 -6l56 -30q13 -7 13 -16q0 -8 -10 -17l-126 -115q-12 -11 -19.5 -14t-24.5 -3h-64q-17 0 -24.5 3t-19.5 14l-126 115q-10 9 -10 17q0 9 13 16l56 30q12 6 20 6q13 0 26 -13l97 -92l97 92
q13 13 26 13z" />
    <glyph glyph-name="Gcircumflex" unicode="&#x11c;" horiz-adv-x="762" 
d="M702 70q-5 -8 -19 -15q-66 -33 -133.5 -50.5t-141.5 -17.5q-105 0 -189.5 44.5t-133 125.5t-48.5 186q0 110 49 194t135.5 130t195.5 46q75 0 141.5 -21t119.5 -58q17 -11 17 -23q0 -10 -7 -20l-51 -79q-5 -8 -10 -11.5t-12 -3.5q-8 0 -19 6q-87 50 -179 50
q-61 0 -106 -26.5t-69.5 -73t-24.5 -105.5q0 -60 25 -106t69 -71.5t101 -25.5q61 0 106 17q9 4 12 8t3 14v141q0 14 6 20.5t20 6.5h122q14 0 20 -6.5t6 -20.5v-231q0 -16 -5 -24zM272 754q-8 0 -20 6l-56 30q-13 7 -13 16q0 8 10 17l126 115q12 11 19.5 14t24.5 3h64
q17 0 24.5 -3t19.5 -14l126 -115q10 -9 10 -17q0 -9 -13 -16l-56 -30q-12 -6 -20 -6q-13 0 -26 13l-97 92l-97 -92q-13 -13 -26 -13z" />
    <glyph glyph-name="gcircumflex" unicode="&#x11d;" horiz-adv-x="762" 
d="M702 70q-5 -8 -19 -15q-66 -33 -133.5 -50.5t-141.5 -17.5q-105 0 -189.5 44.5t-133 125.5t-48.5 186q0 110 49 194t135.5 130t195.5 46q75 0 141.5 -21t119.5 -58q17 -11 17 -23q0 -10 -7 -20l-51 -79q-5 -8 -10 -11.5t-12 -3.5q-8 0 -19 6q-87 50 -179 50
q-61 0 -106 -26.5t-69.5 -73t-24.5 -105.5q0 -60 25 -106t69 -71.5t101 -25.5q61 0 106 17q9 4 12 8t3 14v141q0 14 6 20.5t20 6.5h122q14 0 20 -6.5t6 -20.5v-231q0 -16 -5 -24zM272 754q-8 0 -20 6l-56 30q-13 7 -13 16q0 8 10 17l126 115q12 11 19.5 14t24.5 3h64
q17 0 24.5 -3t19.5 -14l126 -115q10 -9 10 -17q0 -9 -13 -16l-56 -30q-12 -6 -20 -6q-13 0 -26 13l-97 92l-97 -92q-13 -13 -26 -13z" />
    <glyph glyph-name="Gbreve" unicode="&#x11e;" horiz-adv-x="762" 
d="M702 70q-5 -8 -19 -15q-66 -33 -133.5 -50.5t-141.5 -17.5q-105 0 -189.5 44.5t-133 125.5t-48.5 186q0 110 49 194t135.5 130t195.5 46q75 0 141.5 -21t119.5 -58q17 -11 17 -23q0 -10 -7 -20l-51 -79q-5 -8 -10 -11.5t-12 -3.5q-8 0 -19 6q-87 50 -179 50
q-61 0 -106 -26.5t-69.5 -73t-24.5 -105.5q0 -60 25 -106t69 -71.5t101 -25.5q61 0 106 17q9 4 12 8t3 14v141q0 14 6 20.5t20 6.5h122q14 0 20 -6.5t6 -20.5v-231q0 -16 -5 -24zM286.5 776.5q-42.5 22.5 -62 60.5t-19.5 84q0 12 4.5 17t17.5 5h67q12 0 17.5 -4t7.5 -15
q6 -28 25 -44t51 -16t51 16.5t25 43.5q2 11 7.5 15t17.5 4h67q13 0 17.5 -5t4.5 -17q0 -46 -20 -83.5t-62.5 -60.5t-108.5 -23q-65 0 -107.5 22.5z" />
    <glyph glyph-name="gbreve" unicode="&#x11f;" horiz-adv-x="762" 
d="M702 70q-5 -8 -19 -15q-66 -33 -133.5 -50.5t-141.5 -17.5q-105 0 -189.5 44.5t-133 125.5t-48.5 186q0 110 49 194t135.5 130t195.5 46q75 0 141.5 -21t119.5 -58q17 -11 17 -23q0 -10 -7 -20l-51 -79q-5 -8 -10 -11.5t-12 -3.5q-8 0 -19 6q-87 50 -179 50
q-61 0 -106 -26.5t-69.5 -73t-24.5 -105.5q0 -60 25 -106t69 -71.5t101 -25.5q61 0 106 17q9 4 12 8t3 14v141q0 14 6 20.5t20 6.5h122q14 0 20 -6.5t6 -20.5v-231q0 -16 -5 -24zM286.5 776.5q-42.5 22.5 -62 60.5t-19.5 84q0 12 4.5 17t17.5 5h67q12 0 17.5 -4t7.5 -15
q6 -28 25 -44t51 -16t51 16.5t25 43.5q2 11 7.5 15t17.5 4h67q13 0 17.5 -5t4.5 -17q0 -46 -20 -83.5t-62.5 -60.5t-108.5 -23q-65 0 -107.5 22.5z" />
    <glyph glyph-name="Gdotaccent" unicode="&#x120;" horiz-adv-x="762" 
d="M702 70q-5 -8 -19 -15q-66 -33 -133.5 -50.5t-141.5 -17.5q-105 0 -189.5 44.5t-133 125.5t-48.5 186q0 110 49 194t135.5 130t195.5 46q75 0 141.5 -21t119.5 -58q17 -11 17 -23q0 -10 -7 -20l-51 -79q-5 -8 -10 -11.5t-12 -3.5q-8 0 -19 6q-87 50 -179 50
q-61 0 -106 -26.5t-69.5 -73t-24.5 -105.5q0 -60 25 -106t69 -71.5t101 -25.5q61 0 106 17q9 4 12 8t3 14v141q0 14 6 20.5t20 6.5h122q14 0 20 -6.5t6 -20.5v-231q0 -16 -5 -24zM320 874.5q11 18.5 30.5 29t44.5 10.5t44.5 -10.5t30.5 -29t11 -41.5t-11 -41t-30.5 -28
t-44.5 -10t-44.5 10t-30.5 28t-11 41t11 41.5z" />
    <glyph glyph-name="gdotaccent" unicode="&#x121;" horiz-adv-x="762" 
d="M702 70q-5 -8 -19 -15q-66 -33 -133.5 -50.5t-141.5 -17.5q-105 0 -189.5 44.5t-133 125.5t-48.5 186q0 110 49 194t135.5 130t195.5 46q75 0 141.5 -21t119.5 -58q17 -11 17 -23q0 -10 -7 -20l-51 -79q-5 -8 -10 -11.5t-12 -3.5q-8 0 -19 6q-87 50 -179 50
q-61 0 -106 -26.5t-69.5 -73t-24.5 -105.5q0 -60 25 -106t69 -71.5t101 -25.5q61 0 106 17q9 4 12 8t3 14v141q0 14 6 20.5t20 6.5h122q14 0 20 -6.5t6 -20.5v-231q0 -16 -5 -24zM320 874.5q11 18.5 30.5 29t44.5 10.5t44.5 -10.5t30.5 -29t11 -41.5t-11 -41t-30.5 -28
t-44.5 -10t-44.5 10t-30.5 28t-11 41t11 41.5z" />
    <glyph glyph-name="Gcommaaccent" unicode="&#x122;" horiz-adv-x="762" 
d="M702 70q-5 -8 -19 -15q-66 -33 -133.5 -50.5t-141.5 -17.5q-105 0 -189.5 44.5t-133 125.5t-48.5 186q0 110 49 194t135.5 130t195.5 46q75 0 141.5 -21t119.5 -58q17 -11 17 -23q0 -10 -7 -20l-51 -79q-5 -8 -10 -11.5t-12 -3.5q-8 0 -19 6q-87 50 -179 50
q-61 0 -106 -26.5t-69.5 -73t-24.5 -105.5q0 -60 25 -106t69 -71.5t101 -25.5q61 0 106 17q9 4 12 8t3 14v141q0 14 6 20.5t20 6.5h122q14 0 20 -6.5t6 -20.5v-231q0 -16 -5 -24zM456 -57.5q26 -22.5 26 -62.5q0 -25 -9 -49t-30 -60l-21 -36q-8 -14 -15.5 -18.5t-25.5 -4.5
h-52q-23 0 -23 14q0 7 5 15l41 66q-28 6 -46 25.5t-18 50.5q0 24 12.5 42.5t35.5 29t52 10.5q42 0 68 -22.5z" />
    <glyph glyph-name="gcommaaccent" unicode="&#x123;" horiz-adv-x="762" 
d="M702 70q-5 -8 -19 -15q-66 -33 -133.5 -50.5t-141.5 -17.5q-105 0 -189.5 44.5t-133 125.5t-48.5 186q0 110 49 194t135.5 130t195.5 46q75 0 141.5 -21t119.5 -58q17 -11 17 -23q0 -10 -7 -20l-51 -79q-5 -8 -10 -11.5t-12 -3.5q-8 0 -19 6q-87 50 -179 50
q-61 0 -106 -26.5t-69.5 -73t-24.5 -105.5q0 -60 25 -106t69 -71.5t101 -25.5q61 0 106 17q9 4 12 8t3 14v141q0 14 6 20.5t20 6.5h122q14 0 20 -6.5t6 -20.5v-231q0 -16 -5 -24zM456 -57.5q26 -22.5 26 -62.5q0 -25 -9 -49t-30 -60l-21 -36q-8 -14 -15.5 -18.5t-25.5 -4.5
h-52q-23 0 -23 14q0 7 5 15l41 66q-28 6 -46 25.5t-18 50.5q0 24 12.5 42.5t35.5 29t52 10.5q42 0 68 -22.5z" />
    <glyph glyph-name="Hcircumflex" unicode="&#x124;" horiz-adv-x="760" 
d="M658 0h-121q-13 0 -19.5 6.5t-6.5 19.5v236q0 8 -3.5 11.5t-12.5 3.5h-231q-9 0 -12 -3.5t-3 -11.5v-236q0 -14 -6.5 -20t-20.5 -6h-121q-13 0 -19.5 6.5t-6.5 19.5v648q0 14 6.5 20t19.5 6h121q14 0 20.5 -6t6.5 -20v-222q0 -8 3 -11.5t12 -3.5h231q9 0 12.5 3.5
t3.5 11.5v222q0 14 6.5 20t19.5 6h121q27 0 27 -26v-648q0 -26 -27 -26zM257 754q-8 0 -20 6l-56 30q-13 7 -13 16q0 8 10 17l126 115q12 11 19.5 14t24.5 3h64q17 0 24.5 -3t19.5 -14l126 -115q10 -9 10 -17q0 -9 -13 -16l-56 -30q-12 -6 -20 -6q-13 0 -26 13l-97 92
l-97 -92q-13 -13 -26 -13z" />
    <glyph glyph-name="hcircumflex" unicode="&#x125;" horiz-adv-x="760" 
d="M658 0h-121q-13 0 -19.5 6.5t-6.5 19.5v236q0 8 -3.5 11.5t-12.5 3.5h-231q-9 0 -12 -3.5t-3 -11.5v-236q0 -14 -6.5 -20t-20.5 -6h-121q-13 0 -19.5 6.5t-6.5 19.5v648q0 14 6.5 20t19.5 6h121q14 0 20.5 -6t6.5 -20v-222q0 -8 3 -11.5t12 -3.5h231q9 0 12.5 3.5
t3.5 11.5v222q0 14 6.5 20t19.5 6h121q27 0 27 -26v-648q0 -26 -27 -26zM257 754q-8 0 -20 6l-56 30q-13 7 -13 16q0 8 10 17l126 115q12 11 19.5 14t24.5 3h64q17 0 24.5 -3t19.5 -14l126 -115q10 -9 10 -17q0 -9 -13 -16l-56 -30q-12 -6 -20 -6q-13 0 -26 13l-97 92
l-97 -92q-13 -13 -26 -13z" />
    <glyph glyph-name="Hbar" unicode="&#x126;" horiz-adv-x="760" 
d="M71.5 492q-3.5 3 -11.5 3h-34q-14 0 -20 6t-6 20v78q0 14 6 20t20 6h34q8 0 11.5 3t3.5 11v35q0 14 6.5 20t19.5 6h121q14 0 20.5 -6t6.5 -20v-35q0 -8 3 -11t11 -3h233q8 0 11.5 3t3.5 11v35q0 14 6.5 20t19.5 6h121q27 0 27 -26v-35q0 -8 3 -11t11 -3h34q14 0 20.5 -6
t6.5 -20v-78q0 -14 -6.5 -20t-20.5 -6h-34q-8 0 -11 -3t-3 -11v-455q0 -26 -27 -26h-121q-13 0 -19.5 6.5t-6.5 19.5v235q0 9 -3.5 12t-12.5 3h-231q-9 0 -12 -3t-3 -12v-235q0 -14 -6.5 -20t-20.5 -6h-121q-13 0 -19.5 6.5t-6.5 19.5v455q0 8 -3.5 11zM507.5 420.5
q3.5 3.5 3.5 11.5v49q0 8 -3.5 11t-11.5 3h-233q-8 0 -11 -3t-3 -11v-49q0 -8 3 -11.5t12 -3.5h231q9 0 12.5 3.5z" />
    <glyph glyph-name="hbar" unicode="&#x127;" horiz-adv-x="760" 
d="M71.5 492q-3.5 3 -11.5 3h-34q-14 0 -20 6t-6 20v78q0 14 6 20t20 6h34q8 0 11.5 3t3.5 11v35q0 14 6.5 20t19.5 6h121q14 0 20.5 -6t6.5 -20v-35q0 -8 3 -11t11 -3h233q8 0 11.5 3t3.5 11v35q0 14 6.5 20t19.5 6h121q27 0 27 -26v-35q0 -8 3 -11t11 -3h34q14 0 20.5 -6
t6.5 -20v-78q0 -14 -6.5 -20t-20.5 -6h-34q-8 0 -11 -3t-3 -11v-455q0 -26 -27 -26h-121q-13 0 -19.5 6.5t-6.5 19.5v235q0 9 -3.5 12t-12.5 3h-231q-9 0 -12 -3t-3 -12v-235q0 -14 -6.5 -20t-20.5 -6h-121q-13 0 -19.5 6.5t-6.5 19.5v455q0 8 -3.5 11zM507.5 420.5
q3.5 3.5 3.5 11.5v49q0 8 -3.5 11t-11.5 3h-233q-8 0 -11 -3t-3 -11v-49q0 -8 3 -11.5t12 -3.5h231q9 0 12.5 3.5z" />
    <glyph glyph-name="Itilde" unicode="&#x128;" horiz-adv-x="324" 
d="M242.5 6q-6.5 -6 -20.5 -6h-121q-13 0 -19.5 6.5t-6.5 19.5v648q0 14 6.5 20t19.5 6h121q14 0 20.5 -6t6.5 -20v-648q0 -14 -6.5 -20zM193.5 769q-20.5 6 -48.5 17q-20 9 -33.5 13t-26.5 4q-19 0 -34 -8t-31 -24q-7 -7 -15 -7q-7 0 -14 8l-35 51q-6 8 -6 14q0 7 9 16
q22 26 54.5 42.5t71.5 16.5q25 0 45.5 -6t48.5 -17q15 -6 31 -11t29 -5q19 0 34.5 8t30.5 23q8 8 15 8t14 -9l35 -51q6 -7 6 -13t-9 -17q-22 -26 -54.5 -42.5t-71.5 -16.5q-25 0 -45.5 6z" />
    <glyph glyph-name="itilde" unicode="&#x129;" horiz-adv-x="324" 
d="M242.5 6q-6.5 -6 -20.5 -6h-121q-13 0 -19.5 6.5t-6.5 19.5v648q0 14 6.5 20t19.5 6h121q14 0 20.5 -6t6.5 -20v-648q0 -14 -6.5 -20zM193.5 769q-20.5 6 -48.5 17q-20 9 -33.5 13t-26.5 4q-19 0 -34 -8t-31 -24q-7 -7 -15 -7q-7 0 -14 8l-35 51q-6 8 -6 14q0 7 9 16
q22 26 54.5 42.5t71.5 16.5q25 0 45.5 -6t48.5 -17q15 -6 31 -11t29 -5q19 0 34.5 8t30.5 23q8 8 15 8t14 -9l35 -51q6 -7 6 -13t-9 -17q-22 -26 -54.5 -42.5t-71.5 -16.5q-25 0 -45.5 6z" />
    <glyph glyph-name="Imacron" unicode="&#x12a;" horiz-adv-x="324" 
d="M242.5 6q-6.5 -6 -20.5 -6h-121q-13 0 -19.5 6.5t-6.5 19.5v648q0 14 6.5 20t19.5 6h121q14 0 20.5 -6t6.5 -20v-648q0 -14 -6.5 -20zM5.5 784q-6.5 6 -6.5 19v66q0 14 6.5 20t20.5 6h272q14 0 20.5 -6t6.5 -20v-66q0 -13 -6.5 -19t-20.5 -6h-272q-14 0 -20.5 6z" />
    <glyph glyph-name="imacron" unicode="&#x12b;" horiz-adv-x="324" 
d="M242.5 6q-6.5 -6 -20.5 -6h-121q-13 0 -19.5 6.5t-6.5 19.5v648q0 14 6.5 20t19.5 6h121q14 0 20.5 -6t6.5 -20v-648q0 -14 -6.5 -20zM5.5 784q-6.5 6 -6.5 19v66q0 14 6.5 20t20.5 6h272q14 0 20.5 -6t6.5 -20v-66q0 -13 -6.5 -19t-20.5 -6h-272q-14 0 -20.5 6z" />
    <glyph glyph-name="Ibreve" unicode="&#x12c;" horiz-adv-x="324" 
d="M242.5 6q-6.5 -6 -20.5 -6h-121q-13 0 -19.5 6.5t-6.5 19.5v648q0 14 6.5 20t19.5 6h121q14 0 20.5 -6t6.5 -20v-648q0 -14 -6.5 -20zM53.5 776.5q-42.5 22.5 -62 60.5t-19.5 84q0 12 4.5 17t17.5 5h67q12 0 17.5 -4t7.5 -15q6 -28 25 -44t51 -16t51 16.5t25 43.5
q2 11 7.5 15t17.5 4h67q13 0 17.5 -5t4.5 -17q0 -46 -20 -83.5t-62.5 -60.5t-108.5 -23q-65 0 -107.5 22.5z" />
    <glyph glyph-name="ibreve" unicode="&#x12d;" horiz-adv-x="324" 
d="M242.5 6q-6.5 -6 -20.5 -6h-121q-13 0 -19.5 6.5t-6.5 19.5v648q0 14 6.5 20t19.5 6h121q14 0 20.5 -6t6.5 -20v-648q0 -14 -6.5 -20zM53.5 776.5q-42.5 22.5 -62 60.5t-19.5 84q0 12 4.5 17t17.5 5h67q12 0 17.5 -4t7.5 -15q6 -28 25 -44t51 -16t51 16.5t25 43.5
q2 11 7.5 15t17.5 4h67q13 0 17.5 -5t4.5 -17q0 -46 -20 -83.5t-62.5 -60.5t-108.5 -23q-65 0 -107.5 22.5z" />
    <glyph glyph-name="Iogonek" unicode="&#x12e;" horiz-adv-x="324" 
d="M81.5 694q6.5 6 19.5 6h121q14 0 20.5 -6t6.5 -20v-648q0 -14 -6.5 -20t-20.5 -6h-29q-32 -16 -49 -38t-17 -48q0 -24 16.5 -38.5t41.5 -14.5q32 0 59 15q8 5 12 5q8 0 12 -10l22 -42q3 -6 3 -11q0 -10 -12 -17q-47 -31 -108 -31q-43 0 -76 16t-51.5 44t-18.5 64
q0 60 48 106v674q0 14 6.5 20z" />
    <glyph glyph-name="iogonek" unicode="&#x12f;" horiz-adv-x="324" 
d="M81.5 694q6.5 6 19.5 6h121q14 0 20.5 -6t6.5 -20v-648q0 -14 -6.5 -20t-20.5 -6h-29q-32 -16 -49 -38t-17 -48q0 -24 16.5 -38.5t41.5 -14.5q32 0 59 15q8 5 12 5q8 0 12 -10l22 -42q3 -6 3 -11q0 -10 -12 -17q-47 -31 -108 -31q-43 0 -76 16t-51.5 44t-18.5 64
q0 60 48 106v674q0 14 6.5 20z" />
    <glyph glyph-name="Idotaccent" unicode="&#x130;" horiz-adv-x="324" 
d="M242.5 6q-6.5 -6 -20.5 -6h-121q-13 0 -19.5 6.5t-6.5 19.5v648q0 14 6.5 20t19.5 6h121q14 0 20.5 -6t6.5 -20v-648q0 -14 -6.5 -20zM87 874.5q11 18.5 30.5 29t44.5 10.5t44.5 -10.5t30.5 -29t11 -41.5t-11 -41t-30.5 -28t-44.5 -10t-44.5 10t-30.5 28t-11 41t11 41.5z
" />
    <glyph glyph-name="dotlessi" unicode="&#x131;" horiz-adv-x="324" 
d="M242.5 6q-6.5 -6 -20.5 -6h-121q-13 0 -19.5 6.5t-6.5 19.5v648q0 14 6.5 20t19.5 6h121q14 0 20.5 -6t6.5 -20v-648q0 -14 -6.5 -20z" />
    <glyph glyph-name="IJ" unicode="&#x132;" horiz-adv-x="648" 
d="M242.5 6q-6.5 -6 -20.5 -6h-121q-13 0 -19.5 6.5t-6.5 19.5v648q0 14 6.5 20t19.5 6h121q14 0 20.5 -6t6.5 -20v-648q0 -14 -6.5 -20zM266.5 -42.5q4.5 5.5 14.5 5.5q8 0 21 -1.5t23 -1.5q34 0 54 25.5t20 73.5v615q0 14 6.5 20t20.5 6h121q14 0 20 -6t6 -20v-627
q0 -119 -53.5 -183t-171.5 -64q-50 0 -77 7q-14 4 -18.5 11t-2.5 22l11 98q1 14 5.5 19.5z" />
    <glyph glyph-name="ij" unicode="&#x133;" horiz-adv-x="648" 
d="M242.5 6q-6.5 -6 -20.5 -6h-121q-13 0 -19.5 6.5t-6.5 19.5v648q0 14 6.5 20t19.5 6h121q14 0 20.5 -6t6.5 -20v-648q0 -14 -6.5 -20zM266.5 -42.5q4.5 5.5 14.5 5.5q8 0 21 -1.5t23 -1.5q34 0 54 25.5t20 73.5v615q0 14 6.5 20t20.5 6h121q14 0 20 -6t6 -20v-627
q0 -119 -53.5 -183t-171.5 -64q-50 0 -77 7q-14 4 -18.5 11t-2.5 22l11 98q1 14 5.5 19.5z" />
    <glyph glyph-name="Jcircumflex" unicode="&#x134;" horiz-adv-x="336" 
d="M-38.5 -42.5q4.5 5.5 14.5 5.5q8 0 21 -1.5t23 -1.5q34 0 54 25.5t20 73.5v615q0 14 6.5 20t20.5 6h121q14 0 20 -6t6 -20v-627q0 -119 -53.5 -183t-171.5 -64q-50 0 -77 7q-14 4 -18.5 11t-2.5 22l11 98q1 14 5.5 19.5zM58 754q-8 0 -20 6l-56 30q-13 7 -13 16
q0 8 10 17l126 115q12 11 19.5 14t24.5 3h64q17 0 24.5 -3t19.5 -14l126 -115q10 -9 10 -17q0 -9 -13 -16l-56 -30q-12 -6 -20 -6q-13 0 -26 13l-97 92l-97 -92q-13 -13 -26 -13z" />
    <glyph glyph-name="jcircumflex" unicode="&#x135;" horiz-adv-x="336" 
d="M-38.5 -42.5q4.5 5.5 14.5 5.5q8 0 21 -1.5t23 -1.5q34 0 54 25.5t20 73.5v615q0 14 6.5 20t20.5 6h121q14 0 20 -6t6 -20v-627q0 -119 -53.5 -183t-171.5 -64q-50 0 -77 7q-14 4 -18.5 11t-2.5 22l11 98q1 14 5.5 19.5zM58 754q-8 0 -20 6l-56 30q-13 7 -13 16
q0 8 10 17l126 115q12 11 19.5 14t24.5 3h64q17 0 24.5 -3t19.5 -14l126 -115q10 -9 10 -17q0 -9 -13 -16l-56 -30q-12 -6 -20 -6q-13 0 -26 13l-97 92l-97 -92q-13 -13 -26 -13z" />
    <glyph glyph-name="Kcommaaccent" unicode="&#x136;" horiz-adv-x="707" 
d="M242.5 6q-6.5 -6 -20.5 -6h-121q-13 0 -19.5 6.5t-6.5 19.5v648q0 14 6.5 20t19.5 6h121q14 0 20.5 -6t6.5 -20v-648q0 -14 -6.5 -20zM505.5 695q9.5 5 28.5 5h141q21 0 21 -14q0 -6 -6 -15l-232 -311l242 -331q7 -8 7 -16q0 -6 -6 -9.5t-16 -3.5h-145q-20 0 -29.5 5
t-20.5 21l-215 305q-9 14 -9 23q0 10 10 24l209 295q11 17 20.5 22zM436 -57.5q26 -22.5 26 -62.5q0 -25 -9 -49t-30 -60l-21 -36q-8 -14 -15.5 -18.5t-25.5 -4.5h-52q-23 0 -23 14q0 7 5 15l41 66q-28 6 -46 25.5t-18 50.5q0 24 12.5 42.5t35.5 29t52 10.5q42 0 68 -22.5z
" />
    <glyph glyph-name="kcommaaccent" unicode="&#x137;" horiz-adv-x="707" 
d="M242.5 6q-6.5 -6 -20.5 -6h-121q-13 0 -19.5 6.5t-6.5 19.5v648q0 14 6.5 20t19.5 6h121q14 0 20.5 -6t6.5 -20v-648q0 -14 -6.5 -20zM505.5 695q9.5 5 28.5 5h141q21 0 21 -14q0 -6 -6 -15l-232 -311l242 -331q7 -8 7 -16q0 -6 -6 -9.5t-16 -3.5h-145q-20 0 -29.5 5
t-20.5 21l-215 305q-9 14 -9 23q0 10 10 24l209 295q11 17 20.5 22zM436 -57.5q26 -22.5 26 -62.5q0 -25 -9 -49t-30 -60l-21 -36q-8 -14 -15.5 -18.5t-25.5 -4.5h-52q-23 0 -23 14q0 7 5 15l41 66q-28 6 -46 25.5t-18 50.5q0 24 12.5 42.5t35.5 29t52 10.5q42 0 68 -22.5z
" />
    <glyph glyph-name="kgreenlandic" unicode="&#x138;" horiz-adv-x="707" 
d="M242.5 6q-6.5 -6 -20.5 -6h-121q-13 0 -19.5 6.5t-6.5 19.5v648q0 14 6.5 20t19.5 6h121q14 0 20.5 -6t6.5 -20v-648q0 -14 -6.5 -20zM505.5 695q9.5 5 28.5 5h141q21 0 21 -14q0 -6 -6 -15l-232 -311l242 -331q7 -8 7 -16q0 -6 -6 -9.5t-16 -3.5h-145q-20 0 -29.5 5
t-20.5 21l-215 305q-9 14 -9 23q0 10 10 24l209 295q11 17 20.5 22z" />
    <glyph glyph-name="Lacute" unicode="&#x139;" horiz-adv-x="572" 
d="M252 163.5q3 -3.5 12 -3.5h257q14 0 20 -6t6 -20v-108q0 -13 -6 -19.5t-20 -6.5h-420q-13 0 -19.5 6.5t-6.5 19.5v648q0 14 6.5 20t19.5 6h121q14 0 20.5 -6t6.5 -20v-499q0 -8 3 -11.5zM382 901q0 -11 -16 -20l-195 -118q-15 -9 -25 -9q-8 0 -19 8l-43 33q-11 9 -11 18
q0 8 11 17l176 133q16 11 27 11q12 0 26 -11l56 -42q13 -10 13 -20z" />
    <glyph glyph-name="lacute" unicode="&#x13a;" horiz-adv-x="572" 
d="M252 163.5q3 -3.5 12 -3.5h257q14 0 20 -6t6 -20v-108q0 -13 -6 -19.5t-20 -6.5h-420q-13 0 -19.5 6.5t-6.5 19.5v648q0 14 6.5 20t19.5 6h121q14 0 20.5 -6t6.5 -20v-499q0 -8 3 -11.5zM382 901q0 -11 -16 -20l-195 -118q-15 -9 -25 -9q-8 0 -19 8l-43 33q-11 9 -11 18
q0 8 11 17l176 133q16 11 27 11q12 0 26 -11l56 -42q13 -10 13 -20z" />
    <glyph glyph-name="Lcommaaccent" unicode="&#x13b;" horiz-adv-x="572" 
d="M252 163.5q3 -3.5 12 -3.5h257q14 0 20 -6t6 -20v-108q0 -13 -6 -19.5t-20 -6.5h-420q-13 0 -19.5 6.5t-6.5 19.5v648q0 14 6.5 20t19.5 6h121q14 0 20.5 -6t6.5 -20v-499q0 -8 3 -11.5zM381 -57.5q26 -22.5 26 -62.5q0 -25 -9 -49t-30 -60l-21 -36q-8 -14 -15.5 -18.5
t-25.5 -4.5h-52q-23 0 -23 14q0 7 5 15l41 66q-28 6 -46 25.5t-18 50.5q0 24 12.5 42.5t35.5 29t52 10.5q42 0 68 -22.5z" />
    <glyph glyph-name="lcommaaccent" unicode="&#x13c;" horiz-adv-x="572" 
d="M252 163.5q3 -3.5 12 -3.5h257q14 0 20 -6t6 -20v-108q0 -13 -6 -19.5t-20 -6.5h-420q-13 0 -19.5 6.5t-6.5 19.5v648q0 14 6.5 20t19.5 6h121q14 0 20.5 -6t6.5 -20v-499q0 -8 3 -11.5zM381 -57.5q26 -22.5 26 -62.5q0 -25 -9 -49t-30 -60l-21 -36q-8 -14 -15.5 -18.5
t-25.5 -4.5h-52q-23 0 -23 14q0 7 5 15l41 66q-28 6 -46 25.5t-18 50.5q0 24 12.5 42.5t35.5 29t52 10.5q42 0 68 -22.5z" />
    <glyph glyph-name="Lcaron" unicode="&#x13d;" horiz-adv-x="572" 
d="M252 163.5q3 -3.5 12 -3.5h257q14 0 20 -6t6 -20v-108q0 -13 -6 -19.5t-20 -6.5h-420q-13 0 -19.5 6.5t-6.5 19.5v648q0 14 6.5 20t19.5 6h121q14 0 20.5 -6t6.5 -20v-499q0 -8 3 -11.5zM366 582.5q-18 19.5 -18 50.5q0 24 12.5 42.5t35.5 29t52 10.5q42 0 68 -22.5
t26 -62.5q0 -25 -8.5 -48t-29.5 -61l-36 -64q-8 -14 -15.5 -18.5t-25.5 -4.5h-49q-23 0 -23 14q0 8 5 15l52 94q-28 6 -46 25.5z" />
    <glyph glyph-name="lcaron" unicode="&#x13e;" horiz-adv-x="572" 
d="M252 163.5q3 -3.5 12 -3.5h257q14 0 20 -6t6 -20v-108q0 -13 -6 -19.5t-20 -6.5h-420q-13 0 -19.5 6.5t-6.5 19.5v648q0 14 6.5 20t19.5 6h121q14 0 20.5 -6t6.5 -20v-499q0 -8 3 -11.5zM366 582.5q-18 19.5 -18 50.5q0 24 12.5 42.5t35.5 29t52 10.5q42 0 68 -22.5
t26 -62.5q0 -25 -8.5 -48t-29.5 -61l-36 -64q-8 -14 -15.5 -18.5t-25.5 -4.5h-49q-23 0 -23 14q0 8 5 15l52 94q-28 6 -46 25.5z" />
    <glyph glyph-name="Ldot" unicode="&#x13f;" horiz-adv-x="572" 
d="M252 163.5q3 -3.5 12 -3.5h257q14 0 20 -6t6 -20v-108q0 -13 -6 -19.5t-20 -6.5h-420q-13 0 -19.5 6.5t-6.5 19.5v648q0 14 6.5 20t19.5 6h121q14 0 20.5 -6t6.5 -20v-499q0 -8 3 -11.5zM370 422.5q11 18.5 30.5 29t44.5 10.5t44.5 -10.5t30.5 -29t11 -41.5t-11 -41
t-30.5 -28t-44.5 -10t-44.5 10t-30.5 28t-11 41t11 41.5z" />
    <glyph glyph-name="ldot" unicode="&#x140;" horiz-adv-x="572" 
d="M252 163.5q3 -3.5 12 -3.5h257q14 0 20 -6t6 -20v-108q0 -13 -6 -19.5t-20 -6.5h-420q-13 0 -19.5 6.5t-6.5 19.5v648q0 14 6.5 20t19.5 6h121q14 0 20.5 -6t6.5 -20v-499q0 -8 3 -11.5zM370 422.5q11 18.5 30.5 29t44.5 10.5t44.5 -10.5t30.5 -29t11 -41.5t-11 -41
t-30.5 -28t-44.5 -10t-44.5 10t-30.5 28t-11 41t11 41.5z" />
    <glyph glyph-name="Lslash" unicode="&#x141;" horiz-adv-x="572" 
d="M23 221q-8 -4 -14 -4q-7 0 -11 5.5t-4 15.5v86q0 16 5 24t19 15l57 28v283q0 14 6.5 20t19.5 6h121q14 0 20.5 -6t6.5 -20v-198l136 66q8 4 14 4q7 0 11 -5.5t4 -15.5v-87q0 -15 -5 -23.5t-19 -15.5l-141 -69v-155q0 -8 3 -11.5t12 -3.5h257q14 0 20 -6t6 -20v-108
q0 -13 -6 -19.5t-20 -6.5h-420q-13 0 -19.5 6.5t-6.5 19.5v220z" />
    <glyph glyph-name="lslash" unicode="&#x142;" horiz-adv-x="572" 
d="M23 221q-8 -4 -14 -4q-7 0 -11 5.5t-4 15.5v86q0 16 5 24t19 15l57 28v283q0 14 6.5 20t19.5 6h121q14 0 20.5 -6t6.5 -20v-198l136 66q8 4 14 4q7 0 11 -5.5t4 -15.5v-87q0 -15 -5 -23.5t-19 -15.5l-141 -69v-155q0 -8 3 -11.5t12 -3.5h257q14 0 20 -6t6 -20v-108
q0 -13 -6 -19.5t-20 -6.5h-420q-13 0 -19.5 6.5t-6.5 19.5v220z" />
    <glyph glyph-name="Nacute" unicode="&#x143;" horiz-adv-x="760" 
d="M517.5 694q6.5 6 19.5 6h121q27 0 27 -26v-648q0 -39 -24 -39q-10 0 -21.5 7.5t-30.5 25.5l-360 338v-332q0 -14 -6.5 -20t-20.5 -6h-121q-13 0 -19.5 6.5t-6.5 19.5v648q0 39 24 39q10 0 21.5 -7.5t30.5 -25.5l360 -338v332q0 14 6.5 20zM577 901q0 -11 -16 -20
l-195 -118q-15 -9 -25 -9q-8 0 -19 8l-43 33q-11 9 -11 18q0 8 11 17l176 133q16 11 27 11q12 0 26 -11l56 -42q13 -10 13 -20z" />
    <glyph glyph-name="nacute" unicode="&#x144;" horiz-adv-x="760" 
d="M517.5 694q6.5 6 19.5 6h121q27 0 27 -26v-648q0 -39 -24 -39q-10 0 -21.5 7.5t-30.5 25.5l-360 338v-332q0 -14 -6.5 -20t-20.5 -6h-121q-13 0 -19.5 6.5t-6.5 19.5v648q0 39 24 39q10 0 21.5 -7.5t30.5 -25.5l360 -338v332q0 14 6.5 20zM577 901q0 -11 -16 -20
l-195 -118q-15 -9 -25 -9q-8 0 -19 8l-43 33q-11 9 -11 18q0 8 11 17l176 133q16 11 27 11q12 0 26 -11l56 -42q13 -10 13 -20z" />
    <glyph glyph-name="Ncommaaccent" unicode="&#x145;" horiz-adv-x="760" 
d="M517.5 694q6.5 6 19.5 6h121q27 0 27 -26v-648q0 -39 -24 -39q-10 0 -21.5 7.5t-30.5 25.5l-360 338v-332q0 -14 -6.5 -20t-20.5 -6h-121q-13 0 -19.5 6.5t-6.5 19.5v648q0 39 24 39q10 0 21.5 -7.5t30.5 -25.5l360 -338v332q0 14 6.5 20zM456 -57.5q26 -22.5 26 -62.5
q0 -25 -9 -49t-30 -60l-21 -36q-8 -14 -15.5 -18.5t-25.5 -4.5h-52q-23 0 -23 14q0 7 5 15l41 66q-28 6 -46 25.5t-18 50.5q0 24 12.5 42.5t35.5 29t52 10.5q42 0 68 -22.5z" />
    <glyph glyph-name="ncommaaccent" unicode="&#x146;" horiz-adv-x="760" 
d="M517.5 694q6.5 6 19.5 6h121q27 0 27 -26v-648q0 -39 -24 -39q-10 0 -21.5 7.5t-30.5 25.5l-360 338v-332q0 -14 -6.5 -20t-20.5 -6h-121q-13 0 -19.5 6.5t-6.5 19.5v648q0 39 24 39q10 0 21.5 -7.5t30.5 -25.5l360 -338v332q0 14 6.5 20zM456 -57.5q26 -22.5 26 -62.5
q0 -25 -9 -49t-30 -60l-21 -36q-8 -14 -15.5 -18.5t-25.5 -4.5h-52q-23 0 -23 14q0 7 5 15l41 66q-28 6 -46 25.5t-18 50.5q0 24 12.5 42.5t35.5 29t52 10.5q42 0 68 -22.5z" />
    <glyph glyph-name="Ncaron" unicode="&#x147;" horiz-adv-x="760" 
d="M517.5 694q6.5 6 19.5 6h121q27 0 27 -26v-648q0 -39 -24 -39q-10 0 -21.5 7.5t-30.5 25.5l-360 338v-332q0 -14 -6.5 -20t-20.5 -6h-121q-13 0 -19.5 6.5t-6.5 19.5v648q0 39 24 39q10 0 21.5 -7.5t30.5 -25.5l360 -338v332q0 14 6.5 20zM503 955q8 0 20 -6l56 -30
q13 -7 13 -16q0 -8 -10 -17l-126 -115q-12 -11 -19.5 -14t-24.5 -3h-64q-17 0 -24.5 3t-19.5 14l-126 115q-10 9 -10 17q0 9 13 16l56 30q12 6 20 6q13 0 26 -13l97 -92l97 92q13 13 26 13z" />
    <glyph glyph-name="ncaron" unicode="&#x148;" horiz-adv-x="760" 
d="M517.5 694q6.5 6 19.5 6h121q27 0 27 -26v-648q0 -39 -24 -39q-10 0 -21.5 7.5t-30.5 25.5l-360 338v-332q0 -14 -6.5 -20t-20.5 -6h-121q-13 0 -19.5 6.5t-6.5 19.5v648q0 39 24 39q10 0 21.5 -7.5t30.5 -25.5l360 -338v332q0 14 6.5 20zM503 955q8 0 20 -6l56 -30
q13 -7 13 -16q0 -8 -10 -17l-126 -115q-12 -11 -19.5 -14t-24.5 -3h-64q-17 0 -24.5 3t-19.5 14l-126 115q-10 9 -10 17q0 9 13 16l56 30q12 6 20 6q13 0 26 -13l97 -92l97 92q13 13 26 13z" />
    <glyph glyph-name="napostrophe" unicode="&#x149;" horiz-adv-x="760" 
d="M517.5 694q6.5 6 19.5 6h121q27 0 27 -26v-648q0 -39 -24 -39q-10 0 -21.5 7.5t-30.5 25.5l-360 338v-332q0 -14 -6.5 -20t-20.5 -6h-121q-13 0 -19.5 6.5t-6.5 19.5v648q0 39 24 39q10 0 21.5 -7.5t30.5 -25.5l360 -338v332q0 14 6.5 20zM-26.5 687q26.5 -25 26.5 -69
q0 -28 -9 -55.5t-29 -64.5l-33 -62q-8 -15 -16.5 -20t-26.5 -5h-50q-23 0 -23 14q0 7 6 17l52 94q-27 6 -45.5 28t-18.5 57q0 26 12.5 47t34.5 32.5t49 11.5q44 0 70.5 -25z" />
    <glyph glyph-name="Eng" unicode="&#x14a;" horiz-adv-x="760" 
d="M99 713q10 0 21.5 -7.5t30.5 -25.5l360 -338v332q0 14 6.5 20t19.5 6h121q27 0 27 -26v-627q0 -119 -53.5 -183t-171.5 -64q-50 0 -77 7q-14 4 -18.5 11t-2.5 22l11 98q1 14 5.5 19.5t14.5 5.5q8 0 21 -1.5t23 -1.5q34 0 54 25.5t20 73.5v53l-262 246v-332
q0 -14 -6.5 -20t-20.5 -6h-121q-13 0 -19.5 6.5t-6.5 19.5v648q0 39 24 39z" />
    <glyph glyph-name="eng" unicode="&#x14b;" horiz-adv-x="760" 
d="M99 713q10 0 21.5 -7.5t30.5 -25.5l360 -338v332q0 14 6.5 20t19.5 6h121q27 0 27 -26v-627q0 -119 -53.5 -183t-171.5 -64q-50 0 -77 7q-14 4 -18.5 11t-2.5 22l11 98q1 14 5.5 19.5t14.5 5.5q8 0 21 -1.5t23 -1.5q34 0 54 25.5t20 73.5v53l-262 246v-332
q0 -14 -6.5 -20t-20.5 -6h-121q-13 0 -19.5 6.5t-6.5 19.5v648q0 39 24 39z" />
    <glyph glyph-name="Omacron" unicode="&#x14c;" horiz-adv-x="823" 
d="M85.5 536q48.5 83 133.5 130t192 47q108 0 193.5 -46.5t133.5 -129t48 -187.5t-48.5 -187.5t-134.5 -129t-194 -46.5q-106 0 -191 46t-133 128.5t-48 186.5q0 105 48.5 188zM242 243q25 -46 69 -71t99 -25t99.5 25.5t70.5 71.5t26 105q0 61 -25.5 107t-70 71.5
t-99.5 25.5t-99.5 -25.5t-69.5 -72t-25 -106.5t25 -106zM254.5 784q-6.5 6 -6.5 19v66q0 14 6.5 20t20.5 6h272q14 0 20.5 -6t6.5 -20v-66q0 -13 -6.5 -19t-20.5 -6h-272q-14 0 -20.5 6z" />
    <glyph glyph-name="omacron" unicode="&#x14d;" horiz-adv-x="823" 
d="M85.5 536q48.5 83 133.5 130t192 47q108 0 193.5 -46.5t133.5 -129t48 -187.5t-48.5 -187.5t-134.5 -129t-194 -46.5q-106 0 -191 46t-133 128.5t-48 186.5q0 105 48.5 188zM242 243q25 -46 69 -71t99 -25t99.5 25.5t70.5 71.5t26 105q0 61 -25.5 107t-70 71.5
t-99.5 25.5t-99.5 -25.5t-69.5 -72t-25 -106.5t25 -106zM254.5 784q-6.5 6 -6.5 19v66q0 14 6.5 20t20.5 6h272q14 0 20.5 -6t6.5 -20v-66q0 -13 -6.5 -19t-20.5 -6h-272q-14 0 -20.5 6z" />
    <glyph glyph-name="Obreve" unicode="&#x14e;" horiz-adv-x="823" 
d="M85.5 536q48.5 83 133.5 130t192 47q108 0 193.5 -46.5t133.5 -129t48 -187.5t-48.5 -187.5t-134.5 -129t-194 -46.5q-106 0 -191 46t-133 128.5t-48 186.5q0 105 48.5 188zM242 243q25 -46 69 -71t99 -25t99.5 25.5t70.5 71.5t26 105q0 61 -25.5 107t-70 71.5
t-99.5 25.5t-99.5 -25.5t-69.5 -72t-25 -106.5t25 -106zM302.5 776.5q-42.5 22.5 -62 60.5t-19.5 84q0 12 4.5 17t17.5 5h67q12 0 17.5 -4t7.5 -15q6 -28 25 -44t51 -16t51 16.5t25 43.5q2 11 7.5 15t17.5 4h67q13 0 17.5 -5t4.5 -17q0 -46 -20 -83.5t-62.5 -60.5
t-108.5 -23q-65 0 -107.5 22.5z" />
    <glyph glyph-name="obreve" unicode="&#x14f;" horiz-adv-x="823" 
d="M85.5 536q48.5 83 133.5 130t192 47q108 0 193.5 -46.5t133.5 -129t48 -187.5t-48.5 -187.5t-134.5 -129t-194 -46.5q-106 0 -191 46t-133 128.5t-48 186.5q0 105 48.5 188zM242 243q25 -46 69 -71t99 -25t99.5 25.5t70.5 71.5t26 105q0 61 -25.5 107t-70 71.5
t-99.5 25.5t-99.5 -25.5t-69.5 -72t-25 -106.5t25 -106zM302.5 776.5q-42.5 22.5 -62 60.5t-19.5 84q0 12 4.5 17t17.5 5h67q12 0 17.5 -4t7.5 -15q6 -28 25 -44t51 -16t51 16.5t25 43.5q2 11 7.5 15t17.5 4h67q13 0 17.5 -5t4.5 -17q0 -46 -20 -83.5t-62.5 -60.5
t-108.5 -23q-65 0 -107.5 22.5z" />
    <glyph glyph-name="Ohungarumlaut" unicode="&#x150;" horiz-adv-x="823" 
d="M85.5 536q48.5 83 133.5 130t192 47q108 0 193.5 -46.5t133.5 -129t48 -187.5t-48.5 -187.5t-134.5 -129t-194 -46.5q-106 0 -191 46t-133 128.5t-48 186.5q0 105 48.5 188zM242 243q25 -46 69 -71t99 -25t99.5 25.5t70.5 71.5t26 105q0 61 -25.5 107t-70 71.5
t-99.5 25.5t-99.5 -25.5t-69.5 -72t-25 -106.5t25 -106zM733 917q0 -9 -16 -22l-173 -128q-17 -13 -31 -13q-9 0 -19 6l-47 26q-12 8 -12 17q0 8 11 18l154 138q16 15 30 15q7 0 23 -7l62 -31q18 -9 18 -19zM485 921q0 -9 -14 -21l-152 -133q-8 -7 -14.5 -10t-13.5 -3
q-8 0 -20 6l-48 25q-14 8 -14 18q0 8 9 17l135 138q8 8 14 11.5t12 3.5q9 0 23 -6l64 -26q19 -9 19 -20z" />
    <glyph glyph-name="ohungarumlaut" unicode="&#x151;" horiz-adv-x="823" 
d="M85.5 536q48.5 83 133.5 130t192 47q108 0 193.5 -46.5t133.5 -129t48 -187.5t-48.5 -187.5t-134.5 -129t-194 -46.5q-106 0 -191 46t-133 128.5t-48 186.5q0 105 48.5 188zM242 243q25 -46 69 -71t99 -25t99.5 25.5t70.5 71.5t26 105q0 61 -25.5 107t-70 71.5
t-99.5 25.5t-99.5 -25.5t-69.5 -72t-25 -106.5t25 -106zM733 917q0 -9 -16 -22l-173 -128q-17 -13 -31 -13q-9 0 -19 6l-47 26q-12 8 -12 17q0 8 11 18l154 138q16 15 30 15q7 0 23 -7l62 -31q18 -9 18 -19zM485 921q0 -9 -14 -21l-152 -133q-8 -7 -14.5 -10t-13.5 -3
q-8 0 -20 6l-48 25q-14 8 -14 18q0 8 9 17l135 138q8 8 14 11.5t12 3.5q9 0 23 -6l64 -26q19 -9 19 -20z" />
    <glyph glyph-name="OE" unicode="&#x152;" horiz-adv-x="1046" 
d="M559 -2q-23 -2 -35 -3q-66 -8 -115 -8q-109 0 -193.5 46t-131.5 128.5t-47 187.5t47.5 188t132.5 129.5t195 46.5q37 0 71 -3t41 -4q52 -6 74 -6h375q14 0 20.5 -6t6.5 -20v-108q0 -14 -6.5 -20t-20.5 -6h-257q-9 0 -12 -3.5t-3 -11.5v-80q0 -9 3 -12t12 -3h224
q14 0 20 -6.5t6 -20.5v-104q0 -13 -6 -19.5t-20 -6.5h-224q-9 0 -12 -3.5t-3 -11.5v-83q0 -8 3 -11.5t12 -3.5h258q14 0 20.5 -6t6.5 -20v-108q0 -14 -6.5 -20t-20.5 -6h-376q-16 0 -39 -2zM523.5 535.5q-3.5 4.5 -11.5 6.5q-39 11 -92 11q-61 0 -107 -25t-71 -71.5
t-25 -107.5t25 -106.5t71 -70.5t107 -25q54 0 92 11q8 2 11.5 6.5t3.5 14.5v342q0 10 -3.5 14.5z" />
    <glyph glyph-name="oe" unicode="&#x153;" horiz-adv-x="1046" 
d="M559 -2q-23 -2 -35 -3q-66 -8 -115 -8q-109 0 -193.5 46t-131.5 128.5t-47 187.5t47.5 188t132.5 129.5t195 46.5q37 0 71 -3t41 -4q52 -6 74 -6h375q14 0 20.5 -6t6.5 -20v-108q0 -14 -6.5 -20t-20.5 -6h-257q-9 0 -12 -3.5t-3 -11.5v-80q0 -9 3 -12t12 -3h224
q14 0 20 -6.5t6 -20.5v-104q0 -13 -6 -19.5t-20 -6.5h-224q-9 0 -12 -3.5t-3 -11.5v-83q0 -8 3 -11.5t12 -3.5h258q14 0 20.5 -6t6.5 -20v-108q0 -14 -6.5 -20t-20.5 -6h-376q-16 0 -39 -2zM523.5 535.5q-3.5 4.5 -11.5 6.5q-39 11 -92 11q-61 0 -107 -25t-71 -71.5
t-25 -107.5t25 -106.5t71 -70.5t107 -25q54 0 92 11q8 2 11.5 6.5t3.5 14.5v342q0 10 -3.5 14.5z" />
    <glyph glyph-name="Racute" unicode="&#x154;" horiz-adv-x="688" 
d="M242.5 6q-6.5 -6 -20.5 -6h-121q-13 0 -19.5 6.5t-6.5 19.5v648q0 14 6.5 20t19.5 6h229q157 0 234 -57.5t77 -177.5q0 -126 -118 -183l153 -250q7 -10 7 -18q0 -14 -25 -14h-130q-21 0 -31 5.5t-21 24.5l-160 278q-1 1 -3.5 6.5t-2.5 9.5q0 10 20 13q58 7 94.5 34.5
t36.5 76.5q0 51 -34 75.5t-101 24.5h-62q-9 0 -12 -3t-3 -12v-507q0 -14 -6.5 -20zM532 901q0 -11 -16 -20l-195 -118q-15 -9 -25 -9q-8 0 -19 8l-43 33q-11 9 -11 18q0 8 11 17l176 133q16 11 27 11q12 0 26 -11l56 -42q13 -10 13 -20z" />
    <glyph glyph-name="racute" unicode="&#x155;" horiz-adv-x="688" 
d="M242.5 6q-6.5 -6 -20.5 -6h-121q-13 0 -19.5 6.5t-6.5 19.5v648q0 14 6.5 20t19.5 6h229q157 0 234 -57.5t77 -177.5q0 -126 -118 -183l153 -250q7 -10 7 -18q0 -14 -25 -14h-130q-21 0 -31 5.5t-21 24.5l-160 278q-1 1 -3.5 6.5t-2.5 9.5q0 10 20 13q58 7 94.5 34.5
t36.5 76.5q0 51 -34 75.5t-101 24.5h-62q-9 0 -12 -3t-3 -12v-507q0 -14 -6.5 -20zM532 901q0 -11 -16 -20l-195 -118q-15 -9 -25 -9q-8 0 -19 8l-43 33q-11 9 -11 18q0 8 11 17l176 133q16 11 27 11q12 0 26 -11l56 -42q13 -10 13 -20z" />
    <glyph glyph-name="Rcommaaccent" unicode="&#x156;" horiz-adv-x="688" 
d="M242.5 6q-6.5 -6 -20.5 -6h-121q-13 0 -19.5 6.5t-6.5 19.5v648q0 14 6.5 20t19.5 6h229q157 0 234 -57.5t77 -177.5q0 -126 -118 -183l153 -250q7 -10 7 -18q0 -14 -25 -14h-130q-21 0 -31 5.5t-21 24.5l-160 278q-1 1 -3.5 6.5t-2.5 9.5q0 10 20 13q58 7 94.5 34.5
t36.5 76.5q0 51 -34 75.5t-101 24.5h-62q-9 0 -12 -3t-3 -12v-507q0 -14 -6.5 -20zM431 -57.5q26 -22.5 26 -62.5q0 -25 -9 -49t-30 -60l-21 -36q-8 -14 -15.5 -18.5t-25.5 -4.5h-52q-23 0 -23 14q0 7 5 15l41 66q-28 6 -46 25.5t-18 50.5q0 24 12.5 42.5t35.5 29t52 10.5
q42 0 68 -22.5z" />
    <glyph glyph-name="rcommaaccent" unicode="&#x157;" horiz-adv-x="688" 
d="M242.5 6q-6.5 -6 -20.5 -6h-121q-13 0 -19.5 6.5t-6.5 19.5v648q0 14 6.5 20t19.5 6h229q157 0 234 -57.5t77 -177.5q0 -126 -118 -183l153 -250q7 -10 7 -18q0 -14 -25 -14h-130q-21 0 -31 5.5t-21 24.5l-160 278q-1 1 -3.5 6.5t-2.5 9.5q0 10 20 13q58 7 94.5 34.5
t36.5 76.5q0 51 -34 75.5t-101 24.5h-62q-9 0 -12 -3t-3 -12v-507q0 -14 -6.5 -20zM431 -57.5q26 -22.5 26 -62.5q0 -25 -9 -49t-30 -60l-21 -36q-8 -14 -15.5 -18.5t-25.5 -4.5h-52q-23 0 -23 14q0 7 5 15l41 66q-28 6 -46 25.5t-18 50.5q0 24 12.5 42.5t35.5 29t52 10.5
q42 0 68 -22.5z" />
    <glyph glyph-name="Rcaron" unicode="&#x158;" horiz-adv-x="688" 
d="M242.5 6q-6.5 -6 -20.5 -6h-121q-13 0 -19.5 6.5t-6.5 19.5v648q0 14 6.5 20t19.5 6h229q157 0 234 -57.5t77 -177.5q0 -126 -118 -183l153 -250q7 -10 7 -18q0 -14 -25 -14h-130q-21 0 -31 5.5t-21 24.5l-160 278q-1 1 -3.5 6.5t-2.5 9.5q0 10 20 13q58 7 94.5 34.5
t36.5 76.5q0 51 -34 75.5t-101 24.5h-62q-9 0 -12 -3t-3 -12v-507q0 -14 -6.5 -20zM458 955q8 0 20 -6l56 -30q13 -7 13 -16q0 -8 -10 -17l-126 -115q-12 -11 -19.5 -14t-24.5 -3h-64q-17 0 -24.5 3t-19.5 14l-126 115q-10 9 -10 17q0 9 13 16l56 30q12 6 20 6q13 0 26 -13
l97 -92l97 92q13 13 26 13z" />
    <glyph glyph-name="rcaron" unicode="&#x159;" horiz-adv-x="688" 
d="M242.5 6q-6.5 -6 -20.5 -6h-121q-13 0 -19.5 6.5t-6.5 19.5v648q0 14 6.5 20t19.5 6h229q157 0 234 -57.5t77 -177.5q0 -126 -118 -183l153 -250q7 -10 7 -18q0 -14 -25 -14h-130q-21 0 -31 5.5t-21 24.5l-160 278q-1 1 -3.5 6.5t-2.5 9.5q0 10 20 13q58 7 94.5 34.5
t36.5 76.5q0 51 -34 75.5t-101 24.5h-62q-9 0 -12 -3t-3 -12v-507q0 -14 -6.5 -20zM458 955q8 0 20 -6l56 -30q13 -7 13 -16q0 -8 -10 -17l-126 -115q-12 -11 -19.5 -14t-24.5 -3h-64q-17 0 -24.5 3t-19.5 14l-126 115q-10 9 -10 17q0 9 13 16l56 30q12 6 20 6q13 0 26 -13
l97 -92l97 92q13 13 26 13z" />
    <glyph glyph-name="Sacute" unicode="&#x15a;" horiz-adv-x="600" 
d="M551 627q12 -9 12 -20q0 -10 -7 -20l-54 -86q-9 -14 -19 -14q-8 0 -19 8q-39 29 -78 44.5t-81 15.5q-40 0 -63 -15.5t-23 -40.5q0 -19 12 -30.5t36 -20.5t70 -20q78 -19 128 -46.5t75 -68.5t25 -100q0 -70 -34.5 -121t-98 -78t-146.5 -27q-76 0 -140 22.5t-115 62.5
q-15 12 -15 23q0 10 8 22l52 83q9 15 20 15q7 0 19 -9q36 -28 81 -44.5t90 -16.5q48 0 73.5 15.5t25.5 41.5q0 18 -12 30t-38 21.5t-76 21.5q-74 18 -122 44t-73 67.5t-25 102.5q0 70 34 120.5t94.5 77t138.5 26.5q138 0 245 -86zM499 901q0 -11 -16 -20l-195 -118
q-15 -9 -25 -9q-8 0 -19 8l-43 33q-11 9 -11 18q0 8 11 17l176 133q16 11 27 11q12 0 26 -11l56 -42q13 -10 13 -20z" />
    <glyph glyph-name="sacute" unicode="&#x15b;" horiz-adv-x="600" 
d="M551 627q12 -9 12 -20q0 -10 -7 -20l-54 -86q-9 -14 -19 -14q-8 0 -19 8q-39 29 -78 44.5t-81 15.5q-40 0 -63 -15.5t-23 -40.5q0 -19 12 -30.5t36 -20.5t70 -20q78 -19 128 -46.5t75 -68.5t25 -100q0 -70 -34.5 -121t-98 -78t-146.5 -27q-76 0 -140 22.5t-115 62.5
q-15 12 -15 23q0 10 8 22l52 83q9 15 20 15q7 0 19 -9q36 -28 81 -44.5t90 -16.5q48 0 73.5 15.5t25.5 41.5q0 18 -12 30t-38 21.5t-76 21.5q-74 18 -122 44t-73 67.5t-25 102.5q0 70 34 120.5t94.5 77t138.5 26.5q138 0 245 -86zM499 901q0 -11 -16 -20l-195 -118
q-15 -9 -25 -9q-8 0 -19 8l-43 33q-11 9 -11 18q0 8 11 17l176 133q16 11 27 11q12 0 26 -11l56 -42q13 -10 13 -20z" />
    <glyph glyph-name="Scircumflex" unicode="&#x15c;" horiz-adv-x="600" 
d="M551 627q12 -9 12 -20q0 -10 -7 -20l-54 -86q-9 -14 -19 -14q-8 0 -19 8q-39 29 -78 44.5t-81 15.5q-40 0 -63 -15.5t-23 -40.5q0 -19 12 -30.5t36 -20.5t70 -20q78 -19 128 -46.5t75 -68.5t25 -100q0 -70 -34.5 -121t-98 -78t-146.5 -27q-76 0 -140 22.5t-115 62.5
q-15 12 -15 23q0 10 8 22l52 83q9 15 20 15q7 0 19 -9q36 -28 81 -44.5t90 -16.5q48 0 73.5 15.5t25.5 41.5q0 18 -12 30t-38 21.5t-76 21.5q-74 18 -122 44t-73 67.5t-25 102.5q0 70 34 120.5t94.5 77t138.5 26.5q138 0 245 -86zM179 754q-8 0 -20 6l-56 30q-13 7 -13 16
q0 8 10 17l126 115q12 11 19.5 14t24.5 3h64q17 0 24.5 -3t19.5 -14l126 -115q10 -9 10 -17q0 -9 -13 -16l-56 -30q-12 -6 -20 -6q-13 0 -26 13l-97 92l-97 -92q-13 -13 -26 -13z" />
    <glyph glyph-name="scircumflex" unicode="&#x15d;" horiz-adv-x="600" 
d="M551 627q12 -9 12 -20q0 -10 -7 -20l-54 -86q-9 -14 -19 -14q-8 0 -19 8q-39 29 -78 44.5t-81 15.5q-40 0 -63 -15.5t-23 -40.5q0 -19 12 -30.5t36 -20.5t70 -20q78 -19 128 -46.5t75 -68.5t25 -100q0 -70 -34.5 -121t-98 -78t-146.5 -27q-76 0 -140 22.5t-115 62.5
q-15 12 -15 23q0 10 8 22l52 83q9 15 20 15q7 0 19 -9q36 -28 81 -44.5t90 -16.5q48 0 73.5 15.5t25.5 41.5q0 18 -12 30t-38 21.5t-76 21.5q-74 18 -122 44t-73 67.5t-25 102.5q0 70 34 120.5t94.5 77t138.5 26.5q138 0 245 -86zM179 754q-8 0 -20 6l-56 30q-13 7 -13 16
q0 8 10 17l126 115q12 11 19.5 14t24.5 3h64q17 0 24.5 -3t19.5 -14l126 -115q10 -9 10 -17q0 -9 -13 -16l-56 -30q-12 -6 -20 -6q-13 0 -26 13l-97 92l-97 -92q-13 -13 -26 -13z" />
    <glyph glyph-name="Scedilla" unicode="&#x15e;" horiz-adv-x="600" 
d="M189.5 -153.5q2.5 2.5 6.5 2.5t10 -3q30 -14 67 -14q28 0 43.5 8.5t15.5 23.5t-15 23t-42 8q-23 0 -46 -5q-2 -1 -6 -1q-8 0 -8 7q0 5 2 8l42 83q-66 4 -124 26t-104 59q-15 12 -15 23q0 10 8 22l52 83q9 15 20 15q7 0 19 -9q36 -28 81 -44.5t90 -16.5q48 0 73.5 15.5
t25.5 41.5q0 18 -12 30t-38 21.5t-76 21.5q-74 18 -122 44t-73 67.5t-25 102.5q0 70 34 120.5t94.5 77t138.5 26.5q138 0 245 -86q12 -9 12 -20q0 -10 -7 -20l-54 -86q-9 -14 -19 -14q-8 0 -19 8q-39 29 -78 44.5t-81 15.5q-40 0 -63 -15.5t-23 -40.5q0 -19 12 -30.5
t36 -20.5t70 -20q78 -19 128 -46.5t75 -68.5t25 -100q0 -61 -26.5 -108t-76.5 -76t-118 -38l-20 -39h3q47 0 75 -23t28 -63q0 -33 -20 -58.5t-55.5 -39.5t-80.5 -14q-28 0 -54 6.5t-47 16.5q-11 5 -11 13q0 4 3 10l20 39q2 5 4.5 7.5z" />
    <glyph glyph-name="scedilla" unicode="&#x15f;" horiz-adv-x="600" 
d="M189.5 -153.5q2.5 2.5 6.5 2.5t10 -3q30 -14 67 -14q28 0 43.5 8.5t15.5 23.5t-15 23t-42 8q-23 0 -46 -5q-2 -1 -6 -1q-8 0 -8 7q0 5 2 8l42 83q-66 4 -124 26t-104 59q-15 12 -15 23q0 10 8 22l52 83q9 15 20 15q7 0 19 -9q36 -28 81 -44.5t90 -16.5q48 0 73.5 15.5
t25.5 41.5q0 18 -12 30t-38 21.5t-76 21.5q-74 18 -122 44t-73 67.5t-25 102.5q0 70 34 120.5t94.5 77t138.5 26.5q138 0 245 -86q12 -9 12 -20q0 -10 -7 -20l-54 -86q-9 -14 -19 -14q-8 0 -19 8q-39 29 -78 44.5t-81 15.5q-40 0 -63 -15.5t-23 -40.5q0 -19 12 -30.5
t36 -20.5t70 -20q78 -19 128 -46.5t75 -68.5t25 -100q0 -61 -26.5 -108t-76.5 -76t-118 -38l-20 -39h3q47 0 75 -23t28 -63q0 -33 -20 -58.5t-55.5 -39.5t-80.5 -14q-28 0 -54 6.5t-47 16.5q-11 5 -11 13q0 4 3 10l20 39q2 5 4.5 7.5z" />
    <glyph glyph-name="Scaron" unicode="&#x160;" horiz-adv-x="600" 
d="M551 627q12 -9 12 -20q0 -10 -7 -20l-54 -86q-9 -14 -19 -14q-8 0 -19 8q-39 29 -78 44.5t-81 15.5q-40 0 -63 -15.5t-23 -40.5q0 -19 12 -30.5t36 -20.5t70 -20q78 -19 128 -46.5t75 -68.5t25 -100q0 -70 -34.5 -121t-98 -78t-146.5 -27q-76 0 -140 22.5t-115 62.5
q-15 12 -15 23q0 10 8 22l52 83q9 15 20 15q7 0 19 -9q36 -28 81 -44.5t90 -16.5q48 0 73.5 15.5t25.5 41.5q0 18 -12 30t-38 21.5t-76 21.5q-74 18 -122 44t-73 67.5t-25 102.5q0 70 34 120.5t94.5 77t138.5 26.5q138 0 245 -86zM425 955q8 0 20 -6l56 -30q13 -7 13 -16
q0 -8 -10 -17l-126 -115q-12 -11 -19.5 -14t-24.5 -3h-64q-17 0 -24.5 3t-19.5 14l-126 115q-10 9 -10 17q0 9 13 16l56 30q12 6 20 6q13 0 26 -13l97 -92l97 92q13 13 26 13z" />
    <glyph glyph-name="scaron" unicode="&#x161;" horiz-adv-x="600" 
d="M551 627q12 -9 12 -20q0 -10 -7 -20l-54 -86q-9 -14 -19 -14q-8 0 -19 8q-39 29 -78 44.5t-81 15.5q-40 0 -63 -15.5t-23 -40.5q0 -19 12 -30.5t36 -20.5t70 -20q78 -19 128 -46.5t75 -68.5t25 -100q0 -70 -34.5 -121t-98 -78t-146.5 -27q-76 0 -140 22.5t-115 62.5
q-15 12 -15 23q0 10 8 22l52 83q9 15 20 15q7 0 19 -9q36 -28 81 -44.5t90 -16.5q48 0 73.5 15.5t25.5 41.5q0 18 -12 30t-38 21.5t-76 21.5q-74 18 -122 44t-73 67.5t-25 102.5q0 70 34 120.5t94.5 77t138.5 26.5q138 0 245 -86zM425 955q8 0 20 -6l56 -30q13 -7 13 -16
q0 -8 -10 -17l-126 -115q-12 -11 -19.5 -14t-24.5 -3h-64q-17 0 -24.5 3t-19.5 14l-126 115q-10 9 -10 17q0 9 13 16l56 30q12 6 20 6q13 0 26 -13l97 -92l97 92q13 13 26 13z" />
    <glyph glyph-name="Tcommaaccent" unicode="&#x162;" horiz-adv-x="602" 
d="M581 546.5q-6 -6.5 -20 -6.5h-158q-8 0 -11.5 -3.5t-3.5 -11.5v-499q0 -13 -6 -19.5t-20 -6.5h-122q-13 0 -19.5 6.5t-6.5 19.5v499q0 8 -3.5 11.5t-11.5 3.5h-158q-13 0 -19.5 6.5t-6.5 19.5v108q0 14 6.5 20t19.5 6h520q14 0 20 -6t6 -20v-108q0 -13 -6 -19.5z
M371 -57.5q26 -22.5 26 -62.5q0 -25 -9 -49t-30 -60l-21 -36q-8 -14 -15.5 -18.5t-25.5 -4.5h-52q-23 0 -23 14q0 7 5 15l41 66q-28 6 -46 25.5t-18 50.5q0 24 12.5 42.5t35.5 29t52 10.5q42 0 68 -22.5z" />
    <glyph glyph-name="tcommaaccent" unicode="&#x163;" horiz-adv-x="602" 
d="M581 546.5q-6 -6.5 -20 -6.5h-158q-8 0 -11.5 -3.5t-3.5 -11.5v-499q0 -13 -6 -19.5t-20 -6.5h-122q-13 0 -19.5 6.5t-6.5 19.5v499q0 8 -3.5 11.5t-11.5 3.5h-158q-13 0 -19.5 6.5t-6.5 19.5v108q0 14 6.5 20t19.5 6h520q14 0 20 -6t6 -20v-108q0 -13 -6 -19.5z
M371 -57.5q26 -22.5 26 -62.5q0 -25 -9 -49t-30 -60l-21 -36q-8 -14 -15.5 -18.5t-25.5 -4.5h-52q-23 0 -23 14q0 7 5 15l41 66q-28 6 -46 25.5t-18 50.5q0 24 12.5 42.5t35.5 29t52 10.5q42 0 68 -22.5z" />
    <glyph glyph-name="Tcaron" unicode="&#x164;" horiz-adv-x="602" 
d="M581 546.5q-6 -6.5 -20 -6.5h-158q-8 0 -11.5 -3.5t-3.5 -11.5v-499q0 -13 -6 -19.5t-20 -6.5h-122q-13 0 -19.5 6.5t-6.5 19.5v499q0 8 -3.5 11.5t-11.5 3.5h-158q-13 0 -19.5 6.5t-6.5 19.5v108q0 14 6.5 20t19.5 6h520q14 0 20 -6t6 -20v-108q0 -13 -6 -19.5zM424 955
q8 0 20 -6l56 -30q13 -7 13 -16q0 -8 -10 -17l-126 -115q-12 -11 -19.5 -14t-24.5 -3h-64q-17 0 -24.5 3t-19.5 14l-126 115q-10 9 -10 17q0 9 13 16l56 30q12 6 20 6q13 0 26 -13l97 -92l97 92q13 13 26 13z" />
    <glyph glyph-name="tcaron" unicode="&#x165;" horiz-adv-x="602" 
d="M581 546.5q-6 -6.5 -20 -6.5h-158q-8 0 -11.5 -3.5t-3.5 -11.5v-499q0 -13 -6 -19.5t-20 -6.5h-122q-13 0 -19.5 6.5t-6.5 19.5v499q0 8 -3.5 11.5t-11.5 3.5h-158q-13 0 -19.5 6.5t-6.5 19.5v108q0 14 6.5 20t19.5 6h520q14 0 20 -6t6 -20v-108q0 -13 -6 -19.5zM424 955
q8 0 20 -6l56 -30q13 -7 13 -16q0 -8 -10 -17l-126 -115q-12 -11 -19.5 -14t-24.5 -3h-64q-17 0 -24.5 3t-19.5 14l-126 115q-10 9 -10 17q0 9 13 16l56 30q12 6 20 6q13 0 26 -13l97 -92l97 92q13 13 26 13z" />
    <glyph glyph-name="Tbar" unicode="&#x166;" horiz-adv-x="602" 
d="M211 231.5q-3 3.5 -11 3.5h-88q-14 0 -20.5 6t-6.5 20v78q0 14 6.5 20t20.5 6h88q8 0 11 2t3 10v148q0 8 -3.5 11.5t-11.5 3.5h-158q-13 0 -19.5 6.5t-6.5 19.5v108q0 14 6.5 20t19.5 6h520q14 0 20 -6t6 -20v-108q0 -13 -6 -19.5t-20 -6.5h-158q-8 0 -11.5 -3.5
t-3.5 -11.5v-148q0 -8 3 -10t11 -2h88q14 0 20.5 -6t6.5 -20v-78q0 -14 -6.5 -20t-20.5 -6h-88q-8 0 -11 -3.5t-3 -11.5v-194q0 -13 -6 -19.5t-20 -6.5h-122q-13 0 -19.5 6.5t-6.5 19.5v194q0 8 -3 11.5z" />
    <glyph glyph-name="tbar" unicode="&#x167;" horiz-adv-x="602" 
d="M211 231.5q-3 3.5 -11 3.5h-88q-14 0 -20.5 6t-6.5 20v78q0 14 6.5 20t20.5 6h88q8 0 11 2t3 10v148q0 8 -3.5 11.5t-11.5 3.5h-158q-13 0 -19.5 6.5t-6.5 19.5v108q0 14 6.5 20t19.5 6h520q14 0 20 -6t6 -20v-108q0 -13 -6 -19.5t-20 -6.5h-158q-8 0 -11.5 -3.5
t-3.5 -11.5v-148q0 -8 3 -10t11 -2h88q14 0 20.5 -6t6.5 -20v-78q0 -14 -6.5 -20t-20.5 -6h-88q-8 0 -11 -3.5t-3 -11.5v-194q0 -13 -6 -19.5t-20 -6.5h-122q-13 0 -19.5 6.5t-6.5 19.5v194q0 8 -3 11.5z" />
    <glyph glyph-name="Utilde" unicode="&#x168;" horiz-adv-x="773" 
d="M662.5 128.5q-40.5 -70.5 -113.5 -106t-169 -35.5q-93 0 -162.5 34t-108.5 104t-39 175v374q0 14 6.5 20t19.5 6h121q14 0 20.5 -6t6.5 -20v-360q0 -81 36 -124t106 -43q69 0 106 43t37 124v360q0 14 6.5 20t19.5 6h121q14 0 20.5 -6t6.5 -20v-372q0 -103 -40.5 -173.5z
M417.5 769q-20.5 6 -48.5 17q-20 9 -33.5 13t-26.5 4q-19 0 -34 -8t-31 -24q-7 -7 -15 -7q-7 0 -14 8l-35 51q-6 8 -6 14q0 7 9 16q22 26 54.5 42.5t71.5 16.5q25 0 45.5 -6t48.5 -17q15 -6 31 -11t29 -5q19 0 34.5 8t30.5 23q8 8 15 8t14 -9l35 -51q6 -7 6 -13t-9 -17
q-22 -26 -54.5 -42.5t-71.5 -16.5q-25 0 -45.5 6z" />
    <glyph glyph-name="utilde" unicode="&#x169;" horiz-adv-x="773" 
d="M662.5 128.5q-40.5 -70.5 -113.5 -106t-169 -35.5q-93 0 -162.5 34t-108.5 104t-39 175v374q0 14 6.5 20t19.5 6h121q14 0 20.5 -6t6.5 -20v-360q0 -81 36 -124t106 -43q69 0 106 43t37 124v360q0 14 6.5 20t19.5 6h121q14 0 20.5 -6t6.5 -20v-372q0 -103 -40.5 -173.5z
M417.5 769q-20.5 6 -48.5 17q-20 9 -33.5 13t-26.5 4q-19 0 -34 -8t-31 -24q-7 -7 -15 -7q-7 0 -14 8l-35 51q-6 8 -6 14q0 7 9 16q22 26 54.5 42.5t71.5 16.5q25 0 45.5 -6t48.5 -17q15 -6 31 -11t29 -5q19 0 34.5 8t30.5 23q8 8 15 8t14 -9l35 -51q6 -7 6 -13t-9 -17
q-22 -26 -54.5 -42.5t-71.5 -16.5q-25 0 -45.5 6z" />
    <glyph glyph-name="Umacron" unicode="&#x16a;" horiz-adv-x="773" 
d="M662.5 128.5q-40.5 -70.5 -113.5 -106t-169 -35.5q-93 0 -162.5 34t-108.5 104t-39 175v374q0 14 6.5 20t19.5 6h121q14 0 20.5 -6t6.5 -20v-360q0 -81 36 -124t106 -43q69 0 106 43t37 124v360q0 14 6.5 20t19.5 6h121q14 0 20.5 -6t6.5 -20v-372q0 -103 -40.5 -173.5z
M229.5 784q-6.5 6 -6.5 19v66q0 14 6.5 20t20.5 6h272q14 0 20.5 -6t6.5 -20v-66q0 -13 -6.5 -19t-20.5 -6h-272q-14 0 -20.5 6z" />
    <glyph glyph-name="umacron" unicode="&#x16b;" horiz-adv-x="773" 
d="M662.5 128.5q-40.5 -70.5 -113.5 -106t-169 -35.5q-93 0 -162.5 34t-108.5 104t-39 175v374q0 14 6.5 20t19.5 6h121q14 0 20.5 -6t6.5 -20v-360q0 -81 36 -124t106 -43q69 0 106 43t37 124v360q0 14 6.5 20t19.5 6h121q14 0 20.5 -6t6.5 -20v-372q0 -103 -40.5 -173.5z
M229.5 784q-6.5 6 -6.5 19v66q0 14 6.5 20t20.5 6h272q14 0 20.5 -6t6.5 -20v-66q0 -13 -6.5 -19t-20.5 -6h-272q-14 0 -20.5 6z" />
    <glyph glyph-name="Ubreve" unicode="&#x16c;" horiz-adv-x="773" 
d="M662.5 128.5q-40.5 -70.5 -113.5 -106t-169 -35.5q-93 0 -162.5 34t-108.5 104t-39 175v374q0 14 6.5 20t19.5 6h121q14 0 20.5 -6t6.5 -20v-360q0 -81 36 -124t106 -43q69 0 106 43t37 124v360q0 14 6.5 20t19.5 6h121q14 0 20.5 -6t6.5 -20v-372q0 -103 -40.5 -173.5z
M277.5 776.5q-42.5 22.5 -62 60.5t-19.5 84q0 12 4.5 17t17.5 5h67q12 0 17.5 -4t7.5 -15q6 -28 25 -44t51 -16t51 16.5t25 43.5q2 11 7.5 15t17.5 4h67q13 0 17.5 -5t4.5 -17q0 -46 -20 -83.5t-62.5 -60.5t-108.5 -23q-65 0 -107.5 22.5z" />
    <glyph glyph-name="ubreve" unicode="&#x16d;" horiz-adv-x="773" 
d="M662.5 128.5q-40.5 -70.5 -113.5 -106t-169 -35.5q-93 0 -162.5 34t-108.5 104t-39 175v374q0 14 6.5 20t19.5 6h121q14 0 20.5 -6t6.5 -20v-360q0 -81 36 -124t106 -43q69 0 106 43t37 124v360q0 14 6.5 20t19.5 6h121q14 0 20.5 -6t6.5 -20v-372q0 -103 -40.5 -173.5z
M277.5 776.5q-42.5 22.5 -62 60.5t-19.5 84q0 12 4.5 17t17.5 5h67q12 0 17.5 -4t7.5 -15q6 -28 25 -44t51 -16t51 16.5t25 43.5q2 11 7.5 15t17.5 4h67q13 0 17.5 -5t4.5 -17q0 -46 -20 -83.5t-62.5 -60.5t-108.5 -23q-65 0 -107.5 22.5z" />
    <glyph glyph-name="Uring" unicode="&#x16e;" horiz-adv-x="773" 
d="M662.5 128.5q-40.5 -70.5 -113.5 -106t-169 -35.5q-93 0 -162.5 34t-108.5 104t-39 175v374q0 14 6.5 20t19.5 6h121q14 0 20.5 -6t6.5 -20v-360q0 -81 36 -124t106 -43q69 0 106 43t37 124v360q0 14 6.5 20t19.5 6h121q14 0 20.5 -6t6.5 -20v-372q0 -103 -40.5 -173.5z
M244 963.5q22 37.5 59.5 59.5t82.5 22t82.5 -22t59.5 -59.5t22 -82.5t-22 -82.5t-59.5 -59.5t-82.5 -22t-82.5 22t-59.5 59.5t-22 82.5t22 82.5zM348.5 843.5q15.5 -15.5 37.5 -15.5q23 0 38 15.5t15 37.5q0 23 -15 38t-38 15q-22 0 -37.5 -15t-15.5 -38q0 -22 15.5 -37.5z
" />
    <glyph glyph-name="uring" unicode="&#x16f;" horiz-adv-x="773" 
d="M662.5 128.5q-40.5 -70.5 -113.5 -106t-169 -35.5q-93 0 -162.5 34t-108.5 104t-39 175v374q0 14 6.5 20t19.5 6h121q14 0 20.5 -6t6.5 -20v-360q0 -81 36 -124t106 -43q69 0 106 43t37 124v360q0 14 6.5 20t19.5 6h121q14 0 20.5 -6t6.5 -20v-372q0 -103 -40.5 -173.5z
M244 963.5q22 37.5 59.5 59.5t82.5 22t82.5 -22t59.5 -59.5t22 -82.5t-22 -82.5t-59.5 -59.5t-82.5 -22t-82.5 22t-59.5 59.5t-22 82.5t22 82.5zM348.5 843.5q15.5 -15.5 37.5 -15.5q23 0 38 15.5t15 37.5q0 23 -15 38t-38 15q-22 0 -37.5 -15t-15.5 -38q0 -22 15.5 -37.5z
" />
    <glyph glyph-name="Uhungarumlaut" unicode="&#x170;" horiz-adv-x="773" 
d="M662.5 128.5q-40.5 -70.5 -113.5 -106t-169 -35.5q-93 0 -162.5 34t-108.5 104t-39 175v374q0 14 6.5 20t19.5 6h121q14 0 20.5 -6t6.5 -20v-360q0 -81 36 -124t106 -43q69 0 106 43t37 124v360q0 14 6.5 20t19.5 6h121q14 0 20.5 -6t6.5 -20v-372q0 -103 -40.5 -173.5z
M708 917q0 -9 -16 -22l-173 -128q-17 -13 -31 -13q-9 0 -19 6l-47 26q-12 8 -12 17q0 8 11 18l154 138q16 15 30 15q7 0 23 -7l62 -31q18 -9 18 -19zM460 921q0 -9 -14 -21l-152 -133q-8 -7 -14.5 -10t-13.5 -3q-8 0 -20 6l-48 25q-14 8 -14 18q0 8 9 17l135 138
q8 8 14 11.5t12 3.5q9 0 23 -6l64 -26q19 -9 19 -20z" />
    <glyph glyph-name="uhungarumlaut" unicode="&#x171;" horiz-adv-x="773" 
d="M662.5 128.5q-40.5 -70.5 -113.5 -106t-169 -35.5q-93 0 -162.5 34t-108.5 104t-39 175v374q0 14 6.5 20t19.5 6h121q14 0 20.5 -6t6.5 -20v-360q0 -81 36 -124t106 -43q69 0 106 43t37 124v360q0 14 6.5 20t19.5 6h121q14 0 20.5 -6t6.5 -20v-372q0 -103 -40.5 -173.5z
M708 917q0 -9 -16 -22l-173 -128q-17 -13 -31 -13q-9 0 -19 6l-47 26q-12 8 -12 17q0 8 11 18l154 138q16 15 30 15q7 0 23 -7l62 -31q18 -9 18 -19zM460 921q0 -9 -14 -21l-152 -133q-8 -7 -14.5 -10t-13.5 -3q-8 0 -20 6l-48 25q-14 8 -14 18q0 8 9 17l135 138
q8 8 14 11.5t12 3.5q9 0 23 -6l64 -26q19 -9 19 -20z" />
    <glyph glyph-name="Uogonek" unicode="&#x172;" horiz-adv-x="773" 
d="M523 -182q0 -10 -12 -17q-47 -31 -108 -31q-43 0 -76 16t-51.5 44t-18.5 64q0 56 47 100q-109 19 -171.5 96t-62.5 210v374q0 14 6.5 20t19.5 6h121q14 0 20.5 -6t6.5 -20v-360q0 -81 36 -124t106 -43q69 0 106 43t37 124v360q0 14 6.5 20t19.5 6h121q14 0 20.5 -6
t6.5 -20v-372q0 -99 -37.5 -168t-105.5 -105.5t-158 -40.5q-22 -15 -33.5 -34t-11.5 -40q0 -24 16.5 -38.5t41.5 -14.5q32 0 59 15q8 5 12 5q8 0 12 -10l22 -42q3 -6 3 -11z" />
    <glyph glyph-name="uogonek" unicode="&#x173;" horiz-adv-x="773" 
d="M523 -182q0 -10 -12 -17q-47 -31 -108 -31q-43 0 -76 16t-51.5 44t-18.5 64q0 56 47 100q-109 19 -171.5 96t-62.5 210v374q0 14 6.5 20t19.5 6h121q14 0 20.5 -6t6.5 -20v-360q0 -81 36 -124t106 -43q69 0 106 43t37 124v360q0 14 6.5 20t19.5 6h121q14 0 20.5 -6
t6.5 -20v-372q0 -99 -37.5 -168t-105.5 -105.5t-158 -40.5q-22 -15 -33.5 -34t-11.5 -40q0 -24 16.5 -38.5t41.5 -14.5q32 0 59 15q8 5 12 5q8 0 12 -10l22 -42q3 -6 3 -11z" />
    <glyph glyph-name="Wcircumflex" unicode="&#x174;" horiz-adv-x="967" 
d="M318.5 -6q-7.5 -10 -18.5 -10t-19 10.5t-21 41.5l-256 632q-4 8 -4 16q0 16 24 16h126q19 0 27 -6t15 -25l120 -312l134 299q12 26 20 35t19 9t18.5 -9t19.5 -35l133 -296l119 309q7 19 15.5 25t27.5 6h125q24 0 24 -16q0 -8 -4 -16l-255 -632q-13 -31 -21 -41.5
t-19 -10.5q-10 0 -17.5 9.5t-21.5 39.5l-145 323l-145 -323q-13 -29 -20.5 -39zM360 754q-8 0 -20 6l-56 30q-13 7 -13 16q0 8 10 17l126 115q12 11 19.5 14t24.5 3h64q17 0 24.5 -3t19.5 -14l126 -115q10 -9 10 -17q0 -9 -13 -16l-56 -30q-12 -6 -20 -6q-13 0 -26 13
l-97 92l-97 -92q-13 -13 -26 -13z" />
    <glyph glyph-name="wcircumflex" unicode="&#x175;" horiz-adv-x="967" 
d="M318.5 -6q-7.5 -10 -18.5 -10t-19 10.5t-21 41.5l-256 632q-4 8 -4 16q0 16 24 16h126q19 0 27 -6t15 -25l120 -312l134 299q12 26 20 35t19 9t18.5 -9t19.5 -35l133 -296l119 309q7 19 15.5 25t27.5 6h125q24 0 24 -16q0 -8 -4 -16l-255 -632q-13 -31 -21 -41.5
t-19 -10.5q-10 0 -17.5 9.5t-21.5 39.5l-145 323l-145 -323q-13 -29 -20.5 -39zM360 754q-8 0 -20 6l-56 30q-13 7 -13 16q0 8 10 17l126 115q12 11 19.5 14t24.5 3h64q17 0 24.5 -3t19.5 -14l126 -115q10 -9 10 -17q0 -9 -13 -16l-56 -30q-12 -6 -20 -6q-13 0 -26 13
l-97 92l-97 -92q-13 -13 -26 -13z" />
    <glyph glyph-name="Ycircumflex" unicode="&#x176;" horiz-adv-x="673" 
d="M477 672q10 18 19 23t28 5h133q21 0 21 -13q0 -7 -6 -16l-247 -412v-233q0 -13 -6 -19.5t-20 -6.5h-122q-13 0 -19.5 6.5t-6.5 19.5v228l-250 417q-6 9 -6 16q0 13 21 13h138q19 0 28 -5t19 -23l138 -244zM215 754q-8 0 -20 6l-56 30q-13 7 -13 16q0 8 10 17l126 115
q12 11 19.5 14t24.5 3h64q17 0 24.5 -3t19.5 -14l126 -115q10 -9 10 -17q0 -9 -13 -16l-56 -30q-12 -6 -20 -6q-13 0 -26 13l-97 92l-97 -92q-13 -13 -26 -13z" />
    <glyph glyph-name="ycircumflex" unicode="&#x177;" horiz-adv-x="673" 
d="M477 672q10 18 19 23t28 5h133q21 0 21 -13q0 -7 -6 -16l-247 -412v-233q0 -13 -6 -19.5t-20 -6.5h-122q-13 0 -19.5 6.5t-6.5 19.5v228l-250 417q-6 9 -6 16q0 13 21 13h138q19 0 28 -5t19 -23l138 -244zM215 754q-8 0 -20 6l-56 30q-13 7 -13 16q0 8 10 17l126 115
q12 11 19.5 14t24.5 3h64q17 0 24.5 -3t19.5 -14l126 -115q10 -9 10 -17q0 -9 -13 -16l-56 -30q-12 -6 -20 -6q-13 0 -26 13l-97 92l-97 -92q-13 -13 -26 -13z" />
    <glyph glyph-name="Ydieresis" unicode="&#x178;" horiz-adv-x="673" 
d="M477 672q10 18 19 23t28 5h133q21 0 21 -13q0 -7 -6 -16l-247 -412v-233q0 -13 -6 -19.5t-20 -6.5h-122q-13 0 -19.5 6.5t-6.5 19.5v228l-250 417q-6 9 -6 16q0 13 21 13h138q19 0 28 -5t19 -23l138 -244zM176 883q21 21 55 21t55.5 -21t21.5 -54q0 -32 -21.5 -53
t-55.5 -21t-55 21t-21 53q0 33 21 54zM389 883q21 21 55 21t55.5 -21t21.5 -54q0 -32 -21.5 -53t-55.5 -21t-55 21t-21 53q0 33 21 54z" />
    <glyph glyph-name="Zacute" unicode="&#x179;" horiz-adv-x="636" 
d="M588.5 6q-6.5 -6 -20.5 -6h-520q-28 0 -28 16q0 9 7 20l294 504h-257q-14 1 -20 7t-6 19v108q0 14 6.5 20t19.5 6h510q26 0 26 -16q0 -9 -7 -20l-293 -504h268q14 0 20.5 -6t6.5 -20v-108q0 -14 -6.5 -20zM507 901q0 -11 -16 -20l-195 -118q-15 -9 -25 -9q-8 0 -19 8
l-43 33q-11 9 -11 18q0 8 11 17l176 133q16 11 27 11q12 0 26 -11l56 -42q13 -10 13 -20z" />
    <glyph glyph-name="zacute" unicode="&#x17a;" horiz-adv-x="636" 
d="M588.5 6q-6.5 -6 -20.5 -6h-520q-28 0 -28 16q0 9 7 20l294 504h-257q-14 1 -20 7t-6 19v108q0 14 6.5 20t19.5 6h510q26 0 26 -16q0 -9 -7 -20l-293 -504h268q14 0 20.5 -6t6.5 -20v-108q0 -14 -6.5 -20zM507 901q0 -11 -16 -20l-195 -118q-15 -9 -25 -9q-8 0 -19 8
l-43 33q-11 9 -11 18q0 8 11 17l176 133q16 11 27 11q12 0 26 -11l56 -42q13 -10 13 -20z" />
    <glyph glyph-name="Zdotaccent" unicode="&#x17b;" horiz-adv-x="636" 
d="M588.5 6q-6.5 -6 -20.5 -6h-520q-28 0 -28 16q0 9 7 20l294 504h-257q-14 1 -20 7t-6 19v108q0 14 6.5 20t19.5 6h510q26 0 26 -16q0 -9 -7 -20l-293 -504h268q14 0 20.5 -6t6.5 -20v-108q0 -14 -6.5 -20zM235 874.5q11 18.5 30.5 29t44.5 10.5t44.5 -10.5t30.5 -29
t11 -41.5t-11 -41t-30.5 -28t-44.5 -10t-44.5 10t-30.5 28t-11 41t11 41.5z" />
    <glyph glyph-name="zdotaccent" unicode="&#x17c;" horiz-adv-x="636" 
d="M588.5 6q-6.5 -6 -20.5 -6h-520q-28 0 -28 16q0 9 7 20l294 504h-257q-14 1 -20 7t-6 19v108q0 14 6.5 20t19.5 6h510q26 0 26 -16q0 -9 -7 -20l-293 -504h268q14 0 20.5 -6t6.5 -20v-108q0 -14 -6.5 -20zM235 874.5q11 18.5 30.5 29t44.5 10.5t44.5 -10.5t30.5 -29
t11 -41.5t-11 -41t-30.5 -28t-44.5 -10t-44.5 10t-30.5 28t-11 41t11 41.5z" />
    <glyph glyph-name="Zcaron" unicode="&#x17d;" horiz-adv-x="636" 
d="M588.5 6q-6.5 -6 -20.5 -6h-520q-28 0 -28 16q0 9 7 20l294 504h-257q-14 1 -20 7t-6 19v108q0 14 6.5 20t19.5 6h510q26 0 26 -16q0 -9 -7 -20l-293 -504h268q14 0 20.5 -6t6.5 -20v-108q0 -14 -6.5 -20zM433 955q8 0 20 -6l56 -30q13 -7 13 -16q0 -8 -10 -17l-126 -115
q-12 -11 -19.5 -14t-24.5 -3h-64q-17 0 -24.5 3t-19.5 14l-126 115q-10 9 -10 17q0 9 13 16l56 30q12 6 20 6q13 0 26 -13l97 -92l97 92q13 13 26 13z" />
    <glyph glyph-name="zcaron" unicode="&#x17e;" horiz-adv-x="636" 
d="M588.5 6q-6.5 -6 -20.5 -6h-520q-28 0 -28 16q0 9 7 20l294 504h-257q-14 1 -20 7t-6 19v108q0 14 6.5 20t19.5 6h510q26 0 26 -16q0 -9 -7 -20l-293 -504h268q14 0 20.5 -6t6.5 -20v-108q0 -14 -6.5 -20zM433 955q8 0 20 -6l56 -30q13 -7 13 -16q0 -8 -10 -17l-126 -115
q-12 -11 -19.5 -14t-24.5 -3h-64q-17 0 -24.5 3t-19.5 14l-126 115q-10 9 -10 17q0 9 13 16l56 30q12 6 20 6q13 0 26 -13l97 -92l97 92q13 13 26 13z" />
    <glyph glyph-name="florin" unicode="&#x192;" 
d="M295 35q-28 -100 -87 -147.5t-151 -47.5q-39 0 -74 10.5t-60 27.5q-8 5 -12 10t-4 11q0 5 5 15l39 69q10 16 20 16q5 0 12 -4q16 -8 31.5 -12t34.5 -4q37 0 60 22.5t36 69.5l54 189h-62q-14 0 -20 6.5t-6 20.5v84q0 14 6 20.5t20 6.5h101l34 120q29 100 87.5 147.5
t150.5 47.5q40 0 75 -10.5t60 -27.5q16 -10 16 -21q0 -7 -5 -15l-40 -69q-5 -8 -9 -11.5t-10 -3.5t-13 4q-29 16 -66 16t-60 -23t-36 -69l-25 -85h93q14 0 20.5 -6.5t6.5 -20.5v-84q0 -14 -6.5 -20.5t-20.5 -6.5h-131z" />
    <glyph glyph-name="Scommaaccent" unicode="&#x218;" horiz-adv-x="600" 
d="M551 627q12 -9 12 -20q0 -10 -7 -20l-54 -86q-9 -14 -19 -14q-8 0 -19 8q-39 29 -78 44.5t-81 15.5q-40 0 -63 -15.5t-23 -40.5q0 -19 12 -30.5t36 -20.5t70 -20q78 -19 128 -46.5t75 -68.5t25 -100q0 -70 -34.5 -121t-98 -78t-146.5 -27q-76 0 -140 22.5t-115 62.5
q-15 12 -15 23q0 10 8 22l52 83q9 15 20 15q7 0 19 -9q36 -28 81 -44.5t90 -16.5q48 0 73.5 15.5t25.5 41.5q0 18 -12 30t-38 21.5t-76 21.5q-74 18 -122 44t-73 67.5t-25 102.5q0 70 34 120.5t94.5 77t138.5 26.5q138 0 245 -86zM371 -57.5q26 -22.5 26 -62.5q0 -25 -9 -49
t-30 -60l-21 -36q-8 -14 -15.5 -18.5t-25.5 -4.5h-52q-23 0 -23 14q0 7 5 15l41 66q-28 6 -46 25.5t-18 50.5q0 24 12.5 42.5t35.5 29t52 10.5q42 0 68 -22.5z" />
    <glyph glyph-name="scommaaccent" unicode="&#x219;" horiz-adv-x="600" 
d="M551 627q12 -9 12 -20q0 -10 -7 -20l-54 -86q-9 -14 -19 -14q-8 0 -19 8q-39 29 -78 44.5t-81 15.5q-40 0 -63 -15.5t-23 -40.5q0 -19 12 -30.5t36 -20.5t70 -20q78 -19 128 -46.5t75 -68.5t25 -100q0 -70 -34.5 -121t-98 -78t-146.5 -27q-76 0 -140 22.5t-115 62.5
q-15 12 -15 23q0 10 8 22l52 83q9 15 20 15q7 0 19 -9q36 -28 81 -44.5t90 -16.5q48 0 73.5 15.5t25.5 41.5q0 18 -12 30t-38 21.5t-76 21.5q-74 18 -122 44t-73 67.5t-25 102.5q0 70 34 120.5t94.5 77t138.5 26.5q138 0 245 -86zM371 -57.5q26 -22.5 26 -62.5q0 -25 -9 -49
t-30 -60l-21 -36q-8 -14 -15.5 -18.5t-25.5 -4.5h-52q-23 0 -23 14q0 7 5 15l41 66q-28 6 -46 25.5t-18 50.5q0 24 12.5 42.5t35.5 29t52 10.5q42 0 68 -22.5z" />
    <glyph glyph-name="uni021A" unicode="&#x21a;" horiz-adv-x="602" 
d="M581 546.5q-6 -6.5 -20 -6.5h-158q-8 0 -11.5 -3.5t-3.5 -11.5v-499q0 -13 -6 -19.5t-20 -6.5h-122q-13 0 -19.5 6.5t-6.5 19.5v499q0 8 -3.5 11.5t-11.5 3.5h-158q-13 0 -19.5 6.5t-6.5 19.5v108q0 14 6.5 20t19.5 6h520q14 0 20 -6t6 -20v-108q0 -13 -6 -19.5z
M371 -57.5q26 -22.5 26 -62.5q0 -25 -9 -49t-30 -60l-21 -36q-8 -14 -15.5 -18.5t-25.5 -4.5h-52q-23 0 -23 14q0 7 5 15l41 66q-28 6 -46 25.5t-18 50.5q0 24 12.5 42.5t35.5 29t52 10.5q42 0 68 -22.5z" />
    <glyph glyph-name="uni021B" unicode="&#x21b;" horiz-adv-x="602" 
d="M581 546.5q-6 -6.5 -20 -6.5h-158q-8 0 -11.5 -3.5t-3.5 -11.5v-499q0 -13 -6 -19.5t-20 -6.5h-122q-13 0 -19.5 6.5t-6.5 19.5v499q0 8 -3.5 11.5t-11.5 3.5h-158q-13 0 -19.5 6.5t-6.5 19.5v108q0 14 6.5 20t19.5 6h520q14 0 20 -6t6 -20v-108q0 -13 -6 -19.5z
M371 -57.5q26 -22.5 26 -62.5q0 -25 -9 -49t-30 -60l-21 -36q-8 -14 -15.5 -18.5t-25.5 -4.5h-52q-23 0 -23 14q0 7 5 15l41 66q-28 6 -46 25.5t-18 50.5q0 24 12.5 42.5t35.5 29t52 10.5q42 0 68 -22.5z" />
    <glyph glyph-name="uni0237" unicode="&#x237;" horiz-adv-x="336" 
d="M-38.5 -42.5q4.5 5.5 14.5 5.5q8 0 21 -1.5t23 -1.5q34 0 54 25.5t20 73.5v615q0 14 6.5 20t20.5 6h121q14 0 20 -6t6 -20v-627q0 -119 -53.5 -183t-171.5 -64q-50 0 -77 7q-14 4 -18.5 11t-2.5 22l11 98q1 14 5.5 19.5z" />
    <glyph glyph-name="circumflex" unicode="&#x2c6;" horiz-adv-x="500" 
d="M127 754q-8 0 -20 6l-56 30q-13 7 -13 16q0 8 10 17l126 115q12 11 19.5 14t24.5 3h64q17 0 24.5 -3t19.5 -14l126 -115q10 -9 10 -17q0 -9 -13 -16l-56 -30q-12 -6 -20 -6q-13 0 -26 13l-97 92l-97 -92q-13 -13 -26 -13z" />
    <glyph glyph-name="caron" unicode="&#x2c7;" horiz-adv-x="500" 
d="M373 955q8 0 20 -6l56 -30q13 -7 13 -16q0 -8 -10 -17l-126 -115q-12 -11 -19.5 -14t-24.5 -3h-64q-17 0 -24.5 3t-19.5 14l-126 115q-10 9 -10 17q0 9 13 16l56 30q12 6 20 6q13 0 26 -13l97 -92l97 92q13 13 26 13z" />
    <glyph glyph-name="uni02C9" unicode="&#x2c9;" horiz-adv-x="500" 
d="M93.5 784q-6.5 6 -6.5 19v66q0 14 6.5 20t20.5 6h272q14 0 20.5 -6t6.5 -20v-66q0 -13 -6.5 -19t-20.5 -6h-272q-14 0 -20.5 6z" />
    <glyph glyph-name="breve" unicode="&#x2d8;" horiz-adv-x="500" 
d="M141.5 776.5q-42.5 22.5 -62 60.5t-19.5 84q0 12 4.5 17t17.5 5h67q12 0 17.5 -4t7.5 -15q6 -28 25 -44t51 -16t51 16.5t25 43.5q2 11 7.5 15t17.5 4h67q13 0 17.5 -5t4.5 -17q0 -46 -20 -83.5t-62.5 -60.5t-108.5 -23q-65 0 -107.5 22.5z" />
    <glyph glyph-name="dotaccent" unicode="&#x2d9;" horiz-adv-x="500" 
d="M175 874.5q11 18.5 30.5 29t44.5 10.5t44.5 -10.5t30.5 -29t11 -41.5t-11 -41t-30.5 -28t-44.5 -10t-44.5 10t-30.5 28t-11 41t11 41.5z" />
    <glyph glyph-name="ring" unicode="&#x2da;" horiz-adv-x="500" 
d="M108 963.5q22 37.5 59.5 59.5t82.5 22t82.5 -22t59.5 -59.5t22 -82.5t-22 -82.5t-59.5 -59.5t-82.5 -22t-82.5 22t-59.5 59.5t-22 82.5t22 82.5zM212.5 843.5q15.5 -15.5 37.5 -15.5q23 0 38 15.5t15 37.5q0 23 -15 38t-38 15q-22 0 -37.5 -15t-15.5 -38
q0 -22 15.5 -37.5z" />
    <glyph glyph-name="ogonek" unicode="&#x2db;" horiz-adv-x="500" 
d="M247 -33.5q-21 -24.5 -21 -52.5q0 -24 16.5 -38.5t41.5 -14.5q32 0 59 15q8 5 12 5q8 0 12 -10l22 -42q3 -6 3 -11q0 -10 -12 -17q-47 -31 -108 -31q-43 0 -76 16t-51.5 44t-18.5 64q0 43 28.5 79.5t82.5 61.5l69 -29q-38 -15 -59 -39.5z" />
    <glyph glyph-name="tilde" unicode="&#x2dc;" horiz-adv-x="500" 
d="M281.5 769q-20.5 6 -48.5 17q-20 9 -33.5 13t-26.5 4q-19 0 -34 -8t-31 -24q-7 -7 -15 -7q-7 0 -14 8l-35 51q-6 8 -6 14q0 7 9 16q22 26 54.5 42.5t71.5 16.5q25 0 45.5 -6t48.5 -17q15 -6 31 -11t29 -5q19 0 34.5 8t30.5 23q8 8 15 8t14 -9l35 -51q6 -7 6 -13t-9 -17
q-22 -26 -54.5 -42.5t-71.5 -16.5q-25 0 -45.5 6z" />
    <glyph glyph-name="hungarumlaut" unicode="&#x2dd;" horiz-adv-x="500" 
d="M572 917q0 -9 -16 -22l-173 -128q-17 -13 -31 -13q-9 0 -19 6l-47 26q-12 8 -12 17q0 8 11 18l154 138q16 15 30 15q7 0 23 -7l62 -31q18 -9 18 -19zM324 921q0 -9 -14 -21l-152 -133q-8 -7 -14.5 -10t-13.5 -3q-8 0 -20 6l-48 25q-14 8 -14 18q0 8 9 17l135 138
q8 8 14 11.5t12 3.5q9 0 23 -6l64 -26q19 -9 19 -20z" />
    <glyph glyph-name="uni0326" unicode="&#x326;" horiz-adv-x="0" 
d="M-179 -57.5q26 -22.5 26 -62.5q0 -25 -9 -49t-30 -60l-21 -36q-8 -14 -15.5 -18.5t-25.5 -4.5h-52q-23 0 -23 14q0 7 5 15l41 66q-28 6 -46 25.5t-18 50.5q0 24 12.5 42.5t35.5 29t52 10.5q42 0 68 -22.5z" />
    <glyph glyph-name="Delta" unicode="&#x394;" horiz-adv-x="734" 
d="M-4 15q0 9 5 18l313 629q15 30 26.5 41.5t26.5 11.5q14 0 26 -11.5t27 -41.5l313 -629q5 -9 5 -18q0 -15 -22 -15h-697q-23 0 -23 15zM364 417l-119 -257h238z" />
    <glyph glyph-name="Omega" unicode="&#x3a9;" horiz-adv-x="804" 
d="M560.5 464q-20.5 42 -60.5 65.5t-98 23.5t-98.5 -23.5t-61 -65.5t-20.5 -97q0 -64 26.5 -116t74.5 -93q12 -11 15 -18.5t3 -23.5v-90q0 -14 -6.5 -20t-20.5 -6h-258q-13 0 -19.5 6.5t-6.5 19.5v108q0 14 6 20t20 6h93q-48 40 -77.5 99.5t-29.5 127.5q0 92 43 166.5
t125 117t193 42.5q110 0 191 -42.5t124 -116.5t43 -165q0 -69 -29.5 -128.5t-77.5 -100.5h93q14 0 20.5 -6t6.5 -20v-108q0 -14 -6.5 -20t-20.5 -6h-258q-13 0 -19.5 6.5t-6.5 19.5v90q0 17 3 24.5t14 17.5q101 88 101 209q0 55 -20.5 97z" />
    <glyph glyph-name="mu" unicode="&#x3bc;" horiz-adv-x="616" 
d="M69 486q4 4 13 4h133q9 0 13.5 -4t4.5 -14v-225q0 -53 18.5 -80.5t58.5 -27.5t59 27.5t19 80.5v225q0 10 4 14t13 4h133q10 0 14 -4t4 -14v-233q0 -124 -64.5 -187.5t-181.5 -63.5q-42 0 -77 12v-205q0 -13 -6.5 -19t-19.5 -6h-117q-13 0 -19 6t-6 19v677q0 10 4 14z" />
    <glyph glyph-name="pi" unicode="&#x3c0;" horiz-adv-x="680" 
d="M45 343q-14 0 -21 6t-7 20v95q0 26 24 26h598q24 0 24 -26v-95q0 -14 -7 -20t-21 -6h-91v-130q0 -43 11 -62t36 -19q9 0 18.5 1.5t15.5 1.5q10 0 14.5 -5.5t5.5 -18.5l8 -85q2 -14 -2.5 -21t-18.5 -11t-34 -6.5t-40 -2.5q-69 0 -108.5 23.5t-56.5 69.5t-17 120v145h-97
v-317q0 -14 -6.5 -20t-20.5 -6h-113q-13 0 -19.5 6.5t-6.5 19.5v317h-68z" />
    <glyph glyph-name="uni058F" unicode="&#x58f;" 
d="M244 168l17 85h114l11 50h-115l17 85h115l5 25q1 5 4.5 24t3.5 34q0 46 -21 72.5t-68 26.5q-51 0 -81.5 -30t-44.5 -98l-12 -55h-155l12 63q19 99 58.5 157t96 82.5t132.5 24.5q118 0 181.5 -53t63.5 -157q0 -35 -12 -95l-4 -21h74l-17 -85h-74l-10 -50h75l-18 -85h-74
l-34 -168h-160l34 168h-114z" />
    <glyph glyph-name="uni060B" unicode="&#x60b;" horiz-adv-x="626" 
d="M264 614.5q11 19.5 31 30.5t46 11t46 -11t31 -30.5t11 -43.5t-11 -43.5t-31 -30.5t-46 -11t-46 11t-31 30.5t-11 43.5t11 43.5zM215 128q-53 43 -53 119q0 58 25.5 103t72 70t106.5 25t106.5 -26t73 -74.5t26.5 -114.5q0 -109 -72 -169.5t-214 -60.5h-256v128h185z
M422 230q0 36 -15.5 55.5t-40.5 19.5q-24 0 -39 -17t-15 -43q0 -33 22.5 -54t63.5 -28q24 24 24 67zM396 -43v-207h-110v207h110z" />
    <glyph glyph-name="uni09F2" unicode="&#x9f2;" horiz-adv-x="654" 
d="M352 550q103 -115 180.5 -258.5t122.5 -291.5h-110q-57 137 -140 255.5t-186.5 208.5t-219.5 139l135 121q115 -59 218 -174z" />
    <glyph glyph-name="uni09F3" unicode="&#x9f3;" horiz-adv-x="628" 
d="M42 390v127h94v20q0 35 -13.5 53t-42.5 18q-15 0 -32 -3l-14 96q57 13 117 13q81 0 118 -44t37 -126v-27h267v-127h-267v-194q0 -104 107 -104q34 0 60.5 12.5t41.5 35.5t15 54q0 29 -13 48.5t-33 19.5q-8 0 -14 -4q6 -5 9.5 -12.5t3.5 -17.5q0 -18 -14 -32t-39 -14
q-26 0 -41.5 16.5t-15.5 42.5q0 24 14 43.5t38.5 30t53.5 10.5q33 0 60.5 -15.5t43.5 -46.5t16 -74q0 -57 -28 -102.5t-85.5 -73t-143.5 -27.5q-108 0 -157 49.5t-49 150.5v204h-94z" />
    <glyph glyph-name="uni0AF1" unicode="&#xaf1;" horiz-adv-x="889" 
d="M35 277q0 23 10.5 42t29.5 30t45 11q32 0 53.5 -18t26.5 -52l2 -14q10 -5 30 -5q28 0 43 14.5t15 41.5q0 29 -19.5 43t-52.5 14h-68v123h68q70 0 70 41q0 21 -15 30t-45 9q-31 0 -63.5 -8t-58.5 -19l-44 112q95 43 194 43q55 0 96.5 -16.5t64.5 -48t23 -77.5
q0 -53 -28 -83.5t-74 -42.5q46 -12 75 -45.5t29 -86.5t-23.5 -92t-67 -59.5t-101.5 -20.5q-17 0 -31 2l8 -61q4 -28 10.5 -43.5t20 -22.5t36.5 -7q27 0 58 7l17 -116q-19 -8 -47 -12.5t-55 -4.5q-67 0 -106 38.5t-49 119.5l-17 130q-60 45 -60 104zM503 423q26 42 69 64.5
t94 22.5t94 -22.5t68.5 -64.5t25.5 -97t-25.5 -96.5t-68.5 -64t-94 -22.5t-94.5 22.5t-69 64t-25.5 96.5t26 97zM622.5 283q17.5 -17 43.5 -17t43 17t17 43t-17.5 43.5t-42.5 17.5q-26 0 -43.5 -17.5t-17.5 -43.5t17.5 -43z" />
    <glyph glyph-name="uni0BF9" unicode="&#xbf9;" horiz-adv-x="1124" 
d="M592 512v-102h-61v-42q24 3 49 3q43 0 76.5 -19t52.5 -55t19 -85q0 -71 -37 -124.5t-110 -83t-178 -29.5q-110 0 -194.5 45t-131.5 129t-47 198q0 116 53 206t151.5 141t230.5 51q97 0 177.5 -26.5t135.5 -71.5q18 2 29 2q62 0 108 -25.5t71.5 -75.5t25.5 -122v-6h82v-92
h-184v92q0 98 -52 125q13 -29 13 -61q0 -55 -32.5 -87t-88.5 -32t-88.5 32t-32.5 87q0 29 10.5 56t29.5 49q-40 16 -92.5 24.5t-112.5 8.5q-95 0 -164 -34.5t-105.5 -96.5t-36.5 -143q0 -78 30 -134.5t85 -86t130 -29.5q66 0 110.5 15t65.5 41t21 58q0 26 -13.5 41.5
t-37.5 15.5q-12 0 -18 -1v-79h-118v221h-52v-221h-118v323h349zM728 520q-9 -18 -9 -36q0 -15 8.5 -24t23.5 -9q14 0 22 9t8 24q0 16 -7.5 33t-21.5 30q-15 -9 -24 -27z" />
    <glyph glyph-name="uni0E3F" unicode="&#xe3f;" 
d="M76.5 694q6.5 6 19.5 6h193v74q0 14 6.5 20t19.5 6h35q14 0 20 -6t6 -20v-75q112 -6 170 -52.5t58 -141.5q0 -51 -23.5 -87t-63.5 -55q50 -15 79.5 -55t29.5 -94q0 -104 -65 -155.5t-185 -57.5v-105q0 -14 -6 -20t-20 -6h-35q-13 0 -19.5 6t-6.5 20v104h-193
q-13 0 -19.5 6.5t-6.5 19.5v648q0 14 6.5 20zM289 548h-40q-9 0 -12 -3.5t-3 -11.5v-99q0 -8 3 -11.5t12 -3.5h40v129zM436 484q0 26 -14.5 41t-45.5 20v-123q60 10 60 62zM289 287h-40q-9 0 -12 -3t-3 -12v-105q0 -8 3 -11.5t12 -3.5h40v135zM436.5 173.5
q19.5 16.5 19.5 46.5q0 29 -20 45.5t-60 20.5v-133q41 4 60.5 20.5z" />
    <glyph glyph-name="uni17DB" unicode="&#x17db;" horiz-adv-x="580" 
d="M201 293v94h80v45h-4q-34 0 -65.5 14.5t-51.5 44t-20 71.5q0 47 28.5 85t76.5 59t106 21q62 0 113.5 -23t85.5 -57l-59 -83q-77 63 -140 63q-24 0 -47.5 -9t-38.5 -24t-15 -31q0 -31 49 -31h152v-146h79v-92h-79v-304h-144q-91 0 -153 23t-93 65.5t-31 101.5
q0 42 17 72.5t47 57.5l136 -88q-9 -10 -14.5 -22.5t-5.5 -25.5q0 -26 19 -44t52 -20v183h-80z" />
    <glyph glyph-name="Wgrave" unicode="&#x1e80;" horiz-adv-x="967" 
d="M318.5 -6q-7.5 -10 -18.5 -10t-19 10.5t-21 41.5l-256 632q-4 8 -4 16q0 16 24 16h126q19 0 27 -6t15 -25l120 -312l134 299q12 26 20 35t19 9t18.5 -9t19.5 -35l133 -296l119 309q7 19 15.5 25t27.5 6h125q24 0 24 -16q0 -8 -4 -16l-255 -632q-13 -31 -21 -41.5
t-19 -10.5q-10 0 -17.5 9.5t-21.5 39.5l-145 323l-145 -323q-13 -29 -20.5 -39zM381 974q11 0 27 -11l176 -133q11 -8 11 -17q0 -10 -11 -18l-43 -33q-11 -8 -20 -8t-24 9l-195 118q-16 9 -16 20q0 10 13 20l56 42q14 11 26 11z" />
    <glyph glyph-name="wgrave" unicode="&#x1e81;" horiz-adv-x="967" 
d="M318.5 -6q-7.5 -10 -18.5 -10t-19 10.5t-21 41.5l-256 632q-4 8 -4 16q0 16 24 16h126q19 0 27 -6t15 -25l120 -312l134 299q12 26 20 35t19 9t18.5 -9t19.5 -35l133 -296l119 309q7 19 15.5 25t27.5 6h125q24 0 24 -16q0 -8 -4 -16l-255 -632q-13 -31 -21 -41.5
t-19 -10.5q-10 0 -17.5 9.5t-21.5 39.5l-145 323l-145 -323q-13 -29 -20.5 -39zM381 974q11 0 27 -11l176 -133q11 -8 11 -17q0 -10 -11 -18l-43 -33q-11 -8 -20 -8t-24 9l-195 118q-16 9 -16 20q0 10 13 20l56 42q14 11 26 11z" />
    <glyph glyph-name="Wacute" unicode="&#x1e82;" horiz-adv-x="967" 
d="M318.5 -6q-7.5 -10 -18.5 -10t-19 10.5t-21 41.5l-256 632q-4 8 -4 16q0 16 24 16h126q19 0 27 -6t15 -25l120 -312l134 299q12 26 20 35t19 9t18.5 -9t19.5 -35l133 -296l119 309q7 19 15.5 25t27.5 6h125q24 0 24 -16q0 -8 -4 -16l-255 -632q-13 -31 -21 -41.5
t-19 -10.5q-10 0 -17.5 9.5t-21.5 39.5l-145 323l-145 -323q-13 -29 -20.5 -39zM680 901q0 -11 -16 -20l-195 -118q-15 -9 -25 -9q-8 0 -19 8l-43 33q-11 9 -11 18q0 8 11 17l176 133q16 11 27 11q12 0 26 -11l56 -42q13 -10 13 -20z" />
    <glyph glyph-name="wacute" unicode="&#x1e83;" horiz-adv-x="967" 
d="M318.5 -6q-7.5 -10 -18.5 -10t-19 10.5t-21 41.5l-256 632q-4 8 -4 16q0 16 24 16h126q19 0 27 -6t15 -25l120 -312l134 299q12 26 20 35t19 9t18.5 -9t19.5 -35l133 -296l119 309q7 19 15.5 25t27.5 6h125q24 0 24 -16q0 -8 -4 -16l-255 -632q-13 -31 -21 -41.5
t-19 -10.5q-10 0 -17.5 9.5t-21.5 39.5l-145 323l-145 -323q-13 -29 -20.5 -39zM680 901q0 -11 -16 -20l-195 -118q-15 -9 -25 -9q-8 0 -19 8l-43 33q-11 9 -11 18q0 8 11 17l176 133q16 11 27 11q12 0 26 -11l56 -42q13 -10 13 -20z" />
    <glyph glyph-name="Wdieresis" unicode="&#x1e84;" horiz-adv-x="967" 
d="M318.5 -6q-7.5 -10 -18.5 -10t-19 10.5t-21 41.5l-256 632q-4 8 -4 16q0 16 24 16h126q19 0 27 -6t15 -25l120 -312l134 299q12 26 20 35t19 9t18.5 -9t19.5 -35l133 -296l119 309q7 19 15.5 25t27.5 6h125q24 0 24 -16q0 -8 -4 -16l-255 -632q-13 -31 -21 -41.5
t-19 -10.5q-10 0 -17.5 9.5t-21.5 39.5l-145 323l-145 -323q-13 -29 -20.5 -39zM321 883q21 21 55 21t55.5 -21t21.5 -54q0 -32 -21.5 -53t-55.5 -21t-55 21t-21 53q0 33 21 54zM534 883q21 21 55 21t55.5 -21t21.5 -54q0 -32 -21.5 -53t-55.5 -21t-55 21t-21 53q0 33 21 54
z" />
    <glyph glyph-name="wdieresis" unicode="&#x1e85;" horiz-adv-x="967" 
d="M318.5 -6q-7.5 -10 -18.5 -10t-19 10.5t-21 41.5l-256 632q-4 8 -4 16q0 16 24 16h126q19 0 27 -6t15 -25l120 -312l134 299q12 26 20 35t19 9t18.5 -9t19.5 -35l133 -296l119 309q7 19 15.5 25t27.5 6h125q24 0 24 -16q0 -8 -4 -16l-255 -632q-13 -31 -21 -41.5
t-19 -10.5q-10 0 -17.5 9.5t-21.5 39.5l-145 323l-145 -323q-13 -29 -20.5 -39zM321 883q21 21 55 21t55.5 -21t21.5 -54q0 -32 -21.5 -53t-55.5 -21t-55 21t-21 53q0 33 21 54zM534 883q21 21 55 21t55.5 -21t21.5 -54q0 -32 -21.5 -53t-55.5 -21t-55 21t-21 53q0 33 21 54
z" />
    <glyph glyph-name="uni1E9E" unicode="&#x1e9e;" horiz-adv-x="885" 
d="M535 451.5q10 -11.5 32.5 -20t65.5 -18.5q74 -18 121.5 -43t71.5 -64t24 -95q0 -67 -34 -118t-96 -78.5t-145 -27.5q-144 0 -251 79q-13 10 -13 20q0 7 8 21l51 85q9 16 19 16q7 0 18 -8q36 -26 79 -40.5t86 -14.5q49 0 73.5 14.5t24.5 39.5q0 18 -11 29t-35.5 20
t-72.5 20q-69 16 -113 39.5t-66.5 59t-22.5 86.5q0 33 11.5 59.5t33.5 44.5l-17 1q-66 0 -101 -44q-17 -21 -24.5 -53.5t-7.5 -87.5v-347q0 -13 -6 -19.5t-20 -6.5h-121q-27 0 -27 26v359q0 68 7.5 112.5t24 76.5t45.5 60q44 42 107 63t163 21q102 0 202.5 -22t173.5 -59
q12 -6 17 -12t5 -14q0 -10 -7 -23l-42 -79q-5 -9 -9.5 -13.5t-11.5 -4.5q-8 0 -20 6q-68 33 -127 33q-35 0 -54 -13.5t-19 -36.5q0 -17 10 -28.5z" />
    <glyph glyph-name="Ygrave" unicode="&#x1ef2;" horiz-adv-x="673" 
d="M477 672q10 18 19 23t28 5h133q21 0 21 -13q0 -7 -6 -16l-247 -412v-233q0 -13 -6 -19.5t-20 -6.5h-122q-13 0 -19.5 6.5t-6.5 19.5v228l-250 417q-6 9 -6 16q0 13 21 13h138q19 0 28 -5t19 -23l138 -244zM236 974q11 0 27 -11l176 -133q11 -8 11 -17q0 -10 -11 -18
l-43 -33q-11 -8 -20 -8t-24 9l-195 118q-16 9 -16 20q0 10 13 20l56 42q14 11 26 11z" />
    <glyph glyph-name="ygrave" unicode="&#x1ef3;" horiz-adv-x="673" 
d="M477 672q10 18 19 23t28 5h133q21 0 21 -13q0 -7 -6 -16l-247 -412v-233q0 -13 -6 -19.5t-20 -6.5h-122q-13 0 -19.5 6.5t-6.5 19.5v228l-250 417q-6 9 -6 16q0 13 21 13h138q19 0 28 -5t19 -23l138 -244zM236 974q11 0 27 -11l176 -133q11 -8 11 -17q0 -10 -11 -18
l-43 -33q-11 -8 -20 -8t-24 9l-195 118q-16 9 -16 20q0 10 13 20l56 42q14 11 26 11z" />
    <glyph glyph-name="endash" unicode="&#x2013;" horiz-adv-x="600" 
d="M544 280.5q-6 -6.5 -20 -6.5h-448q-13 0 -19.5 6.5t-6.5 19.5v82q0 14 6 20.5t20 6.5h448q14 0 20 -6.5t6 -20.5v-82q0 -13 -6 -19.5z" />
    <glyph glyph-name="emdash" unicode="&#x2014;" horiz-adv-x="840" 
d="M784 280.5q-6 -6.5 -20 -6.5h-688q-13 0 -19.5 6.5t-6.5 19.5v82q0 14 6 20.5t20 6.5h688q14 0 20 -6.5t6 -20.5v-82q0 -13 -6 -19.5z" />
    <glyph glyph-name="afii00208" unicode="&#x2015;" horiz-adv-x="500" 
d="M22 331.5q6 6.5 20 6.5h415q14 0 20.5 -6.5t6.5 -20.5v-83q0 -26 -27 -26h-415q-13 0 -19.5 6.5t-6.5 19.5v83q0 14 6 20.5z" />
    <glyph glyph-name="quoteleft" unicode="&#x2018;" horiz-adv-x="283" 
d="M71.5 436.5q-26.5 25.5 -26.5 69.5q0 28 9.5 55.5t29.5 64.5l33 62q7 14 16 19t26 5h50q24 0 24 -14q0 -5 -6 -16l-53 -94q27 -6 45.5 -28.5t18.5 -56.5q0 -27 -12.5 -48t-34 -32.5t-49.5 -11.5q-44 0 -70.5 25.5z" />
    <glyph glyph-name="quoteright" unicode="&#x2019;" horiz-adv-x="283" 
d="M211.5 687q26.5 -25 26.5 -69q0 -28 -9 -55.5t-29 -64.5l-33 -62q-8 -15 -16.5 -20t-26.5 -5h-50q-23 0 -23 14q0 7 6 17l52 94q-27 6 -45.5 28t-18.5 57q0 26 12.5 47t34.5 32.5t49 11.5q44 0 70.5 -25z" />
    <glyph glyph-name="quotesinglbase" unicode="&#x201a;" horiz-adv-x="283" 
d="M211.5 140.5q26.5 -25.5 26.5 -69.5q0 -27 -9 -55t-29 -65l-33 -62q-8 -15 -16.5 -20t-26.5 -5h-50q-23 0 -23 14q0 6 6 17l52 94q-27 7 -45.5 28.5t-18.5 56.5q0 26 12.5 47t34.5 33t49 12q44 0 70.5 -25.5z" />
    <glyph glyph-name="quotedblleft" unicode="&#x201c;" horiz-adv-x="505" 
d="M71.5 436.5q-26.5 25.5 -26.5 69.5q0 28 9.5 55.5t29.5 64.5l33 62q7 14 16 19t26 5h50q24 0 24 -14q0 -5 -6 -16l-53 -94q27 -6 45.5 -28.5t18.5 -56.5q0 -27 -12.5 -48t-34 -32.5t-49.5 -11.5q-44 0 -70.5 25.5zM293.5 436.5q-26.5 25.5 -26.5 69.5q0 27 9 55t29 65
l34 62q7 14 16 19t26 5h50q24 0 24 -14q0 -5 -6 -16l-53 -94q27 -6 45.5 -28.5t18.5 -56.5q0 -27 -12.5 -48t-34 -32.5t-49.5 -11.5q-44 0 -70.5 25.5z" />
    <glyph glyph-name="quotedblright" unicode="&#x201d;" horiz-adv-x="505" 
d="M211.5 687q26.5 -25 26.5 -69q0 -28 -9 -55.5t-29 -64.5l-33 -62q-8 -15 -16.5 -20t-26.5 -5h-50q-23 0 -23 14q0 7 6 17l52 94q-27 6 -45.5 28t-18.5 57q0 26 12.5 47t34.5 32.5t49 11.5q44 0 70.5 -25zM433.5 687q26.5 -25 26.5 -69q0 -28 -9 -55.5t-29 -64.5l-33 -62
q-8 -15 -16.5 -20t-26.5 -5h-50q-23 0 -23 14q0 8 5 17l53 94q-27 6 -45.5 28t-18.5 57q0 26 12.5 47t34 32.5t49.5 11.5q44 0 70.5 -25z" />
    <glyph glyph-name="quotedblbase" unicode="&#x201e;" horiz-adv-x="505" 
d="M211.5 140.5q26.5 -25.5 26.5 -69.5q0 -27 -9 -55t-29 -65l-33 -62q-8 -15 -16.5 -20t-26.5 -5h-50q-23 0 -23 14q0 6 6 17l52 94q-27 7 -45.5 28.5t-18.5 56.5q0 26 12.5 47t34.5 33t49 12q44 0 70.5 -25.5zM433.5 140.5q26.5 -25.5 26.5 -69.5q0 -27 -9 -55t-29 -65
l-33 -62q-8 -15 -16.5 -20t-26.5 -5h-50q-23 0 -23 14q0 8 5 17l53 94q-27 7 -45.5 28.5t-18.5 56.5q0 26 12.5 47t34 33t49.5 12q44 0 70.5 -25.5z" />
    <glyph glyph-name="dagger" unicode="&#x2020;" horiz-adv-x="504" 
d="M27 362.5q-6 6.5 -6 20.5v81q0 14 6.5 20t19.5 6h121q8 0 11.5 3.5t3.5 11.5v169q0 14 6.5 20t19.5 6h85q14 0 20.5 -6t6.5 -20v-169q0 -8 3 -11.5t12 -3.5h120q14 0 20.5 -6t6.5 -20v-81q0 -14 -6.5 -20.5t-20.5 -6.5h-120q-9 0 -12 -3t-3 -12v-400q0 -14 -6.5 -20.5
t-20.5 -6.5h-85q-26 0 -26 27v400q0 9 -3.5 12t-11.5 3h-121q-14 0 -20 6.5z" />
    <glyph glyph-name="daggerdbl" unicode="&#x2021;" horiz-adv-x="504" 
d="M179.5 407.5q-3.5 3.5 -11.5 3.5h-121q-14 0 -20 6.5t-6 20.5v80q0 14 6 20.5t20 6.5h121q8 0 11.5 3t3.5 12v114q0 14 6.5 20t19.5 6h85q14 0 20.5 -6t6.5 -20v-114q0 -9 3 -12t12 -3h120q14 0 20.5 -6.5t6.5 -20.5v-80q0 -14 -6.5 -20.5t-20.5 -6.5h-120q-9 0 -12 -3.5
t-3 -11.5v-178q0 -8 3 -11.5t12 -3.5h120q14 0 20.5 -6t6.5 -20v-81q0 -14 -6.5 -20t-20.5 -6h-120q-9 0 -12 -3.5t-3 -12.5v-113q0 -14 -6.5 -20.5t-20.5 -6.5h-85q-26 0 -26 27v113q0 9 -3.5 12.5t-11.5 3.5h-121q-14 0 -20 6t-6 20v81q0 14 6.5 20t19.5 6h121
q8 0 11.5 3.5t3.5 11.5v178q0 8 -3.5 11.5z" />
    <glyph glyph-name="bullet" unicode="&#x2022;" horiz-adv-x="295" 
d="M54.5 405.5q14.5 24.5 39.5 39t54 14.5t53.5 -14.5t39 -39t14.5 -53.5t-14.5 -53.5t-39 -39t-53.5 -14.5t-54 14.5t-39.5 39t-14.5 53.5t14.5 53.5z" />
    <glyph glyph-name="ellipsis" unicode="&#x2026;" horiz-adv-x="828" 
d="M57.5 122.5q12.5 20.5 34.5 32t50 11.5t50 -11.5t34 -32t12 -46.5q0 -25 -12 -45t-34 -31.5t-50 -11.5t-50 11.5t-34.5 31.5t-12.5 45q0 26 12.5 46.5zM329.5 122.5q12.5 20.5 34.5 32t50 11.5q29 0 51 -11.5t34 -32t12 -46.5q0 -25 -12 -45t-34 -31.5t-51 -11.5
q-28 0 -50 11.5t-34.5 31.5t-12.5 45q0 26 12.5 46.5zM602.5 122.5q12.5 20.5 34.5 32t50 11.5t50 -11.5t34 -32t12 -46.5q0 -25 -12 -45t-34 -31.5t-50 -11.5t-50 11.5t-34.5 31.5t-12.5 45q0 26 12.5 46.5z" />
    <glyph glyph-name="perthousand" unicode="&#x2030;" horiz-adv-x="1247" 
d="M108 359.5q-40 22.5 -62.5 64t-22.5 98.5q0 58 22 101.5t63 66.5t95 23q53 0 93 -22.5t62.5 -64t22.5 -98.5q0 -59 -22.5 -102t-63 -66t-94.5 -23q-53 0 -93 22.5zM208 -9q-7 -4 -23 -4h-88q-19 0 -19 12q0 4 3.5 10t9.5 13l542 670q10 13 17.5 17t23.5 4h88q19 0 19 -12
q0 -4 -3.5 -10t-9.5 -13l-542 -670q-11 -13 -18 -17zM246 469q16 20 16 56t-16 56t-44 20q-29 0 -44.5 -20t-15.5 -56q0 -37 15.5 -56.5t44.5 -19.5q28 0 44 20zM563 9.5q-40 22.5 -62.5 64t-22.5 98.5q0 59 22.5 102t63 66t94.5 23q53 0 93 -22.5t62.5 -64t22.5 -98.5
q0 -58 -22.5 -101.5t-63 -66.5t-94.5 -23q-53 0 -93 22.5zM956 9.5q-40 22.5 -62.5 64t-22.5 98.5q0 59 22.5 102t63 66t94.5 23q53 0 93 -22.5t62.5 -64t22.5 -98.5q0 -58 -22.5 -101.5t-63 -66.5t-94.5 -23q-53 0 -93 22.5zM701 119.5q16 20.5 16 55.5q0 37 -15.5 56.5
t-44.5 19.5t-44.5 -20t-15.5 -56t16 -56t44 -20t44 20.5zM1094 119.5q16 20.5 16 55.5q0 37 -15.5 56.5t-44.5 19.5t-44.5 -20t-15.5 -56t16 -56t44 -20t44 20.5z" />
    <glyph glyph-name="guilsinglleft" unicode="&#x2039;" horiz-adv-x="314" 
d="M273 200q0 -10 -5 -19l-33 -67q-6 -14 -17 -14q-9 0 -18 11l-147 158q-14 15 -18.5 25.5t-4.5 27.5v56q0 17 4.5 27.5t18.5 25.5l147 158q9 11 18 11q11 0 17 -14l33 -67q5 -9 5 -19q0 -12 -12 -26l-117 -124l117 -124q12 -13 12 -26z" />
    <glyph glyph-name="guilsinglright" unicode="&#x203a;" horiz-adv-x="314" 
d="M41 499q0 10 6 20l32 67q8 14 17 14q8 0 19 -11l146 -158q14 -15 18.5 -25.5t4.5 -27.5v-56q0 -17 -4.5 -27.5t-18.5 -25.5l-146 -158q-11 -11 -19 -11q-9 0 -17 14l-32 67q-6 11 -6 20q0 12 13 25l117 124l-117 124q-13 13 -13 25z" />
    <glyph glyph-name="fraction" unicode="&#x2044;" horiz-adv-x="199" 
d="M-85.5 -9q-6.5 -4 -20.5 -4h-82q-10 0 -15 3.5t-5 9.5q0 4 3 9.5t8 12.5l466 670q9 13 15.5 17t20.5 4h82q10 0 15 -3.5t5 -9.5q0 -4 -3 -9.5t-8 -12.5l-466 -670q-9 -13 -15.5 -17z" />
    <glyph glyph-name="uni2070" unicode="&#x2070;" horiz-adv-x="421" 
d="M46 751q23 48 66 73.5t100 25.5q56 0 98 -24.5t65 -71.5t23 -111q0 -65 -23 -113t-66 -73.5t-100 -25.5q-56 0 -98 24.5t-65 71.5t-23 111q0 65 23 113zM160.5 562q17.5 -27 50.5 -27q32 0 49.5 28.5t17.5 77.5q0 51 -17 78t-50 27t-50.5 -28t-17.5 -78q0 -51 17.5 -78z
" />
    <glyph glyph-name="uni2074" unicode="&#x2074;" horiz-adv-x="406" 
d="M373 604q9 0 13.5 -4t4.5 -14v-60q0 -18 -18 -18h-39v-50q0 -17 -18 -17h-81q-18 0 -18 17v50h-166q-21 0 -32 10t-11 24q0 18 17 36l215 241q15 17 28.5 25.5t26.5 8.5q17 0 28 -11t11 -31v-207h39zM220 691l-74 -87h74v87z" />
    <glyph glyph-name="uni2075" unicode="&#x2075;" horiz-adv-x="406" 
d="M163.5 738q-2.5 -2 -3.5 -10l-3 -33q27 6 58 6q71 0 111.5 -33t40.5 -91q0 -42 -22 -75t-65 -52t-104 -19q-41 0 -76.5 9.5t-64.5 25.5q-12 6 -12 14q0 5 4 12l30 54q6 11 13 11q5 0 10 -4q38 -22 92 -22q75 0 75 43q0 21 -19 31t-58 10q-52 0 -102 -13q-3 -1 -9 -1
q-11 0 -10 16l13 203q1 11 5 15.5t15 4.5h244q9 0 13.5 -4t4.5 -14v-65q0 -17 -18 -17h-153q-7 0 -9.5 -2z" />
    <glyph glyph-name="uni2076" unicode="&#x2076;" horiz-adv-x="406" 
d="M167.5 837q5.5 3 17.5 3h96q13 0 13 -8q0 -4 -5 -11l-78 -94q12 3 26 3q42 0 76 -17t53.5 -48.5t19.5 -73.5q0 -47 -24 -83.5t-66.5 -56.5t-96.5 -20q-52 0 -92 19t-62.5 53.5t-22.5 80.5q0 37 15 72t49 80l67 87q9 11 14.5 14zM158.5 545.5q16.5 -15.5 44.5 -15.5
q29 0 46 16t17 42q0 25 -16.5 40.5t-44.5 15.5q-29 0 -46 -15.5t-17 -41.5t16.5 -41.5z" />
    <glyph glyph-name="uni2077" unicode="&#x2077;" horiz-adv-x="406" 
d="M215.5 444.5q-6.5 -3.5 -18.5 -3.5h-84q-15 0 -15 10q0 5 3 11l132 274h-181q-9 0 -13 4t-4 14v68q0 10 4 14t13 4h320q9 0 13 -2.5t4 -8.5q0 -4 -3 -12l-159 -358q-5 -11 -11.5 -14.5z" />
    <glyph glyph-name="uni2078" unicode="&#x2078;" horiz-adv-x="406" 
d="M293 835q37 -15 56.5 -41.5t19.5 -61.5q0 -59 -55 -85q32 -11 50 -35t18 -57q0 -61 -49.5 -92.5t-132.5 -31.5q-80 0 -128.5 31.5t-48.5 90.5q0 34 18 58.5t50 35.5q-26 10 -40.5 31t-14.5 53q0 35 20.5 62t58.5 42t90 15q51 0 88 -15zM166 750q-14 -10 -14 -29
q0 -18 14.5 -28.5t36.5 -10.5t36.5 10.5t14.5 28.5q0 19 -14 29t-37 10t-37 -10zM245.5 597q-16.5 12 -42.5 12t-43 -12t-17 -32q0 -21 16 -32.5t44 -11.5t43.5 11.5t15.5 32.5q0 20 -16.5 32z" />
    <glyph glyph-name="uni2079" unicode="&#x2079;" horiz-adv-x="406" 
d="M238.5 443q-5.5 -3 -17.5 -3h-96q-13 0 -13 8q0 4 5 11l78 94q-12 -3 -26 -3q-42 0 -76 17t-53.5 48.5t-19.5 73.5q0 47 24 83.5t66.5 56.5t96.5 20q52 0 92 -19t62.5 -53.5t22.5 -80.5q0 -37 -15 -72t-49 -80l-67 -87q-9 -11 -14.5 -14zM247.5 734.5
q-16.5 15.5 -44.5 15.5q-29 0 -46 -16t-17 -42q0 -25 16.5 -40.5t44.5 -15.5q29 0 46 15.5t17 41.5t-16.5 41.5z" />
    <glyph glyph-name="uni2080" unicode="&#x2080;" horiz-adv-x="421" 
d="M46 176q23 48 66 73.5t100 25.5q56 0 98 -24.5t65 -71.5t23 -111q0 -65 -23 -113t-66 -73.5t-100 -25.5q-56 0 -98 24.5t-65 71.5t-23 111q0 65 23 113zM160.5 -13q17.5 -27 50.5 -27q32 0 49.5 28.5t17.5 77.5q0 51 -17 78t-50 27t-50.5 -28t-17.5 -78q0 -51 17.5 -78z
" />
    <glyph glyph-name="uni2081" unicode="&#x2081;" horiz-adv-x="301" 
d="M212.5 261q4.5 -4 4.5 -14v-364q0 -9 -4 -13t-14 -4h-81q-10 0 -14 4t-4 13v268q0 5 -2.5 7.5t-8.5 2.5h-44q-10 0 -14 4t-4 14v68q0 10 4 14t14 4h154q9 0 13.5 -4z" />
    <glyph glyph-name="uni2082" unicode="&#x2082;" horiz-adv-x="406" 
d="M364 -130q-4 -4 -14 -4h-306q-16 0 -16 9q0 7 8 15l119 128q38 41 53 63t15 41q0 23 -15 36t-41 13q-43 0 -81 -30q-7 -5 -11 -5q-5 0 -11 9l-33 54q-6 9 -6 14q0 7 10 14q62 48 141 48q54 0 91.5 -19t56.5 -51t19 -71q0 -34 -14 -61t-50 -66l-34 -37h105q10 0 14 -4.5
t4 -14.5v-68q0 -9 -4 -13z" />
    <glyph glyph-name="uni2083" unicode="&#x2083;" horiz-adv-x="406" 
d="M230.5 -28q19.5 12 19.5 35q0 26 -27 37.5t-81 11.5q-15 0 -15 8q0 3 1.5 6t3.5 6l57 85h-129q-10 0 -14 4t-4 14v68q0 10 4 14t14 4h294q7 0 11 -2.5t4 -6.5q0 -6 -6 -14l-89 -124q46 -10 71 -38t25 -73q0 -43 -22.5 -77.5t-66 -54t-102.5 -19.5q-46 0 -85 12t-66 34
q-10 7 -10 16q0 7 4 12l34 55q7 10 13 10q4 0 11 -5q39 -30 99 -30q32 0 51.5 12z" />
    <glyph glyph-name="uni2084" unicode="&#x2084;" horiz-adv-x="406" 
d="M373 29q9 0 13.5 -4t4.5 -14v-60q0 -18 -18 -18h-39v-50q0 -17 -18 -17h-81q-18 0 -18 17v50h-166q-21 0 -32 10t-11 24q0 18 17 36l215 241q15 17 28.5 25.5t26.5 8.5q17 0 28 -11t11 -31v-207h39zM220 116l-74 -87h74v87z" />
    <glyph glyph-name="uni2085" unicode="&#x2085;" horiz-adv-x="406" 
d="M163.5 163q-2.5 -2 -3.5 -10l-3 -33q27 6 58 6q71 0 111.5 -33t40.5 -91q0 -42 -22 -75t-65 -52t-104 -19q-41 0 -76.5 9.5t-64.5 25.5q-12 6 -12 14q0 5 4 12l30 54q6 11 13 11q5 0 10 -4q38 -22 92 -22q75 0 75 43q0 21 -19 31t-58 10q-52 0 -102 -13q-3 -1 -9 -1
q-11 0 -10 16l13 203q1 11 5 15.5t15 4.5h244q9 0 13.5 -4t4.5 -14v-65q0 -17 -18 -17h-153q-7 0 -9.5 -2z" />
    <glyph glyph-name="uni2086" unicode="&#x2086;" horiz-adv-x="406" 
d="M167.5 262q5.5 3 17.5 3h96q13 0 13 -8q0 -4 -5 -11l-78 -94q12 3 26 3q42 0 76 -17t53.5 -48.5t19.5 -73.5q0 -47 -24 -83.5t-66.5 -56.5t-96.5 -20q-52 0 -92 19t-62.5 53.5t-22.5 80.5q0 37 15 72t49 80l67 87q9 11 14.5 14zM158.5 -29.5q16.5 -15.5 44.5 -15.5
q29 0 46 16t17 42q0 25 -16.5 40.5t-44.5 15.5q-29 0 -46 -15.5t-17 -41.5t16.5 -41.5z" />
    <glyph glyph-name="uni2087" unicode="&#x2087;" horiz-adv-x="406" 
d="M215.5 -130.5q-6.5 -3.5 -18.5 -3.5h-84q-15 0 -15 10q0 5 3 11l132 274h-181q-9 0 -13 4t-4 14v68q0 10 4 14t13 4h320q9 0 13 -2.5t4 -8.5q0 -4 -3 -12l-159 -358q-5 -11 -11.5 -14.5z" />
    <glyph glyph-name="uni2088" unicode="&#x2088;" horiz-adv-x="406" 
d="M293 260q37 -15 56.5 -41.5t19.5 -61.5q0 -59 -55 -85q32 -11 50 -35t18 -57q0 -61 -49.5 -92.5t-132.5 -31.5q-80 0 -128.5 31.5t-48.5 90.5q0 34 18 58.5t50 35.5q-26 10 -40.5 31t-14.5 53q0 35 20.5 62t58.5 42t90 15q51 0 88 -15zM166 175q-14 -10 -14 -29
q0 -18 14.5 -28.5t36.5 -10.5t36.5 10.5t14.5 28.5q0 19 -14 29t-37 10t-37 -10zM245.5 22q-16.5 12 -42.5 12t-43 -12t-17 -32q0 -21 16 -32.5t44 -11.5t43.5 11.5t15.5 32.5q0 20 -16.5 32z" />
    <glyph glyph-name="uni2089" unicode="&#x2089;" horiz-adv-x="406" 
d="M238.5 -132q-5.5 -3 -17.5 -3h-96q-13 0 -13 8q0 4 5 11l78 94q-12 -3 -26 -3q-42 0 -76 17t-53.5 48.5t-19.5 73.5q0 47 24 83.5t66.5 56.5t96.5 20q52 0 92 -19t62.5 -53.5t22.5 -80.5q0 -37 -15 -72t-49 -80l-67 -87q-9 -11 -14.5 -14zM247.5 159.5
q-16.5 15.5 -44.5 15.5q-29 0 -46 -16t-17 -42q0 -25 16.5 -40.5t44.5 -15.5q29 0 46 15.5t17 41.5t-16.5 41.5z" />
    <glyph glyph-name="uni20A0" unicode="&#x20a0;" horiz-adv-x="682" 
d="M154 230q-59 35 -91.5 94t-32.5 131q0 76 33.5 135.5t93.5 92t136 32.5q61 0 101.5 -9.5t75.5 -32.5q14 -9 14 -18q0 -5 -5 -13l-44 -71q-14 -24 -27 -24q-3 0 -6.5 1.5t-4.5 2.5q-17 11 -38.5 17t-52.5 6q-39 0 -64.5 -16.5t-37.5 -43t-12 -57.5q0 -51 24.5 -86
t71.5 -44v147q0 14 6.5 20t19.5 6h310q27 0 27 -26v-83q0 -14 -6.5 -20t-20.5 -6h-167q-9 0 -12 -3.5t-3 -11.5v-16q0 -9 3 -12t12 -3h134q14 0 20 -6.5t6 -20.5v-74q0 -13 -6 -19.5t-20 -6.5h-134q-9 0 -12 -3.5t-3 -11.5v-27q0 -8 3 -11.5t12 -3.5h168q14 0 20.5 -6
t6.5 -20v-83q0 -26 -27 -26h-311q-13 0 -19.5 6.5t-6.5 19.5v166q-75 3 -134 38z" />
    <glyph glyph-name="colonmonetary" unicode="&#x20a1;" 
d="M160.5 56.5q-61.5 48.5 -93.5 124t-32 170.5q0 88 32 161.5t93 124t147 67.5v65q0 15 4 20.5t16 5.5t16 -5.5t4 -20.5v-58q28 2 45 2h3v56q0 15 4 20.5t16 5.5t16 -5.5t4 -20.5v-58q93 -10 173 -59q9 -5 12.5 -10t3.5 -11q0 -7 -4 -15l-46 -96q-7 -15 -17 -15q-8 0 -16 5
q-30 17 -54.5 27t-51.5 14v-403q51 8 104 41q11 7 18 7q5 0 8.5 -3.5t7.5 -11.5l37 -84q5 -10 5 -20q0 -7 -3.5 -12t-12.5 -11q-78 -54 -164 -65v-58q0 -15 -4 -20.5t-16 -5.5t-16 5.5t-4 20.5v55h-10q-14 0 -38 2v-57q0 -15 -4 -20.5t-16 -5.5t-16 5.5t-4 20.5v62
q-85 15 -146.5 63.5zM347 546v-395q25 -5 48 -5v407q-29 -2 -48 -7zM233 459.5q-24 -48.5 -24 -108.5q0 -68 24 -116.5t74 -71.5v369q-50 -24 -74 -72.5z" />
    <glyph glyph-name="uni20A2" unicode="&#x20a2;" 
d="M302 435.5q5 5.5 17 5.5h83q12 0 17.5 -5.5t5.5 -16.5v-33q20 31 48 47.5t72 16.5h5q12 0 17.5 -5.5t5.5 -18.5v-80q0 -12 -5.5 -17.5t-17.5 -5.5h-38q-34 0 -52.5 -9.5t-26.5 -31.5t-8 -63v-72q60 7 114 42q11 7 18 7q5 0 8.5 -3.5t7.5 -11.5l37 -84q5 -10 5 -20
q0 -7 -3.5 -12t-12.5 -11q-48 -33 -100.5 -50.5t-113.5 -17.5q-108 0 -187 45.5t-121 128t-42 191.5q0 102 42.5 184t123 130t191.5 48q119 0 216 -61q9 -5 12.5 -10t3.5 -11q0 -7 -4 -15l-46 -96q-7 -15 -17 -15q-8 0 -16 5q-75 43 -149 43q-62 0 -103 -28t-60.5 -73.5
t-19.5 -100.5q0 -64 22 -111t66 -71v250q0 11 5 16.5z" />
    <glyph glyph-name="franc" unicode="&#x20a3;" horiz-adv-x="614" 
d="M39 100q-14 0 -20 6t-6 20v68q0 14 6 20t20 6h66v454q0 14 6.5 20t19.5 6h426q27 0 27 -26v-108q0 -14 -6.5 -20t-20.5 -6h-273q-9 0 -12 -3.5t-3 -11.5v-83q0 -9 3 -12t12 -3h239q14 0 20.5 -6.5t6.5 -20.5v-87q0 -14 -6.5 -20t-20.5 -6h-239q-9 0 -12 -3.5t-3 -11.5
v-52h111q14 0 20.5 -6t6.5 -20v-68q0 -14 -6.5 -20t-20.5 -6h-111v-74q0 -14 -6.5 -20t-20.5 -6h-111q-13 0 -19.5 6.5t-6.5 19.5v74h-66z" />
    <glyph glyph-name="lira" unicode="&#x20a4;" 
d="M45 98q0 11 14 18q40 20 64.5 47.5t29.5 60.5h-97q-14 0 -20 6t-6 20v42q0 14 6 20t20 6h85q-10 34 -16 51h-69q-14 0 -20 6t-6 20v42q0 14 6 20t20 6h49q-1 5 -1 16q0 66 30.5 119t92.5 84t152 31q126 0 216 -71q14 -10 14 -21q0 -9 -7 -20l-49 -82q-4 -6 -7.5 -9
t-7.5 -3q-5 0 -15 5q-36 21 -67.5 31t-70.5 10q-53 0 -80 -22.5t-27 -62.5v-5h192q14 0 20.5 -6t6.5 -20v-42q0 -14 -6.5 -20t-20.5 -6h-179q7 -23 13 -51h166q14 0 20.5 -6t6.5 -20v-42q0 -14 -6.5 -20t-20.5 -6h-160q-5 -22 -17.5 -42.5t-25.5 -31.5q24 3 41 3q29 0 81 -8
q9 -1 32.5 -4t43.5 -3q61 0 104 23q11 6 17 6q11 0 16 -15l33 -84q4 -9 4 -17q0 -7 -4 -12.5t-13 -11.5q-64 -41 -166 -41q-22 0 -48 2.5t-50 5.5q-59 9 -106 9q-74 0 -139 -20q-7 -3 -13 -3q-11 0 -15 13l-37 90q-3 9 -3 15z" />
    <glyph glyph-name="uni20A5" unicode="&#x20a5;" horiz-adv-x="915" 
d="M71 484q6 6 19 6h117q13 0 19.5 -6t6.5 -19v-28q22 29 57.5 46t76.5 17q54 0 92 -24l58 137q6 15 13 19.5t23 4.5h108q20 0 20 -14q0 -4 -3 -12l-49 -117q24 6 49 6q87 0 132 -59.5t45 -178.5v-244q0 -10 -4 -14t-13 -4h-133q-9 0 -13.5 4t-4.5 14v225q0 54 -16.5 81.5
t-53.5 27.5q-39 0 -56 -27.5t-17 -81.5v-225q0 -10 -4 -14t-13 -4h-103l-27 -65q-7 -15 -14 -19.5t-23 -4.5h-108q-20 0 -20 14q0 4 3 12l139 334q-4 40 -20.5 60.5t-47.5 20.5q-39 0 -56 -27.5t-17 -81.5v-225q0 -10 -4 -14t-13 -4h-133q-10 0 -14 4t-4 14v447q0 13 6 19z
" />
    <glyph glyph-name="uni20A6" unicode="&#x20a6;" horiz-adv-x="720" 
d="M36 211q-14 0 -20 6t-6 20v42q0 14 6 20t20 6h54v73h-54q-14 0 -20 6t-6 20v42q0 14 6 20t20 6h54v202q0 39 24 39q23 0 52 -33l300 -334v328q0 14 6.5 20t19.5 6h111q27 0 27 -26v-202h53q14 0 20.5 -6t6.5 -20v-42q0 -14 -6.5 -20t-20.5 -6h-53v-73h53q14 0 20.5 -6
t6.5 -20v-42q0 -14 -6.5 -20t-20.5 -6h-53v-185q0 -39 -24 -39q-23 0 -52 33l-300 322v-316q0 -14 -6.5 -20t-20.5 -6h-111q-13 0 -19.5 6.5t-6.5 19.5v185h-54z" />
    <glyph glyph-name="peseta" unicode="&#x20a7;" horiz-adv-x="1331" 
d="M81.5 694q6.5 6 19.5 6h165q156 0 237.5 -62t81.5 -188q0 -124 -84.5 -185.5t-231.5 -61.5h-15q-9 0 -12 -3.5t-3 -11.5v-162q0 -14 -6.5 -20t-20.5 -6h-111q-13 0 -19.5 6.5t-6.5 19.5v648q0 14 6.5 20zM647 348q-13 0 -19.5 6.5t-6.5 19.5v89q0 14 6 20.5t20 6.5h48
v114q0 14 6.5 20t19.5 6h103q14 0 20.5 -6t6.5 -20v-114h51q14 0 20 -6.5t6 -20.5v-89q0 -13 -6 -19.5t-20 -6.5h-51v-322q0 -14 -6.5 -20t-20.5 -6h-103q-13 0 -19.5 6.5t-6.5 19.5v322h-48zM381 379.5q34 21.5 34 69.5q0 50 -33.5 73t-102.5 23h-25q-9 0 -12 -3.5
t-3 -11.5v-157q0 -8 3 -11.5t12 -3.5h25q68 0 102 21.5zM985 130q4 4 9 4t10 -4q23 -14 50 -22t52 -8q21 0 33 11.5t12 30.5t-16.5 32t-58.5 28q-62 22 -90 53.5t-28 82.5t22.5 87.5t62.5 55.5t91 19q49 0 79 -7.5t63 -26.5q8 -4 8 -12q0 -4 -4 -16l-35 -70q-4 -9 -10 -9
q-4 0 -14 5q-24 12 -40.5 16.5t-38.5 4.5q-18 0 -28.5 -11t-10.5 -26q0 -14 15 -23t55 -22q47 -15 73.5 -34.5t38 -48t11.5 -73.5q0 -44 -21.5 -81t-61 -59t-89.5 -22q-56 0 -101 9.5t-78 32.5q-1 1 -5.5 4t-6 5t-1.5 4q0 4 5 12l41 68q3 6 7 10z" />
    <glyph glyph-name="uni20A8" unicode="&#x20a8;" horiz-adv-x="1170" 
d="M81.5 694q6.5 6 19.5 6h246q147 0 221 -58t74 -172q0 -72 -32 -123t-89 -80l155 -235q7 -10 7 -18q0 -14 -23 -14h-135q-21 0 -32.5 6.5t-22.5 23.5l-113 182q-5 8 -10.5 11t-15.5 3h-67q-9 0 -12 -3t-3 -12v-185q0 -14 -6.5 -20t-20.5 -6h-121q-13 0 -19.5 6.5
t-6.5 19.5v648q0 14 6.5 20zM432 398.5q30 20.5 30 62.5t-30 60.5t-92 18.5h-76q-9 0 -12 -3.5t-3 -11.5v-131q0 -9 3 -12.5t12 -3.5h76q62 0 92 20.5zM766 161q6 0 17 -6q30 -19 68.5 -31.5t69.5 -12.5q26 0 37 6.5t11 21.5q0 9 -6 15t-22 11t-37 11l-29 8
q-80 23 -119.5 60t-39.5 98q0 51 26.5 87t72 54.5t102.5 18.5q126 0 204 -60q9 -6 9 -14q0 -6 -5 -14l-43 -73q-6 -10 -14 -10q-7 0 -16 6q-73 42 -126 42q-42 0 -42 -27q0 -10 9 -17t26.5 -13t51.5 -15q60 -16 95.5 -35.5t53 -49t17.5 -73.5q0 -75 -53 -118t-158 -43
q-125 0 -211 61q-7 4 -9.5 8t-2.5 8t5 14l45 72q6 10 13 10z" />
    <glyph glyph-name="uni20A9" unicode="&#x20a9;" horiz-adv-x="967" 
d="M36 299q6 6 20 6h102l-27 73h-75q-14 0 -20 6t-6 20v42q0 14 6 20t20 6h40l-72 196q-4 12 -4 16q0 16 24 16h126q13 0 20.5 -2t12 -8.5t9.5 -20.5l104 -303l130 290q12 26 20 35t19 9t18.5 -9t19.5 -35l134 -287l98 300q7 20 15 25.5t28 5.5h125q24 0 24 -16q0 -4 -4 -16
l-73 -196h41q14 0 20 -6t6 -20v-42q0 -14 -6 -20t-20 -6h-75l-27 -73h102q14 0 20 -6t6 -20v-42q0 -14 -6 -20t-20 -6h-137l-64 -175q-12 -31 -20 -41.5t-20 -10.5q-10 0 -17.5 9.5t-21.5 39.5l-147 323l-147 -323q-13 -29 -20.5 -39t-18.5 -10q-12 0 -20 10.5t-20 41.5
l-65 175h-137q-14 0 -20 6t-6 20v42q0 14 6 20z" />
    <glyph glyph-name="afii57636" unicode="&#x20aa;" horiz-adv-x="854" 
d="M44.5 606q4.5 4 15.5 4h273q71 0 125.5 -14.5t96 -73.5t41.5 -178v-125q0 -26 -27 -26h-91q-13 0 -19.5 6.5t-6.5 19.5v126q0 58 -15.5 88t-40.5 39t-63 9h-108q-21 0 -21 -21v-434q0 -26 -27 -26h-111q-13 0 -19.5 6.5t-6.5 19.5v564q0 12 4.5 16zM264.5 414
q6.5 6 19.5 6h91q27 0 27 -26v-250q0 -15 13 -15h126q37 0 59.5 9t36 38.5t13.5 88.5v319q0 14 6.5 20t19.5 6h111q27 0 27 -26v-318q0 -119 -44 -177.5t-100.5 -73.5t-128.5 -15h-263q-11 0 -15.5 4t-4.5 16v374q0 14 6.5 20z" />
    <glyph glyph-name="dong" unicode="&#x20ab;" horiz-adv-x="595" 
d="M112 61q-77 61 -77 181q0 80 36.5 135.5t104.5 84t161 28.5h11q8 0 11 3t3 11v56h-101q-13 0 -19.5 6.5t-6.5 19.5v62q0 14 6 20.5t20 6.5h101v50q0 13 6.5 19t19.5 6h117q13 0 19 -6t6 -19v-50h46q14 0 20.5 -6.5t6.5 -20.5v-62q0 -26 -27 -26h-46v-535q0 -13 -6 -19
t-19 -6h-174q-142 0 -219 61zM359 150.5q3 3.5 3 11.5v168q0 8 -3 11t-11 3h-11q-62 0 -96 -26.5t-34 -74.5q0 -96 130 -96h11q8 0 11 3.5zM63 -79.5q6 6.5 20 6.5h428q14 0 20 -6.5t6 -20.5v-59q0 -14 -6 -20.5t-20 -6.5h-428q-14 0 -20 6.5t-6 20.5v59q0 14 6 20.5z" />
    <glyph glyph-name="Euro" unicode="&#x20ac;" 
d="M325 170q37 -24 93 -24q40 0 74 11t67 32q11 7 18 7q5 0 8.5 -3.5t7.5 -11.5l37 -84q5 -10 5 -20q0 -7 -3.5 -12t-12.5 -11q-48 -33 -100.5 -50.5t-113.5 -17.5q-81 0 -146 30.5t-107.5 87.5t-60.5 135h-79q-19 0 -19 11q0 2 1.5 6t2.5 6l24 50q5 11 11.5 15t19.5 4h28
l-1 20l1 21h-68q-19 0 -19 11q0 2 1.5 6t2.5 6l24 50q5 11 11.5 15t19.5 4h40q19 75 62.5 131t109.5 87t148 31q119 0 216 -61q9 -5 12.5 -10t3.5 -11q0 -7 -4 -15l-46 -96q-7 -15 -17 -15q-8 0 -16 5q-75 43 -149 43q-52 0 -88 -23t-53 -66h270q19 0 19 -11q0 -2 -1.5 -6
t-2.5 -6l-24 -50q-5 -11 -11.5 -15t-19.5 -4h-247l-1 -21l1 -20h223q19 0 19 -11q0 -2 -1.5 -6t-2.5 -6l-24 -50q-5 -11 -11.5 -15t-19.5 -4h-166q17 -45 54 -69z" />
    <glyph glyph-name="uni20AD" unicode="&#x20ad;" horiz-adv-x="707" 
d="M31 283q-14 0 -20 6.5t-6 20.5v86q0 14 6 20.5t20 6.5h44v251q0 14 6.5 20t19.5 6h121q14 0 20.5 -6t6.5 -20v-251h59l177 250q11 17 20.5 22t28.5 5h141q21 0 21 -14q0 -6 -6 -15l-185 -248h120q14 0 20 -6.5t6 -20.5v-86q0 -14 -6 -20.5t-20 -6.5h-111l186 -254
q7 -8 7 -16q0 -6 -6 -9.5t-16 -3.5h-145q-20 0 -29.5 5t-20.5 21l-181 257h-60v-257q0 -14 -6.5 -20t-20.5 -6h-121q-13 0 -19.5 6.5t-6.5 19.5v257h-44z" />
    <glyph glyph-name="uni20AE" unicode="&#x20ae;" 
d="M132 164q2 6 9 9l107 50v56l-92 -43q-8 -4 -12 -4q-14 0 -14 16v61q0 9 2 15t9 9l107 50v152q0 8 -3.5 11.5t-11.5 3.5h-163q-13 0 -19.5 6.5t-6.5 19.5v98q0 14 6.5 20t19.5 6h520q14 0 20 -6t6 -20v-98q0 -13 -6 -19.5t-20 -6.5h-163q-8 0 -11.5 -3.5t-3.5 -11.5v-74
l95 45q8 4 12 4q14 0 14 -16v-61q0 -9 -2 -15t-9 -9l-110 -52v-56l95 45q8 4 12 4q14 0 14 -16v-61q0 -9 -2 -15t-9 -9l-110 -52v-171q0 -13 -6 -19.5t-20 -6.5h-112q-13 0 -19.5 6.5t-6.5 19.5v93l-92 -43q-8 -4 -12 -4q-14 0 -14 16v61q0 9 2 15z" />
    <glyph glyph-name="uni20AF" unicode="&#x20af;" horiz-adv-x="1201" 
d="M174 557v128q102 30 210 30l31 109h153l-38 -132q98 -34 151 -115t53 -194q0 -118 -38 -208t-106.5 -140t-157.5 -50q-38 0 -70 14.5t-61 39.5q-56 -54 -141 -54q-50 0 -88 16t-59 48t-21 77q0 46 20 79.5t56.5 51.5t83.5 18q51 0 97 -31l98 341q-74 -1 -173 -28z
M366 139q25 -19 52 -19q43 0 80.5 33t60.5 93t23 136q0 59 -23.5 103t-68.5 69l-100 -346q-10 -36 -24 -69zM835.5 348.5q57.5 50.5 147.5 50.5q59 0 103 -24t67.5 -67t23.5 -99q0 -65 -24 -115t-76 -79.5t-134 -29.5q-52 0 -96 14l-65 -229h-154l119 418q31 110 88.5 160.5
zM933 105q44 0 68 28.5t24 72.5q0 29 -11.5 46t-34.5 17q-29 0 -50 -25.5t-35 -76.5l-15 -54q29 -8 54 -8zM152 165q-19 0 -29.5 -10t-10.5 -27q0 -16 10.5 -24.5t28.5 -8.5q38 0 59 38q-32 32 -58 32z" />
    <glyph glyph-name="uni20B0" unicode="&#x20b0;" horiz-adv-x="710" 
d="M209 308q16 0 36 -23l53 -62l33 54q-35 46 -58.5 82.5t-38.5 80t-15 90.5q0 54 24 96t71 65.5t113 23.5q65 0 111 -25t69 -67t23 -92q0 -55 -25.5 -110t-77.5 -133q47 -63 73.5 -123t26.5 -134t-31 -129.5t-90 -85.5t-140 -30q-26 0 -46 6q-11 4 -15 16.5t-4 36.5v77
q0 12 7 18t16 6l21 -1q16 -2 27 -2q30 0 57 19t27 69q0 51 -33 105l-65 -107q-20 -32 -40 -32q-18 0 -39 28l-60 75l-43 -68q-11 -18 -23.5 -25t-24.5 -7h-82q-16 0 -23.5 3.5t-7.5 12.5q0 16 29 62l125 198q20 32 40 32zM451.5 478q9.5 27 9.5 48q0 19 -9 31t-27 12
q-17 0 -26.5 -12t-9.5 -32q0 -43 35 -100q18 26 27.5 53z" />
    <glyph glyph-name="uni20B1" unicode="&#x20b1;" 
d="M26 350q-14 0 -20 6t-6 20v22q0 14 6 20t20 6h49v36h-49q-14 0 -20 6t-6 20v22q0 14 6 20t20 6h49v140q0 14 6.5 20t19.5 6h175q124 0 198.5 -41.5t98.5 -124.5h40q14 0 20.5 -6t6.5 -20v-22q0 -14 -6.5 -20t-20.5 -6h-28v-14q0 -15 -1 -22h29q14 0 20.5 -6t6.5 -20v-22
q0 -14 -6.5 -20t-20.5 -6h-41q-26 -88 -101 -127.5t-192 -39.5h-25q-9 0 -12 -3.5t-3 -11.5v-142q0 -14 -6.5 -20t-20.5 -6h-111q-13 0 -19.5 6.5t-6.5 19.5v324h-49zM279 570h-25q-9 0 -12 -3.5t-3 -11.5v-21h147q-34 36 -107 36zM415 446q0 9 -1 14h-175v-36h175zM384 350
h-145v-22q0 -8 3 -11.5t12 -3.5h25q71 0 105 37z" />
    <glyph glyph-name="uni20B2" unicode="&#x20b2;" horiz-adv-x="762" 
d="M177.5 56q-66.5 47 -103.5 121t-37 166q0 94 36.5 170t103 125.5t153.5 66.5v69q0 14 6.5 20t19.5 6h85q14 0 20 -6t6 -20v-64q60 -6 113.5 -26t97.5 -50q17 -11 17 -23q0 -10 -7 -20l-51 -79q-5 -8 -10 -11.5t-12 -3.5q-8 0 -19 6q-67 38 -129 47v-402q31 5 51 14
q9 4 12 8t3 14v141q0 14 6 20.5t20 6.5h122q14 0 20 -6.5t6 -20.5v-231q0 -16 -5 -24t-19 -15q-108 -54 -216 -65v-94q0 -14 -6 -20t-20 -6h-85q-13 0 -19.5 6t-6.5 20v98q-86 15 -152.5 62zM246.5 464q-29.5 -50 -29.5 -116t30.5 -116t82.5 -72v377q-54 -23 -83.5 -73z" />
    <glyph glyph-name="uni20B3" unicode="&#x20b3;" horiz-adv-x="734" 
d="M56 134q-14 0 -20 6t-6 20v42q0 14 6 20t20 6h70l22 51h-92q-14 0 -20 6t-6 20v42q0 14 6 20t20 6h132l126 289q13 30 25 41.5t28 11.5q15 0 27.5 -12t25.5 -41l125 -289h132q14 0 20.5 -6t6.5 -20v-42q0 -14 -6.5 -20t-20.5 -6h-91l22 -51h69q14 0 20.5 -6t6.5 -20v-42
q0 -14 -6.5 -20t-20.5 -6h-28l44 -101q5 -12 5 -18q0 -15 -22 -15h-107q-20 0 -28.5 4.5t-14.5 21.5l-42 108h-240l-41 -108q-6 -16 -14.5 -21t-27.5 -5h-102q-23 0 -23 16q0 5 5 17l44 101h-29zM364 458l-32 -85h64zM431 279h-134l-19 -51h172z" />
    <glyph glyph-name="uni20B4" unicode="&#x20b4;" 
d="M26 312q6 6 20 6h111q31 26 71 51h-182q-14 0 -20 6t-6 20v42q0 14 6 20t20 6h325q32 27 32 56q0 23 -26 35.5t-68 12.5q-46 0 -84.5 -10.5t-62.5 -23.5q-16 -7 -23 -7q-12 0 -21 12l-49 82q-7 10 -7 17q0 4 3.5 7.5t9.5 8.5q42 28 102.5 45t132.5 17q132 0 197.5 -47
t65.5 -129q0 -42 -14 -76h54q14 0 20.5 -6t6.5 -20v-42q0 -14 -6.5 -20t-20.5 -6h-124q-32 -28 -71 -51h195q14 0 20.5 -6t6.5 -20v-42q0 -14 -6.5 -20t-20.5 -6h-345q-21 -21 -21 -42q0 -24 22.5 -37.5t70.5 -13.5q71 0 111.5 8t71.5 20q14 6 23 6q8 0 13.5 -5.5t9.5 -19.5
l23 -69q3 -7 3 -12q0 -11 -10.5 -19t-35.5 -20q-40 -19 -99.5 -27t-121.5 -8q-116 0 -183.5 47.5t-67.5 142.5q0 23 8 49h-39q-14 0 -20 6t-6 20v42q0 14 6 20z" />
    <glyph glyph-name="uni20B5" unicode="&#x20b5;" horiz-adv-x="711" 
d="M181.5 57q-68.5 49 -106.5 124t-38 165q0 91 38 167t106 126.5t157 66.5v68q0 14 6.5 20t19.5 6h85q14 0 20 -6t6 -20v-66q57 -8 107.5 -31t92.5 -58q12 -10 12 -19q0 -8 -7 -18l-58 -82q-9 -13 -19 -13q-9 0 -20 8q-55 38 -108 51v-393q56 12 110 53q12 9 20 9q5 0 9 -3
t9 -9l57 -82q6 -9 6 -17q0 -9 -15 -23q-42 -34 -91.5 -57t-104.5 -32v-96q0 -14 -6 -20t-20 -6h-85q-13 0 -19.5 6t-6.5 20v97q-88 15 -156.5 64zM249.5 467q-32.5 -50 -32.5 -118q0 -67 32.5 -117t88.5 -71v378q-56 -22 -88.5 -72z" />
    <glyph glyph-name="uni20B6" unicode="&#x20b6;" 
d="M36 393q-14 0 -20 6.5t-6 20.5v86q0 14 6 20.5t20 6.5h69v191q0 14 6.5 20t19.5 6h115q14 0 20.5 -6t6.5 -20v-191h114v191q0 14 6.5 20t19.5 6h115q14 0 20.5 -6t6.5 -20v-191h69q14 0 20 -6.5t6 -20.5v-86q0 -14 -6 -20.5t-20 -6.5h-69v-367q0 -14 -6.5 -20t-20.5 -6
h-115q-13 0 -19.5 6.5t-6.5 19.5v367h-114v-367q0 -14 -6.5 -20t-20.5 -6h-115q-13 0 -19.5 6.5t-6.5 19.5v367h-69z" />
    <glyph glyph-name="uni20B7" unicode="&#x20b7;" 
d="M10 153q0 34 14 56t34.5 31.5t41.5 9.5q30 0 47 -9t24 -22q6 12 21 21.5t37 9.5q51 0 68 -34q5 15 21.5 24.5t37.5 9.5q34 0 56.5 -22.5t22.5 -71.5v-39q33 28 33 78q0 28 -17 46t-44 29.5t-82 28.5q-22 6 -33 10q-75 24 -120.5 46.5t-74 60.5t-28.5 98q0 61 34 106
t94.5 69t138.5 24q73 0 138.5 -23.5t116.5 -64.5q12 -9 12 -20q0 -10 -7 -20l-52 -76q-9 -14 -19 -14q-8 0 -19 8q-38 28 -82.5 45t-86.5 17q-52 0 -75 -9t-23 -35q0 -18 12 -30.5t35 -22.5t69 -25q86 -28 141.5 -55.5t89.5 -69t34 -100.5q0 -76 -47.5 -133.5t-137.5 -82.5
v-62q0 -4 -3 -7t-8 -3h-53q-11 0 -11 10v48l-42 -3v-45q0 -3 -2.5 -6.5t-8.5 -3.5h-57q-11 0 -11 10v47q-15 1 -43 5v-52q0 -10 -14 -10h-50q-6 0 -9 3t-3 7v72q-110 43 -110 141zM115 170.5q-5 16.5 -20 16.5q-11 0 -17.5 -8t-6.5 -24q0 -35 49 -53v34q0 18 -5 34.5z
M237.5 167q-1.5 10 -6 14t-13.5 4t-13.5 -4t-6.5 -14t-2 -31v-51q20 -3 43 -3v54q0 21 -1.5 31zM358.5 167q-1.5 10 -6 14t-13.5 4t-13.5 -3.5t-6 -14t-1.5 -31.5v-55q29 2 42 5v50q0 21 -1.5 31z" />
    <glyph glyph-name="uni20B8" unicode="&#x20b8;" 
d="M50 694q6 6 20 6h519q14 0 20.5 -6t6.5 -20v-68q0 -14 -6.5 -20t-20.5 -6h-519q-14 0 -20 6t-6 20v68q0 14 6 20zM244.5 386.5q-3.5 3.5 -11.5 3.5h-163q-13 0 -19.5 6.5t-6.5 19.5v98q0 14 6.5 20t19.5 6h520q14 0 20 -6t6 -20v-98q0 -13 -6 -19.5t-20 -6.5h-163
q-8 0 -11.5 -3.5t-3.5 -11.5v-349q0 -13 -6 -19.5t-20 -6.5h-112q-13 0 -19.5 6.5t-6.5 19.5v349q0 8 -3.5 11.5z" />
    <glyph glyph-name="uni20B9" unicode="&#x20b9;" 
d="M179 286q0 13 21 16q53 6 87.5 28t49.5 55h-285q-14 0 -20.5 6t-6.5 20v68q0 14 6.5 20t20.5 6h289q-11 34 -35.5 54.5t-60.5 20.5h-193q-14 0 -20.5 6t-6.5 19v69q0 14 6.5 20t20.5 6h557q14 0 20 -6t6 -20v-67q0 -14 -6 -20.5t-20 -6.5h-130q28 -36 41 -75h89
q14 0 20 -6t6 -20v-68q0 -13 -6 -19.5t-20 -6.5h-86q-13 -46 -47.5 -82.5t-90.5 -51.5l165 -220q7 -10 7 -17q0 -14 -24 -14h-122q-22 0 -32.5 6t-22.5 24l-170 238q-7 10 -7 18z" />
    <glyph glyph-name="uni20BA" unicode="&#x20ba;" 
d="M40 183q-12 -4 -15 -4q-14 0 -14 20v46q0 16 5 23.5t20 14.5l63 28v60l-59 -26q-12 -4 -15 -4q-14 0 -14 20v46q0 16 5 23.5t20 14.5l63 28v201q0 14 6.5 20t20.5 6h121q14 0 20 -6t6 -20v-119l165 73q8 4 15 4q14 0 14 -20v-46q0 -15 -5 -23t-20 -15l-169 -75v-59
l165 73q12 4 15 4q14 0 14 -20v-46q0 -16 -5 -23.5t-20 -14.5l-169 -76v-116q0 -8 3.5 -11.5t11.5 -3.5h10q83 0 128.5 37.5t55.5 115.5q2 16 8 21.5t20 5.5h104q14 0 20 -5.5t6 -18.5q0 -24 -7.5 -62t-26 -81t-50.5 -77t-71 -55t-91 -31t-124 -10h-144q-14 0 -20.5 6
t-6.5 20v183z" />
    </font>
</defs>
</svg>
