<?xml version="1.0" standalone="no"?>
<!DOCTYPE svg PUBLIC "-//W3C//DTD SVG 1.1//EN" "http://www.w3.org/Graphics/SVG/1.1/DTD/svg11.dtd" >
<svg xmlns="http://www.w3.org/2000/svg" xmlns:xlink="http://www.w3.org/1999/xlink" version="1.1">
<metadata>
Created by FontForge 20200427 at Fri Jan  1 08:00:00 1904
 By www
Converted by ALLTYPE
</metadata>
<defs>
<font id="Sans" horiz-adv-x="278" >
  <font-face 
    font-family="Sans"
    font-weight="5"
    font-stretch="normal"
    units-per-em="1000"
    panose-1="0 0 0 0 0 0 0 0 0 0"
    ascent="800"
    descent="-200"
    x-height="533"
    cap-height="729"
    bbox="-144 -262 1000 995"
    underline-thickness="50"
    underline-position="-105"
    unicode-range="U+0020-F002"
  />
<missing-glyph 
d="M5 -104h3.5t2.5 -1h3.5h2.5q32 0 41.5 11t9.5 46v581h142v-547q0 -77 -6 -109.5t-25 -52.5t-50 -31.5t-69 -11.5q-7 0 -20.5 0.5t-34.5 1.5v113v0zM68 598v131h142v-131h-142v0z" />
    <glyph glyph-name=".notdef" 
d="M5 -104h3.5t2.5 -1h3.5h2.5q32 0 41.5 11t9.5 46v581h142v-547q0 -77 -6 -109.5t-25 -52.5t-50 -31.5t-69 -11.5q-7 0 -20.5 0.5t-34.5 1.5v113v0zM68 598v131h142v-131h-142v0z" />
    <glyph glyph-name="glyph1" horiz-adv-x="0" 
 />
    <glyph glyph-name="glyph2" 
 />
    <glyph glyph-name="space" unicode=" " 
 />
    <glyph glyph-name="space" unicode="&#xa0;" 
 />
    <glyph glyph-name="exclam" unicode="!" horiz-adv-x="333" 
d="M90 148h153v-148h-153v148v0zM90 729h150l-27 -523h-96l-27 523v0z" />
    <glyph glyph-name="quotedbl" unicode="&#x22;" horiz-adv-x="474" 
d="M156 435h-75l-26 294h128l-27 -294v0zM392 435h-75l-26 294h128l-27 -294v0z" />
    <glyph glyph-name="numbersign" unicode="#" horiz-adv-x="556" 
d="M517 314v-81h-114l-34 -233h-83l34 233h-115l-37 -233h-80l35 233h-111v81h124l18 115h-113v81h127l30 219h80l-32 -219h116l32 219h82l-32 -219h101v-81h-113l-16 -115h101v0zM350 429h-116l-16 -115h114l18 115v0z" />
    <glyph glyph-name="dollar" unicode="$" horiz-adv-x="556" 
d="M164 233q3 -59 20 -83.5t65 -38.5v198q-80 23 -142.5 64t-62.5 138q0 87 52 138.5t153 64.5v86h63v-85q59 -6 99.5 -27t67.5 -59q5 -7 9 -13t7 -12q11 -20 15.5 -43.5t6.5 -60.5l-132 1q-5 49 -21 71.5t-52 27.5v-175l1.5 -1.5t1.5 -0.5q88 -28 150 -68.5t62 -147.5
q0 -105 -60 -151t-155 -56v-107h-63v107q-112 10 -163.5 65.5t-56.5 166.5l135 1v0zM312 288v-176q39 5 58 27t19 60q0 35 -17 54.5t-60 33.5v1zM249 604q-37 -8 -56 -28t-19 -52q0 -30 17.5 -48.5t57.5 -32.5v161v0z" />
    <glyph glyph-name="percent" unicode="%" horiz-adv-x="889" 
d="M525 170q0 96 32.5 142.5t99.5 46.5q65 0 96.5 -43.5t31.5 -133.5q0 -100 -31.5 -148t-99.5 -48q-65 0 -97 45t-32 138v1zM605 170q0 -70 11 -96t41 -26q26 0 37 28t11 97q0 71 -10.5 97t-38.5 26t-39.5 -28t-11.5 -99v1zM595 715h70l-374 -715h-70l374 715v0zM102 539
q0 96 32 142.5t99 46.5q65 0 96.5 -43.5t31.5 -133.5q0 -100 -31.5 -148.5t-99.5 -48.5q-64 0 -96 45.5t-32 138.5v1zM182 538q0 -69 11 -95t40 -26q26 0 37 28t11 97q0 70 -10.5 96.5t-37.5 26.5q-28 0 -39.5 -28.5t-11.5 -99.5v1z" />
    <glyph glyph-name="ampersand" unicode="&#x26;" horiz-adv-x="722" 
d="M212 408q-26 33 -40.5 56.5t-21.5 44.5q-3 12 -4.5 24t-1.5 26q0 75 52 122t134 47q80 0 129.5 -44.5t49.5 -116.5q0 -62 -34 -104.5t-82 -76.5l105 -127q4 9 7.5 17.5t6.5 17.5q2 6 3.5 12t3.5 13q3 12 6 26.5t7 34.5l124 1q-7 -54 -20.5 -99.5t-40.5 -88.5
q-5 -7 -10 -14.5t-10 -14.5l132 -160h-167l-50 61q-12 -9 -23 -16.5t-23 -14.5q-35 -21 -72 -34.5t-82 -13.5q-103 0 -166 57.5t-63 151.5q0 77 45.5 125.5t105.5 86.5v1zM284 320q-27 -20 -44.5 -35.5t-26.5 -29.5q-8 -12 -11 -24t-3 -27q0 -41 29.5 -69.5t72.5 -28.5
q15 0 27.5 2t25.5 8q14 5 29 15t33 25l-132 164v0zM321 471q24 16 38 28t22 24q6 9 8 18t2 20q0 25 -15.5 40t-41.5 15t-43 -15t-17 -40v-5.5t1 -5.5q2 -16 12.5 -34.5t33.5 -45.5v1z" />
    <glyph glyph-name="quotesingle" unicode="'" horiz-adv-x="238" 
d="M156 435h-75l-26 294h128l-27 -294v0z" />
    <glyph glyph-name="parenleft" unicode="(" horiz-adv-x="333" 
d="M224 729h109q-21 -35 -38.5 -67.5t-32.5 -65.5q-35 -79 -53.5 -161.5t-18.5 -180.5q0 -130 38 -246.5t105 -226.5h-109q-15 21 -29.5 42t-27.5 42q-55 89 -88 182t-33 207q0 119 37 217t97 192q10 16 21 32.5t23 32.5v1z" />
    <glyph glyph-name="parenright" unicode=")" horiz-adv-x="333" 
d="M109 -219h-109q21 34 38.5 66.5t32.5 65.5q35 79 53.5 161t18.5 180q0 131 -38 247.5t-105 226.5l109 1q15 -22 29.5 -43t27.5 -42q55 -89 88 -182.5t33 -207.5q0 -119 -37 -216.5t-97 -191.5q-10 -16 -21 -32.5t-23 -32.5v0z" />
    <glyph glyph-name="asterisk" unicode="*" horiz-adv-x="389" 
d="M147 626v103h95v-103l98 32l29 -88l-98 -37l60 -79l-74 -54l-63 84l-62 -84l-74 54l60 79l-98 37l29 88l98 -32v0z" />
    <glyph glyph-name="plus" unicode="+" horiz-adv-x="584" 
d="M50 301v100h192v184h100v-184h192v-100h-192v-187h-100v187h-192v0z" />
    <glyph glyph-name="comma" unicode="," 
d="M63 149h152v-130q0 -74 -36 -127t-116 -61v55q46 13 64.5 38.5t18.5 75.5h-83v149v0z" />
    <glyph glyph-name="hyphen" unicode="-" horiz-adv-x="333" 
d="M26 339h281v-131h-281v131v0z" />
    <glyph glyph-name="period" unicode="." 
d="M63 148h152v-148h-152v148v0z" />
    <glyph glyph-name="slash" unicode="/" 
d="M191 729h86l-205 -934h-86l205 934v0z" />
    <glyph glyph-name="zero" unicode="0" horiz-adv-x="556" 
d="M31 352q0 193 61 284.5t189 91.5q141 0 189.5 -96.5t53.5 -213.5q1 -10 1 -20v-20q0 -23 -1 -47.5t-3 -49.5q-9 -111 -59 -203t-186 -92q-139 0 -187.5 94t-55.5 207q-1 16 -1.5 32t-0.5 32v1zM176 351q0 -68 4.5 -113t14.5 -74q9 -27 32 -42.5t53 -15.5q56 0 78 56
t22 197t-21.5 194.5t-77.5 53.5q-25 0 -45 -10.5t-31 -30.5q-14 -26 -21.5 -81t-7.5 -135v1z" />
    <glyph glyph-name="one" unicode="1" horiz-adv-x="556" 
d="M81 592q80 0 127.5 18.5t66.5 103.5l111 1v-715h-142v492h-163v100v0z" />
    <glyph glyph-name="two" unicode="2" horiz-adv-x="556" 
d="M28 0q0 105 52.5 170t115.5 116q14 11 28 21.5t27 21.5q47 37 80 77.5t33 96.5q0 49 -24 76.5t-67 27.5q-52 0 -75.5 -33t-26.5 -110l-136 1q1 75 16 120t49 79q32 32 76 48t96 16q107 0 172 -63.5t65 -167.5q0 -96 -51 -151t-115 -101q-3 -3 -7 -5.5t-7 -4.5
q-34 -25 -67 -52t-58 -61l304 1v-123h-480v0z" />
    <glyph glyph-name="three" unicode="3" horiz-adv-x="556" 
d="M30 227h135q6 -65 31 -93t75 -28q46 0 73.5 29t27.5 77q0 59 -33.5 81t-125.5 24v105q80 0 112 22t32 76q0 40 -24 63.5t-66 23.5q-47 0 -69 -25.5t-28 -89.5l-130 1q2 56 12 90t32 63q2 2 3 3.5t2 2.5q32 38 77 57t105 19q104 0 164 -53.5t60 -145.5q0 -46 -19 -81
t-60 -63q51 -28 76 -67t25 -99q0 -106 -67 -169.5t-179 -63.5q-66 0 -120 23.5t-83 64.5q-5 7 -9 13.5t-7 12.5q-13 24 -17 51.5t-5 74.5v1z" />
    <glyph glyph-name="four" unicode="4" horiz-adv-x="556" 
d="M21 307l280 408h178v-442h75v-119h-75v-154h-142v154h-316v153v0zM132 273h205v299l-205 -299v0z" />
    <glyph glyph-name="five" unicode="5" horiz-adv-x="556" 
d="M32 194l137 5q14 -50 38 -71.5t66 -21.5q49 0 77 33t28 90q0 61 -27.5 94t-77.5 33q-21 0 -37 -5t-31 -16q-7 -5 -13.5 -11t-13.5 -14l-124 7l52 395h390v-123h-292l-26 -152q13 8 24.5 14.5t23.5 10.5q19 8 38.5 11.5t42.5 3.5q97 0 156.5 -63t59.5 -167
q0 -118 -69 -189.5t-183 -71.5q-68 0 -121.5 25t-81.5 71q-4 7 -7.5 13.5t-6.5 12.5q-4 9 -7.5 19t-6.5 23q-2 9 -4 19.5t-4 23.5v1z" />
    <glyph glyph-name="six" unicode="6" horiz-adv-x="556" 
d="M167 411q2 1 4.5 3.5l4.5 4.5q31 29 63 42t72 13q96 0 155 -64t59 -168q0 -115 -66 -185.5t-175 -70.5q-124 0 -188.5 87.5t-64.5 257.5q0 201 64.5 299t197.5 98q95 0 146.5 -45.5t67.5 -143.5l-137 1q-11 35 -30 51t-51 16q-55 0 -79.5 -40t-33.5 -89q-4 -18 -6 -35.5
t-3 -32.5v1zM176 234q0 -60 28 -94t76 -34q47 0 73.5 33.5t26.5 92.5q0 56 -27 88.5t-74 32.5q-48 0 -75.5 -32t-27.5 -88v1z" />
    <glyph glyph-name="seven" unicode="7" horiz-adv-x="556" 
d="M40 711h503v-114q-112 -125 -177.5 -278t-79.5 -319h-147q1 8 1.5 16.5t1.5 15.5q4 38 8 65t10 52q4 14 8 28.5t9 30.5q35 108 90 199.5t125 179.5l-352 1v123v0z" />
    <glyph glyph-name="eight" unicode="8" horiz-adv-x="556" 
d="M146 387q-46 16 -69.5 50.5t-23.5 87.5q0 92 62 147.5t165 55.5q102 0 162.5 -53.5t60.5 -142.5q0 -53 -22.5 -88t-70.5 -58q59 -25 86.5 -67t27.5 -106q0 -102 -68.5 -164.5t-179.5 -62.5q-109 0 -176.5 61t-67.5 161q0 65 28.5 107.5t85.5 70.5v1zM177 215
q0 -50 27 -79.5t73 -29.5t74 29t28 76q0 50 -27 79t-74 29q-46 0 -73.5 -28.5t-27.5 -76.5v1zM191 522q0 -41 24.5 -65.5t64.5 -24.5q38 0 61.5 23.5t23.5 63.5q0 41 -23 64.5t-63 23.5q-39 0 -63.5 -24t-24.5 -62v1z" />
    <glyph glyph-name="nine" unicode="9" horiz-adv-x="556" 
d="M389 304q-14 -13 -26.5 -23t-25.5 -17q-21 -12 -43.5 -17.5t-48.5 -5.5q-97 0 -155.5 63.5t-58.5 167.5q0 115 66 185.5t175 70.5q142 0 195 -99.5t58 -219.5v-13.5v-13.5q0 -201 -65 -298.5t-198 -97.5q-94 0 -145.5 45.5t-67.5 142.5l137 1q11 -37 30 -53t50 -16
q56 0 80 40t34 89q3 18 5 35.5t4 32.5v1zM380 481q0 58 -27.5 92t-77.5 34q-46 0 -72.5 -32.5t-26.5 -91.5q0 -55 27.5 -88t73.5 -33q48 0 75.5 31.5t27.5 86.5v1z" />
    <glyph glyph-name="colon" unicode=":" horiz-adv-x="333" 
d="M91 148h151v-148h-151v148v0zM91 533h151v-148h-151v148v0z" />
    <glyph glyph-name="semicolon" unicode=";" horiz-adv-x="333" 
d="M91 149h151v-130q0 -74 -36 -127t-115 -61v55q46 13 64 38.5t18 75.5h-82v149v0zM91 533h151v-148h-151v148v0z" />
    <glyph glyph-name="less" unicode="&#x3c;" horiz-adv-x="584" 
d="M534 108l-485 215v54l485 216v-77l-387 -166l387 -165v-77v0z" />
    <glyph glyph-name="equal" unicode="=" horiz-adv-x="584" 
d="M50 226v92h484v-92h-484v0zM50 385v92h484v-92h-484v0z" />
    <glyph glyph-name="greater" unicode="&#x3e;" horiz-adv-x="584" 
d="M50 593l485 -216v-54l-485 -215v77l387 165l-387 166v77v0z" />
    <glyph glyph-name="question" unicode="?" horiz-adv-x="611" 
d="M221 148h152v-148h-152v148v0zM364 219h-134q0 63 9 96.5t36 61.5q6 6 13 12t15 13q34 27 52 44t26 32q5 11 7 22.5t2 27.5q0 43 -25.5 68t-68.5 25q-51 0 -75.5 -28t-29.5 -91l-142 1q3 65 17 104.5t45 70.5q32 32 78.5 48t106.5 16q115 0 182 -57.5t67 -155.5
q0 -68 -28.5 -102t-62.5 -60l-1 -1t-2 -1q-32 -25 -59 -56t-28 -91v1z" />
    <glyph glyph-name="at" unicode="@" horiz-adv-x="975" 
d="M714 143h92q-2 -4 -4 -6.5t-4 -4.5q-60 -71 -126 -108.5t-164 -37.5q-160 0 -270.5 108.5t-110.5 267.5q0 162 109 271t270 109q142 0 242 -91t100 -220q0 -58 -18 -108t-54 -89q-17 -19 -41 -36t-50 -29q-23 -12 -44.5 -18.5t-38.5 -6.5q-28 0 -43 13t-16 39
q-19 -22 -46.5 -34.5t-57.5 -12.5q-70 0 -115 49.5t-45 126.5q0 96 59.5 162t146.5 66q38 0 67.5 -14t50.5 -43l10 53h95l-48 -284q0 -3 -0.5 -5t-1.5 -4q0 -2 -0.5 -4t-0.5 -3q-1 -4 -1.5 -8t-0.5 -8q0 -5 5 -9t11 -4q42 0 75 57t33 127q0 118 -76 190.5t-199 72.5
q-133 0 -219 -85t-86 -218q0 -134 89 -219t228 -85q57 0 106 22.5t92 59.5v1zM476 259q41 -1 70 31t29 77q0 37 -22 60.5t-57 23.5q-40 0 -69 -32t-29 -77q0 -37 22 -60.5t56 -23.5v1z" />
    <glyph glyph-name="A" unicode="A" horiz-adv-x="722" 
d="M18 0l260 729h169l257 -729h-163l-50 153h-265l-50 -153h-158v0zM268 276h183l-91 286l-92 -286v0z" />
    <glyph glyph-name="B" unicode="B" horiz-adv-x="722" 
d="M67 729h318q74 -1 113 -9.5t70 -31.5q36 -26 54 -64t18 -85q0 -52 -19.5 -87.5t-63.5 -64.5q56 -23 81.5 -63t25.5 -101q0 -54 -21 -98.5t-60 -75.5q-35 -28 -81 -38.5t-123 -10.5h-312v729v0zM217 317v-186h146q84 -1 115 19t31 74q0 55 -29 73.5t-115 18.5l-148 1v0z
M217 598v-158h150q68 -1 93 15.5t25 62.5q0 44 -25.5 61.5t-88.5 17.5l-154 1v0z" />
    <glyph glyph-name="C" unicode="C" horiz-adv-x="722" 
d="M682 487h-151q-16 64 -51 94t-96 30q-91 0 -140 -65.5t-49 -187.5q0 -113 48 -177.5t133 -64.5q60 0 98 34t57 104l151 1q-6 -40 -14 -66t-22 -50l-10 -16t-11 -16q-43 -59 -107.5 -90t-143.5 -31q-154 0 -244 100.5t-90 272.5q0 176 91.5 279.5t245.5 103.5
q128 0 211 -69.5t94 -186.5v1z" />
    <glyph glyph-name="D" unicode="D" horiz-adv-x="722" 
d="M67 729h283q68 -1 107 -7t72 -23q68 -33 102 -99.5t45 -139.5q3 -21 4.5 -42.5t1.5 -41.5q0 -124 -45.5 -217.5t-124.5 -131.5q-1 0 -1.5 -0.5t-1.5 -0.5q-32 -15 -69.5 -20.5t-100.5 -5.5h-272v729v0zM217 598v-467h118q42 -1 64 3t41 15q1 1 2.5 2t3.5 2
q38 26 59.5 83.5t21.5 134.5q0 56 -10.5 98.5t-32.5 73.5q-21 30 -54 42t-95 12l-118 1v0z" />
    <glyph glyph-name="E" unicode="E" horiz-adv-x="667" 
d="M67 729h525v-131h-375v-157h342v-123h-342v-187h391v-131h-541v729v0z" />
    <glyph glyph-name="F" unicode="F" horiz-adv-x="611" 
d="M67 729h513v-131h-363v-166h316v-123h-316v-309h-150v729v0z" />
    <glyph glyph-name="G" unicode="G" horiz-adv-x="778" 
d="M409 270v123h302v-393h-103l-15 92q-43 -55 -96 -80.5t-123 -25.5q-147 0 -240.5 104t-93.5 268q0 173 98 278.5t259 105.5q131 0 214.5 -65t99.5 -181l-154 1q-19 55 -57.5 84.5t-99.5 29.5q-95 0 -150 -66.5t-55 -182.5q0 -112 55.5 -179t147.5 -67q71 0 116 39.5
t59 113.5l-164 1v0z" />
    <glyph glyph-name="H" unicode="H" horiz-adv-x="722" 
d="M67 729h150v-283h288v283h150v-729h-150v315h-288v-315h-150v729v0z" />
    <glyph glyph-name="I" unicode="I" 
d="M64 729h150v-729h-150v729v0z" />
    <glyph glyph-name="J" unicode="J" horiz-adv-x="556" 
d="M31 273h142v-36q1 -65 19.5 -93t61.5 -28q52 0 68.5 31t16.5 125v457h150v-427q0 -125 -33.5 -220.5t-189.5 -95.5q-67 0 -117 20t-79 59q-21 29 -30 69.5t-9 109.5v29v0z" />
    <glyph glyph-name="K" unicode="K" horiz-adv-x="722" 
d="M67 729h150v-314l297 314h189l-299 -302l318 -427h-192l-240 317l-73 -72v-245h-150v729v0z" />
    <glyph glyph-name="L" unicode="L" horiz-adv-x="611" 
d="M67 729h150v-598h354v-131h-504v729v0z" />
    <glyph glyph-name="M" unicode="M" horiz-adv-x="833" 
d="M67 729h230l93 -418q4 -18 7.5 -35.5t6.5 -34.5l2 -12l2 -12q2 -11 4.5 -22.5t4.5 -23.5q2 12 4.5 23.5t4.5 22.5l2 12t2 11q3 18 6.5 35.5t7.5 34.5l96 419h226v-729h-142v601l-135 -601h-145l-135 601v-601h-142v729v0z" />
    <glyph glyph-name="N" unicode="N" horiz-adv-x="722" 
d="M67 0v729h149l297 -508v508h142v-729h-142l-304 508v-508h-142v0z" />
    <glyph glyph-name="O" unicode="O" horiz-adv-x="778" 
d="M40 361q0 172 96.5 276.5t254.5 104.5q155 0 251 -101.5t96 -266.5q0 -172 -97 -280t-250 -108q-157 0 -254 103t-97 271v1zM195 374v-13t1 -12q4 -87 46 -160t145 -73q89 0 142.5 69.5t53.5 185.5q0 112 -51.5 176t-142.5 64q-88 0 -139.5 -63.5t-54.5 -174.5v1z" />
    <glyph glyph-name="P" unicode="P" horiz-adv-x="667" 
d="M67 729h300q59 -1 95.5 -9.5t65.5 -29.5q44 -31 67 -80t23 -114q0 -64 -22 -114t-66 -83q-31 -23 -68.5 -32.5t-99.5 -9.5l-145 1v-258h-150v729v0zM217 598v-209h117q68 -1 98.5 23t30.5 79q0 56 -30 81t-97 25l-119 1v0z" />
    <glyph glyph-name="Q" unicode="Q" horiz-adv-x="778" 
d="M659 114l81 -78l-81 -83l-84 83q-37 -26 -80 -37t-87 -13h-8h-8q-159 0 -255.5 103t-96.5 273q0 171 96.5 275.5t253.5 104.5q156 0 252 -101.5t96 -265.5v-4v-4q-1 -72 -22 -140t-57 -114v1zM549 216q17 31 25.5 69.5t8.5 85.5q0 112 -51.5 176t-142.5 64
q-90 0 -142 -67t-52 -183q0 -114 51.5 -179.5t140.5 -65.5q16 0 27 1t22 4q8 2 16.5 5.5t19.5 8.5l-69 67l75 80l71 -66v0z" />
    <glyph glyph-name="R" unicode="R" horiz-adv-x="722" 
d="M67 729h321q72 -1 109 -8.5t67 -27.5q3 -2 5.5 -3.5t4.5 -3.5q38 -28 57 -70.5t19 -96.5q0 -64 -24.5 -101t-79.5 -69q22 -9 35 -18.5t22 -21.5q20 -26 24.5 -66t4.5 -83v-6.5v-6.5v-3.5v-2.5q0 -44 5 -83t27 -58h-166q-4 10 -7 18t-5 16q-3 14 -4.5 31t-2.5 49v17.5
t-1 16.5q0 68 -16 103.5t-107 35.5l-138 1v-288h-150v729v0zM217 598v-187h143q77 -1 106 19.5t29 74.5q0 53 -28.5 72.5t-106.5 19.5l-143 1v0z" />
    <glyph glyph-name="S" unicode="S" horiz-adv-x="667" 
d="M40 228h144q14 -68 53 -95t106 -27q60 0 97.5 24t37.5 62q0 20 -15 35.5t-46 27.5l-222 86q-64 24 -102.5 65.5t-38.5 114.5q0 100 73.5 160.5t194.5 60.5q132 0 205 -60.5t79 -174.5l-146 1q-11 59 -43.5 86t-93.5 27q-54 0 -89 -24t-35 -60q0 -17 12.5 -31.5
t37.5 -24.5l229 -86q68 -28 108.5 -65.5t40.5 -117.5q0 -52 -23.5 -97t-67.5 -78q-37 -28 -83 -39.5t-111 -11.5q-92 0 -157 26t-103 78l-4 6l-4 6q-16 24 -23.5 52t-10.5 73v1z" />
    <glyph glyph-name="T" unicode="T" horiz-adv-x="611" 
d="M13 729h585v-131h-216v-598h-150v598h-219v131v0z" />
    <glyph glyph-name="U" unicode="U" horiz-adv-x="722" 
d="M505 729h150v-450q0 -72 -10 -114.5t-35 -77.5q-37 -50 -97.5 -75.5t-142.5 -25.5q-151 0 -227 68t-76 224v451h150v-447q0 -89 33 -127.5t109 -38.5q80 0 113 37.5t33 127.5v448v0z" />
    <glyph glyph-name="V" unicode="V" horiz-adv-x="667" 
d="M13 729h160l125 -413q7 -24 12.5 -47t11.5 -46q3 -11 6 -22.5t6 -23.5l12 46l12 46q3 12 6 23.5t6 22.5l129 414h155l-255 -729h-141l-245 729v0z" />
    <glyph glyph-name="W" unicode="W" horiz-adv-x="944" 
d="M13 729h157l93 -406q3 -18 6.5 -35t6.5 -34l6 -34l6 -34q2 11 3.5 22.5t3.5 22.5q1 6 1.5 11.5t1.5 11.5q3 17 5.5 34t5.5 34l76 407h172l76 -412q6 -35 11.5 -69.5t9.5 -69.5q2 12 4.5 23.5t4.5 22.5q4 23 8.5 46t9.5 46l100 413h150l-207 -729h-148l-84 416
q-3 16 -6.5 33.5t-6.5 35.5q-3 17 -5.5 34.5t-5.5 34.5q-3 -17 -5.5 -34.5t-5.5 -34.5q-3 -18 -6 -35.5t-6 -34.5l-83 -415h-144l-205 729v0z" />
    <glyph glyph-name="X" unicode="X" horiz-adv-x="667" 
d="M13 0l232 369l-223 360h172l137 -242l139 242h168l-225 -354l241 -375h-177l-146 264l-151 -264h-167v0z" />
    <glyph glyph-name="Y" unicode="Y" horiz-adv-x="667" 
d="M13 729h169l158 -314l152 314h162l-242 -456v-273h-150v273l-249 456v0z" />
    <glyph glyph-name="Z" unicode="Z" horiz-adv-x="611" 
d="M31 123l368 475h-357v131h538v-123l-369 -475h369v-131h-549v123v0z" />
    <glyph glyph-name="bracketleft" unicode="[" horiz-adv-x="333" 
d="M69 729h240v-123h-98v-688h98v-123h-240v934v0z" />
    <glyph glyph-name="backslash" unicode="\" 
d="M87 729l205 -934h-86l-205 934h86v0z" />
    <glyph glyph-name="bracketright" unicode="]" horiz-adv-x="333" 
d="M264 -205h-240v123h98v688h-98v123h240v-934v0z" />
    <glyph glyph-name="asciicircum" unicode="^" horiz-adv-x="584" 
d="M206 508h-62l119 223h58l119 -223h-62l-86 152l-86 -152v0z" />
    <glyph glyph-name="underscore" unicode="_" horiz-adv-x="556" 
d="M0 -88h556v-77h-556v77v0z" />
    <glyph glyph-name="grave" unicode="`" horiz-adv-x="333" 
d="M207 759l67 -148h-99l-116 148h148v0z" />
    <glyph glyph-name="a" unicode="a" horiz-adv-x="556" 
d="M48 362q5 94 62 139t169 45q82 0 135 -21t75 -64q0 -1 0.5 -1.5l0.5 -0.5q10 -19 13.5 -42t3.5 -68v-241v-26q0 -29 6.5 -48.5t19.5 -33.5h-144q-5 7 -9 13t-6 12q-4 9 -6 19.5t-2 25.5q-14 -15 -26.5 -27.5t-24.5 -21.5q-27 -20 -56 -27.5t-70 -7.5q-70 0 -114 43.5
t-44 114.5q0 69 34.5 109.5t108.5 56.5q38 8 85 15t104 12q0 48 -13.5 72.5t-69.5 24.5q-47 0 -70 -16.5t-30 -56.5l-132 1v0zM366 249q-19 -4 -33.5 -6t-25.5 -3q-7 -2 -13 -3l-12 -2q-5 -1 -9.5 -2t-9.5 -2q-50 -10 -70 -26.5t-20 -47.5q0 -27 20.5 -43.5t53.5 -16.5
q74 0 96.5 44t22.5 107v1z" />
    <glyph glyph-name="b" unicode="b" horiz-adv-x="611" 
d="M68 729h142v-277q7 9 14 17.5t13 15.5q30 33 62 47t73 14q95 0 151.5 -74t56.5 -197q0 -131 -59 -210t-157 -79q-52 0 -87 23.5t-67 80.5v-90h-142v729v0zM435 267q0 76 -28.5 117t-81.5 41t-82 -41t-29 -118t29 -118.5t82 -41.5t81.5 41.5t28.5 118.5v1z" />
    <glyph glyph-name="c" unicode="c" horiz-adv-x="556" 
d="M525 344h-142q-10 48 -31.5 69t-61.5 21q-55 0 -84.5 -44t-29.5 -126q0 -8 0.5 -16.5t0.5 -16.5q4 -50 26.5 -92t83.5 -42q40 0 62 23t34 76l142 1q-16 -104 -78 -157.5t-166 -53.5q-118 0 -184 72.5t-66 205.5q0 131 67 206.5t184 75.5q107 0 170 -52.5t73 -150.5v1z
" />
    <glyph glyph-name="d" unicode="d" horiz-adv-x="611" 
d="M401 455v274h142v-729h-142v94q-22 -56 -60 -82t-94 -26q-97 0 -156.5 76t-59.5 201q0 127 61.5 205t161.5 78q51 0 84.5 -21t62.5 -71v1zM176 266q0 -74 30 -117t81 -43q52 0 81.5 43.5t29.5 119.5q0 71 -30.5 113.5t-80.5 42.5q-51 0 -81 -43t-30 -117v1z" />
    <glyph glyph-name="e" unicode="e" horiz-adv-x="556" 
d="M178 239q5 -74 31 -108t75 -34q23 0 39 7.5t30 26.5q4 5 7.5 10.5t7.5 12.5l145 1q-34 -88 -90 -128.5t-143 -40.5q-117 0 -183 73.5t-66 203.5q0 134 65.5 208.5t182.5 74.5q119 0 182.5 -72.5t63.5 -209.5v-3.5v-2.5v-8.5t-1 -11.5l-346 1v0zM178 331h198
q-5 49 -30.5 76t-68.5 27t-68.5 -27t-30.5 -77v1z" />
    <glyph glyph-name="f" unicode="f" horiz-adv-x="333" 
d="M13 533h76q0 97 27.5 148t135.5 51q10 0 22.5 -0.5t25.5 -2.5q5 0 9.5 -0.5t8.5 -0.5v-113q-14 -3 -25.5 -4t-19.5 -2h-1.5h-1.5q-23 -2 -31 -9t-8 -36v-31h89v-101h-89v-432h-142v432h-76v101v0z" />
    <glyph glyph-name="g" unicode="g" horiz-adv-x="611" 
d="M43 -57h152q11 -28 30 -39t56 -11q69 0 94.5 36.5t25.5 135.5v23q-25 -50 -61.5 -71t-92.5 -21q-94 0 -155 74t-61 189q0 131 58.5 209t157.5 78q53 0 89.5 -21.5t64.5 -71.5v80h142v-455q0 -84 -6 -123t-23 -69q0 -1 -0.5 -1.5l-0.5 -0.5q-27 -49 -75 -71.5t-101 -28.5
l-28 -2t-28 -1q-88 0 -155.5 32.5t-82.5 129.5v0zM176 269q0 -73 29.5 -113t82.5 -40q52 0 80.5 40.5t28.5 114.5t-29 114t-82 40q-52 0 -81 -41t-29 -116v1z" />
    <glyph glyph-name="h" unicode="h" horiz-adv-x="611" 
d="M68 729h142v-265q13 15 25.5 27t23.5 22q24 18 50 25.5t60 7.5q52 0 93.5 -22.5t63.5 -61.5q1 -1 1.5 -2.5t1.5 -3.5q12 -22 16.5 -48t4.5 -68v-340h-142v315q0 57 -21.5 83.5t-67.5 26.5q-29 0 -55 -14.5t-37 -37.5l-2 -4l-2 -4q-9 -19 -11 -46t-2 -92v-227h-142v729v0z
" />
    <glyph glyph-name="i" unicode="i" 
d="M68 533h142v-533h-142v533v0zM68 729h141v-131h-141v131v0z" />
    <glyph glyph-name="j" unicode="j" 
d="M5 -104h3.5t2.5 -1h3.5h2.5q32 0 41.5 11t9.5 46v581h142v-547q0 -77 -6 -109.5t-25 -52.5t-50 -31.5t-69 -11.5q-7 0 -20.5 0.5t-34.5 1.5v113v0zM68 598v131h142v-131h-142v0z" />
    <glyph glyph-name="k" unicode="k" horiz-adv-x="556" 
d="M68 729h142v-403l175 207h171l-200 -207l200 -326h-171l-118 234l-57 -62v-172h-142v729v0z" />
    <glyph glyph-name="l" unicode="l" 
d="M68 729h142v-729h-142v729v0z" />
    <glyph glyph-name="m" unicode="m" horiz-adv-x="889" 
d="M68 533h142v-74q11 14 21.5 26t20.5 21q23 22 48 31t57 9q51 0 85.5 -22.5t53.5 -69.5q4 6 8.5 12t9.5 11q30 37 62.5 53t75.5 16q83 0 126.5 -51.5t43.5 -148.5v-346h-142v312q0 58 -18 85.5t-58 27.5q-49 0 -68.5 -34t-19.5 -118v-273h-142v317q0 58 -17 83t-58 25
q-48 0 -68.5 -34t-20.5 -114v-277h-142v533v0z" />
    <glyph glyph-name="n" unicode="n" horiz-adv-x="611" 
d="M68 533h142v-79q5 6 10 13t10 13q30 36 62.5 51t78.5 15q56 0 102.5 -28.5t62.5 -72.5q8 -21 11 -47t3 -67v-331h-142v320q0 53 -21 79t-65 26q-67 0 -89 -46t-23 -101v-4v-4v-270h-142v533v0z" />
    <glyph glyph-name="o" unicode="o" horiz-adv-x="611" 
d="M31 267q0 128 74 203.5t200 75.5q127 0 201 -75.5t74 -205.5q0 -129 -74 -204t-201 -75q-126 0 -200 75t-74 205v1zM176 267q0 -79 35 -124.5t95 -45.5q59 0 94 45.5t35 122.5q0 78 -35 123.5t-94 45.5q-60 0 -95 -45.5t-35 -122.5v1z" />
    <glyph glyph-name="p" unicode="p" horiz-adv-x="611" 
d="M68 533h142v-72q11 12 21.5 23t20.5 20q27 23 55 32.5t64 9.5q98 0 153.5 -73.5t55.5 -204.5q0 -130 -59.5 -206t-161.5 -76q-44 0 -75.5 15.5t-60.5 53.5q-3 5 -6.5 9.5t-6.5 9.5v-279h-142v738v0zM321 426q-55 -1 -85 -42.5t-30 -118.5q0 -76 30 -117.5t85 -41.5
t84.5 41.5t29.5 117.5q0 77 -29.5 118.5t-84.5 41.5v1z" />
    <glyph glyph-name="q" unicode="q" horiz-adv-x="611" 
d="M401 -205v271q-29 -44 -64.5 -62t-85.5 -18q-100 0 -160 74t-60 197q0 130 60.5 209.5t159.5 79.5q52 0 87 -21.5t63 -71.5v80h142v-738h-142v0zM176 266q0 -79 29 -119.5t84 -40.5q56 0 84.5 40.5t28.5 118.5q0 79 -28.5 119.5t-84.5 40.5q-55 0 -84 -40.5t-29 -119.5v1
z" />
    <glyph glyph-name="r" unicode="r" horiz-adv-x="389" 
d="M68 533h142v-84q22 42 57 68t72 29h3.5h3.5l4 1q6 -1 13 -1.5t14 -1.5v-143q-4 -1 -7.5 -0.5t-7.5 0.5q-2 0 -4 0.5t-4 0.5q-6 0 -11.5 0.5t-11.5 0.5q-60 0 -90.5 -34t-30.5 -101v-268h-142v533v0z" />
    <glyph glyph-name="s" unicode="s" horiz-adv-x="556" 
d="M31 173h143q9 -42 34 -59t77 -17q44 0 69.5 14t25.5 36q0 10 -3.5 17t-13.5 13q-7 4 -18 8.5t-28 9.5l-156 54q-56 18 -84 49.5t-28 75.5q0 76 64 124t165 48q71 0 122.5 -23.5t77.5 -67.5q2 -4 4 -7t4 -7q5 -11 8.5 -22.5t7.5 -29.5q0 -4 1 -9t2 -11l-138 1
q-6 35 -26 49.5t-64 14.5q-42 0 -66 -12.5t-24 -34.5q0 -9 6 -16t16 -11l221 -71q44 -15 70 -49t26 -77v-6t-1 -6q-4 -48 -41.5 -91t-89.5 -60q-2 0 -4.5 -0.5t-4.5 -0.5q-24 -7 -49 -10t-56 -3q-118 0 -181.5 47.5t-67.5 138.5v1z" />
    <glyph glyph-name="t" unicode="t" horiz-adv-x="333" 
d="M13 533h69v139h142v-139h87v-99h-87v-286q0 -35 11.5 -43.5t56.5 -8.5l19 1v-107q-8 -1 -16 -1.5t-17 -0.5q-13 -1 -26 -1.5t-24 -0.5q-94 0 -120 42t-26 127v279h-69v99v0z" />
    <glyph glyph-name="u" unicode="u" horiz-adv-x="611" 
d="M61 533h142v-310q0 -65 20 -91t69 -26q68 0 87.5 44.5t21.5 98.5v13v13v258h142v-533h-142v81q-2 -4 -4 -7l-4 -6q-31 -46 -65.5 -64t-85.5 -18q-55 0 -98.5 25t-62.5 67q0 1 -0.5 1.5t-0.5 1.5q-11 25 -15 53.5t-4 75.5v323v0z" />
    <glyph glyph-name="v" unicode="v" horiz-adv-x="556" 
d="M13 533h153l87 -298q7 -26 13 -50.5t12 -49.5q3 12 6 24.5t7 25.5q3 12 6 24.5t6 24.5l88 299h152l-193 -533h-148l-189 533v0z" />
    <glyph glyph-name="w" unicode="w" horiz-adv-x="778" 
d="M13 533h149l44 -198q2 -13 4.5 -25.5t5.5 -24.5q2 -12 4.5 -24.5t4.5 -24.5l18 -98l15 99q2 11 4 23.5t4 24.5t4 24.5t4 24.5l37 199h156l39 -198q2 -13 4.5 -25.5t4.5 -24.5t4 -24.5t4 -24.5l16 -98l18 99q3 11 5.5 23.5t4.5 24.5t4.5 24.5t5.5 24.5l44 199h144
l-152 -533h-147l-42 193q-5 23 -9.5 47t-8.5 49q-2 8 -3.5 16t-2.5 16l-6 32l-6 32q-4 -24 -9 -48t-9 -48q-5 -25 -9.5 -49t-9.5 -48l-43 -192h-146l-149 533v0z" />
    <glyph glyph-name="x" unicode="x" horiz-adv-x="556" 
d="M278 175q-2 -6 -4 -10.5t-4 -9.5q-3 -6 -6 -12.5t-7 -12.5q-5 -10 -11 -21t-14 -23l-52 -86h-167l181 270l-171 263h171q4 -8 7.5 -14.5t7.5 -13.5q2 -4 4.5 -8.5t5.5 -9.5q16 -29 32 -59t27 -61q11 31 27 61t32 59q3 5 5.5 9.5t4.5 8.5q4 7 7.5 13.5t7.5 13.5l171 1
l-171 -263l181 -270h-167l-52 87q-7 11 -13.5 22t-11.5 21q-4 6 -7 12.5t-6 12.5q-2 5 -4 9.5t-4 9.5v1z" />
    <glyph glyph-name="y" unicode="y" horiz-adv-x="556" 
d="M168 533l88 -302q3 -14 6.5 -26.5t6.5 -24.5q3 -13 6 -25.5t6 -25.5q3 13 6 25.5t6 25.5l2 8l2 8q2 9 4 17.5t4 16.5l88 303h150l-173 -498q-32 -93 -52 -139.5t-38 -69.5q-3 -4 -6 -7.5t-6 -6.5q-16 -16 -43 -23.5t-67 -7.5h-9h-9q-10 1 -21.5 1.5t-30.5 1.5v112h12
t12 -1h11h12q32 0 47 17t25 64l-194 557h155v0z" />
    <glyph glyph-name="z" unicode="z" horiz-adv-x="500" 
d="M22 112l278 302h-259v119h429v-119l-273 -295h281v-119h-456v112v0z" />
    <glyph glyph-name="braceleft" unicode="{" horiz-adv-x="389" 
d="M178 253q50 -14 70.5 -41.5t20.5 -83.5v-241q0 -42 21 -69t64 -37q-13 -1 -26.5 -1h-26.5q-78 0 -126 22.5t-48 115.5v234q0 43 -19 66.5t-63 33.5q42 11 62 35t20 65v254q0 83 54 102.5t119 19.5h4h4l46 1q-4 -2 -7 -3t-5 -2q-37 -12 -55 -37t-18 -66v-252
q0 -53 -20 -78t-71 -39v1z" />
    <glyph glyph-name="bar" unicode="|" horiz-adv-x="280" 
d="M101 729h78v-875h-78v875v0z" />
    <glyph glyph-name="braceright" unicode="}" horiz-adv-x="389" 
d="M212 253q-52 13 -71.5 38t-19.5 77v254q0 45 -18 65t-53 35q-3 2 -6.5 3.5t-7.5 2.5l46 1q68 -1 124.5 -18t56.5 -106v-252q0 -42 19.5 -66t62.5 -35q-43 -10 -62.5 -33.5t-19.5 -67.5v-233q0 -89 -48 -113.5t-126 -24.5h-13.5h-12.5q-7 0 -13.5 0.5t-13.5 0.5
q42 10 63.5 36.5t21.5 69.5v242q0 55 20 82.5t71 40.5v1z" />
    <glyph glyph-name="asciitilde" unicode="~" horiz-adv-x="585" 
d="M497 427l38 -28q-6 -11 -12 -21.5t-13 -21.5q-19 -30 -43.5 -55.5t-60.5 -25.5q-30 0 -57.5 11t-53.5 24q-27 13 -54.5 24t-57.5 11q-23 0 -41 -10t-35 -34q-5 -7 -10 -15t-10 -17l-37 30q26 45 44 71.5t35 40.5q13 9 26.5 13t29.5 4q30 0 57 -11t54 -24q26 -13 53 -24
t57 -11q20 0 35 6.5t29 21.5q6 8 13 18t14 22v1z" />
    <glyph glyph-name="Adieresis" unicode="&#xc4;" horiz-adv-x="722" 
d="M18 0l260 729h169l257 -729h-163l-50 153h-265l-50 -153h-158v0zM268 276h183l-91 286l-92 -286v0zM211 944h113v-129h-113v129v0zM399 944h113v-129h-113v129v0z" />
    <glyph glyph-name="Aring" unicode="&#xc5;" horiz-adv-x="722" 
d="M18 0l260 729h169l257 -729h-163l-50 153h-265l-50 -153h-158v0zM268 276h183l-91 286l-92 -286v0zM362 995q44 -1 74.5 -32t30.5 -75q0 -43 -30.5 -74.5t-74.5 -31.5t-75 31.5t-31 74.5q0 44 31 75t75 31v1zM362 932q-17 -1 -29 -13.5t-12 -30.5t12 -30.5t29 -12.5
t28.5 12.5t11.5 30.5t-11.5 30.5t-28.5 12.5v1z" />
    <glyph glyph-name="Ccedilla" unicode="&#xc7;" horiz-adv-x="722" 
d="M388 -14l-34 -53q13 2 20.5 3.5t14.5 1.5h3.5h3.5q41 0 66 -21t25 -55q0 -42 -36 -68t-94 -26q-24 0 -51 5t-54 15q-4 1 -8 2.5t-8 3.5l20 45q22 -8 37.5 -11.5t30.5 -5.5q5 0 11 -0.5t12 -0.5q21 0 33.5 10t12.5 27q0 16 -12.5 26.5t-32.5 10.5h-5.5t-5.5 -1
q-6 0 -12.5 -2t-17.5 -6l-23 22l51 80q-137 12 -216 111t-79 259q0 176 91.5 280t245.5 104q128 0 211 -69.5t94 -186.5l-151 1q-16 64 -51 94t-96 30q-91 0 -140 -66t-49 -188q0 -113 48 -177t133 -64q60 0 98 34t57 104l151 1q-2 -12 -3.5 -20t-2.5 -15q-1 -3 -1.5 -6
t-1.5 -6t-1.5 -6t-1.5 -6q-28 -95 -106 -150.5t-176 -59.5v0z" />
    <glyph glyph-name="Eacute" unicode="&#xc9;" horiz-adv-x="667" 
d="M67 729h525v-131h-375v-157h342v-123h-342v-187h391v-131h-541v729v0zM350 955h148l-116 -148h-99l67 148v0z" />
    <glyph glyph-name="Ntilde" unicode="&#xd1;" horiz-adv-x="722" 
d="M67 0v729h149l297 -508v508h142v-729h-142l-304 508v-508h-142v0zM460 948h68q-15 -70 -42 -103t-69 -33h-7.5t-6.5 1q-11 1 -24 6t-33 15q-13 8 -22.5 11t-14.5 3q-15 0 -24 -5.5t-16 -19.5q-1 -2 -2.5 -4.5t-2.5 -5.5l-69 1q17 70 44 102.5t69 32.5q16 0 30.5 -5.5
t27.5 -11.5q1 0 1 -0.5t1 -0.5q12 -5 24.5 -10.5t26.5 -6.5l1 1q9 -1 15 1.5t11 8.5q4 4 7 9.5t7 12.5v1z" />
    <glyph glyph-name="Odieresis" unicode="&#xd6;" horiz-adv-x="778" 
d="M40 361q0 172 96.5 276.5t254.5 104.5q155 0 251 -101.5t96 -266.5q0 -172 -97 -280t-250 -108q-157 0 -254 103t-97 271v1zM195 374v-13t1 -12q4 -87 46 -160t145 -73q89 0 142.5 69.5t53.5 185.5q0 112 -51.5 176t-142.5 64q-88 0 -139.5 -63.5t-54.5 -174.5v1z
M239 944h113v-129h-113v129v0zM427 944h113v-129h-113v129v0z" />
    <glyph glyph-name="Udieresis" unicode="&#xdc;" horiz-adv-x="722" 
d="M505 729h150v-450q0 -72 -10 -114.5t-35 -77.5q-37 -50 -97.5 -75.5t-142.5 -25.5q-151 0 -227 68t-76 224v451h150v-447q0 -89 33 -127.5t109 -38.5q80 0 113 37.5t33 127.5v448v0zM211 944h113v-129h-113v129v0zM399 944h113v-129h-113v129v0z" />
    <glyph glyph-name="aacute" unicode="&#xe1;" horiz-adv-x="556" 
d="M48 362q5 94 62 139t169 45q82 0 135 -21t75 -64q0 -1 0.5 -1.5l0.5 -0.5q10 -19 13.5 -42t3.5 -68v-241v-26q0 -29 6.5 -48.5t19.5 -33.5h-144q-5 7 -9 13t-6 12q-4 9 -6 19.5t-2 25.5q-14 -15 -26.5 -27.5t-24.5 -21.5q-27 -20 -56 -27.5t-70 -7.5q-70 0 -114 43.5
t-44 114.5q0 69 34.5 109.5t108.5 56.5q38 8 85 15t104 12q0 48 -13.5 72.5t-69.5 24.5q-47 0 -70 -16.5t-30 -56.5l-132 1v0zM366 249q-19 -4 -33.5 -6t-25.5 -3q-7 -2 -13 -3l-12 -2q-5 -1 -9.5 -2t-9.5 -2q-50 -10 -70 -26.5t-20 -47.5q0 -27 20.5 -43.5t53.5 -16.5
q74 0 96.5 44t22.5 107v1zM292 759h148l-116 -148h-99l67 148v0z" />
    <glyph glyph-name="agrave" unicode="&#xe0;" horiz-adv-x="556" 
d="M48 362q5 94 62 139t169 45q82 0 135 -21t75 -64q0 -1 0.5 -1.5l0.5 -0.5q10 -19 13.5 -42t3.5 -68v-241v-26q0 -29 6.5 -48.5t19.5 -33.5h-144q-5 7 -9 13t-6 12q-4 9 -6 19.5t-2 25.5q-14 -15 -26.5 -27.5t-24.5 -21.5q-27 -20 -56 -27.5t-70 -7.5q-70 0 -114 43.5
t-44 114.5q0 69 34.5 109.5t108.5 56.5q38 8 85 15t104 12q0 48 -13.5 72.5t-69.5 24.5q-47 0 -70 -16.5t-30 -56.5l-132 1v0zM366 249q-19 -4 -33.5 -6t-25.5 -3q-7 -2 -13 -3l-12 -2q-5 -1 -9.5 -2t-9.5 -2q-50 -10 -70 -26.5t-20 -47.5q0 -27 20.5 -43.5t53.5 -16.5
q74 0 96.5 44t22.5 107v1zM266 759l67 -148h-99l-116 148h148v0z" />
    <glyph glyph-name="acircumflex" unicode="&#xe2;" horiz-adv-x="556" 
d="M48 362q5 94 62 139t169 45q82 0 135 -21t75 -64q0 -1 0.5 -1.5l0.5 -0.5q10 -19 13.5 -42t3.5 -68v-241v-26q0 -29 6.5 -48.5t19.5 -33.5h-144q-5 7 -9 13t-6 12q-4 9 -6 19.5t-2 25.5q-14 -15 -26.5 -27.5t-24.5 -21.5q-27 -20 -56 -27.5t-70 -7.5q-70 0 -114 43.5
t-44 114.5q0 69 34.5 109.5t108.5 56.5q38 8 85 15t104 12q0 48 -13.5 72.5t-69.5 24.5q-47 0 -70 -16.5t-30 -56.5l-132 1v0zM366 249q-19 -4 -33.5 -6t-25.5 -3q-7 -2 -13 -3l-12 -2q-5 -1 -9.5 -2t-9.5 -2q-50 -10 -70 -26.5t-20 -47.5q0 -27 20.5 -43.5t53.5 -16.5
q74 0 96.5 44t22.5 107v1zM278 679l-57 -69h-103l103 149h118l102 -149h-108l-55 69v0z" />
    <glyph glyph-name="adieresis" unicode="&#xe4;" horiz-adv-x="556" 
d="M48 362q5 94 62 139t169 45q82 0 135 -21t75 -64q0 -1 0.5 -1.5l0.5 -0.5q10 -19 13.5 -42t3.5 -68v-241v-26q0 -29 6.5 -48.5t19.5 -33.5h-144q-5 7 -9 13t-6 12q-4 9 -6 19.5t-2 25.5q-14 -15 -26.5 -27.5t-24.5 -21.5q-27 -20 -56 -27.5t-70 -7.5q-70 0 -114 43.5
t-44 114.5q0 69 34.5 109.5t108.5 56.5q38 8 85 15t104 12q0 48 -13.5 72.5t-69.5 24.5q-47 0 -70 -16.5t-30 -56.5l-132 1v0zM366 249q-19 -4 -33.5 -6t-25.5 -3q-7 -2 -13 -3l-12 -2q-5 -1 -9.5 -2t-9.5 -2q-50 -10 -70 -26.5t-20 -47.5q0 -27 20.5 -43.5t53.5 -16.5
q74 0 96.5 44t22.5 107v1zM132 749h113v-129h-113v129v0zM320 749h113v-129h-113v129v0z" />
    <glyph glyph-name="atilde" unicode="&#xe3;" horiz-adv-x="556" 
d="M48 362q5 94 62 139t169 45q82 0 135 -21t75 -64q0 -1 0.5 -1.5l0.5 -0.5q10 -19 13.5 -42t3.5 -68v-241v-26q0 -29 6.5 -48.5t19.5 -33.5h-144q-5 7 -9 13t-6 12q-4 9 -6 19.5t-2 25.5q-14 -15 -26.5 -27.5t-24.5 -21.5q-27 -20 -56 -27.5t-70 -7.5q-70 0 -114 43.5
t-44 114.5q0 69 34.5 109.5t108.5 56.5q38 8 85 15t104 12q0 48 -13.5 72.5t-69.5 24.5q-47 0 -70 -16.5t-30 -56.5l-132 1v0zM366 249q-19 -4 -33.5 -6t-25.5 -3q-7 -2 -13 -3l-12 -2q-5 -1 -9.5 -2t-9.5 -2q-50 -10 -70 -26.5t-20 -47.5q0 -27 20.5 -43.5t53.5 -16.5
q74 0 96.5 44t22.5 107v1zM378 751h68q-15 -70 -42 -103t-69 -33h-7.5t-6.5 1q-11 1 -24 6t-33 15q-13 8 -22.5 11t-14.5 3q-15 0 -24 -5.5t-16 -19.5q-1 -2 -2.5 -4.5t-2.5 -5.5l-69 1q17 70 44 102.5t69 32.5q16 0 30.5 -5.5t27.5 -11.5q1 0 1 -0.5t1 -0.5
q12 -5 24.5 -10.5t26.5 -6.5l1 1q9 -1 15 1.5t11 8.5q4 4 7 9.5t7 12.5v1z" />
    <glyph glyph-name="aring" unicode="&#xe5;" horiz-adv-x="556" 
d="M48 362q5 94 62 139t169 45q82 0 135 -21t75 -64q0 -1 0.5 -1.5l0.5 -0.5q10 -19 13.5 -42t3.5 -68v-241v-26q0 -29 6.5 -48.5t19.5 -33.5h-144q-5 7 -9 13t-6 12q-4 9 -6 19.5t-2 25.5q-14 -15 -26.5 -27.5t-24.5 -21.5q-27 -20 -56 -27.5t-70 -7.5q-70 0 -114 43.5
t-44 114.5q0 69 34.5 109.5t108.5 56.5q38 8 85 15t104 12q0 48 -13.5 72.5t-69.5 24.5q-47 0 -70 -16.5t-30 -56.5l-132 1v0zM366 249q-19 -4 -33.5 -6t-25.5 -3q-7 -2 -13 -3l-12 -2q-5 -1 -9.5 -2t-9.5 -2q-50 -10 -70 -26.5t-20 -47.5q0 -27 20.5 -43.5t53.5 -16.5
q74 0 96.5 44t22.5 107v1zM280 791q44 -1 74.5 -32t30.5 -75q0 -43 -30.5 -74.5t-74.5 -31.5t-75 31.5t-31 74.5q0 44 31 75t75 31v1zM280 728q-17 -1 -29 -13.5t-12 -30.5t12 -30.5t29 -12.5t28.5 12.5t11.5 30.5t-11.5 30.5t-28.5 12.5v1z" />
    <glyph glyph-name="ccedilla" unicode="&#xe7;" horiz-adv-x="556" 
d="M299 -14l-32 -51q11 2 18 3l14 2h4h4q40 0 64.5 -20t24.5 -53q0 -42 -34.5 -67t-92.5 -25q-26 0 -55.5 6t-61.5 19l20 44q21 -8 36.5 -12t29.5 -5q5 -1 10 -1h10q20 0 32 9.5t12 26.5q0 16 -12 26t-31 10h-5t-5 -1q-5 0 -11.5 -2t-16.5 -5l-22 21l49 77q-103 9 -160 81
t-57 195q0 132 67.5 207t186.5 75q104 0 167 -52.5t73 -150.5l-142 1q-10 47 -31.5 68.5t-61.5 21.5q-55 0 -84.5 -44t-29.5 -126q0 -8 0.5 -16.5t0.5 -16.5q4 -50 26.5 -92t83.5 -42q40 0 62 23t34 76l142 1q-15 -100 -72.5 -153.5t-153.5 -57.5v0z" />
    <glyph glyph-name="eacute" unicode="&#xe9;" horiz-adv-x="556" 
d="M178 239q5 -74 31 -108t75 -34q23 0 39 7.5t30 26.5q4 5 7.5 10.5t7.5 12.5l145 1q-34 -88 -90 -128.5t-143 -40.5q-117 0 -183 73.5t-66 203.5q0 134 65.5 208.5t182.5 74.5q119 0 182.5 -72.5t63.5 -209.5v-3.5v-2.5v-8.5t-1 -11.5l-346 1v0zM178 331h198
q-5 49 -30.5 76t-68.5 27t-68.5 -27t-30.5 -77v1zM275 766h148l-116 -148h-99l67 148v0z" />
    <glyph glyph-name="egrave" unicode="&#xe8;" horiz-adv-x="556" 
d="M178 239q5 -74 31 -108t75 -34q23 0 39 7.5t30 26.5q4 5 7.5 10.5t7.5 12.5l145 1q-34 -88 -90 -128.5t-143 -40.5q-117 0 -183 73.5t-66 203.5q0 134 65.5 208.5t182.5 74.5q119 0 182.5 -72.5t63.5 -209.5v-3.5v-2.5v-8.5t-1 -11.5l-346 1v0zM178 331h198
q-5 49 -30.5 76t-68.5 27t-68.5 -27t-30.5 -77v1zM259 759l67 -148h-99l-116 148h148v0z" />
    <glyph glyph-name="ecircumflex" unicode="&#xea;" horiz-adv-x="556" 
d="M178 239q5 -74 31 -108t75 -34q23 0 39 7.5t30 26.5q4 5 7.5 10.5t7.5 12.5l145 1q-34 -88 -90 -128.5t-143 -40.5q-117 0 -183 73.5t-66 203.5q0 134 65.5 208.5t182.5 74.5q119 0 182.5 -72.5t63.5 -209.5v-3.5v-2.5v-8.5t-1 -11.5l-346 1v0zM178 331h198
q-5 49 -30.5 76t-68.5 27t-68.5 -27t-30.5 -77v1zM277 679l-57 -69h-103l103 149h118l102 -149h-108l-55 69v0z" />
    <glyph glyph-name="edieresis" unicode="&#xeb;" horiz-adv-x="556" 
d="M178 239q5 -74 31 -108t75 -34q23 0 39 7.5t30 26.5q4 5 7.5 10.5t7.5 12.5l145 1q-34 -88 -90 -128.5t-143 -40.5q-117 0 -183 73.5t-66 203.5q0 134 65.5 208.5t182.5 74.5q119 0 182.5 -72.5t63.5 -209.5v-3.5v-2.5v-8.5t-1 -11.5l-346 1v0zM178 331h198
q-5 49 -30.5 76t-68.5 27t-68.5 -27t-30.5 -77v1zM128 749h113v-129h-113v129v0zM316 749h113v-129h-113v129v0z" />
    <glyph glyph-name="iacute" unicode="&#xed;" 
d="M68 533h142v-533h-142v533v0zM130 759h148l-116 -148h-99l67 148v0z" />
    <glyph glyph-name="igrave" unicode="&#xec;" 
d="M68 533h142v-533h-142v533v0zM148 759l67 -148h-99l-116 148h148v0z" />
    <glyph glyph-name="icircumflex" unicode="&#xee;" 
d="M68 533h142v-533h-142v533v0zM138 679l-57 -69h-103l103 149h118l102 -149h-108l-55 69v0z" />
    <glyph glyph-name="idieresis" unicode="&#xef;" 
d="M68 533h142v-533h-142v533v0zM-11 749h113v-129h-113v129v0zM177 749h113v-129h-113v129v0z" />
    <glyph glyph-name="ntilde" unicode="&#xf1;" horiz-adv-x="611" 
d="M68 533h142v-79q5 6 10 13t10 13q30 36 62.5 51t78.5 15q56 0 102.5 -28.5t62.5 -72.5q8 -21 11 -47t3 -67v-331h-142v320q0 53 -21 79t-65 26q-67 0 -89 -46t-23 -101v-4v-4v-270h-142v533v0zM410 750h68q-15 -70 -42 -103t-69 -33h-7.5t-6.5 1q-11 1 -24 6t-33 15
q-13 8 -22.5 11t-14.5 3q-15 0 -24 -5.5t-16 -19.5q-1 -2 -2.5 -4.5t-2.5 -5.5l-69 1q17 70 44 102.5t69 32.5q16 0 30.5 -5.5t27.5 -11.5q1 0 1 -0.5t1 -0.5q12 -5 24.5 -10.5t26.5 -6.5l1 1q9 -1 15 1.5t11 8.5q4 4 7 9.5t7 12.5v1z" />
    <glyph glyph-name="oacute" unicode="&#xf3;" horiz-adv-x="611" 
d="M31 267q0 128 74 203.5t200 75.5q127 0 201 -75.5t74 -205.5q0 -129 -74 -204t-201 -75q-126 0 -200 75t-74 205v1zM176 267q0 -79 35 -124.5t95 -45.5q59 0 94 45.5t35 122.5q0 78 -35 123.5t-94 45.5q-60 0 -95 -45.5t-35 -122.5v1zM325 759h148l-116 -148h-99l67 148
v0z" />
    <glyph glyph-name="ograve" unicode="&#xf2;" horiz-adv-x="611" 
d="M31 267q0 128 74 203.5t200 75.5q127 0 201 -75.5t74 -205.5q0 -129 -74 -204t-201 -75q-126 0 -200 75t-74 205v1zM176 267q0 -79 35 -124.5t95 -45.5q59 0 94 45.5t35 122.5q0 78 -35 123.5t-94 45.5q-60 0 -95 -45.5t-35 -122.5v1zM286 759l67 -148h-99l-116 148h148
v0z" />
    <glyph glyph-name="ocircumflex" unicode="&#xf4;" horiz-adv-x="611" 
d="M31 267q0 128 74 203.5t200 75.5q127 0 201 -75.5t74 -205.5q0 -129 -74 -204t-201 -75q-126 0 -200 75t-74 205v1zM176 267q0 -79 35 -124.5t95 -45.5q59 0 94 45.5t35 122.5q0 78 -35 123.5t-94 45.5q-60 0 -95 -45.5t-35 -122.5v1zM304 679l-57 -69h-103l103 149h118
l102 -149h-108l-55 69v0z" />
    <glyph glyph-name="odieresis" unicode="&#xf6;" horiz-adv-x="611" 
d="M31 267q0 128 74 203.5t200 75.5q127 0 201 -75.5t74 -205.5q0 -129 -74 -204t-201 -75q-126 0 -200 75t-74 205v1zM176 267q0 -79 35 -124.5t95 -45.5q59 0 94 45.5t35 122.5q0 78 -35 123.5t-94 45.5q-60 0 -95 -45.5t-35 -122.5v1zM155 749h113v-129h-113v129v0z
M343 749h113v-129h-113v129v0z" />
    <glyph glyph-name="otilde" unicode="&#xf5;" horiz-adv-x="611" 
d="M31 267q0 128 74 203.5t200 75.5q127 0 201 -75.5t74 -205.5q0 -129 -74 -204t-201 -75q-126 0 -200 75t-74 205v1zM176 267q0 -79 35 -124.5t95 -45.5q59 0 94 45.5t35 122.5q0 78 -35 123.5t-94 45.5q-60 0 -95 -45.5t-35 -122.5v1zM404 750h68q-15 -70 -42 -103
t-69 -33h-7.5t-6.5 1q-11 1 -24 6t-33 15q-13 8 -22.5 11t-14.5 3q-15 0 -24 -5.5t-16 -19.5q-1 -2 -2.5 -4.5t-2.5 -5.5l-69 1q17 70 44 102.5t69 32.5q16 0 30.5 -5.5t27.5 -11.5q1 0 1 -0.5t1 -0.5q12 -5 24.5 -10.5t26.5 -6.5l1 1q9 -1 15 1.5t11 8.5q4 4 7 9.5t7 12.5
v1z" />
    <glyph glyph-name="uacute" unicode="&#xfa;" horiz-adv-x="611" 
d="M61 533h142v-310q0 -65 20 -91t69 -26q68 0 87.5 44.5t21.5 98.5v13v13v258h142v-533h-142v81q-2 -4 -4 -7l-4 -6q-31 -46 -65.5 -64t-85.5 -18q-55 0 -98.5 25t-62.5 67q0 1 -0.5 1.5t-0.5 1.5q-11 25 -15 53.5t-4 75.5v323v0zM314 759h148l-116 -148h-99l67 148v0z" />
    <glyph glyph-name="ugrave" unicode="&#xf9;" horiz-adv-x="611" 
d="M61 533h142v-310q0 -65 20 -91t69 -26q68 0 87.5 44.5t21.5 98.5v13v13v258h142v-533h-142v81q-2 -4 -4 -7l-4 -6q-31 -46 -65.5 -64t-85.5 -18q-55 0 -98.5 25t-62.5 67q0 1 -0.5 1.5t-0.5 1.5q-11 25 -15 53.5t-4 75.5v323v0zM288 759l67 -148h-99l-116 148h148v0z" />
    <glyph glyph-name="ucircumflex" unicode="&#xfb;" horiz-adv-x="611" 
d="M61 533h142v-310q0 -65 20 -91t69 -26q68 0 87.5 44.5t21.5 98.5v13v13v258h142v-533h-142v81q-2 -4 -4 -7l-4 -6q-31 -46 -65.5 -64t-85.5 -18q-55 0 -98.5 25t-62.5 67q0 1 -0.5 1.5t-0.5 1.5q-11 25 -15 53.5t-4 75.5v323v0zM301 679l-57 -69h-103l103 149h118
l102 -149h-108l-55 69v0z" />
    <glyph glyph-name="udieresis" unicode="&#xfc;" horiz-adv-x="611" 
d="M61 533h142v-310q0 -65 20 -91t69 -26q68 0 87.5 44.5t21.5 98.5v13v13v258h142v-533h-142v81q-2 -4 -4 -7l-4 -6q-31 -46 -65.5 -64t-85.5 -18q-55 0 -98.5 25t-62.5 67q0 1 -0.5 1.5t-0.5 1.5q-11 25 -15 53.5t-4 75.5v323v0zM152 749h113v-129h-113v129v0zM340 749
h113v-129h-113v129v0z" />
    <glyph glyph-name="dagger" unicode="&#x2020;" horiz-adv-x="556" 
d="M39 533h172v196h132v-196h174v-123h-174v-549h-132v549h-172v123v0z" />
    <glyph glyph-name="degree" horiz-adv-x="556" 
d="M461 560q0 -77 -53 -131t-130 -54q-76 0 -130 53.5t-54 128.5q0 77 54 131t130 54t129.5 -53.5t53.5 -129.5v1zM381 558q0 41 -30.5 71t-74.5 30q-41 0 -71.5 -29.5t-30.5 -70.5t30.5 -71t73.5 -30q41 0 72 29.5t31 69.5v1z" />
    <glyph glyph-name="cent" unicode="&#xa2;" horiz-adv-x="556" 
d="M254 644v85h63v-85q90 -9 141.5 -60.5t62.5 -144.5l-138 1q-8 43 -21.5 60.5t-44.5 24.5v-320q27 4 41.5 23t24.5 65l138 1q-16 -95 -67 -147t-137 -61v-100h-63v101q-107 11 -163 80t-56 191q0 111 51.5 190t167.5 95v1zM254 525q-42 -15 -61.5 -55t-19.5 -113
q0 -68 20 -106t61 -49v323v0z" />
    <glyph glyph-name="sterling" unicode="&#xa3;" horiz-adv-x="556" 
d="M510 484h-130q-1 61 -26.5 92.5t-74.5 31.5q-40 0 -67 -27t-27 -68q0 -25 9 -48t20 -46q3 -7 6.5 -14t6.5 -14l156 1v-75h-133q5 -16 7.5 -25.5t3.5 -18.5q1 -4 1 -8v-8q0 -20 -4 -37t-12 -33q-10 -18 -25 -36t-38 -39q16 9 30.5 14.5t27.5 7.5q6 1 12 1.5t12 0.5
q17 0 32.5 -5t30.5 -10q1 -1 2 -1.5t2 -0.5q15 -5 29.5 -9.5t29.5 -4.5q24 0 46.5 12.5t39.5 34.5l56 -103q-25 -30 -65 -46.5t-84 -16.5q-26 0 -50.5 6t-48.5 13q-24 8 -48.5 14t-50.5 6q-9 0 -18 -1t-18 -4q-15 -4 -30.5 -12t-33.5 -22l-57 92q19 14 34.5 28t26.5 28
q22 25 32 51.5t10 55.5v7.5t-1 7.5q-1 13 -5.5 27t-12.5 33l-90 1v75h63q-19 31 -29 63.5t-10 66.5q0 92 63 149t166 57q110 0 171.5 -64t62.5 -181v1z" />
    <glyph glyph-name="section" unicode="&#xa7;" horiz-adv-x="556" 
d="M123 455q-12 13 -20.5 24.5t-14.5 22.5q-7 15 -9.5 30t-2.5 36q0 77 58 126t148 49q97 0 153.5 -53.5t56.5 -151.5l-136 1q-1 46 -19 69t-53 23q-28 0 -45.5 -15.5t-17.5 -40.5q0 -24 24 -47.5t52 -42.5q17 -12 32.5 -21.5t26.5 -17.5q11 -7 22.5 -14.5t23.5 -15.5
q50 -32 91 -74.5t41 -106.5q0 -31 -7 -55t-25 -47q-12 -14 -29.5 -29.5t-40.5 -32.5q13 -17 21.5 -30t13.5 -25q4 -12 6 -24t2 -27q0 -74 -56.5 -122t-144.5 -48q-97 0 -153 53t-58 146h137q5 -47 22.5 -67t51.5 -20q28 0 45.5 15t17.5 39q0 22 -22 42.5t-49 38.5
q-15 10 -30 18.5t-25 15.5l-88 58q-51 31 -76 72t-25 91q0 32 7.5 55t25.5 45q12 14 28.5 27.5t39.5 29.5v1zM197 393q-15 -15 -24 -26t-14 -21q-4 -8 -5.5 -16.5t-1.5 -17.5q0 -24 18 -42.5t39 -32.5l18 -12t17 -11l112 -76q20 18 31 32t15 28q1 4 1.5 8.5t0.5 9.5
q0 7 -1 14t-5 13q-7 15 -29.5 33t-70.5 49l-101 68v0z" />
    <glyph glyph-name="bullet" horiz-adv-x="600" 
d="M198 286q0 39 28 67t68 28q41 0 69.5 -28t28.5 -68t-28.5 -68t-69.5 -28q-40 0 -68 28t-28 68v1z" />
    <glyph glyph-name="paragraph" unicode="&#xb6;" horiz-adv-x="556" 
d="M243 -143v487q-91 1 -145.5 48t-54.5 141q0 116 70.5 155.5t170.5 39.5l253 1v-76h-40v-796h-95v796h-63v-796h-96v0z" />
    <glyph glyph-name="germandbls" unicode="&#xdf;" horiz-adv-x="611" 
d="M273 105q9 -2 14.5 -3t10.5 -1h5.5h5.5q60 0 93 33.5t33 94.5q0 62 -35.5 94t-103.5 32h-1.5h-0.5q-4 0 -8.5 -0.5t-12.5 -1.5v94q3 -1 5.5 -1h5.5q2 -1 4.5 -1h5.5q50 0 79 25.5t29 68.5q0 40 -25.5 63.5t-69.5 23.5q-55 0 -76.5 -28.5t-21.5 -104.5v-493h-142v467
q0 72 8 111t29 70q30 45 84 69.5t123 24.5q104 0 167.5 -52t63.5 -138q0 -50 -25.5 -89.5t-69.5 -55.5q64 -14 98.5 -63t34.5 -123q0 -108 -67.5 -171.5t-173.5 -63.5h-14.5t-13.5 1q-8 0 -17 1.5l-21 3.5v113v0z" />
    <glyph glyph-name="registered" unicode="&#xae;" horiz-adv-x="737" 
d="M737 364q0 -153 -108 -260.5t-260 -107.5q-153 0 -261 107.5t-108 259.5t108 260t261 108q152 0 260 -108t108 -260v1zM661 365q0 120 -85.5 205t-206.5 85t-207 -85t-86 -205t85.5 -204.5t206.5 -84.5q122 0 207.5 84.5t85.5 203.5v1zM216 565h178q76 -1 111 -29.5
t35 -88.5q0 -29 -7.5 -47t-27.5 -35q-4 -2 -8 -5l-8 -6q3 -2 6 -3.5t6 -3.5q18 -12 22.5 -30t6.5 -68v-6t1 -6q1 -37 4 -50t11 -21q2 -1 3.5 -2.5l3.5 -3.5l-101 1q-3 6 -4.5 11t-2.5 10q-2 8 -3 17.5t-1 26.5q-2 64 -11.5 77.5t-53.5 13.5l-72 1v-157h-88v404v0zM304 487
v-95h75q41 -1 55.5 9t14.5 38t-14.5 37.5t-55.5 9.5l-75 1v0z" />
    <glyph glyph-name="copyright" unicode="&#xa9;" horiz-adv-x="737" 
d="M737 364q0 -153 -108 -260.5t-260 -107.5q-153 0 -261 107.5t-108 259.5t108 260t261 108q152 0 260 -108t108 -260v1zM661 365q0 120 -85.5 205t-206.5 85t-207 -85t-86 -205t85.5 -204.5t206.5 -84.5q122 0 207.5 84.5t85.5 203.5v1zM476 297h84q-7 -66 -56 -106
t-120 -40q-91 0 -149 61t-58 158q0 93 57 152.5t147 59.5q72 0 118.5 -36.5t60.5 -104.5l-84 1q-8 34 -32.5 52.5t-60.5 18.5q-54 0 -87.5 -39.5t-33.5 -102.5q0 -65 35.5 -108.5t87.5 -43.5q36 0 61.5 21.5t29.5 55.5v1z" />
    <glyph glyph-name="trademark" unicode="&#x2122;" horiz-adv-x="1000" 
d="M401 729v-85h-133v-352h-105v352h-133v85h371v0zM962 729v-437h-94v352l-133 -352h-58l-129 352v-352h-94v437h153l99 -258l104 258h152v0z" />
    <glyph glyph-name="acute" unicode="&#xb4;" horiz-adv-x="333" 
d="M126 759h148l-116 -148h-99l67 148v0z" />
    <glyph glyph-name="dieresis" unicode="&#xa8;" horiz-adv-x="333" 
d="M16 749h113v-129h-113v129v0zM204 749h113v-129h-113v129v0z" />
    <glyph glyph-name="notequal" unicode="&#x2260;" horiz-adv-x="584" 
d="M287 460l38 109h88l-39 -109h161v-77h-189l-23 -66h212v-77h-240l-39 -109h-84l38 109h-160v77h187l23 66h-210v77h237v0z" />
    <glyph glyph-name="AE" unicode="&#xc6;" horiz-adv-x="1000" 
d="M924 729v-131h-301v-157h269v-123h-269v-187h318v-131h-468v153h-242l-74 -153h-157l363 729h561v0zM473 276v322h-33l-151 -322h184v0z" />
    <glyph glyph-name="Oslash" unicode="&#xd8;" horiz-adv-x="778" 
d="M595 682l89 98l87 -79l-94 -103q30 -46 45.5 -103t15.5 -122q0 -171 -97 -279t-250 -108q-61 0 -113.5 15.5t-99.5 49.5l-84 -92l-87 77l92 101q-29 48 -44 105t-15 121q0 170 96.5 274.5t253.5 104.5q59 0 109.5 -15t95.5 -46v1zM568 479l-295 -323q25 -20 53.5 -30
t60.5 -10q89 0 142.5 69.5t53.5 184.5q0 21 -0.5 35t-2.5 27q-2 11 -5 21.5l-7 24.5v1zM500 578q-22 16 -50.5 24.5t-60.5 8.5q-90 0 -142 -67t-52 -183q0 -29 3 -55.5t10 -49.5l292 322v0z" />
    <glyph glyph-name="infinity" unicode="&#x221e;" horiz-adv-x="781" 
d="M391 407q44 58 95.5 88.5t106.5 30.5q73 0 118 -44.5t45 -115.5q0 -73 -44 -118.5t-115 -45.5q-19 0 -38.5 4.5t-39.5 13.5q-33 15 -65.5 41t-62.5 63q-14 -14 -26.5 -27t-24.5 -25q-32 -30 -67 -49.5t-90 -19.5q-70 0 -114 45t-44 115q0 71 46 117t116 46q9 0 17.5 -1
t17.5 -2q44 -9 87 -38.5t82 -78.5v1zM427 365l10 -10t10 -9q7 -7 14.5 -14t14.5 -14q25 -24 53 -41t70 -17q46 0 74 29t28 75t-29.5 75t-76.5 29q-13 0 -26 -2.5t-26 -7.5q-31 -12 -61.5 -36t-54.5 -58v1zM355 367q-36 38 -64.5 60t-54.5 32q-13 5 -26 7t-27 2
q-46 0 -74.5 -28t-28.5 -75q0 -46 28 -75t72 -29q16 0 31.5 3.5t31.5 10.5q29 13 57.5 36t54.5 55v1z" />
    <glyph glyph-name="plusminus" unicode="&#xb1;" horiz-adv-x="556" 
d="M36 0v100h484v-100h-484v0zM36 311v100h192v174h100v-174h192v-100h-192v-177h-100v177h-192v0z" />
    <glyph glyph-name="lessequal" unicode="&#x2264;" horiz-adv-x="584" 
d="M535 0h-485v69h485v-69v0zM535 107l-485 216v54l485 215v-77l-387 -165l387 -165v-78v0z" />
    <glyph glyph-name="greaterequal" unicode="&#x2265;" horiz-adv-x="584" 
d="M535 0h-485v69h485v-69v0zM50 592l485 -215v-54l-485 -216v78l387 165l-387 165v77v0z" />
    <glyph glyph-name="yen" unicode="&#xa5;" horiz-adv-x="556" 
d="M338 223v-223h-123v223h-160v75h144l-33 73h-131v77h95l-124 267h134l137 -328l138 328h135l-125 -267h96v-77h-132l-34 -73h146v-75h-163v0z" />
    <glyph glyph-name="mu" unicode="&#xb5;" horiz-adv-x="618" 
d="M68 -189v722h133v-284q0 -77 27.5 -114.5t82.5 -37.5q53 0 79 38t26 117v281h134v-533h-134v61q-20 -40 -45.5 -57.5t-61.5 -17.5t-61.5 16.5t-46.5 53.5v-245h-133v0z" />
    <glyph glyph-name="partialdiff" unicode="&#x2202;" horiz-adv-x="759" 
d="M141 747q20 0 38 0.5t33 0.5q186 0 310 -133t124 -333q0 -135 -73.5 -215.5t-196.5 -80.5q-117 0 -190 74t-73 192q0 116 72 189t187 73q43 0 79 -11t69 -34q-6 10 -11.5 19.5t-11.5 18.5q-65 105 -142 137t-210 32l-4 71v0zM554 241q0 89 -52 146.5t-133 57.5
q-75 0 -122 -54.5t-47 -141.5q0 -88 47.5 -141.5t126.5 -53.5q78 0 129 53t51 133v1z" />
    <glyph glyph-name="summation" unicode="&#x3a3;" horiz-adv-x="759" 
d="M650 835v-239h-75l-13 176h-345l233 -387l-241 -428h366l7 177h77v-240h-532v67l232 426l-232 383v65h523v0z" />
    <glyph glyph-name="product" unicode="&#x220f;" horiz-adv-x="759" 
d="M34 834h691v-63h-96v-814h96v-63h-276v63h97v814h-333v-814h96v-63h-275v63h97v814h-97v63v0z" />
    <glyph glyph-name="pi" unicode="&#x3c0;" horiz-adv-x="600" 
d="M0 225v50h325v-525h-50v475h-275v0z" />
    <glyph glyph-name="integral" unicode="&#x222b;" horiz-adv-x="781" 
d="M431 631v-47v-606q0 -103 -45 -171.5t-113 -68.5q-34 0 -54.5 16.5t-20.5 42.5q0 22 13.5 35t36.5 13q16 0 27 -8t19 -18q4 -5 8 -9.5t8 -7.5q4 -4 8 -6.5t8 -2.5q15 0 19.5 16t4.5 72v97v606q0 102 45.5 170.5t112.5 68.5q34 0 54.5 -16.5t20.5 -42.5q0 -22 -13.5 -35
t-36.5 -13q-15 0 -27.5 7t-21.5 22q-5 8 -8.5 12.5t-7.5 7.5q-3 2 -6 2.5t-7 0.5q-16 0 -20 -16t-4 -72v-49v0z" />
    <glyph glyph-name="ordfeminine" unicode="&#xaa;" horiz-adv-x="370" 
d="M38 285v71h294v-71h-294v0zM46 626q2 63 35 91.5t104 28.5q73 0 103 -26.5t30 -90.5v-118q0 -31 0.5 -42t1.5 -19q0 -1 0.5 -2t0.5 -2q1 -6 2.5 -10t5.5 -8l4.5 -4.5t6.5 -5.5l-99 1q-3 2 -5 4.5t-3 4.5l-2 4l-2 4q-1 3 -2 5.5t-2 6.5q-19 -21 -40 -30.5t-49 -9.5
q-46 0 -73 26t-27 72q0 53 29 75t117 35q8 1 13.5 2t9.5 2q12 3 14.5 6.5t2.5 11.5q0 13 -9.5 19t-29.5 6q-25 0 -35 -7.5t-14 -30.5l-88 1v0zM223 565q-4 -3 -9.5 -4t-11.5 -3q-5 0 -10 -1t-10 -3q-19 -4 -35 -11.5t-16 -25.5q0 -12 9 -19t25 -7q34 0 46 21.5t12 51.5v1z
" />
    <glyph glyph-name="ordmasculine" unicode="&#xba;" horiz-adv-x="365" 
d="M21 285v71h323v-71h-323v0zM19 578q0 76 45 122t118 46q76 0 120 -46t44 -124q0 -77 -44.5 -122.5t-120.5 -45.5q-74 0 -118 46t-44 123v1zM119 577q0 -40 17.5 -63t46.5 -23q30 0 46.5 23t16.5 63q0 41 -16.5 63.5t-45.5 22.5q-30 0 -47.5 -23.5t-17.5 -63.5v1z" />
    <glyph glyph-name="Omega" unicode="&#x3a9;" horiz-adv-x="789" 
d="M28 0v123h171q-79 49 -115 114t-36 159q0 152 97.5 249t249.5 97t249 -97t97 -249q0 -94 -35.5 -159t-114.5 -115l170 1v-123h-315v116q16 8 28 15t22 14q11 8 19.5 16.5t16.5 18.5q3 3 6.5 7.5t6.5 8.5q24 35 37.5 84t13.5 104q0 109 -54.5 173t-146.5 64t-147 -64
t-55 -173q0 -93 34 -159t117 -110v-115h-316v0z" />
    <glyph glyph-name="ae" unicode="&#xe6;" horiz-adv-x="889" 
d="M458 500q29 22 69 34t86 12q117 0 181 -72.5t64 -206.5v-10.5t-1 -18.5l-346 1q5 -74 31 -108t75 -34q23 0 39 8t31 27q3 5 6.5 10.5t7.5 11.5l144 1q-33 -88 -89.5 -128.5t-142.5 -40.5q-70 0 -119.5 24.5t-78.5 75.5l-2 3q-8 -9 -15 -16.5t-15 -13.5q-36 -34 -75 -53.5
t-95 -19.5q-88 0 -135 40t-47 116q0 71 34.5 111t108.5 57q38 8 85 15t104 11q0 49 -13.5 73.5t-69.5 24.5q-47 0 -70 -17t-30 -56l-132 1q5 94 62 139t170 45q62 0 104.5 -11t73.5 -36v1zM365 249q-22 -4 -38 -6.5t-30 -4.5q-3 -1 -7 -2t-8 -1q-4 -1 -9 -2l-10 -2
q-50 -10 -70 -26.5t-20 -47.5q0 -27 20.5 -43.5t53.5 -16.5q73 0 95.5 44.5t22.5 106.5v1zM517 331h192q-5 49 -30 76t-66 27q-40 0 -65.5 -27t-30.5 -77v1z" />
    <glyph glyph-name="oslash" unicode="&#xf8;" horiz-adv-x="611" 
d="M467 503l81 86l63 -60l-81 -86q24 -36 37 -82t13 -98q0 -127 -74.5 -202t-201.5 -75q-46 0 -87.5 11t-73.5 32l-79 -82l-64 60l80 85q-25 37 -37 81t-12 93q0 127 75 203.5t198 76.5q46 0 87.5 -11t75.5 -33v1zM427 334l-196 -210q17 -14 35 -20.5t40 -6.5q61 0 95 45
t34 125q0 12 -0.5 20.5t-1.5 16.5q-1 6 -2.5 13t-3.5 16v1zM380 411q-16 12 -33.5 17.5t-38.5 5.5q-60 0 -96 -45.5t-36 -122.5q0 -11 0.5 -18.5t0.5 -15.5q1 -7 2.5 -14t4.5 -17l196 210v0z" />
    <glyph glyph-name="questiondown" unicode="&#xbf;" horiz-adv-x="611" 
d="M248 314h134q0 -65 -9 -98.5t-36 -61.5q-6 -6 -13.5 -12t-15.5 -13q-34 -27 -52 -44t-26 -32q-5 -11 -7 -22.5t-2 -27.5q0 -41 25.5 -66.5t68.5 -25.5q51 0 76 28t30 90l142 1q-3 -66 -17 -105.5t-46 -70.5q-31 -32 -78 -48t-106 -16q-115 0 -182.5 57.5t-67.5 154.5
q0 68 28.5 102t62.5 60q1 1 2 1.5t2 1.5q32 25 59 55.5t28 90.5v1zM391 385h-153v148h153v-148v0z" />
    <glyph glyph-name="exclamdown" unicode="&#xa1;" horiz-adv-x="333" 
d="M240 -196h-150l27 523h96l27 -523v0zM243 385h-153v148h153v-148v0z" />
    <glyph glyph-name="logicalnot" unicode="&#xac;" horiz-adv-x="584" 
d="M50 231v77h485v-308h-77v231h-408v0z" />
    <glyph glyph-name="radical" unicode="&#x221a;" horiz-adv-x="625" 
d="M1 338h151l46 -176l194 581h260v-55h-206l-254 -724l-97 319h-94v55v0z" />
    <glyph glyph-name="florin" unicode="&#x192;" horiz-adv-x="556" 
d="M462 423l-13 -75h-89l-64 -362q-17 -97 -55 -150t-148 -53h-9.5h-9.5q-7 1 -15.5 2t-20.5 2l19 107q7 -1 11.5 -1h8.5h4h4q35 0 49.5 12t25.5 59q2 10 4 20.5t4 21.5l60 342h-83l14 75h83l21 123q17 92 57 137t138 45h8h7q9 0 19 -0.5t26 -1.5l-19 -108h-39
q-31 -1 -45 -18t-22 -66l-20 -111h89v0z" />
    <glyph glyph-name="approxequal" unicode="&#x2248;" 
 />
    <glyph glyph-name="Delta" unicode="&#x2206;" horiz-adv-x="722" 
d="M4 0l281 729h146l287 -729h-714v0zM197 123h325l-163 442l-162 -442v0z" />
    <glyph glyph-name="guillemotleft" unicode="&#xab;" horiz-adv-x="556" 
d="M246 72l-150 125v160l150 123v-134l-91 -69l91 -70v-135v0zM460 72l-150 125v160l150 123v-134l-91 -69l91 -70v-135v0z" />
    <glyph glyph-name="guillemotright" unicode="&#xbb;" horiz-adv-x="556" 
d="M96 480l150 -125v-160l-150 -123v134l91 69l-91 70v135v0zM310 480l150 -125v-160l-150 -123v134l91 69l-91 70v135v0z" />
    <glyph glyph-name="ellipsis" unicode="&#x2026;" horiz-adv-x="1000" 
d="M91 148h152v-148h-152v148v0zM425 148h152v-148h-152v148v0zM759 148h151v-148h-151v148v0z" />
    <glyph glyph-name="Agrave" unicode="&#xc0;" horiz-adv-x="722" 
d="M18 0l260 729h169l257 -729h-163l-50 153h-265l-50 -153h-158v0zM268 276h183l-91 286l-92 -286v0zM342 955l67 -148h-99l-116 148h148v0z" />
    <glyph glyph-name="Atilde" unicode="&#xc3;" horiz-adv-x="722" 
d="M18 0l260 729h169l257 -729h-163l-50 153h-265l-50 -153h-158v0zM268 276h183l-91 286l-92 -286v0zM460 948h68q-15 -70 -42 -103t-69 -33h-7.5t-6.5 1q-11 1 -24 6t-33 15q-13 8 -22.5 11t-14.5 3q-15 0 -24 -5.5t-16 -19.5q-1 -2 -2.5 -4.5t-2.5 -5.5l-69 1
q17 70 44 102.5t69 32.5q16 0 30.5 -5.5t27.5 -11.5q1 0 1 -0.5t1 -0.5q12 -5 24.5 -10.5t26.5 -6.5l1 1q9 -1 15 1.5t11 8.5q4 4 7 9.5t7 12.5v1z" />
    <glyph glyph-name="Otilde" unicode="&#xd5;" horiz-adv-x="778" 
d="M40 361q0 172 96.5 276.5t254.5 104.5q155 0 251 -101.5t96 -266.5q0 -172 -97 -280t-250 -108q-157 0 -254 103t-97 271v1zM195 374v-13t1 -12q4 -87 46 -160t145 -73q89 0 142.5 69.5t53.5 185.5q0 112 -51.5 176t-142.5 64q-88 0 -139.5 -63.5t-54.5 -174.5v1z
M488 948h68q-15 -70 -42 -103t-69 -33h-7.5t-6.5 1q-11 1 -24 6t-33 15q-13 8 -22.5 11t-14.5 3q-15 0 -24 -5.5t-16 -19.5q-1 -2 -2.5 -4.5t-2.5 -5.5l-69 1q17 70 44 102.5t69 32.5q16 0 30.5 -5.5t27.5 -11.5q1 0 1 -0.5t1 -0.5q12 -5 24.5 -10.5t26.5 -6.5l1 1
q9 -1 15 1.5t11 8.5q4 4 7 9.5t7 12.5v1z" />
    <glyph glyph-name="OE" unicode="&#x152;" horiz-adv-x="1000" 
d="M942 729v-131h-268v-155h235v-123h-235v-189h284v-131h-434v67q-35 -41 -81 -61t-104 -20q-134 0 -216.5 103t-82.5 272q0 170 85.5 275.5t224.5 105.5q59 0 101 -17t73 -53v57h418v0zM524 538q-8 10 -16.5 19t-16.5 16q-23 21 -48 29.5t-60 8.5q-88 0 -138 -67t-50 -185
t50 -185.5t138 -67.5q35 0 60 8.5t48 29.5q8 7 16.5 16t16.5 20v358v0z" />
    <glyph glyph-name="oe" unicode="&#x153;" horiz-adv-x="944" 
d="M494 483q30 31 75 47t99 16q118 0 181.5 -72.5t63.5 -208.5v-1.5v-0.5v-10.5t-1 -14.5l-346 1q5 -74 31 -108t75 -34q23 0 39 7.5t30 26.5q4 5 7.5 10.5t7.5 12.5l145 1q-32 -83 -87.5 -126t-129.5 -43q-63 0 -111.5 16t-77.5 48q-34 -31 -83 -47.5t-107 -16.5
q-126 0 -200 75.5t-74 204.5t74 204.5t200 75.5q58 0 107 -16.5t82 -47.5v1zM176 267q0 -78 35 -124t95 -46q59 0 94 46t35 123t-35 122.5t-94 45.5q-60 0 -95 -45.5t-35 -122.5v1zM572 331h192q-5 49 -30 76t-66 27q-40 0 -65.5 -27t-30.5 -77v1z" />
    <glyph glyph-name="endash" 
 />
    <glyph glyph-name="emdash" unicode="&#x2014;" horiz-adv-x="1000" 
d="M0 336h1000v-119h-1000v119v0z" />
    <glyph glyph-name="quotedblleft" unicode="&#x201c;" horiz-adv-x="500" 
d="M220 465h-139v102q0 79 35 123t104 53v-53q-35 -7 -55 -31.5t-20 -62.5l75 1v-132v0zM419 465h-139v102q0 79 35 123t104 53v-53q-35 -6 -55 -31t-20 -63l75 1v-132v0z" />
    <glyph glyph-name="quotedblright" unicode="&#x201d;" horiz-adv-x="500" 
d="M81 729h139v-102q0 -80 -35 -125t-104 -53v54q35 5 55 30t20 63l-75 1v132v0zM280 729h139v-102q0 -80 -35 -125t-104 -53v54q35 5 55 30t20 63l-75 1v132v0z" />
    <glyph glyph-name="quoteleft" unicode="&#x2018;" horiz-adv-x="238" 
d="M156 435h-75l-26 294h128l-27 -294v0z" />
    <glyph glyph-name="quoteright" unicode="&#x2019;" horiz-adv-x="333" 
d="M207 759l67 -148h-99l-116 148h148v0z" />
    <glyph glyph-name="divide" unicode="&#xf7;" horiz-adv-x="556" 
d="M216 412h124v-123h-124v123v0z" />
    <glyph glyph-name="lozenge" unicode="&#x25ca;" horiz-adv-x="780" 
d="M390 744l273 -380l-273 -380l-273 380l273 380v0zM390 647l-203 -283l203 -283l203 283l-203 283v0z" />
    <glyph glyph-name="ydieresis" unicode="&#xff;" horiz-adv-x="556" 
d="M168 533l88 -302q3 -14 6.5 -26.5t6.5 -24.5q3 -13 6 -25.5t6 -25.5q3 13 6 25.5t6 25.5l2 8l2 8q2 9 4 17.5t4 16.5l88 303h150l-173 -498q-32 -93 -52 -139.5t-38 -69.5q-3 -4 -6 -7.5t-6 -6.5q-16 -16 -43 -23.5t-67 -7.5h-9h-9q-10 1 -21.5 1.5t-30.5 1.5v112h12
t12 -1h11h12q32 0 47 17t25 64l-194 557h155v0zM128 749h113v-129h-113v129v0zM316 749h113v-129h-113v129v0z" />
    <glyph glyph-name="Ydieresis" unicode="&#x178;" horiz-adv-x="667" 
d="M13 729h169l158 -314l152 314h162l-242 -456v-273h-150v273l-249 456v0zM183 944h113v-129h-113v129v0zM371 944h113v-129h-113v129v0z" />
    <glyph glyph-name="fraction" unicode="&#x2215;" horiz-adv-x="167" 
d="M230 715h81l-374 -715h-81l374 715v0z" />
    <glyph glyph-name="currency" unicode="&#xa4;" horiz-adv-x="556" 
d="M454 247l79 -80l-72 -72l-79 79q-16 -10 -28.5 -15.5t-23.5 -8.5t-23.5 -4t-28.5 -1t-28.5 1t-24.5 5q-11 3 -23 8.5t-27 13.5l-79 -78l-73 72l79 80q-7 10 -11.5 19t-7.5 17q-5 14 -7 29t-2 37t1.5 37t6.5 28q4 9 8.5 18.5t11.5 20.5l-79 80l73 72l79 -79
q12 6 21.5 11.5t18.5 8.5q13 5 27.5 6.5t35.5 1.5q19 0 33 -1.5t27 -5.5q10 -3 20.5 -8.5t23.5 -13.5l79 80l72 -72l-79 -79q7 -13 12 -23t8 -20q5 -13 6.5 -27.5t1.5 -34.5q0 -21 -1.5 -35.5t-6.5 -27.5q-3 -9 -8 -18.5t-12 -21.5v1zM278 267q35 -1 60 24.5t25 61.5
q0 33 -24 56.5t-58 23.5q-37 0 -63 -23.5t-26 -56.5q0 -36 25 -61.5t61 -25.5v1z" />
    <glyph glyph-name="guilsinglleft" unicode="&#x2039;" horiz-adv-x="333" 
d="M237 72l-150 125v160l150 123v-134l-91 -69l91 -70v-135v0z" />
    <glyph glyph-name="guilsinglright" unicode="&#x203a;" horiz-adv-x="333" 
d="M96 480l150 -125v-160l-150 -123v134l91 69l-91 70v135v0z" />
    <glyph glyph-name="fi" unicode="&#xf001;" 
 />
    <glyph glyph-name="fl" unicode="&#xf002;" 
 />
    <glyph glyph-name="daggerdbl" unicode="&#x2021;" horiz-adv-x="556" 
d="M39 533h172v196h132v-196h174v-123h-174v-221h174v-123h-174v-205h-132v205h-172v123h172v221h-172v123v0z" />
    <glyph glyph-name="periodcentered" unicode="&#x2219;" horiz-adv-x="333" 
d="M110 749h113v-129h-113v129v0z" />
    <glyph glyph-name="quotesinglbase" unicode="&#x201a;" horiz-adv-x="389" 
d="M178 253q50 -14 70.5 -41.5t20.5 -83.5v-241q0 -42 21 -69t64 -37q-13 -1 -26.5 -1h-26.5q-78 0 -126 22.5t-48 115.5v234q0 43 -19 66.5t-63 33.5q42 11 62 35t20 65v254q0 83 54 102.5t119 19.5h4h4l46 1q-4 -2 -7 -3t-5 -2q-37 -12 -55 -37t-18 -66v-252
q0 -53 -20 -78t-71 -39v1z" />
    <glyph glyph-name="quotedblbase" unicode="&#x201e;" horiz-adv-x="500" 
d="M81 132h139v-102q0 -80 -35 -124.5t-104 -52.5v53q35 6 55 31t20 63h-75v132v0zM280 132h139v-102q0 -80 -35 -124.5t-104 -52.5v53q35 6 55 31t20 63h-75v132v0z" />
    <glyph glyph-name="perthousand" unicode="&#x2030;" horiz-adv-x="1000" 
d="M404 170q0 96 32.5 142.5t99.5 46.5q65 0 96.5 -43.5t31.5 -133.5q0 -100 -31.5 -148t-99.5 -48q-65 0 -97 45t-32 138v1zM484 170q0 -70 11 -96t41 -26q26 0 37 28t11 97q0 71 -10.5 97t-38.5 26t-39.5 -28t-11.5 -99v1zM719 170q0 96 32.5 142.5t99.5 46.5
q65 0 96.5 -43.5t31.5 -133.5q0 -101 -32 -148.5t-99 -47.5q-65 0 -97 45t-32 138v1zM799 170q0 -70 11 -96t41 -26q26 0 37 28t11 97q0 71 -10.5 97t-38.5 26t-39.5 -28t-11.5 -99v1zM494 715h70l-374 -715h-70l374 715v0zM21 539q0 96 32 142.5t99 46.5q65 0 96.5 -43.5
t31.5 -133.5q0 -100 -31.5 -148.5t-99.5 -48.5q-64 0 -96 45.5t-32 138.5v1zM101 538q0 -69 11 -95t40 -26q26 0 37 28t11 97q0 70 -10.5 96.5t-37.5 26.5q-28 0 -39.5 -28.5t-11.5 -99.5v1z" />
    <glyph glyph-name="Acircumflex" unicode="&#xc2;" horiz-adv-x="722" 
d="M18 0l260 729h169l257 -729h-163l-50 153h-265l-50 -153h-158v0zM268 276h183l-91 286l-92 -286v0zM360 876l-57 -69h-103l103 149h118l102 -149h-108l-55 69v0z" />
    <glyph glyph-name="Ecircumflex" unicode="&#xca;" horiz-adv-x="667" 
d="M67 729h525v-131h-375v-157h342v-123h-342v-187h391v-131h-541v729v0zM336 876l-57 -69h-103l103 149h118l102 -149h-108l-55 69v0z" />
    <glyph glyph-name="Aacute" unicode="&#xc1;" horiz-adv-x="722" 
d="M18 0l260 729h169l257 -729h-163l-50 153h-265l-50 -153h-158v0zM268 276h183l-91 286l-92 -286v0zM381 955h148l-116 -148h-99l67 148v0z" />
    <glyph glyph-name="Edieresis" unicode="&#xcb;" horiz-adv-x="667" 
d="M67 729h525v-131h-375v-157h342v-123h-342v-187h391v-131h-541v729v0zM187 944h113v-129h-113v129v0zM375 944h113v-129h-113v129v0z" />
    <glyph glyph-name="Egrave" unicode="&#xc8;" horiz-adv-x="667" 
d="M67 729h525v-131h-375v-157h342v-123h-342v-187h391v-131h-541v729v0zM325 955l67 -148h-99l-116 148h148v0z" />
    <glyph glyph-name="Iacute" unicode="&#xcd;" 
d="M64 729h150v-729h-150v729v0zM130 955h148l-116 -148h-99l67 148v0z" />
    <glyph glyph-name="Icircumflex" unicode="&#xce;" 
d="M64 729h150v-729h-150v729v0zM138 876l-57 -69h-103l103 149h118l102 -149h-108l-55 69v0z" />
    <glyph glyph-name="Idieresis" unicode="&#xcf;" 
d="M64 729h150v-729h-150v729v0zM-11 944h113v-129h-113v129v0zM177 944h113v-129h-113v129v0z" />
    <glyph glyph-name="Igrave" unicode="&#xcc;" 
d="M64 729h150v-729h-150v729v0zM148 955l67 -148h-99l-116 148h148v0z" />
    <glyph glyph-name="Oacute" unicode="&#xd3;" horiz-adv-x="778" 
d="M40 361q0 172 96.5 276.5t254.5 104.5q155 0 251 -101.5t96 -266.5q0 -172 -97 -280t-250 -108q-157 0 -254 103t-97 271v1zM195 374v-13t1 -12q4 -87 46 -160t145 -73q89 0 142.5 69.5t53.5 185.5q0 112 -51.5 176t-142.5 64q-88 0 -139.5 -63.5t-54.5 -174.5v1z
M409 955h148l-116 -148h-99l67 148v0z" />
    <glyph glyph-name="Ocircumflex" unicode="&#xd4;" horiz-adv-x="778" 
d="M40 361q0 172 96.5 276.5t254.5 104.5q155 0 251 -101.5t96 -266.5q0 -172 -97 -280t-250 -108q-157 0 -254 103t-97 271v1zM195 374v-13t1 -12q4 -87 46 -160t145 -73q89 0 142.5 69.5t53.5 185.5q0 112 -51.5 176t-142.5 64q-88 0 -139.5 -63.5t-54.5 -174.5v1z
M388 876l-57 -69h-103l103 149h118l102 -149h-108l-55 69v0z" />
    <glyph glyph-name="apple" unicode="&#xf000;" 
 />
    <glyph glyph-name="Ograve" unicode="&#xd2;" horiz-adv-x="778" 
d="M40 361q0 172 96.5 276.5t254.5 104.5q155 0 251 -101.5t96 -266.5q0 -172 -97 -280t-250 -108q-157 0 -254 103t-97 271v1zM195 374v-13t1 -12q4 -87 46 -160t145 -73q89 0 142.5 69.5t53.5 185.5q0 112 -51.5 176t-142.5 64q-88 0 -139.5 -63.5t-54.5 -174.5v1z
M370 955l67 -148h-99l-116 148h148v0z" />
    <glyph glyph-name="Uacute" unicode="&#xda;" horiz-adv-x="722" 
d="M505 729h150v-450q0 -72 -10 -114.5t-35 -77.5q-37 -50 -97.5 -75.5t-142.5 -25.5q-151 0 -227 68t-76 224v451h150v-447q0 -89 33 -127.5t109 -38.5q80 0 113 37.5t33 127.5v448v0zM367 955h148l-116 -148h-99l67 148v0z" />
    <glyph glyph-name="Ucircumflex" unicode="&#xdb;" horiz-adv-x="722" 
d="M505 729h150v-450q0 -72 -10 -114.5t-35 -77.5q-37 -50 -97.5 -75.5t-142.5 -25.5q-151 0 -227 68t-76 224v451h150v-447q0 -89 33 -127.5t109 -38.5q80 0 113 37.5t33 127.5v448v0zM360 876l-57 -69h-103l103 149h118l102 -149h-108l-55 69v0z" />
    <glyph glyph-name="Ugrave" unicode="&#xd9;" horiz-adv-x="722" 
d="M505 729h150v-450q0 -72 -10 -114.5t-35 -77.5q-37 -50 -97.5 -75.5t-142.5 -25.5q-151 0 -227 68t-76 224v451h150v-447q0 -89 33 -127.5t109 -38.5q80 0 113 37.5t33 127.5v448v0zM348 955l67 -148h-99l-116 148h148v0z" />
    <glyph glyph-name="dotlessi" unicode="&#x131;" 
d="M68 533h142v-533h-142v533v0z" />
    <glyph glyph-name="circumflex" unicode="&#x2dc;" horiz-adv-x="333" 
d="M165 679l-57 -69h-103l103 149h118l102 -149h-108l-55 69v0z" />
    <glyph glyph-name="tilde" unicode="&#x2c6;" horiz-adv-x="333" 
d="M265 750h68q-15 -70 -42 -103t-69 -33h-7.5t-6.5 1q-11 1 -24 6t-33 15q-13 8 -22.5 11t-14.5 3q-15 0 -24 -5.5t-16 -19.5q-1 -2 -2.5 -4.5t-2.5 -5.5l-69 1q17 70 44 102.5t69 32.5q16 0 30.5 -5.5t27.5 -11.5q1 0 1 -0.5t1 -0.5q12 -5 24.5 -10.5t26.5 -6.5l1 1
q9 -1 15 1.5t11 8.5q4 4 7 9.5t7 12.5v1z" />
    <glyph glyph-name="macron" unicode="&#x2c9;" horiz-adv-x="333" 
d="M28 640v92h277v-92h-277v0z" />
    <glyph glyph-name="breve" unicode="&#x2d8;" horiz-adv-x="333" 
d="M1 766h84q7 -38 27 -55.5t55 -17.5t54.5 17.5t26.5 54.5l84 1q-5 -81 -46.5 -122.5t-115.5 -41.5q-80 0 -121.5 40.5t-47.5 122.5v1z" />
    <glyph glyph-name="dotaccent" unicode="&#x2d9;" horiz-adv-x="333" 
d="M110 749h113v-129h-113v129v0z" />
    <glyph glyph-name="ring" unicode="&#x2da;" horiz-adv-x="333" 
d="M167 791q44 -1 74.5 -32t30.5 -75q0 -43 -30.5 -74.5t-74.5 -31.5t-75 31.5t-31 74.5q0 44 31 75t75 31v1zM167 728q-17 -1 -29 -13.5t-12 -30.5t12 -30.5t29 -12.5t28.5 12.5t11.5 30.5t-11.5 30.5t-28.5 12.5v1z" />
    <glyph glyph-name="cedilla" unicode="&#xb8;" horiz-adv-x="333" 
d="M202 0l-41 -67q12 2 19.5 3t13.5 2h4h4q41 0 66 -21t25 -55q0 -42 -35.5 -68t-93.5 -26q-28 0 -59 6.5t-63 19.5l21 45q21 -7 36 -11t30 -6q6 0 12 -0.5t12 -0.5q22 0 34 10t12 27q0 16 -12.5 26.5t-32.5 10.5h-5.5t-5.5 -1q-6 0 -12.5 -2t-16.5 -6l-23 22l58 92h53v0z
" />
    <glyph glyph-name="hungarumlaut" unicode="&#x2ba;" horiz-adv-x="333" 
d="M67 759h112l-98 -148h-81l67 148v0zM221 759h112l-98 -148h-81l67 148v0z" />
    <glyph glyph-name="ogonek" unicode="&#x2db;" horiz-adv-x="333" 
d="M150 0h86q-38 -21 -57 -42.5t-19 -45.5q0 -22 15 -35.5t39 -13.5q7 0 13 1t13 2q6 2 12 4.5t13 6.5v-80q-3 -2 -6 -3t-5 -2q-15 -7 -29.5 -9.5t-31.5 -2.5q-54 0 -89.5 32t-35.5 80q0 32 19.5 58t62.5 50v0z" />
    <glyph glyph-name="caron" unicode="&#x2c7;" horiz-adv-x="333" 
d="M168 690l57 69h103l-103 -149h-118l-102 149h108l55 -69v0z" />
    <glyph glyph-name="Lslash" unicode="&#x141;" 
 />
    <glyph glyph-name="lslash" unicode="&#x142;" 
 />
    <glyph glyph-name="Scaron" unicode="&#x160;" horiz-adv-x="667" 
d="M40 228h144q14 -68 53 -95t106 -27q60 0 97.5 24t37.5 62q0 20 -15 35.5t-46 27.5l-222 86q-64 24 -102.5 65.5t-38.5 114.5q0 100 73.5 160.5t194.5 60.5q132 0 205 -60.5t79 -174.5l-146 1q-11 59 -43.5 86t-93.5 27q-54 0 -89 -24t-35 -60q0 -17 12.5 -31.5
t37.5 -24.5l229 -86q68 -28 108.5 -65.5t40.5 -117.5q0 -52 -23.5 -97t-67.5 -78q-37 -28 -83 -39.5t-111 -11.5q-92 0 -157 26t-103 78l-4 6l-4 6q-16 24 -23.5 52t-10.5 73v1zM335 887l57 69h103l-103 -149h-118l-102 149h108l55 -69v0z" />
    <glyph glyph-name="scaron" unicode="&#x161;" horiz-adv-x="556" 
d="M31 173h143q9 -42 34 -59t77 -17q44 0 69.5 14t25.5 36q0 10 -3.5 17t-13.5 13q-7 4 -18 8.5t-28 9.5l-156 54q-56 18 -84 49.5t-28 75.5q0 76 64 124t165 48q71 0 122.5 -23.5t77.5 -67.5q2 -4 4 -7t4 -7q5 -11 8.5 -22.5t7.5 -29.5q0 -4 1 -9t2 -11l-138 1
q-6 35 -26 49.5t-64 14.5q-42 0 -66 -12.5t-24 -34.5q0 -9 6 -16t16 -11l221 -71q44 -15 70 -49t26 -77v-6t-1 -6q-4 -48 -41.5 -91t-89.5 -60q-2 0 -4.5 -0.5t-4.5 -0.5q-24 -7 -49 -10t-56 -3q-118 0 -181.5 47.5t-67.5 138.5v1zM280 690l57 69h103l-103 -149h-118
l-102 149h108l55 -69v0z" />
    <glyph glyph-name="Zcaron" unicode="&#x17d;" 
 />
    <glyph glyph-name="zcaron" unicode="&#x17e;" 
 />
    <glyph glyph-name="brokenbar" unicode="&#xa6;" 
 />
    <glyph glyph-name="Eth" unicode="&#xd0;" 
 />
    <glyph glyph-name="eth" unicode="&#xf0;" 
 />
    <glyph glyph-name="Yacute" unicode="&#xdd;" horiz-adv-x="667" 
d="M13 729h169l158 -314l152 314h162l-242 -456v-273h-150v273l-249 456v0zM346 955h148l-116 -148h-99l67 148v0z" />
    <glyph glyph-name="yacute" unicode="&#xfd;" horiz-adv-x="556" 
d="M168 533l88 -302q3 -14 6.5 -26.5t6.5 -24.5q3 -13 6 -25.5t6 -25.5q3 13 6 25.5t6 25.5l2 8l2 8q2 9 4 17.5t4 16.5l88 303h150l-173 -498q-32 -93 -52 -139.5t-38 -69.5q-3 -4 -6 -7.5t-6 -6.5q-16 -16 -43 -23.5t-67 -7.5h-9h-9q-10 1 -21.5 1.5t-30.5 1.5v112h12
t12 -1h11h12q32 0 47 17t25 64l-194 557h155v0zM298 759h148l-116 -148h-99l67 148v0z" />
    <glyph glyph-name="Thorn" unicode="&#xde;" 
 />
    <glyph glyph-name="thorn" unicode="&#xfe;" 
 />
    <glyph glyph-name="minus" unicode="&#x2212;" horiz-adv-x="600" 
d="M19 0v281h561v-281h-561v0z" />
    <glyph glyph-name="multiply" unicode="&#xd7;" 
 />
    <glyph glyph-name="onesuperior" unicode="&#xb9;" 
 />
    <glyph glyph-name="twosuperior" unicode="&#xb2;" 
 />
    <glyph glyph-name="threesuperior" unicode="&#xb3;" 
 />
    <glyph glyph-name="onehalf" unicode="&#xbd;" 
 />
    <glyph glyph-name="onequarter" unicode="&#xbc;" 
 />
    <glyph glyph-name="threequarters" unicode="&#xbe;" 
 />
    <glyph glyph-name="franc" unicode="&#x20a3;" 
 />
    <glyph glyph-name="Gbreve" unicode="&#x11e;" 
 />
    <glyph glyph-name="gbreve" unicode="&#x11f;" 
 />
    <glyph glyph-name="Idot" unicode="&#x130;" 
 />
    <glyph glyph-name="Scedilla" unicode="&#x15e;" 
 />
    <glyph glyph-name="scedilla" unicode="&#x15f;" 
 />
    <glyph glyph-name="Cacute" unicode="&#x106;" 
 />
    <glyph glyph-name="cacute" unicode="&#x107;" 
 />
    <glyph glyph-name="Ccaron" unicode="&#x10c;" 
 />
    <glyph glyph-name="ccaron" unicode="&#x10d;" 
 />
    <glyph glyph-name="dslash" unicode="&#x111;" 
 />
    <glyph glyph-name="arrowright" unicode="&#x2192;" horiz-adv-x="600" 
d="M-19 216v46h509q-4 4 -10 13t-12 20q-2 4 -4.5 7.5t-4.5 7.5q-7 12 -12 24t-5 20q0 6 4 9.5t9 3.5q4 0 6 -0.5t4 -2.5q2 -1 3 -2t2 -3q26 -31 56.5 -54.5t64.5 -43.5q2 -1 5 -3t6 -3q6 -4 11 -8t5 -10q0 -1 -0.5 -2.5t-1.5 -2.5q-2 -3 -6.5 -6t-12.5 -8
q-19 -10 -37.5 -22t-33.5 -24q-4 -3 -7.5 -6t-6.5 -6q-2 -2 -9 -9.5t-15 -15.5q-1 -2 -2.5 -3t-2.5 -2q-8 -9 -15.5 -15t-11.5 -6q-6 0 -10 3.5t-4 8.5q0 8 4.5 19.5t10.5 23.5q3 6 6 11.5t7 10.5q5 9 10.5 16.5t9.5 12.5l-509 1v0z" />
    <glyph glyph-name="house" unicode="&#x2302;" horiz-adv-x="600" 
d="M19 0v281h561v-281h-561v0z" />
    <glyph glyph-name="endash" unicode="&#x2013;" horiz-adv-x="556" 
d="M0 336h556v-119h-556v119v0z" />
    <glyph glyph-name="sfthyphen" unicode="&#xad;" 
 />
    <glyph glyph-name="filledbox" unicode="&#x25a0;" horiz-adv-x="780" 
d="M98 0v401l292 328l292 -328v-401h-584v0zM149 51h482v329l-241 271l-241 -271v-329v0z" />
    <glyph glyph-name="bullet" unicode="&#x2022;" horiz-adv-x="600" 
d="M198 286q0 39 28 67t68 28q41 0 69.5 -28t28.5 -68t-28.5 -68t-69.5 -28q-40 0 -68 28t-28 68v1z" />
    <glyph glyph-name="overstore" unicode="&#xaf;" 
 />
    <glyph glyph-name="degree" unicode="&#xb0;" 
 />
    <glyph glyph-name="middot" unicode="&#xb7;" 
 />
    <glyph glyph-name="underscoredbl" unicode="&#x2017;" 
 />
    <glyph glyph-name="exclamdbl" unicode="&#x203c;" 
 />
    <glyph glyph-name="nsuperior" unicode="&#x207f;" 
 />
    <glyph glyph-name="peseta" unicode="&#x20a7;" 
 />
    <glyph glyph-name="Gamma" unicode="&#x393;" 
 />
    <glyph glyph-name="Theta" unicode="&#x398;" 
 />
    <glyph glyph-name="Phi" unicode="&#x3a6;" 
 />
    <glyph glyph-name="alpha" unicode="&#x3b1;" 
 />
    <glyph glyph-name="delta" unicode="&#x3b4;" horiz-adv-x="722" 
d="M4 0l281 729h146l287 -729h-714v0zM197 123h325l-163 442l-162 -442v0z" />
    <glyph glyph-name="epsilon" unicode="&#x3b5;" 
 />
    <glyph glyph-name="sigma" unicode="&#x3c3;" 
 />
    <glyph glyph-name="tau" unicode="&#x3c4;" 
 />
    <glyph glyph-name="phi" unicode="&#x3c6;" 
 />
    <glyph glyph-name="arrowleft" unicode="&#x2190;" 
 />
    <glyph glyph-name="arrowup" unicode="&#x2191;" 
 />
    <glyph glyph-name="arrowdown" unicode="&#x2193;" 
 />
    <glyph glyph-name="arrowboth" unicode="&#x2194;" 
 />
    <glyph glyph-name="arrowupdn" unicode="&#x2195;" 
 />
    <glyph glyph-name="arrowupdnbase" unicode="&#x21a8;" 
 />
    <glyph glyph-name="orthogonal" unicode="&#x221f;" 
 />
    <glyph glyph-name="intersection" unicode="&#x2229;" 
 />
    <glyph glyph-name="equivalence" unicode="&#x2261;" 
 />
    <glyph glyph-name="revlogicalnot" unicode="&#x2310;" 
 />
    <glyph glyph-name="integraltp" unicode="&#x2320;" 
 />
    <glyph glyph-name="integralbt" unicode="&#x2321;" 
 />
    <glyph glyph-name="filledrect" unicode="&#x25ac;" 
 />
    <glyph glyph-name="circle" unicode="&#x25cb;" 
 />
    <glyph glyph-name="triagup" unicode="&#x25b2;" 
 />
    <glyph glyph-name="triagrt" unicode="&#x25ba;" 
 />
    <glyph glyph-name="triagdn" unicode="&#x25bc;" 
 />
    <glyph glyph-name="triaglf" unicode="&#x25c4;" 
 />
    <glyph glyph-name="invbullet" unicode="&#x25d8;" 
 />
    <glyph glyph-name="invcircle" unicode="&#x25d9;" 
 />
    <glyph glyph-name="Rcaron" unicode="&#x158;" 
 />
    <glyph glyph-name="upblock" unicode="&#x2580;" 
 />
    <glyph glyph-name="dnblock" unicode="&#x2584;" 
 />
    <glyph glyph-name="block" unicode="&#x2588;" 
 />
    <glyph glyph-name="lfblock" unicode="&#x258c;" 
 />
    <glyph glyph-name="rtblock" unicode="&#x2590;" 
 />
    <glyph glyph-name="ltshade" unicode="&#x2591;" 
 />
    <glyph glyph-name="shade" unicode="&#x2592;" 
 />
    <glyph glyph-name="dkshade" unicode="&#x2593;" 
 />
    <glyph glyph-name="smileface" unicode="&#x263a;" 
 />
    <glyph glyph-name="invsmileface" unicode="&#x263b;" 
 />
    <glyph glyph-name="sun" unicode="&#x263c;" 
 />
    <glyph glyph-name="female" unicode="&#x2640;" 
 />
    <glyph glyph-name="male" unicode="&#x2642;" 
 />
    <glyph glyph-name="spade" unicode="&#x2660;" 
 />
    <glyph glyph-name="club" unicode="&#x2663;" 
 />
    <glyph glyph-name="heart" unicode="&#x2665;" 
 />
    <glyph glyph-name="diamond" unicode="&#x2666;" 
 />
    <glyph glyph-name="musicalnote" unicode="&#x266a;" 
 />
    <glyph glyph-name="musicalnotedbl" unicode="&#x266b;" 
 />
    <glyph glyph-name="Abreve" unicode="&#x102;" 
 />
    <glyph glyph-name="abreve" unicode="&#x103;" 
 />
    <glyph glyph-name="Aogonek" unicode="&#x104;" 
 />
    <glyph glyph-name="aogonek" unicode="&#x105;" 
 />
    <glyph glyph-name="Dcaron" unicode="&#x10e;" 
 />
    <glyph glyph-name="dcaron" unicode="&#x10f;" 
 />
    <glyph glyph-name="Dslash" unicode="&#x110;" 
 />
    <glyph glyph-name="Eogonek" unicode="&#x118;" 
 />
    <glyph glyph-name="eogonek" unicode="&#x119;" 
 />
    <glyph glyph-name="Ecaron" unicode="&#x11a;" 
 />
    <glyph glyph-name="ecaron" unicode="&#x11b;" 
 />
    <glyph glyph-name="Lacute" unicode="&#x139;" 
 />
    <glyph glyph-name="lacute" unicode="&#x13a;" 
 />
    <glyph glyph-name="Lcaron" unicode="&#x13d;" 
 />
    <glyph glyph-name="lcaron" unicode="&#x13e;" 
 />
    <glyph glyph-name="Nacute" unicode="&#x143;" 
 />
    <glyph glyph-name="nacute" unicode="&#x144;" 
 />
    <glyph glyph-name="Ncaron" unicode="&#x147;" 
 />
    <glyph glyph-name="ncaron" unicode="&#x148;" 
 />
    <glyph glyph-name="Odblacute" unicode="&#x150;" 
 />
    <glyph glyph-name="odblacute" unicode="&#x151;" 
 />
    <glyph glyph-name="Racute" unicode="&#x154;" 
 />
    <glyph glyph-name="racute" unicode="&#x155;" 
 />
    <glyph glyph-name="rcaron" unicode="&#x159;" 
 />
    <glyph glyph-name="Sacute" unicode="&#x15a;" 
 />
    <glyph glyph-name="sacute" unicode="&#x15b;" 
 />
    <glyph glyph-name="Tcedilla" unicode="&#x162;" 
 />
    <glyph glyph-name="tcedilla" unicode="&#x163;" 
 />
    <glyph glyph-name="Tcaron" unicode="&#x164;" 
 />
    <glyph glyph-name="tcaron" unicode="&#x165;" 
 />
    <glyph glyph-name="Uring" unicode="&#x16e;" 
 />
    <glyph glyph-name="uring" unicode="&#x16f;" 
 />
    <glyph glyph-name="Udblacute" unicode="&#x171;" 
 />
    <glyph glyph-name="udblacute" unicode="&#x170;" 
 />
    <glyph glyph-name="Zacute" unicode="&#x179;" 
 />
    <glyph glyph-name="zacute" unicode="&#x17a;" 
 />
    <glyph glyph-name="Zdot" unicode="&#x17b;" 
 />
    <glyph glyph-name="zdot" unicode="&#x17c;" 
 />
    <glyph glyph-name="Ldot" unicode="&#x13f;" 
 />
    <glyph glyph-name="ldot" unicode="&#x140;" 
 />
    <glyph glyph-name="2500" unicode="&#x2500;" 
 />
    <glyph glyph-name="2502" unicode="&#x2502;" 
 />
    <glyph glyph-name="250c" unicode="&#x250c;" 
 />
    <glyph glyph-name="2510" unicode="&#x2510;" 
 />
    <glyph glyph-name="2514" unicode="&#x2514;" 
 />
    <glyph glyph-name="2518" unicode="&#x2518;" 
 />
    <glyph glyph-name="251c" unicode="&#x251c;" 
 />
    <glyph glyph-name="2524" unicode="&#x2524;" 
 />
    <glyph glyph-name="252c" unicode="&#x252c;" 
 />
    <glyph glyph-name="2534" unicode="&#x2534;" 
 />
    <glyph glyph-name="253c" unicode="&#x253c;" 
 />
    <glyph glyph-name="2550" unicode="&#x2550;" 
 />
    <glyph glyph-name="2551" unicode="&#x2551;" 
 />
    <glyph glyph-name="2552" unicode="&#x2552;" 
 />
    <glyph glyph-name="2553" unicode="&#x2553;" 
 />
    <glyph glyph-name="2554" unicode="&#x2554;" 
 />
    <glyph glyph-name="2555" unicode="&#x2555;" 
 />
    <glyph glyph-name="2556" unicode="&#x2556;" 
 />
    <glyph glyph-name="2557" unicode="&#x2557;" 
 />
    <glyph glyph-name="2558" unicode="&#x2558;" 
 />
    <glyph glyph-name="2559" unicode="&#x2559;" 
 />
    <glyph glyph-name="255a" unicode="&#x255a;" 
 />
    <glyph glyph-name="255b" unicode="&#x255b;" 
 />
    <glyph glyph-name="255c" unicode="&#x255c;" 
 />
    <glyph glyph-name="255d" unicode="&#x255d;" 
 />
    <glyph glyph-name="255e" unicode="&#x255e;" 
 />
    <glyph glyph-name="255f" unicode="&#x255f;" 
 />
    <glyph glyph-name="2560" unicode="&#x2560;" 
 />
    <glyph glyph-name="2561" unicode="&#x2561;" 
 />
    <glyph glyph-name="2562" unicode="&#x2562;" 
 />
    <glyph glyph-name="2563" unicode="&#x2563;" 
 />
    <glyph glyph-name="2564" unicode="&#x2564;" 
 />
    <glyph glyph-name="2565" unicode="&#x2565;" 
 />
    <glyph glyph-name="2566" unicode="&#x2566;" 
 />
    <glyph glyph-name="2567" unicode="&#x2567;" 
 />
    <glyph glyph-name="2568" unicode="&#x2568;" 
 />
    <glyph glyph-name="2569" unicode="&#x2569;" 
 />
    <glyph glyph-name="256a" unicode="&#x256a;" 
 />
    <glyph glyph-name="256b" unicode="&#x256b;" 
 />
    <glyph glyph-name="256c" unicode="&#x256c;" 
 />
  </font>
</defs>
</svg>
