<?xml version="1.0" standalone="no"?>
<!DOCTYPE svg PUBLIC "-//W3C//DTD SVG 1.1//EN" "http://www.w3.org/Graphics/SVG/1.1/DTD/svg11.dtd" >
<svg xmlns="http://www.w3.org/2000/svg" xmlns:xlink="http://www.w3.org/1999/xlink" version="1.1">
<metadata>
Created by FontForge 20200427 at Fri Oct  4 21:45:25 2013
 By www
Copyright (c) 2013 by Lucas Sharp. All rights reserved.
</metadata>
<defs>
<font id="SharpSansNo1-Bold" horiz-adv-x="588" >
  <font-face 
    font-family="Sharp Sans No1 Bold"
    font-weight="600"
    font-stretch="normal"
    units-per-em="1000"
    panose-1="0 0 0 0 0 0 0 0 0 0"
    ascent="750"
    descent="-250"
    x-height="500"
    cap-height="730"
    bbox="-83 -264 1418.02 1102"
    underline-thickness="50"
    underline-position="-150"
    unicode-range="U+0020-F60B"
  />
<missing-glyph horiz-adv-x="900" 
d="M85 0v730h730v-730h-730zM450 331l-283 -283h566zM167 682l283 -283l283 283h-566zM484 365l283 -283v566zM416 365l-283 283v-566z" />
    <glyph glyph-name="interrobang" unicode="&#x21;&#x3f;" horiz-adv-x="515" 
d="M195 187q-13 260 -13 424q-44 -24 -56 -77l-129 43q18 74 81.5 118.5t157.5 44.5q111 0 179.5 -58t68.5 -152q0 -52 -20 -87.5t-48 -55.5t-56.5 -40.5t-48.5 -57t-20 -90.5v-12h-96zM174 0v137h137v-137h-137zM345 532q0 53 -47 77q0 -89 -6 -184q19 21 27.5 31t17 31
t8.5 45z" />
    <glyph glyph-name="interrobangdown" unicode="&#xa1;&#xbf;" horiz-adv-x="515" 
d="M279 -240q-111 0 -179.5 58t-68.5 152q0 44 14.5 76.5t35.5 50t46.5 37t46.5 37t35.5 51t14.5 79.5v12h96q13 -262 13 -424q42 23 56 77l129 -43q-18 -74 -81.5 -118.5t-157.5 -44.5zM341 500v-137h-137v137h137zM170 -32q0 -54 47 -77q0 79 5 184q-19 -21 -26.5 -30.5
t-16.5 -31t-9 -45.5z" />
    <glyph glyph-name=".notdef" horiz-adv-x="900" 
d="M85 0v730h730v-730h-730zM450 331l-283 -283h566zM167 682l283 -283l283 283h-566zM484 365l283 -283v566zM416 365l-283 283v-566z" />
    <glyph glyph-name=".null" horiz-adv-x="0" 
 />
    <glyph glyph-name="nonmarkingreturn" horiz-adv-x="333" 
 />
    <glyph glyph-name="space" unicode=" " horiz-adv-x="245" 
 />
    <glyph glyph-name="exclam" unicode="!" horiz-adv-x="207" 
d="M66 187q-31 208 -31 426v117h137v-117q0 -218 -31 -426h-75zM35 0v137h137v-137h-137z" />
    <glyph glyph-name="quotedbl" unicode="&#x22;" horiz-adv-x="324" 
d="M69 500q-9 21 -21.5 72.5t-12.5 73.5v84h107v-84q0 -23 -13 -74.5t-22 -71.5h-38zM216 500q-9 21 -21.5 72.5t-12.5 73.5v84h107v-84q0 -23 -13 -74.5t-22 -71.5h-38z" />
    <glyph glyph-name="numbersign" unicode="#" horiz-adv-x="800" 
d="M482 0v153h-172v-153h-139v153h-146v133h146v168h-146v133h146v143h139v-143h172v143h139v-143h154v-133h-154v-168h154v-133h-154v-153h-139zM310 454v-168h172v168h-172z" />
    <glyph glyph-name="dollar" unicode="$" 
d="M565 218q0 -79 -52.5 -142t-143.5 -80v-116h-139v117q-131 24 -218 124l127 100q33 -57 95 -83v187q-86 26 -140.5 73t-54.5 132q0 75 53 132t138 73v105h139v-108q97 -21 173 -98l-115 -87q-24 35 -62 52v-169q41 -13 72 -28.5t62.5 -40.5t48.5 -61t17 -82zM424 219
q0 43 -59 68v-153q27 12 43 35t16 50zM178 535q0 -44 56 -65v136q-56 -21 -56 -71z" />
    <glyph glyph-name="percent" unicode="%" horiz-adv-x="823" 
d="M136 561q0 -25 19 -44t44 -19t44 19t19 44t-19 44t-44 19t-44 -19t-19 -44zM445 168q0 74 52.5 126.5t126.5 52.5t126.5 -52.5t52.5 -126.5t-52.5 -126.5t-126.5 -52.5t-126.5 52.5t-52.5 126.5zM10 0l627 730h176l-627 -730h-176zM561 168q0 -26 18.5 -44.5t44.5 -18.5
t44.5 18.5t18.5 44.5t-18.5 44.5t-44.5 18.5t-44.5 -18.5t-18.5 -44.5zM20 561q0 74 52.5 126.5t126.5 52.5t126.5 -52.5t52.5 -126.5t-52.5 -126.5t-126.5 -52.5t-126.5 52.5t-52.5 126.5z" />
    <glyph glyph-name="ampersand" unicode="&#x26;" horiz-adv-x="748" 
d="M560 0l-57 56q-93 -67 -195 -67q-76 0 -134 21t-90.5 56.5t-48 76t-15.5 84.5q0 130 126 204q-34 56 -34 120q0 81 60 135t150 54q165 0 215 -138l-136 -48q-18 62 -74 62q-30 0 -49.5 -18.5t-19.5 -46.5q0 -40 20.5 -68t100.5 -110l135 -136q42 60 58 131h-123v132h261
v-64q0 -68 -29 -144t-80 -141l149 -151h-190zM307 111q57 0 108 31l-151 153l-40 40q-66 -40 -66 -107q0 -49 39.5 -83t109.5 -34z" />
    <glyph glyph-name="quotesingle" unicode="'" horiz-adv-x="177" 
d="M107 500h-38q-9 21 -21.5 72.5t-12.5 73.5v84h107v-84q0 -23 -13 -74.5t-22 -71.5z" />
    <glyph glyph-name="parenleft" unicode="(" horiz-adv-x="386" 
d="M299 -254q-279 188 -279 504q0 163 68.5 281t198.5 213l93 -100q-214 -143 -214 -394q0 -254 219 -390z" />
    <glyph glyph-name="parenright" unicode=")" horiz-adv-x="386" 
d="M220 248q0 251 -214 394l93 100q130 -95 198.5 -213t68.5 -281q0 -316 -279 -504l-86 114q219 136 219 390z" />
    <glyph glyph-name="asterisk" unicode="*" horiz-adv-x="403" 
d="M324 414l-85 76l22 -113h-119l23 113l-88 -76l-58 104l108 36l-108 38l61 102l85 -76l-23 113h119l-23 -115l88 78l59 -104l-112 -37l112 -37z" />
    <glyph glyph-name="plus" unicode="+" horiz-adv-x="440" 
d="M35 306v117h128v126h115v-126h127v-117h-127v-127h-115v127h-128z" />
    <glyph glyph-name="comma" unicode="," horiz-adv-x="207" 
d="M21 -117l34 204h121l-70 -204h-85z" />
    <glyph glyph-name="hyphen" unicode="-" horiz-adv-x="440" 
d="M35 196v117h370v-117h-370z" />
    <glyph glyph-name="period" unicode="." horiz-adv-x="207" 
d="M35 0v137h137v-137h-137z" />
    <glyph glyph-name="slash" unicode="/" horiz-adv-x="512" 
d="M10 0l346 730h147l-346 -730h-147z" />
    <glyph glyph-name="zero" unicode="0" 
d="M293 128q52 0 81.5 30t29.5 76v257q0 51 -29 81.5t-80 30.5q-52 0 -81.5 -31.5t-29.5 -80.5v-256q0 -47 28.5 -77t80.5 -30zM294 -10q-118 0 -183.5 65t-65.5 173v268q0 105 70 174.5t179 69.5q111 0 180 -70t69 -173v-269q0 -108 -66.5 -173t-182.5 -65z" />
    <glyph glyph-name="one" unicode="1" 
d="M45 0v133h182v391q-17 -26 -50.5 -43t-67.5 -17h-11v146h5q66 0 97.5 37t31.5 83h134v-597h177v-133h-498z" />
    <glyph glyph-name="two" unicode="2" 
d="M45 0v131q0 45 17.5 84t52.5 72t64.5 54.5t76.5 50.5q92 58 115 79q35 33 35 65q0 36 -29.5 60t-82.5 24q-98 0 -145 -103l-120 60q37 77 104 120t160 43q117 0 185.5 -58t68.5 -147q0 -41 -16 -76.5t-50 -66t-60 -48.5t-74 -47q-97 -60 -125 -87q-37 -38 -38 -77h359
v-133h-498z" />
    <glyph glyph-name="three" unicode="3" 
d="M299 -10q-94 0 -159 32t-118 103l121 87q55 -95 157 -95q52 0 85.5 27t33.5 73q0 42 -27.5 66.5t-81.5 24.5h-96v128h94q55 0 81 28t26 70q0 34 -30.5 59.5t-82.5 25.5q-58 0 -90.5 -21t-56.5 -69l-121 60q78 151 267 151q109 0 179 -56t70 -144q0 -108 -85 -165
q93 -51 93 -162q0 -97 -70 -160t-189 -63z" />
    <glyph glyph-name="four" unicode="4" 
d="M336 0v148h-296v127l279 455h152v-455h77v-127h-77v-148h-135zM184 275h152v247z" />
    <glyph glyph-name="five" unicode="5" 
d="M293 -10q-99 0 -167 38.5t-101 103.5l135 78q15 -42 50.5 -67t84.5 -25t86 36.5t37 91.5q0 56 -34.5 94t-92.5 38q-81 0 -129 -72l-124 64l52 360h437v-130h-328l-19 -129q57 34 132 34q106 0 176 -67.5t70 -192.5q0 -109 -75 -182t-190 -73z" />
    <glyph glyph-name="six" unicode="6" 
d="M295 -10q-114 0 -189.5 73t-75.5 180q0 100 56 184l187 303h164l-154 -239q19 6 40 6q99 0 167 -71.5t68 -181.5q0 -111 -75 -182.5t-188 -71.5zM292 116q53 0 91 38.5t38 92.5q0 53 -38.5 91.5t-90.5 38.5t-89 -38.5t-37 -92.5q0 -53 37 -91.5t89 -38.5z" />
    <glyph glyph-name="seven" unicode="7" 
d="M108 0l289 597h-352v133h498v-121l-287 -609h-148z" />
    <glyph glyph-name="eight" unicode="8" 
d="M293 -10q-123 0 -191.5 61t-68.5 168q0 110 89 170q-64 54 -64 142q0 95 66 152t174 57q107 0 172.5 -57t65.5 -152q0 -88 -68 -143q87 -60 87 -169q0 -106 -69.5 -167.5t-192.5 -61.5zM293 113q61 0 95 30t34 76t-33.5 76t-92.5 30q-60 0 -94.5 -30.5t-34.5 -75.5
q0 -47 32 -76.5t94 -29.5zM295 441q54 0 84 25.5t30 64.5t-29.5 65t-80.5 26q-52 0 -83 -26t-31 -65q0 -40 28.5 -65t81.5 -25z" />
    <glyph glyph-name="nine" unicode="9" 
d="M315 0h-164l152 236q-17 -4 -38 -4q-99 0 -167 72t-68 182q0 111 75 182.5t188 71.5q114 0 189.5 -73t75.5 -180q0 -100 -56 -184zM296 353q52 0 89 38.5t37 92.5q0 53 -37 91.5t-89 38.5q-53 0 -91 -38.5t-38 -92.5q0 -53 38.5 -91.5t90.5 -38.5z" />
    <glyph glyph-name="colon" unicode=":" horiz-adv-x="207" 
d="M35 0v137h137v-137h-137zM35 363v137h137v-137h-137z" />
    <glyph glyph-name="semicolon" unicode=";" horiz-adv-x="207" 
d="M35 363v137h137v-137h-137zM21 -117l34 204h121l-70 -204h-85z" />
    <glyph glyph-name="less" unicode="&#x3c;" horiz-adv-x="440" 
d="M405 171l-370 134v117l370 133v-121l-220 -71l220 -71v-121z" />
    <glyph glyph-name="equal" unicode="=" horiz-adv-x="440" 
d="M35 388v117h370v-117h-370zM35 221v117h370v-117h-370z" />
    <glyph glyph-name="greater" unicode="&#x3e;" horiz-adv-x="440" 
d="M35 171v121l220 71l-220 71v121l370 -133v-117z" />
    <glyph glyph-name="question" unicode="?" horiz-adv-x="515" 
d="M179 188v11q0 67 17 115.5t41 73.5t48 44.5t41 43.5t17 56q0 38 -25.5 62.5t-67.5 24.5q-38 0 -63.5 -23.5t-34.5 -61.5l-129 43q19 75 77.5 119t151.5 44q103 0 167.5 -58t64.5 -152q0 -44 -13.5 -77.5t-33.5 -52.5t-44 -39t-44 -38t-33.5 -50t-13.5 -74v-11h-123z
M172 0v137h137v-137h-137z" />
    <glyph glyph-name="at" unicode="@" horiz-adv-x="786" 
d="M393 -125q-155 0 -264 109.5t-109 265.5q0 155 109 265t264 110q83 0 154.5 -29t118.5 -76.5t73.5 -107.5t26.5 -124q0 -88 -47.5 -149.5t-124.5 -61.5q-81 0 -121 55q-41 -54 -125 -54q-65 0 -113.5 49t-40.5 131q9 85 64 132.5t115 47.5q62 0 96 -37l4 31h109l-19 -181
q-8 -66 40 -66q23 0 38.5 29t15.5 74q0 90 -73.5 160t-190.5 70q-111 0 -188 -78.5t-77 -190.5q0 -111 77 -189.5t188 -78.5q117 0 197 88l83 -68q-52 -59 -125 -92.5t-155 -33.5zM373 181q33 0 57 23t27 57q4 33 -15 56t-52 23q-34 0 -59.5 -23t-26.5 -56q-4 -34 16 -57
t53 -23z" />
    <glyph glyph-name="A" unicode="A" horiz-adv-x="686" 
d="M14 0l259 730h140l259 -730h-145l-44 127h-280l-44 -127h-145zM343 532l-94 -272h188z" />
    <glyph glyph-name="B" unicode="B" horiz-adv-x="570" 
d="M40 0v730h228q122 0 189 -53t67 -152q0 -94 -79 -141q105 -49 105 -167q0 -107 -69.5 -162t-193.5 -55h-247zM280 310h-101v-182h108q123 0 123 92q0 47 -28.5 68.5t-101.5 21.5zM269 602h-90v-162h89q116 0 116 85q0 40 -27 58.5t-88 18.5z" />
    <glyph glyph-name="C" unicode="C" horiz-adv-x="735" 
d="M395 -10q-166 0 -270.5 108t-104.5 267q0 162 108 268.5t267 106.5q101 0 186 -49t134 -132l-122 -78q-66 122 -198 122q-102 0 -169.5 -68.5t-67.5 -169.5q0 -99 67 -167.5t167 -68.5q72 0 125 37t82 99l127 -67q-49 -95 -136.5 -151.5t-194.5 -56.5z" />
    <glyph glyph-name="D" unicode="D" horiz-adv-x="645" 
d="M40 0v730h199q180 0 283 -102.5t103 -262.5q0 -157 -107 -261t-273 -104h-205zM223 601h-44v-472h50q116 0 186.5 66.5t70.5 169.5q0 108 -66.5 172t-196.5 64z" />
    <glyph glyph-name="E" unicode="E" horiz-adv-x="505" 
d="M40 0v730h433v-133h-294v-164h294v-133h-294v-167h294v-133h-433z" />
    <glyph glyph-name="F" unicode="F" horiz-adv-x="488" 
d="M40 0v730h413v-133h-274v-164h274v-133h-274v-300h-139z" />
    <glyph glyph-name="G" unicode="G" horiz-adv-x="776" 
d="M399 -10q-167 0 -273 109.5t-106 265.5q0 158 106.5 266.5t266.5 108.5q111 0 197.5 -51t134.5 -136l-122 -74q-68 126 -209 126q-99 0 -167.5 -70.5t-68.5 -169.5q0 -101 68.5 -170.5t172.5 -69.5q78 0 132.5 41t74.5 112h-229v133h379v-56q0 -152 -99.5 -258.5
t-257.5 -106.5z" />
    <glyph glyph-name="H" unicode="H" horiz-adv-x="633" 
d="M454 0v299h-275v-299h-139v730h139v-298h275v298h139v-730h-139z" />
    <glyph glyph-name="I" unicode="I" horiz-adv-x="229" 
d="M45 0v730h139v-730h-139z" />
    <glyph glyph-name="J" unicode="J" horiz-adv-x="503" 
d="M249 -10q-89 0 -151 45.5t-80 122.5l138 44q7 -36 31.5 -59t59.5 -23q38 0 57.5 25.5t19.5 65.5v519h139v-506q0 -111 -56 -172.5t-158 -61.5z" />
    <glyph glyph-name="K" unicode="K" horiz-adv-x="616" 
d="M446 0l-191 349l-76 -95v-254h-139v730h139v-294l236 294h169l-230 -284l250 -446h-158z" />
    <glyph glyph-name="L" unicode="L" horiz-adv-x="478" 
d="M40 0v730h139v-597h264v-133h-403z" />
    <glyph glyph-name="M" unicode="M" horiz-adv-x="795" 
d="M40 0v730h138l219 -304l227 304h131v-730h-139v506l-220 -297l-217 294v-503h-139z" />
    <glyph glyph-name="N" unicode="N" horiz-adv-x="687" 
d="M40 0v730h158l310 -491v491h139v-730h-148l-320 507v-507h-139z" />
    <glyph glyph-name="O" unicode="O" horiz-adv-x="787" 
d="M393 -10q-155 0 -264 109.5t-109 265.5q0 155 109 265t264 110q156 0 265 -109.5t109 -265.5t-109 -265.5t-265 -109.5zM393 127q98 0 167 70t69 168t-69 168t-167 70t-166.5 -69.5t-68.5 -168.5t68.5 -168.5t166.5 -69.5z" />
    <glyph glyph-name="P" unicode="P" horiz-adv-x="579" 
d="M40 0v730h251q112 0 187.5 -75.5t75.5 -185.5t-75.5 -185.5t-188.5 -75.5h-111v-208h-139zM281 601h-102v-264h102q58 0 95.5 38t37.5 94t-37.5 94t-95.5 38z" />
    <glyph glyph-name="Q" unicode="Q" horiz-adv-x="787" 
d="M613 0l-275 361h166l91 -118q34 58 34 122q0 98 -69 168t-167 70t-166.5 -69.5t-68.5 -168.5t68.5 -168.5t166.5 -69.5q33 0 68 10l87 -114q-74 -33 -155 -33q-155 0 -264 109.5t-109 265.5q0 155 109 265t264 110q156 0 265 -109.5t109 -265.5q0 -136 -83 -238l99 -127
h-170z" />
    <glyph glyph-name="R" unicode="R" horiz-adv-x="573" 
d="M40 0v730h229q123 0 196 -69.5t73 -175.5q0 -72 -35.5 -131t-105.5 -86l166 -268h-159l-219 361h68q74 0 109.5 38.5t35.5 85.5q0 115 -145 115h-74v-600h-139z" />
    <glyph glyph-name="S" unicode="S" horiz-adv-x="563" 
d="M288 -10q-171 0 -286 131l127 100q57 -98 158 -98q51 0 80 28t29 68q0 27 -23 47t-44 28t-72 24q-8 3 -12 4q-37 11 -60 19.5t-54.5 26t-49 37.5t-30.5 52.5t-13 72.5q0 89 69 149.5t174 60.5q83 0 139.5 -27.5t106.5 -78.5l-115 -87q-46 69 -130 69q-47 0 -73.5 -22.5
t-26.5 -58.5q0 -35 32.5 -54.5t99.5 -41.5q11 -3 16 -5q36 -12 60.5 -21.5t55.5 -28t50 -39.5t32 -54t13 -73q0 -92 -69 -160t-184 -68z" />
    <glyph glyph-name="T" unicode="T" horiz-adv-x="577" 
d="M219 0v597h-194v133h527v-133h-194v-597h-139z" />
    <glyph glyph-name="U" unicode="U" horiz-adv-x="607" 
d="M303 -10q-118 0 -190.5 68t-72.5 195v477h139v-486q0 -53 35.5 -89t87.5 -36q53 0 89.5 36.5t36.5 88.5v486h139v-477q0 -127 -73 -195t-191 -68z" />
    <glyph glyph-name="V" unicode="V" horiz-adv-x="656" 
d="M258 0l-244 730h144l170 -518l170 518h144l-244 -730h-140z" />
    <glyph glyph-name="W" unicode="W" horiz-adv-x="1020" 
d="M220 0l-207 730h145l136 -505l150 505h137l150 -503l134 503h141l-206 -730h-137l-151 510l-150 -510h-142z" />
    <glyph glyph-name="X" unicode="X" horiz-adv-x="629" 
d="M463 0l-149 247l-148 -247h-156l222 369l-218 361h156l144 -240l145 240h156l-219 -361l223 -369h-156z" />
    <glyph glyph-name="Y" unicode="Y" horiz-adv-x="629" 
d="M244 0v346l-232 384h153l149 -251l150 251h153l-234 -387v-343h-139z" />
    <glyph glyph-name="Z" unicode="Z" horiz-adv-x="553" 
d="M35 0v128l318 469h-307v133h472v-127l-319 -470h319v-133h-483z" />
    <glyph glyph-name="bracketleft" unicode="[" horiz-adv-x="343" 
d="M35 -230v960h273v-133h-134v-694h134v-133h-273z" />
    <glyph glyph-name="backslash" unicode="\" horiz-adv-x="512" 
d="M356 0l-346 730h147l346 -730h-147z" />
    <glyph glyph-name="bracketright" unicode="]" horiz-adv-x="343" 
d="M35 -230v133h134v694h-134v133h273v-960h-273z" />
    <glyph glyph-name="asciicircum" unicode="^" horiz-adv-x="471" 
d="M74 550l119 170h85l119 -170h-103l-59 88l-58 -88h-103z" />
    <glyph glyph-name="underscore" unicode="_" horiz-adv-x="440" 
d="M35 -127v117h370v-117h-370z" />
    <glyph glyph-name="grave" unicode="`" horiz-adv-x="471" 
d="M254 550l-150 170h128l114 -170h-92z" />
    <glyph glyph-name="a" unicode="a" horiz-adv-x="584" 
d="M261 -10q-90 0 -165.5 69t-75.5 191q0 84 38 145t91.5 88t113.5 27q93 0 149 -59v49h137v-500h-137v56q-56 -66 -151 -66zM288 116q55 0 91.5 39.5t36.5 95.5t-36.5 95t-91.5 39q-57 0 -95.5 -38t-38.5 -96t38.5 -96.5t95.5 -38.5z" />
    <glyph glyph-name="b" unicode="b" horiz-adv-x="580" 
d="M324 -10q-99 0 -152 64v-54h-137v730h137v-285q53 65 150 65q44 0 86 -16t77.5 -47t57 -82t21.5 -115q0 -122 -75 -191t-165 -69zM296 116q57 0 95.5 38.5t38.5 96.5t-38.5 96t-95.5 38q-55 0 -91.5 -39t-36.5 -95t36.5 -95.5t91.5 -39.5z" />
    <glyph glyph-name="c" unicode="c" horiz-adv-x="535" 
d="M279 -10q-108 0 -183.5 76t-75.5 184t75.5 184t183.5 76q84 0 147.5 -43t93.5 -115l-122 -52q-14 36 -46.5 58t-71.5 22q-54 0 -91 -38t-37 -92t37 -92t91 -38q39 0 71.5 22t46.5 58l122 -52q-30 -72 -93.5 -115t-147.5 -43z" />
    <glyph glyph-name="d" unicode="d" horiz-adv-x="584" 
d="M261 -10q-90 0 -165.5 69t-75.5 191q0 84 38 145t91.5 88t113.5 27q93 0 149 -59v279h137v-730h-137v56q-56 -66 -151 -66zM288 116q55 0 91.5 39.5t36.5 95.5t-36.5 95t-91.5 39q-57 0 -95.5 -38t-38.5 -96t38.5 -96.5t95.5 -38.5z" />
    <glyph glyph-name="e" unicode="e" horiz-adv-x="559" 
d="M284 -10q-115 0 -189.5 75t-74.5 185q0 108 76 184t184 76q113 0 185.5 -74.5t72.5 -184.5v-50h-386q12 -42 46 -66.5t87 -24.5q41 0 73.5 21t49.5 57l109 -65q-34 -61 -93.5 -97t-139.5 -36zM281 390q-42 0 -74.5 -21.5t-48.5 -57.5h242q-27 79 -119 79z" />
    <glyph glyph-name="f" unicode="f" horiz-adv-x="366" 
d="M25 377v123h85v13q0 123 47.5 170t172.5 47h11v-128q-62 0 -78 -15.5t-16 -74.5v-12h94v-123h-94v-377h-137v377h-85z" />
    <glyph glyph-name="g" unicode="g" horiz-adv-x="584" 
d="M261 -10q-90 0 -165.5 69t-75.5 191q0 84 38 145t91.5 88t113.5 27q92 0 149 -64v54h137v-486q0 -111 -68 -183t-190 -72q-91 0 -159.5 41t-100.5 103l121 68q42 -85 139 -85q54 0 87.5 36t33.5 87v47q-56 -66 -151 -66zM288 116q55 0 91.5 39.5t36.5 95.5t-36.5 95
t-91.5 39q-57 0 -95.5 -38t-38.5 -96t38.5 -96.5t95.5 -38.5z" />
    <glyph glyph-name="h" unicode="h" horiz-adv-x="533" 
d="M35 0v730h136v-285q54 65 138 65q89 0 139 -54t50 -151v-305h-139v286q0 107 -92 107q-42 0 -68.5 -30t-26.5 -90v-273h-137z" />
    <glyph glyph-name="i" unicode="i" horiz-adv-x="207" 
d="M35 0v500h137v-500h-137zM35 550v137h137v-137h-137z" />
    <glyph glyph-name="j" unicode="j" horiz-adv-x="207" 
d="M-59 -230v128q62 0 78 15.5t16 74.5v512h137v-513q0 -122 -46 -169.5t-165 -47.5h-20zM35 550v137h137v-137h-137z" />
    <glyph glyph-name="k" unicode="k" horiz-adv-x="542" 
d="M375 0l-136 200l-67 -79v-121h-137v730h137v-451l184 221h159l-182 -216l192 -284h-150z" />
    <glyph glyph-name="l" unicode="l" horiz-adv-x="207" 
d="M35 0v730h137v-730h-137z" />
    <glyph glyph-name="m" unicode="m" horiz-adv-x="839" 
d="M35 0v500h136v-53q50 63 133 63q108 0 154 -79q56 79 156 79q94 0 142 -53.5t48 -151.5v-305h-139v287q0 106 -87 106q-41 0 -65.5 -30t-24.5 -90v-273h-139v287q0 106 -87 106q-41 0 -65.5 -30t-24.5 -90v-273h-137z" />
    <glyph glyph-name="n" unicode="n" horiz-adv-x="533" 
d="M35 0v500h136v-56q52 66 138 66q89 0 139 -54t50 -151v-305h-139v287q0 51 -23.5 78.5t-68.5 27.5q-42 0 -68.5 -30t-26.5 -90v-273h-137z" />
    <glyph glyph-name="o" unicode="o" horiz-adv-x="558" 
d="M279 -10q-108 0 -183.5 76t-75.5 184t75.5 184t183.5 76t183.5 -76t75.5 -184t-75.5 -184t-183.5 -76zM279 120q52 0 89 38.5t37 91.5t-37 91.5t-89 38.5q-53 0 -89 -38t-36 -92t36 -92t89 -38z" />
    <glyph glyph-name="p" unicode="p" horiz-adv-x="580" 
d="M324 -10q-101 0 -152 59v-279h-137v730h137v-57q55 67 150 67q44 0 86 -16t77.5 -47t57 -82t21.5 -115q0 -122 -75 -191t-165 -69zM296 116q57 0 95.5 38.5t38.5 96.5t-38.5 96t-95.5 38q-55 0 -91.5 -39t-36.5 -95t36.5 -95.5t91.5 -39.5z" />
    <glyph glyph-name="q" unicode="q" horiz-adv-x="584" 
d="M261 -10q-90 0 -165.5 69t-75.5 191q0 84 38 145t91.5 88t113.5 27q92 0 149 -64v54h137v-730h-137v280q-54 -60 -151 -60zM288 116q55 0 91.5 39.5t36.5 95.5t-36.5 95t-91.5 39q-57 0 -95.5 -38t-38.5 -96t38.5 -96.5t95.5 -38.5z" />
    <glyph glyph-name="r" unicode="r" horiz-adv-x="391" 
d="M35 0v500h136v-82q39 82 138 82h55v-133h-87q-55 0 -80 -31t-25 -100v-236h-137z" />
    <glyph glyph-name="s" unicode="s" horiz-adv-x="467" 
d="M235 -10q-175 0 -230 135l131 51q27 -68 105 -68q32 0 50.5 13t18.5 32q0 17 -25 26.5t-74 18.5q-5 1 -8 1q-39 7 -67 16.5t-56 26t-42.5 45t-14.5 66.5q0 65 57.5 111.5t147.5 45.5q152 0 212 -116l-121 -51q-22 55 -92 55q-32 0 -48.5 -11.5t-16.5 -29.5
q0 -16 21.5 -24.5t82.5 -20.5q38 -8 65 -17t56 -26t44.5 -45.5t15.5 -66.5q0 -63 -56 -115.5t-156 -51.5z" />
    <glyph glyph-name="t" unicode="t" horiz-adv-x="371" 
d="M25 377v123h85v117l137 75v-192h94v-123h-94v-159q0 -59 16 -74.5t78 -15.5v-128h-20q-119 0 -165 47.5t-46 169.5v160h-85z" />
    <glyph glyph-name="u" unicode="u" horiz-adv-x="533" 
d="M224 -10q-89 0 -139 54t-50 151v305h139v-287q0 -51 23.5 -78.5t68.5 -27.5q42 0 68.5 30t26.5 90v273h137v-500h-136v55q-54 -65 -138 -65z" />
    <glyph glyph-name="v" unicode="v" horiz-adv-x="545" 
d="M205 0l-189 500h141l117 -325l114 325h139l-184 -500h-138z" />
    <glyph glyph-name="w" unicode="w" horiz-adv-x="884" 
d="M193 0l-168 501l137 -1l102 -319l114 319h136l107 -319l108 319h136l-178 -500h-132l-112 318l-117 -318h-133z" />
    <glyph glyph-name="x" unicode="x" horiz-adv-x="562" 
d="M15 0l184 254l-177 246h167l97 -140l95 140h161l-173 -247l187 -253h-167l-105 146l-102 -146h-167z" />
    <glyph glyph-name="y" unicode="y" horiz-adv-x="551" 
d="M109 -231l102 253l-199 478h144l123 -308l115 308h142l-290 -731h-137z" />
    <glyph glyph-name="z" unicode="z" horiz-adv-x="512" 
d="M30 0v122l263 257h-259v121h443v-123l-263 -256h268v-121h-452z" />
    <glyph glyph-name="braceleft" unicode="{" horiz-adv-x="370" 
d="M345 -230h-11q-125 0 -172.5 47t-47.5 170v96q0 61 -16.5 80.5t-77.5 19.5v128q61 0 77.5 19.5t16.5 80.5v102q0 123 47.5 170t172.5 47h11v-128q-62 0 -78 -15.5t-16 -74.5v-102q0 -126 -76 -163q76 -37 76 -163v-96q0 -59 16 -74.5t78 -15.5v-128z" />
    <glyph glyph-name="bar" unicode="|" horiz-adv-x="209" 
d="M35 -230v960h139v-960h-139z" />
    <glyph glyph-name="braceright" unicode="}" horiz-adv-x="370" 
d="M25 -230v128q62 0 78 15.5t16 74.5v96q0 65 17.5 104t57.5 59q-40 20 -57.5 59t-17.5 104v102q0 59 -16 74.5t-78 15.5v128h11q125 0 172.5 -47t47.5 -170v-102q0 -61 16.5 -80.5t77.5 -19.5v-128q-61 0 -77.5 -19.5t-16.5 -80.5v-96q0 -123 -47.5 -170t-172.5 -47h-11z
" />
    <glyph glyph-name="asciitilde" unicode="~" horiz-adv-x="471" 
d="M63 575q0 61 28 98t77 37q36 0 76 -24q38 -24 52 -24q27 0 27 44h79q0 -63 -27 -99t-78 -36q-36 0 -87 30q-28 17 -42 17q-26 0 -26 -43h-79z" />
    <glyph glyph-name="exclamdown" unicode="&#xa1;" horiz-adv-x="207" 
d="M35 -230v117q0 218 31 426h75q31 -208 31 -426v-117h-137zM35 363v137h137v-137h-137z" />
    <glyph glyph-name="cent" unicode="&#xa2;" 
d="M232 -130v130q-89 24 -145.5 98t-56.5 169t56.5 169t145.5 98v131h139v-128q66 -15 116 -57.5t76 -103.5l-123 -53q-17 41 -53 66t-81 25q-61 0 -102.5 -42.5t-41.5 -104.5t41.5 -104.5t102.5 -42.5q45 0 81 25t53 65l123 -52q-26 -62 -75.5 -104t-116.5 -57v-127h-139z
" />
    <glyph glyph-name="sterling" unicode="&#xa3;" 
d="M54 328v110h54q-17 43 -17 93q0 95 60.5 152t162.5 57q90 0 146.5 -39t77.5 -109l-132 -47q-19 74 -90 74q-41 0 -62.5 -23.5t-21.5 -62.5q0 -40 24 -95h192v-110h-139q34 -81 34 -157q0 -28 -7 -52q19 -19 34 -19q19 0 25 11.5t6 46.5v81h142v-77q0 -93 -29.5 -132.5
t-107.5 -39.5q-56 0 -116 47q-43 -48 -104 -48q-153 0 -153 114q0 52 34 85.5t92 33.5q41 0 82 -23q-3 11 -7.5 23t-13.5 26.5t-14.5 24t-19 28.5t-18.5 27h-114zM177 82q23 0 40 17q-30 21 -48 21q-20 0 -20 -18q0 -20 28 -20z" />
    <glyph glyph-name="currency" unicode="&#xa4;" horiz-adv-x="773" 
d="M390 102q-69 0 -129 33l-128 -132l-101 99l131 134q-32 56 -32 126q0 69 33 129l-134 141l102 96l132 -138q59 32 126 32t124 -31l126 129l101 -98l-127 -130q35 -60 35 -130q0 -73 -36 -132l128 -133l-101 -97l-128 132q-57 -30 -122 -30zM390 232q52 0 89 38.5t37 91.5
t-37 91.5t-89 38.5q-53 0 -89 -38t-36 -92t36 -92t89 -38z" />
    <glyph glyph-name="yen" unicode="&#xa5;" 
d="M79 280v112h145v25l-202 313h156l117 -194l117 194h154l-203 -315v-23h146v-112h-146v-77h146v-112h-146v-91h-139v91h-145v112h145v77h-145z" />
    <glyph glyph-name="brokenbar" unicode="&#xa6;" horiz-adv-x="209" 
d="M35 310v420h139v-420h-139zM35 -230v420h139v-420h-139z" />
    <glyph glyph-name="section" unicode="&#xa7;" horiz-adv-x="573" 
d="M284 -10q-91 0 -158 45.5t-85 105.5l138 38q9 -33 41 -54t75 -21q39 0 60 12.5t21 32.5q0 22 -27 33.5t-88 25.5l-27 6q-105 25 -160.5 60.5t-55.5 102.5q0 39 23.5 70.5t61.5 47.5q-31 39 -31 89q0 68 55.5 112.5t154.5 43.5q87 0 149 -40.5t79 -97.5l-131 -37
q-5 29 -32.5 48.5t-67.5 19.5q-77 0 -77 -43q0 -24 34 -40.5t103 -32.5q104 -24 160 -60t56 -101q0 -77 -76 -114q34 -36 34 -87q0 -70 -64 -118t-165 -47zM313 319q40 -9 71 -21q33 14 33 39t-35 39.5t-122 35.5q-38 8 -67 21q-37 -12 -37 -40q0 -25 35 -39.5t122 -34.5z
" />
    <glyph glyph-name="dieresis" unicode="&#xa8;" horiz-adv-x="471" 
d="M261 550v137h137v-137h-137zM74 550v137h137v-137h-137z" />
    <glyph glyph-name="copyright" unicode="&#xa9;" horiz-adv-x="787" 
d="M393 -10q-155 0 -264 109.5t-109 265.5q0 155 109 265t264 110q156 0 265 -109.5t109 -265.5t-109 -265.5t-265 -109.5zM393 96q111 0 189 79t78 190t-78 190t-189 79q-112 0 -187.5 -78.5t-75.5 -190.5t75.5 -190.5t187.5 -78.5zM400 163q-89 0 -147 58.5t-58 143.5
t58.5 143.5t146.5 58.5q59 0 107.5 -31t70.5 -79l-106 -48q-5 20 -24 34.5t-49 14.5q-39 0 -65.5 -27t-26.5 -66t26.5 -66t65.5 -27q28 0 48.5 15t26.5 35l109 -38q-23 -53 -72 -87t-111 -34z" />
    <glyph glyph-name="ordfeminine" unicode="&#xaa;" horiz-adv-x="361" 
d="M149 435q-49 0 -90 38.5t-41 111.5q0 74 42 112.5t91 38.5q46 0 75 -31v25h100v-290h-100v30q-30 -35 -77 -35zM174 527q24 0 39.5 17t15.5 42q0 24 -15.5 41t-39.5 17q-25 0 -41.5 -16t-16.5 -42q0 -25 16.5 -42t41.5 -17z" />
    <glyph glyph-name="guillemotleft" unicode="&#xab;" horiz-adv-x="478" 
d="M229 104l-184 113v77l184 113v-93l-99 -59l99 -58v-93zM433 104l-184 113v77l184 113v-93l-99 -59l99 -58v-93z" />
    <glyph glyph-name="logicalnot" unicode="&#xac;" horiz-adv-x="603" 
d="M429 153v231h-401v133h540v-364h-139z" />
    <glyph glyph-name="uni00AD" unicode="&#xad;" horiz-adv-x="440" 
d="M35 196v117h370v-117h-370z" />
    <glyph glyph-name="registered" unicode="&#xae;" horiz-adv-x="348" 
d="M174 430q-64 0 -109 45.5t-45 109.5t45 109.5t109 45.5t109 -45.5t45 -109.5t-45 -109.5t-109 -45.5zM104 509v154h77q34 0 53.5 -14.5t19.5 -39.5q0 -37 -32 -49l29 -48q29 31 29 73q0 45 -31 75.5t-75 30.5q-45 0 -74.5 -30.5t-29.5 -75.5t29.5 -76t74.5 -31
q43 0 74 31h-53l-38 72v-72h-53zM179 621h-22v-32h22q20 0 20 16t-20 16z" />
    <glyph glyph-name="macron" unicode="&#xaf;" horiz-adv-x="471" 
d="M104 550v86h264v-86h-264z" />
    <glyph glyph-name="degree" unicode="&#xb0;" horiz-adv-x="398" 
d="M199 382q-74 0 -126.5 52.5t-52.5 126.5t52.5 126.5t126.5 52.5t126.5 -52.5t52.5 -126.5t-52.5 -126.5t-126.5 -52.5zM199 498q25 0 44 19t19 44t-19 44t-44 19t-44 -19t-19 -44t19 -44t44 -19z" />
    <glyph glyph-name="plusminus" unicode="&#xb1;" horiz-adv-x="440" 
d="M35 416v117h128v126h115v-126h127v-117h-127v-127h-115v127h-128zM35 116v117h370v-117h-370z" />
    <glyph glyph-name="twosuperior" unicode="&#xb2;" horiz-adv-x="330" 
d="M13 308v84q0 56 31.5 90.5t83.5 61.5q4 2 11 6q23 12 33.5 18.5t20 17t9.5 20.5q0 13 -10 22t-29 9q-40 0 -61 -54l-99 51q49 102 162 102q69 0 112 -36t43 -93q0 -53 -32.5 -86t-86.5 -60q-19 -10 -24.5 -13t-18 -10.5t-17 -12.5t-5.5 -11h181v-106h-304z" />
    <glyph glyph-name="threesuperior" unicode="&#xb3;" horiz-adv-x="325" 
d="M158 302q-101 0 -154 53l87 78q25 -27 60 -27q19 0 31 9t12 25q0 32 -57 32h-44v100h42q50 0 50 34q0 30 -41 30q-34 0 -51 -27l-82 71q25 26 62.5 41t74.5 15q71 0 114.5 -34t43.5 -92q0 -49 -41 -82q51 -32 51 -91q0 -58 -43.5 -96.5t-114.5 -38.5z" />
    <glyph glyph-name="acute" unicode="&#xb4;" horiz-adv-x="471" 
d="M104 550l114 170h128l-150 -170h-92z" />
    <glyph glyph-name="mu" unicode="&#xb5;" horiz-adv-x="523" 
d="M30 -230v730h139v-260q0 -132 91 -132q42 0 69 29.5t27 89.5v273h137v-500h-136v48q-47 -58 -123 -58q-35 0 -68 15v-235h-136z" />
    <glyph glyph-name="mu" unicode="&#x3bc;" horiz-adv-x="523" 
d="M30 -230v730h139v-260q0 -132 91 -132q42 0 69 29.5t27 89.5v273h137v-500h-136v48q-47 -58 -123 -58q-35 0 -68 15v-235h-136z" />
    <glyph glyph-name="paragraph" unicode="&#xb6;" horiz-adv-x="661" 
d="M328 0v302h-91q-93 0 -155 62t-62 152t62 152t154 62h390v-730h-119v601h-60v-601h-119z" />
    <glyph glyph-name="periodcentered" unicode="&#xb7;" horiz-adv-x="207" 
d="M35 186v137h137v-137h-137z" />
    <glyph glyph-name="cedilla" unicode="&#xb8;" horiz-adv-x="471" 
d="M211 -240q-77 0 -143 59l78 47q42 -33 76 -33q22 0 38 8.5t16 21.5q0 27 -57 27h-51v110h85v-53q55 2 85 -20t30 -60q0 -46 -45 -76.5t-112 -30.5z" />
    <glyph glyph-name="onesuperior" unicode="&#xb9;" horiz-adv-x="298" 
d="M13 308v106h81v162q-20 -26 -63 -26h-6v109h3q38 0 54 21.5t16 49.5h111v-316h78v-106h-274z" />
    <glyph glyph-name="ordmasculine" unicode="&#xba;" horiz-adv-x="335" 
d="M168 435q-62 0 -106 44t-44 106q0 63 44 107t106 44t105.5 -44t43.5 -107q0 -62 -43.5 -106t-105.5 -44zM168 530q22 0 37.5 16t15.5 39t-15.5 39.5t-37.5 16.5q-23 0 -38 -16t-15 -40q0 -23 15 -39t38 -16z" />
    <glyph glyph-name="guillemotright" unicode="&#xbb;" horiz-adv-x="478" 
d="M249 104v93l99 58l-99 59v93l184 -113v-77zM45 104v93l99 58l-99 59v93l184 -113v-77z" />
    <glyph glyph-name="onequarter" unicode="&#xbc;" horiz-adv-x="856" 
d="M84 0l527 730h160l-527 -730h-160zM675 0v83h-168v101l167 238h107v-242h62v-97h-62v-83h-106zM13 308v106h81v162q-20 -26 -63 -26h-6v109h3q38 0 54 21.5t16 49.5h111v-316h78v-106h-274zM625 180h50v72z" />
    <glyph glyph-name="onehalf" unicode="&#xbd;" horiz-adv-x="871" 
d="M84 0l527 730h160l-527 -730h-160zM554 0v84q0 56 31.5 90.5t83.5 61.5q4 2 11 6q23 12 33.5 18.5t20 17t9.5 20.5q0 13 -10 22t-29 9q-40 0 -61 -54l-99 51q49 102 162 102q69 0 112 -36t43 -93q0 -53 -32.5 -86t-86.5 -60q-19 -10 -24.5 -13t-18 -10.5t-17 -12.5
t-5.5 -11h181v-106h-304zM13 308v106h81v162q-20 -26 -63 -26h-6v109h3q38 0 54 21.5t16 49.5h111v-316h78v-106h-274z" />
    <glyph glyph-name="threequarters" unicode="&#xbe;" horiz-adv-x="863" 
d="M91 0l527 730h160l-527 -730h-160zM682 0v83h-168v101l167 238h107v-242h62v-97h-62v-83h-106zM158 302q-101 0 -154 53l87 78q25 -27 60 -27q19 0 31 9t12 25q0 32 -57 32h-44v100h42q50 0 50 34q0 30 -41 30q-34 0 -51 -27l-82 71q25 26 62.5 41t74.5 15
q71 0 114.5 -34t43.5 -92q0 -49 -41 -82q51 -32 51 -91q0 -58 -43.5 -96.5t-114.5 -38.5zM632 180h50v72z" />
    <glyph glyph-name="questiondown" unicode="&#xbf;" horiz-adv-x="515" 
d="M263 -240q-103 0 -167.5 58t-64.5 152q0 44 13.5 77.5t33.5 52.5t44 39t44 38t33.5 50t13.5 74v11h123v-11q0 -67 -17 -115.5t-41 -73.5t-48 -44.5t-41 -43.5t-17 -56q0 -38 25.5 -62.5t67.5 -24.5q38 0 63.5 23.5t34.5 61.5l129 -43q-19 -75 -77.5 -119t-151.5 -44z
M206 363v137h137v-137h-137z" />
    <glyph glyph-name="Agrave" unicode="&#xc0;" horiz-adv-x="686" 
d="M14 0l259 730h140l259 -730h-145l-44 127h-280l-44 -127h-145zM343 532l-94 -272h188zM300 780l-150 170h128l114 -170h-92z" />
    <glyph glyph-name="Aacute" unicode="&#xc1;" horiz-adv-x="686" 
d="M14 0l259 730h140l259 -730h-145l-44 127h-280l-44 -127h-145zM343 532l-94 -272h188zM297 780l114 170h128l-150 -170h-92z" />
    <glyph glyph-name="Acircumflex" unicode="&#xc2;" horiz-adv-x="686" 
d="M14 0l259 730h140l259 -730h-145l-44 127h-280l-44 -127h-145zM181 780l119 170h85l119 -170h-103l-59 88l-58 -88h-103zM343 532l-94 -272h188z" />
    <glyph glyph-name="Atilde" unicode="&#xc3;" horiz-adv-x="686" 
d="M14 0l259 730h140l259 -730h-145l-44 127h-280l-44 -127h-145zM173 780q0 61 28 98t77 37q36 0 76 -24q38 -24 52 -24q27 0 27 44h79q0 -63 -27 -99t-78 -36q-36 0 -87 30q-28 17 -42 17q-26 0 -26 -43h-79zM343 532l-94 -272h188z" />
    <glyph glyph-name="Adieresis" unicode="&#xc4;" horiz-adv-x="686" 
d="M14 0l259 730h140l259 -730h-145l-44 127h-280l-44 -127h-145zM343 532l-94 -272h188zM368 780v137h137v-137h-137zM181 780v137h137v-137h-137z" />
    <glyph glyph-name="Aring" unicode="&#xc5;" horiz-adv-x="686" 
d="M14 0l244 688q-32 34 -32 81q0 49 34 83.5t82 34.5q50 0 84 -34.5t34 -83.5q0 -48 -33 -81l245 -688h-145l-44 127h-280l-44 -127h-145zM343 532l-94 -272h188zM303 769q0 -15 10.5 -26.5t25.5 -12.5h6q16 1 27 12.5t11 26.5q0 17 -12.5 29t-28.5 12t-27.5 -12t-11.5 -29
z" />
    <glyph glyph-name="AE" unicode="&#xc6;" horiz-adv-x="933" 
d="M12 0l332 730h557v-133h-382l42 -164h340v-133h-306l42 -167h264v-133h-376l-31 126h-281l-56 -126h-145zM394 531l-123 -276h191z" />
    <glyph glyph-name="Ccedilla" unicode="&#xc7;" horiz-adv-x="735" 
d="M386 -240q-77 0 -143 59l78 47q42 -33 76 -33q22 0 38 8.5t16 21.5q0 27 -57 27h-51v104q-146 17 -234.5 121t-88.5 250q0 162 108 268.5t267 106.5q101 0 186 -49t134 -132l-122 -78q-66 122 -198 122q-102 0 -169.5 -68.5t-67.5 -169.5q0 -99 67 -167.5t167 -68.5
q72 0 125 37t82 99l127 -67q-45 -88 -123.5 -143t-174.5 -63v-45q55 2 85 -20t30 -60q0 -46 -45 -76.5t-112 -30.5z" />
    <glyph glyph-name="Egrave" unicode="&#xc8;" horiz-adv-x="505" 
d="M40 0v730h433v-133h-294v-164h294v-133h-294v-167h294v-133h-433zM220 780l-150 170h128l114 -170h-92z" />
    <glyph glyph-name="Eacute" unicode="&#xc9;" horiz-adv-x="505" 
d="M40 0v730h433v-133h-294v-164h294v-133h-294v-167h294v-133h-433zM201 780l114 170h128l-150 -170h-92z" />
    <glyph glyph-name="Ecircumflex" unicode="&#xca;" horiz-adv-x="505" 
d="M40 0v730h433v-133h-294v-164h294v-133h-294v-167h294v-133h-433zM95 780l119 170h85l119 -170h-103l-59 88l-58 -88h-103z" />
    <glyph glyph-name="Edieresis" unicode="&#xcb;" horiz-adv-x="505" 
d="M40 0v730h433v-133h-294v-164h294v-133h-294v-167h294v-133h-433zM286 780v137h137v-137h-137zM99 780v137h137v-137h-137z" />
    <glyph glyph-name="Igrave" unicode="&#xcc;" horiz-adv-x="229" 
d="M45 0v730h139v-730h-139zM69 780l-150 170h128l114 -170h-92z" />
    <glyph glyph-name="Iacute" unicode="&#xcd;" horiz-adv-x="229" 
d="M45 0v730h139v-730h-139zM70 780l114 170h128l-150 -170h-92z" />
    <glyph glyph-name="Icircumflex" unicode="&#xce;" horiz-adv-x="229" 
d="M45 0v730h139v-730h-139zM-46 780l119 170h85l119 -170h-103l-59 88l-58 -88h-103z" />
    <glyph glyph-name="Idieresis" unicode="&#xcf;" horiz-adv-x="229" 
d="M150 780v137h137v-137h-137zM-57 780v137h137v-137h-137zM45 0v730h139v-730h-139z" />
    <glyph glyph-name="Eth" unicode="&#xd0;" horiz-adv-x="693" 
d="M20 308v117h68v305h199q180 0 283 -102.5t103 -262.5q0 -157 -107 -261t-273 -104h-205v308h-68zM271 601h-44v-176h163v-117h-163v-179h50q116 0 186.5 66.5t70.5 169.5q0 108 -66.5 172t-196.5 64z" />
    <glyph glyph-name="Ntilde" unicode="&#xd1;" horiz-adv-x="687" 
d="M40 0v730h158l310 -491v491h139v-730h-148l-320 507v-507h-139zM172 780q0 61 28 98t77 37q36 0 76 -24q38 -24 52 -24q27 0 27 44h79q0 -63 -27 -99t-78 -36q-36 0 -87 30q-28 17 -42 17q-26 0 -26 -43h-79z" />
    <glyph glyph-name="Ograve" unicode="&#xd2;" horiz-adv-x="787" 
d="M393 -10q-155 0 -264 109.5t-109 265.5q0 155 109 265t264 110q156 0 265 -109.5t109 -265.5t-109 -265.5t-265 -109.5zM393 127q98 0 167 70t69 168t-69 168t-167 70t-166.5 -69.5t-68.5 -168.5t68.5 -168.5t166.5 -69.5zM347 780l-150 170h128l114 -170h-92z" />
    <glyph glyph-name="Oacute" unicode="&#xd3;" horiz-adv-x="787" 
d="M393 -10q-155 0 -264 109.5t-109 265.5q0 155 109 265t264 110q156 0 265 -109.5t109 -265.5t-109 -265.5t-265 -109.5zM393 127q98 0 167 70t69 168t-69 168t-167 70t-166.5 -69.5t-68.5 -168.5t68.5 -168.5t166.5 -69.5zM341 780l114 170h128l-150 -170h-92z" />
    <glyph glyph-name="Ocircumflex" unicode="&#xd4;" horiz-adv-x="787" 
d="M393 -10q-155 0 -264 109.5t-109 265.5q0 155 109 265t264 110q156 0 265 -109.5t109 -265.5t-109 -265.5t-265 -109.5zM393 127q98 0 167 70t69 168t-69 168t-167 70t-166.5 -69.5t-68.5 -168.5t68.5 -168.5t166.5 -69.5zM228 780l119 170h85l119 -170h-103l-59 88
l-58 -88h-103z" />
    <glyph glyph-name="Otilde" unicode="&#xd5;" horiz-adv-x="787" 
d="M393 -10q-155 0 -264 109.5t-109 265.5q0 155 109 265t264 110q156 0 265 -109.5t109 -265.5t-109 -265.5t-265 -109.5zM393 127q98 0 167 70t69 168t-69 168t-167 70t-166.5 -69.5t-68.5 -168.5t68.5 -168.5t166.5 -69.5zM218 780q0 61 28 98t77 37q36 0 76 -24
q38 -24 52 -24q27 0 27 44h79q0 -63 -27 -99t-78 -36q-36 0 -87 30q-28 17 -42 17q-26 0 -26 -43h-79z" />
    <glyph glyph-name="Odieresis" unicode="&#xd6;" horiz-adv-x="787" 
d="M393 -10q-155 0 -264 109.5t-109 265.5q0 155 109 265t264 110q156 0 265 -109.5t109 -265.5t-109 -265.5t-265 -109.5zM393 127q98 0 167 70t69 168t-69 168t-167 70t-166.5 -69.5t-68.5 -168.5t68.5 -168.5t166.5 -69.5zM412 780v137h137v-137h-137zM225 780v137h137
v-137h-137z" />
    <glyph glyph-name="multiply" unicode="&#xd7;" horiz-adv-x="440" 
d="M116 178l-81 81l104 104l-105 105l81 81l105 -105l105 105l81 -81l-105 -105l104 -104l-81 -81l-104 104z" />
    <glyph glyph-name="Oslash" unicode="&#xd8;" horiz-adv-x="787" 
d="M20 0l94 115q-94 105 -94 250q0 155 109 265t264 110q97 0 186 -50l33 40h160l-97 -119q92 -107 92 -246q0 -156 -109 -265.5t-265 -109.5q-98 0 -183 47l-30 -37h-160zM158 365q0 -79 44 -140l289 356q-47 22 -98 22q-98 0 -166.5 -69.5t-68.5 -168.5zM393 127
q98 0 167 70t69 168q0 75 -43 136l-287 -354q43 -20 94 -20z" />
    <glyph glyph-name="Ugrave" unicode="&#xd9;" horiz-adv-x="607" 
d="M303 -10q-118 0 -190.5 68t-72.5 195v477h139v-486q0 -53 35.5 -89t87.5 -36q53 0 89.5 36.5t36.5 88.5v486h139v-477q0 -127 -73 -195t-191 -68zM266 780l-150 170h128l114 -170h-92z" />
    <glyph glyph-name="Uacute" unicode="&#xda;" horiz-adv-x="607" 
d="M303 -10q-118 0 -190.5 68t-72.5 195v477h139v-486q0 -53 35.5 -89t87.5 -36q53 0 89.5 36.5t36.5 88.5v486h139v-477q0 -127 -73 -195t-191 -68zM250 780l114 170h128l-150 -170h-92z" />
    <glyph glyph-name="Ucircumflex" unicode="&#xdb;" horiz-adv-x="607" 
d="M303 -10q-118 0 -190.5 68t-72.5 195v477h139v-486q0 -53 35.5 -89t87.5 -36q53 0 89.5 36.5t36.5 88.5v486h139v-477q0 -127 -73 -195t-191 -68zM142 780l119 170h85l119 -170h-103l-59 88l-58 -88h-103z" />
    <glyph glyph-name="Udieresis" unicode="&#xdc;" horiz-adv-x="607" 
d="M303 -10q-118 0 -190.5 68t-72.5 195v477h139v-486q0 -53 35.5 -89t87.5 -36q53 0 89.5 36.5t36.5 88.5v486h139v-477q0 -127 -73 -195t-191 -68zM333 780v137h137v-137h-137zM146 780v137h137v-137h-137z" />
    <glyph glyph-name="Yacute" unicode="&#xdd;" horiz-adv-x="629" 
d="M244 0v346l-232 384h153l149 -251l150 251h153l-234 -387v-343h-139zM264 780l114 170h128l-150 -170h-92z" />
    <glyph glyph-name="Thorn" unicode="&#xde;" horiz-adv-x="557" 
d="M40 0v730h139v-126h120q100 0 166.5 -67.5t66.5 -165.5q0 -99 -66.5 -166.5t-167.5 -67.5h-119v-137h-139zM291 475h-112v-209h112q46 0 74.5 30.5t28.5 74.5t-28.5 74t-74.5 30z" />
    <glyph glyph-name="germandbls" unicode="&#xdf;" horiz-adv-x="518" 
d="M-59 -230v128q62 0 78 15.5t16 74.5v517q-3 101 55 162t168 61q97 0 157.5 -57.5t60.5 -147.5q0 -94 -78 -148q0 -1 -1 -1t-2 -1q44 -19 73.5 -63t29.5 -99q0 -97 -65 -159t-169 -62q-34 0 -50 3v120h48q42 0 69 27.5t27 69.5q0 41 -33 69.5t-88 28.5h-23v124h23
q49 0 78 26t29 65t-24 64t-64 25q-92 0 -92 -93v-532q0 -124 -42.5 -170.5t-160.5 -46.5h-20z" />
    <glyph glyph-name="agrave" unicode="&#xe0;" horiz-adv-x="584" 
d="M261 -10q-90 0 -165.5 69t-75.5 191q0 84 38 145t91.5 88t113.5 27q93 0 149 -59v49h137v-500h-137v56q-56 -66 -151 -66zM288 116q55 0 91.5 39.5t36.5 95.5t-36.5 95t-91.5 39q-57 0 -95.5 -38t-38.5 -96t38.5 -96.5t95.5 -38.5zM231 550l-150 170h128l114 -170h-92z
" />
    <glyph glyph-name="aacute" unicode="&#xe1;" horiz-adv-x="584" 
d="M261 -10q-90 0 -165.5 69t-75.5 191q0 84 38 145t91.5 88t113.5 27q93 0 149 -59v49h137v-500h-137v56q-56 -66 -151 -66zM288 116q55 0 91.5 39.5t36.5 95.5t-36.5 95t-91.5 39q-57 0 -95.5 -38t-38.5 -96t38.5 -96.5t95.5 -38.5zM210 550l114 170h128l-150 -170h-92z
" />
    <glyph glyph-name="acircumflex" unicode="&#xe2;" horiz-adv-x="584" 
d="M261 -10q-90 0 -165.5 69t-75.5 191q0 84 38 145t91.5 88t113.5 27q93 0 149 -59v49h137v-500h-137v56q-56 -66 -151 -66zM288 116q55 0 91.5 39.5t36.5 95.5t-36.5 95t-91.5 39q-57 0 -95.5 -38t-38.5 -96t38.5 -96.5t95.5 -38.5zM143 550l119 170h85l119 -170h-103
l-59 88l-58 -88h-103z" />
    <glyph glyph-name="atilde" unicode="&#xe3;" horiz-adv-x="584" 
d="M261 -10q-90 0 -165.5 69t-75.5 191q0 84 38 145t91.5 88t113.5 27q93 0 149 -59v49h137v-500h-137v56q-56 -66 -151 -66zM288 116q55 0 91.5 39.5t36.5 95.5t-36.5 95t-91.5 39q-57 0 -95.5 -38t-38.5 -96t38.5 -96.5t95.5 -38.5zM122 550q0 61 28 98t77 37q36 0 76 -24
q38 -24 52 -24q27 0 27 44h79q0 -63 -27 -99t-78 -36q-36 0 -87 30q-28 17 -42 17q-26 0 -26 -43h-79z" />
    <glyph glyph-name="adieresis" unicode="&#xe4;" horiz-adv-x="584" 
d="M261 -10q-90 0 -165.5 69t-75.5 191q0 84 38 145t91.5 88t113.5 27q93 0 149 -59v49h137v-500h-137v56q-56 -66 -151 -66zM288 116q55 0 91.5 39.5t36.5 95.5t-36.5 95t-91.5 39q-57 0 -95.5 -38t-38.5 -96t38.5 -96.5t95.5 -38.5zM322 550v137h137v-137h-137zM135 550
v137h137v-137h-137z" />
    <glyph glyph-name="aring" unicode="&#xe5;" horiz-adv-x="584" 
d="M261 -10q-90 0 -165.5 69t-75.5 191q0 84 38 145t91.5 88t113.5 27q93 0 149 -59v49h137v-500h-137v56q-56 -66 -151 -66zM288 116q55 0 91.5 39.5t36.5 95.5t-36.5 95t-91.5 39q-57 0 -95.5 -38t-38.5 -96t38.5 -96.5t95.5 -38.5zM277 543q-48 0 -82 34t-34 82
q0 49 34 83.5t82 34.5q49 0 83.5 -34.5t34.5 -83.5q0 -48 -34.5 -82t-83.5 -34zM277 620q17 0 29 11.5t12 27.5q0 17 -12 29t-29 12q-16 0 -27.5 -12t-11.5 -29q0 -16 11.5 -27.5t27.5 -11.5z" />
    <glyph glyph-name="ae" unicode="&#xe6;" horiz-adv-x="884" 
d="M610 -10q-134 0 -207 99q-27 -44 -80.5 -71.5t-119.5 -27.5q-92 0 -137.5 39t-45.5 104t41 102t117 58q16 4 47 11.5t46.5 12t34.5 12t27 15.5t8 19q0 17 -19.5 28.5t-54.5 11.5q-54 0 -80 -23.5t-26 -58.5v-3h-124v2q0 90 59 140t165 50q117 0 173 -65q73 65 171 65
q111 0 185 -75.5t74 -184.5v-44h-387q11 -44 45.5 -70t88.5 -26q41 0 75.5 23t51.5 60l113 -46q-30 -71 -95 -114t-146 -43zM210 103q51 0 92.5 38.5t41.5 69.5v24q-5 -16 -100 -39q-48 -12 -68.5 -25t-20.5 -34q0 -34 55 -34zM606 390q-41 0 -72.5 -20t-47.5 -54h237
q-31 74 -117 74z" />
    <glyph glyph-name="ccedilla" unicode="&#xe7;" horiz-adv-x="535" 
d="M279 -240q-77 0 -143 59l78 47q42 -33 76 -33q22 0 38 8.5t16 21.5q0 27 -57 27h-51v104q-93 15 -154.5 87t-61.5 169q0 108 75.5 184t183.5 76q84 0 147.5 -43t93.5 -115l-122 -52q-14 36 -46.5 58t-71.5 22q-54 0 -91 -38t-37 -92t37 -92t91 -38q39 0 71.5 22t46.5 58
l122 -52q-26 -62 -78 -103.5t-121 -51.5v-46q55 2 85 -20t30 -60q0 -46 -45 -76.5t-112 -30.5z" />
    <glyph glyph-name="egrave" unicode="&#xe8;" horiz-adv-x="559" 
d="M284 -10q-115 0 -189.5 75t-74.5 185q0 108 76 184t184 76q113 0 185.5 -74.5t72.5 -184.5v-50h-386q12 -42 46 -66.5t87 -24.5q41 0 73.5 21t49.5 57l109 -65q-34 -61 -93.5 -97t-139.5 -36zM244 550l-150 170h128l114 -170h-92zM281 390q-42 0 -74.5 -21.5t-48.5 -57.5
h242q-27 79 -119 79z" />
    <glyph glyph-name="eacute" unicode="&#xe9;" horiz-adv-x="559" 
d="M284 -10q-115 0 -189.5 75t-74.5 185q0 108 76 184t184 76q113 0 185.5 -74.5t72.5 -184.5v-50h-386q12 -42 46 -66.5t87 -24.5q41 0 73.5 21t49.5 57l109 -65q-34 -61 -93.5 -97t-139.5 -36zM223 550l114 170h128l-150 -170h-92zM281 390q-42 0 -74.5 -21.5t-48.5 -57.5
h242q-27 79 -119 79z" />
    <glyph glyph-name="ecircumflex" unicode="&#xea;" horiz-adv-x="559" 
d="M284 -10q-115 0 -189.5 75t-74.5 185q0 108 76 184t184 76q113 0 185.5 -74.5t72.5 -184.5v-50h-386q12 -42 46 -66.5t87 -24.5q41 0 73.5 21t49.5 57l109 -65q-34 -61 -93.5 -97t-139.5 -36zM114 550l119 170h85l119 -170h-103l-59 88l-58 -88h-103zM281 390
q-42 0 -74.5 -21.5t-48.5 -57.5h242q-27 79 -119 79z" />
    <glyph glyph-name="edieresis" unicode="&#xeb;" horiz-adv-x="559" 
d="M284 -10q-115 0 -189.5 75t-74.5 185q0 108 76 184t184 76q113 0 185.5 -74.5t72.5 -184.5v-50h-386q12 -42 46 -66.5t87 -24.5q41 0 73.5 21t49.5 57l109 -65q-34 -61 -93.5 -97t-139.5 -36zM304 550v137h137v-137h-137zM117 550v137h137v-137h-137zM281 390
q-42 0 -74.5 -21.5t-48.5 -57.5h242q-27 79 -119 79z" />
    <glyph glyph-name="igrave" unicode="&#xec;" horiz-adv-x="207" 
d="M35 0v500h137v-500h-137zM75 550l-150 170h128l114 -170h-92z" />
    <glyph glyph-name="iacute" unicode="&#xed;" horiz-adv-x="207" 
d="M35 0v500h137v-500h-137zM39 550l114 170h128l-150 -170h-92z" />
    <glyph glyph-name="icircumflex" unicode="&#xee;" horiz-adv-x="207" 
d="M35 0v500h137v-500h-137zM-58 550l119 170h85l119 -170h-103l-59 88l-58 -88h-103z" />
    <glyph glyph-name="idieresis" unicode="&#xef;" horiz-adv-x="207" 
d="M138 550v137h137v-137h-137zM-69 550v137h137v-137h-137zM35 0v500h137v-500h-137z" />
    <glyph glyph-name="eth" unicode="&#xf0;" horiz-adv-x="561" 
d="M104 525l109 90q-52 44 -154 115h190q27 -21 51 -42l50 42h116l-111 -93q183 -183 183 -380q0 -113 -75 -190t-185 -77q-105 0 -181.5 74.5t-76.5 184.5q0 109 70 179t174 70q49 0 86 -21q-30 42 -81 88l-48 -40h-117zM279 120q51 0 88.5 38.5t37.5 90.5q0 54 -36 92.5
t-89 38.5q-52 0 -89 -37t-37 -94q0 -55 37 -92t88 -37z" />
    <glyph glyph-name="ntilde" unicode="&#xf1;" horiz-adv-x="533" 
d="M35 0v500h136v-56q52 66 138 66q89 0 139 -54t50 -151v-305h-139v287q0 51 -23.5 78.5t-68.5 27.5q-42 0 -68.5 -30t-26.5 -90v-273h-137zM98 551q0 61 28 98t77 37q36 0 76 -24q38 -24 52 -24q27 0 27 44h79q0 -63 -27 -99t-78 -36q-36 0 -87 30q-28 17 -42 17
q-26 0 -26 -43h-79z" />
    <glyph glyph-name="ograve" unicode="&#xf2;" horiz-adv-x="558" 
d="M279 -10q-108 0 -183.5 76t-75.5 184t75.5 184t183.5 76t183.5 -76t75.5 -184t-75.5 -184t-183.5 -76zM279 120q52 0 89 38.5t37 91.5t-37 91.5t-89 38.5q-53 0 -89 -38t-36 -92t36 -92t89 -38zM237 550l-150 170h128l114 -170h-92z" />
    <glyph glyph-name="oacute" unicode="&#xf3;" horiz-adv-x="558" 
d="M279 -10q-108 0 -183.5 76t-75.5 184t75.5 184t183.5 76t183.5 -76t75.5 -184t-75.5 -184t-183.5 -76zM279 120q52 0 89 38.5t37 91.5t-37 91.5t-89 38.5q-53 0 -89 -38t-36 -92t36 -92t89 -38zM229 550l114 170h128l-150 -170h-92z" />
    <glyph glyph-name="ocircumflex" unicode="&#xf4;" horiz-adv-x="558" 
d="M279 -10q-108 0 -183.5 76t-75.5 184t75.5 184t183.5 76t183.5 -76t75.5 -184t-75.5 -184t-183.5 -76zM279 120q52 0 89 38.5t37 91.5t-37 91.5t-89 38.5q-53 0 -89 -38t-36 -92t36 -92t89 -38zM117 550l119 170h85l119 -170h-103l-59 88l-58 -88h-103z" />
    <glyph glyph-name="otilde" unicode="&#xf5;" horiz-adv-x="558" 
d="M279 -10q-108 0 -183.5 76t-75.5 184t75.5 184t183.5 76t183.5 -76t75.5 -184t-75.5 -184t-183.5 -76zM279 120q52 0 89 38.5t37 91.5t-37 91.5t-89 38.5q-53 0 -89 -38t-36 -92t36 -92t89 -38zM114 550q0 61 28 98t77 37q36 0 76 -24q38 -24 52 -24q27 0 27 44h79
q0 -63 -27 -99t-78 -36q-36 0 -87 30q-28 17 -42 17q-26 0 -26 -43h-79z" />
    <glyph glyph-name="odieresis" unicode="&#xf6;" horiz-adv-x="558" 
d="M279 -10q-108 0 -183.5 76t-75.5 184t75.5 184t183.5 76t183.5 -76t75.5 -184t-75.5 -184t-183.5 -76zM279 120q52 0 89 38.5t37 91.5t-37 91.5t-89 38.5q-53 0 -89 -38t-36 -92t36 -92t89 -38zM304 550v137h137v-137h-137zM117 550v137h137v-137h-137z" />
    <glyph glyph-name="divide" unicode="&#xf7;" horiz-adv-x="440" 
d="M35 306v117h370v-117h-370zM163 463v116h116v-116h-116zM163 150v116h116v-116h-116z" />
    <glyph glyph-name="oslash" unicode="&#xf8;" horiz-adv-x="558" 
d="M279 -10q-65 0 -119 28l-15 -18h-139l70 87q-56 70 -56 163q0 108 75.5 184t183.5 76q63 0 117 -28l15 18h139l-70 -86q58 -72 58 -164q0 -108 -75.5 -184t-183.5 -76zM279 120q53 0 90 38t37 92q0 29 -13 57l-148 -183q15 -4 34 -4zM152 250q0 -29 11 -56l147 182
q-20 4 -31 4q-54 0 -90.5 -38t-36.5 -92z" />
    <glyph glyph-name="ugrave" unicode="&#xf9;" horiz-adv-x="533" 
d="M224 -10q-89 0 -139 54t-50 151v305h139v-287q0 -51 23.5 -78.5t68.5 -27.5q42 0 68.5 30t26.5 90v273h137v-500h-136v55q-54 -65 -138 -65zM223 550l-150 170h128l114 -170h-92z" />
    <glyph glyph-name="uacute" unicode="&#xfa;" horiz-adv-x="533" 
d="M224 -10q-89 0 -139 54t-50 151v305h139v-287q0 -51 23.5 -78.5t68.5 -27.5q42 0 68.5 30t26.5 90v273h137v-500h-136v55q-54 -65 -138 -65zM215 550l114 170h128l-150 -170h-92z" />
    <glyph glyph-name="ucircumflex" unicode="&#xfb;" horiz-adv-x="533" 
d="M224 -10q-89 0 -139 54t-50 151v305h139v-287q0 -51 23.5 -78.5t68.5 -27.5q42 0 68.5 30t26.5 90v273h137v-500h-136v55q-54 -65 -138 -65zM104 550l119 170h85l119 -170h-103l-59 88l-58 -88h-103z" />
    <glyph glyph-name="udieresis" unicode="&#xfc;" horiz-adv-x="533" 
d="M224 -10q-89 0 -139 54t-50 151v305h139v-287q0 -51 23.5 -78.5t68.5 -27.5q42 0 68.5 30t26.5 90v273h137v-500h-136v55q-54 -65 -138 -65zM103 550v137h137v-137h-137zM290 550v137h137v-137h-137z" />
    <glyph glyph-name="yacute" unicode="&#xfd;" horiz-adv-x="551" 
d="M109 -231l102 253l-199 478h144l123 -308l115 308h142l-290 -731h-137zM226 550l114 170h128l-150 -170h-92z" />
    <glyph glyph-name="thorn" unicode="&#xfe;" horiz-adv-x="576" 
d="M326 -10q-99 0 -154 70v-290h-137v960h137v-287q54 67 152 67q93 0 164.5 -68t71.5 -191t-73 -192t-161 -69zM296 116q57 0 95.5 38.5t38.5 96.5t-38.5 96t-95.5 38q-55 0 -91.5 -39t-36.5 -95t36.5 -95.5t91.5 -39.5z" />
    <glyph glyph-name="ydieresis" unicode="&#xff;" horiz-adv-x="551" 
d="M109 -231l102 253l-199 478h144l123 -308l115 308h142l-290 -731h-137zM117 550v137h137v-137h-137zM304 550v137h137v-137h-137z" />
    <glyph glyph-name="Amacron" unicode="&#x100;" horiz-adv-x="686" 
d="M14 0l259 730h140l259 -730h-145l-44 127h-280l-44 -127h-145zM343 532l-94 -272h188zM212 780v86h264v-86h-264z" />
    <glyph glyph-name="amacron" unicode="&#x101;" horiz-adv-x="584" 
d="M261 -10q-90 0 -165.5 69t-75.5 191q0 84 38 145t91.5 88t113.5 27q93 0 149 -59v49h137v-500h-137v56q-56 -66 -151 -66zM288 116q55 0 91.5 39.5t36.5 95.5t-36.5 95t-91.5 39q-57 0 -95.5 -38t-38.5 -96t38.5 -96.5t95.5 -38.5zM172 550v86h264v-86h-264z" />
    <glyph glyph-name="Abreve" unicode="&#x102;" horiz-adv-x="686" 
d="M14 0l259 730h140l259 -730h-145l-44 127h-280l-44 -127h-145zM342 775q-79 0 -120 47t-41 123h86q0 -93 75 -96q75 3 75 96h87q0 -74 -44 -122t-118 -48zM343 532l-94 -272h188z" />
    <glyph glyph-name="abreve" unicode="&#x103;" horiz-adv-x="584" 
d="M261 -10q-90 0 -165.5 69t-75.5 191q0 84 38 145t91.5 88t113.5 27q93 0 149 -59v49h137v-500h-137v56q-56 -66 -151 -66zM288 116q55 0 91.5 39.5t36.5 95.5t-36.5 95t-91.5 39q-57 0 -95.5 -38t-38.5 -96t38.5 -96.5t95.5 -38.5zM290 545q-79 0 -120 47t-41 123h86
q0 -93 75 -96q75 3 75 96h87q0 -74 -44 -122t-118 -48z" />
    <glyph glyph-name="Aogonek" unicode="&#x104;" horiz-adv-x="686" 
d="M584 -227q-64 0 -104 31.5t-40 77.5q0 69 85 123l-42 122h-280l-44 -127h-145l259 730h140l259 -730q-85 -56 -107.5 -75t-22.5 -38q0 -30 42 -30q24 0 60 28l80 -54q-28 -25 -66.5 -41.5t-73.5 -16.5zM343 532l-94 -272h188z" />
    <glyph glyph-name="aogonek" unicode="&#x105;" horiz-adv-x="584" 
d="M261 -10q-90 0 -165.5 69t-75.5 191q0 84 38 145t91.5 88t113.5 27q93 0 149 -59v49h137v-500h-5q-53 -32 -79.5 -61.5t-26.5 -49.5q0 -33 37 -33q25 0 50 31l80 -55q-59 -62 -135 -62q-57 0 -94 30.5t-38 77.5q-3 70 74 129v49q-56 -66 -151 -66zM288 116
q55 0 91.5 39.5t36.5 95.5t-36.5 95t-91.5 39q-57 0 -95.5 -38t-38.5 -96t38.5 -96.5t95.5 -38.5z" />
    <glyph glyph-name="Cacute" unicode="&#x106;" horiz-adv-x="735" 
d="M395 -10q-166 0 -270.5 108t-104.5 267q0 162 108 268.5t267 106.5q101 0 186 -49t134 -132l-122 -78q-66 122 -198 122q-102 0 -169.5 -68.5t-67.5 -169.5q0 -99 67 -167.5t167 -68.5q72 0 125 37t82 99l127 -67q-49 -95 -136.5 -151.5t-194.5 -56.5zM348 780l114 170
h128l-150 -170h-92z" />
    <glyph glyph-name="cacute" unicode="&#x107;" horiz-adv-x="535" 
d="M279 -10q-108 0 -183.5 76t-75.5 184t75.5 184t183.5 76q84 0 147.5 -43t93.5 -115l-122 -52q-14 36 -46.5 58t-71.5 22q-54 0 -91 -38t-37 -92t37 -92t91 -38q39 0 71.5 22t46.5 58l122 -52q-30 -72 -93.5 -115t-147.5 -43zM230 550l114 170h128l-150 -170h-92z" />
    <glyph glyph-name="Ccircumflex" unicode="&#x108;" horiz-adv-x="735" 
d="M395 -10q-166 0 -270.5 108t-104.5 267q0 162 108 268.5t267 106.5q101 0 186 -49t134 -132l-122 -78q-66 122 -198 122q-102 0 -169.5 -68.5t-67.5 -169.5q0 -99 67 -167.5t167 -68.5q72 0 125 37t82 99l127 -67q-49 -95 -136.5 -151.5t-194.5 -56.5zM238 780l119 170
h85l119 -170h-103l-59 88l-58 -88h-103z" />
    <glyph glyph-name="ccircumflex" unicode="&#x109;" horiz-adv-x="535" 
d="M279 -10q-108 0 -183.5 76t-75.5 184t75.5 184t183.5 76q84 0 147.5 -43t93.5 -115l-122 -52q-14 36 -46.5 58t-71.5 22q-54 0 -91 -38t-37 -92t37 -92t91 -38q39 0 71.5 22t46.5 58l122 -52q-30 -72 -93.5 -115t-147.5 -43zM121 550l119 170h85l119 -170h-103l-59 88
l-58 -88h-103z" />
    <glyph glyph-name="Cdotaccent" unicode="&#x10a;" horiz-adv-x="735" 
d="M395 -10q-166 0 -270.5 108t-104.5 267q0 162 108 268.5t267 106.5q101 0 186 -49t134 -132l-122 -78q-66 122 -198 122q-102 0 -169.5 -68.5t-67.5 -169.5q0 -99 67 -167.5t167 -68.5q72 0 125 37t82 99l127 -67q-49 -95 -136.5 -151.5t-194.5 -56.5zM333 780v137h137
v-137h-137z" />
    <glyph glyph-name="cdotaccent" unicode="&#x10b;" horiz-adv-x="535" 
d="M279 -10q-108 0 -183.5 76t-75.5 184t75.5 184t183.5 76q84 0 147.5 -43t93.5 -115l-122 -52q-14 36 -46.5 58t-71.5 22q-54 0 -91 -38t-37 -92t37 -92t91 -38q39 0 71.5 22t46.5 58l122 -52q-30 -72 -93.5 -115t-147.5 -43zM213 550v137h137v-137h-137z" />
    <glyph glyph-name="Ccaron" unicode="&#x10c;" horiz-adv-x="735" 
d="M395 -10q-166 0 -270.5 108t-104.5 267q0 162 108 268.5t267 106.5q101 0 186 -49t134 -132l-122 -78q-66 122 -198 122q-102 0 -169.5 -68.5t-67.5 -169.5q0 -99 67 -167.5t167 -68.5q72 0 125 37t82 99l127 -67q-49 -95 -136.5 -151.5t-194.5 -56.5zM355 780l-119 170
h103l58 -88l59 88h103l-119 -170h-85z" />
    <glyph glyph-name="ccaron" unicode="&#x10d;" horiz-adv-x="535" 
d="M279 -10q-108 0 -183.5 76t-75.5 184t75.5 184t183.5 76q84 0 147.5 -43t93.5 -115l-122 -52q-14 36 -46.5 58t-71.5 22q-54 0 -91 -38t-37 -92t37 -92t91 -38q39 0 71.5 22t46.5 58l122 -52q-30 -72 -93.5 -115t-147.5 -43zM241 550l-119 170h103l58 -88l59 88h103
l-119 -170h-85z" />
    <glyph glyph-name="Dcaron" unicode="&#x10e;" horiz-adv-x="645" 
d="M40 0v730h199q180 0 283 -102.5t103 -262.5q0 -157 -107 -261t-273 -104h-205zM223 601h-44v-472h50q116 0 186.5 66.5t70.5 169.5q0 108 -66.5 172t-196.5 64zM222 780l-119 170h103l58 -88l59 88h103l-119 -170h-85z" />
    <glyph glyph-name="dcaron" unicode="&#x10f;" horiz-adv-x="656" 
d="M261 -10q-90 0 -165.5 69t-75.5 191q0 84 38 145t91.5 88t113.5 27q93 0 149 -59v279h137v-730h-137v56q-56 -66 -151 -66zM288 116q55 0 91.5 39.5t36.5 95.5t-36.5 95t-91.5 39q-57 0 -95.5 -38t-38.5 -96t38.5 -96.5t95.5 -38.5zM590 560l24 170h111l-50 -170h-85z
" />
    <glyph glyph-name="Dcroat" unicode="&#x110;" horiz-adv-x="693" 
d="M20 308v117h68v305h199q180 0 283 -102.5t103 -262.5q0 -157 -107 -261t-273 -104h-205v308h-68zM271 601h-44v-176h163v-117h-163v-179h50q116 0 186.5 66.5t70.5 169.5q0 108 -66.5 172t-196.5 64z" />
    <glyph glyph-name="dcroat" unicode="&#x111;" horiz-adv-x="584" 
d="M349 550v86h63v94h137v-94h64v-86h-64v-550h-137v56q-56 -66 -151 -66q-90 0 -165.5 69t-75.5 191q0 84 38 145t91.5 88t113.5 27q93 0 149 -59v99h-63zM288 116q55 0 91.5 39.5t36.5 95.5t-36.5 95t-91.5 39q-57 0 -95.5 -38t-38.5 -96t38.5 -96.5t95.5 -38.5z" />
    <glyph glyph-name="Emacron" unicode="&#x112;" horiz-adv-x="505" 
d="M40 0v730h433v-133h-294v-164h294v-133h-294v-167h294v-133h-433zM125 780v86h264v-86h-264z" />
    <glyph glyph-name="emacron" unicode="&#x113;" horiz-adv-x="559" 
d="M284 -10q-115 0 -189.5 75t-74.5 185q0 108 76 184t184 76q113 0 185.5 -74.5t72.5 -184.5v-50h-386q12 -42 46 -66.5t87 -24.5q41 0 73.5 21t49.5 57l109 -65q-34 -61 -93.5 -97t-139.5 -36zM148 550v86h264v-86h-264zM281 390q-42 0 -74.5 -21.5t-48.5 -57.5h242
q-27 79 -119 79z" />
    <glyph glyph-name="Ebreve" unicode="&#x114;" horiz-adv-x="505" 
d="M40 0v730h433v-133h-294v-164h294v-133h-294v-167h294v-133h-433zM260 775q-79 0 -120 47t-41 123h86q0 -93 75 -96q75 3 75 96h87q0 -74 -44 -122t-118 -48z" />
    <glyph glyph-name="ebreve" unicode="&#x115;" horiz-adv-x="559" 
d="M284 -10q-115 0 -189.5 75t-74.5 185q0 108 76 184t184 76q113 0 185.5 -74.5t72.5 -184.5v-50h-386q12 -42 46 -66.5t87 -24.5q41 0 73.5 21t49.5 57l109 -65q-34 -61 -93.5 -97t-139.5 -36zM280 545q-79 0 -120 47t-41 123h86q0 -93 75 -96q75 3 75 96h87
q0 -74 -44 -122t-118 -48zM281 390q-42 0 -74.5 -21.5t-48.5 -57.5h242q-27 79 -119 79z" />
    <glyph glyph-name="Edotaccent" unicode="&#x116;" horiz-adv-x="505" 
d="M40 0v730h433v-133h-294v-164h294v-133h-294v-167h294v-133h-433zM206 780v137h137v-137h-137z" />
    <glyph glyph-name="edotaccent" unicode="&#x117;" horiz-adv-x="559" 
d="M284 -10q-115 0 -189.5 75t-74.5 185q0 108 76 184t184 76q113 0 185.5 -74.5t72.5 -184.5v-50h-386q12 -42 46 -66.5t87 -24.5q41 0 73.5 21t49.5 57l109 -65q-34 -61 -93.5 -97t-139.5 -36zM213 550v137h137v-137h-137zM281 390q-42 0 -74.5 -21.5t-48.5 -57.5h242
q-27 79 -119 79z" />
    <glyph glyph-name="Eogonek" unicode="&#x118;" horiz-adv-x="505" 
d="M40 0v730h433v-133h-294v-164h294v-133h-294v-167h294v-133q-85 -56 -107.5 -75t-22.5 -38q0 -30 42 -30q24 0 60 28l80 -54q-28 -25 -66.5 -41.5t-73.5 -16.5q-64 0 -104 31.5t-40 77.5q0 64 77 118h-278z" />
    <glyph glyph-name="eogonek" unicode="&#x119;" horiz-adv-x="559" 
d="M272 -227q-64 0 -104 31.5t-40 77.5q0 66 78 118q-85 24 -135.5 92.5t-50.5 157.5q0 108 76 184t184 76q113 0 185.5 -74.5t72.5 -184.5v-50h-386q12 -42 46 -66.5t87 -24.5q41 0 73.5 21t49.5 57l109 -65q-54 -97 -158 -123q-85 -57 -107 -75.5t-22 -37.5q0 -30 42 -30
q24 0 60 28l80 -54q-28 -25 -66.5 -41.5t-73.5 -16.5zM281 390q-42 0 -74.5 -21.5t-48.5 -57.5h242q-27 79 -119 79z" />
    <glyph glyph-name="Ecaron" unicode="&#x11a;" horiz-adv-x="505" 
d="M40 0v730h433v-133h-294v-164h294v-133h-294v-167h294v-133h-433zM213 780l-119 170h103l58 -88l59 88h103l-119 -170h-85z" />
    <glyph glyph-name="ecaron" unicode="&#x11b;" horiz-adv-x="559" 
d="M284 -10q-115 0 -189.5 75t-74.5 185q0 108 76 184t184 76q113 0 185.5 -74.5t72.5 -184.5v-50h-386q12 -42 46 -66.5t87 -24.5q41 0 73.5 21t49.5 57l109 -65q-34 -61 -93.5 -97t-139.5 -36zM239 550l-119 170h103l58 -88l59 88h103l-119 -170h-85zM281 390
q-42 0 -74.5 -21.5t-48.5 -57.5h242q-27 79 -119 79z" />
    <glyph glyph-name="Gcircumflex" unicode="&#x11c;" horiz-adv-x="776" 
d="M399 -10q-167 0 -273 109.5t-106 265.5q0 158 106.5 266.5t266.5 108.5q111 0 197.5 -51t134.5 -136l-122 -74q-68 126 -209 126q-99 0 -167.5 -70.5t-68.5 -169.5q0 -101 68.5 -170.5t172.5 -69.5q78 0 132.5 41t74.5 112h-229v133h379v-56q0 -152 -99.5 -258.5
t-257.5 -106.5zM232 780l119 170h85l119 -170h-103l-59 88l-58 -88h-103z" />
    <glyph glyph-name="gcircumflex" unicode="&#x11d;" horiz-adv-x="584" 
d="M261 -10q-90 0 -165.5 69t-75.5 191q0 84 38 145t91.5 88t113.5 27q92 0 149 -64v54h137v-486q0 -111 -68 -183t-190 -72q-91 0 -159.5 41t-100.5 103l121 68q42 -85 139 -85q54 0 87.5 36t33.5 87v47q-56 -66 -151 -66zM288 116q55 0 91.5 39.5t36.5 95.5t-36.5 95
t-91.5 39q-57 0 -95.5 -38t-38.5 -96t38.5 -96.5t95.5 -38.5zM132 550l119 170h85l119 -170h-103l-59 88l-58 -88h-103z" />
    <glyph glyph-name="Gbreve" unicode="&#x11e;" horiz-adv-x="776" 
d="M399 -10q-167 0 -273 109.5t-106 265.5q0 158 106.5 266.5t266.5 108.5q111 0 197.5 -51t134.5 -136l-122 -74q-68 126 -209 126q-99 0 -167.5 -70.5t-68.5 -169.5q0 -101 68.5 -170.5t172.5 -69.5q78 0 132.5 41t74.5 112h-229v133h379v-56q0 -152 -99.5 -258.5
t-257.5 -106.5zM392 775q-79 0 -120 47t-41 123h86q0 -93 75 -96q75 3 75 96h87q0 -74 -44 -122t-118 -48z" />
    <glyph glyph-name="gbreve" unicode="&#x11f;" horiz-adv-x="584" 
d="M261 -10q-90 0 -165.5 69t-75.5 191q0 84 38 145t91.5 88t113.5 27q92 0 149 -64v54h137v-486q0 -111 -68 -183t-190 -72q-91 0 -159.5 41t-100.5 103l121 68q42 -85 139 -85q54 0 87.5 36t33.5 87v47q-56 -66 -151 -66zM288 116q55 0 91.5 39.5t36.5 95.5t-36.5 95
t-91.5 39q-57 0 -95.5 -38t-38.5 -96t38.5 -96.5t95.5 -38.5zM293 545q-79 0 -120 47t-41 123h86q0 -93 75 -96q75 3 75 96h87q0 -74 -44 -122t-118 -48z" />
    <glyph glyph-name="Gdotaccent" unicode="&#x120;" horiz-adv-x="776" 
d="M399 -10q-167 0 -273 109.5t-106 265.5q0 158 106.5 266.5t266.5 108.5q111 0 197.5 -51t134.5 -136l-122 -74q-68 126 -209 126q-99 0 -167.5 -70.5t-68.5 -169.5q0 -101 68.5 -170.5t172.5 -69.5q78 0 132.5 41t74.5 112h-229v133h379v-56q0 -152 -99.5 -258.5
t-257.5 -106.5zM328 780v137h137v-137h-137z" />
    <glyph glyph-name="gdotaccent" unicode="&#x121;" horiz-adv-x="584" 
d="M261 -10q-90 0 -165.5 69t-75.5 191q0 84 38 145t91.5 88t113.5 27q92 0 149 -64v54h137v-486q0 -111 -68 -183t-190 -72q-91 0 -159.5 41t-100.5 103l121 68q42 -85 139 -85q54 0 87.5 36t33.5 87v47q-56 -66 -151 -66zM288 116q55 0 91.5 39.5t36.5 95.5t-36.5 95
t-91.5 39q-57 0 -95.5 -38t-38.5 -96t38.5 -96.5t95.5 -38.5zM211 550v137h137v-137h-137z" />
    <glyph glyph-name="Gcommaaccent" unicode="&#x122;" horiz-adv-x="776" 
d="M399 -10q-167 0 -273 109.5t-106 265.5q0 158 106.5 266.5t266.5 108.5q111 0 197.5 -51t134.5 -136l-122 -74q-68 126 -209 126q-99 0 -167.5 -70.5t-68.5 -169.5q0 -101 68.5 -170.5t172.5 -69.5q78 0 132.5 41t74.5 112h-229v133h379v-56q0 -152 -99.5 -258.5
t-257.5 -106.5zM396 -249h-85l34 204h121z" />
    <glyph glyph-name="gcommaaccent" unicode="&#x123;" horiz-adv-x="584" 
d="M261 -10q-90 0 -165.5 69t-75.5 191q0 84 38 145t91.5 88t113.5 27q92 0 149 -64v54h137v-486q0 -111 -68 -183t-190 -72q-91 0 -159.5 41t-100.5 103l121 68q42 -85 139 -85q54 0 87.5 36t33.5 87v47q-56 -66 -151 -66zM288 116q55 0 91.5 39.5t36.5 95.5t-36.5 95
t-91.5 39q-57 0 -95.5 -38t-38.5 -96t38.5 -96.5t95.5 -38.5zM324 550h-85l34 204h121z" />
    <glyph glyph-name="Hcircumflex" unicode="&#x124;" horiz-adv-x="633" 
d="M454 0v299h-275v-299h-139v730h139v-298h275v298h139v-730h-139zM154 780l119 170h85l119 -170h-103l-59 88l-58 -88h-103z" />
    <glyph glyph-name="hcircumflex" unicode="&#x125;" horiz-adv-x="533" 
d="M35 0v730h136v-285q54 65 138 65q89 0 139 -54t50 -151v-305h-139v286q0 107 -92 107q-42 0 -68.5 -30t-26.5 -90v-273h-137zM-59 780l119 170h85l119 -170h-103l-59 88l-58 -88h-103z" />
    <glyph glyph-name="Hbar" unicode="&#x126;" horiz-adv-x="693" 
d="M14 528v106h56v96h139v-96h275v96h139v-96h56v-106h-56v-528h-139v299h-275v-299h-139v528h-56zM209 528v-96h275v96h-275z" />
    <glyph glyph-name="hbar" unicode="&#x127;" horiz-adv-x="533" 
d="M-27 558v86h62v86h136v-86h66v-86h-66v-113q54 65 138 65q89 0 139 -54t50 -151v-305h-139v286q0 107 -92 107q-42 0 -68.5 -30t-26.5 -90v-273h-137v558h-62z" />
    <glyph glyph-name="Itilde" unicode="&#x128;" horiz-adv-x="229" 
d="M45 0v730h139v-730h-139zM-47 780q0 61 28 98t77 37q36 0 76 -24q38 -24 52 -24q27 0 27 44h79q0 -63 -27 -99t-78 -36q-36 0 -87 30q-28 17 -42 17q-26 0 -26 -43h-79z" />
    <glyph glyph-name="itilde" unicode="&#x129;" horiz-adv-x="207" 
d="M35 0v500h137v-500h-137zM-63 550q0 61 28 98t77 37q36 0 76 -24q38 -24 52 -24q27 0 27 44h79q0 -63 -27 -99t-78 -36q-36 0 -87 30q-28 17 -42 17q-26 0 -26 -43h-79z" />
    <glyph glyph-name="Imacron" unicode="&#x12a;" horiz-adv-x="229" 
d="M45 0v730h139v-730h-139zM-17 780v86h264v-86h-264z" />
    <glyph glyph-name="imacron" unicode="&#x12b;" horiz-adv-x="207" 
d="M35 0v500h137v-500h-137zM-28 550v86h264v-86h-264z" />
    <glyph glyph-name="Ibreve" unicode="&#x12c;" horiz-adv-x="229" 
d="M45 0v730h139v-730h-139zM113 775q-79 0 -120 47t-41 123h86q0 -93 75 -96q75 3 75 96h87q0 -74 -44 -122t-118 -48z" />
    <glyph glyph-name="ibreve" unicode="&#x12d;" horiz-adv-x="207" 
d="M35 0v500h137v-500h-137zM102 545q-79 0 -120 47t-41 123h86q0 -93 75 -96q75 3 75 96h87q0 -74 -44 -122t-118 -48z" />
    <glyph glyph-name="Iogonek" unicode="&#x12e;" horiz-adv-x="229" 
d="M106 -230q-57 0 -94 30.5t-38 77.5q-1 69 71 127v725h139v-730h-4q-53 -32 -79.5 -61.5t-26.5 -49.5q0 -33 37 -33q25 0 50 31l80 -55q-59 -62 -135 -62z" />
    <glyph glyph-name="iogonek" unicode="&#x12f;" horiz-adv-x="207" 
d="M95 -230q-57 0 -94 30.5t-38 77.5q-1 71 72 128v494h137v-500h-3q-53 -32 -79.5 -61.5t-26.5 -49.5q0 -33 37 -33q25 0 50 31l80 -55q-59 -62 -135 -62zM35 550v137h137v-137h-137z" />
    <glyph glyph-name="Idotaccent" unicode="&#x130;" horiz-adv-x="229" 
d="M45 0v730h139v-730h-139zM45 780v137h137v-137h-137z" />
    <glyph glyph-name="dotlessi" unicode="&#x131;" horiz-adv-x="207" 
d="M35 0v500h137v-500h-137z" />
    <glyph glyph-name="IJ" unicode="&#x132;" horiz-adv-x="491" 
d="M237 0v136h4q45 0 58 12.5t13 57.5v524h139v-519q-1 -123 -38.5 -167t-156.5 -44h-19zM40 0v730h139v-730h-139z" />
    <glyph glyph-name="ij" unicode="&#x133;" horiz-adv-x="404" 
d="M35 -190v128h103q62 0 78 15.5t16 74.5v472h137v-473q0 -122 -46 -169.5t-165 -47.5h-123zM232 550v137h137v-137h-137zM35 0v500h137v-500h-137zM35 550v137h137v-137h-137z" />
    <glyph glyph-name="Jcircumflex" unicode="&#x134;" horiz-adv-x="503" 
d="M249 -10q-89 0 -151 45.5t-80 122.5l138 44q7 -36 31.5 -59t59.5 -23q38 0 57.5 25.5t19.5 65.5v519h139v-506q0 -111 -56 -172.5t-158 -61.5zM227 780l119 170h85l119 -170h-103l-59 88l-58 -88h-103z" />
    <glyph glyph-name="jcircumflex" unicode="&#x135;" horiz-adv-x="208" 
d="M-59 -230v128q62 0 78 15.5t16 74.5v512h138v-513q0 -122 -46.5 -169.5t-165.5 -47.5h-20zM-58 550l119 170h85l119 -170h-103l-59 88l-58 -88h-103z" />
    <glyph glyph-name="Kcommaaccent" unicode="&#x136;" horiz-adv-x="616" 
d="M446 0l-191 349l-76 -95v-254h-139v730h139v-294l236 294h169l-230 -284l250 -446h-158zM306 -249h-85l34 204h121z" />
    <glyph glyph-name="kcommaaccent" unicode="&#x137;" horiz-adv-x="542" 
d="M375 0l-136 200l-67 -79v-121h-137v730h137v-451l184 221h159l-182 -216l192 -284h-150zM265 -249h-85l34 204h121z" />
    <glyph glyph-name="kgreenlandic" unicode="&#x138;" horiz-adv-x="542" 
d="M375 0l-136 200l-67 -79v-121h-137v500h137v-221l184 221h159l-182 -216l192 -284h-150z" />
    <glyph glyph-name="Lacute" unicode="&#x139;" horiz-adv-x="478" 
d="M40 0v730h139v-597h264v-133h-403zM62 780l114 170h128l-150 -170h-92z" />
    <glyph glyph-name="lacute" unicode="&#x13a;" horiz-adv-x="207" 
d="M35 0v730h137v-730h-137zM56 780l114 170h128l-150 -170h-92z" />
    <glyph glyph-name="Lcommaaccent" unicode="&#x13b;" horiz-adv-x="478" 
d="M40 0v730h139v-597h264v-133h-403zM232 -249h-85l34 204h121z" />
    <glyph glyph-name="lcommaaccent" unicode="&#x13c;" horiz-adv-x="207" 
d="M35 0v730h137v-730h-137zM93 -249h-85l34 204h121z" />
    <glyph glyph-name="Lcaron" unicode="&#x13d;" horiz-adv-x="478" 
d="M40 0v730h139v-597h264v-133h-403zM230 560l24 170h111l-50 -170h-85z" />
    <glyph glyph-name="lcaron" unicode="&#x13e;" horiz-adv-x="279" 
d="M35 0v730h137v-730h-137zM215 560l24 170h111l-50 -170h-85z" />
    <glyph glyph-name="Ldot" unicode="&#x13f;" horiz-adv-x="478" 
d="M40 0v730h139v-597h264v-133h-403zM306 292v137h137v-137h-137z" />
    <glyph glyph-name="ldot" unicode="&#x140;" horiz-adv-x="394" 
d="M35 0v730h137v-730h-137zM222 187v137h137v-137h-137z" />
    <glyph glyph-name="Lslash" unicode="&#x141;" horiz-adv-x="523" 
d="M17 281v99l68 21v329h139v-284l159 51v-99l-159 -51v-214h264v-133h-403v302z" />
    <glyph glyph-name="lslash" unicode="&#x142;" horiz-adv-x="375" 
d="M26 316v99l89 26v289h137v-249l97 28v-99l-97 -28v-382h-137v342z" />
    <glyph glyph-name="Nacute" unicode="&#x143;" horiz-adv-x="687" 
d="M40 0v730h158l310 -491v491h139v-730h-148l-320 507v-507h-139zM306 780l114 170h128l-150 -170h-92z" />
    <glyph glyph-name="nacute" unicode="&#x144;" horiz-adv-x="533" 
d="M35 0v500h136v-56q52 66 138 66q89 0 139 -54t50 -151v-305h-139v287q0 51 -23.5 78.5t-68.5 27.5q-42 0 -68.5 -30t-26.5 -90v-273h-137zM234 550l114 170h128l-150 -170h-92z" />
    <glyph glyph-name="Ncommaaccent" unicode="&#x145;" horiz-adv-x="687" 
d="M40 0v730h158l310 -491v491h139v-730h-148l-320 507v-507h-139zM332 -249h-85l34 204h121z" />
    <glyph glyph-name="ncommaaccent" unicode="&#x146;" horiz-adv-x="533" 
d="M35 0v500h136v-56q52 66 138 66q89 0 139 -54t50 -151v-305h-139v287q0 51 -23.5 78.5t-68.5 27.5q-42 0 -68.5 -30t-26.5 -90v-273h-137zM279 -249h-85l34 204h121z" />
    <glyph glyph-name="Ncaron" unicode="&#x147;" horiz-adv-x="687" 
d="M40 0v730h158l310 -491v491h139v-730h-148l-320 507v-507h-139zM304 780l-119 170h103l58 -88l59 88h103l-119 -170h-85z" />
    <glyph glyph-name="ncaron" unicode="&#x148;" horiz-adv-x="533" 
d="M35 0v500h136v-56q52 66 138 66q89 0 139 -54t50 -151v-305h-139v287q0 51 -23.5 78.5t-68.5 27.5q-42 0 -68.5 -30t-26.5 -90v-273h-137zM233 550l-119 170h103l58 -88l59 88h103l-119 -170h-85z" />
    <glyph glyph-name="Eng" unicode="&#x14a;" horiz-adv-x="687" 
d="M435 -207v136h5q42 1 55 13.5t13 52.5v33l-329 488v-516h-139v730h158l310 -460v460h139v-730q-1 -118 -43.5 -162.5t-149.5 -44.5h-19z" />
    <glyph glyph-name="eng" unicode="&#x14b;" horiz-adv-x="533" 
d="M265 -230v128q62 0 78 15.5t16 74.5v299q0 51 -23.5 78.5t-68.5 27.5q-42 0 -68.5 -30t-26.5 -90v-273h-137v500h136v-56q52 66 138 66q89 0 139 -54t50 -151v-318q0 -122 -47 -169.5t-166 -47.5h-20z" />
    <glyph glyph-name="Omacron" unicode="&#x14c;" horiz-adv-x="787" 
d="M393 -10q-155 0 -264 109.5t-109 265.5q0 155 109 265t264 110q156 0 265 -109.5t109 -265.5t-109 -265.5t-265 -109.5zM393 127q98 0 167 70t69 168t-69 168t-167 70t-166.5 -69.5t-68.5 -168.5t68.5 -168.5t166.5 -69.5zM256 780v86h264v-86h-264z" />
    <glyph glyph-name="omacron" unicode="&#x14d;" horiz-adv-x="558" 
d="M279 -10q-108 0 -183.5 76t-75.5 184t75.5 184t183.5 76t183.5 -76t75.5 -184t-75.5 -184t-183.5 -76zM279 120q52 0 89 38.5t37 91.5t-37 91.5t-89 38.5q-53 0 -89 -38t-36 -92t36 -92t89 -38zM148 550v86h264v-86h-264z" />
    <glyph glyph-name="Obreve" unicode="&#x14e;" horiz-adv-x="787" 
d="M393 -10q-155 0 -264 109.5t-109 265.5q0 155 109 265t264 110q156 0 265 -109.5t109 -265.5t-109 -265.5t-265 -109.5zM393 127q98 0 167 70t69 168t-69 168t-167 70t-166.5 -69.5t-68.5 -168.5t68.5 -168.5t166.5 -69.5zM386 775q-79 0 -120 47t-41 123h86
q0 -93 75 -96q75 3 75 96h87q0 -74 -44 -122t-118 -48z" />
    <glyph glyph-name="obreve" unicode="&#x14f;" horiz-adv-x="558" 
d="M279 -10q-108 0 -183.5 76t-75.5 184t75.5 184t183.5 76t183.5 -76t75.5 -184t-75.5 -184t-183.5 -76zM279 120q52 0 89 38.5t37 91.5t-37 91.5t-89 38.5q-53 0 -89 -38t-36 -92t36 -92t89 -38zM278 545q-79 0 -120 47t-41 123h86q0 -93 75 -96q75 3 75 96h87
q0 -74 -44 -122t-118 -48z" />
    <glyph glyph-name="Ohungarumlaut" unicode="&#x150;" horiz-adv-x="787" 
d="M393 -10q-155 0 -264 109.5t-109 265.5q0 155 109 265t264 110q156 0 265 -109.5t109 -265.5t-109 -265.5t-265 -109.5zM393 127q98 0 167 70t69 168t-69 168t-167 70t-166.5 -69.5t-68.5 -168.5t68.5 -168.5t166.5 -69.5zM253 780l114 170h121l-150 -170h-85zM420 780
l114 170h121l-150 -170h-85z" />
    <glyph glyph-name="ohungarumlaut" unicode="&#x151;" horiz-adv-x="558" 
d="M279 -10q-108 0 -183.5 76t-75.5 184t75.5 184t183.5 76t183.5 -76t75.5 -184t-75.5 -184t-183.5 -76zM279 120q52 0 89 38.5t37 91.5t-37 91.5t-89 38.5q-53 0 -89 -38t-36 -92t36 -92t89 -38zM150 550l114 170h121l-150 -170h-85zM317 550l114 170h121l-150 -170h-85z
" />
    <glyph glyph-name="OE" unicode="&#x152;" horiz-adv-x="1094" 
d="M629 0v80q-98 -90 -236 -90q-155 0 -264 109.5t-109 265.5q0 155 109 265t264 110q137 0 236 -91v81h433v-133h-294v-164h294v-133h-294v-167h294v-133h-433zM393 127q98 0 167 70t69 168v10q-4 95 -72.5 161.5t-163.5 66.5q-98 0 -166.5 -69.5t-68.5 -168.5t68.5 -168.5
t166.5 -69.5z" />
    <glyph glyph-name="oe" unicode="&#x153;" horiz-adv-x="944" 
d="M279 -10q-108 0 -183.5 76t-75.5 184t75.5 184t183.5 76q122 0 193 -89q74 89 193 89q111 0 185 -75.5t74 -184.5v-44h-387q11 -44 45.5 -70t88.5 -26q41 0 75.5 23t51.5 60l113 -46q-30 -71 -95 -114t-146 -43q-127 0 -199 87q-74 -87 -192 -87zM279 120q53 0 90 38
t37 92t-37 92t-90 38q-54 0 -90.5 -38t-36.5 -92t36.5 -92t90.5 -38zM666 390q-41 0 -72.5 -20t-47.5 -54h237q-31 74 -117 74z" />
    <glyph glyph-name="Racute" unicode="&#x154;" horiz-adv-x="573" 
d="M40 0v730h229q123 0 196 -69.5t73 -175.5q0 -72 -35.5 -131t-105.5 -86l166 -268h-159l-219 361h68q74 0 109.5 38.5t35.5 85.5q0 115 -145 115h-74v-600h-139zM208 780l114 170h128l-150 -170h-92z" />
    <glyph glyph-name="racute" unicode="&#x155;" horiz-adv-x="391" 
d="M35 0v500h136v-82q39 82 138 82h55v-133h-87q-55 0 -80 -31t-25 -100v-236h-137zM152 550l114 170h128l-150 -170h-92z" />
    <glyph glyph-name="Rcommaaccent" unicode="&#x156;" horiz-adv-x="573" 
d="M40 0v730h229q123 0 196 -69.5t73 -175.5q0 -72 -35.5 -131t-105.5 -86l166 -268h-159l-219 361h68q74 0 109.5 38.5t35.5 85.5q0 115 -145 115h-74v-600h-139zM285 -249h-85l34 204h121z" />
    <glyph glyph-name="rcommaaccent" unicode="&#x157;" horiz-adv-x="391" 
d="M35 0v500h136v-82q39 82 138 82h55v-133h-87q-55 0 -80 -31t-25 -100v-236h-137zM103 -249h-85l34 204h121z" />
    <glyph glyph-name="Rcaron" unicode="&#x158;" horiz-adv-x="573" 
d="M40 0v730h229q123 0 196 -69.5t73 -175.5q0 -72 -35.5 -131t-105.5 -86l166 -268h-159l-219 361h68q74 0 109.5 38.5t35.5 85.5q0 115 -145 115h-74v-600h-139zM223 780l-119 170h103l58 -88l59 88h103l-119 -170h-85z" />
    <glyph glyph-name="rcaron" unicode="&#x159;" horiz-adv-x="391" 
d="M35 0v500h136v-82q39 82 138 82h55v-133h-87q-55 0 -80 -31t-25 -100v-236h-137zM152 550l-119 170h103l58 -88l59 88h103l-119 -170h-85z" />
    <glyph glyph-name="Sacute" unicode="&#x15a;" horiz-adv-x="563" 
d="M288 -10q-171 0 -286 131l127 100q57 -98 158 -98q51 0 80 28t29 68q0 27 -23 47t-44 28t-72 24q-8 3 -12 4q-37 11 -60 19.5t-54.5 26t-49 37.5t-30.5 52.5t-13 72.5q0 89 69 149.5t174 60.5q83 0 139.5 -27.5t106.5 -78.5l-115 -87q-46 69 -130 69q-47 0 -73.5 -22.5
t-26.5 -58.5q0 -35 32.5 -54.5t99.5 -41.5q11 -3 16 -5q36 -12 60.5 -21.5t55.5 -28t50 -39.5t32 -54t13 -73q0 -92 -69 -160t-184 -68zM221 780l114 170h128l-150 -170h-92z" />
    <glyph glyph-name="sacute" unicode="&#x15b;" horiz-adv-x="467" 
d="M235 -10q-175 0 -230 135l131 51q27 -68 105 -68q32 0 50.5 13t18.5 32q0 17 -25 26.5t-74 18.5q-5 1 -8 1q-39 7 -67 16.5t-56 26t-42.5 45t-14.5 66.5q0 65 57.5 111.5t147.5 45.5q152 0 212 -116l-121 -51q-22 55 -92 55q-32 0 -48.5 -11.5t-16.5 -29.5
q0 -16 21.5 -24.5t82.5 -20.5q38 -8 65 -17t56 -26t44.5 -45.5t15.5 -66.5q0 -63 -56 -115.5t-156 -51.5zM128 550l114 170h128l-150 -170h-92z" />
    <glyph glyph-name="Scircumflex" unicode="&#x15c;" horiz-adv-x="563" 
d="M288 -10q-171 0 -286 131l127 100q57 -98 158 -98q51 0 80 28t29 68q0 27 -23 47t-44 28t-72 24q-8 3 -12 4q-37 11 -60 19.5t-54.5 26t-49 37.5t-30.5 52.5t-13 72.5q0 89 69 149.5t174 60.5q83 0 139.5 -27.5t106.5 -78.5l-115 -87q-46 69 -130 69q-47 0 -73.5 -22.5
t-26.5 -58.5q0 -35 32.5 -54.5t99.5 -41.5q11 -3 16 -5q36 -12 60.5 -21.5t55.5 -28t50 -39.5t32 -54t13 -73q0 -92 -69 -160t-184 -68zM115 780l119 170h85l119 -170h-103l-59 88l-58 -88h-103z" />
    <glyph glyph-name="scircumflex" unicode="&#x15d;" horiz-adv-x="467" 
d="M235 -10q-175 0 -230 135l131 51q27 -68 105 -68q32 0 50.5 13t18.5 32q0 17 -25 26.5t-74 18.5q-5 1 -8 1q-39 7 -67 16.5t-56 26t-42.5 45t-14.5 66.5q0 65 57.5 111.5t147.5 45.5q152 0 212 -116l-121 -51q-22 55 -92 55q-32 0 -48.5 -11.5t-16.5 -29.5
q0 -16 21.5 -24.5t82.5 -20.5q38 -8 65 -17t56 -26t44.5 -45.5t15.5 -66.5q0 -63 -56 -115.5t-156 -51.5zM26 550l119 170h85l119 -170h-103l-59 88l-58 -88h-103z" />
    <glyph glyph-name="Scedilla" unicode="&#x15e;" horiz-adv-x="563" 
d="M272 -240q-77 0 -143 59l78 47q42 -33 76 -33q22 0 38 8.5t16 21.5q0 27 -57 27h-51v104q-132 19 -227 127l127 100q57 -98 158 -98q51 0 80 28t29 68q0 27 -23 47t-44 28t-72 24q-8 3 -12 4q-37 11 -60 19.5t-54.5 26t-49 37.5t-30.5 52.5t-13 72.5q0 89 69 149.5
t174 60.5q83 0 139.5 -27.5t106.5 -78.5l-115 -87q-46 69 -130 69q-47 0 -73.5 -22.5t-26.5 -58.5q0 -35 32.5 -54.5t99.5 -41.5q11 -3 16 -5q36 -12 60.5 -21.5t55.5 -28t50 -39.5t32 -54t13 -73q0 -87 -61.5 -153t-165.5 -74v-44q55 2 85 -20t30 -60q0 -46 -45 -76.5
t-112 -30.5z" />
    <glyph glyph-name="scedilla" unicode="&#x15f;" horiz-adv-x="467" 
d="M185 -240q-77 0 -143 59l78 47q42 -33 76 -33q22 0 38 8.5t16 21.5q0 27 -57 27h-51v110h5q-103 26 -142 125l131 51q27 -68 105 -68q32 0 50.5 13t18.5 32q0 17 -25 26.5t-74 18.5q-5 1 -8 1q-39 7 -67 16.5t-56 26t-42.5 45t-14.5 66.5q0 65 57.5 111.5t147.5 45.5
q152 0 212 -116l-121 -51q-22 55 -92 55q-32 0 -48.5 -11.5t-16.5 -29.5q0 -16 21.5 -24.5t82.5 -20.5q38 -8 65 -17t56 -26t44.5 -45.5t15.5 -66.5q0 -63 -56 -115.5t-156 -51.5h-8v-43q55 2 85 -20t30 -60q0 -46 -45 -76.5t-112 -30.5z" />
    <glyph glyph-name="Scaron" unicode="&#x160;" horiz-adv-x="563" 
d="M288 -10q-171 0 -286 131l127 100q57 -98 158 -98q51 0 80 28t29 68q0 27 -23 47t-44 28t-72 24q-8 3 -12 4q-37 11 -60 19.5t-54.5 26t-49 37.5t-30.5 52.5t-13 72.5q0 89 69 149.5t174 60.5q83 0 139.5 -27.5t106.5 -78.5l-115 -87q-46 69 -130 69q-47 0 -73.5 -22.5
t-26.5 -58.5q0 -35 32.5 -54.5t99.5 -41.5q11 -3 16 -5q36 -12 60.5 -21.5t55.5 -28t50 -39.5t32 -54t13 -73q0 -92 -69 -160t-184 -68zM240 780l-119 170h103l58 -88l59 88h103l-119 -170h-85z" />
    <glyph glyph-name="scaron" unicode="&#x161;" horiz-adv-x="467" 
d="M235 -10q-175 0 -230 135l131 51q27 -68 105 -68q32 0 50.5 13t18.5 32q0 17 -25 26.5t-74 18.5q-5 1 -8 1q-39 7 -67 16.5t-56 26t-42.5 45t-14.5 66.5q0 65 57.5 111.5t147.5 45.5q152 0 212 -116l-121 -51q-22 55 -92 55q-32 0 -48.5 -11.5t-16.5 -29.5
q0 -16 21.5 -24.5t82.5 -20.5q38 -8 65 -17t56 -26t44.5 -45.5t15.5 -66.5q0 -63 -56 -115.5t-156 -51.5zM151 550l-119 170h103l58 -88l59 88h103l-119 -170h-85z" />
    <glyph glyph-name="Tcommaaccent" unicode="&#x162;" horiz-adv-x="597" 
d="M232 0v597h-194v133h527v-133h-194v-597h-139zM289 -249h-85l34 204h121z" />
    <glyph glyph-name="tcommaaccent" unicode="&#x163;" horiz-adv-x="371" 
d="M25 377v123h85v117l137 75v-192h94v-123h-94v-159q0 -59 16 -74.5t78 -15.5v-128h-20q-119 0 -165 47.5t-46 169.5v160h-85zM191 -249h-85l34 204h121z" />
    <glyph glyph-name="Tcaron" unicode="&#x164;" horiz-adv-x="597" 
d="M232 0v597h-194v133h527v-133h-194v-597h-139zM254 780l-119 170h103l58 -88l59 88h103l-119 -170h-85z" />
    <glyph glyph-name="tcaron" unicode="&#x165;" horiz-adv-x="371" 
d="M25 377v123h85v117l137 75v-192h94v-123h-94v-159q0 -59 16 -74.5t78 -15.5v-128h-20q-119 0 -165 47.5t-46 169.5v160h-85zM300 566l24 170h111l-50 -170h-85z" />
    <glyph glyph-name="Tbar" unicode="&#x166;" horiz-adv-x="597" 
d="M105 299v133h127v165h-194v133h527v-133h-194v-165h121v-133h-121v-299h-139v299h-127z" />
    <glyph glyph-name="tbar" unicode="&#x167;" horiz-adv-x="371" 
d="M25 390v110h85v117l137 75v-192h94v-110h-94v-74h94v-110h-94q0 -55 16.5 -69.5t77.5 -14.5v-122h-20q-117 0 -163.5 45t-47.5 161h-85v110h85v74h-85z" />
    <glyph glyph-name="Utilde" unicode="&#x168;" horiz-adv-x="607" 
d="M303 -10q-118 0 -190.5 68t-72.5 195v477h139v-486q0 -53 35.5 -89t87.5 -36q53 0 89.5 36.5t36.5 88.5v486h139v-477q0 -127 -73 -195t-191 -68zM125 780q0 61 28 98t77 37q36 0 76 -24q38 -24 52 -24q27 0 27 44h79q0 -63 -27 -99t-78 -36q-36 0 -87 30q-28 17 -42 17
q-26 0 -26 -43h-79z" />
    <glyph glyph-name="utilde" unicode="&#x169;" horiz-adv-x="533" 
d="M224 -10q-89 0 -139 54t-50 151v305h139v-287q0 -51 23.5 -78.5t68.5 -27.5q42 0 68.5 30t26.5 90v273h137v-500h-136v55q-54 -65 -138 -65zM98 550q0 61 28 98t77 37q36 0 76 -24q38 -24 52 -24q27 0 27 44h79q0 -63 -27 -99t-78 -36q-36 0 -87 30q-28 17 -42 17
q-26 0 -26 -43h-79z" />
    <glyph glyph-name="Umacron" unicode="&#x16a;" horiz-adv-x="607" 
d="M303 -10q-118 0 -190.5 68t-72.5 195v477h139v-486q0 -53 35.5 -89t87.5 -36q53 0 89.5 36.5t36.5 88.5v486h139v-477q0 -127 -73 -195t-191 -68zM171 780v86h264v-86h-264z" />
    <glyph glyph-name="umacron" unicode="&#x16b;" horiz-adv-x="533" 
d="M224 -10q-89 0 -139 54t-50 151v305h139v-287q0 -51 23.5 -78.5t68.5 -27.5q42 0 68.5 30t26.5 90v273h137v-500h-136v55q-54 -65 -138 -65zM135 550v86h264v-86h-264z" />
    <glyph glyph-name="Ubreve" unicode="&#x16c;" horiz-adv-x="607" 
d="M303 -10q-118 0 -190.5 68t-72.5 195v477h139v-486q0 -53 35.5 -89t87.5 -36q53 0 89.5 36.5t36.5 88.5v486h139v-477q0 -127 -73 -195t-191 -68zM307 775q-79 0 -120 47t-41 123h86q0 -93 75 -96q75 3 75 96h87q0 -74 -44 -122t-118 -48z" />
    <glyph glyph-name="ubreve" unicode="&#x16d;" horiz-adv-x="533" 
d="M224 -10q-89 0 -139 54t-50 151v305h139v-287q0 -51 23.5 -78.5t68.5 -27.5q42 0 68.5 30t26.5 90v273h137v-500h-136v55q-54 -65 -138 -65zM265 545q-79 0 -120 47t-41 123h86q0 -93 75 -96q75 3 75 96h87q0 -74 -44 -122t-118 -48z" />
    <glyph glyph-name="Uring" unicode="&#x16e;" horiz-adv-x="607" 
d="M303 -10q-118 0 -190.5 68t-72.5 195v477h139v-486q0 -53 35.5 -89t87.5 -36q53 0 89.5 36.5t36.5 88.5v486h139v-477q0 -127 -73 -195t-191 -68zM301 726q-48 0 -82 34t-34 82q0 49 34 83.5t82 34.5q49 0 83.5 -34t34.5 -84q0 -48 -34.5 -82t-83.5 -34zM301 803
q17 0 29 11.5t12 27.5t-12 28.5t-29 12.5q-16 0 -27.5 -12t-11.5 -29q0 -16 11.5 -27.5t27.5 -11.5z" />
    <glyph glyph-name="uring" unicode="&#x16f;" horiz-adv-x="533" 
d="M224 -10q-89 0 -139 54t-50 151v305h139v-287q0 -51 23.5 -78.5t68.5 -27.5q42 0 68.5 30t26.5 90v273h137v-500h-136v55q-54 -65 -138 -65zM267 546q-48 0 -82 34t-34 82q0 49 34 83.5t82 34.5q49 0 83.5 -34t34.5 -84q0 -48 -34.5 -82t-83.5 -34zM267 623q17 0 29 11.5
t12 27.5t-12 28.5t-29 12.5q-16 0 -27.5 -12t-11.5 -29q0 -16 11.5 -27.5t27.5 -11.5z" />
    <glyph glyph-name="Uhungarumlaut" unicode="&#x170;" horiz-adv-x="607" 
d="M303 -10q-118 0 -190.5 68t-72.5 195v477h139v-486q0 -53 35.5 -89t87.5 -36q53 0 89.5 36.5t36.5 88.5v486h139v-477q0 -127 -73 -195t-191 -68zM159 780l114 170h121l-150 -170h-85zM326 780l114 170h121l-150 -170h-85z" />
    <glyph glyph-name="uhungarumlaut" unicode="&#x171;" horiz-adv-x="533" 
d="M224 -10q-89 0 -139 54t-50 151v305h139v-287q0 -51 23.5 -78.5t68.5 -27.5q42 0 68.5 30t26.5 90v273h137v-500h-136v55q-54 -65 -138 -65zM303 550l114 170h121l-150 -170h-85zM136 550l114 170h121l-150 -170h-85z" />
    <glyph glyph-name="Uogonek" unicode="&#x172;" horiz-adv-x="607" 
d="M315 -222q-64 0 -104 31.5t-40 77.5q0 61 65 110q-90 17 -143 83t-53 173v477h139v-486q0 -53 35.5 -89t87.5 -36q53 0 89.5 36.5t36.5 88.5v486h139v-477q0 -97 -44 -160t-120 -88q-85 -56 -107.5 -75t-22.5 -38q0 -30 42 -30q24 0 60 28l80 -54q-28 -25 -66.5 -41.5
t-73.5 -16.5z" />
    <glyph glyph-name="uogonek" unicode="&#x173;" horiz-adv-x="533" 
d="M418 -230q-57 0 -94 30.5t-38 77.5q-3 72 76 131v46q-54 -65 -138 -65q-89 0 -139 54t-50 151v305h139v-287q0 -51 23.5 -78.5t68.5 -27.5q42 0 68.5 30t26.5 90v273h137v-500h-6q-53 -32 -79.5 -61.5t-26.5 -49.5q0 -33 37 -33q25 0 50 31l80 -55q-59 -62 -135 -62z" />
    <glyph glyph-name="Wcircumflex" unicode="&#x174;" horiz-adv-x="1020" 
d="M220 0l-207 730h145l136 -505l150 505h137l150 -503l134 503h141l-206 -730h-137l-151 510l-150 -510h-142zM349 780l119 170h85l119 -170h-103l-59 88l-58 -88h-103z" />
    <glyph glyph-name="wcircumflex" unicode="&#x175;" horiz-adv-x="884" 
d="M193 0l-168 501l137 -1l102 -319l114 319h136l107 -319l108 319h136l-178 -500h-132l-112 318l-117 -318h-133zM281 550l119 170h85l119 -170h-103l-59 88l-58 -88h-103z" />
    <glyph glyph-name="Ycircumflex" unicode="&#x176;" horiz-adv-x="629" 
d="M244 0v346l-232 384h153l149 -251l150 251h153l-234 -387v-343h-139zM153 780l119 170h85l119 -170h-103l-59 88l-58 -88h-103z" />
    <glyph glyph-name="ycircumflex" unicode="&#x177;" horiz-adv-x="551" 
d="M109 -231l102 253l-199 478h144l123 -308l115 308h142l-290 -731h-137zM114 550l119 170h85l119 -170h-103l-59 88l-58 -88h-103z" />
    <glyph glyph-name="Ydieresis" unicode="&#x178;" horiz-adv-x="629" 
d="M244 0v346l-232 384h153l149 -251l150 251h153l-234 -387v-343h-139zM152 780v137h137v-137h-137zM339 780v137h137v-137h-137z" />
    <glyph glyph-name="Zacute" unicode="&#x179;" horiz-adv-x="553" 
d="M35 0v128l318 469h-307v133h472v-127l-319 -470h319v-133h-483zM221 780l114 170h128l-150 -170h-92z" />
    <glyph glyph-name="zacute" unicode="&#x17a;" horiz-adv-x="512" 
d="M30 0v122l263 257h-259v121h443v-123l-263 -256h268v-121h-452zM208 550l114 170h128l-150 -170h-92z" />
    <glyph glyph-name="Zdotaccent" unicode="&#x17b;" horiz-adv-x="553" 
d="M35 0v128l318 469h-307v133h472v-127l-319 -470h319v-133h-483zM213 780v137h137v-137h-137z" />
    <glyph glyph-name="zdotaccent" unicode="&#x17c;" horiz-adv-x="512" 
d="M30 0v122l263 257h-259v121h443v-123l-263 -256h268v-121h-452zM191 550v137h137v-137h-137z" />
    <glyph glyph-name="Zcaron" unicode="&#x17d;" horiz-adv-x="553" 
d="M35 0v128l318 469h-307v133h472v-127l-319 -470h319v-133h-483zM240 780l-119 170h103l58 -88l59 88h103l-119 -170h-85z" />
    <glyph glyph-name="zcaron" unicode="&#x17e;" horiz-adv-x="512" 
d="M30 0v122l263 257h-259v121h443v-123l-263 -256h268v-121h-452zM219 550l-119 170h103l58 -88l59 88h103l-119 -170h-85z" />
    <glyph glyph-name="florin" unicode="&#x192;" 
d="M45 303v123h192l24 87q33 120 98 168.5t174 48.5h11v-128q-70 0 -99 -18t-44 -72l-24 -86h166v-123h-200l-24 -86q-33 -119 -91 -168t-160 -49h-23v128q61 0 90.5 19.5t43.5 70.5l23 85h-157z" />
    <glyph glyph-name="Aringacute" unicode="&#x1fa;" horiz-adv-x="686" 
d="M14 0l244 689q-32 34 -32 81q0 49 34 83.5t82 34.5q50 0 84 -34t34 -84q0 -48 -33 -81l245 -689h-145l-44 127h-280l-44 -127h-145zM343 532l-94 -272h188zM296 932l114 170h128l-150 -170h-92zM342 731q17 0 29 11.5t12 27.5t-12.5 28.5t-28.5 12.5t-27.5 -12t-11.5 -29
q0 -16 11.5 -27.5t27.5 -11.5z" />
    <glyph glyph-name="aringacute" unicode="&#x1fb;" horiz-adv-x="582" 
d="M261 -10q-90 0 -165.5 69t-75.5 191q0 84 38 145t91.5 88t113.5 27q93 0 149 -59v49h137v-500h-137v56q-56 -66 -151 -66zM288 116q55 0 91.5 39.5t36.5 95.5t-36.5 95t-91.5 39q-57 0 -95.5 -38t-38.5 -96t38.5 -96.5t95.5 -38.5zM277 543q-48 0 -82 34t-34 82
q0 49 34 83.5t82 34.5q49 0 83.5 -34.5t34.5 -83.5q0 -48 -34.5 -82t-83.5 -34zM230 812l114 170h128l-150 -170h-92zM277 620q17 0 29 11.5t12 27.5q0 17 -12 29t-29 12q-16 0 -27.5 -12t-11.5 -29q0 -16 11.5 -27.5t27.5 -11.5z" />
    <glyph glyph-name="AEacute" unicode="&#x1fc;" horiz-adv-x="930" 
d="M12 0l332 730h557v-133h-382l42 -164h340v-133h-306l42 -167h264v-133h-376l-31 126h-281l-56 -126h-145zM394 531l-123 -276h191zM486 780l114 170h128l-150 -170h-92z" />
    <glyph glyph-name="aeacute" unicode="&#x1fd;" horiz-adv-x="884" 
d="M610 -10q-134 0 -207 99q-27 -44 -80.5 -71.5t-119.5 -27.5q-92 0 -137.5 39t-45.5 104t41 102t117 58q16 4 47 11.5t46.5 12t34.5 12t27 15.5t8 19q0 17 -19.5 28.5t-54.5 11.5q-54 0 -80 -23.5t-26 -58.5v-3h-124v2q0 90 59 140t165 50q117 0 173 -65q73 65 171 65
q111 0 185 -75.5t74 -184.5v-44h-387q11 -44 45.5 -70t88.5 -26q41 0 75.5 23t51.5 60l113 -46q-30 -71 -95 -114t-146 -43zM395 550l114 170h128l-150 -170h-92zM210 103q51 0 92.5 38.5t41.5 69.5v24q-5 -16 -100 -39q-48 -12 -68.5 -25t-20.5 -34q0 -34 55 -34zM606 390
q-41 0 -72.5 -20t-47.5 -54h237q-31 74 -117 74z" />
    <glyph glyph-name="Oslashacute" unicode="&#x1fe;" horiz-adv-x="787" 
d="M20 0l94 115q-94 105 -94 250q0 155 109 265t264 110q97 0 186 -50l33 40h160l-97 -119q92 -107 92 -246q0 -156 -109 -265.5t-265 -109.5q-98 0 -183 47l-30 -37h-160zM158 365q0 -79 44 -140l289 356q-47 22 -98 22q-98 0 -166.5 -69.5t-68.5 -168.5zM393 127
q98 0 167 70t69 168q0 75 -43 136l-287 -354q43 -20 94 -20zM331 780l114 170h128l-150 -170h-92z" />
    <glyph glyph-name="oslashacute" unicode="&#x1ff;" horiz-adv-x="558" 
d="M279 -10q-65 0 -119 28l-15 -18h-139l70 87q-56 70 -56 163q0 108 75.5 184t183.5 76q63 0 117 -28l15 18h139l-70 -86q58 -72 58 -164q0 -108 -75.5 -184t-183.5 -76zM231 550l114 170h128l-150 -170h-92zM279 120q53 0 90 38t37 92q0 29 -13 57l-148 -183q15 -4 34 -4z
M152 250q0 -29 11 -56l147 182q-20 4 -31 4q-54 0 -90.5 -38t-36.5 -92z" />
    <glyph glyph-name="Scommaaccent" unicode="&#x218;" horiz-adv-x="563" 
d="M288 -10q-171 0 -286 131l127 100q57 -98 158 -98q51 0 80 28t29 68q0 27 -23 47t-44 28t-72 24q-8 3 -12 4q-37 11 -60 19.5t-54.5 26t-49 37.5t-30.5 52.5t-13 72.5q0 89 69 149.5t174 60.5q83 0 139.5 -27.5t106.5 -78.5l-115 -87q-46 69 -130 69q-47 0 -73.5 -22.5
t-26.5 -58.5q0 -35 32.5 -54.5t99.5 -41.5q11 -3 16 -5q36 -12 60.5 -21.5t55.5 -28t50 -39.5t32 -54t13 -73q0 -92 -69 -160t-184 -68zM270 -249h-85l34 204h121z" />
    <glyph glyph-name="scommaaccent" unicode="&#x219;" horiz-adv-x="467" 
d="M235 -10q-175 0 -230 135l131 51q27 -68 105 -68q32 0 50.5 13t18.5 32q0 17 -25 26.5t-74 18.5q-5 1 -8 1q-39 7 -67 16.5t-56 26t-42.5 45t-14.5 66.5q0 65 57.5 111.5t147.5 45.5q152 0 212 -116l-121 -51q-22 55 -92 55q-32 0 -48.5 -11.5t-16.5 -29.5
q0 -16 21.5 -24.5t82.5 -20.5q38 -8 65 -17t56 -26t44.5 -45.5t15.5 -66.5q0 -63 -56 -115.5t-156 -51.5zM192 -249h-85l34 204h121z" />
    <glyph glyph-name="dotlessj" unicode="&#x237;" horiz-adv-x="208" 
d="M-59 -230v128q62 0 78 15.5t16 74.5v512h138v-513q0 -122 -46.5 -169.5t-165.5 -47.5h-20z" />
    <glyph glyph-name="circumflex" unicode="&#x2c6;" horiz-adv-x="471" 
d="M74 550l119 170h85l119 -170h-103l-59 88l-58 -88h-103z" />
    <glyph glyph-name="caron" unicode="&#x2c7;" horiz-adv-x="471" 
d="M192 550l-119 170h103l58 -88l59 88h103l-119 -170h-85z" />
    <glyph glyph-name="breve" unicode="&#x2d8;" horiz-adv-x="471" 
d="M234 545q-79 0 -120 47t-41 123h86q0 -93 75 -96q75 3 75 96h87q0 -74 -44 -122t-118 -48z" />
    <glyph glyph-name="dotaccent" unicode="&#x2d9;" horiz-adv-x="471" 
d="M157 550v137h137v-137h-137z" />
    <glyph glyph-name="ring" unicode="&#x2da;" horiz-adv-x="471" 
d="M234 546q-48 0 -82 34t-34 82q0 49 34 83.5t82 34.5q50 0 84 -34t34 -84q0 -48 -34.5 -82t-83.5 -34zM234 623q17 0 29 11.5t12 27.5t-12.5 28.5t-28.5 12.5t-27.5 -12t-11.5 -29q0 -16 11.5 -27.5t27.5 -11.5z" />
    <glyph glyph-name="ogonek" unicode="&#x2db;" horiz-adv-x="471" 
d="M231 -227q-64 0 -104 31.5t-40 77.5q0 43 33 80.5t117 79.5l82 -42q-85 -56 -107.5 -75t-22.5 -38q0 -30 42 -30q24 0 60 28l80 -54q-28 -25 -66.5 -41.5t-73.5 -16.5z" />
    <glyph glyph-name="tilde" unicode="&#x2dc;" horiz-adv-x="471" 
d="M63 550q0 61 28 98t77 37q36 0 76 -24q38 -24 52 -24q27 0 27 44h79q0 -63 -27 -99t-78 -36q-36 0 -87 30q-28 17 -42 17q-26 0 -26 -43h-79z" />
    <glyph glyph-name="hungarumlaut" unicode="&#x2dd;" horiz-adv-x="471" 
d="M34 550l114 170h121l-150 -170h-85zM201 550l114 170h121l-150 -170h-85z" />
    <glyph glyph-name="uni0328" unicode="&#x328;" horiz-adv-x="471" 
d="M246 -230q-57 0 -94 30.5t-38 77.5q-1 49 29.5 86t93.5 78l83 -42q-53 -32 -79.5 -61.5t-26.5 -49.5q0 -33 37 -33q25 0 50 31l80 -55q-59 -62 -135 -62z" />
    <glyph glyph-name="pi" unicode="&#x3c0;" horiz-adv-x="780" 
d="M36 597v133h708v-133h-127l-1 -391q0 -45 13 -57.5t58 -12.5h24v-136h-39q-119 0 -156.5 44t-38.5 167l1 386h-182v-597h-139v597h-121z" />
    <glyph glyph-name="pi" unicode="&#x3d6;" horiz-adv-x="780" 
d="M36 597v133h708v-133h-127l-1 -391q0 -45 13 -57.5t58 -12.5h24v-136h-39q-119 0 -156.5 44t-38.5 167l1 386h-182v-597h-139v597h-121z" />
    <glyph glyph-name="uni0E3F" unicode="&#xe3f;" horiz-adv-x="487" 
d="M35 61v596h178v73h69v-74q89 -6 136 -48.5t47 -119.5q0 -80 -66 -119q70 -40 70 -128q1 -82 -48.5 -126.5t-138.5 -52.5v-62h-69v61h-178zM172 303v-120h41v120h-41zM172 535v-107h41v107h-41zM330 245q0 45 -48 55v-113q48 12 48 58zM329 484q0 41 -47 49v-103
q47 9 47 54z" />
    <glyph glyph-name="Wgrave" unicode="&#x1e80;" horiz-adv-x="1020" 
d="M220 0l-207 730h145l136 -505l150 505h137l150 -503l134 503h141l-206 -730h-137l-151 510l-150 -510h-142zM460 780l-150 170h128l114 -170h-92z" />
    <glyph glyph-name="wgrave" unicode="&#x1e81;" horiz-adv-x="884" 
d="M193 0l-168 501l137 -1l102 -319l114 319h136l107 -319l108 319h136l-178 -500h-132l-112 318l-117 -318h-133zM396 550l-150 170h128l114 -170h-92z" />
    <glyph glyph-name="Wacute" unicode="&#x1e82;" horiz-adv-x="1020" 
d="M220 0l-207 730h145l136 -505l150 505h137l150 -503l134 503h141l-206 -730h-137l-151 510l-150 -510h-142zM462 780l114 170h128l-150 -170h-92z" />
    <glyph glyph-name="wacute" unicode="&#x1e83;" horiz-adv-x="884" 
d="M193 0l-168 501l137 -1l102 -319l114 319h136l107 -319l108 319h136l-178 -500h-132l-112 318l-117 -318h-133zM399 550l114 170h128l-150 -170h-92z" />
    <glyph glyph-name="Wdieresis" unicode="&#x1e84;" horiz-adv-x="1020" 
d="M220 0l-207 730h145l136 -505l150 505h137l150 -503l134 503h141l-206 -730h-137l-151 510l-150 -510h-142zM536 780v137h137v-137h-137zM349 780v137h137v-137h-137z" />
    <glyph glyph-name="wdieresis" unicode="&#x1e85;" horiz-adv-x="884" 
d="M193 0l-168 501l137 -1l102 -319l114 319h136l107 -319l108 319h136l-178 -500h-132l-112 318l-117 -318h-133zM468 550v137h137v-137h-137zM281 550v137h137v-137h-137z" />
    <glyph glyph-name="Ygrave" unicode="&#x1ef2;" horiz-adv-x="629" 
d="M244 0v346l-232 384h153l149 -251l150 251h153l-234 -387v-343h-139zM266 780l-150 170h128l114 -170h-92z" />
    <glyph glyph-name="ygrave" unicode="&#x1ef3;" horiz-adv-x="551" 
d="M109 -231l102 253l-199 478h144l123 -308l115 308h142l-290 -731h-137zM227 550l-150 170h128l114 -170h-92z" />
    <glyph glyph-name="figuredash" unicode="&#x2012;" horiz-adv-x="620" 
d="M35 196v117h550v-117h-550z" />
    <glyph glyph-name="endash" unicode="&#x2013;" horiz-adv-x="470" 
d="M35 196v117h400v-117h-400z" />
    <glyph glyph-name="emdash" unicode="&#x2014;" horiz-adv-x="670" 
d="M35 196v117h600v-117h-600z" />
    <glyph glyph-name="uni2015" unicode="&#x2015;" horiz-adv-x="970" 
d="M35 196v117h900v-117h-900z" />
    <glyph glyph-name="doublebar" unicode="&#x2016;" horiz-adv-x="408" 
d="M35 -230v960h139v-960h-139zM234 -230v960h139v-960h-139z" />
    <glyph glyph-name="quoteleft" unicode="&#x2018;" horiz-adv-x="207" 
d="M143 730l34 -204h-85l-70 204h121z" />
    <glyph glyph-name="quoteright" unicode="&#x2019;" horiz-adv-x="207" 
d="M112 526h-85l34 204h121z" />
    <glyph glyph-name="quotesinglbase" unicode="&#x201a;" horiz-adv-x="207" 
d="M106 -117h-85l34 204h121z" />
    <glyph glyph-name="reversequoteleft" unicode="&#x201b;" horiz-adv-x="207" 
d="M112 526h-85l34 204h121z" />
    <glyph glyph-name="quotedblleft" unicode="&#x201c;" horiz-adv-x="370" 
d="M147 730l34 -204h-85l-70 204h121zM310 730l34 -204h-85l-70 204h121z" />
    <glyph glyph-name="quotedblright" unicode="&#x201d;" horiz-adv-x="370" 
d="M112 526h-85l34 204h121zM275 526h-85l34 204h121z" />
    <glyph glyph-name="quotedblbase" unicode="&#x201e;" horiz-adv-x="370" 
d="M106 -117h-85l34 204h121zM269 -117h-85l34 204h121z" />
    <glyph glyph-name="reversequotedblleft" unicode="&#x201f;" horiz-adv-x="370" 
d="M112 526h-85l34 204h121zM275 526h-85l34 204h121z" />
    <glyph glyph-name="dagger" unicode="&#x2020;" horiz-adv-x="523" 
d="M35 376v124h157v230h139v-230h157v-124h-157v-376h-139v376h-157z" />
    <glyph glyph-name="daggerdbl" unicode="&#x2021;" horiz-adv-x="523" 
d="M35 434v122h157v174h139v-174h157v-122h-157v-129h157v-122h-157v-183h-139v183h-157v122h157v129h-157z" />
    <glyph glyph-name="bullet" unicode="&#x2022;" horiz-adv-x="398" 
d="M199 142q-47 0 -80 33t-33 80t33 80t80 33t80 -33t33 -80t-33 -80t-80 -33z" />
    <glyph glyph-name="ellipsis" unicode="&#x2026;" horiz-adv-x="581" 
d="M35 0v137h137v-137h-137zM222 0v137h137v-137h-137zM409 0v137h137v-137h-137z" />
    <glyph glyph-name="perthousand" unicode="&#x2030;" horiz-adv-x="1201" 
d="M10 0l627 730h176l-627 -730h-176zM624 -11q-74 0 -126.5 52.5t-52.5 126.5t52.5 126.5t126.5 52.5t126.5 -52.5t52.5 -126.5t-52.5 -126.5t-126.5 -52.5zM624 105q26 0 44.5 18.5t18.5 44.5t-18.5 44.5t-44.5 18.5t-44.5 -18.5t-18.5 -44.5t18.5 -44.5t44.5 -18.5z
M199 382q-74 0 -126.5 52.5t-52.5 126.5t52.5 126.5t126.5 52.5t126.5 -52.5t52.5 -126.5t-52.5 -126.5t-126.5 -52.5zM199 498q25 0 44 19t19 44t-19 44t-44 19t-44 -19t-19 -44t19 -44t44 -19zM1002 -11q-74 0 -126.5 52.5t-52.5 126.5t52.5 126.5t126.5 52.5t126.5 -52.5
t52.5 -126.5t-52.5 -126.5t-126.5 -52.5zM1002 105q26 0 44.5 18.5t18.5 44.5t-18.5 44.5t-44.5 18.5t-44.5 -18.5t-18.5 -44.5t18.5 -44.5t44.5 -18.5z" />
    <glyph glyph-name="minute" unicode="&#x2032;" horiz-adv-x="207" 
d="M112 526h-85l34 204h121z" />
    <glyph glyph-name="second" unicode="&#x2033;" horiz-adv-x="370" 
d="M112 526h-85l34 204h121zM275 526h-85l34 204h121z" />
    <glyph glyph-name="tripleprime" unicode="&#x2034;" horiz-adv-x="471" 
d="M69 500q-9 21 -21.5 72.5t-12.5 73.5v84h107v-84q0 -23 -13 -74.5t-22 -71.5h-38zM216 500q-9 21 -21.5 72.5t-12.5 73.5v84h107v-84q0 -23 -13 -74.5t-22 -71.5h-38zM363 500q-9 21 -21.5 72.5t-12.5 73.5v84h107v-84q0 -23 -13 -74.5t-22 -71.5h-38z" />
    <glyph glyph-name="guilsinglleft" unicode="&#x2039;" horiz-adv-x="274" 
d="M222 94l-170 119v85l170 119v-103l-88 -59l88 -58v-103z" />
    <glyph glyph-name="guilsinglright" unicode="&#x203a;" horiz-adv-x="274" 
d="M52 95v103l88 58l-88 59v103l170 -119v-85z" />
    <glyph glyph-name="fraction" unicode="&#x2044;" horiz-adv-x="706" 
d="M10 0l527 730h160l-527 -730h-160z" />
    <glyph glyph-name="uni2070" unicode="&#x2070;" horiz-adv-x="452" 
d="M225 302q-90 0 -152.5 63.5t-62.5 153.5t62.5 153.5t152.5 63.5q91 0 154 -63.5t63 -153.5t-63 -153.5t-154 -63.5zM225 415q44 0 72 30t28 74t-28 74t-72 30q-43 0 -71 -30.5t-28 -73.5q0 -44 28 -74t71 -30z" />
    <glyph glyph-name="uni2074" unicode="&#x2074;" horiz-adv-x="362" 
d="M181 308v83h-168v101l167 238h107v-242h62v-97h-62v-83h-106zM131 488h50v72z" />
    <glyph glyph-name="uni2075" unicode="&#x2075;" horiz-adv-x="319" 
d="M156 302q-106 0 -152 78l110 58q12 -28 42 -28q18 0 29 11t11 29q0 17 -11.5 27.5t-30.5 10.5q-30 0 -41 -26l-104 36l32 232h242v-105h-154l-6 -42q21 8 48 8q63 0 101 -37.5t38 -103.5t-43.5 -107t-110.5 -41z" />
    <glyph glyph-name="uni2076" unicode="&#x2076;" horiz-adv-x="352" 
d="M176 302q-73 0 -119.5 45t-46.5 112q0 56 42 123l93 148h131l-75 -118q61 -2 101 -44t40 -109q1 -68 -46 -112.5t-120 -44.5zM176 408q22 0 37.5 15t15.5 37t-15.5 37t-37.5 15t-36.5 -15t-14.5 -37t14.5 -37t36.5 -15z" />
    <glyph glyph-name="uni2077" unicode="&#x2077;" horiz-adv-x="306" 
d="M26 308l147 316h-160v106h280v-100l-144 -322h-123z" />
    <glyph glyph-name="uni2078" unicode="&#x2078;" horiz-adv-x="327" 
d="M163 302q-65 0 -107.5 38t-42.5 102q0 52 39 91q-27 30 -27 75q0 60 38 94t100 34t100.5 -34t38.5 -94q0 -43 -25 -74q37 -37 37 -92q0 -64 -42.5 -102t-108.5 -38zM163 400q19 0 31.5 12t12.5 30q0 17 -12.5 29t-31.5 12t-31 -12t-12 -29q0 -18 12 -30t31 -12zM163 574
q17 0 27 9.5t10 24.5t-9.5 25t-26.5 10t-27 -10t-10 -25t10 -24.5t26 -9.5z" />
    <glyph glyph-name="uni2079" unicode="&#x2079;" horiz-adv-x="352" 
d="M77 308l74 119q-60 2 -100.5 43.5t-40.5 108.5q0 68 46.5 112.5t119.5 44.5t119.5 -45t46.5 -112q0 -56 -42 -123l-93 -148h-130zM176 526q22 0 37 15t15 37t-15 37t-37 15t-37 -15t-15 -37t15 -37t37 -15z" />
    <glyph glyph-name="uni207A" unicode="&#x207a;" horiz-adv-x="245" 
d="M15 472v93h62v60h90v-60h62v-93h-62v-60h-90v60h-62z" />
    <glyph glyph-name="uni207B" unicode="&#x207b;" horiz-adv-x="245" 
d="M15 472v92h214v-92h-214z" />
    <glyph glyph-name="uni207C" unicode="&#x207c;" horiz-adv-x="239" 
d="M13 525v88h213v-88h-213zM13 422v89h213v-89h-213z" />
    <glyph glyph-name="uni207D" unicode="&#x207d;" horiz-adv-x="266" 
d="M172 214q-150 116 -150 302q0 185 150 302l69 -93q-104 -78 -104 -209q0 -128 104 -209z" />
    <glyph glyph-name="uni207E" unicode="&#x207e;" horiz-adv-x="266" 
d="M94 214l-69 93q104 81 104 209q0 131 -104 209l69 93q150 -117 150 -302q0 -186 -150 -302z" />
    <glyph glyph-name="uni2080" unicode="&#x2080;" horiz-adv-x="452" 
d="M225 -6q-90 0 -152.5 63.5t-62.5 153.5t62.5 153.5t152.5 63.5q91 0 154 -63.5t63 -153.5t-63 -153.5t-154 -63.5zM225 107q44 0 72 30t28 74t-28 74t-72 30q-43 0 -71 -30.5t-28 -73.5q0 -44 28 -74t71 -30z" />
    <glyph glyph-name="uni2081" unicode="&#x2081;" horiz-adv-x="298" 
d="M13 0v106h81v162q-20 -26 -63 -26h-6v109h3q38 0 54 21.5t16 49.5h111v-316h78v-106h-274z" />
    <glyph glyph-name="uni2082" unicode="&#x2082;" horiz-adv-x="330" 
d="M13 0v84q0 56 31.5 90.5t83.5 61.5q4 2 11 6q23 12 33.5 18.5t20 17t9.5 20.5q0 13 -10 22t-29 9q-40 0 -61 -54l-99 51q49 102 162 102q69 0 112 -36t43 -93q0 -53 -32.5 -86t-86.5 -60q-19 -10 -24.5 -13t-18 -10.5t-17 -12.5t-5.5 -11h181v-106h-304z" />
    <glyph glyph-name="uni2083" unicode="&#x2083;" horiz-adv-x="325" 
d="M158 -6q-101 0 -154 53l87 78q25 -27 60 -27q19 0 31 9t12 25q0 32 -57 32h-44v100h42q50 0 50 34q0 30 -41 30q-34 0 -51 -27l-82 71q25 26 62.5 41t74.5 15q71 0 114.5 -34t43.5 -92q0 -49 -41 -82q51 -32 51 -91q0 -58 -43.5 -96.5t-114.5 -38.5z" />
    <glyph glyph-name="uni2084" unicode="&#x2084;" horiz-adv-x="362" 
d="M181 0v83h-168v101l167 238h107v-242h62v-97h-62v-83h-106zM131 180h50v72z" />
    <glyph glyph-name="uni2085" unicode="&#x2085;" horiz-adv-x="319" 
d="M156 -6q-106 0 -152 78l110 58q12 -28 42 -28q18 0 29 11t11 29q0 17 -11.5 27.5t-30.5 10.5q-30 0 -41 -26l-104 36l32 232h242v-105h-154l-6 -42q21 8 48 8q63 0 101 -37.5t38 -103.5t-43.5 -107t-110.5 -41z" />
    <glyph glyph-name="uni2086" unicode="&#x2086;" horiz-adv-x="352" 
d="M176 -6q-73 0 -119.5 45t-46.5 112q0 56 42 123l93 148h131l-75 -118q61 -2 101 -44t40 -109q1 -68 -46 -112.5t-120 -44.5zM176 100q22 0 37.5 15t15.5 37t-15.5 37t-37.5 15t-36.5 -15t-14.5 -37t14.5 -37t36.5 -15z" />
    <glyph glyph-name="uni2087" unicode="&#x2087;" horiz-adv-x="306" 
d="M26 0l147 316h-160v106h280v-100l-144 -322h-123z" />
    <glyph glyph-name="uni2088" unicode="&#x2088;" horiz-adv-x="327" 
d="M163 -6q-65 0 -107.5 38t-42.5 102q0 52 39 91q-27 30 -27 75q0 60 38 94t100 34t100.5 -34t38.5 -94q0 -43 -25 -74q37 -37 37 -92q0 -64 -42.5 -102t-108.5 -38zM163 92q19 0 31.5 12t12.5 30q0 17 -12.5 29t-31.5 12t-31 -12t-12 -29q0 -18 12 -30t31 -12zM163 266
q17 0 27 9.5t10 24.5t-9.5 25t-26.5 10t-27 -10t-10 -25t10 -24.5t26 -9.5z" />
    <glyph glyph-name="uni2089" unicode="&#x2089;" horiz-adv-x="352" 
d="M77 0l74 119q-60 2 -100.5 43.5t-40.5 108.5q0 68 46.5 112.5t119.5 44.5t119.5 -45t46.5 -112q0 -56 -42 -123l-93 -148h-130zM176 218q22 0 37 15t15 37t-15 37t-37 15t-37 -15t-15 -37t15 -37t37 -15z" />
    <glyph glyph-name="uni208A" unicode="&#x208a;" horiz-adv-x="245" 
d="M15 164v93h62v60h90v-60h62v-93h-62v-60h-90v60h-62z" />
    <glyph glyph-name="uni208B" unicode="&#x208b;" horiz-adv-x="245" 
d="M15 164v92h214v-92h-214z" />
    <glyph glyph-name="uni208C" unicode="&#x208c;" horiz-adv-x="239" 
d="M13 217v88h213v-88h-213zM13 114v89h213v-89h-213z" />
    <glyph glyph-name="uni208D" unicode="&#x208d;" horiz-adv-x="266" 
d="M172 -94q-150 116 -150 302q0 185 150 302l69 -93q-104 -78 -104 -209q0 -128 104 -209z" />
    <glyph glyph-name="uni208E" unicode="&#x208e;" horiz-adv-x="266" 
d="M94 -94l-69 93q104 81 104 209q0 131 -104 209l69 93q150 -117 150 -302q0 -186 -150 -302z" />
    <glyph glyph-name="uni20A1" unicode="&#x20a1;" horiz-adv-x="735" 
d="M147 -120h-74l79 192q-63 52 -97.5 128t-34.5 165q0 162 108 268.5t267 106.5q5 0 15 -0.5t14 -0.5l42 101h76l-47 -114q19 -5 47 -16l54 130h76l-68 -164q69 -46 111 -117l-122 -78q-21 37 -44 60l-170 -412h13q66 0 116.5 33t81.5 88l125 -72q-51 -87 -133.5 -137.5
t-186.5 -50.5q-25 0 -71 6l-47 -116h-75l54 133q-22 8 -46 21zM158 365q0 -86 52 -151l158 388q-92 -10 -151 -76.5t-59 -160.5zM264 165q18 -11 46 -22l180 440q-22 11 -48 15z" />
    <glyph glyph-name="uni20A2" unicode="&#x20a2;" horiz-adv-x="735" 
d="M395 -10q-166 0 -270.5 108t-104.5 267q0 162 108 268.5t267 106.5q101 0 186 -49t134 -132l-122 -78q-66 122 -198 122q-102 0 -169.5 -68.5t-67.5 -169.5q0 -73 38 -131.5t101 -85.5v293h136v-82q39 82 138 82h25v-133h-57q-55 0 -80 -31t-25 -100v-45q113 20 166 131
l125 -69q-49 -94 -136 -149t-194 -55z" />
    <glyph glyph-name="franc" unicode="&#x20a3;" horiz-adv-x="483" 
d="M35 0v730h413v-133h-274v-97h274v-117h-274v-59h274v-117h-274v-207h-139z" />
    <glyph glyph-name="lira" unicode="&#x20a4;" horiz-adv-x="706" 
d="M86 383v100h65q-3 18 -3 40q0 95 65 156t167 61q91 0 151 -38.5t81 -107.5l-132 -47q-19 72 -98 72q-46 0 -74.5 -27.5t-28.5 -66.5q0 -25 4 -42h210v-100h-175q14 -30 20 -45h155v-100h-124q5 -28 5 -55q0 -24 -7 -54q58 -29 91 -29q39 0 55 18.5t16 61.5v49h142v-67
q0 -172 -177 -172q-84 0 -175 55q-54 -56 -129 -56q-139 0 -139 104q0 47 35 78t87 31q49 0 112 -29q0 1 0.5 4t0.5 5q0 28 -11 56h-189v100h131q-21 33 -28 45h-103zM190 70q32 0 56 21q-42 23 -66 23q-26 0 -26 -20q0 -24 36 -24z" />
    <glyph glyph-name="uni20A6" unicode="&#x20a6;" horiz-adv-x="807" 
d="M30 388v67h90v275h148l152 -275h128v275h139v-275h90v-67h-90v-30h90v-67h-90v-291h-138l-161 291h-129v-291h-139v291h-90v67h90v30h-90zM259 388v-30h92l-16 30h-76zM457 388l16 -30h75v30h-91zM298 455l-39 70v-70h39zM510 291l38 -68v68h-38z" />
    <glyph glyph-name="peseta" unicode="&#x20a7;" horiz-adv-x="1402" 
d="M534 377v2q-28 -77 -94.5 -124t-154.5 -47h-111v-208h-139v730h251q104 0 177 -65.5t84 -164.5h72v117l137 75v-192h104v-123h-104v-159q0 -59 16 -74.5t78 -15.5h244q69 0 69 38q0 18 -23 26t-71 15q-6 1 -9 1q-31 5 -51.5 9t-48 14.5t-44 24t-28.5 38t-12 56.5
q0 71 54.5 116t144.5 44q157 0 218 -116l-121 -51q-22 55 -92 55q-65 0 -65 -38q0 -24 89 -37l18 -3q37 -5 63 -13t55 -23.5t44.5 -44.5t15.5 -69q0 -72 -50.5 -121.5t-161.5 -48.5h-258q-119 0 -165 47.5t-46 169.5v160h-85zM276 601h-102v-264h102q58 0 95.5 38t37.5 94
t-37.5 94t-95.5 38z" />
    <glyph glyph-name="uni20A8" unicode="&#x20a8;" horiz-adv-x="987" 
d="M734 0q-51 0 -95.5 6.5t-105 28.5t-114.5 59.5t-117.5 105.5t-121.5 161h68q74 0 109.5 38.5t35.5 85.5q0 115 -145 115h-74v-600h-139v730h229q123 0 196 -69.5t73 -175.5q0 -68 -31 -124t-92 -86q75 -88 155 -117.5t179 -29.5q83 0 83 38q0 27 -90 39q-9 1 -13 2
q-39 6 -64.5 12.5t-56.5 21.5t-47 42.5t-16 66.5q0 71 54.5 116t144.5 44q157 0 218 -116l-121 -51q-22 55 -92 55q-65 0 -65 -38q0 -24 89 -37l18 -3q37 -5 63 -13t55 -23.5t44.5 -44.5t15.5 -69q0 -72 -53.5 -121.5t-176.5 -48.5z" />
    <glyph glyph-name="uni20A9" unicode="&#x20a9;" horiz-adv-x="1077" 
d="M25 388v67h91l-78 275h145l74 -275h140l82 275h127l82 -275h139l73 275h141l-78 -275h89v-67h-108l-8 -30h116v-67h-135l-82 -291h-137l-86 291h-139l-86 -291h-142l-83 291h-137v67h118l-8 30h-110zM275 388l8 -30h85l9 30h-102zM708 388l9 -30h84l8 30h-101zM502 388
l-9 -30h99l-9 30h-81zM348 291h-47l22 -84zM783 291h-46l24 -82zM563 455l-21 71l-21 -71h42z" />
    <glyph glyph-name="uni20AA" unicode="&#x20aa;" horiz-adv-x="806" 
d="M234 0v549q89 0 114 -21t25 -96v-303h66q114 0 153.5 36.5t39.5 134.5v430h139v-430q0 -300 -318 -300h-219zM35 0v730h219q318 0 318 -300v-128q1 -68 -28 -93.5t-111 -25.5v247q0 98 -38.5 134.5t-154.5 36.5h-66v-601h-139z" />
    <glyph glyph-name="Euro" unicode="&#x20ac;" 
d="M31 409v109h92q8 96 76.5 159t171.5 63q115 0 187 -78l-105 -94q-32 35 -82 35q-44 0 -72 -23.5t-36 -61.5h223l-19 -109h-206v-88h193l-17 -109h-175q6 -38 33.5 -61t72.5 -23q50 0 83 46l125 -82q-66 -102 -207 -102q-114 0 -178 60t-69 162h-91v109h91v88h-91z" />
    <glyph glyph-name="uni20AE" unicode="&#x20ae;" horiz-adv-x="597" 
d="M120 298v75l109 45v179h-194v133h527v-133h-194v-122l105 43v-75l-105 -43v-55l105 43v-75l-105 -43v-270h-139v213l-109 -45v75l109 45v55z" />
    <glyph glyph-name="uni20B1" unicode="&#x20b1;" horiz-adv-x="727" 
d="M35 486v67h77v177h251q88 0 155.5 -49t93.5 -128h90v-67h-77q1 -6 1 -17v-13h76v-67h-88q-25 -81 -93 -131t-159 -50h-111v-208h-139v389h-77v67h77v30h-77zM353 337q70 0 107 52h-209v-52h102zM353 601h-102v-48h206q-38 48 -104 48zM486 469q0 2 -0.5 8t-0.5 9h-234
v-30h234q1 4 1 13z" />
    <glyph glyph-name="published" unicode="&#x2117;" horiz-adv-x="787" 
d="M393 -10q-155 0 -264 109.5t-109 265.5q0 155 109 265t264 110q156 0 265 -109.5t109 -265.5t-109 -265.5t-265 -109.5zM393 96q111 0 189 79t78 190t-78 190t-189 79q-112 0 -187.5 -78.5t-75.5 -190.5t75.5 -190.5t187.5 -78.5zM251 170v384h185q61 0 104 -43.5
t43 -104.5t-42 -104.5t-104 -43.5h-71v-88h-115zM416 459h-50v-106h50q22 0 37.5 16t15.5 37t-15.5 37t-37.5 16z" />
    <glyph glyph-name="servicemark" unicode="&#x2120;" horiz-adv-x="626" 
d="M272 440v290h93l68 -89l73 89h85v-290h-98v138l-62 -69l-61 69v-138h-98zM136 433q-83 0 -124 59l84 53q5 -11 17.5 -19.5t22.5 -8.5q19 0 19 13q0 8 -21 14.5t-45.5 12.5t-45.5 28t-21 58q0 40 32.5 66.5t83.5 26.5q68 0 109 -54l-74 -47q-15 24 -35 24q-21 0 -21 -12
q0 -4 21 -10t45.5 -14t45.5 -30.5t21 -55.5q0 -47 -31 -75.5t-83 -28.5z" />
    <glyph glyph-name="trademark" unicode="&#x2122;" horiz-adv-x="648" 
d="M294 440v290h93l68 -89l73 89h85v-290h-98v138l-62 -69l-61 69v-138h-98zM97 440v199h-72v91h239v-91h-70v-199h-97z" />
    <glyph glyph-name="uni2153" unicode="&#x2153;" horiz-adv-x="887" 
d="M84 0l527 730h160l-527 -730h-160zM720 -6q-101 0 -154 53l87 78q25 -27 60 -27q19 0 31 9t12 25q0 32 -57 32h-44v100h42q50 0 50 34q0 30 -41 30q-34 0 -51 -27l-82 71q25 26 62.5 41t74.5 15q71 0 114.5 -34t43.5 -92q0 -49 -41 -82q51 -32 51 -91q0 -58 -43.5 -96.5
t-114.5 -38.5zM13 308v106h81v162q-20 -26 -63 -26h-6v109h3q38 0 54 21.5t16 49.5h111v-316h78v-106h-274z" />
    <glyph glyph-name="uni2154" unicode="&#x2154;" horiz-adv-x="917" 
d="M114 0l527 730h160l-527 -730h-160zM13 308v84q0 56 31.5 90.5t83.5 61.5q4 2 11 6q23 12 33.5 18.5t20 17t9.5 20.5q0 13 -10 22t-29 9q-40 0 -61 -54l-99 51q49 102 162 102q69 0 112 -36t43 -93q0 -53 -32.5 -86t-86.5 -60q-19 -10 -24.5 -13t-18 -10.5t-17 -12.5
t-5.5 -11h181v-106h-304zM750 -6q-101 0 -154 53l87 78q25 -27 60 -27q19 0 31 9t12 25q0 32 -57 32h-44v100h42q50 0 50 34q0 30 -41 30q-34 0 -51 -27l-82 71q25 26 62.5 41t74.5 15q71 0 114.5 -34t43.5 -92q0 -49 -41 -82q51 -32 51 -91q0 -58 -43.5 -96.5t-114.5 -38.5
z" />
    <glyph glyph-name="uni2155" unicode="&#x2155;" horiz-adv-x="847" 
d="M84 0l527 730h160l-527 -730h-160zM684 -6q-106 0 -152 78l110 58q12 -28 42 -28q18 0 29 11t11 29q0 17 -11.5 27.5t-30.5 10.5q-30 0 -41 -26l-104 36l32 232h242v-105h-154l-6 -42q21 8 48 8q63 0 101 -37.5t38 -103.5t-43.5 -107t-110.5 -41zM13 308v106h81v162
q-20 -26 -63 -26h-6v109h3q38 0 54 21.5t16 49.5h111v-316h78v-106h-274z" />
    <glyph glyph-name="uni2156" unicode="&#x2156;" horiz-adv-x="878" 
d="M114 0l527 730h160l-527 -730h-160zM13 308v84q0 56 31.5 90.5t83.5 61.5q4 2 11 6q23 12 33.5 18.5t20 17t9.5 20.5q0 13 -10 22t-29 9q-40 0 -61 -54l-99 51q49 102 162 102q69 0 112 -36t43 -93q0 -53 -32.5 -86t-86.5 -60q-19 -10 -24.5 -13t-18 -10.5t-17 -12.5
t-5.5 -11h181v-106h-304zM715 -6q-51 0 -91 21t-61 57l110 58q12 -28 42 -28q18 0 29 11t11 29q0 17 -11.5 27.5t-30.5 10.5q-30 0 -41 -26l-104 36l32 232h242v-105h-154l-6 -42q21 8 48 8q63 0 101 -37.5t38 -103.5t-43.5 -107t-110.5 -41z" />
    <glyph glyph-name="uni2157" unicode="&#x2157;" horiz-adv-x="854" 
d="M91 0l527 730h160l-527 -730h-160zM691 -6q-51 0 -91 21t-61 57l110 58q12 -28 42 -28q18 0 29 11t11 29q0 17 -11.5 27.5t-30.5 10.5q-30 0 -41 -26l-104 36l32 232h242v-105h-154l-6 -42q21 8 48 8q63 0 101 -37.5t38 -103.5t-43.5 -107t-110.5 -41zM158 302
q-101 0 -154 53l87 78q25 -27 60 -27q19 0 31 9t12 25q0 32 -57 32h-44v100h42q50 0 50 34q0 30 -41 30q-34 0 -51 -27l-82 71q25 26 62.5 41t74.5 15q71 0 114.5 -34t43.5 -92q0 -49 -41 -82q51 -32 51 -91q0 -58 -43.5 -96.5t-114.5 -38.5z" />
    <glyph glyph-name="uni2158" unicode="&#x2158;" horiz-adv-x="848" 
d="M84 0l527 730h160l-527 -730h-160zM685 -6q-51 0 -91 21t-61 57l110 58q12 -28 42 -28q18 0 29 11t11 29q0 17 -11.5 27.5t-30.5 10.5q-30 0 -41 -26l-104 36l32 232h242v-105h-154l-6 -42q21 8 48 8q63 0 101 -37.5t38 -103.5t-43.5 -107t-110.5 -41zM181 308v83h-168
v101l167 238h107v-242h62v-97h-62v-83h-106zM131 488h50v72z" />
    <glyph glyph-name="uni2159" unicode="&#x2159;" horiz-adv-x="886" 
d="M84 0l527 730h160l-527 -730h-160zM710 -6q-73 0 -119.5 45t-46.5 112q0 56 42 123l93 148h131l-75 -118q61 -2 101 -44t40 -109q1 -68 -46 -112.5t-120 -44.5zM13 308v106h81v162q-20 -26 -63 -26h-6v109h3q38 0 54 21.5t16 49.5h111v-316h78v-106h-274zM710 100
q22 0 37.5 15t15.5 37t-15.5 37t-37.5 15t-36.5 -15t-14.5 -37t14.5 -37t36.5 -15z" />
    <glyph glyph-name="uni215A" unicode="&#x215a;" horiz-adv-x="883" 
d="M81 0l527 730h160l-527 -730h-160zM707 -6q-73 0 -119.5 45t-46.5 112q0 56 42 123l93 148h131l-75 -118q61 -2 101 -44t40 -109q1 -68 -46 -112.5t-120 -44.5zM156 302q-106 0 -152 78l110 58q12 -28 42 -28q18 0 29 11t11 29q0 17 -11.5 27.5t-30.5 10.5q-30 0 -41 -26
l-104 36l32 232h242v-105h-154l-6 -42q21 8 48 8q63 0 101 -37.5t38 -103.5t-43.5 -107t-110.5 -41zM707 100q22 0 37.5 15t15.5 37t-15.5 37t-37.5 15t-36.5 -15t-14.5 -37t14.5 -37t36.5 -15z" />
    <glyph glyph-name="uni215B" unicode="&#x215b;" horiz-adv-x="856" 
d="M84 0l527 730h160l-527 -730h-160zM692 -6q-65 0 -107.5 38t-42.5 102q0 52 39 91q-27 30 -27 75q0 60 38 94t100 34t100.5 -34t38.5 -94q0 -43 -25 -74q37 -37 37 -92q0 -64 -42.5 -102t-108.5 -38zM13 308v106h81v162q-20 -26 -63 -26h-6v109h3q38 0 54 21.5t16 49.5
h111v-316h78v-106h-274zM692 92q19 0 31.5 12t12.5 30q0 17 -12.5 29t-31.5 12t-31 -12t-12 -29q0 -18 12 -30t31 -12zM692 266q17 0 27 9.5t10 24.5t-9.5 25t-26.5 10t-27 -10t-10 -25t10 -24.5t26 -9.5z" />
    <glyph glyph-name="uni215C" unicode="&#x215c;" horiz-adv-x="863" 
d="M91 0l527 730h160l-527 -730h-160zM699 -6q-65 0 -107.5 38t-42.5 102q0 52 39 91q-27 30 -27 75q0 60 38 94t100 34t100.5 -34t38.5 -94q0 -43 -25 -74q37 -37 37 -92q0 -64 -42.5 -102t-108.5 -38zM158 302q-101 0 -154 53l87 78q25 -27 60 -27q19 0 31 9t12 25
q0 32 -57 32h-44v100h42q50 0 50 34q0 30 -41 30q-34 0 -51 -27l-82 71q25 26 62.5 41t74.5 15q71 0 114.5 -34t43.5 -92q0 -49 -41 -82q51 -32 51 -91q0 -58 -43.5 -96.5t-114.5 -38.5zM699 92q19 0 31.5 12t12.5 30q0 17 -12.5 29t-31.5 12t-31 -12t-12 -29q0 -18 12 -30
t31 -12zM699 266q17 0 27 9.5t10 24.5t-9.5 25t-26.5 10t-27 -10t-10 -25t10 -24.5t26 -9.5z" />
    <glyph glyph-name="uni215D" unicode="&#x215d;" horiz-adv-x="853" 
d="M81 0l527 730h160l-527 -730h-160zM689 -6q-65 0 -107.5 38t-42.5 102q0 52 39 91q-27 30 -27 75q0 60 38 94t100 34t100.5 -34t38.5 -94q0 -43 -25 -74q37 -37 37 -92q0 -64 -42.5 -102t-108.5 -38zM156 302q-106 0 -152 78l110 58q12 -28 42 -28q18 0 29 11t11 29
q0 17 -11.5 27.5t-30.5 10.5q-30 0 -41 -26l-104 36l32 232h242v-105h-154l-6 -42q21 8 48 8q63 0 101 -37.5t38 -103.5t-43.5 -107t-110.5 -41zM689 92q19 0 31.5 12t12.5 30q0 17 -12.5 29t-31.5 12t-31 -12t-12 -29q0 -18 12 -30t31 -12zM689 266q17 0 27 9.5t10 24.5
t-9.5 25t-26.5 10t-27 -10t-10 -25t10 -24.5t26 -9.5z" />
    <glyph glyph-name="uni215E" unicode="&#x215e;" horiz-adv-x="830" 
d="M58 0l527 730h160l-527 -730h-160zM666 -6q-65 0 -107.5 38t-42.5 102q0 52 39 91q-27 30 -27 75q0 60 38 94t100 34t100.5 -34t38.5 -94q0 -43 -25 -74q37 -37 37 -92q0 -64 -42.5 -102t-108.5 -38zM26 308l147 316h-160v106h280v-100l-144 -322h-123zM666 92
q19 0 31.5 12t12.5 30q0 17 -12.5 29t-31.5 12t-31 -12t-12 -29q0 -18 12 -30t31 -12zM666 266q17 0 27 9.5t10 24.5t-9.5 25t-26.5 10t-27 -10t-10 -25t10 -24.5t26 -9.5z" />
    <glyph glyph-name="uni215F" unicode="&#x215f;" horiz-adv-x="780" 
d="M84 0l527 730h160l-527 -730h-160zM13 308v106h81v162q-20 -26 -63 -26h-6v109h3q38 0 54 21.5t16 49.5h111v-316h78v-106h-274z" />
    <glyph glyph-name="arrowleft" unicode="&#x2190;" horiz-adv-x="896" 
d="M312 63q-38 80 -101 152t-137 118v58q72 49 135.5 133t80.5 143l124 -66q-36 -96 -127 -170h517v-133h-514q78 -53 134 -157z" />
    <glyph glyph-name="arrowup" unicode="&#x2191;" horiz-adv-x="896" 
d="M373 0v517q-75 -93 -170 -127l-66 124q59 17 143 80.5t133 135.5h53q48 -71 132 -135t143 -81l-66 -124q-96 35 -169 125v-515h-133z" />
    <glyph glyph-name="arrowright" unicode="&#x2192;" horiz-adv-x="896" 
d="M566 63l-112 78q53 102 133 157h-513v133h517q-92 73 -127 170l124 66q17 -59 80.5 -143t135.5 -133v-58q-74 -46 -137 -118t-101 -152z" />
    <glyph glyph-name="arrowdown" unicode="&#x2193;" horiz-adv-x="896" 
d="M412 0q-48 71 -132 135t-143 81l66 124q94 -35 169 -126v516h133v-517q74 91 170 127l66 -124q-59 -17 -143 -80.5t-133 -135.5h-53z" />
    <glyph glyph-name="uni2196" unicode="&#x2196;" horiz-adv-x="896" 
d="M659 60l-365 365q11 -119 -31 -209l-134 41q30 53 44 154.5t-1 193.5l37 37q91 -16 192.5 -2t154.5 44l41 -134q-91 -43 -208 -31l364 -365z" />
    <glyph glyph-name="uni2197" unicode="&#x2197;" horiz-adv-x="896" 
d="M223 60l-94 94l365 365q-118 -12 -209 31l41 134q53 -30 154.5 -44t193.5 1l37 -37q-16 -91 -2 -192.5t44 -154.5l-134 -41q-43 91 -31 208z" />
    <glyph glyph-name="uni2198" unicode="&#x2198;" horiz-adv-x="896" 
d="M704 130q-91 16 -192.5 2t-154.5 -44l-41 134q90 42 208 31l-364 365l94 94l365 -365q-12 118 31 209l134 -41q-30 -53 -44 -154.5t1 -193.5z" />
    <glyph glyph-name="uni2199" unicode="&#x2199;" horiz-adv-x="896" 
d="M557 58q-53 30 -154.5 44t-193.5 -1l-37 37q16 91 2 192.5t-44 154.5l134 41q42 -90 31 -208l365 364l94 -94l-365 -365q119 11 209 -31z" />
    <glyph glyph-name="partialdiff" unicode="&#x2202;" horiz-adv-x="561" 
d="M278 -10q-105 0 -181.5 74.5t-76.5 184.5q0 109 70 179t174 70q49 0 86 -21q-79 106 -291 253h204q275 -214 275 -473q0 -113 -75 -190t-185 -77zM279 120q51 0 88.5 38.5t37.5 90.5q0 54 -36 92.5t-89 38.5q-52 0 -89 -37t-37 -94q0 -55 37 -92t88 -37z" />
    <glyph glyph-name="increment" unicode="&#x2206;" horiz-adv-x="897" 
d="M877 0h-857l429 742zM448 477l-198 -344h396z" />
    <glyph glyph-name="product" unicode="&#x220f;" horiz-adv-x="780" 
d="M36 597v133h708v-133h-121v-597h-139v597h-188v-597h-139v597h-121z" />
    <glyph glyph-name="summation" unicode="&#x2211;" horiz-adv-x="563" 
d="M35 0v149l218 225l-211 223v133h486v-133h-308l211 -223l-233 -241h330v-133h-493z" />
    <glyph glyph-name="minus" unicode="&#x2212;" horiz-adv-x="440" 
d="M35 306v117h370v-117h-370z" />
    <glyph glyph-name="radical" unicode="&#x221a;" horiz-adv-x="789" 
d="M278 0l-146 379h-87v121h182l124 -334l257 564h148l-343 -730h-135z" />
    <glyph glyph-name="infinity" unicode="&#x221e;" horiz-adv-x="890" 
d="M249 205q-74 0 -126.5 52.5t-52.5 126.5t52.5 126.5t126.5 52.5q91 0 197 -100q104 100 195 100q74 0 126.5 -52.5t52.5 -126.5t-52.5 -126.5t-126.5 -52.5q-53 0 -99 26t-96 73q-107 -99 -197 -99zM249 321q49 0 115 63q-66 63 -115 63q-25 0 -44 -18.5t-19 -44.5
t19 -44.5t44 -18.5zM641 321q25 0 44 18.5t19 44.5t-19 44.5t-44 18.5q-46 0 -114 -63q68 -63 114 -63z" />
    <glyph glyph-name="integral" unicode="&#x222b;" horiz-adv-x="365" 
d="M16 -216v128q62 0 78 15t16 73v513q0 123 47.5 170t172.5 47h11v-128q-62 0 -78 -15.5t-16 -74.5v-511q0 -123 -47.5 -170t-172.5 -47h-11z" />
    <glyph glyph-name="approxequal" unicode="&#x2248;" horiz-adv-x="440" 
d="M35 383v117q54 26 97 26q31 0 91.5 -19t85.5 -19q39 0 96 25v-117q-44 -25 -96 -25q-29 0 -90.5 19t-86.5 19q-41 0 -97 -26zM35 216v117q56 27 94 27q31 0 94 -18.5t88 -18.5q42 0 94 23v-117q-40 -23 -94 -23q-29 0 -93 18.5t-89 18.5q-36 0 -94 -27z" />
    <glyph glyph-name="notequal" unicode="&#x2260;" horiz-adv-x="440" 
d="M363 575l-32 -70h74v-117h-126l-22 -50h148v-117h-200l-31 -70h-97l30 70h-72v117h123l21 50h-144v117h195l31 70h102z" />
    <glyph glyph-name="equivalence" unicode="&#x2261;" horiz-adv-x="440" 
d="M35 304v117h370v-117h-370zM35 137v117h370v-117h-370zM35 471v117h370v-117h-370z" />
    <glyph glyph-name="lessequal" unicode="&#x2264;" horiz-adv-x="440" 
d="M404 260l-370 134v117l370 133v-121l-220 -71l220 -71v-121zM34 112v117h370v-117h-370z" />
    <glyph glyph-name="greaterequal" unicode="&#x2265;" horiz-adv-x="440" 
d="M34 260v121l220 71l-220 71v121l370 -133v-117zM34 112v117h370v-117h-370z" />
    <glyph glyph-name="squaremultiply" unicode="&#x22a0;" horiz-adv-x="926" 
d="M100 0v730h726v-730h-726zM239 597v-464h448v464h-448zM341 161l-82 80l122 126l-123 128l82 80l121 -125l123 126l82 -80l-125 -129l124 -127l-82 -80l-122 125z" />
    <glyph glyph-name="house" unicode="&#x2302;" horiz-adv-x="874" 
d="M774 0h-674v427l337 323l337 -323v-427z" />
    <glyph glyph-name="blacksquare" unicode="&#x25a0;" horiz-adv-x="926" 
d="M100 0v730h726v-730h-726z" />
    <glyph glyph-name="blacksquare" unicode="&#xe740;" horiz-adv-x="926" 
d="M100 0v730h726v-730h-726z" />
    <glyph glyph-name="whitesquare" unicode="&#x25a1;" horiz-adv-x="926" 
d="M100 0v730h726v-730h-726zM239 597v-464h448v464h-448z" />
    <glyph glyph-name="blacksmallsquare" unicode="&#x25aa;" horiz-adv-x="700" 
d="M100 0v500h500v-500h-500z" />
    <glyph glyph-name="whitesmallsquare" unicode="&#x25ab;" horiz-adv-x="700" 
d="M100 0v500h500v-500h-500zM237 364v-228h226v228h-226z" />
    <glyph glyph-name="triagup" unicode="&#x25b2;" horiz-adv-x="897" 
d="M877 0h-857l429 742z" />
    <glyph glyph-name="triagrt" unicode="&#x25ba;" horiz-adv-x="897" 
d="M100 -57v857l742 -428z" />
    <glyph glyph-name="triagdn" unicode="&#x25bc;" horiz-adv-x="897" 
d="M20 730h857l-428 -742z" />
    <glyph glyph-name="triaglf" unicode="&#x25c4;" horiz-adv-x="897" 
d="M797 800v-857l-742 429z" />
    <glyph glyph-name="lozenge" unicode="&#x25ca;" horiz-adv-x="843" 
d="M415 -16l-382 382l380 380l382 -382zM212 367l204 -204l199 199l-204 204z" />
    <glyph glyph-name="whitecircle" unicode="&#x25cb;" horiz-adv-x="927" 
d="M463 -10q-155 0 -264 109.5t-109 265.5q0 155 109 265t264 110q156 0 265 -109.5t109 -265.5t-109 -265.5t-265 -109.5zM463 127q98 0 167 70t69 168t-69 168t-167 70t-166.5 -69.5t-68.5 -168.5t68.5 -168.5t166.5 -69.5z" />
    <glyph glyph-name="whitecircle" unicode="&#x25ef;" horiz-adv-x="927" 
d="M463 -10q-155 0 -264 109.5t-109 265.5q0 155 109 265t264 110q156 0 265 -109.5t109 -265.5t-109 -265.5t-265 -109.5zM463 127q98 0 167 70t69 168t-69 168t-167 70t-166.5 -69.5t-68.5 -168.5t68.5 -168.5t166.5 -69.5z" />
    <glyph glyph-name="bullseye" unicode="&#x25ce;" horiz-adv-x="927" 
d="M463 -10q-155 0 -264 109.5t-109 265.5q0 155 109 265t264 110q156 0 265 -109.5t109 -265.5t-109 -265.5t-265 -109.5zM463 127q98 0 167 70t69 168t-69 168t-167 70t-166.5 -69.5t-68.5 -168.5t68.5 -168.5t166.5 -69.5zM463 250q-47 0 -80.5 34t-33.5 81t33.5 81
t80.5 34t80.5 -34t33.5 -81t-33.5 -81t-80.5 -34z" />
    <glyph glyph-name="blackcircle" unicode="&#x25cf;" horiz-adv-x="927" 
d="M463 -10q-155 0 -264 109.5t-109 265.5q0 155 109 265t264 110q156 0 265 -109.5t109 -265.5t-109 -265.5t-265 -109.5z" />
    <glyph glyph-name="uni25E2" unicode="&#x25e2;" horiz-adv-x="897" 
d="M873 533l-606 -606l-222 828z" />
    <glyph glyph-name="uni25E3" unicode="&#x25e3;" horiz-adv-x="897" 
d="M632 -73l-606 606l828 222z" />
    <glyph glyph-name="uni25E4" unicode="&#x25e4;" horiz-adv-x="897" 
d="M857 -54l-828 222l606 606z" />
    <glyph glyph-name="uni25E5" unicode="&#x25e5;" horiz-adv-x="897" 
d="M872 163l-828 -221l223 828z" />
    <glyph glyph-name="uni2605" unicode="&#x2605;" horiz-adv-x="900" 
d="M562 303l72 -218l-187 135l-186 -135l72 219l-186 135l229 -1l72 218l71 -218l230 -1z" />
    <glyph glyph-name="ballotboxwithx" unicode="&#x2612;" horiz-adv-x="700" 
d="M100 0v500h500v-500h-500zM220 381v-262h260v262h-260zM297 368l53 -53l54 55l66 -66l-54 -55l53 -53l-66 -66l-53 52l-52 -53l-66 66l52 53l-53 54z" />
    <glyph glyph-name="uni263C" unicode="&#x263c;" horiz-adv-x="928" 
d="M287 365q0 71 51.5 122.5t122.5 51.5t122.5 -51.5t51.5 -122.5t-51.5 -122.5t-122.5 -51.5t-122.5 51.5t-51.5 122.5zM451 577l-17 142h54l-17 -142h-20zM471 155l17 -142h-54l17 142h20zM250 356l-142 -17v54l142 -17v-20zM672 376l142 17v-54l-142 17v20zM273 464
l-133 55l28 47l115 -87zM649 268l133 -55l-28 -47l-115 87zM348 544l-87 115l47 28l55 -133zM574 188l87 -115l-47 -28l-55 133zM559 554l55 133l47 -28l-87 -115zM363 178l-55 -133l-47 28l87 115zM639 480l113 86l30 -46l-133 -56zM283 252l-113 -86l-30 46l133 56z" />
    <glyph glyph-name="uni263E" unicode="&#x263e;" horiz-adv-x="787" 
d="M534 616q-99 0 -169 -73.5t-70 -177.5t70 -177.5t169 -73.5q32 0 71 12q-81 -57 -178 -57q-122 0 -209 87t-87 209t87 209t209 87q97 0 178 -57q-46 12 -71 12z" />
    <glyph glyph-name="spade" unicode="&#x2660;" horiz-adv-x="920" 
d="M594 0h-259q27 50 39.5 75.5t33.5 92.5t21 122q-21 -59 -64 -97.5t-106 -38.5q-70 0 -120.5 47t-50.5 111q0 82 52 150t183 173l140 112h1l140 -112q128 -103 178 -171t50 -152q0 -64 -46 -110.5t-111 -46.5q-69 0 -114.5 38.5t-66.5 96.5q0 -29 6 -61t13 -55.5t21.5 -56
t21 -45.5t22.5 -42t16 -30z" />
    <glyph glyph-name="club" unicode="&#x2663;" horiz-adv-x="920" 
d="M595 0h-259q80 150 91 248q-22 -53 -66.5 -85.5t-100.5 -32.5q-74 0 -125.5 52t-51.5 125t51.5 125t125.5 52q19 0 42 -7q-19 41 -19 87q0 73 51 124.5t124 51.5t124.5 -51.5t51.5 -124.5q0 -45 -19 -88q22 8 46 8q73 0 124.5 -51.5t51.5 -125.5q0 -73 -51.5 -125
t-125.5 -52q-56 0 -99 32t-64 85q3 -25 10.5 -52t15.5 -48t20 -46.5t19 -39t19 -35.5t14 -26z" />
    <glyph glyph-name="heart" unicode="&#x2665;" horiz-adv-x="920" 
d="M89 550q0 78 53 134t130 56q75 0 126 -45.5t59 -115.5q9 70 59.5 115.5t125.5 45.5q77 0 133 -56.5t56 -133.5q0 -85 -52.5 -177t-179.5 -233l-142 -157l-141 157q-125 139 -176 231.5t-51 178.5z" />
    <glyph glyph-name="diamond" unicode="&#x2666;" horiz-adv-x="920" 
d="M133 390l327 401l327 -401l-327 -400z" />
    <glyph glyph-name="uni267B" unicode="&#x267b;" horiz-adv-x="921" 
d="M821 246l1 -2l-91 -157q-13 -19 -19.5 -27.5t-23 -16.5t-39.5 -8h-54v-47l-106 128l106 127v-46h136q25 0 47.5 12.5t32.5 24.5zM184 111h-2l-90 158q-10 19 -14 29.5t-3 28.5t13 38l27 46l-40 23l164 29l55 -156l-38 23q-66 -113 -68 -118q-12 -21 -13 -46.5t4 -39.5z
M389 728v1h182q22 -1 33.5 -2.5t26.5 -11.5t26 -30l26 -46l41 23l-58 -157l-162 30l38 22l-67 118q-13 22 -34.5 35t-36.5 16zM197 558l63 112q11 18 32 29q43 22 91 9t64 -42l-109 -189zM429 35h-127q-23 0 -42 12q-40 23 -53.5 74t4.5 76h218v-162zM767 491l65 -110
q9 -14 9 -41q1 -45 -35.5 -81.5t-69.5 -36.5l-109 189z" />
    <glyph glyph-name="uni267C" unicode="&#x267c;" horiz-adv-x="921" 
d="M837 366q0 -156 -110 -265.5t-265 -109.5q-157 0 -267 109.5t-110 265.5t110 266.5t267 110.5q155 0 265 -110.5t110 -266.5zM304 606l-49 -86l109 -63l84 146q-12 23 -49.5 33t-70.5 -7q-19 -12 -24 -23zM399 652v-1q46 -4 67 -41l53 -91l-30 -18l126 -23l44 122
l-31 -18l-21 36q-13 22 -27.5 28t-39.5 6h-141zM332 114h99v126h-170q-14 -20 -3 -59.5t42 -57.5q16 -9 32 -9zM243 173h1q-18 41 3 79l53 91l30 -18l-43 121l-127 -22l31 -18l-21 -36q-9 -15 -10 -29.5t2 -21.5t11 -24zM746 383l-49 85l-110 -63l85 -147q26 0 54.5 28.5
t27.5 64.5q0 18 -8 32zM739 276l-1 1q-26 -37 -70 -37h-105v35l-83 -98l83 -99v36h41q26 0 39 9.5t25 30.5z" />
    <glyph glyph-name="uni267D" unicode="&#x267d;" horiz-adv-x="921" 
d="M837 366q0 -156 -110 -265.5t-265 -109.5q-157 0 -267 109.5t-110 265.5t110 266.5t267 110.5q155 0 265 -110.5t110 -266.5zM818 366q0 149 -104 253.5t-252 104.5q-149 0 -254 -104.5t-105 -253.5q0 -148 105 -252.5t254 -104.5q148 0 252 104.5t104 252.5zM255 520
l49 86q5 11 24 23q33 17 70.5 7t49.5 -33l-84 -146zM399 651v1h141q25 0 39.5 -6t27.5 -28l21 -36l31 18l-44 -122l-126 23l30 18l-53 91q-9 16 -26 26.5t-29 12.5zM431 114h-99q-16 0 -32 9q-31 18 -42 57.5t3 59.5h170v-126zM244 173h-1l-70 122q-8 17 -11 24t-2 21.5
t10 29.5l21 36l-31 18l127 22l43 -121l-30 18l-53 -91q-9 -17 -10 -36.5t3 -31.5zM697 468l49 -85q8 -14 8 -32q1 -36 -27.5 -64.5t-54.5 -28.5l-85 147zM738 277l1 -1l-71 -122q-8 -14 -14 -21t-19 -13t-31 -6h-41v-36l-83 99l83 98v-35h105q20 0 37.5 9t24.5 19z" />
    <glyph glyph-name="mediumwhitecircle" unicode="&#x26aa;" horiz-adv-x="698" 
d="M349 -10q-108 0 -183.5 76t-75.5 184t75.5 184t183.5 76t183.5 -76t75.5 -184t-75.5 -184t-183.5 -76zM349 120q52 0 89 38.5t37 91.5t-37 91.5t-89 38.5q-53 0 -89 -38t-36 -92t36 -92t89 -38z" />
    <glyph glyph-name="mediumblackcircle" unicode="&#x26ab;" horiz-adv-x="698" 
d="M349 -10q-108 0 -183.5 76t-75.5 184t75.5 184t183.5 76t183.5 -76t75.5 -184t-75.5 -184t-183.5 -76z" />
    <glyph glyph-name="anglebracketleft" unicode="&#x3008;" horiz-adv-x="393" 
d="M237 -230l-227 480l227 480h147l-228 -480l228 -480h-147z" />
    <glyph glyph-name="anglebracketright" unicode="&#x3009;" horiz-adv-x="393" 
d="M157 -230h-147l228 480l-228 480h147l227 -480z" />
    <glyph glyph-name="cordinal" unicode="&#xe181;" horiz-adv-x="320" 
d="M168 435q-62 0 -106 44t-44 106q0 63 44 107t106 44q48 0 85 -25t54 -66l-88 -39q-13 35 -50 35q-22 0 -38 -16.5t-16 -39.5t16 -39t38 -16q36 0 50 34l88 -38q-17 -41 -54 -66t-85 -25z" />
    <glyph glyph-name="p.smcp" unicode="&#xe200;" horiz-adv-x="484" 
d="M35 0v596h203q100 0 163 -63t63 -154q0 -92 -63 -156t-164 -64h-65v-159h-137zM233 470h-61v-184h61q40 0 66.5 26t26.5 66t-26.5 66t-66.5 26z" />
    <glyph glyph-name="p.smcp" unicode="&#xf770;" horiz-adv-x="484" 
d="M35 0v596h203q100 0 163 -63t63 -154q0 -92 -63 -156t-164 -64h-65v-159h-137zM233 470h-61v-184h61q40 0 66.5 26t26.5 66t-26.5 66t-66.5 26z" />
    <glyph glyph-name="a.smcp" unicode="&#xe201;" horiz-adv-x="581" 
d="M19 0l205 596h133l205 -596h-139l-30 91h-206l-30 -91h-138zM290 400l-61 -184h122z" />
    <glyph glyph-name="a.smcp" unicode="&#xf761;" horiz-adv-x="581" 
d="M19 0l205 596h133l205 -596h-139l-30 91h-206l-30 -91h-138zM290 400l-61 -184h122z" />
    <glyph glyph-name="b.smcp" unicode="&#xe202;" horiz-adv-x="487" 
d="M35 0v596h198q216 0 216 -169q0 -76 -59 -115q77 -40 77 -132q1 -90 -58.5 -135t-167.5 -45h-206zM241 242h-69v-120h71q85 0 85 62q0 30 -19 44t-68 14zM238 474h-66v-107h66q75 0 75 56q0 51 -75 51z" />
    <glyph glyph-name="b.smcp" unicode="&#xf762;" horiz-adv-x="487" 
d="M35 0v596h198q216 0 216 -169q0 -76 -59 -115q77 -40 77 -132q1 -90 -58.5 -135t-167.5 -45h-206zM241 242h-69v-120h71q85 0 85 62q0 30 -19 44t-68 14zM238 474h-66v-107h66q75 0 75 56q0 51 -75 51z" />
    <glyph glyph-name="c.smcp" unicode="&#xe203;" horiz-adv-x="621" 
d="M335 -8q-135 0 -221.5 88.5t-86.5 217.5q0 131 87.5 218.5t221.5 87.5q83 0 153 -40t110 -107l-118 -74q-21 40 -59.5 63.5t-86.5 23.5q-74 0 -121.5 -50t-47.5 -122t47 -121.5t119 -49.5q52 0 90 26.5t58 71.5l127 -64q-40 -77 -110 -123t-162 -46z" />
    <glyph glyph-name="c.smcp" unicode="&#xf763;" horiz-adv-x="621" 
d="M335 -8q-135 0 -221.5 88.5t-86.5 217.5q0 131 87.5 218.5t221.5 87.5q83 0 153 -40t110 -107l-118 -74q-21 40 -59.5 63.5t-86.5 23.5q-74 0 -121.5 -50t-47.5 -122t47 -121.5t119 -49.5q52 0 90 26.5t58 71.5l127 -64q-40 -77 -110 -123t-162 -46z" />
    <glyph glyph-name="d.smcp" unicode="&#xe204;" horiz-adv-x="548" 
d="M35 0v596h175q140 0 225.5 -84.5t85.5 -213.5q0 -128 -87.5 -213t-220.5 -85h-178zM202 469h-31v-342h35q80 0 129 49t49 122q0 76 -48 123.5t-134 47.5z" />
    <glyph glyph-name="d.smcp" unicode="&#xf764;" horiz-adv-x="548" 
d="M35 0v596h175q140 0 225.5 -84.5t85.5 -213.5q0 -128 -87.5 -213t-220.5 -85h-178zM202 469h-31v-342h35q80 0 129 49t49 122q0 76 -48 123.5t-134 47.5z" />
    <glyph glyph-name="e.smcp" unicode="&#xe205;" horiz-adv-x="420" 
d="M35 0v596h353v-128h-217v-105h217v-128h-217v-107h217v-128h-353z" />
    <glyph glyph-name="e.smcp" unicode="&#xf765;" horiz-adv-x="420" 
d="M35 0v596h353v-128h-217v-105h217v-128h-217v-107h217v-128h-353z" />
    <glyph glyph-name="f.smcp" unicode="&#xe206;" horiz-adv-x="405" 
d="M35 0v596h340v-128h-204v-105h204v-128h-204v-235h-136z" />
    <glyph glyph-name="f.smcp" unicode="&#xf766;" horiz-adv-x="405" 
d="M35 0v596h340v-128h-204v-105h204v-128h-204v-235h-136z" />
    <glyph glyph-name="g.smcp" unicode="&#xe207;" horiz-adv-x="643" 
d="M332 -8q-141 0 -226.5 89t-85.5 217q0 130 86.5 218t219.5 88q91 0 161 -40.5t110 -108.5l-120 -68q-45 86 -150 86q-72 0 -121.5 -50t-49.5 -125q0 -77 49 -126.5t125 -49.5q53 0 90.5 26t52.5 73h-170v128h318v-63q0 -122 -81 -208t-208 -86z" />
    <glyph glyph-name="g.smcp" unicode="&#xf767;" horiz-adv-x="643" 
d="M332 -8q-141 0 -226.5 89t-85.5 217q0 130 86.5 218t219.5 88q91 0 161 -40.5t110 -108.5l-120 -68q-45 86 -150 86q-72 0 -121.5 -50t-49.5 -125q0 -77 49 -126.5t125 -49.5q53 0 90.5 26t52.5 73h-170v128h318v-63q0 -122 -81 -208t-208 -86z" />
    <glyph glyph-name="h.smcp" unicode="&#xe208;" horiz-adv-x="525" 
d="M353 0v232h-181v-232h-137v596h137v-229h181v229h137v-596h-137z" />
    <glyph glyph-name="h.smcp" unicode="&#xf768;" horiz-adv-x="525" 
d="M353 0v232h-181v-232h-137v596h137v-229h181v229h137v-596h-137z" />
    <glyph glyph-name="i.smcp" unicode="&#xe209;" horiz-adv-x="218" 
d="M40 0v596h138v-596h-138z" />
    <glyph glyph-name="i.smcp" unicode="&#xf769;" horiz-adv-x="218" 
d="M40 0v596h138v-596h-138z" />
    <glyph glyph-name="j.smcp" unicode="&#xe20a;" horiz-adv-x="435" 
d="M211 -8q-74 0 -124.5 35.5t-68.5 96.5l131 51q13 -57 61 -57q25 0 38.5 17t13.5 44v417h138v-408q0 -93 -48 -144.5t-141 -51.5z" />
    <glyph glyph-name="j.smcp" unicode="&#xf76a;" horiz-adv-x="435" 
d="M211 -8q-74 0 -124.5 35.5t-68.5 96.5l131 51q13 -57 61 -57q25 0 38.5 17t13.5 44v417h138v-408q0 -93 -48 -144.5t-141 -51.5z" />
    <glyph glyph-name="k.smcp" unicode="&#xe20b;" horiz-adv-x="523" 
d="M361 0l-138 261l-51 -69v-192h-137v596h137v-221l167 221h162l-180 -235l194 -361h-154z" />
    <glyph glyph-name="k.smcp" unicode="&#xf76b;" horiz-adv-x="523" 
d="M361 0l-138 261l-51 -69v-192h-137v596h137v-221l167 221h162l-180 -235l194 -361h-154z" />
    <glyph glyph-name="l.smcp" unicode="&#xe20c;" horiz-adv-x="397" 
d="M35 0v596h137v-465h198v-131h-335z" />
    <glyph glyph-name="l.smcp" unicode="&#xf76c;" horiz-adv-x="397" 
d="M35 0v596h137v-465h198v-131h-335z" />
    <glyph glyph-name="m.smcp" unicode="&#xe20d;" horiz-adv-x="654" 
d="M35 0v596h137l156 -217l162 217h130v-596h-137v375l-156 -209l-156 211v-377h-136z" />
    <glyph glyph-name="m.smcp" unicode="&#xf76d;" horiz-adv-x="654" 
d="M35 0v596h137l156 -217l162 217h130v-596h-137v375l-156 -209l-156 211v-377h-136z" />
    <glyph glyph-name="n.smcp" unicode="&#xe20e;" horiz-adv-x="576" 
d="M35 0v596h148l222 -352v352h136v-596h-137l-233 368v-368h-136z" />
    <glyph glyph-name="n.smcp" unicode="&#xf76e;" horiz-adv-x="576" 
d="M35 0v596h148l222 -352v352h136v-596h-137l-233 368v-368h-136z" />
    <glyph glyph-name="o.smcp" unicode="&#xe20f;" horiz-adv-x="650" 
d="M324 -8q-127 0 -215.5 89t-88.5 217q0 127 88.5 216.5t215.5 89.5t216.5 -89.5t89.5 -216.5q0 -128 -89 -217t-217 -89zM324 127q72 0 120 50t48 121t-48.5 121t-119.5 50q-70 0 -118 -50t-48 -121t47.5 -121t118.5 -50z" />
    <glyph glyph-name="o.smcp" unicode="&#xf76f;" horiz-adv-x="650" 
d="M324 -8q-127 0 -215.5 89t-88.5 217q0 127 88.5 216.5t215.5 89.5t216.5 -89.5t89.5 -216.5q0 -128 -89 -217t-217 -89zM324 127q72 0 120 50t48 121t-48.5 121t-119.5 50q-70 0 -118 -50t-48 -121t47.5 -121t118.5 -50z" />
    <glyph glyph-name="q.smcp" unicode="&#xe211;" horiz-adv-x="664" 
d="M331 -8q-127 0 -215.5 89t-88.5 217q0 127 88.5 216.5t215.5 89.5t216.5 -89.5t89.5 -216.5q0 -108 -68 -194l81 -104h-149l-224 295h145l58 -76q19 38 19 79q0 71 -48.5 121t-119.5 50q-70 0 -118 -50t-48 -121t47.5 -121t118.5 -50q23 0 39 3l85 -112q-53 -26 -124 -26
z" />
    <glyph glyph-name="q.smcp" unicode="&#xf771;" horiz-adv-x="664" 
d="M331 -8q-127 0 -215.5 89t-88.5 217q0 127 88.5 216.5t215.5 89.5t216.5 -89.5t89.5 -216.5q0 -108 -68 -194l81 -104h-149l-224 295h145l58 -76q19 38 19 79q0 71 -48.5 121t-119.5 50q-70 0 -118 -50t-48 -121t47.5 -121t118.5 -50q23 0 39 3l85 -112q-53 -26 -124 -26
z" />
    <glyph glyph-name="r.smcp" unicode="&#xe212;" horiz-adv-x="488" 
d="M35 0v596h208q104 0 164.5 -58.5t60.5 -145.5q0 -58 -29 -104.5t-83 -70.5l129 -217h-155l-159 284v-284h-136zM233 470h-62v-164h62q46 0 70 25t24 59q0 80 -94 80z" />
    <glyph glyph-name="r.smcp" unicode="&#xf772;" horiz-adv-x="488" 
d="M35 0v596h208q104 0 164.5 -58.5t60.5 -145.5q0 -58 -29 -104.5t-83 -70.5l129 -217h-155l-159 284v-284h-136zM233 470h-62v-164h62q46 0 70 25t24 59q0 80 -94 80z" />
    <glyph glyph-name="s.smcp" unicode="&#xe213;" horiz-adv-x="488" 
d="M244 -8q-142 0 -237 108l120 94q44 -74 117 -74q34 0 54.5 18t20.5 43q0 17 -16 30t-32 19t-52 17q-8 3 -13 4q-37 10 -61.5 20.5t-52.5 29.5t-42.5 50t-14.5 73q0 78 57.5 129.5t147.5 51.5q125 0 211 -93l-110 -85q-37 58 -100 58q-31 0 -49 -15t-18 -38q0 -24 24 -37
t74 -29q9 -3 14 -4q37 -11 62 -22t54 -31t44 -51.5t15 -73.5q0 -79 -59 -135.5t-158 -56.5z" />
    <glyph glyph-name="s.smcp" unicode="&#xf773;" horiz-adv-x="488" 
d="M244 -8q-142 0 -237 108l120 94q44 -74 117 -74q34 0 54.5 18t20.5 43q0 17 -16 30t-32 19t-52 17q-8 3 -13 4q-37 10 -61.5 20.5t-52.5 29.5t-42.5 50t-14.5 73q0 78 57.5 129.5t147.5 51.5q125 0 211 -93l-110 -85q-37 58 -100 58q-31 0 -49 -15t-18 -38q0 -24 24 -37
t74 -29q9 -3 14 -4q37 -11 62 -22t54 -31t44 -51.5t15 -73.5q0 -79 -59 -135.5t-158 -56.5z" />
    <glyph glyph-name="t.smcp" unicode="&#xe214;" horiz-adv-x="493" 
d="M181 0v468h-151v128h433v-128h-149v-468h-133z" />
    <glyph glyph-name="t.smcp" unicode="&#xf774;" horiz-adv-x="493" 
d="M181 0v468h-151v128h433v-128h-149v-468h-133z" />
    <glyph glyph-name="u.smcp" unicode="&#xe215;" horiz-adv-x="518" 
d="M259 -8q-103 0 -163.5 59t-60.5 165v380h137v-384q0 -43 24 -69t62 -26q39 0 63.5 26t24.5 69v384h137v-380q0 -106 -60.5 -165t-163.5 -59z" />
    <glyph glyph-name="u.smcp" unicode="&#xf775;" horiz-adv-x="518" 
d="M259 -8q-103 0 -163.5 59t-60.5 165v380h137v-384q0 -43 24 -69t62 -26q39 0 63.5 26t24.5 69v384h137v-380q0 -106 -60.5 -165t-163.5 -59z" />
    <glyph glyph-name="v.smcp" unicode="&#xe216;" horiz-adv-x="561" 
d="M211 0l-193 596h142l122 -382l119 382h141l-189 -596h-142z" />
    <glyph glyph-name="v.smcp" unicode="&#xf776;" horiz-adv-x="561" 
d="M211 0l-193 596h142l122 -382l119 382h141l-189 -596h-142z" />
    <glyph glyph-name="w.smcp" unicode="&#xe217;" horiz-adv-x="849" 
d="M183 0l-165 596h139l96 -372l106 372h136l105 -373l96 373h137l-165 -596h-135l-106 379l-106 -379h-138z" />
    <glyph glyph-name="w.smcp" unicode="&#xf777;" horiz-adv-x="849" 
d="M183 0l-165 596h139l96 -372l106 372h136l105 -373l96 373h137l-165 -596h-135l-106 379l-106 -379h-138z" />
    <glyph glyph-name="x.smcp" unicode="&#xe218;" horiz-adv-x="538" 
d="M376 0l-107 182l-106 -182h-150l180 303l-173 293h150l101 -173l100 173h150l-175 -293l180 -303h-150z" />
    <glyph glyph-name="x.smcp" unicode="&#xf778;" horiz-adv-x="538" 
d="M376 0l-107 182l-106 -182h-150l180 303l-173 293h150l101 -173l100 173h150l-175 -293l180 -303h-150z" />
    <glyph glyph-name="y.smcp" unicode="&#xe219;" horiz-adv-x="538" 
d="M201 0v280l-186 316h149l107 -184l107 184h148l-187 -317v-279h-138z" />
    <glyph glyph-name="y.smcp" unicode="&#xf779;" horiz-adv-x="538" 
d="M201 0v280l-186 316h149l107 -184l107 184h148l-187 -317v-279h-138z" />
    <glyph glyph-name="z.smcp" unicode="&#xe21a;" horiz-adv-x="454" 
d="M30 0v126l234 343h-229v127h389v-123l-237 -346h237v-127h-394z" />
    <glyph glyph-name="z.smcp" unicode="&#xf77a;" horiz-adv-x="454" 
d="M30 0v126l234 343h-229v127h389v-123l-237 -346h237v-127h-394z" />
    <glyph glyph-name="anocross.smcp" unicode="&#xe220;" horiz-adv-x="581" 
d="M19 0l205 596h133l205 -596h-139l-133 400l-133 -400h-138z" />
    <glyph glyph-name="aacute.smcp" unicode="&#xe221;" horiz-adv-x="581" 
d="M19 0l205 596h133l205 -596h-139l-30 91h-206l-30 -91h-138zM245 646l114 170h128l-150 -170h-92zM290 400l-61 -184h122z" />
    <glyph glyph-name="aacute.smcp" unicode="&#xf7e1;" horiz-adv-x="581" 
d="M19 0l205 596h133l205 -596h-139l-30 91h-206l-30 -91h-138zM245 646l114 170h128l-150 -170h-92zM290 400l-61 -184h122z" />
    <glyph glyph-name="agrave.smcp" unicode="&#xe222;" horiz-adv-x="581" 
d="M19 0l205 596h133l205 -596h-139l-30 91h-206l-30 -91h-138zM248 646l-150 170h128l114 -170h-92zM290 400l-61 -184h122z" />
    <glyph glyph-name="agrave.smcp" unicode="&#xf7e0;" horiz-adv-x="581" 
d="M19 0l205 596h133l205 -596h-139l-30 91h-206l-30 -91h-138zM248 646l-150 170h128l114 -170h-92zM290 400l-61 -184h122z" />
    <glyph glyph-name="acircumflex.smcp" unicode="&#xe223;" horiz-adv-x="581" 
d="M19 0l205 596h133l205 -596h-139l-30 91h-206l-30 -91h-138zM129 646l119 170h85l119 -170h-103l-59 88l-58 -88h-103zM290 400l-61 -184h122z" />
    <glyph glyph-name="acircumflex.smcp" unicode="&#xf7e2;" horiz-adv-x="581" 
d="M19 0l205 596h133l205 -596h-139l-30 91h-206l-30 -91h-138zM129 646l119 170h85l119 -170h-103l-59 88l-58 -88h-103zM290 400l-61 -184h122z" />
    <glyph glyph-name="adieresis.smcp" unicode="&#xe224;" horiz-adv-x="581" 
d="M19 0l205 596h133l205 -596h-139l-30 91h-206l-30 -91h-138zM316 646v137h137v-137h-137zM129 646v137h137v-137h-137zM290 400l-61 -184h122z" />
    <glyph glyph-name="adieresis.smcp" unicode="&#xf7e4;" horiz-adv-x="581" 
d="M19 0l205 596h133l205 -596h-139l-30 91h-206l-30 -91h-138zM316 646v137h137v-137h-137zM129 646v137h137v-137h-137zM290 400l-61 -184h122z" />
    <glyph glyph-name="atilde.smcp" unicode="&#xe225;" horiz-adv-x="581" 
d="M19 0l205 596h133l205 -596h-139l-30 91h-206l-30 -91h-138zM119 646q0 61 28 98t77 37q36 0 76 -24q38 -24 52 -24q27 0 27 44h79q0 -63 -27 -99t-78 -36q-36 0 -87 30q-28 17 -42 17q-26 0 -26 -43h-79zM290 400l-61 -184h122z" />
    <glyph glyph-name="atilde.smcp" unicode="&#xf7e3;" horiz-adv-x="581" 
d="M19 0l205 596h133l205 -596h-139l-30 91h-206l-30 -91h-138zM119 646q0 61 28 98t77 37q36 0 76 -24q38 -24 52 -24q27 0 27 44h79q0 -63 -27 -99t-78 -36q-36 0 -87 30q-28 17 -42 17q-26 0 -26 -43h-79zM290 400l-61 -184h122z" />
    <glyph glyph-name="aring.smcp" unicode="&#xe226;" horiz-adv-x="581" 
d="M19 0l196 569q-42 36 -42 90q0 49 34 83.5t82 34.5q49 0 83.5 -34.5t34.5 -83.5q0 -53 -42 -89l197 -570h-139l-30 91h-206l-30 -91h-138zM290 400l-61 -184h122zM289 620q17 0 29 11.5t12 27.5q0 17 -12 29t-29 12q-16 0 -27.5 -12t-11.5 -29q0 -16 11.5 -27.5
t27.5 -11.5z" />
    <glyph glyph-name="aring.smcp" unicode="&#xf7e5;" horiz-adv-x="581" 
d="M19 0l196 569q-42 36 -42 90q0 49 34 83.5t82 34.5q49 0 83.5 -34.5t34.5 -83.5q0 -53 -42 -89l197 -570h-139l-30 91h-206l-30 -91h-138zM290 400l-61 -184h122zM289 620q17 0 29 11.5t12 27.5q0 17 -12 29t-29 12q-16 0 -27.5 -12t-11.5 -29q0 -16 11.5 -27.5
t27.5 -11.5z" />
    <glyph glyph-name="amacron.smcp" unicode="&#xe228;" horiz-adv-x="581" 
d="M19 0l205 596h133l205 -596h-139l-30 91h-206l-30 -91h-138zM159 646v86h264v-86h-264zM290 400l-61 -184h122z" />
    <glyph glyph-name="amacron.smcp" unicode="&#xf641;" horiz-adv-x="581" 
d="M19 0l205 596h133l205 -596h-139l-30 91h-206l-30 -91h-138zM159 646v86h264v-86h-264zM290 400l-61 -184h122z" />
    <glyph glyph-name="abreve.smcp" unicode="&#xe229;" horiz-adv-x="581" 
d="M19 0l205 596h133l205 -596h-139l-30 91h-206l-30 -91h-138zM288 638q-79 0 -120 47t-41 123h86q0 -93 75 -96q75 3 75 96h87q0 -74 -44 -122t-118 -48zM290 400l-61 -184h122z" />
    <glyph glyph-name="abreve.smcp" unicode="&#xf640;" horiz-adv-x="581" 
d="M19 0l205 596h133l205 -596h-139l-30 91h-206l-30 -91h-138zM288 638q-79 0 -120 47t-41 123h86q0 -93 75 -96q75 3 75 96h87q0 -74 -44 -122t-118 -48zM290 400l-61 -184h122z" />
    <glyph glyph-name="aringacute.smcp" unicode="&#xe22d;" horiz-adv-x="581" 
d="M19 0l196 569q-42 36 -42 90q0 49 34 83.5t82 34.5q49 0 83.5 -34.5t34.5 -83.5q0 -53 -42 -89l197 -570h-139l-30 91h-206l-30 -91h-138zM243 819l114 170h128l-150 -170h-92zM290 400l-61 -184h122zM289 620q17 0 29 11.5t12 27.5q0 17 -12 29t-29 12q-16 0 -27.5 -12
t-11.5 -29q0 -16 11.5 -27.5t27.5 -11.5z" />
    <glyph glyph-name="aringacute.smcp" unicode="&#xf625;" horiz-adv-x="581" 
d="M19 0l196 569q-42 36 -42 90q0 49 34 83.5t82 34.5q49 0 83.5 -34.5t34.5 -83.5q0 -53 -42 -89l197 -570h-139l-30 91h-206l-30 -91h-138zM243 819l114 170h128l-150 -170h-92zM290 400l-61 -184h122zM289 620q17 0 29 11.5t12 27.5q0 17 -12 29t-29 12q-16 0 -27.5 -12
t-11.5 -29q0 -16 11.5 -27.5t27.5 -11.5z" />
    <glyph glyph-name="aogonek.smcp" unicode="&#xe22f;" horiz-adv-x="581" 
d="M474 -227q-64 0 -104 31.5t-40 77.5q0 69 90 126l-27 83h-206l-30 -91h-138l205 596h133l205 -596q-85 -56 -107.5 -75t-22.5 -38q0 -30 42 -30q24 0 60 28l80 -54q-28 -25 -66.5 -41.5t-73.5 -16.5zM290 400l-61 -184h122z" />
    <glyph glyph-name="aogonek.smcp" unicode="&#xf642;" horiz-adv-x="581" 
d="M474 -227q-64 0 -104 31.5t-40 77.5q0 69 90 126l-27 83h-206l-30 -91h-138l205 596h133l205 -596q-85 -56 -107.5 -75t-22.5 -38q0 -30 42 -30q24 0 60 28l80 -54q-28 -25 -66.5 -41.5t-73.5 -16.5zM290 400l-61 -184h122z" />
    <glyph glyph-name="edieresis.smcp" unicode="&#xe230;" horiz-adv-x="418" 
d="M35 0v596h353v-128h-217v-105h217v-128h-217v-107h217v-128h-353zM238 646v137h137v-137h-137zM51 646v137h137v-137h-137z" />
    <glyph glyph-name="edieresis.smcp" unicode="&#xf7eb;" horiz-adv-x="418" 
d="M35 0v596h353v-128h-217v-105h217v-128h-217v-107h217v-128h-353zM238 646v137h137v-137h-137zM51 646v137h137v-137h-137z" />
    <glyph glyph-name="ae.smcp" unicode="&#xe231;" horiz-adv-x="783" 
d="M12 0l271 596h470v-128h-298l19 -105h279v-128h-256l19 -107h237v-128h-353l-15 85h-187l-38 -85h-148zM332 387l-79 -178h110z" />
    <glyph glyph-name="ae.smcp" unicode="&#xf7e6;" horiz-adv-x="783" 
d="M12 0l271 596h470v-128h-298l19 -105h279v-128h-256l19 -107h237v-128h-353l-15 85h-187l-38 -85h-148zM332 387l-79 -178h110z" />
    <glyph glyph-name="aeacute.smcp" unicode="&#xe232;" horiz-adv-x="783" 
d="M12 0l271 596h470v-128h-298l19 -105h279v-128h-256l19 -107h237v-128h-353l-15 85h-187l-38 -85h-148zM418 646l114 170h128l-150 -170h-92zM332 387l-79 -178h110z" />
    <glyph glyph-name="aeacute.smcp" unicode="&#xf624;" horiz-adv-x="783" 
d="M12 0l271 596h470v-128h-298l19 -105h279v-128h-256l19 -107h237v-128h-353l-15 85h-187l-38 -85h-148zM418 646l114 170h128l-150 -170h-92zM332 387l-79 -178h110z" />
    <glyph glyph-name="cacute.smcp" unicode="&#xe234;" horiz-adv-x="621" 
d="M335 -8q-135 0 -221.5 88.5t-86.5 217.5q0 131 87.5 218.5t221.5 87.5q83 0 153 -40t110 -107l-118 -74q-21 40 -59.5 63.5t-86.5 23.5q-74 0 -121.5 -50t-47.5 -122t47 -121.5t119 -49.5q52 0 90 26.5t58 71.5l127 -64q-40 -77 -110 -123t-162 -46zM287 646l114 170h128
l-150 -170h-92z" />
    <glyph glyph-name="cacute.smcp" unicode="&#xf643;" horiz-adv-x="621" 
d="M335 -8q-135 0 -221.5 88.5t-86.5 217.5q0 131 87.5 218.5t221.5 87.5q83 0 153 -40t110 -107l-118 -74q-21 40 -59.5 63.5t-86.5 23.5q-74 0 -121.5 -50t-47.5 -122t47 -121.5t119 -49.5q52 0 90 26.5t58 71.5l127 -64q-40 -77 -110 -123t-162 -46zM287 646l114 170h128
l-150 -170h-92z" />
    <glyph glyph-name="ccircumflex.smcp" unicode="&#xe235;" horiz-adv-x="621" 
d="M335 -8q-135 0 -221.5 88.5t-86.5 217.5q0 131 87.5 218.5t221.5 87.5q83 0 153 -40t110 -107l-118 -74q-21 40 -59.5 63.5t-86.5 23.5q-74 0 -121.5 -50t-47.5 -122t47 -121.5t119 -49.5q52 0 90 26.5t58 71.5l127 -64q-40 -77 -110 -123t-162 -46zM176 646l119 170h85
l119 -170h-103l-59 88l-58 -88h-103z" />
    <glyph glyph-name="ccircumflex.smcp" unicode="&#xf628;" horiz-adv-x="621" 
d="M335 -8q-135 0 -221.5 88.5t-86.5 217.5q0 131 87.5 218.5t221.5 87.5q83 0 153 -40t110 -107l-118 -74q-21 40 -59.5 63.5t-86.5 23.5q-74 0 -121.5 -50t-47.5 -122t47 -121.5t119 -49.5q52 0 90 26.5t58 71.5l127 -64q-40 -77 -110 -123t-162 -46zM176 646l119 170h85
l119 -170h-103l-59 88l-58 -88h-103z" />
    <glyph glyph-name="ccaron.smcp" unicode="&#xe236;" horiz-adv-x="621" 
d="M335 -8q-135 0 -221.5 88.5t-86.5 217.5q0 131 87.5 218.5t221.5 87.5q83 0 153 -40t110 -107l-118 -74q-21 40 -59.5 63.5t-86.5 23.5q-74 0 -121.5 -50t-47.5 -122t47 -121.5t119 -49.5q52 0 90 26.5t58 71.5l127 -64q-40 -77 -110 -123t-162 -46zM295 646l-119 170
h103l58 -88l59 88h103l-119 -170h-85z" />
    <glyph glyph-name="ccaron.smcp" unicode="&#xf644;" horiz-adv-x="621" 
d="M335 -8q-135 0 -221.5 88.5t-86.5 217.5q0 131 87.5 218.5t221.5 87.5q83 0 153 -40t110 -107l-118 -74q-21 40 -59.5 63.5t-86.5 23.5q-74 0 -121.5 -50t-47.5 -122t47 -121.5t119 -49.5q52 0 90 26.5t58 71.5l127 -64q-40 -77 -110 -123t-162 -46zM295 646l-119 170
h103l58 -88l59 88h103l-119 -170h-85z" />
    <glyph glyph-name="cdotaccent.smcp" unicode="&#xe237;" horiz-adv-x="621" 
d="M335 -8q-135 0 -221.5 88.5t-86.5 217.5q0 131 87.5 218.5t221.5 87.5q83 0 153 -40t110 -107l-118 -74q-21 40 -59.5 63.5t-86.5 23.5q-74 0 -121.5 -50t-47.5 -122t47 -121.5t119 -49.5q52 0 90 26.5t58 71.5l127 -64q-40 -77 -110 -123t-162 -46zM269 646v137h137
v-137h-137z" />
    <glyph glyph-name="cdotaccent.smcp" unicode="&#xf629;" horiz-adv-x="621" 
d="M335 -8q-135 0 -221.5 88.5t-86.5 217.5q0 131 87.5 218.5t221.5 87.5q83 0 153 -40t110 -107l-118 -74q-21 40 -59.5 63.5t-86.5 23.5q-74 0 -121.5 -50t-47.5 -122t47 -121.5t119 -49.5q52 0 90 26.5t58 71.5l127 -64q-40 -77 -110 -123t-162 -46zM269 646v137h137
v-137h-137z" />
    <glyph glyph-name="ccedilla.smcp" unicode="&#xe238;" horiz-adv-x="621" 
d="M325 -240q-77 0 -143 59l78 47q42 -33 76 -33q22 0 38 8.5t16 21.5q0 27 -57 27h-51v106q-114 17 -184.5 101.5t-70.5 200.5q0 131 87.5 218.5t221.5 87.5q83 0 153 -40t110 -107l-118 -74q-21 40 -59.5 63.5t-86.5 23.5q-74 0 -121.5 -50t-47.5 -122t47 -121.5
t119 -49.5q52 0 90 26.5t58 71.5l127 -64q-79 -152 -240 -167v-47q55 2 85 -20t30 -60q0 -46 -45 -76.5t-112 -30.5z" />
    <glyph glyph-name="ccedilla.smcp" unicode="&#xf7e7;" horiz-adv-x="621" 
d="M325 -240q-77 0 -143 59l78 47q42 -33 76 -33q22 0 38 8.5t16 21.5q0 27 -57 27h-51v106q-114 17 -184.5 101.5t-70.5 200.5q0 131 87.5 218.5t221.5 87.5q83 0 153 -40t110 -107l-118 -74q-21 40 -59.5 63.5t-86.5 23.5q-74 0 -121.5 -50t-47.5 -122t47 -121.5
t119 -49.5q52 0 90 26.5t58 71.5l127 -64q-79 -152 -240 -167v-47q55 2 85 -20t30 -60q0 -46 -45 -76.5t-112 -30.5z" />
    <glyph glyph-name="dcaron.smcp" unicode="&#xe239;" horiz-adv-x="548" 
d="M35 0v596h175q140 0 225.5 -84.5t85.5 -213.5q0 -128 -87.5 -213t-220.5 -85h-178zM202 469h-31v-342h35q80 0 129 49t49 122q0 76 -48 123.5t-134 47.5zM203 646l-119 170h103l58 -88l59 88h103l-119 -170h-85z" />
    <glyph glyph-name="dcaron.smcp" unicode="&#xf645;" horiz-adv-x="548" 
d="M35 0v596h175q140 0 225.5 -84.5t85.5 -213.5q0 -128 -87.5 -213t-220.5 -85h-178zM202 469h-31v-342h35q80 0 129 49t49 122q0 76 -48 123.5t-134 47.5zM203 646l-119 170h103l58 -88l59 88h103l-119 -170h-85z" />
    <glyph glyph-name="dcroat.smcp" unicode="&#xe23c;" horiz-adv-x="584" 
d="M20 242v112h50v242h176q139 0 225 -84.5t86 -213.5q0 -128 -87.5 -213t-220.5 -85h-179v242h-50zM324 242h-117v-115h34q80 0 129 48.5t49 122.5q0 76 -47.5 123.5t-133.5 47.5h-31v-115h117v-112z" />
    <glyph glyph-name="dcroat.smcp" unicode="&#xf646;" horiz-adv-x="584" 
d="M20 242v112h50v242h176q139 0 225 -84.5t86 -213.5q0 -128 -87.5 -213t-220.5 -85h-179v242h-50zM324 242h-117v-115h34q80 0 129 48.5t49 122.5q0 76 -47.5 123.5t-133.5 47.5h-31v-115h117v-112z" />
    <glyph glyph-name="eacute.smcp" unicode="&#xe23d;" horiz-adv-x="418" 
d="M35 0v596h353v-128h-217v-105h217v-128h-217v-107h217v-128h-353zM160 646l114 170h128l-150 -170h-92z" />
    <glyph glyph-name="eacute.smcp" unicode="&#xf7e9;" horiz-adv-x="418" 
d="M35 0v596h353v-128h-217v-105h217v-128h-217v-107h217v-128h-353zM160 646l114 170h128l-150 -170h-92z" />
    <glyph glyph-name="egrave.smcp" unicode="&#xe23e;" horiz-adv-x="418" 
d="M35 0v596h353v-128h-217v-105h217v-128h-217v-107h217v-128h-353zM188 646l-150 170h128l114 -170h-92z" />
    <glyph glyph-name="egrave.smcp" unicode="&#xf7e8;" horiz-adv-x="418" 
d="M35 0v596h353v-128h-217v-105h217v-128h-217v-107h217v-128h-353zM188 646l-150 170h128l114 -170h-92z" />
    <glyph glyph-name="ecircumflex.smcp" unicode="&#xe23f;" horiz-adv-x="418" 
d="M35 0v596h353v-128h-217v-105h217v-128h-217v-107h217v-128h-353zM53 646l119 170h85l119 -170h-103l-59 88l-58 -88h-103z" />
    <glyph glyph-name="ecircumflex.smcp" unicode="&#xf7ea;" horiz-adv-x="418" 
d="M35 0v596h353v-128h-217v-105h217v-128h-217v-107h217v-128h-353zM53 646l119 170h85l119 -170h-103l-59 88l-58 -88h-103z" />
    <glyph glyph-name="gcommaaccent.smcp" unicode="&#xe240;" horiz-adv-x="643" 
d="M332 -8q-141 0 -226.5 89t-85.5 217q0 130 86.5 218t219.5 88q91 0 161 -40.5t110 -108.5l-120 -68q-45 86 -150 86q-72 0 -121.5 -50t-49.5 -125q0 -77 49 -126.5t125 -49.5q53 0 90.5 26t52.5 73h-170v128h318v-63q0 -122 -81 -208t-208 -86zM320 -249h-85l34 204h121z
" />
    <glyph glyph-name="gcommaaccent.smcp" unicode="&#xf64c;" horiz-adv-x="643" 
d="M332 -8q-141 0 -226.5 89t-85.5 217q0 130 86.5 218t219.5 88q91 0 161 -40.5t110 -108.5l-120 -68q-45 86 -150 86q-72 0 -121.5 -50t-49.5 -125q0 -77 49 -126.5t125 -49.5q53 0 90.5 26t52.5 73h-170v128h318v-63q0 -122 -81 -208t-208 -86zM320 -249h-85l34 204h121z
" />
    <glyph glyph-name="ecaron.smcp" unicode="&#xe241;" horiz-adv-x="418" 
d="M35 0v596h353v-128h-217v-105h217v-128h-217v-107h217v-128h-353zM176 646l-119 170h103l58 -88l59 88h103l-119 -170h-85z" />
    <glyph glyph-name="ecaron.smcp" unicode="&#xf647;" horiz-adv-x="418" 
d="M35 0v596h353v-128h-217v-105h217v-128h-217v-107h217v-128h-353zM176 646l-119 170h103l58 -88l59 88h103l-119 -170h-85z" />
    <glyph glyph-name="emacron.smcp" unicode="&#xe242;" horiz-adv-x="418" 
d="M35 0v596h353v-128h-217v-105h217v-128h-217v-107h217v-128h-353zM83 646v86h264v-86h-264z" />
    <glyph glyph-name="emacron.smcp" unicode="&#xf649;" horiz-adv-x="418" 
d="M35 0v596h353v-128h-217v-105h217v-128h-217v-107h217v-128h-353zM83 646v86h264v-86h-264z" />
    <glyph glyph-name="ebreve.smcp" unicode="&#xe243;" horiz-adv-x="418" 
d="M35 0v596h353v-128h-217v-105h217v-128h-217v-107h217v-128h-353zM223 638q-79 0 -120 47t-41 123h86q0 -93 75 -96q75 3 75 96h87q0 -74 -44 -122t-118 -48z" />
    <glyph glyph-name="ebreve.smcp" unicode="&#xf62a;" horiz-adv-x="418" 
d="M35 0v596h353v-128h-217v-105h217v-128h-217v-107h217v-128h-353zM223 638q-79 0 -120 47t-41 123h86q0 -93 75 -96q75 3 75 96h87q0 -74 -44 -122t-118 -48z" />
    <glyph glyph-name="edotaccent.smcp" unicode="&#xe246;" horiz-adv-x="418" 
d="M35 0v596h353v-128h-217v-105h217v-128h-217v-107h217v-128h-353zM145 646v137h137v-137h-137z" />
    <glyph glyph-name="edotaccent.smcp" unicode="&#xf648;" horiz-adv-x="418" 
d="M35 0v596h353v-128h-217v-105h217v-128h-217v-107h217v-128h-353zM145 646v137h137v-137h-137z" />
    <glyph glyph-name="eogonek.smcp" unicode="&#xe249;" horiz-adv-x="418" 
d="M35 0v596h353v-128h-217v-105h217v-128h-217v-107h217v-128q-85 -56 -107.5 -75t-22.5 -38q0 -30 42 -30q24 0 60 28l80 -54q-28 -25 -66.5 -41.5t-73.5 -16.5q-64 0 -104 31.5t-40 77.5q0 64 77 118h-198z" />
    <glyph glyph-name="eogonek.smcp" unicode="&#xf64a;" horiz-adv-x="418" 
d="M35 0v596h353v-128h-217v-105h217v-128h-217v-107h217v-128q-85 -56 -107.5 -75t-22.5 -38q0 -30 42 -30q24 0 60 28l80 -54q-28 -25 -66.5 -41.5t-73.5 -16.5q-64 0 -104 31.5t-40 77.5q0 64 77 118h-198z" />
    <glyph glyph-name="gcircumflex.smcp" unicode="&#xe24b;" horiz-adv-x="643" 
d="M332 -8q-141 0 -226.5 89t-85.5 217q0 130 86.5 218t219.5 88q91 0 161 -40.5t110 -108.5l-120 -68q-45 86 -150 86q-72 0 -121.5 -50t-49.5 -125q0 -77 49 -126.5t125 -49.5q53 0 90.5 26t52.5 73h-170v128h318v-63q0 -122 -81 -208t-208 -86zM170 646l119 170h85
l119 -170h-103l-59 88l-58 -88h-103z" />
    <glyph glyph-name="gcircumflex.smcp" unicode="&#xf62c;" horiz-adv-x="643" 
d="M332 -8q-141 0 -226.5 89t-85.5 217q0 130 86.5 218t219.5 88q91 0 161 -40.5t110 -108.5l-120 -68q-45 86 -150 86q-72 0 -121.5 -50t-49.5 -125q0 -77 49 -126.5t125 -49.5q53 0 90.5 26t52.5 73h-170v128h318v-63q0 -122 -81 -208t-208 -86zM170 646l119 170h85
l119 -170h-103l-59 88l-58 -88h-103z" />
    <glyph glyph-name="gbreve.smcp" unicode="&#xe24e;" horiz-adv-x="643" 
d="M332 -8q-141 0 -226.5 89t-85.5 217q0 130 86.5 218t219.5 88q91 0 161 -40.5t110 -108.5l-120 -68q-45 86 -150 86q-72 0 -121.5 -50t-49.5 -125q0 -77 49 -126.5t125 -49.5q53 0 90.5 26t52.5 73h-170v128h318v-63q0 -122 -81 -208t-208 -86zM331 638q-79 0 -120 47
t-41 123h86q0 -93 75 -96q75 3 75 96h87q0 -74 -44 -122t-118 -48z" />
    <glyph glyph-name="gbreve.smcp" unicode="&#xf64b;" horiz-adv-x="643" 
d="M332 -8q-141 0 -226.5 89t-85.5 217q0 130 86.5 218t219.5 88q91 0 161 -40.5t110 -108.5l-120 -68q-45 86 -150 86q-72 0 -121.5 -50t-49.5 -125q0 -77 49 -126.5t125 -49.5q53 0 90.5 26t52.5 73h-170v128h318v-63q0 -122 -81 -208t-208 -86zM331 638q-79 0 -120 47
t-41 123h86q0 -93 75 -96q75 3 75 96h87q0 -74 -44 -122t-118 -48z" />
    <glyph glyph-name="gdotaccent.smcp" unicode="&#xe24f;" horiz-adv-x="643" 
d="M332 -8q-141 0 -226.5 89t-85.5 217q0 130 86.5 218t219.5 88q91 0 161 -40.5t110 -108.5l-120 -68q-45 86 -150 86q-72 0 -121.5 -50t-49.5 -125q0 -77 49 -126.5t125 -49.5q53 0 90.5 26t52.5 73h-170v128h318v-63q0 -122 -81 -208t-208 -86zM262 646v137h137v-137
h-137z" />
    <glyph glyph-name="gdotaccent.smcp" unicode="&#xf62d;" horiz-adv-x="643" 
d="M332 -8q-141 0 -226.5 89t-85.5 217q0 130 86.5 218t219.5 88q91 0 161 -40.5t110 -108.5l-120 -68q-45 86 -150 86q-72 0 -121.5 -50t-49.5 -125q0 -77 49 -126.5t125 -49.5q53 0 90.5 26t52.5 73h-170v128h318v-63q0 -122 -81 -208t-208 -86zM262 646v137h137v-137
h-137z" />
    <glyph glyph-name="hcircumflex.smcp" unicode="&#xe253;" horiz-adv-x="525" 
d="M353 0v232h-181v-232h-137v596h137v-229h181v229h137v-596h-137zM102 646l119 170h85l119 -170h-103l-59 88l-58 -88h-103z" />
    <glyph glyph-name="hcircumflex.smcp" unicode="&#xf62f;" horiz-adv-x="525" 
d="M353 0v232h-181v-232h-137v596h137v-229h181v229h137v-596h-137zM102 646l119 170h85l119 -170h-103l-59 88l-58 -88h-103z" />
    <glyph glyph-name="hbar.smcp" unicode="&#xe257;" horiz-adv-x="545" 
d="M363 0v212h-181v-212h-137v403h-35v135h35v58h137v-58h181v58h137v-58h34v-135h-34v-403h-137zM182 403v-56h181v56h-181z" />
    <glyph glyph-name="hbar.smcp" unicode="&#xf62e;" horiz-adv-x="545" 
d="M363 0v212h-181v-212h-137v403h-35v135h35v58h137v-58h181v58h137v-58h34v-135h-34v-403h-137zM182 403v-56h181v56h-181z" />
    <glyph glyph-name="iacute.smcp" unicode="&#xe258;" horiz-adv-x="218" 
d="M61 646l114 170h128l-150 -170h-92zM40 0v596h138v-596h-138z" />
    <glyph glyph-name="iacute.smcp" unicode="&#xf7ed;" horiz-adv-x="218" 
d="M61 646l114 170h128l-150 -170h-92zM40 0v596h138v-596h-138z" />
    <glyph glyph-name="igrave.smcp" unicode="&#xe259;" horiz-adv-x="218" 
d="M67 646l-150 170h128l114 -170h-92zM40 0v596h138v-596h-138z" />
    <glyph glyph-name="igrave.smcp" unicode="&#xf7ec;" horiz-adv-x="218" 
d="M67 646l-150 170h128l114 -170h-92zM40 0v596h138v-596h-138z" />
    <glyph glyph-name="icircumflex.smcp" unicode="&#xe25a;" horiz-adv-x="218" 
d="M40 0v596h138v-596h-138zM-42 646l119 170h85l119 -170h-103l-59 88l-58 -88h-103z" />
    <glyph glyph-name="icircumflex.smcp" unicode="&#xf7ee;" horiz-adv-x="218" 
d="M40 0v596h138v-596h-138zM-42 646l119 170h85l119 -170h-103l-59 88l-58 -88h-103z" />
    <glyph glyph-name="idieresis.smcp" unicode="&#xe25b;" horiz-adv-x="218" 
d="M167 646v137h137v-137h-137zM-65 646v137h137v-137h-137zM40 0v596h138v-596h-138z" />
    <glyph glyph-name="idieresis.smcp" unicode="&#xf7ef;" horiz-adv-x="218" 
d="M167 646v137h137v-137h-137zM-65 646v137h137v-137h-137zM40 0v596h138v-596h-138z" />
    <glyph glyph-name="itilde.smcp" unicode="&#xe25c;" horiz-adv-x="218" 
d="M-52 646q0 61 28 98t77 37q36 0 76 -24q38 -24 52 -24q27 0 27 44h79q0 -63 -27 -99t-78 -36q-36 0 -87 30q-28 17 -42 17q-26 0 -26 -43h-79zM40 0v596h138v-596h-138z" />
    <glyph glyph-name="itilde.smcp" unicode="&#xf632;" horiz-adv-x="218" 
d="M-52 646q0 61 28 98t77 37q36 0 76 -24q38 -24 52 -24q27 0 27 44h79q0 -63 -27 -99t-78 -36q-36 0 -87 30q-28 17 -42 17q-26 0 -26 -43h-79zM40 0v596h138v-596h-138z" />
    <glyph glyph-name="imacron.smcp" unicode="&#xe25e;" horiz-adv-x="218" 
d="M-24 646v86h264v-86h-264zM40 0v596h138v-596h-138z" />
    <glyph glyph-name="imacron.smcp" unicode="&#xf64d;" horiz-adv-x="218" 
d="M-24 646v86h264v-86h-264zM40 0v596h138v-596h-138z" />
    <glyph glyph-name="ibreve.smcp" unicode="&#xe25f;" horiz-adv-x="218" 
d="M109 638q-79 0 -120 47t-41 123h86q0 -93 75 -96q75 3 75 96h87q0 -74 -44 -122t-118 -48zM40 0v596h138v-596h-138z" />
    <glyph glyph-name="ibreve.smcp" unicode="&#xf630;" horiz-adv-x="218" 
d="M109 638q-79 0 -120 47t-41 123h86q0 -93 75 -96q75 3 75 96h87q0 -74 -44 -122t-118 -48zM40 0v596h138v-596h-138z" />
    <glyph glyph-name="idotaccent.smcp" unicode="&#xe262;" horiz-adv-x="218" 
d="M40 0v596h138v-596h-138zM41 646v137h137v-137h-137z" />
    <glyph glyph-name="idotaccent.smcp" unicode="&#xf666;" horiz-adv-x="218" 
d="M40 0v596h138v-596h-138zM41 646v137h137v-137h-137z" />
    <glyph glyph-name="iogonek.smcp" unicode="&#xe264;" horiz-adv-x="218" 
d="M104 -230q-57 0 -94 30.5t-38 77.5q-1 67 68 125v593h138v-596q-53 -32 -79.5 -61.5t-26.5 -49.5q0 -33 37 -33q25 0 50 31l80 -55q-59 -62 -135 -62z" />
    <glyph glyph-name="iogonek.smcp" unicode="&#xf64e;" horiz-adv-x="218" 
d="M104 -230q-57 0 -94 30.5t-38 77.5q-1 67 68 125v593h138v-596q-53 -32 -79.5 -61.5t-26.5 -49.5q0 -33 37 -33q25 0 50 31l80 -55q-59 -62 -135 -62z" />
    <glyph glyph-name="jcircumflex.smcp" unicode="&#xe265;" horiz-adv-x="435" 
d="M211 -8q-74 0 -124.5 35.5t-68.5 96.5l131 51q13 -57 61 -57q25 0 38.5 17t13.5 44v417h138v-408q0 -93 -48 -144.5t-141 -51.5zM169 646l119 170h85l119 -170h-103l-59 88l-58 -88h-103z" />
    <glyph glyph-name="jcircumflex.smcp" unicode="&#xf633;" horiz-adv-x="435" 
d="M211 -8q-74 0 -124.5 35.5t-68.5 96.5l131 51q13 -57 61 -57q25 0 38.5 17t13.5 44v417h138v-408q0 -93 -48 -144.5t-141 -51.5zM169 646l119 170h85l119 -170h-103l-59 88l-58 -88h-103z" />
    <glyph glyph-name="kcommaaccent.smcp" unicode="&#xe268;" horiz-adv-x="523" 
d="M361 0l-138 261l-51 -69v-192h-137v596h137v-221l167 221h162l-180 -235l194 -361h-154zM254 -244h-85l34 204h121z" />
    <glyph glyph-name="kcommaaccent.smcp" unicode="&#xf64f;" horiz-adv-x="523" 
d="M361 0l-138 261l-51 -69v-192h-137v596h137v-221l167 221h162l-180 -235l194 -361h-154zM254 -244h-85l34 204h121z" />
    <glyph glyph-name="lacute.smcp" unicode="&#xe26b;" horiz-adv-x="397" 
d="M35 0v596h137v-465h198v-131h-335zM55 646l114 170h128l-150 -170h-92z" />
    <glyph glyph-name="lacute.smcp" unicode="&#xf650;" horiz-adv-x="397" 
d="M35 0v596h137v-465h198v-131h-335zM55 646l114 170h128l-150 -170h-92z" />
    <glyph glyph-name="lcaron.smcp" unicode="&#xe26c;" horiz-adv-x="397" 
d="M35 0v596h137v-465h198v-131h-335zM243 426l24 170h111l-50 -170h-85z" />
    <glyph glyph-name="lcaron.smcp" unicode="&#xf651;" horiz-adv-x="397" 
d="M35 0v596h137v-465h198v-131h-335zM243 426l24 170h111l-50 -170h-85z" />
    <glyph glyph-name="lcommaaccent.smcp" unicode="&#xe26d;" horiz-adv-x="397" 
d="M35 0v596h137v-465h198v-131h-335zM194 -254h-85l34 204h121z" />
    <glyph glyph-name="lcommaaccent.smcp" unicode="&#xf652;" horiz-adv-x="397" 
d="M35 0v596h137v-465h198v-131h-335zM194 -254h-85l34 204h121z" />
    <glyph glyph-name="ldot.smcp" unicode="&#xe271;" horiz-adv-x="396" 
d="M35 0v596h137v-465h197v-131h-334zM232 246v137h137v-137h-137z" />
    <glyph glyph-name="ldot.smcp" unicode="&#xf634;" horiz-adv-x="396" 
d="M35 0v596h137v-465h197v-131h-334zM232 246v137h137v-137h-137z" />
    <glyph glyph-name="lslash.smcp" unicode="&#xe272;" horiz-adv-x="432" 
d="M12 229v99l58 17v251h137v-212l132 39v-99l-132 -39v-154h198v-131h-335v246z" />
    <glyph glyph-name="lslash.smcp" unicode="&#xf6f9;" horiz-adv-x="432" 
d="M12 229v99l58 17v251h137v-212l132 39v-99l-132 -39v-154h198v-131h-335v246z" />
    <glyph glyph-name="nacute.smcp" unicode="&#xe276;" horiz-adv-x="576" 
d="M35 0v596h148l222 -352v352h136v-596h-137l-233 368v-368h-136zM247 646l114 170h128l-150 -170h-92z" />
    <glyph glyph-name="nacute.smcp" unicode="&#xf653;" horiz-adv-x="576" 
d="M35 0v596h148l222 -352v352h136v-596h-137l-233 368v-368h-136zM247 646l114 170h128l-150 -170h-92z" />
    <glyph glyph-name="ntilde.smcp" unicode="&#xe279;" horiz-adv-x="576" 
d="M35 0v596h148l222 -352v352h136v-596h-137l-233 368v-368h-136zM123 646q0 61 28 98t77 37q36 0 76 -24q38 -24 52 -24q27 0 27 44h79q0 -63 -27 -99t-78 -36q-36 0 -87 30q-28 17 -42 17q-26 0 -26 -43h-79z" />
    <glyph glyph-name="ncaron.smcp" unicode="&#xe27a;" horiz-adv-x="576" 
d="M35 0v596h148l222 -352v352h136v-596h-137l-233 368v-368h-136zM252 638l-119 170h103l58 -88l59 88h103l-119 -170h-85z" />
    <glyph glyph-name="ncaron.smcp" unicode="&#xf654;" horiz-adv-x="576" 
d="M35 0v596h148l222 -352v352h136v-596h-137l-233 368v-368h-136zM252 638l-119 170h103l58 -88l59 88h103l-119 -170h-85z" />
    <glyph glyph-name="ncommaaccent.smcp" unicode="&#xe27d;" horiz-adv-x="576" 
d="M35 0v596h148l222 -352v352h136v-596h-137l-233 368v-368h-136zM288 -254h-85l34 204h121z" />
    <glyph glyph-name="ncommaaccent.smcp" unicode="&#xf655;" horiz-adv-x="576" 
d="M35 0v596h148l222 -352v352h136v-596h-137l-233 368v-368h-136zM288 -254h-85l34 204h121z" />
    <glyph glyph-name="oacute.smcp" unicode="&#xe281;" horiz-adv-x="650" 
d="M324 -8q-127 0 -215.5 89t-88.5 217q0 127 88.5 216.5t215.5 89.5t216.5 -89.5t89.5 -216.5q0 -128 -89 -217t-217 -89zM324 127q72 0 120 50t48 121t-48.5 121t-119.5 50q-70 0 -118 -50t-48 -121t47.5 -121t118.5 -50zM276 646l114 170h128l-150 -170h-92z" />
    <glyph glyph-name="oacute.smcp" unicode="&#xf7f3;" horiz-adv-x="650" 
d="M324 -8q-127 0 -215.5 89t-88.5 217q0 127 88.5 216.5t215.5 89.5t216.5 -89.5t89.5 -216.5q0 -128 -89 -217t-217 -89zM324 127q72 0 120 50t48 121t-48.5 121t-119.5 50q-70 0 -118 -50t-48 -121t47.5 -121t118.5 -50zM276 646l114 170h128l-150 -170h-92z" />
    <glyph glyph-name="ograve.smcp" unicode="&#xe282;" horiz-adv-x="650" 
d="M324 -8q-127 0 -215.5 89t-88.5 217q0 127 88.5 216.5t215.5 89.5t216.5 -89.5t89.5 -216.5q0 -128 -89 -217t-217 -89zM324 127q72 0 120 50t48 121t-48.5 121t-119.5 50q-70 0 -118 -50t-48 -121t47.5 -121t118.5 -50zM293 646l-150 170h128l114 -170h-92z" />
    <glyph glyph-name="ograve.smcp" unicode="&#xf7f2;" horiz-adv-x="650" 
d="M324 -8q-127 0 -215.5 89t-88.5 217q0 127 88.5 216.5t215.5 89.5t216.5 -89.5t89.5 -216.5q0 -128 -89 -217t-217 -89zM324 127q72 0 120 50t48 121t-48.5 121t-119.5 50q-70 0 -118 -50t-48 -121t47.5 -121t118.5 -50zM293 646l-150 170h128l114 -170h-92z" />
    <glyph glyph-name="ocircumflex.smcp" unicode="&#xe283;" horiz-adv-x="650" 
d="M324 -8q-127 0 -215.5 89t-88.5 217q0 127 88.5 216.5t215.5 89.5t216.5 -89.5t89.5 -216.5q0 -128 -89 -217t-217 -89zM324 127q72 0 120 50t48 121t-48.5 121t-119.5 50q-70 0 -118 -50t-48 -121t47.5 -121t118.5 -50zM163 646l119 170h85l119 -170h-103l-59 88
l-58 -88h-103z" />
    <glyph glyph-name="ocircumflex.smcp" unicode="&#xf7f4;" horiz-adv-x="650" 
d="M324 -8q-127 0 -215.5 89t-88.5 217q0 127 88.5 216.5t215.5 89.5t216.5 -89.5t89.5 -216.5q0 -128 -89 -217t-217 -89zM324 127q72 0 120 50t48 121t-48.5 121t-119.5 50q-70 0 -118 -50t-48 -121t47.5 -121t118.5 -50zM163 646l119 170h85l119 -170h-103l-59 88
l-58 -88h-103z" />
    <glyph glyph-name="odieresis.smcp" unicode="&#xe284;" horiz-adv-x="650" 
d="M324 -8q-127 0 -215.5 89t-88.5 217q0 127 88.5 216.5t215.5 89.5t216.5 -89.5t89.5 -216.5q0 -128 -89 -217t-217 -89zM324 127q72 0 120 50t48 121t-48.5 121t-119.5 50q-70 0 -118 -50t-48 -121t47.5 -121t118.5 -50zM350 646v137h137v-137h-137zM163 646v137h137
v-137h-137z" />
    <glyph glyph-name="odieresis.smcp" unicode="&#xf7f6;" horiz-adv-x="650" 
d="M324 -8q-127 0 -215.5 89t-88.5 217q0 127 88.5 216.5t215.5 89.5t216.5 -89.5t89.5 -216.5q0 -128 -89 -217t-217 -89zM324 127q72 0 120 50t48 121t-48.5 121t-119.5 50q-70 0 -118 -50t-48 -121t47.5 -121t118.5 -50zM350 646v137h137v-137h-137zM163 646v137h137
v-137h-137z" />
    <glyph glyph-name="otilde.smcp" unicode="&#xe285;" horiz-adv-x="650" 
d="M324 -8q-127 0 -215.5 89t-88.5 217q0 127 88.5 216.5t215.5 89.5t216.5 -89.5t89.5 -216.5q0 -128 -89 -217t-217 -89zM324 127q72 0 120 50t48 121t-48.5 121t-119.5 50q-70 0 -118 -50t-48 -121t47.5 -121t118.5 -50zM166 646q0 61 28 98t77 37q36 0 76 -24
q38 -24 52 -24q27 0 27 44h79q0 -63 -27 -99t-78 -36q-36 0 -87 30q-28 17 -42 17q-26 0 -26 -43h-79z" />
    <glyph glyph-name="otilde.smcp" unicode="&#xf7f5;" horiz-adv-x="650" 
d="M324 -8q-127 0 -215.5 89t-88.5 217q0 127 88.5 216.5t215.5 89.5t216.5 -89.5t89.5 -216.5q0 -128 -89 -217t-217 -89zM324 127q72 0 120 50t48 121t-48.5 121t-119.5 50q-70 0 -118 -50t-48 -121t47.5 -121t118.5 -50zM166 646q0 61 28 98t77 37q36 0 76 -24
q38 -24 52 -24q27 0 27 44h79q0 -63 -27 -99t-78 -36q-36 0 -87 30q-28 17 -42 17q-26 0 -26 -43h-79z" />
    <glyph glyph-name="omacron.smcp" unicode="&#xe287;" horiz-adv-x="650" 
d="M324 -8q-127 0 -215.5 89t-88.5 217q0 127 88.5 216.5t215.5 89.5t216.5 -89.5t89.5 -216.5q0 -128 -89 -217t-217 -89zM324 127q72 0 120 50t48 121t-48.5 121t-119.5 50q-70 0 -118 -50t-48 -121t47.5 -121t118.5 -50zM192 646v86h264v-86h-264z" />
    <glyph glyph-name="omacron.smcp" unicode="&#xf657;" horiz-adv-x="650" 
d="M324 -8q-127 0 -215.5 89t-88.5 217q0 127 88.5 216.5t215.5 89.5t216.5 -89.5t89.5 -216.5q0 -128 -89 -217t-217 -89zM324 127q72 0 120 50t48 121t-48.5 121t-119.5 50q-70 0 -118 -50t-48 -121t47.5 -121t118.5 -50zM192 646v86h264v-86h-264z" />
    <glyph glyph-name="obreve.smcp" unicode="&#xe288;" horiz-adv-x="650" 
d="M324 -8q-127 0 -215.5 89t-88.5 217q0 127 88.5 216.5t215.5 89.5t216.5 -89.5t89.5 -216.5q0 -128 -89 -217t-217 -89zM324 127q72 0 120 50t48 121t-48.5 121t-119.5 50q-70 0 -118 -50t-48 -121t47.5 -121t118.5 -50zM324 638q-79 0 -120 47t-41 123h86q0 -93 75 -96
q75 3 75 96h87q0 -74 -44 -122t-118 -48z" />
    <glyph glyph-name="obreve.smcp" unicode="&#xf635;" horiz-adv-x="650" 
d="M324 -8q-127 0 -215.5 89t-88.5 217q0 127 88.5 216.5t215.5 89.5t216.5 -89.5t89.5 -216.5q0 -128 -89 -217t-217 -89zM324 127q72 0 120 50t48 121t-48.5 121t-119.5 50q-70 0 -118 -50t-48 -121t47.5 -121t118.5 -50zM324 638q-79 0 -120 47t-41 123h86q0 -93 75 -96
q75 3 75 96h87q0 -74 -44 -122t-118 -48z" />
    <glyph glyph-name="ohungarumlaut.smcp" unicode="&#xe28a;" horiz-adv-x="650" 
d="M324 -8q-127 0 -215.5 89t-88.5 217q0 127 88.5 216.5t215.5 89.5t216.5 -89.5t89.5 -216.5q0 -128 -89 -217t-217 -89zM324 127q72 0 120 50t48 121t-48.5 121t-119.5 50q-70 0 -118 -50t-48 -121t47.5 -121t118.5 -50zM192 643l114 170h121l-150 -170h-85zM359 643
l114 170h121l-150 -170h-85z" />
    <glyph glyph-name="ohungarumlaut.smcp" unicode="&#xf656;" horiz-adv-x="650" 
d="M324 -8q-127 0 -215.5 89t-88.5 217q0 127 88.5 216.5t215.5 89.5t216.5 -89.5t89.5 -216.5q0 -128 -89 -217t-217 -89zM324 127q72 0 120 50t48 121t-48.5 121t-119.5 50q-70 0 -118 -50t-48 -121t47.5 -121t118.5 -50zM192 643l114 170h121l-150 -170h-85zM359 643
l114 170h121l-150 -170h-85z" />
    <glyph glyph-name="oslash.smcp" unicode="&#xe295;" horiz-adv-x="650" 
d="M324 -8q-78 0 -145 36l-23 -28h-153l85 103q-68 84 -68 195q0 127 88.5 216.5t215.5 89.5q78 0 148 -38l25 30h153l-88 -106q68 -86 68 -192q0 -128 -89 -217t-217 -89zM158 298q0 -45 21 -85l204 245q-28 11 -59 11q-70 0 -118 -50t-48 -121zM324 127q72 0 120 50
t48 121q0 43 -21 83l-202 -245q25 -9 55 -9z" />
    <glyph glyph-name="oslash.smcp" unicode="&#xf7f8;" horiz-adv-x="650" 
d="M324 -8q-78 0 -145 36l-23 -28h-153l85 103q-68 84 -68 195q0 127 88.5 216.5t215.5 89.5q78 0 148 -38l25 30h153l-88 -106q68 -86 68 -192q0 -128 -89 -217t-217 -89zM158 298q0 -45 21 -85l204 245q-28 11 -59 11q-70 0 -118 -50t-48 -121zM324 127q72 0 120 50
t48 121q0 43 -21 83l-202 -245q25 -9 55 -9z" />
    <glyph glyph-name="oslashacute.smcp" unicode="&#xe296;" horiz-adv-x="650" 
d="M324 -8q-78 0 -145 36l-23 -28h-153l85 103q-68 84 -68 195q0 127 88.5 216.5t215.5 89.5q78 0 148 -38l25 30h153l-88 -106q68 -86 68 -192q0 -128 -89 -217t-217 -89zM158 298q0 -45 21 -85l204 245q-28 11 -59 11q-70 0 -118 -50t-48 -121zM324 127q72 0 120 50
t48 121q0 43 -21 83l-202 -245q25 -9 55 -9zM270 646l114 170h128l-150 -170h-92z" />
    <glyph glyph-name="oslashacute.smcp" unicode="&#xf627;" horiz-adv-x="650" 
d="M324 -8q-78 0 -145 36l-23 -28h-153l85 103q-68 84 -68 195q0 127 88.5 216.5t215.5 89.5q78 0 148 -38l25 30h153l-88 -106q68 -86 68 -192q0 -128 -89 -217t-217 -89zM158 298q0 -45 21 -85l204 245q-28 11 -59 11q-70 0 -118 -50t-48 -121zM324 127q72 0 120 50
t48 121q0 43 -21 83l-202 -245q25 -9 55 -9zM270 646l114 170h128l-150 -170h-92z" />
    <glyph glyph-name="oe.smcp" unicode="&#xe298;" horiz-adv-x="879" 
d="M496 0v51q-73 -59 -172 -59q-127 0 -215.5 89t-88.5 217q0 127 88.5 216.5t215.5 89.5q99 0 172 -60v52h353v-128h-217v-105h217v-128h-217v-107h217v-128h-353zM324 127q72 0 120 50t48 121t-48.5 121t-119.5 50q-70 0 -118 -50t-48 -121t47.5 -121t118.5 -50z" />
    <glyph glyph-name="oe.smcp" unicode="&#xf6fa;" horiz-adv-x="879" 
d="M496 0v51q-73 -59 -172 -59q-127 0 -215.5 89t-88.5 217q0 127 88.5 216.5t215.5 89.5q99 0 172 -60v52h353v-128h-217v-105h217v-128h-217v-107h217v-128h-353zM324 127q72 0 120 50t48 121t-48.5 121t-119.5 50q-70 0 -118 -50t-48 -121t47.5 -121t118.5 -50z" />
    <glyph glyph-name="racute.smcp" unicode="&#xe29a;" horiz-adv-x="488" 
d="M35 0v596h208q104 0 164.5 -58.5t60.5 -145.5q0 -58 -29 -104.5t-83 -70.5l129 -217h-155l-159 284v-284h-136zM233 470h-62v-164h62q46 0 70 25t24 59q0 80 -94 80zM170 646l114 170h128l-150 -170h-92z" />
    <glyph glyph-name="racute.smcp" unicode="&#xf658;" horiz-adv-x="488" 
d="M35 0v596h208q104 0 164.5 -58.5t60.5 -145.5q0 -58 -29 -104.5t-83 -70.5l129 -217h-155l-159 284v-284h-136zM233 470h-62v-164h62q46 0 70 25t24 59q0 80 -94 80zM170 646l114 170h128l-150 -170h-92z" />
    <glyph glyph-name="rcaron.smcp" unicode="&#xe29b;" horiz-adv-x="488" 
d="M35 0v596h208q104 0 164.5 -58.5t60.5 -145.5q0 -58 -29 -104.5t-83 -70.5l129 -217h-155l-159 284v-284h-136zM194 646l-119 170h103l58 -88l59 88h103l-119 -170h-85zM233 470h-62v-164h62q46 0 70 25t24 59q0 80 -94 80z" />
    <glyph glyph-name="rcaron.smcp" unicode="&#xf659;" horiz-adv-x="488" 
d="M35 0v596h208q104 0 164.5 -58.5t60.5 -145.5q0 -58 -29 -104.5t-83 -70.5l129 -217h-155l-159 284v-284h-136zM194 646l-119 170h103l58 -88l59 88h103l-119 -170h-85zM233 470h-62v-164h62q46 0 70 25t24 59q0 80 -94 80z" />
    <glyph glyph-name="rcommaaccent.smcp" unicode="&#xe29e;" horiz-adv-x="488" 
d="M35 0v596h208q104 0 164.5 -58.5t60.5 -145.5q0 -58 -29 -104.5t-83 -70.5l129 -217h-155l-159 284v-284h-136zM233 470h-62v-164h62q46 0 70 25t24 59q0 80 -94 80zM237 -252h-85l34 204h121z" />
    <glyph glyph-name="rcommaaccent.smcp" unicode="&#xf65a;" horiz-adv-x="488" 
d="M35 0v596h208q104 0 164.5 -58.5t60.5 -145.5q0 -58 -29 -104.5t-83 -70.5l129 -217h-155l-159 284v-284h-136zM233 470h-62v-164h62q46 0 70 25t24 59q0 80 -94 80zM237 -252h-85l34 204h121z" />
    <glyph glyph-name="ucircumflex.smcp" unicode="&#xe300;" horiz-adv-x="518" 
d="M259 -8q-103 0 -163.5 59t-60.5 165v380h137v-384q0 -43 24 -69t62 -26q39 0 63.5 26t24.5 69v384h137v-380q0 -106 -60.5 -165t-163.5 -59zM100 646l119 170h85l119 -170h-103l-59 88l-58 -88h-103z" />
    <glyph glyph-name="ucircumflex.smcp" unicode="&#xf7fb;" horiz-adv-x="518" 
d="M259 -8q-103 0 -163.5 59t-60.5 165v380h137v-384q0 -43 24 -69t62 -26q39 0 63.5 26t24.5 69v384h137v-380q0 -106 -60.5 -165t-163.5 -59zM100 646l119 170h85l119 -170h-103l-59 88l-58 -88h-103z" />
    <glyph glyph-name="sacute.smcp" unicode="&#xe302;" horiz-adv-x="488" 
d="M244 -8q-142 0 -237 108l120 94q44 -74 117 -74q34 0 54.5 18t20.5 43q0 17 -16 30t-32 19t-52 17q-8 3 -13 4q-37 10 -61.5 20.5t-52.5 29.5t-42.5 50t-14.5 73q0 78 57.5 129.5t147.5 51.5q125 0 211 -93l-110 -85q-37 58 -100 58q-31 0 -49 -15t-18 -38q0 -24 24 -37
t74 -29q9 -3 14 -4q37 -11 62 -22t54 -31t44 -51.5t15 -73.5q0 -79 -59 -135.5t-158 -56.5zM192 646l114 170h128l-150 -170h-92z" />
    <glyph glyph-name="sacute.smcp" unicode="&#xf65b;" horiz-adv-x="488" 
d="M244 -8q-142 0 -237 108l120 94q44 -74 117 -74q34 0 54.5 18t20.5 43q0 17 -16 30t-32 19t-52 17q-8 3 -13 4q-37 10 -61.5 20.5t-52.5 29.5t-42.5 50t-14.5 73q0 78 57.5 129.5t147.5 51.5q125 0 211 -93l-110 -85q-37 58 -100 58q-31 0 -49 -15t-18 -38q0 -24 24 -37
t74 -29q9 -3 14 -4q37 -11 62 -22t54 -31t44 -51.5t15 -73.5q0 -79 -59 -135.5t-158 -56.5zM192 646l114 170h128l-150 -170h-92z" />
    <glyph glyph-name="scircumflex.smcp" unicode="&#xe303;" horiz-adv-x="488" 
d="M244 -8q-142 0 -237 108l120 94q44 -74 117 -74q34 0 54.5 18t20.5 43q0 17 -16 30t-32 19t-52 17q-8 3 -13 4q-37 10 -61.5 20.5t-52.5 29.5t-42.5 50t-14.5 73q0 78 57.5 129.5t147.5 51.5q125 0 211 -93l-110 -85q-37 58 -100 58q-31 0 -49 -15t-18 -38q0 -24 24 -37
t74 -29q9 -3 14 -4q37 -11 62 -22t54 -31t44 -51.5t15 -73.5q0 -79 -59 -135.5t-158 -56.5zM89 646l119 170h85l119 -170h-103l-59 88l-58 -88h-103z" />
    <glyph glyph-name="scircumflex.smcp" unicode="&#xf636;" horiz-adv-x="488" 
d="M244 -8q-142 0 -237 108l120 94q44 -74 117 -74q34 0 54.5 18t20.5 43q0 17 -16 30t-32 19t-52 17q-8 3 -13 4q-37 10 -61.5 20.5t-52.5 29.5t-42.5 50t-14.5 73q0 78 57.5 129.5t147.5 51.5q125 0 211 -93l-110 -85q-37 58 -100 58q-31 0 -49 -15t-18 -38q0 -24 24 -37
t74 -29q9 -3 14 -4q37 -11 62 -22t54 -31t44 -51.5t15 -73.5q0 -79 -59 -135.5t-158 -56.5zM89 646l119 170h85l119 -170h-103l-59 88l-58 -88h-103z" />
    <glyph glyph-name="scaron.smcp" unicode="&#xe304;" horiz-adv-x="488" 
d="M244 -8q-142 0 -237 108l120 94q44 -74 117 -74q34 0 54.5 18t20.5 43q0 17 -16 30t-32 19t-52 17q-8 3 -13 4q-37 10 -61.5 20.5t-52.5 29.5t-42.5 50t-14.5 73q0 78 57.5 129.5t147.5 51.5q125 0 211 -93l-110 -85q-37 58 -100 58q-31 0 -49 -15t-18 -38q0 -24 24 -37
t74 -29q9 -3 14 -4q37 -11 62 -22t54 -31t44 -51.5t15 -73.5q0 -79 -59 -135.5t-158 -56.5zM209 646l-119 170h103l58 -88l59 88h103l-119 -170h-85z" />
    <glyph glyph-name="scaron.smcp" unicode="&#xf6fd;" horiz-adv-x="488" 
d="M244 -8q-142 0 -237 108l120 94q44 -74 117 -74q34 0 54.5 18t20.5 43q0 17 -16 30t-32 19t-52 17q-8 3 -13 4q-37 10 -61.5 20.5t-52.5 29.5t-42.5 50t-14.5 73q0 78 57.5 129.5t147.5 51.5q125 0 211 -93l-110 -85q-37 58 -100 58q-31 0 -49 -15t-18 -38q0 -24 24 -37
t74 -29q9 -3 14 -4q37 -11 62 -22t54 -31t44 -51.5t15 -73.5q0 -79 -59 -135.5t-158 -56.5zM209 646l-119 170h103l58 -88l59 88h103l-119 -170h-85z" />
    <glyph glyph-name="scommaaccent.smcp" unicode="&#xe305;" horiz-adv-x="488" 
d="M244 -8q-142 0 -237 108l120 94q44 -74 117 -74q34 0 54.5 18t20.5 43q0 17 -16 30t-32 19t-52 17q-8 3 -13 4q-37 10 -61.5 20.5t-52.5 29.5t-42.5 50t-14.5 73q0 78 57.5 129.5t147.5 51.5q125 0 211 -93l-110 -85q-37 58 -100 58q-31 0 -49 -15t-18 -38q0 -24 24 -37
t74 -29q9 -3 14 -4q37 -11 62 -22t54 -31t44 -51.5t15 -73.5q0 -79 -59 -135.5t-158 -56.5zM235 -249h-85l34 204h121z" />
    <glyph glyph-name="scommaaccent.smcp" unicode="&#xf65d;" horiz-adv-x="488" 
d="M244 -8q-142 0 -237 108l120 94q44 -74 117 -74q34 0 54.5 18t20.5 43q0 17 -16 30t-32 19t-52 17q-8 3 -13 4q-37 10 -61.5 20.5t-52.5 29.5t-42.5 50t-14.5 73q0 78 57.5 129.5t147.5 51.5q125 0 211 -93l-110 -85q-37 58 -100 58q-31 0 -49 -15t-18 -38q0 -24 24 -37
t74 -29q9 -3 14 -4q37 -11 62 -22t54 -31t44 -51.5t15 -73.5q0 -79 -59 -135.5t-158 -56.5zM235 -249h-85l34 204h121z" />
    <glyph glyph-name="scedilla.smcp" unicode="&#xe306;" horiz-adv-x="488" 
d="M234 -240q-77 0 -143 59l78 47q42 -33 76 -33q22 0 38 8.5t16 21.5q0 27 -57 27h-51v106q-108 15 -184 104l120 94q44 -74 117 -74q34 0 54.5 18t20.5 43q0 17 -16 30t-32 19t-52 17q-8 3 -13 4q-37 10 -61.5 20.5t-52.5 29.5t-42.5 50t-14.5 73q0 78 57.5 129.5
t147.5 51.5q125 0 211 -93l-110 -85q-37 58 -100 58q-31 0 -49 -15t-18 -38q0 -24 24 -37t74 -29q9 -3 14 -4q37 -11 62 -22t54 -31t44 -51.5t15 -73.5q0 -72 -50 -126.5t-135 -63.5v-47q55 2 85 -20t30 -60q0 -46 -45 -76.5t-112 -30.5z" />
    <glyph glyph-name="scedilla.smcp" unicode="&#xf65c;" horiz-adv-x="488" 
d="M234 -240q-77 0 -143 59l78 47q42 -33 76 -33q22 0 38 8.5t16 21.5q0 27 -57 27h-51v106q-108 15 -184 104l120 94q44 -74 117 -74q34 0 54.5 18t20.5 43q0 17 -16 30t-32 19t-52 17q-8 3 -13 4q-37 10 -61.5 20.5t-52.5 29.5t-42.5 50t-14.5 73q0 78 57.5 129.5
t147.5 51.5q125 0 211 -93l-110 -85q-37 58 -100 58q-31 0 -49 -15t-18 -38q0 -24 24 -37t74 -29q9 -3 14 -4q37 -11 62 -22t54 -31t44 -51.5t15 -73.5q0 -72 -50 -126.5t-135 -63.5v-47q55 2 85 -20t30 -60q0 -46 -45 -76.5t-112 -30.5z" />
    <glyph glyph-name="tcaron.smcp" unicode="&#xe309;" horiz-adv-x="493" 
d="M183 0v468h-151v128h433v-128h-149v-468h-133zM206 646l-119 170h103l58 -88l59 88h103l-119 -170h-85z" />
    <glyph glyph-name="tcaron.smcp" unicode="&#xf65e;" horiz-adv-x="493" 
d="M183 0v468h-151v128h433v-128h-149v-468h-133zM206 646l-119 170h103l58 -88l59 88h103l-119 -170h-85z" />
    <glyph glyph-name="tcommaaccent.smcp" unicode="&#xe30a;" horiz-adv-x="493" 
d="M183 0v468h-151v128h433v-128h-149v-468h-133zM239 -264h-85l34 204h121z" />
    <glyph glyph-name="tcommaaccent.smcp" unicode="&#xf65f;" horiz-adv-x="493" 
d="M183 0v468h-151v128h433v-128h-149v-468h-133zM239 -264h-85l34 204h121z" />
    <glyph glyph-name="tbar.smcp" unicode="&#xe30d;" horiz-adv-x="493" 
d="M413 209h-99v-209h-133v209h-101v128h101v131h-151v128h433v-128h-149v-131h99v-128z" />
    <glyph glyph-name="tbar.smcp" unicode="&#xf637;" horiz-adv-x="493" 
d="M413 209h-99v-209h-133v209h-101v128h101v131h-151v128h433v-128h-149v-131h99v-128z" />
    <glyph glyph-name="uacute.smcp" unicode="&#xe30e;" horiz-adv-x="518" 
d="M259 -8q-103 0 -163.5 59t-60.5 165v380h137v-384q0 -43 24 -69t62 -26q39 0 63.5 26t24.5 69v384h137v-380q0 -106 -60.5 -165t-163.5 -59zM199 646l114 170h128l-150 -170h-92z" />
    <glyph glyph-name="uacute.smcp" unicode="&#xf7fa;" horiz-adv-x="518" 
d="M259 -8q-103 0 -163.5 59t-60.5 165v380h137v-384q0 -43 24 -69t62 -26q39 0 63.5 26t24.5 69v384h137v-380q0 -106 -60.5 -165t-163.5 -59zM199 646l114 170h128l-150 -170h-92z" />
    <glyph glyph-name="ugrave.smcp" unicode="&#xe30f;" horiz-adv-x="518" 
d="M259 -8q-103 0 -163.5 59t-60.5 165v380h137v-384q0 -43 24 -69t62 -26q39 0 63.5 26t24.5 69v384h137v-380q0 -106 -60.5 -165t-163.5 -59zM215 643l-150 170h128l114 -170h-92z" />
    <glyph glyph-name="ugrave.smcp" unicode="&#xf7f9;" horiz-adv-x="518" 
d="M259 -8q-103 0 -163.5 59t-60.5 165v380h137v-384q0 -43 24 -69t62 -26q39 0 63.5 26t24.5 69v384h137v-380q0 -106 -60.5 -165t-163.5 -59zM215 643l-150 170h128l114 -170h-92z" />
    <glyph glyph-name="wdieresis.smcp" unicode="&#xe310;" horiz-adv-x="849" 
d="M183 0l-165 596h139l96 -372l106 372h136l105 -373l96 373h137l-165 -596h-135l-106 379l-106 -379h-138zM453 646v137h137v-137h-137zM266 646v137h137v-137h-137z" />
    <glyph glyph-name="wdieresis.smcp" unicode="&#xf63c;" horiz-adv-x="849" 
d="M183 0l-165 596h139l96 -372l106 372h136l105 -373l96 373h137l-165 -596h-135l-106 379l-106 -379h-138zM453 646v137h137v-137h-137zM266 646v137h137v-137h-137z" />
    <glyph glyph-name="udieresis.smcp" unicode="&#xe311;" horiz-adv-x="518" 
d="M259 -8q-103 0 -163.5 59t-60.5 165v380h137v-384q0 -43 24 -69t62 -26q39 0 63.5 26t24.5 69v384h137v-380q0 -106 -60.5 -165t-163.5 -59zM286 646v137h137v-137h-137zM99 646v137h137v-137h-137z" />
    <glyph glyph-name="udieresis.smcp" unicode="&#xf7fc;" horiz-adv-x="518" 
d="M259 -8q-103 0 -163.5 59t-60.5 165v380h137v-384q0 -43 24 -69t62 -26q39 0 63.5 26t24.5 69v384h137v-380q0 -106 -60.5 -165t-163.5 -59zM286 646v137h137v-137h-137zM99 646v137h137v-137h-137z" />
    <glyph glyph-name="utilde.smcp" unicode="&#xe312;" horiz-adv-x="518" 
d="M259 -8q-103 0 -163.5 59t-60.5 165v380h137v-384q0 -43 24 -69t62 -26q39 0 63.5 26t24.5 69v384h137v-380q0 -106 -60.5 -165t-163.5 -59zM88 646q0 61 28 98t77 37q36 0 76 -24q38 -24 52 -24q27 0 27 44h79q0 -63 -27 -99t-78 -36q-36 0 -87 30q-28 17 -42 17
q-26 0 -26 -43h-79z" />
    <glyph glyph-name="utilde.smcp" unicode="&#xf639;" horiz-adv-x="518" 
d="M259 -8q-103 0 -163.5 59t-60.5 165v380h137v-384q0 -43 24 -69t62 -26q39 0 63.5 26t24.5 69v384h137v-380q0 -106 -60.5 -165t-163.5 -59zM88 646q0 61 28 98t77 37q36 0 76 -24q38 -24 52 -24q27 0 27 44h79q0 -63 -27 -99t-78 -36q-36 0 -87 30q-28 17 -42 17
q-26 0 -26 -43h-79z" />
    <glyph glyph-name="uring.smcp" unicode="&#xe313;" horiz-adv-x="518" 
d="M259 -8q-103 0 -163.5 59t-60.5 165v380h137v-384q0 -43 24 -69t62 -26q39 0 63.5 26t24.5 69v384h137v-380q0 -106 -60.5 -165t-163.5 -59zM259 636q-48 0 -82 34t-34 82q0 49 34 83.5t82 34.5q49 0 83.5 -34t34.5 -84q0 -48 -34.5 -82t-83.5 -34zM259 713q17 0 29 11.5
t12 27.5t-12 28.5t-29 12.5q-16 0 -27.5 -12t-11.5 -29q0 -16 11.5 -27.5t27.5 -11.5z" />
    <glyph glyph-name="uring.smcp" unicode="&#xf663;" horiz-adv-x="518" 
d="M259 -8q-103 0 -163.5 59t-60.5 165v380h137v-384q0 -43 24 -69t62 -26q39 0 63.5 26t24.5 69v384h137v-380q0 -106 -60.5 -165t-163.5 -59zM259 636q-48 0 -82 34t-34 82q0 49 34 83.5t82 34.5q49 0 83.5 -34t34.5 -84q0 -48 -34.5 -82t-83.5 -34zM259 713q17 0 29 11.5
t12 27.5t-12 28.5t-29 12.5q-16 0 -27.5 -12t-11.5 -29q0 -16 11.5 -27.5t27.5 -11.5z" />
    <glyph glyph-name="umacron.smcp" unicode="&#xe315;" horiz-adv-x="518" 
d="M259 -8q-103 0 -163.5 59t-60.5 165v380h137v-384q0 -43 24 -69t62 -26q39 0 63.5 26t24.5 69v384h137v-380q0 -106 -60.5 -165t-163.5 -59zM129 646v86h264v-86h-264z" />
    <glyph glyph-name="umacron.smcp" unicode="&#xf661;" horiz-adv-x="518" 
d="M259 -8q-103 0 -163.5 59t-60.5 165v380h137v-384q0 -43 24 -69t62 -26q39 0 63.5 26t24.5 69v384h137v-380q0 -106 -60.5 -165t-163.5 -59zM129 646v86h264v-86h-264z" />
    <glyph glyph-name="ubreve.smcp" unicode="&#xe316;" horiz-adv-x="518" 
d="M259 -8q-103 0 -163.5 59t-60.5 165v380h137v-384q0 -43 24 -69t62 -26q39 0 63.5 26t24.5 69v384h137v-380q0 -106 -60.5 -165t-163.5 -59zM261 636q-79 0 -120 47t-41 123h86q0 -93 75 -96q75 3 75 96h87q0 -74 -44 -122t-118 -48z" />
    <glyph glyph-name="ubreve.smcp" unicode="&#xf638;" horiz-adv-x="518" 
d="M259 -8q-103 0 -163.5 59t-60.5 165v380h137v-384q0 -43 24 -69t62 -26q39 0 63.5 26t24.5 69v384h137v-380q0 -106 -60.5 -165t-163.5 -59zM261 636q-79 0 -120 47t-41 123h86q0 -93 75 -96q75 3 75 96h87q0 -74 -44 -122t-118 -48z" />
    <glyph glyph-name="uhungarumlaut.smcp" unicode="&#xe318;" horiz-adv-x="518" 
d="M259 -8q-103 0 -163.5 59t-60.5 165v380h137v-384q0 -43 24 -69t62 -26q39 0 63.5 26t24.5 69v384h137v-380q0 -106 -60.5 -165t-163.5 -59zM121 646l114 170h121l-150 -170h-85zM288 646l114 170h121l-150 -170h-85z" />
    <glyph glyph-name="uhungarumlaut.smcp" unicode="&#xf660;" horiz-adv-x="518" 
d="M259 -8q-103 0 -163.5 59t-60.5 165v380h137v-384q0 -43 24 -69t62 -26q39 0 63.5 26t24.5 69v384h137v-380q0 -106 -60.5 -165t-163.5 -59zM121 646l114 170h121l-150 -170h-85zM288 646l114 170h121l-150 -170h-85z" />
    <glyph glyph-name="uogonek.smcp" unicode="&#xe31b;" horiz-adv-x="518" 
d="M278 -212q-64 0 -104 31.5t-40 77.5q0 57 57 103q-73 18 -114.5 73.5t-41.5 142.5v380h137v-384q0 -43 24 -69t62 -26q39 0 63.5 26t24.5 69v384h137v-380q0 -77 -33 -130t-93 -77q-78 -51 -99.5 -69.5t-21.5 -37.5q0 -30 42 -30q24 0 60 28l80 -54q-28 -25 -66.5 -41.5
t-73.5 -16.5z" />
    <glyph glyph-name="uogonek.smcp" unicode="&#xf662;" horiz-adv-x="518" 
d="M278 -212q-64 0 -104 31.5t-40 77.5q0 57 57 103q-73 18 -114.5 73.5t-41.5 142.5v380h137v-384q0 -43 24 -69t62 -26q39 0 63.5 26t24.5 69v384h137v-380q0 -77 -33 -130t-93 -77q-78 -51 -99.5 -69.5t-21.5 -37.5q0 -30 42 -30q24 0 60 28l80 -54q-28 -25 -66.5 -41.5
t-73.5 -16.5z" />
    <glyph glyph-name="wacute.smcp" unicode="&#xe31d;" horiz-adv-x="849" 
d="M183 0l-165 596h139l96 -372l106 372h136l105 -373l96 373h137l-165 -596h-135l-106 379l-106 -379h-138zM381 646l114 170h128l-150 -170h-92z" />
    <glyph glyph-name="wacute.smcp" unicode="&#xf63a;" horiz-adv-x="849" 
d="M183 0l-165 596h139l96 -372l106 372h136l105 -373l96 373h137l-165 -596h-135l-106 379l-106 -379h-138zM381 646l114 170h128l-150 -170h-92z" />
    <glyph glyph-name="wgrave.smcp" unicode="&#xe31e;" horiz-adv-x="849" 
d="M183 0l-165 596h139l96 -372l106 372h136l105 -373l96 373h137l-165 -596h-135l-106 379l-106 -379h-138zM382 646l-150 170h128l114 -170h-92z" />
    <glyph glyph-name="wgrave.smcp" unicode="&#xf63d;" horiz-adv-x="849" 
d="M183 0l-165 596h139l96 -372l106 372h136l105 -373l96 373h137l-165 -596h-135l-106 379l-106 -379h-138zM382 646l-150 170h128l114 -170h-92z" />
    <glyph glyph-name="wcircumflex.smcp" unicode="&#xe31f;" horiz-adv-x="849" 
d="M183 0l-165 596h139l96 -372l106 372h136l105 -373l96 373h137l-165 -596h-135l-106 379l-106 -379h-138zM267 642l119 170h85l119 -170h-103l-59 88l-58 -88h-103z" />
    <glyph glyph-name="wcircumflex.smcp" unicode="&#xf63b;" horiz-adv-x="849" 
d="M183 0l-165 596h139l96 -372l106 372h136l105 -373l96 373h137l-165 -596h-135l-106 379l-106 -379h-138zM267 642l119 170h85l119 -170h-103l-59 88l-58 -88h-103z" />
    <glyph glyph-name="yacute.smcp" unicode="&#xe321;" horiz-adv-x="538" 
d="M201 0v280l-186 316h149l107 -184l107 184h148l-187 -317v-279h-138zM220 638l114 170h128l-150 -170h-92z" />
    <glyph glyph-name="yacute.smcp" unicode="&#xf7fd;" horiz-adv-x="538" 
d="M201 0v280l-186 316h149l107 -184l107 184h148l-187 -317v-279h-138zM220 638l114 170h128l-150 -170h-92z" />
    <glyph glyph-name="ygrave.smcp" unicode="&#xe322;" horiz-adv-x="538" 
d="M201 0v280l-186 316h149l107 -184l107 184h148l-187 -317v-279h-138zM226 638l-150 170h128l114 -170h-92z" />
    <glyph glyph-name="ygrave.smcp" unicode="&#xf63f;" horiz-adv-x="538" 
d="M201 0v280l-186 316h149l107 -184l107 184h148l-187 -317v-279h-138zM226 638l-150 170h128l114 -170h-92z" />
    <glyph glyph-name="ycircumflex.smcp" unicode="&#xe323;" horiz-adv-x="538" 
d="M201 0v280l-186 316h149l107 -184l107 184h148l-187 -317v-279h-138zM109 646l119 170h85l119 -170h-103l-59 88l-58 -88h-103z" />
    <glyph glyph-name="ycircumflex.smcp" unicode="&#xf63e;" horiz-adv-x="538" 
d="M201 0v280l-186 316h149l107 -184l107 184h148l-187 -317v-279h-138zM109 646l119 170h85l119 -170h-103l-59 88l-58 -88h-103z" />
    <glyph glyph-name="ydieresis.smcp" unicode="&#xe324;" horiz-adv-x="538" 
d="M201 0v280l-186 316h149l107 -184l107 184h148l-187 -317v-279h-138zM108 646v137h137v-137h-137zM295 646v137h137v-137h-137z" />
    <glyph glyph-name="ydieresis.smcp" unicode="&#xf7ff;" horiz-adv-x="538" 
d="M201 0v280l-186 316h149l107 -184l107 184h148l-187 -317v-279h-138zM108 646v137h137v-137h-137zM295 646v137h137v-137h-137z" />
    <glyph glyph-name="ij.smcp" unicode="&#xe327;" horiz-adv-x="452" 
d="M216 0v126h5q36 1 47 13.5t11 52.5v404h138v-400q0 -115 -41.5 -155.5t-150.5 -40.5h-9zM35 0v596h138v-596h-138z" />
    <glyph glyph-name="ij.smcp" unicode="&#xf631;" horiz-adv-x="452" 
d="M216 0v126h5q36 1 47 13.5t11 52.5v404h138v-400q0 -115 -41.5 -155.5t-150.5 -40.5h-9zM35 0v596h138v-596h-138z" />
    <glyph glyph-name="zacute.smcp" unicode="&#xe328;" horiz-adv-x="454" 
d="M30 0v126l234 343h-229v127h389v-123l-237 -346h237v-127h-394zM172 646l114 170h128l-150 -170h-92z" />
    <glyph glyph-name="zacute.smcp" unicode="&#xf664;" horiz-adv-x="454" 
d="M30 0v126l234 343h-229v127h389v-123l-237 -346h237v-127h-394zM172 646l114 170h128l-150 -170h-92z" />
    <glyph glyph-name="zcaron.smcp" unicode="&#xe329;" horiz-adv-x="454" 
d="M30 0v126l234 343h-229v127h389v-123l-237 -346h237v-127h-394zM189 646l-119 170h103l58 -88l59 88h103l-119 -170h-85z" />
    <glyph glyph-name="zcaron.smcp" unicode="&#xf6ff;" horiz-adv-x="454" 
d="M30 0v126l234 343h-229v127h389v-123l-237 -346h237v-127h-394zM189 646l-119 170h103l58 -88l59 88h103l-119 -170h-85z" />
    <glyph glyph-name="zdotaccent.smcp" unicode="&#xe32a;" horiz-adv-x="454" 
d="M30 0v126l234 343h-229v127h389v-123l-237 -346h237v-127h-394zM159 646v137h137v-137h-137z" />
    <glyph glyph-name="zdotaccent.smcp" unicode="&#xf665;" horiz-adv-x="454" 
d="M30 0v126l234 343h-229v127h389v-123l-237 -346h237v-127h-394zM159 646v137h137v-137h-137z" />
    <glyph glyph-name="eng.smcp" unicode="&#xe32b;" horiz-adv-x="576" 
d="M310 -230v128q62 0 78 15.5t16 74.5v19l-233 363v-370h-136v596h148l222 -347v347h136v-609q0 -122 -46 -169.5t-165 -47.5h-20z" />
    <glyph glyph-name="eng.smcp" unicode="&#xf62b;" horiz-adv-x="576" 
d="M310 -230v128q62 0 78 15.5t16 74.5v19l-233 363v-370h-136v596h148l222 -347v347h136v-609q0 -122 -46 -169.5t-165 -47.5h-20z" />
    <glyph glyph-name="eth.smcp" unicode="&#xe32c;" horiz-adv-x="584" 
d="M20 242v112h50v242h176q139 0 225 -84.5t86 -213.5q0 -128 -87.5 -213t-220.5 -85h-179v242h-50zM324 242h-117v-115h34q80 0 129 48.5t49 122.5q0 76 -47.5 123.5t-133.5 47.5h-31v-115h117v-112z" />
    <glyph glyph-name="eth.smcp" unicode="&#xf7f0;" horiz-adv-x="584" 
d="M20 242v112h50v242h176q139 0 225 -84.5t86 -213.5q0 -128 -87.5 -213t-220.5 -85h-179v242h-50zM324 242h-117v-115h34q80 0 129 48.5t49 122.5q0 76 -47.5 123.5t-133.5 47.5h-31v-115h117v-112z" />
    <glyph glyph-name="thorn.smcp" unicode="&#xe32d;" horiz-adv-x="462" 
d="M35 0v596h137v-96h64q93 0 149.5 -57.5t56.5 -141.5q0 -85 -55.5 -142.5t-151.5 -57.5h-63v-101h-137zM235 373h-63v-145h63q32 0 53 20.5t21 51.5q0 33 -21 53t-53 20z" />
    <glyph glyph-name="thorn.smcp" unicode="&#xf7fe;" horiz-adv-x="462" 
d="M35 0v596h137v-96h64q93 0 149.5 -57.5t56.5 -141.5q0 -85 -55.5 -142.5t-151.5 -57.5h-63v-101h-137zM235 373h-63v-145h63q32 0 53 20.5t21 51.5q0 33 -21 53t-53 20z" />
    <glyph glyph-name="ordfeminine.smcp" unicode="&#xe351;" horiz-adv-x="338" 
d="M12 440l99 290h115l100 -290h-101l-11 34h-89l-11 -34h-102zM188 554l-18 55l-19 -55h37z" />
    <glyph glyph-name="ordmasculine.smcp" unicode="&#xe352;" horiz-adv-x="335" 
d="M168 435q-62 0 -106 44t-44 106q0 63 44 107t106 44t105.5 -44t43.5 -107q0 -62 -43.5 -106t-105.5 -44zM168 530q22 0 37.5 16t15.5 39t-15.5 39.5t-37.5 16.5q-23 0 -38 -16t-15 -40q0 -23 15 -39t38 -16z" />
    <glyph glyph-name="cordinal.smcp" unicode="&#xe353;" horiz-adv-x="320" 
d="M168 435q-62 0 -106 44t-44 106q0 63 44 107t106 44q48 0 85 -25t54 -66l-88 -39q-13 35 -50 35q-22 0 -38 -16.5t-16 -39.5t16 -39t38 -16q36 0 50 34l88 -38q-17 -41 -54 -66t-85 -25z" />
    <glyph glyph-name="fi" unicode="&#xe38c;" horiz-adv-x="563" 
d="M25 377v123h85v13q0 123 47.5 170t172.5 47h11v-128q-62 0 -78 -15.5t-16 -74.5v-12h94v-123h-94v-377h-137v377h-85zM391 0v500h137v-500h-137zM391 550v137h137v-137h-137z" />
    <glyph glyph-name="fi" unicode="&#xfb01;" horiz-adv-x="563" 
d="M25 377v123h85v13q0 123 47.5 170t172.5 47h11v-128q-62 0 -78 -15.5t-16 -74.5v-12h94v-123h-94v-377h-137v377h-85zM391 0v500h137v-500h-137zM391 550v137h137v-137h-137z" />
    <glyph glyph-name="fl" unicode="&#xe38d;" horiz-adv-x="563" 
d="M25 377v123h85v13q0 123 47.5 170t172.5 47h11v-128q-62 0 -78 -15.5t-16 -74.5v-12h94v-123h-94v-377h-137v377h-85zM391 0v730h137v-730h-137z" />
    <glyph glyph-name="fl" unicode="&#xfb02;" horiz-adv-x="563" 
d="M25 377v123h85v13q0 123 47.5 170t172.5 47h11v-128q-62 0 -78 -15.5t-16 -74.5v-12h94v-123h-94v-377h-137v377h-85zM391 0v730h137v-730h-137z" />
    <glyph glyph-name="ampersand.smcp" unicode="&#xe401;" horiz-adv-x="638" 
d="M448 0l-37 36q-74 -45 -154 -45q-121 0 -179 56.5t-58 137.5q0 102 93 164q-26 45 -26 93q0 70 49.5 116t129.5 46q130 0 184 -109l-132 -57q-12 44 -48 44q-19 0 -31.5 -11.5t-12.5 -28.5q0 -23 16 -44.5t72 -78.5q11 -10 16 -16l95 -95q30 43 42 89h-94v126h230v-61
q0 -125 -93 -239l121 -123h-183zM257 108q33 0 67 14l-103 104q-5 5 -15 14.5t-14 13.5q-38 -25 -38 -68q0 -33 28 -55.5t75 -22.5z" />
    <glyph glyph-name="ampersand.smcp" unicode="&#xf726;" horiz-adv-x="638" 
d="M448 0l-37 36q-74 -45 -154 -45q-121 0 -179 56.5t-58 137.5q0 102 93 164q-26 45 -26 93q0 70 49.5 116t129.5 46q130 0 184 -109l-132 -57q-12 44 -48 44q-19 0 -31.5 -11.5t-12.5 -28.5q0 -23 16 -44.5t72 -78.5q11 -10 16 -16l95 -95q30 43 42 89h-94v126h230v-61
q0 -125 -93 -239l121 -123h-183zM257 108q33 0 67 14l-103 104q-5 5 -15 14.5t-14 13.5q-38 -25 -38 -68q0 -33 28 -55.5t75 -22.5z" />
    <glyph glyph-name="invertedbreve" unicode="&#xe411;" horiz-adv-x="471" 
d="M73 550q0 76 41 123t120 47q74 0 118 -48t44 -122h-87q0 93 -75 96q-75 -3 -75 -96h-86z" />
    <glyph glyph-name="doublegrave" unicode="&#xe412;" horiz-adv-x="471" 
d="M187 550l-150 170h128l114 -170h-92zM353 550l-150 170h128l114 -170h-92z" />
    <glyph glyph-name="caronSlovak" unicode="&#xe413;" horiz-adv-x="471" 
d="M188 550l24 170h111l-50 -170h-85z" />
    <glyph glyph-name="commaaccent" unicode="&#xe414;" horiz-adv-x="471" 
d="M238 -249h-85l34 204h121z" />
    <glyph glyph-name="commaaccent" unicode="&#xf6c3;" horiz-adv-x="471" 
d="M238 -249h-85l34 204h121z" />
    <glyph glyph-name="dotbelow" unicode="&#xe415;" horiz-adv-x="471" 
d="M157 -187v137h137v-137h-137z" />
    <glyph glyph-name="altcedilla" unicode="&#xe416;" horiz-adv-x="471" 
d="M224 -240q-103 0 -155 58l78 49q29 -34 76 -34q22 0 37.5 8t15.5 21q0 28 -57 28h-7v57h25q61 1 96 -22.5t35 -61.5q0 -45 -43 -74t-101 -29z" />
    <glyph glyph-name="exclamdown.cap" unicode="&#xe441;" horiz-adv-x="207" 
d="M35 0v117q0 218 31 426h75q31 -208 31 -426v-117h-137zM35 593v137h137v-137h-137z" />
    <glyph glyph-name="questiondown.cap" unicode="&#xe444;" horiz-adv-x="515" 
d="M263 -10q-103 0 -167.5 58t-64.5 152q0 44 13.5 77.5t33.5 52.5t44 39t44 38t33.5 50t13.5 74v11h123v-11q0 -67 -17 -115.5t-41 -73.5t-48 -44.5t-41 -43.5t-17 -56q0 -38 25.5 -62.5t67.5 -24.5q38 0 63.5 23.5t34.5 61.5l129 -43q-19 -75 -77.5 -119t-151.5 -44z
M206 593v137h137v-137h-137z" />
    <glyph glyph-name="guilsinglleft.cap" unicode="&#xe451;" horiz-adv-x="274" 
d="M222 204l-170 119v85l170 119v-103l-88 -59l88 -58v-103z" />
    <glyph glyph-name="guilsinglright.cap" unicode="&#xe452;" horiz-adv-x="274" 
d="M52 205v103l88 58l-88 59v103l170 -119v-85z" />
    <glyph glyph-name="guillemotleft.cap" unicode="&#xe453;" horiz-adv-x="478" 
d="M229 214l-184 113v77l184 113v-93l-99 -59l99 -58v-93zM433 214l-184 113v77l184 113v-93l-99 -59l99 -58v-93z" />
    <glyph glyph-name="guillemotright.cap" unicode="&#xe454;" horiz-adv-x="478" 
d="M249 214v93l99 58l-99 59v93l184 -113v-77zM45 214v93l99 58l-99 59v93l184 -113v-77z" />
    <glyph glyph-name="slash.cap" unicode="&#xe461;" horiz-adv-x="512" 
d="M10 0l346 730h147l-346 -730h-147z" />
    <glyph glyph-name="backslash.cap" unicode="&#xe462;" horiz-adv-x="512" 
d="M356 0l-346 730h147l346 -730h-147z" />
    <glyph glyph-name="bar.cap" unicode="&#xe463;" horiz-adv-x="209" 
d="M35 -120v960h139v-960h-139z" />
    <glyph glyph-name="doublebar.cap" unicode="&#xe464;" horiz-adv-x="408" 
d="M35 -120v960h139v-960h-139zM234 -120v960h139v-960h-139z" />
    <glyph glyph-name="brokenbar.cap" unicode="&#xe465;" horiz-adv-x="209" 
d="M35 420v420h139v-420h-139zM35 -120v420h139v-420h-139z" />
    <glyph glyph-name="bullet.cap" unicode="&#xe466;" horiz-adv-x="398" 
d="M199 252q-47 0 -80 33t-33 80t33 80t80 33t80 -33t33 -80t-33 -80t-80 -33z" />
    <glyph glyph-name="slash.smcp" unicode="&#xe467;" horiz-adv-x="455" 
d="M16 0l283 596h141l-283 -596h-141z" />
    <glyph glyph-name="backslash.smcp" unicode="&#xe468;" horiz-adv-x="455" 
d="M299 0l-283 596h141l283 -596h-141z" />
    <glyph glyph-name="bar.smcp" unicode="&#xe469;" horiz-adv-x="204" 
d="M35 -98v784h134v-784h-134z" />
    <glyph glyph-name="doublebar.smcp" unicode="&#xe46a;" horiz-adv-x="398" 
d="M35 -98v784h134v-784h-134zM229 -98v784h134v-784h-134z" />
    <glyph glyph-name="onethirdemdash" unicode="&#xe471;" horiz-adv-x="390" 
d="M35 196v117h320v-117h-320z" />
    <glyph glyph-name="threequarteremdash" unicode="&#xe472;" horiz-adv-x="570" 
d="M35 196v117h500v-117h-500z" />
    <glyph glyph-name="periodcentered.cap" unicode="&#xe481;" horiz-adv-x="207" 
d="M35 296v137h137v-137h-137z" />
    <glyph glyph-name="hyphen.cap" unicode="&#xe482;" horiz-adv-x="440" 
d="M35 306v117h370v-117h-370z" />
    <glyph glyph-name="onethirdemdash.cap" unicode="&#xe483;" horiz-adv-x="390" 
d="M35 306v117h320v-117h-320z" />
    <glyph glyph-name="endash.cap" unicode="&#xe484;" horiz-adv-x="470" 
d="M35 306v117h400v-117h-400z" />
    <glyph glyph-name="threequarteremdash.cap" unicode="&#xe485;" horiz-adv-x="570" 
d="M35 306v117h500v-117h-500z" />
    <glyph glyph-name="emdash.cap" unicode="&#xe486;" horiz-adv-x="670" 
d="M35 306v117h600v-117h-600z" />
    <glyph glyph-name="figuredash.cap" unicode="&#xe487;" horiz-adv-x="620" 
d="M35 306v117h550v-117h-550z" />
    <glyph glyph-name="uni2015.cap" unicode="&#xe488;" horiz-adv-x="970" 
d="M35 306v117h900v-117h-900z" />
    <glyph glyph-name="anglebracketright.smcp" unicode="&#xe490;" horiz-adv-x="343" 
d="M151 -98h-142l186 391l-187 393h142l186 -393z" />
    <glyph glyph-name="parenleft.cap" unicode="&#xe491;" horiz-adv-x="386" 
d="M299 -149q-279 188 -279 504q0 163 68.5 281t198.5 213l93 -100q-214 -143 -214 -394q0 -254 219 -390z" />
    <glyph glyph-name="parenright.cap" unicode="&#xe492;" horiz-adv-x="386" 
d="M87 -149l-86 114q219 136 219 390q0 251 -214 394l93 100q130 -95 198.5 -213t68.5 -281q0 -316 -279 -504z" />
    <glyph glyph-name="bracketleft.cap" unicode="&#xe493;" horiz-adv-x="343" 
d="M35 -120v960h273v-133h-134v-694h134v-133h-273z" />
    <glyph glyph-name="bracketright.cap" unicode="&#xe494;" horiz-adv-x="343" 
d="M35 -120v133h134v694h-134v133h273v-960h-273z" />
    <glyph glyph-name="braceleft.cap" unicode="&#xe495;" horiz-adv-x="370" 
d="M345 -120h-11q-125 0 -172.5 47t-47.5 170v96q0 61 -16.5 80.5t-77.5 19.5v128q61 0 77.5 19.5t16.5 80.5v102q0 123 47.5 170t172.5 47h11v-128q-62 0 -78 -15.5t-16 -74.5v-102q0 -126 -76 -163q76 -37 76 -163v-96q0 -59 16 -74.5t78 -15.5v-128z" />
    <glyph glyph-name="braceright.cap" unicode="&#xe496;" horiz-adv-x="370" 
d="M25 -120v128q62 0 78 15.5t16 74.5v96q0 65 17.5 104t57.5 59q-40 20 -57.5 59t-17.5 104v102q0 59 -16 74.5t-78 15.5v128h11q125 0 172.5 -47t47.5 -170v-102q0 -61 16.5 -80.5t77.5 -19.5v-128q-61 0 -77.5 -19.5t-16.5 -80.5v-96q0 -123 -47.5 -170t-172.5 -47h-11z
" />
    <glyph glyph-name="anglebracketleft.cap" unicode="&#xe497;" horiz-adv-x="393" 
d="M237 -120l-227 480l227 480h147l-228 -480l228 -480h-147z" />
    <glyph glyph-name="anglebracketright.cap" unicode="&#xe498;" horiz-adv-x="393" 
d="M157 -120h-147l228 480l-228 480h147l227 -480z" />
    <glyph glyph-name="parenleft.smcp" unicode="&#xe499;" horiz-adv-x="321" 
d="M250 -130q-230 155 -230 425q0 137 56.5 236.5t164.5 177.5l82 -110q-74 -50 -117.5 -127.5t-43.5 -176.5q0 -202 164 -301z" />
    <glyph glyph-name="parenleft.smcp" unicode="&#xf618;" horiz-adv-x="321" 
d="M250 -130q-230 155 -230 425q0 137 56.5 236.5t164.5 177.5l82 -110q-74 -50 -117.5 -127.5t-43.5 -176.5q0 -202 164 -301z" />
    <glyph glyph-name="parenright.smcp" unicode="&#xe49a;" horiz-adv-x="321" 
d="M71 -130l-76 124q164 99 164 301q0 99 -43.5 176.5t-117.5 127.5l82 110q108 -78 164.5 -177.5t56.5 -236.5q0 -270 -230 -425z" />
    <glyph glyph-name="parenright.smcp" unicode="&#xf619;" horiz-adv-x="321" 
d="M71 -130l-76 124q164 99 164 301q0 99 -43.5 176.5t-117.5 127.5l82 110q108 -78 164.5 -177.5t56.5 -236.5q0 -270 -230 -425z" />
    <glyph glyph-name="bracketleft.smcp" unicode="&#xe49b;" horiz-adv-x="309" 
d="M35 -98v784h239v-128h-105v-528h105v-128h-239z" />
    <glyph glyph-name="bracketleft.smcp" unicode="&#xf60e;" horiz-adv-x="309" 
d="M35 -98v784h239v-128h-105v-528h105v-128h-239z" />
    <glyph glyph-name="bracketright.smcp" unicode="&#xe49c;" horiz-adv-x="309" 
d="M35 -98v128h105v528h-105v128h239v-784h-239z" />
    <glyph glyph-name="bracketright.smcp" unicode="&#xf60f;" horiz-adv-x="309" 
d="M35 -98v128h105v528h-105v128h239v-784h-239z" />
    <glyph glyph-name="braceleft.smcp" unicode="&#xe49d;" horiz-adv-x="334" 
d="M288 -98q-106 0 -144.5 37.5t-38.5 139.5v70q0 51 -12 65.5t-58 14.5v124q46 0 58 14.5t12 65.5v76q0 101 39 139t144 38h11v-124q-40 0 -51.5 -11t-11.5 -47v-72q0 -58 -12 -91t-43 -50q31 -17 43 -50.5t12 -90.5v-67q0 -36 11.5 -47t51.5 -11v-123h-11z" />
    <glyph glyph-name="braceleft.smcp" unicode="&#xf60c;" horiz-adv-x="334" 
d="M288 -98q-106 0 -144.5 37.5t-38.5 139.5v70q0 51 -12 65.5t-58 14.5v124q46 0 58 14.5t12 65.5v76q0 101 39 139t144 38h11v-124q-40 0 -51.5 -11t-11.5 -47v-72q0 -58 -12 -91t-43 -50q31 -17 43 -50.5t12 -90.5v-67q0 -36 11.5 -47t51.5 -11v-123h-11z" />
    <glyph glyph-name="braceright.smcp" unicode="&#xe49e;" horiz-adv-x="335" 
d="M35 -98v123q38 0 50 10t12 45v70q0 57 12 90.5t43 50.5q-31 17 -43 50t-12 91v76q0 34 -12 44t-50 10v124h11q105 0 144 -38t39 -139v-76q0 -51 12 -65.5t59 -14.5v-124q-47 0 -59 -14.5t-12 -65.5v-70q0 -102 -38.5 -139.5t-144.5 -37.5h-11z" />
    <glyph glyph-name="braceright.smcp" unicode="&#xf60d;" horiz-adv-x="335" 
d="M35 -98v123q38 0 50 10t12 45v70q0 57 12 90.5t43 50.5q-31 17 -43 50t-12 91v76q0 34 -12 44t-50 10v124h11q105 0 144 -38t39 -139v-76q0 -51 12 -65.5t59 -14.5v-124q-47 0 -59 -14.5t-12 -65.5v-70q0 -102 -38.5 -139.5t-144.5 -37.5h-11z" />
    <glyph glyph-name="anglebracketleft.smcp" unicode="&#xe49f;" horiz-adv-x="343" 
d="M337 -98h-142l-185 391l186 393h142l-187 -393z" />
    <glyph glyph-name="a.alt" unicode="&#xe4c0;" horiz-adv-x="514" 
d="M189 -10q-80 0 -124.5 38t-44.5 101q0 121 158 164q16 4 47 11.5t46.5 12t34.5 12t27 15.5t8 19q0 40 -74 40q-54 0 -80 -23.5t-26 -58.5v-3h-124v2q0 90 59 140t165 50q97 0 157.5 -40t60.5 -122v-348h-132v54q-66 -64 -158 -64zM201 103q56 0 101 39.5t45 72.5v25
q-5 -16 -104 -41q-50 -11 -71.5 -25t-21.5 -36q0 -35 51 -35z" />
    <glyph glyph-name="g.alt" unicode="&#xe4c6;" horiz-adv-x="521" 
d="M259 -255q-122 0 -179 37.5t-57 92.5q0 60 51 87q-56 30 -56 103q0 33 21 58.5t56 39.5q-65 55 -65 144q0 85 59.5 144.5t143.5 59.5q57 0 101.5 -26t68.5 -71q6 45 27.5 65.5t64.5 20.5h9v-151h-12q-37 0 -45 -7q-9 -8 -9 -35q0 -87 -55 -146.5t-139 -59.5h-79
q-39 0 -39 -21q0 -22 35 -22h171q87 0 134 -38t47 -105q0 -76 -66 -123t-188 -47zM233 224q34 0 58 24t24 59q0 34 -24 58.5t-58 24.5q-33 0 -56.5 -24.5t-23.5 -58.5t23.5 -58.5t56.5 -24.5zM325 -57h-119q-64 1 -64 -37q0 -11 4 -18.5t25 -14t60 -6.5h62q98 0 98 44
q0 32 -66 32z" />
    <glyph glyph-name="lowline" unicode="&#xe511;" horiz-adv-x="440" 
d="M35 -217v117h370v-117h-370z" />
    <glyph glyph-name="underscoremonospace" unicode="&#xe512;" horiz-adv-x="568" 
d="M35 -127v117h498v-117h-498z" />
    <glyph glyph-name="underscoremonospace" unicode="&#xff3f;" horiz-adv-x="568" 
d="M35 -127v117h498v-117h-498z" />
    <glyph glyph-name="at.cap" unicode="&#xe513;" horiz-adv-x="786" 
d="M393 -10q-155 0 -264 109.5t-109 265.5q0 155 109 265t264 110q83 0 154.5 -29t118.5 -76.5t73.5 -107.5t26.5 -124q0 -88 -47.5 -149.5t-124.5 -61.5q-81 0 -121 55q-41 -54 -125 -54q-65 0 -113.5 49t-40.5 131q9 85 64 132.5t115 47.5q62 0 96 -37l4 31h109l-19 -181
q-8 -66 40 -66q23 0 38.5 29t15.5 74q0 90 -73.5 160t-190.5 70q-111 0 -188 -78.5t-77 -190.5q0 -111 77 -189.5t188 -78.5q117 0 197 88l83 -68q-52 -59 -125 -92.5t-155 -33.5zM373 296q33 0 57 23t27 57q4 33 -15 56t-52 23q-34 0 -59.5 -23t-26.5 -56q-4 -34 16 -57
t53 -23z" />
    <glyph glyph-name="Euro.LP" unicode="&#xe521;" horiz-adv-x="808" 
d="M35 405v113h95q43 102 136.5 162t212.5 60q100 0 182 -44t135 -120l-110 -87q-27 55 -83 85.5t-126 30.5q-121 0 -186 -87h291l-31 -113h-303q-5 -22 -5 -40t5 -40h281l-30 -113h-207q65 -86 181 -86q153 0 211 135l124 -68q-111 -203 -328 -203q-121 0 -213.5 60.5
t-135.5 161.5h-96v113h68q-2 13 -2 40t2 40h-68z" />
    </font>
</defs>
</svg>
