<?xml version="1.0" standalone="no"?>
<!DOCTYPE svg PUBLIC "-//W3C//DTD SVG 1.1//EN" "http://www.w3.org/Graphics/SVG/1.1/DTD/svg11.dtd" >
<svg xmlns="http://www.w3.org/2000/svg" xmlns:xlink="http://www.w3.org/1999/xlink" version="1.1">
<metadata>
Created by FontForge 20200427 at Tue Dec 10 21:43:20 2019
 By www
Copyright Saudi Telecom Company
</metadata>
<defs>
<font id="STCForward-Regular" horiz-adv-x="0" >
  <font-face 
    font-family="STC Forward"
    font-weight="400"
    font-stretch="normal"
    units-per-em="1000"
    panose-1="0 0 5 0 0 0 0 0 0 0"
    ascent="800"
    descent="-200"
    x-height="510"
    cap-height="750"
    bbox="-380 -425 1312 999"
    underline-thickness="50"
    underline-position="-100"
    unicode-range="U+0020-FEFC"
  />
<missing-glyph horiz-adv-x="863" 
d="M60 750h743v-750h-743v750zM731 69v612h-598v-612h598zM428 326l-110 -110l-42 44l109 109l-109 109l42 43l110 -109l109 108l43 -42l-109 -109l109 -109l-43 -43z" />
    <glyph glyph-name="fi" unicode="fi" horiz-adv-x="676" 
d="M34 429v81h100v102q0 65 39 101.5t113 36.5h144v-80h-138q-32 0 -50 -16.5t-18 -51.5v-92h130v-81h-130v-429h-90v429h-100zM511 616v134h90v-134h-90zM511 429h-97v81h187v-510h-90v429z" />
    <glyph glyph-name="fl" unicode="fl" horiz-adv-x="713" 
d="M34 429v81h100v102q0 65 39 101.5t113 36.5h144v-80h-138q-32 0 -50 -16.5t-18 -51.5v-92h155v-81h-155v-429h-90v429h-100zM524.5 32.5q-33.5 32.5 -33.5 89.5v628h90v-620q0 -25 13 -37.5t35 -12.5h56v-80h-64q-63 0 -96.5 32.5z" />
    <glyph glyph-name="uniFEF5" unicode="&#xfedf;&#xfe82;" horiz-adv-x="656" arabic-form="isolated" 
d="M579 705v-518q0 -68 -18 -108.5t-58.5 -59.5t-109.5 -19h-361v93h196v423h80v-423h85q42 0 63.5 6t32 25.5t10.5 59.5v521h80zM359.5 596q-19.5 -8 -39.5 -8q-14 0 -30 4t-30 9q-27 11 -43 11q-29 0 -61 -20l-18 45q13 10 34 18t42 8q13 0 23.5 -3t24.5 -9q15 -6 26 -9
t25 -3q17 0 31 4.5t30 14.5l15 -45q-10 -9 -29.5 -17z" />
    <glyph glyph-name="uniFEF6" unicode="&#xfee0;&#xfe82;" horiz-adv-x="682" arabic-form="final" 
d="M699 83v-73l-17 -10q-102 0 -133 57q-21 -29 -59 -43t-97 -14h-361v93h196v423h80v-423h85q42 0 63.5 6t32 25.5t10.5 59.5v521h80v-518q0 -19 -1 -28q2 -42 25 -54t79 -12zM359.5 596q-19.5 -8 -39.5 -8q-14 0 -30 4t-30 9q-27 11 -43 11q-29 0 -61 -20l-18 45
q13 10 34 18t42 8q13 0 23.5 -3t24.5 -9q15 -6 26 -9t25 -3q17 0 31 4.5t30 14.5l15 -45q-10 -9 -29.5 -17z" />
    <glyph glyph-name="uniFEF7" unicode="&#xfedf;&#xfe84;" horiz-adv-x="656" arabic-form="isolated" 
d="M579 705v-518q0 -68 -18 -108.5t-58.5 -59.5t-109.5 -19h-361v93h196v423h80v-423h85q42 0 63.5 6t32 25.5t10.5 59.5v521h80zM350 649v-51h-177v48h31q-16 18 -16 49q0 39 26.5 60.5t64.5 21.5q33 0 61 -13l-11 -43q-25 6 -50 6q-21 0 -34.5 -9.5t-13.5 -28.5
q0 -21 9 -30.5t33 -9.5h77z" />
    <glyph glyph-name="uniFEF8" unicode="&#xfee0;&#xfe84;" horiz-adv-x="682" arabic-form="final" 
d="M699 83v-73l-17 -10q-102 0 -133 57q-21 -29 -59 -43t-97 -14h-361v93h196v423h80v-423h85q42 0 63.5 6t32 25.5t10.5 59.5v521h80v-518q0 -19 -1 -28q2 -42 25 -54t79 -12zM350 649v-51h-177v48h31q-16 18 -16 49q0 39 26.5 60.5t64.5 21.5q33 0 61 -13l-11 -43
q-25 6 -50 6q-21 0 -34.5 -9.5t-13.5 -28.5q0 -21 9 -30.5t33 -9.5h77z" />
    <glyph glyph-name="uniFEF9" unicode="&#xfedf;&#xfe88;" horiz-adv-x="656" arabic-form="isolated" 
d="M579 705v-518q0 -68 -18 -108.5t-58.5 -59.5t-109.5 -19h-361v93h196v423h80v-423h85q42 0 63.5 6t32 25.5t10.5 59.5v521h80zM327 -189v-51h-177v48h31q-16 18 -16 49q0 39 26.5 60.5t64.5 21.5q33 0 61 -13l-11 -43q-25 6 -50 6q-21 0 -34.5 -9.5t-13.5 -28.5
q0 -21 9 -30.5t33 -9.5h77z" />
    <glyph glyph-name="uniFEFA" unicode="&#xfee0;&#xfe88;" horiz-adv-x="682" arabic-form="final" 
d="M699 83v-73l-17 -10q-102 0 -133 57q-21 -29 -59 -43t-97 -14h-361v93h196v423h80v-423h85q42 0 63.5 6t32 25.5t10.5 59.5v521h80v-518q0 -19 -1 -28q2 -42 25 -54t79 -12zM328 -189v-51h-177v48h31q-16 18 -16 49q0 39 26.5 60.5t64.5 21.5q33 0 61 -13l-11 -43
q-25 6 -50 6q-21 0 -34.5 -9.5t-13.5 -28.5q0 -21 9 -30.5t33 -9.5h77z" />
    <glyph glyph-name="uniFEFB" unicode="&#xfedf;&#xfe8e;" horiz-adv-x="656" arabic-form="isolated" 
d="M579 705v-518q0 -68 -18 -108.5t-58.5 -59.5t-109.5 -19h-361v93h196v423h80v-423h85q42 0 63.5 6t32 25.5t10.5 59.5v521h80z" />
    <glyph glyph-name="uniFEFC" unicode="&#xfee0;&#xfe8e;" horiz-adv-x="682" arabic-form="final" 
d="M699 83v-73l-17 -10q-102 0 -133 57q-21 -29 -59 -43t-97 -14h-361v93h196v423h80v-423h85q42 0 63.5 6t32 25.5t10.5 59.5v521h80v-518q0 -19 -1 -28q2 -42 25 -54t79 -12z" />
    <glyph glyph-name="f_b" unicode="fb" horiz-adv-x="1016" 
d="M34 429v81h100v102q0 65 39 101.5t113 36.5h144v-80h-138q-32 0 -50 -16.5t-18 -51.5v-92h155v-81h-155v-429h-90v429h-100zM849.5 489q54.5 -34 85.5 -95t31 -139q0 -79 -31 -140t-85.5 -95t-122.5 -34q-56 0 -99 22t-71 64v-72h-88v750h88v-312q60 85 170 85
q68 0 122.5 -34zM829.5 119q44.5 50 44.5 136q0 84 -44.5 134.5t-114.5 50.5q-57 0 -96.5 -28.5t-61.5 -79.5v-155q21 -50 61.5 -79t96.5 -29q70 0 114.5 50z" />
    <glyph glyph-name="f_f" unicode="ff" horiz-adv-x="752" 
d="M34 429v81h100v102q0 65 39 101.5t113 36.5h144v-80h-138q-32 0 -50 -16.5t-18 -51.5v-92h110v-81h-110v-429h-90v429h-100zM381 429v81h98v102q0 65 39 101.5t113 36.5h145v-80h-139q-32 0 -50 -16.5t-18 -51.5v-92h155v-81h-155v-429h-90v429h-98z" />
    <glyph glyph-name="f_f_b" unicode="ffb" horiz-adv-x="1362" 
d="M224 510h104v-81h-104v-429h-90v429h-100v81h100v102q0 65 39 101.5t113 36.5h144v-80h-138q-32 0 -50 -16.5t-18 -51.5v-92zM518 713.5q39 36.5 113 36.5h145v-80h-139q-32 0 -50 -16.5t-18 -51.5v-92h155v-81h-155v-429h-90v429h-100v81h100v102q0 65 39 101.5z
M1195.5 489q54.5 -34 85.5 -95t31 -139q0 -79 -31 -140t-85.5 -95t-122.5 -34q-112 0 -170 85v-71h-89v750h89v-311q60 84 170 84q68 0 122.5 -34zM1175.5 119q44.5 50 44.5 136q0 84 -44.5 134.5t-115.5 50.5q-56 0 -95.5 -28t-61.5 -77v-160q22 -49 61.5 -77.5t95.5 -28.5
q71 0 115.5 50z" />
    <glyph glyph-name="f_f_h" unicode="ffh" horiz-adv-x="1353" 
d="M224 510h104v-81h-104v-429h-90v429h-100v81h100v102q0 65 39 101.5t113 36.5h144v-80h-138q-32 0 -50 -16.5t-18 -51.5v-92zM518 713.5q39 36.5 113 36.5h145v-80h-139q-32 0 -50 -16.5t-18 -51.5v-92h155v-81h-155v-429h-90v429h-100v81h100v102q0 65 39 101.5z
M1231 467.5q53 -55.5 53 -148.5v-319h-91v299q0 64 -33 102.5t-96 38.5q-49 0 -94 -28.5t-65 -71.5v-340h-91v750h91v-316q32 42 79.5 65.5t103.5 23.5q90 0 143 -55.5z" />
    <glyph glyph-name="f_f_i" unicode="ffi" horiz-adv-x="1022" 
d="M34 429v81h100v102q0 65 39 101.5t113 36.5h144v-80h-138q-32 0 -50 -16.5t-18 -51.5v-92h110v-81h-110v-429h-90v429h-100zM381 429v81h98v102q0 65 39 101.5t113 36.5h145v-80h-139q-32 0 -50 -16.5t-18 -51.5v-92h155v-81h-155v-429h-90v429h-98zM856 616v134h90v-134
h-90zM856 429h-86v81h176v-510h-90v429z" />
    <glyph glyph-name="f_f_j" unicode="ffj" horiz-adv-x="1023" 
d="M34 429v81h100v102q0 65 39 101.5t113 36.5h144v-80h-138q-32 0 -50 -16.5t-18 -51.5v-92h105v-81h-105v-429h-90v429h-100zM379 429v81h100v102q0 65 39 101.5t113 36.5h145v-80h-139q-32 0 -50 -16.5t-18 -51.5v-92h109v-81h-109v-429h-90v429h-100zM857 616v134h90
v-134h-90zM804 -120q24 0 38.5 14t14.5 42v493h-133v81h223v-584q0 -60 -35 -93t-102 -33h-147v80h141z" />
    <glyph glyph-name="f_f_k" unicode="ffk" horiz-adv-x="1272" 
d="M224 510h107v-81h-107v-429h-90v429h-100v81h100v102q0 65 39 101.5t113 36.5h144v-80h-138q-32 0 -50 -16.5t-18 -51.5v-92zM518 713.5q39 36.5 113 36.5h145v-80h-139q-32 0 -50 -16.5t-18 -51.5v-92h155v-81h-155v-429h-90v429h-100v81h100v102q0 65 39 101.5zM1144 0
l-173 231h-66v-231h-91v750h91v-445h66l166 205h106l-195 -238l205 -272h-109z" />
    <glyph glyph-name="f_f_l" unicode="ffl" horiz-adv-x="1058" 
d="M34 429v81h100v102q0 65 39 101.5t113 36.5h144v-80h-138q-32 0 -50 -16.5t-18 -51.5v-92h110v-81h-110v-429h-90v429h-100zM381 429v81h98v102q0 65 39 101.5t113 36.5h145v-80h-139q-32 0 -50 -16.5t-18 -51.5v-92h155v-81h-155v-429h-90v429h-98zM869.5 32.5
q-33.5 32.5 -33.5 89.5v628h90v-620q0 -25 13 -37.5t35 -12.5h56v-80h-64q-63 0 -96.5 32.5z" />
    <glyph glyph-name="f_h" unicode="fh" horiz-adv-x="1008" 
d="M34 429v81h100v102q0 65 39 101.5t113 36.5h144v-80h-138q-32 0 -50 -16.5t-18 -51.5v-92h155v-81h-155v-429h-90v429h-100zM885.5 467.5q52.5 -55.5 52.5 -148.5v-319h-90v299q0 64 -33.5 102.5t-96.5 38.5q-49 0 -94 -28.5t-65 -71.5v-340h-90v750h90v-317q31 42 79 66
t104 24q91 0 143.5 -55.5z" />
    <glyph glyph-name="f_idieresis" unicode="f&#xef;" horiz-adv-x="676" 
d="M224 510h110v-81h-110v-429h-90v429h-100v81h100v102q0 65 39 101.5t113 36.5h177v-134h-74v54h-97q-32 0 -50 -16.5t-18 -51.5v-92zM532 750h74v-134h-74v134zM379 429v81h222v-510h-90v429h-132z" />
    <glyph glyph-name="f_j" unicode="fj" horiz-adv-x="678" 
d="M34 429v81h100v102q0 65 39 101.5t113 36.5h144v-80h-138q-32 0 -50 -16.5t-18 -51.5v-92h109v-81h-109v-429h-90v429h-100zM512 616v134h90v-134h-90zM459 -120q24 0 38.5 14t14.5 42v493h-133v81h223v-584q0 -60 -35 -93t-102 -33h-147v80h141z" />
    <glyph glyph-name="f_k" unicode="fk" horiz-adv-x="927" 
d="M34 429v81h100v102q0 65 39 101.5t113 36.5h144v-80h-138q-32 0 -50 -16.5t-18 -51.5v-92h155v-81h-155v-429h-90v429h-100zM799 0l-173 231h-67v-231h-90v750h90v-445h66l167 205h106l-196 -238l205 -272h-108z" />
    <glyph glyph-name="uniFEDFFB51" unicode="&#xfedf;&#xfb51;" horiz-adv-x="656" 
d="M579 705v-518q0 -68 -18 -108.5t-58.5 -59.5t-109.5 -19h-361v93h196v423h80v-423h85q42 0 63.5 6t32 25.5t10.5 59.5v521h80z" />
    <glyph glyph-name="uniFEE0FB51" unicode="&#xfee0;&#xfb51;" horiz-adv-x="682" 
d="M699 83v-73l-17 -10q-102 0 -133 57q-21 -29 -59 -43t-97 -14h-361v93h196v423h80v-423h85q42 0 63.5 6t32 25.5t10.5 59.5v521h80v-518q0 -19 -1 -28q2 -42 25 -54t79 -12z" />
    <glyph glyph-name="uni066E.init" unicode="&#x66e;" horiz-adv-x="265" 
d="M-17 83l17 10q46 0 72.5 6t40 24.5t13.5 55.5v217h79v-217q0 -96 -47.5 -137.5t-157.5 -41.5l-17 10v73z" />
    <glyph glyph-name="uni066E.medi" unicode="&#x66e;" horiz-adv-x="330" 
d="M347 83v-73l-17 -10q-65 0 -101.5 15.5t-52.5 49.5q-22 -34 -64.5 -49.5t-111.5 -15.5l-17 10v73l17 10q47 0 73 5.5t39.5 24t13.5 54.5v219h79v-217q0 -39 13.5 -57.5t38.5 -23.5t73 -5z" />
    <glyph glyph-name="uni066E.fina" unicode="&#x66e;" horiz-adv-x="955" 
d="M972 83v-73l-17 -10q-68 0 -106 16t-55 50q-22 -34 -64.5 -50t-111.5 -16h-325q-102 0 -158 26t-77 74t-21 121q0 37 9 78t21 72h76q-10 -28 -18.5 -70t-8.5 -70q0 -52 17.5 -82t56 -43t103.5 -13h325q47 0 72.5 5.5t39 24t13.5 54.5v219h79v-217q0 -39 14.5 -57.5
t41 -23.5t77.5 -5z" />
    <glyph glyph-name="uni066F.fina" unicode="&#x66f;" horiz-adv-x="826" 
d="M843 83v-73l-17 -10h-103v-16q0 -106 -57.5 -156.5t-190.5 -50.5h-145q-117 0 -181 30t-88 88t-24 153q0 52 10.5 102.5t22.5 81.5h79q-12 -35 -20.5 -83t-8.5 -94q0 -64 16.5 -103.5t62.5 -60.5t131 -21h148q62 0 97.5 10t52 35t16.5 71v14h-122q-112 0 -159 54t-47 140
q0 66 28.5 116t81.5 78t123 28q50 0 95.5 -12.5t78.5 -30.5v-280h103zM644 93v208q-18 9 -45 15t-58 6q-70 0 -106 -32.5t-36 -86.5q0 -49 31.5 -79.5t96.5 -30.5h117z" />
    <glyph glyph-name="uni06A1.init" unicode="&#x6a1;" horiz-adv-x="487" 
d="M427 171q0 -87 -41 -129t-137 -42h-249l-17 10v73l17 10h250q54 0 75.5 15.5t21.5 57.5v64q-40 -56 -136 -56q-90 0 -135 51.5t-45 127.5q0 63 28 111.5t79 75.5t118 27q48 0 93 -13.5t77 -33.5zM347 307v142q-18 10 -44 17t-55 7q-66 0 -100 -29.5t-34 -79.5
q0 -43 29 -70t86 -27q85 0 118 40z" />
    <glyph glyph-name="uni06A1.medi" unicode="&#x6a1;" horiz-adv-x="531" 
d="M548 88v-83l-17 -5h-531l-17 5v83l17 5h134q-66 58 -66 141q0 101 55 156t146 55q90 0 141 -53.5t51 -148.5q0 -87 -70 -150h140zM182 322q-31 -30 -31 -84q0 -36 25 -69t91 -76q65 42 88 75.5t23 69.5q0 54 -31 84t-83 30q-51 0 -82 -30z" />
    <glyph glyph-name="uni06A1.fina" unicode="&#x6a1;" horiz-adv-x="979" 
d="M996 88v-83l-17 -5h-689q-99 0 -154.5 29t-77 80.5t-21.5 129.5q0 38 8.5 81t20.5 76l79 1q-10 -29 -18 -73t-8 -75q0 -60 17 -93.5t54 -48t100 -14.5h281q-66 59 -66 141q0 100 55 155.5t146 55.5q90 0 141 -53.5t51 -148.5q0 -87 -70 -150h151zM619 322
q-31 -30 -31 -84q0 -35 25 -68.5t91 -76.5q65 42 88 75t23 70q0 54 -31 84t-83 30q-51 0 -82 -30z" />
    <glyph glyph-name="uniFB51" unicode="&#x671;" horiz-adv-x="277" arabic-form="final" 
d="M150.5 18.5q-38.5 18.5 -55.5 59t-17 110.5v425h79v-425q0 -43 10 -62.5t34 -26t76 -6.5l17 -10v-73l-17 -10h-23q-65 0 -103.5 18.5z" />
    <glyph glyph-name="uniFB6B" unicode="&#x6a4;" horiz-adv-x="979" arabic-form="final" 
d="M996 88v-83l-17 -5h-689q-99 0 -154.5 29t-77 80.5t-21.5 129.5q0 38 8.5 81t20.5 76l79 1q-10 -29 -18 -73t-8 -75q0 -60 17 -93.5t54 -48t100 -14.5h281q-66 59 -66 141q0 100 55 155.5t146 55.5q90 0 141 -53.5t51 -148.5q0 -87 -70 -150h151zM619 322
q-31 -30 -31 -84q0 -35 25 -68.5t91 -76.5q65 42 88 75t23 70q0 54 -31 84t-83 30q-51 0 -82 -30zM670 794h79v-103h-79v103zM605 655h76v-106h-76v106zM736 655h76v-106h-76v106z" />
    <glyph glyph-name="uniFB6C" unicode="&#x6a4;" horiz-adv-x="487" arabic-form="initial" 
d="M427 171q0 -87 -41 -129t-137 -42h-249l-17 10v73l17 10h250q54 0 75.5 15.5t21.5 57.5v64q-40 -56 -136 -56q-90 0 -135 51.5t-45 127.5q0 63 28 111.5t79 75.5t118 27q48 0 93 -13.5t77 -33.5zM347 307v142q-18 10 -44 17t-55 7q-66 0 -100 -29.5t-34 -79.5
q0 -43 29 -70t86 -27q85 0 118 40zM220 903h79v-103h-79v103zM155 764h76v-106h-76v106zM286 764h76v-106h-76v106z" />
    <glyph glyph-name="uniFB6D" unicode="&#x6a4;" horiz-adv-x="531" arabic-form="medial" 
d="M548 88v-83l-17 -5h-531l-17 5v83l17 5h134q-66 58 -66 141q0 101 55 156t146 55q90 0 141 -53.5t51 -148.5q0 -87 -70 -150h140zM182 322q-31 -30 -31 -84q0 -36 25 -69t91 -76q65 42 88 75.5t23 69.5q0 54 -31 84t-83 30q-51 0 -82 -30zM233 794h79v-103h-79v103z
M168 655h76v-106h-76v106zM299 655h76v-106h-76v106z" />
    <glyph glyph-name="uniFB8F" unicode="&#x6a9;" horiz-adv-x="884" arabic-form="final" 
d="M901 83v-73l-17 -10q-57 0 -90 16.5t-47 49.5q-51 -66 -182 -66h-274q-102 0 -157.5 26t-76 73.5t-20.5 121.5q0 37 9 78t21 72h76q-10 -28 -18.5 -70t-8.5 -70q0 -52 17.5 -82t56 -43t103.5 -13h281q61 0 94 17t33 68v527h79v-538q0 -32 11 -48t32.5 -21t60.5 -5z
M499.5 306.5q-26.5 -23.5 -78.5 -23.5h-111v63h111q22 0 36 6t14 19q0 19 -29.5 34t-112.5 15l-5 80l181 90l12 -57l-126 -61q62 -4 98.5 -27.5t36.5 -71.5q0 -43 -26.5 -66.5z" />
    <glyph glyph-name="uniFB90" unicode="&#x6a9;" horiz-adv-x="600" arabic-form="initial" 
d="M492 343q54 -57 54 -160v-90q0 -49 -20.5 -71t-62.5 -22h-463l-17 4v85l17 4h464v90q0 65 -37.5 99t-137.5 34h-226l-24 92l384 310l47 -71l-317 -247h140q145 0 199 -57z" />
    <glyph glyph-name="uniFB91" unicode="&#x6a9;" horiz-adv-x="647" arabic-form="medial" 
d="M664 83v-73l-17 -10q-78 0 -114 33q-19 -33 -70 -33h-463l-17 4v85l17 4h464v90q0 65 -37.5 99t-137.5 34h-226l-24 92l384 310l47 -71l-317 -247h140q145 0 199 -57t54 -160v-45q7 -28 29.5 -36.5t71.5 -8.5z" />
    <glyph glyph-name="uniFB9F" unicode="&#x6ba;" horiz-adv-x="712" arabic-form="final" 
d="M729 83v-73l-17 -10q-68 0 -104 25q-6 -108 -75 -172t-215 -64q-152 0 -216.5 76.5t-64.5 199.5q0 54 11 110t25 87h80q-11 -33 -22 -84t-11 -106q0 -88 45.5 -139t158.5 -51t158.5 42t45.5 120v350h80v-227q0 -32 11 -48t32.5 -21t60.5 -5z" />
    <glyph glyph-name="uniFBFD" unicode="&#x6cc;" horiz-adv-x="742" arabic-form="final" 
d="M759 83v-73l-17 -10h-47v-19q0 -219 -318 -219q-131 0 -205.5 34t-104.5 97.5t-30 160.5q0 55 9 112t22 87h79q-9 -30 -18 -81.5t-9 -107.5q0 -82 25 -126.5t81.5 -63.5t155.5 -19q93 0 143.5 15t69 41t18.5 62v27h-175v93h304zM279 -317h77v-106h-77v106zM408 -317h76
v-106h-76v106z" />
    <glyph glyph-name="uniFBFE" unicode="&#x6cc;" horiz-adv-x="265" arabic-form="initial" 
d="M-17 83l17 10q46 0 72.5 6t40 24.5t13.5 55.5v217h79v-217q0 -96 -47.5 -137.5t-157.5 -41.5l-17 10v73zM39 -92h77v-106h-77v106zM168 -92h76v-106h-76v106z" />
    <glyph glyph-name="uniFBFF" unicode="&#x6cc;" horiz-adv-x="330" arabic-form="medial" 
d="M347 83v-73l-17 -10q-65 0 -101.5 15.5t-52.5 49.5q-22 -34 -64.5 -49.5t-111.5 -15.5l-17 10v73l17 10q47 0 73 5.5t39.5 24t13.5 54.5v219h79v-217q0 -39 13.5 -57.5t38.5 -23.5t73 -5zM68 -92h77v-106h-77v106zM197 -92h76v-106h-76v106z" />
    <glyph glyph-name="uniFC31" unicode="&#xfc31;" horiz-adv-x="902" arabic-form="isolated" 
d="M808 49.5q-34 -41.5 -113 -48.5v-20q0 -219 -318 -219q-131 0 -205.5 34t-104.5 97.5t-30 160.5q0 55 9 112t22 87h79q-9 -30 -18 -81.5t-9 -107.5q0 -82 25 -126.5t81.5 -63.5t155.5 -19q93 0 143.5 15t69 41t18.5 62v27h-172v93h224q53 0 75 15.5t22 57.5v65
q-39 -57 -137 -57q-89 0 -134 51.5t-45 127.5q0 63 28 111.5t79 75.5t118 27q48 0 93 -13.5t77 -33.5l1 -349q0 -80 -34 -121.5zM762 307v142q-18 10 -44.5 17t-55.5 7q-66 0 -99.5 -29.5t-33.5 -79.5q0 -43 28.5 -70t85.5 -27q84 0 119 40zM632 766h79v-106h-79v106z" />
    <glyph glyph-name="uniFC32" unicode="&#xfc32;" horiz-adv-x="902" arabic-form="isolated" 
d="M808 49.5q-34 -41.5 -113 -48.5v-20q0 -219 -318 -219q-131 0 -205.5 34t-104.5 97.5t-30 160.5q0 55 9 112t22 87h79q-9 -30 -18 -81.5t-9 -107.5q0 -82 25 -126.5t81.5 -63.5t155.5 -19q93 0 143.5 15t69 41t18.5 62v27h-172v93h224q53 0 75 15.5t22 57.5v65
q-39 -57 -137 -57q-89 0 -134 51.5t-45 127.5q0 63 28 111.5t79 75.5t118 27q48 0 93 -13.5t77 -33.5l1 -349q0 -80 -34 -121.5zM762 307v142q-18 10 -44.5 17t-55.5 7q-66 0 -99.5 -29.5t-33.5 -79.5q0 -43 28.5 -70t85.5 -27q84 0 119 40zM632 766h79v-106h-79v106z
M280 -319h77v-106h-77v106zM409 -319h76v-106h-76v106z" />
    <glyph glyph-name="uniFC35" unicode="&#xfc35;" horiz-adv-x="902" arabic-form="isolated" 
d="M808 49.5q-34 -41.5 -113 -48.5v-20q0 -219 -318 -219q-131 0 -205.5 34t-104.5 97.5t-30 160.5q0 55 9 112t22 87h79q-9 -30 -18 -81.5t-9 -107.5q0 -82 25 -126.5t81.5 -63.5t155.5 -19q93 0 143.5 15t69 41t18.5 62v27h-172v93h224q53 0 75 15.5t22 57.5v65
q-39 -57 -137 -57q-89 0 -134 51.5t-45 127.5q0 63 28 111.5t79 75.5t118 27q48 0 93 -13.5t77 -33.5l1 -349q0 -80 -34 -121.5zM762 307v142q-18 10 -44.5 17t-55.5 7q-66 0 -99.5 -29.5t-33.5 -79.5q0 -43 28.5 -70t85.5 -27q84 0 119 40zM568 760h77v-106h-77v106z
M697 760h76v-106h-76v106z" />
    <glyph glyph-name="uniFC36" unicode="&#xfc36;" horiz-adv-x="902" arabic-form="isolated" 
d="M808 49.5q-34 -41.5 -113 -48.5v-20q0 -219 -318 -219q-131 0 -205.5 34t-104.5 97.5t-30 160.5q0 55 9 112t22 87h79q-9 -30 -18 -81.5t-9 -107.5q0 -82 25 -126.5t81.5 -63.5t155.5 -19q93 0 143.5 15t69 41t18.5 62v27h-172v93h224q53 0 75 15.5t22 57.5v65
q-39 -57 -137 -57q-89 0 -134 51.5t-45 127.5q0 63 28 111.5t79 75.5t118 27q48 0 93 -13.5t77 -33.5l1 -349q0 -80 -34 -121.5zM762 307v142q-18 10 -44.5 17t-55.5 7q-66 0 -99.5 -29.5t-33.5 -79.5q0 -43 28.5 -70t85.5 -27q84 0 119 40zM280 -319h77v-106h-77v106z
M409 -319h76v-106h-76v106zM568 760h77v-106h-77v106zM697 760h76v-106h-76v106z" />
    <glyph glyph-name="uniFE82" unicode="&#x622;" horiz-adv-x="277" arabic-form="final" 
d="M150.5 18.5q-38.5 18.5 -55.5 59t-17 110.5v425h79v-425q0 -43 10 -62.5t34 -26t76 -6.5l17 -10v-73l-17 -10h-23q-65 0 -103.5 18.5zM210.5 694q-19.5 -8 -39.5 -8q-14 0 -30 4t-30 9q-27 11 -43 11q-29 0 -61 -20l-18 45q13 10 34 18t42 8q13 0 23.5 -3t24.5 -9
q15 -6 26 -9t25 -3q17 0 31 4.5t30 14.5l15 -45q-10 -9 -29.5 -17z" />
    <glyph glyph-name="uniFE84" unicode="&#x623;" horiz-adv-x="277" arabic-form="final" 
d="M150.5 18.5q-38.5 18.5 -55.5 59t-17 110.5v425h79v-425q0 -43 10 -62.5t34 -26t76 -6.5l17 -10v-73l-17 -10h-23q-65 0 -103.5 18.5zM201 747v-51h-177v48h31q-16 18 -16 49q0 39 26.5 60.5t64.5 21.5q33 0 61 -13l-11 -43q-25 6 -50 6q-21 0 -34.5 -9.5t-13.5 -28.5
q0 -21 9 -30.5t33 -9.5h77z" />
    <glyph glyph-name="uniFE86" unicode="&#x624;" horiz-adv-x="549" arabic-form="final" 
d="M566 83v-73l-17 -10h-104v-32q0 -90 -42.5 -133.5t-140.5 -43.5h-190v93h192q57 0 79.5 19t22.5 70v27h-122q-206 0 -206 191q0 67 28.5 118t81.5 79t123 28q50 0 95.5 -12.5t78.5 -30.5v-280h104zM366 93v208q-18 9 -45 15t-58 6q-70 0 -106 -33t-36 -89q0 -48 31 -77.5
t97 -29.5h117zM342 550v-51h-177v48h31q-16 18 -16 49q0 39 26.5 60.5t64.5 21.5q33 0 61 -13l-11 -43q-25 6 -50 6q-21 0 -34.5 -9.5t-13.5 -28.5q0 -21 9 -30.5t33 -9.5h77z" />
    <glyph glyph-name="uniFE88" unicode="&#x625;" horiz-adv-x="277" arabic-form="final" 
d="M150.5 18.5q-38.5 18.5 -55.5 59t-17 110.5v517h79v-517q0 -43 10 -62.5t34 -26t76 -6.5l17 -10v-73l-17 -10h-23q-65 0 -103.5 18.5zM220 -189v-51h-177v48h31q-16 18 -16 49q0 39 26.5 60.5t64.5 21.5q33 0 61 -13l-11 -43q-25 6 -50 6q-21 0 -34.5 -9.5t-13.5 -28.5
q0 -21 9 -30.5t33 -9.5h77z" />
    <glyph glyph-name="uniFE8A" unicode="&#x626;" horiz-adv-x="742" arabic-form="final" 
d="M759 83v-73l-17 -10h-47v-19q0 -219 -318 -219q-131 0 -205.5 34t-104.5 97.5t-30 160.5q0 55 9 112t22 87h79q-9 -30 -18 -81.5t-9 -107.5q0 -82 25 -126.5t81.5 -63.5t155.5 -19q93 0 143.5 15t69 41t18.5 62v27h-175v93h304zM197 390v-51h-177v48h31q-16 18 -16 49
q0 39 26.5 60.5t64.5 21.5q33 0 61 -13l-11 -43q-25 6 -50 6q-21 0 -34.5 -9.5t-13.5 -28.5q0 -21 9 -30.5t33 -9.5h77z" />
    <glyph glyph-name="uniFE8B" unicode="&#x626;" horiz-adv-x="265" arabic-form="initial" 
d="M-17 83l17 10q46 0 72.5 6t40 24.5t13.5 55.5v217h79v-217q0 -96 -47.5 -137.5t-157.5 -41.5l-17 10v73zM250 530v-51h-177v48h31q-16 18 -16 49q0 39 26.5 60.5t64.5 21.5q33 0 61 -13l-11 -43q-25 6 -50 6q-21 0 -34.5 -9.5t-13.5 -28.5q0 -21 9 -30.5t33 -9.5h77z" />
    <glyph glyph-name="uniFE8C" unicode="&#x626;" horiz-adv-x="330" arabic-form="medial" 
d="M347 83v-73l-17 -10q-65 0 -101.5 15.5t-52.5 49.5q-22 -34 -64.5 -49.5t-111.5 -15.5l-17 10v73l17 10q47 0 73 5.5t39.5 24t13.5 54.5v219h79v-217q0 -39 13.5 -57.5t38.5 -23.5t73 -5zM250 530v-51h-177v48h31q-16 18 -16 49q0 39 26.5 60.5t64.5 21.5q33 0 61 -13
l-11 -43q-25 6 -50 6q-21 0 -34.5 -9.5t-13.5 -28.5q0 -21 9 -30.5t33 -9.5h77z" />
    <glyph glyph-name="uniFE8E" unicode="&#x627;" horiz-adv-x="277" arabic-form="final" 
d="M150.5 18.5q-38.5 18.5 -55.5 59t-17 110.5v517h79v-517q0 -43 10 -62.5t34 -26t76 -6.5l17 -10v-73l-17 -10h-23q-65 0 -103.5 18.5z" />
    <glyph glyph-name="uniFE90" unicode="&#x628;" horiz-adv-x="955" arabic-form="final" 
d="M972 83v-73l-17 -10q-68 0 -106 16t-55 50q-22 -34 -64.5 -50t-111.5 -16h-325q-102 0 -158 26t-77 74t-21 121q0 37 9 78t21 72h76q-10 -28 -18.5 -70t-8.5 -70q0 -52 17.5 -82t56 -43t103.5 -13h325q47 0 72.5 5.5t39 24t13.5 54.5v219h79v-217q0 -39 14.5 -57.5
t41 -23.5t77.5 -5zM385 -93h79v-106h-79v106z" />
    <glyph glyph-name="uniFE91" unicode="&#x628;" horiz-adv-x="265" arabic-form="initial" 
d="M-17 83l17 10q46 0 72.5 6t40 24.5t13.5 55.5v217h79v-217q0 -96 -47.5 -137.5t-157.5 -41.5l-17 10v73zM113 -95h79v-106h-79v106z" />
    <glyph glyph-name="uniFE92" unicode="&#x628;" horiz-adv-x="330" arabic-form="medial" 
d="M347 83v-73l-17 -10q-65 0 -101.5 15.5t-52.5 49.5q-22 -34 -64.5 -49.5t-111.5 -15.5l-17 10v73l17 10q47 0 73 5.5t39.5 24t13.5 54.5v219h79v-217q0 -39 13.5 -57.5t38.5 -23.5t73 -5zM126 -93h79v-106h-79v106z" />
    <glyph glyph-name="uniFE94" unicode="&#x629;" horiz-adv-x="560" arabic-form="final" 
d="M577 89v-85l-17 -4q-78 0 -124.5 25t-62.5 87q-17 -33 -51 -52.5t-94 -19.5q-96 0 -143.5 56t-47.5 141q0 67 29.5 119t84.5 80.5t128 28.5q45 0 86 -15v46h79l-1 -304q0 -40 10.5 -61t35.5 -29.5t71 -8.5zM365 178v8v175q-10 3 -33.5 7t-54.5 4q-79 0 -118 -33.5
t-39 -90.5q0 -51 32 -83t94 -32q87 0 119 45zM154 671h77v-106h-77v106zM283 671h76v-106h-76v106z" />
    <glyph glyph-name="uniFE96" unicode="&#x62a;" horiz-adv-x="955" arabic-form="final" 
d="M972 83v-73l-17 -10q-68 0 -106 16t-55 50q-22 -34 -64.5 -50t-111.5 -16h-325q-102 0 -158 26t-77 74t-21 121q0 37 9 78t21 72h76q-10 -28 -18.5 -70t-8.5 -70q0 -52 17.5 -82t56 -43t103.5 -13h325q47 0 72.5 5.5t39 24t13.5 54.5v219h79v-217q0 -39 14.5 -57.5
t41 -23.5t77.5 -5zM334 524h77v-106h-77v106zM463 524h76v-106h-76v106z" />
    <glyph glyph-name="uniFE97" unicode="&#x62a;" horiz-adv-x="265" arabic-form="initial" 
d="M-17 83l17 10q46 0 72.5 6t40 24.5t13.5 55.5v217h79v-217q0 -96 -47.5 -137.5t-157.5 -41.5l-17 10v73zM63 590h77v-106h-77v106zM192 590h76v-106h-76v106z" />
    <glyph glyph-name="uniFE98" unicode="&#x62a;" horiz-adv-x="330" arabic-form="medial" 
d="M347 83v-73l-17 -10q-65 0 -101.5 15.5t-52.5 49.5q-22 -34 -64.5 -49.5t-111.5 -15.5l-17 10v73l17 10q47 0 73 5.5t39.5 24t13.5 54.5v219h79v-217q0 -39 13.5 -57.5t38.5 -23.5t73 -5zM63 590h77v-106h-77v106zM192 590h76v-106h-76v106z" />
    <glyph glyph-name="uniFE9A" unicode="&#x62b;" horiz-adv-x="955" arabic-form="final" 
d="M972 83v-73l-17 -10q-68 0 -106 16t-55 50q-22 -34 -64.5 -50t-111.5 -16h-325q-102 0 -158 26t-77 74t-21 121q0 37 9 78t21 72h76q-10 -28 -18.5 -70t-8.5 -70q0 -52 17.5 -82t56 -43t103.5 -13h325q47 0 72.5 5.5t39 24t13.5 54.5v219h79v-217q0 -39 14.5 -57.5
t41 -23.5t77.5 -5zM401 666h79v-103h-79v103zM336 527h76v-106h-76v106zM467 527h76v-106h-76v106z" />
    <glyph glyph-name="uniFE9B" unicode="&#x62b;" horiz-adv-x="265" arabic-form="initial" 
d="M-17 83l17 10q46 0 72.5 6t40 24.5t13.5 55.5v217h79v-217q0 -96 -47.5 -137.5t-157.5 -41.5l-17 10v73zM130 732h79v-103h-79v103zM65 593h76v-106h-76v106zM196 593h76v-106h-76v106z" />
    <glyph glyph-name="uniFE9C" unicode="&#x62b;" horiz-adv-x="330" arabic-form="medial" 
d="M347 83v-73l-17 -10q-65 0 -101.5 15.5t-52.5 49.5q-22 -34 -64.5 -49.5t-111.5 -15.5l-17 10v73l17 10q47 0 73 5.5t39.5 24t13.5 54.5v219h79v-217q0 -39 13.5 -57.5t38.5 -23.5t73 -5zM130 732h79v-103h-79v103zM65 593h76v-106h-76v106zM196 593h76v-106h-76v106z
" />
    <glyph glyph-name="uniFE9E" unicode="&#x62c;" horiz-adv-x="691" arabic-form="final" 
d="M708 83v-73l-17 -10q-83 0 -121 33q-30 -33 -90 -33h-244q-65 0 -91 -26.5t-26 -69.5q0 -55 39.5 -88.5t142.5 -33.5h194v-93h-201q-134 0 -196.5 57t-62.5 152q0 81 47.5 138t156.5 57h241q37 0 37 32v86q0 64 -45.5 90t-115.5 26q-96 0 -185 -36l-22 80q44 21 94.5 35
t120.5 14q92 0 163.5 -41.5t71.5 -156.5v-95q0 -13 -1 -19q12 -10 32 -12.5t61 -2.5zM372 -166h-71v95h71v-95z" />
    <glyph glyph-name="uniFE9F" unicode="&#x62c;" horiz-adv-x="598" arabic-form="initial" 
d="M-17 89l17 4h449v99q0 75 -48 105t-121 30q-103 0 -207 -47l-23 79q109 61 238 61q96 0 169.5 -44t73.5 -167v-114q0 -95 -84 -95h-447l-17 4v85zM225 -93h79v-106h-79v106z" />
    <glyph glyph-name="uniFEA0" unicode="&#x62c;" horiz-adv-x="631" arabic-form="medial" 
d="M648 83v-73l-17 -10q-81 0 -117 29q-21 -29 -67 -29h-447l-17 4v85l17 4h449v99q0 75 -48 105t-121 30q-103 0 -207 -47l-23 79q109 61 238 61q96 0 169.5 -44t73.5 -167v-93q12 -16 33 -19.5t67 -3.5zM225 -93h79v-106h-79v106z" />
    <glyph glyph-name="uniFEA2" unicode="&#x62d;" horiz-adv-x="691" arabic-form="final" 
d="M708 83v-73l-17 -10q-83 0 -121 33q-30 -33 -90 -33h-244q-65 0 -91 -26.5t-26 -69.5q0 -55 39.5 -88.5t142.5 -33.5h194v-93h-201q-134 0 -196.5 57t-62.5 152q0 81 47.5 138t156.5 57h241q37 0 37 32v86q0 64 -45.5 90t-115.5 26q-96 0 -185 -36l-22 80q44 21 94.5 35
t120.5 14q92 0 163.5 -41.5t71.5 -156.5v-95q0 -13 -1 -19q12 -10 32 -12.5t61 -2.5z" />
    <glyph glyph-name="uniFEA3" unicode="&#x62d;" horiz-adv-x="598" arabic-form="initial" 
d="M-17 89l17 4h449v99q0 75 -48 105t-121 30q-103 0 -207 -47l-23 79q109 61 238 61q96 0 169.5 -44t73.5 -167v-114q0 -95 -84 -95h-447l-17 4v85z" />
    <glyph glyph-name="uniFEA4" unicode="&#x62d;" horiz-adv-x="631" arabic-form="medial" 
d="M648 83v-73l-17 -10q-81 0 -117 29q-21 -29 -67 -29h-447l-17 4v85l17 4h449v99q0 75 -48 105t-121 30q-103 0 -207 -47l-23 79q109 61 238 61q96 0 169.5 -44t73.5 -167v-93q12 -16 33 -19.5t67 -3.5z" />
    <glyph glyph-name="uniFEA6" unicode="&#x62e;" horiz-adv-x="691" arabic-form="final" 
d="M708 83v-73l-17 -10q-83 0 -121 33q-30 -33 -90 -33h-244q-65 0 -91 -26.5t-26 -69.5q0 -55 39.5 -88.5t142.5 -33.5h194v-93h-201q-134 0 -196.5 57t-62.5 152q0 81 47.5 138t156.5 57h241q37 0 37 32v86q0 64 -45.5 90t-115.5 26q-96 0 -185 -36l-22 80q44 21 94.5 35
t120.5 14q92 0 163.5 -41.5t71.5 -156.5v-95q0 -13 -1 -19q12 -10 32 -12.5t61 -2.5zM317 620h79v-106h-79v106z" />
    <glyph glyph-name="uniFEA7" unicode="&#x62e;" horiz-adv-x="598" arabic-form="initial" 
d="M-17 89l17 4h449v99q0 75 -48 105t-121 30q-103 0 -207 -47l-23 79q109 61 238 61q96 0 169.5 -44t73.5 -167v-114q0 -95 -84 -95h-447l-17 4v85zM252 619h79v-106h-79v106z" />
    <glyph glyph-name="uniFEA8" unicode="&#x62e;" horiz-adv-x="631" arabic-form="medial" 
d="M648 83v-73l-17 -10q-81 0 -117 29q-21 -29 -67 -29h-447l-17 4v85l17 4h449v99q0 75 -48 105t-121 30q-103 0 -207 -47l-23 79q109 61 238 61q96 0 169.5 -44t73.5 -167v-93q12 -16 33 -19.5t67 -3.5zM252 619h79v-106h-79v106z" />
    <glyph glyph-name="uniFEAA" unicode="&#x62f;" horiz-adv-x="592" arabic-form="final" 
d="M609 83v-73l-17 -10q-89 0 -123 42q-28 -42 -104 -42h-325v93h366v86q0 42 -20.5 70.5t-85.5 51.5t-195 40l14 89q152 -19 233 -53t109.5 -79.5t27.5 -110.5v-34q3 -37 26 -48.5t77 -11.5z" />
    <glyph glyph-name="uniFEAC" unicode="&#x630;" horiz-adv-x="592" arabic-form="final" 
d="M609 83v-73l-17 -10q-89 0 -123 42q-28 -42 -104 -42h-325v93h366v86q0 42 -20.5 70.5t-85.5 51.5t-195 40l14 89q152 -19 233 -53t109.5 -79.5t27.5 -110.5v-34q3 -37 26 -48.5t77 -11.5zM208 643h79v-106h-79v106z" />
    <glyph glyph-name="uniFEAE" unicode="&#x631;" horiz-adv-x="353" arabic-form="final" 
d="M370 83v-73l-17 -10q-70 0 -104 25v-73q0 -77 -35.5 -119t-122.5 -42h-97v93h95q46 0 63.5 14.5t17.5 51.5v446h79v-229q0 -32 11 -48t32.5 -21t60.5 -5z" />
    <glyph glyph-name="uniFEB0" unicode="&#x632;" horiz-adv-x="353" arabic-form="final" 
d="M370 83v-73l-17 -10q-70 0 -104 25v-73q0 -77 -35.5 -119t-122.5 -42h-97v93h95q46 0 63.5 14.5t17.5 51.5v446h79v-229q0 -32 11 -48t32.5 -21t60.5 -5zM170 595h79v-106h-79v106z" />
    <glyph glyph-name="uniFEB2" unicode="&#x633;" horiz-adv-x="1288" arabic-form="final" 
d="M1305 83v-73l-17 -10q-125 0 -163 60q-31 -60 -140 -60q-103 0 -135 54q-31 -54 -139 -54h-106q-13 -96 -82 -152t-205 -56q-152 0 -216.5 76.5t-64.5 199.5q0 54 11 110t25 87h80q-11 -33 -22 -84t-11 -106q0 -88 45.5 -139t158.5 -51t158.5 42t45.5 120v287h80v-241
h105q51 0 73 12t22 40v189h79v-211q26 -30 99 -30q51 0 73 13.5t22 45.5v243h79v-266q34 -36 128 -36z" />
    <glyph glyph-name="uniFEB3" unicode="&#x633;" horiz-adv-x="825" arabic-form="initial" 
d="M765 395v-244q-2 -76 -47.5 -113.5t-124.5 -37.5q-105 0 -140 51q-35 -51 -149 -51q-111 0 -143 54q-30 -54 -132 -54h-29l-17 10v73l17 10h32q47 0 67.5 12t20.5 40v189h79v-214q31 -27 106 -27q58 0 83 12t25 40v189h79v-210q27 -31 103 -31q45 0 66.5 13t23.5 45v244
h80z" />
    <glyph glyph-name="uniFEB4" unicode="&#x633;" horiz-adv-x="889" arabic-form="medial" 
d="M906 83v-73l-17 -10q-123 0 -160 59q-31 -59 -139 -59q-105 0 -134 54q-36 -54 -152 -54q-111 0 -143 54q-30 -54 -132 -54h-29l-17 10v73l17 10h32q47 0 67.5 12t20.5 40v189h79v-214q31 -27 106 -27q58 0 83 12t25 40v189h79v-211q26 -30 99 -30q51 0 72.5 13.5
t21.5 45.5v243h80v-267q33 -35 124 -35z" />
    <glyph glyph-name="uniFEB6" unicode="&#x634;" horiz-adv-x="1288" arabic-form="final" 
d="M1305 83v-73l-17 -10q-125 0 -163 60q-31 -60 -140 -60q-103 0 -135 54q-31 -54 -139 -54h-106q-13 -96 -82 -152t-205 -56q-152 0 -216.5 76.5t-64.5 199.5q0 54 11 110t25 87h80q-11 -33 -22 -84t-11 -106q0 -88 45.5 -139t158.5 -51t158.5 42t45.5 120v287h80v-241
h105q51 0 73 12t22 40v189h79v-211q26 -30 99 -30q51 0 73 13.5t22 45.5v243h79v-266q34 -36 128 -36zM812 689h79v-103h-79v103zM747 550h76v-106h-76v106zM878 550h76v-106h-76v106z" />
    <glyph glyph-name="uniFEB7" unicode="&#x634;" horiz-adv-x="825" arabic-form="initial" 
d="M765 395v-244q-2 -76 -47.5 -113.5t-124.5 -37.5q-105 0 -140 51q-35 -51 -149 -51q-111 0 -143 54q-30 -54 -132 -54h-29l-17 10v73l17 10h32q47 0 67.5 12t20.5 40v189h79v-214q31 -27 106 -27q58 0 83 12t25 40v189h79v-210q27 -31 103 -31q45 0 66.5 13t23.5 45v244
h80zM416 688h79v-103h-79v103zM351 549h76v-106h-76v106zM482 549h76v-106h-76v106z" />
    <glyph glyph-name="uniFEB8" unicode="&#x634;" horiz-adv-x="889" arabic-form="medial" 
d="M906 83v-73l-17 -10q-123 0 -160 59q-31 -59 -139 -59q-105 0 -134 54q-36 -54 -152 -54q-111 0 -143 54q-30 -54 -132 -54h-29l-17 10v73l17 10h32q47 0 67.5 12t20.5 40v189h79v-214q31 -27 106 -27q58 0 83 12t25 40v189h79v-211q26 -30 99 -30q51 0 72.5 13.5
t21.5 45.5v243h80v-267q33 -35 124 -35zM416 690h79v-103h-79v103zM351 551h76v-106h-76v106zM482 551h76v-106h-76v106z" />
    <glyph glyph-name="uniFEBA" unicode="&#x635;" horiz-adv-x="1193" arabic-form="final" 
d="M1210 83v-73l-17 -10q-52 0 -84 13.5t-48 41.5q-58 -55 -182 -55h-274q-13 -96 -82 -152t-205 -56q-152 0 -216.5 76.5t-64.5 199.5q0 54 11 110t25 87h80q-11 -33 -22 -84t-11 -106q0 -88 45.5 -139t158.5 -51t158.5 42t45.5 120v339h80v-71q119 54 189 79.5t128 25.5
q86 0 138 -54t52 -157q0 -52 -14 -92q10 -15 31.5 -19.5t60.5 -4.5zM997.5 116.5q35.5 23.5 35.5 87.5q0 62 -33 92.5t-89 30.5q-48 0 -116 -23.5t-187 -75.5v-135h271q83 0 118.5 23.5z" />
    <glyph glyph-name="uniFEBB" unicode="&#x635;" horiz-adv-x="744" arabic-form="initial" 
d="M632.5 366q51.5 -54 51.5 -157q0 -110 -59 -159.5t-176 -49.5h-449l-17 12v69l17 12h102v291h79v-67q118 53 187 78t127 25q86 0 137.5 -54zM567 116.5q36 23.5 36 87.5q0 62 -33 92.5t-89 30.5q-47 0 -113 -23t-187 -75v-136h268q82 0 118 23.5z" />
    <glyph glyph-name="uniFEBC" unicode="&#x635;" horiz-adv-x="763" arabic-form="medial" 
d="M780 83v-73l-17 -10q-52 0 -84 14t-48 42q-57 -56 -182 -56h-449l-17 12v69l17 12h102v291h79v-67q118 53 187 78t127 25q86 0 137.5 -54t51.5 -157q0 -51 -14 -91q11 -15 32.5 -20t60.5 -5zM567 116.5q36 23.5 36 87.5q0 62 -33 92.5t-89 30.5q-47 0 -113 -23t-187 -75
v-136h268q82 0 118 23.5z" />
    <glyph glyph-name="uniFEBE" unicode="&#x636;" horiz-adv-x="1193" arabic-form="final" 
d="M1210 83v-73l-17 -10q-52 0 -84 13.5t-48 41.5q-58 -55 -182 -55h-274q-13 -96 -82 -152t-205 -56q-152 0 -216.5 76.5t-64.5 199.5q0 54 11 110t25 87h80q-11 -33 -22 -84t-11 -106q0 -88 45.5 -139t158.5 -51t158.5 42t45.5 120v339h80v-71q119 54 189 79.5t128 25.5
q86 0 138 -54t52 -157q0 -52 -14 -92q10 -15 31.5 -19.5t60.5 -4.5zM997.5 116.5q35.5 23.5 35.5 87.5q0 62 -33 92.5t-89 30.5q-48 0 -116 -23.5t-187 -75.5v-135h271q83 0 118.5 23.5zM632 595h79v-106h-79v106z" />
    <glyph glyph-name="uniFEBF" unicode="&#x636;" horiz-adv-x="744" arabic-form="initial" 
d="M632.5 366q51.5 -54 51.5 -157q0 -110 -59 -159.5t-176 -49.5h-449l-17 12v69l17 12h102v291h79v-67q118 53 187 78t127 25q86 0 137.5 -54zM567 116.5q36 23.5 36 87.5q0 62 -33 92.5t-89 30.5q-47 0 -113 -23t-187 -75v-136h268q82 0 118 23.5zM201 595h79v-106h-79
v106z" />
    <glyph glyph-name="uniFEC0" unicode="&#x636;" horiz-adv-x="763" arabic-form="medial" 
d="M780 83v-73l-17 -10q-52 0 -84 14t-48 42q-57 -56 -182 -56h-449l-17 12v69l17 12h102v291h79v-67q118 53 187 78t127 25q86 0 137.5 -54t51.5 -157q0 -51 -14 -91q11 -15 32.5 -20t60.5 -5zM567 116.5q36 23.5 36 87.5q0 62 -33 92.5t-89 30.5q-47 0 -113 -23t-187 -75
v-136h268q82 0 118 23.5zM202 595h79v-106h-79v106z" />
    <glyph glyph-name="uniFEC2" unicode="&#x637;" horiz-adv-x="778" arabic-form="final" 
d="M795 83v-73l-17 -10q-54 0 -86 14.5t-47 43.5q-58 -58 -186 -58h-429v93h96v612h79v-384l23 10q96 45 158 67t115 22q88 0 140.5 -55t52.5 -159q0 -47 -12 -83q10 -18 32 -24t64 -6zM576.5 115.5q35.5 22.5 35.5 85.5q0 64 -33 95t-88 31q-46 0 -105.5 -21t-180.5 -73
v-140h254q82 0 117.5 22.5z" />
    <glyph glyph-name="uniFEC3" unicode="&#x637;" horiz-adv-x="712" arabic-form="initial" 
d="M599.5 365q52.5 -55 52.5 -159q0 -108 -59.5 -157t-176.5 -49h-416l-17 10v73l17 10h84v612h79v-384l19 9q99 46 161 68t116 22q88 0 140.5 -55zM534.5 115.5q35.5 22.5 35.5 85.5q0 64 -33 95t-88 31q-46 0 -105.5 -21t-180.5 -73v-140h253q83 0 118.5 22.5z" />
    <glyph glyph-name="uniFEC4" unicode="&#x637;" horiz-adv-x="734" arabic-form="medial" 
d="M751 83v-73l-17 -10q-53 0 -85 14.5t-48 42.5q-57 -57 -185 -57h-416l-17 10v73l17 10h84v612h79v-384l19 9q99 46 161 68t116 22q88 0 140.5 -55t52.5 -159q0 -49 -12 -85q10 -17 31.5 -22.5t62.5 -5.5zM534.5 115.5q35.5 22.5 35.5 85.5q0 64 -33 95t-88 31
q-46 0 -105.5 -21t-180.5 -73v-140h253q83 0 118.5 22.5z" />
    <glyph glyph-name="uniFEC6" unicode="&#x638;" horiz-adv-x="778" arabic-form="final" 
d="M795 83v-73l-17 -10q-54 0 -86 14.5t-47 43.5q-58 -58 -186 -58h-429v93h96v612h79v-384l23 10q96 45 158 67t115 22q88 0 140.5 -55t52.5 -159q0 -47 -12 -83q10 -18 32 -24t64 -6zM576.5 115.5q35.5 22.5 35.5 85.5q0 64 -33 95t-88 31q-46 0 -105.5 -21t-180.5 -73
v-140h254q82 0 117.5 22.5zM438 625h79v-106h-79v106z" />
    <glyph glyph-name="uniFEC7" unicode="&#x638;" horiz-adv-x="712" arabic-form="initial" 
d="M599.5 365q52.5 -55 52.5 -159q0 -108 -59.5 -157t-176.5 -49h-416l-17 10v73l17 10h84v612h79v-384l19 9q99 46 161 68t116 22q88 0 140.5 -55zM534.5 115.5q35.5 22.5 35.5 85.5q0 64 -33 95t-88 31q-46 0 -105.5 -21t-180.5 -73v-140h253q83 0 118.5 22.5zM401 619h79
v-106h-79v106z" />
    <glyph glyph-name="uniFEC8" unicode="&#x638;" horiz-adv-x="734" arabic-form="medial" 
d="M751 83v-73l-17 -10q-53 0 -85 14.5t-48 42.5q-57 -57 -185 -57h-416l-17 10v73l17 10h84v612h79v-384l19 9q99 46 161 68t116 22q88 0 140.5 -55t52.5 -159q0 -49 -12 -85q10 -17 31.5 -22.5t62.5 -5.5zM534.5 115.5q35.5 22.5 35.5 85.5q0 64 -33 95t-88 31
q-46 0 -105.5 -21t-180.5 -73v-140h253q83 0 118.5 22.5zM401 619h79v-106h-79v106z" />
    <glyph glyph-name="uniFECA" unicode="&#x639;" horiz-adv-x="583" arabic-form="final" 
d="M600 89v-85l-17 -4q-138 0 -196.5 7.5t-91.5 32.5q-68 -17 -106 -32.5t-59.5 -42t-21.5 -70.5q0 -53 36.5 -85t133.5 -32h245v-93h-253q-133 0 -189 56t-56 152q0 85 49.5 138.5t140.5 72.5l-140 187v93q37 15 94.5 25t129.5 10q130 0 224 -35v-93l-146 -194
q26 -3 78.5 -3.5t127.5 -0.5zM157 315l142 -194l141 193q-67 15 -141 15q-81 0 -142 -14z" />
    <glyph glyph-name="uniFECB" unicode="&#x639;" horiz-adv-x="534" arabic-form="initial" 
d="M479 93v-93h-479l-17 3v86l17 4h102q-22 23 -30 54t-8 74q0 100 61 151t156 51q46 0 90 -9t67 -20l-22 -87q-31 9 -62 15.5t-73 6.5q-67 0 -100.5 -29t-33.5 -79q0 -66 35 -97t122 -31h175z" />
    <glyph glyph-name="uniFECC" unicode="&#x639;" horiz-adv-x="563" arabic-form="medial" 
d="M580 89v-85l-17 -4q-96 0 -147.5 3.5t-83 14t-53.5 31.5q-23 -21 -54 -31.5t-82 -14t-143 -3.5l-17 4v85l17 4q72 0 123 0.5t77 3.5l-146 195v93q38 15 95.5 25t129.5 10q132 0 224 -35v-93l-147 -195q26 -3 79 -3.5t128 -0.5zM137 316l142 -194l141 194q-63 14 -141 14
q-81 0 -142 -14z" />
    <glyph glyph-name="uniFECE" unicode="&#x63a;" horiz-adv-x="583" arabic-form="final" 
d="M600 89v-85l-17 -4q-138 0 -196.5 7.5t-91.5 32.5q-68 -17 -106 -32.5t-59.5 -42t-21.5 -70.5q0 -53 36.5 -85t133.5 -32h245v-93h-253q-133 0 -189 56t-56 152q0 85 49.5 138.5t140.5 72.5l-140 187v93q37 15 94.5 25t129.5 10q130 0 224 -35v-93l-146 -194
q26 -3 78.5 -3.5t127.5 -0.5zM157 315l142 -194l141 193q-67 15 -141 15q-81 0 -142 -14zM260 623h79v-106h-79v106z" />
    <glyph glyph-name="uniFECF" unicode="&#x63a;" horiz-adv-x="534" arabic-form="initial" 
d="M479 93v-93h-479l-17 3v86l17 4h102q-22 23 -30 54t-8 74q0 100 61 151t156 51q46 0 90 -9t67 -20l-22 -87q-31 9 -62 15.5t-73 6.5q-67 0 -100.5 -29t-33.5 -79q0 -66 35 -97t122 -31h175zM240 625h79v-106h-79v106z" />
    <glyph glyph-name="uniFED0" unicode="&#x63a;" horiz-adv-x="563" arabic-form="medial" 
d="M580 89v-85l-17 -4q-96 0 -147.5 3.5t-83 14t-53.5 31.5q-23 -21 -54 -31.5t-82 -14t-143 -3.5l-17 4v85l17 4q72 0 123 0.5t77 3.5l-146 195v93q38 15 95.5 25t129.5 10q132 0 224 -35v-93l-147 -195q26 -3 79 -3.5t128 -0.5zM137 316l142 -194l141 194q-63 14 -141 14
q-81 0 -142 -14zM240 623h79v-106h-79v106z" />
    <glyph glyph-name="uniFED2" unicode="&#x641;" horiz-adv-x="979" arabic-form="final" 
d="M996 88v-83l-17 -5h-689q-99 0 -154.5 29t-77 80.5t-21.5 129.5q0 38 8.5 81t20.5 76l79 1q-10 -29 -18 -73t-8 -75q0 -60 17 -93.5t54 -48t100 -14.5h281q-66 59 -66 141q0 100 55 155.5t146 55.5q90 0 141 -53.5t51 -148.5q0 -87 -70 -150h151zM619 322
q-31 -30 -31 -84q0 -35 25 -68.5t91 -76.5q65 42 88 75t23 70q0 54 -31 84t-83 30q-51 0 -82 -30zM667 657h79v-106h-79v106z" />
    <glyph glyph-name="uniFED3" unicode="&#x641;" horiz-adv-x="487" arabic-form="initial" 
d="M427 171q0 -87 -41 -129t-137 -42h-249l-17 10v73l17 10h250q54 0 75.5 15.5t21.5 57.5v64q-40 -56 -136 -56q-90 0 -135 51.5t-45 127.5q0 63 28 111.5t79 75.5t118 27q48 0 93 -13.5t77 -33.5zM347 307v142q-18 10 -44 17t-55 7q-66 0 -100 -29.5t-34 -79.5
q0 -43 29 -70t86 -27q85 0 118 40zM217 766h79v-106h-79v106z" />
    <glyph glyph-name="uniFED4" unicode="&#x641;" horiz-adv-x="531" arabic-form="medial" 
d="M548 88v-83l-17 -5h-531l-17 5v83l17 5h134q-66 58 -66 141q0 101 55 156t146 55q90 0 141 -53.5t51 -148.5q0 -87 -70 -150h140zM182 322q-31 -30 -31 -84q0 -36 25 -69t91 -76q65 42 88 75.5t23 69.5q0 54 -31 84t-83 30q-51 0 -82 -30zM229 657h79v-106h-79v106z" />
    <glyph glyph-name="uniFED6" unicode="&#x642;" horiz-adv-x="826" arabic-form="final" 
d="M843 83v-73l-17 -10h-103v-16q0 -106 -57.5 -156.5t-190.5 -50.5h-145q-117 0 -181 30t-88 88t-24 153q0 52 10.5 102.5t22.5 81.5h79q-12 -35 -20.5 -83t-8.5 -94q0 -64 16.5 -103.5t62.5 -60.5t131 -21h148q62 0 97.5 10t52 35t16.5 71v14h-122q-112 0 -159 54t-47 140
q0 66 28.5 116t81.5 78t123 28q50 0 95.5 -12.5t78.5 -30.5v-280h103zM644 93v208q-18 9 -45 15t-58 6q-70 0 -106 -32.5t-36 -86.5q0 -49 31.5 -79.5t96.5 -30.5h117zM446 620h77v-106h-77v106zM575 620h76v-106h-76v106z" />
    <glyph glyph-name="uniFED7" unicode="&#x642;" horiz-adv-x="487" arabic-form="initial" 
d="M427 171q0 -87 -41 -129t-137 -42h-249l-17 10v73l17 10h250q54 0 75.5 15.5t21.5 57.5v64q-40 -56 -136 -56q-90 0 -135 51.5t-45 127.5q0 63 28 111.5t79 75.5t118 27q48 0 93 -13.5t77 -33.5zM347 307v142q-18 10 -44 17t-55 7q-66 0 -100 -29.5t-34 -79.5
q0 -43 29 -70t86 -27q85 0 118 40zM153 760h77v-106h-77v106zM282 760h76v-106h-76v106z" />
    <glyph glyph-name="uniFED8" unicode="&#x642;" horiz-adv-x="531" arabic-form="medial" 
d="M548 88v-83l-17 -5h-531l-17 5v83l17 5h134q-66 58 -66 141q0 101 55 156t146 55q90 0 141 -53.5t51 -148.5q0 -87 -70 -150h140zM182 322q-31 -30 -31 -84q0 -36 25 -69t91 -76q65 42 88 75.5t23 69.5q0 54 -31 84t-83 30q-51 0 -82 -30zM166 651h77v-106h-77v106z
M295 651h76v-106h-76v106z" />
    <glyph glyph-name="uniFEDA" unicode="&#x643;" horiz-adv-x="884" arabic-form="final" 
d="M901 83v-73l-17 -10q-57 0 -90 16.5t-47 49.5q-51 -66 -182 -66h-274q-102 0 -157.5 26t-76 73.5t-20.5 121.5q0 37 9 78t21 72h76q-10 -28 -18.5 -70t-8.5 -70q0 -52 17.5 -82t56 -43t103.5 -13h281q61 0 94 17t33 68v527h79v-538q0 -32 11 -48t32.5 -21t60.5 -5z
M499.5 306.5q-26.5 -23.5 -78.5 -23.5h-111v63h111q22 0 36 6t14 19q0 19 -29.5 34t-112.5 15l-5 80l181 90l12 -57l-126 -61q62 -4 98.5 -27.5t36.5 -71.5q0 -43 -26.5 -66.5z" />
    <glyph glyph-name="uniFEDB" unicode="&#x643;" horiz-adv-x="600" arabic-form="initial" 
d="M492 343q54 -57 54 -160v-90q0 -49 -20.5 -71t-62.5 -22h-463l-17 4v85l17 4h464v90q0 65 -37.5 99t-137.5 34h-226l-24 92l384 310l47 -71l-317 -247h140q145 0 199 -57z" />
    <glyph glyph-name="uniFEDC" unicode="&#x643;" horiz-adv-x="647" arabic-form="medial" 
d="M664 83v-73l-17 -10q-78 0 -114 33q-19 -33 -70 -33h-463l-17 4v85l17 4h464v90q0 65 -37.5 99t-137.5 34h-226l-24 92l384 310l47 -71l-317 -247h140q145 0 199 -57t54 -160v-45q7 -28 29.5 -36.5t71.5 -8.5z" />
    <glyph glyph-name="uniFEDE" unicode="&#x644;" horiz-adv-x="678" arabic-form="final" 
d="M695 83v-73l-17 -10q-78 0 -113 32q-20 -84 -83.5 -132t-178.5 -48q-145 0 -205.5 77t-60.5 204q0 52 11 107t25 85h79q-32 -100 -32 -185q0 -91 41.5 -143t147.5 -52q104 0 145 45t41 129v586h79v-538q0 -32 11 -48t32.5 -21t60.5 -5z" />
    <glyph glyph-name="uniFEDF" unicode="&#x644;" horiz-adv-x="267" arabic-form="initial" 
d="M-17 83l17 10q43 0 65.5 6t33.5 26.5t11 62.5v517h80v-514q0 -70 -18.5 -111.5t-60 -60.5t-111.5 -19l-17 10v73z" />
    <glyph glyph-name="uniFEE0" unicode="&#x644;" horiz-adv-x="294" arabic-form="medial" 
d="M311 83v-73l-17 -10q-54 0 -86.5 15t-47.5 44q-21 -31 -60 -45t-100 -14l-17 10v73l17 10q43 0 65.5 6t33.5 26.5t11 62.5v517h80v-538q0 -32 11 -48t32.5 -21t60.5 -5z" />
    <glyph glyph-name="uniFEE2" unicode="&#x645;" horiz-adv-x="744" arabic-form="final" 
d="M761 83v-73l-17 -10q-99 0 -131 54q-50 -73 -176 -73q-69 0 -114.5 26.5t-68.5 72.5h-23q-50 -1 -74 -7t-34 -23t-10 -53v-296h-79v299q0 87 45 127.5t153 44.5v13q0 69 29 122.5t82 83t123 29.5q50 0 95.5 -13.5t78.5 -33.5v-206q0 -32 11 -48t32.5 -21t60.5 -5z
M561 303q-18 10 -45.5 17t-57.5 7q-70 0 -106.5 -36t-36.5 -95q0 -54 32 -87.5t95 -33.5q53 0 81.5 18t36.5 55z" />
    <glyph glyph-name="uniFEE3" unicode="&#x645;" horiz-adv-x="548" arabic-form="initial" 
d="M409.5 406.5q45.5 -13.5 78.5 -33.5v-220q0 -69 -47.5 -115.5t-155.5 -46.5q-101 0 -156 58q-17 -25 -48.5 -37t-80.5 -12l-17 10v73l17 10q38 0 58.5 5t31.5 21q-10 33 -10 72q0 68 29 119.5t82 80.5t123 29q50 0 95.5 -13.5zM409 303q-18 10 -45.5 17t-57.5 7
q-70 0 -106.5 -34.5t-36.5 -91.5q0 -51 32.5 -83.5t94.5 -32.5q53 0 81.5 15.5t36.5 47.5z" />
    <glyph glyph-name="uniFEE4" unicode="&#x645;" horiz-adv-x="592" arabic-form="medial" 
d="M609 83v-73l-17 -10q-54 0 -86 14.5t-47 43.5q-50 -67 -174 -67q-101 0 -156 58q-17 -25 -48.5 -37t-80.5 -12l-17 10v73l17 10q38 0 58.5 5t31.5 21q-10 33 -10 72q0 68 29 119.5t82 80.5t123 29q50 0 95.5 -13.5t78.5 -33.5v-206q0 -32 11 -48t32.5 -21t60.5 -5z
M409 303q-18 10 -45.5 17t-57.5 7q-70 0 -106.5 -34.5t-36.5 -91.5q0 -51 32.5 -83.5t94.5 -32.5q53 0 81.5 15.5t36.5 47.5z" />
    <glyph glyph-name="uniFEE6" unicode="&#x646;" horiz-adv-x="712" arabic-form="final" 
d="M729 83v-73l-17 -10q-68 0 -104 25q-6 -108 -75 -172t-215 -64q-152 0 -216.5 76.5t-64.5 199.5q0 54 11 110t25 87h80q-11 -33 -22 -84t-11 -106q0 -88 45.5 -139t158.5 -51t158.5 42t45.5 120v350h80v-227q0 -32 11 -48t32.5 -21t60.5 -5zM286 517h79v-106h-79v106z
" />
    <glyph glyph-name="uniFEE7" unicode="&#x646;" horiz-adv-x="265" arabic-form="initial" 
d="M-17 83l17 10q46 0 72.5 6t40 24.5t13.5 55.5v217h79v-217q0 -96 -47.5 -137.5t-157.5 -41.5l-17 10v73zM127 595h79v-106h-79v106z" />
    <glyph glyph-name="uniFEE8" unicode="&#x646;" horiz-adv-x="330" arabic-form="medial" 
d="M347 83v-73l-17 -10q-65 0 -101.5 15.5t-52.5 49.5q-22 -34 -64.5 -49.5t-111.5 -15.5l-17 10v73l17 10q47 0 73 5.5t39.5 24t13.5 54.5v219h79v-217q0 -39 13.5 -57.5t38.5 -23.5t73 -5zM127 595h79v-106h-79v106z" />
    <glyph glyph-name="uniFEEA" unicode="&#x647;" horiz-adv-x="560" arabic-form="final" 
d="M577 89v-85l-17 -4q-78 0 -124.5 25t-62.5 87q-17 -33 -51 -52.5t-94 -19.5q-96 0 -143.5 56t-47.5 141q0 67 29.5 119t84.5 80.5t128 28.5q45 0 86 -15v46h79l-1 -304q0 -40 10.5 -61t35.5 -29.5t71 -8.5zM365 178v8v175q-10 3 -33.5 7t-54.5 4q-79 0 -118 -33.5
t-39 -90.5q0 -51 32 -83t94 -32q87 0 119 45z" />
    <glyph glyph-name="uniFEEB" unicode="&#x647;" horiz-adv-x="721" arabic-form="initial" 
d="M450.5 453.5q103.5 -42.5 157 -100.5t53.5 -144q0 -101 -58 -155t-207 -54q-92 0 -164 24q-38 -15 -97 -19.5t-135 -4.5l-17 5v83l17 5h104q-51 47 -51 126q0 58 26.5 102.5t74.5 69.5t108 25q19 0 53 -4q-78 26 -173 51l24 83q181 -50 284.5 -92.5zM537 118q41 23 41 85
q0 56 -37 96t-130 78v-284q85 2 126 25zM168.5 311q-35.5 -31 -35.5 -86q0 -68 47 -96.5t151 -33.5v233q-7 4 -25.5 9t-42.5 5q-59 0 -94.5 -31z" />
    <glyph glyph-name="uniFEEC" unicode="&#x647;" horiz-adv-x="579" arabic-form="medial" 
d="M596 89v-85l-17 -4h-82q20 -25 20 -59q0 -76 -51.5 -124t-159.5 -48q-114 0 -169.5 56t-58.5 175h-78l-17 4v85l17 4h78v285q95 42 200 42q94 0 146.5 -54t52.5 -141q0 -90 -50 -132h152zM158 308v-215h79q88 0 122.5 28.5t34.5 87.5q0 52 -31 85t-92 33q-70 0 -113 -19z
M404.5 -116q29.5 22 29.5 53q0 32 -25.5 54t-92.5 22l-160 -1q1 -57 16 -89.5t48 -46.5t91 -14q64 0 93.5 22z" />
    <glyph glyph-name="uniFEEE" unicode="&#x648;" horiz-adv-x="549" arabic-form="final" 
d="M566 83v-73l-17 -10h-104v-32q0 -90 -42.5 -133.5t-140.5 -43.5h-190v93h192q57 0 79.5 19t22.5 70v27h-122q-206 0 -206 191q0 67 28.5 118t81.5 79t123 28q50 0 95.5 -12.5t78.5 -30.5v-280h104zM366 93v208q-18 9 -45 15t-58 6q-70 0 -106 -33t-36 -89q0 -48 31 -77.5
t97 -29.5h117z" />
    <glyph glyph-name="uniFEF0" unicode="&#x649;" horiz-adv-x="742" arabic-form="final" 
d="M759 83v-73l-17 -10h-47v-19q0 -219 -318 -219q-131 0 -205.5 34t-104.5 97.5t-30 160.5q0 55 9 112t22 87h79q-9 -30 -18 -81.5t-9 -107.5q0 -82 25 -126.5t81.5 -63.5t155.5 -19q93 0 143.5 15t69 41t18.5 62v27h-175v93h304z" />
    <glyph glyph-name="uniFEF2" unicode="&#x64a;" horiz-adv-x="742" arabic-form="final" 
d="M759 83v-73l-17 -10h-47v-19q0 -219 -318 -219q-131 0 -205.5 34t-104.5 97.5t-30 160.5q0 55 9 112t22 87h79q-9 -30 -18 -81.5t-9 -107.5q0 -82 25 -126.5t81.5 -63.5t155.5 -19q93 0 143.5 15t69 41t18.5 62v27h-175v93h304zM279 -317h77v-106h-77v106zM408 -317h76
v-106h-76v106z" />
    <glyph glyph-name="uniFEF3" unicode="&#x64a;" horiz-adv-x="265" arabic-form="initial" 
d="M-17 83l17 10q46 0 72.5 6t40 24.5t13.5 55.5v217h79v-217q0 -96 -47.5 -137.5t-157.5 -41.5l-17 10v73zM39 -92h77v-106h-77v106zM168 -92h76v-106h-76v106z" />
    <glyph glyph-name="uniFEF4" unicode="&#x64a;" horiz-adv-x="330" arabic-form="medial" 
d="M347 83v-73l-17 -10q-65 0 -101.5 15.5t-52.5 49.5q-22 -34 -64.5 -49.5t-111.5 -15.5l-17 10v73l17 10q47 0 73 5.5t39.5 24t13.5 54.5v219h79v-217q0 -39 13.5 -57.5t38.5 -23.5t73 -5zM68 -92h77v-106h-77v106zM197 -92h76v-106h-76v106z" />
    <glyph glyph-name=".notdef" horiz-adv-x="863" 
d="M60 750h743v-750h-743v750zM731 69v612h-598v-612h598zM428 326l-110 -110l-42 44l109 109l-109 109l42 43l110 -109l109 108l43 -42l-109 -109l109 -109l-43 -43z" />
    <glyph glyph-name=".null" 
 />
    <glyph glyph-name="nonmarkingreturn" horiz-adv-x="333" 
 />
    <glyph glyph-name="space" unicode=" " horiz-adv-x="243" 
 />
    <glyph glyph-name="exclam" unicode="!" horiz-adv-x="242" 
d="M90 230l-21 520h104l-21 -520h-62zM76 0v128h91v-128h-91z" />
    <glyph glyph-name="quotedbl" unicode="&#x22;" horiz-adv-x="379" 
d="M80 469l-13 281h86l-14 -281h-59zM239 469l-13 281h86l-13 -281h-60z" />
    <glyph glyph-name="numbersign" unicode="#" horiz-adv-x="902" 
d="M863 505h-180l-77 -226h203v-58h-223l-75 -221h-64l75 221h-255l-75 -221h-64l75 221h-164v58h184l77 226h-205v58h224l64 187h65l-64 -187h254l64 187h65l-64 -187h160v-58zM542 279l77 226h-255l-77 -226h255z" />
    <glyph glyph-name="dollar" unicode="$" horiz-adv-x="655" 
d="M550 53.5q-67 -60.5 -181 -66.5v-97h-54v97q-127 8 -199 79.5t-75 192.5h98q2 -89 57 -139t151 -50q79 0 127 37t48 98q0 67 -46 99t-154 39q-131 10 -193.5 60.5t-62.5 147.5q0 61 29.5 108.5t84 74.5t126.5 30v96h53v-97q110 -10 173.5 -72t69.5 -168h-98
q-6 77 -52.5 117.5t-128.5 40.5q-73 0 -117.5 -34t-44.5 -90q0 -65 44.5 -95.5t151.5 -37.5q134 -9 197 -61t63 -152q0 -97 -67 -157.5z" />
    <glyph glyph-name="percent" unicode="%" horiz-adv-x="697" 
d="M65 522q-41 40 -41 101q0 39 18.5 71.5t51.5 51t74 18.5t74 -18.5t52 -51t19 -71.5q0 -61 -41 -101t-104 -40q-62 0 -103 40zM560 750h76l-497 -750h-76zM229 561.5q24 24.5 24 61.5q0 36 -24 60t-61 24t-61 -24t-24 -60q0 -37 24 -61.5t61 -24.5t61 24.5zM426 26
q-41 40 -41 101q0 39 18.5 71.5t51.5 51t74 18.5t74 -18.5t51.5 -51t18.5 -71.5q0 -61 -40.5 -101t-103.5 -40q-62 0 -103 40zM590 65.5q24 24.5 24 61.5q0 36 -24 60.5t-61 24.5t-61 -24.5t-24 -60.5q0 -37 24 -61.5t61 -24.5t61 24.5z" />
    <glyph glyph-name="ampersand" unicode="&#x26;" horiz-adv-x="716" 
d="M589 314q-17 -88 -54 -153l129 -161h-104l-74 90q-44 -50 -103 -77t-130 -27q-64 0 -112.5 23t-75 64.5t-26.5 95.5q0 66 42 119t146 120l-18 22q-38 48 -54.5 84.5t-16.5 79.5q0 48 23 86.5t63 61t91 22.5q49 0 88.5 -22.5t61.5 -61t22 -85.5q-1 -57 -32 -102t-106 -99
l130 -164q31 70 42 161h188v-77h-120zM253.5 649.5q-22.5 -24.5 -22.5 -59.5q0 -28 11.5 -53.5t34.5 -53.5l23 -29q50 33 71.5 64.5t21.5 70.5q0 38 -21.5 61.5t-58.5 23.5t-59.5 -24.5zM434 155l-157 191q-82 -54 -113 -89.5t-31 -78.5q0 -50 34 -78.5t92 -28.5
q105 0 175 84z" />
    <glyph glyph-name="quotesingle" unicode="'" horiz-adv-x="220" 
d="M80 469l-13 281h87l-14 -281h-60z" />
    <glyph glyph-name="parenleft" unicode="(" horiz-adv-x="280" 
d="M95.5 39q-48.5 122 -48.5 268q0 148 48 269t112 195h79q-65 -76 -113.5 -199.5t-48.5 -264.5q0 -140 49 -264.5t113 -198.5h-79q-63 73 -111.5 195z" />
    <glyph glyph-name="parenright" unicode=")" horiz-adv-x="280" 
d="M107 42q49 124 49 265t-48.5 265t-114.5 199h79q64 -74 112.5 -195t48.5 -269q0 -146 -48.5 -267.5t-112.5 -195.5h-79q65 74 114 198z" />
    <glyph glyph-name="asterisk" unicode="*" horiz-adv-x="323" 
d="M302 670l-106 -57l105 -57l-20 -34l-102 61l3 -117h-42l5 117l-102 -61l-22 36l111 55l-107 58l19 34l101 -63l-3 115h42l-4 -116l103 62z" />
    <glyph glyph-name="plus" unicode="+" horiz-adv-x="610" 
d="M496 399v-65h-158v-159h-65v159h-159v65h159v159h65v-159h158z" />
    <glyph glyph-name="comma" unicode="," horiz-adv-x="242" 
d="M19 -145l78 281h95l-105 -281h-68z" />
    <glyph glyph-name="hyphen" unicode="-" horiz-adv-x="452" 
d="M68 243v65h316v-65h-316z" />
    <glyph glyph-name="period" unicode="." horiz-adv-x="216" 
d="M65 0v136h86v-136h-86z" />
    <glyph glyph-name="slash" unicode="/" horiz-adv-x="402" 
d="M49 0l263 750h55l-264 -750h-54z" />
    <glyph glyph-name="zero" unicode="0" horiz-adv-x="606" 
d="M527 112q-32 -59 -90.5 -92.5t-134.5 -33.5q-75 0 -133 33.5t-90.5 93t-32.5 133.5v258q0 73 32.5 132.5t90.5 93.5t133 34q76 0 134.5 -34t90.5 -93.5t32 -132.5v-258q0 -75 -32 -134zM181.5 119q45.5 -48 120.5 -48q76 0 121.5 48t45.5 125v261q0 77 -45.5 125
t-121.5 48q-74 0 -120 -48.5t-46 -124.5v-261q0 -77 45.5 -125z" />
    <glyph glyph-name="one" unicode="1" horiz-adv-x="356" 
d="M200 750h76v-750h-90v653l-167 -75v87z" />
    <glyph glyph-name="two" unicode="2" horiz-adv-x="523" 
d="M495 84v-84h-461v78l288 323q38 42 54 76t16 71q0 56 -34 93.5t-98 37.5t-100 -39.5t-36 -94.5v-13h-90v13q0 60 27.5 110t79.5 79.5t122 29.5t120 -29.5t76 -78.5t26 -107q0 -54 -23 -101.5t-76 -107.5l-226 -256h335z" />
    <glyph glyph-name="three" unicode="3" horiz-adv-x="564" 
d="M494 341q35 -54 35 -120t-32.5 -120t-90 -84.5t-128.5 -30.5q-70 0 -127.5 30.5t-90 84t-32.5 119.5q0 9 2 25h90q-2 -16 -2 -20q0 -44 21 -80t57.5 -56.5t81.5 -20.5q70 0 115.5 44.5t45.5 112.5q0 43 -21 78t-57.5 55.5t-81.5 20.5h-44v77h44q52 0 86 32.5t34 81.5
q0 50 -34 82.5t-87 32.5q-52 0 -86 -32.5t-34 -82.5q0 -9 1 -13h-85q-2 8 -2 19q0 52 27.5 95t74.5 68t104 25q59 0 106 -25t74 -68t27 -96q0 -47 -22.5 -87t-63.5 -65q60 -28 95 -82z" />
    <glyph glyph-name="four" unicode="4" horiz-adv-x="576" 
d="M568 296v-81h-106v-215h-89v215h-357v67l357 468h89v-454h106zM128 296h245v323z" />
    <glyph glyph-name="five" unicode="5" horiz-adv-x="570" 
d="M160 16.5q-57 30.5 -89.5 83.5t-32.5 118q0 8 2 26h89q-2 -10 -2 -22q0 -44 21 -79t57.5 -55t81.5 -20q73 0 118.5 47.5t45.5 121.5q0 71 -43.5 117.5t-117.5 46.5q-42 0 -80 -17t-63 -47h-92l71 413h375v-84h-309l-40 -244q23 25 64 43t85 18q72 0 126 -32t83.5 -89
t29.5 -128q0 -72 -32 -128.5t-89.5 -88t-131.5 -31.5q-70 0 -127 30.5z" />
    <glyph glyph-name="six" unicode="6" horiz-adv-x="558" 
d="M413.5 425q56.5 -31 88 -84t31.5 -117q0 -67 -32.5 -121.5t-90 -85.5t-129.5 -31q-71 0 -128 31t-90 84.5t-33 120.5q0 64 38 127l245 401h109l-186 -300q24 6 50 6q71 0 127.5 -31zM364 89q37 20 58 55.5t21 79.5q0 43 -21 78.5t-58 56t-83 20.5q-44 0 -81 -20.5
t-58.5 -56t-21.5 -78.5q0 -44 21.5 -79.5t58 -55.5t81.5 -20q46 0 83 20z" />
    <glyph glyph-name="seven" unicode="7" horiz-adv-x="499" 
d="M19 750h466v-72l-289 -678h-100l291 666h-368v84z" />
    <glyph glyph-name="eight" unicode="8" horiz-adv-x="571" 
d="M500.5 340.5q35.5 -54.5 35.5 -119.5t-32.5 -119t-89.5 -85t-129 -31q-71 0 -128 31t-89.5 85t-32.5 119t35.5 119.5t94.5 82.5q-40 25 -63 65t-23 87q0 52 27 95.5t74 68.5t105 25q59 0 106 -25t74 -68.5t27 -95.5q0 -47 -23 -87t-63 -65q59 -28 94.5 -82.5zM199 652
q-35 -33 -35 -82t35 -82t86 -33q52 0 86.5 32.5t34.5 82.5t-34 82.5t-87 32.5q-51 0 -86 -33zM367.5 88.5q36.5 20.5 57.5 56.5t21 80q0 43 -21 78.5t-57.5 56t-82.5 20.5q-45 0 -81.5 -21t-57.5 -56.5t-21 -77.5q0 -44 21 -80t57.5 -56.5t81.5 -20.5q46 0 82.5 20.5z" />
    <glyph glyph-name="nine" unicode="9" horiz-adv-x="556" 
d="M408 733q57 -31 90 -84.5t33 -120.5q0 -64 -38 -127l-245 -401h-107l186 301q-22 -7 -52 -7q-71 0 -127.5 31t-88 84t-31.5 117q0 67 32.5 121.5t90 85.5t129.5 31q71 0 128 -31zM362 391.5q37 20.5 58 56t21 78.5q0 44 -21 79t-58 55t-82 20q-46 0 -83 -19.5t-58 -55
t-21 -79.5q0 -43 21 -78.5t58 -56t83 -20.5q45 0 82 20.5z" />
    <glyph glyph-name="colon" unicode=":" horiz-adv-x="244" 
d="M79 374v136h86v-136h-86zM79 0v136h86v-136h-86z" />
    <glyph glyph-name="semicolon" unicode=";" horiz-adv-x="260" 
d="M99 374v136h86v-136h-86zM22 -145l79 281h93l-105 -281h-67z" />
    <glyph glyph-name="less" unicode="&#x3c;" horiz-adv-x="609" 
d="M523 563v-67l-347 -131l347 -132v-70l-437 169v63z" />
    <glyph glyph-name="equal" unicode="=" horiz-adv-x="610" 
d="M114 481h382v-64h-382v64zM114 308h382v-63h-382v63z" />
    <glyph glyph-name="greater" unicode="&#x3e;" horiz-adv-x="609" 
d="M86 563l437 -168v-63l-437 -169v70l347 132l-347 131v67z" />
    <glyph glyph-name="question" unicode="?" horiz-adv-x="549" 
d="M400.5 734.5q50.5 -29.5 76.5 -76t26 -97.5q0 -61 -29 -103.5t-87 -90.5l-86 -71v-66h-90v100l129 104q33 27 51 56t18 66q0 30 -14.5 58.5t-44 46.5t-71.5 18q-64 0 -100.5 -39.5t-36.5 -94.5v-13h-90v13q0 60 28 110t80 79.5t121 29.5t119.5 -29.5zM211 0v128h90v-128
h-90z" />
    <glyph glyph-name="at" unicode="@" horiz-adv-x="1050" 
d="M767 671.5q112 -58.5 176.5 -164t64.5 -240.5q0 -93 -27 -156t-72 -94t-101 -31q-57 0 -95 27t-52 75q-28 -48 -79 -75t-118 -27q-78 0 -127 42t-49 110q0 61 38 99.5t107 49.5l220 34v39q0 34 -17.5 51.5t-49.5 17.5h-250v81h252q74 0 114 -36.5t40 -103.5v-222
q0 -45 21 -69.5t59 -24.5q53 0 87 53t34 160q0 120 -56 211.5t-152.5 141.5t-215.5 50q-113 0 -207.5 -53t-149.5 -148t-55 -216q0 -119 51 -211.5t142 -144t208 -51.5q64 0 117 17v-62q-57 -15 -117 -15q-135 0 -241 60t-165.5 166.5t-59.5 240.5q0 136 64 245t173.5 170.5
t239.5 61.5q136 0 248 -58.5zM588.5 88.5q47.5 29.5 64.5 75.5v85l-188 -31q-86 -14 -86 -80q0 -37 28 -58t76 -21q58 0 105.5 29.5z" />
    <glyph glyph-name="A" unicode="A" horiz-adv-x="684" 
d="M554 0l-72 224h-279l-73 -224h-98l247 750h127l247 -750h-99zM229 304h227l-112 347h-3z" />
    <glyph glyph-name="B" unicode="B" horiz-adv-x="622" 
d="M556 342q36 -49 36 -117q0 -66 -30.5 -117t-89 -79.5t-140.5 -28.5h-252v750h266q103 0 159 -50t56 -132q0 -53 -27.5 -94.5t-79.5 -61.5q66 -21 102 -70zM437 639.5q-33 30.5 -99 30.5h-167v-227h168q63 0 97 32t34 82q0 52 -33 82.5zM454.5 120.5q45.5 40.5 45.5 104.5
q0 63 -43.5 101t-128.5 38h-157v-284h156q82 0 127.5 40.5z" />
    <glyph glyph-name="C" unicode="C" horiz-adv-x="800" 
d="M638 60q-92 -74 -226 -74q-107 0 -191.5 50t-131.5 138.5t-47 200.5t47 200.5t131.5 138.5t191.5 50q132 0 223.5 -72t126.5 -202h-98q-67 184 -252 184q-81 0 -143 -37.5t-96 -105.5t-34 -157q0 -88 34 -156t96 -105.5t143 -37.5q97 0 161 49.5t93 142.5h96
q-32 -133 -124 -207z" />
    <glyph glyph-name="D" unicode="D" horiz-adv-x="745" 
d="M526 703q86 -47 131 -131.5t45 -195.5q0 -112 -45 -197t-131 -132t-204 -47h-242v750h241q119 0 205 -47zM535 167q71 80 71 209q0 128 -71.5 208t-215.5 80h-146v-577h147q144 0 215 80z" />
    <glyph glyph-name="E" unicode="E" horiz-adv-x="596" 
d="M175 80h378v-80h-473v750h460v-80h-365v-229h317v-80h-317v-281z" />
    <glyph glyph-name="F" unicode="F" horiz-adv-x="606" 
d="M567 670h-393v-229h343v-80h-343v-361h-95v750h488v-80z" />
    <glyph glyph-name="G" unicode="G" horiz-adv-x="802" 
d="M764 0h-79v142q-41 -74 -112 -115t-164 -41q-105 0 -189 50.5t-131 139.5t-47 199q0 111 47 200t131.5 139t191.5 50q126 0 218.5 -63.5t128.5 -175.5h-101q-29 71 -92.5 111t-152.5 40q-81 0 -143 -38t-96.5 -106.5t-34.5 -157.5q0 -88 34.5 -156.5t96.5 -107t143 -38.5
q108 0 178 63.5t84 171.5h-224v80h313v-387z" />
    <glyph glyph-name="H" unicode="H" horiz-adv-x="699" 
d="M524 750h95v-750h-95v361h-349v-361h-95v750h95v-309h349v309z" />
    <glyph glyph-name="I" unicode="I" horiz-adv-x="253" 
d="M80 750h93v-750h-93v750z" />
    <glyph glyph-name="J" unicode="J" horiz-adv-x="432" 
d="M201 80q76 0 76 75v515h-163v80h258v-588q0 -78 -42 -120t-122 -42h-173v80h166z" />
    <glyph glyph-name="K" unicode="K" horiz-adv-x="660" 
d="M534 0l-256 361h-103v-361h-95v750h95v-309h102l243 309h114l-274 -346l289 -404h-115z" />
    <glyph glyph-name="L" unicode="L" horiz-adv-x="567" 
d="M175 80h356v-80h-451v750h95v-670z" />
    <glyph glyph-name="M" unicode="M" horiz-adv-x="906" 
d="M80 0v750h145l227 -610h2l228 610h145v-750h-95v619h-3l-236 -613h-79l-236 613h-3v-619h-95z" />
    <glyph glyph-name="N" unicode="N" horiz-adv-x="715" 
d="M80 0v750h103l359 -599h3v599h90v-750h-102l-360 599h-3v-599h-90z" />
    <glyph glyph-name="O" unicode="O" horiz-adv-x="840" 
d="M226.5 36.5q-85.5 50.5 -133 139t-47.5 199.5t47.5 199.5t133 139t193.5 50.5t193 -50.5t132.5 -139t47.5 -199.5t-47.5 -199.5t-132.5 -139t-193 -50.5t-193.5 50.5zM564 113q63 38 97.5 106t34.5 155q0 88 -34.5 156t-97.5 106t-144 38q-82 0 -145 -38t-97.5 -106
t-34.5 -156q0 -87 34.5 -155t97.5 -106t145 -38q81 0 144 38z" />
    <glyph glyph-name="P" unicode="P" horiz-adv-x="603" 
d="M518.5 695.5q57.5 -54.5 57.5 -142.5q0 -58 -25.5 -103t-74 -70.5t-115.5 -25.5h-189v-354h-95v750h283q101 0 158.5 -54.5zM450 468q31 33 31 85q0 51 -31 84t-93 33h-185v-235h183q64 0 95 33z" />
    <glyph glyph-name="Q" unicode="Q" horiz-adv-x="832" 
d="M762.5 220q-27.5 -72 -77.5 -124l91 -96h-101l-47 48q-94 -62 -212 -62q-108 0 -193.5 50.5t-133 139t-47.5 199.5t47.5 199.5t133 139t193.5 50.5t193 -50.5t133 -139t48 -199.5q0 -83 -27.5 -155zM174 219q35 -68 98 -106t144 -38q82 0 146 39l-162 170h105l115 -121
q35 40 53.5 94t18.5 117q0 88 -34.5 156t-97.5 106t-144 38t-144 -38t-98 -106t-35 -156q0 -87 35 -155z" />
    <glyph glyph-name="R" unicode="R" horiz-adv-x="608" 
d="M536.5 430.5q-40.5 -50.5 -115.5 -67.5l149 -363h-101l-144 355h-150v-355h-95v750h267q72 0 124 -25.5t79 -70t27 -102.5q0 -71 -40.5 -121.5zM175 435h166q69 0 103.5 33.5t34.5 84.5t-34 84t-103 33h-167v-235z" />
    <glyph glyph-name="S" unicode="S" horiz-adv-x="655" 
d="M124.5 58.5q-80.5 72.5 -83.5 200.5h98q2 -89 57 -139t151 -50q79 0 127 37t48 98q0 67 -46 99t-154 39q-131 10 -193.5 60.5t-62.5 147.5q0 63 32 111.5t90 75t134 26.5q127 0 200 -63t80 -178h-98q-6 77 -52.5 117.5t-128.5 40.5q-73 0 -117.5 -34t-44.5 -90
q0 -65 44.5 -95.5t151.5 -37.5q134 -9 197 -61t63 -152q0 -67 -33.5 -118t-95.5 -79t-144 -28q-139 0 -219.5 72.5z" />
    <glyph glyph-name="T" unicode="T" horiz-adv-x="611" 
d="M258 0v670h-232v80h559v-80h-232v-670h-95z" />
    <glyph glyph-name="U" unicode="U" horiz-adv-x="745" 
d="M641 132.5q-37 -70.5 -106 -108.5t-162 -38t-162 38t-106 108.5t-37 167.5v450h95v-456q0 -101 55.5 -161t154.5 -60t154.5 60t55.5 161v456h95v-450q0 -97 -37 -167.5z" />
    <glyph glyph-name="V" unicode="V" horiz-adv-x="680" 
d="M277 0l-245 750h100l207 -650h3l207 650h100l-245 -750h-127z" />
    <glyph glyph-name="W" unicode="W" horiz-adv-x="1058" 
d="M929 750h98l-218 -750h-117l-163 579l-162 -579h-117l-218 750h97l178 -630h3l171 602h96l171 -602h4z" />
    <glyph glyph-name="X" unicode="X" horiz-adv-x="618" 
d="M604 0h-111l-184 312l-184 -312h-111l240 395l-225 355h112l168 -279l168 279h112l-225 -355z" />
    <glyph glyph-name="Y" unicode="Y" horiz-adv-x="636" 
d="M610 750l-244 -499v-251h-95v253l-243 497h99l190 -400h3l191 400h99z" />
    <glyph glyph-name="Z" unicode="Z" horiz-adv-x="656" 
d="M38 0v77l457 590v3h-439v80h550v-83l-452 -584v-3h464v-80h-580z" />
    <glyph glyph-name="bracketleft" unicode="[" horiz-adv-x="265" 
d="M234 673h-82v-796h82v-77h-173v950h173v-77z" />
    <glyph glyph-name="backslash" unicode="\" horiz-adv-x="402" 
d="M299 0l-263 750h54l263 -750h-54z" />
    <glyph glyph-name="bracketright" unicode="]" horiz-adv-x="265" 
d="M31 750h173v-950h-173v77h82v796h-82v77z" />
    <glyph glyph-name="asciicircum" unicode="^" horiz-adv-x="479" 
d="M429 245h-82l-108 275l-109 -275h-80l152 372h75z" />
    <glyph glyph-name="underscore" unicode="_" horiz-adv-x="526" 
d="M72 0h382v-65h-382v65z" />
    <glyph glyph-name="grave" unicode="`" horiz-adv-x="300" 
d="M50 752h96l104 -133h-82z" />
    <glyph glyph-name="a" unicode="a" horiz-adv-x="564" 
d="M454 473.5q40 -36.5 40 -103.5v-370h-89v76q-29 -43 -78 -66.5t-111 -23.5q-79 0 -127.5 42t-48.5 110q0 61 38 99.5t107 49.5l220 34v39q0 34 -17.5 51.5t-49.5 17.5h-250v81h252q74 0 114 -36.5zM339.5 88.5q47.5 29.5 65.5 76.5v84l-188 -31q-86 -14 -86 -80
q0 -37 28 -58t76 -21q57 0 104.5 29.5z" />
    <glyph glyph-name="b" unicode="b" horiz-adv-x="623" 
d="M456.5 489q54.5 -34 85.5 -95t31 -139q0 -79 -31 -140t-85.5 -95t-122.5 -34q-56 0 -99 22t-71 64v-72h-88v750h88v-312q60 85 170 85q68 0 122.5 -34zM436.5 119q44.5 50 44.5 136q0 84 -44.5 134.5t-114.5 50.5q-57 0 -96.5 -28.5t-61.5 -79.5v-155q21 -50 61.5 -79
t96.5 -29q70 0 114.5 50z" />
    <glyph glyph-name="c" unicode="c" horiz-adv-x="594" 
d="M464 33q-63 -47 -152 -47q-77 0 -136.5 34.5t-92.5 96t-33 138.5t33 138t92.5 95.5t136.5 34.5q89 0 151.5 -47.5t86.5 -134.5h-91q-44 100 -147 100q-78 0 -124 -51t-46 -135t46 -135.5t124 -51.5q104 0 146 97h92q-23 -85 -86 -132z" />
    <glyph glyph-name="d" unicode="d" horiz-adv-x="623" 
d="M547 750v-750h-88v72q-28 -42 -71 -64t-99 -22q-68 0 -122.5 34t-85.5 95t-31 140q0 78 31 139t85.5 95t122.5 34q110 0 170 -85v312h88zM397 97.5q40 28.5 62 77.5v160q-22 49 -61.5 77t-95.5 28q-71 0 -115.5 -50.5t-44.5 -134.5q0 -86 44.5 -136t115.5 -50
q55 0 95 28.5z" />
    <glyph glyph-name="e" unicode="e" horiz-adv-x="601" 
d="M553 237h-412q5 -81 48.5 -126t118.5 -45q51 0 88.5 20t56.5 54h94q-23 -68 -89.5 -111t-150.5 -43q-75 0 -133.5 34t-91 96t-32.5 142q0 76 33 136.5t91 94.5t132 34q73 0 129 -32t87.5 -90.5t31.5 -136.5q0 -18 -1 -27zM198 408.5q-42 -34.5 -54 -99.5h315
q-10 66 -48.5 100t-104.5 34t-108 -34.5z" />
    <glyph glyph-name="f" unicode="f" horiz-adv-x="407" 
d="M34 429v81h100v102q0 65 39 101.5t113 36.5h144v-80h-138q-32 0 -50 -16.5t-18 -51.5v-92h155v-81h-155v-429h-90v429h-100z" />
    <glyph glyph-name="g" unicode="g" horiz-adv-x="618" 
d="M547 510v-545q0 -78 -44.5 -121.5t-129.5 -43.5h-211v79h209q41 0 64.5 23.5t23.5 69.5v108q-28 -40 -71.5 -62t-98.5 -22q-68 0 -122.5 33.5t-85.5 93.5t-31 137t31 136.5t85.5 93t122.5 33.5q110 0 170 -84v71h88zM397.5 105q39.5 28 61.5 77v154q-22 50 -61.5 78
t-95.5 28q-71 0 -115.5 -49.5t-44.5 -132.5q0 -84 44.5 -133.5t115.5 -49.5q56 0 95.5 28z" />
    <glyph glyph-name="h" unicode="h" horiz-adv-x="615" 
d="M492.5 467.5q52.5 -55.5 52.5 -148.5v-319h-90v299q0 64 -33.5 102.5t-96.5 38.5q-49 0 -94 -28.5t-65 -71.5v-340h-90v750h90v-317q31 42 79 66t104 24q91 0 143.5 -55.5z" />
    <glyph glyph-name="i" unicode="i" horiz-adv-x="302" 
d="M137 616v134h90v-134h-90zM137 429h-114v81h204v-510h-90v429z" />
    <glyph glyph-name="j" unicode="j" horiz-adv-x="307" 
d="M142 616v134h90v-134h-90zM89 -120q24 0 38.5 14t14.5 42v493h-116v81h206v-584q0 -59 -35 -92.5t-102 -33.5h-147v80h141z" />
    <glyph glyph-name="k" unicode="k" horiz-adv-x="533" 
d="M406 0l-173 231h-67v-231h-90v750h90v-445h66l167 205h106l-196 -238l205 -272h-108z" />
    <glyph glyph-name="l" unicode="l" horiz-adv-x="296" 
d="M107.5 32.5q-33.5 32.5 -33.5 89.5v548h-85v80h176v-620q0 -50 48 -50h55v-80h-63q-64 0 -97.5 32.5z" />
    <glyph glyph-name="m" unicode="m" horiz-adv-x="865" 
d="M753.5 476.5q42.5 -46.5 42.5 -124.5v-352h-86v326q0 52 -27 83t-77 31q-36 0 -70.5 -21t-54.5 -54v-13v-352h-86v326q0 52 -26.5 83t-76.5 31q-39 0 -75.5 -25t-55.5 -61v-354h-85v510h85v-69q29 38 72 60t91 22q52 0 88.5 -24t54.5 -67q29 42 74.5 66.5t97.5 24.5
q72 0 114.5 -46.5z" />
    <glyph glyph-name="n" unicode="n" horiz-adv-x="615" 
d="M492.5 468q52.5 -55 52.5 -147v-321h-90v301q0 64 -33 101.5t-96 37.5q-49 0 -94.5 -29t-65.5 -72v-339h-90v510h90v-78q32 43 80 67t104 24q90 0 142.5 -55z" />
    <glyph glyph-name="o" unicode="o" horiz-adv-x="621" 
d="M175 20.5q-59 34.5 -92 96t-33 138.5t33 138t92 95.5t135 34.5q77 0 136 -34.5t92 -95.5t33 -138t-33 -138.5t-92 -96t-136 -34.5q-76 0 -135 34.5zM433 119.5q46 51.5 46 135.5t-46 135t-123 51t-122.5 -51t-45.5 -135t45.5 -135.5t122.5 -51.5t123 51.5z" />
    <glyph glyph-name="p" unicode="p" horiz-adv-x="623" 
d="M456.5 489q54.5 -34 85.5 -95t31 -139t-31 -139.5t-85.5 -95.5t-122.5 -34q-56 0 -99 22t-71 64v-272h-88v710h88v-73q59 86 170 86q68 0 122.5 -34zM436.5 119.5q44.5 50.5 44.5 135.5q0 84 -44.5 134.5t-114.5 50.5q-56 0 -96 -28.5t-62 -78.5v-158q22 -49 62 -77.5
t96 -28.5q70 0 114.5 50.5z" />
    <glyph glyph-name="q" unicode="q" horiz-adv-x="623" 
d="M547 510v-710h-88v272q-28 -42 -71 -64t-99 -22q-68 0 -122.5 34t-85.5 95t-31 140q0 78 31 139t85.5 95t122.5 34q111 0 170 -86v73h88zM397.5 97.5q39.5 28.5 61.5 77.5v158q-22 50 -62 78.5t-95 28.5q-71 0 -115.5 -50.5t-44.5 -134.5q0 -86 44.5 -136t115.5 -50
q56 0 95.5 28.5z" />
    <glyph glyph-name="r" unicode="r" horiz-adv-x="400" 
d="M368 510v-81h-55q-53 0 -91 -21t-59 -56v-352h-90v510h90v-81q26 38 66 59.5t90 21.5h49z" />
    <glyph glyph-name="s" unicode="s" horiz-adv-x="515" 
d="M108.5 33q-59.5 47 -66.5 127h92q8 -45 42.5 -70.5t91.5 -25.5t90 21.5t33 59.5q0 39 -27.5 57.5t-101.5 23.5q-112 7 -158 41.5t-46 102.5q0 71 54 112t148 41t147.5 -40.5t64.5 -112.5h-91q-19 76 -122 76q-52 0 -82 -19t-30 -53q0 -24 10.5 -38t37.5 -22t78 -11
q114 -7 161 -43.5t47 -110.5q0 -76 -56.5 -119.5t-155.5 -43.5q-101 0 -160.5 47z" />
    <glyph glyph-name="t" unicode="t" horiz-adv-x="403" 
d="M147.5 35.5q-37.5 35.5 -37.5 99.5v294h-101v81h101v171h90v-171h175v-81h-175v-283q0 -33 17 -49.5t45 -16.5h116v-80h-121q-72 0 -109.5 35.5z" />
    <glyph glyph-name="u" unicode="u" horiz-adv-x="605" 
d="M529 510v-510h-91v75q-31 -42 -77.5 -65.5t-101.5 -23.5q-87 0 -138.5 55t-51.5 147v322h91v-302q0 -63 32 -101t92 -38q47 0 90.5 28t63.5 70v343h91z" />
    <glyph glyph-name="v" unicode="v" horiz-adv-x="502" 
d="M192 0l-168 510h91l135 -427h3l134 427h92l-169 -510h-118z" />
    <glyph glyph-name="w" unicode="w" horiz-adv-x="765" 
d="M652 510h89l-135 -510h-119l-104 364l-105 -364h-118l-136 510h89l108 -421h3l118 399h81l119 -399h3z" />
    <glyph glyph-name="x" unicode="x" horiz-adv-x="512" 
d="M492 0h-100l-139 199l-133 -199h-99l182 260l-175 250h100l125 -187l126 187h100l-176 -249z" />
    <glyph glyph-name="y" unicode="y" horiz-adv-x="505" 
d="M482 510l-216 -600q-21 -57 -52 -83.5t-88 -26.5h-86v80h80q27 0 42.5 12t25.5 39l26 71l-190 508h91l139 -394h3l134 394h91z" />
    <glyph glyph-name="z" unicode="z" horiz-adv-x="513" 
d="M41 0v71l316 355v3h-304v81h413v-80l-305 -347v-3h316v-80h-436z" />
    <glyph glyph-name="braceleft" unicode="{" horiz-adv-x="301" 
d="M126 -169q-40 31 -40 104q0 34 5 72t6 47q11 70 11 112q0 35 -16 56t-45 21h-15v66h15q29 0 45 20.5t16 54.5q0 41 -11 111q-1 8 -6 46t-5 72q0 74 40.5 105.5t104.5 31.5h42l1 -64q-102 0 -102 -90q0 -34 4 -70t5 -43q9 -61 9 -100q0 -53 -19.5 -78t-50.5 -28v-2
q31 -3 50.5 -28.5t19.5 -79.5q0 -38 -9 -101q-1 -8 -5 -44.5t-4 -70.5q0 -86 102 -86l-1 -65h-42q-65 0 -105 31z" />
    <glyph glyph-name="bar" unicode="|" horiz-adv-x="359" 
d="M142 750h74v-950h-74v950z" />
    <glyph glyph-name="braceright" unicode="}" horiz-adv-x="301" 
d="M27 -135q102 0 102 86q0 41 -10 115q-9 63 -9 101q0 54 20 79.5t51 28.5v2q-31 3 -51 28t-20 78q0 39 9 100q10 72 10 113q0 90 -102 90l1 64h42q64 0 104.5 -31.5t40.5 -105.5q0 -34 -5 -72t-6 -46q-11 -70 -11 -111q0 -34 16 -54.5t45 -20.5h15v-66h-15q-29 0 -45 -21
t-16 -56q0 -42 11 -112q1 -9 6 -47t5 -72q0 -73 -40 -104t-105 -31h-42z" />
    <glyph glyph-name="asciitilde" unicode="~" horiz-adv-x="479" 
d="M401 320q-28 -34 -80 -34q-27 0 -47 11.5t-47 34.5q-20 17 -33.5 25.5t-28.5 8.5q-25 0 -36 -18t-11 -48h-68q0 66 27 101t81 35q25 0 46 -12t45 -33q22 -18 36 -26.5t29 -8.5q25 0 36 18.5t11 48.5h68q0 -69 -28 -103z" />
    <glyph glyph-name="exclamdown" unicode="&#xa1;" horiz-adv-x="242" 
d="M76 381v129h91v-129h-91zM69 -200l21 479h62l21 -479h-104z" />
    <glyph glyph-name="cent" unicode="&#xa2;" horiz-adv-x="594" 
d="M458 165h92q-21 -78 -76 -124t-134 -54v-101h-54v101q-70 6 -123.5 42t-83 94.5t-29.5 131.5q0 72 29.5 131t83 94.5t123.5 41.5v101h54v-101q79 -8 133.5 -54.5t76.5 -126.5h-91q-44 100 -147 100q-78 0 -124 -51t-46 -135t46 -135.5t124 -51.5q104 0 146 97z" />
    <glyph glyph-name="sterling" unicode="&#xa3;" horiz-adv-x="456" 
d="M420 81v-81h-398v81h52v269h-50v77h50v114q0 103 53.5 156t154.5 53h94v-82h-79q-128 0 -128 -137v-104h138v-77h-138v-269h251z" />
    <glyph glyph-name="currency" unicode="&#xa4;" horiz-adv-x="598" 
d="M481 70l-68 68q-51 -39 -115 -39q-62 0 -114 38l-67 -66l-44 43l68 67q-38 52 -38 113q0 63 40 115l-68 68l44 43l67 -67q53 38 115 38t112 -37l67 67l44 -44l-67 -66q38 -52 38 -114q0 -65 -37 -115l67 -68zM393 202q41 41 41 96q0 56 -39 93q-39 38 -91 38
q-57 0 -98 -40q-20 -20 -30.5 -45.5t-10.5 -51.5q0 -53 39 -92t93 -39q55 0 96 41z" />
    <glyph glyph-name="yen" unicode="&#xa5;" horiz-adv-x="636" 
d="M610 750l-220 -449h136v-49h-160v-70h160v-49h-160v-133h-95v133h-160v49h160v70h-160v49h137l-220 449h99l190 -400h3l191 400h99z" />
    <glyph glyph-name="brokenbar" unicode="&#xa6;" horiz-adv-x="359" 
d="M142 750h74l-5 -395h-64zM147 195h64l5 -395h-74z" />
    <glyph glyph-name="section" unicode="&#xa7;" horiz-adv-x="532" 
d="M473.5 10.5q10.5 -25.5 10.5 -61.5q0 -76 -56.5 -119.5t-155.5 -43.5q-101 0 -160 47t-67 127h93q8 -45 42.5 -70.5t91.5 -25.5t90 22t33 61q0 25 -11 40t-39 24t-80 15q-104 9 -147.5 45t-43.5 101q0 55 38 95q-26 18 -37.5 42.5t-13.5 60.5q0 71 54 112t149 41
q94 0 147.5 -40.5t63.5 -112.5h-91q-19 76 -121 76q-52 0 -82.5 -19t-30.5 -53q0 -24 10.5 -37.5t37 -21t78.5 -12.5q105 -9 150 -46.5t45 -107.5q0 -57 -31 -95q23 -18 33.5 -43.5zM187 127.5q24 -17.5 89 -24.5q56 -7 84 -14q22 22 22 56t-26 54t-91 27q-47 5 -70 10
q-14 -9 -23 -24.5t-9 -34.5q0 -32 24 -49.5z" />
    <glyph glyph-name="dieresis" unicode="&#xa8;" horiz-adv-x="394" 
d="M50 750h80v-134h-80v134zM265 750h79v-134h-79v134z" />
    <glyph glyph-name="copyright" unicode="&#xa9;" horiz-adv-x="896" 
d="M781.5 179q-51.5 -89 -140 -141t-193.5 -52t-193.5 52t-140 141t-51.5 195q0 105 52 195t140 142.5t193 52.5t193.5 -52.5t140 -142.5t51.5 -195q0 -106 -51.5 -195zM179.5 213q41.5 -73 112.5 -115.5t156 -42.5t156 42.5t112.5 115.5t41.5 161t-41.5 161t-112.5 116
t-156 43t-156 -43t-112.5 -116t-41.5 -161t41.5 -161zM593 183q-59 -47 -140 -47q-66 0 -119.5 30.5t-84 85t-30.5 122.5t30.5 122.5t84 85t119.5 30.5q80 0 140 -46.5t81 -119.5h-69q-19 48 -59 74t-93 26q-47 0 -84.5 -23t-59 -62.5t-21.5 -86.5t21.5 -86.5t59 -62.5
t84.5 -23q53 0 93.5 27t57.5 76h70q-22 -75 -81 -122z" />
    <glyph glyph-name="ordfeminine" unicode="&#xaa;" horiz-adv-x="322" 
d="M146 482q-35 0 -64.5 18t-47 50.5t-17.5 72.5q0 39 17.5 71.5t47 51t64.5 18.5q53 0 87 -44v37h57v-268h-57v37q-34 -44 -87 -44zM97.5 560q23.5 -25 56.5 -25q27 0 48 14.5t31 37.5v72q-10 22 -31 36.5t-48 14.5q-34 0 -57 -24.5t-23 -62.5t23.5 -63zM48 352v53h236v-53
h-236z" />
    <glyph glyph-name="guillemotleft" unicode="&#xab;" horiz-adv-x="495" 
d="M202 242v7l168 200h96l-170 -203l170 -204h-96zM26 242v7l168 200h96l-170 -203l170 -204h-96z" />
    <glyph glyph-name="registered" unicode="&#xae;" horiz-adv-x="663" 
d="M466.5 731q61.5 -36 97 -97.5t35.5 -134.5t-35.5 -135t-97 -98.5t-135.5 -36.5q-73 0 -134.5 36.5t-97.5 98.5t-36 135q0 72 36 134t97.5 98t134.5 36q74 0 135.5 -36zM437.5 313q48.5 29 76.5 78t28 108q0 58 -28 107t-76.5 78t-106.5 29t-106 -29t-76 -78t-28 -107
q0 -59 28 -108t76 -78t106 -29t106.5 29zM426.5 503.5q-13.5 -21.5 -38.5 -32.5l50 -109h-44l-44 101h-8h-58v-101h-41v276h99q47 0 72.5 -25t25.5 -62q0 -26 -13.5 -47.5zM385 513.5q15 13.5 15 37.5q0 23 -15 37t-45 14h-56v-102h56q30 0 45 13.5z" />
    <glyph glyph-name="macron" unicode="&#xaf;" horiz-adv-x="460" 
d="M50 700h360v-70h-360v70z" />
    <glyph glyph-name="degree" unicode="&#xb0;" horiz-adv-x="303" 
d="M88 514.5q-31 14.5 -51 44.5t-20 73q0 44 20 73.5t51 44t63 14.5q33 0 64 -14.5t51 -44t20 -73.5q0 -43 -20 -73t-51.5 -44.5t-63.5 -14.5t-63 14.5zM210 571.5q24 22.5 24 60.5t-24 60t-59 22q-34 0 -58 -22.5t-24 -59.5q0 -38 24 -60.5t58 -22.5q35 0 59 22.5z" />
    <glyph glyph-name="plusminus" unicode="&#xb1;" horiz-adv-x="610" 
d="M337 489h150v-60h-150v-151h-63v151h-152v60h152v154h63v-154zM122 164v61h365v-61h-365z" />
    <glyph glyph-name="two.sups" unicode="&#xb2;" horiz-adv-x="255" 
d="M233 506v-57h-204v38l119 133q18 20 18 41q0 17 -10 28t-28 11q-19 0 -29.5 -11t-10.5 -27v-4h-58v4q0 41 26 67.5t72 26.5t72.5 -26t26.5 -65q0 -36 -33 -74l-76 -85h115z" />
    <glyph glyph-name="three.sups" unicode="&#xb3;" horiz-adv-x="260" 
d="M228.5 581q11.5 -20 11.5 -43q0 -40 -30.5 -67.5t-78.5 -27.5q-47 0 -77 26.5t-30 65.5v12h63v-7q0 -18 13 -29t32 -11t31.5 11.5t12.5 30.5t-13 31.5t-32 12.5h-12v50h12q16 0 26.5 9.5t10.5 24.5t-10.5 24.5t-25.5 9.5q-16 0 -26 -9t-10 -25v-6h-58v12q0 34 26 57
t67 23q42 0 68 -24t26 -60q0 -35 -28 -58q20 -13 31.5 -33z" />
    <glyph glyph-name="acute" unicode="&#xb4;" horiz-adv-x="300" 
d="M153 752h97l-118 -133h-82z" />
    <glyph glyph-name="paragraph" unicode="&#xb6;" horiz-adv-x="690" 
d="M631 698h-93v-898h-69v898h-84v-898h-69v490h-19q-74 0 -132 28t-90.5 79t-32.5 119q0 107 66.5 170.5t202.5 63.5h320v-52z" />
    <glyph glyph-name="periodcentered" unicode="&#xb7;" horiz-adv-x="216" 
d="M65 222v136h86v-136h-86z" />
    <glyph glyph-name="cedilla" unicode="&#xb8;" horiz-adv-x="243" 
d="M77 -122q22 0 32.5 10t10.5 32v95h73v-104q0 -99 -99 -99h-44v66h27z" />
    <glyph glyph-name="one.sups" unicode="&#xb9;" horiz-adv-x="191" 
d="M99 750h56v-301h-64v233l-71 -37v62z" />
    <glyph glyph-name="ordmasculine" unicode="&#xba;" horiz-adv-x="331" 
d="M61 522.5q-41 40.5 -41 100.5q0 39 18.5 71.5t51.5 51t74 18.5t74 -18.5t52 -51t19 -71.5q0 -60 -41 -100.5t-104 -40.5q-62 0 -103 40.5zM227 559.5q25 25.5 25 63.5q0 37 -25 62t-63 25t-63 -25t-25 -62q0 -38 25 -63.5t63 -25.5t63 25.5zM47 405h234v-53h-234v53z" />
    <glyph glyph-name="guillemotright" unicode="&#xbb;" horiz-adv-x="495" 
d="M205 42l171 204l-171 203h97l168 -200v-7l-168 -200h-97zM29 42l171 204l-171 203h97l168 -200v-7l-168 -200h-97z" />
    <glyph glyph-name="onequarter" unicode="&#xbc;" horiz-adv-x="555" 
d="M129 750h56v-301h-64v233l-71 -37v62zM489 750h62l-478 -750h-61zM534 129v-51h-37v-78h-66v78h-136v46l136 177h66v-172h37zM354 129h77v99z" />
    <glyph glyph-name="onehalf" unicode="&#xbd;" horiz-adv-x="567" 
d="M129 750h56v-301h-64v233l-71 -37v62zM489 750h62l-478 -750h-61zM545 57v-57h-204v38l119 133q18 20 18 41q0 17 -10 28t-28 11q-19 0 -29.5 -11t-10.5 -27v-4h-58v4q0 41 26 67.5t72 26.5t72.5 -26t26.5 -65q0 -36 -33 -74l-76 -85h115z" />
    <glyph glyph-name="threequarters" unicode="&#xbe;" horiz-adv-x="594" 
d="M228.5 581q11.5 -20 11.5 -43q0 -40 -30.5 -67.5t-78.5 -27.5q-47 0 -77 26.5t-30 65.5v12h63v-7q0 -18 13 -29t32 -11t31.5 11.5t12.5 30.5t-13 31.5t-32 12.5h-12v50h12q16 0 26.5 9.5t10.5 24.5t-10.5 24.5t-25.5 9.5q-16 0 -26 -9t-10 -25v-6h-58v12q0 34 26 57
t67 23q42 0 68 -24t26 -60q0 -35 -28 -58q20 -13 31.5 -33zM528 750h62l-478 -750h-61zM573 129v-51h-37v-78h-66v78h-136v46l136 177h66v-172h37zM393 129h77v99z" />
    <glyph glyph-name="questiondown" unicode="&#xbf;" horiz-adv-x="549" 
d="M339 510v-114h-91v114h91zM497 17v-13q0 -59 -27.5 -109t-79.5 -79.5t-121 -29.5t-119.5 29.5t-77 76t-26.5 97.5q0 63 29 105t87 87l86 65v48h91v-82l-129 -97q-33 -25 -51 -54t-18 -66q0 -31 14.5 -59.5t44 -46.5t71.5 -18t73 18.5t47.5 49t16.5 65.5v13h89z" />
    <glyph glyph-name="Agrave" unicode="&#xc0;" horiz-adv-x="684" 
d="M554 0l-72 224h-279l-73 -224h-98l247 750h127l247 -750h-99zM229 304h227l-112 347h-3zM147 876v47l304 -42v-47z" />
    <glyph glyph-name="Aacute" unicode="&#xc1;" horiz-adv-x="684" 
d="M554 0l-72 224h-279l-73 -224h-98l247 750h127l247 -750h-99zM229 304h227l-112 347h-3zM231 881l304 42v-47l-304 -42v47z" />
    <glyph glyph-name="Acircumflex" unicode="&#xc2;" horiz-adv-x="684" 
d="M554 0l-72 224h-279l-73 -224h-98l247 750h127l247 -750h-99zM229 304h227l-112 347h-3zM476 886v-47l-131 40l-136 -40v47l134 41h3z" />
    <glyph glyph-name="Atilde" unicode="&#xc3;" horiz-adv-x="684" 
d="M554 0l-72 224h-279l-73 -224h-98l247 750h127l247 -750h-99zM229 304h227l-112 347h-3zM183 903h318v-46h-318v46z" />
    <glyph glyph-name="Adieresis" unicode="&#xc4;" horiz-adv-x="684" 
d="M554 0l-72 224h-279l-73 -224h-98l247 750h127l247 -750h-99zM229 304h227l-112 347h-3zM167 903h132v-46h-132v46zM384 903h132v-46h-132v46z" />
    <glyph glyph-name="Aring" unicode="&#xc5;" horiz-adv-x="684" 
d="M554 0l-72 224h-279l-73 -224h-98l247 750h127l247 -750h-99zM229 304h227l-112 347h-3zM275 842.5q-24 15.5 -24 44.5q0 28 24.5 44t66.5 16t66.5 -16t24.5 -44q0 -29 -24.5 -44.5t-66.5 -15.5q-43 0 -67 15.5zM398 886q0 30 -56 30t-56 -30q0 -28 56 -28t56 28z" />
    <glyph glyph-name="AE" unicode="&#xc6;" horiz-adv-x="922" 
d="M554 80h325v-80h-420v224h-220l-109 -224h-98l368 750h465v-80h-311v-229h264v-80h-264v-281zM278 304h181v366h-3z" />
    <glyph glyph-name="Ccedilla" unicode="&#xc7;" horiz-adv-x="800" 
d="M573 124.5q64 49.5 93 142.5h96q-28 -117 -103.5 -189t-186.5 -88v-81q0 -99 -99 -99h-44v66h27q22 0 32.5 10t10.5 32v68q-104 3 -185 54t-126.5 138t-45.5 197q0 112 47 200.5t131.5 138.5t191.5 50q132 0 223.5 -72t126.5 -202h-98q-67 184 -252 184q-81 0 -143 -37.5
t-96 -105.5t-34 -157q0 -88 34 -156t96 -105.5t143 -37.5q97 0 161 49.5z" />
    <glyph glyph-name="Egrave" unicode="&#xc8;" horiz-adv-x="596" 
d="M175 80h378v-80h-473v750h460v-80h-365v-229h317v-80h-317v-281zM146 876v47l304 -42v-47z" />
    <glyph glyph-name="Eacute" unicode="&#xc9;" horiz-adv-x="596" 
d="M175 80h378v-80h-473v750h460v-80h-365v-229h317v-80h-317v-281zM171 881l304 42v-47l-304 -42v47z" />
    <glyph glyph-name="Ecircumflex" unicode="&#xca;" horiz-adv-x="596" 
d="M175 80h378v-80h-473v750h460v-80h-365v-229h317v-80h-317v-281zM443 886v-47l-131 40l-136 -40v47l134 41h3z" />
    <glyph glyph-name="Edieresis" unicode="&#xcb;" horiz-adv-x="596" 
d="M175 80h378v-80h-473v750h460v-80h-365v-229h317v-80h-317v-281zM123 903h132v-46h-132v46zM340 903h132v-46h-132v46z" />
    <glyph glyph-name="Igrave" unicode="&#xcc;" horiz-adv-x="253" 
d="M7 851v46l204 -42v-46zM80 750h93v-750h-93v750z" />
    <glyph glyph-name="Iacute" unicode="&#xcd;" horiz-adv-x="253" 
d="M46 855l195 43v-47l-195 -42v46zM80 750h93v-750h-93v750z" />
    <glyph glyph-name="Icircumflex" unicode="&#xce;" horiz-adv-x="253" 
d="M80 750h93v-750h-93v750zM260 886v-47l-131 40l-136 -40v47l134 41h3z" />
    <glyph glyph-name="Idieresis" unicode="&#xcf;" horiz-adv-x="253" 
d="M-11 865h101v-44h-101v44zM163 865h101v-44h-101v44zM80 750h93v-750h-93v750z" />
    <glyph glyph-name="Eth" unicode="&#xd0;" horiz-adv-x="745" 
d="M526 703q86 -47 131 -131.5t45 -195.5q0 -112 -45 -197t-131 -132t-204 -47h-242v359h-69v48h69v343h241q119 0 205 -47zM535 167q71 80 71 209q0 128 -71.5 208t-215.5 80h-146v-257h183v-48h-183v-272h147q144 0 215 80z" />
    <glyph glyph-name="Ntilde" unicode="&#xd1;" horiz-adv-x="715" 
d="M80 0v750h103l359 -599h3v599h90v-750h-102l-360 599h-3v-599h-90zM198 903h318v-46h-318v46z" />
    <glyph glyph-name="Ograve" unicode="&#xd2;" horiz-adv-x="840" 
d="M226.5 36.5q-85.5 50.5 -133 139t-47.5 199.5t47.5 199.5t133 139t193.5 50.5t193 -50.5t132.5 -139t47.5 -199.5t-47.5 -199.5t-132.5 -139t-193 -50.5t-193.5 50.5zM564 113q63 38 97.5 106t34.5 155q0 88 -34.5 156t-97.5 106t-144 38q-82 0 -145 -38t-97.5 -106
t-34.5 -156q0 -87 34.5 -155t97.5 -106t145 -38q81 0 144 38zM268 876v47l304 -42v-47z" />
    <glyph glyph-name="Oacute" unicode="&#xd3;" horiz-adv-x="840" 
d="M226.5 36.5q-85.5 50.5 -133 139t-47.5 199.5t47.5 199.5t133 139t193.5 50.5t193 -50.5t132.5 -139t47.5 -199.5t-47.5 -199.5t-132.5 -139t-193 -50.5t-193.5 50.5zM564 113q63 38 97.5 106t34.5 155q0 88 -34.5 156t-97.5 106t-144 38q-82 0 -145 -38t-97.5 -106
t-34.5 -156q0 -87 34.5 -155t97.5 -106t145 -38q81 0 144 38zM268 881l304 42v-47l-304 -42v47z" />
    <glyph glyph-name="Ocircumflex" unicode="&#xd4;" horiz-adv-x="840" 
d="M226.5 36.5q-85.5 50.5 -133 139t-47.5 199.5t47.5 199.5t133 139t193.5 50.5t193 -50.5t132.5 -139t47.5 -199.5t-47.5 -199.5t-132.5 -139t-193 -50.5t-193.5 50.5zM564 113q63 38 97.5 106t34.5 155q0 88 -34.5 156t-97.5 106t-144 38q-82 0 -145 -38t-97.5 -106
t-34.5 -156q0 -87 34.5 -155t97.5 -106t145 -38q81 0 144 38zM553 886v-47l-131 40l-136 -40v47l134 41h3z" />
    <glyph glyph-name="Otilde" unicode="&#xd5;" horiz-adv-x="840" 
d="M226.5 36.5q-85.5 50.5 -133 139t-47.5 199.5t47.5 199.5t133 139t193.5 50.5t193 -50.5t132.5 -139t47.5 -199.5t-47.5 -199.5t-132.5 -139t-193 -50.5t-193.5 50.5zM564 113q63 38 97.5 106t34.5 155q0 88 -34.5 156t-97.5 106t-144 38q-82 0 -145 -38t-97.5 -106
t-34.5 -156q0 -87 34.5 -155t97.5 -106t145 -38q81 0 144 38zM261 903h318v-46h-318v46z" />
    <glyph glyph-name="Odieresis" unicode="&#xd6;" horiz-adv-x="840" 
d="M226.5 36.5q-85.5 50.5 -133 139t-47.5 199.5t47.5 199.5t133 139t193.5 50.5t193 -50.5t132.5 -139t47.5 -199.5t-47.5 -199.5t-132.5 -139t-193 -50.5t-193.5 50.5zM564 113q63 38 97.5 106t34.5 155q0 88 -34.5 156t-97.5 106t-144 38q-82 0 -145 -38t-97.5 -106
t-34.5 -156q0 -87 34.5 -155t97.5 -106t145 -38q81 0 144 38zM245 903h132v-46h-132v46zM462 903h132v-46h-132v46z" />
    <glyph glyph-name="multiply" unicode="&#xd7;" horiz-adv-x="609" 
d="M463 479l-112 -112l112 -112l-46 -46l-112 112l-113 -113l-45 47l112 112l-112 112l45 47l113 -113l112 112z" />
    <glyph glyph-name="Oslash" unicode="&#xd8;" horiz-adv-x="840" 
d="M701 640q44 -52 68 -119.5t24 -145.5q0 -111 -47.5 -199.5t-132.5 -139t-193 -50.5q-71 0 -132.5 22t-110.5 63l-65 -71h-74l101 110q-45 52 -69 119.5t-24 145.5q0 111 47.5 199.5t133 139t193.5 50.5q70 0 131.5 -22t110.5 -63l65 71h75zM203 179l396 432
q-74 63 -179 63q-82 0 -145 -38t-97.5 -106t-34.5 -156q0 -117 60 -195zM637 570l-397 -431q35 -31 80.5 -47.5t99.5 -16.5q81 0 144 38t97.5 106t34.5 155q0 117 -59 196z" />
    <glyph glyph-name="Ugrave" unicode="&#xd9;" horiz-adv-x="745" 
d="M641 132.5q-37 -70.5 -106 -108.5t-162 -38t-162 38t-106 108.5t-37 167.5v450h95v-456q0 -101 55.5 -161t154.5 -60t154.5 60t55.5 161v456h95v-450q0 -97 -37 -167.5zM201 876v47l304 -42v-47z" />
    <glyph glyph-name="Uacute" unicode="&#xda;" horiz-adv-x="745" 
d="M641 132.5q-37 -70.5 -106 -108.5t-162 -38t-162 38t-106 108.5t-37 167.5v450h95v-456q0 -101 55.5 -161t154.5 -60t154.5 60t55.5 161v456h95v-450q0 -97 -37 -167.5zM237 881l304 42v-47l-304 -42v47z" />
    <glyph glyph-name="Ucircumflex" unicode="&#xdb;" horiz-adv-x="745" 
d="M641 132.5q-37 -70.5 -106 -108.5t-162 -38t-162 38t-106 108.5t-37 167.5v450h95v-456q0 -101 55.5 -161t154.5 -60t154.5 60t55.5 161v456h95v-450q0 -97 -37 -167.5zM506 886v-47l-131 40l-136 -40v47l134 41h3z" />
    <glyph glyph-name="Udieresis" unicode="&#xdc;" horiz-adv-x="745" 
d="M641 132.5q-37 -70.5 -106 -108.5t-162 -38t-162 38t-106 108.5t-37 167.5v450h95v-456q0 -101 55.5 -161t154.5 -60t154.5 60t55.5 161v456h95v-450q0 -97 -37 -167.5zM198 903h132v-46h-132v46zM415 903h132v-46h-132v46z" />
    <glyph glyph-name="Yacute" unicode="&#xdd;" horiz-adv-x="636" 
d="M610 750l-244 -499v-251h-95v253l-243 497h99l190 -400h3l191 400h99zM192 881l304 42v-47l-304 -42v47z" />
    <glyph glyph-name="Thorn" unicode="&#xde;" horiz-adv-x="635" 
d="M485.5 586.5q59.5 -29.5 90.5 -83t31 -122.5t-31 -122.5t-90 -83.5t-142 -30h-169v-145h-95v750h95v-134h168q83 0 142.5 -29.5zM466.5 269q43.5 44 43.5 112q0 67 -43 110.5t-131 43.5h-161v-310h160q88 0 131.5 44z" />
    <glyph glyph-name="germandbls" unicode="&#xdf;" horiz-adv-x="677" 
d="M611 344q40 -56 40 -130q0 -107 -62.5 -167.5t-171.5 -60.5q-93 0 -149 48t-64 128h99q8 -45 38.5 -70.5t80.5 -25.5q61 0 95.5 39t34.5 108q0 70 -41 115t-133 45h-114v81h96q70 0 104 33.5t34 81.5q0 49 -35 81t-99 32h-53q-68 0 -108.5 -42.5t-40.5 -116.5v-584
q0 -66 -39.5 -102.5t-113.5 -36.5h-53v74h48q32 0 50 16.5t18 51.5v579q0 112 63 177.5t175 65.5h59q63 0 112.5 -24.5t77 -67t27.5 -95.5q0 -50 -24 -91.5t-68 -63.5q77 -22 117 -78z" />
    <glyph glyph-name="agrave" unicode="&#xe0;" horiz-adv-x="564" 
d="M454 473.5q40 -36.5 40 -103.5v-370h-89v76q-29 -43 -78 -66.5t-111 -23.5q-79 0 -127.5 42t-48.5 110q0 61 38 99.5t107 49.5l220 34v39q0 34 -17.5 51.5t-49.5 17.5h-250v81h252q74 0 114 -36.5zM339.5 88.5q47.5 29.5 65.5 76.5v84l-188 -31q-86 -14 -86 -80
q0 -37 28 -58t76 -21q57 0 104.5 29.5zM139 752h96l104 -133h-82z" />
    <glyph glyph-name="aacute" unicode="&#xe1;" horiz-adv-x="564" 
d="M454 473.5q40 -36.5 40 -103.5v-370h-89v76q-29 -43 -78 -66.5t-111 -23.5q-79 0 -127.5 42t-48.5 110q0 61 38 99.5t107 49.5l220 34v39q0 34 -17.5 51.5t-49.5 17.5h-250v81h252q74 0 114 -36.5zM339.5 88.5q47.5 29.5 65.5 76.5v84l-188 -31q-86 -14 -86 -80
q0 -37 28 -58t76 -21q57 0 104.5 29.5zM331 752h97l-118 -133h-82z" />
    <glyph glyph-name="acircumflex" unicode="&#xe2;" horiz-adv-x="564" 
d="M454 473.5q40 -36.5 40 -103.5v-370h-89v76q-29 -43 -78 -66.5t-111 -23.5q-79 0 -127.5 42t-48.5 110q0 61 38 99.5t107 49.5l220 34v39q0 34 -17.5 51.5t-49.5 17.5h-250v81h252q74 0 114 -36.5zM339.5 88.5q47.5 29.5 65.5 76.5v84l-188 -31q-86 -14 -86 -80
q0 -37 28 -58t76 -21q57 0 104.5 29.5zM432 619h-86l-67 71l-67 -71h-81l116 133h69z" />
    <glyph glyph-name="atilde" unicode="&#xe3;" horiz-adv-x="564" 
d="M454 473.5q40 -36.5 40 -103.5v-370h-89v76q-29 -43 -78 -66.5t-111 -23.5q-79 0 -127.5 42t-48.5 110q0 61 38 99.5t107 49.5l220 34v39q0 34 -17.5 51.5t-49.5 17.5h-250v81h252q74 0 114 -36.5zM339.5 88.5q47.5 29.5 65.5 76.5v84l-188 -31q-86 -14 -86 -80
q0 -37 28 -58t76 -21q57 0 104.5 29.5zM102 700h360v-70h-360v70z" />
    <glyph glyph-name="adieresis" unicode="&#xe4;" horiz-adv-x="564" 
d="M454 473.5q40 -36.5 40 -103.5v-370h-89v76q-29 -43 -78 -66.5t-111 -23.5q-79 0 -127.5 42t-48.5 110q0 61 38 99.5t107 49.5l220 34v39q0 34 -17.5 51.5t-49.5 17.5h-250v81h252q74 0 114 -36.5zM339.5 88.5q47.5 29.5 65.5 76.5v84l-188 -31q-86 -14 -86 -80
q0 -37 28 -58t76 -21q57 0 104.5 29.5zM134 750h80v-134h-80v134zM349 750h79v-134h-79v134z" />
    <glyph glyph-name="aring" unicode="&#xe5;" horiz-adv-x="564" 
d="M454 473.5q40 -36.5 40 -103.5v-370h-89v76q-29 -43 -78 -66.5t-111 -23.5q-79 0 -127.5 42t-48.5 110q0 61 38 99.5t107 49.5l220 34v39q0 34 -17.5 51.5t-49.5 17.5h-250v81h252q74 0 114 -36.5zM339.5 88.5q47.5 29.5 65.5 76.5v84l-188 -31q-86 -14 -86 -80
q0 -37 28 -58t76 -21q57 0 104.5 29.5zM221.5 634q-25.5 25 -25.5 61q0 35 25.5 60t60.5 25t60.5 -25t25.5 -60q0 -36 -25.5 -61t-60.5 -25t-60.5 25zM311 666.5q12 11.5 12 28.5q0 16 -12 27.5t-29 11.5t-29 -11.5t-12 -27.5q0 -17 12 -28.5t29 -11.5t29 11.5z" />
    <glyph glyph-name="ae" unicode="&#xe6;" horiz-adv-x="955" 
d="M906 237h-411q5 -81 48.5 -126t118.5 -45q51 0 88.5 20.5t55.5 53.5h95q-23 -68 -89.5 -111t-150.5 -43q-69 0 -123 31.5t-85 88.5q-32 -55 -92.5 -87.5t-142.5 -32.5q-80 0 -129 42t-49 110q0 61 38 99.5t107 49.5l220 34v39q0 34 -17.5 51.5t-49.5 17.5h-250v81h252
q51 0 86.5 -18t52.5 -51q33 39 79.5 60.5t101.5 21.5q73 0 129 -32t87.5 -90.5t31.5 -136.5q0 -18 -2 -27zM552 408q-42 -35 -54 -99h315q-10 65 -49 99.5t-105 34.5q-65 0 -107 -35zM339.5 88.5q47.5 29.5 65.5 76.5v84l-188 -31q-86 -14 -86 -80q0 -37 28 -58t76 -21
q57 0 104.5 29.5z" />
    <glyph glyph-name="ccedilla" unicode="&#xe7;" horiz-adv-x="594" 
d="M458 165h92q-20 -74 -70.5 -119.5t-122.5 -56.5v-80q0 -99 -99 -99h-44v66h27q22 0 32.5 10t10.5 32v69q-70 6 -123 42t-82 95t-29 131q0 77 33 138t92.5 95.5t136.5 34.5q89 0 151.5 -47.5t86.5 -134.5h-91q-44 100 -147 100q-78 0 -124 -51t-46 -135t46 -135.5
t124 -51.5q104 0 146 97z" />
    <glyph glyph-name="egrave" unicode="&#xe8;" horiz-adv-x="601" 
d="M553 237h-412q5 -81 48.5 -126t118.5 -45q51 0 88.5 20t56.5 54h94q-23 -68 -89.5 -111t-150.5 -43q-75 0 -133.5 34t-91 96t-32.5 142q0 76 33 136.5t91 94.5t132 34q73 0 129 -32t87.5 -90.5t31.5 -136.5q0 -18 -1 -27zM198 408.5q-42 -34.5 -54 -99.5h315
q-10 66 -48.5 100t-104.5 34t-108 -34.5zM150 752h96l104 -133h-82z" />
    <glyph glyph-name="eacute" unicode="&#xe9;" horiz-adv-x="601" 
d="M553 237h-412q5 -81 48.5 -126t118.5 -45q51 0 88.5 20t56.5 54h94q-23 -68 -89.5 -111t-150.5 -43q-75 0 -133.5 34t-91 96t-32.5 142q0 76 33 136.5t91 94.5t132 34q73 0 129 -32t87.5 -90.5t31.5 -136.5q0 -18 -1 -27zM198 408.5q-42 -34.5 -54 -99.5h315
q-10 66 -48.5 100t-104.5 34t-108 -34.5zM359 752h97l-118 -133h-82z" />
    <glyph glyph-name="ecircumflex" unicode="&#xea;" horiz-adv-x="601" 
d="M553 237h-412q5 -81 48.5 -126t118.5 -45q51 0 88.5 20t56.5 54h94q-23 -68 -89.5 -111t-150.5 -43q-75 0 -133.5 34t-91 96t-32.5 142q0 76 33 136.5t91 94.5t132 34q73 0 129 -32t87.5 -90.5t31.5 -136.5q0 -18 -1 -27zM198 408.5q-42 -34.5 -54 -99.5h315
q-10 66 -48.5 100t-104.5 34t-108 -34.5zM456 619h-86l-67 71l-67 -71h-81l116 133h69z" />
    <glyph glyph-name="edieresis" unicode="&#xeb;" horiz-adv-x="601" 
d="M553 237h-412q5 -81 48.5 -126t118.5 -45q51 0 88.5 20t56.5 54h94q-23 -68 -89.5 -111t-150.5 -43q-75 0 -133.5 34t-91 96t-32.5 142q0 76 33 136.5t91 94.5t132 34q73 0 129 -32t87.5 -90.5t31.5 -136.5q0 -18 -1 -27zM198 408.5q-42 -34.5 -54 -99.5h315
q-10 66 -48.5 100t-104.5 34t-108 -34.5zM159 750h80v-134h-80v134zM374 750h79v-134h-79v134z" />
    <glyph glyph-name="igrave" unicode="&#xec;" horiz-adv-x="302" 
d="M137 429h-114v81h204v-510h-90v429zM-23 752h96l104 -133h-82z" />
    <glyph glyph-name="iacute" unicode="&#xed;" horiz-adv-x="302" 
d="M137 429h-114v81h204v-510h-90v429zM170 752h97l-118 -133h-82z" />
    <glyph glyph-name="icircumflex" unicode="&#xee;" horiz-adv-x="302" 
d="M137 429h-114v81h204v-510h-90v429zM268 619h-86l-67 71l-67 -71h-81l116 133h69z" />
    <glyph glyph-name="idieresis" unicode="&#xef;" horiz-adv-x="302" 
d="M15 750h74v-134h-74v134zM158 750h74v-134h-74v134zM137 429h-114v81h204v-510h-90v429z" />
    <glyph glyph-name="eth" unicode="&#xf0;" horiz-adv-x="613" 
d="M524.5 456q46.5 -95 46.5 -200q0 -78 -33 -139.5t-92 -96t-136 -34.5q-76 0 -135 34.5t-92 96t-33 138.5t33 138t92 95.5t135 34.5q68 0 118 -37q-45 67 -103 125l-166 -38v53l120 27q-71 61 -141 97h124q52 -33 100 -78l144 33v-53l-100 -23q72 -78 118.5 -173z
M433 119.5q46 51.5 46 135.5t-46 135t-123 51t-122.5 -51t-45.5 -135t45.5 -135.5t122.5 -51.5t123 51.5z" />
    <glyph glyph-name="ntilde" unicode="&#xf1;" horiz-adv-x="615" 
d="M492.5 468q52.5 -55 52.5 -147v-321h-90v301q0 64 -33 101.5t-96 37.5q-49 0 -94.5 -29t-65.5 -72v-339h-90v510h90v-78q32 43 80 67t104 24q90 0 142.5 -55zM139 700h360v-70h-360v70z" />
    <glyph glyph-name="ograve" unicode="&#xf2;" horiz-adv-x="621" 
d="M175 20.5q-59 34.5 -92 96t-33 138.5t33 138t92 95.5t135 34.5q77 0 136 -34.5t92 -95.5t33 -138t-33 -138.5t-92 -96t-136 -34.5q-76 0 -135 34.5zM433 119.5q46 51.5 46 135.5t-46 135t-123 51t-122.5 -51t-45.5 -135t45.5 -135.5t122.5 -51.5t123 51.5zM154 752h96
l104 -133h-82z" />
    <glyph glyph-name="oacute" unicode="&#xf3;" horiz-adv-x="621" 
d="M175 20.5q-59 34.5 -92 96t-33 138.5t33 138t92 95.5t135 34.5q77 0 136 -34.5t92 -95.5t33 -138t-33 -138.5t-92 -96t-136 -34.5q-76 0 -135 34.5zM433 119.5q46 51.5 46 135.5t-46 135t-123 51t-122.5 -51t-45.5 -135t45.5 -135.5t122.5 -51.5t123 51.5zM363 752h97
l-118 -133h-82z" />
    <glyph glyph-name="ocircumflex" unicode="&#xf4;" horiz-adv-x="621" 
d="M175 20.5q-59 34.5 -92 96t-33 138.5t33 138t92 95.5t135 34.5q77 0 136 -34.5t92 -95.5t33 -138t-33 -138.5t-92 -96t-136 -34.5q-76 0 -135 34.5zM433 119.5q46 51.5 46 135.5t-46 135t-123 51t-122.5 -51t-45.5 -135t45.5 -135.5t122.5 -51.5t123 51.5zM461 619h-86
l-67 71l-67 -71h-81l116 133h69z" />
    <glyph glyph-name="otilde" unicode="&#xf5;" horiz-adv-x="621" 
d="M175 20.5q-59 34.5 -92 96t-33 138.5t33 138t92 95.5t135 34.5q77 0 136 -34.5t92 -95.5t33 -138t-33 -138.5t-92 -96t-136 -34.5q-76 0 -135 34.5zM433 119.5q46 51.5 46 135.5t-46 135t-123 51t-122.5 -51t-45.5 -135t45.5 -135.5t122.5 -51.5t123 51.5zM131 700h360
v-70h-360v70z" />
    <glyph glyph-name="odieresis" unicode="&#xf6;" horiz-adv-x="621" 
d="M175 20.5q-59 34.5 -92 96t-33 138.5t33 138t92 95.5t135 34.5q77 0 136 -34.5t92 -95.5t33 -138t-33 -138.5t-92 -96t-136 -34.5q-76 0 -135 34.5zM433 119.5q46 51.5 46 135.5t-46 135t-123 51t-122.5 -51t-45.5 -135t45.5 -135.5t122.5 -51.5t123 51.5zM163 750h80
v-134h-80v134zM378 750h79v-134h-79v134z" />
    <glyph glyph-name="divide" unicode="&#xf7;" horiz-adv-x="610" 
d="M263 476v136h85v-136h-85zM114 397h382v-62h-382v62zM263 121v136h85v-136h-85z" />
    <glyph glyph-name="oslash" unicode="&#xf8;" horiz-adv-x="621" 
d="M509 436q30 -35 46 -81.5t16 -99.5q0 -77 -33 -138.5t-92 -96t-136 -34.5q-98 0 -168 57l-40 -43h-60l69 74q-61 74 -61 181q0 77 33 138t92 95.5t135 34.5q98 0 168 -56l40 43h61zM172 140l247 264q-43 37 -109 37q-77 0 -122.5 -51t-45.5 -135q0 -68 30 -115zM448 370
l-247 -264q44 -38 109 -38q77 0 123 51.5t46 135.5q0 67 -31 115z" />
    <glyph glyph-name="ugrave" unicode="&#xf9;" horiz-adv-x="605" 
d="M529 510v-510h-91v75q-31 -42 -77.5 -65.5t-101.5 -23.5q-87 0 -138.5 55t-51.5 147v322h91v-302q0 -63 32 -101t92 -38q47 0 90.5 28t63.5 70v343h91zM146 752h96l104 -133h-82z" />
    <glyph glyph-name="uacute" unicode="&#xfa;" horiz-adv-x="605" 
d="M529 510v-510h-91v75q-31 -42 -77.5 -65.5t-101.5 -23.5q-87 0 -138.5 55t-51.5 147v322h91v-302q0 -63 32 -101t92 -38q47 0 90.5 28t63.5 70v343h91zM348 752h97l-118 -133h-82z" />
    <glyph glyph-name="ucircumflex" unicode="&#xfb;" horiz-adv-x="605" 
d="M529 510v-510h-91v75q-31 -42 -77.5 -65.5t-101.5 -23.5q-87 0 -138.5 55t-51.5 147v322h91v-302q0 -63 32 -101t92 -38q47 0 90.5 28t63.5 70v343h91zM449 619h-86l-67 71l-67 -71h-81l116 133h69z" />
    <glyph glyph-name="udieresis" unicode="&#xfc;" horiz-adv-x="605" 
d="M529 510v-510h-91v75q-31 -42 -77.5 -65.5t-101.5 -23.5q-87 0 -138.5 55t-51.5 147v322h91v-302q0 -63 32 -101t92 -38q47 0 90.5 28t63.5 70v343h91zM151 750h80v-134h-80v134zM366 750h79v-134h-79v134z" />
    <glyph glyph-name="yacute" unicode="&#xfd;" horiz-adv-x="505" 
d="M482 510l-216 -600q-21 -57 -52 -83.5t-88 -26.5h-86v80h80q27 0 42.5 12t25.5 39l26 71l-190 508h91l139 -394h3l134 394h91zM305 752h97l-118 -133h-82z" />
    <glyph glyph-name="thorn" unicode="&#xfe;" horiz-adv-x="623" 
d="M456.5 489q54.5 -34 85.5 -95t31 -139t-31 -139.5t-85.5 -95.5t-122.5 -34q-56 0 -99 22t-71 64v-272h-88v950h88v-313q59 86 170 86q68 0 122.5 -34zM436.5 119.5q44.5 50.5 44.5 135.5q0 84 -44.5 134.5t-114.5 50.5q-56 0 -96 -28.5t-62 -78.5v-158q22 -49 62 -77.5
t96 -28.5q70 0 114.5 50.5z" />
    <glyph glyph-name="ydieresis" unicode="&#xff;" horiz-adv-x="505" 
d="M482 510l-216 -600q-21 -57 -52 -83.5t-88 -26.5h-86v80h80q27 0 42.5 12t25.5 39l26 71l-190 508h91l139 -394h3l134 394h91zM105 750h80v-134h-80v134zM320 750h79v-134h-79v134z" />
    <glyph glyph-name="Amacron" unicode="&#x100;" horiz-adv-x="684" 
d="M554 0l-72 224h-279l-73 -224h-98l247 750h127l247 -750h-99zM229 304h227l-112 347h-3zM183 903h318v-46h-318v46z" />
    <glyph glyph-name="amacron" unicode="&#x101;" horiz-adv-x="564" 
d="M454 473.5q40 -36.5 40 -103.5v-370h-89v76q-29 -43 -78 -66.5t-111 -23.5q-79 0 -127.5 42t-48.5 110q0 61 38 99.5t107 49.5l220 34v39q0 34 -17.5 51.5t-49.5 17.5h-250v81h252q74 0 114 -36.5zM339.5 88.5q47.5 29.5 65.5 76.5v84l-188 -31q-86 -14 -86 -80
q0 -37 28 -58t76 -21q57 0 104.5 29.5zM102 700h360v-70h-360v70z" />
    <glyph glyph-name="Abreve" unicode="&#x102;" horiz-adv-x="684" 
d="M554 0l-72 224h-279l-73 -224h-98l247 750h127l247 -750h-99zM229 304h227l-112 347h-3zM210 913v22h43v-13q0 -14 6 -20t21 -6h124q16 0 22 6t6 20v13h43v-22q0 -28 -16.5 -44.5t-48.5 -16.5h-136q-64 0 -64 61z" />
    <glyph glyph-name="abreve" unicode="&#x103;" horiz-adv-x="564" 
d="M454 473.5q40 -36.5 40 -103.5v-370h-89v76q-29 -43 -78 -66.5t-111 -23.5q-79 0 -127.5 42t-48.5 110q0 61 38 99.5t107 49.5l220 34v39q0 34 -17.5 51.5t-49.5 17.5h-250v81h252q74 0 114 -36.5zM339.5 88.5q47.5 29.5 65.5 76.5v84l-188 -31q-86 -14 -86 -80
q0 -37 28 -58t76 -21q57 0 104.5 29.5zM155 635.5q-26 23.5 -26 67.5v29h74v-20q0 -41 44 -41h69q45 0 45 41v20h73v-29q0 -44 -27 -67.5t-80 -23.5h-92q-54 0 -80 23.5z" />
    <glyph glyph-name="Aogonek" unicode="&#x104;" horiz-adv-x="684" 
d="M545 -156q29 0 51 10v-54q-11 -6 -30.5 -10t-40.5 -4q-39 0 -62 17.5t-23 49.5q0 37 33.5 72.5t82.5 64.5l-75 234h-278l-73 -224h-98l247 750h127l247 -750q-61 -23 -106 -60.5t-45 -66.5t43 -29zM229 304h226l-111 347h-3z" />
    <glyph glyph-name="aogonek" unicode="&#x105;" horiz-adv-x="564" 
d="M407 -59q-38 -33 -38 -58q0 -26 38 -26q27 0 43 7v-62q-11 -6 -30.5 -10t-38.5 -4q-41 0 -63.5 18t-22.5 51q0 39 35 77t83 66h-8v76q-29 -43 -78 -66.5t-111 -23.5q-79 0 -127.5 42t-48.5 110q0 61 38 99.5t107 49.5l220 34v39q0 34 -17.5 51.5t-49.5 17.5h-250v81h252
q74 0 114 -36.5t40 -103.5v-370q-49 -26 -87 -59zM339.5 88.5q47.5 29.5 65.5 76.5v84l-188 -31q-86 -14 -86 -80q0 -37 28 -58t76 -21q57 0 104.5 29.5z" />
    <glyph glyph-name="Cacute" unicode="&#x106;" horiz-adv-x="800" 
d="M638 60q-92 -74 -226 -74q-107 0 -191.5 50t-131.5 138.5t-47 200.5t47 200.5t131.5 138.5t191.5 50q132 0 223.5 -72t126.5 -202h-98q-67 184 -252 184q-81 0 -143 -37.5t-96 -105.5t-34 -157q0 -88 34 -156t96 -105.5t143 -37.5q97 0 161 49.5t93 142.5h96
q-32 -133 -124 -207zM259 881l304 42v-47l-304 -42v47z" />
    <glyph glyph-name="cacute" unicode="&#x107;" horiz-adv-x="594" 
d="M464 33q-63 -47 -152 -47q-77 0 -136.5 34.5t-92.5 96t-33 138.5t33 138t92.5 95.5t136.5 34.5q89 0 151.5 -47.5t86.5 -134.5h-91q-44 100 -147 100q-78 0 -124 -51t-46 -135t46 -135.5t124 -51.5q104 0 146 97h92q-23 -85 -86 -132zM364 752h97l-118 -133h-82z" />
    <glyph glyph-name="Ccircumflex" unicode="&#x108;" horiz-adv-x="800" 
d="M638 60q-92 -74 -226 -74q-107 0 -191.5 50t-131.5 138.5t-47 200.5t47 200.5t131.5 138.5t191.5 50q132 0 223.5 -72t126.5 -202h-98q-67 184 -252 184q-81 0 -143 -37.5t-96 -105.5t-34 -157q0 -88 34 -156t96 -105.5t143 -37.5q97 0 161 49.5t93 142.5h96
q-32 -133 -124 -207zM545 886v-47l-131 40l-136 -40v47l134 41h3z" />
    <glyph glyph-name="ccircumflex" unicode="&#x109;" horiz-adv-x="594" 
d="M464 33q-63 -47 -152 -47q-77 0 -136.5 34.5t-92.5 96t-33 138.5t33 138t92.5 95.5t136.5 34.5q89 0 151.5 -47.5t86.5 -134.5h-91q-44 100 -147 100q-78 0 -124 -51t-46 -135t46 -135.5t124 -51.5q104 0 146 97h92q-23 -85 -86 -132zM462 619h-86l-67 71l-67 -71h-81
l116 133h69z" />
    <glyph glyph-name="Cdotaccent" unicode="&#x10a;" horiz-adv-x="800" 
d="M638 60q-92 -74 -226 -74q-107 0 -191.5 50t-131.5 138.5t-47 200.5t47 200.5t131.5 138.5t191.5 50q132 0 223.5 -72t126.5 -202h-98q-67 184 -252 184q-81 0 -143 -37.5t-96 -105.5t-34 -157q0 -88 34 -156t96 -105.5t143 -37.5q97 0 161 49.5t93 142.5h96
q-32 -133 -124 -207zM339 903h145v-46h-145v46z" />
    <glyph glyph-name="cdotaccent" unicode="&#x10b;" horiz-adv-x="594" 
d="M464 33q-63 -47 -152 -47q-77 0 -136.5 34.5t-92.5 96t-33 138.5t33 138t92.5 95.5t136.5 34.5q89 0 151.5 -47.5t86.5 -134.5h-91q-44 100 -147 100q-78 0 -124 -51t-46 -135t46 -135.5t124 -51.5q104 0 146 97h92q-23 -85 -86 -132zM272 750h80v-134h-80v134z" />
    <glyph glyph-name="Ccaron" unicode="&#x10c;" horiz-adv-x="800" 
d="M638 60q-92 -74 -226 -74q-107 0 -191.5 50t-131.5 138.5t-47 200.5t47 200.5t131.5 138.5t191.5 50q132 0 223.5 -72t126.5 -202h-98q-67 184 -252 184q-81 0 -143 -37.5t-96 -105.5t-34 -157q0 -88 34 -156t96 -105.5t143 -37.5q97 0 161 49.5t93 142.5h96
q-32 -133 -124 -207zM414 887l131 40v-47l-130 -42h-3l-134 42v47z" />
    <glyph glyph-name="ccaron" unicode="&#x10d;" horiz-adv-x="594" 
d="M464 33q-63 -47 -152 -47q-77 0 -136.5 34.5t-92.5 96t-33 138.5t33 138t92.5 95.5t136.5 34.5q89 0 151.5 -47.5t86.5 -134.5h-91q-44 100 -147 100q-78 0 -124 -51t-46 -135t46 -135.5t124 -51.5q104 0 146 97h92q-23 -85 -86 -132zM376 752h86l-116 -133h-69l-116 133
h81l67 -71z" />
    <glyph glyph-name="Dcaron" unicode="&#x10e;" horiz-adv-x="745" 
d="M526 703q86 -47 131 -131.5t45 -195.5q0 -112 -45 -197t-131 -132t-204 -47h-242v750h241q119 0 205 -47zM535 167q71 80 71 209q0 128 -71.5 208t-215.5 80h-146v-577h147q144 0 215 80zM315 887l131 40v-47l-130 -42h-3l-134 42v47z" />
    <glyph glyph-name="dcaron" unicode="&#x10f;" horiz-adv-x="726" 
d="M459 750h88v-750h-88v72q-28 -42 -71 -64t-99 -22q-68 0 -122.5 34t-85.5 95t-31 140q0 78 31 139t85.5 95t122.5 34q110 0 170 -85v312zM631 750h95l-69 -173h-69zM397 97.5q40 28.5 62 77.5v160q-22 49 -61.5 77t-95.5 28q-71 0 -115.5 -50.5t-44.5 -134.5
q0 -86 44.5 -136t115.5 -50q55 0 95 28.5z" />
    <glyph glyph-name="Dcroat" unicode="&#x110;" horiz-adv-x="745" 
d="M526 703q86 -47 131 -131.5t45 -195.5q0 -112 -45 -197t-131 -132t-204 -47h-242v359h-69v48h69v343h241q119 0 205 -47zM535 167q71 80 71 209q0 128 -71.5 208t-215.5 80h-146v-257h183v-48h-183v-272h147q144 0 215 80z" />
    <glyph glyph-name="dcroat" unicode="&#x111;" horiz-adv-x="623" 
d="M610 595h-63v-595h-88v72q-28 -42 -71 -64t-99 -22q-68 0 -122.5 34t-85.5 95t-31 140q0 78 31 139t85.5 95t122.5 34q110 0 170 -85v157h-176v58h176v97h88v-97h63v-58zM397 97.5q40 28.5 62 77.5v160q-22 49 -61.5 77t-95.5 28q-71 0 -115.5 -50.5t-44.5 -134.5
q0 -86 44.5 -136t115.5 -50q55 0 95 28.5z" />
    <glyph glyph-name="Emacron" unicode="&#x112;" horiz-adv-x="596" 
d="M175 80h378v-80h-473v750h460v-80h-365v-229h317v-80h-317v-281zM139 903h318v-46h-318v46z" />
    <glyph glyph-name="emacron" unicode="&#x113;" horiz-adv-x="601" 
d="M553 237h-412q5 -81 48.5 -126t118.5 -45q51 0 88.5 20t56.5 54h94q-23 -68 -89.5 -111t-150.5 -43q-75 0 -133.5 34t-91 96t-32.5 142q0 76 33 136.5t91 94.5t132 34q73 0 129 -32t87.5 -90.5t31.5 -136.5q0 -18 -1 -27zM198 408.5q-42 -34.5 -54 -99.5h315
q-10 66 -48.5 100t-104.5 34t-108 -34.5zM126 700h360v-70h-360v70z" />
    <glyph glyph-name="Ebreve" unicode="&#x114;" horiz-adv-x="596" 
d="M175 80h378v-80h-473v750h460v-80h-365v-229h317v-80h-317v-281zM166 913v22h43v-13q0 -14 6 -20t21 -6h124q16 0 22 6t6 20v13h43v-22q0 -28 -16.5 -44.5t-48.5 -16.5h-136q-64 0 -64 61z" />
    <glyph glyph-name="ebreve" unicode="&#x115;" horiz-adv-x="601" 
d="M553 237h-412q5 -81 48.5 -126t118.5 -45q51 0 88.5 20t56.5 54h94q-23 -68 -89.5 -111t-150.5 -43q-75 0 -133.5 34t-91 96t-32.5 142q0 76 33 136.5t91 94.5t132 34q73 0 129 -32t87.5 -90.5t31.5 -136.5q0 -18 -1 -27zM198 408.5q-42 -34.5 -54 -99.5h315
q-10 66 -48.5 100t-104.5 34t-108 -34.5zM179 635.5q-26 23.5 -26 67.5v29h74v-20q0 -41 44 -41h69q45 0 45 41v20h73v-29q0 -44 -27 -67.5t-80 -23.5h-92q-54 0 -80 23.5z" />
    <glyph glyph-name="Edotaccent" unicode="&#x116;" horiz-adv-x="596" 
d="M175 80h378v-80h-473v750h460v-80h-365v-229h317v-80h-317v-281zM226 903h145v-46h-145v46z" />
    <glyph glyph-name="edotaccent" unicode="&#x117;" horiz-adv-x="601" 
d="M553 237h-412q5 -81 48.5 -126t118.5 -45q51 0 88.5 20t56.5 54h94q-23 -68 -89.5 -111t-150.5 -43q-75 0 -133.5 34t-91 96t-32.5 142q0 76 33 136.5t91 94.5t132 34q73 0 129 -32t87.5 -90.5t31.5 -136.5q0 -18 -1 -27zM198 408.5q-42 -34.5 -54 -99.5h315
q-10 66 -48.5 100t-104.5 34t-108 -34.5zM266 750h80v-134h-80v134z" />
    <glyph glyph-name="Eogonek" unicode="&#x118;" horiz-adv-x="596" 
d="M466 -59q-38 -33 -38 -58q0 -26 38 -26q27 0 43 7v-62q-11 -6 -30.5 -10t-38.5 -4q-41 0 -63.5 18t-22.5 51q0 39 35 77t83 66h-392v750h460v-80h-365v-229h317v-80h-317v-281h378v-80q-49 -26 -87 -59z" />
    <glyph glyph-name="eogonek" unicode="&#x119;" horiz-adv-x="601" 
d="M553 237h-412q5 -81 48.5 -126t118.5 -45q51 0 88.5 20t56.5 54h94q-16 -49 -57 -86.5t-97 -54.5q-49 -26 -86.5 -59t-37.5 -57q0 -26 38 -26q28 0 44 7v-62q-11 -6 -30.5 -10t-38.5 -4q-41 0 -63.5 18t-22.5 51q0 34 27.5 68t68.5 61q-71 3 -126 38t-85.5 95.5
t-30.5 138.5q0 76 33 136.5t91 94.5t132 34q73 0 129 -32t87.5 -90.5t31.5 -136.5q0 -18 -1 -27zM198 408.5q-42 -34.5 -54 -99.5h315q-10 66 -48.5 100t-104.5 34t-108 -34.5z" />
    <glyph glyph-name="Ecaron" unicode="&#x11a;" horiz-adv-x="596" 
d="M175 80h378v-80h-473v750h460v-80h-365v-229h317v-80h-317v-281zM311 887l131 40v-47l-130 -42h-3l-134 42v47z" />
    <glyph glyph-name="ecaron" unicode="&#x11b;" horiz-adv-x="601" 
d="M553 237h-412q5 -81 48.5 -126t118.5 -45q51 0 88.5 20t56.5 54h94q-23 -68 -89.5 -111t-150.5 -43q-75 0 -133.5 34t-91 96t-32.5 142q0 76 33 136.5t91 94.5t132 34q73 0 129 -32t87.5 -90.5t31.5 -136.5q0 -18 -1 -27zM198 408.5q-42 -34.5 -54 -99.5h315
q-10 66 -48.5 100t-104.5 34t-108 -34.5zM370 752h86l-116 -133h-69l-116 133h81l67 -71z" />
    <glyph glyph-name="Gcircumflex" unicode="&#x11c;" horiz-adv-x="802" 
d="M764 0h-79v142q-41 -74 -112 -115t-164 -41q-105 0 -189 50.5t-131 139.5t-47 199q0 111 47 200t131.5 139t191.5 50q126 0 218.5 -63.5t128.5 -175.5h-101q-29 71 -92.5 111t-152.5 40q-81 0 -143 -38t-96.5 -106.5t-34.5 -157.5q0 -88 34.5 -156.5t96.5 -107t143 -38.5
q108 0 178 63.5t84 171.5h-224v80h313v-387zM535 886v-47l-131 40l-136 -40v47l134 41h3z" />
    <glyph glyph-name="gcircumflex" unicode="&#x11d;" horiz-adv-x="618" 
d="M547 510v-545q0 -78 -44.5 -121.5t-129.5 -43.5h-211v79h209q41 0 64.5 23.5t23.5 69.5v108q-28 -40 -71.5 -62t-98.5 -22q-68 0 -122.5 33.5t-85.5 93.5t-31 137t31 136.5t85.5 93t122.5 33.5q110 0 170 -84v71h88zM397.5 105q39.5 28 61.5 77v154q-22 50 -61.5 78
t-95.5 28q-71 0 -115.5 -49.5t-44.5 -132.5q0 -84 44.5 -133.5t115.5 -49.5q56 0 95.5 28zM475 619h-86l-67 71l-67 -71h-81l116 133h69z" />
    <glyph glyph-name="Gbreve" unicode="&#x11e;" horiz-adv-x="802" 
d="M764 0h-79v142q-41 -74 -112 -115t-164 -41q-105 0 -189 50.5t-131 139.5t-47 199q0 111 47 200t131.5 139t191.5 50q126 0 218.5 -63.5t128.5 -175.5h-101q-29 71 -92.5 111t-152.5 40q-81 0 -143 -38t-96.5 -106.5t-34.5 -157.5q0 -88 34.5 -156.5t96.5 -107t143 -38.5
q108 0 178 63.5t84 171.5h-224v80h313v-387zM269 913v22h43v-13q0 -14 6 -20t21 -6h124q16 0 22 6t6 20v13h43v-22q0 -28 -16.5 -44.5t-48.5 -16.5h-136q-64 0 -64 61z" />
    <glyph glyph-name="gbreve" unicode="&#x11f;" horiz-adv-x="618" 
d="M547 510v-545q0 -78 -44.5 -121.5t-129.5 -43.5h-211v79h209q41 0 64.5 23.5t23.5 69.5v108q-28 -40 -71.5 -62t-98.5 -22q-68 0 -122.5 33.5t-85.5 93.5t-31 137t31 136.5t85.5 93t122.5 33.5q110 0 170 -84v71h88zM397.5 105q39.5 28 61.5 77v154q-22 50 -61.5 78
t-95.5 28q-71 0 -115.5 -49.5t-44.5 -132.5q0 -84 44.5 -133.5t115.5 -49.5q56 0 95.5 28zM198 635.5q-26 23.5 -26 67.5v29h74v-20q0 -41 44 -41h69q45 0 45 41v20h73v-29q0 -44 -27 -67.5t-80 -23.5h-92q-54 0 -80 23.5z" />
    <glyph glyph-name="Gdotaccent" unicode="&#x120;" horiz-adv-x="802" 
d="M764 0h-79v142q-41 -74 -112 -115t-164 -41q-105 0 -189 50.5t-131 139.5t-47 199q0 111 47 200t131.5 139t191.5 50q126 0 218.5 -63.5t128.5 -175.5h-101q-29 71 -92.5 111t-152.5 40q-81 0 -143 -38t-96.5 -106.5t-34.5 -157.5q0 -88 34.5 -156.5t96.5 -107t143 -38.5
q108 0 178 63.5t84 171.5h-224v80h313v-387zM329 903h145v-46h-145v46z" />
    <glyph glyph-name="gdotaccent" unicode="&#x121;" horiz-adv-x="618" 
d="M547 510v-545q0 -78 -44.5 -121.5t-129.5 -43.5h-211v79h209q41 0 64.5 23.5t23.5 69.5v108q-28 -40 -71.5 -62t-98.5 -22q-68 0 -122.5 33.5t-85.5 93.5t-31 137t31 136.5t85.5 93t122.5 33.5q110 0 170 -84v71h88zM397.5 105q39.5 28 61.5 77v154q-22 50 -61.5 78
t-95.5 28q-71 0 -115.5 -49.5t-44.5 -132.5q0 -84 44.5 -133.5t115.5 -49.5q56 0 95.5 28zM285 750h80v-134h-80v134z" />
    <glyph glyph-name="uni0122" unicode="&#x122;" horiz-adv-x="802" 
d="M764 0h-79v142q-41 -74 -112 -115t-164 -41q-105 0 -189 50.5t-131 139.5t-47 199q0 111 47 200t131.5 139t191.5 50q126 0 218.5 -63.5t128.5 -175.5h-101q-29 71 -92.5 111t-152.5 40q-81 0 -143 -38t-96.5 -106.5t-34.5 -157.5q0 -88 34.5 -156.5t96.5 -107t143 -38.5
q108 0 178 63.5t84 171.5h-224v80h313v-387zM379 -70h85l-63 -124h-62z" />
    <glyph glyph-name="uni0123" unicode="&#x123;" horiz-adv-x="618" 
d="M547 510v-545q0 -78 -44.5 -121.5t-129.5 -43.5h-211v79h209q41 0 64.5 23.5t23.5 69.5v108q-28 -40 -71.5 -62t-98.5 -22q-68 0 -122.5 33.5t-85.5 93.5t-31 137t31 136.5t85.5 93t122.5 33.5q110 0 170 -84v71h88zM397.5 105q39.5 28 61.5 77v154q-22 50 -61.5 78
t-95.5 28q-71 0 -115.5 -49.5t-44.5 -132.5q0 -84 44.5 -133.5t115.5 -49.5q56 0 95.5 28zM328 750h72l-40 -131h-96z" />
    <glyph glyph-name="Hcircumflex" unicode="&#x124;" horiz-adv-x="699" 
d="M524 750h95v-750h-95v361h-349v-361h-95v750h95v-309h349v309zM483 886v-47l-131 40l-136 -40v47l134 41h3z" />
    <glyph glyph-name="hcircumflex" unicode="&#x125;" horiz-adv-x="615" 
d="M492.5 467.5q52.5 -55.5 52.5 -148.5v-319h-90v299q0 64 -33.5 102.5t-96.5 38.5q-49 0 -94 -28.5t-65 -71.5v-340h-90v750h90v-317q31 42 79 66t104 24q91 0 143.5 -55.5zM254 848v-47l-131 40l-136 -40v47l134 41h3z" />
    <glyph glyph-name="Hbar" unicode="&#x126;" horiz-adv-x="699" 
d="M682 619v-55h-63v-564h-95v361h-349v-361h-95v564h-63v55h63v131h95v-131h349v131h95v-131h63zM524 441v123h-349v-123h349z" />
    <glyph glyph-name="hbar" unicode="&#x127;" horiz-adv-x="615" 
d="M492.5 467.5q52.5 -55.5 52.5 -148.5v-319h-90v299q0 64 -33.5 102.5t-96.5 38.5q-49 0 -94 -28.5t-65 -71.5v-340h-90v595h-70v58h70v97h90v-97h166v-58h-166v-162q31 42 79 66t104 24q91 0 143.5 -55.5z" />
    <glyph glyph-name="Itilde" unicode="&#x128;" horiz-adv-x="253" 
d="M80 750h93v-750h-93v750zM-33 903h318v-46h-318v46z" />
    <glyph glyph-name="itilde" unicode="&#x129;" horiz-adv-x="302" 
d="M137 429h-114v81h204v-510h-90v429zM-38 700h360v-70h-360v70z" />
    <glyph glyph-name="Imacron" unicode="&#x12a;" horiz-adv-x="253" 
d="M-11 865h275v-44h-275v44zM80 750h93v-750h-93v750z" />
    <glyph glyph-name="imacron" unicode="&#x12b;" horiz-adv-x="302" 
d="M-2 702h241v-65h-241v65zM137 429h-114v81h204v-510h-90v429z" />
    <glyph glyph-name="Ibreve" unicode="&#x12c;" horiz-adv-x="253" 
d="M80 750h93v-750h-93v750zM-6 901v22h43v-13q0 -14 6 -20t21 -6h124q16 0 22 6t6 20v13h43v-22q0 -28 -16.5 -44.5t-48.5 -16.5h-136q-64 0 -64 61z" />
    <glyph glyph-name="ibreve" unicode="&#x12d;" horiz-adv-x="302" 
d="M137 429h-114v81h204v-510h-90v429zM-9 635.5q-26 23.5 -26 67.5v29h74v-20q0 -41 44 -41h69q45 0 45 41v20h73v-29q0 -44 -27 -67.5t-80 -23.5h-92q-54 0 -80 23.5z" />
    <glyph glyph-name="Iogonek" unicode="&#x12e;" horiz-adv-x="253" 
d="M84.5 -64q-36.5 -35 -36.5 -61q0 -28 40 -28q23 0 42 8v-56q-24 -13 -66 -13q-38 0 -60 17.5t-22 48.5q0 34 28 68.5t70 64.5v765h93v-750q-52 -29 -88.5 -64z" />
    <glyph glyph-name="iogonek" unicode="&#x12f;" horiz-adv-x="302" 
d="M137 750h90v-134h-90v134zM23 510h204v-510q-49 -26 -87 -59t-38 -58q0 -26 38 -26q27 0 43 7v-62q-11 -6 -30.5 -10t-38.5 -4q-41 0 -63.5 18t-22.5 51q0 37 32 73.5t77 63.5v435h-114v81z" />
    <glyph glyph-name="Idotaccent" unicode="&#x130;" horiz-adv-x="253" 
d="M44 865h165v-44h-165v44zM80 750h93v-750h-93v750z" />
    <glyph glyph-name="dotlessi" unicode="&#x131;" horiz-adv-x="302" 
d="M137 429h-114v81h204v-510h-90v429z" />
    <glyph glyph-name="IJ" unicode="&#x132;" horiz-adv-x="685" 
d="M80 750h93v-750h-93v750zM454 80q76 0 76 75v515h-163v80h258v-588q0 -78 -42 -120t-122 -42h-173v80h166z" />
    <glyph glyph-name="ij" unicode="&#x133;" horiz-adv-x="610" 
d="M137 616v134h90v-134h-90zM137 429h-114v81h204v-510h-90v429zM444 616v134h90v-134h-90zM391 -120q24 0 38.5 14t14.5 42v493h-116v81h206v-584q0 -59 -35 -92.5t-102 -33.5h-147v80h141z" />
    <glyph glyph-name="Jcircumflex" unicode="&#x134;" horiz-adv-x="432" 
d="M201 80q76 0 76 75v515h-163v80h258v-588q0 -78 -42 -120t-122 -42h-173v80h166zM377 886v-47l-131 40l-136 -40v47l134 41h3z" />
    <glyph glyph-name="jcircumflex" unicode="&#x135;" horiz-adv-x="307" 
d="M89 -120q24 0 38.5 14t14.5 42v493h-116v81h206v-584q0 -59 -35 -92.5t-102 -33.5h-147v80h141zM273 619h-86l-67 71l-67 -71h-81l116 133h69z" />
    <glyph glyph-name="uni0136" unicode="&#x136;" horiz-adv-x="660" 
d="M534 0l-256 361h-103v-361h-95v750h95v-309h102l243 309h114l-274 -346l289 -404h-115zM305 -70h85l-63 -124h-62z" />
    <glyph glyph-name="uni0137" unicode="&#x137;" horiz-adv-x="533" 
d="M406 0l-173 231h-67v-231h-90v750h90v-445h66l167 205h106l-196 -238l205 -272h-108zM243 -70h85l-63 -124h-62z" />
    <glyph glyph-name="Lacute" unicode="&#x139;" horiz-adv-x="567" 
d="M368 886v-46l-272 -43v46zM175 80h356v-80h-451v750h95v-670z" />
    <glyph glyph-name="lacute" unicode="&#x13a;" horiz-adv-x="296" 
d="M60 850l169 44v-58l-169 -39v53zM107.5 32.5q-33.5 32.5 -33.5 89.5v548h-85v80h176v-620q0 -50 48 -50h55v-80h-63q-64 0 -97.5 32.5z" />
    <glyph glyph-name="uni013B" unicode="&#x13b;" horiz-adv-x="567" 
d="M175 80h356v-80h-451v750h95v-670zM271 -70h85l-63 -124h-62z" />
    <glyph glyph-name="uni013C" unicode="&#x13c;" horiz-adv-x="296" 
d="M107.5 32.5q-33.5 32.5 -33.5 89.5v548h-85v80h176v-620q0 -50 48 -50h55v-80h-63q-64 0 -97.5 32.5zM152 -70h85l-63 -124h-62z" />
    <glyph glyph-name="Lcaron" unicode="&#x13d;" horiz-adv-x="567" 
d="M175 80h356v-80h-451v750h95v-670zM432 750l-75 -185h-69l50 185h94z" />
    <glyph glyph-name="lcaron" unicode="&#x13e;" horiz-adv-x="356" 
d="M107.5 32.5q-33.5 32.5 -33.5 89.5v548h-85v80h176v-620q0 -50 48 -50h55v-80h-63q-64 0 -97.5 32.5zM218 577l42 173h96l-69 -173h-69z" />
    <glyph glyph-name="Ldot" unicode="&#x13f;" horiz-adv-x="567" 
d="M175 80h356v-80h-451v750h95v-670zM440 457v-136h-79v136h79z" />
    <glyph glyph-name="ldot" unicode="&#x140;" horiz-adv-x="330" 
d="M107.5 32.5q-33.5 32.5 -33.5 89.5v548h-85v80h176v-620q0 -50 48 -50h55v-80h-63q-64 0 -97.5 32.5zM242 252v138h80v-138h-80z" />
    <glyph glyph-name="Lslash" unicode="&#x141;" horiz-adv-x="567" 
d="M175 80h356v-80h-451v309l-71 -23v77l71 24v363h95v-332l144 48v-78l-144 -47v-261z" />
    <glyph glyph-name="lslash" unicode="&#x142;" horiz-adv-x="296" 
d="M268 80v-80h-63q-64 0 -97.5 32.5t-33.5 89.5v184l-59 -29v81l59 28v284h-85v80h176v-320l62 30v-80l-62 -30v-220q0 -50 48 -50h55z" />
    <glyph glyph-name="Nacute" unicode="&#x143;" horiz-adv-x="715" 
d="M80 0v750h103l359 -599h3v599h90v-750h-102l-360 599h-3v-599h-90zM205 881l304 42v-47l-304 -42v47z" />
    <glyph glyph-name="nacute" unicode="&#x144;" horiz-adv-x="615" 
d="M492.5 468q52.5 -55 52.5 -147v-321h-90v301q0 64 -33 101.5t-96 37.5q-49 0 -94.5 -29t-65.5 -72v-339h-90v510h90v-78q32 43 80 67t104 24q90 0 142.5 -55zM357 752h97l-118 -133h-82z" />
    <glyph glyph-name="uni0145" unicode="&#x145;" horiz-adv-x="715" 
d="M80 0v750h103l359 -599h3v599h90v-750h-102l-360 599h-3v-599h-90zM335 -70h85l-63 -124h-62z" />
    <glyph glyph-name="uni0146" unicode="&#x146;" horiz-adv-x="615" 
d="M492.5 468q52.5 -55 52.5 -147v-321h-90v301q0 64 -33 101.5t-96 37.5q-49 0 -94.5 -29t-65.5 -72v-339h-90v510h90v-78q32 43 80 67t104 24q90 0 142.5 -55zM284 -70h85l-63 -124h-62z" />
    <glyph glyph-name="Ncaron" unicode="&#x147;" horiz-adv-x="715" 
d="M80 0v750h103l359 -599h3v599h90v-750h-102l-360 599h-3v-599h-90zM360 887l131 40v-47l-130 -42h-3l-134 42v47z" />
    <glyph glyph-name="ncaron" unicode="&#x148;" horiz-adv-x="615" 
d="M492.5 468q52.5 -55 52.5 -147v-321h-90v301q0 64 -33 101.5t-96 37.5q-49 0 -94.5 -29t-65.5 -72v-339h-90v510h90v-78q32 43 80 67t104 24q90 0 142.5 -55zM384 752h86l-116 -133h-69l-116 133h81l67 -71z" />
    <glyph glyph-name="Eng" unicode="&#x14a;" horiz-adv-x="694" 
d="M635 750v-788q0 -78 -42 -120t-122 -42h-145v80h138q76 0 76 75v32l-367 612h-3v-599h-90v750h103l359 -599h3v599h90z" />
    <glyph glyph-name="eng" unicode="&#x14b;" horiz-adv-x="621" 
d="M492.5 468q52.5 -55 52.5 -147v-395q0 -60 -35 -93t-102 -33h-129v80h123q24 0 38.5 14t14.5 42v365q0 64 -33 101.5t-96 37.5q-49 0 -94.5 -29t-65.5 -72v-339h-90v510h90v-78q32 43 80 67t104 24q90 0 142.5 -55z" />
    <glyph glyph-name="Omacron" unicode="&#x14c;" horiz-adv-x="840" 
d="M226.5 36.5q-85.5 50.5 -133 139t-47.5 199.5t47.5 199.5t133 139t193.5 50.5t193 -50.5t132.5 -139t47.5 -199.5t-47.5 -199.5t-132.5 -139t-193 -50.5t-193.5 50.5zM564 113q63 38 97.5 106t34.5 155q0 88 -34.5 156t-97.5 106t-144 38q-82 0 -145 -38t-97.5 -106
t-34.5 -156q0 -87 34.5 -155t97.5 -106t145 -38q81 0 144 38zM261 903h318v-46h-318v46z" />
    <glyph glyph-name="omacron" unicode="&#x14d;" horiz-adv-x="621" 
d="M175 20.5q-59 34.5 -92 96t-33 138.5t33 138t92 95.5t135 34.5q77 0 136 -34.5t92 -95.5t33 -138t-33 -138.5t-92 -96t-136 -34.5q-76 0 -135 34.5zM433 119.5q46 51.5 46 135.5t-46 135t-123 51t-122.5 -51t-45.5 -135t45.5 -135.5t122.5 -51.5t123 51.5zM131 700h360
v-70h-360v70z" />
    <glyph glyph-name="Obreve" unicode="&#x14e;" horiz-adv-x="840" 
d="M226.5 36.5q-85.5 50.5 -133 139t-47.5 199.5t47.5 199.5t133 139t193.5 50.5t193 -50.5t132.5 -139t47.5 -199.5t-47.5 -199.5t-132.5 -139t-193 -50.5t-193.5 50.5zM564 113q63 38 97.5 106t34.5 155q0 88 -34.5 156t-97.5 106t-144 38q-82 0 -145 -38t-97.5 -106
t-34.5 -156q0 -87 34.5 -155t97.5 -106t145 -38q81 0 144 38zM288 913v22h43v-13q0 -14 6 -20t21 -6h124q16 0 22 6t6 20v13h43v-22q0 -28 -16.5 -44.5t-48.5 -16.5h-136q-64 0 -64 61z" />
    <glyph glyph-name="obreve" unicode="&#x14f;" horiz-adv-x="621" 
d="M175 20.5q-59 34.5 -92 96t-33 138.5t33 138t92 95.5t135 34.5q77 0 136 -34.5t92 -95.5t33 -138t-33 -138.5t-92 -96t-136 -34.5q-76 0 -135 34.5zM433 119.5q46 51.5 46 135.5t-46 135t-123 51t-122.5 -51t-45.5 -135t45.5 -135.5t122.5 -51.5t123 51.5zM184 635.5
q-26 23.5 -26 67.5v29h74v-20q0 -41 44 -41h69q45 0 45 41v20h73v-29q0 -44 -27 -67.5t-80 -23.5h-92q-54 0 -80 23.5z" />
    <glyph glyph-name="Ohungarumlaut" unicode="&#x150;" horiz-adv-x="840" 
d="M226.5 36.5q-85.5 50.5 -133 139t-47.5 199.5t47.5 199.5t133 139t193.5 50.5t193 -50.5t132.5 -139t47.5 -199.5t-47.5 -199.5t-132.5 -139t-193 -50.5t-193.5 50.5zM564 113q63 38 97.5 106t34.5 155q0 88 -34.5 156t-97.5 106t-144 38q-82 0 -145 -38t-97.5 -106
t-34.5 -156q0 -87 34.5 -155t97.5 -106t145 -38q81 0 144 38zM403 912h83l-126 -65h-81zM576 912h83l-126 -65h-81z" />
    <glyph glyph-name="ohungarumlaut" unicode="&#x151;" horiz-adv-x="621" 
d="M175 20.5q-59 34.5 -92 96t-33 138.5t33 138t92 95.5t135 34.5q77 0 136 -34.5t92 -95.5t33 -138t-33 -138.5t-92 -96t-136 -34.5q-76 0 -135 34.5zM433 119.5q46 51.5 46 135.5t-46 135t-123 51t-122.5 -51t-45.5 -135t45.5 -135.5t122.5 -51.5t123 51.5zM291 752h80
l-85 -133h-78zM425 752h81l-87 -133h-78z" />
    <glyph glyph-name="OE" unicode="&#x152;" horiz-adv-x="1260" 
d="M1216 80v-80h-473v172q-47 -87 -131.5 -136.5t-191.5 -49.5q-108 0 -193.5 50.5t-133 139t-47.5 199.5t47.5 199.5t133 139t193.5 50.5q107 0 191.5 -49.5t131.5 -136.5v172h460v-80h-365v-229h318v-80h-318v-281h378zM564 113q63 38 97.5 106t34.5 155q0 88 -34.5 156
t-97.5 106t-144 38q-82 0 -145 -38t-97.5 -106t-34.5 -156q0 -87 34.5 -155t97.5 -106t145 -38q81 0 144 38z" />
    <glyph glyph-name="oe" unicode="&#x153;" horiz-adv-x="1036" 
d="M988 237h-411q5 -81 48 -126t118 -45q51 0 88.5 20t56.5 54h95q-23 -68 -90 -111t-151 -43q-71 0 -126.5 32t-87.5 89q-33 -57 -89.5 -89t-128.5 -32q-76 0 -135 34.5t-92 96t-33 138.5t33 138t92 95.5t135 34.5q72 0 128.5 -32t89.5 -88q32 56 87.5 88t125.5 32
q73 0 129.5 -32t87.5 -90.5t31 -136.5q0 -18 -1 -27zM633.5 408.5q-41.5 -34.5 -53.5 -99.5h314q-10 66 -48.5 100t-104.5 34t-107.5 -34.5zM433 119.5q46 51.5 46 135.5t-46 135t-123 51t-122.5 -51t-45.5 -135t45.5 -135.5t122.5 -51.5t123 51.5z" />
    <glyph glyph-name="Racute" unicode="&#x154;" horiz-adv-x="608" 
d="M536.5 430.5q-40.5 -50.5 -115.5 -67.5l149 -363h-101l-144 355h-150v-355h-95v750h267q72 0 124 -25.5t79 -70t27 -102.5q0 -71 -40.5 -121.5zM175 435h166q69 0 103.5 33.5t34.5 84.5t-34 84t-103 33h-167v-235zM152 881l304 42v-47l-304 -42v47z" />
    <glyph glyph-name="racute" unicode="&#x155;" horiz-adv-x="400" 
d="M368 510v-81h-55q-53 0 -91 -21t-59 -56v-352h-90v510h90v-81q26 38 66 59.5t90 21.5h49zM274 752h97l-118 -133h-82z" />
    <glyph glyph-name="uni0156" unicode="&#x156;" horiz-adv-x="608" 
d="M536.5 430.5q-40.5 -50.5 -115.5 -67.5l149 -363h-101l-144 355h-150v-355h-95v750h267q72 0 124 -25.5t79 -70t27 -102.5q0 -71 -40.5 -121.5zM175 435h166q69 0 103.5 33.5t34.5 84.5t-34 84t-103 33h-167v-235zM279 -70h85l-63 -124h-62z" />
    <glyph glyph-name="uni0157" unicode="&#x157;" horiz-adv-x="400" 
d="M368 510v-81h-55q-53 0 -91 -21t-59 -56v-352h-90v510h90v-81q26 38 66 59.5t90 21.5h49zM77 -70h85l-63 -124h-62z" />
    <glyph glyph-name="Rcaron" unicode="&#x158;" horiz-adv-x="608" 
d="M536.5 430.5q-40.5 -50.5 -115.5 -67.5l149 -363h-101l-144 355h-150v-355h-95v750h267q72 0 124 -25.5t79 -70t27 -102.5q0 -71 -40.5 -121.5zM175 435h166q69 0 103.5 33.5t34.5 84.5t-34 84t-103 33h-167v-235zM307 887l131 40v-47l-130 -42h-3l-134 42v47z" />
    <glyph glyph-name="rcaron" unicode="&#x159;" horiz-adv-x="400" 
d="M368 510v-81h-55q-53 0 -91 -21t-59 -56v-352h-90v510h90v-81q26 38 66 59.5t90 21.5h49zM286 752h86l-116 -133h-69l-116 133h81l67 -71z" />
    <glyph glyph-name="Sacute" unicode="&#x15a;" horiz-adv-x="655" 
d="M124.5 58.5q-80.5 72.5 -83.5 200.5h98q2 -89 57 -139t151 -50q79 0 127 37t48 98q0 67 -46 99t-154 39q-131 10 -193.5 60.5t-62.5 147.5q0 63 32 111.5t90 75t134 26.5q127 0 200 -63t80 -178h-98q-6 77 -52.5 117.5t-128.5 40.5q-73 0 -117.5 -34t-44.5 -90
q0 -65 44.5 -95.5t151.5 -37.5q134 -9 197 -61t63 -152q0 -67 -33.5 -118t-95.5 -79t-144 -28q-139 0 -219.5 72.5zM183 881l304 42v-47l-304 -42v47z" />
    <glyph glyph-name="sacute" unicode="&#x15b;" horiz-adv-x="515" 
d="M108.5 33q-59.5 47 -66.5 127h92q8 -45 42.5 -70.5t91.5 -25.5t90 21.5t33 59.5q0 39 -27.5 57.5t-101.5 23.5q-112 7 -158 41.5t-46 102.5q0 71 54 112t148 41t147.5 -40.5t64.5 -112.5h-91q-19 76 -122 76q-52 0 -82 -19t-30 -53q0 -24 10.5 -38t37.5 -22t78 -11
q114 -7 161 -43.5t47 -110.5q0 -76 -56.5 -119.5t-155.5 -43.5q-101 0 -160.5 47zM313 752h97l-118 -133h-82z" />
    <glyph glyph-name="Scircumflex" unicode="&#x15c;" horiz-adv-x="655" 
d="M124.5 58.5q-80.5 72.5 -83.5 200.5h98q2 -89 57 -139t151 -50q79 0 127 37t48 98q0 67 -46 99t-154 39q-131 10 -193.5 60.5t-62.5 147.5q0 63 32 111.5t90 75t134 26.5q127 0 200 -63t80 -178h-98q-6 77 -52.5 117.5t-128.5 40.5q-73 0 -117.5 -34t-44.5 -90
q0 -65 44.5 -95.5t151.5 -37.5q134 -9 197 -61t63 -152q0 -67 -33.5 -118t-95.5 -79t-144 -28q-139 0 -219.5 72.5zM461 886v-47l-131 40l-136 -40v47l134 41h3z" />
    <glyph glyph-name="scircumflex" unicode="&#x15d;" horiz-adv-x="515" 
d="M108.5 33q-59.5 47 -66.5 127h92q8 -45 42.5 -70.5t91.5 -25.5t90 21.5t33 59.5q0 39 -27.5 57.5t-101.5 23.5q-112 7 -158 41.5t-46 102.5q0 71 54 112t148 41t147.5 -40.5t64.5 -112.5h-91q-19 76 -122 76q-52 0 -82 -19t-30 -53q0 -24 10.5 -38t37.5 -22t78 -11
q114 -7 161 -43.5t47 -110.5q0 -76 -56.5 -119.5t-155.5 -43.5q-101 0 -160.5 47zM410 619h-86l-67 71l-67 -71h-81l116 133h69z" />
    <glyph glyph-name="Scedilla" unicode="&#x15e;" horiz-adv-x="655" 
d="M554 57.5q-63 -59.5 -170 -69.5v-79q0 -99 -99 -99h-43v66h27q43 0 43 42v69q-125 8 -196.5 79.5t-74.5 192.5h98q2 -89 57 -139t151 -50q79 0 127 37t48 98q0 67 -46 99t-154 39q-131 10 -193.5 60.5t-62.5 147.5q0 63 32 111.5t90 75t134 26.5q127 0 200 -63t80 -178
h-98q-6 77 -52.5 117.5t-128.5 40.5q-73 0 -117.5 -34t-44.5 -90q0 -65 44.5 -95.5t151.5 -37.5q134 -9 197 -61t63 -152q0 -94 -63 -153.5z" />
    <glyph glyph-name="scedilla" unicode="&#x15f;" horiz-adv-x="515" 
d="M439 42q-42 -41 -117 -52v-81q0 -99 -99 -99h-44v66h27q43 0 43 42v69q-93 4 -146.5 50.5t-60.5 122.5h92q8 -45 42.5 -70.5t91.5 -25.5t90 21.5t33 59.5q0 39 -27.5 57.5t-101.5 23.5q-112 7 -158 41.5t-46 102.5q0 71 54 112t148 41t147.5 -40.5t64.5 -112.5h-91
q-19 76 -122 76q-52 0 -82 -19t-30 -53q0 -24 10.5 -38t37.5 -22t78 -11q114 -7 161 -43.5t47 -110.5q0 -66 -42 -107z" />
    <glyph glyph-name="Scaron" unicode="&#x160;" horiz-adv-x="655" 
d="M124.5 58.5q-80.5 72.5 -83.5 200.5h98q2 -89 57 -139t151 -50q79 0 127 37t48 98q0 67 -46 99t-154 39q-131 10 -193.5 60.5t-62.5 147.5q0 63 32 111.5t90 75t134 26.5q127 0 200 -63t80 -178h-98q-6 77 -52.5 117.5t-128.5 40.5q-73 0 -117.5 -34t-44.5 -90
q0 -65 44.5 -95.5t151.5 -37.5q134 -9 197 -61t63 -152q0 -67 -33.5 -118t-95.5 -79t-144 -28q-139 0 -219.5 72.5zM330 887l131 40v-47l-130 -42h-3l-134 42v47z" />
    <glyph glyph-name="scaron" unicode="&#x161;" horiz-adv-x="515" 
d="M108.5 33q-59.5 47 -66.5 127h92q8 -45 42.5 -70.5t91.5 -25.5t90 21.5t33 59.5q0 39 -27.5 57.5t-101.5 23.5q-112 7 -158 41.5t-46 102.5q0 71 54 112t148 41t147.5 -40.5t64.5 -112.5h-91q-19 76 -122 76q-52 0 -82 -19t-30 -53q0 -24 10.5 -38t37.5 -22t78 -11
q114 -7 161 -43.5t47 -110.5q0 -76 -56.5 -119.5t-155.5 -43.5q-101 0 -160.5 47zM324 752h86l-116 -133h-69l-116 133h81l67 -71z" />
    <glyph glyph-name="uni0162" unicode="&#x162;" horiz-adv-x="611" 
d="M585 750v-80h-232v-670h-13v-91q0 -99 -99 -99h-43v66h27q43 0 43 42v82h-10v670h-232v80h559z" />
    <glyph glyph-name="uni0163" unicode="&#x163;" horiz-adv-x="403" 
d="M378 0h-86v-91q0 -99 -99 -99h-44v66h27q22 0 32.5 10t10.5 32v85q-53 9 -81 43t-28 89v294h-101v81h101v171h90v-171h175v-81h-175v-283q0 -33 17 -49.5t45 -16.5h116v-80z" />
    <glyph glyph-name="Tcaron" unicode="&#x164;" horiz-adv-x="611" 
d="M258 0v670h-232v80h559v-80h-232v-670h-95zM308 887l131 40v-47l-130 -42h-3l-134 42v47z" />
    <glyph glyph-name="tcaron" unicode="&#x165;" horiz-adv-x="428" 
d="M290 592l37 158h96l-65 -158h-68zM147.5 35.5q-37.5 35.5 -37.5 99.5v294h-101v81h101v171h90v-171h175v-81h-175v-283q0 -33 17 -49.5t45 -16.5h116v-80h-121q-72 0 -109.5 35.5z" />
    <glyph glyph-name="Tbar" unicode="&#x166;" horiz-adv-x="611" 
d="M585 670h-232v-245h98v-56h-98v-369h-95v369h-97v56h97v245h-232v80h559v-80z" />
    <glyph glyph-name="tbar" unicode="&#x167;" horiz-adv-x="403" 
d="M378 80v-80h-121q-72 0 -109.5 35.5t-37.5 99.5v102h-71v59h71v133h-101v81h101v171h90v-171h175v-81h-175v-133h99v-59h-99v-91q0 -33 17 -49.5t45 -16.5h116z" />
    <glyph glyph-name="Utilde" unicode="&#x168;" horiz-adv-x="745" 
d="M641 132.5q-37 -70.5 -106 -108.5t-162 -38t-162 38t-106 108.5t-37 167.5v450h95v-456q0 -101 55.5 -161t154.5 -60t154.5 60t55.5 161v456h95v-450q0 -97 -37 -167.5zM214 903h318v-46h-318v46z" />
    <glyph glyph-name="utilde" unicode="&#x169;" horiz-adv-x="605" 
d="M529 510v-510h-91v75q-31 -42 -77.5 -65.5t-101.5 -23.5q-87 0 -138.5 55t-51.5 147v322h91v-302q0 -63 32 -101t92 -38q47 0 90.5 28t63.5 70v343h91zM118 700h360v-70h-360v70z" />
    <glyph glyph-name="Umacron" unicode="&#x16a;" horiz-adv-x="745" 
d="M641 132.5q-37 -70.5 -106 -108.5t-162 -38t-162 38t-106 108.5t-37 167.5v450h95v-456q0 -101 55.5 -161t154.5 -60t154.5 60t55.5 161v456h95v-450q0 -97 -37 -167.5zM214 903h318v-46h-318v46z" />
    <glyph glyph-name="umacron" unicode="&#x16b;" horiz-adv-x="605" 
d="M529 510v-510h-91v75q-31 -42 -77.5 -65.5t-101.5 -23.5q-87 0 -138.5 55t-51.5 147v322h91v-302q0 -63 32 -101t92 -38q47 0 90.5 28t63.5 70v343h91zM118 700h360v-70h-360v70z" />
    <glyph glyph-name="Ubreve" unicode="&#x16c;" horiz-adv-x="745" 
d="M641 132.5q-37 -70.5 -106 -108.5t-162 -38t-162 38t-106 108.5t-37 167.5v450h95v-456q0 -101 55.5 -161t154.5 -60t154.5 60t55.5 161v456h95v-450q0 -97 -37 -167.5zM240 913v22h43v-13q0 -14 6 -20t21 -6h124q16 0 22 6t6 20v13h43v-22q0 -28 -16.5 -44.5
t-48.5 -16.5h-136q-64 0 -64 61z" />
    <glyph glyph-name="ubreve" unicode="&#x16d;" horiz-adv-x="605" 
d="M529 510v-510h-91v75q-31 -42 -77.5 -65.5t-101.5 -23.5q-87 0 -138.5 55t-51.5 147v322h91v-302q0 -63 32 -101t92 -38q47 0 90.5 28t63.5 70v343h91zM171 635.5q-26 23.5 -26 67.5v29h74v-20q0 -41 44 -41h69q45 0 45 41v20h73v-29q0 -44 -27 -67.5t-80 -23.5h-92
q-54 0 -80 23.5z" />
    <glyph glyph-name="Uring" unicode="&#x16e;" horiz-adv-x="745" 
d="M641 132.5q-37 -70.5 -106 -108.5t-162 -38t-162 38t-106 108.5t-37 167.5v450h95v-456q0 -101 55.5 -161t154.5 -60t154.5 60t55.5 161v456h95v-450q0 -97 -37 -167.5zM305 842.5q-24 15.5 -24 44.5q0 28 24.5 44t66.5 16t66.5 -16t24.5 -44q0 -29 -24.5 -44.5
t-66.5 -15.5q-43 0 -67 15.5zM428 886q0 30 -56 30t-56 -30q0 -28 56 -28t56 28z" />
    <glyph glyph-name="uring" unicode="&#x16f;" horiz-adv-x="605" 
d="M529 510v-510h-91v75q-31 -42 -77.5 -65.5t-101.5 -23.5q-87 0 -138.5 55t-51.5 147v322h91v-302q0 -63 32 -101t92 -38q47 0 90.5 28t63.5 70v343h91zM237.5 634q-25.5 25 -25.5 61q0 35 25.5 60t60.5 25t60.5 -25t25.5 -60q0 -36 -25.5 -61t-60.5 -25t-60.5 25z
M327 666.5q12 11.5 12 28.5q0 16 -12 27.5t-29 11.5t-29 -11.5t-12 -27.5q0 -17 12 -28.5t29 -11.5t29 11.5z" />
    <glyph glyph-name="Uhungarumlaut" unicode="&#x170;" horiz-adv-x="745" 
d="M641 132.5q-37 -70.5 -106 -108.5t-162 -38t-162 38t-106 108.5t-37 167.5v450h95v-456q0 -101 55.5 -161t154.5 -60t154.5 60t55.5 161v456h95v-450q0 -97 -37 -167.5zM356 912h83l-126 -65h-81zM529 912h83l-126 -65h-81z" />
    <glyph glyph-name="uhungarumlaut" unicode="&#x171;" horiz-adv-x="605" 
d="M529 510v-510h-91v75q-31 -42 -77.5 -65.5t-101.5 -23.5q-87 0 -138.5 55t-51.5 147v322h91v-302q0 -63 32 -101t92 -38q47 0 90.5 28t63.5 70v343h91zM278 752h80l-85 -133h-78zM412 752h81l-87 -133h-78z" />
    <glyph glyph-name="Uogonek" unicode="&#x172;" horiz-adv-x="745" 
d="M678 750v-450q0 -131 -67 -213t-185 -98q-42 -27 -69.5 -58.5t-27.5 -55.5q0 -28 40 -28q23 0 42 8v-56q-24 -13 -66 -13q-38 0 -59.5 17.5t-21.5 48.5q0 36 27 71t67 63q-89 3 -154 42t-100.5 108.5t-35.5 163.5v450h95v-456q0 -101 55.5 -161t154.5 -60t154.5 60
t55.5 161v456h95z" />
    <glyph glyph-name="uogonek" unicode="&#x173;" horiz-adv-x="605" 
d="M442 -59q-38 -33 -38 -58q0 -26 38 -26q27 0 43 7v-62q-11 -6 -30.5 -10t-38.5 -4q-41 0 -63.5 18t-22.5 51q0 39 35 77t83 66h-10v75q-31 -42 -77.5 -65.5t-101.5 -23.5q-87 0 -138.5 55t-51.5 147v322h91v-302q0 -63 32 -101t92 -38q47 0 90.5 28t63.5 70v343h91v-510
q-49 -26 -87 -59z" />
    <glyph glyph-name="Wcircumflex" unicode="&#x174;" horiz-adv-x="1058" 
d="M929 750h98l-218 -750h-117l-163 579l-162 -579h-117l-218 750h97l178 -630h3l171 602h96l171 -602h4zM663 886v-47l-131 40l-136 -40v47l134 41h3z" />
    <glyph glyph-name="wcircumflex" unicode="&#x175;" horiz-adv-x="765" 
d="M652 510h89l-135 -510h-119l-104 364l-105 -364h-118l-136 510h89l108 -421h3l118 399h81l119 -399h3zM533 619h-86l-67 71l-67 -71h-81l116 133h69z" />
    <glyph glyph-name="Ycircumflex" unicode="&#x176;" horiz-adv-x="636" 
d="M610 750l-244 -499v-251h-95v253l-243 497h99l190 -400h3l191 400h99zM452 886v-47l-131 40l-136 -40v47l134 41h3z" />
    <glyph glyph-name="ycircumflex" unicode="&#x177;" horiz-adv-x="505" 
d="M482 510l-216 -600q-21 -57 -52 -83.5t-88 -26.5h-86v80h80q27 0 42.5 12t25.5 39l26 71l-190 508h91l139 -394h3l134 394h91zM403 619h-86l-67 71l-67 -71h-81l116 133h69z" />
    <glyph glyph-name="Ydieresis" unicode="&#x178;" horiz-adv-x="636" 
d="M610 750l-244 -499v-251h-95v253l-243 497h99l190 -400h3l191 400h99zM143 903h132v-46h-132v46zM360 903h132v-46h-132v46z" />
    <glyph glyph-name="Zacute" unicode="&#x179;" horiz-adv-x="656" 
d="M38 0v77l457 590v3h-439v80h550v-83l-452 -584v-3h464v-80h-580zM205 881l304 42v-47l-304 -42v47z" />
    <glyph glyph-name="zacute" unicode="&#x17a;" horiz-adv-x="513" 
d="M41 0v71l316 355v3h-304v81h413v-80l-305 -347v-3h316v-80h-436zM309 752h97l-118 -133h-82z" />
    <glyph glyph-name="Zdotaccent" unicode="&#x17b;" horiz-adv-x="656" 
d="M38 0v77l457 590v3h-439v80h550v-83l-452 -584v-3h464v-80h-580zM256 903h145v-46h-145v46z" />
    <glyph glyph-name="zdotaccent" unicode="&#x17c;" horiz-adv-x="513" 
d="M41 0v71l316 355v3h-304v81h413v-80l-305 -347v-3h316v-80h-436zM216 750h80v-134h-80v134z" />
    <glyph glyph-name="Zcaron" unicode="&#x17d;" horiz-adv-x="656" 
d="M38 0v77l457 590v3h-439v80h550v-83l-452 -584v-3h464v-80h-580zM330 887l131 40v-47l-130 -42h-3l-134 42v47z" />
    <glyph glyph-name="zcaron" unicode="&#x17e;" horiz-adv-x="513" 
d="M41 0v71l316 355v3h-304v81h413v-80l-305 -347v-3h316v-80h-436zM321 752h86l-116 -133h-69l-116 133h81l67 -71z" />
    <glyph glyph-name="florin" unicode="&#x192;" horiz-adv-x="332" 
d="M-3 -126h49q31 0 49 16.5t18 51.5v493h-101v75h101v101q0 66 39.5 102.5t113.5 36.5h54v-74h-49q-31 0 -49 -16.5t-18 -51.5v-98h116v-75h-116v-496q0 -66 -39.5 -102.5t-113.5 -36.5h-54v74z" />
    <glyph glyph-name="Aringacute" unicode="&#x1fa;" horiz-adv-x="684" 
d="M275 842.5q-24 15.5 -24 44.5q0 25 19.5 40.5t54.5 18.5l36 53h58l-48 -54q30 -5 46 -20t16 -38q0 -29 -24.5 -44.5t-66.5 -15.5q-43 0 -67 15.5zM286 886q0 -28 56 -28t56 28q0 30 -56 30t-56 -30zM554 0l-72 224h-279l-73 -224h-98l247 750h127l247 -750h-99zM229 304
h227l-112 347h-3z" />
    <glyph glyph-name="aringacute" unicode="&#x1fb;" horiz-adv-x="564" 
d="M221 634q-25 25 -25 61q0 30 18 52.5t47 29.5l64 97h97l-93 -108q18 -11 28 -30t10 -41q0 -36 -25 -61t-60 -25q-36 0 -61 25zM311 666.5q12 11.5 12 28.5q0 16 -12 27.5t-29 11.5t-29 -11.5t-12 -27.5q0 -17 12 -28.5t29 -11.5t29 11.5zM454 473.5q40 -36.5 40 -103.5
v-370h-89v76q-29 -43 -78 -66.5t-111 -23.5q-79 0 -127.5 42t-48.5 110q0 61 38 99.5t107 49.5l220 34v39q0 34 -17.5 51.5t-49.5 17.5h-250v81h252q74 0 114 -36.5zM339.5 88.5q47.5 29.5 65.5 76.5v84l-188 -31q-86 -14 -86 -80q0 -37 28 -58t76 -21q57 0 104.5 29.5z" />
    <glyph glyph-name="AEacute" unicode="&#x1fc;" horiz-adv-x="922" 
d="M554 80h325v-80h-420v224h-220l-109 -224h-98l368 750h465v-80h-311v-229h264v-80h-264v-281zM278 304h181v366h-3zM475 881l304 42v-47l-304 -42v47z" />
    <glyph glyph-name="aeacute" unicode="&#x1fd;" horiz-adv-x="955" 
d="M906 237h-411q5 -81 48.5 -126t118.5 -45q51 0 88.5 20.5t55.5 53.5h95q-23 -68 -89.5 -111t-150.5 -43q-69 0 -123 31.5t-85 88.5q-32 -55 -92.5 -87.5t-142.5 -32.5q-80 0 -129 42t-49 110q0 61 38 99.5t107 49.5l220 34v39q0 34 -17.5 51.5t-49.5 17.5h-250v81h252
q51 0 86.5 -18t52.5 -51q33 39 79.5 60.5t101.5 21.5q73 0 129 -32t87.5 -90.5t31.5 -136.5q0 -18 -2 -27zM552 408q-42 -35 -54 -99h315q-10 65 -49 99.5t-105 34.5q-65 0 -107 -35zM339.5 88.5q47.5 29.5 65.5 76.5v84l-188 -31q-86 -14 -86 -80q0 -37 28 -58t76 -21
q57 0 104.5 29.5zM530 752h97l-118 -133h-82z" />
    <glyph glyph-name="Oslashacute" unicode="&#x1fe;" horiz-adv-x="840" 
d="M701 640q44 -52 68 -119.5t24 -145.5q0 -111 -47.5 -199.5t-132.5 -139t-193 -50.5q-71 0 -132.5 22t-110.5 63l-65 -71h-74l101 110q-45 52 -69 119.5t-24 145.5q0 111 47.5 199.5t133 139t193.5 50.5q70 0 131.5 -22t110.5 -63l65 71h75zM203 179l396 432
q-74 63 -179 63q-82 0 -145 -38t-97.5 -106t-34.5 -156q0 -117 60 -195zM637 570l-397 -431q35 -31 80.5 -47.5t99.5 -16.5q81 0 144 38t97.5 106t34.5 155q0 117 -59 196zM268 881l304 42v-47l-304 -42v47z" />
    <glyph glyph-name="oslashacute" unicode="&#x1ff;" horiz-adv-x="621" 
d="M509 436q30 -35 46 -81.5t16 -99.5q0 -77 -33 -138.5t-92 -96t-136 -34.5q-98 0 -168 57l-40 -43h-60l69 74q-61 74 -61 181q0 77 33 138t92 95.5t135 34.5q98 0 168 -56l40 43h61zM172 140l247 264q-43 37 -109 37q-77 0 -122.5 -51t-45.5 -135q0 -68 30 -115zM448 370
l-247 -264q44 -38 109 -38q77 0 123 51.5t46 135.5q0 67 -31 115zM365 752h97l-118 -133h-82z" />
    <glyph glyph-name="uni0218" unicode="&#x218;" horiz-adv-x="655" 
d="M124.5 58.5q-80.5 72.5 -83.5 200.5h98q2 -89 57 -139t151 -50q79 0 127 37t48 98q0 67 -46 99t-154 39q-131 10 -193.5 60.5t-62.5 147.5q0 63 32 111.5t90 75t134 26.5q127 0 200 -63t80 -178h-98q-6 77 -52.5 117.5t-128.5 40.5q-73 0 -117.5 -34t-44.5 -90
q0 -65 44.5 -95.5t151.5 -37.5q134 -9 197 -61t63 -152q0 -67 -33.5 -118t-95.5 -79t-144 -28q-139 0 -219.5 72.5zM320 -70h85l-63 -124h-62z" />
    <glyph glyph-name="uni0219" unicode="&#x219;" horiz-adv-x="515" 
d="M108.5 33q-59.5 47 -66.5 127h92q8 -45 42.5 -70.5t91.5 -25.5t90 21.5t33 59.5q0 39 -27.5 57.5t-101.5 23.5q-112 7 -158 41.5t-46 102.5q0 71 54 112t148 41t147.5 -40.5t64.5 -112.5h-91q-19 76 -122 76q-52 0 -82 -19t-30 -53q0 -24 10.5 -38t37.5 -22t78 -11
q114 -7 161 -43.5t47 -110.5q0 -76 -56.5 -119.5t-155.5 -43.5q-101 0 -160.5 47zM250 -70h85l-63 -124h-62z" />
    <glyph glyph-name="uni021A" unicode="&#x21a;" horiz-adv-x="611" 
d="M258 0v670h-232v80h559v-80h-232v-670h-95zM264 -70h85l-63 -124h-62z" />
    <glyph glyph-name="uni021B" unicode="&#x21b;" horiz-adv-x="403" 
d="M147.5 35.5q-37.5 35.5 -37.5 99.5v294h-101v81h101v171h90v-171h175v-81h-175v-283q0 -33 17 -49.5t45 -16.5h116v-80h-121q-72 0 -109.5 35.5zM237 -70h85l-63 -124h-62z" />
    <glyph glyph-name="circumflex" unicode="&#x2c6;" horiz-adv-x="401" 
d="M351 619h-86l-67 71l-67 -71h-81l116 133h69z" />
    <glyph glyph-name="caron" unicode="&#x2c7;" horiz-adv-x="401" 
d="M265 752h86l-116 -133h-69l-116 133h81l67 -71z" />
    <glyph glyph-name="breve" unicode="&#x2d8;" horiz-adv-x="405" 
d="M76 635.5q-26 23.5 -26 67.5v29h74v-20q0 -41 44 -41h69q45 0 45 41v20h73v-29q0 -44 -27 -67.5t-80 -23.5h-92q-54 0 -80 23.5z" />
    <glyph glyph-name="dotaccent" unicode="&#x2d9;" horiz-adv-x="180" 
d="M50 750h80v-134h-80v134z" />
    <glyph glyph-name="ring" unicode="&#x2da;" horiz-adv-x="272" 
d="M75.5 634q-25.5 25 -25.5 61q0 35 25.5 60t60.5 25t60.5 -25t25.5 -60q0 -36 -25.5 -61t-60.5 -25t-60.5 25zM165 666.5q12 11.5 12 28.5q0 16 -12 27.5t-29 11.5t-29 -11.5t-12 -27.5q0 -17 12 -28.5t29 -11.5t29 11.5z" />
    <glyph glyph-name="ogonek" unicode="&#x2db;" horiz-adv-x="299" 
d="M72.5 -194q-22.5 18 -22.5 51q0 44 45.5 88t99.5 69l54 -14q-49 -26 -87 -59t-38 -58q0 -26 38 -26q27 0 43 7v-62q-11 -6 -30.5 -10t-38.5 -4q-41 0 -63.5 18z" />
    <glyph glyph-name="tilde" unicode="&#x2dc;" horiz-adv-x="413" 
d="M50 700h360v-70h-360v70z" />
    <glyph glyph-name="hungarumlaut" unicode="&#x2dd;" horiz-adv-x="398" 
d="M133 752h80l-85 -133h-78zM267 752h81l-87 -133h-78z" />
    <glyph glyph-name="gravecomb" unicode="&#x300;" 
d="M-200 752h96l104 -133h-82z" />
    <glyph glyph-name="acutecomb" unicode="&#x301;" 
d="M-97 752h97l-118 -133h-82z" />
    <glyph glyph-name="uni0302" unicode="&#x302;" 
d="M0 619h-86l-67 71l-67 -71h-81l116 133h69z" />
    <glyph glyph-name="tildecomb" unicode="&#x303;" 
d="M-360 700h360v-70h-360v70z" />
    <glyph glyph-name="uni0304" unicode="&#x304;" 
d="M-360 700h360v-70h-360v70z" />
    <glyph glyph-name="uni0306" unicode="&#x306;" 
d="M-279 635.5q-26 23.5 -26 67.5v29h74v-20q0 -41 44 -41h69q45 0 45 41v20h73v-29q0 -44 -27 -67.5t-80 -23.5h-92q-54 0 -80 23.5z" />
    <glyph glyph-name="uni0307" unicode="&#x307;" 
d="M-80 750h80v-134h-80v134z" />
    <glyph glyph-name="uni0308" unicode="&#x308;" 
d="M-294 750h80v-134h-80v134zM-79 750h79v-134h-79v134z" />
    <glyph glyph-name="uni030A" unicode="&#x30a;" 
d="M-146.5 634q-25.5 25 -25.5 61q0 35 25.5 60t60.5 25t60.5 -25t25.5 -60q0 -36 -25.5 -61t-60.5 -25t-60.5 25zM-57 666.5q12 11.5 12 28.5q0 16 -12 27.5t-29 11.5t-29 -11.5t-12 -27.5q0 -17 12 -28.5t29 -11.5t29 11.5z" />
    <glyph glyph-name="uni030B" unicode="&#x30b;" 
d="M-215 752h80l-85 -133h-78zM-81 752h81l-87 -133h-78z" />
    <glyph glyph-name="uni030C" unicode="&#x30c;" 
d="M-86 752h86l-116 -133h-69l-116 133h81l67 -71z" />
    <glyph glyph-name="uni0326" unicode="&#x326;" 
d="M-85 -70h85l-63 -124h-62z" />
    <glyph glyph-name="uni0327" unicode="&#x327;" 
d="M-116 -122q22 0 32.5 10t10.5 32v95h73v-104q0 -99 -99 -99h-44v66h27z" />
    <glyph glyph-name="uni0328" unicode="&#x328;" 
d="M-176.5 -194q-22.5 18 -22.5 51q0 44 45.5 88t99.5 69l54 -14q-49 -26 -87 -59t-38 -58q0 -26 38 -26q27 0 43 7v-62q-11 -6 -30.5 -10t-38.5 -4q-41 0 -63.5 18z" />
    <glyph glyph-name="pi" unicode="&#x3c0;" horiz-adv-x="636" 
d="M503 435v-335q0 -41 40 -41q21 0 32 7v-66q-19 -12 -54 -12q-51 0 -80 24.5t-29 77.5v345h-196v-435h-91v435h-93v75h572v-75h-101z" />
    <glyph glyph-name="uni060C" unicode="&#x60c;" horiz-adv-x="265" 
d="M129 -14h-95l105 281h68z" />
    <glyph glyph-name="uni060C" horiz-adv-x="265" 
d="M129 -14h-95l105 281h68z" />
    <glyph glyph-name="uni061B" unicode="&#x61b;" horiz-adv-x="265" 
d="M213 546l-78 -281h-93l104 281h67zM136 123v-136h-85v136h85z" />
    <glyph glyph-name="uni061B" horiz-adv-x="265" 
d="M213 546l-78 -281h-93l104 281h67zM136 123v-136h-85v136h85z" />
    <glyph glyph-name="uni061F" unicode="&#x61f;" horiz-adv-x="537" 
d="M381.5 734.5q51.5 -29.5 79.5 -79.5t28 -110v-13h-88v13q0 55 -37 94t-101 39q-42 0 -71.5 -18t-44.5 -46t-15 -58q0 -37 18.5 -66t51.5 -56l128 -104v-100h-88v65l-87 72q-58 48 -87.5 90.5t-29.5 103.5q0 51 26.5 97.5t77 76t119.5 29.5t120.5 -29.5zM242 0v128h88
v-128h-88z" />
    <glyph glyph-name="uni061F" horiz-adv-x="537" 
d="M381.5 734.5q51.5 -29.5 79.5 -79.5t28 -110v-13h-88v13q0 55 -37 94t-101 39q-42 0 -71.5 -18t-44.5 -46t-15 -58q0 -37 18.5 -66t51.5 -56l128 -104v-100h-88v65l-87 72q-58 48 -87.5 90.5t-29.5 103.5q0 51 26.5 97.5t77 76t119.5 29.5t120.5 -29.5zM242 0v128h88
v-128h-88z" />
    <glyph glyph-name="uni0621" unicode="&#x621;" horiz-adv-x="482" 
d="M425 90v-90h-395v90h75q-33 40 -33 104q0 82 48.5 130t140.5 48q36 0 69 -6t56 -15l-17 -83q-60 14 -111 14q-52 0 -79 -26.5t-27 -68.5q0 -46 21.5 -71.5t75.5 -25.5h176z" />
    <glyph glyph-name="uni0621" horiz-adv-x="482" 
d="M425 90v-90h-395v90h75q-33 40 -33 104q0 82 48.5 130t140.5 48q36 0 69 -6t56 -15l-17 -83q-60 14 -111 14q-52 0 -79 -26.5t-27 -68.5q0 -46 21.5 -71.5t75.5 -25.5h176z" />
    <glyph glyph-name="uni0622" unicode="&#x622;" horiz-adv-x="235" 
d="M78 613h79v-613h-79v613zM213.5 694q-19.5 -8 -39.5 -8q-14 0 -30 4t-30 9q-27 11 -43 11q-29 0 -61 -20l-18 45q13 10 34 18t42 8q13 0 23.5 -3t24.5 -9q15 -6 26 -9t25 -3q17 0 31 4.5t30 14.5l15 -45q-10 -9 -29.5 -17z" />
    <glyph glyph-name="uni0622" horiz-adv-x="235" 
d="M78 613h79v-613h-79v613zM213.5 694q-19.5 -8 -39.5 -8q-14 0 -30 4t-30 9q-27 11 -43 11q-29 0 -61 -20l-18 45q13 10 34 18t42 8q13 0 23.5 -3t24.5 -9q15 -6 26 -9t25 -3q17 0 31 4.5t30 14.5l15 -45q-10 -9 -29.5 -17z" />
    <glyph glyph-name="uni0623" unicode="&#x623;" horiz-adv-x="235" 
d="M78 613h79v-613h-79v613zM204 747v-51h-177v48h31q-16 18 -16 49q0 39 26.5 60.5t64.5 21.5q33 0 61 -13l-11 -43q-25 6 -50 6q-21 0 -34.5 -9.5t-13.5 -28.5q0 -21 9 -30.5t33 -9.5h77z" />
    <glyph glyph-name="uni0623" horiz-adv-x="235" 
d="M78 613h79v-613h-79v613zM204 747v-51h-177v48h31q-16 18 -16 49q0 39 26.5 60.5t64.5 21.5q33 0 61 -13l-11 -43q-25 6 -50 6q-21 0 -34.5 -9.5t-13.5 -28.5q0 -21 9 -30.5t33 -9.5h77z" />
    <glyph glyph-name="uni0624" unicode="&#x624;" horiz-adv-x="502" 
d="M366.5 407.5q45.5 -12.5 78.5 -30.5v-409q0 -90 -42.5 -133.5t-140.5 -43.5h-190v94h192q57 0 79.5 18.5t22.5 69.5v89q-39 -62 -140 -62q-95 0 -141.5 55t-46.5 138q0 67 28.5 118.5t81.5 80t123 28.5q50 0 95.5 -12.5zM319.5 106q31.5 12 46.5 34v165q-18 9 -45 15
t-58 6q-70 0 -106 -34t-36 -90q0 -48 31 -78t91 -30q45 0 76.5 12zM348 554v-51h-177v48h31q-16 18 -16 49q0 39 26.5 60.5t64.5 21.5q33 0 61 -13l-11 -43q-25 6 -50 6q-21 0 -34.5 -9.5t-13.5 -28.5q0 -21 9 -30.5t33 -9.5h77z" />
    <glyph glyph-name="uni0624" horiz-adv-x="502" 
d="M366.5 407.5q45.5 -12.5 78.5 -30.5v-409q0 -90 -42.5 -133.5t-140.5 -43.5h-190v94h192q57 0 79.5 18.5t22.5 69.5v89q-39 -62 -140 -62q-95 0 -141.5 55t-46.5 138q0 67 28.5 118.5t81.5 80t123 28.5q50 0 95.5 -12.5zM319.5 106q31.5 12 46.5 34v165q-18 9 -45 15
t-58 6q-70 0 -106 -34t-36 -90q0 -48 31 -78t91 -30q45 0 76.5 12zM348 554v-51h-177v48h31q-16 18 -16 49q0 39 26.5 60.5t64.5 21.5q33 0 61 -13l-11 -43q-25 6 -50 6q-21 0 -34.5 -9.5t-13.5 -28.5q0 -21 9 -30.5t33 -9.5h77z" />
    <glyph glyph-name="uni0625" unicode="&#x625;" horiz-adv-x="250" 
d="M78 713h79v-613h-79v613zM202 -89v-51h-177v48h31q-16 18 -16 49q0 39 26.5 60.5t64.5 21.5q33 0 61 -13l-11 -43q-25 6 -50 6q-21 0 -34.5 -9.5t-13.5 -28.5q0 -21 9 -30.5t33 -9.5h77z" />
    <glyph glyph-name="uni0625" horiz-adv-x="250" 
d="M78 713h79v-613h-79v613zM202 -89v-51h-177v48h31q-16 18 -16 49q0 39 26.5 60.5t64.5 21.5q33 0 61 -13l-11 -43q-25 6 -50 6q-21 0 -34.5 -9.5t-13.5 -28.5q0 -21 9 -30.5t33 -9.5h77z" />
    <glyph glyph-name="uni0626" unicode="&#x626;" horiz-adv-x="821" 
d="M175 -177q-79 36 -108.5 99.5t-29.5 159.5q0 55 10 111t24 85h79q-10 -32 -20 -82.5t-10 -104.5q0 -81 25.5 -126.5t86 -65t171.5 -19.5t171.5 13.5t82 36.5t21.5 56q0 38 -15 55.5t-52 23.5l-108 17q-68 11 -104.5 31t-52.5 57t-16 103q0 95 58.5 149t161.5 54
q47 0 95.5 -13t81.5 -33l-27 -80q-33 14 -68.5 23.5t-84.5 9.5q-69 0 -101.5 -26.5t-32.5 -83.5q0 -35 10.5 -54t34 -29t68.5 -17l96 -14q77 -11 108 -48.5t31 -117.5q0 -101 -81.5 -153.5t-282.5 -52.5q-143 0 -222 36zM196 411v-51h-177v48h31q-16 18 -16 49
q0 39 26.5 60.5t64.5 21.5q33 0 61 -13l-11 -43q-25 6 -50 6q-21 0 -34.5 -9.5t-13.5 -28.5q0 -21 9 -30.5t33 -9.5h77z" />
    <glyph glyph-name="uni0626" horiz-adv-x="821" 
d="M175 -177q-79 36 -108.5 99.5t-29.5 159.5q0 55 10 111t24 85h79q-10 -32 -20 -82.5t-10 -104.5q0 -81 25.5 -126.5t86 -65t171.5 -19.5t171.5 13.5t82 36.5t21.5 56q0 38 -15 55.5t-52 23.5l-108 17q-68 11 -104.5 31t-52.5 57t-16 103q0 95 58.5 149t161.5 54
q47 0 95.5 -13t81.5 -33l-27 -80q-33 14 -68.5 23.5t-84.5 9.5q-69 0 -101.5 -26.5t-32.5 -83.5q0 -35 10.5 -54t34 -29t68.5 -17l96 -14q77 -11 108 -48.5t31 -117.5q0 -101 -81.5 -153.5t-282.5 -52.5q-143 0 -222 36zM196 411v-51h-177v48h31q-16 18 -16 49
q0 39 26.5 60.5t64.5 21.5q33 0 61 -13l-11 -43q-25 6 -50 6q-21 0 -34.5 -9.5t-13.5 -28.5q0 -21 9 -30.5t33 -9.5h77z" />
    <glyph glyph-name="uni0627" unicode="&#x627;" horiz-adv-x="235" 
d="M78 705h79v-705h-79v705z" />
    <glyph glyph-name="uni0627" horiz-adv-x="235" 
d="M78 705h79v-705h-79v705z" />
    <glyph glyph-name="uni0628" unicode="&#x628;" horiz-adv-x="880" 
d="M133.5 26q-55.5 26 -76 73.5t-20.5 121.5q0 37 9 78t21 72h76q-10 -28 -18.5 -70t-8.5 -70q0 -52 17.5 -82t56 -43t103.5 -13h321q61 0 94 17t33 68v219h79v-211q0 -97 -53.5 -141.5t-161.5 -44.5h-314q-102 0 -157.5 26zM387 -93h79v-106h-79v106z" />
    <glyph glyph-name="uni0628" horiz-adv-x="880" 
d="M133.5 26q-55.5 26 -76 73.5t-20.5 121.5q0 37 9 78t21 72h76q-10 -28 -18.5 -70t-8.5 -70q0 -52 17.5 -82t56 -43t103.5 -13h321q61 0 94 17t33 68v219h79v-211q0 -97 -53.5 -141.5t-161.5 -44.5h-314q-102 0 -157.5 26zM387 -93h79v-106h-79v106z" />
    <glyph glyph-name="uni0629" unicode="&#x629;" horiz-adv-x="504" 
d="M444 484l-1 -298q0 -90 -49.5 -138t-151.5 -48q-105 0 -155 56t-50 142q0 67 29.5 118.5t84 80t127.5 28.5q44 0 87 -13v72h79zM336 114.5q29 21.5 29 59.5v146q-10 4 -36 8t-60 4q-75 0 -112 -33.5t-37 -90.5q0 -115 125 -115q62 0 91 21.5zM153 653h77v-106h-77v106z
M282 653h76v-106h-76v106z" />
    <glyph glyph-name="uni0629" horiz-adv-x="504" 
d="M444 484l-1 -298q0 -90 -49.5 -138t-151.5 -48q-105 0 -155 56t-50 142q0 67 29.5 118.5t84 80t127.5 28.5q44 0 87 -13v72h79zM336 114.5q29 21.5 29 59.5v146q-10 4 -36 8t-60 4q-75 0 -112 -33.5t-37 -90.5q0 -115 125 -115q62 0 91 21.5zM153 653h77v-106h-77v106z
M282 653h76v-106h-76v106z" />
    <glyph glyph-name="uni062A" unicode="&#x62a;" horiz-adv-x="880" 
d="M133.5 26q-55.5 26 -76 73.5t-20.5 121.5q0 37 9 78t21 72h76q-10 -28 -18.5 -70t-8.5 -70q0 -52 17.5 -82t56 -43t103.5 -13h321q61 0 94 17t33 68v219h79v-211q0 -97 -53.5 -141.5t-161.5 -44.5h-314q-102 0 -157.5 26zM330 524h77v-106h-77v106zM459 524h76v-106h-76
v106z" />
    <glyph glyph-name="uni062A" horiz-adv-x="880" 
d="M133.5 26q-55.5 26 -76 73.5t-20.5 121.5q0 37 9 78t21 72h76q-10 -28 -18.5 -70t-8.5 -70q0 -52 17.5 -82t56 -43t103.5 -13h321q61 0 94 17t33 68v219h79v-211q0 -97 -53.5 -141.5t-161.5 -44.5h-314q-102 0 -157.5 26zM330 524h77v-106h-77v106zM459 524h76v-106h-76
v106z" />
    <glyph glyph-name="uni062B" unicode="&#x62b;" horiz-adv-x="880" 
d="M133.5 26q-55.5 26 -76 73.5t-20.5 121.5q0 37 9 78t21 72h76q-10 -28 -18.5 -70t-8.5 -70q0 -52 17.5 -82t56 -43t103.5 -13h321q61 0 94 17t33 68v219h79v-211q0 -97 -53.5 -141.5t-161.5 -44.5h-314q-102 0 -157.5 26zM397 666h79v-103h-79v103zM332 527h76v-106h-76
v106zM463 527h76v-106h-76v106z" />
    <glyph glyph-name="uni062B" horiz-adv-x="880" 
d="M133.5 26q-55.5 26 -76 73.5t-20.5 121.5q0 37 9 78t21 72h76q-10 -28 -18.5 -70t-8.5 -70q0 -52 17.5 -82t56 -43t103.5 -13h321q61 0 94 17t33 68v219h79v-211q0 -97 -53.5 -141.5t-161.5 -44.5h-314q-102 0 -157.5 26zM397 666h79v-103h-79v103zM332 527h76v-106h-76
v106zM463 527h76v-106h-76v106z" />
    <glyph glyph-name="uni062C" unicode="&#x62c;" horiz-adv-x="659" 
d="M97.5 -254q-62.5 57 -62.5 152q0 81 47.5 138t156.5 57h241q37 0 37 32v86q0 64 -45.5 90t-115.5 26q-96 0 -185 -36l-22 80q44 21 94.5 35t120.5 14q92 0 163.5 -41.5t71.5 -156.5v-95q0 -127 -119 -127h-244q-65 0 -91 -26.5t-26 -69.5q0 -55 39.5 -88.5t142.5 -33.5
h194v-93h-201q-134 0 -196.5 57zM301 -71h71v-95h-71v95z" />
    <glyph glyph-name="uni062C" horiz-adv-x="659" 
d="M97.5 -254q-62.5 57 -62.5 152q0 81 47.5 138t156.5 57h241q37 0 37 32v86q0 64 -45.5 90t-115.5 26q-96 0 -185 -36l-22 80q44 21 94.5 35t120.5 14q92 0 163.5 -41.5t71.5 -156.5v-95q0 -127 -119 -127h-244q-65 0 -91 -26.5t-26 -69.5q0 -55 39.5 -88.5t142.5 -33.5
h194v-93h-201q-134 0 -196.5 57zM301 -71h71v-95h-71v95z" />
    <glyph glyph-name="uni062D" unicode="&#x62d;" horiz-adv-x="659" 
d="M97.5 -254q-62.5 57 -62.5 152q0 81 47.5 138t156.5 57h241q37 0 37 32v86q0 64 -45.5 90t-115.5 26q-96 0 -185 -36l-22 80q44 21 94.5 35t120.5 14q92 0 163.5 -41.5t71.5 -156.5v-95q0 -127 -119 -127h-244q-65 0 -91 -26.5t-26 -69.5q0 -55 39.5 -88.5t142.5 -33.5
h194v-93h-201q-134 0 -196.5 57z" />
    <glyph glyph-name="uni062D" horiz-adv-x="659" 
d="M97.5 -254q-62.5 57 -62.5 152q0 81 47.5 138t156.5 57h241q37 0 37 32v86q0 64 -45.5 90t-115.5 26q-96 0 -185 -36l-22 80q44 21 94.5 35t120.5 14q92 0 163.5 -41.5t71.5 -156.5v-95q0 -127 -119 -127h-244q-65 0 -91 -26.5t-26 -69.5q0 -55 39.5 -88.5t142.5 -33.5
h194v-93h-201q-134 0 -196.5 57z" />
    <glyph glyph-name="uni062E" unicode="&#x62e;" horiz-adv-x="659" 
d="M97.5 -254q-62.5 57 -62.5 152q0 81 47.5 138t156.5 57h241q37 0 37 32v86q0 64 -45.5 90t-115.5 26q-96 0 -185 -36l-22 80q44 21 94.5 35t120.5 14q92 0 163.5 -41.5t71.5 -156.5v-95q0 -127 -119 -127h-244q-65 0 -91 -26.5t-26 -69.5q0 -55 39.5 -88.5t142.5 -33.5
h194v-93h-201q-134 0 -196.5 57zM317 620h79v-106h-79v106z" />
    <glyph glyph-name="uni062E" horiz-adv-x="659" 
d="M97.5 -254q-62.5 57 -62.5 152q0 81 47.5 138t156.5 57h241q37 0 37 32v86q0 64 -45.5 90t-115.5 26q-96 0 -185 -36l-22 80q44 21 94.5 35t120.5 14q92 0 163.5 -41.5t71.5 -156.5v-95q0 -127 -119 -127h-244q-65 0 -91 -26.5t-26 -69.5q0 -55 39.5 -88.5t142.5 -33.5
h194v-93h-201q-134 0 -196.5 57zM317 620h79v-106h-79v106z" />
    <glyph glyph-name="uni062F" unicode="&#x62f;" horiz-adv-x="542" 
d="M352 377q81 -34 109.5 -79.5t27.5 -110.5l-1 -72q-1 -58 -31 -86.5t-92 -28.5h-325v93h366v86q0 42 -20.5 70.5t-85.5 51.5t-195 40l14 89q152 -19 233 -53z" />
    <glyph glyph-name="uni062F" horiz-adv-x="542" 
d="M352 377q81 -34 109.5 -79.5t27.5 -110.5l-1 -72q-1 -58 -31 -86.5t-92 -28.5h-325v93h366v86q0 42 -20.5 70.5t-85.5 51.5t-195 40l14 89q152 -19 233 -53z" />
    <glyph glyph-name="uni0630" unicode="&#x630;" horiz-adv-x="542" 
d="M352 377q81 -34 109.5 -79.5t27.5 -110.5l-1 -72q-1 -58 -31 -86.5t-92 -28.5h-325v93h366v86q0 42 -20.5 70.5t-85.5 51.5t-195 40l14 89q152 -19 233 -53zM208 643h79v-106h-79v106z" />
    <glyph glyph-name="uni0630" horiz-adv-x="542" 
d="M352 377q81 -34 109.5 -79.5t27.5 -110.5l-1 -72q-1 -58 -31 -86.5t-92 -28.5h-325v93h366v86q0 42 -20.5 70.5t-85.5 51.5t-195 40l14 89q152 -19 233 -53zM208 643h79v-106h-79v106z" />
    <glyph glyph-name="uni0631" unicode="&#x631;" horiz-adv-x="310" 
d="M89 -116q46 0 63.5 14.5t17.5 51.5v446h79v-444q0 -77 -35.5 -119t-122.5 -42h-97v93h95z" />
    <glyph glyph-name="uni0631" horiz-adv-x="310" 
d="M89 -116q46 0 63.5 14.5t17.5 51.5v446h79v-444q0 -77 -35.5 -119t-122.5 -42h-97v93h95z" />
    <glyph glyph-name="uni0632" unicode="&#x632;" horiz-adv-x="310" 
d="M89 -116q46 0 63.5 14.5t17.5 51.5v446h79v-444q0 -77 -35.5 -119t-122.5 -42h-97v93h95zM170 595h79v-106h-79v106z" />
    <glyph glyph-name="uni0632" horiz-adv-x="310" 
d="M89 -116q46 0 63.5 14.5t17.5 51.5v446h79v-444q0 -77 -35.5 -119t-122.5 -42h-97v93h95zM170 595h79v-106h-79v106z" />
    <glyph glyph-name="uni0633" unicode="&#x633;" horiz-adv-x="1220" 
d="M1160 395v-244q0 -76 -46 -113.5t-129 -37.5q-103 0 -134 53q-32 -53 -139 -53h-107q-13 -96 -82 -152t-205 -56q-152 0 -216.5 76.5t-64.5 199.5q0 54 11 110t25 87h80q-11 -33 -22 -84t-11 -106q0 -88 45.5 -139t158.5 -51t158.5 42t45.5 120v287h80v-241h106
q50 0 72 12t22 40v189h80v-211q26 -30 99 -30q50 0 72 13t22 45v244h79z" />
    <glyph glyph-name="uni0633" horiz-adv-x="1220" 
d="M1160 395v-244q0 -76 -46 -113.5t-129 -37.5q-103 0 -134 53q-32 -53 -139 -53h-107q-13 -96 -82 -152t-205 -56q-152 0 -216.5 76.5t-64.5 199.5q0 54 11 110t25 87h80q-11 -33 -22 -84t-11 -106q0 -88 45.5 -139t158.5 -51t158.5 42t45.5 120v287h80v-241h106
q50 0 72 12t22 40v189h80v-211q26 -30 99 -30q50 0 72 13t22 45v244h79z" />
    <glyph glyph-name="uni0634" unicode="&#x634;" horiz-adv-x="1220" 
d="M1160 395v-244q0 -76 -46 -113.5t-129 -37.5q-103 0 -134 53q-32 -53 -139 -53h-107q-13 -96 -82 -152t-205 -56q-152 0 -216.5 76.5t-64.5 199.5q0 54 11 110t25 87h80q-11 -33 -22 -84t-11 -106q0 -88 45.5 -139t158.5 -51t158.5 42t45.5 120v287h80v-241h106
q50 0 72 12t22 40v189h80v-211q26 -30 99 -30q50 0 72 13t22 45v244h79zM813 690h79v-103h-79v103zM748 551h76v-106h-76v106zM879 551h76v-106h-76v106z" />
    <glyph glyph-name="uni0634" horiz-adv-x="1220" 
d="M1160 395v-244q0 -76 -46 -113.5t-129 -37.5q-103 0 -134 53q-32 -53 -139 -53h-107q-13 -96 -82 -152t-205 -56q-152 0 -216.5 76.5t-64.5 199.5q0 54 11 110t25 87h80q-11 -33 -22 -84t-11 -106q0 -88 45.5 -139t158.5 -51t158.5 42t45.5 120v287h80v-241h106
q50 0 72 12t22 40v189h80v-211q26 -30 99 -30q50 0 72 13t22 45v244h79zM813 690h79v-103h-79v103zM748 551h76v-106h-76v106zM879 551h76v-106h-76v106z" />
    <glyph glyph-name="uni0635" unicode="&#x635;" horiz-adv-x="1175" 
d="M1063 366q52 -54 52 -157q0 -110 -59.5 -159.5t-176.5 -49.5h-274q-13 -96 -82 -152t-205 -56q-152 0 -216.5 76.5t-64.5 199.5q0 54 11 110t25 87h80q-11 -33 -22 -84t-11 -106q0 -88 45.5 -139t158.5 -51t158.5 42t45.5 120v339h80v-71q119 54 189 79.5t128 25.5
q86 0 138 -54zM997.5 116.5q35.5 23.5 35.5 87.5q0 62 -33 92.5t-89 30.5q-48 0 -116 -23.5t-187 -75.5v-135h271q83 0 118.5 23.5z" />
    <glyph glyph-name="uni0635" horiz-adv-x="1175" 
d="M1063 366q52 -54 52 -157q0 -110 -59.5 -159.5t-176.5 -49.5h-274q-13 -96 -82 -152t-205 -56q-152 0 -216.5 76.5t-64.5 199.5q0 54 11 110t25 87h80q-11 -33 -22 -84t-11 -106q0 -88 45.5 -139t158.5 -51t158.5 42t45.5 120v339h80v-71q119 54 189 79.5t128 25.5
q86 0 138 -54zM997.5 116.5q35.5 23.5 35.5 87.5q0 62 -33 92.5t-89 30.5q-48 0 -116 -23.5t-187 -75.5v-135h271q83 0 118.5 23.5z" />
    <glyph glyph-name="uni0636" unicode="&#x636;" horiz-adv-x="1175" 
d="M1063 366q52 -54 52 -157q0 -110 -59.5 -159.5t-176.5 -49.5h-274q-13 -96 -82 -152t-205 -56q-152 0 -216.5 76.5t-64.5 199.5q0 54 11 110t25 87h80q-11 -33 -22 -84t-11 -106q0 -88 45.5 -139t158.5 -51t158.5 42t45.5 120v339h80v-71q119 54 189 79.5t128 25.5
q86 0 138 -54zM997.5 116.5q35.5 23.5 35.5 87.5q0 62 -33 92.5t-89 30.5q-48 0 -116 -23.5t-187 -75.5v-135h271q83 0 118.5 23.5zM632 595h79v-106h-79v106z" />
    <glyph glyph-name="uni0636" horiz-adv-x="1175" 
d="M1063 366q52 -54 52 -157q0 -110 -59.5 -159.5t-176.5 -49.5h-274q-13 -96 -82 -152t-205 -56q-152 0 -216.5 76.5t-64.5 199.5q0 54 11 110t25 87h80q-11 -33 -22 -84t-11 -106q0 -88 45.5 -139t158.5 -51t158.5 42t45.5 120v339h80v-71q119 54 189 79.5t128 25.5
q86 0 138 -54zM997.5 116.5q35.5 23.5 35.5 87.5q0 62 -33 92.5t-89 30.5q-48 0 -116 -23.5t-187 -75.5v-135h271q83 0 118.5 23.5zM632 595h79v-106h-79v106z" />
    <glyph glyph-name="uni0637" unicode="&#x637;" horiz-adv-x="754" 
d="M641.5 365q52.5 -55 52.5 -159q0 -108 -59.5 -157t-175.5 -49h-429v93h96v612h79v-384l23 10q96 45 158 67t115 22q88 0 140.5 -55zM576.5 115.5q35.5 22.5 35.5 85.5q0 64 -33 95t-88 31q-46 0 -105.5 -21t-180.5 -73v-140h254q82 0 117.5 22.5z" />
    <glyph glyph-name="uni0637" horiz-adv-x="754" 
d="M641.5 365q52.5 -55 52.5 -159q0 -108 -59.5 -157t-175.5 -49h-429v93h96v612h79v-384l23 10q96 45 158 67t115 22q88 0 140.5 -55zM576.5 115.5q35.5 22.5 35.5 85.5q0 64 -33 95t-88 31q-46 0 -105.5 -21t-180.5 -73v-140h254q82 0 117.5 22.5z" />
    <glyph glyph-name="uni0638" unicode="&#x638;" horiz-adv-x="754" 
d="M641.5 365q52.5 -55 52.5 -159q0 -108 -59.5 -157t-175.5 -49h-429v93h96v612h79v-384l23 10q96 45 158 67t115 22q88 0 140.5 -55zM576.5 115.5q35.5 22.5 35.5 85.5q0 64 -33 95t-88 31q-46 0 -105.5 -21t-180.5 -73v-140h254q82 0 117.5 22.5zM438 625h79v-106h-79
v106z" />
    <glyph glyph-name="uni0638" horiz-adv-x="754" 
d="M641.5 365q52.5 -55 52.5 -159q0 -108 -59.5 -157t-175.5 -49h-429v93h96v612h79v-384l23 10q96 45 158 67t115 22q88 0 140.5 -55zM576.5 115.5q35.5 22.5 35.5 85.5q0 64 -33 95t-88 31q-46 0 -105.5 -21t-180.5 -73v-140h254q82 0 117.5 22.5zM438 625h79v-106h-79
v106z" />
    <glyph glyph-name="uni0639" unicode="&#x639;" horiz-adv-x="548" 
d="M510 -222v-93h-246q-130 0 -184.5 53t-54.5 144q0 66 36.5 110.5t103.5 66.5q-50 25 -67.5 62.5t-17.5 96.5q0 101 61 153t157 52q46 0 90 -9t67 -20l-23 -87q-70 22 -134 22q-68 0 -101.5 -29.5t-33.5 -81.5q0 -64 35 -94.5t122 -30.5h167v-93h-172q-86 0 -131.5 -15.5
t-60.5 -40t-15 -56.5q0 -49 35 -79.5t129 -30.5h238z" />
    <glyph glyph-name="uni0639" horiz-adv-x="548" 
d="M510 -222v-93h-246q-130 0 -184.5 53t-54.5 144q0 66 36.5 110.5t103.5 66.5q-50 25 -67.5 62.5t-17.5 96.5q0 101 61 153t157 52q46 0 90 -9t67 -20l-23 -87q-70 22 -134 22q-68 0 -101.5 -29.5t-33.5 -81.5q0 -64 35 -94.5t122 -30.5h167v-93h-172q-86 0 -131.5 -15.5
t-60.5 -40t-15 -56.5q0 -49 35 -79.5t129 -30.5h238z" />
    <glyph glyph-name="uni063A" unicode="&#x63a;" horiz-adv-x="548" 
d="M510 -222v-93h-246q-130 0 -184.5 53t-54.5 144q0 66 36.5 110.5t103.5 66.5q-50 25 -67.5 62.5t-17.5 96.5q0 101 61 153t157 52q46 0 90 -9t67 -20l-23 -87q-70 22 -134 22q-68 0 -101.5 -29.5t-33.5 -81.5q0 -64 35 -94.5t122 -30.5h167v-93h-172q-86 0 -131.5 -15.5
t-60.5 -40t-15 -56.5q0 -49 35 -79.5t129 -30.5h238zM259 622h79v-106h-79v106z" />
    <glyph glyph-name="uni063A" horiz-adv-x="548" 
d="M510 -222v-93h-246q-130 0 -184.5 53t-54.5 144q0 66 36.5 110.5t103.5 66.5q-50 25 -67.5 62.5t-17.5 96.5q0 101 61 153t157 52q46 0 90 -9t67 -20l-23 -87q-70 22 -134 22q-68 0 -101.5 -29.5t-33.5 -81.5q0 -64 35 -94.5t122 -30.5h167v-93h-172q-86 0 -131.5 -15.5
t-60.5 -40t-15 -56.5q0 -49 35 -79.5t129 -30.5h238zM259 622h79v-106h-79v106z" />
    <glyph glyph-name="uni0640" unicode="&#x640;" horiz-adv-x="213" 
d="M213 93l17 -10v-73l-17 -10h-213l-17 10v73l17 10h213z" />
    <glyph glyph-name="uni0640" horiz-adv-x="213" 
d="M213 93l17 -10v-73l-17 -10h-213l-17 10v73l17 10h213z" />
    <glyph glyph-name="uni0641" unicode="&#x641;" horiz-adv-x="937" 
d="M877 179q0 -92 -42.5 -135.5t-142.5 -43.5h-403q-99 0 -154 29t-76.5 81.5t-21.5 130.5q0 39 9 84t21 79h79q-10 -31 -18.5 -76.5t-8.5 -77.5q0 -60 17 -94t54 -48.5t99 -14.5h404q58 0 81 17t23 63v55q-40 -56 -136 -56q-89 0 -134.5 52.5t-45.5 128.5q0 63 28 111.5
t79 75.5t118 27q48 0 93 -13.5t77 -33.5zM797 306v143q-18 10 -44 17t-55 7q-66 0 -100 -29.5t-34 -79.5q0 -43 29 -71t86 -28q86 0 118 41zM664 765h79v-106h-79v106z" />
    <glyph glyph-name="uni0641" horiz-adv-x="937" 
d="M877 179q0 -92 -42.5 -135.5t-142.5 -43.5h-403q-99 0 -154 29t-76.5 81.5t-21.5 130.5q0 39 9 84t21 79h79q-10 -31 -18.5 -76.5t-8.5 -77.5q0 -60 17 -94t54 -48.5t99 -14.5h404q58 0 81 17t23 63v55q-40 -56 -136 -56q-89 0 -134.5 52.5t-45.5 128.5q0 63 28 111.5
t79 75.5t118 27q48 0 93 -13.5t77 -33.5zM797 306v143q-18 10 -44 17t-55 7q-66 0 -100 -29.5t-34 -79.5q0 -43 29 -71t86 -28q86 0 118 41zM664 765h79v-106h-79v106z" />
    <glyph glyph-name="uni0642" unicode="&#x642;" horiz-adv-x="783" 
d="M644.5 407.5q45.5 -12.5 78.5 -30.5v-393q0 -106 -57.5 -156.5t-190.5 -50.5h-147q-118 0 -181 28.5t-86.5 86.5t-23.5 156q0 52 10.5 102.5t22.5 81.5h79q-12 -35 -20.5 -83t-8.5 -94q0 -67 16 -106t61 -59t131 -20h150q62 0 97.5 10t52 35t16.5 71v76q-39 -62 -140 -62
q-95 0 -141.5 56t-46.5 140q0 66 28.5 117t81.5 79t123 28q50 0 95.5 -12.5zM597.5 106q31.5 12 46.5 34v165q-18 9 -45 15t-58 6q-70 0 -106 -33t-36 -88q0 -49 31 -80t91 -31q45 0 76.5 12zM446 620h77v-106h-77v106zM575 620h76v-106h-76v106z" />
    <glyph glyph-name="uni0642" horiz-adv-x="783" 
d="M644.5 407.5q45.5 -12.5 78.5 -30.5v-393q0 -106 -57.5 -156.5t-190.5 -50.5h-147q-118 0 -181 28.5t-86.5 86.5t-23.5 156q0 52 10.5 102.5t22.5 81.5h79q-12 -35 -20.5 -83t-8.5 -94q0 -67 16 -106t61 -59t131 -20h150q62 0 97.5 10t52 35t16.5 71v76q-39 -62 -140 -62
q-95 0 -141.5 56t-46.5 140q0 66 28.5 117t81.5 79t123 28q50 0 95.5 -12.5zM597.5 106q31.5 12 46.5 34v165q-18 9 -45 15t-58 6q-70 0 -106 -33t-36 -88q0 -49 31 -80t91 -31q45 0 76.5 12zM446 620h77v-106h-77v106zM575 620h76v-106h-76v106z" />
    <glyph glyph-name="uni0643" unicode="&#x643;" horiz-adv-x="858" 
d="M780 705v-519q0 -97 -53.5 -141.5t-161.5 -44.5h-274q-102 0 -157.5 26t-76 73.5t-20.5 121.5q0 37 9 78t21 72h76q-10 -28 -18.5 -70t-8.5 -70q0 -52 17.5 -82t56 -43t103.5 -13h281q61 0 94 17t33 68v527h79zM499.5 306.5q-26.5 -23.5 -78.5 -23.5h-111v63h111
q22 0 36 6t14 19q0 19 -29.5 34t-112.5 15l-5 80l181 90l12 -57l-126 -61q62 -4 98.5 -27.5t36.5 -71.5q0 -43 -26.5 -66.5z" />
    <glyph glyph-name="uni0643" horiz-adv-x="858" 
d="M780 705v-519q0 -97 -53.5 -141.5t-161.5 -44.5h-274q-102 0 -157.5 26t-76 73.5t-20.5 121.5q0 37 9 78t21 72h76q-10 -28 -18.5 -70t-8.5 -70q0 -52 17.5 -82t56 -43t103.5 -13h281q61 0 94 17t33 68v527h79zM499.5 306.5q-26.5 -23.5 -78.5 -23.5h-111v63h111
q22 0 36 6t14 19q0 19 -29.5 34t-112.5 15l-5 80l181 90l12 -57l-126 -61q62 -4 98.5 -27.5t36.5 -71.5q0 -43 -26.5 -66.5z" />
    <glyph glyph-name="uni0644" unicode="&#x644;" horiz-adv-x="652" 
d="M97.5 -71q-60.5 77 -60.5 204q0 52 11 107t25 85h79q-32 -100 -32 -185q0 -91 41.5 -143t147.5 -52q104 0 145 45t41 129v586h79v-585q0 -121 -63.5 -194.5t-207.5 -73.5q-145 0 -205.5 77z" />
    <glyph glyph-name="uni0644" horiz-adv-x="652" 
d="M97.5 -71q-60.5 77 -60.5 204q0 52 11 107t25 85h79q-32 -100 -32 -185q0 -91 41.5 -143t147.5 -52q104 0 145 45t41 129v586h79v-585q0 -121 -63.5 -194.5t-207.5 -73.5q-145 0 -205.5 77z" />
    <glyph glyph-name="uni0645" unicode="&#x645;" horiz-adv-x="703" 
d="M561.5 406.5q45.5 -13.5 78.5 -33.5v-220q0 -74 -47.5 -123t-155.5 -49q-69 0 -114.5 26.5t-68.5 72.5h-23q-50 -1 -74 -7t-34 -23t-10 -53v-296h-79v299q0 87 45 127.5t153 44.5v13q0 69 29 122.5t82 83t123 29.5q50 0 95.5 -13.5zM561 303q-18 10 -45.5 17t-57.5 7
q-70 0 -106.5 -36t-36.5 -95q0 -54 32 -87.5t95 -33.5q53 0 81.5 18t36.5 55z" />
    <glyph glyph-name="uni0645" horiz-adv-x="703" 
d="M561.5 406.5q45.5 -13.5 78.5 -33.5v-220q0 -74 -47.5 -123t-155.5 -49q-69 0 -114.5 26.5t-68.5 72.5h-23q-50 -1 -74 -7t-34 -23t-10 -53v-296h-79v299q0 87 45 127.5t153 44.5v13q0 69 29 122.5t82 83t123 29.5q50 0 95.5 -13.5zM561 303q-18 10 -45.5 17t-57.5 7
q-70 0 -106.5 -36t-36.5 -95q0 -54 32 -87.5t95 -33.5q53 0 81.5 18t36.5 55z" />
    <glyph glyph-name="uni0646" unicode="&#x646;" horiz-adv-x="668" 
d="M101.5 -134.5q-64.5 76.5 -64.5 199.5q0 54 11 110t25 87h80q-11 -33 -22 -84t-11 -106q0 -88 45.5 -139t158.5 -51t158.5 42t45.5 120v350h80v-349q0 -117 -68.5 -186.5t-221.5 -69.5q-152 0 -216.5 76.5zM286 517h79v-106h-79v106z" />
    <glyph glyph-name="uni0646" horiz-adv-x="668" 
d="M101.5 -134.5q-64.5 76.5 -64.5 199.5q0 54 11 110t25 87h80q-11 -33 -22 -84t-11 -106q0 -88 45.5 -139t158.5 -51t158.5 42t45.5 120v350h80v-349q0 -117 -68.5 -186.5t-221.5 -69.5q-152 0 -216.5 76.5zM286 517h79v-106h-79v106z" />
    <glyph glyph-name="uni0647" unicode="&#x647;" horiz-adv-x="504" 
d="M444 484l-1 -298q0 -90 -49.5 -138t-151.5 -48q-105 0 -155 56t-50 142q0 67 29.5 118.5t84 80t127.5 28.5q44 0 87 -13v72h79zM336 114.5q29 21.5 29 59.5v146q-10 4 -36 8t-60 4q-75 0 -112 -33.5t-37 -90.5q0 -115 125 -115q62 0 91 21.5z" />
    <glyph glyph-name="uni0647" horiz-adv-x="504" 
d="M444 484l-1 -298q0 -90 -49.5 -138t-151.5 -48q-105 0 -155 56t-50 142q0 67 29.5 118.5t84 80t127.5 28.5q44 0 87 -13v72h79zM336 114.5q29 21.5 29 59.5v146q-10 4 -36 8t-60 4q-75 0 -112 -33.5t-37 -90.5q0 -115 125 -115q62 0 91 21.5z" />
    <glyph glyph-name="uni0648" unicode="&#x648;" horiz-adv-x="502" 
d="M366.5 407.5q45.5 -12.5 78.5 -30.5v-409q0 -90 -42.5 -133.5t-140.5 -43.5h-190v94h192q57 0 79.5 18.5t22.5 69.5v89q-39 -62 -140 -62q-95 0 -141.5 55t-46.5 138q0 67 28.5 118.5t81.5 80t123 28.5q50 0 95.5 -12.5zM319.5 106q31.5 12 46.5 34v165q-18 9 -45 15
t-58 6q-70 0 -106 -34t-36 -90q0 -48 31 -78t91 -30q45 0 76.5 12z" />
    <glyph glyph-name="uni0648" horiz-adv-x="502" 
d="M366.5 407.5q45.5 -12.5 78.5 -30.5v-409q0 -90 -42.5 -133.5t-140.5 -43.5h-190v94h192q57 0 79.5 18.5t22.5 69.5v89q-39 -62 -140 -62q-95 0 -141.5 55t-46.5 138q0 67 28.5 118.5t81.5 80t123 28.5q50 0 95.5 -12.5zM319.5 106q31.5 12 46.5 34v165q-18 9 -45 15
t-58 6q-70 0 -106 -34t-36 -90q0 -48 31 -78t91 -30q45 0 76.5 12z" />
    <glyph glyph-name="uni0649" unicode="&#x649;" horiz-adv-x="821" 
d="M175 -177q-79 36 -108.5 99.5t-29.5 159.5q0 55 10 111t24 85h79q-10 -32 -20 -82.5t-10 -104.5q0 -81 25.5 -126.5t86 -65t171.5 -19.5t171.5 13.5t82 36.5t21.5 56q0 38 -15 55.5t-52 23.5l-108 17q-68 11 -104.5 31t-52.5 57t-16 103q0 95 58.5 149t161.5 54
q47 0 95.5 -13t81.5 -33l-27 -80q-33 14 -68.5 23.5t-84.5 9.5q-69 0 -101.5 -26.5t-32.5 -83.5q0 -35 10.5 -54t34 -29t68.5 -17l96 -14q77 -11 108 -48.5t31 -117.5q0 -101 -81.5 -153.5t-282.5 -52.5q-143 0 -222 36z" />
    <glyph glyph-name="uni0649" horiz-adv-x="821" 
d="M175 -177q-79 36 -108.5 99.5t-29.5 159.5q0 55 10 111t24 85h79q-10 -32 -20 -82.5t-10 -104.5q0 -81 25.5 -126.5t86 -65t171.5 -19.5t171.5 13.5t82 36.5t21.5 56q0 38 -15 55.5t-52 23.5l-108 17q-68 11 -104.5 31t-52.5 57t-16 103q0 95 58.5 149t161.5 54
q47 0 95.5 -13t81.5 -33l-27 -80q-33 14 -68.5 23.5t-84.5 9.5q-69 0 -101.5 -26.5t-32.5 -83.5q0 -35 10.5 -54t34 -29t68.5 -17l96 -14q77 -11 108 -48.5t31 -117.5q0 -101 -81.5 -153.5t-282.5 -52.5q-143 0 -222 36z" />
    <glyph glyph-name="uni064A" unicode="&#x64a;" horiz-adv-x="821" 
d="M175 -177q-79 36 -108.5 99.5t-29.5 159.5q0 55 10 111t24 85h79q-10 -32 -20 -82.5t-10 -104.5q0 -81 25.5 -126.5t86 -65t171.5 -19.5t171.5 13.5t82 36.5t21.5 56q0 38 -15 55.5t-52 23.5l-108 17q-68 11 -104.5 31t-52.5 57t-16 103q0 95 58.5 149t161.5 54
q47 0 95.5 -13t81.5 -33l-27 -80q-33 14 -68.5 23.5t-84.5 9.5q-69 0 -101.5 -26.5t-32.5 -83.5q0 -35 10.5 -54t34 -29t68.5 -17l96 -14q77 -11 108 -48.5t31 -117.5q0 -101 -81.5 -153.5t-282.5 -52.5q-143 0 -222 36zM300 -298h77v-106h-77v106zM429 -298h76v-106h-76
v106z" />
    <glyph glyph-name="uni064A" horiz-adv-x="821" 
d="M175 -177q-79 36 -108.5 99.5t-29.5 159.5q0 55 10 111t24 85h79q-10 -32 -20 -82.5t-10 -104.5q0 -81 25.5 -126.5t86 -65t171.5 -19.5t171.5 13.5t82 36.5t21.5 56q0 38 -15 55.5t-52 23.5l-108 17q-68 11 -104.5 31t-52.5 57t-16 103q0 95 58.5 149t161.5 54
q47 0 95.5 -13t81.5 -33l-27 -80q-33 14 -68.5 23.5t-84.5 9.5q-69 0 -101.5 -26.5t-32.5 -83.5q0 -35 10.5 -54t34 -29t68.5 -17l96 -14q77 -11 108 -48.5t31 -117.5q0 -101 -81.5 -153.5t-282.5 -52.5q-143 0 -222 36zM300 -298h77v-106h-77v106zM429 -298h76v-106h-76
v106z" />
    <glyph glyph-name="uni064B" unicode="&#x64b;" 
d="M1 585l242 49l8 -45l-243 -48zM1 685l242 49l8 -45l-243 -48z" />
    <glyph glyph-name="uni064B" 
d="M1 585l242 49l8 -45l-243 -48zM1 685l242 49l8 -45l-243 -48z" />
    <glyph glyph-name="uni064C" unicode="&#x64c;" 
d="M285.5 594q17.5 -22 17.5 -53q0 -28 -19 -54t-50.5 -42t-66.5 -16q-39 0 -55 20t-16 55v26h-37v51l38 1q19 0 27.5 -10t9.5 -31l1 -32q1 -18 8 -25.5t29 -7.5q12 0 32 4q-40 18 -40 61q0 30 19 52.5t53 22.5q32 0 49.5 -22zM265 537q0 15 -9 23t-22 8t-22 -8.5t-9 -22.5
q0 -25 43 -35q19 16 19 35z" />
    <glyph glyph-name="uni064C" 
d="M285.5 594q17.5 -22 17.5 -53q0 -28 -19 -54t-50.5 -42t-66.5 -16q-39 0 -55 20t-16 55v26h-37v51l38 1q19 0 27.5 -10t9.5 -31l1 -32q1 -18 8 -25.5t29 -7.5q12 0 32 4q-40 18 -40 61q0 30 19 52.5t53 22.5q32 0 49.5 -22zM265 537q0 15 -9 23t-22 8t-22 -8.5t-9 -22.5
q0 -25 43 -35q19 16 19 35z" />
    <glyph glyph-name="uni064D" unicode="&#x64d;" 
d="M20 51l242 49l8 -45l-243 -48zM20 150l242 49l8 -45l-243 -48z" />
    <glyph glyph-name="uni064D" 
d="M20 51l242 49l8 -45l-243 -48zM20 150l242 49l8 -45l-243 -48z" />
    <glyph glyph-name="uni064E" unicode="&#x64e;" 
d="M40 585l242 49l8 -45l-243 -48z" />
    <glyph glyph-name="uni064E" 
d="M40 585l242 49l8 -45l-243 -48z" />
    <glyph glyph-name="uni064F" unicode="&#x64f;" 
d="M201.5 597q17.5 -22 17.5 -53q0 -50 -39 -76.5t-121 -51.5l-14 48q40 10 70 21q-17 8 -26 23.5t-9 35.5q0 30 19 52.5t53 22.5q32 0 49.5 -22zM181 540q0 15 -9 22.5t-23 7.5q-13 0 -22 -8t-9 -21q0 -26 41 -36q22 16 22 35z" />
    <glyph glyph-name="uni064F" 
d="M201.5 597q17.5 -22 17.5 -53q0 -50 -39 -76.5t-121 -51.5l-14 48q40 10 70 21q-17 8 -26 23.5t-9 35.5q0 30 19 52.5t53 22.5q32 0 49.5 -22zM181 540q0 15 -9 22.5t-23 7.5q-13 0 -22 -8t-9 -21q0 -26 41 -36q22 16 22 35z" />
    <glyph glyph-name="uni0650" unicode="&#x650;" 
d="M40 101l242 49l8 -45l-243 -48z" />
    <glyph glyph-name="uni0650" 
d="M40 101l242 49l8 -45l-243 -48z" />
    <glyph glyph-name="uni0651" unicode="&#x651;" 
d="M297 587v-54q0 -82 -72 -82q-43 0 -55 29q-16 -29 -55 -29q-69 0 -69 75v61h42v-55q0 -30 30 -30q15 0 23.5 7.5t8.5 21.5v56h43v-56q0 -29 32 -29q30 0 30 30v55h42z" />
    <glyph glyph-name="uni0651" 
d="M297 587v-54q0 -82 -72 -82q-43 0 -55 29q-16 -29 -55 -29q-69 0 -69 75v61h42v-55q0 -30 30 -30q15 0 23.5 7.5t8.5 21.5v56h43v-56q0 -29 32 -29q30 0 30 30v55h42z" />
    <glyph glyph-name="uni0652" unicode="&#x652;" 
d="M65 461q-25 24 -25 60q0 38 25 64t64 26q38 0 62.5 -26t24.5 -64q0 -36 -24.5 -60t-62.5 -24q-39 0 -64 24zM162.5 493q12.5 11 12.5 28q0 19 -12.5 31.5t-33.5 12.5q-22 0 -34.5 -12.5t-12.5 -31.5q0 -17 12.5 -28t34.5 -11q21 0 33.5 11z" />
    <glyph glyph-name="uni0652" 
d="M65 461q-25 24 -25 60q0 38 25 64t64 26q38 0 62.5 -26t24.5 -64q0 -36 -24.5 -60t-62.5 -24q-39 0 -64 24zM162.5 493q12.5 11 12.5 28q0 19 -12.5 31.5t-33.5 12.5q-22 0 -34.5 -12.5t-12.5 -31.5q0 -17 12.5 -28t34.5 -11q21 0 33.5 11z" />
    <glyph glyph-name="uni0653" unicode="&#x653;" 
d="M261.5 430q-19.5 -8 -39.5 -8q-14 0 -30 4t-30 9q-27 11 -43 11q-29 0 -61 -20l-18 45q13 10 34 18t42 8q13 0 23.5 -3t24.5 -9q15 -6 26 -9t25 -3q17 0 31 4.5t30 14.5l15 -45q-10 -9 -29.5 -17z" />
    <glyph glyph-name="uni0653" 
d="M261.5 430q-19.5 -8 -39.5 -8q-14 0 -30 4t-30 9q-27 11 -43 11q-29 0 -61 -20l-18 45q13 10 34 18t42 8q13 0 23.5 -3t24.5 -9q15 -6 26 -9t25 -3q17 0 31 4.5t30 14.5l15 -45q-10 -9 -29.5 -17z" />
    <glyph glyph-name="uni0654" unicode="&#x654;" 
d="M217 459v-51h-177v48h31q-16 18 -16 49q0 39 26.5 60.5t64.5 21.5q33 0 61 -13l-11 -43q-25 6 -50 6q-21 0 -34.5 -9.5t-13.5 -28.5q0 -21 9 -30.5t33 -9.5h77z" />
    <glyph glyph-name="uni0655" unicode="&#x655;" 
d="M217 459v-51h-177v48h31q-16 18 -16 49q0 39 26.5 60.5t64.5 21.5q33 0 61 -13l-11 -43q-25 6 -50 6q-21 0 -34.5 -9.5t-13.5 -28.5q0 -21 9 -30.5t33 -9.5h77z" />
    <glyph glyph-name="uni0656" unicode="&#x656;" 
d="M40 509h42v-121h-42v121z" />
    <glyph glyph-name="uni0660" unicode="&#x660;" horiz-adv-x="258" 
d="M78 347h102v-141h-102v141z" />
    <glyph glyph-name="uni0660" horiz-adv-x="258" 
d="M78 347h102v-141h-102v141z" />
    <glyph glyph-name="uni0661" unicode="&#x661;" horiz-adv-x="242" 
d="M82 651h79v-651h-79v651z" />
    <glyph glyph-name="uni0661" horiz-adv-x="242" 
d="M82 651h79v-651h-79v651z" />
    <glyph glyph-name="uni0662" unicode="&#x662;" horiz-adv-x="504" 
d="M454 558h-211q-49 0 -69 -14.5t-20 -43.5q0 -25 14 -76l104 -414l-82 -15l-107 421q-15 62 -15 97q0 70 42.5 104t133.5 34h210v-93z" />
    <glyph glyph-name="uni0662" horiz-adv-x="504" 
d="M454 558h-211q-49 0 -69 -14.5t-20 -43.5q0 -25 14 -76l104 -414l-82 -15l-107 421q-15 62 -15 97q0 70 42.5 104t133.5 34h210v-93z" />
    <glyph glyph-name="uni0663" unicode="&#x663;" horiz-adv-x="656" 
d="M612 651v-151q0 -74 -38.5 -113t-107.5 -39q-44 0 -72.5 11.5t-44.5 36.5q-14 -27 -41.5 -37t-72.5 -10h-59l37 -349h-81l-70 651h82l22 -209h69q40 0 57 15t17 47v147h79v-150q0 -61 75 -61q35 0 52.5 15t17.5 47v149h79z" />
    <glyph glyph-name="uni0663" horiz-adv-x="656" 
d="M612 651v-151q0 -74 -38.5 -113t-107.5 -39q-44 0 -72.5 11.5t-44.5 36.5q-14 -27 -41.5 -37t-72.5 -10h-59l37 -349h-81l-70 651h82l22 -209h69q40 0 57 15t17 47v147h79v-150q0 -61 75 -61q35 0 52.5 15t17.5 47v149h79z" />
    <glyph glyph-name="uni0664" unicode="&#x664;" horiz-adv-x="528" 
d="M480 0h-220q-104 0 -151 43.5t-47 134.5q0 59 23.5 92.5t59.5 53.5q-37 21 -53 50.5t-16 90.5q0 186 209 186h164v-92h-167q-126 0 -126 -94q0 -86 84 -86h209l1 -93h-202q-107 0 -107 -97q0 -48 30 -72t92 -24h216z" />
    <glyph glyph-name="uni0664" horiz-adv-x="528" 
d="M480 0h-220q-104 0 -151 43.5t-47 134.5q0 59 23.5 92.5t59.5 53.5q-37 21 -53 50.5t-16 90.5q0 186 209 186h164v-92h-167q-126 0 -126 -94q0 -86 84 -86h209l1 -93h-202q-107 0 -107 -97q0 -48 30 -72t92 -24h216z" />
    <glyph glyph-name="uni0665" unicode="&#x665;" horiz-adv-x="597" 
d="M107 61q-55 71 -55 206q0 175 65.5 258.5t181.5 83.5q115 0 180.5 -81t65.5 -251q0 -140 -55 -213.5t-192 -73.5q-136 0 -191 71zM429.5 130q36.5 47 36.5 146q0 128 -45 184.5t-122 56.5q-78 0 -123 -57.5t-45 -187.5q0 -97 36.5 -143t130.5 -46q95 0 131.5 47z" />
    <glyph glyph-name="uni0665" horiz-adv-x="597" 
d="M107 61q-55 71 -55 206q0 175 65.5 258.5t181.5 83.5q115 0 180.5 -81t65.5 -251q0 -140 -55 -213.5t-192 -73.5q-136 0 -191 71zM429.5 130q36.5 47 36.5 146q0 128 -45 184.5t-122 56.5q-78 0 -123 -57.5t-45 -187.5q0 -97 36.5 -143t130.5 -46q95 0 131.5 47z" />
    <glyph glyph-name="uni0666" unicode="&#x666;" horiz-adv-x="474" 
d="M317 0v500q0 31 -17.5 45t-58.5 14h-213v92h222q77 0 111.5 -32.5t34.5 -103.5v-515h-79z" />
    <glyph glyph-name="uni0666" horiz-adv-x="474" 
d="M317 0v500q0 31 -17.5 45t-58.5 14h-213v92h222q77 0 111.5 -32.5t34.5 -103.5v-515h-79z" />
    <glyph glyph-name="uni0667" unicode="&#x667;" horiz-adv-x="585" 
d="M468 651h82l-193 -651h-114l-208 651h82l183 -565z" />
    <glyph glyph-name="uni0667" horiz-adv-x="585" 
d="M468 651h82l-193 -651h-114l-208 651h82l183 -565z" />
    <glyph glyph-name="uni0668" unicode="&#x668;" horiz-adv-x="585" 
d="M550 0h-82l-168 565l-183 -565h-82l208 651h114z" />
    <glyph glyph-name="uni0668" horiz-adv-x="585" 
d="M550 0h-82l-168 565l-183 -565h-82l208 651h114z" />
    <glyph glyph-name="uni0669" unicode="&#x669;" horiz-adv-x="502" 
d="M360 642.5q45 -8.5 77 -20.5v-622h-79v276q-41 -29 -125 -29q-98 0 -146.5 53t-48.5 132q0 65 28 114.5t80 77t120 27.5q49 0 94 -8.5zM358 356v191q-43 12 -100 12q-68 0 -103 -32t-35 -86q0 -45 30.5 -73.5t89.5 -28.5q77 0 118 17z" />
    <glyph glyph-name="uni0669" horiz-adv-x="502" 
d="M360 642.5q45 -8.5 77 -20.5v-622h-79v276q-41 -29 -125 -29q-98 0 -146.5 53t-48.5 132q0 65 28 114.5t80 77t120 27.5q49 0 94 -8.5zM358 356v191q-43 12 -100 12q-68 0 -103 -32t-35 -86q0 -45 30.5 -73.5t89.5 -28.5q77 0 118 17z" />
    <glyph glyph-name="uni066A" unicode="&#x66a;" horiz-adv-x="697" 
d="M65 522q-41 40 -41 101q0 39 18.5 71.5t51.5 51t74 18.5t74 -18.5t52 -51t19 -71.5q0 -61 -41 -101t-104 -40q-62 0 -103 40zM560 750h76l-497 -750h-76zM229 561.5q24 24.5 24 61.5q0 36 -24 60t-61 24t-61 -24t-24 -60q0 -37 24 -61.5t61 -24.5t61 24.5zM426 26
q-41 40 -41 101q0 39 18.5 71.5t51.5 51t74 18.5t74 -18.5t51.5 -51t18.5 -71.5q0 -61 -40.5 -101t-103.5 -40q-62 0 -103 40zM590 65.5q24 24.5 24 61.5q0 36 -24 60.5t-61 24.5t-61 -24.5t-24 -60.5q0 -37 24 -61.5t61 -24.5t61 24.5z" />
    <glyph glyph-name="uni066A" horiz-adv-x="697" 
d="M65 522q-41 40 -41 101q0 39 18.5 71.5t51.5 51t74 18.5t74 -18.5t52 -51t19 -71.5q0 -61 -41 -101t-104 -40q-62 0 -103 40zM560 750h76l-497 -750h-76zM229 561.5q24 24.5 24 61.5q0 36 -24 60t-61 24t-61 -24t-24 -60q0 -37 24 -61.5t61 -24.5t61 24.5zM426 26
q-41 40 -41 101q0 39 18.5 71.5t51.5 51t74 18.5t74 -18.5t51.5 -51t18.5 -71.5q0 -61 -40.5 -101t-103.5 -40q-62 0 -103 40zM590 65.5q24 24.5 24 61.5q0 36 -24 60.5t-61 24.5t-61 -24.5t-24 -60.5q0 -37 24 -61.5t61 -24.5t61 24.5z" />
    <glyph glyph-name="uni066B" unicode="&#x66b;" horiz-adv-x="242" 
d="M19 -145l78 281h95l-105 -281h-68z" />
    <glyph glyph-name="uni066B" horiz-adv-x="242" 
d="M19 -145l78 281h95l-105 -281h-68z" />
    <glyph glyph-name="uni066C" unicode="&#x66c;" horiz-adv-x="242" 
d="M19 -145l78 281h95l-105 -281h-68z" />
    <glyph glyph-name="uni066C" horiz-adv-x="242" 
d="M19 -145l78 281h95l-105 -281h-68z" />
    <glyph glyph-name="uni066D" unicode="&#x66d;" horiz-adv-x="600" 
d="M302 670l-106 -57l105 -57l-20 -34l-102 61l3 -117h-42l5 117l-102 -61l-22 36l111 55l-107 58l19 34l101 -63l-3 115h42l-4 -116l103 62z" />
    <glyph glyph-name="uni066D" horiz-adv-x="600" 
d="M302 670l-106 -57l105 -57l-20 -34l-102 61l3 -117h-42l5 117l-102 -61l-22 36l111 55l-107 58l19 34l101 -63l-3 115h42l-4 -116l103 62z" />
    <glyph glyph-name="uni066E" unicode="&#x66e;" horiz-adv-x="880" 
d="M133.5 26q-55.5 26 -76 73.5t-20.5 121.5q0 37 9 78t21 72h76q-10 -28 -18.5 -70t-8.5 -70q0 -52 17.5 -82t56 -43t103.5 -13h321q61 0 94 17t33 68v219h79v-211q0 -97 -53.5 -141.5t-161.5 -44.5h-314q-102 0 -157.5 26z" />
    <glyph glyph-name="uni066E" horiz-adv-x="880" 
d="M133.5 26q-55.5 26 -76 73.5t-20.5 121.5q0 37 9 78t21 72h76q-10 -28 -18.5 -70t-8.5 -70q0 -52 17.5 -82t56 -43t103.5 -13h321q61 0 94 17t33 68v219h79v-211q0 -97 -53.5 -141.5t-161.5 -44.5h-314q-102 0 -157.5 26z" />
    <glyph glyph-name="uni066F" unicode="&#x66f;" horiz-adv-x="783" 
d="M644.5 407.5q45.5 -12.5 78.5 -30.5v-393q0 -106 -57.5 -156.5t-190.5 -50.5h-147q-118 0 -181 28.5t-86.5 86.5t-23.5 156q0 52 10.5 102.5t22.5 81.5h79q-12 -35 -20.5 -83t-8.5 -94q0 -67 16 -106t61 -59t131 -20h150q62 0 97.5 10t52 35t16.5 71v76q-39 -62 -140 -62
q-95 0 -141.5 56t-46.5 140q0 66 28.5 117t81.5 79t123 28q50 0 95.5 -12.5zM597.5 106q31.5 12 46.5 34v165q-18 9 -45 15t-58 6q-70 0 -106 -33t-36 -88q0 -49 31 -80t91 -31q45 0 76.5 12z" />
    <glyph glyph-name="uni066F" horiz-adv-x="783" 
d="M644.5 407.5q45.5 -12.5 78.5 -30.5v-393q0 -106 -57.5 -156.5t-190.5 -50.5h-147q-118 0 -181 28.5t-86.5 86.5t-23.5 156q0 52 10.5 102.5t22.5 81.5h79q-12 -35 -20.5 -83t-8.5 -94q0 -67 16 -106t61 -59t131 -20h150q62 0 97.5 10t52 35t16.5 71v76q-39 -62 -140 -62
q-95 0 -141.5 56t-46.5 140q0 66 28.5 117t81.5 79t123 28q50 0 95.5 -12.5zM597.5 106q31.5 12 46.5 34v165q-18 9 -45 15t-58 6q-70 0 -106 -33t-36 -88q0 -49 31 -80t91 -31q45 0 76.5 12z" />
    <glyph glyph-name="uni0670" unicode="&#x670;" 
d="M40 509h42v-121h-42v121z" />
    <glyph glyph-name="uni0670" 
d="M40 509h42v-121h-42v121z" />
    <glyph glyph-name="uni0671" unicode="&#x671;" horiz-adv-x="235" 
d="M78 613h79v-613h-79v613z" />
    <glyph glyph-name="uni0671" horiz-adv-x="235" 
d="M78 613h79v-613h-79v613z" />
    <glyph glyph-name="uni06A1" unicode="&#x6a1;" horiz-adv-x="937" 
d="M877 179q0 -92 -42.5 -135.5t-142.5 -43.5h-403q-99 0 -154 29t-76.5 81.5t-21.5 130.5q0 39 9 84t21 79h79q-10 -31 -18.5 -76.5t-8.5 -77.5q0 -60 17 -94t54 -48.5t99 -14.5h404q58 0 81 17t23 63v55q-40 -56 -136 -56q-89 0 -134.5 52.5t-45.5 128.5q0 63 28 111.5
t79 75.5t118 27q48 0 93 -13.5t77 -33.5zM797 306v143q-18 10 -44 17t-55 7q-66 0 -100 -29.5t-34 -79.5q0 -43 29 -71t86 -28q86 0 118 41z" />
    <glyph glyph-name="uni06A1" horiz-adv-x="937" 
d="M877 179q0 -92 -42.5 -135.5t-142.5 -43.5h-403q-99 0 -154 29t-76.5 81.5t-21.5 130.5q0 39 9 84t21 79h79q-10 -31 -18.5 -76.5t-8.5 -77.5q0 -60 17 -94t54 -48.5t99 -14.5h404q58 0 81 17t23 63v55q-40 -56 -136 -56q-89 0 -134.5 52.5t-45.5 128.5q0 63 28 111.5
t79 75.5t118 27q48 0 93 -13.5t77 -33.5zM797 306v143q-18 10 -44 17t-55 7q-66 0 -100 -29.5t-34 -79.5q0 -43 29 -71t86 -28q86 0 118 41z" />
    <glyph glyph-name="uni06A4" unicode="&#x6a4;" horiz-adv-x="937" 
d="M877 179q0 -92 -42.5 -135.5t-142.5 -43.5h-403q-99 0 -154 29t-76.5 81.5t-21.5 130.5q0 39 9 84t21 79h79q-10 -31 -18.5 -76.5t-8.5 -77.5q0 -60 17 -94t54 -48.5t99 -14.5h404q58 0 81 17t23 63v55q-40 -56 -136 -56q-89 0 -134.5 52.5t-45.5 128.5q0 63 28 111.5
t79 75.5t118 27q48 0 93 -13.5t77 -33.5zM797 306v143q-18 10 -44 17t-55 7q-66 0 -100 -29.5t-34 -79.5q0 -43 29 -71t86 -28q86 0 118 41zM667 902h79v-103h-79v103zM602 763h76v-106h-76v106zM733 763h76v-106h-76v106z" />
    <glyph glyph-name="uni06A4" horiz-adv-x="937" 
d="M877 179q0 -92 -42.5 -135.5t-142.5 -43.5h-403q-99 0 -154 29t-76.5 81.5t-21.5 130.5q0 39 9 84t21 79h79q-10 -31 -18.5 -76.5t-8.5 -77.5q0 -60 17 -94t54 -48.5t99 -14.5h404q58 0 81 17t23 63v55q-40 -56 -136 -56q-89 0 -134.5 52.5t-45.5 128.5q0 63 28 111.5
t79 75.5t118 27q48 0 93 -13.5t77 -33.5zM797 306v143q-18 10 -44 17t-55 7q-66 0 -100 -29.5t-34 -79.5q0 -43 29 -71t86 -28q86 0 118 41zM667 902h79v-103h-79v103zM602 763h76v-106h-76v106zM733 763h76v-106h-76v106z" />
    <glyph glyph-name="uni06A9" unicode="&#x6a9;" horiz-adv-x="858" 
d="M780 705v-519q0 -97 -53.5 -141.5t-161.5 -44.5h-274q-102 0 -157.5 26t-76 73.5t-20.5 121.5q0 37 9 78t21 72h76q-10 -28 -18.5 -70t-8.5 -70q0 -52 17.5 -82t56 -43t103.5 -13h281q61 0 94 17t33 68v527h79zM499.5 306.5q-26.5 -23.5 -78.5 -23.5h-111v63h111
q22 0 36 6t14 19q0 19 -29.5 34t-112.5 15l-5 80l181 90l12 -57l-126 -61q62 -4 98.5 -27.5t36.5 -71.5q0 -43 -26.5 -66.5z" />
    <glyph glyph-name="uni06A9" horiz-adv-x="858" 
d="M780 705v-519q0 -97 -53.5 -141.5t-161.5 -44.5h-274q-102 0 -157.5 26t-76 73.5t-20.5 121.5q0 37 9 78t21 72h76q-10 -28 -18.5 -70t-8.5 -70q0 -52 17.5 -82t56 -43t103.5 -13h281q61 0 94 17t33 68v527h79zM499.5 306.5q-26.5 -23.5 -78.5 -23.5h-111v63h111
q22 0 36 6t14 19q0 19 -29.5 34t-112.5 15l-5 80l181 90l12 -57l-126 -61q62 -4 98.5 -27.5t36.5 -71.5q0 -43 -26.5 -66.5z" />
    <glyph glyph-name="uni06BA" unicode="&#x6ba;" horiz-adv-x="668" 
d="M101.5 -134.5q-64.5 76.5 -64.5 199.5q0 54 11 110t25 87h80q-11 -33 -22 -84t-11 -106q0 -88 45.5 -139t158.5 -51t158.5 42t45.5 120v350h80v-349q0 -117 -68.5 -186.5t-221.5 -69.5q-152 0 -216.5 76.5z" />
    <glyph glyph-name="uni06BA" horiz-adv-x="668" 
d="M101.5 -134.5q-64.5 76.5 -64.5 199.5q0 54 11 110t25 87h80q-11 -33 -22 -84t-11 -106q0 -88 45.5 -139t158.5 -51t158.5 42t45.5 120v350h80v-349q0 -117 -68.5 -186.5t-221.5 -69.5q-152 0 -216.5 76.5z" />
    <glyph glyph-name="uni06CC" unicode="&#x6cc;" horiz-adv-x="821" 
d="M175 -177q-79 36 -108.5 99.5t-29.5 159.5q0 55 10 111t24 85h79q-10 -32 -20 -82.5t-10 -104.5q0 -81 25.5 -126.5t86 -65t171.5 -19.5t171.5 13.5t82 36.5t21.5 56q0 38 -15 55.5t-52 23.5l-108 17q-68 11 -104.5 31t-52.5 57t-16 103q0 95 58.5 149t161.5 54
q47 0 95.5 -13t81.5 -33l-27 -80q-33 14 -68.5 23.5t-84.5 9.5q-69 0 -101.5 -26.5t-32.5 -83.5q0 -35 10.5 -54t34 -29t68.5 -17l96 -14q77 -11 108 -48.5t31 -117.5q0 -101 -81.5 -153.5t-282.5 -52.5q-143 0 -222 36zM300 -298h77v-106h-77v106zM429 -298h76v-106h-76
v106z" />
    <glyph glyph-name="uni06CC" horiz-adv-x="821" 
d="M175 -177q-79 36 -108.5 99.5t-29.5 159.5q0 55 10 111t24 85h79q-10 -32 -20 -82.5t-10 -104.5q0 -81 25.5 -126.5t86 -65t171.5 -19.5t171.5 13.5t82 36.5t21.5 56q0 38 -15 55.5t-52 23.5l-108 17q-68 11 -104.5 31t-52.5 57t-16 103q0 95 58.5 149t161.5 54
q47 0 95.5 -13t81.5 -33l-27 -80q-33 14 -68.5 23.5t-84.5 9.5q-69 0 -101.5 -26.5t-32.5 -83.5q0 -35 10.5 -54t34 -29t68.5 -17l96 -14q77 -11 108 -48.5t31 -117.5q0 -101 -81.5 -153.5t-282.5 -52.5q-143 0 -222 36zM300 -298h77v-106h-77v106zM429 -298h76v-106h-76
v106z" />
    <glyph glyph-name="Wgrave" unicode="&#x1e80;" horiz-adv-x="1058" 
d="M929 750h98l-218 -750h-117l-163 579l-162 -579h-117l-218 750h97l178 -630h3l171 602h96l171 -602h4zM366 876v47l304 -42v-47z" />
    <glyph glyph-name="wgrave" unicode="&#x1e81;" horiz-adv-x="765" 
d="M652 510h89l-135 -510h-119l-104 364l-105 -364h-118l-136 510h89l108 -421h3l118 399h81l119 -399h3zM226 752h96l104 -133h-82z" />
    <glyph glyph-name="Wacute" unicode="&#x1e82;" horiz-adv-x="1058" 
d="M929 750h98l-218 -750h-117l-163 579l-162 -579h-117l-218 750h97l178 -630h3l171 602h96l171 -602h4zM413 881l304 42v-47l-304 -42v47z" />
    <glyph glyph-name="wacute" unicode="&#x1e83;" horiz-adv-x="765" 
d="M652 510h89l-135 -510h-119l-104 364l-105 -364h-118l-136 510h89l108 -421h3l118 399h81l119 -399h3zM435 752h97l-118 -133h-82z" />
    <glyph glyph-name="Wdieresis" unicode="&#x1e84;" horiz-adv-x="1058" 
d="M929 750h98l-218 -750h-117l-163 579l-162 -579h-117l-218 750h97l178 -630h3l171 602h96l171 -602h4zM354 903h132v-46h-132v46zM571 903h132v-46h-132v46z" />
    <glyph glyph-name="wdieresis" unicode="&#x1e85;" horiz-adv-x="765" 
d="M652 510h89l-135 -510h-119l-104 364l-105 -364h-118l-136 510h89l108 -421h3l118 399h81l119 -399h3zM235 750h80v-134h-80v134zM450 750h79v-134h-79v134z" />
    <glyph glyph-name="uni1E9E" unicode="&#x1e9e;" horiz-adv-x="711" 
d="M622.5 383.5q61.5 -66.5 61.5 -167.5q0 -107 -63 -168.5t-175 -61.5q-98 0 -154.5 47.5t-64.5 128.5h99q8 -46 39 -71t85 -25q63 0 99 39.5t36 109.5t-41 114.5t-132 44.5h-118l196 296h-206q-58 0 -93.5 -37.5t-35.5 -108.5v-524h-96v530q0 106 55 163t149 57h380
l-201 -295q119 -5 180.5 -71.5z" />
    <glyph glyph-name="Ygrave" unicode="&#x1ef2;" horiz-adv-x="636" 
d="M610 750l-244 -499v-251h-95v253l-243 497h99l190 -400h3l191 400h99zM141 876v47l304 -42v-47z" />
    <glyph glyph-name="ygrave" unicode="&#x1ef3;" horiz-adv-x="505" 
d="M482 510l-216 -600q-21 -57 -52 -83.5t-88 -26.5h-86v80h80q27 0 42.5 12t25.5 39l26 71l-190 508h91l139 -394h3l134 394h91zM96 752h96l104 -133h-82z" />
    <glyph glyph-name="endash" unicode="&#x2013;" horiz-adv-x="723" 
d="M105 308h513v-65h-513v65z" />
    <glyph glyph-name="emdash" unicode="&#x2014;" horiz-adv-x="1298" 
d="M253 308h792v-65h-792v65z" />
    <glyph glyph-name="quoteleft" unicode="&#x2018;" horiz-adv-x="242" 
d="M123 750h69l-77 -281h-96z" />
    <glyph glyph-name="quoteright" unicode="&#x2019;" horiz-adv-x="242" 
d="M19 469l78 281h95l-105 -281h-68z" />
    <glyph glyph-name="quotesinglbase" unicode="&#x201a;" horiz-adv-x="242" 
d="M19 -145l78 281h95l-105 -281h-68z" />
    <glyph glyph-name="quotedblleft" unicode="&#x201c;" horiz-adv-x="407" 
d="M123 750h69l-77 -281h-96zM289 750h69l-79 -281h-95z" />
    <glyph glyph-name="quotedblright" unicode="&#x201d;" horiz-adv-x="407" 
d="M19 469l78 281h95l-105 -281h-68zM184 469l78 281h96l-105 -281h-69z" />
    <glyph glyph-name="quotedblbase" unicode="&#x201e;" horiz-adv-x="407" 
d="M185 -145l78 281h95l-105 -281h-68zM19 -145l78 281h95l-105 -281h-68z" />
    <glyph glyph-name="dagger" unicode="&#x2020;" horiz-adv-x="863" 
d="M60 750h743v-750h-743v750zM731 69v612h-598v-612h598zM428 326l-110 -110l-42 44l109 109l-109 109l42 43l110 -109l109 108l43 -42l-109 -109l109 -109l-43 -43z" />
    <glyph glyph-name="daggerdbl" unicode="&#x2021;" horiz-adv-x="477" 
d="M201 35l-5 115h-159v67h159v224h-159v69h159l5 114l7 35h54l8 -35l6 -114h165v-69h-166v-224h166v-67h-165l-5 -115l-9 -35h-53z" />
    <glyph glyph-name="bullet" unicode="&#x2022;" horiz-adv-x="347" 
d="M109.5 226q-26.5 26 -26.5 64t26.5 64t64.5 26t64 -26t26 -64t-26 -64t-64 -26t-64.5 26z" />
    <glyph glyph-name="ellipsis" unicode="&#x2026;" horiz-adv-x="560" 
d="M65 0v136h86v-136h-86zM237 0v136h86v-136h-86zM409 0v136h86v-136h-86z" />
    <glyph glyph-name="perthousand" unicode="&#x2030;" horiz-adv-x="824" 
d="M215.5 475.5q-31.5 -31.5 -80.5 -31.5q-47 0 -79 31.5t-32 78.5v92q0 47 32 78.5t79 31.5q49 0 80.5 -31.5t31.5 -78.5v-92q0 -47 -31.5 -78.5zM121 0l263 750h55l-263 -750h-55zM98 513q15 -15 37 -15q23 0 38 15t15 39v95q0 24 -15 39.5t-38 15.5q-22 0 -37 -15.5
t-15 -39.5v-95q0 -24 15 -39zM504.5 25q-31.5 -31 -80.5 -31q-48 0 -79.5 31t-31.5 78v93q0 47 31.5 78.5t79.5 31.5q49 0 80.5 -31.5t31.5 -78.5v-93q0 -47 -31.5 -78zM769.5 25q-31.5 -31 -80.5 -31q-48 0 -80 31t-32 78v93q0 47 32 78.5t80 31.5q49 0 80.5 -31.5
t31.5 -78.5v-93q0 -47 -31.5 -78zM387.5 63q14.5 -15 36.5 -15q23 0 38 15t15 39v95q0 23 -15 39t-38 16q-22 0 -36.5 -16t-14.5 -39v-95q0 -24 14.5 -39zM651 63q15 -15 38 -15t37.5 15t14.5 39v95q0 24 -14.5 39.5t-37.5 15.5q-22 0 -37.5 -16t-15.5 -39v-95q0 -24 15 -39
z" />
    <glyph glyph-name="guilsinglleft" unicode="&#x2039;" horiz-adv-x="319" 
d="M26 242v7l168 200h96l-170 -203l170 -204h-96z" />
    <glyph glyph-name="guilsinglright" unicode="&#x203a;" horiz-adv-x="319" 
d="M29 42l171 204l-171 203h97l168 -200v-7l-168 -200h-97z" />
    <glyph glyph-name="fraction" unicode="&#x2044;" horiz-adv-x="563" 
d="M489 750h62l-478 -750h-61z" />
    <glyph glyph-name="zero.sups" unicode="&#x2070;" horiz-adv-x="270" 
d="M56.5 474q-29.5 31 -29.5 79v92q0 48 29.5 79.5t78.5 31.5t78.5 -31.5t29.5 -79.5v-92q0 -48 -29.5 -79t-78.5 -31t-78.5 31zM168 514q12 14 12 37v97q0 22 -12 36.5t-33 14.5t-33 -14.5t-12 -36.5v-97q0 -23 12 -37t33 -14t33 14z" />
    <glyph glyph-name="four.sups" unicode="&#x2074;" horiz-adv-x="283" 
d="M262 578v-51h-37v-78h-66v78h-136v46l136 177h66v-172h37zM82 578h77v99z" />
    <glyph glyph-name="five.sups" unicode="&#x2075;" horiz-adv-x="262" 
d="M55 469q-30 26 -30 64q0 8 2 14h62v-4q0 -19 12.5 -31t31.5 -12q22 0 34.5 13.5t12.5 34.5t-11.5 35t-34.5 14q-26 0 -39 -20h-63l23 173h170v-59h-120l-12 -76q22 27 58 27q42 0 66.5 -26.5t24.5 -68.5q0 -47 -30 -75.5t-79 -28.5q-48 0 -78 26z" />
    <glyph glyph-name="six.sups" unicode="&#x2076;" horiz-adv-x="263" 
d="M217.5 613q28.5 -28 28.5 -68q0 -44 -31.5 -73t-79.5 -29t-79.5 28t-31.5 71q0 32 16 57l93 151h78l-69 -109h2q45 0 73.5 -28zM170 512.5q14 12.5 14 31.5q0 20 -14 33t-35 13t-34.5 -13t-13.5 -33q0 -19 13.5 -31.5t34.5 -12.5t35 12.5z" />
    <glyph glyph-name="seven.sups" unicode="&#x2077;" horiz-adv-x="243" 
d="M21 750h204v-56l-108 -245h-71l112 242h-137v59z" />
    <glyph glyph-name="eight.sups" unicode="&#x2078;" horiz-adv-x="261" 
d="M227 580q12 -20 12 -43q0 -40 -30.5 -67t-78.5 -27q-47 0 -77.5 27t-30.5 67q0 23 12 43t33 32q-31 23 -31 60q0 36 26 60t68 24t68 -24t26 -60q0 -37 -30 -60q21 -12 33 -32zM103 695.5q-11 -10.5 -11 -25.5q0 -16 10.5 -26.5t27.5 -10.5q18 0 28.5 10.5t10.5 26.5
q0 15 -11 25.5t-28 10.5q-16 0 -27 -10.5zM165 510q14 12 14 31q0 20 -13.5 32.5t-35.5 12.5q-20 0 -34 -13t-14 -32q0 -18 14 -30.5t34 -12.5q21 0 35 12z" />
    <glyph glyph-name="nine.sups" unicode="&#x2079;" horiz-adv-x="265" 
d="M211.5 727q31.5 -29 31.5 -73q0 -29 -16 -54l-93 -151h-78l68 106q-46 0 -74.5 29t-28.5 69q0 44 31 73.5t80 29.5q48 0 79.5 -29zM166 620.5q14 13.5 14 32.5q0 20 -14 33t-35 13t-34.5 -13t-13.5 -33q0 -19 13.5 -32.5t34.5 -13.5t35 13.5z" />
    <glyph glyph-name="Euro" unicode="&#x20ac;" horiz-adv-x="561" 
d="M532 739v-93q-46 28 -117 28q-96 0 -159.5 -57t-76.5 -159h272v-50h-451v50h82q9 92 53.5 161.5t116.5 107t161 37.5q68 0 119 -25zM255 132.5q64 -57.5 160 -57.5q69 0 117 29v-94q-49 -24 -119 -24q-89 0 -161 37.5t-117 107t-53 162.5h-82v49h451v-49h-272
q12 -103 76 -160.5z" />
    <glyph glyph-name="uni2116" unicode="&#x2116;" horiz-adv-x="1040" 
d="M799 500.5q-33 18.5 -52 51t-19 71.5t19 71.5t52 51t74 18.5t74 -18.5t51.5 -51t18.5 -71.5q0 -60 -40.5 -100.5t-103.5 -40.5q-41 0 -74 18.5zM80 750h103l359 -599h3v599h90v-750h-102l-360 599h-3v-599h-90v750zM936 559.5q25 25.5 25 63.5q0 37 -25 62t-63 25
t-63 -25t-25 -62q0 -38 25 -63.5t63 -25.5t63 25.5zM756 405h233v-53h-233v53z" />
    <glyph glyph-name="uni2117" unicode="&#x2117;" horiz-adv-x="896" 
d="M641.5 711.5q88.5 -52.5 140 -142.5t51.5 -195q0 -106 -51.5 -195t-140 -141t-193.5 -52t-193.5 52t-140 141t-51.5 195q0 105 52 195t140 142.5t193 52.5t193.5 -52.5zM604 97.5q71 42.5 112.5 116t41.5 160.5q0 88 -41.5 161.5t-112.5 116.5t-156 43t-156 -43
t-112 -116.5t-41 -161.5t41 -161t112 -115.5t156 -42.5t156 42.5zM605 555.5q44 -42.5 44 -106.5t-44 -107t-124 -43h-102v-154h-71v453h172q81 0 125 -42.5zM553.5 383.5q25.5 23.5 25.5 65.5q0 41 -25.5 64.5t-76.5 23.5h-98v-177h97q52 0 77.5 23.5z" />
    <glyph glyph-name="uni2120" unicode="&#x2120;" horiz-adv-x="803" 
d="M75.5 414q-39.5 34 -41.5 93h60q1 -37 25 -57.5t63 -20.5q34 0 55 17t21 42q0 28 -21 42.5t-67 16.5q-125 8 -125 102q0 47 35 76.5t92 29.5q61 0 97 -29t40 -83h-59q-4 31 -23.5 47.5t-54.5 16.5q-30 0 -48.5 -15.5t-18.5 -39.5q0 -29 19.5 -42t67.5 -14q60 -2 92.5 -29
t32.5 -76q0 -50 -37 -80.5t-99 -30.5q-66 0 -105.5 34zM363 750h93l99 -281h2l99 281h92v-363h-65v279h-2l-99 -277h-53l-99 277h-1v-279h-66v363z" />
    <glyph glyph-name="trademark" unicode="&#x2122;" horiz-adv-x="770" 
d="M115 697h-104v53h273v-53h-104v-310h-65v310zM330 750h93l99 -281h1l99 281h93v-363h-66v279h-1l-100 -277h-52l-99 277h-1v-279h-66v363z" />
    <glyph glyph-name="uni2150" unicode="&#x2150;" horiz-adv-x="555" 
d="M129 750h56v-301h-64v233l-71 -37v62zM489 750h62l-478 -750h-61zM333 301h204v-56l-108 -245h-71l112 242h-137v59z" />
    <glyph glyph-name="uni2151" unicode="&#x2151;" horiz-adv-x="577" 
d="M129 750h56v-301h-64v233l-71 -37v62zM489 750h62l-478 -750h-61zM523.5 278q31.5 -29 31.5 -73q0 -29 -16 -54l-93 -151h-78l68 106q-46 0 -74.5 29t-28.5 69q0 44 31 73.5t80 29.5q48 0 79.5 -29zM478 171.5q14 13.5 14 32.5q0 20 -14 33t-35 13t-34.5 -13t-13.5 -33
q0 -19 13.5 -32.5t34.5 -13.5t35 13.5z" />
    <glyph glyph-name="uni2153" unicode="&#x2153;" horiz-adv-x="572" 
d="M129 750h56v-301h-64v233l-71 -37v62zM489 750h62l-478 -750h-61zM540.5 132q11.5 -20 11.5 -43q0 -40 -30.5 -67.5t-78.5 -27.5q-47 0 -77 26.5t-30 65.5v12h63v-7q0 -18 13 -29t32 -11t31.5 11.5t12.5 30.5t-13 31.5t-32 12.5h-12v50h12q16 0 26.5 9.5t10.5 24.5
t-10.5 24.5t-25.5 9.5q-16 0 -26 -9t-10 -25v-6h-58v12q0 34 26 57t67 23q42 0 68 -24t26 -60q0 -35 -28 -58q20 -13 31.5 -33z" />
    <glyph glyph-name="uni2154" unicode="&#x2154;" horiz-adv-x="606" 
d="M233 506v-57h-204v38l119 133q18 20 18 41q0 17 -10 28t-28 11q-19 0 -29.5 -11t-10.5 -27v-4h-58v4q0 41 26 67.5t72 26.5t72.5 -26t26.5 -65q0 -36 -33 -74l-76 -85h115zM523 750h62l-478 -750h-61zM574.5 132q11.5 -20 11.5 -43q0 -40 -30.5 -67.5t-78.5 -27.5
q-47 0 -77 26.5t-30 65.5v12h63v-7q0 -18 13 -29t32 -11t31.5 11.5t12.5 30.5t-13 31.5t-32 12.5h-12v50h12q16 0 26.5 9.5t10.5 24.5t-10.5 24.5t-25.5 9.5q-16 0 -26 -9t-10 -25v-6h-58v12q0 34 26 57t67 23q42 0 68 -24t26 -60q0 -35 -28 -58q20 -13 31.5 -33z" />
    <glyph glyph-name="uni2155" unicode="&#x2155;" horiz-adv-x="574" 
d="M129 750h56v-301h-64v233l-71 -37v62zM489 750h62l-478 -750h-61zM367 20q-30 26 -30 64q0 8 2 14h62v-4q0 -19 12.5 -31t31.5 -12q22 0 34.5 13.5t12.5 34.5t-11.5 35t-34.5 14q-26 0 -39 -20h-63l23 173h170v-59h-120l-12 -76q22 27 58 27q42 0 66.5 -26.5t24.5 -68.5
q0 -47 -30 -75.5t-79 -28.5q-48 0 -78 26z" />
    <glyph glyph-name="uni2156" unicode="&#x2156;" horiz-adv-x="608" 
d="M233 506v-57h-204v38l119 133q18 20 18 41q0 17 -10 28t-28 11q-19 0 -29.5 -11t-10.5 -27v-4h-58v4q0 41 26 67.5t72 26.5t72.5 -26t26.5 -65q0 -36 -33 -74l-76 -85h115zM523 750h62l-478 -750h-61zM401 20q-30 26 -30 64q0 8 2 14h62v-4q0 -19 12.5 -31t31.5 -12
q22 0 34.5 13.5t12.5 34.5t-11.5 35t-34.5 14q-26 0 -39 -20h-63l23 173h170v-59h-120l-12 -76q22 27 58 27q42 0 66.5 -26.5t24.5 -68.5q0 -47 -30 -75.5t-79 -28.5q-48 0 -78 26z" />
    <glyph glyph-name="uni2157" unicode="&#x2157;" horiz-adv-x="613" 
d="M228.5 581q11.5 -20 11.5 -43q0 -40 -30.5 -67.5t-78.5 -27.5q-47 0 -77 26.5t-30 65.5v12h63v-7q0 -18 13 -29t32 -11t31.5 11.5t12.5 30.5t-13 31.5t-32 12.5h-12v50h12q16 0 26.5 9.5t10.5 24.5t-10.5 24.5t-25.5 9.5q-16 0 -26 -9t-10 -25v-6h-58v12q0 34 26 57
t67 23q42 0 68 -24t26 -60q0 -35 -28 -58q20 -13 31.5 -33zM528 750h62l-478 -750h-61zM406 20q-30 26 -30 64q0 8 2 14h62v-4q0 -19 12.5 -31t31.5 -12q22 0 34.5 13.5t12.5 34.5t-11.5 35t-34.5 14q-26 0 -39 -20h-63l23 173h170v-59h-120l-12 -76q22 27 58 27
q42 0 66.5 -26.5t24.5 -68.5q0 -47 -30 -75.5t-79 -28.5q-48 0 -78 26z" />
    <glyph glyph-name="uni2158" unicode="&#x2158;" horiz-adv-x="636" 
d="M262 578v-51h-37v-78h-66v78h-136v46l136 177h66v-172h37zM82 578h77v99zM551 750h62l-478 -750h-61zM429 20q-30 26 -30 64q0 8 2 14h62v-4q0 -19 12.5 -31t31.5 -12q22 0 34.5 13.5t12.5 34.5t-11.5 35t-34.5 14q-26 0 -39 -20h-63l23 173h170v-59h-120l-12 -76
q22 27 58 27q42 0 66.5 -26.5t24.5 -68.5q0 -47 -30 -75.5t-79 -28.5q-48 0 -78 26z" />
    <glyph glyph-name="uni2159" unicode="&#x2159;" horiz-adv-x="563" 
d="M129 750h56v-301h-64v233l-71 -37v62zM489 750h62l-478 -750h-61zM517.5 164q28.5 -28 28.5 -68q0 -44 -31.5 -73t-79.5 -29t-79.5 28t-31.5 71q0 32 16 57l93 151h78l-69 -109h2q45 0 73.5 -28zM470 63.5q14 12.5 14 31.5q0 20 -14 33t-35 13t-34.5 -13t-13.5 -33
q0 -19 13.5 -31.5t34.5 -12.5t35 12.5z" />
    <glyph glyph-name="oneeighth" unicode="&#x215b;" horiz-adv-x="573" 
d="M129 750h56v-301h-64v233l-71 -37v62zM489 750h62l-478 -750h-61zM539 131q12 -20 12 -43q0 -40 -30.5 -67t-78.5 -27q-47 0 -77.5 27t-30.5 67q0 23 12 43t33 32q-31 23 -31 60q0 36 26 60t68 24t68 -24t26 -60q0 -37 -30 -60q21 -12 33 -32zM415 246.5
q-11 -10.5 -11 -25.5q0 -16 10.5 -26.5t27.5 -10.5q18 0 28.5 10.5t10.5 26.5q0 15 -11 25.5t-28 10.5q-16 0 -27 -10.5zM477 61q14 12 14 31q0 20 -13.5 32.5t-35.5 12.5q-20 0 -34 -13t-14 -32q0 -18 14 -30.5t34 -12.5q21 0 35 12z" />
    <glyph glyph-name="arrowleft" unicode="&#x2190;" horiz-adv-x="670" 
d="M609 291v-69h-426l157 -193h-95l-184 226v4l184 224h95l-157 -192h426z" />
    <glyph glyph-name="arrowup" unicode="&#x2191;" horiz-adv-x="524" 
d="M489 339v-95l-192 156v-400h-70v400l-191 -156v95l224 184h3z" />
    <glyph glyph-name="arrowright" unicode="&#x2192;" horiz-adv-x="670" 
d="M426 483l183 -224v-4l-183 -226h-96l157 193h-426v69h426l-157 192h96z" />
    <glyph glyph-name="arrowdown" unicode="&#x2193;" horiz-adv-x="524" 
d="M297 109l192 156v-95l-226 -184h-3l-224 184v95l191 -156v401h70v-401z" />
    <glyph glyph-name="arrowboth" unicode="&#x2194;" horiz-adv-x="901" 
d="M656 483l184 -224v-4l-184 -226h-95l157 193h-535l157 -193h-95l-184 226v4l184 224h95l-157 -192h535l-157 192h95z" />
    <glyph glyph-name="arrowupdn" unicode="&#x2195;" horiz-adv-x="529" 
d="M488 315l-185 102v-326l185 103v-85l-223 -123h-3l-221 124v84l185 -103v326l-185 -102v85l221 123h3l223 -123v-85z" />
    <glyph glyph-name="uni2196" unicode="&#x2196;" horiz-adv-x="601" 
d="M591 0h-100l-387 387v-182h-74v301l3 4h305v-70h-186z" />
    <glyph glyph-name="uni2197" unicode="&#x2197;" horiz-adv-x="601" 
d="M568 510l3 -4v-301h-74v182l-388 -387h-99l440 440h-187v70h305z" />
    <glyph glyph-name="uni2198" unicode="&#x2198;" horiz-adv-x="601" 
d="M497 304h74v-301l-3 -3h-305v69h188l-441 441h99l388 -388v182z" />
    <glyph glyph-name="uni2199" unicode="&#x2199;" horiz-adv-x="601" 
d="M591 510l-440 -441h187v-69h-305l-3 3v301h74v-182l387 388h100z" />
    <glyph glyph-name="minus" unicode="&#x2212;" horiz-adv-x="610" 
d="M114 399h382v-65h-382v65z" />
    <glyph glyph-name="infinity" unicode="&#x221e;" horiz-adv-x="808" 
d="M704 498.5q39 -21.5 61 -58t22 -80.5q0 -46 -21.5 -82.5t-60 -57t-88.5 -20.5q-43 0 -83 20.5t-71 50.5l-49 50l-50 -50q-31 -30 -70.5 -50.5t-82.5 -20.5q-50 0 -88.5 20.5t-60 57t-21.5 82.5q0 45 22 81.5t61 57.5t89 21q86 0 151 -69l50 -52l49 52q67 69 152 69
q50 0 89 -21.5zM366 360l-40 43q-20 22 -48.5 39t-60.5 17q-47 0 -76.5 -28.5t-29.5 -70.5t29 -69.5t75 -27.5q31 0 60 16.5t51 39.5zM688 290.5q29 27.5 29 69.5t-29.5 70.5t-76.5 28.5q-32 0 -61 -17t-49 -39l-40 -43l40 -41q56 -56 111 -56q47 0 76 27.5z" />
    <glyph glyph-name="approxequal" unicode="&#x2248;" horiz-adv-x="479" 
d="M401 416q-28 -34 -80 -34q-27 0 -47 11.5t-47 34.5q-20 17 -33.5 25.5t-28.5 8.5q-25 0 -36 -18t-11 -48h-68q0 65 27 100.5t81 35.5q25 0 46 -12t45 -33q22 -18 36 -26.5t29 -8.5q25 0 36 18t11 48h68q0 -68 -28 -102zM401 243q-28 -34 -80 -34q-26 0 -46 11.5t-48 35.5
q-20 17 -33.5 25.5t-28.5 8.5q-25 0 -36 -18.5t-11 -48.5h-68q0 66 27 101.5t81 35.5q25 0 46 -12t45 -33q22 -18 36 -26.5t29 -8.5q25 0 36 18t11 48h68q0 -69 -28 -103z" />
    <glyph glyph-name="notequal" unicode="&#x2260;" horiz-adv-x="610" 
d="M496 417h-147l-23 -109h170v-60h-182l-26 -124h-64l26 124h-136v60h148l23 109h-171v61h183l26 123h64l-26 -123h135v-61z" />
    <glyph glyph-name="lessequal" unicode="&#x2264;" horiz-adv-x="609" 
d="M523 620v-67l-352 -128l352 -128v-70l-437 164v65zM86 261v66l437 -162v-68z" />
    <glyph glyph-name="greaterequal" unicode="&#x2265;" horiz-adv-x="609" 
d="M86 620l437 -164v-65l-437 -164v70l352 128l-352 128v67zM86 97v68l437 162v-66z" />
    <glyph glyph-name="uni22A0" unicode="&#x22a0;" horiz-adv-x="863" 
d="M60 0v750h743v-750h-743zM133 69h598v612h-598v-612zM537 217l-109 109l-110 -110l-42 44l109 109l-109 109l42 43l110 -109l109 108l43 -42l-109 -109l109 -109z" />
    <glyph glyph-name="house" unicode="&#x2302;" horiz-adv-x="831" 
d="M100 271l315 252l316 -252v-271h-631v271z" />
    <glyph glyph-name="uni24FF" unicode="&#x24ff;" horiz-adv-x="896" 
d="M254.5 38q-88.5 52 -140 141t-51.5 195q0 105 52 195t140 142.5t193 52.5t193.5 -52.5t140 -142.5t51.5 -195q0 -106 -51.5 -195t-140 -141t-193.5 -52t-193.5 52zM526.5 249q29.5 31 29.5 79v92q0 48 -29.5 79.5t-78.5 31.5t-78.5 -31.5t-29.5 -79.5v-92q0 -48 29.5 -79
t78.5 -31t78.5 31zM415 289q-12 14 -12 37v97q0 22 12 36.5t33 14.5q20 0 32 -14.5t12 -36.5v-97q0 -23 -11.5 -37t-32.5 -14t-33 14z" />
    <glyph glyph-name="filledbox" unicode="&#x25a0;" horiz-adv-x="863" 
d="M60 750h743v-750h-743v750z" />
    <glyph glyph-name="uni25A1" unicode="&#x25a1;" horiz-adv-x="863" 
d="M60 0v750h743v-750h-743zM133 69h598v612h-598v-612z" />
    <glyph glyph-name="uni25AA" unicode="&#x25aa;" horiz-adv-x="624" 
d="M60 510h504v-510h-504v510z" />
    <glyph glyph-name="uni25AB" unicode="&#x25ab;" horiz-adv-x="624" 
d="M60 510h504v-510h-504v510zM495 66v378h-365v-378h365z" />
    <glyph glyph-name="triagup" unicode="&#x25b2;" horiz-adv-x="589" 
d="M290 520h10l240 -520h-490z" />
    <glyph glyph-name="triagrt" unicode="&#x25ba;" horiz-adv-x="550" 
d="M84 520h8l413 -256v-10l-413 -266h-8v532z" />
    <glyph glyph-name="triagdn" unicode="&#x25bc;" horiz-adv-x="589" 
d="M540 510l-240 -522h-10l-240 522h490z" />
    <glyph glyph-name="triaglf" unicode="&#x25c4;" horiz-adv-x="550" 
d="M459 -12l-413 266v10l413 256h8v-532h-8z" />
    <glyph glyph-name="circle" unicode="&#x25cb;" horiz-adv-x="896" 
d="M254.5 38q-88.5 52 -140 141t-51.5 195q0 105 52 195t140 142.5t193 52.5t193.5 -52.5t140 -142.5t51.5 -195q0 -106 -51.5 -195t-140 -141t-193.5 -52t-193.5 52zM602 101q70 42 111 114.5t41 158.5t-41 158.5t-111 115t-154 42.5t-154 -42.5t-110.5 -115t-40.5 -158.5
t40.5 -158.5t110.5 -114.5t154 -42t154 42z" />
    </font>
</defs>
</svg>
