<?xml version="1.0" standalone="no"?>
<!DOCTYPE svg PUBLIC "-//W3C//DTD SVG 1.1//EN" "http://www.w3.org/Graphics/SVG/1.1/DTD/svg11.dtd" >
<svg xmlns="http://www.w3.org/2000/svg" xmlns:xlink="http://www.w3.org/1999/xlink" version="1.1">
<metadata>
Created by FontForge 20200427 at Wed Feb 19 22:23:34 2014
 By www
Copyright (c) 2010 by Robert Arnow. All rights reserved.
</metadata>
<defs>
<font id="GraffitiClassicW01-Regular" horiz-adv-x="296" >
  <font-face 
    font-family="GraffitiClassicW01-Regular"
    font-weight="400"
    font-style="italic"
    font-stretch="normal"
    units-per-em="1000"
    panose-1="2 0 0 0 0 0 0 0 0 0"
    ascent="600"
    descent="-400"
    x-height="388"
    cap-height="763"
    bbox="-630.049 -680 1094.89 975"
    underline-thickness="50"
    underline-position="-150"
    slope="-34"
    unicode-range="U+0002-2122"
  />
<missing-glyph horiz-adv-x="126" 
 />
    <glyph glyph-name=".notdef" horiz-adv-x="126" 
 />
    <glyph glyph-name=".null" horiz-adv-x="0" 
 />
    <glyph glyph-name="uni000D" unicode="&#xd;" horiz-adv-x="126" 
 />
    <glyph glyph-name="uni0002" horiz-adv-x="0" 
 />
    <glyph glyph-name="uni0009" unicode="&#x9;" horiz-adv-x="126" 
 />
    <glyph glyph-name="uni000A" unicode="&#xa;" horiz-adv-x="0" 
 />
    <glyph glyph-name="space" unicode=" " horiz-adv-x="126" 
 />
    <glyph glyph-name="exclam" unicode="!" horiz-adv-x="228" 
d="M213 224q3 -1 8 -1t5.5 -0.5l2.5 -2.5q0 -1 1 -2q2 -2 3 -4q-1 -4 -4 -7q-2 0 -10.5 -8t-13.5 -13q-3 -3 -5 -4l-3 -3q-3 0 -7 2q-2 1 -3 2l-35 24l-8 6q-8 6 -8 9q0 2 3 2q0 4 4 13t10.5 21t14.5 26.5t17 28.5q20 33 46 73q20 31 41 65q18 29 39.5 66t42.5 75
q20 39 27.5 63t8.5 38q1 16 -5 24v2q0 1 3 3q0 -2 7.5 -8t16.5 -12.5t17 -12t9 -5.5l5 -5q1 -1 1 -2q6 -19 -3 -50t-27 -67.5t-41.5 -75t-45.5 -71.5q-23 -35 -43.5 -68.5t-36.5 -60.5q-18 -32 -34 -60zM22 124q-1 1 -1 3t-0.5 3.5t1.5 3.5q3 1 18.5 13.5t35.5 25t41 19
t33 -3.5q20 -16 30.5 -25t13.5 -17q1 -1 2 -4q2 -6 2 -10v-4.5t-2.5 -12t-10.5 -23t-24 -36.5q-35 -44 -57.5 -53t-35.5 -4q-4 4 -12.5 10.5t-17.5 12.5q-11 7 -23 15q-5 6 -7 16q-2 8 -1 20t8 27l10 19q-1 1 -1 1.5t-1 1.5t-1 2zM50 36v-1q0 -1 2 -1q1 0 8.5 4t19 14.5
t26 29t31.5 48.5l10 20q0 3 -12.5 -2.5t-48.5 -38.5q-14 -19 -26.5 -40.5t-9.5 -32.5z" />
    <glyph glyph-name="quotedbl" unicode="&#x22;" horiz-adv-x="137" 
d="M239 629q8 12 10.5 24.5t4.5 17.5q1 1 4 1q1 0 2 -1q2 -2 10.5 -12.5t13.5 -15.5l4 -5q3 -5 8 -8q3 -2 5 -4q1 -20 -13.5 -45.5t-34 -52t-39 -51.5t-29.5 -42q-3 -6 -6.5 -12.5t-3.5 -12.5t-2.5 -13t-5.5 -10q-2 0 -4 1q-3 0 -5 2q0 3 -4 7t-8 7q-1 0 -3 2l-2 2
q-9 7 -10 13q-1 2 -2 5q-2 2 -3.5 5t-3.5 5q-3 3 -4.5 7t2.5 12.5t14 23.5t30 40q18 23 31.5 43t23.5 35q11 18 20 32zM138 639q1 1 0.5 2.5t1.5 3.5q8 0 10 -8q0 -1 4 -5.5t9 -9.5l10 -10t7 -6q5 -4 9.5 -6.5t4.5 -4.5q0 -3 -5 -6l-79 -106q-10 -14 -15.5 -22t-8.5 -13
q-4 -5 -6 -8l4 -2q4 -2 7 -2q1 0 3 -7q0 -3 1 -5q2 -4 -21 -21q-7 -5 -12 -7t-10 -3t-9 0q-4 0 -11 5q-4 3 -7 6l-7 7l-6.5 6.5t-5.5 6.5q-1 2 -1.5 4t-1.5 3t-1 2t-1 2l-1 1q0 2 2.5 6.5t9 14.5t17.5 25.5t28 38.5q19 25 33 46t25 36q11 18 21 32q1 0 1 1t1 3z" />
    <glyph glyph-name="numbersign" unicode="#" horiz-adv-x="564" 
d="M612 312q4 0 6 -2t-1 -2q0 -2 -16 -4.5t-43 -4.5t-63 -4.5t-77 -4.5q-8 -12 -14.5 -21t-8.5 -12q-2 -4 2 -4q1 -1 2 0q23 2 42 2t33 1q16 0 28 1q1 -1 3 -1q2 -1 3 -1t3 -2q3 0 6 -5t3 -9l6 -24q7 -4 5 -9q-1 -4 -10 -4h-22q-30 0 -66 -0.5t-78 -4.5q-37 -64 -59.5 -105
t-35 -65t-17 -34t-4.5 -11q-2 -2 -4 -2q-3 -2 -9 2q-5 3 -9.5 5.5t-9.5 7.5q-5 4 -11.5 6.5t-10.5 2.5v9q0 1 1 3t1.5 4.5t2.5 5.5q7 16 20 40q11 20 29 51.5t45 75.5q-17 -1 -30.5 -2t-28.5 -3q-13 -17 -23.5 -31.5t-18.5 -25.5q-10 -13 -18 -24h5q0 -4 5.5 -4.5t5.5 -3.5
q0 -2 -3.5 -6.5t-8.5 -9.5q-5 -6 -12 -12l-19 -18q-2 -2 -4 -3q-5 -2 -7 1q-4 0 -5 1q-1 0 -2 1q-7 3 -14 9t-13 12q-7 7 -13 15l14 22q10 17 23 35t27 38q-15 0 -31 -1.5t-30 -3t-23.5 -3t-10.5 -1.5q-4 0 -12.5 -1t-12.5 3q-3 2 -5.5 5.5t-4.5 5.5q-3 3 -4 5q0 3 -7.5 8.5
t-7.5 9.5t2 5.5t2 4.5q1 0 7.5 1t26 3t56 5.5t98.5 8.5q7 8 14.5 19t15.5 23q-38 0 -65.5 2.5t-47.5 6.5q-6 1 -10 3t-7.5 4.5t-4.5 5.5q-1 2 -4 7t-7 10t-7.5 9t-4.5 4q-2 1 -3 3q-2 3 7 6q5 2 23 6t43.5 8t55.5 7t59 3q-1 0 -6.5 -1t-11.5 -2.5t-12 -3.5t-7 -3
q-3 0 -6.5 -1t-4.5 -4q-1 -2 2.5 -2t3.5 -4q-3 -4 0 -8t5 -4h45q11 17 22 32t19 26q10 12 17 23q0 6 4 10q2 2 5 4l4 -5q4 0 9.5 -6.5t8.5 -6.5l12 -8q5 -3 8.5 -6t4.5 -4q2 -4 -5 -8q-2 -1 -7 -7.5t-10 -14.5t-10 -15.5t-8 -10.5l51 2q25 38 47.5 72t39.5 60q20 30 37 54
q4 3 5 6.5t4 6.5q0 1 1 2t1.5 2t2.5 1q3 3 5 2q1 -1 3 -2l23 -22q2 -3 5 -6l8 -8q4 -4 6 -5.5t-1 -3.5q-2 -1 -16.5 -20.5t-32.5 -45t-35.5 -51t-24.5 -37.5q33 2 59 4q23 2 42.5 3t23.5 3q3 0 9 2q3 1 6 1q1 0 3 -2q0 -1 1 -2v-5q0 -4 4.5 -8.5t4.5 -8.5v-8q4 0 4 -10z
M319 249q4 8 11.5 19t11.5 17l-49 -4l-28 -35z" />
    <glyph glyph-name="dollar" unicode="$" horiz-adv-x="429" 
d="M472 673q4 -4 4 -7q2 -6 7.5 -10.5t3.5 -6.5q-3 -5 -6 -6q-2 -1 -3 -2q-2 -2 -4 -3q-4 -2 -6 -2q-10 -1 -25 -29q-8 -50 -10.5 -88.5t-1.5 -68t4 -50t5 -35.5q2 -14 4 -21q1 -5 3 -10l-2 -2q-1 -1 -4 -1t-4 1q-1 0 -1 1q-2 1 -8 10t-13.5 20t-14.5 21t-10 13
q-5 6 -7.5 7.5t-0.5 6.5q0 2 1 1.5t2 1.5q1 1 1 2v1q0 2 -0.5 20t4.5 56q-15 -33 -31 -65.5t-36 -72.5l17.5 -31.5t14.5 -27.5q24 -45 31 -73.5t6 -45t-7.5 -24t-9.5 -8.5t-5.5 -1.5t-5.5 -0.5q-19 -3 -36.5 0.5t-33 9.5t-29.5 14t-26 15q-5 -8 -6.5 -10.5t-2 -3.5t-1 -3.5
t-4.5 -9.5q-8 -17 -15 -29q-6 -11 -11.5 -18t-7.5 -2q-1 2 -7 8t-13.5 14t-15 15.5t-10.5 12.5q-3 3 1 9q5 5 9 6q8 2 18 18t15 27q-41 28 -63 51.5t-32.5 41t-12 29t-0.5 16.5q0 1 3.5 10t16.5 11.5t39.5 -8.5t72.5 -49q6 -5 8.5 -7t8.5 -6q9 15 19.5 38.5t18.5 44.5
q-11 20 -19.5 36.5t-17.5 32.5q-23 40 -26.5 67.5t7 46t31 29t46 16.5t52 8t48.5 4l6.5 13t12.5 22q8 13 17 30l8 16q1 2 1.5 2t1.5 1q2 0 4 0.5t3 -0.5q0 -1 1 -2q1 -2 4.5 -6.5t8 -10l9 -11t7.5 -9.5zM355 569q-7 -1 -21.5 -2.5t-30.5 -6t-30.5 -13.5t-20 -25.5t1 -42
t31.5 -61.5q22 46 38.5 82.5t31.5 68.5zM291 185q26 -4 36 11.5t9.5 39t-8 48.5t-16.5 40q-8 -17 -15.5 -33.5t-15.5 -30.5q6 -9 13 -20t12.5 -20t8.5 -15.5t2 -7.5q-3 0 -6 1q-1 1 -2 2.5t-3 2.5q-8 5 -19 13t-20 16q-8 -11 -9.5 -16t-9.5 -17q2 -4 4 -4q1 -1 1 0
q4 -2 10 -4q5 -2 12 -3.5t16 -2.5zM139 313q-4 -8 1.5 -19t15 -22.5t20.5 -22.5t19 -18q9 14 14.5 28t13.5 31q-6 5 -10 7t-10 6q-15 8 -27 12q-11 4 -21.5 4.5t-15.5 -6.5z" />
    <glyph glyph-name="percent" unicode="%" horiz-adv-x="467" 
d="M60 145q6 5 11 9l7.5 7.5t3.5 5.5l6 5q58 50 111 94q22 19 45.5 38.5t44.5 37.5t39 33l30 25q46 42 75.5 64.5t30.5 30.5q5 4 7 9t6 4h5q1 0 2 -1t1 -4q0 -5 5 -8q2 -3 5 -4q1 -6 4 -11q3 -11 8 -15q3 -2 6 -5q6 -6 6 -9q-2 -2 -13 -11t-28 -22.5t-37 -30t-39 -32
t-35 -29t-25 -21.5l-107 -94l2 -8q1 -3 2.5 -6t3.5 -3q1 0 4 -3q1 -1 1 -2q-5 -4 -22 -15q-14 -10 -43 -29.5t-78 -51.5q0 -2 -1 -2q-1 -1 -5 3q-2 0 -8 7.5t-13 17.5zM282 403q7 -15 0.5 -29t-19 -26t-28 -22t-26.5 -16q-20 -11 -37 -6t-20 9l-33 38q-10 16 -4.5 31.5
t16.5 28.5t23.5 22.5t17.5 12.5q28 19 50 14.5t29 -12.5q6 -9 12 -17q5 -7 10 -14.5zM440 212q3 -4 2.5 -9.5t-5.5 -15.5q-15 -27 -32 -40.5t-31.5 -19t-24.5 -6t-12 -0.5q-3 -1 -7.5 0.5t-8.5 3.5t-9 4q-9 5 -16.5 14t-12.5 17q-6 10 -12 21q-4 17 7 33.5t25 28.5
q17 14 39 26l6 5q14 6 24 5.5t17 -3.5q8 -4 13 -9q9 -15 17 -26q7 -10 13 -18.5t8 -10.5zM156 344q3 1 16.5 9.5t28 19.5t26 21t10.5 15q-1 6 -9.5 2.5t-18 -10t-18 -13.5t-10.5 -9q-1 -7 -8.5 -13.5t-16.5 -21.5zM385 227l-2 -3l-25 -14q-11 -7 -18.5 -13.5t-12.5 -11.5
q-6 -6 -10 -12q17 3 32.5 11t27 17t18 16t5.5 8z" />
    <glyph glyph-name="ampersand" unicode="&#x26;" horiz-adv-x="415" 
d="M-14 184q0 3 0.5 7t3.5 2q1 0 3 -1t2.5 -1.5t2.5 -1.5q5 -2 35 3.5t71 14.5q20 22 49 52.5t67 74.5l39 44q7 70 23 118t34 78t34 44.5t24 18.5q13 8 25 8q6 0 13 -1h1l2 -2q2 -3 6.5 -9.5t10.5 -11.5q7 -7 11 -10t7 -8q2 -2 6.5 -9.5t6.5 -13.5q2 -5 0 -10q-1 -8 -7 -25
t-23 -45t-47.5 -68.5t-79.5 -94.5q2 -46 6 -83q28 7 49.5 12t33.5 9q5 1 25 6.5t43 11t42 10t21 4.5t5 1.5l5 2.5h3h1q1 0 2 -1t5 -3l5 -5t4 -6q0 -2 2 -4t3.5 -6t3.5 -7q2 -4 5 -8l4 -5v-1q0 -1 0.5 -1t0.5 -2q-1 -2 -1 -3v-1q-1 -1 -3 -1q-2 -1 -3 -1t-3 -2q-1 -1 -1 -2
q-2 -2 -7 -4l-10 -4q-6 -3 -13 -5q-32 -14 -85 -43t-110 -62q16 -50 29.5 -74.5t9.5 -35.5q-1 -1 -2.5 2.5t-4.5 7.5q-2 3 -5 4.5t-4 5.5q-3 4 -5.5 5t-4.5 4q-2 2 -3.5 5t-2.5 3q-6 6 -6 -3q-1 0 -1 1l-1 1q-5 6 -9 15q-8 13 -21 41q-36 -21 -70 -40.5t-62 -33.5
q-41 -20 -65.5 -29t-38.5 -11.5t-19.5 -1.5t-7.5 1q-6 0 -7.5 0.5t-5.5 4.5l-36 49q-2 4 -2 10q0 5 2 12.5t9 18.5q8 12 17.5 24.5t20.5 23.5q-2 0 -2 -0.5t-2 -0.5q-1 0 -4.5 -1t-7.5 -2t-8 -1.5t-5 -0.5q-7 0 -7 5q-1 3 -4.5 11.5t-3.5 9.5q-3 4 -8 11t-5 9zM140 162
q-48 -53 -67 -76.5t-19 -25.5q-1 -2 -1 -4q0 -1 1 -1q1 -2 23.5 7.5t56.5 26t75 37t79 40.5q-5 11 -10 28zM322 451q39 49 58 78t27 45t8.5 21.5t1.5 7.5q-5 -1 -16.5 -13t-25 -32t-28 -47.5t-25.5 -59.5zM252 280q-14 -14 -26.5 -27t-23.5 -25l63 15q-2 11 -3.5 21.5
t-3.5 21.5zM400 225q-8 -3 -29 -8t-51 -13q1 -11 4 -18z" />
    <glyph glyph-name="quotesingle" unicode="'" horiz-adv-x="0" 
d="M46 389q0 -1 -2 -3q-12 -3 -18 8t-11 21q-2 6 -5.5 13.5t-6 15.5t-3.5 17t3 18v1q1 0 2 1q1 0 3 2q3 5 10 16t16.5 26t20.5 32.5t22 35.5q-1 2 -5 2t-6 3q2 4 3 5.5t3 4t5.5 6t11.5 10.5q11 11 12.5 13.5t0.5 3.5q2 0 5.5 -1.5t6.5 -3.5l8 -4l18 -9q7 -4 12.5 -7.5
t6.5 -4.5q0 -3 3 -6q1 -1 3 -2q0 -1 -2.5 -5.5t-9 -15t-19 -29t-31.5 -47.5q-15 -23 -24 -37t-14 -22t-8 -12.5t-4 -7.5l-3 -8q-2 -6 -3 -15.5t-1 -14.5z" />
    <glyph glyph-name="parenleft" unicode="(" horiz-adv-x="306" 
d="M271 320q-41 -66 -69 -123t-44 -111.5t-20.5 -110t1.5 -119.5v-2q0 -1 1 -2q2 -2 4 -5.5t0 -6.5q0 -1 -0.5 -1t-0.5 -1v-2q0 -8 -7 -10q-2 0 -6.5 3.5t-10.5 9.5t-11.5 12.5t-8.5 11.5l-3 8q-4 11 -10 53.5t1 107.5t35 148.5t92 176.5q59 85 123.5 156.5t119.5 124
t93.5 83.5t45.5 36l2 1l33 -13q6 -2 11 -4t8 -4t4 -3q1 -2 -1.5 -8t-8.5 -11l-1.5 -1.5t-1.5 -2.5q-5 -9 -10.5 -18.5t-10.5 -11.5q-3 -1 -6 -3q-7 -4 -8 -3q-2 0 -3 1t-3 2q-29 -25 -72 -65t-89.5 -88t-91.5 -101t-76 -104z" />
    <glyph glyph-name="parenright" unicode=")" horiz-adv-x="306" 
d="M389 702l6 -10t11.5 -31t6.5 -55t-8.5 -81.5t-33 -111t-67.5 -143.5q-47 -86 -104.5 -161t-108.5 -132q-60 -66 -120 -122q-14 -12 -24 -21.5t-18 -4.5q-3 1 -8 4.5t-10.5 7.5t-10 7t-6.5 5q-4 3 -11 10.5t-6 10.5q5 6 9 11t7.5 9.5t6.5 7.5q11 11 13.5 16t9.5 -5
q0 -2 1 -4t7 4q21 22 54.5 57t74 82t85.5 107t90 132q66 103 91.5 181.5t28 133t-9 87t-19.5 43.5q-1 1 0 3.5t2 4.5q1 0 1 3q1 2 3 1.5t8 -8.5q3 -3 8.5 -7t10.5 -8q6 -4 13 -8q3 -2 7 -5q3 -2 5.5 -5t4.5 -5z" />
    <glyph glyph-name="asterisk" unicode="*" horiz-adv-x="166" 
d="M353 521q-2 -1 -3 -1q-3 -3 -3 -2q-1 -2 -3.5 -1t-2.5 -1q-2 0 -4.5 2t-6.5 4q-4 3 -9 7l-2 2q-2 2 -2 4q0 1 -0.5 2t-0.5 2v3q0 1 1 1l47 33q-7 1 -11 3q-11 3 -13 6q-8 2 -8 5t4 11q1 2 0.5 5.5t-1.5 6.5l-2 8q-1 1 -1 2t3 1q2 -1 6 -2t9 -3t12 -5q3 -2 7 -3q8 -4 8 -2
q-2 11 -6 24.5t-6 16.5q-9 11 5 9q3 -1 7 -1q3 0 6 -0.5t5 -0.5t4 -0.5t4 -0.5h4h6l1 -1v-4q-1 -2 0.5 -3t1.5 -3t0.5 -7.5t2.5 -12.5q2 -8 4 -17l48 33l3 3h1q1 0 5 -2q4 -5 7.5 -9t6.5 -8q4 -4 6 -9q0 -2 1 -2.5t-4 -3.5l-4 -2q-1 -1 -2 -1l-29 -20l26 -10q2 0 1.5 -1.5
t1.5 -1.5l1 -2q1 -2 1 -13q-1 -20 -5 -18q-4 0 -23 7q-10 3 -22 7h-2q-3 0 -1 -2q0 -2 2 -10.5t4 -19.5q3 -12 7 -27q2 -2 0.5 -4t-5.5 -2q-1 0 -6 1t-10 2.5l-10 3t-6 1.5h-3q-1 0 -2 2q-1 1 -1 7q-1 3 -2 9.5t-3 13.5q-2 8 -3 17z" />
    <glyph glyph-name="plus" unicode="+" horiz-adv-x="409" 
d="M266 186q0 -4 -1 -8t-2 -10t-3 -14q-1 -1 -4 -3q-2 -2 -5 -3t-5 -3q-2 -1 -3 -1q-3 0 -2 2q-4 0 -8 8t-9 14q-2 2 -5.5 6t-7.5 8l-10 10q-1 2 -1 6q0 7 4 10q2 10 6 22q3 10 6.5 23.5t8.5 29.5q-29 -11 -45.5 -16.5t-31.5 -11.5q-6 -2 -9 -2t-5 1.5t-4.5 3.5t-7.5 4
l-11 3v6q-3 2 -2 0.5t-10 3.5q-9 4 -10 14q-1 1 -1 3q0 3 3 6l10 5l-3 -1q7 2 42.5 12.5t99.5 32.5q7 27 11.5 47.5t8 38t7 32.5t9.5 32q2 2 4.5 2.5t4.5 2.5q2 1 4 3q-1 -2 0 -3q0 -3 5 -3q-1 -2 5.5 -9t14.5 -14q9 -9 21 -18q-2 -8 0 -17.5t4 -15.5q2 -2 2 -5q0 -6 -4 -5
q-7 1 -7 1.5t-5 2.5l-13 -55q24 5 44.5 11t48.5 10h4q2 0 8 -2q1 -2 4.5 -6.5t7.5 -9.5q4 -6 10 -13v-5q-1 -4 5 -6l6 -2l-7 -5q-11 -2 -47 -9.5t-100 -27.5z" />
    <glyph glyph-name="comma" unicode="," horiz-adv-x="172" 
d="M43 11q-1 0 -2 2q-3 2 -4 7q-2 2 -4 5t-4 7q-3 4 -5 9q-1 0 -1 1q0 3 1 5q2 4 10 10l45 32q0 1 1 1t2 1q3 1 5 3q1 1 2 2.5t4 2.5h3l2 -1q3 -3 3 -2v-2q5 -8 10 -15q4 -6 8.5 -12t6.5 -10l3 -3l2 -2q2 -2 4.5 -5.5t1.5 -5.5q-2 -2 -10 -14.5t-22 -30.5t-34.5 -38.5
t-46.5 -38.5q-2 -1 -2.5 -2t-1.5 -2t-5 -0.5t-4 2.5q0 1 -1 2l-3 3q-2 0 -1.5 3.5t-1.5 3.5q-2 -1 -4 1.5t-2 4.5v1q0 1 -0.5 1.5t-0.5 1.5q-1 2 -7.5 10.5t-3.5 11.5q0 1 3.5 2.5t10 6t17.5 14t26 27.5z" />
    <glyph glyph-name="hyphen" unicode="-" horiz-adv-x="384" 
d="M113 262q0 1 -1 3v2h1q15 -1 52 -1.5t77.5 -0.5t76 0.5t48.5 1.5q8 1 11.5 3.5t3.5 0.5q1 -1 4 -8t5.5 -15.5t5 -16.5t2.5 -10l2 -10t-1 -7l-1 -1q-1 -3 -4.5 -6t-5.5 -3h-2q-1 1 -4.5 3t-5.5 2q-57 1 -102 1h-38.5t-33.5 -0.5t-25 -1t-11 -1.5v-20q0 -1 -1 -1h-10
q-4 0 -6.5 2t-4.5 3h-1q-1 4 -11 10t-18 10l-2 2l-2 4t-1 5v21v15.5t2 13.5h1z" />
    <glyph glyph-name="period" unicode="." horiz-adv-x="152" 
d="M108 38q-14 -11 -26 -20q-11 -8 -20.5 -13t-13.5 -1q-8 7 -15 13q-6 5 -11.5 10t-7.5 7q-2 1 -2 3q-1 2 2 10q0 1 4.5 8.5t11 16.5t14 19t13.5 16l4 4q2 0 4 -4q3 0 9 -4t8 -7l3 -4l15 -15q4 -6 0 -9q-2 -2 -2.5 -3.5t-1.5 -2.5l-1 -2q0 -1 1 -2l3 -3l2 -7q1 -1 4 -3.5
t3 -6.5z" />
    <glyph glyph-name="slash" unicode="/" horiz-adv-x="220" 
d="M18 30q-2 3 12.5 27.5t39.5 63.5t58 89t68.5 103t70.5 106t65 98t51 79t29 49l-9 9q-1 0 -2 1.5t-2 2.5q-2 3 -4 4l-4 2q-2 0 0 2l4 5l49 44l12 17q0 1 1 2l2 2q4 6 8 5q0 -1 1 -1h2q3 -2 5.5 -4.5t7.5 -3.5h2q8 -5 17 -14t9 -13q0 -5 -2 -6.5t-3 -5.5q-2 -12 -19.5 -44
t-45 -76.5t-62.5 -98t-72 -109l-73 -109.5t-65.5 -100t-50 -79.5t-26.5 -48.5q-3 -3 -2 -3l-7 -14t-9 -17v-3q0 -3 -0.5 -6t-3.5 -4l-2 -1q-10 -5 -16 1q-2 2 -6.5 7.5t-10 11.5t-10 11t-7.5 7q-4 5 -2 6t2 6z" />
    <glyph glyph-name="zero" unicode="0" horiz-adv-x="326" 
d="M442 613q11 -8 15.5 -16.5t6.5 -16.5q2 -10 2 -19q-1 -33 -15 -78q-12 -39 -38 -96t-74 -132q-51 -80 -84.5 -126t-56 -71t-37 -35t-26.5 -19t-23.5 -11.5t-20.5 -0.5q-11 1 -21 6l-34 18q-17 12 -24 35q-7 20 -5 52.5t23 83.5q37 89 69 150.5t56 100.5t38.5 58.5
t15.5 25.5q0 1 6 -1q3 -2 5 -3q37 49 69.5 80t49.5 42q21 14 32 12t15 -5q6 -7 21 -12.5t35 -21.5zM283 306q43 67 69 122t38.5 93.5t14 59.5t-4.5 21q-14 -2 -39 -24q-21 -19 -55.5 -61t-85.5 -121q-54 -83 -85.5 -149t-47 -111t-18.5 -67.5t0 -19.5v-5q0 -1 1 -1
q17 1 75 67t138 196z" />
    <glyph glyph-name="one" unicode="1" horiz-adv-x="312" 
d="M45 60q12 23 27 49t31 52t31.5 51t29.5 45q-16 0 -29.5 4.5t-15.5 6.5q-27 21 -29.5 41.5t11 41.5t38.5 42t52 42q111 81 165 134.5t57 65.5q2 5 3 6t1 3q3 2 5.5 7l3.5 7l5 -3q1 0 2 -1l4 -4q0 -1 9.5 -6t20.5 -11t20 -11t9 -6v-5t-9 -10q-8 -13 -16.5 -25.5
t-25.5 -34.5q-12 -18 -38.5 -56t-56 -79t-56 -77.5t-37.5 -52.5q-12 -18 -35 -52t-45.5 -68.5t-39.5 -60.5t-18 -28q0 -5 1 -5q0 -1 1 0q8 3 28.5 7t42.5 9q25 4 54 10q7 1 24.5 2t36 -1t32.5 -9t15 -22q0 -4 1 -4q0 -1 1 0q6 0 0 -6q-1 -4 -6 -4h-4q-29 0 -71 -6t-81 -13
q-46 -8 -94 -18q-1 -1 -5 -8.5t-8.5 -16t-9 -16t-5.5 -9.5q-2 -4 -5.5 -5.5t-2.5 0.5q0 2 -8 10q-4 4 -7 8q-2 0 -6 4l-9 9t-11 13q-5 0 -18 -4.5t-28 -10t-27.5 -10.5t-15.5 -6q1 -2 3 -3q2 -2 4 -2q3 0 3 -3v-3l6 -5q0 -3 -3 -6q-2 -2 -4 -3l4 -1q-37 -14 -56.5 -18
t-29.5 -3q-11 1 -14 7q-1 2 -2.5 3.5l-3.5 3.5q-3 2 -5 3q-2 3 -5.5 12t-6.5 11v2q3 6 9 12l6 6q37 20 69.5 32.5t59 20.5t45 13.5t28.5 11.5q2 1 2 1.5t1 1.5q0 1 1 1zM295 443q-5 -7 -13.5 -13.5t-20 -15.5t-27.5 -21.5t-36 -31.5q-21 -20 -32.5 -33.5t-16.5 -21.5
q-6 -10 -7 -15l8 -12l7 -6l12 -9q26 38 49.5 70.5t40.5 56.5t27 38t9 14z" />
    <glyph glyph-name="two" unicode="2" horiz-adv-x="337" 
d="M196 497q8 16 14 29q5 11 10.5 22l7.5 15q0 2 2 7.5t4 10.5q3 6 6 13q1 2 3 3q4 2 7 2q2 -2 3 -5.5t3 -5.5q2 -4 4 -6q2 0 5 -1q5 -3 5 -5q30 24 63 43q28 17 61 31.5t63 18.5q4 2 9 2q5 -1 11.5 -4t15.5 -12q9 -7 15 -12t10 -8l6 -6q3 -2 2.5 -6.5t0.5 -6.5q0 -2 1.5 -3
t2 -4t-0.5 -9t-5 -17t-14 -30t-31 -49t-55.5 -72.5t-88.5 -99.5l-71 -65q21 -11 46.5 -21.5t47.5 -21t36.5 -20.5t14.5 -20q-2 -20 -9 -31.5t-17.5 -18t-22.5 -10.5t-24 -9q-10 -3 -37.5 -11t-59 -16.5t-59.5 -16.5t-40 -11q-12 -5 -38.5 -13.5t-57 -20.5t-62 -26t-53.5 -30
q-24 -17 -37.5 -26t-20.5 -14q-8 -5 -11 -7q0 -2 -1 -3t-2 -3t-2 -3l-6 -8q-6 -8 -11 -8q-3 -1 -4.5 -0.5t-3.5 0.5h-2l-16 13l-6 4q-2 2 -4 3.5t-4 3.5q-2 1 -5.5 4t-6.5 6l-8 8l6 4q0 5 25 27t76 50q5 4 9 8q4 3 7.5 6.5l5.5 5.5q1 1 22.5 18t56.5 45.5t80 67t94 82.5
t97.5 91.5t90.5 93.5t73.5 89.5t45.5 79.5q-32 -8 -65 -25q-29 -14 -64.5 -38.5t-69.5 -62.5q-6 -6 -10 -11t-8 -9t-6 -5q0 -1 -4 -9t-9.5 -20t-13 -27t-15.5 -30q-18 -36 -41 -81l-6 -10q-6 -6 -8 -6q-2 -1 -2 0l-3 3l-3.5 3.5l-3.5 3.5l-5 6q-2 2 -3 2.5l-3 1.5
q-6 4 -14.5 9.5t-10.5 5.5q0 3 -2 5q-1 1 -2 1q1 18 12 44q9 23 29.5 56.5t58.5 81.5zM91 107q3 1 20.5 5.5t42 11.5t53.5 15.5t55.5 18t48.5 19.5t32 18l3 8q1 5 -4 9t-22 16q-8 5 -20 13t-40 21q-74 -73 -119 -112t-50 -43z" />
    <glyph glyph-name="three" unicode="3" horiz-adv-x="461" 
d="M175 427q8 17 19.5 35t22.5 34q13 18 27 37v2q0 1 0.5 2.5t0.5 3.5t11.5 19.5t25 38t24.5 38t12 19.5l5 4q5 -2 9 -6q4 -3 8.5 -7t7.5 -9q4 -5 7.5 -9t5.5 -8q3 -4 5 -9l-13 -25q50 12 83.5 21t53.5 16.5t29.5 13t12.5 8.5q2 2 3 2.5t3 2.5q2 1 4 3l9 -2q0 -2 1 -5
q2 -5 5 -10q8 -6 17 -15q5 -5 11 -12v-4q-2 0 -6 -3t-9 -7.5l-10 -9t-7 -7.5q-2 -2 -10 -8.5t-19.5 -17t-25.5 -23.5l-28 -26q-33 -31 -75 -69q-1 -2 3 -1q4 0 13 2t27 7q17 3 31 0.5t24 -7.5q11 -5 20 -13l54 -41l-2 -14q1 -4 -2.5 -22.5t-23 -51.5t-59.5 -81t-112 -111
q-72 -60 -138 -92.5t-116.5 -47t-82 -16t-35.5 -1.5t-10 3q-4 2 -7 4q-32 12 -45.5 26.5t-15.5 19.5q-2 0 -4 2q-1 1 -1 2q-3 20 7 43q8 20 30 45.5t70 54.5q63 37 115.5 53t91.5 21q46 5 83 -1l23 -2l30 -15q-28 2 -55 -0.5t-50 -7.5q-26 -5 -50 -12l19 -2q-14 -4 -25 -8
q-10 -3 -18 -6t-10 -2q-3 0 -7 -6q-2 -3 -4 -5q-86 -38 -128.5 -69t-58.5 -53q-19 -26 -15 -47q33 -3 79 8q39 10 96.5 35t135.5 78q85 65 131.5 117t69 88.5t27 56.5t4.5 22q0 7 -2 7q-1 0 -2 -1q-50 3 -92.5 -10t-74 -30.5t-50 -33.5t-20.5 -18t-5.5 -4.5t-5.5 -6.5
q-4 -4 -6 -9l-6 -9q-3 0 -6 -1q-6 -2 -8 -1q-9 10 -16 19q-6 8 -12 14.5t-8 8.5t0.5 5.5t4.5 6.5q3 4 7 8q48 51 89.5 90t72.5 67q36 32 66 56l-15 -5q-7 -2 -17 -5t-22 -5t-23.5 -3t-20.5 -1h-20q-25 -31 -41 -57.5t-26 -46.5q-11 -24 -17 -43l-16 15l-3 3q-2 1 -3 2t-3 1
q-3 1 -10 8.5t-9 12.5q0 1 -5 4q-2 1 -4 1z" />
    <glyph glyph-name="four" unicode="4" horiz-adv-x="367" 
d="M535 436q3 -5 1 -9.5t-6 -8.5t-10 -8q-4 -3 -36 -9.5t-94 -23.5q-19 -36 -50 -89.5t-64.5 -111t-64 -112t-48.5 -92.5l-8 -18q-2 -5 0.5 -8.5t6 -6t6 -5.5t1.5 -7q-1 -3 -6.5 -7.5t-11.5 -9.5t-11.5 -9.5t-6.5 -6.5q-17 9 -29 17q-11 7 -20 13t-11 8t-8 6q-3 2 -5 3
q50 87 97 166q19 34 40 69.5t40 69t36 63.5t29 52q-4 0 -7 -0.5t-8 -3.5q-51 -14 -82.5 -23t-51.5 -16q-23 -8 -35 -13q-2 -3 -8.5 -8.5t-14 -11.5t-14 -10t-7.5 -4q-2 0 -6.5 -2.5t-10.5 -5.5t-11.5 -5.5t-8.5 -2.5q-2 0 -7.5 4.5t-12.5 10.5q-8 6 -17 15l-5 4q-3 0 -1 7
q1 3 2 7q28 25 51.5 35t27.5 12t6 5.5t7 7.5q25 18 56 43t60.5 53.5t55 59.5t40.5 61t16.5 59t-16.5 53q2 0 4 1q5 0 5 -1q0 -2 4.5 -6.5t10.5 -9t11.5 -9t7.5 -5.5l3.5 -3.5t2.5 -3.5t2 -3q18 -31 14.5 -62t-22.5 -63t-49 -65t-65 -68q11 4 20.5 6t21 5t27 7t38.5 12
q13 24 31 56.5t34.5 62.5t28 51.5t11.5 23.5q0 4 -1 16.5t1 16.5l6 -2q2 -1 4.5 -2.5t4.5 -3.5q1 -1 6.5 -7t12.5 -12.5t13 -12.5t7 -6q5 -2 7 -6.5t1 -7.5v-5q-13 -21 -26 -46q-12 -21 -26.5 -49t-29.5 -57q12 3 22.5 6.5t18.5 6.5q10 4 18 7q1 1 -1 7t-5 13t-6 12.5
t-4 7.5q2 -1 9.5 -6t13.5 -8q2 -2 1.5 -1t1.5 1q5 -2 11.5 -7.5t12.5 -12.5t12 -13.5t9 -10.5z" />
    <glyph glyph-name="five" unicode="5" horiz-adv-x="390" 
d="M151 253q-8 -10 -9 -12q-1 -3 -1 -4h-9l-6 5q-8 9 -15 16l-11.5 11.5l-7.5 7.5v6q0 15 10.5 38t26.5 51.5t35.5 60.5t38 64.5t33 64.5t20.5 60q1 3 -0.5 7t0.5 9q5 3 9 2q3 -1 5 -2q2 -5 17 -8q13 -3 39.5 -4.5t75.5 0.5q42 3 79 8.5t65.5 11t45 10.5t18.5 7h10
q3 0 8.5 -6t5.5 -11l19 -35q0 -1 -1 -3t-1.5 -3.5t-2.5 -3.5q0 -3 -7 -5q-4 -1 -7 -1q-40 -20 -62.5 -31.5t-33.5 -17.5q-13 -7 -18 -10q-7 8 -11 15q-4 6 -6.5 12t-0.5 11q3 7 2 7t-2 -1q-22 -4 -45 -8q-20 -3 -43.5 -5t-44.5 -2q-18 0 -29.5 0.5t-19.5 1.5q-9 1 -13 3
q0 -8 -10.5 -29.5t-22.5 -44.5q-14 -26 -32 -58q52 47 85 66t54 21.5t32.5 -5t20.5 -13.5q9 -5 19.5 -16.5t20.5 -24.5t17 -25t9 -16q0 -7 2 -15q1 -4 3 -6q-5 -41 -29 -89q-20 -42 -62.5 -96t-119.5 -115q-55 -43 -98 -68t-76 -36.5t-56.5 -13t-38.5 1t-22.5 7.5t-8.5 6
q-5 3 -5.5 5.5t-2.5 4.5q-8 7 -12.5 12.5t-6.5 9.5q-3 4 -4 7q-14 22 -11 46t15.5 47t31 44t36.5 37.5t31 26.5t15 11q4 4 4 1v-2l32 -51q2 -9 3 -16q1 -6 1.5 -12t0.5 -8q-3 1 -5 2q-4 1 -7 6l-3 7q-3 5 -7 1l-4 -4q-42 -34 -60.5 -61.5t-26.5 -47.5q-9 -23 -6 -41
q12 -4 29.5 -3t46.5 14.5t73.5 44t112.5 87.5q68 56 106.5 104.5t58 85t24 59t4.5 26.5q0 6 -8 10q-4 2 -7 3q-19 7 -41 2t-46 -18t-48.5 -32t-47.5 -40q-54 -49 -109 -116z" />
    <glyph glyph-name="six" unicode="6" horiz-adv-x="346" 
d="M343 468q-24 -13 -53 -35.5t-59.5 -52t-61.5 -62.5t-57.5 -65.5t-47.5 -62.5t-33 -53q30 19 66.5 41.5t83.5 44.5q35 19 60 24t41 4q18 -2 31 -9l26 -20q8 -3 14 -8q12 -11 11 -31q-12 -31 -45.5 -66.5t-74 -66t-81.5 -52t-69 -25.5q-32 -5 -55 -2t-38 8q-18 6 -29 16
q-7 4 -13 11q-5 5 -10 14t-7 22l-15 10q-2 1 -2 2t3 4l1 1l3 3q2 2 4 3.5t5 4.5q2 26 15.5 63t49.5 91q55 81 118.5 145t120.5 110.5t99 76.5t56 44q3 4 14 14.5t22 22t20 21t9 11.5q4 4 6 5t3 1l12 -7l39 -32v-5q-2 -1 -4 -3t-6 -8q-2 -2 -3 -5t-3 -5l-4 -4
q-5 -4 -11.5 -10.5l-14 -14t-13.5 -14t-9 -9.5l-4 -5q-29 -51 -46.5 -91.5t-25.5 -69.5t-9 -45.5t3 -18.5l15 -9l8 -6l-18 -16q-7 -6 -13 -11.5t-8 -5.5q-4 -1 -4 1t-7 0l-8 4l-36 20q-1 1 -2 3t-2 4.5t0 6.5q-2 13 5 37.5t15 49.5q10 29 23 62zM2 10q27 -5 56 3.5t54 21.5
q28 15 56 35q32 25 58 49q23 20 44.5 43t30.5 40q-33 -2 -76.5 -22.5t-87 -47t-81 -54t-57.5 -42.5q-1 -12 0.5 -18.5t2.5 -7.5z" />
    <glyph glyph-name="seven" unicode="7" horiz-adv-x="332" 
d="M94 13q2 -2 9.5 0.5t16.5 7.5t17 10.5t11 8.5q7 1 9 0q1 -1 1 -2l-4 -23q-1 -3 -1 -6q0 -2 -0.5 -4.5t-0.5 -4.5q-1 -4 -1 -12.5t-14 -25.5q-7 -9 -15.5 -14t-16 -7t-13.5 -2h-8t-6.5 4.5t-10 11t-11.5 13.5t-10 12q-3 3 -3 8q-2 9 -5 15t-3 16q4 29 23.5 67.5t49 81.5
t66 88t73.5 88q87 100 196 208q-71 -19 -114.5 -28.5t-67.5 -14.5q-28 -5 -41 -6q1 -10 -7 -31t-18 -43q-11 -26 -27 -54q8 2 7 2t3 2q4 -2 -4 -10l9 4l18 -12q3 -3 1 -7q-1 -2 -2 -3q-9 -9 -17 -15.5t-13 -11.5l-12 -9q-8 -6 -15 -10q-6 -4 -12 -6.5t-8 -1.5q-3 1 -9.5 8
t-12.5 15q-7 10 -15 22l-4 11q2 7 8 19q5 11 14 27.5t25 42.5q31 51 38 80t7 33q0 7 -1 10t-1 5q2 2 4 0q10 -10 21 -13t18 -4h6q2 0 6 2q2 1 7 1h4q24 4 55 11.5t63 16.5t63 18.5t55.5 17.5t41 13.5t18.5 6.5q2 0 6.5 4t10 9t10.5 10l7 7q-2 2 0 5.5t6 2.5l12 -14
q5 -5 8.5 -10t5.5 -7q4 -5 8.5 -11.5t4.5 -9.5q3 -5 -4.5 -11.5t-14.5 -8.5q-6 -5 -13 -14t-27 -29q-129 -116 -216.5 -216t-141.5 -175q-63 -87 -102 -159z" />
    <glyph glyph-name="eight" unicode="8" horiz-adv-x="364" 
d="M644 639q2 1 -3 -4q-3 -3 -7 -6q-40 -35 -76 -68q-16 -14 -32.5 -28.5t-32 -28.5t-29 -26t-23.5 -21q-38 -38 -70 -59.5t-37 -23.5q4 -1 14.5 -6t21 -15.5t19 -26t8 -38t-12 -52t-40.5 -67.5q-48 -65 -91 -104.5t-76 -61t-54.5 -28.5t-27.5 -7q-8 1 -16 3t-15 4l-15 5
q-6 2 -13 7t-16 12t-21 19q-25 26 -20 73.5t49 132.5q39 62 72.5 98t57.5 55q28 22 51 29q-8 5 -5.5 20.5t9.5 31.5q7 18 20 40q-9 -2 -13 -2.5t-6 0.5t0 3q-11 10 -19 19q-8 7 -13.5 13t-7.5 7q-3 2 -9 10q-3 3 -3 5v1q0 -1 6 -2q12 -4 30.5 -2.5t35.5 4.5q20 4 42 9
q0 1 1 2q0 2 2 4q2 1 12 11.5t22 22.5l22 22t12 11q2 4 1 4.5t1 2.5q1 0 1.5 0.5t3.5 -1.5l37 -21l8 -4l-2 -18q57 16 92.5 30t56 24.5t27.5 17t7 8.5q2 2 4 2.5t4 0.5l4 -2l5 -8l45 -29zM283 202q33 44 41 73t3 47q-5 21 -23 34q-14 -4 -24 -3t-17 4q-8 3 -14 8
q-52 -40 -93.5 -86.5t-69 -93t-39.5 -90t-5 -76.5q0 -3 4 -5q2 -1 3 -2q45 -1 105 50.5t129 139.5zM262 408q10 1 26 9.5t35 21t39.5 28.5t40.5 33q47 39 99 86q-32 -14 -63 -24.5t-56.5 -18t-41.5 -11.5t-17 -4q-13 -17 -24 -38t-19 -39q-10 -21 -19 -43z" />
    <glyph glyph-name="nine" unicode="9" horiz-adv-x="370" 
d="M636 655q23 -1 37 -2.5t23 -2.5q-5 0 -19 -0.5t-18 -2.5q-11 -4 -30 -4l7 -3q-12 -4 -20.5 -2.5t-16.5 -0.5q5 -2 9 -2.5t9 -2.5q2 -1 -3.5 -1t-11.5 -1q-3 0 -9.5 -1l-13 -2t-12.5 -2.5t-9 -2.5q-4 -2 -7.5 -3.5t-3.5 -3.5l8 -16q2 -5 8.5 -10.5t10.5 -9.5q2 0 0 -5
l-2 -4l-7 -7q-20 -18 -43.5 -45.5t-48.5 -59.5t-50.5 -67.5t-49.5 -69.5q-55 -80 -113 -170q8 -8 12 -12.5t6 -6.5l3 -3v-4q-2 -2 -5 -5.5t-7 -8.5t-9 -11q-42 -52 -65 -85t-34 -53q-13 -23 -17 -35q-3 -2 -6 -3q-6 -2 -10 -2l-8 8l-12.5 12.5t-13 12t-7.5 6.5q1 0 4 5
q1 2 0 6t1 8q1 2 3.5 4.5t4.5 6.5l3 10q31 59 63.5 115t63.5 105.5t59 91t49 71t33.5 47t13.5 18.5q-33 -17 -68 -34t-67.5 -31.5t-61 -25.5t-49.5 -15q-4 -1 -7.5 1.5t-6.5 5.5q-4 4 -7 8q-5 15 -9 26q-4 10 -7.5 18.5t-4.5 10.5q-3 3 -3.5 6t-0.5 5q0 4 1 6l2 4q0 2 1.5 5
t3.5 5q4 7 18 22t40 35.5t66.5 44t96.5 46.5q60 23 108.5 36t86.5 19t67 7.5t52 0.5zM521 603q-86 -24 -153 -55t-113.5 -58t-71.5 -46.5t-26 -21.5q-3 -4 -4 -5.5t-3 -3.5q83 32 146.5 62t107.5 54t68 40t29 19t8 5t5 4q3 2 4 2z" />
    <glyph glyph-name="colon" unicode=":" horiz-adv-x="153" 
d="M61 156l2 2q-1 0 -1 1q0 2 1 3l8 8t11 0q24 -12 40 -28q8 -6 5 -12t-5 -15q-12 -28 -28 -42t-22 -14q-11 1 -21.5 9.5t-15.5 13.5q-1 1 -3 2.5t-3 3.5q-2 3 -4.5 8t2.5 14q6 11 9 16t8 13t6.5 9.5l3.5 3.5q1 1 2.5 1.5t2.5 1.5t2 1zM133 253q-4 2 -6 6q-1 2 -1 3
q0 9 5 20t11.5 21.5t13 18.5t9.5 11q2 2 6 -2.5t2 -1.5q-5 8 0 10t7 2q8 -8 20.5 -16.5t23.5 -14.5q4 -3 4 -10q0 -3 -1 -6q-12 -34 -27.5 -47.5t-20.5 -18.5t-9 -2t-7 5l-4 4z" />
    <glyph glyph-name="semicolon" unicode=";" horiz-adv-x="165" 
d="M122 117q2 -5 -2.5 -16t-14 -26t-22 -32.5t-27.5 -34.5q-8 -10 -12.5 -14.5t-7.5 -6.5q-4 -3 -5 -3q-2 -1 -3 -0.5t-2 0.5t-1 1q-1 0 -1 1q-2 2 -3 2q-2 0 -6 3.5t-8.5 8t-8 8.5t-3.5 5q-1 2 -2 6t2 3l2 0.5t6.5 4.5t11.5 12t18 23l5 11q-3 2 -7 6q-8 6 -10 10
q-5 6 -3 11q0 4 5.5 12.5t13 17t15.5 15t12 8.5q2 4 1.5 4t1.5 1q2 -1 6.5 -5t7.5 -6q2 -2 3.5 0t3.5 1q2 -2 7.5 -6.5t11 -9.5t10.5 -9.5t5 -5.5zM159 296q4 0 4.5 6t-4.5 5q-3 0 -3 -2v-2q-1 1 -2 3q-2 4 -2 8q0 2 8.5 6t14.5 2q8 -4 12.5 -8.5t9.5 -10.5q6 -3 13.5 -7.5
t5.5 -19.5q0 -11 -9.5 -30.5t-42.5 -39.5q-2 -1 -5 -2q-6 -2 -11 2q0 3 -2.5 4.5t-4.5 2.5l-20 14q-2 1 -4 5q-4 5 -2 15q1 5 5 14.5t9 17.5q5 10 12 20l4 4q2 0 3 -2t4 -2q1 0 2 -1q3 -3 5 -7v5z" />
    <glyph glyph-name="less" unicode="&#x3c;" horiz-adv-x="547" 
d="M461 178q-1 -5 -1.5 -5.5t-2.5 -0.5l-4 2l-6 5q-59 33 -106 51.5t-81 27.5t-53.5 11t-22.5 2q-4 0 -6 0.5t-4 0.5h-3q-25 -3 -38 -4t-20 -1q-8 0 -10 1q-3 0 -5 1q-4 2 -4 5q0 2 -0.5 7t-1.5 10q-1 6 -3 13q0 2 -2.5 6t-1.5 7v5q14 5 29 8t28 4q15 1 29 0h4
q99 17 168.5 35.5t114 34.5t65 26t22.5 11q2 3 8 -1.5t8 -8.5l-1 -8q6 -5 7 -6t0 -5q0 -3 2 -6t2 -8q0 -2 -0.5 -3.5t-0.5 -3.5v-4v-3q-3 0 -5 -2q-1 -1 -1 -2q-9 -6 -29.5 -14t-46 -16.5t-53 -16.5t-50.5 -14.5t-39 -10.5t-19 -3l-9 -4q26 -6 50.5 -16t42.5 -21
q21 -12 39 -25h4q5 1 6 0t1 -2q3 -7 3.5 -13.5t-0.5 -11.5q-1 -6 -2 -11q0 -2 -0.5 -5.5t-0.5 -7.5v-10z" />
    <glyph glyph-name="equal" unicode="=" horiz-adv-x="443" 
d="M179 298q4 0 2.5 -2t-2.5 -3t-3 -1h-2q-5 -1 -9 0q-8 2 -8 8q0 2 -1.5 8t-3.5 13t-3.5 13t-2.5 8t-1 9q0 3 1 5q3 0 3 3q0 1 -1 3q6 13 29 17.5t52.5 4.5t61 -2t53.5 -2q22 -2 35 0.5t19 6.5t7.5 7.5t0.5 5.5t1.5 3.5t4.5 3.5q3 2 7 4q4 0 2.5 -3.5t0.5 -7.5l6 -20
q2 -8 4.5 -17t4.5 -14q2 -15 -16 -22t-41 -8q-11 -2 -29.5 -1.5t-39.5 1.5t-42.5 2.5t-37.5 1.5q-20 2 -30 -0.5t-15 -7.5q-6 -5 -7 -12v-5zM388 291q2 1 5 3q5 5 5 7q3 3 8 3h4q0 -2 2.5 -12t5 -22t4.5 -23t1 -14q-1 -4 -8 -5.5t-23.5 -1t-44.5 2.5l-70 5q-39 1 -59.5 -2.5
t-28.5 -9t-8.5 -11t-0.5 -7.5q-1 -2 -2 -3q-2 -3 -6 -3q-7 -1 -9 8q-1 4 -1 10q0 2 -0.5 1.5t-1 1.5l-2.5 10t-6 26q-4 19 13 28t42.5 11.5t52 1.5t41.5 -2q14 -1 29.5 -1.5t28.5 -0.5q15 -1 29 -1z" />
    <glyph glyph-name="greater" unicode="&#x3e;" horiz-adv-x="570" 
d="M183 356q-5 4 -5.5 15t0.5 23q1 14 4 30l9 2q6 -7 22.5 -15.5t40 -17.5t51.5 -18.5t56 -18.5q66 -21 147 -43h2h5q2 -1 8.5 0t14.5 3l20 4l4 -1q3 0 5 -3q1 -2 2 -3v-22q0 -9 -1 -18.5t-2 -15.5q-1 -5 -2.5 -7.5t-3.5 -4.5t-4 -2q-11 2 -24 4t-16 3q-2 0 -8.5 -0.5
t-13.5 -1.5q-8 -1 -18 -3q-101 -13 -172 -29.5t-116 -30.5q-53 -18 -87 -35q-1 1 -3 1q-4 0 -6 1q-4 1 -4 9v7v23q0 9 -0.5 16.5t0.5 9.5q0 4 4 8q2 2 5 2q26 11 68 23t83 22q48 11 99 22q-71 23 -105.5 35.5t-47.5 18.5q-15 7 -11 8z" />
    <glyph glyph-name="question" unicode="?" horiz-adv-x="399" 
d="M193 155q-10 -9 -14.5 -6.5t-8.5 4.5q-3 1 -11.5 6t-18 10t-17 9.5t-7.5 5.5q-2 1 -5 4t-4 9t1 15t11 22q5 9 25.5 25.5t49 37t63 44t68.5 46.5t65 44t52 37q36 28 55 51t26.5 40.5t7 28.5t-4.5 16q-2 3 -5 6l-1 1q-20 6 -43 2.5t-44.5 -10.5t-38 -16t-22.5 -13
q-14 -8 -30 -19t-27 -24.5t-14.5 -30t7.5 -37.5q0 -5 -8 -4t-10 5l-16 16q-7 7 -14 15t-13 16q-8 21 4 41.5t30 37.5q21 19 51 36q3 2 15.5 8.5t30.5 13t41 10t47 0t47.5 -15.5t42.5 -37q26 -35 20.5 -67t-35.5 -65t-81 -69t-117 -79q-68 -43 -102.5 -72t-49.5 -46
q-18 -21 -17 -33l19 -13q0 -1 1 -2q0 -4 -1 -4zM162 111q3 -2 8 -7t3 -13q0 -2 -5 -18.5t-16 -36.5t-27.5 -38t-38.5 -21q-14 -1 -27 7t-15 13l-19 28q-8 9 -7 16t3 17q1 4 7.5 21.5t18 36t27.5 32t36 9.5q2 0 4 -1l4 -2l4 -2q9 -10 18 -19q7 -8 13.5 -14t8.5 -8zM58 16
q-1 -5 6 -1t18 16t24.5 32.5t25.5 49.5q-4 4 -14 -2.5t-21.5 -20t-22 -33t-16.5 -41.5z" />
    <glyph glyph-name="at" unicode="@" horiz-adv-x="592" 
d="M431 186v2q0 2 1 4q-30 -33 -46 -59.5t-24 -45.5q-9 -22 -10 -39q4 -4 13.5 -1t20.5 8q12 5 27 14q54 39 87 72.5t51 60.5t24 48.5t5.5 36t-3.5 22.5t-3 9q-2 8 -5 13q-2 3 -4 5q-7 12 -32.5 27t-67.5 16.5t-99 -17.5t-126 -73q-49 -38 -79 -72t-46.5 -63t-22.5 -51.5
t-6 -38t3 -23t4 -6.5q2 -6 3 -7q1 -2 2 -2q28 -17 66.5 -20t73.5 1q41 4 84 16v-2q0 -2 -2 -4q0 -1 -2 -3q-1 -2 -1 -5q1 -1 -1.5 -4.5t0.5 -2.5q2 0 2 -4q0 -2 -1 -5q-2 -3 -4 -7q-2 -3 -3.5 -5.5t-2.5 -1.5q-2 0 -6.5 -1.5l-10.5 -3.5q-7 -2 -15 -4q1 -1 2 -1t2 -0.5
t2 -0.5q4 0 7 1q5 0 6 -1q-1 -3 -12 -7q-5 -2 -11 -3q-44 -9 -75 -6t-51.5 11t-31 18t-14.5 16l-9 10q-5 4 -12 11t-24 26t-19.5 41.5t1.5 43t11 36.5t10 21q48 81 118.5 138t144 83.5t138.5 19.5t101 -54q13 -13 24 -27q10 -12 20 -28t15 -33q7 -35 -2 -69t-28.5 -65
t-44.5 -57.5t-49.5 -47t-45 -32.5t-28.5 -14q-12 -7 -23 -6.5t-19 4.5q-10 4 -18 12q-5 4 -11 10q-5 5 -13 12t-16 16q-9 8 -12 17t-4 17q-1 9 2 16q-33 -26 -52.5 -38t-30 -15.5t-15.5 -2.5t-8 1q-2 0 -7.5 4.5t-11.5 10t-11 10.5l-7 7q-1 1 -3 2t-3 2t-3 1q-4 3 -2 13
l2 10q3 10 23 37.5t48.5 59t62 61.5t64.5 45q25 13 42.5 15.5t28.5 -1t16.5 -10t7.5 -10.5l16 20q2 2 6 4q2 1 3 1t3 -1q4 -2 7 -4q0 -4 4.5 -7t4.5 -7t9 -13q4 -4 9 -10q0 -1 1 -3q0 -2 0.5 -3t-1.5 -3q0 -2 -7 -10t-17 -19q0 -3 1 -4q5 -18 2.5 -36t-6.5 -27l-9 -15
q-2 -3 -5 -6t-5 -3t-7.5 5t-10.5 11zM415 268q-27 -4 -59 -28.5t-61 -53.5q-33 -33 -67 -74q5 2 25 18t45.5 37.5t52 44.5t43.5 39z" />
    <glyph glyph-name="A" unicode="A" horiz-adv-x="419" 
d="M529 202q4 -8 1.5 -7.5t-5.5 0.5q-5 -3 -9 -2q-3 0 -5 2h-2q-3 0 -6 3q0 1 -3 1.5t-6 1.5q-4 1 -9 1q-26 2 -39 0t-14 0q-29 -97 -38.5 -155t-10.5 -89q-1 -37 8 -51h4l9 4q10 5 16 12.5t8 15.5q3 9 3 19q1 0 3 1q4 2 5 2q3 0 9 -4q3 -2 5 -3l12 -12q5 -5 9 -8.5t6 -5.5
v-10q1 -4 -1 -8q-4 -9 -13 -20t-20 -14t-21.5 -2.5t-18.5 3t-11 4.5q-3 1 -11 6.5t-16.5 11.5t-15.5 11t-8 5q-1 1 -2 3.5t-3 4.5l-4 6q-7 17 -8.5 42.5t1.5 53.5t8 56.5t10 52t9.5 38.5t5.5 17q1 4 0 5t-3 1t-17 -2.5t-32 -5.5l-46 -8q-13 -16 -32.5 -37.5t-38.5 -41.5
t-32 -33.5t-12 -13.5l4 -4l9 -8q1 0 5 -4q1 -2 3 -3q-1 -1 -3 -1q-2 -1 -3 -1t-2 -1q-12 -7 -27 -15.5t-30 -17.5t-28.5 -17.5t-21.5 -15.5q-5 -2 -6.5 -2.5t-2.5 -0.5l-5 3q-9 5 -17 14t-12 11q0 4 -2 3q2 1 -0.5 -0.5t-6.5 1.5q-4 1 -3.5 3.5t2.5 4.5q2 3 6 6q1 1 9 7
t17.5 13.5t18.5 14t12 9.5q3 4 11 12.5t16 18t16 17t11 10.5q2 2 9.5 10.5t15.5 17t13 14.5t2 5l-6 -2t-14 -4.5t-16 -4.5t-11 -3t-9.5 -2l-13 -2t-11 -0.5t-4.5 3.5q-3 0 -6.5 4.5t-6.5 7.5q-1 2 -3 5q-5 5 -6 5q-9 7 -9 11l4 4q3 3 12 8t19 9.5t17.5 8t9.5 3.5q4 2 19 7
t22 8q2 1 3 1l1 -1l5 -5l3 -3q1 -1 1 -2h3h3q4 1 11.5 2.5t16 3t15.5 2.5t9 2q26 32 49 58q20 23 37.5 43.5t24.5 28.5q6 7 18.5 23.5t28.5 37t32.5 43t30.5 41t23 31t10 13.5q3 4 8.5 11t10 13.5t8.5 12t4 6.5l4 8q0 4 12 24.5t27 44.5t27.5 43.5t13.5 20.5t1 7v5h4
q2 2 9 -2q3 -2 5 -5l4 -3l5 -4q8 -7 14 -11q5 -5 10 -8t7 -3q0 -4 -1 -9q0 -1 -2 -3q-1 -1 -1 -2q-1 -4 -8 -16.5t-17 -30t-21 -36.5t-20.5 -35t-16 -27t-6.5 -12l-6 -6q-2 -2 -3 -4q-17 -33 -34.5 -79.5t-31.5 -89.5q-17 -50 -32 -102q21 1 31 2.5t19 -0.5q11 -2 12.5 -7
t6.5 -8q1 0 3 -4.5t4 -10.5t4.5 -11.5t4.5 -8.5zM415 365l-107 -131l62 8l4 4z" />
    <glyph glyph-name="B" unicode="B" horiz-adv-x="501" 
d="M453 778l2 10q1 7 -1 12q-1 1 2 6q1 2 3 3l3 3l4 -2q1 -1 3 -2q1 -1 6 -1h4l4 -1l23 -15l1 -8q-4 -11 -6.5 -36.5t2.5 -57.5q3 -10 6 -16.5t6.5 -12.5t8 -12.5t11.5 -16.5q7 12 14 23q4 5 6 10q0 -7 2 -13q2 -5 4 -9.5t6 -5.5q5 -2 5 -11q0 -4 -1 -10l-6 -24
q29 -35 40 -63t13 -47q3 -23 -3 -39q-12 -36 -37 -53.5t-51 -24.5q-30 -8 -64 -7l4 -4l8 -5l13 -10q24 -14 39 -36q13 -19 19.5 -48t-7.5 -70q-20 -66 -59.5 -107.5t-84.5 -66.5l2 -1q-1 -3 1 -5l2 -2q-1 0 -4 1q-2 1 -5 1t-5 2q-36 -19 -71.5 -28.5t-61.5 -13.5
q-29 -5 -51.5 -6.5t-38.5 -1.5q-18 0 -32 1q-47 13 -73.5 24.5t-39.5 20.5t-16 16t-3 13q0 5 8.5 13t26.5 15.5t45.5 13.5t66.5 8q5 8 10.5 18t10.5 19l11 22q5 11 22 44q14 28 40 81.5t70 146.5q42 93 69 161.5t44 114.5q19 54 30 90zM219 77q40 -5 72 -16t55 -22
q15 13 31 30t36 39q38 42 52 79t15 66.5t-6.5 49.5t-11.5 28q-5 9 -10.5 11.5t-6.5 6.5l-18 9zM146 43q-4 0 -8 2q-2 1 -2 2l1 4q-32 -6 -45.5 -16t-16.5 -19q-4 -11 2 -23l3 -2.5t14.5 -5t32 -4.5t55.5 0q55 4 90 15.5t66 35.5q-10 4 -13 6l-6 3q-12 4 -29 8q-14 3 -36 5.5
t-50 2.5q-3 -5 -6 -8.5t-5 -6.5q-3 -4 -4 -6q-3 -2 -3 -4v-2q-4 -1 -10 1q-3 1 -6 1q-4 2 -8 5q-4 2 -8 3.5t-8 2.5zM520 606q-13 14 -21.5 24.5t-13.5 18.5q-6 9 -11 17q-3 -11 -11.5 -32.5t-20.5 -50t-26 -60.5t-29 -64q-34 -75 -76 -163l4 1l147 218q4 6 9 14
q4 6 9.5 14.5t10.5 16.5zM502 459q-6 -7 -12 -16q-6 -8 -13.5 -19t-17.5 -24q32 15 50 25.5t28 19t15 16t11 17.5q12 20 8.5 40.5t-14.5 39.5l-2 -9l-4 -9q0 -2 -7.5 -15t-14.5 -24q-4 -7 -8.5 -14t-8.5 -13q-5 -7 -10 -15z" />
    <glyph glyph-name="C" unicode="C" horiz-adv-x="335" 
d="M288 218q-2 3 -1.5 4t-1.5 6q-5 5 -5 8q0 1 1 1v5l7 19q18 36 44.5 76.5t51 75.5t42.5 59t18 26q2 2 2 3t1 3q0 2 1 3q-9 -8 -26 -22l-34 -28q-20 -17 -42 -35q-42 -35 -84 -75q-36 -35 -78.5 -79t-79.5 -92q-29 -39 -41 -66.5t-15 -44.5t-1 -26t2 -11l3 -4
q27 -12 60 -6.5t65.5 21t61 37.5t46.5 42q16 18 20.5 31.5t4.5 16.5v14q5 0 10 -7q3 -4 6 -7q15 -21 23.5 -32t8.5 -19t-4 -16q-2 -4 -4 -7q-29 -41 -64.5 -66t-67.5 -38.5t-57.5 -18t-34.5 -5.5q-11 -1 -23.5 4t-24 11.5t-20.5 13.5t-13 10q-8 7 -29 34q-16 22 -15 52.5
t14.5 65t38 69.5t56.5 67q61 65 122.5 118.5t122.5 101t121 93t119 94.5l25 22q3 3 5 7l2 4q2 4 4 4q5 0 5 -4q0 -1 1.5 -0.5t2.5 -0.5q2 -4 5 -8q2 -3 3.5 -5.5t3.5 -4.5q3 -3 7 -9q1 -2 0.5 -3t0.5 -2l3 -2q6 -4 6 -9v-7v-2l-13 -14q-10 -13 -26.5 -34.5t-33.5 -42.5
q-19 -25 -42 -51q6 -2 11 -4t8.5 -3.5t5.5 -1.5q6 -2 7 -5.5t1 -4.5q-2 -1 -14.5 -14.5t-31 -34t-40 -45t-41 -47.5t-35 -41.5t-21.5 -26.5q-9 -13 -22.5 -31t-26 -34.5t-21 -29t-8.5 -14.5q0 -3 -1 -6t-6 -2q-6 1 -9 3.5t-4 4.5q-2 4 -5 7l-6 6q-4 3 -7 6z" />
    <glyph glyph-name="D" unicode="D" horiz-adv-x="528" 
d="M563 639q42 -36 64 -86t21 -109t-26 -125t-77 -135q-32 -43 -75.5 -80t-92.5 -62.5t-101 -36.5t-101 -2q-1 -1 -2 -3t-2.5 -4.5t-3.5 -5.5q-5 -7 -8.5 -14.5t-7.5 -6.5q-3 0 -10 7.5t-15 16.5t-15 17t-8 8q-2 5 1 10l4 4q-7 2 -7 6q-1 1 -1 2t-0.5 1t-0.5 1q-5 4 -18 17
t-28 31t-28.5 39t-19.5 42q-3 10 -5 21q-2 10 -2 22t4 25q7 26 15 35t10 7q6 -7 16 -18.5t13 -12.5l7 -1q5 0 5 -4v-4q4 -2 5 -3t3 -7q3 -1 5 -3q4 -4 -3 -13q-5 -2 -11 -8t-11 -17t-7 -26.5t3 -34.5q1 -1 1.5 -3t1.5 -4q3 -5 11 -13.5t18.5 -18t23.5 -17.5t28 -10
q11 19 32 54.5t47.5 80t56 94t56.5 97.5q-17 -11 -45.5 -13t-53.5 12q-7 3 -15 9q-7 5 -16 13t-20 21q-23 25 -31.5 42.5t-9.5 18.5q-3 6 -6.5 21.5t-0.5 37.5t16 48.5t43 54.5q31 30 75 44t89 15.5t85.5 -8t64.5 -25.5q11 18 18 31t17 27q3 3 5 9q3 7 8 15.5t7 11.5
q1 1 1 2q0 5 5 4q1 -1 1 -2q2 -4 8 -7l1 -1q2 -3 10 -8t17 -10t15.5 -9.5t6.5 -7.5q-1 -6 -4 -4.5t-5 -10.5v-4q0 -4 -1.5 -12t-3.5 -17t-4.5 -16t-4.5 -9q-2 1 -2.5 9t-1.5 13q-1 4 -2.5 4t-2.5 -1l-1 -1zM206 50q43 4 81.5 19t73 37.5t64.5 51.5t57 62q18 22 37.5 51.5
t36 63t28 69.5t13 72.5t-8.5 72t-36 66.5zM291 463q12 -7 23 -14q9 -7 18 -15t14 -18q41 64 77.5 123.5t63.5 110.5q-21 18 -56 23.5t-72 0.5q-53 -10 -88.5 -39.5t-56 -63.5t-27 -64.5t0.5 -43.5q0 -2 13 -10q7 -5 17.5 -7.5t22.5 -2t25 5t25 14.5z" />
    <glyph glyph-name="E" unicode="E" horiz-adv-x="481" 
d="M750 725q1 -1 5 -5.5t9 -9.5t9 -9.5t4 -5.5t-0.5 -2t-0.5 -3v-3l-3 -1q-2 0 -4 -4q-1 -2 -2 -3q-41 -23 -80 -56.5t-70.5 -66t-51.5 -56.5t-23 -28q-4 -8 -5 -9l-1 -1l3 -1q2 -2 4.5 -5t2.5 -5q0 -1 -6 -7.5t-14.5 -14.5t-15.5 -15t-8 -7q-3 0 -4.5 -1.5t-3.5 -2.5
t-8.5 6.5t-10.5 9.5t-12.5 11.5t-9.5 11.5q-1 1 -1 4v2q1 5 9 17t19 27t24 30.5t24 28.5t18 20.5t8 7.5q-49 -17 -84 -39.5t-57 -45.5t-31 -44.5t-5 -36.5q2 -16 11.5 -28.5t21.5 -21.5t23 -14t16 -7q23 -7 42.5 -7h25.5q14 -1 31 -0.5t30 0.5q10 0 10 -6q4 0 10 -4
q3 -2 5 -4q0 -4 4 -8q2 -3 5 -4l3 -3l-3 -4q-2 0 -9 -0.5t-16 -0.5t-17 -0.5t-11 -0.5q-2 0 -6.5 -0.5t-9.5 -1.5q-6 -1 -13 -1q-35 -4 -64.5 -11t-59.5 -16.5t-64 -23t-76 -31.5q-75 -30 -116.5 -63t-56.5 -59q-14 -23 -12.5 -39.5t6.5 -20.5q2 -2 2 -4t1 -4q10 -10 31 -14
q18 -4 50.5 -3t85.5 13q79 22 125 47.5t70 47t31 37t9 17.5q1 5 -1 7q-1 1 -3 0q-22 -1 -32 -5.5t-8 -2.5q-36 -12 -66 -27t-51 -29q-26 -16 -45 -33l4 -2v-3l1 -2v-1h-1q-5 -1 -9 -1.5t-9 1.5q-9 5 -21 11l-22 11q-2 0 -2 2v2q-3 3 -2.5 5.5t0.5 5.5q0 2 1 3q0 1 1 1
q71 47 118.5 67t76.5 25t42 1.5t15 -4.5q3 -2 13 -7.5t21 -11.5q13 -7 29 -16q6 -16 1.5 -31t-12.5 -26q-10 -14 -23 -26q-44 -38 -99 -60.5t-107.5 -33t-96 -11.5t-64.5 5q-23 5 -50 15t-49 24.5t-34 33t-4 40.5q11 36 56.5 71t108.5 65t135.5 53.5t137.5 37.5
q-5 1 -26.5 6.5t-38.5 13.5q-32 17 -49.5 38t-19.5 40t3 35.5t15 31.5t23.5 27.5t28.5 24.5q35 27 87 53t103 47q30 13 56.5 26t46.5 24t31.5 17.5l11.5 6.5q2 -2 8.5 6t10.5 11q4 2 5 2t2 -1q2 -1 5 -3q2 -2 4 -3.5t4 -2.5q2 -3 -1.5 -0.5t-1.5 1.5z" />
    <glyph glyph-name="F" unicode="F" horiz-adv-x="285" 
d="M804 688q2 -4 6 -8l8 -8l9 -9v-5q-14 -7 -38.5 -11t-48.5 -6q-28 -3 -60 -3q-19 -5 -43 -22q-20 -14 -47.5 -41t-60.5 -75q-38 -51 -61 -76.5t-36.5 -35t-18.5 -10t-6 -1.5l-10 6q-8 9 -15 18l-12 14t-10 9q-3 0 3 4q3 2 7 5q7 0 13 1.5t14.5 9.5t22 24.5t36.5 45.5
q28 37 46.5 59.5t30.5 35.5q13 15 22 21q-29 -2 -57 -4t-49 -4q-16 -25 -37.5 -59.5t-46 -75t-51 -84t-51.5 -85.5q13 2 26.5 3t25.5 4l28 30q2 2 2 5v5t2 4q1 1 2 1l49 -49q2 -1 1.5 -7t-5.5 -8q-1 0 -15.5 -15.5t-31.5 -34.5t-32 -36.5t-16 -23.5q0 -4 -1 -8t-5 -4
q-2 0 -9 6.5t-15 14.5q-10 9 -21 21q-1 1 -2 3q-2 3 2 7q8 3 15 16q4 6 7 13l-39 2q-22 -33 -44 -69t-39 -66t-28 -50t-11 -22l-3 -4q-4 -6 -2 -11t5.5 -9.5t7.5 -7.5t4 -6q-3 -4 -12.5 -14.5t-20.5 -21.5q-12 -13 -28 -29q-3 -1 -6 -1q-7 0 -9 3q-2 0 -8.5 4.5t-14 9.5
t-14 9.5t-8.5 4.5q-3 0 -1 7q1 3 2 7q28 47 57 96q25 42 55 93.5t58 100.5q-4 2 -6.5 5t-4.5 5q-2 3 -3 6q-4 3 -5 6q-4 5 6 8l10 -1l19 -1q26 46 51 89t45.5 77.5t34.5 57.5t18 28q5 8 11.5 21t17.5 31q-47 3 -72.5 6.5t-38 7t-15.5 6t-5 2.5q0 2 -1.5 3.5l-3.5 3.5t-4 3
l-28 30q-3 3 -3 11q0 4 1 8q1 -1 2.5 -1.5t4.5 -7.5l25 -17q4 -2 7 -3t7 -2q30 -8 67 -11t77 -1q5 11 11 20t11 16l10 15q4 3 5 3t3 -4q2 0 4.5 -1.5t4.5 -3.5q3 -3 6 -5q7 -7 13 -12q5 -5 10 -8t7 -3l5 -5q0 -4 -0.5 -5t-4.5 -5q31 2 58.5 5.5t47.5 6.5q24 4 44 8
q34 26 69.5 31.5t77.5 5.5q4 -1 16.5 -11.5t16.5 -14.5z" />
    <glyph glyph-name="G" unicode="G" horiz-adv-x="384" 
d="M665 712q0 -1 1 -2q0 -1 0.5 -2t-0.5 -3q-2 -6 -9 -20l-8 -16q-2 -4 -6.5 -10.5t-10.5 -14t-11 -13.5t-7 -9q-5 -5 -10 -11.5t-8 -10.5t-23.5 -37.5t-48 -84.5t-56.5 -114.5t-48 -126.5l7 -2q4 -4 -1 -17q-2 -6 -1.5 -9t-3.5 -2q-2 0 -12.5 3t-22.5 7q-14 4 -31 9
q-2 1 -3 3q-2 4 -2 5q-2 2 -1 5.5t2 8.5q8 31 21 65q11 29 27.5 66t39.5 75q-6 -3 -23.5 -18.5t-40.5 -36.5t-48 -45t-45 -45q-29 -30 -61 -61t-56 -59q-4 -5 -7 -9.5l-5 -7.5q-3 -4 -5 -7q81 8 135 13.5t88.5 8.5t52 5t26 2.5t11 1t6.5 0.5q12 1 22.5 -0.5t12.5 -6.5
q2 -3 2 -12q-1 -2 2.5 -8t7.5 -12q4 -8 10 -16l-2 -2q-3 -3 -5 0q-2 -2 -5.5 -2h-6.5q-4 0 -7 1q-47 -6 -77 -15t-54 -20.5t-47 -24.5t-57 -27q-67 -29 -109.5 -48.5t-61.5 -20.5q-20 0 -28 6t-11 10q-1 2 -7 6.5t-13.5 10t-15.5 12t-12 12.5q-5 8 -2.5 21t8.5 26
q6 15 17 31q-16 3 -26 9q-6 3 -12 7q2 0 2 1t-6 6q-14 5 -20.5 11t-3.5 6q5 -3 19.5 -3.5t30.5 0.5q18 1 39 2q31 42 99.5 115t173.5 164v-1q22 21 49.5 45t51 45.5t40 36t18.5 15.5q1 1 5 5.5t8.5 10t9 10t5.5 6.5q2 2 7 8t11 13t10.5 13.5t6.5 9.5l34 55l8 12l6 9q0 1 4 5
l3 3l5 -3l18 -8q8 -3 15 -5.5t10 -3.5q2 -1 5.5 -1.5t5.5 -1.5q3 -1 5 -1zM68 32q17 4 44 15.5t59 26.5t66 31.5t65 30.5l-184 -18q-6 -8 -15 -21.5t-16.5 -27t-13 -24.5t-5.5 -13z" />
    <glyph glyph-name="H" unicode="H" horiz-adv-x="415" 
d="M258 -56q-7 2 -10 5.5t-3 5.5q0 3 2 9q1 3 2 5q3 9 10 26t17.5 38.5t23 45.5t24.5 48q29 55 64 120q-14 0 -41 -3.5t-55 -8.5q-33 -5 -69 -12q-20 -29 -42 -64t-40 -65l-42 -70q2 0 4 1l4 2l6 3q6 4 13 7.5t11 3.5q2 0 4 -6q1 -3 2 -5t3 -3q4 -4 4 -5q0 -4 1 -7t8 -6
q4 0 2 -2l-2 -2q0 -3 3 -6q1 -2 3 -3q-5 0 -16.5 -8t-18.5 -10q-4 -3 -15.5 -9.5t-24.5 -12.5t-24.5 -11.5t-14.5 -7.5q-7 -3 -8.5 -1t-5.5 6q-5 1 -8 1t-11 6q-4 2 -8.5 8t-7.5 9t-2 6q0 2 2 3q-2 6 0 12q1 6 7.5 18.5t16 29t20.5 35t23 37.5q27 43 61 95l-36 -8
t-56.5 -12.5t-53 -11.5t-25.5 -6q-6 -2 -10.5 3t-2.5 7q-6 7 -11 14q-5 5 -8.5 10.5t-5.5 7.5q-2 3 1 5q2 1 4 1l9 3l238 56l19 28.5t30.5 45.5t38.5 55.5t42 59.5t40.5 57.5t35 49t24.5 34.5t10 14q4 8 10 18.5t13 20.5q7 11 16 24v3q4 2 10 0l44 -26l5 -5l-4 -12
q-2 -5 -3 -8.5t-3 -4.5q-4 -5 -8 -19.5t-7.5 -31t-6 -32.5t-3.5 -23l-3 -30l-4 14q-3 10 -3 20v15l-3 -10q0 1 -1 6.5t-2 11.5q-1 7 -2 15l-196 -275q15 3 42 7t53.5 8t45.5 6.5t18 2.5q47 78 92.5 147.5t81.5 122.5q42 62 80 114q-6 2 -6 6v3q1 -1 2 0q2 2 3 6
q6 19 18.5 37t32.5 39q1 -1 2 -1q1 -1 5 -1q5 0 8 -5q1 -3 0 -5l41 -28q7 -8 4 -18q-3 0 -9 -8q-3 -4 -5 -8q-8 -10 -20 -28q-11 -15 -29 -40.5t-44 -63.5q-28 -40 -57.5 -84.5t-54.5 -82.5q-29 -44 -56 -87l-2 -5q1 -2 0 -2t3 0q7 -7 8.5 -12.5t3.5 -15.5h5q4 0 2 -7l-2 -6
q0 -2 1 -4q2 -4 2 -6q2 -4 -1 -6q-2 -1 -4 -1l-11 -5q-2 0 -10.5 -1t-17.5 -3q-11 -2 -24 -3q-12 -22 -27.5 -51.5t-31.5 -61t-31.5 -63t-27.5 -56.5t-20 -42t-9 -20q-5 -11 -8 -19t-3 -12q0 -1 -2 -5q-1 -2 -2 -3t-3 -1q-2 -1 -4 -1t-4 -2q-3 0 -7 4q-2 2 -3 5zM-92 208
q3 -2 8 -8.5t10 -14t9 -14.5t5 -8q-4 -3 -4.5 -3t-5.5 -2q-6 -2 -8 -2q-3 -1 -5 -1q-14 30 -20 37.5t-5 10.5q4 3 8.5 3.5t7.5 1.5zM-105 149q-11 -3 -9.5 -1t-2.5 5q0 4 -4.5 14t-6.5 13q-4 6 -6 13q-1 3 -1 5l15 3q1 0 4.5 -6t8 -14t8.5 -15.5t5 -10.5q2 -5 -4 -5t-7 -1z
" />
    <glyph glyph-name="I" unicode="I" horiz-adv-x="390" 
d="M1034 735q0 -2 1 -7.5t2.5 -11.5t2 -11t-1.5 -5q-1 0 -13.5 -4.5t-30.5 -11t-38.5 -14.5t-39 -14.5t-31.5 -11.5t-15 -6q-25 -8 -13.5 -3.5t60.5 28.5q2 1 -8.5 -2t-18.5 -7t-15.5 -7.5t-14.5 -6.5q-8 -4 -15 -7q-11 -4 -19 -8q-7 -3 -12 -5t-3 0l29 22q12 8 15.5 12
t2.5 5l-2.5 2.5t0.5 3.5l33 19l-214 -24q-25 -44 -55 -95.5t-62 -107t-64.5 -111.5t-62.5 -108.5t-55.5 -99t-44.5 -82.5q6 0 21 1t29 2.5t23 2t2 -0.5q1 0 6.5 -1.5t11.5 -3.5t11 -4t6 -3q1 -2 7.5 -3.5t13.5 -3.5t12.5 -3t4.5 -1q-18 1 -33 0t-12 -3q1 0 7 -0.5t13 -0.5
h13.5h7.5q2 0 6 -1.5t6 -2.5q5 -2 5.5 -3t5.5 -2q10 -2 17 -3.5t4 -2.5t-18.5 -1h-50.5q-2 0 -6.5 -0.5t-19.5 -2t-43.5 -4.5t-77.5 -7q-6 -9 -14 -26t-11 -28q-2 -5 -0.5 -5.5t1.5 -1.5q-2 -9 -5 -12.5t-5.5 -4.5t-4 0l-1.5 1q0 -2 -8.5 5t-19.5 16q-12 11 -27 25q1 3 3 6
q2 2 3 5t3 7q-30 -5 -54 -10.5t-47.5 -12t-49.5 -15.5t-61 -21l-20 -9l-13 -5h-9l-38 42q-1 1 1.5 4t7.5 5q3 1 18 8t35 17.5t41 22t37 22.5l36 22.5t40.5 26.5t40 29t33.5 31q6 2 9 0q0 -1 3 -8q2 -2 7.5 -6.5t11 -10l10 -10t4.5 -6.5q0 -7 1.5 -4.5t-1.5 -4.5
q-4 -2 -18 -12.5l-30 -22.5q-18 -14 -41 -31q2 1 11 4q8 2 23 5t44 7q16 30 44 79.5t61.5 108t69.5 121t69 120t60.5 105t43.5 75.5l-97 -10v-4q0 -2 -1 -3t-1 -2q2 -3 2 -3.5t-9 -4.5q-19 -3 -33 -5q-12 -2 -22.5 -3t-10.5 1l-12 68q0 3 1 3t3 -1q1 0 3.5 1t0.5 3
q-1 0 -1 2v1h1q20 -3 47 -2.5t55 2.5t55 4t47 2q1 3 3 5t5 6q4 4 4.5 9t6.5 7q2 0 4 -1q3 -2 3 -4l19 -17q21 1 52 4t66 7t70.5 9t65.5 9.5t50.5 8.5t25.5 6t7.5 5t7.5 3q4 0 4.5 -5t0.5 -8q3 -4 8.5 -8t5.5 -7z" />
    <glyph glyph-name="J" unicode="J" horiz-adv-x="167" 
d="M350 489q2 -2 1 -6t-3 -8l-6 -10q-28 -49 -54 -95.5t-59.5 -105t-78 -136t-108.5 -187.5q36 -15 72 -41.5t66.5 -56t52 -58.5t29.5 -49q-13 40 -24.5 81t-29.5 76.5t-45 61.5t-71 37q-6 2 -4.5 2.5t-3.5 1.5q54 7 93 -11t66 -51t44 -75.5t28 -84t17.5 -76.5t12.5 -52
q2 -5 7.5 -15t3.5 -15q-2 -7 -8.5 -7t-11.5 2q-2 -1 -11.5 0.5t-21 3.5t-22 3.5t-14.5 1.5q-5 0 -10 1t-8 7q-15 29 -27 54t-26 49t-31 48t-41 51q-23 26 -47 48t-52 37q-40 -62 -82.5 -123.5t-86.5 -117.5t-88 -104t-87 -82t-83.5 -52.5t-76.5 -15.5q-29 1 -53.5 11.5
t-42.5 27t-28 37.5t-10 43q1 67 31.5 132t77.5 120t103.5 96.5t109.5 63.5q60 25 107 31.5t81 4.5t54 -9t28 -10q32 52 65 106.5t63.5 107.5t58.5 102.5t50.5 90t39 70.5t24.5 44q1 10 5 11t3 9q0 8 8.5 6.5t19.5 -7t21 -11.5t13 -8zM-506 -546q2 0 9.5 -1t22.5 3t37.5 15
t53.5 36.5t71.5 68t91.5 107.5q43 55 84 110.5t79 113.5q5 7 12.5 19.5t7.5 16.5q-64 10 -133 -7.5t-133 -55.5t-117.5 -91t-84.5 -113q-26 -50 -37.5 -85t-14.5 -59t1.5 -38.5t11 -22t13 -10t8.5 -3.5q4 -2 8 -2.5t9 -1.5zM318 559q2 1 11.5 16.5t22 37.5t25.5 45t22 39
q2 4 1 4t-3.5 -1t-4 -1t0.5 3q6 10 18 19q6 4 13 7q14 4 25 -5t31 -19l-104 -174q-5 -4 -15.5 -1t-20.5 8q-14 6 -20.5 12.5t-1.5 9.5z" />
    <glyph glyph-name="K" unicode="K" horiz-adv-x="382" 
d="M624 451q4 -4 3 -6t2 -5l5.5 -5.5t-1.5 -4.5q-7 -7 -17.5 -13t-18.5 -9q-90 -72 -149 -129.5t-94 -103t-50.5 -79.5t-19 -59.5t1.5 -42.5t11 -28q3 -6 3 -7t-0.5 -0.5t-1.5 0.5t-1 -3q0 -2 -2 -8q-1 -3 -2 -5q-7 6 -13 11q-5 5 -9.5 9t-6.5 6q-3 5 -6 7q-2 1 -3 1v5t-3 5
q-28 29 -26 66.5t20.5 76.5t48.5 76t59 67.5t52 50.5t27 23q-34 -15 -70 -31t-65.5 -29.5t-49 -23t-19.5 -11.5l-8 -12q-11 -17 -29.5 -47t-36.5 -59q-21 -34 -44 -73q-1 -6 -0.5 -6h6.5q0 -4 6 -6.5t11 -3.5q6 0 5 -2t-3 -4.5t-3.5 -3.5t3.5 1q3 2 4.5 3.5t6.5 0.5
q-24 -22 -44 -41q-17 -17 -35 -33t-26 -24q-7 -6 -7 -5.5t-4 1.5q-10 3 -24 8t-14 6q-3 4 -5.5 8t-2.5 8q0 2 4.5 9.5t9.5 16.5q6 11 13 23q20 33 35 57t27.5 46t26 43.5t30.5 48.5l-23 -11.5t-9 -5.5t-8 -4q-3 -1 -6 -1q-4 0 -8.5 2.5t-28.5 10.5q-2 1 -4.5 1t-4.5 1l-3 2
v5l-1 4q9 4 16 8q6 3 11.5 6.5t7.5 5.5q10 7 28 21.5t36.5 29.5t34 28t21.5 18q24 41 52.5 87.5t56 92t53 87.5t44 73.5t28.5 49.5t8 17q1 2 2.5 6.5t-0.5 6.5q-1 1 -1 3v6l5 4l43 -25l6 -4q5 -3 8.5 -6.5t1.5 -5.5v-3q0 -2 -0.5 -3t-0.5 -3q-2 -6 -2.5 -8.5t-5.5 -2.5
l-5 -8l-145 -232q10 8 23 18q11 8 26 18.5t34 21.5q48 29 74 42t39 16q14 4 17 -1q3 -2 7 -5q8 -6 10 -8t7 -5t11 -8q7 -5 15 -11l5 -4q7 -6 5 -14q-1 -4 -3 -8v-4q-7 3 -8 5t-9 4q0 4 -4 6h-3q-29 -5 -62 -20.5t-65.5 -36t-63.5 -43t-55.5 -42.5t-41 -34.5t-20.5 -17.5
q71 28 128.5 53.5t99 44t64.5 29.5t25 10h4q2 0 4 -1.5t4 -3.5l4 -4z" />
    <glyph glyph-name="L" unicode="L" horiz-adv-x="362" 
d="M297 384q-34 -66 -79 -139t-103 -168q2 3 9 9.5t22 18t40 29.5t64 44q56 37 91.5 70.5t55 60t25 44.5t2.5 26q-2 2 -2 3l-1 1q-10 5 -15 10t-8 9q-4 4 -4 9q2 3 13.5 -1.5t24.5 -11.5q15 -8 32 -18q7 -4 12 -8t8.5 -8.5t4.5 -10.5q2 -19 -9.5 -42t-31 -47t-43 -46.5
t-44 -39.5t-35 -27.5t-16.5 -9.5l-50 -36q-21 -15 -43.5 -31.5t-36.5 -28.5q-42 -32 -67 -53.5t-39 -35.5q-17 -16 -25 -26q0 -2 -1 -3q-1 -2 -1.5 -2.5t-1.5 -2.5q-5 -4 -12 -16q-4 -6 -7 -13q-1 -2 -3 -3q-3 -3 -7 -3q-2 -1 -9 4t-16 11q-11 7 -23 15l-16 9l5 9q2 7 7 16
t11 17q7 9 15 18q102 177 174 300.5t120 206t76 129.5t43 71t19 30.5t5 8.5q4 5 5.5 5.5t6.5 4.5q2 2 8 -0.5t9 -5.5q1 -2 10.5 -9.5t11.5 -7.5l5 -5q1 -1 1 -2q1 -2 5 -4q2 -1 3 -1q0 -1 1 -3q0 -2 0.5 -4t0.5 -7t0.5 -6.5t-0.5 -4.5q-1 -2 -2.5 -4t-2.5 -1q-2 0 -3.5 1.5
l-3.5 3.5l-4 2q-4 2 -4 1q-2 -4 -10.5 -17.5t-28 -46t-53 -89.5t-85.5 -148z" />
    <glyph glyph-name="M" unicode="M" horiz-adv-x="432" 
d="M762 685q5 0 9.5 -6t-0.5 -8q-23 -31 -42 -54t-33 -41q-2 0 -4 -2t-3.5 -4t-3.5 -4q-9 -13 -45 -61.5t-84 -136.5q-10 -18 -27 -49t-37 -68t-40.5 -77t-36 -75.5t-23.5 -63.5t-4 -41q2 -6 6 -10t7 -6q1 -1 2.5 -1.5t3.5 -1.5t4 -1q3 -3 2 -5q-6 -7 -15 -6q-17 2 -35.5 13
t-29.5 19q-3 2 -7.5 6.5t-5.5 9.5q0 1 -1 5t1.5 16t11 34.5t27 62t49.5 98.5t78 142q-19 -25 -35 -44q-14 -17 -25.5 -31.5t-13.5 -16.5q-6 -6 -19 -22.5t-26.5 -33.5t-24.5 -31t-13 -17l-99 -131q-6 -9 -10 -17q-4 -7 -7.5 -13t-5.5 -8q-4 -3 -5 -6.5t-5 -3.5q-3 0 -8 2.5
t-10.5 6.5t-10 7t-6.5 5l-9 5q-2 0 -2 4t7 10q2 3 6.5 10.5t8.5 14.5q24 45 66 121.5t93 163.5q-74 -81 -133 -149q-25 -29 -49.5 -58.5t-43.5 -54.5t-31.5 -44t-13.5 -28l-2 -2q-1 -2 -2 -3.5t-2 -3.5t-4.5 -1.5t-5.5 1.5l-20 14q-6 2 -10 5q-4 2 -7.5 3.5t-5.5 1.5l-3 6
q0 3 1 3h2q7 13 15 25q7 11 14 23t13 22q8 13 24 42t37 65.5t45.5 78t50.5 80.5q-1 0 -3 -1q-4 -2 -6 -4l-3 -3q-2 -1 -2.5 -2t-1.5 -1q-40 -22 -80 -36q-17 -6 -36 -10.5t-37.5 -6t-37 0.5t-34.5 10q-8 10 -20 18t-22 21q-2 2 -4 6q-1 2 -1 3v7.5t5 10.5q1 0 7.5 5t16 12
t22 14t27.5 11q-3 -2 -11.5 -7t-18 -12t-17 -13.5t-7.5 -9.5q-1 -2 -2 -3q-2 -4 -2 -5q0 1 5.5 7t16 14t25.5 16.5t36 13.5l9 1q-1 -1 3 -1.5t10 1.5q6 1 14 2q15 2 33 -1q2 0 4.5 -1.5t4.5 -2.5q3 -1 6.5 -1t6.5 -2h-5q-2 0 -16 1t-34.5 -3t-46 -17.5t-50.5 -41.5
q-2 -5 -1.5 -6t1.5 -4q0 -4 3 -4q1 -1 2 0q30 -6 75 5q38 10 97 39t140 93q3 4 11 18.5t18 31t20 32t18 23.5l5 4h5l18 -10h2q1 0 2 -0.5t2 -0.5l2 -2q0 -1 1 -2l6 -3q4 -3 8 -5q7 -5 12 -5l-5 -8q2 -3 -2 -8t-6 -7l-22 -25q-1 0 -7 -8t-15 -21.5t-20 -30.5t-23 -35
q-27 -41 -61 -94l27 27q11 11 20 21.5t13 15.5q2 2 15 16.5t31 34t38 42.5t37 42.5t28 33t11 14.5q1 3 3 6l6 9q6 8 16 23l12 18l5 9h2q1 0 1.5 3t1.5 2l5 -5q1 -1 1 0q1 0 7 -3.5t12.5 -7.5t13 -7.5t8.5 -3.5v-1q0 -3 1 -5q0 -2 -5 -9.5l-11 -16.5t-11.5 -16t-6.5 -7
l-9 -11q-2 -4 -12 -21t-24 -40t-30.5 -49.5t-31 -50.5t-25.5 -41.5t-14 -23.5q70 77 128 141q25 27 49.5 54.5t45.5 50.5t36 40.5l21 24.5q11 13 15 19t6 9.5l4 7t9 11.5q6 8 11 15q4 6 7.5 11t3.5 7q0 1 1 2l2 2t4 1h4q2 -1 5 -4q2 -2 4.5 -5t5.5 -5q6 -6 14 -15q3 0 5 -2
l1 -1zM-9 425q0 1 1 1z" />
    <glyph glyph-name="N" unicode="N" horiz-adv-x="414" 
d="M387 230q27 46 53 94q23 41 48 89.5t45 93.5q36 78 50.5 129t17.5 81.5t-1 43t-6 14.5q-3 -1 -9.5 0.5t-9.5 3.5q-2 1 -2 1.5t-2 2.5l-5 7l-2.5 2.5t-1.5 3.5q-1 1 -1 2t-1 2t-1 2q1 1 3 2q4 2 6 2l9 -4q14 -5 25.5 -11.5t19.5 -11.5q9 -6 16 -13q10 -13 14 -37
q3 -20 -1 -55t-22 -88q-11 -36 -23.5 -68t-30 -68t-41.5 -80t-59 -105q-58 -106 -84 -167t-32 -78q0 -2 -1 -4t-1 -10v-14q0 -5 -3 -7l-6 -4q-4 -2 -9 -2q-1 -1 -2 0q-2 0 -2 4q-6 4 -20 11q-7 4 -16 7q-1 1 -1 2q-2 2 -3 2q0 2 -2 6q-1 2 -2 3q-1 33 5 76t16.5 89
t22.5 90.5t23 79.5t18 58t7 25q2 3 1 3.5t-2 -0.5q-2 -1 -3 -3l-22 -33t-31.5 -46t-37 -53.5t-38.5 -55.5q-45 -64 -96 -138q19 13 44 27.5t47.5 26.5t39 20t18.5 9q-6 -4 -10 -12q-1 -2 -3.5 -4t-4.5 -4t-2 -5t-1 -5q-6 -9 -4 -9h-1q-2 -2 -13.5 -9t-24.5 -14.5t-23.5 -14
t-8.5 -6.5t12.5 6.5t21.5 11.5l15 7.5t13 5.5q7 3 13 5l-27 -18q-3 -2 -7 -5q-8 -6 -10 -8q4 0 6.5 2.5t3.5 2.5q10 4 9.5 3.5t-5 -3.5t-11 -7.5t-8.5 -6.5q-36 -23 -66 -44t-51 -38q-25 -19 -44 -36q-4 -4 -7.5 -5t-2.5 -4q-5 -2 -6 -1.5t-3 0.5q-3 -3 -6 -2q-2 0 -3 2
q-11 5 -20 9q-8 4 -13.5 7.5t-5.5 5.5q-2 0 -4 2q-1 1 -1 3q0 3 2 3t3 1q4 4 5.5 4.5t5.5 7.5q3 7 8.5 13.5t8.5 9.5q0 2 3.5 8t8.5 12l12 16l408 573q0 1 1 2q0 1 0.5 2t0.5 3q1 0 3 4q0 2 1 5q2 2 6 4q2 1 3 1l4 -5q4 -4 6 -4q2 -1 3 0l13 -5q2 -2 5 -4q6 -4 8 -4
q5 0 8 -3q1 -1 1 -2v-4q-4 -9 -8 -15q-6 -12 -11 -17q-1 -4 -1 -5.5t-2 -6.5q-25 -55 -46.5 -118.5t-37.5 -118.5q-19 -64 -35 -128z" />
    <glyph glyph-name="O" unicode="O" 
d="M544 694q8 -4 13 -13q4 -8 5.5 -22.5t-5.5 -38.5q-5 -25 -18.5 -59.5t-33.5 -74.5t-45.5 -83.5t-54.5 -85.5q-24 -39 -61.5 -89t-77.5 -97t-78 -86t-63 -56q-19 -13 -36 -21t-40 7l-34 28l-3 3q-4 4 -4 7q0 2 -1 11t2 29t12.5 53t29.5 82q14 33 34 72.5t43 80t47 79
t46 71.5t40 57.5t28 36.5q3 5 7 9l6 6t5 3t4 -2l1 -1q0 -1 1 -2t6 -1q2 0 3 -1t3 -2l4 -2q28 33 54 60q23 23 47 43t41 23q2 0 10 3t18 -5q1 0 3 -1t5 -2t8 -3q7 -3 14 -8q5 -4 7.5 -5.5t4.5 -2.5t3 0zM499 662q-23 -12 -53 -39.5t-63.5 -65.5t-69 -83.5t-69.5 -93.5
q-56 -80 -90.5 -143.5t-53.5 -108.5t-25 -70t-6 -27q-2 -5 1 -3q2 1 5 2l5 3q36 30 78 76q36 39 84 98.5t102 141.5q56 81 86.5 139t46.5 96q18 44 23 73z" />
    <glyph glyph-name="P" unicode="P" horiz-adv-x="336" 
d="M120 19v-2q0 -2 4 -2l4 -6t4 -5l4 -6l5 -5l2 -5q0 -1 3 -1q1 0 3 -1q0 -1 -1 -2q-3 -3 -6 -5q-2 -1 -16 -10t-31 -21t-32.5 -25.5t-20.5 -22.5q-2 -2 -2.5 -1.5t-2.5 -0.5q-2 -4 -6 -3l-5 4l-4.5 3.5t-9.5 7t-10 6t-6 2.5q-2 0 -5 3l-2 2q-1 1 -2 3q-2 4 0 7
q26 47 70 116.5t97 155.5q0 1 1 2t1.5 2t1.5 2q-56 12 -93.5 32t-45.5 30q-6 2 -10 6q-9 7 -7 18q2 4 12.5 11t35 11.5t66.5 5t106 -8.5q15 24 30 48.5t27 44.5t20.5 34t10.5 18q15 24 28 47q11 19 21.5 39t15.5 31l7 15l3 3l3 3l2 2q1 17 9 39.5t16.5 43t15.5 35t7 16.5
q2 3 4 7q3 7 7 7q4 -1 5 -0.5t5 -1.5q2 -1 1.5 -1.5t3.5 -5.5q7 -6 13 -11q5 -5 11 -10t10 -9l3 -3q1 -2 2 -3.5t1 -2.5q0 -2 -1 -3t-2 -3l-3 -3l-5 -9q-10 -32 -21 -57.5t-31 -58.5q-2 -15 -2 -36q0 -18 1 -45t6 -63q5 -45 2 -84.5t-27 -69.5q43 -17 74.5 -31.5t35.5 -16.5
q-4 2 -14.5 5t-15.5 3l-20 8q-8 3 -14.5 5t-8.5 3q-4 0 -9.5 3t-13.5 5q-8 0 -8.5 3t-9.5 2h-6q-16 -16 -40.5 -27.5t-60.5 -18.5q-23 -6 -44.5 -8t-43.5 -1l-31 -50q-12 -20 -26 -42t-25.5 -41.5t-19.5 -34t-9 -19.5zM308 302l39 -9q20 18 30 41.5t14 43.5q4 24 3 48
q0 10 -1 18q-1 7 -1.5 12t-2.5 5l-6 -6q-14 -21 -30 -46q-14 -21 -31 -48t-34 -55zM205 289q-34 1 -68 -2.5t-59 -15.5q-4 -1 -6 -2t-1.5 -2.5t6.5 -2.5q7 -1 35 -7t70 -7zM273 283l-17 -28q11 2 21 4.5t21 6.5q13 3 23 9q-3 0 -7 2z" />
    <glyph glyph-name="Q" unicode="Q" horiz-adv-x="384" 
d="M632 707q22 -27 19.5 -68t-19.5 -88.5t-44.5 -98.5t-55.5 -97q-47 -74 -111.5 -154t-157.5 -176q-22 -20 -35 -30.5t-21 -16.5t-13.5 -8.5t-11.5 -4.5q-17 -55 -24.5 -87.5t-5.5 -37.5q1 -2 0.5 -3t-0.5 -3q-1 -2 -1 -3q3 -3 4.5 2.5t2.5 1.5q2 -3 0 -7.5t2 -4.5
q4 1 2.5 2t2.5 -1l1 -13q0 5 7 9l-2 -6q-1 -3 -1 -8q0 -4 -2 -7.5t0 -6.5q-4 0 -6 -8t-3 -17t-2 -17.5t-3 -9.5q0 -13 -12 -13q-2 0 -10 2.5t-16 6.5q-10 4 -21 9l-6 2q-5 2 -10 5l-1 17q1 19 5.5 41t9.5 44.5t11 43t10 37.5q-3 0 -7 2l-4 2q-3 0 -18.5 5.5t-23.5 13.5
q-6 5 -12.5 6.5t-9.5 4.5q-12 10 -22 22q-8 11 -14 24.5t-4 30.5q0 10 2.5 26t11.5 42.5t28 65t52.5 94.5t84 130.5t123.5 172.5v3q0 3 3 6q3 4 4.5 2.5t5.5 -1.5q9 0 10 -4q1 0 9 9.5t24 26.5t41.5 40.5t61.5 52.5q-6 -3 -12 -7q-5 -4 -13 -10t-17 -14l-34 -30q3 5 7 9
q3 4 6 7t5 3l8 10q1 2 9 8t18 14t20.5 16t18.5 14q20 11 34 18.5t19 7.5l13 2q6 -3 9 -3q2 0 3 1q5 0 6 -0.5t5 -4.5q5 -5 15.5 -8t13.5 -12l15 -7.5t8.5 -4.5t6.5 -5t8 -9zM465 381q57 86 84 145t38 96q12 43 10 70q-1 2 -1.5 3.5t-1.5 3.5l-2 4q-5 5 -10 5.5t-9 -0.5
t-9 -3q-21 -8 -44.5 -24t-47.5 -37t-47 -44.5t-44 -46.5q-49 -55 -98 -118q-49 -67 -84 -122.5t-59.5 -100t-39 -79t-22.5 -60.5q-18 -61 -10 -94l5 -4q17 2 29.5 8.5t27.5 17.5q21 59 48.5 130.5t62.5 156.5l6 5q2 0 5.5 5t7.5 12t10 17q3 3 3.5 5.5t4.5 2.5q0 -2 4 -5
t9 -6q5 -4 13 -8l14 -12l9 -4v-4q-9 -15 -17 -29q-7 -12 -14 -25t-11 -22q-7 -10 -21.5 -45.5t-34.5 -89.5q51 51 110.5 125t125.5 171z" />
    <glyph glyph-name="R" unicode="R" horiz-adv-x="415" 
d="M796 534v-6q-7 -2 -12 -5q-5 -2 -9.5 -5.5t-6.5 -6.5q-44 -26 -98.5 -67t-110 -89.5t-107.5 -100.5t-89.5 -99.5t-56 -87t-8.5 -63.5l6.5 1.5t15.5 4.5t19 7t18 8t15 5t9 1q1 0 2 0.5t2 0.5q-3 -1 -13.5 -5.5t-19.5 -8t-12.5 -5.5t7.5 1q1 0 5.5 1.5l10.5 3.5t11.5 4
t8.5 4q2 1 11.5 4l19 6t15 5t0.5 0q-3 -2 -7.5 -7.5t-2.5 -6.5l-25 -21q-1 0 -5 -4.5t-12 -11.5t-20 -13t-28 -9q-14 -2 -33 8t-30 18q-1 0 -2 0.5t-3 0.5t-3 1q-27 28 -20 68.5t36 86.5t73 94t92 91t93.5 77.5t76.5 53.5q-55 -16 -112 -34.5t-105 -35.5q-55 -19 -108 -40
q-17 -26 -36.5 -58.5t-40.5 -68t-42.5 -72.5t-40.5 -71q-46 -81 -93 -167l-2 -2q-3 -5 -2 -7q0 -3 -1 -5q-2 -5 -3 -6q-4 -4 -10 -9.5t-8 -9.5l-11 -21q-4 -4 -8 -4t-6 1q-2 2 -6 4.5t-3 0.5l-28 19l-9 9q0 3 2 7q1 2 2 3q2 2 6 8.5t9 14.5q5 9 12 19q53 88 96 161t75 127
q37 62 66 113l-2 5q-1 3 -2 7q-1 3 -3 6.5t-4 7.5q-2 1 0 6l2 4q4 0 12.5 5.5t17.5 11.5q11 7 22 16q13 12 27.5 30.5t30.5 41.5t31.5 48t30.5 50q34 58 70 124l5 4q2 4 3.5 7.5t2.5 5.5q1 3 2 5q2 6 3.5 16.5t0.5 16.5q2 1 1.5 3.5t-0.5 4.5q-1 3 -1 5t1 2.5t3 4.5q4 4 7 2
q0 -4 4 -4l36 -30q1 -1 3 -2q4 -2 6 -2v-5q-1 -6 -3 -10q-4 -10 -6 -12q-2 -6 -3 -11q-2 -5 -2.5 -10t-0.5 -7l-5 -4q-5 -7 -4.5 -12.5t2.5 -9.5q3 -5 7 -9q9 -7 19 -16q8 -8 17.5 -17t18.5 -17q9 -9 10 -18.5t-2.5 -19t-9.5 -17.5t-12 -13q-5 -5 -17 -15.5t-24 -21.5
q-14 -13 -30 -27q19 6 37 12q15 5 29.5 10t20.5 8q3 1 22 7t44 13.5t50 15.5t40 14q8 3 15 7t13 7q7 4 13 7l4 4l5 -4q1 -6 2.5 -9t3 -4.5t3.5 -3t5 -6.5zM507 625q-3 3 -14 9.5t-13 9.5q-2 -3 -10.5 -16.5t-21 -33t-26.5 -41.5t-26.5 -41.5t-22 -33t-11.5 -15.5
q35 28 63 53q24 21 46 41.5t28 31.5q11 16 11.5 24t-3.5 12z" />
    <glyph glyph-name="S" unicode="S" horiz-adv-x="283" 
d="M226 264q18 37 37 72.5t35 63.5t27.5 46.5t13.5 21.5q3 4 9.5 16t13.5 24q8 14 18 31q-4 -4 -20 -14.5t-37.5 -26.5t-46.5 -35.5t-47.5 -40t-39 -40.5t-22.5 -37q-9 -31 -2.5 -57.5t20.5 -54.5q5 -10 9 -16.5t8.5 -13.5t10.5 -17t16 -27q11 -17 23 -38t28 -53
q14 -38 8 -53.5t-20 -19.5q-16 -4 -41 2q-20 5 -41 12q-18 6 -40 15t-43 22q-67 37 -87.5 61t-9.5 37q3 6 11 7.5t17 0.5q11 -1 23 -4q37 -11 67 -29t52 -36q26 -21 45 -45q-3 1 -6 3q-2 2 -5.5 4t-5.5 5l-14 9q-2 1 -4 3l-4 4t-4.5 1.5t-4.5 1.5q-11 5 -17 13
q-15 11 -28 17.5t-23 10.5q-11 4 -21 7q-10 0 -16 -2q-5 -2 -8.5 -5.5t0.5 -10.5q10 -11 19.5 -19t17.5 -13q9 -6 17 -10q28 -14 52 -21q20 -6 37.5 -7.5t22.5 10.5q5 15 2 33.5t-9.5 35t-13 28t-8.5 13.5q-2 3 -11 17.5t-20 30.5q-12 18 -28 41q-13 20 -21 44
q-7 20 -10.5 45t4.5 51q8 25 30 50.5t50.5 50.5t61.5 48.5t64 44t58 37.5t43 28q25 17 41.5 31t26.5 25q11 12 17 23q1 8 5 8q1 0 2 -1q7 -2 15 -10q4 -4 9 -10q2 -2 8 -5t9 -5l11 -2q2 0 0 -4.5t-4 -6.5q-2 -3 -13 -19t-24.5 -34t-24.5 -33.5t-12 -17.5q-5 -8 -21.5 -32.5
t-33.5 -51.5q-20 -32 -44 -69q0 -1 2 -2l6 -6l11 -8q4 -1 2 -5q-1 -2 -3 -3l-5 -5l-6 -6l-8 -8l-48 -74l-18 -28t-15.5 -25t-11 -18.5t-4.5 -8.5l-10 -5q-3 2 -5 4l-3.5 3.5t-2.5 1.5q-2 0 -4.5 1t-3.5 3q-3 2 -6.5 4.5t-5.5 6.5q-2 1 -3.5 1.5t-2.5 1.5l-2 1q-4 0 -8 8
q-2 4 -4 7z" />
    <glyph glyph-name="T" unicode="T" horiz-adv-x="178" 
d="M776 695q0 -4 -2 -5t-16 -11q-25 -17 -44.5 -36t-32.5 -35t-20 -27.5t-8 -12.5q-10 -16 -18.5 -28.5t-9.5 -12.5l-10 -3q-17 -3 -32 -5q-13 -2 -24.5 -2.5t-16.5 3.5q-7 9 -6 12.5t5.5 4.5t9 1t4.5 3q2 2 14.5 18t27.5 36l40 52q-35 -11 -68 -21q-28 -8 -57.5 -15
t-48.5 -9l-22 -33t-15.5 -22t-15 -21.5t-20.5 -30.5t-32.5 -48.5t-50 -76.5t-74 -115t-103.5 -162l4 -4l7 -7q1 -1 0 -0.5t-1 -0.5q0 -2 1.5 -2t3.5 -2l5 -7l11 -19q0 -3 1 -6t-6 -6q-2 2 -15.5 -7.5t-29.5 -22.5t-29 -24.5t-15 -12.5q-3 -2 -5.5 -5t-5.5 -3q-6 0 -8 1t-5 4
q-2 0 -8.5 5.5t-13.5 12.5l-13 13t-6 8l8 16q68 108 114.5 181.5t77.5 122t49.5 76.5t30 45t19 27.5t16.5 24.5t23 35.5t38 59.5q-26 -7 -56 -8.5t-56 -1.5q-30 0 -59 3q-2 -8 -5.5 -16t-8.5 -17q-6 -12 -12.5 -24t-7.5 -27l5 3q2 1 5 2l-1 -1q0 -1 3 -1q8 -2 14 0q3 0 5 -1
t3 -2l10 -2q-5 -4 -9 -8q-11 -9 -21 -13q-5 -3 -16.5 -5t-25.5 4q-1 0 -7 3t-12.5 6t-12.5 5.5t-7 3.5q-6 6 -6 18q0 8 19 43q11 20 18.5 36t9.5 25q2 8 2.5 16.5t0.5 12.5q0 1 4 1q2 -1 4 -1q8 -3 15 -6q6 -3 11.5 -6t9.5 -5q20 0 41 -1t46.5 0.5t57.5 6t74 13.5
q20 33 30.5 51.5t10.5 25.5q4 1 10.5 -6t14.5 -17l17 -30q0 -2 4 -3t2 -8q61 14 100 25.5t62 19.5t32.5 13t11.5 7q3 3 6.5 1.5t6.5 1.5q2 0 9.5 6.5t10.5 6.5q1 -1 2 -3q2 -4 2 -6t2.5 -7t6.5 -10q4 -6 10 -13z" />
    <glyph glyph-name="U" unicode="U" horiz-adv-x="341" 
d="M666 695q3 -3 3 -2v-2v-6q-1 -1 -1 -2v-3q-54 -93 -94.5 -156.5t-67.5 -104.5q-32 -48 -53 -77q-5 -5 -6 -9t-4 -8q-4 -4 -14 -20q-8 -14 -23.5 -42t-41.5 -78q-49 -98 -70.5 -142.5t-24.5 -55.5q-1 -2 -0.5 -3t0.5 -2v-2q1 -2 0 -3.5t0 -4.5t6.5 -6.5t21.5 -8.5
q3 0 1 -5q-4 -2 -7 -5t-15 -1l-24 4l-10 2t-10.5 2t-13.5 3q-20 4 -19 16.5t6 25.5q9 26 26.5 62t35 69t30 56l12.5 23q-45 -43 -83 -77t-70 -61.5t-58.5 -51t-48.5 -45.5l-2 -2l-4 -2t-3 -3l-5.5 2.5t-12.5 6t-13.5 7.5t-9.5 6l-2 1q-5 2 -6 5q-2 2 -4 2q-1 1 1 5
q2 1 1.5 1t0.5 1q0 1 2 5q12 20 39.5 60t61 87.5t69 97.5t63.5 90q77 109 108 168.5t30 64.5q-1 2 -1.5 5.5t-3.5 6.5q-3 7 -8.5 12t-10.5 9q-6 4 -12 7q-4 2 -1.5 4.5t4.5 3.5h2l10 -4q1 0 1.5 -0.5t1.5 -0.5q1 -2 7 -4q3 -1 6 -1q2 0 16.5 -9t29.5 -23q13 -11 16 -25
q2 -7 2 -13q1 -10 -15 -39.5t-41 -68t-54.5 -80.5t-55.5 -79t-45 -63t-22 -31q-5 -7 -7 -11t-4 -6q-2 -3 -2 -5q21 18 51 45t58 53q33 30 67 61q17 28 42 65.5t52 78.5l54 82t49 74.5t37.5 56t19.5 27.5l2 5l2 8t1 6q0 3 2 3.5t2 4.5q2 0 5 -3v-2q0 -1 1 -1l14 -11v-1
q1 -1 2 -1q2 -2 4.5 -2t4.5 -1t6.5 -5t8.5 -8q2 -2 5 -2z" />
    <glyph glyph-name="V" unicode="V" horiz-adv-x="204" 
d="M47 -74q-3 -1 -5 0t-3 2q-6 3 -10 7q-4 3 -7.5 6.5t-5.5 6.5q-1 2 -4.5 6t-7.5 7.5t-7 5.5l-3 2q-4 2 -4 5.5t2 7.5l7 8q2 4 4.5 13.5t4.5 15.5q2 3 3.5 8t3.5 10t5 12q61 160 109 288q21 55 41 108.5t36 97t26.5 73t12.5 36.5q4 12 7 18.5t5 11t3 8.5t1 10q-1 3 1.5 2.5
t5.5 -2.5l8 -6q2 -2 7.5 -5t10.5 -6q6 -4 13 -8q1 -1 4 -5.5t1 -15.5l-18 -118q0 -2 1 -4t2 -5q2 -4 1 -8q-1 -3 -2 -5l-2 -1q-1 -2 -9 4.5t-11 8.5l-5 5l-151 -376q62 88 122 166.5t108 139.5q56 71 107 133q1 -1 -2.5 2.5l-8.5 8.5q-2 3 3.5 3.5t13.5 7.5q7 6 24.5 19
t40.5 34q3 3 12 11l18 16q11 10 24 20q0 1 4 2t8 -2q1 -2 3 -4q3 -3 5 -7q2 -5 5.5 -13.5t7.5 -12.5v-2q2 -4 2 -6l-1 -7l-2 -2q-3 -3 -4 -8q-2 0 -4.5 -2t-2.5 -5q0 -5 -7 -8q-7 -6 -31 -32q-21 -23 -62 -69.5t-114 -130.5q-74 -87 -134 -169t-103 -147q-50 -76 -90 -143z
" />
    <glyph glyph-name="W" unicode="W" horiz-adv-x="437" 
d="M523 522q-33 -57 -61 -117.5t-49 -111.5t-33.5 -86t-15.5 -40q4 6 28.5 43t59 91.5t73.5 118.5t72 123q35 59 51.5 98t22.5 63t4.5 35.5t-2.5 14.5l-4 3q-11 4 -30 -4.5t-38 -19.5q-22 -13 -47 -32q3 5 7 9q3 4 6.5 8t6.5 9l7 8q1 2 3 4l7 7q4 3 5 7t8 9l10 7
q1 1 -2 -0.5l-7 -3.5q-4 -3 -11 -6q1 2 3 5q4 6 7 8q2 2 7.5 5t7.5 5q6 2 13 3t12 1q6 0 12 -1q17 -5 32 -11t31 -20q8 -6 9 -10.5t1 -13.5q4 -27 -6 -65.5t-37 -92.5t-71 -127t-106 -169q-26 -38 -47.5 -73t-37.5 -63q-43 -68 -65 -104.5t-32 -53.5l-13 -23q-1 -1 -1 -2
q-1 -1 -1 -3l-3 -8q-2 -3 -1.5 -4.5t-3.5 -6.5q-2 -2 -2 -3t-2 -2q-2 -2 -2 -3.5t-2 -0.5l-35 16q-2 2 -5 3q-6 2 -8 3q-5 1 -3 6l2 4q19 88 42.5 164t44.5 133q25 66 50 122q-4 -6 -20.5 -25.5t-40.5 -48t-53 -63.5t-59 -70.5t-58.5 -68.5t-50.5 -59t-36 -42t-15 -17
q-3 -1 -6 -1q-1 0 -2 1q-10 3 -19 7q-8 3 -14 5t-8 2q-4 3 -2.5 4.5t1.5 7.5l4 5l5 6q1 2 3 8l5 5q2 2 3.5 5t3.5 5q2 3 3 5q29 49 64.5 107.5t72.5 117.5t72.5 114.5t63 99t45 71t18.5 29.5q4 5 9 3q2 -1 3 -3h4q1 -1 2.5 -1.5t3.5 -2.5t3 -4l29 -14l1 -1q0 -1 0.5 -1.5
t0.5 -2.5l-1 -7q-8 -15 -13 -26q-5 -10 -8.5 -18t-3.5 -10q-3 -3 -7 0t-10 5q-4 0 -4 -2q-1 -1 0 -2l-143 -222q9 9 32 36.5t52.5 63.5t61.5 75.5t58.5 73t44.5 56t19 23.5q3 3 5 11q1 4 2 7q3 -1 7 -1.5t5 -2.5t3 -4q4 -4 6 -4q3 1 13 -5t13 -5q2 -2 2.5 -3t1.5 -2t1 -2
q-1 -1 -1 -2q-1 -1 -1 -2t-1 -2l-4 -7q-2 -3 -2 -5t-1 -4q-1 -3 -2 -4.5l-3 -4.5l-2 -8q-2 -5 -4.5 -11t-5.5 -11q-4 -6 -7 -12z" />
    <glyph glyph-name="X" unicode="X" horiz-adv-x="346" 
d="M625 691q0 2 2 4q1 2 2.5 3.5l3.5 3.5q1 1 3 5.5t4 10t3.5 10t1.5 6.5q0 1 2 3q1 0 2 1q4 0 8 -4q1 0 1 -1q0 -2 1 -2l2 -1q2 -3 5 -6q2 -2 5.5 -5t6.5 -5l13 -11l3.5 -3.5t2.5 -10.5q1 -8 -3.5 -17.5t-9.5 -17.5q-6 -10 -14 -19q-17 -24 -46 -59.5t-63 -76t-69 -81
t-64 -73t-48 -54t-21 -23.5q-5 -5 -9 -11q-2 -3 -2 -5q-4 -20 -9.5 -57t-7.5 -76.5t1.5 -75t16.5 -51.5q4 -5 16 -2t16 5q5 2 2.5 -2t-8 -9.5t-12 -10.5t-7.5 -6q-9 -4 -16 0q-5 1 -9.5 -0.5t-10.5 -2t-13.5 2.5t-18.5 13q-7 6 -10 24t-4 41t-0.5 48.5t1.5 46.5t2.5 35
l1.5 14q-31 -32 -56 -57q-21 -22 -38.5 -39.5l-19.5 -19.5v-4l21 -19h4q2 -2 2 -3.5t1 -2.5q0 -2 1 -2l-4 -4q-3 0 -11 -4q-4 -2 -7 -4q-24 -14 -53.5 -33.5t-55.5 -38.5q-31 -22 -61 -45h-8l-24 18q-2 0 -4 2q-5 3 -7 6l-8 8v8l15 12l24 24q9 9 17.5 17t10.5 10l91 92
q2 2 11 11.5t22 23.5t29 31t33 34q39 40 87 91q19 91 38 166.5t35 129.5t25.5 84t9.5 32v8q0 2 4 0q2 -2 6 -3q2 -2 5 -2.5t5 -2.5q8 -5 21.5 -11.5t21.5 -8.5q1 -1 1 -4q-1 -2 -1 -4q1 -2 1.5 -4.5t-1.5 -7.5q-3 -13 -4.5 -18t-1.5 -5.5t0 1v1.5q-1 -3 -2 -5q-2 -4 -5 -4
t-5 -7l-2 -6l-6.5 -17t-17 -49t-24 -77t-27.5 -100q-1 -5 1 -5q1 0 3 1q54 58 100 113t81 99q40 51 73 96z" />
    <glyph glyph-name="Y" unicode="Y" horiz-adv-x="476" 
d="M836 -117q-4 -15 -40.5 -16.5t-97.5 10.5t-142 38t-173 66q-37 -66 -70.5 -128t-60 -110t-42.5 -77.5t-18 -30.5q-2 -2 -11.5 -19t-21.5 -36t-24.5 -33.5t-19.5 -10.5h-5q-7 0 -11 3q-3 1 -7 3.5t-7 4.5q-2 1 -9 5.5t-9 5.5q-10 5 -8 6t-2 5q-12 21 -24 63.5t-20.5 96
t-13 114.5t-2 120t13 112t31.5 90q2 4 7 9q2 1 5 2q2 1 5 2t6 1q6 1 13 0.5t15 -1.5q10 -2 20.5 -9t21.5 -16.5t22.5 -19.5t25.5 -17l109 149q13 17 30 41.5t35.5 51.5t36 54.5l31.5 49.5t23.5 36t11.5 16q2 5 4 11q1 2 1 4v3q1 1 5 0q10 -9 19 -15q8 -6 14.5 -10.5
t8.5 -5.5l2 -2q1 -1 1 -2t1 -2q2 -5 0 -10l-3 -7t-7 -16.5t-7.5 -19t-4.5 -13.5q-1 -3 -4.5 -10.5t-5.5 -3.5l-4 4q0 1 -1 2q-2 2 -3 1t-10 -15t-23 -35.5t-32 -48.5t-36.5 -54t-36.5 -52t-32 -43q30 17 63 43q29 22 64.5 55.5t73.5 81.5l201 341q3 5 10.5 10.5t8.5 11.5v8
q2 7 3.5 3.5t3.5 -4.5l4 -3l7 -7q3 -3 5 -6.5t4 -5.5q0 -3 3 -4t7 -5l5 -4q2 -1 3 -4q2 -6 2 -12q0 -2 -3 -12.5t-11.5 -30t-24.5 -49t-42 -70.5q-9 -12 -19.5 -27t-21.5 -31t-21 -31.5t-18 -27.5q-8 -11 -15 -22q-6 -9 -11 -17.5t-7 -10.5l-180 -331q13 -7 41 -18t64 -23
t76.5 -23.5t78.5 -18.5t70 -8t52 7q-7 9 -9 16t-1 11t3 6t4 2q3 -6 13.5 -15.5t21 -20.5t18 -22.5t4.5 -22.5zM324 7q-18 9 -41.5 23t-41.5 25q-19 -14 -30.5 -24t-15.5 -12q-7 -5 -11 -10t-9 -7q-4 -2 -6.5 -3.5t-7.5 -2.5l-38 36q-1 2 -1 5q0 4 7 7q5 6 11 14q5 7 12 16.5
t15 20.5q-5 3 -13 11.5t-17.5 17.5t-18.5 15t-15 4q-5 1 -14 -17.5t-17.5 -53t-14.5 -83t-5.5 -107.5t9.5 -126t31 -138q0 -2 2.5 -2.5t8 3.5t13 13t17.5 26zM436 204q-1 -1 -18 -13.5t-42.5 -31t-55.5 -41t-56 -43.5q45 -26 78 -39z" />
    <glyph glyph-name="Z" unicode="Z" horiz-adv-x="387" 
d="M44 30q65 56 120 104q23 20 46 40.5t42.5 37.5t33.5 30.5t20 19.5t26.5 24t50.5 44t66 57.5t72 63.5q85 75 190 165q-51 -16 -97 -28q-39 -11 -78 -20.5t-58 -10.5q-2 -1 -5 -2q-2 -2 -4.5 -3.5t-3.5 -3.5q0 -1 -6 -10t-15 -24t-20.5 -34t-23.5 -38q-28 -46 -63 -103
q3 -5 0 -11t-6 -11q-8 -8 -16 -17q-7 -8 -13.5 -16.5t-11.5 -17.5q-2 -3 -4 -4q-6 -2 -9 2q-8 6 -23 21l-18 16l6 8l170 267q1 2 1 4q0 4 -3 7q-1 2 -5 8q-2 3 -5 6v6q0 7 5 12q4 2 14.5 10.5t21.5 18.5q12 11 27 26q1 2 3 5q2 2 2.5 3.5t2.5 2.5q3 3 7.5 7t5.5 4q2 0 5 -1
q6 -2 8 -4q1 -2 5.5 -8t9.5 -13q6 -8 14 -17q1 -1 1 -3q0 -4 -4 -5q-5 -2 -9 -10t-4 -10q-1 -3 -3 -7l-2 -4q70 17 132 33q26 7 53 14t51 14t43.5 13.5t31.5 11.5q4 -1 7 -2q6 -2 5 -7q-3 -6 0.5 -7.5t8.5 -9.5q2 -6 3.5 -9t3.5 -5t3 -2q1 -2 -0.5 -3t-4.5 -2t-5.5 -2.5
t-2.5 -3.5q-1 0 -17.5 -14.5t-44.5 -39.5t-66 -59t-82 -72.5t-92.5 -80t-97.5 -81.5l-49 -43l1 -2q2 -5 8 -17.5t9 -17.5q23 -45 21.5 -84.5t-23 -70.5t-61.5 -50.5t-94 -23.5q-42 -3 -75 -6q-29 -2 -54 -5.5t-29 -5.5q-8 -4 -17.5 -6.5t-17.5 -7.5q-3 -3 -10.5 -9.5
t-15.5 -13.5q-10 -8 -21 -17l-4 -2q-5 -2 -10 3q-5 2 -9.5 8t-9.5 12l-10 14l-2 4q-2 4 -1 7q5 4 18.5 18.5t37.5 28.5q5 4 9 7t7 5q4 3 7 5zM150 40q7 0 43 3t98 20q20 5 42.5 18.5t39 32.5t23 43.5t-4.5 51.5l-15 34q-40 -36 -77 -68.5t-67 -59t-51.5 -46t-30.5 -29.5z
" />
    <glyph glyph-name="bracketleft" unicode="[" horiz-adv-x="259" 
d="M120 66l32 14q12 5 23 9t13 4q5 -2 7.5 -10.5t10.5 -14.5q2 -5 5 -9.5t5 -8.5q3 -4 6 -9q-2 -3 -5 -5q-2 -2 -6 -2.5t-8 1.5q-2 0 -21.5 -8.5t-43 -19.5t-44 -20t-23.5 -10q-3 -3 -9 3q-3 3 -5 6q-6 9 -11 18q-5 7 -9 14t-5 9q-2 5 0 11.5t5 12.5l8 14q134 217 222 373
t140.5 256.5t74.5 148t24 47.5l1 4l5 -1q1 -1 3 -2q1 -1 2 -1.5t2 -2.5q28 -7 60 -7.5t58.5 1.5t44 5t16.5 3q5 -1 6 -1.5t-1 -4.5q-1 -5 6 -7q3 -1 7 -1q2 -2 3.5 -3t3.5 -2t3 -2l6 -8q7 -2 14 -8t8 -11q2 -3 -1 -5q-2 -1 -5 -1q-56 -6 -93.5 -7.5t-60.5 -0.5q-27 1 -43 4
q-13 -29 -38.5 -77t-58 -107t-70 -125.5t-74.5 -130.5q-87 -151 -190 -325z" />
    <glyph glyph-name="backslash" unicode="\" horiz-adv-x="389" 
d="M127 605q0 1 -1.5 7t-4 12t-4.5 11t-4 5q-2 -2 -3.5 -3t-3.5 -2t-3 -2q-2 -1 -3 0q-2 2 -2 9v15.5t-0.5 22t-1 22t-1.5 16.5q-2 8 1 10t5 1q4 0 6 1q4 2 9.5 3.5t10.5 2.5q7 1 14.5 -0.5t9.5 -1.5q0 -1 1 -2t1.5 -2.5t1.5 -2.5q2 -4 3 -7q8 -25 24 -84t34.5 -135
t38.5 -160t38 -158.5t31 -130t18 -74.5q4 -7 -3 -9q-9 -2 -23 -4t-22 -1h-4q-7 -1 -9 1q0 1 -0.5 2t-0.5 2q-3 8 -11 40t-19 78.5t-24.5 103t-27.5 114t-27 112t-22.5 96.5t-15.5 67.5t-6 24.5z" />
    <glyph glyph-name="bracketright" unicode="]" horiz-adv-x="293" 
d="M400 769q-5 5 -14 11t-17 11q-10 6 -21 12v2t6 2l18 3q55 12 92.5 21.5t60.5 16.5t34.5 11.5t15.5 6.5t10 6t10 4q5 -3 6 -4l2 -4q0 -2 4 -5.5t7 -4.5h2l2 -2t3 -4q2 -4 9 -11t6 -6q3 -4 -1 -8q-35 -42 -75 -98t-81 -120t-82 -131.5t-78.5 -132t-69.5 -122.5t-56 -102.5
t-38.5 -72t-15.5 -31.5q-11 -18 -10 -23.5t0 -10.5q-1 -9 -10.5 -9t-10.5 1q-12 4 -20.5 10t-13.5 11q-4 4 -8 6l-4 2q0 4 -0.5 18t-2 31t-3 32t-3.5 20q-1 2 -3.5 5t-2.5 5q-2 5 2.5 5t5.5 4q2 0 5 -0.5t5 -0.5q3 -1 6 -1q7 -6 13 -11q5 -5 9.5 -8.5t6.5 -5.5q0 -1 2 -1h2
q105 183 180.5 312t125.5 212.5t75 123.5t28 44q3 2 3 4q-1 1 -2 1q-24 -6 -44 -10q-17 -4 -32.5 -7.5t-19.5 -2.5q-4 0 -8 -2q-2 -1 -4 -3q-2 -1 -6 1z" />
    <glyph glyph-name="asciicircum" unicode="^" horiz-adv-x="240" 
d="M249 539q1 6 7 16t12.5 20t12 17.5t6.5 8.5l7 10q0 1 2 1h1l30 -38q1 0 1 -2t-5 -15q-2 -4 -7 -12t-11 -16.5t-11.5 -14.5t-6.5 -6q-1 -1 -3 -5q0 -1 -0.5 -2t-0.5 -2q-7 -11 -12 -28t-8.5 -32.5t-5 -27t-1.5 -12.5q0 -2 1 -4l2 -4q1 -1 0 -4t-3.5 -4.5t-6.5 -1t-10 6.5
q-5 5 -12.5 14t-9.5 12q-1 1 -0.5 3t0.5 4v4v4.5t1 8.5l2 12q-15 -9 -33 -19.5t-35 -19t-30 -14.5t-18 -6q-3 0 -5 1.5t-4 3.5l-4 4q-6 8 -10 15q-4 6 -7.5 10.5t-5.5 6.5t-1.5 4t1.5 3q0 1 2 1q15 3 34.5 12.5t40 20.5t40.5 23.5t34.5 22.5t23 15.5t6.5 4.5z" />
    <glyph glyph-name="underscore" unicode="_" horiz-adv-x="336" 
d="M31 12q-3 -3 -8 -1q-3 1 -4 3v1l-1 1q0 3 -3 8.5t-3 8.5l-13 39q-1 5 4 8q2 2 4 3t5 1h38t108 -1h99q3 0 6.5 3t5.5 5h3h1v-5q0 -2 3 -11.5t5 -13.5q1 -1 0.5 -2.5t-0.5 -2.5q0 -3 2 -6.5t2 -8.5q0 -3 1.5 -6t1.5 -6l3 -5q0 -4 -4 -4q-2 -1 -4 0h-13q-27 2 -57.5 3.5
t-60 2t-55 0t-43 -2t-24.5 -4.5t1 -7z" />
    <glyph glyph-name="grave" unicode="`" horiz-adv-x="356" 
d="M379 417q-2 -2 -7 -5.5t-8 -1.5h-1q-3 0 -18.5 2.5t-37.5 8t-46.5 15t-46.5 24.5t-38 35.5t-19 47.5v2q0 1 1 2v2l-2 6l-1 1q-2 1 -2 3h2h2q1 -1 3 -1t3 -0.5t3 -0.5t4.5 -1t3.5 -1q5 -2 9.5 -3.5t10.5 -4.5q1 0 4.5 -1.5t5.5 -2.5q9 -4 17 -10q4 -3 6 -5t4.5 -3.5
t4.5 -3.5l2 -1l8 -11q1 -2 0 -4l-2 -4h-1q-2 1 -7.5 3.5t-12 5t-13 4.5t-10.5 2q2 -2 2.5 -3.5t4.5 -3.5q3 -2 9.5 -6t21.5 -10t40 -12t65 -12h2l2 2h2q4 0 6 1q2 0 3 1q3 -3 9.5 -15.5t6.5 -19.5v-2l4 -6v-2q0 -2 0.5 -3t0.5 -3v-3q0 -1 1 -1q0 -1 -1 -1z" />
    <glyph glyph-name="a" unicode="a" horiz-adv-x="215" 
d="M418 379q0 -3 -5 -5q-8 -5 -12.5 -7.5t-6.5 -4.5q-3 -2 -4 -2q-6 -3 -16.5 -12t-24 -21.5t-28.5 -28.5t-29 -32q-14 -15 -25 -29t-19 -25q-9 -12 -15 -23q1 -12 3 -21q2 -8 3 -14.5t1 -8.5q1 -5 3 -6l2 -2q-3 0 -5 1q-2 0 -3 1l-27 15q-7 -9 -20 -34t-25 -53t-21 -51.5
t-9 -29.5l-3 -7q2 -5 -6 -9h-4h-3q-2 1 -4 1q-4 0 -6 1q-19 3 -28.5 14.5t-14 28t-6 34.5t-4.5 34q-5 75 2.5 114.5t19 57t23.5 20t15 2.5q22 2 43 -7t33 -24q0 -1 1 -1t2 1q14 19 26 32.5t20 21.5q10 10 17 16q-25 -8 -42 -11.5t-28 -5.5q-21 -4 -33.5 -5t-19.5 -0.5
t-10 3.5t-6 8q-1 2 5.5 14t16.5 31q5 9 12 9q3 0 7 -1q2 -1 5 -1h5l36 3v-3q0 -4 -2 -6l-8 -5q-1 -1 -2 -1q-1 -1 -1 -2t-0.5 -2t0.5 -3h6q7 0 9 1q9 2 31.5 9t47.5 15t47 16t31 13q8 4 17 7q5 2 11 3l11 -10q2 -2 5.5 -5t3.5 -5zM175 220q0 11 -7 18q-2 1 -5 3q-5 3 -9 3
q-6 -2 -14 -15.5t-16 -36t-14.5 -53t-9.5 -64.5q-1 -5 -1.5 -16t-0.5 -13q3 7 7.5 23t13 38.5t22 50.5t34.5 60v2z" />
    <glyph glyph-name="b" unicode="b" horiz-adv-x="254" 
d="M492 734q4 2 4 -3.5t-2 -10.5q-3 -3 -7 -3l-3 -1l-4 -2q-2 -1 -12 -10.5t-32.5 -39.5t-59 -88t-90.5 -157q-11 -19 -18.5 -33.5t-12.5 -21.5q2 0 5.5 0.5t6.5 -1.5q6 -2 24 -11.5t32 -26.5q12 -14 4.5 -43t-24.5 -62t-38.5 -65.5t-37.5 -53.5q-18 -21 -42 -45.5t-53 -42
t-61 -22.5t-65 15q-14 8 -19.5 18t-7 19.5t-0.5 17t1 10.5q0 7 5 19t14 24.5t21 25t26 20.5q11 15 24.5 33.5t24.5 35.5q13 19 27 39q11 20 18.5 33t13.5 22t11 15t10 13q52 91 86.5 150.5t58 98.5t38.5 63.5t29 45.5q5 7 9 12t8 8.5t9 5.5q2 0 7.5 4.5t7.5 4.5t11.5 -1.5
t20.5 -3.5t20.5 -3.5t11.5 -1.5zM274 333q-19 -4 -33 -16t-17 -15q-7 -8 -14 -16.5t-17.5 -24.5t-27.5 -43t-44 -70q4 -2 8 -2.5t6 -2.5q5 -3 0 -5q-7 -4 -14 -7.5t-14 -8.5q-7 -16 -16 -29q-23 -30 -36 -37.5t-15 -6.5t-3.5 4.5t-6.5 5.5l-1 1q-2 2 -2 3q-14 -17 -10 -24
q9 -12 18.5 -11.5t17.5 2.5q5 2 7 3.5t7 4.5q10 8 37 32.5t60 65.5q34 40 56 74.5t34.5 60t18 41t5.5 17.5q1 5 -1 5q-1 0 -3 -1z" />
    <glyph glyph-name="c" unicode="c" horiz-adv-x="239" 
d="M401 362q0 -6 -3 -7l-10 -2q-4 -1 -5 -1.5t-3 -2.5q-6 -4 -21.5 -18t-33.5 -36q-9 -11 -17.5 -22t-19.5 -24q-18 -20 -33 -41t-26 -38q-13 -20 -24 -39v-2q0 -3 -4 -3t-5 1l-4 2l-10 4q-7 4 -12 10t-5 8t-5.5 6t-8.5 8q-3 2 -3 6v2q1 1 3 2q3 3 4 5q9 12 23.5 34
t28.5 43.5t23.5 38t8.5 17.5q-16 -11 -34 -30q-16 -17 -37 -43.5t-44 -64.5q-20 -32 -30.5 -59t-15 -46.5t-5.5 -30.5t-1 -12q0 -3 1 -3h1q21 4 38.5 16t31 25.5t23.5 25.5t15 16q2 1 1.5 1t0.5 1q-1 0 1 2.5t3 2.5h1q6 -2 18 -12.5t19 -15.5l15 -15q0 -3 -4 -7l-4 -3
q-15 -20 -35.5 -35t-42 -24t-42 -10t-36.5 8q-7 3 -15 8q-15 8 -29 24q-8 7 -11.5 14.5t-5.5 14.5q-2 8 -1 15q4 25 15 54q9 25 25 58t42 71q29 40 52.5 64t40.5 36.5t27.5 16.5t14.5 5q9 1 16 -3l8 -6l10 -8q0 -2 8 -8q4 -3 9 -6l3 -3q14 15 29 33t30 28q1 1 4 0q1 1 2 1
t3 -3q0 -4 6.5 -7t8.5 -5t5 -6t5 -4q3 0 7 -7q2 -2 4 -1.5t4 -1.5q0 -3 3 -4q2 -2 4 -3v-5z" />
    <glyph glyph-name="d" unicode="d" horiz-adv-x="237" 
d="M530 673q-11 -47 -33 -96t-49 -95.5t-54.5 -88t-48.5 -73.5q-7 -11 -23 -35.5t-35 -55t-38.5 -63t-32.5 -57.5q-18 -34 -30.5 -64t-20.5 -53q-9 -27 -14 -50q-7 2 -12 3t-7 3l-5 5l-9 6l-4 4q-1 1 -9 7q-2 2 -7.5 5t-4.5 5q0 2 1 4l2 4l2 6q3 5 3 6.5t2 6.5
q0 1 -9.5 -1.5t-19.5 -2.5q-5 0 -9.5 1t-9.5 3t-8.5 5.5t-3.5 4.5q-1 0 -5 5t-8.5 11.5t-8.5 12.5t-5 9q-2 6 -2 10v5q9 50 28 91.5t42 75t48 58t45.5 42t34 27.5t14.5 14q2 5 6 5q2 0 5 -1l3 -6q2 0 2 -1t1 -2q0 -2 1 -3l10 -18q4 -7 7.5 -14t5.5 -9q2 -4 4 -2q1 1 1 2
q46 68 77.5 117t51 83t30 55.5t15.5 34t7.5 19.5t5.5 12q3 3 6.5 12t6.5 19.5t5 19t2 10.5q0 11 -1 20t-1 10q0 3 5 0l7 -10q2 -2 4 -3q3 -3 8 -3q4 -2 7 -6t3 -8q0 -2 1.5 -2.5t2.5 -1.5l4 -2q8 -7 10 -20q1 -6 1 -12zM124 77q23 50 48.5 98.5t61.5 102.5q4 5 7.5 11
t8.5 11q1 1 -8 -1.5t-11 -4.5q-34 -28 -65 -64q-26 -31 -52.5 -75t-40.5 -98q-2 -3 -2.5 -7.5t1.5 -5.5q3 -1 9.5 2t14.5 7.5t15.5 11t12.5 12.5z" />
    <glyph glyph-name="e" unicode="e" horiz-adv-x="210" 
d="M165 133l8.5 -8.5t13 -14.5t11.5 -15t5 -8q-1 -6 2 -5.5t-2 -5.5q-1 -1 -7 -9.5t-16.5 -19.5t-25 -22.5t-32 -18.5t-37.5 -6.5t-41 12.5q-13 10 -22 22q-8 11 -12 25.5t2 32.5q5 19 9.5 33t8.5 24q4 11 9 19l-10 14v2q0 1 3 1q1 0 3 -0.5t5 -0.5q3 -1 7 -1q36 58 70 104
q15 19 30.5 38t30.5 33t29 23t25 9q14 -2 21.5 -8t12.5 -11q3 -5 3.5 -5.5t5.5 -3.5q3 -3 8.5 -7.5t10.5 -10.5t8.5 -12.5t3.5 -13.5q-1 -11 -6.5 -37.5t-27 -56.5t-64.5 -56.5t-119 -38.5q-9 -15 -16 -30q-6 -13 -10.5 -28.5t-2.5 -29.5q20 -3 45.5 16t44.5 57q0 1 1 3t1 5
v18q-2 3 3 1q2 -1 3 -2q1 -2 2 -3q3 -3 5 -3zM261 344q-13 -7 -32 -25q-17 -16 -42 -45t-61 -79q32 13 59 34q23 18 45.5 46t30.5 69z" />
    <glyph glyph-name="f" unicode="f" horiz-adv-x="148" 
d="M415 728q3 25 9.5 39.5t14 23t13.5 12t7 6.5q0 4 -1 5t-1 2q3 3 4.5 3t5.5 -2l55 -26l-1 -4l-1 -3q1 -18 -6 -36.5t-16.5 -33t-17.5 -24t-9 -10.5q-3 -2 -1 -4q1 -2 2 -3q20 -22 31 -48.5t9 -68.5q-3 -18 -9 -29.5t-11.5 -17.5t-10 -8.5t-5.5 -2.5h-2q-2 0 -3.5 -1
t-3.5 -2t-3 -2q-2 -2 -1 -5h-5l-13 5q-4 1 -7 4l-2 2q-4 1 -7.5 2t-3.5 5q-7 3 -13 6q-5 2 -9.5 4.5t-6.5 2.5q-2 3 -1.5 3.5t0.5 2.5l2 4q11 6 17 7.5t10.5 3t9.5 6t15 17.5q11 15 12 30.5t-2.5 28t-8.5 20t-5 6.5q-32 -37 -57 -72t-42 -62q-20 -33 -35 -61l2 -3q1 0 4 1
q2 1 4.5 1t4.5 1q5 1 12 3q44 9 66 12.5t31 4.5t9.5 0.5t1.5 0.5q2 2 5 -1q1 -2 1 -3q9 -2 17 -8q4 -4 9 -7q10 -9 20.5 -16.5t21.5 -14.5q-4 -2 -9.5 -2.5t-7.5 -0.5q-6 2 -7 2h-2q-25 0 -54 -3.5t-58.5 -8.5t-56 -10.5t-46.5 -9.5q-10 -12 -30.5 -43.5t-44.5 -72
t-49.5 -85t-46 -81.5t-34 -61.5t-13.5 -25.5q1 -3 -3.5 -7.5t-1.5 -2.5q4 2 12.5 9t12.5 6q1 2 3.5 4t4.5 4q3 2 6 3q0 1 1 2t3 1q5 2 8 7t7 4q1 -2 4 1l2 2l-13 -16q-17 -23 -31.5 -40.5t-14.5 -19.5q0 -1 -3.5 -0.5t-8.5 4.5q-11 5 -31.5 9t-28.5 11q0 6 9 26.5t23.5 49
t33 62.5t37.5 68.5t37 66t31 54.5q-11 -2 -24.5 -4t-25.5 -3.5t-20.5 -2.5t-9.5 -2q-5 -2 -8 0l-4 2q-3 5 -6 9t-6 7.5t-5 5.5q-3 3 -1 8q1 2 2 3q21 17 50 31.5t55 25.5t45 17.5l19 6.5zM186 375q-29 -8 -44.5 -16t-17.5 -9q5 -2 4 -3.5t4 -2.5l2 -1v-1q2 0 12 -0.5
t19 -1.5q5 8 8.5 14t6.5 11q4 5 6 10z" />
    <glyph glyph-name="g" unicode="g" horiz-adv-x="312" 
d="M565 -116q0 -5 1 -4.5t1 -4.5q0 -4 -3 -4q-2 -1 -3 0h-59q-80 -4 -133 -7t-95 -6.5t-80.5 -9.5t-89.5 -15q-15 -17 -34.5 -38.5t-40.5 -44t-42 -44t-39 -38.5q-69 -64 -127 -102.5t-104 -60t-81 -29.5t-58 -10q-35 -6 -72.5 3.5t-67.5 32t-49.5 56t-18.5 73.5q1 51 21 91
t49.5 70.5t64.5 51.5t65 34.5t51 20t23 7.5q123 38 241.5 50.5t237.5 10.5q30 37 57 78.5t47 76.5q24 41 44 82q-3 0 -21 -14.5t-44 -37t-56 -48.5t-56 -48.5t-44 -38.5t-21 -17q-4 -5 -8.5 -4.5t-8.5 2.5q-4 3 -9 8q-7 7 -11 13q-4 5 -7 9.5t-3 6.5q-3 2 -3 6.5t2 8.5l4 10
q38 64 74 115t65.5 88.5t51 61.5t31.5 36q20 23 36 27t29 4q10 0 18 -6.5t14 -15.5t10.5 -18.5t7.5 -15.5h5l4 3.5t10 8.5t11.5 10t7.5 7q5 5 7 5h3l9 1l22 -47l10 -13q-1 -2 -2 -5q-2 -5 -7 -8q-3 -2 -5 -7q-1 -3 -2 -5q-35 -61 -57 -98.5t-41.5 -68.5t-41.5 -65.5
t-58 -89.5q155 -11 229.5 -22.5t81.5 -11.5q8 -2 14 -3q5 -1 10.5 -1.5t7.5 -0.5q3 0 7 -2q2 -1 3 -2q3 -2 6 -5l4.5 -4.5l4.5 -4.5q5 -4 2.5 -11.5t-2.5 -11.5zM92 -76q-38 0 -77.5 -2.5t-73.5 -6.5t-58.5 -7.5t-33.5 -6.5q-80 -14 -152 -36q-31 -9 -63 -21t-61.5 -26.5
t-54.5 -32t-42 -37.5q-22 -24 -38 -54t-22.5 -61t-1 -59.5t26.5 -48.5q21 -15 68 -14.5t106 18t123.5 53t121.5 90.5q16 13 35.5 30.5t39.5 38t40.5 42t38.5 41.5q-62 -11 -112 -20.5t-85 -17.5q-41 -9 -73 -17q-22 -5 -25 -5q-4 0 -10.5 -5t-11.5 0q-5 3 -8 12.5t-3 12.5
q-2 6 -2 9q-1 2 -1 4q-1 2 0 4q0 4 5 4t6 1q1 0 2 1q80 23 174 42.5t185 30.5zM115 153l-7 -9q47 40 86 73q33 29 63.5 55t40.5 36l-2 9v2q0 2 -3 2q-2 0 -5.5 4.5t-14.5 1.5q-3 -1 -17.5 -13.5t-32.5 -32.5zM173 -77q-7 -8 -13.5 -15.5t-14.5 -15.5q40 5 74.5 8.5t60.5 5.5
q30 3 54 4q-39 7 -77.5 9.5t-83.5 3.5zM-333 -202q3 -10 7 -19q3 -8 5.5 -14t2.5 -8l2 -5l-17 -7q-11 3 -19.5 18t-10.5 25q5 3 12 6t14 4h4zM-379 -218q2 -1 7.5 -8.5t18.5 -33.5l-14 -6q-13 0 -21 13t-13 25q0 3 11 7q4 2 11 3z" />
    <glyph glyph-name="h" unicode="h" horiz-adv-x="253" 
d="M-42 -31q-2 3 -4 3t-2 2q0 3 3 11.5t8 17.5q4 11 11 23q53 108 116 217t123 207t110 180t77 135q2 2 3 3.5t6 3.5l64 -46q0 -2 -0.5 -4.5t-2.5 -7.5l-6 -16q-2 -6 -4.5 -11.5t-4.5 -7.5q0 -3 -3 0t-6 -4q-6 -7 -11 -16.5t-9.5 -18.5t-8.5 -15t-6 -6q4 7 3.5 7t2.5 10
l2 12q0 2 -0.5 3t-0.5 3t1.5 4.5t1.5 4.5t-0.5 2t-0.5 1q-1 0 -1 1q-41 -66 -87.5 -142.5t-88.5 -146.5t-75 -124.5t-46 -76.5q38 39 71 73q14 14 28.5 29t27.5 28l24 24t18 17q6 6 7.5 7t5.5 7q5 7 10.5 14.5t9.5 9.5q2 2 2.5 1t2.5 -2q1 -2 3 -3l14 -18l20 -23l-6 -12
q-7 -12 -14 -23q-6 -11 -14.5 -23t-16.5 -23q-6 -8 -17.5 -29t-24.5 -48t-26.5 -56.5t-24 -54.5t-16.5 -42t-4 -19q2 -1 -1 -10t-5 -14q-2 -7 -2.5 -8t-0.5 -6q0 -10 -5 -10q-3 0 -5 2q-9 11 -17 21q-7 8 -13 15.5t-8 9.5q-5 5 -6 11t1 9t2 4.5t4 3.5q6 15 11 28.5t11 29
t14.5 34t21.5 43.5q-33 -24 -61.5 -54t-50.5 -56.5t-35.5 -45t-14.5 -19.5q-2 -3 -6.5 -10t-10 -15.5t-9.5 -16t-4 -11.5q0 -3 -4 1t-6 4h-2q-3 0 -4 1q-2 2 -3 2h-6q-4 1 -8.5 4t-9.5 5q-5 3 -11 6z" />
    <glyph glyph-name="i" unicode="i" horiz-adv-x="116" 
d="M184 391q0 2 1 2t2 1q1 0 2 1l5 -7q11 -3 11.5 -5t7.5 -4l5 -2q4 -3 8.5 -6.5t8.5 -6.5q4 -4 9 -8l-1 -7q-4 -7 -5 -8q-2 -2 -3 -2q-49 -69 -79 -117.5t-47 -80.5q-20 -37 -29 -60l10 -7q5 -3 -3.5 -14t-20.5 -25q-8 -9 -18 -23l-10 -14q0 -2 -1 -4q-2 -4 -2 -7
q-2 -5 -12 -1l-10 5l-25 18q-3 1 -7 6t0 10l2 4q16 43 41 90t52.5 94.5t55.5 93zM163 514q0 2 -3 8.5t-8 14.5q-5 9 -11 20q2 5 2.5 3.5t8.5 -3.5q5 -2 13.5 -5t25.5 -5q8 -2 16 -2h14h13l30 34l3 7q0 3 4 10.5t9 15.5t10 15t7 10q2 5 1 6.5t1 3.5t4 -0.5t4 -5.5
q0 -1 3.5 -5t8 -10t8.5 -13t7 -14q2 -5 -2.5 -14t-11.5 -18q-8 -11 -18 -23q1 0 9.5 1t17.5 2t17 2.5t10 1.5q4 1 9 -1.5t7 -5.5l1.5 -4t3 -8.5l3 -9t1.5 -7.5l-7 -11l-86 -10q-7 -17 -8.5 -35.5t-1 -34.5t2.5 -27t2 -12q-2 -2 -5.5 -0.5t-6.5 8.5q-12 13 -17 28t-7 29
q-2 16 1 31q-3 -5 -10.5 -11t-15.5 -13l-20 -16q-6 -6 -12 -10q-5 -4 -10.5 -7.5t-9.5 -5.5q-1 -1 -5 1.5t-8 6t-7.5 7.5t-4.5 6q1 2 -1.5 5t-3.5 11q-2 9 0.5 11t5.5 0q3 0 4 1q1 0 2 1q-1 -2 5 2t14 10t15.5 12.5t9.5 9.5h-5q-3 0 -13 2q-5 0 -10 5q-3 2 -5 5z" />
    <glyph glyph-name="j" unicode="j" horiz-adv-x="136" 
d="M112 235q-1 1 -3.5 0.5t-4.5 -1.5t-2.5 -0.5t2.5 4.5q20 32 35 57.5t28 49.5q13 23 24 42t16 15q6 -5 13 -9t13 -8q7 -4 13 -8l5 -5q6 -6 6 -8q0 -1 -0.5 -3t-6.5 -13.5t-20.5 -37t-42.5 -72.5t-72 -120t-109 -180q38 -25 66 -59.5t42 -84.5q0 1 7 12t15 28.5t14.5 39.5
t6.5 45.5t-9 46t-32 41.5q-8 5 -16 9.5t-6 3.5q1 1 4.5 1h7.5t9 -1q5 0 21.5 -7.5t30.5 -17.5q6 -4 16.5 -15.5t19 -29t11 -40.5t-6.5 -51q-10 -29 -17 -46t-12.5 -29t-10 -21t-9.5 -21q-10 -23 -22 -42t-11 -23q0 -3 -2.5 -8.5t-5.5 -5.5q-2 -1 -8.5 4t-14.5 10
q-9 6 -19 15q-1 1 -1 4q-1 3 -1 14q0 6 -1 28t-8 52.5t-22.5 65.5t-43.5 67q-71 -112 -127.5 -190t-102.5 -129t-82 -79t-64.5 -41t-51 -14.5t-41.5 1.5q-3 0 -12 1.5t-19.5 5t-21.5 9t-18 12.5q-46 43 -45 101q1 42 24.5 92t65.5 99.5t100 94t128 74.5q61 24 116 23.5
t104 -17.5q34 54 76.5 125.5t84.5 143.5zM-418 -210q-34 -37 -56.5 -68.5t-36 -57t-20 -46.5t-7.5 -37q-4 -38 16 -62q7 -10 18 -18.5t28 -7.5q5 1 17 1.5t32.5 10t51.5 34.5t75 75t103 130.5t136 201.5q-26 4 -63.5 1.5t-83 -18t-99 -48.5t-111.5 -91zM246 554q6 7 15 20.5
t17.5 27.5t14.5 27t5 20q0 3 5 2l4 1l6 -8q2 -8 8 -8q0 -3 4 -4t3 -7l1.5 -6t5.5 -1h8q-1 -8 -5 -18q-3 -8 -7.5 -18t-10.5 -19l-3 -3q4 1 12.5 2.5t18 4t17.5 4.5t10 4q0 3 7 3q3 0 6 -1l3 -15q2 -1 4 -3q4 -4 4 -8q0 -5 1 -7q0 -2 1 -4q-1 -1 -6.5 -5t-18.5 -8.5t-33.5 -9
t-51.5 -5.5q-3 -11 -4 -27q-1 -14 0 -33t7 -43q0 -2 -1 -4t-3 -3l-3 1l-15 15q-6 6 -11 11.5t-5 9.5l-4 18q-2 7 -3 13.5t0 9.5l-24 -24q-9 -10 -17.5 -19t-11.5 -11q-12 -8 -20 -10t-18 7l-3 3q-4 5 -8 9q-3 4 -6 6.5t-4 4.5q-4 3 -4 5q0 3 4.5 4t8.5 2q3 3 6.5 3.5t10 4.5
t17.5 14t31 32q-11 1 -20 4q-8 2 -15.5 4.5t-10.5 6.5q-8 10 -7.5 12t-2.5 4q-6 13 -11 18q-3 2 0 4q2 1 4 1q22 2 33 1t16 0l-2 -4l-4 -2q7 -3 2.5 -2t-4.5 -1q2 0 2.5 -1t0.5 -1.5t1.5 -1t6.5 -0.5h33q7 0 13 1z" />
    <glyph glyph-name="k" unicode="k" horiz-adv-x="337" 
d="M237 327q13 6 30.5 18t34 23.5t28 20.5t13.5 9q6 2 8 1t2 -2l12 -16q5 -7 11 -13.5t11 -11.5q3 -5 3.5 -8t0.5 -5q-1 -3 -2 -4q-5 6 -8 7.5t-5 1t-4 -1.5t-4 0q-4 0 -5 -1l-2 -2q-2 -1 -20 -12t-39.5 -24t-39.5 -24t-20 -12t-10 -5.5t-17 -9.5q-11 -6 -23 -13l-5 -8
q81 30 132 52.5t80 37.5q33 18 50 31l8 8h3q0 -1 1 -2q2 -2 2 -4q2 0 2 -2v-1l10 -22q4 -8 7 -14.5t5 -6.5q0 -3 1 -4l2 -2l-1 -6l-7 -3q-99 -71 -152.5 -124.5t-77.5 -90t-26 -57t1 -23.5q4 -4 9 -8.5t10 -7.5q4 -3 8.5 -4.5t1.5 -12.5q-8 2 -22 7l-28 10q-14 3 -28 11
t-19 19q-6 14 0 34.5t19.5 42.5t31 44.5t35 41.5t32.5 32t23 17q-22 -10 -60.5 -23.5t-90.5 -29.5l-2 -4q-1 -2 -4 -5q-8 -11 -19.5 -30.5t-24 -42t-24.5 -45t-21 -39.5t-13.5 -25t-1.5 -2l-8 -17l-4 3l-8 8l-13 13l-18 16q-1 0 -1 4q0 1 1 2v5q2 1 5.5 11.5t7.5 16.5
q4 7 16.5 31t26.5 50t25 46.5t12 22.5q-5 0 -5 3q-1 1 0 3l-2 3l-2 2l-12 14l-7 6q-2 2 0 4q1 1 3 2l6 2q4 4 16 11.5t26 15.5q16 9 34 18q8 12 25 40t40 65.5t49 80.5t51 84.5t47 78.5t36 62l-14 -5q-2 -1 -3 0t-3 -1q-7 -4 -11 -5.5t-3 -0.5q2 4 11 11.5t19 16t18.5 15.5
t9.5 9q-1 1 0 3q0 1 4 5q0 1 2 1q1 0 1 -1l4 -2q13 -10 24 -18q9 -7 17.5 -13t10.5 -7q4 -2 0.5 -6t-4.5 -3q-6 -6 -21.5 -28.5t-37 -55.5t-46.5 -72t-49 -77.5t-44.5 -72t-33.5 -55.5z" />
    <glyph glyph-name="l" unicode="l" horiz-adv-x="124" 
d="M407 641l3 -3q3 -3 3 -6l-3.5 -10.5t-3.5 -4.5t-3 -3t-2 -5l-2 -7.5t-3.5 -16.5t-3.5 -17t-2 -9v-2v-2q-2 -5 0 -7q-2 0 -6 1t-6 6q-1 1 -1.5 3.5t-2.5 4.5q-2 3 -4 5q-51 -81 -102 -165q-22 -36 -46 -76.5t-48.5 -83t-48.5 -85.5t-46 -83q2 -1 4 0q1 0 7 4q4 4 14 12
t21 16t20.5 15.5t14.5 12.5q12 11 2 -1l-7 -7q-9 -9 -8 -9l7 5q2 1 2.5 2t2.5 3t3.5 2t3.5 2t5 4.5t5 4.5l4 2q3 3 5 4t3 2q0 -1 -6 -8.5t-11 -12.5l-123 -127l-6 -7l-5 -6q-3 -4 -8.5 -8t-11.5 -2q-5 2 -10.5 6.5t-11 9.5t-8.5 8.5l-3 3.5l-2 2q-1 1 -2 1t-2 1q-2 1 -3 2
t-2 1h-1q-1 1 -2 1.5t1 3.5l3 6q17 30 34 58q14 24 28 48.5t22 39.5q5 10 21.5 39t38.5 67t46 79.5t45 77.5t35.5 60t16.5 27q17 23 37.5 60t52.5 81q2 2 2 4t2 4q1 1 1.5 1t1.5 1q1 0 2 1l6 -6q2 -2 3.5 -1t2.5 0z" />
    <glyph glyph-name="m" unicode="m" horiz-adv-x="357" 
d="M222 -10q-5 0 -3 7q0 3 2 6l3 10q6 22 20.5 53t29.5 60q18 33 38 68q-22 -20 -43 -43t-38 -43t-28 -35t-14 -19q-5 -6 -8.5 -10.5t-5.5 -8.5q-3 -4 -4 -7q-2 -6 -1 -9q-2 -4 -3 -4t-6 3l-24 13l-4 2q-4 2 -6 2q-4 2 -6 7t0 7l5 9q8 23 24 53.5t33 59.5q18 33 40 68
q-3 -1 -16 -13t-30.5 -29.5t-37 -38t-35.5 -38.5q-18 -23 -32 -45t-24 -39q-11 -20 -19 -38q-3 -4 -5 -4l-7 3q-1 0 -2 1t-2 1.5t-2 2.5q-2 2 -14.5 8t-17.5 9q-5 0 -5 5q-1 2 0 5l4 6q2 2 4 5q12 16 27 41.5l30 51t27 46.5t17 29q5 7 18 30t26.5 47t24.5 43.5t12 21.5l6 10
l3 6q2 4 2 6v3q-3 7 -5 13q-2 5 -3.5 9t0.5 5q1 0 5.5 -2.5t9.5 -4.5q5 -4 12 -7l26 -16l15 -9q2 -2 0.5 -4t-3.5 -2q1 -1 -2 -10l-2 -5t-4 -10.5l-4 -11t-3 -6.5v-4q0 -1 -1 0l-6 3h-1l-1 -1l-19 -33q17 15 35.5 29.5t33.5 25.5q18 13 34 25q1 1 3 1q3 0 3 -1q4 0 7.5 -2.5
t5.5 -4.5q1 -1 7 -9l6 -8l3 -4q2 -2 2.5 -2t2.5 -1q1 -1 2 -3t-2 -3q-2 0 -9.5 -12.5t-17 -28.5t-17.5 -30t-10 -18q1 1 12.5 12t28 27t36 34t38 34t33.5 27t22 13l3 1q0 5 3 2q1 -1 3 -2l14 -9l5 -4q2 -2 5 -4q6 -4 7 -5t7 -3q3 -1 5 -2l1 -3l-10 -6q-6 -4 -8.5 -7.5
t-4.5 -4.5q-2 0 -4 -4q-2 -2 -3 -5q-30 -30 -61 -77.5t-58 -98.5t-47.5 -100t-28.5 -83v-7q0 -2 1 -3q-2 -6 -4 -4.5t-4 1.5l-44 35q0 3 -2 3h-1z" />
    <glyph glyph-name="n" unicode="n" horiz-adv-x="234" 
d="M-37 8q-3 6 4 20.5t17.5 31t21.5 31.5t16 23q28 44 49.5 77t37 58t26 43.5t18.5 33.5q2 3 4.5 8t2.5 12q-2 2 0 4q0 1 1 1h3l10 -4t10.5 -3.5t10.5 -2.5q3 -1 15 -3.5t18 -6.5t-1 -7q-2 -1 -5.5 -5.5t-11 -16t-20 -32t-32.5 -53.5q6 5 23 25t36 44t36 46t24 31q3 5 3 4.5
t0 1.5t5 7q0 4 4 5.5t8 6.5q0 5 1 7t6 4h5q1 0 2 -1l49 -24q1 -1 1 -2q0 -3 -1 -5q0 -1 -6 -9q-3 -4 -6 -7q-4 -8 -16 -24t-28 -41t-33.5 -59.5t-32.5 -77.5q-10 -29 -14.5 -50.5t-6 -36t-1 -22t0.5 -8.5q0 -3 1 -6t-1 -8q-1 -2 1.5 -5.5t2.5 -5.5q0 -3 3 -7q1 -3 3 -5h-10
q-2 0 -7 2t-11 4.5t-11.5 4.5t-7.5 2t-5 1q-5 0 -7 2q-3 3 -5.5 6.5t-4.5 3.5t-4 2q-3 3 -2 18q4 39 10 67t12 47t11 29l6 12q-13 -9 -36.5 -37.5t-47.5 -58.5q-28 -36 -60 -78q-11 -14 -11 -22q0 -2 -1 -2.5t-1 -2.5q-1 -2 1 -5q1 -2 1 -3q-1 0 -4 -1q-7 -2 -10 -1
q-2 0 -9.5 3t-16.5 6t-17.5 5.5t-10.5 2.5q-2 1 -2.5 2t-1.5 2t-1 2z" />
    <glyph glyph-name="o" unicode="o" horiz-adv-x="215" 
d="M293 294q0 -1 0.5 -9t-2 -21.5t-9.5 -32t-21 -40.5q-38 -59 -69 -94t-55 -54.5t-40.5 -26t-23.5 -7.5q-2 0 -4.5 -1t-6.5 -1q-5 -1 -11 1.5t-11 4.5l-12 6q-3 1 -6 4l-5 5t-5 8q-11 14 -13 27.5t0 24.5q2 12 7 23q23 43 53.5 91.5t58.5 90.5q33 48 67 95q5 0 8.5 -1.5
t6.5 -3.5l4 -2q4 -2 7 -4q1 -1 1.5 -0.5t3.5 -1.5q4 1 13.5 -6.5t19 -16.5t16.5 -16.5t6 -7.5q8 -8 12.5 -14t6.5 -11q3 -5 3 -9zM61 63q51 40 86 83.5t55.5 79t27.5 58.5t3 22q-7 3 -21.5 -11.5t-33 -38t-39 -52.5t-38 -55.5t-30 -47t-16.5 -27.5q-6 -11 -6 -14t3 -2t9 5z
" />
    <glyph glyph-name="p" unicode="p" horiz-adv-x="252" 
d="M377 371v-5v-3q0 -2 -2.5 -5t-4.5 -7q-4 -4 -7 -9q-16 -17 -33 -48t-33 -63.5t-28.5 -61.5t-18.5 -42q-6 -12 -14 -29t-17 -34t-19 -32.5t-20 -24.5q-11 -9 -23 -11t-22 0q-11 2 -23 7q-8 4 -21.5 12t-20.5 17q-5 -7 -24 -39.5t-45 -77t-54.5 -94.5t-52 -91t-37.5 -67
t-11 -22q1 -1 4.5 0.5t5.5 1.5q3 0 5 2q1 1 2 0.5t5 0.5t6.5 2t4.5 0q-9 -7 -16.5 -13.5t-15.5 -13.5q-4 -4 -7.5 -5.5t-5.5 -6.5q-5 -5 -7 -4q-3 4 -14.5 8.5t-23.5 10t-20.5 12t-5.5 14.5q15 20 39 58t52 84t57 94.5t53 90t41 71.5t21 38q-3 5 -4.5 12t-1.5 14q-1 8 0 16
l2 2q2 0 3 -3q1 -2 2.5 -7.5t6.5 -10.5q0 -7 2 -7q1 0 2 1l79 142q-3 1 -6 3q-5 3 -9 3q-2 -1 -7.5 0.5t-10.5 4t-9 5t-4 4.5q0 -2 12 2t26 10t26 12t14 9q1 2 8 13.5t15.5 26t15.5 30t10 26.5q2 4 0 4.5t-1 3.5q2 1 8 -1q3 -1 5 -3l5 -4q10 -8 16.5 -14t13.5 -13q1 -1 1 -5
v-3l-9 -20l18 9t23 12q13 7 28 16l18 27q2 2 3 3.5t5 3.5v-4q0 -4 3 -4q1 -1 3 -2t2.5 -1.5t2.5 -1.5l2 -1l6 -6q5 -5 8.5 -7t9.5 -8q1 -1 3 -1t4 -1zM90 41q16 -5 32 8t31 36.5t29.5 52.5t27.5 57.5t23.5 51.5t18.5 33q-2 0 -7 -1.5t-11 -4.5t-11.5 -5.5t-7.5 -3.5
q-2 -2 -3.5 -3t-3.5 -2t-3 -2q-2 -2 -8 -11.5t-15 -24.5t-20 -34l-22 -38q-26 -45 -59 -101z" />
    <glyph glyph-name="q" unicode="q" horiz-adv-x="308" 
d="M452 -55q2 -1 7 -8t9.5 -16t6.5 -19t-2 -16q-9 -15 -43 -41t-79 -55t-92.5 -58t-82.5 -48q-26 -14 -49 -28.5t-40 -26.5q-20 -14 -37 -27q-48 -34 -93 -68q-38 -29 -78.5 -62.5t-65.5 -61.5q-12 -15 -23 -27q-9 -11 -16.5 -21t-6.5 -14q-4 -1 -4.5 -3t-4.5 -7
q-2 -2 -4.5 -5t-5.5 -6l-7 -7l-5 5q-1 4 -6.5 7.5t-10.5 5.5q0 3 -3 6l-2 2q-4 0 -7 7l-4 8h-5l-5 3v4q4 5 57.5 89t165.5 252q52 78 104.5 154t96.5 137.5t74 101.5t37 48q-11 -9 -35.5 -30t-50.5 -44t-48.5 -41.5t-28.5 -22.5q-10 -10 -18 -16q-7 -5 -13.5 -9t-8.5 0
q-5 3 -11.5 10.5t-13.5 15.5q-8 9 -16 19q-2 1 -3 4q-3 5 1 11q1 2 15 23.5t37 53t53 70t62.5 76t65.5 70t63 52.5q4 2 8 2q10 0 21 -10q12 -9 14 -10l2 -1l3 -3q3 -4 8 -5q1 -3 10 -10t8 -21q3 2 6 5.5t6 6.5q4 4 7 8l4 4q4 4 5 1l12 -7q2 -1 2.5 -2t1.5 -2q2 -1 5 -2
q5 -3 5 -6q0 -2 1 -3.5t2 -3.5t3 -4q0 -1 0.5 -1.5t-0.5 -2.5l16 -8q0 -3 -4 -7q-9 -11 -17 -20q-7 -8 -12.5 -15t-7.5 -9l-206 -282q11 1 20.5 2.5t11.5 5.5q5 1 4.5 1t7.5 1q12 2 14.5 1t10.5 1q4 2 10.5 3t12.5 1h15q4 -2 13 -1.5t12 3.5l-6 2q-4 1 -13 1q-4 0 -18 1
t-21 -1h-8.5t-13.5 1q-8 0 -18 1q6 0 12 1q5 1 10 1h9q7 -1 10.5 0t6.5 2q1 0 4 0.5t7 0.5t6.5 -0.5l2.5 -0.5q5 -2 12 -1.5t10 -0.5q5 1 6.5 2t-3.5 0q-7 0 -14 1.5t-19 1.5h-22l22 2q8 1 16.5 1t10.5 -1q2 0 7.5 1t5.5 0l3 5q21 -4 40 -9q16 -5 32 -11.5t24 -15.5
q10 -12 16 -18.5t9.5 -10l6 -6zM429 -57q0 1 -1 2q-2 2 -5 2q-2 2 -11 8.5t-30 12.5t-55.5 10.5t-87.5 2.5h-16q-4 0 -8 1q-4 0 -13 -1t-20 -2q-18 -23 -31.5 -40t-25.5 -34.5t-25 -37.5t-32 -49q-25 -38 -53 -79t-51 -76q-28 -40 -55 -79l-4 -5q0 -2 17.5 10t44.5 31.5
t60.5 43t65.5 44.5q30 21 66 42t72.5 42t70.5 41.5t61.5 40t45 37t20.5 32.5zM93 107q6 3 30.5 23.5t55.5 47t62 53.5t50 43q14 11 21.5 29.5t0.5 27.5q0 1 -8 -2t-16 -10q-34 -32 -87 -86.5t-109 -125.5z" />
    <glyph glyph-name="r" unicode="r" horiz-adv-x="200" 
d="M-8 23q-2 0 -2 4q0 2 1 4t0.5 3.5t-0.5 3.5q7 23 24 58t35 69.5t33 61t18 31.5q8 13 14.5 27t7.5 19q4 2 6 2t4 -1q1 -1 4.5 -3.5t8.5 -5.5q5 -4 11 -9l15 -13q31 33 57 60q22 23 40 42.5t20 21.5q0 1 1 1t2 -2t3 -4l4 -1q2 0 10.5 -10t14.5 -14q3 -3 3 -4v-2
q-4 -4 -13 -17.5t-20 -33t-21.5 -42.5t-15.5 -47t-2.5 -47t17.5 -41q2 -3 1.5 -8t0.5 -6q-42 32 -53.5 64t3.5 77l-12 -12q-8 -8 -22.5 -23t-39.5 -42q-13 -15 -29 -41t-31.5 -54t-28 -52.5t-16.5 -36.5q-1 -2 -1.5 -2.5t-0.5 -1.5l-1 -1q0 -5 -4 -5q-2 -1 -3 0l-5 5
q-2 2 -4.5 3.5t-3.5 2.5q-3 2 -6.5 4.5t-4.5 4.5q0 3 -9 8q-4 3 -10 5z" />
    <glyph glyph-name="s" unicode="s" horiz-adv-x="223" 
d="M371 376q1 -2 -2.5 -5.5t-5.5 -3.5l-3 -1q-2 1 -7 -4q-1 -1 -4.5 -6.5t-8.5 -11.5q-5 -8 -13 -17l-14 -16q-19 -25 -37.5 -51.5t-32.5 -49.5q-17 -26 -32 -52l4 -2q5 -2 2 -5q-1 -1 -8.5 -7t-15.5 -11q-8 -2 -10 0t-7 4t-16.5 9t-14.5 7q-3 1 -3 4v3l65 108
q-27 -15 -43 -26.5t-24 -21.5t-9.5 -19.5t-0.5 -21.5q1 -11 8.5 -26t15.5 -29q10 -17 21 -34q8 -10 15 -21q6 -10 11.5 -21.5t9.5 -22.5q10 -30 -18 -40t-85 7q-27 7 -49 16t-38 17q-18 10 -34 19l-16 12q-7 6 -9 11q-2 3 -2 6q2 12 22.5 17t45.5 6t47.5 -0.5t28.5 -2.5
q2 -3 13 -5t22 -13q-2 1 -6.5 1.5t-9.5 1.5t-12 1q-14 1 -35.5 -1t-38.5 -6.5t-25.5 -11.5t3.5 -17q1 -1 13 -6t28.5 -10t35.5 -8.5t34 -2t23.5 11t4.5 29.5q-3 10 -14 25t-26 38l-9 12t-12 17.5t-11.5 19.5t-7.5 19q-1 5 -2.5 12t-1.5 16t4 19.5t15 21.5q27 22 59.5 41
t61 33t48.5 23.5t22 12.5q1 1 2 3t2 3l3 3t11 14l12 16q2 4 2 6t2 4q1 1 2 1l16 -9q4 -2 7 -4q2 -2 4 -3.5t3 -1.5q8 -4 14 -10q2 -2 4 -3q1 -1 3 -2v-3q0 -2 4 -5z" />
    <glyph glyph-name="t" unicode="t" horiz-adv-x="144" 
d="M633 437q1 -2 5.5 -8l9 -12t8.5 -11t3 -6q-2 -2 -10 3.5t-26 20.5q-17 11 -25.5 12.5t-13.5 -0.5h-6q-2 0 -2.5 0.5t-1.5 0.5t-1 1q-30 9 -65 11t-70 0.5t-66.5 -4t-53.5 -3.5q-4 0 -5 -3q-22 -33 -41 -64q-17 -26 -34 -54t-28 -45q-41 -66 -65.5 -109t-38.5 -69
q-16 -30 -23 -45q-12 -28 -15.5 -38t-0.5 -11q1 -1 8 6q1 1 2.5 1t2.5 2l4 3q4 3 8 3l-20 -24q-6 -7 -11.5 -9.5t-9.5 -4.5q-5 -2 -9 -2q-6 0 -14.5 5t-13.5 8l-7 3q-3 2 -7 3.5t-7 3.5q-5 3 -6 10t1 13q0 1 0.5 2t0.5 3q2 6 9 20t15 28q10 17 22 36q31 54 57 96
q11 18 21.5 35.5t19 31.5t14 23t6.5 10q2 3 13.5 21.5t24.5 40t24 39.5t12 20q4 7 4 7.5t-3 0.5l-86 -6l-32 -2t-28.5 -2t-20.5 -1h-8q-2 -1 -12 -1.5t-25 -0.5t-32.5 0.5t-35.5 2.5q-18 3 -29.5 6.5t-17.5 7.5t-9 8t-4 6l-6 6q-2 2 -5.5 5t-5.5 5q-1 0 -4 3q-4 11 -2 20
q0 5 2 9q4 8 10 13t12 9q25 14 46.5 20.5t38.5 8.5t29.5 1t18.5 -2q0 -1 1 -1h2h2q3 -1 5.5 -1.5t6.5 -0.5q0 -1 1 -1h2h2q8 -2 10 -3t5 -3l4 -4q4 -4 7 -5q-1 -1 -5 -1q-2 0 -5 1q-7 1 -15 1.5t-23 -0.5q-35 -5 -57.5 -14t-36 -18t-19 -16.5t-5.5 -8.5q-2 -5 2 -7
q16 -3 35.5 -3.5t36.5 -0.5q20 0 40 1q67 6 121 10q23 2 44.5 3.5t39 3t28.5 3t12 1.5t4 3l10 15q5 6 9.5 13.5t9.5 14.5q6 9 11.5 19l11 20t9 17t5.5 10l1 2q-1 2 7 10q3 2 2 2t1 6v4q-1 3 2 6l2 2q2 1 7 -1t7 -7q0 -1 1 -1h1q4 -2 5 -2l1 -1q2 -2 5 -4q6 -4 8 -4
q6 -3 14 -8.5t4 -11.5l-3 -9t-2 -7q-1 -3 -7 -14.5t-14 -25t-16 -26t-12 -18.5q-1 -1 1 -1q30 3 60.5 4t56.5 0q29 -1 57 -2q13 -2 25 -3t14 -4q3 -3 13 -9q8 -5 22 -15.5t37 -27.5z" />
    <glyph glyph-name="u" unicode="u" horiz-adv-x="239" 
d="M190 341q2 -2 4 -5q3 -5 7 -7q3 -4 8.5 -7.5t8.5 -5.5q1 -6 3.5 -6.5t-2.5 -9.5q-2 -3 -16.5 -22.5t-33 -44.5t-36 -48t-24.5 -33q-2 -2 16.5 16t46.5 46.5t60.5 63t59.5 64.5l22 33q8 13 15 24.5t7 13.5l4 5q1 0 3 1q2 0 3 0.5t3 -1.5t6.5 -6t10 -9.5t9.5 -10t6 -6.5v-7
q0 -1 2.5 0.5t3 1t-2.5 -5.5t-13 -18q-18 -24 -20 -29q-3 -4 -2 -5q0 -1 -1 -2l-4 -4q-5 -2 -4.5 -2.5t-1.5 -2.5q-34 -55 -63 -108q-26 -45 -50.5 -95.5t-37.5 -89.5q-1 -1 -2 -3t-1 -5q2 2 10 7t17 10q11 6 24 13q2 1 0.5 -0.5t-4.5 -3.5t-5 -4.5t-2 -3.5q0 -4 -1.5 -4
t-1.5 -3l-4 -4q-3 -3 -3 -6l-3 -1q0 -5 -1 -7t-1 -4q-3 -2 -9.5 -10.5t-7.5 -11.5q-1 -2 -2.5 -4.5t-3.5 -4.5q-2 -3 -4 -5q-3 -4 -5 -8q-2 -3 -3.5 -5.5t-3.5 -3.5q-4 -2 -5.5 -1.5l-4.5 1.5q-7 5 -13 10q-5 5 -10.5 9.5t-7.5 7.5q0 1 -2 3t-2.5 8.5t1 18t9.5 32.5
q4 15 13.5 36t19 41t16.5 34l8 16l-178 -161l-12 -8q-4 -4 -5 -3.5t-3 -1.5l-3 -3h-1q-3 0 -6 1q-7 2 -7 3q-2 2 -3 3.5t-4 3.5l-22 18q-2 0 -3 1q-2 2 -2 5q0 1 2 5q1 1 2 3q8 13 18 27q8 11 18 25t19 25q7 9 20 26t29.5 38.5t34.5 45t34.5 46t29.5 42t20 31.5l3 3q3 3 4 5
q1 3 5.5 3t7.5 -5z" />
    <glyph glyph-name="v" unicode="v" horiz-adv-x="227" 
d="M156 375q1 0 1 1v3q3 5 5 2.5t3 -4.5l13 -7l7 -5q3 -2 10 -5t9 -6q2 -4 3 -4q1 -1 1 0l3 -26l2 -7q2 -4 1 -5t-2 -3l-2 1q-1 0 -2 2l-6 6q-4 2 -5 1l-2 -2q-5 -15 -15 -39t-21 -47q-12 -27 -26 -57q34 39 65 74q26 30 51.5 59.5t37.5 46.5q22 31 25 49t2 24q-2 2 -2 4v4
t1 3q11 -7 22 -11q9 -5 17 -8t11 -5q9 -5 8 -8t1 -9q4 -9 -1 -23.5t-11 -25.5q-1 -2 -8 -12t-22 -29t-40 -48.5t-63 -69.5q-51 -54 -80.5 -88.5t-45.5 -55.5t-21.5 -31.5t-8.5 -15.5q-1 -2 -1 -4t-0.5 -3.5t0.5 -3.5q-2 0 -3 -0.5t-3 -0.5h-3l-5 4l-14 8q-12 7 -16 7
q-2 0 -3 0.5t-4 3.5q0 3 -3 3h-6q-3 4 -3 2.5t-1 2.5q0 4 1 5l2 2q7 22 12.5 37t14.5 35.5t23 53.5t39 90q19 44 34 75.5t17 40.5q3 5 3 8v4t2 3t2 4z" />
    <glyph glyph-name="w" unicode="w" horiz-adv-x="329" 
d="M212 -31q0 -2 -3.5 -4.5t-5.5 -2.5h-2q-7 3 -13 7q-5 3 -10 5.5l-7 3.5l-11 7l-2 1q-2 1 -2.5 2t-1.5 2v1l1 2l1 7q0 1 1 2q0 1 0.5 1.5t0.5 1.5q8 47 16 79.5t14 53.5q7 25 14 41q-8 -8 -23.5 -24.5t-34 -36.5t-38 -41.5t-35 -39t-26 -29.5t-11.5 -13q-3 -3 -11 -8.5
t-14 -0.5q-1 0 -5.5 2.5t-10 6t-11 6.5t-8.5 4q-4 2 -6.5 5t-4.5 5q-1 1 -1 2l2 4q7 10 12 16t7 10q3 4 4 6q0 1 14 24t34.5 57t44 73.5t44 73t34.5 56.5l14 23q5 6 10 6h5q2 -2 12.5 -7.5t33.5 -17.5l1 -3q-5 -10 -10 -11t-9 -7l-10 -15q-24 -35 -39.5 -59.5t-24.5 -40.5
q-11 -18 -17 -31q12 14 25 27q11 11 23.5 24.5t23.5 26.5q31 36 50.5 60.5t31 40t16 23.5t5.5 10q1 1 1 2v2q2 5 7 5h4l12 -10q5 -4 9 -8l6 -6h2q2 -1 2 -1.5t1 -1.5v-1q1 -1 2 -1t1 -0.5t1 -0.5l1 -2q1 -3 -3.5 -9.5t-6.5 -10.5l-7 -9q-26 -48 -40.5 -79t-22.5 -50
q-9 -22 -12 -35q8 10 20.5 27t26.5 36.5t28.5 40t26.5 38.5q30 43 44 68.5t18.5 39.5t3 18.5t-1.5 6.5q-1 6 -8 11l-3 2.5l-6 5t-4.5 4.5t0.5 2l11 1l27 -18q4 -2 6 -2.5t10 -5.5q15 -8 19 -19t3 -22q-1 -12 -7 -26q-4 -9 -17 -31q-12 -19 -35 -54t-65 -95
q-40 -60 -64.5 -98t-38.5 -60t-20 -31l-8 -12q-3 -5 -4.5 -10t-3.5 -9q-2 -5 -2 -9z" />
    <glyph glyph-name="x" unicode="x" horiz-adv-x="246" 
d="M380 368q2 -2 2 -2.5t1 -1.5q0 -1 1 -2v-3q0 -2 -1.5 -9t-20.5 -25l-173 -174q-2 -20 -1 -40.5t3 -38t4.5 -30t4.5 -15.5l3 -5q6 -9 10 -7t6.5 8.5t4 13.5t3.5 8l10 8l3 1h4q4 0 7 3q2 2 3 2t1 -1q1 2 2 3q2 2 5 2q5 -1 8.5 3t7.5 9q1 2 2 2t2 1q1 0 2 1q-7 -26 -18 -46
q-9 -17 -23.5 -32t-34.5 -17q-4 -1 -17 2.5t-29 25.5q-14 20 -18.5 45t-6.5 50l-2 5q-1 0 -1 -1q-4 -4 -10.5 -10t-12.5 -12t-10 -10.5t-4 -6.5q4 -2 9 -7t4 -7q-3 0 -5 -2t-11 -9.5t-27.5 -22.5t-52.5 -42q-6 -8 -17 -14q-5 -3 -10 -4q-3 2 -11 3.5t-9 4.5q-4 2 -7.5 2
t-6.5 3t-6 7q-3 2 -6 4.5t-7 3.5q-3 5 -1.5 6t1.5 3q4 0 6.5 3.5t5.5 5.5q1 2 5 5t8 7l10 10q42 39 72 68.5t50 49.5q23 23 38 40v65t0.5 54.5t1 38t0.5 15.5q0 5 -0.5 6.5t-0.5 2.5q-1 2 -1 4v1q2 1 3 2t6 -2l10 -4q2 -1 7.5 -2.5t11.5 -3.5q7 -2 15 -4l2 -4q1 -3 2.5 -10
t3.5 -19q2 -7 3 -13t2 -11q1 -6 2 -11l5 -19l5 -15l-8 8q-1 1 -1.5 2.5t-1.5 2.5t-3 2q-4 -1 -6.5 3t-2.5 6q-2 -26 -1.5 -36t0.5 -12q-1 -2 -0.5 -2.5t0.5 -1.5v-2q17 18 37 39t39 41t34.5 38.5t24.5 32.5q4 2 2.5 9t2.5 9v3q14 -6 28.5 -19t28.5 -16z" />
    <glyph glyph-name="y" unicode="y" horiz-adv-x="270" 
d="M477 45q27 -8 44.5 -25t28.5 -34q12 -20 18 -42q-4 -12 -14 -25t-32 -24.5t-59 -20t-95 -10.5q-73 -3 -138.5 6t-113.5 19q-53 -96 -89 -170.5t-66 -140.5q-21 -48 -37.5 -78t-21.5 -38q-2 -2 -2 -5q-2 -3 -4 -4h-3q-1 0 -2 1q-28 20 -38 33q-5 7 -7 12q-6 28 -13 74.5
t-10 99t-0.5 106.5t14.5 98q12 45 31 63.5t38 23.5q22 5 46 -3l49 -19q5 -2 14 -5q8 -2 19.5 -5t28.5 -7q12 24 23 43.5t21.5 37.5t21 36.5t22.5 40.5q-17 -14 -35.5 -26.5t-35 -23t-28 -18t-15.5 -11.5q-4 -2 -3 -2l-1 -1l-16 -8q-12 14 -22 26q-8 10 -14.5 19.5t-6.5 11.5
q0 1 2 3q1 0 3 2q4 7 23.5 35.5t69.5 90.5q29 36 52.5 69.5t39.5 60t24.5 45.5t7.5 27q0 1 2 3q1 0 3 1q3 -4 7 -8q3 -3 6.5 -6t5.5 -5q3 0 8.5 -8t8.5 -10q5 -4 9 -7.5t4 -7.5q0 -2 -5.5 -14.5t-25.5 -44.5q-8 -14 -29.5 -44t-44.5 -60q-27 -35 -59 -76q24 14 45 29
q18 13 35.5 27t25.5 27q38 59 71 103.5t58 74.5q29 35 53 61l8 15q11 -4 11 -5.5t3 -1.5q4 -4 7 -8.5t6 -7.5t2 -6t6 -6q2 -2 3 -5l2 -6q1 -4 1 -8q-31 -44 -56.5 -78t-48.5 -65.5t-44 -62.5t-44 -68t-48 -84t-55 -109q17 -3 45 -7.5t76 -7.5q92 -2 146.5 11t83.5 30
q34 19 48 44q-4 5 -8.5 9t-8.5 7q-5 4 -10 7q-4 1 -7 3q-6 4 -6 10q0 2 -4 4q-2 1 -2 2.5t-2 1.5q-3 2 -7 2.5t-6 2.5q-1 0 -1 0.5t-1 0.5h-2q-7 1 -11 3.5t-10 6.5q-9 8 -19 13q-6 3 -13 5q-1 1 6 0q6 -1 20 -4.5t43 -10.5zM-114 -428q25 53 46.5 96.5t41 82.5t38.5 76.5
t40 78.5l-55 14q-40 12 -64 -6t-36.5 -52.5t-16 -80t-2.5 -88t4 -76t4 -45.5z" />
    <glyph glyph-name="z" unicode="z" horiz-adv-x="268" 
d="M395 368l1 1v-2q0 -8 4.5 -20t7.5 -16q1 -1 1 -2v-2l-1 -2v-1l-5 -5q-1 0 -2 -1q-4 -2 -17.5 -10t-19.5 -13q-29 -23 -71 -59t-85.5 -72.5t-81.5 -66.5t-57 -42q35 7 66 12.5t53.5 13t34 19.5t7.5 34q0 3 -1 6.5t-2 7.5l-2 6q-1 1 0.5 1.5t0.5 2.5l-1 7l8 -7q1 -1 2 -3
t5 -6q1 0 6 -8.5t10 -20.5t7.5 -26.5t-1.5 -27.5q-9 -22 -30 -27.5t-39 -9.5q-2 0 -17 -2.5t-37.5 -6.5t-48.5 -8.5t-48.5 -8.5t-38 -7t-16.5 -4q-4 -2 -5.5 -1.5t-3.5 0.5t-3 1t-2 3q-2 4 -2 7q-1 2 -2 4.5t-3 4.5q-2 3 -3 6l-7 16q0 2 -0.5 6t7.5 18l7 2q4 1 42 28t100 71
q1 0 -4 1.5t-11.5 4.5t-12 7t-5.5 9q-1 3 0.5 6t2.5 8q0 2 2 6q1 2 2 3q6 12 16 33.5t20 46t18 47.5t10 38q0 4 3.5 2.5t14.5 -10.5h2q2 -1 4.5 6.5t9.5 18.5q0 1 1 2l5 2h3h1q7 -7 14 -13q6 -5 11.5 -10.5t8.5 -7.5q3 -3 6 -3h3q39 4 61.5 7.5t37 7t24.5 7t23 7.5l7 1v-2
v-3q0 -4 1 -5t2 -1v-5q-1 -2 -1 -3zM122 167q32 25 62.5 50t55 46t41 35.5t22.5 18.5q-13 -4 -29 -7t-30.5 -5t-24.5 -3t-11 -2q-5 -6 -16 -23t-24.5 -37.5t-26 -40.5t-19.5 -32z" />
    <glyph glyph-name="braceleft" unicode="{" horiz-adv-x="372" 
d="M666 783q3 4 2.5 15.5t-3 23t-6.5 20.5t-7 8q-4 -3 -13.5 -18t-23 -38t-30 -50.5t-34 -55t-35 -53.5t-33.5 -44q-23 -29 -55.5 -48t-61.5 -30.5t-49 -16t-18 -4.5q8 -5 14 -10t11 -10t11 -10q4 -4 6 -9t2 -12t-4 -17q-3 -8 -12.5 -24t-26.5 -43t-42 -65.5t-58 -91.5
q-33 -52 -49.5 -83.5t-23.5 -48.5q-8 -20 -6 -30q0 -1 1 -1l4 -2q6 -3 21 2t30 12t27 13.5t13 6.5q2 0 10 -5t18 -10q11 -7 26 -15q2 -3 2 -4t-2 -4t-15.5 -8.5t-30.5 -11t-32 -9.5t-19 -4q-7 0 -15 1.5t-14 4.5q-7 3 -29.5 12.5t-38.5 33.5q-12 18 -6 45.5t22.5 62t42 73.5
t52.5 79q45 65 66.5 108.5t21.5 51.5q0 5 -6 9q-3 2 -6 3q-9 2 -16 5q-6 2 -12 3.5t-9 3.5l-42 29l10 10q61 -9 109 9t83 47.5t58 61t34 49.5q12 17 27.5 42t30.5 50t28.5 45.5t22.5 28.5q19 16 38.5 16.5t37.5 -8.5t33 -25t23.5 -33.5t9.5 -33.5t-8 -25h-5q-2 0 -10 4
t-17 9q-11 5 -24 13z" />
    <glyph glyph-name="bar" unicode="|" horiz-adv-x="313" 
d="M181 647q2 6 -6.5 7t-14.5 1q-5 0 -5 5q0 3 1 6q3 15 6 27q2 11 4.5 21.5t4.5 16.5q4 7 4.5 17.5t0.5 13.5q0 4 0.5 5.5t3.5 8.5q1 2 1 1t4 -1q1 0 9.5 -1t18 -1.5t17.5 -1.5t10 -1q3 0 2.5 -4.5t-1.5 -6.5q-1 -1 -1 -5q0 -8 0.5 -23t0.5 -16q1 -75 2 -157t1 -162v-152.5
v-128v-89v-34.5v-41v-1q0 -1 -0.5 -1.5t-0.5 -1.5q-4 -6 -13 -6q-4 2 -11 3.5t-14 2t-13 0.5h-7q-2 0 -4 2q-1 1 -1 2q-1 3 -2 7q-2 8 -2 11v10q3 141 4 258.5t1 203.5t-0.5 138t-0.5 63q0 4 1 4z" />
    <glyph glyph-name="braceright" unicode="}" horiz-adv-x="422" 
d="M510 779q-5 -5 -11 -3q-5 2 -11 2t-8 3q-3 4 -15.5 5t-25.5 8q-1 1 10 11t29 19.5t41 14t47 -5.5q11 -4 18 -7t12 -5l8 -4q24 -12 25 -31t-16 -46.5t-49 -65.5t-74 -88q-28 -34 -37.5 -62.5t-7.5 -51.5t12.5 -40.5t22.5 -29.5t22.5 -18.5t13.5 -7.5q3 -2 -1 -6.5t-7 -7.5
t-4 -2l-8 4q-33 16 -65.5 -2t-64 -56.5t-62.5 -91.5t-62 -105q-32 -53 -58 -81t-49 -38.5t-45 -8t-44 10.5q-11 4 -22 10t-16 13q-8 11 -7.5 24t4.5 24q4 13 12 26q1 0 4 -1q2 -1 4.5 -2.5t5.5 -4.5q2 -2 6 -2.5t8 -2.5q2 -2 6 -4t8 -3q11 -2 14 -3l2 -1q1 0 0 -3t-6 -14
l-5 -13l-3 -4l-1 -5q-3 -10 -5.5 -14t1.5 -6q1 -1 6 -1h3q20 -2 38 17t38.5 53t45.5 79.5t58 98.5q36 62 68 93t56 45q28 16 53 15q-29 25 -37 52.5t-2.5 56.5t22 58t38 57t44.5 53.5t41 47.5q29 33 38.5 50.5t9.5 25.5q-1 9 -11 10q-10 -4 -20 -9q-8 -5 -18 -12t-17 -17z
" />
    <glyph glyph-name="asciitilde" unicode="~" horiz-adv-x="287" 
d="M99 402q-16 26 -17.5 35t4.5 11q9 2 26.5 9t35.5 14t34 10t24 -2q1 -1 5 -7q2 -3 3 -7q1 -2 3 -4q3 -3 11 -3q9 0 23.5 4t28 8.5t24 9t11.5 4.5q2 1 6.5 -5t8.5 -14t6.5 -15.5t2.5 -10.5q-2 -3 -5 -3q-2 1 -3 0q-4 -2 -16 -8.5t-31 -12.5q-20 -7 -32 -9t-19.5 0t-12 7.5
t-10.5 14.5q-2 2 -8 2h-6q-22 -5 -45 -14t-43 -19q-3 -1 -6 2q-2 1 -3 3z" />
    <glyph glyph-name="uni00A0" unicode="&#xa0;" horiz-adv-x="126" 
 />
    <glyph glyph-name="exclamdown" unicode="&#xa1;" horiz-adv-x="203" 
d="M49 -28q-3 5 -7 9q-3 4 -6.5 8t-5.5 8l-17 24q-5 6 -4 12.5t0 11.5q-1 6 3 16.5t14 29t27.5 46.5t43.5 68q44 70 73.5 115.5t46 72t22.5 37t3 12.5q-5 -2 -6.5 -2t-1.5 1t1 3l48 74l1 1q1 0 2.5 0.5t3.5 -0.5q5 -2 9 -1t7 -1q1 -1 5.5 -4t9 -6.5t8.5 -6t5 -2.5
q2 0 4 -2.5t3 -4.5t2.5 -1t-0.5 -7q-1 -6 -8.5 -19.5t-25 -42.5t-47.5 -75.5t-76 -118.5q-39 -59 -64 -98t-39 -65t-20.5 -44t-7.5 -35v-7q0 -6 -6 -6zM474 660q6 -3 4 -14q-1 -5 -2 -11q-17 -51 -39.5 -74.5t-37.5 -33.5q-19 -13 -31.5 -13.5t-22.5 2.5q-7 2 -14.5 8
t-14.5 12q-8 7 -15 14q-8 9 -6.5 23.5t6.5 27.5q5 14 12.5 28.5t15.5 25.5q9 13 18 24q1 1 2 3t1 6q2 5 4 6q1 1 3 1q1 -1 3 -2t2.5 -2t2.5 -2q0 -1 3 -1q1 0 2 1q20 14 29.5 15t15.5 -1l5 -2.5t4 -3.5q4 -3 11 -8.5t14.5 -11t14.5 -10t10 -7.5zM338 546q0 -1 11.5 9
t26.5 27t30 39.5t21 47.5q-2 -1 -5 -2q-5 -2 -11 -6q-5 -3 -7.5 -5.5t-4.5 -3.5q-3 -2 -11.5 -12t-18.5 -25t-18.5 -33t-12.5 -36z" />
    <glyph glyph-name="cent" unicode="&#xa2;" horiz-adv-x="483" 
d="M488 388q1 -3 -2 -3h-4q-21 -7 -38 -16t-30 -17q-15 -10 -27 -20l-6 2q-4 0 -7 1q-7 2 -7 5q0 10 -6 10q-2 2 -4.5 6.5t-4.5 9.5l-6 12q-2 2 -13.5 -0.5t-22.5 -4.5q0 -1 -11.5 -20t-27 -45t-32 -54.5l-27.5 -47.5q10 0 22.5 1t24 4t21 8t14.5 13q1 3 2 10.5t3 11.5l5 4
l3 3q2 2 2.5 -1.5t2.5 -6.5q10 -16 14 -28t4.5 -20.5t-0.5 -13t-1 -5.5q0 -2 -1.5 -4.5t-3.5 -4.5q-3 -3 -5 -6q-16 -8 -35 -12q-17 -3 -40.5 -3t-52.5 11q-27 -47 -37.5 -70t-13.5 -33.5t-2 -13t-2 -8.5q-4 1 -8 3q-8 4 -8 7q-3 4 -6.5 4t-9.5 8q-8 9 -11.5 16t-3.5 13.5
t3 13.5t8 17q10 16 14 22l7 10.5t7 11.5t13 25q-29 19 -41 37.5t-15 32.5q-4 17 1 32q8 26 27 46.5t44.5 36t55.5 26t61 16.5q8 13 12 20t7.5 12t7 11t9.5 18l7 14q2 4 4 7q0 7 -1.5 7t-2.5 6q-1 -1 6 8.5t17 22t20 24t16 14.5q2 2 5 -0.5t2 -5.5q0 -3 4 -5l4 -2l2 -9
q2 -2 4.5 -6t4.5 -8l6 -10l6 -6q-5 -16 -15 -29l-20 -26q-8 -11 -10.5 -14t-4.5 -5t-4.5 -7t-10.5 -18q22 2 41 3.5t33 3.5q17 2 31 3q8 -14 18.5 -26t15.5 -29zM153 218l8.5 15t20.5 36t25 43t22 36q-36 -16 -56.5 -33.5t-30 -32.5t-11.5 -25.5t-2 -11.5l-1.5 -6t-0.5 -4
v-3q0 -3 8.5 -8.5t17.5 -5.5z" />
    <glyph glyph-name="sterling" unicode="&#xa3;" horiz-adv-x="602" 
d="M614 208q-6 -6 -28.5 -12.5t-54.5 -13.5t-69.5 -13.5t-73.5 -13t-67 -13t-48 -12.5q-52 -59 -93.5 -84t-69.5 -30q-34 -7 -60 5l-30 16q-4 1 -8 5q-3 3 -5.5 7t-2.5 12q-2 13 20 29t55.5 31.5t73.5 29t73 21.5q9 11 19.5 28t22 36.5t23 39.5t20.5 37q-24 -4 -42.5 -6.5
t-32.5 -4.5q-16 -3 -27 -5v-4q0 -3 1.5 -4t5.5 -4q0 -2 -4 -4q-2 -1 -3 -1l-10 4q-9 3 -19 7q-5 1 -6 2l-5 5q-3 4 -7 9l-8 10t-9 12q-1 5 13.5 10t41 9t61.5 8t75 7q7 13 20.5 39t27.5 54.5t26.5 53.5t18.5 36l19.5 39t13.5 25.5t11.5 19t12.5 19.5q14 20 23.5 20.5
t23.5 -10.5q1 -1 10.5 -5t20.5 -9t20 -9t11 -5q1 -1 2.5 -2t2.5 -2q1 -2 2 -3q14 -16 15.5 -37.5t-5.5 -45.5t-19.5 -47.5t-24.5 -43t-22 -32t-11 -14.5q-8 -3 -10 -2q-2 0 -3 2l-39 34q-4 4 -4 7q-1 2 0 5q45 57 64 91t24 51q5 20 -3 28l-4 8q-13 -11 -29.5 -37.5
t-35 -62.5t-38.5 -78t-41 -83q71 3 100 1.5t34 -1.5q4 0 6 -4q1 -2 1 -4l31 -32q-3 -1 -5 -2q-5 -2 -6 -1q-3 1 -9 2t-12 1h-15q-38 0 -75.5 -1t-69.5 -6q-21 -32 -39 -64.5t-39 -63.5q29 5 56 11t47 11l45 10l-12 24q26 10 47 13.5t36 3.5t24 -2.5t12 -4.5q2 -1 6.5 -4.5
t8.5 -7.5t9 -10zM43 42q7 -1 24.5 5.5t37.5 17t39 23t29 23.5q-42 -16 -67.5 -28.5t-39.5 -21.5q-17 -11 -23 -19z" />
    <glyph glyph-name="currency" unicode="&#xa4;" horiz-adv-x="506" 
d="M253 222q57 0 88 40.5t31 102.5q0 30 -8 56.5t-23 46t-37.5 30.5t-50.5 11q-29 0 -51 -11t-37.5 -30.5t-23.5 -46t-8 -56.5q0 -31 8 -57t23.5 -45t37.5 -30t51 -11zM19 168l69 71q-38 55 -38 126t38 124l-69 71l45 43l67 -69q24 18 54.5 29t67.5 11q36 0 67 -11t55 -29
l67 69l45 -43l-69 -71q37 -54 37 -124q0 -35 -10 -67t-28 -58l70 -72l-45 -43l-68 69q-49 -37 -121 -37t-121 37l-68 -69z" />
    <glyph glyph-name="yen" unicode="&#xa5;" horiz-adv-x="609" 
d="M727 623q1 -2 9 -7.5t17 -12.5t15.5 -12.5t5.5 -7.5q-4 -5 -8 -9q-9 -9 -16 -13l-14 -5q-73 -53 -137 -96q-27 -18 -55.5 -36t-54.5 -32.5t-48 -24t-37 -11.5q-5 -8 -10 -17q-5 -8 -10.5 -18.5t-13.5 -22.5q15 1 32.5 3t33 3.5t27.5 2.5t15 0l6 -20q2 -8 4.5 -15t4.5 -9
q1 -4 -1 -5l-4 -2q-5 0 -12.5 -3t-11.5 -1q-3 0 -7 2q-2 1 -3 2q-12 0 -23.5 -0.5t-24 -1.5t-27.5 -2.5t-36 -2.5q-6 -8 -13.5 -20.5t-9.5 -17.5q26 4 51.5 6t46.5 3q25 1 47 1q4 -12 8 -21q7 -19 11 -23q0 -3 -3 -6q-2 -2 -3 -2q-5 0 -15.5 -2.5t-16.5 -4.5q-3 0 -4 3l-2 4
q-43 -1 -80.5 -5t-69.5 -7q-9 -17 -20 -37.5t-22 -39.5q-12 -22 -25 -45q0 -6 -1 -10q-2 -9 -4 -7l-5 -5l-48 31q-2 1 -2 4q0 6 5 19q3 4 17 29t32 58q-23 -2 -39.5 -3.5t-27.5 -3.5q-13 -2 -22 -4l-11 3l-23 45q3 -1 21.5 0.5t42 4t48 5.5t39.5 5l22 37q-29 -3 -51.5 -5
t-39.5 -4q-19 -2 -34 -3h-7l-26 51q2 0 8.5 2.5t14.5 -1.5q4 -2 25 -1t47 3t51.5 4.5t39.5 4.5q5 8 10.5 16t10.5 15t9 14q-3 2 -7 5q-8 6 -10 8t-8 8.5t-13 13.5q-8 8 -18 17q-5 6 -6 14q-1 7 2.5 17t16.5 24q13 15 35 37t46.5 45t48 43t40.5 31q1 1 3 1q5 0 7 -3
q3 -2 10.5 -8.5t15.5 -12.5q9 -8 20 -16l-25 -88q-1 0 -2 1q-1 0 -3 2q-1 1 -0.5 2t-1.5 2q-3 2 -3.5 4t-3.5 5q-2 2 -3.5 2t-3.5 4q-1 2 -1 6v7q1 3 1.5 7t1.5 7q1 4 1 8q-39 -34 -70 -63q-13 -12 -26 -25t-23 -24t-16.5 -20t-6.5 -14q26 5 78 32q22 11 52 28.5t68.5 42.5
t87 58t107.5 77q2 2 5 3q5 2 6 -4z" />
    <glyph glyph-name="dieresis" unicode="&#xa8;" horiz-adv-x="251" 
d="M94 444q-1 0 -1 0.5t-1 0.5t-1 1q-2 0 -2.5 2.5t-1.5 4.5v2q0 1 1 1q3 5 9.5 15.5t10.5 14.5q0 1 0.5 1.5t0.5 1.5q0 2 2 4q1 1 1 2q6 8 12.5 10t10.5 1q1 0 1.5 -0.5t1.5 -0.5h1q8 -7 15 -12q6 -5 11 -9t7 -5q0 -4 -1 -7t-1 -5q0 -4 -5.5 -12.5t-13 -17t-15 -14
t-11.5 -3.5q0 1 -1 1q-2 0 -2 1q-5 2 -15 10.5t-13 11.5zM181 436q-1 2 -1.5 3.5t0.5 6.5t7.5 18.5t19.5 28.5q5 7 15 3q4 -2 9 -5l24 -20l1 -1l1 -2q2 -4 1 -12.5t-9 -19.5t-13 -15.5t-7 -5.5l-1 -1q0 -1 -1 -1t-1 -1l-1 -2l-1 -1l-2 -1q-5 2 -11.5 6.5t-13.5 9.5
q-8 5 -16 12z" />
    <glyph glyph-name="copyright" unicode="&#xa9;" 
d="M529 596q14 -15 25 -35q8 -17 13.5 -42t-0.5 -57q-1 -6 -5.5 -18t-16.5 -27t-33.5 -30t-56.5 -25q-24 -5 -49 -3.5t-48 10t-42 25t-31 40.5q-6 12 -9.5 29t1.5 38t21 44t48 47q33 20 60.5 27.5t50.5 6t41 -10t31 -19.5zM519 485q12 10 18 22q5 11 4 26.5t-15 35.5
q-19 16 -43 22q-20 5 -48.5 1t-61.5 -29q-41 -33 -54.5 -59.5t-12.5 -45.5q1 -22 15 -39q0 -1 1 -2q3 -3 5 -4q2 -2 15 -10t35.5 -11t52.5 3.5t67 33.5q14 11 22 21.5t9 12.5q-2 3 -3 6q-3 4 -3 7zM431 516l10 8q5 3 10 6.5t10 7.5q-19 -6 -37.5 -17.5t-32 -25t-20.5 -27
t-2 -23.5h2q2 0 5 -1t9 -0.5t16 3t26 8.5q17 7 26 13t13 11t4 10v4q0 3 1 3h2q2 -2 8 -6q3 -3 6 -5l10 -10t4.5 -11.5t-11 -15.5t-37.5 -22q-23 -9 -39.5 -11.5t-28 -0.5t-18.5 6.5t-10 7.5q-4 5 -7.5 9t-5.5 8q-4 4 -6 8l-2 6q-2 6 -1 9q0 5 5.5 22.5t33.5 42.5
q14 12 29.5 20.5t29.5 13.5q16 6 32 9h7q5 0 11 -4q4 -5 12.5 -14.5t9.5 -9.5q1 -1 2.5 -2t2.5 -3q1 -3 1 -6v-5q-1 0 -1.5 -1t-3.5 -3l-5 -3t-11.5 -6t-12 -6.5t-5.5 -4.5v-1q0 -1 1 -1l-2 -2l-15 -10q-7 -4 -9 -2l-17 20v2q0 2 1 2z" />
    <glyph glyph-name="guillemotleft" unicode="&#xab;" horiz-adv-x="656" 
d="M663 418l1 -1q2 -2 2 -3q0 -2 -1 -4.5t-3 -2.5q-4 0 -8 -4q-1 0 -2.5 -1t-2.5 -1q-50 -24 -107.5 -46.5t-115 -42.5t-111 -37.5t-95 -30t-67 -19.5t-27.5 -8q111 -35 176 -62t98.5 -45.5t43.5 -28t10 -10.5q0 -5 4 -7q2 -2 5 -2q1 -1 3 -1q1 -1 2 -1t1 -2l4 -5q2 -2 2 -4
v-7t1 -7q1 -4 2 -7q1 -7 3 -13q1 -5 2 -9.5t1 -6.5q1 -1 0 -2q-2 -2 -8 1l-6 6t-10.5 11t-10.5 11.5t-6 5.5q-4 0 -13.5 7.5t-11.5 9.5t-7.5 4.5t-11.5 5.5q-7 4 -16 7q-18 11 -48 24.5t-66.5 27.5t-75.5 27.5t-73 24.5t-60 18.5t-37 9.5q-3 0 -2 5q-4 0 -4 7.5t-1 9.5
l-3.5 7t-3.5 6q-1 1 -1.5 4t-0.5 4q-4 4 -4 5q-1 1 0 2q1 3 8 3h5q167 42 279 78t181 62t101.5 41t40.5 15q2 0 4 -5q0 -1 1 -1q1 -1 3 -1q4 -1 9 -2t5 -3t3.5 -4.5t8.5 -5.5q5 -4 11 -7zM381 202q7 -1 32 -11.5t54 -26t55.5 -33.5t37.5 -34q2 -2 4 -5q3 -5 7 -7q4 0 6 -3.5
t3 -6.5q0 -1 0.5 -6.5t1 -12t0.5 -13v-10.5q0 -5 1 -5q0 -7 -5 -7h-2q-1 0 -1 1q-2 0 -2 2q-1 1 -1 2l-10 11q-22 26 -56 52q-29 22 -75.5 46.5t-112.5 42.5q-6 1 -10 3q-9 4 -9 7v4.5t-2 7.5t-10 13.5t-6 10.5t0.5 4t0.5 5q1 3 6 3q4 0 6 1q7 2 31 9t58 17.5t75.5 24
t83.5 29t81.5 32t70.5 33.5q1 0 3 1t8 3l8 2q1 0 2 1q3 1 6 3q6 2 6 1q0 -3 10 -7t10 -7q0 -2 3 -4.5t7 -5.5q4 -4 10 -7l7 -6v-1q0 -1 -1 -1q-18 -9 -42.5 -21.5t-67.5 -31t-110 -43t-172 -56.5z" />
    <glyph glyph-name="logicalnot" unicode="&#xac;" horiz-adv-x="600" 
d="M49 380h494v-284h-90v201h-404v83z" />
    <glyph glyph-name="uni00AD" unicode="&#xad;" horiz-adv-x="384" 
d="M113 262q0 1 -1 3v2h1q15 -1 52 -1.5t77.5 -0.5t76 0.5t48.5 1.5q8 1 11.5 3.5t3.5 0.5q1 -1 4 -8t5.5 -15.5t5 -16.5t2.5 -10l2 -10t-1 -7l-1 -1q-1 -3 -4.5 -6t-5.5 -3h-2q-1 1 -4.5 3t-5.5 2q-57 1 -102 1h-38.5t-33.5 -0.5t-25 -1t-11 -1.5v-20q0 -1 -1 -1h-10
q-4 0 -6.5 2t-4.5 3h-1q-1 4 -11 10t-18 10l-2 2l-2 4t-1 5v21v15.5t2 13.5h1z" />
    <glyph glyph-name="registered" unicode="&#xae;" 
d="M323 471q-1 0 3 6l4 6q6 9 17 28t22.5 38.5t20 34.5t9.5 17q1 4 1 9t1 7v2q-17 -9 -31.5 -22.5t-25.5 -30.5q-22 -36 -29 -62t-6.5 -43t5 -25.5t4.5 -10.5l5 -4q15 -9 30.5 -7.5t27.5 6.5t20 11.5t8 7.5q2 -1 3.5 -2.5l3.5 -3.5l4 -4q0 -4 6 -6q3 -2 7 -2q0 -2 2 -6
q1 -3 2 -5l4 -3q-15 -13 -30.5 -18t-30 -4.5t-28 5t-23.5 10.5q-20 11 -33.5 29.5t-15.5 25.5q-6 19 -6 40q0 18 6.5 41.5t24.5 49.5q25 36 51 52t47.5 20t36.5 0.5t20 -4.5q12 -5 24 -13t21 -16q11 -10 20 -20q13 -13 20 -30q6 -14 7 -34t-12 -43q-23 -37 -44 -52.5
t-31 -19.5q-8 -3 -15.5 -4t-14.5 7q-13 13 -25.5 35.5t-18.5 36.5q-6 -11 -11 -19.5t-9 -16.5q-4 -9 -9 -16l-2 -2q-2 -2 -2 -3q-3 -3 -9 1q-3 2 -5 4q-3 1 -4.5 5t-2.5 4q-3 0 -9 6q-3 3 -5 7zM488 619q-18 11 -38 12t-39 -7q6 -2 10 -5q4 -2 7.5 -4t5.5 -2q4 -1 5 -3.5
t-7 -8.5q-4 -3 -0.5 -6t5.5 -3q32 -14 47 -25.5t16 -15.5q5 -5 -5.5 -14.5t-25 -19t-28 -17t-14.5 -7.5q-1 -2 -0.5 -6t1.5 -9t2 -11q2 -4 4 -4q1 -1 2 0q17 -1 33 14t34 44q12 22 12.5 39.5t-4.5 29.5t-12 19t-11 10zM403 521q9 5 21.5 12t20.5 11q11 6 13 11t-2 8
q-1 0 -4.5 2t-7.5 4q-5 3 -11 6z" />
    <glyph glyph-name="degree" unicode="&#xb0;" horiz-adv-x="174" 
d="M418 603q10 -8 13 -16.5t3 -16.5q0 -9 -3 -18q-6 -17 -16 -29.5t-20.5 -20.5t-21 -13.5t-18.5 -8.5q-16 -3 -36.5 8.5t-38.5 33.5q-10 11 -10 24t4.5 25.5t12 23t13.5 16.5q15 16 29 26t18 12q2 2 7 1.5t6 -1.5q2 -2 2 -2.5t2 -1.5q5 -2 13.5 -8t17 -13t15 -13.5
t8.5 -7.5zM321 526q19 5 32 15t21 21t10.5 20.5t0.5 12.5q0 3 -4 2.5t-9 -2.5t-10 -5t-7 -4q-3 -3 -15 -17.5t-19 -33.5q-3 -7 -2 -8q0 -1 2 -1z" />
    <glyph glyph-name="acute" unicode="&#xb4;" horiz-adv-x="237" 
d="M36 481q0 1 1 1q2 -1 4 -1h3q1 1 2 1q0 1 1 1h1q10 3 31 9.5t44.5 15t46 16.5t36.5 13q28 11 43.5 20.5t16.5 12.5q0 2 2 2q1 0 2 -1q0 -1 1 -1l1 -1l1 -1q-1 -4 0.5 -11t3.5 -14q2 -9 5 -18v-3q-2 -6 -14 -13.5t-27.5 -15t-31.5 -13.5t-26 -9l-62 -22q-1 -1 -4 -1
q-3 -1 -2.5 -2t-0.5 -4q1 -1 1 -2q1 0 1 -1t-1 -1v-6q0 -1 -3 -1.5t-5 -0.5h-3q-4 1 -17 0t-17 0h-5q-1 0 -2 1q-14 -4 -17 0q-1 1 -1 2q-4 8 -6.5 21.5t-3.5 15.5q-1 0 -1 1v1z" />
    <glyph glyph-name="periodcentered" unicode="&#xb7;" horiz-adv-x="123" 
d="M65 365q3 0 6 5q2 2 4 5q1 2 -3 5q-4 2 -8 6l-6 6q0 1 -1 3.5t1 3.5q3 1 6 1q7 0 8 -1h1q2 -1 9.5 -5.5t12.5 -9.5q0 -1 2 -1q2 -2 5.5 -3.5t6.5 -3.5q4 -2 6 -4q4 -2 7 -6q5 -7 -2 -18q-16 -31 -32.5 -44t-21.5 -15q-14 -5 -24 0q-2 1 -7.5 5.5t-12 10.5t-12 11.5
t-6.5 7.5q-4 4 -4 10t2 9q0 1 1 1.5t2 2.5q1 1 2 3l2 2q2 3 5.5 8.5t7.5 10.5t7 9.5t5 5.5q1 1 4 1q1 0 1 -1q2 -1 5 -3t9 -8q2 -3 4 -4.5t4 -3.5t4 -2z" />
    <glyph glyph-name="cedilla" unicode="&#xb8;" horiz-adv-x="146" 
d="M15 -56v2q0 1 -0.5 1.5t0.5 2.5q0 1 0.5 1t0.5 1q2 0 2 3l2 2q1 1 1 2l44 54h63l-34 -41q16 2 22.5 -1t8.5 -5l15 -16l3 -3l3 -3q1 -1 1 -2l6 -10q6 -8 2 -18q-3 -8 -15.5 -20t-42.5 -25q-29 -12 -46.5 -13t-28.5 3q-12 4 -19 13q-1 1 -4.5 6t-7.5 10.5t-7.5 10l-3.5 4.5
q-1 0 -1 2q0 1 -1 2q-2 2 -1 3q0 1 10 0l6 -5q1 -2 2.5 -4t2.5 -2q2 -2 4.5 -2.5t4.5 -1.5q3 -1 5 -1q16 -1 33 3.5t31 11t23 12.5t10 8q1 1 1 2v1h-1l-54 -15q-1 -1 -2 -1q-3 -3 -3 -2q-1 0 -1 -0.5t-3 -0.5q-2 -1 -4 0l-4 2q1 0 -2 3q-2 2 -5 6.5t-7 9.5t-9 10z" />
    <glyph glyph-name="guillemotright" unicode="&#xbb;" horiz-adv-x="791" 
d="M214 54q19 7 59.5 21t90 30t102.5 33.5t98 31.5t75 23.5t35 11.5q-83 20 -152.5 42t-120.5 41t-82 33t-36 19q-7 4 -10 10t-5 12q-2 7 -2 14v27q0 3 3 6q1 1 1 0q2 -5 5 -6q1 0 2 -1q2 -3 9 -9.5t11 -9.5q4 -2 8 -4.5t9 -4.5q4 -3 10 -5q75 -32 153 -57t142.5 -42.5
t105.5 -26.5t43 -9h9q5 0 4.5 -4t-0.5 -7q0 -1 1 -7t2.5 -13t2.5 -12.5t1 -6.5q0 -4 -5 -4q-3 0 -4 -1q-5 -2 -28.5 -9.5t-81.5 -23.5q-25 -8 -63.5 -20.5t-82 -26.5t-87 -28.5t-79 -26.5t-58 -20t-24.5 -9t-8.5 -3.5t-14.5 -5t-15.5 -5t-10.5 -4.5l-2 -2q-6 0 -6 3l-1 1
q-4 0 -5 1t-1 2l-2 20q-1 8 -1.5 15t-0.5 10t3 5zM499 180q-11 0 -19 -4q-4 -2 -7 -3q-16 -3 -55 -16t-88 -30t-101.5 -36t-96 -34.5t-71.5 -25.5t-29 -9q-4 0 -5 1l-2 2q-1 11 -2 21q-1 8 -1.5 15t-0.5 9v7q0 2 2 2q6 3 34 13t66 24.5t81.5 30t81 29t63.5 23t30 11.5
q-14 5 -38.5 14.5t-50 20t-47.5 21t-31 18.5q-16 12 -24 23t-10 16q0 1 -0.5 2.5t-0.5 2.5q-2 8 -2 22v19q0 3 5 6q1 1 2 0q2 -3 9 -12t19 -20t28.5 -22.5t37.5 -19.5q37 -18 73 -31t65 -22q33 -11 65 -17q5 3 10 3.5t7 0.5q1 1 2 0t1 -3v-5l7 -40z" />
    <glyph glyph-name="questiondown" unicode="&#xbf;" horiz-adv-x="375" 
d="M427 572l2 2q1 1 6 -1q12 -9 21 -18t15 -16q7 -8 11 -15q5 -15 -3 -31t-28.5 -35.5t-52.5 -44.5t-74 -59q-43 -31 -76 -58t-59.5 -52t-48 -50.5t-39.5 -53.5q-17 -29 -23 -50t-6 -35t2.5 -21t4.5 -8q0 -3 4 -5q2 -1 4 -1q21 -7 40.5 -5.5t37.5 8.5t34 18.5t31 23.5
q20 16 31 28.5t16.5 21.5t7.5 16t3 13q2 7 0 12.5t-4 9.5q-3 4 -7 8q-5 5 -6.5 9t-1.5 6q0 5 5 5q3 -4 11 -10q7 -5 18.5 -15t29.5 -24q19 -15 15 -34.5t-16 -37.5q-14 -21 -39 -42q-40 -34 -75.5 -44t-62.5 -8q-32 2 -59 15q-7 2 -18 10q-9 6 -21.5 18.5t-28.5 32.5
q-14 23 -10 51t20.5 58.5t42.5 61.5t55.5 59.5t59.5 53.5t54 43q38 29 68 53t52 41q26 20 45 37q0 3 3 6q1 2 3 3q8 8 10 16t1 16q-1 9 -5 18zM601 688q4 -2 10.5 -12.5t3.5 -18.5q0 -2 -9.5 -17.5t-25.5 -33.5t-37 -33t-44 -15q-7 1 -12.5 4t-10.5 8q-5 4 -9 11q-5 7 -8 12
t-5 12q-2 11 -2 17t2 14q1 5 11 23t25 36t34.5 29.5t39.5 4.5q1 0 3 -1t3.5 -1.5t3.5 -2.5l12 -16q5 -6 9 -12t6 -8zM486 599q-2 -4 10.5 4.5t29 23t31 31.5t17.5 29q-13 2 -26 -5.5t-24.5 -20.5t-21.5 -29.5t-16 -32.5z" />
    <glyph glyph-name="Agrave" unicode="&#xc0;" horiz-adv-x="419" 
d="M529 202q4 -8 1.5 -7.5t-5.5 0.5q-5 -3 -9 -2q-3 0 -5 2h-2q-3 0 -6 3q0 1 -3 1.5t-6 1.5q-4 1 -9 1q-26 2 -39 0t-14 0q-29 -97 -38.5 -155t-10.5 -89q-1 -37 8 -51h4l9 4q10 5 16 12.5t8 15.5q3 9 3 19q1 0 3 1q4 2 5 2q3 0 9 -4q3 -2 5 -3l12 -12q5 -5 9 -8.5t6 -5.5
v-10q1 -4 -1 -8q-4 -9 -13 -20t-20 -14t-21.5 -2.5t-18.5 3t-11 4.5q-3 1 -11 6.5t-16.5 11.5t-15.5 11t-8 5q-1 1 -2 3.5t-3 4.5l-4 6q-7 17 -8.5 42.5t1.5 53.5t8 56.5t10 52t9.5 38.5t5.5 17q1 4 0 5t-3 1t-17 -2.5t-32 -5.5l-46 -8q-13 -16 -32.5 -37.5t-38.5 -41.5
t-32 -33.5t-12 -13.5l4 -4l9 -8q1 0 5 -4q1 -2 3 -3q-1 -1 -3 -1q-2 -1 -3 -1t-2 -1q-12 -7 -27 -15.5t-30 -17.5t-28.5 -17.5t-21.5 -15.5q-5 -2 -6.5 -2.5t-2.5 -0.5l-5 3q-9 5 -17 14t-12 11q0 4 -2 3q2 1 -0.5 -0.5t-6.5 1.5q-4 1 -3.5 3.5t2.5 4.5q2 3 6 6q1 1 9 7
t17.5 13.5t18.5 14t12 9.5q3 4 11 12.5t16 18t16 17t11 10.5q2 2 9.5 10.5t15.5 17t13 14.5t2 5l-6 -2t-14 -4.5t-16 -4.5t-11 -3t-9.5 -2l-13 -2t-11 -0.5t-4.5 3.5q-3 0 -6.5 4.5t-6.5 7.5q-1 2 -3 5q-5 5 -6 5q-9 7 -9 11l4 4q3 3 12 8t19 9.5t17.5 8t9.5 3.5q4 2 19 7
t22 8q2 1 3 1l1 -1l5 -5l3 -3q1 -1 1 -2h3h3q4 1 11.5 2.5t16 3t15.5 2.5t9 2q26 32 49 58q20 23 37.5 43.5t24.5 28.5q6 7 18.5 23.5t28.5 37t32.5 43t30.5 41t23 31t10 13.5q3 4 8.5 11t10 13.5t8.5 12t4 6.5l4 8q0 4 12 24.5t27 44.5t27.5 43.5t13.5 20.5t1 7v5h4
q2 2 9 -2q3 -2 5 -5l4 -3l5 -4q8 -7 14 -11q5 -5 10 -8t7 -3q0 -4 -1 -9q0 -1 -2 -3q-1 -1 -1 -2q-1 -4 -8 -16.5t-17 -30t-21 -36.5t-20.5 -35t-16 -27t-6.5 -12l-6 -6q-2 -2 -3 -4q-17 -33 -34.5 -79.5t-31.5 -89.5q-17 -50 -32 -102q21 1 31 2.5t19 -0.5q11 -2 12.5 -7
t6.5 -8q1 0 3 -4.5t4 -10.5t4.5 -11.5t4.5 -8.5zM415 365l-107 -131l62 8l4 4zM717 745q-2 -2 -7 -5.5t-8 -1.5h-1q-3 0 -18.5 2.5t-37.5 8t-46.5 15t-46.5 24.5t-38 35t-19 48v2q0 1 1 2v2l-2 6l-1 1q-2 1 -2 3h2h2q1 -1 3 -1t3 -0.5t3 -0.5t4.5 -1t3.5 -1q5 -2 9.5 -3.5
t10.5 -4.5q1 0 4.5 -1.5t5.5 -2.5q9 -4 17 -10q4 -3 6 -5t4.5 -3.5t4.5 -3.5l2 -1l8 -11q1 -2 0 -4l-2 -4h-1q-2 1 -7.5 3.5t-12 5t-13 4.5t-10.5 2q2 -2 2.5 -3.5t4.5 -3.5q3 -2 9.5 -6t21.5 -10t40 -12t65 -12h2l2 2h2q4 0 6 1q2 0 3 1q3 -3 9.5 -15.5t6.5 -19.5v-2l4 -6
v-2q0 -2 0.5 -3t0.5 -3v-3q0 -1 1 -1q0 -1 -1 -1z" />
    <glyph glyph-name="Aacute" unicode="&#xc1;" horiz-adv-x="419" 
d="M605 795q0 1 1 1q2 -1 4 -1h3q1 1 2 1q0 1 1 1h1q10 3 24 7.5t30 10t31.5 11.5t29.5 11q28 11 43.5 20.5t16.5 12.5q0 2 2 2q1 0 2 -1q0 -1 1 -1l1 -1l1 -1q-1 -4 0.5 -11t3.5 -14q2 -9 5 -18v-1v-2q-2 -6 -14 -13.5t-27.5 -15t-31.5 -13.5t-26 -9q-8 -3 -11 -4t-4 -1.5
t-1 -1t-3 -1.5q-1 -1 -4 -1q-3 -1 -2.5 -2t-0.5 -4q1 -1 1 -2q1 0 1 -1t-1 -1v-2v-4q0 -1 -3 -1.5t-5 -0.5h-3q-4 1 -17 0t-17 0h-5q-1 0 -2 1q-14 -4 -17 0q-1 1 -1 2q-4 8 -6.5 21.5t-3.5 15.5q-1 0 -1 1v1zM529 202q4 -8 1.5 -7.5t-5.5 0.5q-5 -3 -9 -2q-3 0 -5 2h-2
q-3 0 -6 3q0 1 -3 1.5t-6 1.5q-4 1 -9 1q-26 2 -39 0t-14 0q-29 -97 -38.5 -155t-10.5 -89q-1 -37 8 -51h4l9 4q10 5 16 12.5t8 15.5q3 9 3 19q1 0 3 1q4 2 5 2q3 0 9 -4q3 -2 5 -3l12 -12q5 -5 9 -8.5t6 -5.5v-10q1 -4 -1 -8q-4 -9 -13 -20t-20 -14t-21.5 -2.5t-18.5 3
t-11 4.5q-3 1 -11 6.5t-16.5 11.5t-15.5 11t-8 5q-1 1 -2 3.5t-3 4.5l-4 6q-7 17 -8.5 42.5t1.5 53.5t8 56.5t10 52t9.5 38.5t5.5 17q1 4 0 5t-3 1t-17 -2.5t-32 -5.5l-46 -8q-13 -16 -32.5 -37.5t-38.5 -41.5t-32 -33.5t-12 -13.5l4 -4l9 -8q1 0 5 -4q1 -2 3 -3
q-1 -1 -3 -1q-2 -1 -3 -1t-2 -1q-12 -7 -27 -15.5t-30 -17.5t-28.5 -17.5t-21.5 -15.5q-5 -2 -6.5 -2.5t-2.5 -0.5l-5 3q-9 5 -17 14t-12 11q0 4 -2 3q2 1 -0.5 -0.5t-6.5 1.5q-4 1 -3.5 3.5t2.5 4.5q2 3 6 6q1 1 9 7t17.5 13.5t18.5 14t12 9.5q3 4 11 12.5t16 18t16 17
t11 10.5q2 2 9.5 10.5t15.5 17t13 14.5t2 5l-6 -2t-14 -4.5t-16 -4.5t-11 -3t-9.5 -2l-13 -2t-11 -0.5t-4.5 3.5q-3 0 -6.5 4.5t-6.5 7.5q-1 2 -3 5q-5 5 -6 5q-9 7 -9 11l4 4q3 3 12 8t19 9.5t17.5 8t9.5 3.5q4 2 19 7t22 8q2 1 3 1l1 -1l5 -5l3 -3q1 -1 1 -2h3h3
q4 1 11.5 2.5t16 3t15.5 2.5t9 2q26 32 49 58q20 23 37.5 43.5t24.5 28.5q6 7 18.5 23.5t28.5 37t32.5 43t30.5 41t23 31t10 13.5q3 4 8.5 11t10 13.5t8.5 12t4 6.5l4 8q0 4 12 24.5t27 44.5t27.5 43.5t13.5 20.5t1 7v5h4q2 2 9 -2q3 -2 5 -5l4 -3l5 -4q8 -7 14 -11
q5 -5 10 -8t7 -3q0 -4 -1 -9q0 -1 -2 -3q-1 -1 -1 -2q-1 -4 -8 -16.5t-17 -30t-21 -36.5t-20.5 -35t-16 -27t-6.5 -12l-6 -6q-2 -2 -3 -4q-17 -33 -34.5 -79.5t-31.5 -89.5q-17 -50 -32 -102q21 1 31 2.5t19 -0.5q11 -2 12.5 -7t6.5 -8q1 0 3 -4.5t4 -10.5t4.5 -11.5
t4.5 -8.5zM415 365l-107 -131l62 8l4 4z" />
    <glyph glyph-name="Acircumflex" unicode="&#xc2;" horiz-adv-x="419" 
d="M675 877q1 6 4.5 13t8 13.5t8 11t4.5 5.5q1 3 2.5 6t3.5 5q0 1 2 1h1l31 -37q1 0 1 -2q0 -4 -4 -15q-4 -9 -12 -20t-11 -11q-1 -1 -3 -5q0 -1 -0.5 -2t-0.5 -2q-6 -12 -11 -30.5t-8 -36.5t-4.5 -31.5t-1.5 -14.5q0 -2 1 -4l2 -4q1 -1 0.5 -4t-3 -5t-7 -1.5t-10.5 6.5
q-5 5 -12.5 14t-10.5 12q-1 1 -0.5 3t0.5 4v4q0 1 0.5 8t1.5 15q1 10 3 22l-104 -67q-3 0 -5.5 1.5t-4.5 3.5q-3 2 -4 4q-7 7 -11 12q-5 5 -8 9t-5 6t-2 4t1 3q0 1 2 1q15 4 35 14.5t40.5 23.5t39.5 27t32.5 24.5t19 15t-0.5 0.5zM529 202q4 -8 1.5 -7.5t-5.5 0.5
q-5 -3 -9 -2q-3 0 -5 2h-2q-3 0 -6 3q0 1 -3 1.5t-6 1.5q-4 1 -9 1q-26 2 -39 0t-14 0q-29 -97 -38.5 -155t-10.5 -89q-1 -37 8 -51h4l9 4q10 5 16 12.5t8 15.5q3 9 3 19q1 0 3 1q4 2 5 2q3 0 9 -4q3 -2 5 -3l12 -12q5 -5 9 -8.5t6 -5.5v-10q1 -4 -1 -8q-4 -9 -13 -20
t-20 -14t-21.5 -2.5t-18.5 3t-11 4.5q-3 1 -11 6.5t-16.5 11.5t-15.5 11t-8 5q-1 1 -2 3.5t-3 4.5l-4 6q-7 17 -8.5 42.5t1.5 53.5t8 56.5t10 52t9.5 38.5t5.5 17q1 4 0 5t-3 1t-17 -2.5t-32 -5.5l-46 -8q-13 -16 -32.5 -37.5t-38.5 -41.5t-32 -33.5t-12 -13.5l4 -4l9 -8
q1 0 5 -4q1 -2 3 -3q-1 -1 -3 -1q-2 -1 -3 -1t-2 -1q-12 -7 -27 -15.5t-30 -17.5t-28.5 -17.5t-21.5 -15.5q-5 -2 -6.5 -2.5t-2.5 -0.5l-5 3q-9 5 -17 14t-12 11q0 4 -2 3q2 1 -0.5 -0.5t-6.5 1.5q-4 1 -3.5 3.5t2.5 4.5q2 3 6 6q1 1 9 7t17.5 13.5t18.5 14t12 9.5
q3 4 11 12.5t16 18t16 17t11 10.5q2 2 9.5 10.5t15.5 17t13 14.5t2 5l-6 -2t-14 -4.5t-16 -4.5t-11 -3t-9.5 -2l-13 -2t-11 -0.5t-4.5 3.5q-3 0 -6.5 4.5t-6.5 7.5q-1 2 -3 5q-5 5 -6 5q-9 7 -9 11l4 4q3 3 12 8t19 9.5t17.5 8t9.5 3.5q4 2 19 7t22 8q2 1 3 1l1 -1l5 -5
l3 -3q1 -1 1 -2h3h3q4 1 11.5 2.5t16 3t15.5 2.5t9 2q26 32 49 58q20 23 37.5 43.5t24.5 28.5q6 7 18.5 23.5t28.5 37t32.5 43t30.5 41t23 31t10 13.5q3 4 8.5 11t10 13.5t8.5 12t4 6.5l4 8q0 4 12 24.5t27 44.5t27.5 43.5t13.5 20.5t1 7v5h4q2 2 9 -2q3 -2 5 -5l4 -3l5 -4
q8 -7 14 -11q5 -5 10 -8t7 -3q0 -4 -1 -9q0 -1 -2 -3q-1 -1 -1 -2q-1 -4 -8 -16.5t-17 -30t-21 -36.5t-20.5 -35t-16 -27t-6.5 -12l-6 -6q-2 -2 -3 -4q-17 -33 -34.5 -79.5t-31.5 -89.5q-17 -50 -32 -102q21 1 31 2.5t19 -0.5q11 -2 12.5 -7t6.5 -8q1 0 3 -4.5t4 -10.5
t4.5 -11.5t4.5 -8.5zM415 365l-107 -131l62 8l4 4z" />
    <glyph glyph-name="Atilde" unicode="&#xc3;" horiz-adv-x="419" 
d="M529 202q4 -8 1.5 -7.5t-5.5 0.5q-5 -3 -9 -2q-3 0 -5 2h-2q-3 0 -6 3q0 1 -3 1.5t-6 1.5q-4 1 -9 1q-26 2 -39 0t-14 0q-29 -97 -38.5 -155t-10.5 -89q-1 -37 8 -51h4l9 4q10 5 16 12.5t8 15.5q3 9 3 19q1 0 3 1q4 2 5 2q3 0 9 -4q3 -2 5 -3l12 -12q5 -5 9 -8.5t6 -5.5
v-10q1 -4 -1 -8q-4 -9 -13 -20t-20 -14t-21.5 -2.5t-18.5 3t-11 4.5q-3 1 -11 6.5t-16.5 11.5t-15.5 11t-8 5q-1 1 -2 3.5t-3 4.5l-4 6q-7 17 -8.5 42.5t1.5 53.5t8 56.5t10 52t9.5 38.5t5.5 17q1 4 0 5t-3 1t-17 -2.5t-32 -5.5l-46 -8q-13 -16 -32.5 -37.5t-38.5 -41.5
t-32 -33.5t-12 -13.5l4 -4l9 -8q1 0 5 -4q1 -2 3 -3q-1 -1 -3 -1q-2 -1 -3 -1t-2 -1q-12 -7 -27 -15.5t-30 -17.5t-28.5 -17.5t-21.5 -15.5q-5 -2 -6.5 -2.5t-2.5 -0.5l-5 3q-9 5 -17 14t-12 11q0 4 -2 3q2 1 -0.5 -0.5t-6.5 1.5q-4 1 -3.5 3.5t2.5 4.5q2 3 6 6q1 1 9 7
t17.5 13.5t18.5 14t12 9.5q3 4 11 12.5t16 18t16 17t11 10.5q2 2 9.5 10.5t15.5 17t13 14.5t2 5l-6 -2t-14 -4.5t-16 -4.5t-11 -3t-9.5 -2l-13 -2t-11 -0.5t-4.5 3.5q-3 0 -6.5 4.5t-6.5 7.5q-1 2 -3 5q-5 5 -6 5q-9 7 -9 11l4 4q3 3 12 8t19 9.5t17.5 8t9.5 3.5q4 2 19 7
t22 8q2 1 3 1l1 -1l5 -5l3 -3q1 -1 1 -2h3h3q4 1 11.5 2.5t16 3t15.5 2.5t9 2q26 32 49 58q20 23 37.5 43.5t24.5 28.5q6 7 18.5 23.5t28.5 37t32.5 43t30.5 41t23 31t10 13.5q3 4 8.5 11t10 13.5t8.5 12t4 6.5l4 8q0 4 12 24.5t27 44.5t27.5 43.5t13.5 20.5t1 7v5h4
q2 2 9 -2q3 -2 5 -5l4 -3l5 -4q8 -7 14 -11q5 -5 10 -8t7 -3q0 -4 -1 -9q0 -1 -2 -3q-1 -1 -1 -2q-1 -4 -8 -16.5t-17 -30t-21 -36.5t-20.5 -35t-16 -27t-6.5 -12l-6 -6q-2 -2 -3 -4q-17 -33 -34.5 -79.5t-31.5 -89.5q-17 -50 -32 -102q21 1 31 2.5t19 -0.5q11 -2 12.5 -7
t6.5 -8q1 0 3 -4.5t4 -10.5t4.5 -11.5t4.5 -8.5zM415 365l-107 -131l62 8l4 4zM499 733q-17 28 -18.5 37.5t4.5 11.5q10 2 28 9.5t37.5 14.5t36.5 10.5t25 -2.5q1 -1 5 -7q2 -3 3 -7q1 -2 3 -4q4 -4 12 -4q10 0 25.5 4t29.5 9.5t25 10t12 4.5q3 1 7.5 -5.5t8.5 -15t7 -16.5
t3 -11q-2 -3 -6 -3q-2 1 -3 0q-4 -2 -17 -9t-33 -13q-21 -7 -34 -9.5t-20.5 -0.5t-12.5 8t-11 15q-3 3 -9 3h-6q-23 -5 -47 -15t-46 -20q-3 -1 -6 2q-2 1 -3 3z" />
    <glyph glyph-name="Adieresis" unicode="&#xc4;" horiz-adv-x="419" 
d="M557 781q-1 0 -1 0.5t-1 0.5t-1 1q-2 0 -2.5 2.5t-1.5 4.5v2q0 1 1 1q3 5 10 16.5t11 15.5q0 1 0.5 1.5t0.5 1.5q0 2 2 4q1 1 1 2q7 9 13.5 11t10.5 1q1 0 2 -0.5t2 -0.5h1l16 -12q6 -5 11 -9.5t7 -5.5q0 -5 -1 -8t-1 -5q0 -4 -5.5 -13t-13.5 -18t-16 -15t-12 -3
q0 1 -1 1q-2 0 -2 1q-5 2 -15.5 11t-14.5 12zM645 753q-1 2 -1.5 4t0.5 7t7.5 19t20.5 30q3 5 7.5 5t8.5 -2t9 -5l25 -21l1 -1l2 -2q2 -4 1 -13.5t-10 -20.5q-8 -11 -13.5 -16t-7.5 -6l-1 -1q0 -1 -1 -1t-1 -1l-1 -2l-1 -1l-2 -1q-5 2 -12 6.5t-14 9.5q-8 6 -17 13zM529 202
q4 -8 1.5 -7.5t-5.5 0.5q-5 -3 -9 -2q-3 0 -5 2h-2q-3 0 -6 3q0 1 -3 1.5t-6 1.5q-4 1 -9 1q-26 2 -39 0t-14 0q-29 -97 -38.5 -155t-10.5 -89q-1 -37 8 -51h4l9 4q10 5 16 12.5t8 15.5q3 9 3 19q1 0 3 1q4 2 5 2q3 0 9 -4q3 -2 5 -3l12 -12q5 -5 9 -8.5t6 -5.5v-10
q1 -4 -1 -8q-4 -9 -13 -20t-20 -14t-21.5 -2.5t-18.5 3t-11 4.5q-3 1 -11 6.5t-16.5 11.5t-15.5 11t-8 5q-1 1 -2 3.5t-3 4.5l-4 6q-7 17 -8.5 42.5t1.5 53.5t8 56.5t10 52t9.5 38.5t5.5 17q1 4 0 5t-3 1t-17 -2.5t-32 -5.5l-46 -8q-13 -16 -32.5 -37.5t-38.5 -41.5
t-32 -33.5t-12 -13.5l4 -4l9 -8q1 0 5 -4q1 -2 3 -3q-1 -1 -3 -1q-2 -1 -3 -1t-2 -1q-12 -7 -27 -15.5t-30 -17.5t-28.5 -17.5t-21.5 -15.5q-5 -2 -6.5 -2.5t-2.5 -0.5l-5 3q-9 5 -17 14t-12 11q0 4 -2 3q2 1 -0.5 -0.5t-6.5 1.5q-4 1 -3.5 3.5t2.5 4.5q2 3 6 6q1 1 9 7
t17.5 13.5t18.5 14t12 9.5q3 4 11 12.5t16 18t16 17t11 10.5q2 2 9.5 10.5t15.5 17t13 14.5t2 5l-6 -2t-14 -4.5t-16 -4.5t-11 -3t-9.5 -2l-13 -2t-11 -0.5t-4.5 3.5q-3 0 -6.5 4.5t-6.5 7.5q-1 2 -3 5q-5 5 -6 5q-9 7 -9 11l4 4q3 3 12 8t19 9.5t17.5 8t9.5 3.5q4 2 19 7
t22 8q2 1 3 1l1 -1l5 -5l3 -3q1 -1 1 -2h3h3q4 1 11.5 2.5t16 3t15.5 2.5t9 2q26 32 49 58q20 23 37.5 43.5t24.5 28.5q6 7 18.5 23.5t28.5 37t32.5 43t30.5 41t23 31t10 13.5q3 4 8.5 11t10 13.5t8.5 12t4 6.5l4 8q0 4 12 24.5t27 44.5t27.5 43.5t13.5 20.5t1 7v5h4
q2 2 9 -2q3 -2 5 -5l4 -3l5 -4q8 -7 14 -11q5 -5 10 -8t7 -3q0 -4 -1 -9q0 -1 -2 -3q-1 -1 -1 -2q-1 -4 -8 -16.5t-17 -30t-21 -36.5t-20.5 -35t-16 -27t-6.5 -12l-6 -6q-2 -2 -3 -4q-17 -33 -34.5 -79.5t-31.5 -89.5q-17 -50 -32 -102q21 1 31 2.5t19 -0.5q11 -2 12.5 -7
t6.5 -8q1 0 3 -4.5t4 -10.5t4.5 -11.5t4.5 -8.5zM415 365l-107 -131l62 8l4 4z" />
    <glyph glyph-name="Aring" unicode="&#xc5;" horiz-adv-x="419" 
d="M529 202q4 -8 1.5 -7.5t-5.5 0.5q-5 -3 -9 -2q-3 0 -5 2h-2q-3 0 -6 3q0 1 -3 1.5t-6 1.5q-4 1 -9 1q-26 2 -39 0t-14 0q-29 -97 -38.5 -155t-10.5 -89q-1 -37 8 -51h4l9 4q10 5 16 12.5t8 15.5q3 9 3 19q1 0 3 1q4 2 5 2q3 0 9 -4q3 -2 5 -3l12 -12q5 -5 9 -8.5t6 -5.5
v-10q1 -4 -1 -8q-4 -9 -13 -20t-20 -14t-21.5 -2.5t-18.5 3t-11 4.5q-3 1 -11 6.5t-16.5 11.5t-15.5 11t-8 5q-1 1 -2 3.5t-3 4.5l-4 6q-7 17 -8.5 42.5t1.5 53.5t8 56.5t10 52t9.5 38.5t5.5 17q1 4 0 5t-3 1t-17 -2.5t-32 -5.5l-46 -8q-13 -16 -32.5 -37.5t-38.5 -41.5
t-32 -33.5t-12 -13.5l4 -4l9 -8q1 0 5 -4q1 -2 3 -3q-1 -1 -3 -1q-2 -1 -3 -1t-2 -1q-12 -7 -27 -15.5t-30 -17.5t-28.5 -17.5t-21.5 -15.5q-5 -2 -6.5 -2.5t-2.5 -0.5l-5 3q-9 5 -17 14t-12 11q0 4 -2 3q2 1 -0.5 -0.5t-6.5 1.5q-4 1 -3.5 3.5t2.5 4.5q2 3 6 6q1 1 9 7
t17.5 13.5t18.5 14t12 9.5q3 4 11 12.5t16 18t16 17t11 10.5q2 2 9.5 10.5t15.5 17t13 14.5t2 5l-6 -2t-14 -4.5t-16 -4.5t-11 -3t-9.5 -2l-13 -2t-11 -0.5t-4.5 3.5q-3 0 -6.5 4.5t-6.5 7.5q-1 2 -3 5q-5 5 -6 5q-9 7 -9 11l4 4q3 3 12 8t19 9.5t17.5 8t9.5 3.5q4 2 19 7
t22 8q2 1 3 1l1 -1l5 -5l3 -3q1 -1 1 -2h3h3q4 1 11.5 2.5t16 3t15.5 2.5t9 2q26 32 49 58q20 23 37.5 43.5t24.5 28.5q6 7 18.5 23.5t28.5 37t32.5 43t30.5 41t23 31t10 13.5q3 4 8.5 11t10 13.5t8.5 12t4 6.5l4 8q0 4 12 24.5t27 44.5t27.5 43.5t13.5 20.5t1 7v5h4
q2 2 9 -2q3 -2 5 -5l4 -3l5 -4q8 -7 14 -11q5 -5 10 -8t7 -3q0 -4 -1 -9q0 -1 -2 -3q-1 -1 -1 -2q-1 -4 -8 -16.5t-17 -30t-21 -36.5t-20.5 -35t-16 -27t-6.5 -12l-6 -6q-2 -2 -3 -4q-17 -33 -34.5 -79.5t-31.5 -89.5q-17 -50 -32 -102q21 1 31 2.5t19 -0.5q11 -2 12.5 -7
t6.5 -8q1 0 3 -4.5t4 -10.5t4.5 -11.5t4.5 -8.5zM415 365l-107 -131l62 8l4 4zM725 831q1 -2 4 -5.5t4.5 -9.5t0 -15.5t-8.5 -21.5q-11 -18 -17 -25.5t-10 -11.5q-11 -11 -20.5 -13.5t-16.5 -1.5q-9 1 -15 6l-16 8l-11 5.5t-6 3.5l-10 5q-5 3 -10 11.5t-3 18.5q2 11 6 20.5
t8 15.5l10 17q5 8 14.5 17.5t22.5 11.5q17 3 24 -1q5 -2 7 -4l4 -4q5 -4 11 -6.5t11 -6.5q2 -3 10 -9q4 -3 7 -5zM687 827q1 1 1 3q0 3 -2 3l-6 1q-3 -1 -10.5 -10t-15 -20.5t-13 -22.5t-5.5 -16l-1 -4q0 -2 6.5 2t15 13t17 21.5t13.5 29.5z" />
    <glyph glyph-name="AE" unicode="&#xc6;" horiz-adv-x="590" 
d="M1094 589q2 -3 -0.5 -7t-2.5 -8q-2 -2 -12 -7.5t-21 -11.5l-30 -16q-38 -18 -71.5 -38t-60 -37t-45 -30.5t-25.5 -19.5q-8 -6 -14.5 -14t-11.5 -9q-16 -3 -18 -2q-3 0 -2 2q-3 5 -7 10q-3 5 -7.5 11t-9.5 14q-7 10 -9 15t-3 7q-1 3 1 2h10q4 0 6 2t7 4q5 3 24.5 15
t39.5 26q24 16 53 35q-51 -10 -103.5 -17.5t-114.5 -8.5q-9 -15 -30 -44.5t-44 -62t-44 -62.5t-30 -45q22 0 53.5 3t60.5 9q0 1 -3.5 2.5t-7 2.5t-6.5 2t-2 2h15q6 0 11.5 0.5t7.5 0.5q4 -5 4.5 -6t0.5 -4q1 -3 5.5 -8t11.5 -13l18 -19h5q2 -4 -0.5 -6.5t-6.5 -4.5
q-4 -3 -11 -4q-42 -6 -68 -8.5t-45 -4t-35.5 -2t-39.5 -2.5q-15 -26 -30 -54.5t-26 -55t-17 -50t-4 -40.5q5 1 15.5 3t24.5 9t32 20.5t39 37.5q1 1 5 6.5t7 12.5t4 15t-4 16q-1 2 -1 6q0 2 1 3l14 -7q3 -3 4.5 -6t6.5 -3q4 -4 15.5 -12.5t16.5 -12.5l4 -4q3 -3 3 -7
q0 -3 -2 -10.5t-10 -18.5q-2 -3 -13 -15.5t-28 -27t-38.5 -28t-43.5 -17.5q-8 -1 -15 -2q-6 -1 -12 -1t-8 2q-5 2 -16 8t-23 15t-22 20.5t-14 24.5q-3 9 -2.5 22.5t6.5 33t18 47.5t33 67h-84l-106 -99q8 -6 13 -11t8 -8.5t1 -5.5q-1 -1 -9.5 -7.5t-21.5 -16t-30 -21.5
l-34 -24q-40 -29 -91 -65l-20 -11l-2 -4q-2 -5 -6 -1q-2 2 -6.5 5l-9 6t-8 5.5t-3.5 3.5q0 2 -0.5 2.5t-0.5 1.5v1q-3 1 -5 0l-3 10q1 2 7 7t12.5 11t11.5 11t5 7l-2 4q25 23 58 54q28 26 65.5 63t85.5 82q-17 0 -27 0.5t-15 1.5q-6 1 -8 3q-4 0 -7 3q-2 1 -4 3
q-12 9 -20 19.5t-15 19.5q-2 2 -3 5q-3 5 1 5t6.5 -2.5t10.5 -2.5q1 0 13 0.5t25.5 1t26 1t15.5 1.5q5 2 6.5 3.5t5.5 -2.5l28 -15q2 -3 5 0q45 37 88 80.5t94 88.5q44 42 77 74t57 55t39.5 39t25.5 26q23 24 22 25q12 14 21 25q8 10 14 18t6 10q2 4 2.5 10t2.5 11q1 6 3 13
l7 -7q0 -1 1 -3t2 -3.5t3 -3.5q3 0 7 -2l4 -2q2 -3 5 -7q2 -3 4.5 -6t4.5 -5l11 -10q0 -4 1 -7q2 -6 2 -3q0 2 6 5t6 1q0 -5 -5 -16.5t-15 -19.5q-6 -11 -6.5 -11t-4.5 -4q-8 -11 -12.5 -18t-10.5 -14.5t-14 -19t-22 -32.5q33 3 62 5.5t56.5 6t54.5 8.5t56 13q24 5 37 9
t19.5 7t9.5 4.5t6 1.5q8 3 15.5 7t12.5 8q6 4 10 8l3 13q0 -4 5 -4q8 0 7 -2t4 -10q1 -2 6.5 -9t11.5 -14.5t11 -14.5t5 -9zM437 284q19 26 38 59t44 70l-142 -134l30 2t30 3z" />
    <glyph glyph-name="Ccedilla" unicode="&#xc7;" horiz-adv-x="335" 
d="M288 218q-2 3 -1.5 4t-1.5 6q-5 5 -5 8q0 1 1 1v5l7 19q18 36 44.5 76.5t51 75.5t42.5 59t18 26q2 2 2 3t1 3q0 2 1 3q-9 -8 -26 -22l-34 -28q-20 -17 -42 -35q-42 -35 -84 -75q-36 -35 -78.5 -79t-79.5 -92q-29 -39 -41 -66.5t-15 -44.5t-1 -26t2 -11l3 -4
q27 -12 60 -6.5t65.5 21t61 37.5t46.5 42q16 18 20.5 31.5t4.5 16.5v14q5 0 10 -7q3 -4 6 -7q15 -21 23.5 -32t8.5 -19t-4 -16q-2 -4 -4 -7q-29 -41 -64.5 -66t-67.5 -38.5t-57.5 -18t-34.5 -5.5q-11 -1 -23.5 4t-24 11.5t-20.5 13.5t-13 10q-8 7 -29 34q-16 22 -15 52.5
t14.5 65t38 69.5t56.5 67q61 65 122.5 118.5t122.5 101t121 93t119 94.5l25 22q3 3 5 7l2 4q2 4 4 4q5 0 5 -4q0 -1 1.5 -0.5t2.5 -0.5q2 -4 5 -8q2 -3 3.5 -5.5t3.5 -4.5q3 -3 7 -9q1 -2 0.5 -3t0.5 -2l3 -2q6 -4 6 -9v-7v-2l-13 -14q-10 -13 -26.5 -34.5t-33.5 -42.5
q-19 -25 -42 -51q6 -2 11 -4t8.5 -3.5t5.5 -1.5q6 -2 7 -5.5t1 -4.5q-2 -1 -14.5 -14.5t-31 -34t-40 -45t-41 -47.5t-35 -41.5t-21.5 -26.5q-9 -13 -22.5 -31t-26 -34.5t-21 -29t-8.5 -14.5q0 -3 -1 -6t-6 -2q-6 1 -9 3.5t-4 4.5q-2 4 -5 7l-6 6q-4 3 -7 6zM48 -84v2
q0 1 -0.5 1.5t0.5 2.5q0 1 0.5 1t0.5 1q2 0 2 3l2 2q1 1 1 2l44 54h63l-34 -41q16 2 22.5 -1t8.5 -5l15 -16l3 -3l3 -3q1 -1 1 -2l6 -10q6 -8 2 -18q-3 -8 -15.5 -20t-42.5 -25q-29 -12 -46.5 -13t-28.5 3q-12 4 -19 13q-1 1 -4.5 6t-7.5 10.5t-7.5 10l-3.5 4.5q-1 0 -1 2
q0 1 -1 2q-2 2 -1 3q0 1 10 0l6 -5q1 -2 2.5 -4t2.5 -2q2 -2 4.5 -2.5t4.5 -1.5q3 -1 5 -1q16 -1 33 3.5t31 11t23 12.5t10 8q1 1 1 2v1h-1l-54 -15q-1 -1 -2 -1q-3 -3 -3 -2q-1 0 -1 -0.5t-3 -0.5q-2 -1 -4 0l-4 2q1 0 -2 3q-2 2 -5 6.5t-7 9.5t-9 10z" />
    <glyph glyph-name="Egrave" unicode="&#xc8;" horiz-adv-x="481" 
d="M750 725q1 -1 5 -5.5t9 -9.5t9 -9.5t4 -5.5t-0.5 -2t-0.5 -3v-3l-3 -1q-2 0 -4 -4q-1 -2 -2 -3q-41 -23 -80 -56.5t-70.5 -66t-51.5 -56.5t-23 -28q-4 -8 -5 -9l-1 -1l3 -1q2 -2 4.5 -5t2.5 -5q0 -1 -6 -7.5t-14.5 -14.5t-15.5 -15t-8 -7q-3 0 -4.5 -1.5t-3.5 -2.5
t-8.5 6.5t-10.5 9.5t-12.5 11.5t-9.5 11.5q-1 1 -1 4v2q1 5 9 17t19 27t24 30.5t24 28.5t18 20.5t8 7.5q-49 -17 -84 -39.5t-57 -45.5t-31 -44.5t-5 -36.5q2 -16 11.5 -28.5t21.5 -21.5t23 -14t16 -7q23 -7 42.5 -7h25.5q14 -1 31 -0.5t30 0.5q10 0 10 -6q4 0 10 -4
q3 -2 5 -4q0 -4 4 -8q2 -3 5 -4l3 -3l-3 -4q-2 0 -9 -0.5t-16 -0.5t-17 -0.5t-11 -0.5q-2 0 -6.5 -0.5t-9.5 -1.5q-6 -1 -13 -1q-35 -4 -64.5 -11t-59.5 -16.5t-64 -23t-76 -31.5q-75 -30 -116.5 -63t-56.5 -59q-14 -23 -12.5 -39.5t6.5 -20.5q2 -2 2 -4t1 -4q10 -10 31 -14
q18 -4 50.5 -3t85.5 13q79 22 125 47.5t70 47t31 37t9 17.5q1 5 -1 7q-1 1 -3 0q-22 -1 -32 -5.5t-8 -2.5q-36 -12 -66 -27t-51 -29q-26 -16 -45 -33l4 -2v-3l1 -2v-1h-1q-5 -1 -9 -1.5t-9 1.5q-9 5 -21 11l-22 11q-2 0 -2 2v2q-3 3 -2.5 5.5t0.5 5.5q0 2 1 3q0 1 1 1
q71 47 118.5 67t76.5 25t42 1.5t15 -4.5q3 -2 13 -7.5t21 -11.5q13 -7 29 -16q6 -16 1.5 -31t-12.5 -26q-10 -14 -23 -26q-44 -38 -99 -60.5t-107.5 -33t-96 -11.5t-64.5 5q-23 5 -50 15t-49 24.5t-34 33t-4 40.5q11 36 56.5 71t108.5 65t135.5 53.5t137.5 37.5
q-5 1 -26.5 6.5t-38.5 13.5q-32 17 -49.5 38t-19.5 40t3 35.5t15 31.5t23.5 27.5t28.5 24.5q35 27 87 53t103 47q30 13 56.5 26t46.5 24t31.5 17.5l11.5 6.5q2 -2 8.5 6t10.5 11q4 2 5 2t2 -1q2 -1 5 -3q2 -2 4 -3.5t4 -2.5q2 -3 -1.5 -0.5t-1.5 1.5zM648 718q-2 -2 -7 -5.5
t-8 -1.5h-1q-3 0 -18.5 2.5t-37.5 8t-46.5 15t-46.5 24.5t-38 35t-19 48v2q0 1 1 2v2l-2 6l-1 1q-2 1 -2 3h2h2q1 -1 3 -1t3 -0.5t3 -0.5t4.5 -1t3.5 -1q5 -2 9.5 -3.5t10.5 -4.5q1 0 4.5 -1.5t5.5 -2.5q9 -4 17 -10q4 -3 6 -5t4.5 -3.5t4.5 -3.5l2 -1l8 -11q1 -2 0 -4
l-2 -4h-1q-2 1 -7.5 3.5t-12 5t-13 4.5t-10.5 2q2 -2 2.5 -3.5t4.5 -3.5q3 -2 9.5 -6t21.5 -10t40 -12t65 -12h2l2 2h2q4 0 6 1q2 0 3 1q3 -3 9.5 -15.5t6.5 -19.5v-2l4 -6v-2q0 -2 0.5 -3t0.5 -3v-3q0 -1 1 -1q0 -1 -1 -1z" />
    <glyph glyph-name="Eacute" unicode="&#xc9;" horiz-adv-x="481" 
d="M750 725q1 -1 5 -5.5t9 -9.5t9 -9.5t4 -5.5t-0.5 -2t-0.5 -3v-3l-3 -1q-2 0 -4 -4q-1 -2 -2 -3q-41 -23 -80 -56.5t-70.5 -66t-51.5 -56.5t-23 -28q-4 -8 -5 -9l-1 -1l3 -1q2 -2 4.5 -5t2.5 -5q0 -1 -6 -7.5t-14.5 -14.5t-15.5 -15t-8 -7q-3 0 -4.5 -1.5t-3.5 -2.5
t-8.5 6.5t-10.5 9.5t-12.5 11.5t-9.5 11.5q-1 1 -1 4v2q1 5 9 17t19 27t24 30.5t24 28.5t18 20.5t8 7.5q-49 -17 -84 -39.5t-57 -45.5t-31 -44.5t-5 -36.5q2 -16 11.5 -28.5t21.5 -21.5t23 -14t16 -7q23 -7 42.5 -7h25.5q14 -1 31 -0.5t30 0.5q10 0 10 -6q4 0 10 -4
q3 -2 5 -4q0 -4 4 -8q2 -3 5 -4l3 -3l-3 -4q-2 0 -9 -0.5t-16 -0.5t-17 -0.5t-11 -0.5q-2 0 -6.5 -0.5t-9.5 -1.5q-6 -1 -13 -1q-35 -4 -64.5 -11t-59.5 -16.5t-64 -23t-76 -31.5q-75 -30 -116.5 -63t-56.5 -59q-14 -23 -12.5 -39.5t6.5 -20.5q2 -2 2 -4t1 -4q10 -10 31 -14
q18 -4 50.5 -3t85.5 13q79 22 125 47.5t70 47t31 37t9 17.5q1 5 -1 7q-1 1 -3 0q-22 -1 -32 -5.5t-8 -2.5q-36 -12 -66 -27t-51 -29q-26 -16 -45 -33l4 -2v-3l1 -2v-1h-1q-5 -1 -9 -1.5t-9 1.5q-9 5 -21 11l-22 11q-2 0 -2 2v2q-3 3 -2.5 5.5t0.5 5.5q0 2 1 3q0 1 1 1
q71 47 118.5 67t76.5 25t42 1.5t15 -4.5q3 -2 13 -7.5t21 -11.5q13 -7 29 -16q6 -16 1.5 -31t-12.5 -26q-10 -14 -23 -26q-44 -38 -99 -60.5t-107.5 -33t-96 -11.5t-64.5 5q-23 5 -50 15t-49 24.5t-34 33t-4 40.5q11 36 56.5 71t108.5 65t135.5 53.5t137.5 37.5
q-5 1 -26.5 6.5t-38.5 13.5q-32 17 -49.5 38t-19.5 40t3 35.5t15 31.5t23.5 27.5t28.5 24.5q35 27 87 53t103 47q30 13 56.5 26t46.5 24t31.5 17.5l11.5 6.5q2 -2 8.5 6t10.5 11q4 2 5 2t2 -1q2 -1 5 -3q2 -2 4 -3.5t4 -2.5q2 -3 -1.5 -0.5t-1.5 1.5zM518 757q0 1 1 1
q2 -1 4 -1h3q1 1 2 1q0 1 1 1h1q10 3 31 9.5t44.5 15t46 16.5t36.5 13q28 11 43.5 20.5t16.5 12.5q0 2 2 2q1 0 2 -1q0 -1 1 -1l1 -1l1 -1q-1 -4 0.5 -11t3.5 -14q2 -9 5 -18v-3q-2 -6 -14 -13.5t-27.5 -15t-31.5 -13.5t-26 -9l-62 -22q-1 -1 -4 -1q-3 -1 -2.5 -2t-0.5 -4
q1 -1 1 -2q1 0 1 -1t-1 -1v-6q0 -1 -3 -1.5t-5 -0.5h-3q-4 1 -17 0t-17 0h-5q-1 0 -2 1q-14 -4 -17 0q-1 1 -1 2q-4 8 -6.5 21.5t-3.5 15.5q-1 0 -1 1v1z" />
    <glyph glyph-name="Ecircumflex" unicode="&#xca;" horiz-adv-x="481" 
d="M615 856q1 6 6 16.5t10.5 21t10.5 18.5t6 9l2.5 5l2.5 5q0 1 2 1h1l34 -35q1 0 1 -2q0 -3 -4 -15q-2 -4 -6 -12.5t-9.5 -17.5t-10 -15.5t-5.5 -6.5q-1 -1 -3 -5v-4q-6 -12 -9.5 -29t-6 -33t-3 -27.5t-0.5 -12.5q0 -4 3 -7v-3v-2l-4 -4q-2 -2 -4 -3.5t-3 -2.5q-4 0 -5 3v2
q0 1 -1 2t-1 2q-6 5 -14.5 13.5t-10.5 11.5q-1 1 -1 3v4v4v17q0 7 1 16l-27 -19l-23 -16l2 -2q2 -2 2 -4q1 -1 -1 -1q-7 -3 -17 -6.5t-20.5 -8t-19.5 -9t-12 -7.5q-5 0 -9 4q-2 2 -3 4l-10 12q-4 5 -7 8.5t-5 4.5q-2 2 -1.5 4t1.5 3q0 1 2 1q2 1 7 2.5t9 6.5q4 2 8.5 3.5
t6.5 3.5h2q23 14 47 31t44 32q23 18 45 36zM750 725q1 -1 5 -5.5t9 -9.5t9 -9.5t4 -5.5t-0.5 -2t-0.5 -3v-3l-3 -1q-2 0 -4 -4q-1 -2 -2 -3q-41 -23 -80 -56.5t-70.5 -66t-51.5 -56.5t-23 -28q-4 -8 -5 -9l-1 -1l3 -1q2 -2 4.5 -5t2.5 -5q0 -1 -6 -7.5t-14.5 -14.5
t-15.5 -15t-8 -7q-3 0 -4.5 -1.5t-3.5 -2.5t-8.5 6.5t-10.5 9.5t-12.5 11.5t-9.5 11.5q-1 1 -1 4v2q1 5 9 17t19 27t24 30.5t24 28.5t18 20.5t8 7.5q-49 -17 -84 -39.5t-57 -45.5t-31 -44.5t-5 -36.5q2 -16 11.5 -28.5t21.5 -21.5t23 -14t16 -7q23 -7 42.5 -7h25.5
q14 -1 31 -0.5t30 0.5q10 0 10 -6q4 0 10 -4q3 -2 5 -4q0 -4 4 -8q2 -3 5 -4l3 -3l-3 -4q-2 0 -9 -0.5t-16 -0.5t-17 -0.5t-11 -0.5q-2 0 -6.5 -0.5t-9.5 -1.5q-6 -1 -13 -1q-35 -4 -64.5 -11t-59.5 -16.5t-64 -23t-76 -31.5q-75 -30 -116.5 -63t-56.5 -59
q-14 -23 -12.5 -39.5t6.5 -20.5q2 -2 2 -4t1 -4q10 -10 31 -14q18 -4 50.5 -3t85.5 13q79 22 125 47.5t70 47t31 37t9 17.5q1 5 -1 7q-1 1 -3 0q-22 -1 -32 -5.5t-8 -2.5q-36 -12 -66 -27t-51 -29q-26 -16 -45 -33l4 -2v-3l1 -2v-1h-1q-5 -1 -9 -1.5t-9 1.5q-9 5 -21 11
l-22 11q-2 0 -2 2v2q-3 3 -2.5 5.5t0.5 5.5q0 2 1 3q0 1 1 1q71 47 118.5 67t76.5 25t42 1.5t15 -4.5q3 -2 13 -7.5t21 -11.5q13 -7 29 -16q6 -16 1.5 -31t-12.5 -26q-10 -14 -23 -26q-44 -38 -99 -60.5t-107.5 -33t-96 -11.5t-64.5 5q-23 5 -50 15t-49 24.5t-34 33t-4 40.5
q11 36 56.5 71t108.5 65t135.5 53.5t137.5 37.5q-5 1 -26.5 6.5t-38.5 13.5q-32 17 -49.5 38t-19.5 40t3 35.5t15 31.5t23.5 27.5t28.5 24.5q35 27 87 53t103 47q30 13 56.5 26t46.5 24t31.5 17.5l11.5 6.5q2 -2 8.5 6t10.5 11q4 2 5 2t2 -1q2 -1 5 -3q2 -2 4 -3.5t4 -2.5
q2 -3 -1.5 -0.5t-1.5 1.5z" />
    <glyph glyph-name="Edieresis" unicode="&#xcb;" horiz-adv-x="481" 
d="M479 705q-1 0 -1 0.5t-1 0.5t-1 1q-2 0 -2.5 2.5t-1.5 4.5v2q0 1 1 1q3 5 9.5 15.5t10.5 14.5q0 1 0.5 1.5t0.5 1.5q0 2 2 4q1 1 1 2q6 8 12.5 10t10.5 1q1 0 1.5 -0.5t1.5 -0.5h1q8 -7 15 -12q6 -5 11 -9t7 -5q0 -4 -1 -7t-1 -5q0 -4 -5.5 -12.5t-13 -17t-15 -14
t-11.5 -3.5q0 1 -1 1q-2 0 -2 1q-5 2 -15 10.5t-13 11.5zM575 737q-1 2 -1.5 3.5t0.5 6.5t7.5 18.5t19.5 28.5q5 7 15 3q4 -2 9 -5l24 -20l1 -1l1 -2q2 -4 1 -12.5t-9 -19.5t-13 -15.5t-7 -5.5l-1 -1q0 -1 -1 -1t-1 -1l-1 -2l-1 -1l-2 -1q-5 2 -11.5 6.5t-13.5 9.5
q-8 5 -16 12zM750 725q1 -1 5 -5.5t9 -9.5t9 -9.5t4 -5.5t-0.5 -2t-0.5 -3v-3l-3 -1q-2 0 -4 -4q-1 -2 -2 -3q-41 -23 -80 -56.5t-70.5 -66t-51.5 -56.5t-23 -28q-4 -8 -5 -9l-1 -1l3 -1q2 -2 4.5 -5t2.5 -5q0 -1 -6 -7.5t-14.5 -14.5t-15.5 -15t-8 -7q-3 0 -4.5 -1.5
t-3.5 -2.5t-8.5 6.5t-10.5 9.5t-12.5 11.5t-9.5 11.5q-1 1 -1 4v2q1 5 9 17t19 27t24 30.5t24 28.5t18 20.5t8 7.5q-49 -17 -84 -39.5t-57 -45.5t-31 -44.5t-5 -36.5q2 -16 11.5 -28.5t21.5 -21.5t23 -14t16 -7q23 -7 42.5 -7h25.5q14 -1 31 -0.5t30 0.5q10 0 10 -6
q4 0 10 -4q3 -2 5 -4q0 -4 4 -8q2 -3 5 -4l3 -3l-3 -4q-2 0 -9 -0.5t-16 -0.5t-17 -0.5t-11 -0.5q-2 0 -6.5 -0.5t-9.5 -1.5q-6 -1 -13 -1q-35 -4 -64.5 -11t-59.5 -16.5t-64 -23t-76 -31.5q-75 -30 -116.5 -63t-56.5 -59q-14 -23 -12.5 -39.5t6.5 -20.5q2 -2 2 -4t1 -4
q10 -10 31 -14q18 -4 50.5 -3t85.5 13q79 22 125 47.5t70 47t31 37t9 17.5q1 5 -1 7q-1 1 -3 0q-22 -1 -32 -5.5t-8 -2.5q-36 -12 -66 -27t-51 -29q-26 -16 -45 -33l4 -2v-3l1 -2v-1h-1q-5 -1 -9 -1.5t-9 1.5q-9 5 -21 11l-22 11q-2 0 -2 2v2q-3 3 -2.5 5.5t0.5 5.5q0 2 1 3
q0 1 1 1q71 47 118.5 67t76.5 25t42 1.5t15 -4.5q3 -2 13 -7.5t21 -11.5q13 -7 29 -16q6 -16 1.5 -31t-12.5 -26q-10 -14 -23 -26q-44 -38 -99 -60.5t-107.5 -33t-96 -11.5t-64.5 5q-23 5 -50 15t-49 24.5t-34 33t-4 40.5q11 36 56.5 71t108.5 65t135.5 53.5t137.5 37.5
q-5 1 -26.5 6.5t-38.5 13.5q-32 17 -49.5 38t-19.5 40t3 35.5t15 31.5t23.5 27.5t28.5 24.5q35 27 87 53t103 47q30 13 56.5 26t46.5 24t31.5 17.5l11.5 6.5q2 -2 8.5 6t10.5 11q4 2 5 2t2 -1q2 -1 5 -3q2 -2 4 -3.5t4 -2.5q2 -3 -1.5 -0.5t-1.5 1.5z" />
    <glyph glyph-name="Igrave" unicode="&#xcc;" horiz-adv-x="422" 
d="M1047 735q0 -2 1 -7.5t2.5 -11.5t2 -11t-1.5 -5q-1 0 -13.5 -4.5t-30.5 -11t-38.5 -14.5t-39 -14.5t-31.5 -11.5t-15 -6q-25 -8 -13.5 -3.5t60.5 28.5q2 1 -8.5 -2t-18.5 -7t-15.5 -7.5t-14.5 -6.5q-8 -4 -15 -7q-11 -4 -19 -8q-7 -3 -12 -5t-3 0l29 22q12 8 15.5 12
t2.5 5l-2.5 2.5t0.5 3.5l33 19l-214 -24q-25 -44 -55 -95.5t-62 -107t-64.5 -111.5t-62.5 -108.5t-55.5 -99t-44.5 -82.5q6 0 21 1t29 2.5t23 2t2 -0.5q1 0 6.5 -1.5t11.5 -3.5t11 -4t6 -3q1 -2 7.5 -3.5t13.5 -3.5t12.5 -3t4.5 -1q-18 1 -33 0t-12 -3q1 0 7 -0.5t13 -0.5
h13.5h7.5q2 0 6 -1.5t6 -2.5q5 -2 5.5 -3t5.5 -2q10 -2 17 -3.5t4 -2.5t-18.5 -1h-50.5q-2 0 -6.5 -0.5t-19.5 -2t-43.5 -4.5t-77.5 -7q-6 -9 -14 -26t-11 -28q-2 -5 -0.5 -5.5t1.5 -1.5q-2 -9 -5 -12.5t-5.5 -4.5t-4 0l-1.5 1q0 -2 -8.5 5t-19.5 16q-12 11 -27 25q1 3 3 6
q2 2 3 5t3 7q-30 -5 -54 -10.5t-47.5 -12t-49.5 -15.5t-61 -21l-20 -9l-13 -5h-9l-38 42q-1 1 1.5 4t7.5 5q3 1 18 8t35 17.5t41 22t37 22.5l36 22.5t40.5 26.5t40 29t33.5 31q6 2 9 0q0 -1 3 -8q2 -2 7.5 -6.5t11 -10l10 -10t4.5 -6.5q0 -7 1.5 -4.5t-1.5 -4.5
q-4 -2 -18 -12.5l-30 -22.5q-18 -14 -41 -31q2 1 11 4q8 2 23 5t44 7q16 30 44 79.5t61.5 108t69.5 121t69 120t60.5 105t43.5 75.5l-97 -10v-4q0 -2 -1 -3t-1 -2q2 -3 2 -3.5t-9 -4.5q-19 -3 -33 -5q-12 -2 -22.5 -3t-10.5 1l-12 68q0 3 1 3t3 -1q1 0 3.5 1t0.5 3
q-1 0 -1 2v1h1q20 -3 47 -2.5t55 2.5t55 4t47 2q1 3 3 5t5 6q4 4 4.5 9t6.5 7q2 0 4 -1q3 -2 3 -4l19 -17q21 1 52 4t66 7t70.5 9t65.5 9.5t50.5 8.5t25.5 6t7.5 5t7.5 3q4 0 4.5 -5t0.5 -8q3 -4 8.5 -8t5.5 -7zM748 748q-2 -2 -7 -5.5t-8 -1.5h-1q-3 0 -18.5 2.5t-37.5 8
t-46.5 15t-46.5 24.5t-38 35.5t-19 47.5v2q0 1 1 2v2l-2 6l-1 1q-2 1 -2 3h2h2q1 -1 3 -1t3 -0.5t3 -0.5t4.5 -1t3.5 -1q5 -2 9.5 -3.5t10.5 -4.5q1 0 4.5 -1.5t5.5 -2.5q9 -4 17 -10q4 -3 6 -5t4.5 -3.5t4.5 -3.5l2 -1l8 -11q1 -2 0 -4l-2 -4h-1q-2 1 -7.5 3.5t-12 5
t-13 4.5t-10.5 2q2 -2 2.5 -3.5t4.5 -3.5q3 -2 9.5 -6t21.5 -10t40 -12t65 -12h2l2 2h2q4 0 6 1q2 0 3 1q3 -3 9.5 -15.5t6.5 -19.5v-2l4 -6v-2q0 -2 0.5 -3t0.5 -3v-3q0 -1 1 -1q0 -1 -1 -1z" />
    <glyph glyph-name="Iacute" unicode="&#xcd;" horiz-adv-x="422" 
d="M1047 735q0 -2 1 -7.5t2.5 -11.5t2 -11t-1.5 -5q-1 0 -13.5 -4.5t-30.5 -11t-38.5 -14.5t-39 -14.5t-31.5 -11.5t-15 -6q-25 -8 -13.5 -3.5t60.5 28.5q2 1 -8.5 -2t-18.5 -7t-15.5 -7.5t-14.5 -6.5q-8 -4 -15 -7q-11 -4 -19 -8q-7 -3 -12 -5t-3 0l29 22q12 8 15.5 12
t2.5 5l-2.5 2.5t0.5 3.5l33 19l-214 -24q-25 -44 -55 -95.5t-62 -107t-64.5 -111.5t-62.5 -108.5t-55.5 -99t-44.5 -82.5q6 0 21 1t29 2.5t23 2t2 -0.5q1 0 6.5 -1.5t11.5 -3.5t11 -4t6 -3q1 -2 7.5 -3.5t13.5 -3.5t12.5 -3t4.5 -1q-18 1 -33 0t-12 -3q1 0 7 -0.5t13 -0.5
h13.5h7.5q2 0 6 -1.5t6 -2.5q5 -2 5.5 -3t5.5 -2q10 -2 17 -3.5t4 -2.5t-18.5 -1h-50.5q-2 0 -6.5 -0.5t-19.5 -2t-43.5 -4.5t-77.5 -7q-6 -9 -14 -26t-11 -28q-2 -5 -0.5 -5.5t1.5 -1.5q-2 -9 -5 -12.5t-5.5 -4.5t-4 0l-1.5 1q0 -2 -8.5 5t-19.5 16q-12 11 -27 25q1 3 3 6
q2 2 3 5t3 7q-30 -5 -54 -10.5t-47.5 -12t-49.5 -15.5t-61 -21l-20 -9l-13 -5h-9l-38 42q-1 1 1.5 4t7.5 5q3 1 18 8t35 17.5t41 22t37 22.5l36 22.5t40.5 26.5t40 29t33.5 31q6 2 9 0q0 -1 3 -8q2 -2 7.5 -6.5t11 -10l10 -10t4.5 -6.5q0 -7 1.5 -4.5t-1.5 -4.5
q-4 -2 -18 -12.5l-30 -22.5q-18 -14 -41 -31q2 1 11 4q8 2 23 5t44 7q16 30 44 79.5t61.5 108t69.5 121t69 120t60.5 105t43.5 75.5l-97 -10v-4q0 -2 -1 -3t-1 -2q2 -3 2 -3.5t-9 -4.5q-19 -3 -33 -5q-12 -2 -22.5 -3t-10.5 1l-12 68q0 3 1 3t3 -1q1 0 3.5 1t0.5 3
q-1 0 -1 2v1h1q20 -3 47 -2.5t55 2.5t55 4t47 2q1 3 3 5t5 6q4 4 4.5 9t6.5 7q2 0 4 -1q3 -2 3 -4l19 -17q21 1 52 4t66 7t70.5 9t65.5 9.5t50.5 8.5t25.5 6t7.5 5t7.5 3q4 0 4.5 -5t0.5 -8q3 -4 8.5 -8t5.5 -7zM528 781q0 1 1 1q2 -1 4 -1h3q1 1 2 1q0 1 1 1h1q10 3 31 9.5
t44.5 15t46 16.5t36.5 13q28 11 43.5 20.5t16.5 12.5q0 2 2 2q1 0 2 -1q0 -1 1 -1l1 -1l1 -1q-1 -4 0.5 -11t3.5 -14q2 -9 5 -18v-3q-2 -6 -14 -13.5t-27.5 -15t-31.5 -13.5t-26 -9l-62 -22q-1 -1 -4 -1q-3 -1 -2.5 -2t-0.5 -4q1 -1 1 -2q1 0 1 -1t-1 -1v-6q0 -1 -3 -1.5
t-5 -0.5h-3q-4 1 -17 0t-17 0h-5q-1 0 -2 1q-14 -4 -17 0q-1 1 -1 2q-4 8 -6.5 21.5t-3.5 15.5q-1 0 -1 1v1z" />
    <glyph glyph-name="Icircumflex" unicode="&#xce;" horiz-adv-x="422" 
d="M714 896q0 6 4.5 17t9 21.5t9 18.5t4.5 9q0 2 2 5t4 5l3 3h1l34 -32q1 0 1 -2q0 -4 -4 -16q0 -5 -3.5 -13.5t-8 -17.5t-8.5 -15.5t-5 -6.5q-2 -2 -3 -6v-4q-5 -13 -7 -30.5t-3 -34t-1 -28v-12.5q0 -2 1 -3t1 -3v-2v-2q-1 -2 -3 -4t-3.5 -4t-2.5 -3q-3 -1 -5 3q0 1 -1 1
q0 1 -2 2l-2 2l-13 13t-13 10q-1 1 -1 6v4q0 1 -0.5 6.5t-0.5 11.5q-1 7 -1 16l-25 -20l-22 -18q1 -1 2 -3q2 -4 3 -5q2 0 1.5 -0.5t-1.5 -0.5q-6 -2 -16.5 -6t-20.5 -9t-18.5 -10.5t-11.5 -9.5q-4 0 -9 5q-2 2 -3 4q-6 6 -10 11l-7.5 7.5t-5.5 4.5q-2 2 -2.5 4t-0.5 3t2 1
q2 1 7 3t10 7q3 4 7 5t6 2h2q23 16 46 35t42 36q22 19 42 39zM1047 735q0 -2 1 -7.5t2.5 -11.5t2 -11t-1.5 -5q-1 0 -13.5 -4.5t-30.5 -11t-38.5 -14.5t-39 -14.5t-31.5 -11.5t-15 -6q-25 -8 -13.5 -3.5t60.5 28.5q2 1 -8.5 -2t-18.5 -7t-15.5 -7.5t-14.5 -6.5q-8 -4 -15 -7
q-11 -4 -19 -8q-7 -3 -12 -5t-3 0l29 22q12 8 15.5 12t2.5 5l-2.5 2.5t0.5 3.5l33 19l-214 -24q-25 -44 -55 -95.5t-62 -107t-64.5 -111.5t-62.5 -108.5t-55.5 -99t-44.5 -82.5q6 0 21 1t29 2.5t23 2t2 -0.5q1 0 6.5 -1.5t11.5 -3.5t11 -4t6 -3q1 -2 7.5 -3.5t13.5 -3.5
t12.5 -3t4.5 -1q-18 1 -33 0t-12 -3q1 0 7 -0.5t13 -0.5h13.5h7.5q2 0 6 -1.5t6 -2.5q5 -2 5.5 -3t5.5 -2q10 -2 17 -3.5t4 -2.5t-18.5 -1h-50.5q-2 0 -6.5 -0.5t-19.5 -2t-43.5 -4.5t-77.5 -7q-6 -9 -14 -26t-11 -28q-2 -5 -0.5 -5.5t1.5 -1.5q-2 -9 -5 -12.5t-5.5 -4.5
t-4 0l-1.5 1q0 -2 -8.5 5t-19.5 16q-12 11 -27 25q1 3 3 6q2 2 3 5t3 7q-30 -5 -54 -10.5t-47.5 -12t-49.5 -15.5t-61 -21l-20 -9l-13 -5h-9l-38 42q-1 1 1.5 4t7.5 5q3 1 18 8t35 17.5t41 22t37 22.5l36 22.5t40.5 26.5t40 29t33.5 31q6 2 9 0q0 -1 3 -8q2 -2 7.5 -6.5
t11 -10l10 -10t4.5 -6.5q0 -7 1.5 -4.5t-1.5 -4.5q-4 -2 -18 -12.5l-30 -22.5q-18 -14 -41 -31q2 1 11 4q8 2 23 5t44 7q16 30 44 79.5t61.5 108t69.5 121t69 120t60.5 105t43.5 75.5l-97 -10v-4q0 -2 -1 -3t-1 -2q2 -3 2 -3.5t-9 -4.5q-19 -3 -33 -5q-12 -2 -22.5 -3
t-10.5 1l-12 68q0 3 1 3t3 -1q1 0 3.5 1t0.5 3q-1 0 -1 2v1h1q20 -3 47 -2.5t55 2.5t55 4t47 2q1 3 3 5t5 6q4 4 4.5 9t6.5 7q2 0 4 -1q3 -2 3 -4l19 -17q21 1 52 4t66 7t70.5 9t65.5 9.5t50.5 8.5t25.5 6t7.5 5t7.5 3q4 0 4.5 -5t0.5 -8q3 -4 8.5 -8t5.5 -7z" />
    <glyph glyph-name="Idieresis" unicode="&#xcf;" horiz-adv-x="422" 
d="M587 769q-1 0 -1 0.5t-1 0.5t-1 1q-2 0 -2.5 3t-1.5 5v2q0 1 1 1q3 5 10 16.5t11 15.5q0 1 1 1.5t1 1.5q0 3 2 5q1 1 1 2q6 8 13 10t11 1q1 0 1.5 -0.5t1.5 -0.5h2l16 -12q6 -5 11.5 -9.5t7.5 -5.5q0 -5 -1 -8t-1 -5q0 -4 -6 -13.5t-14 -18.5t-16 -15t-12 -4q-1 0 -2 1
q-2 0 -2 2q-5 2 -15.5 11t-14.5 12zM684 771q-1 2 -1.5 4t0.5 7t8 19.5t21 30.5q3 5 7.5 5t8.5 -2t9 -5l26 -21l1 -1q0 -1 0.5 -1.5t0.5 -1.5q2 -4 1 -13.5t-10 -20.5q-8 -12 -13.5 -16.5t-7.5 -5.5l-1 -1q0 -1 -1 -1t-1 -1l-1 -3l-1 -1l-2 -1q-5 2 -12.5 7t-14.5 10
q-8 6 -17 13zM1047 735q0 -2 1 -7.5t2.5 -11.5t2 -11t-1.5 -5q-1 0 -13.5 -4.5t-30.5 -11t-38.5 -14.5t-39 -14.5t-31.5 -11.5t-15 -6q-25 -8 -13.5 -3.5t60.5 28.5q2 1 -8.5 -2t-18.5 -7t-15.5 -7.5t-14.5 -6.5q-8 -4 -15 -7q-11 -4 -19 -8q-7 -3 -12 -5t-3 0l29 22
q12 8 15.5 12t2.5 5l-2.5 2.5t0.5 3.5l33 19l-214 -24q-25 -44 -55 -95.5t-62 -107t-64.5 -111.5t-62.5 -108.5t-55.5 -99t-44.5 -82.5q6 0 21 1t29 2.5t23 2t2 -0.5q1 0 6.5 -1.5t11.5 -3.5t11 -4t6 -3q1 -2 7.5 -3.5t13.5 -3.5t12.5 -3t4.5 -1q-18 1 -33 0t-12 -3
q1 0 7 -0.5t13 -0.5h13.5h7.5q2 0 6 -1.5t6 -2.5q5 -2 5.5 -3t5.5 -2q10 -2 17 -3.5t4 -2.5t-18.5 -1h-50.5q-2 0 -6.5 -0.5t-19.5 -2t-43.5 -4.5t-77.5 -7q-6 -9 -14 -26t-11 -28q-2 -5 -0.5 -5.5t1.5 -1.5q-2 -9 -5 -12.5t-5.5 -4.5t-4 0l-1.5 1q0 -2 -8.5 5t-19.5 16
q-12 11 -27 25q1 3 3 6q2 2 3 5t3 7q-30 -5 -54 -10.5t-47.5 -12t-49.5 -15.5t-61 -21l-20 -9l-13 -5h-9l-38 42q-1 1 1.5 4t7.5 5q3 1 18 8t35 17.5t41 22t37 22.5l36 22.5t40.5 26.5t40 29t33.5 31q6 2 9 0q0 -1 3 -8q2 -2 7.5 -6.5t11 -10l10 -10t4.5 -6.5q0 -7 1.5 -4.5
t-1.5 -4.5q-4 -2 -18 -12.5l-30 -22.5q-18 -14 -41 -31q2 1 11 4q8 2 23 5t44 7q16 30 44 79.5t61.5 108t69.5 121t69 120t60.5 105t43.5 75.5l-97 -10v-4q0 -2 -1 -3t-1 -2q2 -3 2 -3.5t-9 -4.5q-19 -3 -33 -5q-12 -2 -22.5 -3t-10.5 1l-12 68q0 3 1 3t3 -1q1 0 3.5 1
t0.5 3q-1 0 -1 2v1h1q20 -3 47 -2.5t55 2.5t55 4t47 2q1 3 3 5t5 6q4 4 4.5 9t6.5 7q2 0 4 -1q3 -2 3 -4l19 -17q21 1 52 4t66 7t70.5 9t65.5 9.5t50.5 8.5t25.5 6t7.5 5t7.5 3q4 0 4.5 -5t0.5 -8q3 -4 8.5 -8t5.5 -7z" />
    <glyph glyph-name="Ntilde" unicode="&#xd1;" horiz-adv-x="414" 
d="M387 230q27 46 53 94q23 41 48 89.5t45 93.5q36 78 50.5 129t17.5 81.5t-1 43t-6 14.5q-3 -1 -9.5 0.5t-9.5 3.5q-2 1 -2 1.5t-2 2.5l-5 7l-2.5 2.5t-1.5 3.5q-1 1 -1 2t-1 2t-1 2q1 1 3 2q4 2 6 2l9 -4q14 -5 25.5 -11.5t19.5 -11.5q9 -6 16 -13q10 -13 14 -37
q3 -20 -1 -55t-22 -88q-11 -36 -23.5 -68t-30 -68t-41.5 -80t-59 -105q-58 -106 -84 -167t-32 -78q0 -2 -1 -4t-1 -10v-14q0 -5 -3 -7l-6 -4q-4 -2 -9 -2q-1 -1 -2 0q-2 0 -2 4q-6 4 -20 11q-7 4 -16 7q-1 1 -1 2q-2 2 -3 2q0 2 -2 6q-1 2 -2 3q-1 33 5 76t16.5 89
t22.5 90.5t23 79.5t18 58t7 25q2 3 1 3.5t-2 -0.5q-2 -1 -3 -3l-22 -33t-31.5 -46t-37 -53.5t-38.5 -55.5q-45 -64 -96 -138q19 13 44 27.5t47.5 26.5t39 20t18.5 9q-6 -4 -10 -12q-1 -2 -3.5 -4t-4.5 -4t-2 -5t-1 -5q-6 -9 -4 -9h-1q-2 -2 -13.5 -9t-24.5 -14.5t-23.5 -14
t-8.5 -6.5t12.5 6.5t21.5 11.5l15 7.5t13 5.5q7 3 13 5l-27 -18q-3 -2 -7 -5q-8 -6 -10 -8q4 0 6.5 2.5t3.5 2.5q10 4 9.5 3.5t-5 -3.5t-11 -7.5t-8.5 -6.5q-36 -23 -66 -44t-51 -38q-25 -19 -44 -36q-4 -4 -7.5 -5t-2.5 -4q-5 -2 -6 -1.5t-3 0.5q-3 -3 -6 -2q-2 0 -3 2
q-11 5 -20 9q-8 4 -13.5 7.5t-5.5 5.5q-2 0 -4 2q-1 1 -1 3q0 3 2 3t3 1q4 4 5.5 4.5t5.5 7.5q3 7 8.5 13.5t8.5 9.5q0 2 3.5 8t8.5 12l12 16l408 573q0 1 1 2q0 1 0.5 2t0.5 3q1 0 3 4q0 2 1 5q2 2 6 4q2 1 3 1l4 -5q4 -4 6 -4q2 -1 3 0l13 -5q2 -2 5 -4q6 -4 8 -4
q5 0 8 -3q1 -1 1 -2v-4q-4 -9 -8 -15q-6 -12 -11 -17q-1 -4 -1 -5.5t-2 -6.5q-25 -55 -46.5 -118.5t-37.5 -118.5q-19 -64 -35 -128zM332 680q-16 26 -17.5 35t4.5 11q9 2 26.5 9t35.5 14t34 10t24 -2q1 -1 5 -7q2 -3 3 -7q1 -2 3 -4q3 -3 11 -3q9 0 23.5 4t28 8.5t24 9
t11.5 4.5q2 1 6.5 -5t8.5 -14t6.5 -15.5t2.5 -10.5q-2 -3 -5 -3q-2 1 -3 0q-4 -2 -16 -8.5t-31 -12.5q-20 -7 -32 -9t-19.5 0t-12 7.5t-10.5 14.5q-2 2 -8 2h-6q-22 -5 -45 -14t-43 -19q-3 -1 -6 2q-2 1 -3 3z" />
    <glyph glyph-name="Ograve" unicode="&#xd2;" 
d="M544 694q8 -4 13 -13q4 -8 5.5 -22.5t-5.5 -38.5q-5 -25 -18.5 -59.5t-33.5 -74.5t-45.5 -83.5t-54.5 -85.5q-24 -39 -61.5 -89t-77.5 -97t-78 -86t-63 -56q-19 -13 -36 -21t-40 7l-34 28l-3 3q-4 4 -4 7q0 2 -1 11t2 29t12.5 53t29.5 82q14 33 34 72.5t43 80t47 79
t46 71.5t40 57.5t28 36.5q3 5 7 9l6 6t5 3t4 -2l1 -1q0 -1 1 -2t6 -1q2 0 3 -1t3 -2l4 -2q28 33 54 60q23 23 47 43t41 23q2 0 10 3t18 -5q1 0 3 -1t5 -2t8 -3q7 -3 14 -8q5 -4 7.5 -5.5t4.5 -2.5t3 0zM499 662q-23 -12 -53 -39.5t-63.5 -65.5t-69 -83.5t-69.5 -93.5
q-56 -80 -90.5 -143.5t-53.5 -108.5t-25 -70t-6 -27q-2 -5 1 -3q2 1 5 2l5 3q36 30 78 76q36 39 84 98.5t102 141.5q56 81 86.5 139t46.5 96q18 44 23 73zM620 724q-2 -2 -7 -5.5t-8 -1.5h-1q-3 0 -18.5 2.5t-37.5 8t-46.5 15t-46.5 24.5t-38 35.5t-19 47.5v2q0 1 1 2v2
l-2 6l-1 1q-2 1 -2 3h2h2q1 -1 3 -1t3 -0.5t3 -0.5t4.5 -1t3.5 -1q5 -2 9.5 -3.5t10.5 -4.5q1 0 4.5 -1.5t5.5 -2.5q9 -4 17 -10q4 -3 6 -5t4.5 -3.5t4.5 -3.5l2 -1l8 -11q1 -2 0 -4l-2 -4h-1q-2 1 -7.5 3.5t-12 5t-13 4.5t-10.5 2q2 -2 2.5 -3.5t4.5 -3.5q3 -2 9.5 -6
t21.5 -10t40 -12t65 -12h2l2 2h2q4 0 6 1q2 0 3 1q3 -3 9.5 -15.5t6.5 -19.5v-2l4 -6v-2q0 -2 0.5 -3t0.5 -3v-3q0 -1 1 -1q0 -1 -1 -1z" />
    <glyph glyph-name="Oacute" unicode="&#xd3;" 
d="M544 694q8 -4 13 -13q4 -8 5.5 -22.5t-5.5 -38.5q-5 -25 -18.5 -59.5t-33.5 -74.5t-45.5 -83.5t-54.5 -85.5q-24 -39 -61.5 -89t-77.5 -97t-78 -86t-63 -56q-19 -13 -36 -21t-40 7l-34 28l-3 3q-4 4 -4 7q0 2 -1 11t2 29t12.5 53t29.5 82q14 33 34 72.5t43 80t47 79
t46 71.5t40 57.5t28 36.5q3 5 7 9l6 6t5 3t4 -2l1 -1q0 -1 1 -2t6 -1q2 0 3 -1t3 -2l4 -2q28 33 54 60q23 23 47 43t41 23q2 0 10 3t18 -5q1 0 3 -1t5 -2t8 -3q7 -3 14 -8q5 -4 7.5 -5.5t4.5 -2.5t3 0zM499 662q-23 -12 -53 -39.5t-63.5 -65.5t-69 -83.5t-69.5 -93.5
q-56 -80 -90.5 -143.5t-53.5 -108.5t-25 -70t-6 -27q-2 -5 1 -3q2 1 5 2l5 3q36 30 78 76q36 39 84 98.5t102 141.5q56 81 86.5 139t46.5 96q18 44 23 73zM359 781q0 1 1 1q2 -1 4 -1h3h1q1 0 1 0.5t1 0.5q0 1 1 1h1q10 3 32.5 10t47.5 15.5t49 17t38 14.5q29 11 45.5 21
t17.5 13q0 2 2 2h2l1 -1l1 -2l1 -1q-1 -4 0.5 -11t3.5 -15q3 -9 6 -19v-3q-2 -7 -14.5 -15t-29 -15.5t-33.5 -14t-28 -9.5l-65 -23q-1 -1 -4 -1q-4 -1 -3.5 -2t-0.5 -5q1 -1 1 -2q2 0 2 -1t-2 -1v-6q0 -1 -3 -1.5t-5 -0.5h-3q-4 1 -18 0t-18 0h-5q-1 0 -2 1q-15 -4 -18 0
q-1 1 -1 2q-5 8 -7.5 22.5t-3.5 16.5q-1 0 -1 1v1q1 4 1 6t1 4z" />
    <glyph glyph-name="Ocircumflex" unicode="&#xd4;" 
d="M544 694q8 -4 13 -13q4 -8 5.5 -22.5t-5.5 -38.5q-5 -25 -18.5 -59.5t-33.5 -74.5t-45.5 -83.5t-54.5 -85.5q-24 -39 -61.5 -89t-77.5 -97t-78 -86t-63 -56q-19 -13 -36 -21t-40 7l-34 28l-3 3q-4 4 -4 7q0 2 -1 11t2 29t12.5 53t29.5 82q14 33 34 72.5t43 80t47 79
t46 71.5t40 57.5t28 36.5q3 5 7 9l6 6t5 3t4 -2l1 -1q0 -1 1 -2t6 -1q2 0 3 -1t3 -2l4 -2q28 33 54 60q23 23 47 43t41 23q2 0 10 3t18 -5q1 0 3 -1t5 -2t8 -3q7 -3 14 -8q5 -4 7.5 -5.5t4.5 -2.5t3 0zM499 662q-23 -12 -53 -39.5t-63.5 -65.5t-69 -83.5t-69.5 -93.5
q-56 -80 -90.5 -143.5t-53.5 -108.5t-25 -70t-6 -27q-2 -5 1 -3q2 1 5 2l5 3q36 30 78 76q36 39 84 98.5t102 141.5q56 81 86.5 139t46.5 96q18 44 23 73zM575 877q1 6 7.5 17t13.5 21.5t13 18.5t7 9l7 11q0 1 2 1h1l33 -40v-2q0 -2 -1 -6t-4 -11q-2 -5 -7.5 -13.5t-12 -17
t-12 -15t-6.5 -6.5q-2 -2 -3 -6q0 -1 -1 -2t-1 -2q-7 -12 -12.5 -30t-9 -35t-5.5 -29t-2 -13q0 -2 1.5 -4.5t2.5 -4.5q1 -1 0 -4t-4 -5t-7.5 -1t-10.5 7q-5 5 -13 15t-11 13v7v5v6t1 11l2 16q-16 -10 -35.5 -21t-37.5 -20t-32.5 -15.5t-19.5 -6.5q-3 0 -5.5 1.5t-4.5 3.5
q-3 2 -4 4q-7 7 -11 13q-5 5 -8 9t-5 6t-1.5 4.5t1.5 3.5q0 1 2 1q24 6 58.5 24t65.5 36.5t51.5 33t17.5 12.5z" />
    <glyph glyph-name="Otilde" unicode="&#xd5;" 
d="M544 694q8 -4 13 -13q4 -8 5.5 -22.5t-5.5 -38.5q-5 -25 -18.5 -59.5t-33.5 -74.5t-45.5 -83.5t-54.5 -85.5q-24 -39 -61.5 -89t-77.5 -97t-78 -86t-63 -56q-19 -13 -36 -21t-40 7l-34 28l-3 3q-4 4 -4 7q0 2 -1 11t2 29t12.5 53t29.5 82q14 33 34 72.5t43 80t47 79
t46 71.5t40 57.5t28 36.5q3 5 7 9l6 6t5 3t4 -2l1 -1q0 -1 1 -2t6 -1q2 0 3 -1t3 -2l4 -2q28 33 54 60q23 23 47 43t41 23q2 0 10 3t18 -5q1 0 3 -1t5 -2t8 -3q7 -3 14 -8q5 -4 7.5 -5.5t4.5 -2.5t3 0zM499 662q-23 -12 -53 -39.5t-63.5 -65.5t-69 -83.5t-69.5 -93.5
q-56 -80 -90.5 -143.5t-53.5 -108.5t-25 -70t-6 -27q-2 -5 1 -3q2 1 5 2l5 3q36 30 78 76q36 39 84 98.5t102 141.5q56 81 86.5 139t46.5 96q18 44 23 73zM386 730q-17 28 -19 37.5t5 11.5q10 3 28.5 10.5t38 14.5t37 10.5t25.5 -2.5q2 -2 5 -8q2 -4 4 -7q1 -2 3 -4
q3 -3 12 -3q10 0 25.5 4t30 9.5t25.5 10t12 4.5q3 1 7.5 -5.5t8.5 -15t7 -17t3 -11.5q-2 -3 -5 -3q-2 1 -3 0q-5 -2 -18 -9t-33 -13q-22 -8 -35 -10t-21 0t-13 8.5t-11 15.5q-2 2 -9 2h-6q-23 -5 -48 -15t-47 -21q-3 -1 -6 2q-2 2 -3 4z" />
    <glyph glyph-name="Odieresis" unicode="&#xd6;" 
d="M443 767q-1 0 -1 0.5t-1 0.5t-1 1q-2 0 -2.5 3t-1.5 5v2q0 1 1 1q3 5 10 16.5t11 15.5q0 1 1 1.5t1 1.5q0 3 2 5q1 1 1 2q7 9 13.5 11t10.5 1q1 0 1.5 -0.5t1.5 -0.5l1 -1q9 -7 17 -12q7 -5 12 -9.5t7 -5.5q0 -4 -1 -7t-1 -6q0 -4 -6 -13.5t-14 -18.5t-16 -15t-12 -4
l-1 1q-2 0 -2 2q-3 1 -7.5 4t-9 7t-8.5 7t-6 5zM531 750q-2 4 -1 11q1 5 8 19.5t21 30.5q4 5 8.5 5t8.5 -2t9 -5l26 -22l1 -1l1 -2q2 -4 1 -13.5t-10 -20.5q-9 -12 -14 -17t-7 -6l-2 -1q0 -1 -1 -1t-1 -1l-1 -2l-1 -1l-2 -1q-5 2 -12.5 7t-14.5 10q-9 6 -17 13zM544 694
q8 -4 13 -13q4 -8 5.5 -22.5t-5.5 -38.5q-5 -25 -18.5 -59.5t-33.5 -74.5t-45.5 -83.5t-54.5 -85.5q-24 -39 -61.5 -89t-77.5 -97t-78 -86t-63 -56q-19 -13 -36 -21t-40 7l-34 28l-3 3q-4 4 -4 7q0 2 -1 11t2 29t12.5 53t29.5 82q14 33 34 72.5t43 80t47 79t46 71.5t40 57.5
t28 36.5q3 5 7 9l6 6t5 3t4 -2l1 -1q0 -1 1 -2t6 -1q2 0 3 -1t3 -2l4 -2q28 33 54 60q23 23 47 43t41 23q2 0 10 3t18 -5q1 0 3 -1t5 -2t8 -3q7 -3 14 -8q5 -4 7.5 -5.5t4.5 -2.5t3 0zM499 662q-23 -12 -53 -39.5t-63.5 -65.5t-69 -83.5t-69.5 -93.5q-56 -80 -90.5 -143.5
t-53.5 -108.5t-25 -70t-6 -27q-2 -5 1 -3q2 1 5 2l5 3q36 30 78 76q36 39 84 98.5t102 141.5q56 81 86.5 139t46.5 96q18 44 23 73z" />
    <glyph glyph-name="multiply" unicode="&#xd7;" horiz-adv-x="460" 
d="M528 473q0 -2 4.5 -6.5t9.5 -8.5q6 -5 14 -10l-14 -28q0 -1 -1 -2t-2 -1.5t-2 -1.5l-23 -14q-1 -1 -19 -14.5l-46 -34.5t-61.5 -46t-65.5 -48q1 -10 2 -24t4 -29t8.5 -30t14.5 -28q3 -5 11.5 2.5t16.5 18.5q10 13 21 31q3 2 3.5 -3t-1 -14t-5.5 -19.5t-8 -18.5
q-2 -4 -2.5 -3t-2.5 -3q-2 -5 -4 -8t-2 -5q-2 -2 -5.5 -3.5t-7.5 -2.5q-4 -2 -9 -2q-8 -3 -14 -5q-5 -2 -10.5 -3t-7.5 -1q-8 0 -17 9.5t-16 23.5q-2 5 -7 20.5t-14 57.5l-90 -70q-26 -19 -42.5 -31t-15.5 -13q-1 -2 -4.5 -1t-4.5 1q1 1 -4.5 5.5t-12.5 9.5t-13 9.5t-7 5.5
t-4 6q-1 2 -1 3q-2 2 1.5 5.5t9.5 7.5t12.5 8.5t8.5 7.5q24 18 51 38q23 17 52 39t59 45q0 22 -1 41t-1 47v10q-6 0 -13 5.5t-7 12.5q2 0 4 2q1 1 1 3q8 15 15 27q5 11 10 20t5 11q0 3 0.5 6.5t3.5 2.5q4 -2 13 -7.5t18 -11.5t16.5 -10.5t9.5 -4.5q-4 -14 -8 -31
q-3 -14 -7 -34.5t-7 -44.5q45 33 90.5 66t87.5 73v8q4 4 9 2t5 -7q2 0 6 -2q2 -1 3 -1q2 -1 3.5 -1.5t3.5 -1.5t3 -2z" />
    <glyph glyph-name="Oslash" unicode="&#xd8;" horiz-adv-x="364" 
d="M581 622l5 -15t3 -34t-10 -55t-32.5 -79.5t-66 -107t-109.5 -136.5q-68 -78 -129.5 -128t-110.5 -79q-18 -22 -26 -38q-4 -5 -5.5 -8.5t-3.5 -5.5q-2 -3 -2 -4q11 7 22 13q9 5 17.5 10t12.5 8q3 2 -1 -1.5t-10 -8.5q-7 -5 -16 -13q-7 -7 -8 -9t-1 -3q1 2 6 6.5t10.5 8
t9.5 6.5t3 2q-2 -2 -4.5 -5t-5.5 -7q-4 -4 -7 -9l-6 -9q-1 -4 -10 -13.5t-14 -16.5q1 -2 -6.5 -11t-16.5 -20q-11 -12 -24 -27q-3 0 -9 6.5t-13 14t-12 15t-5 10.5q-4 1 -3.5 4t1.5 8q2 0 4 3q1 1 1 3q-2 5 -2 6.5t4 5.5q10 12 15.5 19t9.5 14.5t9 17.5t15 28
q-5 0 -11.5 3.5t-13 8t-12 10t-7.5 8.5q1 -1 -3 5.5t-8.5 20.5t-6 37.5t6.5 56.5q6 21 20 61t48 101t94.5 145t159.5 192l11 13l6 7q1 0 2.5 0.5t2.5 0.5h2q-1 -5 1 -8.5t4 -3.5q1 0 3 -1q4 -2 4 -6q15 15 33 26q15 10 34 19t40 12q12 21 19.5 33t12 21t8 17t8.5 20q1 2 1 5
v1q0 2 0.5 5t4.5 5h1q1 -1 2 0q4 0 8 -4l4 -4l2 -2q2 -4 5 -7l8 -6q8 -6 8 -11q3 -4 7 -8q3 -4 5.5 -8t4.5 -9q-1 -5 -5 -13.5t-7 -12.5h-5q-2 0 -7 -5q-2 -3 -4 -5l-18 -32q4 -4 12 -13.5t17 -17.5q4 -5 8 -9l6 -8t5 -6zM60 35q1 0 0.5 -1t1.5 -0.5t9 4l23 11.5
q29 54 59.5 107t56 96t43 71.5t20.5 33.5q2 4 17.5 32t37.5 66.5t47.5 82t47.5 79.5q-16 -8 -38 -27.5t-47 -45.5t-51 -57t-50 -62q-73 -97 -109.5 -168t-52.5 -119q-18 -56 -17 -96v-3q0 -4 2 -4zM414 348q49 65 75 116.5t37.5 88.5t12.5 57.5t0 22.5q-1 1 -5 2
q-3 1 -8.5 1.5t-15.5 -0.5l-314 -530q10 8 35.5 34.5t57.5 61.5t65.5 74t59.5 72z" />
    <glyph glyph-name="Ugrave" unicode="&#xd9;" horiz-adv-x="344" 
d="M666 695q3 -3 3 -2v-2v-6q-1 -1 -1 -2v-3q-54 -93 -94.5 -156.5t-67.5 -104.5q-32 -48 -53 -77q-5 -5 -6 -9t-4 -8q-4 -4 -14 -20q-8 -14 -23.5 -42t-41.5 -78q-49 -98 -70.5 -142.5t-24.5 -55.5q-1 -2 -0.5 -3t0.5 -2v-2q1 -2 0 -3.5t0 -4.5t6.5 -6.5t21.5 -8.5
q3 0 1 -5q-4 -2 -7 -5t-15 -1l-24 4l-10 2t-10.5 2t-13.5 3q-20 4 -19 16.5t6 25.5q9 26 26.5 62t35 69t30 56l12.5 23q-45 -43 -83 -77t-70 -61.5t-58.5 -51t-48.5 -45.5l-2 -2l-4 -2t-3 -3l-5.5 2.5t-12.5 6t-13.5 7.5t-9.5 6l-2 1q-5 2 -6 5q-2 2 -4 2q-1 1 1 5
q2 1 1.5 1t0.5 1q0 1 2 5q12 20 39.5 60t61 87.5t69 97.5t63.5 90q77 109 108 168.5t30 64.5q-1 2 -1.5 5.5t-3.5 6.5q-3 7 -8.5 12t-10.5 9q-6 4 -12 7q-4 2 -1.5 4.5t4.5 3.5h2l10 -4q1 0 1.5 -0.5t1.5 -0.5q1 -2 7 -4q3 -1 6 -1q2 0 16.5 -9t29.5 -23q13 -11 16 -25
q2 -7 2 -13q1 -10 -15 -39.5t-41 -68t-54.5 -80.5t-55.5 -79t-45 -63t-22 -31q-5 -7 -7 -11t-4 -6q-2 -3 -2 -5q21 18 51 45t58 53q33 30 67 61q17 28 42 65.5t52 78.5l54 82t49 74.5t37.5 56t19.5 27.5l2 5l2 8t1 6q0 3 2 3.5t2 4.5q2 0 5 -3v-2q0 -1 1 -1l14 -11v-1
q1 -1 2 -1q2 -2 4.5 -2t4.5 -1t6.5 -5t8.5 -8q2 -2 5 -2zM506 632q-2 -2 -7 -5.5t-8 -1.5h-1q-3 0 -18.5 2.5t-37.5 8t-46.5 15t-46.5 24.5t-37.5 35.5t-19.5 47.5v2q0 1 1 2v2l-2 6l-1 1q-2 1 -2 3h2h2q1 -1 3 -1t3 -0.5t3 -0.5t4.5 -1t3.5 -1q5 -2 9.5 -3.5t10.5 -4.5
q1 0 4.5 -1.5t5.5 -2.5q9 -4 17 -10q4 -3 6 -5t4.5 -3.5t4.5 -3.5l2 -1l8 -11q1 -2 0 -4l-2 -4h-1q-2 1 -7.5 3.5t-12 5t-13 4.5t-10.5 2q2 -2 2.5 -3.5t4.5 -3.5q3 -2 9.5 -6t21.5 -10t40 -12t65 -12h2l2 2h2q4 0 6 1q2 0 3 1q3 -3 9.5 -15.5t6.5 -19.5v-2l4 -6v-2
q0 -2 0.5 -3t0.5 -3v-3q0 -1 1 -1q0 -1 -1 -1z" />
    <glyph glyph-name="Uacute" unicode="&#xda;" horiz-adv-x="344" 
d="M666 695q3 -3 3 -2v-2v-6q-1 -1 -1 -2v-3q-54 -93 -94.5 -156.5t-67.5 -104.5q-32 -48 -53 -77q-5 -5 -6 -9t-4 -8q-4 -4 -14 -20q-8 -14 -23.5 -42t-41.5 -78q-49 -98 -70.5 -142.5t-24.5 -55.5q-1 -2 -0.5 -3t0.5 -2v-2q1 -2 0 -3.5t0 -4.5t6.5 -6.5t21.5 -8.5
q3 0 1 -5q-4 -2 -7 -5t-15 -1l-24 4l-10 2t-10.5 2t-13.5 3q-20 4 -19 16.5t6 25.5q9 26 26.5 62t35 69t30 56l12.5 23q-45 -43 -83 -77t-70 -61.5t-58.5 -51t-48.5 -45.5l-2 -2l-4 -2t-3 -3l-5.5 2.5t-12.5 6t-13.5 7.5t-9.5 6l-2 1q-5 2 -6 5q-2 2 -4 2q-1 1 1 5
q2 1 1.5 1t0.5 1q0 1 2 5q12 20 39.5 60t61 87.5t69 97.5t63.5 90q77 109 108 168.5t30 64.5q-1 2 -1.5 5.5t-3.5 6.5q-3 7 -8.5 12t-10.5 9q-6 4 -12 7q-4 2 -1.5 4.5t4.5 3.5h2l10 -4q1 0 1.5 -0.5t1.5 -0.5q1 -2 7 -4q3 -1 6 -1q2 0 16.5 -9t29.5 -23q13 -11 16 -25
q2 -7 2 -13q1 -10 -15 -39.5t-41 -68t-54.5 -80.5t-55.5 -79t-45 -63t-22 -31q-5 -7 -7 -11t-4 -6q-2 -3 -2 -5q21 18 51 45t58 53q33 30 67 61q17 28 42 65.5t52 78.5l54 82t49 74.5t37.5 56t19.5 27.5l2 5l2 8t1 6q0 3 2 3.5t2 4.5q2 0 5 -3v-2q0 -1 1 -1l14 -11v-1
q1 -1 2 -1q2 -2 4.5 -2t4.5 -1t6.5 -5t8.5 -8q2 -2 5 -2zM319 703q0 1 1 1q2 -1 4.5 -1h3.5q1 1 2 1q0 1 1 1h1q11 3 34 10.5t49 16.5t50.5 17.5t39.5 14.5q31 11 48 22t18 14q0 2 2 2q1 0 2 -1q0 -1 1 -1l1 -1l1 -1q-1 -5 0.5 -12.5t3.5 -15.5q3 -9 6 -19v-3
q-2 -7 -15 -15.5t-30 -16t-34.5 -14t-28.5 -10.5l-68 -24q-1 -1 -4 -1q-4 -1 -3 -2t0 -4v-1q0 -1 0.5 -1t0.5 -1q1 0 1 -1t-1 -1v-6q0 -1 -3.5 -1.5t-5.5 -0.5h-3q-5 1 -19 -0.5t-19 0.5h-5q-1 0 -2 1q-16 -6 -19 0q-1 1 -1 2q-2 4 -4 10.5t-3.5 13t-2.5 11t-1 5.5
q-1 0 -1 1v1z" />
    <glyph glyph-name="Ucircumflex" unicode="&#xdb;" horiz-adv-x="344" 
d="M666 695q3 -3 3 -2v-2v-6q-1 -1 -1 -2v-3q-54 -93 -94.5 -156.5t-67.5 -104.5q-32 -48 -53 -77q-5 -5 -6 -9t-4 -8q-4 -4 -14 -20q-8 -14 -23.5 -42t-41.5 -78q-49 -98 -70.5 -142.5t-24.5 -55.5q-1 -2 -0.5 -3t0.5 -2v-2q1 -2 0 -3.5t0 -4.5t6.5 -6.5t21.5 -8.5
q3 0 1 -5q-4 -2 -7 -5t-15 -1l-24 4l-10 2t-10.5 2t-13.5 3q-20 4 -19 16.5t6 25.5q9 26 26.5 62t35 69t30 56l12.5 23q-45 -43 -83 -77t-70 -61.5t-58.5 -51t-48.5 -45.5l-2 -2l-4 -2t-3 -3l-5.5 2.5t-12.5 6t-13.5 7.5t-9.5 6l-2 1q-5 2 -6 5q-2 2 -4 2q-1 1 1 5
q2 1 1.5 1t0.5 1q0 1 2 5q12 20 39.5 60t61 87.5t69 97.5t63.5 90q77 109 108 168.5t30 64.5q-1 2 -1.5 5.5t-3.5 6.5q-3 7 -8.5 12t-10.5 9q-6 4 -12 7q-4 2 -1.5 4.5t4.5 3.5h2l10 -4q1 0 1.5 -0.5t1.5 -0.5q1 -2 7 -4q3 -1 6 -1q2 0 16.5 -9t29.5 -23q13 -11 16 -25
q2 -7 2 -13q1 -10 -15 -39.5t-41 -68t-54.5 -80.5t-55.5 -79t-45 -63t-22 -31q-5 -7 -7 -11t-4 -6q-2 -3 -2 -5q21 18 51 45t58 53q33 30 67 61q17 28 42 65.5t52 78.5l54 82t49 74.5t37.5 56t19.5 27.5l2 5l2 8t1 6q0 3 2 3.5t2 4.5q2 0 5 -3v-2q0 -1 1 -1l14 -11v-1
q1 -1 2 -1q2 -2 4.5 -2t4.5 -1t6.5 -5t8.5 -8q2 -2 5 -2zM511 787q1 6 7 17t13 21.5t13 18.5t7 9l8 10q0 2 2 2q1 0 1 -1l32 -40q1 0 1 -2q0 -1 -5 -16q-2 -4 -8 -12.5t-12 -17.5t-11.5 -15.5t-7.5 -6.5q-1 -1 -3 -5q0 -1 -0.5 -2t-0.5 -2q-7 -12 -12.5 -30t-9 -34.5
t-5 -28.5t-1.5 -13q0 -2 1 -4.5t2 -4.5q1 -1 0 -4t-4 -5t-7.5 -1t-10.5 7q-5 5 -13 14.5t-10 13.5q-1 1 -0.5 3t0.5 4v4v6t1 11q0 7 1 16q-15 -10 -34.5 -20.5t-37.5 -19.5t-32 -15.5t-19 -6.5q-3 0 -5.5 1.5t-4.5 3.5q-3 2 -4 4q-6 7 -10 13q-4 5 -7.5 9t-5.5 6t-1.5 4
t1.5 3q0 1 2 1q24 6 58 23.5t64.5 36.5t50.5 33t17 12z" />
    <glyph glyph-name="Udieresis" unicode="&#xdc;" horiz-adv-x="344" 
d="M666 695q3 -3 3 -2v-2v-6q-1 -1 -1 -2v-3q-54 -93 -94.5 -156.5t-67.5 -104.5q-32 -48 -53 -77q-5 -5 -6 -9t-4 -8q-4 -4 -14 -20q-8 -14 -23.5 -42t-41.5 -78q-49 -98 -70.5 -142.5t-24.5 -55.5q-1 -2 -0.5 -3t0.5 -2v-2q1 -2 0 -3.5t0 -4.5t6.5 -6.5t21.5 -8.5
q3 0 1 -5q-4 -2 -7 -5t-15 -1l-24 4l-10 2t-10.5 2t-13.5 3q-20 4 -19 16.5t6 25.5q9 26 26.5 62t35 69t30 56l12.5 23q-45 -43 -83 -77t-70 -61.5t-58.5 -51t-48.5 -45.5l-2 -2l-4 -2t-3 -3l-5.5 2.5t-12.5 6t-13.5 7.5t-9.5 6l-2 1q-5 2 -6 5q-2 2 -4 2q-1 1 1 5
q2 1 1.5 1t0.5 1q0 1 2 5q12 20 39.5 60t61 87.5t69 97.5t63.5 90q77 109 108 168.5t30 64.5q-1 2 -1.5 5.5t-3.5 6.5q-3 7 -8.5 12t-10.5 9q-6 4 -12 7q-4 2 -1.5 4.5t4.5 3.5h2l10 -4q1 0 1.5 -0.5t1.5 -0.5q1 -2 7 -4q3 -1 6 -1q2 0 16.5 -9t29.5 -23q13 -11 16 -25
q2 -7 2 -13q1 -10 -15 -39.5t-41 -68t-54.5 -80.5t-55.5 -79t-45 -63t-22 -31q-5 -7 -7 -11t-4 -6q-2 -3 -2 -5q21 18 51 45t58 53q33 30 67 61q17 28 42 65.5t52 78.5l54 82t49 74.5t37.5 56t19.5 27.5l2 5l2 8t1 6q0 3 2 3.5t2 4.5q2 0 5 -3v-2q0 -1 1 -1l14 -11v-1
q1 -1 2 -1q2 -2 4.5 -2t4.5 -1t6.5 -5t8.5 -8q2 -2 5 -2zM366 661q-1 0 -1 0.5t-1 0.5t-1 1q-2 0 -2.5 2.5t-1.5 4.5v2q0 1 1 1q3 5 9.5 16t10.5 16q0 1 0.5 1.5t0.5 1.5q0 2 2 4l2 2q6 8 12.5 10t10.5 1q1 0 2 -0.5t2 -0.5h1l16 -12q6 -5 11 -9.5t7 -5.5q0 -4 -1 -7t-1 -5
q0 -4 -5.5 -13t-13.5 -18t-16 -14.5t-12 -3.5q0 1 -1 1q-2 0 -2 1q-5 2 -15.5 11t-13.5 12zM456 653q-1 2 -1.5 3.5t0.5 6.5t8 19t20 30q7 7 16 3q4 -2 9 -5l25 -21l1 -1l1 -2q2 -4 1.5 -13t-9.5 -20q-8 -12 -13.5 -16.5t-7.5 -5.5l-1 -1q0 -1 -1 -1t-1 -1l-1 -2l-1 -1
l-1 -2h-1q-5 2 -12 7l-14 10q-8 6 -17 13z" />
    <glyph glyph-name="Yacute" unicode="&#xdd;" horiz-adv-x="476" 
d="M836 -117q-4 -15 -40.5 -16.5t-97.5 10.5t-142 38t-173 66q-37 -66 -70.5 -128t-60 -110t-42.5 -77.5t-18 -30.5q-2 -2 -11.5 -19t-21.5 -36t-24.5 -33.5t-19.5 -10.5h-5q-7 0 -11 3q-3 1 -7 3.5t-7 4.5q-2 1 -9 5.5t-9 5.5q-10 5 -8 6t-2 5q-12 21 -24 63.5t-20.5 96
t-13 114.5t-2 120t13 112t31.5 90q2 4 7 9q2 1 5 2q2 1 5 2t6 1q6 1 13 0.5t15 -1.5q10 -2 20.5 -9t21.5 -16.5t22.5 -19.5t25.5 -17l109 149q13 17 30 41.5t35.5 51.5t36 54.5l31.5 49.5t23.5 36t11.5 16q2 5 4 11q1 2 1 4v3q1 1 5 0q10 -9 19 -15q8 -6 14.5 -10.5
t8.5 -5.5l2 -2q1 -1 1 -2t1 -2q2 -5 0 -10l-3 -7t-7 -16.5t-7.5 -19t-4.5 -13.5q-1 -3 -4.5 -10.5t-5.5 -3.5l-4 4q0 1 -1 2q-2 2 -3 1t-10 -15t-23 -35.5t-32 -48.5t-36.5 -54t-36.5 -52t-32 -43q30 17 63 43q29 22 64.5 55.5t73.5 81.5l201 341q3 5 10.5 10.5t8.5 11.5v8
q2 7 3.5 3.5t3.5 -4.5l4 -3l7 -7q3 -3 5 -6.5t4 -5.5q0 -3 3 -4t7 -5l5 -4q2 -1 3 -4q2 -6 2 -12q0 -2 -3 -12.5t-11.5 -30t-24.5 -49t-42 -70.5q-9 -12 -19.5 -27t-21.5 -31t-21 -31.5t-18 -27.5q-8 -11 -15 -22q-6 -9 -11 -17.5t-7 -10.5l-180 -331q13 -7 41 -18t64 -23
t76.5 -23.5t78.5 -18.5t70 -8t52 7q-7 9 -9 16t-1 11t3 6t4 2q3 -6 13.5 -15.5t21 -20.5t18 -22.5t4.5 -22.5zM324 7q-18 9 -41.5 23t-41.5 25q-19 -14 -30.5 -24t-15.5 -12q-7 -5 -11 -10t-9 -7q-4 -2 -6.5 -3.5t-7.5 -2.5l-38 36q-1 2 -1 5q0 4 7 7q5 6 11 14q5 7 12 16.5
t15 20.5q-5 3 -13 11.5t-17.5 17.5t-18.5 15t-15 4q-5 1 -14 -17.5t-17.5 -53t-14.5 -83t-5.5 -107.5t9.5 -126t31 -138q0 -2 2.5 -2.5t8 3.5t13 13t17.5 26zM436 204q-1 -1 -18 -13.5t-42.5 -31t-55.5 -41t-56 -43.5q45 -26 78 -39zM347 588q0 1 1 1q2 -1 4.5 -1h3.5
q1 1 2 1q0 1 1 1h1q12 3 35.5 11t50.5 17t52.5 18t40.5 15q31 12 48.5 23t18.5 15q0 2 3 2q1 0 2 -1q0 -1 1 -1l1 -1l1 -1v-1q-1 -5 0.5 -12.5t3.5 -15.5l6 -20v-4q-2 -7 -15.5 -15.5t-31 -16.5t-35.5 -14.5t-29 -10.5l-70 -25q-2 -1 -5 -1q-3 -1 -2.5 -2.5t-0.5 -4.5
q1 -1 1 -2q1 0 1 -1.5t-1 -1.5v-6q0 -2 -3.5 -2.5t-5.5 -0.5h-4q-4 1 -18.5 0t-19.5 0h-6q-1 0 -2 1q-16 -4 -19 0q-1 0 -1 1v2q-2 4 -4 10.5t-3.5 13.5t-2.5 12t-1 6q-2 0 -2 1v1z" />
    <glyph glyph-name="germandbls" unicode="&#xdf;" horiz-adv-x="480" 
d="M458 439v-2v-1q14 -12 29.5 -29t27.5 -39.5t18 -51t0 -63t-26.5 -75.5t-60.5 -89q24 -4 49 -9.5t41 -13.5q-23 4 -25 3l-5 -2.5t-17 2.5l-11 3q3 -2 -2 -4.5t-2 -4.5q3 -1 -6 -1h-21t-22 -0.5t-10 -2.5q-11 -11 -29.5 -23t-40 -23t-42 -19t-34.5 -12q-49 -13 -75.5 -14.5
t-40.5 3.5t-20.5 13.5t-15.5 15.5l-26 27q-2 1 -4 4q-2 2 -2.5 4.5t1.5 4.5q0 5 7.5 10t29.5 15q20 7 48 14.5t60.5 12.5t67 7.5t67.5 0.5q55 61 82 111t28.5 92.5t-19.5 79.5t-61 73q-3 2 -7 6.5t-6 6.5t3 3t4 3q2 2 7.5 2t9.5 2q30 18 74 54t86 93l4 6q0 2 -7 -2
q-17 -11 -45 -28.5t-62.5 -43t-72 -59t-73.5 -76.5q-10 -11 -30 -40t-46 -69.5t-56.5 -89.5t-61 -99t-59.5 -98t-51.5 -88t-36.5 -68t-16 -37q-2 -4 -4 -7q-4 -7 -8 -3l-4 3l-43 44q-4 4 -3.5 6.5t2.5 6.5q6 11 24.5 44.5t46.5 81.5t65 108.5t80 127.5t92 136.5t100 135.5
q20 27 39 55.5t36.5 54t31.5 46.5t24 34q4 9 13 7q4 -1 8 -3q9 -6 18.5 -11.5t17 -10.5t11 -9.5t0.5 -7.5h-1q-2 -2 -6.5 -1.5t-9.5 -3.5q-2 -2 -12 -13t-22 -24.5t-22 -25t-11 -14.5q48 36 80 56.5t51.5 31.5t28.5 14.5t10 3.5q11 -12 17.5 -21.5t11.5 -16.5q5 -8 8 -13
l2 -6q1 -2 1 -5.5v-6.5q0 -11 -16.5 -35.5t-41.5 -53t-55 -56.5t-56 -44zM151 12q4 0 17 0.5t35.5 5.5t55.5 16t77 34q-33 -4 -64 -10t-56 -13.5t-42 -16t-23 -16.5z" />
    <glyph glyph-name="agrave" unicode="&#xe0;" horiz-adv-x="215" 
d="M418 379q0 -3 -5 -5q-8 -5 -12.5 -7.5t-6.5 -4.5q-3 -2 -4 -2q-6 -3 -16.5 -12t-24 -21.5t-28.5 -28.5t-29 -32q-14 -15 -25 -29t-19 -25q-9 -12 -15 -23q1 -12 3 -21q2 -8 3 -14.5t1 -8.5q1 -5 3 -6l2 -2q-3 0 -5 1q-2 0 -3 1l-27 15q-7 -9 -20 -34t-25 -53t-21 -51.5
t-9 -29.5l-3 -7q2 -5 -6 -9h-4h-3q-2 1 -4 1q-4 0 -6 1q-19 3 -28.5 14.5t-14 28t-6 34.5t-4.5 34q-5 75 2.5 114.5t19 57t23.5 20t15 2.5q22 2 43 -7t33 -24q0 -1 1 -1t2 1q14 19 26 32.5t20 21.5q10 10 17 16q-25 -8 -42 -11.5t-28 -5.5q-21 -4 -33.5 -5t-19.5 -0.5
t-10 3.5t-6 8q-1 2 5.5 14t16.5 31q5 9 12 9q3 0 7 -1q2 -1 5 -1h5l36 3v-3q0 -4 -2 -6l-8 -5q-1 -1 -2 -1q-1 -1 -1 -2t-0.5 -2t0.5 -3h6q7 0 9 1q9 2 31.5 9t47.5 15t47 16t31 13q8 4 17 7q5 2 11 3l11 -10q2 -2 5.5 -5t3.5 -5zM175 220q0 11 -7 18q-2 1 -5 3q-5 3 -9 3
q-6 -2 -14 -15.5t-16 -36t-14.5 -53t-9.5 -64.5q-1 -5 -1.5 -16t-0.5 -13q3 7 7.5 23t13 38.5t22 50.5t34.5 60v2zM346 405q-2 -2 -7 -5.5t-8 -1.5h-1q-3 0 -18.5 2.5t-37.5 8t-46.5 15t-46.5 24.5t-38 35t-19 48v2q0 1 1 2v2l-2 6l-1 1q-2 1 -2 3h2h2q1 -1 3 -1t3 -0.5
t3 -0.5t4.5 -1t3.5 -1q5 -2 9.5 -3.5t10.5 -4.5q1 0 4.5 -1.5t5.5 -2.5q9 -4 17 -10q4 -3 6 -5t4.5 -3.5t4.5 -3.5l2 -1l8 -11q1 -2 0 -4l-2 -4h-1q-2 1 -7.5 3.5t-12 5t-13 4.5t-10.5 2q2 -2 2.5 -3.5t4.5 -3.5q3 -2 9.5 -6t21.5 -10t40 -12t65 -12h2l2 2h2q4 0 6 1
q2 0 3 1q3 -3 9.5 -15.5t6.5 -19.5v-2l4 -6v-2q0 -2 0.5 -3t0.5 -3v-3q0 -1 1 -1q0 -1 -1 -1z" />
    <glyph glyph-name="aacute" unicode="&#xe1;" horiz-adv-x="215" 
d="M418 379q0 -3 -5 -5q-8 -5 -12.5 -7.5t-6.5 -4.5q-3 -2 -4 -2q-6 -3 -16.5 -12t-24 -21.5t-28.5 -28.5t-29 -32q-14 -15 -25 -29t-19 -25q-9 -12 -15 -23q1 -12 3 -21q2 -8 3 -14.5t1 -8.5q1 -5 3 -6l2 -2q-3 0 -5 1q-2 0 -3 1l-27 15q-7 -9 -20 -34t-25 -53t-21 -51.5
t-9 -29.5l-3 -7q2 -5 -6 -9h-4h-3q-2 1 -4 1q-4 0 -6 1q-19 3 -28.5 14.5t-14 28t-6 34.5t-4.5 34q-5 75 2.5 114.5t19 57t23.5 20t15 2.5q22 2 43 -7t33 -24q0 -1 1 -1t2 1q14 19 26 32.5t20 21.5q10 10 17 16q-25 -8 -42 -11.5t-28 -5.5q-21 -4 -33.5 -5t-19.5 -0.5
t-10 3.5t-6 8q-1 2 5.5 14t16.5 31q5 9 12 9q3 0 7 -1q2 -1 5 -1h5l36 3v-3q0 -4 -2 -6l-8 -5q-1 -1 -2 -1q-1 -1 -1 -2t-0.5 -2t0.5 -3h6q7 0 9 1q9 2 31.5 9t47.5 15t47 16t31 13q8 4 17 7q5 2 11 3l11 -10q2 -2 5.5 -5t3.5 -5zM175 220q0 11 -7 18q-2 1 -5 3q-5 3 -9 3
q-6 -2 -14 -15.5t-16 -36t-14.5 -53t-9.5 -64.5q-1 -5 -1.5 -16t-0.5 -13q3 7 7.5 23t13 38.5t22 50.5t34.5 60v2zM183 447q0 1 1 1q2 -1 4 -1h3q1 1 2 1q0 1 1 1h1q10 3 31 9.5t44.5 15t46 16.5t36.5 13q28 11 43.5 20.5t16.5 12.5q0 2 2 2q1 0 2 -1q0 -1 1 -1l1 -1l1 -1
q-1 -4 0.5 -11t3.5 -14q2 -9 5 -18v-3q-2 -6 -14 -13.5t-27.5 -15t-31.5 -13.5t-26 -9l-62 -22q-1 -1 -4 -1q-3 -1 -2.5 -2t-0.5 -4q1 -1 1 -2q1 0 1 -1t-1 -1v-6q0 -1 -3 -1.5t-5 -0.5h-3q-4 1 -17 0t-17 0h-5q-1 0 -2 1q-14 -4 -17 0q-1 1 -1 2q-4 8 -6.5 21.5t-3.5 15.5
q-1 0 -1 1v1z" />
    <glyph glyph-name="acircumflex" unicode="&#xe2;" horiz-adv-x="215" 
d="M374 564q1 6 5.5 13t10 13.5t9.5 11t5 5.5q2 2 3.5 5t3.5 5q0 1 2 1h1l30 -38q1 0 1 -2t-5 -15q-2 -4 -6 -10t-8 -11t-8 -9t-5 -4q-1 -1 -3 -5q0 -1 -0.5 -2t-0.5 -2q-7 -11 -11.5 -25.5t-7.5 -27t-4.5 -21.5t-1.5 -10q0 -2 1.5 -4t1.5 -4q2 -10 -6.5 -9.5t-13.5 6.5
q-5 5 -12.5 14t-9.5 12q-1 1 -0.5 3t0.5 4v4v3.5t1 5.5q0 4 1 8l-70 -61q-8 -7 -18 -15t-19 -14.5t-15 -11t-7 -4.5q-4 0 -8 4l-3 3q-7 7 -12 13q-5 5 -9.5 9t-6.5 6q-2 1 -2 3.5t1 3.5q0 1 2 1q14 6 35.5 21t45 33t46.5 36.5t39.5 33t25 22t2.5 2.5zM418 379q0 -3 -5 -5
q-8 -5 -12.5 -7.5t-6.5 -4.5q-3 -2 -4 -2q-6 -3 -16.5 -12t-24 -21.5t-28.5 -28.5t-29 -32q-14 -15 -25 -29t-19 -25q-9 -12 -15 -23q1 -12 3 -21q2 -8 3 -14.5t1 -8.5q1 -5 3 -6l2 -2q-3 0 -5 1q-2 0 -3 1l-27 15q-7 -9 -20 -34t-25 -53t-21 -51.5t-9 -29.5l-3 -7
q2 -5 -6 -9h-4h-3q-2 1 -4 1q-4 0 -6 1q-19 3 -28.5 14.5t-14 28t-6 34.5t-4.5 34q-5 75 2.5 114.5t19 57t23.5 20t15 2.5q22 2 43 -7t33 -24q0 -1 1 -1t2 1q14 19 26 32.5t20 21.5q10 10 17 16q-25 -8 -42 -11.5t-28 -5.5q-21 -4 -33.5 -5t-19.5 -0.5t-10 3.5t-6 8
q-1 2 5.5 14t16.5 31q5 9 12 9q3 0 7 -1q2 -1 5 -1h5l36 3v-3q0 -4 -2 -6l-8 -5q-1 -1 -2 -1q-1 -1 -1 -2t-0.5 -2t0.5 -3h6q7 0 9 1q9 2 31.5 9t47.5 15t47 16t31 13q8 4 17 7q5 2 11 3l11 -10q2 -2 5.5 -5t3.5 -5zM175 220q0 11 -7 18q-2 1 -5 3q-5 3 -9 3
q-6 -2 -14 -15.5t-16 -36t-14.5 -53t-9.5 -64.5q-1 -5 -1.5 -16t-0.5 -13q3 7 7.5 23t13 38.5t22 50.5t34.5 60v2z" />
    <glyph glyph-name="atilde" unicode="&#xe3;" horiz-adv-x="215" 
d="M418 379q0 -3 -5 -5q-8 -5 -12.5 -7.5t-6.5 -4.5q-3 -2 -4 -2q-6 -3 -16.5 -12t-24 -21.5t-28.5 -28.5t-29 -32q-14 -15 -25 -29t-19 -25q-9 -12 -15 -23q1 -12 3 -21q2 -8 3 -14.5t1 -8.5q1 -5 3 -6l2 -2q-3 0 -5 1q-2 0 -3 1l-27 15q-7 -9 -20 -34t-25 -53t-21 -51.5
t-9 -29.5l-3 -7q2 -5 -6 -9h-4h-3q-2 1 -4 1q-4 0 -6 1q-19 3 -28.5 14.5t-14 28t-6 34.5t-4.5 34q-5 75 2.5 114.5t19 57t23.5 20t15 2.5q22 2 43 -7t33 -24q0 -1 1 -1t2 1q14 19 26 32.5t20 21.5q10 10 17 16q-25 -8 -42 -11.5t-28 -5.5q-21 -4 -33.5 -5t-19.5 -0.5
t-10 3.5t-6 8q-1 2 5.5 14t16.5 31q5 9 12 9q3 0 7 -1q2 -1 5 -1h5l36 3v-3q0 -4 -2 -6l-8 -5q-1 -1 -2 -1q-1 -1 -1 -2t-0.5 -2t0.5 -3h6q7 0 9 1q9 2 31.5 9t47.5 15t47 16t31 13q8 4 17 7q5 2 11 3l11 -10q2 -2 5.5 -5t3.5 -5zM175 220q0 11 -7 18q-2 1 -5 3q-5 3 -9 3
q-6 -2 -14 -15.5t-16 -36t-14.5 -53t-9.5 -64.5q-1 -5 -1.5 -16t-0.5 -13q3 7 7.5 23t13 38.5t22 50.5t34.5 60v2zM189 412q-16 26 -17.5 35t4.5 11q9 2 26.5 9t35.5 14t34 10t24 -2q1 -1 5 -7q2 -3 3 -7q1 -2 3 -4q3 -3 11 -3q9 0 23.5 4t28 8.5t24 9t11.5 4.5q2 1 6.5 -5
t8.5 -14t6.5 -15.5t2.5 -10.5q-2 -3 -5 -3q-2 1 -3 0q-4 -2 -16 -8.5t-31 -12.5q-20 -7 -32 -9t-19.5 0t-12 7.5t-10.5 14.5q-2 2 -8 2h-6q-22 -5 -45 -14t-43 -19q-3 -1 -6 2q-2 1 -3 3z" />
    <glyph glyph-name="adieresis" unicode="&#xe4;" horiz-adv-x="215" 
d="M204 421q-1 0 -1 0.5t-1 0.5t-1 1q-2 0 -2.5 2.5t-1.5 4.5v2q0 1 1 1q3 5 9.5 15.5t10.5 14.5q0 1 0.5 1.5t0.5 1.5q0 2 2 4q1 1 1 2q6 8 12.5 10t10.5 1q1 0 1.5 -0.5t1.5 -0.5h1q8 -7 15 -12q6 -5 11 -9t7 -5q0 -4 -1 -7t-1 -5q0 -4 -5.5 -12.5t-13 -17t-15 -14
t-11.5 -3.5q0 1 -1 1q-2 0 -2 1q-5 2 -15 10.5t-13 11.5zM298 429q-1 2 -1.5 3.5t0.5 6.5t7.5 18.5t19.5 28.5q5 7 15 3q4 -2 9 -5l24 -20l1 -1l1 -2q2 -4 1 -12.5t-9 -19.5t-13 -15.5t-7 -5.5l-1 -1q0 -1 -1 -1t-1 -1l-1 -2l-1 -1l-2 -1q-5 2 -11.5 6.5t-13.5 9.5
q-8 5 -16 12zM418 379q0 -3 -5 -5q-8 -5 -12.5 -7.5t-6.5 -4.5q-3 -2 -4 -2q-6 -3 -16.5 -12t-24 -21.5t-28.5 -28.5t-29 -32q-14 -15 -25 -29t-19 -25q-9 -12 -15 -23q1 -12 3 -21q2 -8 3 -14.5t1 -8.5q1 -5 3 -6l2 -2q-3 0 -5 1q-2 0 -3 1l-27 15q-7 -9 -20 -34t-25 -53
t-21 -51.5t-9 -29.5l-3 -7q2 -5 -6 -9h-4h-3q-2 1 -4 1q-4 0 -6 1q-19 3 -28.5 14.5t-14 28t-6 34.5t-4.5 34q-5 75 2.5 114.5t19 57t23.5 20t15 2.5q22 2 43 -7t33 -24q0 -1 1 -1t2 1q14 19 26 32.5t20 21.5q10 10 17 16q-25 -8 -42 -11.5t-28 -5.5q-21 -4 -33.5 -5
t-19.5 -0.5t-10 3.5t-6 8q-1 2 5.5 14t16.5 31q5 9 12 9q3 0 7 -1q2 -1 5 -1h5l36 3v-3q0 -4 -2 -6l-8 -5q-1 -1 -2 -1q-1 -1 -1 -2t-0.5 -2t0.5 -3h6q7 0 9 1q9 2 31.5 9t47.5 15t47 16t31 13q8 4 17 7q5 2 11 3l11 -10q2 -2 5.5 -5t3.5 -5zM175 220q0 11 -7 18q-2 1 -5 3
q-5 3 -9 3q-6 -2 -14 -15.5t-16 -36t-14.5 -53t-9.5 -64.5q-1 -5 -1.5 -16t-0.5 -13q3 7 7.5 23t13 38.5t22 50.5t34.5 60v2z" />
    <glyph glyph-name="aring" unicode="&#xe5;" horiz-adv-x="205" 
d="M408 379q0 -3 -5 -5q-8 -5 -12.5 -7.5t-6.5 -4.5q-3 -2 -4 -2q-6 -3 -16.5 -12t-24 -21.5t-28.5 -28.5t-29 -32q-14 -15 -25 -29t-19 -25q-9 -12 -15 -23q1 -12 3 -21q2 -8 3 -14.5t1 -8.5q1 -5 3 -6l2 -2q-3 0 -5 1q-2 0 -3 1l-27 15q-7 -9 -20 -34t-25 -53t-21 -51.5
t-9 -29.5l-3 -7q2 -5 -6 -9h-4h-3q-2 1 -4 1q-4 0 -6 1q-19 3 -28.5 14.5t-14 28t-6 34.5t-4.5 34q-5 75 2.5 114.5t19 57t23.5 20t15 2.5q22 2 43 -7t33 -24q0 -1 1 -1t2 1q14 19 26 32.5t20 21.5q10 10 17 16q-25 -8 -42 -11.5t-28 -5.5q-21 -4 -33.5 -5t-19.5 -0.5
t-10 3.5t-6 8q-1 2 5.5 14t16.5 31q5 9 12 9q3 0 7 -1q2 -1 5 -1h5l36 3v-3q0 -4 -2 -6l-8 -5q-1 -1 -2 -1q-1 -1 -1 -2t-0.5 -2t0.5 -3h6q7 0 9 1q9 2 31.5 9t47.5 15t47 16t31 13q8 4 17 7q5 2 11 3l11 -10q2 -2 5.5 -5t3.5 -5zM165 220q0 11 -7 18q-2 1 -5 3q-5 3 -9 3
q-6 -2 -14 -15.5t-16 -36t-14.5 -53t-9.5 -64.5q-1 -5 -1.5 -16t-0.5 -13q3 7 7.5 23t13 38.5t22 50.5t34.5 60v2zM339 499q1 -2 4 -5.5t4.5 -9.5t0 -15.5t-8.5 -21.5q-11 -18 -17 -25.5t-10 -11.5q-11 -11 -20.5 -13.5t-16.5 -1.5q-9 1 -15 6l-16 8l-11 5.5t-6 3.5l-10 5
q-5 3 -10 11.5t-3 18.5q2 11 6 20.5t8 15.5l10 17q5 8 14.5 17.5t22.5 11.5q17 3 24 -1q5 -2 7 -4l4 -4q5 -4 11 -6.5t11 -6.5q2 -3 10 -9q4 -3 7 -5zM301 495q1 1 1 3q0 3 -2 3l-6 1q-3 -1 -10.5 -10t-15 -20.5t-13 -22.5t-5.5 -16l-1 -4q0 -2 6.5 2t15 13t17 21.5
t13.5 29.5z" />
    <glyph glyph-name="ae" unicode="&#xe6;" horiz-adv-x="373" 
d="M458 357q12 -13 14 -31q1 -16 -9 -40t-43 -59q-30 -31 -56.5 -48t-49.5 -24h1q0 -4 9 -13l10 -10q1 -2 5 -5.5t7.5 -8t5.5 -8t0 -5.5t-14 -19t-32 -36t-46 -33.5t-55 -10.5q-9 0 -19 4q-8 3 -18 8.5t-18 16.5l-10 13l-31 -46q0 -4 -0.5 -8.5t-4.5 -4.5h-5l-22 11
q-8 5 -16 8.5t-10 5.5q-2 1 -5 4t-5 9t-2 16t3 26q1 15 5.5 49t13 72t21 71.5t30.5 47.5q2 2 2.5 1.5t2.5 -0.5q3 0 7 1q9 3 24 -5t29 -19.5t24.5 -24t9.5 -18.5l72 92q-16 -6 -34 -10q-16 -3 -36 -4.5t-43 2.5q-3 1 -7 2t-6 3t-8.5 6t-14.5 8q-9 4 -19 10q0 2 2 4t4.5 3.5
t7.5 1.5q3 -2 27.5 -2.5t57 3t67.5 12.5t61 26q3 1 7 2q7 2 7 -2q2 -3 5.5 -6.5t7.5 -5.5q4 -3 10 -5q1 -3 0 -5q1 1 7.5 3t14.5 3.5t16 1.5t14 -4q13 -10 18.5 -16.5t8.5 -9.5zM307 151q0 1 1 2q-26 -6 -44 -0.5t-27 18.5q-9 -11 -19.5 -25t-20 -29t-17.5 -30.5t-11 -30.5
q1 -2 3 -3q4 -2 6 -2q19 -1 40 10q18 9 41 29.5t48 60.5zM255 195q9 -2 36 11.5t55.5 36t50.5 52t21 59.5q-35 -30 -66 -59q-27 -25 -54 -52.5t-43 -47.5zM96 80q19 30 36 56q14 23 27.5 44t19.5 30q2 2 2.5 3.5t0.5 6.5q-1 16 -7 27.5t-15 21.5q-11 -13 -22 -39
q-10 -22 -21 -58t-21 -92z" />
    <glyph glyph-name="ccedilla" unicode="&#xe7;" horiz-adv-x="239" 
d="M401 362q0 -6 -3 -7l-10 -2q-4 -1 -5 -1.5t-3 -2.5q-6 -4 -21.5 -18t-33.5 -36q-9 -11 -17.5 -22t-19.5 -24q-18 -20 -33 -41t-26 -38q-13 -20 -24 -39v-2q0 -3 -4 -3t-5 1l-4 2l-10 4q-7 4 -12 10t-5 8t-5.5 6t-8.5 8q-3 2 -3 6v2q1 1 3 2q3 3 4 5q9 12 23.5 34
t28.5 43.5t23.5 38t8.5 17.5q-16 -11 -34 -30q-16 -17 -37 -43.5t-44 -64.5q-20 -32 -30.5 -59t-15 -46.5t-5.5 -30.5t-1 -12q0 -3 1 -3h1q21 4 38.5 16t31 25.5t23.5 25.5t15 16q2 1 1.5 1t0.5 1q-1 0 1 2.5t3 2.5h1q6 -2 18 -12.5t19 -15.5l15 -15q0 -3 -4 -7l-4 -3
q-15 -20 -35.5 -35t-42 -24t-42 -10t-36.5 8q-7 3 -15 8q-15 8 -29 24q-8 7 -11.5 14.5t-5.5 14.5q-2 8 -1 15q4 25 15 54q9 25 25 58t42 71q29 40 52.5 64t40.5 36.5t27.5 16.5t14.5 5q9 1 16 -3l8 -6l10 -8q0 -2 8 -8q4 -3 9 -6l3 -3q14 15 29 33t30 28q1 1 4 0q1 1 2 1
t3 -3q0 -4 6.5 -7t8.5 -5t5 -6t5 -4q3 0 7 -7q2 -2 4 -1.5t4 -1.5q0 -3 3 -4q2 -2 4 -3v-5zM25 -56v2q0 1 -0.5 1.5t0.5 2.5q0 1 0.5 1t0.5 1q2 0 2 3l2 2q1 1 1 2l44 54h63l-34 -41q16 2 22.5 -1t8.5 -5l15 -16l3 -3l3 -3q1 -1 1 -2l6 -10q6 -8 2 -18q-3 -8 -15.5 -20
t-42.5 -25q-29 -12 -46.5 -13t-28.5 3q-12 4 -19 13q-1 1 -4.5 6t-7.5 10.5t-7.5 10l-3.5 4.5q-1 0 -1 2q0 1 -1 2q-2 2 -1 3q0 1 10 0l6 -5q1 -2 2.5 -4t2.5 -2q2 -2 4.5 -2.5t4.5 -1.5q3 -1 5 -1q16 -1 33 3.5t31 11t23 12.5t10 8q1 1 1 2v1h-1l-54 -15q-1 -1 -2 -1
q-3 -3 -3 -2q-1 0 -1 -0.5t-3 -0.5q-2 -1 -4 0l-4 2q1 0 -2 3q-2 2 -5 6.5t-7 9.5t-9 10z" />
    <glyph glyph-name="egrave" unicode="&#xe8;" horiz-adv-x="210" 
d="M165 133l8.5 -8.5t13 -14.5t11.5 -15t5 -8q-1 -6 2 -5.5t-2 -5.5q-1 -1 -7 -9.5t-16.5 -19.5t-25 -22.5t-32 -18.5t-37.5 -6.5t-41 12.5q-13 10 -22 22q-8 11 -12 25.5t2 32.5q5 19 9.5 33t8.5 24q4 11 9 19l-10 14v2q0 1 3 1q1 0 3 -0.5t5 -0.5q3 -1 7 -1q36 58 70 104
q15 19 30.5 38t30.5 33t29 23t25 9q14 -2 21.5 -8t12.5 -11q3 -5 3.5 -5.5t5.5 -3.5q3 -3 8.5 -7.5t10.5 -10.5t8.5 -12.5t3.5 -13.5q-1 -11 -6.5 -37.5t-27 -56.5t-64.5 -56.5t-119 -38.5q-9 -15 -16 -30q-6 -13 -10.5 -28.5t-2.5 -29.5q20 -3 45.5 16t44.5 57q0 1 1 3t1 5
v18q-2 3 3 1q2 -1 3 -2q1 -2 2 -3q3 -3 5 -3zM261 344q-13 -7 -32 -25q-17 -16 -42 -45t-61 -79q32 13 59 34q23 18 45.5 46t30.5 69zM359 390q-2 -2 -7 -5.5t-8 -1.5h-1q-3 0 -18.5 2.5t-37.5 8t-46.5 15t-46.5 24.5t-38 35.5t-19 47.5v2q0 1 1 2v2l-2 6l-1 1q-2 1 -2 3h2
h2q1 -1 3 -1t3 -0.5t3 -0.5t4.5 -1t3.5 -1q5 -2 9.5 -3.5t10.5 -4.5q1 0 4.5 -1.5t5.5 -2.5q9 -4 17 -10q4 -3 6 -5t4.5 -3.5t4.5 -3.5l2 -1l8 -11q1 -2 0 -4l-2 -4h-1q-2 1 -7.5 3.5t-12 5t-13 4.5t-10.5 2q2 -2 2.5 -3.5t4.5 -3.5q3 -2 9.5 -6t21.5 -10t40 -12t65 -12h2
l2 2h2q4 0 6 1q2 0 3 1q3 -3 9.5 -15.5t6.5 -19.5v-2l4 -6v-2q0 -2 0.5 -3t0.5 -3v-3q0 -1 1 -1q0 -1 -1 -1z" />
    <glyph glyph-name="eacute" unicode="&#xe9;" horiz-adv-x="210" 
d="M165 133l8.5 -8.5t13 -14.5t11.5 -15t5 -8q-1 -6 2 -5.5t-2 -5.5q-1 -1 -7 -9.5t-16.5 -19.5t-25 -22.5t-32 -18.5t-37.5 -6.5t-41 12.5q-13 10 -22 22q-8 11 -12 25.5t2 32.5q5 19 9.5 33t8.5 24q4 11 9 19l-10 14v2q0 1 3 1q1 0 3 -0.5t5 -0.5q3 -1 7 -1q36 58 70 104
q15 19 30.5 38t30.5 33t29 23t25 9q14 -2 21.5 -8t12.5 -11q3 -5 3.5 -5.5t5.5 -3.5q3 -3 8.5 -7.5t10.5 -10.5t8.5 -12.5t3.5 -13.5q-1 -11 -6.5 -37.5t-27 -56.5t-64.5 -56.5t-119 -38.5q-9 -15 -16 -30q-6 -13 -10.5 -28.5t-2.5 -29.5q20 -3 45.5 16t44.5 57q0 1 1 3t1 5
v18q-2 3 3 1q2 -1 3 -2q1 -2 2 -3q3 -3 5 -3zM261 344q-13 -7 -32 -25q-17 -16 -42 -45t-61 -79q32 13 59 34q23 18 45.5 46t30.5 69zM133 456q0 1 1 1q2 -1 4 -1h3q1 1 2 1q0 1 1 1h1q10 3 31 9.5t44.5 15t46 16.5t36.5 13q28 11 43.5 20.5t16.5 12.5q0 2 2 2q1 0 2 -1
q0 -1 1 -1l1 -1l1 -1q-1 -4 0.5 -11t3.5 -14q2 -9 5 -18v-3q-2 -6 -14 -13.5t-27.5 -15t-31.5 -13.5t-26 -9l-62 -22q-1 -1 -4 -1q-3 -1 -2.5 -2t-0.5 -4q1 -1 1 -2q1 0 1 -1t-1 -1v-6q0 -1 -3 -1.5t-5 -0.5h-3q-4 1 -17 0t-17 0h-5q-1 0 -2 1q-14 -4 -17 0q-1 1 -1 2
q-4 8 -6.5 21.5t-3.5 15.5q-1 0 -1 1v1z" />
    <glyph glyph-name="ecircumflex" unicode="&#xea;" horiz-adv-x="210" 
d="M165 133l8.5 -8.5t13 -14.5t11.5 -15t5 -8q-1 -6 2 -5.5t-2 -5.5q-1 -1 -7 -9.5t-16.5 -19.5t-25 -22.5t-32 -18.5t-37.5 -6.5t-41 12.5q-13 10 -22 22q-8 11 -12 25.5t2 32.5q5 19 9.5 33t8.5 24q4 11 9 19l-10 14v2q0 1 3 1q1 0 3 -0.5t5 -0.5q3 -1 7 -1q36 58 70 104
q15 19 30.5 38t30.5 33t29 23t25 9q14 -2 21.5 -8t12.5 -11q3 -5 3.5 -5.5t5.5 -3.5q3 -3 8.5 -7.5t10.5 -10.5t8.5 -12.5t3.5 -13.5q-1 -11 -6.5 -37.5t-27 -56.5t-64.5 -56.5t-119 -38.5q-9 -15 -16 -30q-6 -13 -10.5 -28.5t-2.5 -29.5q20 -3 45.5 16t44.5 57q0 1 1 3t1 5
v18q-2 3 3 1q2 -1 3 -2q1 -2 2 -3q3 -3 5 -3zM261 344q-13 -7 -32 -25q-17 -16 -42 -45t-61 -79q32 13 59 34q23 18 45.5 46t30.5 69zM327 539q1 6 7 16t12.5 20t12 17.5t6.5 8.5l7 10q0 1 2 1h1l30 -38q1 0 1 -2t-5 -15q-2 -4 -7 -12t-11 -16.5t-11.5 -14.5t-6.5 -6
q-1 -1 -3 -5q0 -1 -0.5 -2t-0.5 -2q-7 -11 -12 -28t-8.5 -32.5t-5 -27t-1.5 -12.5q0 -2 1 -4l2 -4q1 -1 0 -4t-3.5 -4.5t-6.5 -1t-10 6.5q-5 5 -12.5 14t-9.5 12q-1 1 -0.5 3t0.5 4v4v5.5t1 10.5q0 6 1 15q-15 -9 -33 -19.5t-35 -19t-30 -14.5t-18 -6q-3 0 -5 1.5t-4 3.5
l-4 4l-10 12q-4 5 -7 8.5t-5 5.5t-1.5 4t1.5 3q0 1 2 1q15 3 34.5 12.5t40 20.5t40.5 23.5t34.5 22.5t23 15.5t6.5 4.5z" />
    <glyph glyph-name="edieresis" unicode="&#xeb;" horiz-adv-x="210" 
d="M165 133l8.5 -8.5t13 -14.5t11.5 -15t5 -8q-1 -6 2 -5.5t-2 -5.5q-1 -1 -7 -9.5t-16.5 -19.5t-25 -22.5t-32 -18.5t-37.5 -6.5t-41 12.5q-13 10 -22 22q-8 11 -12 25.5t2 32.5q5 19 9.5 33t8.5 24q4 11 9 19l-10 14v2q0 1 3 1q1 0 3 -0.5t5 -0.5q3 -1 7 -1q36 58 70 104
q15 19 30.5 38t30.5 33t29 23t25 9q14 -2 21.5 -8t12.5 -11q3 -5 3.5 -5.5t5.5 -3.5q3 -3 8.5 -7.5t10.5 -10.5t8.5 -12.5t3.5 -13.5q-1 -11 -6.5 -37.5t-27 -56.5t-64.5 -56.5t-119 -38.5q-9 -15 -16 -30q-6 -13 -10.5 -28.5t-2.5 -29.5q20 -3 45.5 16t44.5 57q0 1 1 3t1 5
v18q-2 3 3 1q2 -1 3 -2q1 -2 2 -3q3 -3 5 -3zM261 344q-13 -7 -32 -25q-17 -16 -42 -45t-61 -79q32 13 59 34q23 18 45.5 46t30.5 69zM200 428q-1 0 -1 0.5t-1 0.5t-1 1q-2 0 -2.5 2.5t-1.5 4.5v2q0 1 1 1q3 5 9.5 15.5t10.5 14.5q0 1 0.5 1.5t0.5 1.5q0 2 2 4q1 1 1 2
q6 8 12.5 10t10.5 1q1 0 1.5 -0.5t1.5 -0.5h1q8 -7 15 -12q6 -5 11 -9t7 -5q0 -4 -1 -7t-1 -5q0 -4 -5.5 -12.5t-13 -17t-15 -14t-11.5 -3.5q0 1 -1 1q-2 0 -2 1q-5 2 -15 10.5t-13 11.5zM287 420q-1 2 -1.5 3.5t0.5 6.5t7.5 18.5t19.5 28.5q5 7 15 3q4 -2 9 -5l24 -20l1 -1
l1 -2q2 -4 1 -12.5t-9 -19.5t-13 -15.5t-7 -5.5l-1 -1q0 -1 -1 -1t-1 -1l-1 -2l-1 -1l-2 -1q-5 2 -11.5 6.5t-13.5 9.5q-8 5 -16 12z" />
    <glyph glyph-name="igrave" unicode="&#xec;" horiz-adv-x="116" 
d="M301 376q-2 -1 -8 -2.5t-8 0.5h-1q-3 1 -17 8t-33.5 19t-40 28.5t-37 37t-25.5 44.5t-4 51q1 1 1 2t1 2v2l1 6l-1 1l-2 2v1h2h2q1 -1 3 -2t2.5 -1.5t2.5 -1.5q2 0 4.5 -1.5t3.5 -1.5q4 -4 8 -6.5t8 -7.5q1 -1 4 -3.5t4 -4.5q9 -8 14 -14q3 -4 4 -6q0 -2 2.5 -5t4.5 -5
l2 -1l3 -13q0 -4 -4 -8l-1 1q-2 1 -6 5t-9.5 8.5t-11 8.5t-9.5 5q1 -2 1 -4t4 -4q2 -3 7 -9t17.5 -16t34.5 -23.5t59 -30.5l2 -2l2 2h2q1 -1 6 -1h3q2 -4 4.5 -18t-0.5 -21v-2q0 -2 1 -3.5t1 -2.5l-1 -2v-6v-3q-1 -1 0 -1q-1 -1 -2 -1zM184 391q0 2 1 2t2 1q1 0 2 1l5 -7
q11 -3 11.5 -5t7.5 -4l5 -2q4 -3 8.5 -6.5t8.5 -6.5q4 -4 9 -8l-1 -7q-4 -7 -5 -8q-2 -2 -3 -2q-49 -69 -79 -117.5t-47 -80.5q-20 -37 -29 -60l10 -7q5 -3 -3.5 -14t-20.5 -25q-8 -9 -18 -23l-10 -14q0 -2 -1 -4q-2 -4 -2 -7q-2 -5 -12 -1l-10 5l-25 18q-3 1 -7 6t0 10l2 4
q16 43 41 90t52.5 94.5t55.5 93z" />
    <glyph glyph-name="iacute" unicode="&#xed;" horiz-adv-x="116" 
d="M184 391q0 2 1 2t2 1q1 0 2 1l5 -7q11 -3 11.5 -5t7.5 -4l5 -2q4 -3 8.5 -6.5t8.5 -6.5q4 -4 9 -8l-1 -7q-4 -7 -5 -8q-2 -2 -3 -2q-49 -69 -79 -117.5t-47 -80.5q-20 -37 -29 -60l10 -7q5 -3 -3.5 -14t-20.5 -25q-8 -9 -18 -23l-10 -14q0 -2 -1 -4q-2 -4 -2 -7
q-2 -5 -12 -1l-10 5l-25 18q-3 1 -7 6t0 10l2 4q16 43 41 90t52.5 94.5t55.5 93zM153 466q0 1 1 1q2 -1 4 -1h3q1 1 2 1q0 1 1 1h1q10 3 31 9.5t44.5 15t46 16.5t36.5 13q28 11 43.5 20.5t16.5 12.5q0 2 2 2q1 0 2 -1q0 -1 1 -1l1 -1l1 -1q-1 -4 0.5 -11t3.5 -14q2 -9 5 -18
v-3q-2 -6 -14 -13.5t-27.5 -15t-31.5 -13.5t-26 -9l-62 -22q-1 -1 -4 -1q-3 -1 -2.5 -2t-0.5 -4q1 -1 1 -2q1 0 1 -1t-1 -1v-6q0 -1 -3 -1.5t-5 -0.5h-3q-4 1 -17 0t-17 0h-5q-1 0 -2 1q-14 -4 -17 0q-1 1 -1 2q-4 8 -6.5 21.5t-3.5 15.5q-1 0 -1 1v1z" />
    <glyph glyph-name="icircumflex" unicode="&#xee;" horiz-adv-x="116" 
d="M184 391q0 2 1 2t2 1q1 0 2 1l5 -7q11 -3 11.5 -5t7.5 -4l5 -2q4 -3 8.5 -6.5t8.5 -6.5q4 -4 9 -8l-1 -7q-4 -7 -5 -8q-2 -2 -3 -2q-49 -69 -79 -117.5t-47 -80.5q-20 -37 -29 -60l10 -7q5 -3 -3.5 -14t-20.5 -25q-8 -9 -18 -23l-10 -14q0 -2 -1 -4q-2 -4 -2 -7
q-2 -5 -12 -1l-10 5l-25 18q-3 1 -7 6t0 10l2 4q16 43 41 90t52.5 94.5t55.5 93zM293 544q1 6 7 16t12.5 20t12 17.5t6.5 8.5l7 10q0 1 2 1h1l30 -38q1 0 1 -2t-5 -15q-2 -4 -7 -12t-11 -16.5t-11.5 -14.5t-6.5 -6q-1 -1 -3 -5q0 -1 -0.5 -2t-0.5 -2q-7 -11 -12 -28
t-8.5 -32.5t-5 -27t-1.5 -12.5q0 -2 1 -4l2 -4q1 -1 0 -4t-3.5 -4.5t-6.5 -1t-10 6.5q-5 5 -12.5 14t-9.5 12q-1 1 -0.5 3t0.5 4v4v5.5t1 10.5q0 6 1 15q-15 -9 -33 -19.5t-35 -19t-30 -14.5t-18 -6q-3 0 -5 1.5t-4 3.5l-4 4l-10 12q-4 5 -7 8.5t-5 5.5t-1.5 4t1.5 3
q0 1 2 1q15 3 34.5 12.5t40 20.5t40.5 23.5t34.5 22.5t23 15.5t6.5 4.5z" />
    <glyph glyph-name="idieresis" unicode="&#xef;" horiz-adv-x="116" 
d="M184 391q0 2 1 2t2 1q1 0 2 1l5 -7q11 -3 11.5 -5t7.5 -4l5 -2q4 -3 8.5 -6.5t8.5 -6.5q4 -4 9 -8l-1 -7q-4 -7 -5 -8q-2 -2 -3 -2q-49 -69 -79 -117.5t-47 -80.5q-20 -37 -29 -60l10 -7q5 -3 -3.5 -14t-20.5 -25q-8 -9 -18 -23l-10 -14q0 -2 -1 -4q-2 -4 -2 -7
q-2 -5 -12 -1l-10 5l-25 18q-3 1 -7 6t0 10l2 4q16 43 41 90t52.5 94.5t55.5 93zM161 434q-1 0 -1 0.5t-1 0.5t-1 1q-2 0 -2.5 2.5t-1.5 4.5v2q0 1 1 1q3 5 9.5 15.5t10.5 14.5q0 1 0.5 1.5t0.5 1.5q0 2 2 4q1 1 1 2q6 8 12.5 10t10.5 1q1 0 1.5 -0.5t1.5 -0.5h1
q8 -7 15 -12q6 -5 11 -9t7 -5q0 -4 -1 -7t-1 -5q0 -4 -5.5 -12.5t-13 -17t-15 -14t-11.5 -3.5q0 1 -1 1q-2 0 -2 1q-5 2 -15 10.5t-13 11.5zM248 426q-1 2 -1.5 3.5t0.5 6.5t7.5 18.5t19.5 28.5q5 7 15 3q4 -2 9 -5l24 -20l1 -1l1 -2q2 -4 1 -12.5t-9 -19.5t-13 -15.5
t-7 -5.5l-1 -1q0 -1 -1 -1t-1 -1l-1 -2l-1 -1l-2 -1q-5 2 -11.5 6.5t-13.5 9.5q-8 5 -16 12z" />
    <glyph glyph-name="ntilde" unicode="&#xf1;" horiz-adv-x="234" 
d="M-45 8q-3 6 4 20.5t17.5 31t21.5 31.5t16 23q28 44 49.5 77t37 58t26 43.5t18.5 33.5q2 3 4.5 8t2.5 12q-2 2 0 4q0 1 1 1h3l10 -4t10.5 -3.5t10.5 -2.5q3 -1 15 -3.5t18 -6.5t-1 -7q-2 -1 -5.5 -5.5t-11 -16t-20 -32t-32.5 -53.5q6 5 23 25t36 44t36 46t24 31q3 5 3 4.5
t0 1.5t5 7q0 4 4 5.5t8 6.5q0 5 1 7t6 4h5q1 0 2 -1l49 -24q1 -1 1 -2q0 -3 -1 -5q0 -1 -6 -9q-3 -4 -6 -7q-4 -8 -16 -24t-28 -41t-33.5 -59.5t-32.5 -77.5q-10 -29 -14.5 -50.5t-6 -36t-1 -22t0.5 -8.5q0 -3 1 -6t-1 -8q-1 -2 1.5 -5.5t2.5 -5.5q0 -3 3 -7q1 -3 3 -5h-10
q-2 0 -7 2t-11 4.5t-11.5 4.5t-7.5 2t-5 1q-5 0 -7 2q-3 3 -5.5 6.5t-4.5 3.5t-4 2q-3 3 -2 18q4 39 10 67t12 47t11 29l6 12q-13 -9 -36.5 -37.5t-47.5 -58.5q-28 -36 -60 -78q-11 -14 -11 -22q0 -2 -1 -2.5t-1 -2.5q-1 -2 1 -5q1 -2 1 -3q-1 0 -4 -1q-7 -2 -10 -1
q-2 0 -9.5 3t-16.5 6t-17.5 5.5t-10.5 2.5q-2 1 -2.5 2t-1.5 2t-1 2zM170 411q-16 26 -17.5 35t4.5 11q9 2 26.5 9t35.5 14t34 10t24 -2q1 -1 5 -7q2 -3 3 -7q1 -2 3 -4q3 -3 11 -3q9 0 23.5 4t28 8.5t24 9t11.5 4.5q2 1 6.5 -5t8.5 -14t6.5 -15.5t2.5 -10.5q-2 -3 -5 -3
q-2 1 -3 0q-4 -2 -16 -8.5t-31 -12.5q-20 -7 -32 -9t-19.5 0t-12 7.5t-10.5 14.5q-2 2 -8 2h-6q-22 -5 -45 -14t-43 -19q-3 -1 -6 2q-2 1 -3 3z" />
    <glyph glyph-name="ograve" unicode="&#xf2;" horiz-adv-x="221" 
d="M293 294q0 -1 0.5 -9t-2 -21.5t-9.5 -32t-21 -40.5q-38 -59 -69 -94t-55 -54.5t-40.5 -26t-23.5 -7.5q-2 0 -4.5 -1t-6.5 -1q-5 -1 -11 1.5t-11 4.5l-12 6q-3 1 -6 4l-5 5t-5 8q-11 14 -13 27.5t0 24.5q2 12 7 23q23 43 53.5 91.5t58.5 90.5q33 48 67 95q5 0 8.5 -1.5
t6.5 -3.5l4 -2q4 -2 7 -4q1 -1 1.5 -0.5t3.5 -1.5q4 1 13.5 -6.5t19 -16.5t16.5 -16.5t6 -7.5q8 -8 12.5 -14t6.5 -11q3 -5 3 -9zM61 63q51 40 86 83.5t55.5 79t27.5 58.5t3 22q-7 3 -21.5 -11.5t-33 -38t-39 -52.5t-38 -55.5t-30 -47t-16.5 -27.5q-6 -11 -6 -14t3 -2t9 5z
M364 370q-2 -2 -7 -5.5t-8 -1.5h-1q-3 0 -18.5 2.5t-37.5 8t-46.5 15t-46.5 24.5t-38 35.5t-19 47.5v2q0 1 1 2v2l-2 6l-1 1q-2 1 -2 3h2h2q1 -1 3 -1t3 -0.5t3 -0.5t4.5 -1t3.5 -1q5 -2 9.5 -3.5t10.5 -4.5q1 0 4.5 -1.5t5.5 -2.5q9 -4 17 -10q4 -3 6 -5t4.5 -3.5t4.5 -3.5
l2 -1l8 -11q1 -2 0 -4l-2 -4h-1q-2 1 -7.5 3.5t-12 5t-13 4.5t-10.5 2q2 -2 2.5 -3.5t4.5 -3.5q3 -2 9.5 -6t21.5 -10t40 -12t65 -12h2l2 2h2q4 0 6 1q2 0 3 1q3 -3 9.5 -15.5t6.5 -19.5v-2l4 -6v-2q0 -2 0.5 -3t0.5 -3v-3q0 -1 1 -1q0 -1 -1 -1z" />
    <glyph glyph-name="oacute" unicode="&#xf3;" horiz-adv-x="221" 
d="M293 294q0 -1 0.5 -9t-2 -21.5t-9.5 -32t-21 -40.5q-38 -59 -69 -94t-55 -54.5t-40.5 -26t-23.5 -7.5q-2 0 -4.5 -1t-6.5 -1q-5 -1 -11 1.5t-11 4.5l-12 6q-3 1 -6 4l-5 5t-5 8q-11 14 -13 27.5t0 24.5q2 12 7 23q23 43 53.5 91.5t58.5 90.5q33 48 67 95q5 0 8.5 -1.5
t6.5 -3.5l4 -2q4 -2 7 -4q1 -1 1.5 -0.5t3.5 -1.5q4 1 13.5 -6.5t19 -16.5t16.5 -16.5t6 -7.5q8 -8 12.5 -14t6.5 -11q3 -5 3 -9zM61 63q51 40 86 83.5t55.5 79t27.5 58.5t3 22q-7 3 -21.5 -11.5t-33 -38t-39 -52.5t-38 -55.5t-30 -47t-16.5 -27.5q-6 -11 -6 -14t3 -2t9 5z
M180 451q0 1 1 1q2 -1 4 -1h3q1 1 2 1q0 1 1 1h1q10 3 31 9.5t44.5 15t46 16.5t36.5 13q28 11 43.5 20.5t16.5 12.5q0 2 2 2q1 0 2 -1q0 -1 1 -1l1 -1l1 -1q-1 -4 0.5 -11t3.5 -14q2 -9 5 -18v-3q-2 -6 -14 -13.5t-27.5 -15t-31.5 -13.5t-26 -9l-62 -22q-1 -1 -4 -1
q-3 -1 -2.5 -2t-0.5 -4q1 -1 1 -2q1 0 1 -1t-1 -1v-6q0 -1 -3 -1.5t-5 -0.5h-3q-4 1 -17 0t-17 0h-5q-1 0 -2 1q-14 -4 -17 0q-1 1 -1 2q-4 8 -6.5 21.5t-3.5 15.5q-1 0 -1 1v1z" />
    <glyph glyph-name="ocircumflex" unicode="&#xf4;" horiz-adv-x="221" 
d="M293 294q0 -1 0.5 -9t-2 -21.5t-9.5 -32t-21 -40.5q-38 -59 -69 -94t-55 -54.5t-40.5 -26t-23.5 -7.5q-2 0 -4.5 -1t-6.5 -1q-5 -1 -11 1.5t-11 4.5l-12 6q-3 1 -6 4l-5 5t-5 8q-11 14 -13 27.5t0 24.5q2 12 7 23q23 43 53.5 91.5t58.5 90.5q33 48 67 95q5 0 8.5 -1.5
t6.5 -3.5l4 -2q4 -2 7 -4q1 -1 1.5 -0.5t3.5 -1.5q4 1 13.5 -6.5t19 -16.5t16.5 -16.5t6 -7.5q8 -8 12.5 -14t6.5 -11q3 -5 3 -9zM61 63q51 40 86 83.5t55.5 79t27.5 58.5t3 22q-7 3 -21.5 -11.5t-33 -38t-39 -52.5t-38 -55.5t-30 -47t-16.5 -27.5q-6 -11 -6 -14t3 -2t9 5z
M356 542q1 6 7 16t12.5 20t12 17.5t6.5 8.5l7 10q0 1 2 1h1l30 -38q1 0 1 -2t-5 -15q-2 -4 -7 -12t-11 -16.5t-11.5 -14.5t-6.5 -6q-1 -1 -3 -5q0 -1 -0.5 -2t-0.5 -2q-7 -11 -12 -28t-8.5 -32.5t-5 -27t-1.5 -12.5q0 -2 1 -4l2 -4q1 -1 0 -4t-3.5 -4.5t-6.5 -1t-10 6.5
q-5 5 -12.5 14t-9.5 12q-1 1 -0.5 3t0.5 4v4v5.5t1 10.5q0 6 1 15q-15 -9 -33 -19.5t-35 -19t-30 -14.5t-18 -6q-3 0 -5 1.5t-4 3.5l-4 4l-10 12q-4 5 -7 8.5t-5 5.5t-1.5 4t1.5 3q0 1 2 1q15 3 34.5 12.5t40 20.5t40.5 23.5t34.5 22.5t23 15.5t6.5 4.5z" />
    <glyph glyph-name="otilde" unicode="&#xf5;" horiz-adv-x="221" 
d="M128 389q-16 26 -17.5 35t4.5 11q9 2 26.5 9t35.5 14t34 10t24 -2q1 -1 5 -7q2 -3 3 -7q1 -2 3 -4q3 -3 11 -3q9 0 23.5 4t28 8.5t24 9t11.5 4.5q2 1 6.5 -5t8.5 -14t6.5 -15.5t2.5 -10.5q-2 -3 -5 -3q-2 1 -3 0q-4 -2 -16 -8.5t-31 -12.5q-20 -7 -32 -9t-19.5 0t-12 7.5
t-10.5 14.5q-2 2 -8 2h-6q-22 -5 -45 -14t-43 -19q-3 -1 -6 2q-2 1 -3 3zM293 294q0 -1 0.5 -9t-2 -21.5t-9.5 -32t-21 -40.5q-38 -59 -69 -94t-55 -54.5t-40.5 -26t-23.5 -7.5q-2 0 -4.5 -1t-6.5 -1q-5 -1 -11 1.5t-11 4.5l-12 6q-3 1 -6 4l-5 5t-5 8q-11 14 -13 27.5
t0 24.5q2 12 7 23q23 43 53.5 91.5t58.5 90.5q33 48 67 95q5 0 8.5 -1.5t6.5 -3.5l4 -2q4 -2 7 -4q1 -1 1.5 -0.5t3.5 -1.5q4 1 13.5 -6.5t19 -16.5t16.5 -16.5t6 -7.5q8 -8 12.5 -14t6.5 -11q3 -5 3 -9zM61 63q51 40 86 83.5t55.5 79t27.5 58.5t3 22q-7 3 -21.5 -11.5
t-33 -38t-39 -52.5t-38 -55.5t-30 -47t-16.5 -27.5q-6 -11 -6 -14t3 -2t9 5z" />
    <glyph glyph-name="odieresis" unicode="&#xf6;" horiz-adv-x="221" 
d="M293 294q0 -1 0.5 -9t-2 -21.5t-9.5 -32t-21 -40.5q-38 -59 -69 -94t-55 -54.5t-40.5 -26t-23.5 -7.5q-2 0 -4.5 -1t-6.5 -1q-5 -1 -11 1.5t-11 4.5l-12 6q-3 1 -6 4l-5 5t-5 8q-11 14 -13 27.5t0 24.5q2 12 7 23q23 43 53.5 91.5t58.5 90.5q33 48 67 95q5 0 8.5 -1.5
t6.5 -3.5l4 -2q4 -2 7 -4q1 -1 1.5 -0.5t3.5 -1.5q4 1 13.5 -6.5t19 -16.5t16.5 -16.5t6 -7.5q8 -8 12.5 -14t6.5 -11q3 -5 3 -9zM61 63q51 40 86 83.5t55.5 79t27.5 58.5t3 22q-7 3 -21.5 -11.5t-33 -38t-39 -52.5t-38 -55.5t-30 -47t-16.5 -27.5q-6 -11 -6 -14t3 -2t9 5z
M186 425q-1 0 -1 0.5t-1 0.5t-2 1q-2 0 -2.5 3t-1.5 5v2q0 1 1 1q3 5 10 16.5t12 15.5q0 1 0.5 1.5t0.5 2.5t2 4q1 1 1 2q7 9 14 11t11 1q1 0 1.5 -0.5t1.5 -0.5h1q9 -7 17 -13q7 -5 12 -9.5t7 -5.5q0 -4 -1 -7t-1 -6q0 -4 -6 -13.5t-14 -18.5t-16.5 -15.5t-12.5 -3.5
q0 1 -1 1q-2 0 -2 1q-3 1 -7.5 4.5l-9 7t-8.5 7t-5 5.5zM280 416l-2 4t1 7q1 6 8 20t21 31q3 5 7.5 5t8.5 -2l10 -5l26 -22l1 -1l1 -2q2 -5 1 -14.5t-10 -20.5q-9 -12 -14 -16.5t-7 -5.5l-2 -1v-1q0 -1 -1 -1t-1 -1l-1 -2l-1 -1l-2 -1q-5 2 -12.5 7t-14.5 10q-8 6 -17 13z
" />
    <glyph glyph-name="divide" unicode="&#xf7;" horiz-adv-x="486" 
d="M227 353q4 -1 5 -1.5t5 -3.5q-1 -2 5 -10q3 -4 5 -7q-1 -1 0 -2q0 -3 4 1q2 0 17 3.5t36 9t46 11.5t46 11t35 8.5t15 3.5q0 1 1 1q3 0 5 1q1 0 5 2q1 1 3 2l-2 4q-3 5 -2 7q4 -1 9.5 2t15.5 -2q1 0 2 -1t1 -3q5 -9 9 -16q4 -6 7 -12t5 -8q3 -3 1 -6.5t0 -4.5l2 -2
q2 -2 -3 -5q-9 -6 -35.5 -13.5t-62.5 -16t-77 -18t-79.5 -19.5t-69.5 -20t-47 -20q0 -2 -6.5 -4t-7.5 -2q-3 0 -5 2l-2 2q-1 5 -7.5 17t-10.5 20q-1 1 -0.5 2.5t0.5 3.5t1 3q1 0 2 1t3 1q0 2 14 12.5t31 23.5q20 15 46 33q2 2 9.5 7t11.5 8t4 5t5 1q2 0 3.5 -5t1.5 -7z
M277 417q0 2 2 12t10 23q3 5 7.5 9.5t8.5 6.5q4 3 9 5q5 8 14.5 14.5t11.5 5.5l4 -6q2 -2 5 -6t7 -9t9 -11v-4q-1 -4 3.5 -8t8.5 -9q2 -5 -0.5 -15t-11.5 -16q-3 -3 -10 -7.5t-14.5 -9.5t-14 -8t-8.5 -3q-3 -2 -8 -1.5t-7 2.5q-3 2 -7 7.5t-9 11.5q-5 7 -10 16zM240 173
q0 3 1.5 6t3.5 6q2 4 5 7q9 10 17 19q7 8 12.5 14t7.5 6q0 2 1 2h1q1 4 6 8t6 4v1q0 -1 1 -1t1 -0.5t2 -0.5q2 -1 7 -6.5t11 -12.5t11.5 -13t7.5 -9q8 -8 4 -19.5t-10 -16.5q-7 -6 -12 -8.5t-9 -5.5q-6 -2 -16.5 -10.5t-14.5 -9.5q-3 0 -6 1q-5 2 -8 7q-6 5 -16.5 14.5
t-13.5 17.5z" />
    <glyph glyph-name="oslash" unicode="&#xf8;" horiz-adv-x="281" 
d="M351 298q2 -6 6 -17.5t-2 -32.5t-27 -54.5t-68 -84.5q-40 -44 -76 -64.5t-56 -30.5q-7 -12 -13 -23q-5 -9 -9.5 -17.5t-4.5 -10.5q0 -1 -1 -2q-2 -2 -4 -1q-2 0 -5 0.5t-5 2.5q-4 2 -6 4l-32 29l-2 3h-2q-2 0 -2 3q1 0 4 4q2 2 4.5 7t5.5 13q-8 5 -16.5 14t-16.5 17
q-5 4 -8 10q-7 13 -2 36q8 29 24.5 63.5t39 68t48.5 63t51.5 49.5t50 28t43.5 -3q7 13 9 15q1 2 2 1l4 6q2 2 3.5 4.5t2.5 4.5q2 1 3 2.5t3 3.5t3 4q0 2 3.5 6t9.5 1q5 -7 7.5 -11t5.5 -4t3.5 -2.5t2.5 -6.5q1 -2 5 -5t7.5 -6.5t5.5 -6.5t0 -4q-2 -2 -8.5 -9.5t-10.5 -14.5
l-9 -11q7 -7 10 -12t5 -8t7 -6.5t7 -14.5zM68 61q2 -3 9 -2q35 63 78 128.5t88 137.5q-31 -23 -47.5 -43.5t-35.5 -44.5q-30 -38 -48.5 -69.5t-28.5 -54.5t-13 -36.5t-2 -15.5zM194 120q18 21 39.5 46.5t39.5 51.5t29.5 50.5t10.5 43.5l-4 3q-2 1 -1.5 0.5t-2.5 0.5
q-12 -19 -28.5 -46.5t-36 -59.5t-41.5 -66t-44 -65z" />
    <glyph glyph-name="ugrave" unicode="&#xf9;" horiz-adv-x="239" 
d="M190 341q2 -2 4 -5q3 -5 7 -7q3 -4 8.5 -7.5t8.5 -5.5q1 -6 3.5 -6.5t-2.5 -9.5q-2 -3 -16.5 -22.5t-33 -44.5t-36 -48t-24.5 -33q-2 -2 16.5 16t46.5 46.5t60.5 63t59.5 64.5l22 33q8 13 15 24.5t7 13.5l4 5q1 0 3 1q2 0 3 0.5t3 -1.5t6.5 -6t10 -9.5t9.5 -10t6 -6.5v-7
q0 -1 2.5 0.5t3 1t-2.5 -5.5t-13 -18q-18 -24 -20 -29q-3 -4 -2 -5q0 -1 -1 -2l-4 -4q-5 -2 -4.5 -2.5t-1.5 -2.5q-34 -55 -63 -108q-26 -45 -50.5 -95.5t-37.5 -89.5q-1 -1 -2 -3t-1 -5q2 2 10 7t17 10q11 6 24 13q2 1 0.5 -0.5t-4.5 -3.5t-5 -4.5t-2 -3.5q0 -4 -1.5 -4
t-1.5 -3l-4 -4q-3 -3 -3 -6l-3 -1q0 -5 -1 -7t-1 -4q-3 -2 -9.5 -10.5t-7.5 -11.5q-1 -2 -2.5 -4.5t-3.5 -4.5q-2 -3 -4 -5q-3 -4 -5 -8q-2 -3 -3.5 -5.5t-3.5 -3.5q-4 -2 -5.5 -1.5l-4.5 1.5q-7 5 -13 10q-5 5 -10.5 9.5t-7.5 7.5q0 1 -2 3t-2.5 8.5t1 18t9.5 32.5
q4 15 13.5 36t19 41t16.5 34l8 16l-178 -161l-12 -8q-4 -4 -5 -3.5t-3 -1.5l-3 -3h-1q-3 0 -6 1q-7 2 -7 3q-2 2 -3 3.5t-4 3.5l-22 18q-2 0 -3 1q-2 2 -2 5q0 1 2 5q1 1 2 3q8 13 18 27q8 11 18 25t19 25q7 9 20 26t29.5 38.5t34.5 45t34.5 46t29.5 42t20 31.5l3 3q3 3 4 5
q1 3 5.5 3t7.5 -5zM291 374q-2 -2 -7 -5.5t-8 -1.5h-1q-3 0 -18.5 2.5t-37.5 8t-46.5 15t-46.5 24.5t-38 35t-19 48v2q0 1 1 2v2l-2 6l-1 1q-2 1 -2 3h2h2q1 -1 3 -1t3 -0.5t3 -0.5t4.5 -1t3.5 -1q5 -2 9.5 -3.5t10.5 -4.5q1 0 4.5 -1.5t5.5 -2.5q9 -4 17 -10q4 -3 6 -5
t4.5 -3.5t4.5 -3.5l2 -1l8 -11q1 -2 0 -4l-2 -4h-1q-2 1 -7.5 3.5t-12 5t-13 4.5t-10.5 2q2 -2 2.5 -3.5t4.5 -3.5q3 -2 9.5 -6t21.5 -10t40 -12t65 -12h2l2 2h2q4 0 6 1q2 0 3 1q3 -3 9.5 -15.5t6.5 -19.5v-2l4 -6v-2q0 -2 0.5 -3t0.5 -3v-3q0 -1 1 -1q0 -1 -1 -1z" />
    <glyph glyph-name="uacute" unicode="&#xfa;" horiz-adv-x="239" 
d="M190 341q2 -2 4 -5q3 -5 7 -7q3 -4 8.5 -7.5t8.5 -5.5q1 -6 3.5 -6.5t-2.5 -9.5q-2 -3 -16.5 -22.5t-33 -44.5t-36 -48t-24.5 -33q-2 -2 16.5 16t46.5 46.5t60.5 63t59.5 64.5l22 33q8 13 15 24.5t7 13.5l4 5q1 0 3 1q2 0 3 0.5t3 -1.5t6.5 -6t10 -9.5t9.5 -10t6 -6.5v-7
q0 -1 2.5 0.5t3 1t-2.5 -5.5t-13 -18q-18 -24 -20 -29q-3 -4 -2 -5q0 -1 -1 -2l-4 -4q-5 -2 -4.5 -2.5t-1.5 -2.5q-34 -55 -63 -108q-26 -45 -50.5 -95.5t-37.5 -89.5q-1 -1 -2 -3t-1 -5q2 2 10 7t17 10q11 6 24 13q2 1 0.5 -0.5t-4.5 -3.5t-5 -4.5t-2 -3.5q0 -4 -1.5 -4
t-1.5 -3l-4 -4q-3 -3 -3 -6l-3 -1q0 -5 -1 -7t-1 -4q-3 -2 -9.5 -10.5t-7.5 -11.5q-1 -2 -2.5 -4.5t-3.5 -4.5q-2 -3 -4 -5q-3 -4 -5 -8q-2 -3 -3.5 -5.5t-3.5 -3.5q-4 -2 -5.5 -1.5l-4.5 1.5q-7 5 -13 10q-5 5 -10.5 9.5t-7.5 7.5q0 1 -2 3t-2.5 8.5t1 18t9.5 32.5
q4 15 13.5 36t19 41t16.5 34l8 16l-178 -161l-12 -8q-4 -4 -5 -3.5t-3 -1.5l-3 -3h-1q-3 0 -6 1q-7 2 -7 3q-2 2 -3 3.5t-4 3.5l-22 18q-2 0 -3 1q-2 2 -2 5q0 1 2 5q1 1 2 3q8 13 18 27q8 11 18 25t19 25q7 9 20 26t29.5 38.5t34.5 45t34.5 46t29.5 42t20 31.5l3 3q3 3 4 5
q1 3 5.5 3t7.5 -5zM166 438q0 1 1 1q2 -1 4 -1h3q1 1 2 1q0 1 1 1h1q10 3 31 9.5t44.5 15t46 16.5t36.5 13q28 11 43.5 20.5t16.5 12.5q0 2 2 2q1 0 2 -1q0 -1 1 -1l1 -1l1 -1q-1 -4 0.5 -11t3.5 -14q2 -9 5 -18v-3q-2 -6 -14 -13.5t-27.5 -15t-31.5 -13.5t-26 -9l-62 -22
q-1 -1 -4 -1q-3 -1 -2.5 -2t-0.5 -4q1 -1 1 -2q1 0 1 -1t-1 -1v-6q0 -1 -3 -1.5t-5 -0.5h-3q-4 1 -17 0t-17 0h-5q-1 0 -2 1q-14 -4 -17 0q-1 1 -1 2q-4 8 -6.5 21.5t-3.5 15.5q-1 0 -1 1v1z" />
    <glyph glyph-name="ucircumflex" unicode="&#xfb;" horiz-adv-x="242" 
d="M206 369q2 -2 4 -5q3 -5 7 -7q3 -4 8.5 -7.5t8.5 -5.5q1 -6 3.5 -6.5t-2.5 -9.5q-1 -2 -9.5 -14t-21 -29t-27 -37.5t-28 -39.5t-24.5 -34.5t-16 -21.5q-2 -2 13 11t39 35t52.5 51t55.5 59l22 33q8 13 15 24.5t7 13.5l4 5q1 0 3 1q2 0 3 0.5t3 -1.5t6.5 -6t10 -9.5
t9.5 -10t6 -6.5v-7q0 -1 2.5 0.5t3 1t-2.5 -5.5t-13 -18q-18 -24 -20 -29q-3 -4 -2 -5q0 -1 -1 -2l-4 -4q-5 -2 -4.5 -2.5t-1.5 -2.5q-26 -45 -51 -91q-21 -39 -42.5 -84t-34.5 -84q-1 -1 -2 -3t-1 -5q2 2 10 7t17 10q11 6 24 13q2 1 0.5 -0.5t-4.5 -3.5t-5 -4.5t-2 -3.5
q0 -4 -1.5 -4t-1.5 -3l-4 -4q-3 -3 -3 -6l-3 -1q0 -5 -1 -7t-1 -4q-3 -2 -9.5 -10.5t-7.5 -11.5q-1 -2 -2.5 -4.5t-3.5 -4.5q-2 -3 -4 -5q-3 -4 -5 -8q-2 -3 -3.5 -5.5t-3.5 -3.5q-4 -2 -5.5 -1.5l-4.5 1.5q-7 5 -13 10q-5 5 -10.5 9.5t-7.5 7.5q0 1 -2 3t-2.5 8.5t1 18
t9.5 32.5q4 15 13.5 36t19 41t16.5 34l8 16l-178 -161l-12 -8q-4 -4 -5 -3.5t-3 -1.5l-3 -3h-1q-3 0 -6 1q-7 2 -7 3q-2 2 -3 3.5t-4 3.5l-22 18q-2 0 -3 1q-2 2 -2 5q0 1 2 5q1 1 2 3q8 13 18 27q8 11 18 25t19 25q7 9 21.5 28.5t32.5 43.5t38 51.5t38 53t32.5 46.5
t21.5 34l3 3q3 3 4 5q1 3 5.5 3t7.5 -5zM357 546q1 6 6.5 15.5t11.5 19t11.5 17t6.5 8.5q2 2 3.5 5t3.5 5q0 1 2 1h1l29 -37q1 0 1 -2q0 -1 -5 -14q-2 -4 -7 -12t-11 -16t-11 -14t-6 -6q-1 -1 -3 -5q0 -1 -0.5 -2t-0.5 -2q-6 -11 -11 -27t-8.5 -31t-5 -26t-1.5 -12
q0 -2 1 -4l2 -4q1 -1 0 -4t-3.5 -4.5t-6.5 -1t-9 6.5q-5 5 -12 13.5t-9 11.5q-1 1 -0.5 3t0.5 4v4v4.5t1 8.5q0 5 1 11q-14 -9 -30 -21.5t-30 -24t-25.5 -20t-16.5 -9.5q-5 0 -9 4q-3 2 -4 4q-6 7 -11 13q-5 5 -8.5 9.5t-5.5 6.5q-3 3 0 6q-1 1 1 1q21 13 51 33.5t57 40
l45 32.5t15 11z" />
    <glyph glyph-name="udieresis" unicode="&#xfc;" horiz-adv-x="239" 
d="M205 369q2 -2 4 -5q3 -5 7 -7q3 -4 8.5 -7.5t8.5 -5.5q1 -6 3.5 -6.5t-2.5 -9.5q-2 -3 -19 -27t-38 -54t-41 -57.5t-27 -37.5q-2 -2 14.5 13t42 39.5t55.5 56t57 61.5l22 33q8 13 15 24.5t7 13.5l4 5q1 0 3 1q2 0 3 0.5t3 -1.5t6.5 -6t10 -9.5t9.5 -10t6 -6.5v-7
q0 -1 2.5 0.5t3 1t-2.5 -5.5t-13 -18q-18 -24 -20 -29q-3 -4 -2 -5q0 -1 -1 -2l-4 -4q-5 -2 -4.5 -2.5t-1.5 -2.5q-30 -50 -56 -98q-23 -42 -45.5 -89t-35.5 -86q-1 -1 -2 -3t-1 -5q2 2 10 7t17 10q11 6 24 13q2 1 0.5 -0.5t-4.5 -3.5t-5 -4.5t-2 -3.5q0 -4 -1.5 -4t-1.5 -3
l-4 -4q-3 -3 -3 -6l-3 -1q0 -5 -1 -7t-1 -4q-3 -2 -9.5 -10.5t-7.5 -11.5q-1 -2 -2.5 -4.5t-3.5 -4.5q-2 -3 -4 -5q-3 -4 -5 -8q-2 -3 -3.5 -5.5t-3.5 -3.5q-4 -2 -5.5 -1.5l-4.5 1.5q-7 5 -13 10q-5 5 -10.5 9.5t-7.5 7.5q0 1 -2 3t-2.5 8.5t1 18t9.5 32.5q4 15 13.5 36
t19 41t16.5 34l8 16l-178 -161l-12 -8q-4 -4 -5 -3.5t-3 -1.5l-3 -3h-1q-3 0 -6 1q-7 2 -7 3q-2 2 -3 3.5t-4 3.5l-22 18q-2 0 -3 1q-2 2 -2 5q0 1 2 5q1 1 2 3q8 13 18 27q8 11 18 25t19 25q7 9 21 28.5t32.5 43.5t38 51.5t38 53t32.5 46.5t21 34l3 3q3 3 4 5q1 3 5.5 3
t7.5 -5zM216 422q-1 0 -1 0.5t-1 0.5t-1 1q-2 0 -2.5 2.5t-1.5 4.5v2q0 1 1 1q3 5 9.5 15.5t10.5 14.5q0 1 0.5 1.5t0.5 1.5q0 2 2 4q1 1 1 2q6 8 12.5 10t10.5 1q1 0 1.5 -0.5t1.5 -0.5h1q8 -7 15 -12q6 -5 11 -9t7 -5q0 -4 -1 -7t-1 -5q0 -4 -5.5 -12.5t-13 -17t-15 -14
t-11.5 -3.5q0 1 -1 1q-2 0 -2 1q-5 2 -15 10.5t-13 11.5zM313 437q-1 2 -1.5 3.5t0.5 6.5t7.5 18.5t19.5 28.5q5 7 15 3q4 -2 9 -5l24 -20l1 -1l1 -2q2 -4 1 -12.5t-9 -19.5t-13 -15.5t-7 -5.5l-1 -1q0 -1 -1 -1t-1 -1l-1 -2l-1 -1l-2 -1q-5 2 -11.5 6.5t-13.5 9.5
q-8 5 -16 12z" />
    <glyph glyph-name="yacute" unicode="&#xfd;" horiz-adv-x="274" 
d="M477 45q27 -8 44.5 -25t28.5 -34q12 -20 18 -42q-4 -12 -14 -25t-32 -24.5t-59 -20t-95 -10.5q-73 -3 -138.5 6t-113.5 19q-53 -96 -89 -170.5t-66 -140.5q-21 -48 -37.5 -78t-21.5 -38q-2 -2 -2 -5q-2 -3 -4 -4h-3q-1 0 -2 1q-28 20 -38 33q-5 7 -7 12q-6 28 -13 74.5
t-10 99t-0.5 106.5t14.5 98q12 45 31 63.5t38 23.5q22 5 46 -3l49 -19q5 -2 14 -5q8 -2 19.5 -5t28.5 -7q12 24 23 43.5t21.5 37.5t21 36.5t22.5 40.5q-17 -14 -35.5 -26.5t-35 -23t-28 -18t-15.5 -11.5q-4 -2 -3 -2l-1 -1l-16 -8q-12 14 -22 26q-8 10 -14.5 19.5t-6.5 11.5
q0 1 2 3q1 0 3 2q4 7 23.5 35.5t69.5 90.5q29 36 52.5 69.5t39.5 60t24.5 45.5t7.5 27q0 1 2 3q1 0 3 1q3 -4 7 -8q3 -3 6.5 -6t5.5 -5q3 0 8.5 -8t8.5 -10q5 -4 9 -7.5t4 -7.5q0 -2 -5.5 -14.5t-25.5 -44.5q-8 -14 -29.5 -44t-44.5 -60q-27 -35 -59 -76q24 14 45 29
q18 13 35.5 27t25.5 27q38 59 71 103.5t58 74.5q29 35 53 61l8 15q11 -4 11 -5.5t3 -1.5q4 -4 7 -8.5t6 -7.5t2 -6t6 -6q2 -2 3 -5l2 -6q1 -4 1 -8q-31 -44 -56.5 -78t-48.5 -65.5t-44 -62.5t-44 -68t-48 -84t-55 -109q17 -3 45 -7.5t76 -7.5q92 -2 146.5 11t83.5 30
q34 19 48 44q-4 5 -8.5 9t-8.5 7q-5 4 -10 7q-4 1 -7 3q-6 4 -6 10q0 2 -4 4q-2 1 -2 2.5t-2 1.5q-3 2 -7 2.5t-6 2.5q-1 0 -1 0.5t-1 0.5h-2q-7 1 -11 3.5t-10 6.5q-9 8 -19 13q-6 3 -13 5q-1 1 6 0q6 -1 20 -4.5t43 -10.5zM-114 -428q25 53 46.5 96.5t41 82.5t38.5 76.5
t40 78.5l-55 14q-40 12 -64 -6t-36.5 -52.5t-16 -80t-2.5 -88t4 -76t4 -45.5zM201 455q0 1 1 1q2 -1 4 -1h3q1 1 2 1q0 1 1 1h1q10 3 31 9.5t44.5 15t46 16.5t36.5 13q28 11 43.5 20.5t16.5 12.5q0 2 2 2q1 0 2 -1q0 -1 1 -1l1 -1l1 -1q-1 -4 0.5 -11t3.5 -14q2 -9 5 -18v-3
q-2 -6 -14 -13.5t-27.5 -15t-31.5 -13.5t-26 -9l-62 -22q-1 -1 -4 -1q-3 -1 -2.5 -2t-0.5 -4q1 -1 1 -2q1 0 1 -1t-1 -1v-6q0 -1 -3 -1.5t-5 -0.5h-3q-4 1 -17 0t-17 0h-5q-1 0 -2 1q-14 -4 -17 0q-1 1 -1 2q-4 8 -6.5 21.5t-3.5 15.5q-1 0 -1 1v1z" />
    </font>
</defs>
</svg>
