<?xml version="1.0" standalone="no"?>
<!DOCTYPE svg PUBLIC "-//W3C//DTD SVG 1.1//EN" "http://www.w3.org/Graphics/SVG/1.1/DTD/svg11.dtd" >
<svg xmlns="http://www.w3.org/2000/svg" xmlns:xlink="http://www.w3.org/1999/xlink" version="1.1">
<metadata>
Created by FontForge 20200427 at Tue Dec 27 01:39:02 2011
 By www
Copyright (c) 2009 by Designed by Ariel Di Lisio and digitized by Alejandro Paul. All rights reserved.
</metadata>
<defs>
<font id="MarzoW00-Regular" horiz-adv-x="763" >
  <font-face 
    font-family="MarzoW00-Regular"
    font-weight="400"
    font-stretch="normal"
    units-per-em="1000"
    panose-1="2 0 5 6 0 0 0 2 0 4"
    ascent="848"
    descent="-152"
    x-height="705"
    cap-height="705"
    bbox="-73 -92 1258 893"
    underline-thickness="50"
    underline-position="-150"
    unicode-range="U+000D-FB02"
  />
<missing-glyph horiz-adv-x="350" 
 />
    <glyph glyph-name=".notdef" horiz-adv-x="350" 
 />
    <glyph glyph-name=".null" horiz-adv-x="0" 
 />
    <glyph glyph-name="uni000D" unicode="&#xd;" horiz-adv-x="0" 
 />
    <glyph glyph-name="space" unicode=" " horiz-adv-x="350" 
 />
    <glyph glyph-name="exclam" unicode="!" horiz-adv-x="98" 
d="M58 86v-86h-18v86h18zM58 705v-539h-18v539h18z" />
    <glyph glyph-name="quotedbl" unicode="&#x22;" horiz-adv-x="154" 
d="M58 705v-129h-18v129h18zM114 705v-129h-18v129h18z" />
    <glyph glyph-name="numbersign" unicode="#" horiz-adv-x="494" 
d="M0 295h162l27 115h-157v18h161l63 278h19l-63 -278h103l64 278h19l-64 -278h160v-18h-164l-27 -115h159v-18h-163l-64 -277h-18l63 277h-103l-63 -277h-19l63 277h-158v18zM181 295h103l27 115h-103z" />
    <glyph glyph-name="dollar" unicode="$" horiz-adv-x="605" 
d="M311 742v-779h-18v779h18zM539 561q-12 30 -30 54.5t-45.5 42.5t-65.5 28t-91 10q-40 0 -83.5 -7.5t-80 -24.5t-60.5 -45.5t-24 -71.5q0 -27 9.5 -47t31.5 -36t57.5 -29t86.5 -25l129 -31q57 -14 97 -30.5t65.5 -39t37.5 -52.5t12 -70v-8q0 -57 -27 -93.5t-68.5 -57.5
t-89.5 -29t-90 -8q-59 0 -108.5 9t-87 29.5t-61.5 53.5t-33 81l18 4q8 -44 30.5 -74.5t58 -49t82 -27t101.5 -8.5q39 0 84 7t83.5 26t64 52t25.5 85v8q0 36 -11 63t-35 47.5t-61.5 35.5t-90.5 28l-129 31q-104 25 -151.5 59.5t-47.5 95.5q0 48 25.5 80t64.5 51.5t86 27.5
t90 8q56 0 97 -11t70 -30.5t48 -46.5t33 -59z" />
    <glyph glyph-name="percent" unicode="%" horiz-adv-x="510" 
d="M0 7l496 709l14 -10l-496 -709zM459 109q0 37 -26 63.5t-64 26.5t-64 -26.5t-26 -63.5q0 -38 26 -64.5t64 -26.5t64 26.5t26 64.5zM477 109q0 -23 -8.5 -42.5t-23 -34.5t-34.5 -23.5t-42 -8.5q-23 0 -42.5 8.5t-34 23.5t-23 34.5t-8.5 42.5q0 22 8.5 41.5t23 34.5
t34 23.5t42.5 8.5q22 0 42 -8.5t34.5 -23.5t23 -34.5t8.5 -41.5zM43 598q0 -38 26 -64t64 -26t64 26t26 64t-26 64t-64 26t-64 -26t-26 -64zM25 598q0 22 8.5 42t23 34.5t34 23t42.5 8.5q22 0 42 -8.5t34.5 -23t23 -34.5t8.5 -42q0 -23 -8.5 -42.5t-23 -34t-34.5 -23
t-42 -8.5q-23 0 -42.5 8.5t-34 23t-23 34t-8.5 42.5z" />
    <glyph glyph-name="ampersand" unicode="&#x26;" horiz-adv-x="568" 
d="M427 534q0 34 -13 63.5t-35 51.5t-51.5 34.5t-62.5 12.5q-34 0 -63.5 -12.5t-51.5 -34.5t-35 -51.5t-13 -63.5t12.5 -63.5t34.5 -51.5l301 -302q15 25 23.5 53.5t8.5 60.5h18q0 -35 -10 -67t-27 -60l105 -104h-24l-91 90q-33 -45 -83 -71.5t-110 -26.5q-50 0 -93.5 19
t-76 51t-51.5 75.5t-19 93.5q0 60 27.5 111.5t72.5 83.5q-36 47 -36 108q0 37 14 70t39 57.5t57.5 38.5t70.5 14q37 0 70 -14t57.5 -38.5t38.5 -57.5t14 -70h-18zM131 413q-42 -30 -67.5 -77.5t-25.5 -104.5q0 -46 17.5 -86t47.5 -70t70.5 -47.5t86.5 -17.5q56 0 103 25
t78 68z" />
    <glyph glyph-name="quotesingle" unicode="'" horiz-adv-x="98" 
d="M58 705v-129h-18v129h18z" />
    <glyph glyph-name="parenleft" unicode="(" horiz-adv-x="181" 
d="M141 687q-34 0 -58.5 -24.5t-24.5 -58.5v-503q0 -35 24.5 -59t58.5 -24v-18q-21 0 -39 8t-32 21.5t-22 32t-8 39.5v503q0 21 8 39t22 32t32 22t39 8v-18z" />
    <glyph glyph-name="parenright" unicode=")" horiz-adv-x="181" 
d="M40 705q21 0 39.5 -8t32 -22t21.5 -32t8 -39v-503q0 -21 -8 -39.5t-21.5 -32t-32 -21.5t-39.5 -8v18q35 0 59 24t24 59v503q0 34 -24 58.5t-59 24.5v18z" />
    <glyph glyph-name="asterisk" unicode="*" horiz-adv-x="366" 
d="M192 696v-176l168 54l6 -18l-168 -55l103 -142l-14 -10l-104 143l-104 -143l-14 10l104 142l-169 55l6 18l168 -54v176h18z" />
    <glyph glyph-name="plus" unicode="+" horiz-adv-x="546" 
d="M20 262h244v244h18v-244h244v-18h-244v-244h-18v244h-244v18z" />
    <glyph glyph-name="comma" unicode="," horiz-adv-x="98" 
d="M58 86v-129h-18v129h18z" />
    <glyph glyph-name="hyphen" unicode="-" horiz-adv-x="709" 
d="M20 362h669v-18h-669v18z" />
    <glyph glyph-name="period" unicode="." horiz-adv-x="98" 
d="M58 86v-86h-18v86h18z" />
    <glyph glyph-name="slash" unicode="/" horiz-adv-x="473" 
d="M0 0l453 705h20l-453 -705h-20z" />
    <glyph glyph-name="zero" unicode="0" horiz-adv-x="669" 
d="M334 9q72 0 127.5 25.5t93 71.5t57 108.5t19.5 137.5q0 79 -20.5 142.5t-58.5 108.5t-93 69t-125 24q-72 0 -127.5 -25.5t-93 -71t-56.5 -108.5t-19 -139q0 -81 20 -144.5t58 -108t93 -67.5t125 -23zM334 -9q-74 0 -132.5 24.5t-99 70.5t-61.5 113t-21 153
q0 79 20.5 145.5t60 114.5t98 75t135.5 27q74 0 132.5 -25.5t99 -72.5t62 -114t21.5 -150q0 -78 -20.5 -144.5t-60.5 -114.5t-99 -75t-135 -27z" />
    <glyph glyph-name="one" unicode="1" horiz-adv-x="96" 
d="M38 0v669q0 8 -5 12.5t-13 4.5v18q15 0 25.5 -10t10.5 -25v-669h-18z" />
    <glyph glyph-name="two" unicode="2" horiz-adv-x="542" 
d="M522 0h-451q-15 0 -25.5 10.5t-10.5 25.5q0 22 22 33l290 148q31 16 57.5 39t46 51.5t30.5 62t11 71.5q0 53 -20 99.5t-54.5 81t-81 54.5t-98.5 20q-63 0 -116 -27.5t-88 -74.5l-14 10q38 51 94 80.5t124 29.5q56 0 105.5 -21.5t86.5 -58.5t58.5 -86.5t21.5 -106.5
q0 -41 -11.5 -77t-32 -66.5t-49 -55t-62.5 -41.5l-287 -146q-15 -7 -15 -19q0 -8 5 -13t13 -5h451v-18z" />
    <glyph glyph-name="three" unicode="3" horiz-adv-x="596" 
d="M43 493q0 52 15.5 93t47.5 69.5t82 43.5t121 15q64 0 109 -13.5t73 -37t40.5 -54t12.5 -63.5q0 -30 -7 -55t-25.5 -44.5t-50 -35.5t-80.5 -28q-1 0 -2 -1q-2 -2 -2 -3q0 -3 2 -5q1 -1 3 -1q98 -25 146 -67.5t48 -121.5q0 -42 -17 -77.5t-50 -61.5t-82.5 -40.5
t-114.5 -14.5q-66 0 -119.5 13t-91 41t-58.5 71t-23 102h18q2 -55 22 -94.5t55 -65t85 -37.5t112 -12q60 0 106 13t77 36.5t47 56t16 70.5q0 37 -10 64t-32 47t-56 34t-82 26q-6 1 -10 5q-4 3 -6.5 7t-2.5 12q0 12 9 17q4 3 10 5q43 11 71.5 25.5t45.5 32t24 39.5t7 48
q0 30 -11.5 57t-37.5 47.5t-67.5 33t-100.5 12.5q-66 0 -113 -14t-77 -40t-44 -63.5t-14 -85.5h-18z" />
    <glyph glyph-name="four" unicode="4" horiz-adv-x="595" 
d="M575 131h-65v-131h-18v131h-430q-17 0 -29.5 12.5t-12.5 29.5t13 30l455 501h22v-555h65v-18zM38 173q0 -10 7 -17t17 -7h430v532l-447 -490q-7 -7 -7 -18z" />
    <glyph glyph-name="five" unicode="5" horiz-adv-x="532" 
d="M34 111q35 -47 88.5 -74.5t116.5 -27.5q53 0 99.5 20t81 54.5t54.5 81t20 99.5t-20 99.5t-54.5 81t-81 54.5t-99.5 20q-41 0 -78.5 -12t-68.5 -33q-12 -8 -23 -8q-17 0 -25.5 11.5t-8.5 25.5v202h428v-18h-410v-184q0 -8 4 -13.5t12 -5.5q6 0 13 4q34 23 73.5 36t83.5 13
q57 0 106.5 -21.5t86.5 -58.5t58.5 -86.5t21.5 -106.5t-21.5 -106.5t-58.5 -86.5t-86.5 -58.5t-106.5 -21.5q-68 0 -124.5 29.5t-94.5 80.5z" />
    <glyph glyph-name="six" unicode="6" horiz-adv-x="599" 
d="M20 270q0 64 26 119t71 93l223 225h24l-180 -183q26 12 55 19t60 7q58 0 109 -22t89 -60t60 -89t22 -109t-22 -108.5t-60 -88.5t-89 -60t-109 -22t-108.5 22t-88.5 60t-60 88.5t-22 108.5zM38 270q0 -54 20.5 -101.5t56 -83t83 -56t101.5 -20.5t101.5 20.5t83.5 56
t56.5 83t20.5 101.5t-20.5 102t-56.5 83.5t-83.5 56t-101.5 20.5t-101.5 -20.5t-83 -56t-56 -83.5t-20.5 -102z" />
    <glyph glyph-name="seven" unicode="7" horiz-adv-x="556" 
d="M20 704h480q15 0 25.5 -10.5t10.5 -25.5q0 -9 -7 -21l-435 -647h-21l442 657q3 4 3 11t-4 12.5t-14 5.5h-480v18z" />
    <glyph glyph-name="eight" unicode="8" horiz-adv-x="573" 
d="M286 696q-59 0 -100.5 -12.5t-67 -33t-37 -47.5t-11.5 -57q0 -26 7 -47.5t24 -39t45.5 -32t70.5 -25.5q13 -4 16 -9.5t3 -13.5q0 -7 -3 -11.5t-7 -6.5q-4 -4 -9 -5q-94 -23 -136.5 -61t-42.5 -110q0 -38 15.5 -70.5t46.5 -56t77 -36.5t107 -13q62 0 109 13t78.5 36.5
t47.5 56t16 70.5q0 71 -43 109t-136 62q-2 0 -10.5 4.5t-8.5 18.5q0 11 9 18q4 4 10 5q42 11 70.5 25.5t45.5 32t24 39t7 47.5q0 30 -11.5 57t-37.5 47.5t-67 33t-101 12.5zM286 714q65 0 110 -13.5t72.5 -37t40 -54t12.5 -63.5q0 -30 -7 -54.5t-25 -44t-49.5 -35.5
t-79.5 -28q-2 0 -3 -1q-2 -2 -2 -4t2 -4q1 -1 2 -1q52 -13 88.5 -29t60 -38.5t34.5 -52t11 -69.5q0 -42 -17 -77.5t-51 -61.5t-84 -40.5t-117 -14.5q-65 0 -114.5 14.5t-82.5 40.5t-50 61.5t-17 77.5q0 40 10.5 70t34 52t60 38t88.5 29q1 0 2 1q3 3 3 4t-3 4q-1 1 -2 1
q-48 12 -79.5 28t-49.5 35.5t-25 44t-7 54.5q0 33 12.5 63.5t40 54t72 37t109.5 13.5z" />
    <glyph glyph-name="nine" unicode="9" horiz-adv-x="599" 
d="M579 434q0 -63 -25 -116.5t-68 -91.5l-225 -226h-24l180 181q-54 -26 -117 -26q-58 0 -109 22t-89 60t-60 88.5t-22 108.5t22 109t60 89t89 60t109 22t108.5 -22t88.5 -60t60 -89t22 -109zM561 434q0 54 -20.5 102t-56 83.5t-83 56t-101.5 20.5t-102 -20.5t-83.5 -56
t-56 -83.5t-20.5 -102t20.5 -101.5t56 -83t83.5 -56t102 -20.5t101.5 20.5t83 56t56 83t20.5 101.5z" />
    <glyph glyph-name="colon" unicode=":" horiz-adv-x="98" 
d="M58 86v-86h-18v86h18zM58 362v-86h-18v86h18z" />
    <glyph glyph-name="semicolon" unicode=";" horiz-adv-x="98" 
d="M58 86v-129h-18v129h18zM58 362v-86h-18v86h18z" />
    <glyph glyph-name="equal" unicode="=" horiz-adv-x="423" 
d="M20 342h383v-18h-383v18zM20 182h383v-18h-383v18z" />
    <glyph glyph-name="question" unicode="?" horiz-adv-x="546" 
d="M239 86v-86h-18v86h18zM20 536q11 56 37.5 90.5t63.5 54t81 26.5t90 7q57 0 100.5 -13.5t73 -38t45 -58t15.5 -73.5q0 -48 -15.5 -80.5t-42 -54.5t-61 -36t-71.5 -24q-28 -7 -49 -21q-18 -12 -33 -33.5t-15 -53.5h-18q0 37 17 61.5t38 38.5q25 17 56 26q33 9 64.5 22.5
t56.5 34t40 49.5t15 71q0 36 -14 66.5t-41.5 52t-68 34t-92.5 12.5q-43 0 -84 -6.5t-75.5 -24.5t-59.5 -50t-35 -83z" />
    <glyph glyph-name="at" unicode="@" horiz-adv-x="758" 
d="M601 507l-51 -234q-3 -14 -3 -22q0 -28 16 -43.5t42 -15.5q32 0 54 20t35.5 49t19.5 61.5t6 57.5q0 69 -28 127t-75 100t-108 65.5t-127 23.5q-71 0 -134 -27t-109.5 -73.5t-73.5 -109.5t-27 -134t27 -133.5t73.5 -109t109.5 -73.5t134 -27q67 0 126 23t104 65l12 -14
q-48 -43 -109.5 -67.5t-132.5 -24.5q-75 0 -141 28.5t-115 77.5t-77.5 114.5t-28.5 140.5t28.5 141t77.5 115t115 77.5t141 28.5q70 0 134 -25t113.5 -69.5t79 -106t29.5 -133.5q0 -27 -6.5 -62.5t-22.5 -67.5t-41.5 -54t-62.5 -22q-33 0 -54.5 20t-21.5 57v13t2 12
q-18 -26 -41 -47t-49.5 -37t-55 -24.5t-57.5 -8.5q-35 0 -63 11t-48.5 31t-31.5 47.5t-11 59.5q0 44 20 87t53.5 76.5t77.5 54t92 20.5q59 0 98.5 -31t51.5 -80l16 76zM417 528q-44 0 -85 -19t-72 -50t-49.5 -70.5t-18.5 -80.5q0 -29 9.5 -53t27.5 -41t43 -27t56 -10
q37 0 72.5 14t65.5 38t51.5 56t30.5 69q3 11 4 21.5t1 20.5q0 28 -9.5 52.5t-27.5 42t-43 27.5t-56 10z" />
    <glyph glyph-name="A" unicode="A" horiz-adv-x="718" 
d="M698 0l-121 252h-437l-120 -252h-20l327 684q10 21 32 21t32 -21l327 -684h-20zM149 270h420l-194 406q-5 11 -16 11t-16 -11z" />
    <glyph glyph-name="B" unicode="B" horiz-adv-x="622" 
d="M40 0v705h333q63 0 106.5 -13.5t71 -36t39.5 -52t12 -62.5q0 -30 -7 -54t-24.5 -43.5t-48.5 -34.5t-79 -27q-3 0 -5 -2q-5 -3 -5 -10q0 -6 5 -8q2 -2 5 -2q48 -13 79 -30t48.5 -39t24.5 -48.5t7 -59.5q0 -36 -12 -69.5t-39.5 -58.5t-71 -40t-106.5 -15h-333zM373 18
q58 0 98 13.5t65 36.5t36.5 52.5t11.5 62.5q0 28 -7 52t-23.5 44t-44.5 35.5t-70 27.5l-4 1.5t-8.5 4.5t-8 8.5t-3.5 13.5q0 9 3.5 15t8.5 9q5 4 12 6q42 11 70 25t44.5 31t23.5 38t7 47q0 29 -11.5 55.5t-36.5 46.5t-65 32t-98 12h-315v-669h315z" />
    <glyph glyph-name="C" unicode="C" horiz-adv-x="710" 
d="M690 164q-23 -39 -56 -70.5t-72.5 -54.5t-85.5 -35.5t-95 -12.5q-75 0 -140.5 28.5t-114.5 77.5t-77.5 114.5t-28.5 140.5t28.5 141t77.5 115t114.5 77.5t140.5 28.5q90 0 165 -40t125 -106l-14 -10q-47 63 -119 100.5t-157 37.5q-71 0 -133.5 -27t-109 -73.5
t-73.5 -109.5t-27 -134t27 -133.5t73.5 -109t109 -73.5t133.5 -27q94 0 171 45t122 120z" />
    <glyph glyph-name="D" unicode="D" horiz-adv-x="627" 
d="M58 19h197q69 0 130 26.5t106 71.5t71.5 106t26.5 130t-26.5 130t-71.5 106.5t-106 71.5t-130 26h-179q-8 0 -13 -5t-5 -13v-650zM40 669q0 15 10.5 25.5t25.5 10.5h179q73 0 137 -27.5t112 -75.5t75.5 -112t27.5 -137t-27.5 -137t-75.5 -112t-112 -75.5t-137 -27.5h-215
v668z" />
    <glyph glyph-name="E" unicode="E" horiz-adv-x="593" 
d="M573 0h-533v669q0 15 10 25.5t25 10.5h491v-18h-491q-8 0 -12.5 -5t-4.5 -13v-309h515v-18h-515v-324h515v-18z" />
    <glyph glyph-name="F" unicode="F" horiz-adv-x="566" 
d="M40 0v669q0 15 10.5 25.5t25.5 10.5h464v-18h-464q-8 0 -13 -5t-5 -13v-309h488v-18h-488v-342h-18z" />
    <glyph glyph-name="G" unicode="G" 
d="M412 393h293q38 0 38 -41q0 -75 -28.5 -140.5t-77.5 -114.5t-114.5 -77.5t-140.5 -28.5t-141 28.5t-115 77.5t-77.5 114.5t-28.5 140.5t28.5 141t77.5 115t115 77.5t141 28.5q89 0 164 -40t125 -106l-14 -10q-47 63 -118.5 100.5t-156.5 37.5q-71 0 -134 -27
t-109.5 -73.5t-73.5 -109.5t-27 -134t27 -133.5t73.5 -109t109.5 -73.5t134 -27t133.5 27t109 73.5t73.5 109t27 133.5q0 23 -20 23h-293v18z" />
    <glyph glyph-name="H" unicode="H" horiz-adv-x="640" 
d="M600 705v-705h-18v342h-524v-342h-18v705h18v-345h524v345h18z" />
    <glyph glyph-name="I" unicode="I" horiz-adv-x="118" 
d="M68 705v-705h-18v705h18z" />
    <glyph glyph-name="J" unicode="J" horiz-adv-x="630" 
d="M38 276q0 -56 21 -104.5t57.5 -84.5t85 -57t103.5 -21t103.5 21t85 57t57.5 84.5t21 104.5v429h18v-429q0 -59 -22.5 -111t-61 -90.5t-90.5 -61t-111 -22.5t-111 22.5t-90.5 61t-61 90.5t-22.5 111h18z" />
    <glyph glyph-name="K" unicode="K" horiz-adv-x="572" 
d="M550 692l-449 -318q-11 -7 -11 -19q0 -6 3 -12.5t8 -9.5l461 -319l-10 -14l-462 319q-18 13 -18 36q0 21 17 33l451 318zM40 0v705h18v-705h-18z" />
    <glyph glyph-name="L" unicode="L" horiz-adv-x="567" 
d="M58 705v-669q0 -8 5 -13t13 -5h491v-18h-491q-15 0 -25.5 10.5t-10.5 25.5v669h18z" />
    <glyph glyph-name="M" unicode="M" horiz-adv-x="787" 
d="M729 0v674l-303 -653q-4 -8 -13 -14.5t-19 -6.5q-11 0 -20 6.5t-13 14.5l-303 653v-674h-18v705h24l313 -676q5 -11 17 -11q10 0 16 11l313 676h24v-705h-18z" />
    <glyph glyph-name="N" unicode="N" horiz-adv-x="676" 
d="M58 679v-679h-18v705h20l521 -675q3 -5 8 -8.5t11 -3.5q8 0 13 5.5t5 13.5v668h18v-668q0 -15 -10.5 -26t-25.5 -11q-11 0 -19.5 6t-13.5 14z" />
    <glyph glyph-name="O" unicode="O" 
d="M381 714q75 0 141 -28.5t115 -77.5t77.5 -115t28.5 -141t-28.5 -140.5t-77.5 -114.5t-115 -77.5t-141 -28.5t-140.5 28.5t-114.5 77.5t-77.5 114.5t-28.5 140.5t28.5 141t77.5 115t114.5 77.5t140.5 28.5zM381 696q-71 0 -133.5 -27t-109 -73.5t-73.5 -109.5t-27 -134
t27 -133.5t73.5 -109t109 -73.5t133.5 -27t134 27t109.5 73.5t73.5 109t27 133.5t-27 134t-73.5 109.5t-109.5 73.5t-134 27z" />
    <glyph glyph-name="P" unicode="P" horiz-adv-x="581" 
d="M40 0v669q0 15 10.5 25.5t24.5 10.5h224q54 0 102 -20.5t83.5 -56.5t56 -83.5t20.5 -101.5t-20.5 -102t-56 -83.5t-83.5 -56t-102 -20.5h-241v-181h-18zM58 199h241q51 0 95.5 19t77.5 52t52 77.5t19 95.5q0 50 -19 94.5t-52 77.5t-77.5 52.5t-95.5 19.5h-224
q-7 0 -12 -5t-5 -13v-470z" />
    <glyph glyph-name="Q" unicode="Q" 
d="M719 3l-89 87q-49 -46 -113 -72.5t-136 -26.5q-75 0 -141 28.5t-114.5 77.5t-77 114.5t-28.5 140.5t28.5 141t77 115t114.5 77.5t141 28.5t141 -28.5t115 -77.5t77.5 -115t28.5 -141q0 -73 -26.5 -137t-74.5 -113l89 -87zM725 352q0 71 -27 134t-73.5 109.5t-109.5 73.5
t-134 27t-133.5 -27t-109 -73.5t-73.5 -109.5t-27 -134t27 -133.5t73.5 -109t109 -73.5t133.5 -27t134 27t109.5 73.5t73.5 109t27 133.5z" />
    <glyph glyph-name="R" unicode="R" horiz-adv-x="516" 
d="M40 0v669q0 15 10.5 25.5t24.5 10.5h226q45 0 84 -17t68 -46.5t46 -68.5t17 -84t-17 -84t-46 -68.5t-68 -46.5t-84 -17h-198q-5 0 -5 -5q0 -3 5 -6l402 -246l-10 -16l-402 246q-5 4 -9 9t-4 13q0 10 6.5 16.5t16.5 6.5h198q41 0 77 15.5t62.5 42.5t42 63t15.5 77
t-15.5 77t-42 63t-62.5 42.5t-77 15.5h-226q-7 0 -12 -5t-5 -13v-669h-18z" />
    <glyph glyph-name="S" unicode="S" horiz-adv-x="605" 
d="M539 561q-12 30 -30 54.5t-45.5 42.5t-65.5 28t-91 10q-40 0 -83.5 -7.5t-80 -24.5t-60.5 -45.5t-24 -71.5q0 -27 9.5 -47t31.5 -36t57.5 -29t86.5 -25l129 -31q57 -14 97 -30.5t65.5 -39t37.5 -52.5t12 -70v-8q0 -57 -27 -93.5t-68.5 -57.5t-89.5 -29t-90 -8
q-59 0 -108.5 9t-87 29.5t-61.5 53.5t-33 81l18 4q8 -44 30.5 -74.5t58 -49t82 -27t101.5 -8.5q39 0 84 7t83.5 26t64 52t25.5 85v8q0 36 -11 63t-35 47.5t-61.5 35.5t-90.5 28l-129 31q-104 25 -151.5 59.5t-47.5 95.5q0 48 25.5 80t64.5 51.5t86 27.5t90 8q56 0 97 -11
t70 -30.5t48 -46.5t33 -59z" />
    <glyph glyph-name="T" unicode="T" horiz-adv-x="610" 
d="M296 0v687h-296v18h610v-18h-296v-687h-18z" />
    <glyph glyph-name="U" unicode="U" horiz-adv-x="650" 
d="M610 705v-429q0 -59 -22.5 -111t-61 -90.5t-90.5 -61t-111 -22.5t-111 22.5t-90.5 61t-61 90.5t-22.5 111v429h18v-429q0 -56 21 -104.5t57.5 -84.5t85 -57t103.5 -21t104 21t85 57t57 84.5t21 104.5v429h18z" />
    <glyph glyph-name="V" unicode="V" horiz-adv-x="702" 
d="M351 18q10 0 16 11l315 676h20l-319 -684q-4 -8 -12.5 -14.5t-19.5 -6.5t-19.5 6.5t-12.5 14.5q-38 80 -78.5 166.5t-81.5 175t-81.5 175.5t-77.5 167h19l316 -676q5 -11 16 -11z" />
    <glyph glyph-name="W" unicode="W" horiz-adv-x="1042" 
d="M5 705h18l271 -677q5 -11 13 -11t13 11l172 422q4 10 12 16t16 6t16 -5.5t13 -16.5l173 -422q5 -11 14 -11q7 0 12 11l270 677h19l-273 -683q-4 -10 -12 -16.5t-16 -6.5t-16.5 5.5t-13.5 16.5l-173 423q-4 10 -13 10q-8 0 -12 -10l-172 -423q-9 -22 -29 -22
q-8 0 -16.5 6.5t-12.5 16.5z" />
    <glyph glyph-name="X" unicode="X" horiz-adv-x="601" 
d="M300 367l277 338h24l-289 -353l289 -352h-24l-277 338l-277 -338h-23l288 352l-288 353h23z" />
    <glyph glyph-name="Y" unicode="Y" horiz-adv-x="608" 
d="M276 323q8 -11 28 -11q9 0 17 2.5t12 8.5l254 382h21l-261 -392q-11 -16 -34 -19v-294h-18v294q-23 3 -33 19l-262 392h21z" />
    <glyph glyph-name="Z" unicode="Z" horiz-adv-x="671" 
d="M651 0h-623v20l572 628q6 6 6 15q0 10 -6.5 17t-16.5 7h-563v18h563q17 0 29 -12.5t12 -29.5q0 -15 -10 -27l-563 -618h600v-18z" />
    <glyph glyph-name="bracketleft" unicode="[" horiz-adv-x="177" 
d="M137 0h-97v705h97v-18h-79v-669h79v-18z" />
    <glyph glyph-name="backslash" unicode="\" horiz-adv-x="473" 
d="M453 0l-453 705h20l453 -705h-20z" />
    <glyph glyph-name="bracketright" unicode="]" horiz-adv-x="176" 
d="M40 705h96v-705h-96v18h78v669h-78v18z" />
    <glyph glyph-name="asciicircum" unicode="^" horiz-adv-x="357" 
d="M20 353h-20l151 334q4 9 11 13t15 4q19 0 28 -18l152 -333h-20l-147 324q-5 8 -13 8q-7 0 -10 -6z" />
    <glyph glyph-name="underscore" unicode="_" horiz-adv-x="817" 
d="M40 18h737v-18h-737v18z" />
    <glyph glyph-name="grave" unicode="`" horiz-adv-x="833" 
d="M407 778l-104 103l12 12l104 -103z" />
    <glyph glyph-name="a" unicode="a" horiz-adv-x="718" 
d="M698 0l-121 252h-437l-120 -252h-20l327 684q10 21 32 21t32 -21l327 -684h-20zM149 270h420l-194 406q-5 11 -16 11t-16 -11z" />
    <glyph glyph-name="b" unicode="b" horiz-adv-x="622" 
d="M40 0v705h333q63 0 106.5 -13.5t71 -36t39.5 -52t12 -62.5q0 -30 -7 -54t-24.5 -43.5t-48.5 -34.5t-79 -27q-3 0 -5 -2q-5 -3 -5 -10q0 -6 5 -8q2 -2 5 -2q48 -13 79 -30t48.5 -39t24.5 -48.5t7 -59.5q0 -36 -12 -69.5t-39.5 -58.5t-71 -40t-106.5 -15h-333zM373 18
q58 0 98 13.5t65 36.5t36.5 52.5t11.5 62.5q0 28 -7 52t-23.5 44t-44.5 35.5t-70 27.5l-4 1.5t-8.5 4.5t-8 8.5t-3.5 13.5q0 9 3.5 15t8.5 9q5 4 12 6q42 11 70 25t44.5 31t23.5 38t7 47q0 29 -11.5 55.5t-36.5 46.5t-65 32t-98 12h-315v-669h315z" />
    <glyph glyph-name="c" unicode="c" horiz-adv-x="710" 
d="M690 164q-23 -39 -56 -70.5t-72.5 -54.5t-85.5 -35.5t-95 -12.5q-75 0 -140.5 28.5t-114.5 77.5t-77.5 114.5t-28.5 140.5t28.5 141t77.5 115t114.5 77.5t140.5 28.5q90 0 165 -40t125 -106l-14 -10q-47 63 -119 100.5t-157 37.5q-71 0 -133.5 -27t-109 -73.5
t-73.5 -109.5t-27 -134t27 -133.5t73.5 -109t109 -73.5t133.5 -27q94 0 171 45t122 120z" />
    <glyph glyph-name="d" unicode="d" horiz-adv-x="627" 
d="M58 19h197q69 0 130 26.5t106 71.5t71.5 106t26.5 130t-26.5 130t-71.5 106.5t-106 71.5t-130 26h-179q-8 0 -13 -5t-5 -13v-650zM40 669q0 15 10.5 25.5t25.5 10.5h179q73 0 137 -27.5t112 -75.5t75.5 -112t27.5 -137t-27.5 -137t-75.5 -112t-112 -75.5t-137 -27.5h-215
v668z" />
    <glyph glyph-name="e" unicode="e" horiz-adv-x="593" 
d="M573 0h-533v669q0 15 10 25.5t25 10.5h491v-18h-491q-8 0 -12.5 -5t-4.5 -13v-309h515v-18h-515v-324h515v-18z" />
    <glyph glyph-name="f" unicode="f" horiz-adv-x="566" 
d="M40 0v669q0 15 10.5 25.5t25.5 10.5h464v-18h-464q-8 0 -13 -5t-5 -13v-309h488v-18h-488v-342h-18z" />
    <glyph glyph-name="g" unicode="g" 
d="M412 393h293q38 0 38 -41q0 -75 -28.5 -140.5t-77.5 -114.5t-114.5 -77.5t-140.5 -28.5t-141 28.5t-115 77.5t-77.5 114.5t-28.5 140.5t28.5 141t77.5 115t115 77.5t141 28.5q89 0 164 -40t125 -106l-14 -10q-47 63 -118.5 100.5t-156.5 37.5q-71 0 -134 -27
t-109.5 -73.5t-73.5 -109.5t-27 -134t27 -133.5t73.5 -109t109.5 -73.5t134 -27t133.5 27t109 73.5t73.5 109t27 133.5q0 23 -20 23h-293v18z" />
    <glyph glyph-name="h" unicode="h" horiz-adv-x="640" 
d="M600 705v-705h-18v342h-524v-342h-18v705h18v-345h524v345h18z" />
    <glyph glyph-name="i" unicode="i" horiz-adv-x="118" 
d="M68 705v-705h-18v705h18z" />
    <glyph glyph-name="j" unicode="j" horiz-adv-x="630" 
d="M38 276q0 -56 21 -104.5t57.5 -84.5t85 -57t103.5 -21t103.5 21t85 57t57.5 84.5t21 104.5v429h18v-429q0 -59 -22.5 -111t-61 -90.5t-90.5 -61t-111 -22.5t-111 22.5t-90.5 61t-61 90.5t-22.5 111h18z" />
    <glyph glyph-name="k" unicode="k" horiz-adv-x="572" 
d="M550 692l-449 -318q-11 -7 -11 -19q0 -6 3 -12.5t8 -9.5l461 -319l-10 -14l-462 319q-18 13 -18 36q0 21 17 33l451 318zM40 0v705h18v-705h-18z" />
    <glyph glyph-name="l" unicode="l" horiz-adv-x="567" 
d="M58 705v-669q0 -8 5 -13t13 -5h491v-18h-491q-15 0 -25.5 10.5t-10.5 25.5v669h18z" />
    <glyph glyph-name="m" unicode="m" horiz-adv-x="787" 
d="M729 0v674l-303 -653q-4 -8 -13 -14.5t-19 -6.5q-11 0 -20 6.5t-13 14.5l-303 653v-674h-18v705h24l313 -676q5 -11 17 -11q10 0 16 11l313 676h24v-705h-18z" />
    <glyph glyph-name="n" unicode="n" horiz-adv-x="676" 
d="M58 679v-679h-18v705h20l521 -675q3 -5 8 -8.5t11 -3.5q8 0 13 5.5t5 13.5v668h18v-668q0 -15 -10.5 -26t-25.5 -11q-11 0 -19.5 6t-13.5 14z" />
    <glyph glyph-name="o" unicode="o" 
d="M381 714q75 0 141 -28.5t115 -77.5t77.5 -115t28.5 -141t-28.5 -140.5t-77.5 -114.5t-115 -77.5t-141 -28.5t-140.5 28.5t-114.5 77.5t-77.5 114.5t-28.5 140.5t28.5 141t77.5 115t114.5 77.5t140.5 28.5zM381 696q-71 0 -133.5 -27t-109 -73.5t-73.5 -109.5t-27 -134
t27 -133.5t73.5 -109t109 -73.5t133.5 -27t134 27t109.5 73.5t73.5 109t27 133.5t-27 134t-73.5 109.5t-109.5 73.5t-134 27z" />
    <glyph glyph-name="p" unicode="p" horiz-adv-x="581" 
d="M40 0v669q0 15 10.5 25.5t24.5 10.5h224q54 0 102 -20.5t83.5 -56.5t56 -83.5t20.5 -101.5t-20.5 -102t-56 -83.5t-83.5 -56t-102 -20.5h-241v-181h-18zM58 199h241q51 0 95.5 19t77.5 52t52 77.5t19 95.5q0 50 -19 94.5t-52 77.5t-77.5 52.5t-95.5 19.5h-224
q-7 0 -12 -5t-5 -13v-470z" />
    <glyph glyph-name="q" unicode="q" 
d="M719 3l-89 87q-49 -46 -113 -72.5t-136 -26.5q-75 0 -141 28.5t-114.5 77.5t-77 114.5t-28.5 140.5t28.5 141t77 115t114.5 77.5t141 28.5t141 -28.5t115 -77.5t77.5 -115t28.5 -141q0 -73 -26.5 -137t-74.5 -113l89 -87zM725 352q0 71 -27 134t-73.5 109.5t-109.5 73.5
t-134 27t-133.5 -27t-109 -73.5t-73.5 -109.5t-27 -134t27 -133.5t73.5 -109t109 -73.5t133.5 -27t134 27t109.5 73.5t73.5 109t27 133.5z" />
    <glyph glyph-name="r" unicode="r" horiz-adv-x="516" 
d="M40 0v669q0 15 10.5 25.5t24.5 10.5h226q45 0 84 -17t68 -46.5t46 -68.5t17 -84t-17 -84t-46 -68.5t-68 -46.5t-84 -17h-198q-5 0 -5 -5q0 -3 5 -6l402 -246l-10 -16l-402 246q-5 4 -9 9t-4 13q0 10 6.5 16.5t16.5 6.5h198q41 0 77 15.5t62.5 42.5t42 63t15.5 77
t-15.5 77t-42 63t-62.5 42.5t-77 15.5h-226q-7 0 -12 -5t-5 -13v-669h-18z" />
    <glyph glyph-name="s" unicode="s" horiz-adv-x="605" 
d="M539 561q-12 30 -30 54.5t-45.5 42.5t-65.5 28t-91 10q-40 0 -83.5 -7.5t-80 -24.5t-60.5 -45.5t-24 -71.5q0 -27 9.5 -47t31.5 -36t57.5 -29t86.5 -25l129 -31q57 -14 97 -30.5t65.5 -39t37.5 -52.5t12 -70v-8q0 -57 -27 -93.5t-68.5 -57.5t-89.5 -29t-90 -8
q-59 0 -108.5 9t-87 29.5t-61.5 53.5t-33 81l18 4q8 -44 30.5 -74.5t58 -49t82 -27t101.5 -8.5q39 0 84 7t83.5 26t64 52t25.5 85v8q0 36 -11 63t-35 47.5t-61.5 35.5t-90.5 28l-129 31q-104 25 -151.5 59.5t-47.5 95.5q0 48 25.5 80t64.5 51.5t86 27.5t90 8q56 0 97 -11
t70 -30.5t48 -46.5t33 -59z" />
    <glyph glyph-name="t" unicode="t" horiz-adv-x="610" 
d="M296 0v687h-296v18h610v-18h-296v-687h-18z" />
    <glyph glyph-name="u" unicode="u" horiz-adv-x="650" 
d="M610 705v-429q0 -59 -22.5 -111t-61 -90.5t-90.5 -61t-111 -22.5t-111 22.5t-90.5 61t-61 90.5t-22.5 111v429h18v-429q0 -56 21 -104.5t57.5 -84.5t85 -57t103.5 -21t104 21t85 57t57 84.5t21 104.5v429h18z" />
    <glyph glyph-name="v" unicode="v" horiz-adv-x="702" 
d="M351 18q10 0 16 11l315 676h20l-319 -684q-4 -8 -12.5 -14.5t-19.5 -6.5t-19.5 6.5t-12.5 14.5q-38 80 -78.5 166.5t-81.5 175t-81.5 175.5t-77.5 167h19l316 -676q5 -11 16 -11z" />
    <glyph glyph-name="w" unicode="w" horiz-adv-x="1042" 
d="M5 705h18l271 -677q5 -11 13 -11t13 11l172 422q4 10 12 16t16 6t16 -5.5t13 -16.5l173 -422q5 -11 14 -11q7 0 12 11l270 677h19l-273 -683q-4 -10 -12 -16.5t-16 -6.5t-16.5 5.5t-13.5 16.5l-173 423q-4 10 -13 10q-8 0 -12 -10l-172 -423q-9 -22 -29 -22
q-8 0 -16.5 6.5t-12.5 16.5z" />
    <glyph glyph-name="x" unicode="x" horiz-adv-x="601" 
d="M300 367l277 338h24l-289 -353l289 -352h-24l-277 338l-277 -338h-23l288 352l-288 353h23z" />
    <glyph glyph-name="y" unicode="y" horiz-adv-x="608" 
d="M276 323q8 -11 28 -11q9 0 17 2.5t12 8.5l254 382h21l-261 -392q-11 -16 -34 -19v-294h-18v294q-23 3 -33 19l-262 392h21z" />
    <glyph glyph-name="z" unicode="z" horiz-adv-x="671" 
d="M651 0h-623v20l572 628q6 6 6 15q0 10 -6.5 17t-16.5 7h-563v18h563q17 0 29 -12.5t12 -29.5q0 -15 -10 -27l-563 -618h600v-18z" />
    <glyph glyph-name="braceleft" unicode="{" horiz-adv-x="238" 
d="M198 0q-21 0 -39.5 8t-32 21.5t-21.5 32t-8 39.5v193q0 11 -12 19t-30 16q-7 3 -11 10t-4 14q0 17 15 22q18 7 30 15.5t12 20.5v193q0 21 8 39t21.5 32t32 22t39.5 8v-18q-35 0 -59 -24.5t-24 -58.5v-193q0 -20 -15.5 -31t-38.5 -22q-3 -2 -3 -5q0 -6 5 -8
q22 -10 37 -20.5t15 -30.5v-193q0 -35 24 -59t59 -24v-18z" />
    <glyph glyph-name="bar" unicode="|" horiz-adv-x="138" 
d="M78 745v-798h-18v798h18z" />
    <glyph glyph-name="braceright" unicode="}" horiz-adv-x="238" 
d="M40 18q35 0 59 24t24 59v193q0 20 15 30.5t37 20.5q5 2 5 8q0 3 -3 5q-23 11 -38.5 22t-15.5 31v193q0 34 -24 58.5t-59 24.5v18q21 0 39.5 -8t32 -22t21.5 -32t8 -39v-193q0 -12 12 -20.5t30 -15.5q15 -5 15 -22q0 -7 -4 -14t-11 -10q-18 -8 -30 -16t-12 -19v-193
q0 -21 -8 -39.5t-21.5 -32t-32 -21.5t-39.5 -8v18z" />
    <glyph glyph-name="uni00A0" unicode="&#xa0;" horiz-adv-x="350" 
 />
    <glyph glyph-name="exclamdown" unicode="&#xa1;" horiz-adv-x="98" 
d="M40 619v86h18v-86h-18zM40 0v539h18v-539h-18z" />
    <glyph glyph-name="cent" unicode="&#xa2;" horiz-adv-x="375" 
d="M186 100v72q-35 3 -65 18t-52.5 39t-35.5 55.5t-13 67.5t13 67.5t35.5 55.5t52.5 39t65 18v85h18v-84q44 -1 80 -21t61 -52l-14 -10q-22 29 -55 46.5t-72 18.5v-325q42 1 77.5 22t57.5 56l16 -10q-24 -38 -63.5 -61.5t-87.5 -24.5v-72h-18zM38 352q0 -32 11.5 -60
t31.5 -50t47 -35.5t58 -16.5v324q-31 -3 -58 -16.5t-47 -35.5t-31.5 -50t-11.5 -60z" />
    <glyph glyph-name="sterling" unicode="&#xa3;" horiz-adv-x="469" 
d="M20 361h28q-6 46 -6 101q0 49 11 94.5t35 80.5t63 56t95 21q42 0 79 -16t64.5 -43.5t43.5 -64.5t16 -79h-18q0 38 -14.5 72t-39.5 59t-59 39.5t-72 14.5q-51 0 -86.5 -19.5t-57.5 -52.5t-32 -75t-10 -87q0 -55 6 -101h239v-18h-236q4 -34 12 -68q8 -40 14 -80t6 -88
q0 -43 -6 -89h330v-18h-351q9 60 9 107q0 42 -6 84.5t-14 79.5q-4 17 -7 34.5t-6 37.5h-30v18z" />
    <glyph glyph-name="currency" unicode="&#xa4;" horiz-adv-x="506" 
d="M19 168l69 71q-38 55 -38 126t38 124l-69 71l45 43l67 -69q24 18 54.5 29t67.5 11q36 0 67 -11t55 -29l67 69l45 -43l-69 -71q37 -54 37 -124q0 -35 -10 -67t-28 -58l70 -72l-45 -43l-68 69q-49 -37 -121 -37t-121 37l-68 -69zM253 222q57 0 88 40.5t31 102.5
q0 30 -8 56.5t-23 46t-37.5 30.5t-50.5 11q-29 0 -51 -11t-37.5 -30.5t-23.5 -46t-8 -56.5q0 -31 8 -57t23.5 -45t37.5 -30t51 -11z" />
    <glyph glyph-name="yen" unicode="&#xa5;" horiz-adv-x="537" 
d="M472 338h-194v-96h194v-18h-194v-224h-18v224h-201v18h201v96h-201v18h176q-5 3 -8 9l-227 339h21l220 -329q8 -11 28 -11q9 0 17 2.5t12 8.5l219 329h20l-225 -339q-5 -6 -9 -9h169v-18z" />
    <glyph glyph-name="brokenbar" unicode="&#xa6;" horiz-adv-x="138" 
d="M60 745h18v-326h-18v326zM60 326h18v-326h-18v326z" />
    <glyph glyph-name="section" unicode="&#xa7;" horiz-adv-x="435" 
d="M375 606q-8 20 -21 36.5t-32 28.5t-45.5 18.5t-62.5 6.5q-27 0 -56 -5t-52.5 -17t-38.5 -31t-15 -47q0 -24 12 -40.5t31 -27.5t41 -18t42 -12l88 -22q81 -20 115 -51.5t34 -90.5q0 -32 -12.5 -58t-35.5 -44q26 -17 37 -41.5t11 -59.5q0 -40 -19 -67t-47.5 -43t-62 -23
t-63.5 -7q-83 0 -137 28.5t-66 97.5l18 4q11 -62 60 -87t125 -25q27 0 57.5 6t56.5 20t43 37.5t17 58.5q0 50 -34.5 78.5t-100.5 45.5l-88 22q-22 5 -46.5 12.5t-45 20.5t-34 33t-13.5 50q0 33 19.5 60.5t60.5 43.5q-32 12 -56.5 34.5t-24.5 64.5q0 33 16.5 56t43 36.5
t58.5 19.5t62 6q79 0 119 -27.5t58 -74.5zM266 273q26 -7 47 -14t37 -16q22 16 34.5 39t12.5 52q0 50 -34.5 78.5t-100.5 45.5l-116 29q-48 -11 -70.5 -36.5t-22.5 -57.5q0 -26 12 -42.5t30.5 -27t40.5 -17t42 -11.5z" />
    <glyph glyph-name="dieresis" unicode="&#xa8;" horiz-adv-x="650" 
d="M261 841q0 -14 -10 -23.5t-24 -9.5t-23.5 9.5t-9.5 23.5t9.5 24t23.5 10t24 -10t10 -24zM454 841q0 -14 -10 -23.5t-24 -9.5t-23.5 9.5t-9.5 23.5t9.5 24t23.5 10t24 -10t10 -24z" />
    <glyph glyph-name="copyright" unicode="&#xa9;" horiz-adv-x="745" 
d="M527 258q-23 -39 -64 -63t-91 -24q-37 0 -70 14t-57.5 39t-38.5 57.5t-14 70.5q0 37 14 70t38.5 58t57.5 39t70 14q45 0 82.5 -20t62.5 -53l-14 -10q-22 30 -56 47.5t-75 17.5q-33 0 -62.5 -13t-51.5 -35t-35 -51.5t-13 -63.5t13 -63.5t35 -51.5t51.5 -35t62.5 -13
q45 0 81.5 21.5t57.5 57.5zM372 714q75 0 141 -28.5t114.5 -77.5t77 -115t28.5 -141t-28.5 -140.5t-77 -114.5t-114.5 -77.5t-141 -28.5t-141 28.5t-114.5 77.5t-77 114.5t-28.5 140.5t28.5 141t77 115t114.5 77.5t141 28.5zM372 696q-71 0 -133.5 -27t-109 -73.5
t-73.5 -109.5t-27 -134t27 -133.5t73.5 -109t109 -73.5t133.5 -27t133.5 27t109 73.5t73.5 109t27 133.5t-27 134t-73.5 109.5t-109 73.5t-133.5 27z" />
    <glyph glyph-name="ordfeminine" unicode="&#xaa;" horiz-adv-x="428" 
d="M391 705v-317q0 -8 5 -13t12 -5v-18q-14 0 -24.5 10.5t-10.5 25.5v60q-23 -47 -67.5 -76t-99.5 -29q-39 0 -72.5 14.5t-59 39.5t-40 59t-14.5 72q0 39 14.5 72.5t40 59t59 40t72.5 14.5q55 0 99.5 -29.5t67.5 -76.5v97h18zM206 696q-35 0 -65.5 -13t-53.5 -36t-36 -53.5
t-13 -65.5t13 -65t36 -53t53.5 -36t65.5 -13q33 0 63.5 12.5t53.5 34t36.5 51t13.5 62.5q0 37 -13 69.5t-36 55.5t-53.5 36.5t-64.5 13.5z" />
    <glyph glyph-name="guillemotleft" unicode="&#xab;" horiz-adv-x="241" 
d="M131 450l-90 -91q-4 -4 -4 -7q0 -4 4 -7l90 -90l-12 -12l-91 90q-8 8 -8 18q0 11 9 20l90 91zM221 450l-90 -91q-4 -4 -4 -7q0 -4 4 -7l90 -90l-12 -12l-91 90q-8 8 -8 18q0 11 9 20l90 91z" />
    <glyph glyph-name="logicalnot" unicode="&#xac;" horiz-adv-x="557" 
d="M20 361h497v-221h-18v203h-479v18z" />
    <glyph glyph-name="uni00AD" unicode="&#xad;" horiz-adv-x="709" 
d="M20 362h669v-18h-669v18z" />
    <glyph glyph-name="registered" unicode="&#xae;" horiz-adv-x="744" 
d="M262 168v335q0 9 6.5 15.5t15.5 6.5h131q23 0 43.5 -9t35.5 -24t24 -35.5t9 -43.5t-9 -43.5t-24 -36t-35.5 -24.5t-43.5 -9h-93l179 -121l-10 -14l-182 123q-9 7 -9 15q0 5 4 10t12 5h99q19 0 36.5 7.5t30 20.5t20 30t7.5 37q0 19 -7.5 36.5t-20 30t-30 20t-36.5 7.5
h-131q-4 0 -4 -4v-335h-18zM372 714q75 0 141 -28.5t114.5 -77.5t77 -115t28.5 -141t-28.5 -140.5t-77 -114.5t-114.5 -77.5t-141 -28.5t-141 28.5t-114.5 77.5t-77 114.5t-28.5 140.5t28.5 141t77 115t114.5 77.5t141 28.5zM372 696q-71 0 -133.5 -27t-109 -73.5
t-73.5 -109.5t-27 -134t27 -133.5t73.5 -109t109 -73.5t133.5 -27t133.5 27t109 73.5t73.5 109t27 133.5t-27 134t-73.5 109.5t-109 73.5t-133.5 27z" />
    <glyph glyph-name="macron" unicode="&#xaf;" horiz-adv-x="650" 
d="M194 853h257v-18h-257v18z" />
    <glyph glyph-name="degree" unicode="&#xb0;" horiz-adv-x="143" 
d="M123 591q0 -21 -15 -36t-37 -15q-21 0 -36 15t-15 36q0 22 15 37t36 15q22 0 37 -15t15 -37zM105 591q0 14 -10 24t-24 10t-23.5 -10t-9.5 -24t9.5 -23.5t23.5 -9.5t24 9.5t10 23.5z" />
    <glyph glyph-name="acute" unicode="&#xb4;" horiz-adv-x="593" 
d="M260 790l104 103l12 -12l-104 -103z" />
    <glyph glyph-name="mu" unicode="&#xb5;" horiz-adv-x="650" 
d="M610 705v-705h-18v175q-15 -41 -41.5 -74.5t-61.5 -58t-76.5 -38t-87.5 -13.5t-87.5 13.5t-76.5 38.5t-61.5 58.5t-41.5 74.5v-259h-18v788h18v-429q0 -56 21 -104.5t57.5 -84.5t85 -57t103.5 -21t104 21t85 57t57 84.5t21 104.5v429h18z" />
    <glyph glyph-name="mu" unicode="&#x3bc;" horiz-adv-x="650" 
d="M610 705v-705h-18v175q-15 -41 -41.5 -74.5t-61.5 -58t-76.5 -38t-87.5 -13.5t-87.5 13.5t-76.5 38.5t-61.5 58.5t-41.5 74.5v-259h-18v788h18v-429q0 -56 21 -104.5t57.5 -84.5t85 -57t103.5 -21t104 21t85 57t57 84.5t21 104.5v429h18z" />
    <glyph glyph-name="paragraph" unicode="&#xb6;" horiz-adv-x="346" 
d="M184 0v319q-39 1 -72.5 17t-58 42t-39 60.5t-14.5 73.5t15 74t41 61.5t61 42t76 15.5h113v-705h-18v687h-86v-687h-18zM18 512q0 -35 13 -66.5t35.5 -55t52.5 -38t65 -15.5v350q-35 -2 -65 -16t-52.5 -37.5t-35.5 -55t-13 -66.5z" />
    <glyph glyph-name="cedilla" unicode="&#xb8;" horiz-adv-x="710" 
d="M270 -64h168q-15 39 -30.5 76.5t-30.5 76.5l16 6l70 -177h-193v18z" />
    <glyph glyph-name="ordmasculine" unicode="&#xba;" horiz-adv-x="410" 
d="M205 714q38 0 72 -14.5t59 -40t39.5 -59t14.5 -72.5q0 -38 -14.5 -72t-39.5 -59t-59 -39.5t-72 -14.5t-72 14.5t-59 39.5t-39.5 59t-14.5 72q0 39 14.5 72.5t39.5 59t59 40t72 14.5zM205 696q-35 0 -65 -13t-53 -36t-36 -53.5t-13 -65.5t13 -65t36 -53t53 -36t65 -13
q34 0 64.5 13t53.5 36t36 53t13 65t-13 65.5t-36 53.5t-53.5 36t-64.5 13z" />
    <glyph glyph-name="guillemotright" unicode="&#xbb;" horiz-adv-x="241" 
d="M122 462l90 -91q9 -9 9 -20q0 -10 -8 -18l-91 -90l-12 12l90 90q4 3 4 7q0 3 -4 7l-90 91zM32 462l90 -91q9 -9 9 -20q0 -10 -8 -18l-91 -90l-12 12l90 90q4 3 4 7q0 3 -4 7l-90 91z" />
    <glyph glyph-name="questiondown" unicode="&#xbf;" horiz-adv-x="546" 
d="M307 620v86h18v-86h-18zM526 170q-11 -56 -37.5 -90.5t-63.5 -54t-81 -26.5t-90 -7q-57 0 -100.5 13.5t-73 38t-45 58t-15.5 73.5q0 48 15.5 80.5t42 54.5t60.5 36t72 24q27 7 48 21q18 12 33.5 33t15.5 54h18q0 -38 -17.5 -62t-38.5 -38q-25 -17 -55 -26
q-33 -9 -64.5 -22.5t-56.5 -34t-40 -49.5t-15 -71q0 -36 14 -66.5t41.5 -52t68 -34t92.5 -12.5q43 0 84 6.5t75.5 24.5t59 50t35.5 83z" />
    <glyph glyph-name="Agrave" unicode="&#xc0;" horiz-adv-x="718" 
d="M407 778l-104 103l12 12l104 -103zM698 0l-121 252h-437l-120 -252h-20l327 684q10 21 32 21t32 -21l327 -684h-20zM149 270h420l-194 406q-5 11 -16 11t-16 -11z" />
    <glyph glyph-name="Aacute" unicode="&#xc1;" horiz-adv-x="718" 
d="M290 790l104 103l12 -12l-104 -103zM698 0l-121 252h-437l-120 -252h-20l327 684q10 21 32 21t32 -21l327 -684h-20zM149 270h420l-194 406q-5 11 -16 11t-16 -11z" />
    <glyph glyph-name="Acircumflex" unicode="&#xc2;" horiz-adv-x="718" 
d="M458 778l-91 90q-3 3 -7 3t-7 -3l-90 -90l-12 12l90 90q7 7 19 7t19 -7l91 -90zM698 0l-121 252h-437l-120 -252h-20l327 684q10 21 32 21t32 -21l327 -684h-20zM149 270h420l-194 406q-5 11 -16 11t-16 -11z" />
    <glyph glyph-name="Atilde" unicode="&#xc3;" horiz-adv-x="718" 
d="M481 850q0 -9 -4 -19t-12 -18.5t-20.5 -14t-29.5 -5.5q-21 0 -33 7t-23 15q-9 7 -19.5 13t-26.5 6q-21 0 -33.5 -13.5t-12.5 -26.5h-18q0 19 17.5 38.5t46.5 19.5q20 0 32.5 -7.5t23.5 -15.5q8 -7 18 -12.5t28 -5.5q25 0 36.5 14t11.5 25h18zM698 0l-121 252h-437
l-120 -252h-20l327 684q10 21 32 21t32 -21l327 -684h-20zM149 270h420l-194 406q-5 11 -16 11t-16 -11z" />
    <glyph glyph-name="Adieresis" unicode="&#xc4;" horiz-adv-x="718" 
d="M292 841q0 -14 -10 -23.5t-24 -9.5t-23.5 9.5t-9.5 23.5t9.5 24t23.5 10t24 -10t10 -24zM485 841q0 -14 -10 -23.5t-24 -9.5t-23.5 9.5t-9.5 23.5t9.5 24t23.5 10t24 -10t10 -24zM698 0l-121 252h-437l-120 -252h-20l327 684q10 21 32 21t32 -21l327 -684h-20zM149 270
h420l-194 406q-5 11 -16 11t-16 -11z" />
    <glyph glyph-name="Aring" unicode="&#xc5;" horiz-adv-x="718" 
d="M385 841q0 11 -7 18t-18 7q-10 0 -17 -7t-7 -18q0 -10 7 -17t17 -7q11 0 18 7t7 17zM403 841q0 -17 -12.5 -29.5t-30.5 -12.5q-17 0 -29.5 12.5t-12.5 29.5q0 18 12.5 30.5t29.5 12.5q18 0 30.5 -12.5t12.5 -30.5zM698 0l-121 252h-437l-120 -252h-20l327 684
q10 21 32 21t32 -21l327 -684h-20zM149 270h420l-194 406q-5 11 -16 11t-16 -11z" />
    <glyph glyph-name="AE" unicode="&#xc6;" horiz-adv-x="1254" 
d="M698 0l-121 252h-437l-120 -252h-20l327 684q10 21 32 21t32 -21l327 -684h-20zM149 270h420l-194 406q-5 11 -16 11t-16 -11zM1234 0h-533v669q0 15 10 25.5t25 10.5h491v-18h-491q-8 0 -12.5 -5t-4.5 -13v-309h515v-18h-515v-324h515v-18z" />
    <glyph glyph-name="Ccedilla" unicode="&#xc7;" horiz-adv-x="710" 
d="M270 -64h168q-15 39 -30.5 76.5t-30.5 76.5l16 6l70 -177h-193v18zM690 164q-23 -39 -56 -70.5t-72.5 -54.5t-85.5 -35.5t-95 -12.5q-75 0 -140.5 28.5t-114.5 77.5t-77.5 114.5t-28.5 140.5t28.5 141t77.5 115t114.5 77.5t140.5 28.5q90 0 165 -40t125 -106l-14 -10
q-47 63 -119 100.5t-157 37.5q-71 0 -133.5 -27t-109 -73.5t-73.5 -109.5t-27 -134t27 -133.5t73.5 -109t109 -73.5t133.5 -27q94 0 171 45t122 120z" />
    <glyph glyph-name="Egrave" unicode="&#xc8;" horiz-adv-x="593" 
d="M367 778l-104 103l12 12l104 -103zM573 0h-533v669q0 15 10 25.5t25 10.5h491v-18h-491q-8 0 -12.5 -5t-4.5 -13v-309h515v-18h-515v-324h515v-18z" />
    <glyph glyph-name="Eacute" unicode="&#xc9;" horiz-adv-x="593" 
d="M260 790l104 103l12 -12l-104 -103zM573 0h-533v669q0 15 10 25.5t25 10.5h491v-18h-491q-8 0 -12.5 -5t-4.5 -13v-309h515v-18h-515v-324h515v-18z" />
    <glyph glyph-name="Ecircumflex" unicode="&#xca;" horiz-adv-x="593" 
d="M573 0h-533v669q0 15 10 25.5t25 10.5h491v-18h-491q-8 0 -12.5 -5t-4.5 -13v-309h515v-18h-515v-324h515v-18zM412 778l-91 90q-3 3 -7 3t-7 -3l-90 -90l-12 12l90 90q7 7 19 7t19 -7l91 -90z" />
    <glyph glyph-name="Edieresis" unicode="&#xcb;" horiz-adv-x="593" 
d="M241 841q0 -14 -10 -23.5t-24 -9.5t-23.5 9.5t-9.5 23.5t9.5 24t23.5 10t24 -10t10 -24zM434 841q0 -14 -10 -23.5t-24 -9.5t-23.5 9.5t-9.5 23.5t9.5 24t23.5 10t24 -10t10 -24zM573 0h-533v669q0 15 10 25.5t25 10.5h491v-18h-491q-8 0 -12.5 -5t-4.5 -13v-309h515v-18
h-515v-324h515v-18z" />
    <glyph glyph-name="Igrave" unicode="&#xcc;" horiz-adv-x="118" 
d="M101 778l-104 103l12 12l104 -103zM68 705v-705h-18v705h18z" />
    <glyph glyph-name="Iacute" unicode="&#xcd;" horiz-adv-x="118" 
d="M68 705v-705h-18v705h18zM1 785l104 103l12 -12l-104 -103z" />
    <glyph glyph-name="Icircumflex" unicode="&#xce;" horiz-adv-x="118" 
d="M157 778l-91 90q-3 3 -7 3t-7 -3l-90 -90l-12 12l90 90q7 7 19 7t19 -7l91 -90zM68 705v-705h-18v705h18z" />
    <glyph glyph-name="Idieresis" unicode="&#xcf;" horiz-adv-x="118" 
d="M-6 841q0 -14 -10 -23.5t-24 -9.5t-23.5 9.5t-9.5 23.5t9.5 24t23.5 10t24 -10t10 -24zM187 841q0 -14 -10 -23.5t-24 -9.5t-23.5 9.5t-9.5 23.5t9.5 24t23.5 10t24 -10t10 -24zM68 705v-705h-18v705h18z" />
    <glyph glyph-name="Eth" unicode="&#xd0;" horiz-adv-x="627" 
d="M-39 362h179v-18h-179v18zM58 19h197q69 0 130 26.5t106 71.5t71.5 106t26.5 130t-26.5 130t-71.5 106.5t-106 71.5t-130 26h-179q-8 0 -13 -5t-5 -13v-650zM40 669q0 15 10.5 25.5t25.5 10.5h179q73 0 137 -27.5t112 -75.5t75.5 -112t27.5 -137t-27.5 -137t-75.5 -112
t-112 -75.5t-137 -27.5h-215v668z" />
    <glyph glyph-name="Ntilde" unicode="&#xd1;" horiz-adv-x="676" 
d="M58 679v-679h-18v705h20l521 -675q3 -5 8 -8.5t11 -3.5q8 0 13 5.5t5 13.5v668h18v-668q0 -15 -10.5 -26t-25.5 -11q-11 0 -19.5 6t-13.5 14zM459 850q0 -9 -4 -19t-12 -18.5t-20.5 -14t-29.5 -5.5q-21 0 -33 7t-23 15q-9 7 -19.5 13t-26.5 6q-21 0 -33.5 -13.5
t-12.5 -26.5h-18q0 19 17.5 38.5t46.5 19.5q20 0 32.5 -7.5t23.5 -15.5q8 -7 18 -12.5t28 -5.5q25 0 36.5 14t11.5 25h18z" />
    <glyph glyph-name="Ograve" unicode="&#xd2;" 
d="M381 714q75 0 141 -28.5t115 -77.5t77.5 -115t28.5 -141t-28.5 -140.5t-77.5 -114.5t-115 -77.5t-141 -28.5t-140.5 28.5t-114.5 77.5t-77.5 114.5t-28.5 140.5t28.5 141t77.5 115t114.5 77.5t140.5 28.5zM381 696q-71 0 -133.5 -27t-109 -73.5t-73.5 -109.5t-27 -134
t27 -133.5t73.5 -109t109 -73.5t133.5 -27t134 27t109.5 73.5t73.5 109t27 133.5t-27 134t-73.5 109.5t-109.5 73.5t-134 27zM416 778l-104 103l12 12l104 -103z" />
    <glyph glyph-name="Oacute" unicode="&#xd3;" 
d="M381 714q75 0 141 -28.5t115 -77.5t77.5 -115t28.5 -141t-28.5 -140.5t-77.5 -114.5t-115 -77.5t-141 -28.5t-140.5 28.5t-114.5 77.5t-77.5 114.5t-28.5 140.5t28.5 141t77.5 115t114.5 77.5t140.5 28.5zM381 696q-71 0 -133.5 -27t-109 -73.5t-73.5 -109.5t-27 -134
t27 -133.5t73.5 -109t109 -73.5t133.5 -27t134 27t109.5 73.5t73.5 109t27 133.5t-27 134t-73.5 109.5t-109.5 73.5t-134 27zM343 785l104 103l12 -12l-104 -103z" />
    <glyph glyph-name="Ocircumflex" unicode="&#xd4;" 
d="M477 778l-91 90q-3 3 -7 3t-7 -3l-90 -90l-12 12l90 90q7 7 19 7t19 -7l91 -90zM381 714q75 0 141 -28.5t115 -77.5t77.5 -115t28.5 -141t-28.5 -140.5t-77.5 -114.5t-115 -77.5t-141 -28.5t-140.5 28.5t-114.5 77.5t-77.5 114.5t-28.5 140.5t28.5 141t77.5 115
t114.5 77.5t140.5 28.5zM381 696q-71 0 -133.5 -27t-109 -73.5t-73.5 -109.5t-27 -134t27 -133.5t73.5 -109t109 -73.5t133.5 -27t134 27t109.5 73.5t73.5 109t27 133.5t-27 134t-73.5 109.5t-109.5 73.5t-134 27z" />
    <glyph glyph-name="Otilde" unicode="&#xd5;" 
d="M496 850q0 -9 -4 -19t-12 -18.5t-20.5 -14t-29.5 -5.5q-21 0 -33 7t-23 15q-9 7 -19.5 13t-26.5 6q-21 0 -33.5 -13.5t-12.5 -26.5h-18q0 19 17.5 38.5t46.5 19.5q20 0 32.5 -7.5t23.5 -15.5q8 -7 18 -12.5t28 -5.5q25 0 36.5 14t11.5 25h18zM381 714q75 0 141 -28.5
t115 -77.5t77.5 -115t28.5 -141t-28.5 -140.5t-77.5 -114.5t-115 -77.5t-141 -28.5t-140.5 28.5t-114.5 77.5t-77.5 114.5t-28.5 140.5t28.5 141t77.5 115t114.5 77.5t140.5 28.5zM381 696q-71 0 -133.5 -27t-109 -73.5t-73.5 -109.5t-27 -134t27 -133.5t73.5 -109
t109 -73.5t133.5 -27t134 27t109.5 73.5t73.5 109t27 133.5t-27 134t-73.5 109.5t-109.5 73.5t-134 27z" />
    <glyph glyph-name="Odieresis" unicode="&#xd6;" 
d="M316 841q0 -14 -10 -23.5t-24 -9.5t-23.5 9.5t-9.5 23.5t9.5 24t23.5 10t24 -10t10 -24zM509 841q0 -14 -10 -23.5t-24 -9.5t-23.5 9.5t-9.5 23.5t9.5 24t23.5 10t24 -10t10 -24zM381 714q75 0 141 -28.5t115 -77.5t77.5 -115t28.5 -141t-28.5 -140.5t-77.5 -114.5
t-115 -77.5t-141 -28.5t-140.5 28.5t-114.5 77.5t-77.5 114.5t-28.5 140.5t28.5 141t77.5 115t114.5 77.5t140.5 28.5zM381 696q-71 0 -133.5 -27t-109 -73.5t-73.5 -109.5t-27 -134t27 -133.5t73.5 -109t109 -73.5t133.5 -27t134 27t109.5 73.5t73.5 109t27 133.5t-27 134
t-73.5 109.5t-109.5 73.5t-134 27z" />
    <glyph glyph-name="multiply" unicode="&#xd7;" horiz-adv-x="410" 
d="M20 80l173 173l-173 173l12 12l173 -173l173 173l12 -12l-173 -173l173 -173l-12 -12l-173 173l-173 -173z" />
    <glyph glyph-name="Oslash" unicode="&#xd8;" 
d="M92 77l563 562l12 -12l-563 -562zM381 714q75 0 141 -28.5t115 -77.5t77.5 -115t28.5 -141t-28.5 -140.5t-77.5 -114.5t-115 -77.5t-141 -28.5t-140.5 28.5t-114.5 77.5t-77.5 114.5t-28.5 140.5t28.5 141t77.5 115t114.5 77.5t140.5 28.5zM381 696q-71 0 -133.5 -27
t-109 -73.5t-73.5 -109.5t-27 -134t27 -133.5t73.5 -109t109 -73.5t133.5 -27t134 27t109.5 73.5t73.5 109t27 133.5t-27 134t-73.5 109.5t-109.5 73.5t-134 27z" />
    <glyph glyph-name="Ugrave" unicode="&#xd9;" horiz-adv-x="650" 
d="M367 778l-104 103l12 12l104 -103zM610 705v-429q0 -59 -22.5 -111t-61 -90.5t-90.5 -61t-111 -22.5t-111 22.5t-90.5 61t-61 90.5t-22.5 111v429h18v-429q0 -56 21 -104.5t57.5 -84.5t85 -57t103.5 -21t104 21t85 57t57 84.5t21 104.5v429h18z" />
    <glyph glyph-name="Uacute" unicode="&#xda;" horiz-adv-x="650" 
d="M610 705v-429q0 -59 -22.5 -111t-61 -90.5t-90.5 -61t-111 -22.5t-111 22.5t-90.5 61t-61 90.5t-22.5 111v429h18v-429q0 -56 21 -104.5t57.5 -84.5t85 -57t103.5 -21t104 21t85 57t57 84.5t21 104.5v429h18zM280 785l104 103l12 -12l-104 -103z" />
    <glyph glyph-name="Ucircumflex" unicode="&#xdb;" horiz-adv-x="650" 
d="M610 705v-429q0 -59 -22.5 -111t-61 -90.5t-90.5 -61t-111 -22.5t-111 22.5t-90.5 61t-61 90.5t-22.5 111v429h18v-429q0 -56 21 -104.5t57.5 -84.5t85 -57t103.5 -21t104 21t85 57t57 84.5t21 104.5v429h18zM423 778l-91 90q-3 3 -7 3t-7 -3l-90 -90l-12 12l90 90
q7 7 19 7t19 -7l91 -90z" />
    <glyph glyph-name="Udieresis" unicode="&#xdc;" horiz-adv-x="650" 
d="M261 841q0 -14 -10 -23.5t-24 -9.5t-23.5 9.5t-9.5 23.5t9.5 24t23.5 10t24 -10t10 -24zM454 841q0 -14 -10 -23.5t-24 -9.5t-23.5 9.5t-9.5 23.5t9.5 24t23.5 10t24 -10t10 -24zM610 705v-429q0 -59 -22.5 -111t-61 -90.5t-90.5 -61t-111 -22.5t-111 22.5t-90.5 61
t-61 90.5t-22.5 111v429h18v-429q0 -56 21 -104.5t57.5 -84.5t85 -57t103.5 -21t104 21t85 57t57 84.5t21 104.5v429h18z" />
    <glyph glyph-name="Yacute" unicode="&#xdd;" horiz-adv-x="608" 
d="M276 323q8 -11 28 -11q9 0 17 2.5t12 8.5l254 382h21l-261 -392q-11 -16 -34 -19v-294h-18v294q-23 3 -33 19l-262 392h21zM252 785l104 103l12 -12l-104 -103z" />
    <glyph glyph-name="Thorn" unicode="&#xde;" horiz-adv-x="581" 
d="M58 625h241q54 0 102 -20.5t83.5 -56.5t56 -83.5t20.5 -101.5t-20.5 -102t-56 -83.5t-83.5 -56t-102 -20.5h-241v-101h-18v705h18v-80zM58 607v-488h241q51 0 95.5 19t77.5 52t52 77.5t19 95.5q0 50 -19 94.5t-52 77.5t-77.5 52.5t-95.5 19.5h-241z" />
    <glyph glyph-name="germandbls" unicode="&#xdf;" horiz-adv-x="418" 
d="M110 18h122q30 0 57 11.5t47.5 31.5t32 47t11.5 58t-11.5 58t-32 47t-47.5 31.5t-57 11.5q-23 0 -34 12.5t-11 29.5q0 21 12 31.5t28 13.5q25 6 48 19t40.5 32.5t27.5 43.5t10 51q0 31 -12 58t-32 47t-47.5 32t-57.5 12t-56.5 -11.5t-46.5 -31.5t-31.5 -46.5t-11.5 -56.5
v-550h-18v550q0 34 13 63.5t35.5 52t52 35.5t63.5 13t64.5 -13t53 -36t36 -53.5t13.5 -64.5q0 -31 -11 -58.5t-29.5 -49t-44 -36t-55.5 -20.5q-10 -2 -18 -8.5t-8 -18.5q0 -10 6.5 -17t20.5 -7q34 0 64.5 -13t53 -35.5t35.5 -53t13 -64.5q0 -35 -13 -65t-35.5 -52.5
t-53 -35.5t-64.5 -13h-122v18z" />
    <glyph glyph-name="agrave" unicode="&#xe0;" horiz-adv-x="718" 
d="M407 778l-104 103l12 12l104 -103zM698 0l-121 252h-437l-120 -252h-20l327 684q10 21 32 21t32 -21l327 -684h-20zM149 270h420l-194 406q-5 11 -16 11t-16 -11z" />
    <glyph glyph-name="aacute" unicode="&#xe1;" horiz-adv-x="718" 
d="M290 790l104 103l12 -12l-104 -103zM698 0l-121 252h-437l-120 -252h-20l327 684q10 21 32 21t32 -21l327 -684h-20zM149 270h420l-194 406q-5 11 -16 11t-16 -11z" />
    <glyph glyph-name="acircumflex" unicode="&#xe2;" horiz-adv-x="718" 
d="M458 778l-91 90q-3 3 -7 3t-7 -3l-90 -90l-12 12l90 90q7 7 19 7t19 -7l91 -90zM698 0l-121 252h-437l-120 -252h-20l327 684q10 21 32 21t32 -21l327 -684h-20zM149 270h420l-194 406q-5 11 -16 11t-16 -11z" />
    <glyph glyph-name="atilde" unicode="&#xe3;" horiz-adv-x="718" 
d="M481 850q0 -9 -4 -19t-12 -18.5t-20.5 -14t-29.5 -5.5q-21 0 -33 7t-23 15q-9 7 -19.5 13t-26.5 6q-21 0 -33.5 -13.5t-12.5 -26.5h-18q0 19 17.5 38.5t46.5 19.5q20 0 32.5 -7.5t23.5 -15.5q8 -7 18 -12.5t28 -5.5q25 0 36.5 14t11.5 25h18zM698 0l-121 252h-437
l-120 -252h-20l327 684q10 21 32 21t32 -21l327 -684h-20zM149 270h420l-194 406q-5 11 -16 11t-16 -11z" />
    <glyph glyph-name="adieresis" unicode="&#xe4;" horiz-adv-x="718" 
d="M292 841q0 -14 -10 -23.5t-24 -9.5t-23.5 9.5t-9.5 23.5t9.5 24t23.5 10t24 -10t10 -24zM485 841q0 -14 -10 -23.5t-24 -9.5t-23.5 9.5t-9.5 23.5t9.5 24t23.5 10t24 -10t10 -24zM698 0l-121 252h-437l-120 -252h-20l327 684q10 21 32 21t32 -21l327 -684h-20zM149 270
h420l-194 406q-5 11 -16 11t-16 -11z" />
    <glyph glyph-name="aring" unicode="&#xe5;" horiz-adv-x="718" 
d="M385 841q0 11 -7 18t-18 7q-10 0 -17 -7t-7 -18q0 -10 7 -17t17 -7q11 0 18 7t7 17zM403 841q0 -17 -12.5 -29.5t-30.5 -12.5q-17 0 -29.5 12.5t-12.5 29.5q0 18 12.5 30.5t29.5 12.5q18 0 30.5 -12.5t12.5 -30.5zM698 0l-121 252h-437l-120 -252h-20l327 684
q10 21 32 21t32 -21l327 -684h-20zM149 270h420l-194 406q-5 11 -16 11t-16 -11z" />
    <glyph glyph-name="ae" unicode="&#xe6;" horiz-adv-x="1254" 
d="M698 0l-121 252h-437l-120 -252h-20l327 684q10 21 32 21t32 -21l327 -684h-20zM149 270h420l-194 406q-5 11 -16 11t-16 -11zM1234 0h-533v669q0 15 10 25.5t25 10.5h491v-18h-491q-8 0 -12.5 -5t-4.5 -13v-309h515v-18h-515v-324h515v-18z" />
    <glyph glyph-name="ccedilla" unicode="&#xe7;" horiz-adv-x="710" 
d="M270 -64h168q-15 39 -30.5 76.5t-30.5 76.5l16 6l70 -177h-193v18zM690 164q-23 -39 -56 -70.5t-72.5 -54.5t-85.5 -35.5t-95 -12.5q-75 0 -140.5 28.5t-114.5 77.5t-77.5 114.5t-28.5 140.5t28.5 141t77.5 115t114.5 77.5t140.5 28.5q90 0 165 -40t125 -106l-14 -10
q-47 63 -119 100.5t-157 37.5q-71 0 -133.5 -27t-109 -73.5t-73.5 -109.5t-27 -134t27 -133.5t73.5 -109t109 -73.5t133.5 -27q94 0 171 45t122 120z" />
    <glyph glyph-name="egrave" unicode="&#xe8;" horiz-adv-x="593" 
d="M367 778l-104 103l12 12l104 -103zM573 0h-533v669q0 15 10 25.5t25 10.5h491v-18h-491q-8 0 -12.5 -5t-4.5 -13v-309h515v-18h-515v-324h515v-18z" />
    <glyph glyph-name="eacute" unicode="&#xe9;" horiz-adv-x="593" 
d="M260 790l104 103l12 -12l-104 -103zM573 0h-533v669q0 15 10 25.5t25 10.5h491v-18h-491q-8 0 -12.5 -5t-4.5 -13v-309h515v-18h-515v-324h515v-18z" />
    <glyph glyph-name="ecircumflex" unicode="&#xea;" horiz-adv-x="593" 
d="M573 0h-533v669q0 15 10 25.5t25 10.5h491v-18h-491q-8 0 -12.5 -5t-4.5 -13v-309h515v-18h-515v-324h515v-18zM412 778l-91 90q-3 3 -7 3t-7 -3l-90 -90l-12 12l90 90q7 7 19 7t19 -7l91 -90z" />
    <glyph glyph-name="edieresis" unicode="&#xeb;" horiz-adv-x="593" 
d="M241 841q0 -14 -10 -23.5t-24 -9.5t-23.5 9.5t-9.5 23.5t9.5 24t23.5 10t24 -10t10 -24zM434 841q0 -14 -10 -23.5t-24 -9.5t-23.5 9.5t-9.5 23.5t9.5 24t23.5 10t24 -10t10 -24zM573 0h-533v669q0 15 10 25.5t25 10.5h491v-18h-491q-8 0 -12.5 -5t-4.5 -13v-309h515v-18
h-515v-324h515v-18z" />
    <glyph glyph-name="igrave" unicode="&#xec;" horiz-adv-x="118" 
d="M101 778l-104 103l12 12l104 -103zM68 705v-705h-18v705h18z" />
    <glyph glyph-name="iacute" unicode="&#xed;" horiz-adv-x="118" 
d="M68 705v-705h-18v705h18zM1 785l104 103l12 -12l-104 -103z" />
    <glyph glyph-name="icircumflex" unicode="&#xee;" horiz-adv-x="118" 
d="M157 778l-91 90q-3 3 -7 3t-7 -3l-90 -90l-12 12l90 90q7 7 19 7t19 -7l91 -90zM68 705v-705h-18v705h18z" />
    <glyph glyph-name="idieresis" unicode="&#xef;" horiz-adv-x="118" 
d="M-6 841q0 -14 -10 -23.5t-24 -9.5t-23.5 9.5t-9.5 23.5t9.5 24t23.5 10t24 -10t10 -24zM187 841q0 -14 -10 -23.5t-24 -9.5t-23.5 9.5t-9.5 23.5t9.5 24t23.5 10t24 -10t10 -24zM68 705v-705h-18v705h18z" />
    <glyph glyph-name="eth" unicode="&#xf0;" horiz-adv-x="627" 
d="M-39 362h179v-18h-179v18zM58 19h197q69 0 130 26.5t106 71.5t71.5 106t26.5 130t-26.5 130t-71.5 106.5t-106 71.5t-130 26h-179q-8 0 -13 -5t-5 -13v-650zM40 669q0 15 10.5 25.5t25.5 10.5h179q73 0 137 -27.5t112 -75.5t75.5 -112t27.5 -137t-27.5 -137t-75.5 -112
t-112 -75.5t-137 -27.5h-215v668z" />
    <glyph glyph-name="ntilde" unicode="&#xf1;" horiz-adv-x="676" 
d="M58 679v-679h-18v705h20l521 -675q3 -5 8 -8.5t11 -3.5q8 0 13 5.5t5 13.5v668h18v-668q0 -15 -10.5 -26t-25.5 -11q-11 0 -19.5 6t-13.5 14zM459 850q0 -9 -4 -19t-12 -18.5t-20.5 -14t-29.5 -5.5q-21 0 -33 7t-23 15q-9 7 -19.5 13t-26.5 6q-21 0 -33.5 -13.5
t-12.5 -26.5h-18q0 19 17.5 38.5t46.5 19.5q20 0 32.5 -7.5t23.5 -15.5q8 -7 18 -12.5t28 -5.5q25 0 36.5 14t11.5 25h18z" />
    <glyph glyph-name="ograve" unicode="&#xf2;" 
d="M381 714q75 0 141 -28.5t115 -77.5t77.5 -115t28.5 -141t-28.5 -140.5t-77.5 -114.5t-115 -77.5t-141 -28.5t-140.5 28.5t-114.5 77.5t-77.5 114.5t-28.5 140.5t28.5 141t77.5 115t114.5 77.5t140.5 28.5zM381 696q-71 0 -133.5 -27t-109 -73.5t-73.5 -109.5t-27 -134
t27 -133.5t73.5 -109t109 -73.5t133.5 -27t134 27t109.5 73.5t73.5 109t27 133.5t-27 134t-73.5 109.5t-109.5 73.5t-134 27zM416 778l-104 103l12 12l104 -103z" />
    <glyph glyph-name="oacute" unicode="&#xf3;" 
d="M381 714q75 0 141 -28.5t115 -77.5t77.5 -115t28.5 -141t-28.5 -140.5t-77.5 -114.5t-115 -77.5t-141 -28.5t-140.5 28.5t-114.5 77.5t-77.5 114.5t-28.5 140.5t28.5 141t77.5 115t114.5 77.5t140.5 28.5zM381 696q-71 0 -133.5 -27t-109 -73.5t-73.5 -109.5t-27 -134
t27 -133.5t73.5 -109t109 -73.5t133.5 -27t134 27t109.5 73.5t73.5 109t27 133.5t-27 134t-73.5 109.5t-109.5 73.5t-134 27zM343 785l104 103l12 -12l-104 -103z" />
    <glyph glyph-name="ocircumflex" unicode="&#xf4;" 
d="M477 778l-91 90q-3 3 -7 3t-7 -3l-90 -90l-12 12l90 90q7 7 19 7t19 -7l91 -90zM381 714q75 0 141 -28.5t115 -77.5t77.5 -115t28.5 -141t-28.5 -140.5t-77.5 -114.5t-115 -77.5t-141 -28.5t-140.5 28.5t-114.5 77.5t-77.5 114.5t-28.5 140.5t28.5 141t77.5 115
t114.5 77.5t140.5 28.5zM381 696q-71 0 -133.5 -27t-109 -73.5t-73.5 -109.5t-27 -134t27 -133.5t73.5 -109t109 -73.5t133.5 -27t134 27t109.5 73.5t73.5 109t27 133.5t-27 134t-73.5 109.5t-109.5 73.5t-134 27z" />
    <glyph glyph-name="otilde" unicode="&#xf5;" 
d="M496 850q0 -9 -4 -19t-12 -18.5t-20.5 -14t-29.5 -5.5q-21 0 -33 7t-23 15q-9 7 -19.5 13t-26.5 6q-21 0 -33.5 -13.5t-12.5 -26.5h-18q0 19 17.5 38.5t46.5 19.5q20 0 32.5 -7.5t23.5 -15.5q8 -7 18 -12.5t28 -5.5q25 0 36.5 14t11.5 25h18zM381 714q75 0 141 -28.5
t115 -77.5t77.5 -115t28.5 -141t-28.5 -140.5t-77.5 -114.5t-115 -77.5t-141 -28.5t-140.5 28.5t-114.5 77.5t-77.5 114.5t-28.5 140.5t28.5 141t77.5 115t114.5 77.5t140.5 28.5zM381 696q-71 0 -133.5 -27t-109 -73.5t-73.5 -109.5t-27 -134t27 -133.5t73.5 -109
t109 -73.5t133.5 -27t134 27t109.5 73.5t73.5 109t27 133.5t-27 134t-73.5 109.5t-109.5 73.5t-134 27z" />
    <glyph glyph-name="odieresis" unicode="&#xf6;" 
d="M316 841q0 -14 -10 -23.5t-24 -9.5t-23.5 9.5t-9.5 23.5t9.5 24t23.5 10t24 -10t10 -24zM509 841q0 -14 -10 -23.5t-24 -9.5t-23.5 9.5t-9.5 23.5t9.5 24t23.5 10t24 -10t10 -24zM381 714q75 0 141 -28.5t115 -77.5t77.5 -115t28.5 -141t-28.5 -140.5t-77.5 -114.5
t-115 -77.5t-141 -28.5t-140.5 28.5t-114.5 77.5t-77.5 114.5t-28.5 140.5t28.5 141t77.5 115t114.5 77.5t140.5 28.5zM381 696q-71 0 -133.5 -27t-109 -73.5t-73.5 -109.5t-27 -134t27 -133.5t73.5 -109t109 -73.5t133.5 -27t134 27t109.5 73.5t73.5 109t27 133.5t-27 134
t-73.5 109.5t-109.5 73.5t-134 27z" />
    <glyph glyph-name="divide" unicode="&#xf7;" horiz-adv-x="546" 
d="M340 77q0 -29 -19.5 -48.5t-47.5 -19.5t-48 19.5t-20 48.5q0 28 20 47.5t48 19.5t47.5 -19.5t19.5 -47.5zM205 429q0 29 19.5 48.5t48.5 19.5q28 0 47.5 -19.5t19.5 -48.5q0 -28 -19.5 -47.5t-47.5 -19.5q-29 0 -48.5 19.5t-19.5 47.5zM20 262h506v-18h-506v18z" />
    <glyph glyph-name="oslash" unicode="&#xf8;" 
d="M92 77l563 562l12 -12l-563 -562zM381 714q75 0 141 -28.5t115 -77.5t77.5 -115t28.5 -141t-28.5 -140.5t-77.5 -114.5t-115 -77.5t-141 -28.5t-140.5 28.5t-114.5 77.5t-77.5 114.5t-28.5 140.5t28.5 141t77.5 115t114.5 77.5t140.5 28.5zM381 696q-71 0 -133.5 -27
t-109 -73.5t-73.5 -109.5t-27 -134t27 -133.5t73.5 -109t109 -73.5t133.5 -27t134 27t109.5 73.5t73.5 109t27 133.5t-27 134t-73.5 109.5t-109.5 73.5t-134 27z" />
    <glyph glyph-name="ugrave" unicode="&#xf9;" horiz-adv-x="650" 
d="M367 778l-104 103l12 12l104 -103zM610 705v-429q0 -59 -22.5 -111t-61 -90.5t-90.5 -61t-111 -22.5t-111 22.5t-90.5 61t-61 90.5t-22.5 111v429h18v-429q0 -56 21 -104.5t57.5 -84.5t85 -57t103.5 -21t104 21t85 57t57 84.5t21 104.5v429h18z" />
    <glyph glyph-name="uacute" unicode="&#xfa;" horiz-adv-x="650" 
d="M610 705v-429q0 -59 -22.5 -111t-61 -90.5t-90.5 -61t-111 -22.5t-111 22.5t-90.5 61t-61 90.5t-22.5 111v429h18v-429q0 -56 21 -104.5t57.5 -84.5t85 -57t103.5 -21t104 21t85 57t57 84.5t21 104.5v429h18zM280 785l104 103l12 -12l-104 -103z" />
    <glyph glyph-name="ucircumflex" unicode="&#xfb;" horiz-adv-x="650" 
d="M610 705v-429q0 -59 -22.5 -111t-61 -90.5t-90.5 -61t-111 -22.5t-111 22.5t-90.5 61t-61 90.5t-22.5 111v429h18v-429q0 -56 21 -104.5t57.5 -84.5t85 -57t103.5 -21t104 21t85 57t57 84.5t21 104.5v429h18zM423 778l-91 90q-3 3 -7 3t-7 -3l-90 -90l-12 12l90 90
q7 7 19 7t19 -7l91 -90z" />
    <glyph glyph-name="udieresis" unicode="&#xfc;" horiz-adv-x="650" 
d="M261 841q0 -14 -10 -23.5t-24 -9.5t-23.5 9.5t-9.5 23.5t9.5 24t23.5 10t24 -10t10 -24zM454 841q0 -14 -10 -23.5t-24 -9.5t-23.5 9.5t-9.5 23.5t9.5 24t23.5 10t24 -10t10 -24zM610 705v-429q0 -59 -22.5 -111t-61 -90.5t-90.5 -61t-111 -22.5t-111 22.5t-90.5 61
t-61 90.5t-22.5 111v429h18v-429q0 -56 21 -104.5t57.5 -84.5t85 -57t103.5 -21t104 21t85 57t57 84.5t21 104.5v429h18z" />
    <glyph glyph-name="yacute" unicode="&#xfd;" horiz-adv-x="608" 
d="M276 323q8 -11 28 -11q9 0 17 2.5t12 8.5l254 382h21l-261 -392q-11 -16 -34 -19v-294h-18v294q-23 3 -33 19l-262 392h21zM252 785l104 103l12 -12l-104 -103z" />
    <glyph glyph-name="thorn" unicode="&#xfe;" horiz-adv-x="581" 
d="M58 625h241q54 0 102 -20.5t83.5 -56.5t56 -83.5t20.5 -101.5t-20.5 -102t-56 -83.5t-83.5 -56t-102 -20.5h-241v-101h-18v705h18v-80zM58 607v-488h241q51 0 95.5 19t77.5 52t52 77.5t19 95.5q0 50 -19 94.5t-52 77.5t-77.5 52.5t-95.5 19.5h-241z" />
    <glyph glyph-name="ydieresis" unicode="&#xff;" horiz-adv-x="608" 
d="M243 841q0 -14 -10 -23.5t-24 -9.5t-23.5 9.5t-9.5 23.5t9.5 24t23.5 10t24 -10t10 -24zM436 841q0 -14 -10 -23.5t-24 -9.5t-23.5 9.5t-9.5 23.5t9.5 24t23.5 10t24 -10t10 -24zM276 323q8 -11 28 -11q9 0 17 2.5t12 8.5l254 382h21l-261 -392q-11 -16 -34 -19v-294h-18
v294q-23 3 -33 19l-262 392h21z" />
    <glyph glyph-name="dotlessi" unicode="&#x131;" horiz-adv-x="118" 
d="M68 705v-705h-18v705h18z" />
    <glyph glyph-name="Lslash" unicode="&#x141;" horiz-adv-x="567" 
d="M0 349h232v-18h-232v18zM58 705v-669q0 -8 5 -13t13 -5h491v-18h-491q-15 0 -25.5 10.5t-10.5 25.5v669h18z" />
    <glyph glyph-name="lslash" unicode="&#x142;" horiz-adv-x="567" 
d="M0 349h232v-18h-232v18zM58 705v-669q0 -8 5 -13t13 -5h491v-18h-491q-15 0 -25.5 10.5t-10.5 25.5v669h18z" />
    <glyph glyph-name="OE" unicode="&#x152;" horiz-adv-x="1278" 
d="M381 714q75 0 141 -28.5t115 -77.5t77.5 -115t28.5 -141t-28.5 -140.5t-77.5 -114.5t-115 -77.5t-141 -28.5t-140.5 28.5t-114.5 77.5t-77.5 114.5t-28.5 140.5t28.5 141t77.5 115t114.5 77.5t140.5 28.5zM381 696q-71 0 -133.5 -27t-109 -73.5t-73.5 -109.5t-27 -134
t27 -133.5t73.5 -109t109 -73.5t133.5 -27t134 27t109.5 73.5t73.5 109t27 133.5t-27 134t-73.5 109.5t-109.5 73.5t-134 27zM1258 0h-533v669q0 15 10 25.5t25 10.5h491v-18h-491q-8 0 -12.5 -5t-4.5 -13v-309h515v-18h-515v-324h515v-18z" />
    <glyph glyph-name="oe" unicode="&#x153;" horiz-adv-x="1278" 
d="M381 714q75 0 141 -28.5t115 -77.5t77.5 -115t28.5 -141t-28.5 -140.5t-77.5 -114.5t-115 -77.5t-141 -28.5t-140.5 28.5t-114.5 77.5t-77.5 114.5t-28.5 140.5t28.5 141t77.5 115t114.5 77.5t140.5 28.5zM381 696q-71 0 -133.5 -27t-109 -73.5t-73.5 -109.5t-27 -134
t27 -133.5t73.5 -109t109 -73.5t133.5 -27t134 27t109.5 73.5t73.5 109t27 133.5t-27 134t-73.5 109.5t-109.5 73.5t-134 27zM1258 0h-533v669q0 15 10 25.5t25 10.5h491v-18h-491q-8 0 -12.5 -5t-4.5 -13v-309h515v-18h-515v-324h515v-18z" />
    <glyph glyph-name="Scaron" unicode="&#x160;" horiz-adv-x="605" 
d="M204 887l91 -90q3 -3 7 -3t7 3l90 90l12 -12l-90 -90q-7 -7 -19 -7t-19 7l-91 90zM539 559q-12 30 -30 54.5t-45.5 42.5t-65.5 28t-91 10q-40 0 -83.5 -7.5t-80 -24.5t-60.5 -45.5t-24 -71.5q0 -27 9.5 -47t31.5 -36t57.5 -29t86.5 -25l129 -31q57 -14 97 -30.5t65.5 -39
t37.5 -52.5t12 -70v-8q0 -57 -27 -93.5t-68.5 -57.5t-89.5 -29t-90 -8q-59 0 -108.5 9t-87 29.5t-61.5 53.5t-33 81l18 4q8 -44 30.5 -74.5t58 -49t82 -27t101.5 -8.5q39 0 84 7t83.5 26t64 52t25.5 85v8q0 36 -11 63t-35 47.5t-61.5 35.5t-90.5 28l-129 31
q-104 25 -151.5 59.5t-47.5 95.5q0 48 25.5 80t64.5 51.5t86 27.5t90 8q56 0 97 -11t70 -30.5t48 -46.5t33 -59z" />
    <glyph glyph-name="scaron" unicode="&#x161;" horiz-adv-x="605" 
d="M204 887l91 -90q3 -3 7 -3t7 3l90 90l12 -12l-90 -90q-7 -7 -19 -7t-19 7l-91 90zM539 559q-12 30 -30 54.5t-45.5 42.5t-65.5 28t-91 10q-40 0 -83.5 -7.5t-80 -24.5t-60.5 -45.5t-24 -71.5q0 -27 9.5 -47t31.5 -36t57.5 -29t86.5 -25l129 -31q57 -14 97 -30.5t65.5 -39
t37.5 -52.5t12 -70v-8q0 -57 -27 -93.5t-68.5 -57.5t-89.5 -29t-90 -8q-59 0 -108.5 9t-87 29.5t-61.5 53.5t-33 81l18 4q8 -44 30.5 -74.5t58 -49t82 -27t101.5 -8.5q39 0 84 7t83.5 26t64 52t25.5 85v8q0 36 -11 63t-35 47.5t-61.5 35.5t-90.5 28l-129 31
q-104 25 -151.5 59.5t-47.5 95.5q0 48 25.5 80t64.5 51.5t86 27.5t90 8q56 0 97 -11t70 -30.5t48 -46.5t33 -59z" />
    <glyph glyph-name="Ydieresis" unicode="&#x178;" horiz-adv-x="608" 
d="M243 841q0 -14 -10 -23.5t-24 -9.5t-23.5 9.5t-9.5 23.5t9.5 24t23.5 10t24 -10t10 -24zM436 841q0 -14 -10 -23.5t-24 -9.5t-23.5 9.5t-9.5 23.5t9.5 24t23.5 10t24 -10t10 -24zM276 323q8 -11 28 -11q9 0 17 2.5t12 8.5l254 382h21l-261 -392q-11 -16 -34 -19v-294h-18
v294q-23 3 -33 19l-262 392h21z" />
    <glyph glyph-name="Zcaron" unicode="&#x17d;" horiz-adv-x="671" 
d="M234 887l91 -90q3 -3 7 -3t7 3l90 90l12 -12l-90 -90q-7 -7 -19 -7t-19 7l-91 90zM651 0h-623v20l572 628q6 6 6 15q0 10 -6.5 17t-16.5 7h-563v18h563q17 0 29 -12.5t12 -29.5q0 -15 -10 -27l-563 -618h600v-18z" />
    <glyph glyph-name="zcaron" unicode="&#x17e;" horiz-adv-x="671" 
d="M234 887l91 -90q3 -3 7 -3t7 3l90 90l12 -12l-90 -90q-7 -7 -19 -7t-19 7l-91 90zM651 0h-623v20l572 628q6 6 6 15q0 10 -6.5 17t-16.5 7h-563v18h563q17 0 29 -12.5t12 -29.5q0 -15 -10 -27l-563 -618h600v-18z" />
    <glyph glyph-name="florin" unicode="&#x192;" horiz-adv-x="345" 
d="M57 424h96q2 35 6.5 70t13.5 70q8 29 25 55t40 45t50.5 30t56.5 11v-18q-26 0 -51 -10t-45.5 -27.5t-35.5 -40.5t-22 -49q-9 -34 -13.5 -67.5t-6.5 -68.5h112v-18h-113q-3 -43 -3 -89t-1 -91.5t-6 -88.5t-18 -80q-11 -29 -28.5 -54t-40 -44t-49 -30t-54.5 -11v18
q53 0 94 36.5t60 90.5q14 39 18.5 79.5t5.5 83t0.5 87.5t3.5 93h-95v18z" />
    <glyph glyph-name="circumflex" unicode="&#x2c6;" horiz-adv-x="98" 
d="M147 778l-91 90q-3 3 -7 3t-7 -3l-90 -90l-12 12l90 90q7 7 19 7t19 -7l91 -90z" />
    <glyph glyph-name="caron" unicode="&#x2c7;" horiz-adv-x="98" 
d="M-48 887l91 -90q3 -3 7 -3t7 3l90 90l12 -12l-90 -90q-7 -7 -19 -7t-19 7l-91 90z" />
    <glyph glyph-name="ring" unicode="&#x2da;" horiz-adv-x="718" 
d="M385 841q0 11 -7 18t-18 7q-10 0 -17 -7t-7 -18q0 -10 7 -17t17 -7q11 0 18 7t7 17zM403 841q0 -17 -12.5 -29.5t-30.5 -12.5q-17 0 -29.5 12.5t-12.5 29.5q0 18 12.5 30.5t29.5 12.5q18 0 30.5 -12.5t12.5 -30.5z" />
    <glyph glyph-name="tilde" unicode="&#x2dc;" horiz-adv-x="676" 
d="M459 850q0 -9 -4 -19t-12 -18.5t-20.5 -14t-29.5 -5.5q-21 0 -33 7t-23 15q-9 7 -19.5 13t-26.5 6q-21 0 -33.5 -13.5t-12.5 -26.5h-18q0 19 17.5 38.5t46.5 19.5q20 0 32.5 -7.5t23.5 -15.5q8 -7 18 -12.5t28 -5.5q25 0 36.5 14t11.5 25h18z" />
    <glyph glyph-name="hungarumlaut" unicode="&#x2dd;" horiz-adv-x="780" 
d="M280 790l104 103l12 -12l-104 -103zM384 790l104 103l12 -12l-104 -103z" />
    <glyph glyph-name="endash" unicode="&#x2013;" horiz-adv-x="433" 
d="M40 262h353v-18h-353v18z" />
    <glyph glyph-name="emdash" unicode="&#x2014;" horiz-adv-x="787" 
d="M40 262h707v-18h-707v18z" />
    <glyph glyph-name="quoteleft" unicode="&#x2018;" horiz-adv-x="101" 
d="M69 540q-35 35 -52 77.5t-17 87.5h18q0 -42 15.5 -81.5t47.5 -71.5z" />
    <glyph glyph-name="quoteright" unicode="&#x2019;" horiz-adv-x="101" 
d="M20 552q31 32 47 71.5t16 81.5h18q0 -45 -17.5 -87.5t-51.5 -77.5z" />
    <glyph glyph-name="quotesinglbase" unicode="&#x201a;" horiz-adv-x="98" 
d="M58 86v-129h-18v129h18z" />
    <glyph glyph-name="quotedblleft" unicode="&#x201c;" horiz-adv-x="164" 
d="M132 540q-35 35 -52 77.5t-17 87.5h18q0 -42 15.5 -81.5t47.5 -71.5zM70 540q-35 35 -52 77.5t-18 87.5h18q1 -42 16.5 -81.5t47.5 -71.5z" />
    <glyph glyph-name="quotedblright" unicode="&#x201d;" horiz-adv-x="164" 
d="M20 552q31 32 47 71.5t16 81.5h18q0 -45 -17.5 -87.5t-51.5 -77.5zM82 552q32 32 47.5 71.5t16.5 81.5h18q-1 -45 -18 -87.5t-52 -77.5z" />
    <glyph glyph-name="quotedblbase" unicode="&#x201e;" horiz-adv-x="159" 
d="M58 86v-129h-18v129h18zM119 86v-129h-18v129h18z" />
    <glyph glyph-name="dagger" unicode="&#x2020;" horiz-adv-x="427" 
d="M20 472h184v233h18v-233h185v-18h-185v-546h-18v546h-184v18z" />
    <glyph glyph-name="bullet" unicode="&#x2022;" horiz-adv-x="279" 
d="M239 353q0 -21 -8 -39t-21.5 -31.5t-31.5 -21t-38 -7.5q-42 0 -71 28.5t-29 70.5t29 70.5t71 28.5q20 0 38 -7.5t31.5 -21t21.5 -31.5t8 -39z" />
    <glyph glyph-name="ellipsis" unicode="&#x2026;" horiz-adv-x="447" 
d="M58 86v-86h-18v86h18zM233 86v-86h-18v86h18zM407 86v-86h-18v86h18z" />
    <glyph glyph-name="perthousand" unicode="&#x2030;" horiz-adv-x="752" 
d="M43 598q0 -38 26 -64t64 -26t64 26t26 64t-26 64t-64 26t-64 -26t-26 -64zM25 598q0 22 8.5 42t23 34.5t34 23t42.5 8.5q22 0 42 -8.5t34.5 -23t23 -34.5t8.5 -42q0 -23 -8.5 -42.5t-23 -34t-34.5 -23t-42 -8.5q-23 0 -42.5 8.5t-34 23t-23 34t-8.5 42.5zM459 109
q0 37 -26 63.5t-64 26.5t-64 -26.5t-26 -63.5q0 -38 26 -64.5t64 -26.5t64 26.5t26 64.5zM477 109q0 -23 -8.5 -42.5t-23 -34.5t-34.5 -23.5t-42 -8.5q-23 0 -42.5 8.5t-34 23.5t-23 34.5t-8.5 42.5q0 22 8.5 41.5t23 34.5t34 23.5t42.5 8.5q22 0 42 -8.5t34.5 -23.5
t23 -34.5t8.5 -41.5zM0 7l496 709l14 -10l-496 -709zM734 107q0 37 -26 63.5t-64 26.5t-64 -26.5t-26 -63.5q0 -38 26 -64.5t64 -26.5t64 26.5t26 64.5zM752 107q0 -23 -8.5 -42.5t-23 -34.5t-34.5 -23.5t-42 -8.5q-23 0 -42.5 8.5t-34 23.5t-23 34.5t-8.5 42.5
q0 22 8.5 41.5t23 34.5t34 23.5t42.5 8.5q22 0 42 -8.5t34.5 -23.5t23 -34.5t8.5 -41.5z" />
    <glyph glyph-name="guilsinglleft" unicode="&#x2039;" horiz-adv-x="321" 
d="M41 359q-5 -2 -5 -7t5 -7l260 -118v-19l-268 121q-13 7 -13 23q0 7 3.5 13.5t10.5 9.5h-1l268 122v-20z" />
    <glyph glyph-name="guilsinglright" unicode="&#x203a;" horiz-adv-x="321" 
d="M20 477v20l268 -122h-1q7 -3 10.5 -9.5t3.5 -13.5q0 -16 -13 -23l-268 -121v19l260 118q5 2 5 7t-5 7z" />
    <glyph glyph-name="fraction" unicode="&#x2044;" horiz-adv-x="470" 
d="M-20 7l496 709l14 -10l-496 -709z" />
    <glyph glyph-name="Euro" unicode="&#x20ac;" horiz-adv-x="765" 
d="M1 421h88q12 63 44 116.5t79.5 92.5t107 61.5t125.5 22.5q90 0 164.5 -39.5t125.5 -106.5l-14 -10q-48 63 -119.5 100.5t-156.5 37.5q-63 0 -119 -21t-100.5 -57.5t-75 -87t-42.5 -109.5h276v-18h-279q-4 -23 -4 -51q0 -14 1 -26.5t3 -24.5h279v-18h-276
q12 -59 42.5 -109t75 -86.5t100.5 -57.5t119 -21q94 0 171 45t122 120l16 -10q-24 -39 -56.5 -70.5t-72.5 -54.5t-85.5 -35.5t-94.5 -12.5q-66 0 -125.5 22.5t-106.5 61.5t-79.5 92.5t-44.5 115.5h-88v18h85q-3 24 -3 51q0 25 3 51h-85v18z" />
    <glyph glyph-name="trademark" unicode="&#x2122;" horiz-adv-x="757" 
d="M355 348v357h19l158 -341q1 -1 5 -1q3 0 3 1l158 341h19v-357h-18v316l-143 -308q-6 -12 -20 -12t-20 12l-143 308v-316h-18zM154 348v339h-144v18h305v-18h-143v-339h-18z" />
    <glyph glyph-name="minus" unicode="&#x2212;" horiz-adv-x="423" 
d="M20 262h383v-18h-383v18z" />
    <glyph glyph-name="uniFB01" unicode="&#xfb01;" horiz-adv-x="684" 
d="M40 0v669q0 15 10.5 25.5t25.5 10.5h464v-18h-464q-8 0 -13 -5t-5 -13v-309h488v-18h-488v-342h-18zM634 705v-705h-18v705h18z" />
    <glyph glyph-name="uniFB02" unicode="&#xfb02;" horiz-adv-x="1133" 
d="M40 0v669q0 15 10.5 25.5t25.5 10.5h464v-18h-464q-8 0 -13 -5t-5 -13v-309h488v-18h-488v-342h-18zM624 705v-669q0 -8 5 -13t13 -5h491v-18h-491q-15 0 -25.5 10.5t-10.5 25.5v669h18z" />
    <glyph glyph-name="glyph70" horiz-adv-x="557" 
d="M477 193q0 -24 -5 -45.5t-13 -39.5l98 -108h-25l-83 91q-29 -49 -83.5 -74t-120.5 -25q-51 0 -93 14t-71 39t-45 59.5t-16 74.5t13 71.5t35 57t49.5 46.5t56.5 40l-24 26q-26 29 -48 65.5t-22 81.5q0 37 13 64.5t33.5 46t47 28t53.5 9.5q29 0 54 -10.5t43 -29t28.5 -44.5
t10.5 -56q0 -37 -16.5 -69t-63.5 -63l-81 -53l243 -268q14 33 14 71h18zM245 10q62 0 113.5 24t78.5 71l-250 275l-3 -2q-27 -18 -53 -38t-46.5 -44t-33.5 -52.5t-13 -64.5t14.5 -67t41.5 -53.5t65 -35.5t86 -13zM98 567q0 -42 20.5 -75t45.5 -60l25 -28l84 54
q44 28 58 56.5t14 60.5q0 54 -33.5 88t-84.5 34q-24 0 -47 -8t-41 -24.5t-29.5 -41t-11.5 -56.5z" />
    <glyph glyph-name="glyph71" horiz-adv-x="632" 
d="M344 653q-7 1 -14 1h-14h-14.5t-13.5 -1l-90 85h59l58 -61l59 61h60zM632 304q0 -65 -25 -122.5t-68 -100.5t-100.5 -68t-122.5 -25q-66 0 -123.5 25t-100 68t-67.5 100.5t-25 122.5t25 122.5t67.5 100.5t100 68t123.5 25q65 0 122.5 -25t100.5 -68t68 -100.5t25 -122.5z
M586 304q0 56 -21 105.5t-58 86t-86 58t-105 21.5t-105.5 -21.5t-86.5 -58t-58 -86t-21 -105.5t21 -105.5t58 -86.5t86.5 -58t105.5 -21t105 21t86 58t58 86.5t21 105.5zM458 204q0 -28 -13 -48.5t-34.5 -33.5t-49.5 -19.5t-58 -6.5q-36 0 -68.5 12.5t-60.5 26.5l9 47
q35 -22 68 -31.5t60 -9.5q41 0 65.5 16.5t24.5 42.5q0 21 -16 36.5t-40.5 29.5t-52.5 27.5t-52.5 30t-40.5 37t-16 48.5q0 30 12.5 49.5t31.5 31.5t42.5 17t44.5 5t39 -5t33 -12t27.5 -14.5t21.5 -11.5l-11 -43q-25 22 -53 32t-54 10q-36 0 -58 -15.5t-22 -39.5
q0 -21 16.5 -35.5t41 -26.5t53 -24t53 -28t41 -39t16.5 -56z" />
    <glyph glyph-name="glyph93" horiz-adv-x="243" 
d="M223 98q0 -21 -8 -40t-21.5 -32.5t-32 -21.5t-39.5 -8t-39.5 8t-32.5 21.5t-22 32.5t-8 40t8 39.5t22 32t32.5 21.5t39.5 8t39.5 -8t32 -21.5t21.5 -32t8 -39.5zM223 411q0 -21 -8 -40t-21.5 -32.5t-32 -21.5t-39.5 -8t-39.5 8t-32.5 21.5t-22 32.5t-8 40t8 39.5t22 32
t32.5 21.5t39.5 8t39.5 -8t32 -21.5t21.5 -32t8 -39.5z" />
    <glyph glyph-name="glyph102" horiz-adv-x="514" 
d="M262 705v-50q45 -1 78.5 -9.5t57.5 -24.5t40 -37.5t27 -47.5l-16 -6q-20 47 -62 76t-125 31v-248l54 -13q39 -9 71.5 -21t56 -31t37 -47t13.5 -69q0 -47 -23 -77.5t-57.5 -48.5t-75 -25t-75.5 -7h-1v-50h-18v50q-92 2 -151 35.5t-73 110.5l18 4q12 -69 66.5 -99
t139.5 -33v306l-39 10q-27 6 -56.5 15t-54 24t-41 38t-16.5 58q0 38 19.5 64t49.5 41.5t66.5 22.5t71.5 8v50h18zM262 370v-302h1q32 0 69.5 6t69.5 22t53 43t21 69q0 35 -13 59.5t-35.5 42t-52 29t-63.5 19.5zM55 519q0 -30 15 -50t37.5 -32.5t50 -20.5t51.5 -14l35 -9v244
q-32 -1 -65 -7t-61 -19.5t-45.5 -36t-17.5 -55.5z" />
    <glyph glyph-name="glyph170" horiz-adv-x="243" 
d="M223 98q0 -21 -8 -40t-21.5 -32.5t-32 -21.5t-39.5 -8t-39.5 8t-32.5 21.5t-22 32.5t-8 40t8 39.5t22 32t32.5 21.5t39.5 8t39.5 -8t32 -21.5t21.5 -32t8 -39.5z" />
    <glyph glyph-name="glyph173" horiz-adv-x="546" 
d="M20 277h229v229h48v-229h229v-48h-229v-229h-48v229h-229v48z" />
    <glyph glyph-name="glyph220" horiz-adv-x="0" 
 />
    </font>
</defs>
</svg>
