<?xml version="1.0" standalone="no"?>
<!DOCTYPE svg PUBLIC "-//W3C//DTD SVG 1.1//EN" "http://www.w3.org/Graphics/SVG/1.1/DTD/svg11.dtd" >
<svg xmlns="http://www.w3.org/2000/svg" xmlns:xlink="http://www.w3.org/1999/xlink" version="1.1">
<metadata>
Created by FontForge 20200427 at Mon Apr 16 19:55:36 2012
 By www
</metadata>
<defs>
<font id="MiedingerW01-Bold" horiz-adv-x="380" >
  <font-face 
    font-family="MiedingerW01-Bold"
    font-weight="700"
    font-stretch="normal"
    units-per-em="1000"
    panose-1="2 11 9 7 3 0 2 2 0 0"
    ascent="845"
    descent="-155"
    x-height="700"
    cap-height="700"
    bbox="-134 -204 2143 1006"
    underline-thickness="50"
    underline-position="-150"
    unicode-range="U+0020-2122"
  />
<missing-glyph horiz-adv-x="0" 
 />
    <glyph glyph-name=".notdef" horiz-adv-x="0" 
 />
    <glyph glyph-name="glyph1" horiz-adv-x="0" 
 />
    <glyph glyph-name="glyph2" horiz-adv-x="0" 
 />
    <glyph glyph-name="space" unicode=" " horiz-adv-x="450" 
 />
    <glyph glyph-name="exclam" unicode="!" 
d="M70 190h240v-190h-240v190zM70 700h240l-30 -450h-180z" />
    <glyph glyph-name="quotedbl" unicode="&#x22;" horiz-adv-x="487" 
d="M259 800h218l-30 -348h-158zM10 800h218l-30 -348h-158z" />
    <glyph glyph-name="numbersign" unicode="#" horiz-adv-x="749" 
d="M407 143h-121l-20 -143h-179l20 143h-82v156h104l13 93h-88v156h110l21 152h179l-21 -152h121l21 152h179l-21 -152h92v-156h-114l-13 -93h98v-156h-120l-20 -143h-179zM308 299h121l13 93h-121z" />
    <glyph glyph-name="dollar" unicode="$" horiz-adv-x="1084" 
d="M516 0h-202q-82 0 -135 16.5t-85.5 46.5t-49 73t-24.5 96h239q6 -12 12.5 -20t18 -13.5t30.5 -8t49 -2.5h147v72h-143q-107 0 -171 21t-99 52.5t-46 68t-11 67.5q0 38 11 79t46 74.5t99 55.5t171 22h143v100h50v-100h185q82 0 135 -16.5t85.5 -46.5t49 -73t24.5 -96h-239
q-6 12 -12.5 20t-18 13.5t-30.5 8t-49 2.5h-130v-72h166q106 0 170.5 -21t99.5 -52.5t46 -68t11 -67.5q0 -38 -11 -79t-46 -75t-99.5 -55.5t-170.5 -21.5h-166v-100h-50v100zM819 227q0 12 -8.5 19t-31.5 10t-62.5 3.5t-100.5 0.5h-50v-72h50q61 0 100.5 0.5t62.5 4.5
t31.5 12t8.5 22zM286 473q0 -12 8.5 -19t31.5 -10t62 -3.5t101 -0.5h27v72h-27q-62 0 -101 -1t-62 -4.5t-31.5 -11.5t-8.5 -22z" />
    <glyph glyph-name="percent" unicode="%" horiz-adv-x="1147" 
d="M50 521q0 99 61.5 146t170.5 47q110 0 171 -47t61 -146t-61 -146t-171 -47q-109 0 -170.5 47t-61.5 146zM441 0h-150l423 700h150zM216 521q0 -17 2 -31t9 -24t20 -15t35 -5t35 5t20 15t9 24t2 31t-2 31t-9 23.5t-20 15t-35 5.5t-35 -5.5t-20 -15t-9 -23.5t-2 -31z
M633 173q0 99 61.5 146t170.5 47q110 0 171 -47t61 -146t-61 -146t-171 -47q-109 0 -170.5 47t-61.5 146zM799 173q0 -17 2 -31t9 -24t20 -15t35 -5t35 5t20 15t9 24t2 31t-2 31t-9 23.5t-20 15t-35 5.5t-35 -5.5t-20 -15t-9 -23.5t-2 -31z" />
    <glyph glyph-name="ampersand" unicode="&#x26;" horiz-adv-x="988" 
d="M307 -10q-78 0 -130 20t-83 51t-43.5 67t-12.5 69q0 19 4.5 45.5t17 51.5t34 45.5t56.5 29.5q-20 9 -38 25.5t-31 38t-20.5 45.5t-7.5 47q0 85 56.5 135t166.5 50h141q83 0 138 -19.5t88.5 -53.5t49 -79.5t20.5 -96.5h-237q-3 15 -8 26t-16 19t-32.5 12t-57.5 4h-5
q-43 0 -56.5 -12.5t-13.5 -32.5q0 -21 13.5 -32t56.5 -11h623v-166h-29q-1 -65 -19 -116.5t-55.5 -87.5t-96 -55t-139.5 -19h-334zM586 177q31 0 55.5 3t41.5 13t26 28t9 47h-378q-43 0 -56.5 -12.5t-13.5 -32.5q0 -21 13.5 -33.5t56.5 -12.5h246z" />
    <glyph glyph-name="quotesingle" unicode="'" horiz-adv-x="238" 
d="M10 800h218l-30 -348h-158z" />
    <glyph glyph-name="parenleft" unicode="(" horiz-adv-x="402" 
d="M402 799q-29 -41 -56.5 -101t-48.5 -127.5t-34 -138t-13 -133.5t13 -133.5t34 -138t48.5 -127t56.5 -100.5h-175q-40 37 -74 93.5t-59 123.5t-39.5 140t-14.5 142t14.5 142t39.5 140.5t59 124t74 93.5h175z" />
    <glyph glyph-name="parenright" unicode=")" horiz-adv-x="402" 
d="M175 799q40 -37 74 -93.5t59 -124t39.5 -140.5t14.5 -142t-14.5 -142t-39.5 -140t-59 -123.5t-74 -93.5h-175q29 41 56.5 100.5t48.5 127t34 138t13 133.5t-13 133.5t-34 138t-48.5 127.5t-56.5 101h175z" />
    <glyph glyph-name="asterisk" unicode="*" horiz-adv-x="490" 
d="M245 466l-80 -118l-111 83l89 111l-133 40l39 128l133 -55l-6 145h138l-6 -145l133 55l39 -128l-133 -40l89 -111l-111 -83z" />
    <glyph glyph-name="plus" unicode="+" horiz-adv-x="681" 
d="M430 630v-191h192v-179h-192v-193h-179v193h-192v179h192v191h179z" />
    <glyph glyph-name="comma" unicode="," 
d="M70 190h240v-176q0 -75 -25.5 -118.5t-62.5 -65.5t-78.5 -28t-73.5 -6v90q26 0 48 5t37.5 18t24 35t8.5 56h-118v190z" />
    <glyph glyph-name="hyphen" unicode="-" horiz-adv-x="481" 
d="M59 439h363v-179h-363v179z" />
    <glyph glyph-name="period" unicode="." 
d="M70 190h240v-190h-240v190z" />
    <glyph glyph-name="slash" unicode="/" horiz-adv-x="634" 
d="M424 800h210l-424 -900h-210z" />
    <glyph glyph-name="zero" unicode="0" horiz-adv-x="993" 
d="M956 218q0 -65 -18.5 -107.5t-51 -68.5t-78 -36.5t-99.5 -10.5h-424q-54 0 -99.5 10.5t-78 36.5t-51 68.5t-18.5 107.5v267q0 63 19 105t52 67.5t78 36.5t98 11h424q53 0 98 -11t78 -36.5t52 -67.5t19 -105v-267zM278 299q0 -34 7.5 -56t23.5 -35t41.5 -18t60.5 -5h172
q35 0 60.5 5t41.5 18t23.5 35t7.5 56v100q0 65 -32.5 90t-100.5 25h-172q-68 0 -100.5 -25t-32.5 -90v-100z" />
    <glyph glyph-name="one" unicode="1" horiz-adv-x="651" 
d="M284 442q-25 -23 -58 -36.5t-65 -20.5t-58.5 -8.5t-37.5 -1.5v192q10 0 39 6t65.5 21t75.5 41t69 65h210v-700h-240v442z" />
    <glyph glyph-name="two" unicode="2" horiz-adv-x="988" 
d="M614 260q-32 -4 -71 -9t-75 -12.5t-63 -19.5t-34 -31h576v-188h-917v13q0 87 29 150t76 107.5t107.5 72.5t123 45.5t123 27.5t107.5 18t76 16t29 23q0 14 -5.5 22t-24.5 11.5t-55.5 4.5t-97.5 1h-117q-30 0 -49.5 -2.5t-32 -9t-19 -17t-9.5 -25.5h-239q8 57 24.5 102
t49 76t85.5 47.5t135 16.5h268q71 0 123 -10t88 -27t59 -40t35.5 -48.5t17 -53t4.5 -52.5q0 -31 -11 -62t-46 -59t-99.5 -51t-170.5 -37z" />
    <glyph glyph-name="three" unicode="3" horiz-adv-x="988" 
d="M347 -10q-87 0 -145 20t-93.5 55.5t-51.5 83t-19 101.5h232q3 -18 10.5 -31.5t22.5 -22.5t39 -14t60 -5h246q43 0 56.5 12.5t13.5 33.5q0 20 -13.5 32.5t-56.5 12.5h-281v166h264q43 0 56.5 11t13.5 32q0 20 -13.5 32.5t-56.5 12.5h-229q-36 0 -57.5 -4t-32.5 -12
t-16 -19t-8 -26h-237q5 51 20.5 96.5t49 79.5t88.5 53.5t138 19.5h365q110 0 166.5 -50t56.5 -135q0 -23 -7.5 -47t-20.5 -45.5t-31 -38t-38 -25.5q34 -9 56 -29.5t34.5 -45.5t17 -51.5t4.5 -45.5q0 -33 -12.5 -69t-43.5 -67t-83 -51t-130 -20h-334z" />
    <glyph glyph-name="four" unicode="4" horiz-adv-x="978" 
d="M825 163v-163h-240v163h-544v172l544 365h240v-362h119v-175h-119zM585 338v186l-267 -186h267z" />
    <glyph glyph-name="five" unicode="5" horiz-adv-x="984" 
d="M346 294q-17 0 -28 -1t-18.5 -4t-12.5 -7t-11 -10h-229l52 428h810v-188h-602l-10 -79q11 11 23.5 16.5t33.5 5.5h340q53 0 98 -11t78 -36.5t52 -67.5t19 -105v-7q0 -65 -18.5 -109t-51 -72t-78 -40t-99.5 -12h-404q-54 0 -99.5 10.5t-78 36.5t-51 68.5t-18.5 107.5v15
h232q4 -15 9.5 -24.5t15.5 -15t26 -7t40 -1.5h232q49 0 70 11.5t21 41.5q0 32 -21.5 44t-69.5 12h-252z" />
    <glyph glyph-name="six" unicode="6" horiz-adv-x="1016" 
d="M391 512q-48 0 -69.5 -10t-21.5 -42v-37q11 11 25 16.5t35 5.5h360q53 0 98 -11t78 -36.5t52 -67.5t19 -105v-7q0 -65 -18.5 -107.5t-51 -68.5t-78 -36.5t-99.5 -10.5h-424q-54 0 -99.5 10.5t-78 36.5t-51 68.5t-18.5 107.5v262q0 63 19 105t52 67.5t78 36.5t98 11h357
q77 0 130 -14.5t86.5 -42.5t49.5 -69.5t20 -94.5h-229q-7 24 -30 28.5t-72 4.5h-217zM392 284q-48 0 -69.5 -10t-21.5 -42q0 -30 21 -38.5t70 -8.5h232q49 0 70 8.5t21 38.5q0 32 -21.5 42t-69.5 10h-232z" />
    <glyph glyph-name="seven" unicode="7" horiz-adv-x="873" 
d="M29 510v190h815v-165q-46 -29 -91 -70t-86 -88.5t-77.5 -98.5t-64.5 -100.5t-46.5 -95.5t-24.5 -82h-262q3 30 19 71.5t41 89t57 98t68.5 97t75.5 87t76 67.5h-500z" />
    <glyph glyph-name="eight" unicode="8" horiz-adv-x="980" 
d="M307 -10q-78 0 -130 20t-83 51t-43.5 67t-12.5 69q0 19 4.5 45.5t17 51.5t34 45.5t56.5 29.5q-20 9 -38 25.5t-31 38t-20.5 45.5t-7.5 47q0 85 56.5 135t166.5 50h428q110 0 166.5 -50t56.5 -135q0 -23 -7.5 -47t-20.5 -45.5t-31 -38t-38 -25.5q34 -9 56 -29.5
t34.5 -45.5t17 -51.5t4.5 -45.5q0 -33 -12.5 -69t-43.5 -67t-83 -51t-130 -20h-366zM340 268q-43 0 -56.5 -14t-13.5 -34q0 -21 13.5 -35t56.5 -14h300q43 0 56.5 14t13.5 35q0 20 -13.5 34t-56.5 14h-300zM357 531q-43 0 -56.5 -14.5t-13.5 -34.5q0 -21 13.5 -34.5
t56.5 -13.5h266q43 0 56.5 13.5t13.5 34.5q0 20 -13.5 34.5t-56.5 14.5h-266z" />
    <glyph glyph-name="nine" unicode="9" horiz-adv-x="1006" 
d="M615 183q48 0 69.5 10t21.5 42v37q-11 -11 -25 -16.5t-35 -5.5h-350q-52 0 -97 12t-78.5 38t-52.5 68t-19 101q0 61 19 105t52 72t78 41t98 13h414q54 0 99.5 -10.5t78 -36.5t51 -69t18.5 -107v-262q0 -63 -19 -105.5t-52 -68t-78 -36t-98 -10.5h-367q-77 0 -130 14.5
t-86.5 42.5t-49.5 69.5t-20 94.5h229q7 -24 30 -28.5t72 -4.5h227zM614 411q48 0 69.5 10t21.5 42q0 30 -21 38.5t-70 8.5h-222q-49 0 -70 -8.5t-21 -38.5q0 -32 21.5 -42t69.5 -10h222z" />
    <glyph glyph-name="colon" unicode=":" 
d="M70 550h240v-190h-240v190zM70 190h240v-190h-240v190z" />
    <glyph glyph-name="semicolon" unicode=";" 
d="M70 190h240v-176q0 -75 -25.5 -118.5t-62.5 -65.5t-78.5 -28t-73.5 -6v90q26 0 48 5t37.5 18t24 35t8.5 56h-118v190zM70 550h240v-190h-240v190z" />
    <glyph glyph-name="less" unicode="&#x3c;" horiz-adv-x="678" 
d="M25 278v141l322 281h331l-403 -351l403 -349h-333z" />
    <glyph glyph-name="equal" unicode="=" horiz-adv-x="681" 
d="M59 300h563v-179h-563v179zM59 580h563v-179h-563v179z" />
    <glyph glyph-name="greater" unicode="&#x3e;" horiz-adv-x="678" 
d="M333 0h-333l403 349l-403 351h331l322 -281v-141z" />
    <glyph glyph-name="question" unicode="?" horiz-adv-x="960" 
d="M267 190h240v-190h-240v190zM268 248q16 52 53 85t82.5 53t94.5 30.5t89 18t66 15.5t26 23q0 14 -5.5 22t-24.5 11.5t-55.5 4.5t-97.5 1h-117q-30 0 -49.5 -2.5t-32 -9t-19 -17t-9.5 -25.5h-239q8 57 24.5 102t49 76t85.5 47.5t135 16.5h268q71 0 123 -10t88 -27t59 -40
t35.5 -48.5t17 -53t4.5 -52.5q0 -46 -16.5 -76t-43.5 -49.5t-62.5 -29.5t-72.5 -15.5t-73.5 -8.5t-66.5 -7t-50.5 -12t-26.5 -23h-239z" />
    <glyph glyph-name="at" unicode="@" horiz-adv-x="1195" 
d="M597 480l101 -156h-201zM701 607h-207l-307 -477h185l46 72h358l47 -72h185zM30 348q0 72 20.5 137.5t66.5 115.5t119.5 79.5t180.5 29.5h358q105 0 179 -30t121 -80t68.5 -115.5t21.5 -136.5t-21.5 -136t-68.5 -114.5t-121 -78.5t-179 -29h-358q-107 0 -180.5 29
t-119.5 78t-66.5 114t-20.5 137z" />
    <glyph glyph-name="A" unicode="A" horiz-adv-x="1147" 
d="M1177 0h-273l-68 105h-526l-67 -105h-273l451 700h305zM425 285h296l-148 230z" />
    <glyph glyph-name="B" unicode="B" horiz-adv-x="1135" 
d="M70 700h777q110 0 166.5 -50t56.5 -135q0 -23 -7.5 -47t-20.5 -45.5t-31 -38t-38 -25.5q34 -9 57.5 -26.5t38 -39t20.5 -44.5t6 -42q0 -51 -14 -90t-47 -65t-86.5 -39t-131.5 -13h-746v700zM310 190h451q43 0 56.5 7t13.5 28q0 20 -13.5 27t-56.5 7h-451v-69zM310 440
h426q43 0 56.5 7t13.5 28q0 20 -13.5 27t-56.5 7h-426v-69z" />
    <glyph glyph-name="C" unicode="C" horiz-adv-x="1148" 
d="M270 348q0 -34 8.5 -65t31.5 -54.5t62 -37.5t101 -14h207q84 0 128.5 24.5t61.5 70.5h248q-10 -58 -37 -109.5t-73.5 -89.5t-114 -60.5t-158.5 -22.5h-318q-107 0 -180.5 29t-119.5 77.5t-66.5 113.5t-20.5 137t20.5 137.5t66.5 116t119.5 80t180.5 29.5h318
q88 0 154.5 -22t113 -59.5t74.5 -87t39 -105.5h-251q-20 42 -63.5 64t-121.5 22h-207q-62 0 -101 -14.5t-62 -38.5t-31.5 -55.5t-8.5 -65.5z" />
    <glyph glyph-name="D" unicode="D" horiz-adv-x="1181" 
d="M70 700h691q105 0 179 -28.5t121 -76.5t68.5 -112t21.5 -135t-21.5 -134.5t-68.5 -111t-121 -75t-179 -27.5h-691v700zM310 512v-325h396q60 0 100 12.5t63 34.5t32.5 51.5t9.5 63.5t-9.5 63.5t-32.5 51.5t-63 35t-100 13h-396z" />
    <glyph glyph-name="E" unicode="E" horiz-adv-x="1070" 
d="M310 510v-70h673v-180h-673v-70h735v-190h-975v700h975v-190h-735z" />
    <glyph glyph-name="F" unicode="F" horiz-adv-x="999" 
d="M310 510v-100h617v-180h-617v-230h-240v700h919v-190h-679z" />
    <glyph glyph-name="G" unicode="G" horiz-adv-x="1173" 
d="M543 399h575v-399h-167l-47 82q-4 -10 -15 -25.5t-33 -30.5t-56.5 -25.5t-85.5 -10.5h-297q-107 0 -180.5 28t-119.5 76t-66.5 112t-20.5 136t20.5 138.5t66.5 117.5t119.5 81.5t180.5 30.5h318q84 0 149.5 -20.5t112 -55t75 -81.5t40.5 -99h-258q-14 31 -59.5 49.5
t-114.5 18.5h-207q-62 0 -101 -15t-62 -40t-31.5 -57.5t-8.5 -66.5t8.5 -64.5t31.5 -53t62 -35.5t101 -13h217q80 0 124.5 18t62.5 60h-334v144z" />
    <glyph glyph-name="H" unicode="H" horiz-adv-x="1224" 
d="M914 259h-604v-259h-240v700h240v-251h604v251h240v-700h-240v259z" />
    <glyph glyph-name="I" unicode="I" 
d="M70 700h240v-700h-240v700z" />
    <glyph glyph-name="J" unicode="J" horiz-adv-x="1020" 
d="M412 -10q-105 0 -178 26.5t-119 73.5t-67.5 111t-22.5 139h240q1 -36 10.5 -66t32.5 -51.5t61.5 -33.5t98.5 -12h52q60 0 100 12.5t63 34.5t32.5 51.5t9.5 63.5v361h240v-362q0 -71 -21.5 -134.5t-68.5 -111t-121 -75t-179 -27.5h-163z" />
    <glyph glyph-name="K" unicode="K" horiz-adv-x="1090" 
d="M1077 700l-512 -318l560 -382h-390l-425 291v-291h-240v700h240v-235l378 235h389z" />
    <glyph glyph-name="L" unicode="L" horiz-adv-x="1015" 
d="M1005 190v-190h-935v700h240v-510h695z" />
    <glyph glyph-name="M" unicode="M" horiz-adv-x="1427" 
d="M70 0v700h346l299 -459l291 459h351v-700h-240v472l-299 -472h-201l-307 471v-471h-240z" />
    <glyph glyph-name="N" unicode="N" horiz-adv-x="1230" 
d="M1160 0h-260l-590 449v-449h-240v701h287l563 -429v428h240v-700z" />
    <glyph glyph-name="O" unicode="O" horiz-adv-x="1195" 
d="M30 348q0 72 20.5 137.5t66.5 115.5t119.5 79.5t180.5 29.5h358q105 0 179 -30t121 -80t68.5 -115.5t21.5 -136.5t-21.5 -136t-68.5 -114.5t-121 -78.5t-179 -29h-358q-107 0 -180.5 29t-119.5 78t-66.5 114t-20.5 137zM270 349q0 -34 8.5 -65t31.5 -55t62 -38t101 -14
h247q60 0 100 14t63 38t32.5 55t9.5 65t-9.5 65t-32.5 55t-63 38.5t-100 14.5h-247q-62 0 -101 -14t-62 -38t-31.5 -55.5t-8.5 -65.5z" />
    <glyph glyph-name="P" unicode="P" horiz-adv-x="1082" 
d="M70 701h668q86 0 147.5 -16.5t100.5 -49.5t57.5 -82.5t18.5 -114.5q0 -57 -18 -104.5t-57 -81.5t-100 -53t-147 -19h-430v-180h-240v701zM310 370h414q54 0 76 15t22 54q0 41 -22 56t-76 15h-414v-140z" />
    <glyph glyph-name="Q" unicode="Q" horiz-adv-x="1199" 
d="M30 348q0 72 20.5 137.5t66.5 115.5t119.5 79.5t180.5 29.5h358q105 0 179 -30t121 -80t68.5 -115.5t21.5 -136.5q0 -93 -37 -173.5t-119 -129.5l160 -170h-194l-114 121q-41 -6 -86 -6h-358q-107 0 -180.5 29t-119.5 78t-66.5 114t-20.5 137zM795 273l61 -65
q38 24 53.5 61.5t15.5 79.5q0 34 -9.5 65t-32.5 55t-63 38.5t-100 14.5h-247q-62 0 -101 -14t-62 -38t-31.5 -55.5t-8.5 -65.5t8.5 -65t31.5 -55t62 -38t101 -14h218l-90 96h194z" />
    <glyph glyph-name="R" unicode="R" horiz-adv-x="1113" 
d="M70 700h719q45 0 92.5 -6.5t86 -26.5t63 -56t24.5 -96q0 -25 -5.5 -52.5t-18.5 -52.5t-34 -44.5t-52 -29.5q50 -24 75.5 -50.5t36 -55t12 -58t3.5 -59t9.5 -58t31.5 -55.5h-238q-19 4 -25.5 22.5t-9.5 42.5t-5.5 51.5t-13 50.5t-32 38t-62.5 15h-414v-220h-243v700z
M313 390h422q42 0 62.5 12.5t20.5 46.5q0 20 -7 32t-19 18.5t-27.5 8.5t-33.5 2h-418v-120z" />
    <glyph glyph-name="S" unicode="S" horiz-adv-x="1084" 
d="M819 227q0 12 -8.5 19t-31.5 10t-62.5 3.5t-100.5 0.5h-243q-107 0 -171 21t-99 52.5t-46 68t-11 67.5q0 38 11 79t46 74.5t99 55.5t171 22h378q82 0 135 -16.5t85.5 -46.5t49 -73t24.5 -96h-239q-6 12 -12.5 20t-18 13.5t-30.5 8t-49 2.5h-207q-62 0 -101 -1t-62 -4.5
t-31.5 -11.5t-8.5 -22q0 -12 8.5 -19t31.5 -10t62 -3.5t101 -0.5h243q106 0 170.5 -21t99.5 -52.5t46 -68t11 -67.5q0 -38 -11 -79t-46 -75t-99.5 -55.5t-170.5 -21.5h-418q-82 0 -135 16.5t-85.5 46.5t-49 73t-24.5 96h239q6 -12 12.5 -20t18 -13.5t30.5 -8t49 -2.5h247
q61 0 100.5 0.5t62.5 4.5t31.5 12t8.5 22z" />
    <glyph glyph-name="T" unicode="T" horiz-adv-x="1023" 
d="M632 510v-510h-240v510h-382v190h1003v-190h-381z" />
    <glyph glyph-name="U" unicode="U" horiz-adv-x="1191" 
d="M295 339q0 -34 8.5 -63.5t31.5 -51.5t62 -34.5t101 -12.5h193q60 0 100 12.5t63 34.5t32.5 51.5t9.5 63.5v361h240v-362q0 -71 -21.5 -134.5t-68.5 -111t-121 -75t-179 -27.5h-304q-107 0 -180.5 27.5t-119.5 74.5t-66.5 110.5t-20.5 135.5v362h240v-361z" />
    <glyph glyph-name="V" unicode="V" horiz-adv-x="1087" 
d="M696 0h-305l-431 700h273l310 -515l311 515h273z" />
    <glyph glyph-name="W" unicode="W" horiz-adv-x="1478" 
d="M622 700h234l171 -445l187 445h264l-309 -700h-272l-158 403l-158 -403h-272l-309 700h264l187 -445z" />
    <glyph glyph-name="X" unicode="X" horiz-adv-x="1068" 
d="M534 493l238 207h331l-403 -351l403 -349h-333l-236 205l-236 -205h-333l403 349l-403 351h331z" />
    <glyph glyph-name="Y" unicode="Y" horiz-adv-x="1059" 
d="M650 0h-240v230l-450 470h313l257 -270l257 270h312l-449 -468v-232z" />
    <glyph glyph-name="Z" unicode="Z" horiz-adv-x="1043" 
d="M449 190h574v-190h-1003v164l542 346h-519v190h958v-158z" />
    <glyph glyph-name="bracketleft" unicode="[" horiz-adv-x="430" 
d="M400 -10v-190h-330v1000h330v-190h-90v-620h90z" />
    <glyph glyph-name="backslash" unicode="\" horiz-adv-x="634" 
d="M634 -100h-210l-424 900h210z" />
    <glyph glyph-name="bracketright" unicode="]" horiz-adv-x="430" 
d="M120 -10v620h-90v190h330v-1000h-330v190h90z" />
    <glyph glyph-name="asciicircum" unicode="^" horiz-adv-x="1082" 
d="M70 701h668q86 0 147.5 -16.5t100.5 -49.5t57.5 -82.5t18.5 -114.5q0 -57 -18 -104.5t-57 -81.5t-100 -53t-147 -19h-430v-180h-240v701z" />
    <glyph glyph-name="underscore" unicode="_" horiz-adv-x="563" 
d="M0 79h563v-159h-563v159z" />
    <glyph glyph-name="grave" unicode="`" horiz-adv-x="494" 
d="M20 894h303l91 -144h-241z" />
    <glyph glyph-name="a" unicode="a" horiz-adv-x="1147" 
d="M1177 0h-273l-68 105h-526l-67 -105h-273l451 700h305zM425 285h296l-148 230z" />
    <glyph glyph-name="b" unicode="b" horiz-adv-x="1135" 
d="M70 700h777q110 0 166.5 -50t56.5 -135q0 -23 -7.5 -47t-20.5 -45.5t-31 -38t-38 -25.5q34 -9 57.5 -26.5t38 -39t20.5 -44.5t6 -42q0 -51 -14 -90t-47 -65t-86.5 -39t-131.5 -13h-746v700zM310 190h451q43 0 56.5 7t13.5 28q0 20 -13.5 27t-56.5 7h-451v-69zM310 440
h426q43 0 56.5 7t13.5 28q0 20 -13.5 27t-56.5 7h-426v-69z" />
    <glyph glyph-name="c" unicode="c" horiz-adv-x="1148" 
d="M270 348q0 -34 8.5 -65t31.5 -54.5t62 -37.5t101 -14h207q84 0 128.5 24.5t61.5 70.5h248q-10 -58 -37 -109.5t-73.5 -89.5t-114 -60.5t-158.5 -22.5h-318q-107 0 -180.5 29t-119.5 77.5t-66.5 113.5t-20.5 137t20.5 137.5t66.5 116t119.5 80t180.5 29.5h318
q88 0 154.5 -22t113 -59.5t74.5 -87t39 -105.5h-251q-20 42 -63.5 64t-121.5 22h-207q-62 0 -101 -14.5t-62 -38.5t-31.5 -55.5t-8.5 -65.5z" />
    <glyph glyph-name="d" unicode="d" horiz-adv-x="1181" 
d="M70 700h691q105 0 179 -28.5t121 -76.5t68.5 -112t21.5 -135t-21.5 -134.5t-68.5 -111t-121 -75t-179 -27.5h-691v700zM310 512v-325h396q60 0 100 12.5t63 34.5t32.5 51.5t9.5 63.5t-9.5 63.5t-32.5 51.5t-63 35t-100 13h-396z" />
    <glyph glyph-name="e" unicode="e" horiz-adv-x="1070" 
d="M310 510v-70h673v-180h-673v-70h735v-190h-975v700h975v-190h-735z" />
    <glyph glyph-name="f" unicode="f" horiz-adv-x="999" 
d="M310 510v-100h617v-180h-617v-230h-240v700h919v-190h-679z" />
    <glyph glyph-name="g" unicode="g" horiz-adv-x="1173" 
d="M543 399h575v-399h-167l-47 82q-4 -10 -15 -25.5t-33 -30.5t-56.5 -25.5t-85.5 -10.5h-297q-107 0 -180.5 28t-119.5 76t-66.5 112t-20.5 136t20.5 138.5t66.5 117.5t119.5 81.5t180.5 30.5h318q84 0 149.5 -20.5t112 -55t75 -81.5t40.5 -99h-258q-14 31 -59.5 49.5
t-114.5 18.5h-207q-62 0 -101 -15t-62 -40t-31.5 -57.5t-8.5 -66.5t8.5 -64.5t31.5 -53t62 -35.5t101 -13h217q80 0 124.5 18t62.5 60h-334v144z" />
    <glyph glyph-name="h" unicode="h" horiz-adv-x="1224" 
d="M914 259h-604v-259h-240v700h240v-251h604v251h240v-700h-240v259z" />
    <glyph glyph-name="i" unicode="i" 
d="M70 700h240v-700h-240v700z" />
    <glyph glyph-name="j" unicode="j" horiz-adv-x="1020" 
d="M412 -10q-105 0 -178 26.5t-119 73.5t-67.5 111t-22.5 139h240q1 -36 10.5 -66t32.5 -51.5t61.5 -33.5t98.5 -12h52q60 0 100 12.5t63 34.5t32.5 51.5t9.5 63.5v361h240v-362q0 -71 -21.5 -134.5t-68.5 -111t-121 -75t-179 -27.5h-163z" />
    <glyph glyph-name="k" unicode="k" horiz-adv-x="1090" 
d="M1077 700l-512 -318l560 -382h-390l-425 291v-291h-240v700h240v-235l378 235h389z" />
    <glyph glyph-name="l" unicode="l" horiz-adv-x="1015" 
d="M1005 190v-190h-935v700h240v-510h695z" />
    <glyph glyph-name="m" unicode="m" horiz-adv-x="1427" 
d="M70 0v700h346l299 -459l291 459h351v-700h-240v472l-299 -472h-201l-307 471v-471h-240z" />
    <glyph glyph-name="n" unicode="n" horiz-adv-x="1230" 
d="M1160 0h-260l-590 449v-449h-240v701h287l563 -429v428h240v-700z" />
    <glyph glyph-name="o" unicode="o" horiz-adv-x="1195" 
d="M30 348q0 72 20.5 137.5t66.5 115.5t119.5 79.5t180.5 29.5h358q105 0 179 -30t121 -80t68.5 -115.5t21.5 -136.5t-21.5 -136t-68.5 -114.5t-121 -78.5t-179 -29h-358q-107 0 -180.5 29t-119.5 78t-66.5 114t-20.5 137zM270 349q0 -34 8.5 -65t31.5 -55t62 -38t101 -14
h247q60 0 100 14t63 38t32.5 55t9.5 65t-9.5 65t-32.5 55t-63 38.5t-100 14.5h-247q-62 0 -101 -14t-62 -38t-31.5 -55.5t-8.5 -65.5z" />
    <glyph glyph-name="p" unicode="p" horiz-adv-x="1082" 
d="M70 701h668q86 0 147.5 -16.5t100.5 -49.5t57.5 -82.5t18.5 -114.5q0 -57 -18 -104.5t-57 -81.5t-100 -53t-147 -19h-430v-180h-240v701zM310 370h414q54 0 76 15t22 54q0 41 -22 56t-76 15h-414v-140z" />
    <glyph glyph-name="q" unicode="q" horiz-adv-x="1199" 
d="M30 348q0 72 20.5 137.5t66.5 115.5t119.5 79.5t180.5 29.5h358q105 0 179 -30t121 -80t68.5 -115.5t21.5 -136.5q0 -93 -37 -173.5t-119 -129.5l160 -170h-194l-114 121q-41 -6 -86 -6h-358q-107 0 -180.5 29t-119.5 78t-66.5 114t-20.5 137zM795 273l61 -65
q38 24 53.5 61.5t15.5 79.5q0 34 -9.5 65t-32.5 55t-63 38.5t-100 14.5h-247q-62 0 -101 -14t-62 -38t-31.5 -55.5t-8.5 -65.5t8.5 -65t31.5 -55t62 -38t101 -14h218l-90 96h194z" />
    <glyph glyph-name="r" unicode="r" horiz-adv-x="1113" 
d="M70 700h719q45 0 92.5 -6.5t86 -26.5t63 -56t24.5 -96q0 -25 -5.5 -52.5t-18.5 -52.5t-34 -44.5t-52 -29.5q50 -24 75.5 -50.5t36 -55t12 -58t3.5 -59t9.5 -58t31.5 -55.5h-238q-19 4 -25.5 22.5t-9.5 42.5t-5.5 51.5t-13 50.5t-32 38t-62.5 15h-414v-220h-243v700z
M313 390h422q42 0 62.5 12.5t20.5 46.5q0 20 -7 32t-19 18.5t-27.5 8.5t-33.5 2h-418v-120z" />
    <glyph glyph-name="s" unicode="s" horiz-adv-x="1084" 
d="M819 227q0 12 -8.5 19t-31.5 10t-62.5 3.5t-100.5 0.5h-243q-107 0 -171 21t-99 52.5t-46 68t-11 67.5q0 38 11 79t46 74.5t99 55.5t171 22h378q82 0 135 -16.5t85.5 -46.5t49 -73t24.5 -96h-239q-6 12 -12.5 20t-18 13.5t-30.5 8t-49 2.5h-207q-62 0 -101 -1t-62 -4.5
t-31.5 -11.5t-8.5 -22q0 -12 8.5 -19t31.5 -10t62 -3.5t101 -0.5h243q106 0 170.5 -21t99.5 -52.5t46 -68t11 -67.5q0 -38 -11 -79t-46 -75t-99.5 -55.5t-170.5 -21.5h-418q-82 0 -135 16.5t-85.5 46.5t-49 73t-24.5 96h239q6 -12 12.5 -20t18 -13.5t30.5 -8t49 -2.5h247
q61 0 100.5 0.5t62.5 4.5t31.5 12t8.5 22z" />
    <glyph glyph-name="t" unicode="t" horiz-adv-x="1023" 
d="M632 510v-510h-240v510h-382v190h1003v-190h-381z" />
    <glyph glyph-name="u" unicode="u" horiz-adv-x="1191" 
d="M295 339q0 -34 8.5 -63.5t31.5 -51.5t62 -34.5t101 -12.5h193q60 0 100 12.5t63 34.5t32.5 51.5t9.5 63.5v361h240v-362q0 -71 -21.5 -134.5t-68.5 -111t-121 -75t-179 -27.5h-304q-107 0 -180.5 27.5t-119.5 74.5t-66.5 110.5t-20.5 135.5v362h240v-361z" />
    <glyph glyph-name="v" unicode="v" horiz-adv-x="1087" 
d="M696 0h-305l-431 700h273l310 -515l311 515h273z" />
    <glyph glyph-name="w" unicode="w" horiz-adv-x="1478" 
d="M622 700h234l171 -445l187 445h264l-309 -700h-272l-158 403l-158 -403h-272l-309 700h264l187 -445z" />
    <glyph glyph-name="x" unicode="x" horiz-adv-x="1068" 
d="M534 493l238 207h331l-403 -351l403 -349h-333l-236 205l-236 -205h-333l403 349l-403 351h331z" />
    <glyph glyph-name="y" unicode="y" horiz-adv-x="1059" 
d="M650 0h-240v230l-450 470h313l257 -270l257 270h312l-449 -468v-232z" />
    <glyph glyph-name="z" unicode="z" horiz-adv-x="1043" 
d="M449 190h574v-190h-1003v164l542 346h-519v190h958v-158z" />
    <glyph glyph-name="braceleft" unicode="{" horiz-adv-x="451" 
d="M20 375q19 0 34 3.5t25.5 13.5t15.5 28.5t5 48.5v190q0 68 39.5 104.5t103.5 36.5h188v-189h-33q-32 0 -45 -16.5t-13 -45.5v-136q0 -29 -4 -49t-15 -33t-30 -20.5t-49 -10.5q30 -3 49 -9.5t30 -19.5t15 -33t4 -49v-137q0 -29 13 -45.5t45 -16.5h33v-190h-188
q-64 0 -103.5 36.5t-39.5 104.5v192q0 30 -5 48.5t-15.5 28.5t-25.5 13.5t-34 3.5v148z" />
    <glyph glyph-name="bar" unicode="|" 
d="M70 800h240v-1000h-240v1000z" />
    <glyph glyph-name="braceright" unicode="}" horiz-adv-x="451" 
d="M431 227q-20 0 -34.5 -3.5t-25 -13.5t-15.5 -28.5t-5 -48.5v-192q0 -68 -39.5 -104.5t-103.5 -36.5h-188v190h33q32 0 45 16.5t13 45.5v137q0 29 4 49t15 33t30 19.5t49 9.5q-30 3 -49 10.5t-30 20.5t-15 33t-4 49v136q0 29 -13 45.5t-45 16.5h-33v189h188
q64 0 103.5 -36.5t39.5 -104.5v-190q0 -30 5 -48.5t15.5 -28.5t25 -13.5t34.5 -3.5v-148z" />
    <glyph glyph-name="asciitilde" unicode="~" horiz-adv-x="1113" 
d="M70 700h719q45 0 92.5 -6.5t86 -26.5t63 -56t24.5 -96q0 -25 -5.5 -52.5t-18.5 -52.5t-34 -44.5t-52 -29.5q50 -24 75.5 -50.5t36 -55t12 -58t3.5 -59t9.5 -58t31.5 -55.5h-238q-19 4 -25.5 22.5t-9.5 42.5t-5.5 51.5t-13 50.5t-32 38t-62.5 15h-414v-220h-243v700z" />
    <glyph glyph-name="uni00A0" unicode="&#xa0;" horiz-adv-x="300" 
 />
    <glyph glyph-name="exclamdown" unicode="&#xa1;" 
d="M310 410h-240v190h240v-190zM310 -100h-240l30 450h180z" />
    <glyph glyph-name="cent" unicode="&#xa2;" horiz-adv-x="1148" 
d="M549 -10h-132q-107 0 -180.5 29t-119.5 77.5t-66.5 113.5t-20.5 137t20.5 137.5t66.5 116t119.5 80t180.5 29.5h132v90h50v-90h136q88 0 154.5 -22t113 -59.5t74.5 -87t39 -105.5h-251q-20 42 -63.5 64t-121.5 22h-81v-345h81q84 0 128.5 24.5t61.5 70.5h248
q-10 -58 -37 -109.5t-73.5 -89.5t-114 -60.5t-158.5 -22.5h-136v-90h-50v90zM270 348q0 -34 8.5 -65t31.5 -54.5t62 -37.5t101 -14h76v345h-76q-62 0 -101 -14.5t-62 -38.5t-31.5 -55.5t-8.5 -65.5z" />
    <glyph glyph-name="sterling" unicode="&#xa3;" horiz-adv-x="1046" 
d="M39 417h61q-3 4 -7.5 12.5t-9.5 21t-8.5 28t-3.5 34.5q0 43 22 74.5t58.5 53.5t84 36.5t98 22.5t101 11t92.5 3q119 0 204 -21t141 -55t86.5 -77t40.5 -87h-294q-6 14 -19 24.5t-35 17.5t-55 10.5t-79 3.5q-47 0 -78.5 -4t-51 -11.5t-28 -19t-8.5 -26.5q0 -14 1.5 -24.5
t6.5 -27.5h329v-120h-330q-2 -11 -6 -26t-12.5 -32.5t-23.5 -37t-39 -39.5q22 12 41 18.5t41.5 10t52.5 4t75 0.5t78.5 -3t65.5 -7t67.5 -7t85.5 -3q46 0 90 16t77 42l75 -170q-51 -35 -106.5 -56.5t-127.5 -21.5q-77 0 -135 7t-106 15t-92 15t-93 7q-50 0 -87.5 -2
t-66 -7.5t-50.5 -14t-40 -20.5l-94 149q42 29 65 59t23 76v28h-77v120z" />
    <glyph glyph-name="currency" unicode="&#xa4;" horiz-adv-x="1210" 
d="M30 437h70q11 57 38 107t73 86.5t112 58t156 21.5h318q88 0 154.5 -22t113 -59.5t74.5 -87t39 -105.5h-251q-20 42 -63.5 64t-121.5 22h-207q-80 0 -123.5 -24t-61.5 -61h445l-20 -68h-443v-38h453l-20 -67h-417q17 -38 60.5 -62.5t126.5 -24.5h207q84 0 128.5 24.5
t61.5 70.5h248q-10 -58 -37 -109.5t-73.5 -89.5t-114 -60.5t-158.5 -22.5h-318q-91 0 -158 21t-113 58t-72.5 87t-36.5 108h-99l20 67h70v38h-80z" />
    <glyph glyph-name="yen" unicode="&#xa5;" horiz-adv-x="1059" 
d="M59 394h194l-293 306h313l257 -270l257 270h312l-294 -306h197v-139h-330l-22 -23v-38h352v-139h-352v-55h-240v55h-351v139h351v36l-24 25h-327v139z" />
    <glyph glyph-name="brokenbar" unicode="&#xa6;" 
d="M310 400h-240v400h240v-400zM70 200h240v-400h-240v400z" />
    <glyph glyph-name="section" unicode="&#xa7;" horiz-adv-x="1195" 
d="M30 348q0 72 20.5 137.5t66.5 115.5t119.5 79.5t180.5 29.5h358q105 0 179 -30t121 -80t68.5 -115.5t21.5 -136.5t-21.5 -136t-68.5 -114.5t-121 -78.5t-179 -29h-358q-107 0 -180.5 29t-119.5 78t-66.5 114t-20.5 137z" />
    <glyph glyph-name="dieresis" unicode="&#xa8;" horiz-adv-x="662" 
d="M370 882h242v-132h-242v132zM50 882h242v-132h-242v132z" />
    <glyph glyph-name="copyright" unicode="&#xa9;" horiz-adv-x="1195" 
d="M30 348q0 72 20.5 137.5t66.5 115.5t119.5 79.5t180.5 29.5h358q105 0 179 -30t121 -80t68.5 -115.5t21.5 -136.5t-21.5 -136t-68.5 -114.5t-121 -78.5t-179 -29h-358q-107 0 -180.5 29t-119.5 78t-66.5 114t-20.5 137zM402 347q0 22 5.5 42t20 35.5t40 25t64.5 9.5h134
q50 0 78 -14.5t41 -41.5h161q-7 36 -25 68t-48 56.5t-72.5 38.5t-99.5 14h-205q-68 0 -115.5 -19t-77 -51.5t-43 -75t-13.5 -88.5t13.5 -87.5t43 -73t77 -50t115.5 -18.5h205q58 0 101.5 14t73.5 39t47.5 57.5t23.5 70.5h-159q-11 -29 -39.5 -45t-82.5 -16h-134
q-39 0 -64.5 9t-40 24t-20 35t-5.5 42z" />
    <glyph glyph-name="ordfeminine" unicode="&#xaa;" horiz-adv-x="1147" 
d="M1177 0h-273l-68 105h-526l-67 -105h-273l451 700h305z" />
    <glyph glyph-name="guillemotleft" unicode="&#xab;" horiz-adv-x="613" 
d="M50 449l236 161v-168l-125 -92l125 -92v-168l-236 161v198zM327 449l236 161v-168l-125 -92l125 -92v-168l-236 161v198z" />
    <glyph glyph-name="logicalnot" unicode="&#xac;" horiz-adv-x="999" 
d="M687 90v230h-617v180h857v-410h-240z" />
    <glyph glyph-name="uni00AD" unicode="&#xad;" horiz-adv-x="481" 
d="M59 439h363v-179h-363v179z" />
    <glyph glyph-name="registered" unicode="&#xae;" horiz-adv-x="1195" 
d="M438 455h276q23 0 40 -7t17 -34q0 -22 -13.5 -30.5t-41.5 -8.5h-278v80zM277 118h161v145h273q27 0 41.5 -10t21 -25t8.5 -33t4 -34t6.5 -28t16.5 -15h157q-16 18 -21 37t-6.5 38.5t-2 39t-8 38t-24 36.5t-49.5 33q20 6 34 19t22.5 29.5t12.5 34.5t4 35q0 39 -16.5 63
t-42 37t-56.5 17.5t-61 4.5h-475v-462zM30 348q0 72 20.5 137.5t66.5 115.5t119.5 79.5t180.5 29.5h358q105 0 179 -30t121 -80t68.5 -115.5t21.5 -136.5t-21.5 -136t-68.5 -114.5t-121 -78.5t-179 -29h-358q-107 0 -180.5 29t-119.5 78t-66.5 114t-20.5 137z" />
    <glyph glyph-name="macron" unicode="&#xaf;" horiz-adv-x="670" 
d="M100 881h470v-132h-470v132z" />
    <glyph glyph-name="degree" unicode="&#xb0;" horiz-adv-x="1181" 
d="M70 700h691q105 0 179 -28.5t121 -76.5t68.5 -112t21.5 -135t-21.5 -134.5t-68.5 -111t-121 -75t-179 -27.5h-691v700z" />
    <glyph glyph-name="plusminus" unicode="&#xb1;" horiz-adv-x="681" 
d="M59 209h563v-179h-563v179zM430 670v-111h192v-179h-192v-113h-179v113h-192v179h192v111h179z" />
    <glyph glyph-name="acute" unicode="&#xb4;" horiz-adv-x="494" 
d="M211 894h303l-153 -144h-241z" />
    <glyph glyph-name="mu" unicode="&#xb5;" horiz-adv-x="1814" 
d="M1769 530q-3 -12 -7.5 -23.5t-11 -21.5t-16.5 -16t-23 -6q-20 0 -37 14.5t-23 46.5q-21 -40 -35 -51t-30 -11q-19 0 -32.5 13.5t-22.5 33.5t-13 42t-4 39q0 22 14 50.5t34 54t43.5 43t42.5 17.5q22 0 32 -29l7 26q8 -4 15.5 -7t17.5 -3q14 0 23.5 7t18.5 13
q-3 -18 -11 -57t-16 -81.5t-14.5 -79.5t-6.5 -50q0 -17 8 -17q12 0 20.5 16.5t16.5 36.5h10zM1496 572l-7 -24.5t-14.5 -36t-23 -33t-32.5 -14.5q-20 0 -38.5 14.5t-25.5 46.5q-11 -20 -19.5 -32.5t-16 -19.5t-14.5 -9t-15 -2q-19 0 -32.5 13.5t-22.5 33.5t-13 42t-4 39
q0 22 14 50.5t34 54t43.5 43t42.5 17.5t30 -24q5 25 10 49t9 43t6.5 31t3.5 15q8 -4 16 -7t17 -3q14 0 23.5 7t19.5 13q-2 -12 -8 -42.5t-13.5 -70t-16 -84t-15.5 -83t-11.5 -67.5t-4.5 -38q0 -7 2 -12t7 -5q9 0 18.5 10.5t17 25.5t13.5 31.5t9 27.5h11zM1494 485
q-7 -44 -36 -65t-60 -26q-1 -26 -27 -47t-62 -21q-13 0 -27 3t-26 10t-19.5 19t-7.5 30q0 19 16 37t37 19v-4q-16 -3 -29.5 -15.5t-13.5 -29.5q0 -16 6 -26t16.5 -15.5t23 -7.5t26.5 -2q13 0 26.5 2t25 7.5t19.5 15.5t9 25q-3 -1 -7 -1q-23 0 -39 9t-16 25q0 8 8 14t15 6
q16 0 28.5 -12.5t16.5 -28.5q31 4 59 26t36 53h2zM1205 530q-3 -12 -7.5 -23.5t-11 -21.5t-16.5 -16t-23 -6q-20 0 -37 14.5t-23 46.5q-21 -40 -35 -51t-30 -11q-19 0 -32.5 13.5t-22.5 33.5t-13 42t-4 39q0 22 14 50.5t34 54t43.5 43t42.5 17.5q22 0 32 -29l7 26
q8 -4 15.5 -7t17.5 -3q14 0 23.5 7t18.5 13q-3 -18 -11 -57t-16 -81.5t-14.5 -79.5t-6.5 -50q0 -17 8 -17q12 0 20.5 16.5t16.5 36.5h10zM1719 138l40 -32l-143 -27l9 -51l-88 71q-15 -35 -35.5 -66.5t-46.5 -57.5q25 -9 53 -9q38 0 59 13.5t33 38.5h4q-3 -15 -12.5 -27
t-22 -20.5t-27.5 -12.5t-29 -4q-36 0 -67 12q-34 -34 -71.5 -54.5t-71.5 -20.5q-32 0 -53 27.5t-21 93.5q-2 -1 -7 -1q-18 0 -35.5 8.5t-31 25.5t-22 43t-8.5 61q0 20 14 46.5t36.5 50.5t51.5 41t59 17q20 0 35 -15.5t15 -51.5q0 -23 -12.5 -42.5t-31 -34t-41 -23.5
t-43.5 -11q-6 -34 -9 -58t-3 -25q0 -11 7.5 -16.5t18.5 -5.5q4 0 7 1v1q0 17 6 38t17.5 40t27 31.5t34.5 12.5q9 0 13 -8t4 -17q0 -16 -8.5 -34t-22 -33.5t-30 -26.5t-33.5 -13q0 -59 20.5 -84.5t51.5 -25.5q28 0 61 18.5t64 49.5q-35 17 -57.5 47.5t-22.5 74.5q0 15 4.5 30
t13 28t21 23t28.5 13v-4q-31 -9 -45.5 -36.5t-14.5 -57.5q0 -37 23 -65.5t58 -43.5q24 26 44.5 59t31.5 70l-114 35l50 20l-67 136l54 -16l-12 80l52 -59l31 45l31 -98l42 135l21 -35l79 46v-89h49l-104 -103l103 29l-17 -53l78 -8zM1189 439q-3 -17 -14 -32t-27 -26.5
t-36 -18.5t-41 -7h-11q-8 -8 -21 -12t-27 -4q-29 0 -57 13t-42 41l1 1q17 -20 40 -35t55 -15q12 0 23.5 3t19.5 10q-15 3 -37 9.5t-42.5 19t-34.5 31t-14 44.5q0 8 1.5 17.5t8.5 16.5l4 -4q-5 -15 -5 -27q0 -24 13.5 -40.5t33 -28t42 -17.5t41.5 -7q3 7 3 17q0 23 -18.5 39
t-43.5 16q-10 0 -20.5 -2.5t-19.5 -7.5l-4 1q8 8 19.5 11.5t22.5 3.5q13 0 25.5 -4.5t22.5 -12t16.5 -19t6.5 -24.5q0 -11 -3 -18h4q16 0 33 4t32 13t25.5 22.5t14.5 33.5zM1101 42q0 -20 -6.5 -40.5t-18.5 -37.5t-29.5 -28t-39.5 -11q-17 0 -28.5 9t-11.5 26q0 11 8.5 19.5
t19.5 8.5q6 0 9 -1v-4q-9 0 -19 -6t-10 -17q0 -13 9 -20t20 -7q19 0 35.5 11.5t28.5 28.5t18.5 36.5t6.5 36.5q0 13 -4 24t-10 21q-14 -31 -36 -55.5t-52 -24.5q-23 0 -31 16.5t-8 36.5q0 19 6 33t15 23.5t18.5 14.5t16.5 7q3 18 5.5 39t4.5 40.5t3.5 35t1.5 24.5q0 2 -3 6
t-9 4q-5 0 -12 -4.5t-14 -14t-12 -24.5t-5 -36q0 -10 -4.5 -38.5t-11 -65t-14.5 -76.5t-15 -74.5t-12.5 -58t-6.5 -27.5q-8 4 -15.5 7t-17.5 3q-14 0 -23.5 -7t-18.5 -13q2 12 8 44.5t14.5 75t17 90.5t16 89.5t12.5 72.5t5 40q0 22 -7.5 34.5t-18.5 22t-24 19.5t-24 27.5
t-18.5 46t-7.5 74.5q0 27 7 54.5t16 56t16 57t7 55.5q0 22 -9 22q-11 0 -29 -21t-32 -56q-2 -14 -7.5 -46t-11.5 -65.5t-12 -61t-7 -32.5q-8 4 -15.5 7.5t-17.5 3.5q-14 0 -22 -3t-17 -9q3 18 10 56.5t14 80t12.5 77.5t5.5 50q0 7 -2 12t-7 5q-12 0 -20.5 -16.5t-16.5 -36.5
h-10q4 12 8.5 23.5t12 21t18 15.5t25.5 6q28 0 41.5 -17t17.5 -40q6 8 13 18t15 19t18 15t23 6q16 0 27.5 -10t19.5 -26.5t12 -37t4 -41.5q0 -36 -8 -67t-17 -59t-17 -55t-8 -55q0 -27 7 -42t17.5 -23.5t23 -14t24 -13t20.5 -20t13 -36.5q18 31 31 40t28 9q19 0 33 -14
t23.5 -34.5t14 -42t4.5 -36.5q0 -17 -4 -37t-12 -40q8 -12 13.5 -26.5t5.5 -31.5zM635 530q-3 -12 -7 -23.5t-11 -21.5t-17 -16t-23 -6q-20 0 -37 14.5t-23 46.5q-20 -40 -34.5 -51t-30.5 -11q-19 0 -32.5 13.5t-22 33.5t-12.5 42t-4 39q0 22 14 50.5t34 54t43.5 43
t42.5 17.5q21 0 31 -29l7 26q8 -4 16 -7t17 -3q14 0 23.5 7t19.5 13q-3 -18 -11 -57t-16.5 -81.5t-15 -79.5t-6.5 -50q0 -17 9 -17q12 0 20.5 16.5t16.5 36.5h9zM786 317v3q-5 29 -20.5 39t-26.5 10q-9 0 -18.5 -4.5t-21 -10t-26 -10t-34.5 -4.5q-18 0 -26 8t-8 17
q0 18 16 25t28 7l58 -6q11 0 21.5 4.5t10.5 18.5q0 15 -11.5 22.5t-25.5 7.5q-10 0 -19.5 -4.5t-9.5 -13.5q0 -13 16 -13q12 0 21 6l2 -7q-5 -2 -10.5 -4t-11.5 -2q-10 0 -17.5 5t-7.5 14q0 12 13.5 18.5t24.5 6.5q17 0 30 -9t13 -26t-13.5 -23.5t-24.5 -6.5l-59 7
q-11 0 -24.5 -6t-13.5 -21q0 -10 9 -14t17 -4q12 0 25 5t25.5 11.5t24 11.5t20.5 5q26 0 43 -18t17 -46zM359 591q0 -32 -16.5 -61t-44.5 -49q16 -16 16 -43q0 -26 -16 -43t-39 -27q1 -2 1 -5q0 -20 -17 -32.5t-34 -12.5h-5l3 5q5 0 12.5 2.5t14 7t11.5 11t5 15.5q0 4 -1 6
q-12 -5 -24.5 -6.5t-24.5 -1.5q-9 0 -24 2t-28.5 7t-23.5 13t-10 21q0 9 5.5 14.5t14 9t17.5 5t15 1.5q10 0 23.5 -3.5t26 -10t23 -15.5t16.5 -19q19 8 32.5 22.5t13.5 35.5q0 22 -11 36q-16 -10 -33.5 -15.5t-37.5 -5.5q-29 0 -54 10.5t-43.5 31t-29 49.5t-10.5 65
q0 20 13 54q-17 12 -25 31t-8 42q0 22 7.5 45.5t21 42t32.5 30.5t41 12q6 0 16 -2v-6q-4 1 -12 1q-21 0 -38.5 -11t-31 -28.5t-21 -39t-7.5 -42.5q0 -20 7 -36.5t23 -27.5q16 36 42 76.5t55.5 74.5t59 56.5t52.5 22.5q13 0 21 -6.5t12 -17t5.5 -22.5t1.5 -22
q0 -28 -13 -55.5t-34.5 -50.5t-48 -41.5t-53.5 -28.5q0 -1 -0.5 -1.5t-0.5 -2.5q-5 -17 -9.5 -37t-9 -39.5t-7 -37.5t-2.5 -33q0 -16 6.5 -25.5t15 -14t15.5 -6t9 -1.5q33 0 63 22q-10 7 -21.5 9.5t-22.5 2.5q-9 0 -21 -2.5t-14 -4.5v4q5 5 16 8t17 3q30 0 52 -14
q24 20 38.5 51t14.5 63q0 19 -6.5 38t-28.5 19q-18 0 -32.5 -9t-24.5 -22.5t-15.5 -30.5t-5.5 -33q0 -9 4.5 -23t18.5 -14q10 0 17.5 7t12.5 17t7.5 21t2.5 20q0 3 -1 7t-2 9h8q2 -5 2 -9.5v-6.5q0 -11 -3.5 -23.5t-10 -23.5t-15 -18.5t-18.5 -7.5q-19 0 -24.5 16.5
t-5.5 31.5q0 16 6 33.5t16.5 32.5t25.5 24.5t34 9.5q27 0 42.5 -24t15.5 -56zM820 -25q0 -20 -9 -35t-21 -25h-9q14 11 23 24.5t9 31.5q0 14 -6 30.5t-31 22.5q2 -12 4 -27.5t2 -39.5q0 -26 -12.5 -45t-31.5 -31t-42.5 -17.5t-45.5 -5.5q-15 0 -30 4.5t-27.5 13.5t-20 21.5
t-7.5 28.5q0 17 7 27.5t16.5 16.5t19.5 8t16 2q11 0 16 -1q8 15 22 28.5t35 22.5v3q-2 8 -2.5 16t-0.5 14q-11 -22 -28 -37t-42 -15t-41 26t-16 64q0 19 7 40.5t15.5 43.5t15.5 41.5t7 33.5q0 17 -3 23t-8 6q-8 0 -15 -5t-13 -11.5t-9.5 -12.5t-4.5 -9q0 -25 -12.5 -41.5
t-31.5 -25.5q0 -92 -37 -136t-109 -44q-19 0 -37.5 4t-32.5 14t-23 25.5t-9 38.5q0 26 15 48t40 22q17 0 24.5 -12t7.5 -25q0 -25 -13.5 -46.5t-38.5 -21.5q-5 0 -10.5 2t-10.5 4q4 -15 17 -25.5t26 -10.5q21 0 36.5 15t27 38.5t19.5 52.5t14 57q-31 13 -45 40
q-12 -5 -18 -5q-71 0 -71 75q0 27 10.5 53.5t29 47.5t44 33.5t54.5 12.5q30 0 49 -5t32.5 -11t23.5 -11t22 -5q5 0 10 0.5t10 1.5v-5q-34 -8 -65.5 -30t-51.5 -50q-3 24 -20 38.5t-43 14.5q-19 0 -36 -8.5t-30 -22.5t-21 -32t-8 -37q0 -53 58 -53q10 0 18 4q-7 14 -7 35
q0 28 14.5 44.5t26.5 16.5q11 0 16.5 -7.5t5.5 -17.5q0 -21 -14.5 -41.5t-31.5 -31.5q6 -13 16.5 -21.5t23.5 -13.5q8 34 20.5 68t38.5 65q4 5 14 14.5t22 19t25.5 17t26.5 9.5v-7q-18 -9 -29.5 -24.5t-18 -34t-9 -39.5t-2.5 -40q0 -22 3 -47q17 8 28.5 23t11.5 35
q0 14 -4 27t-11 20v2q8 -5 12.5 -16t6.5 -22q6 12 21.5 26.5t40.5 14.5q15 0 26.5 -8t19 -21t11 -30.5t3.5 -35.5q0 -12 -7 -31.5t-15.5 -41t-15.5 -44t-7 -40.5q0 -21 12 -21q13 0 23.5 14t19.5 37t16 52.5t13 59.5t11.5 58t10.5 49q8 -4 16 -7t17 -3q14 0 23.5 7t19.5 13
q-5 -26 -13 -60t-15.5 -69.5t-12.5 -69t-3 -57.5l1 -17q20 -5 33 -21t13 -42zM517 -4q0 -38 -25.5 -63.5t-60.5 -31.5q-10 -18 -31.5 -26.5t-40.5 -8.5q-14 0 -31 3.5t-31.5 11t-24.5 19t-10 28.5q0 14 8.5 25t24.5 11h6.5t8.5 -2q-43 38 -84 55t-98 17q-23 0 -48 -2.5
t-60 -7.5q31 11 52.5 17t40.5 13q22 8 43 22.5t37 32.5t25.5 37.5t9.5 37.5q0 45 -29 67.5t-71 22.5q-13 0 -29 -1.5t-29.5 -7t-22.5 -15.5t-9 -27t17.5 -26t36.5 -9t35 11t31 24v-9q-10 -14 -28 -27t-38 -13q-25 0 -44.5 13t-19.5 36q0 19 9.5 31t23.5 18.5t30.5 9
t31.5 2.5q56 0 86 -28.5t30 -76.5q0 -21 -11.5 -41t-26.5 -36.5t-30 -29t-22 -17.5l18 -4q24 -5 45 -12t40 -18.5t36.5 -27.5t35.5 -39h-2v-2q-6 2 -11 3t-10 1q-18 0 -25 -8.5t-7 -19.5q0 -15 10 -25.5t24 -17t29.5 -9.5t26.5 -3q17 0 33.5 7.5t25.5 18.5h-4
q-8 0 -20.5 2.5t-24 8t-19.5 14.5t-8 22q0 15 9.5 21.5t23.5 6.5q23 0 42.5 -15.5t19.5 -36.5q0 -4 -2 -10q13 3 27 9.5t25 17t18 24.5t7 33q0 11 -1 18.5t-5 19.5h4q2 -4 4.5 -15.5t2.5 -22.5zM1671 689q0 33 -5 44.5t-13 11.5q-9 0 -15 -7.5t-9.5 -18t-5.5 -21.5t-3 -18
q-2 -11 -7 -37.5t-10.5 -57.5t-9.5 -59t-4 -40q0 -3 1 -7t7 -4q14 0 27.5 21t24.5 69q2 23 8.5 57.5t13.5 66.5zM1375 699q-1 27 -6.5 36.5t-11.5 9.5q-9 0 -15 -7.5t-9.5 -18t-5.5 -21.5t-3 -18q-2 -11 -7 -37.5t-10.5 -57.5t-9.5 -59t-4 -40q0 -3 1 -7t7 -4q13 0 22 11
t17 36.5t16 68.5t19 108zM1390 406q-3 14 -12 23.5t-23 9.5q-6 0 -10.5 -2.5t-4.5 -10.5q0 -12 14.5 -16t31.5 -4h4zM1107 689q0 33 -5 44.5t-13 11.5q-9 0 -15 -7.5t-9.5 -18t-5.5 -21.5t-3 -18q-2 -11 -7 -37.5t-10.5 -57.5t-9.5 -59t-4 -40q0 -3 1 -7t7 -4q14 0 27.5 21
t24.5 69q2 23 8.5 57.5t13.5 66.5zM1291 272q0 22 -10 22q-12 0 -23 -14.5t-20 -37.5t-16 -51t-12 -55q19 3 34.5 19t25.5 37t15.5 43t5.5 37zM1320 123q0 5 -1.5 9.5t-7.5 4.5q-15 0 -28.5 -11.5t-24 -28.5t-16.5 -36.5t-6 -35.5v-2q12 0 26.5 10t27.5 25t21.5 32.5
t8.5 32.5zM538 689q0 33 -5.5 44.5t-12.5 11.5t-12.5 -8t-10 -18.5t-7 -21.5t-3.5 -17q-2 -11 -7.5 -37.5t-10.5 -57.5t-9 -59t-4 -40q0 -3 1 -7t7 -4q13 0 26.5 21t24.5 69q2 23 8.5 57.5t14.5 66.5zM1007 131q-11 -1 -20 -8t-15.5 -17.5t-10 -23t-3.5 -24.5q0 -9 5 -21.5
t19 -12.5q6 0 10.5 12t7 29t4 35.5t3.5 30.5zM326 868q0 10 -3 17.5t-14 7.5t-21 -12t-27 -48q0 -2 -7 -19.5t-16.5 -42.5t-19 -51.5t-15.5 -45.5q25 11 47.5 31.5t39 46.5t26.5 56t10 60zM422 299q0 8 -3 14t-12 6q-10 0 -16 -6t-9.5 -14.5t-5 -18t-1.5 -16.5q0 -19 5 -29
q16 11 29 29t13 35zM673 -72q0 11 -9 18.5t-20 12.5q-1 -3 -1 -6.5v-6.5q0 -10 3.5 -20t11.5 -10q9 0 12 4t3 8zM724 -72q0 21 -10 46.5t-15 44.5q-17 -5 -30 -15.5t-21 -27.5q20 -7 28.5 -21.5t8.5 -23.5q0 -7 -5.5 -16t-19.5 -9q-12 0 -20 12.5t-8 25.5v9t2 9q-5 1 -8.5 1
h-7.5q-19 0 -30.5 -10.5t-11.5 -29.5q0 -14 6.5 -24.5t16.5 -18t23 -11t26 -3.5q12 0 25 4t24.5 12t19 19.5t7.5 26.5zM245 378q-11 20 -35 32.5t-44 12.5q-5 0 -11.5 -1t-13 -3t-11 -7t-4.5 -12q0 -10 7 -16t17.5 -9.5t22.5 -4.5t21 -1q25 0 51 9zM428 -76q0 18 -16.5 30
t-32.5 12q-11 0 -19 -6t-8 -19q0 -9 6 -15.5t15 -10.5t18.5 -5.5t17.5 -1.5q10 0 14.5 2.5t4.5 13.5z" />
    <glyph glyph-name="mu" unicode="&#x3bc;" horiz-adv-x="1814" 
d="M1769 530q-3 -12 -7.5 -23.5t-11 -21.5t-16.5 -16t-23 -6q-20 0 -37 14.5t-23 46.5q-21 -40 -35 -51t-30 -11q-19 0 -32.5 13.5t-22.5 33.5t-13 42t-4 39q0 22 14 50.5t34 54t43.5 43t42.5 17.5q22 0 32 -29l7 26q8 -4 15.5 -7t17.5 -3q14 0 23.5 7t18.5 13
q-3 -18 -11 -57t-16 -81.5t-14.5 -79.5t-6.5 -50q0 -17 8 -17q12 0 20.5 16.5t16.5 36.5h10zM1496 572l-7 -24.5t-14.5 -36t-23 -33t-32.5 -14.5q-20 0 -38.5 14.5t-25.5 46.5q-11 -20 -19.5 -32.5t-16 -19.5t-14.5 -9t-15 -2q-19 0 -32.5 13.5t-22.5 33.5t-13 42t-4 39
q0 22 14 50.5t34 54t43.5 43t42.5 17.5t30 -24q5 25 10 49t9 43t6.5 31t3.5 15q8 -4 16 -7t17 -3q14 0 23.5 7t19.5 13q-2 -12 -8 -42.5t-13.5 -70t-16 -84t-15.5 -83t-11.5 -67.5t-4.5 -38q0 -7 2 -12t7 -5q9 0 18.5 10.5t17 25.5t13.5 31.5t9 27.5h11zM1494 485
q-7 -44 -36 -65t-60 -26q-1 -26 -27 -47t-62 -21q-13 0 -27 3t-26 10t-19.5 19t-7.5 30q0 19 16 37t37 19v-4q-16 -3 -29.5 -15.5t-13.5 -29.5q0 -16 6 -26t16.5 -15.5t23 -7.5t26.5 -2q13 0 26.5 2t25 7.5t19.5 15.5t9 25q-3 -1 -7 -1q-23 0 -39 9t-16 25q0 8 8 14t15 6
q16 0 28.5 -12.5t16.5 -28.5q31 4 59 26t36 53h2zM1205 530q-3 -12 -7.5 -23.5t-11 -21.5t-16.5 -16t-23 -6q-20 0 -37 14.5t-23 46.5q-21 -40 -35 -51t-30 -11q-19 0 -32.5 13.5t-22.5 33.5t-13 42t-4 39q0 22 14 50.5t34 54t43.5 43t42.5 17.5q22 0 32 -29l7 26
q8 -4 15.5 -7t17.5 -3q14 0 23.5 7t18.5 13q-3 -18 -11 -57t-16 -81.5t-14.5 -79.5t-6.5 -50q0 -17 8 -17q12 0 20.5 16.5t16.5 36.5h10zM1719 138l40 -32l-143 -27l9 -51l-88 71q-15 -35 -35.5 -66.5t-46.5 -57.5q25 -9 53 -9q38 0 59 13.5t33 38.5h4q-3 -15 -12.5 -27
t-22 -20.5t-27.5 -12.5t-29 -4q-36 0 -67 12q-34 -34 -71.5 -54.5t-71.5 -20.5q-32 0 -53 27.5t-21 93.5q-2 -1 -7 -1q-18 0 -35.5 8.5t-31 25.5t-22 43t-8.5 61q0 20 14 46.5t36.5 50.5t51.5 41t59 17q20 0 35 -15.5t15 -51.5q0 -23 -12.5 -42.5t-31 -34t-41 -23.5
t-43.5 -11q-6 -34 -9 -58t-3 -25q0 -11 7.5 -16.5t18.5 -5.5q4 0 7 1v1q0 17 6 38t17.5 40t27 31.5t34.5 12.5q9 0 13 -8t4 -17q0 -16 -8.5 -34t-22 -33.5t-30 -26.5t-33.5 -13q0 -59 20.5 -84.5t51.5 -25.5q28 0 61 18.5t64 49.5q-35 17 -57.5 47.5t-22.5 74.5q0 15 4.5 30
t13 28t21 23t28.5 13v-4q-31 -9 -45.5 -36.5t-14.5 -57.5q0 -37 23 -65.5t58 -43.5q24 26 44.5 59t31.5 70l-114 35l50 20l-67 136l54 -16l-12 80l52 -59l31 45l31 -98l42 135l21 -35l79 46v-89h49l-104 -103l103 29l-17 -53l78 -8zM1189 439q-3 -17 -14 -32t-27 -26.5
t-36 -18.5t-41 -7h-11q-8 -8 -21 -12t-27 -4q-29 0 -57 13t-42 41l1 1q17 -20 40 -35t55 -15q12 0 23.5 3t19.5 10q-15 3 -37 9.5t-42.5 19t-34.5 31t-14 44.5q0 8 1.5 17.5t8.5 16.5l4 -4q-5 -15 -5 -27q0 -24 13.5 -40.5t33 -28t42 -17.5t41.5 -7q3 7 3 17q0 23 -18.5 39
t-43.5 16q-10 0 -20.5 -2.5t-19.5 -7.5l-4 1q8 8 19.5 11.5t22.5 3.5q13 0 25.5 -4.5t22.5 -12t16.5 -19t6.5 -24.5q0 -11 -3 -18h4q16 0 33 4t32 13t25.5 22.5t14.5 33.5zM1101 42q0 -20 -6.5 -40.5t-18.5 -37.5t-29.5 -28t-39.5 -11q-17 0 -28.5 9t-11.5 26q0 11 8.5 19.5
t19.5 8.5q6 0 9 -1v-4q-9 0 -19 -6t-10 -17q0 -13 9 -20t20 -7q19 0 35.5 11.5t28.5 28.5t18.5 36.5t6.5 36.5q0 13 -4 24t-10 21q-14 -31 -36 -55.5t-52 -24.5q-23 0 -31 16.5t-8 36.5q0 19 6 33t15 23.5t18.5 14.5t16.5 7q3 18 5.5 39t4.5 40.5t3.5 35t1.5 24.5q0 2 -3 6
t-9 4q-5 0 -12 -4.5t-14 -14t-12 -24.5t-5 -36q0 -10 -4.5 -38.5t-11 -65t-14.5 -76.5t-15 -74.5t-12.5 -58t-6.5 -27.5q-8 4 -15.5 7t-17.5 3q-14 0 -23.5 -7t-18.5 -13q2 12 8 44.5t14.5 75t17 90.5t16 89.5t12.5 72.5t5 40q0 22 -7.5 34.5t-18.5 22t-24 19.5t-24 27.5
t-18.5 46t-7.5 74.5q0 27 7 54.5t16 56t16 57t7 55.5q0 22 -9 22q-11 0 -29 -21t-32 -56q-2 -14 -7.5 -46t-11.5 -65.5t-12 -61t-7 -32.5q-8 4 -15.5 7.5t-17.5 3.5q-14 0 -22 -3t-17 -9q3 18 10 56.5t14 80t12.5 77.5t5.5 50q0 7 -2 12t-7 5q-12 0 -20.5 -16.5t-16.5 -36.5
h-10q4 12 8.5 23.5t12 21t18 15.5t25.5 6q28 0 41.5 -17t17.5 -40q6 8 13 18t15 19t18 15t23 6q16 0 27.5 -10t19.5 -26.5t12 -37t4 -41.5q0 -36 -8 -67t-17 -59t-17 -55t-8 -55q0 -27 7 -42t17.5 -23.5t23 -14t24 -13t20.5 -20t13 -36.5q18 31 31 40t28 9q19 0 33 -14
t23.5 -34.5t14 -42t4.5 -36.5q0 -17 -4 -37t-12 -40q8 -12 13.5 -26.5t5.5 -31.5zM635 530q-3 -12 -7 -23.5t-11 -21.5t-17 -16t-23 -6q-20 0 -37 14.5t-23 46.5q-20 -40 -34.5 -51t-30.5 -11q-19 0 -32.5 13.5t-22 33.5t-12.5 42t-4 39q0 22 14 50.5t34 54t43.5 43
t42.5 17.5q21 0 31 -29l7 26q8 -4 16 -7t17 -3q14 0 23.5 7t19.5 13q-3 -18 -11 -57t-16.5 -81.5t-15 -79.5t-6.5 -50q0 -17 9 -17q12 0 20.5 16.5t16.5 36.5h9zM786 317v3q-5 29 -20.5 39t-26.5 10q-9 0 -18.5 -4.5t-21 -10t-26 -10t-34.5 -4.5q-18 0 -26 8t-8 17
q0 18 16 25t28 7l58 -6q11 0 21.5 4.5t10.5 18.5q0 15 -11.5 22.5t-25.5 7.5q-10 0 -19.5 -4.5t-9.5 -13.5q0 -13 16 -13q12 0 21 6l2 -7q-5 -2 -10.5 -4t-11.5 -2q-10 0 -17.5 5t-7.5 14q0 12 13.5 18.5t24.5 6.5q17 0 30 -9t13 -26t-13.5 -23.5t-24.5 -6.5l-59 7
q-11 0 -24.5 -6t-13.5 -21q0 -10 9 -14t17 -4q12 0 25 5t25.5 11.5t24 11.5t20.5 5q26 0 43 -18t17 -46zM359 591q0 -32 -16.5 -61t-44.5 -49q16 -16 16 -43q0 -26 -16 -43t-39 -27q1 -2 1 -5q0 -20 -17 -32.5t-34 -12.5h-5l3 5q5 0 12.5 2.5t14 7t11.5 11t5 15.5q0 4 -1 6
q-12 -5 -24.5 -6.5t-24.5 -1.5q-9 0 -24 2t-28.5 7t-23.5 13t-10 21q0 9 5.5 14.5t14 9t17.5 5t15 1.5q10 0 23.5 -3.5t26 -10t23 -15.5t16.5 -19q19 8 32.5 22.5t13.5 35.5q0 22 -11 36q-16 -10 -33.5 -15.5t-37.5 -5.5q-29 0 -54 10.5t-43.5 31t-29 49.5t-10.5 65
q0 20 13 54q-17 12 -25 31t-8 42q0 22 7.5 45.5t21 42t32.5 30.5t41 12q6 0 16 -2v-6q-4 1 -12 1q-21 0 -38.5 -11t-31 -28.5t-21 -39t-7.5 -42.5q0 -20 7 -36.5t23 -27.5q16 36 42 76.5t55.5 74.5t59 56.5t52.5 22.5q13 0 21 -6.5t12 -17t5.5 -22.5t1.5 -22
q0 -28 -13 -55.5t-34.5 -50.5t-48 -41.5t-53.5 -28.5q0 -1 -0.5 -1.5t-0.5 -2.5q-5 -17 -9.5 -37t-9 -39.5t-7 -37.5t-2.5 -33q0 -16 6.5 -25.5t15 -14t15.5 -6t9 -1.5q33 0 63 22q-10 7 -21.5 9.5t-22.5 2.5q-9 0 -21 -2.5t-14 -4.5v4q5 5 16 8t17 3q30 0 52 -14
q24 20 38.5 51t14.5 63q0 19 -6.5 38t-28.5 19q-18 0 -32.5 -9t-24.5 -22.5t-15.5 -30.5t-5.5 -33q0 -9 4.5 -23t18.5 -14q10 0 17.5 7t12.5 17t7.5 21t2.5 20q0 3 -1 7t-2 9h8q2 -5 2 -9.5v-6.5q0 -11 -3.5 -23.5t-10 -23.5t-15 -18.5t-18.5 -7.5q-19 0 -24.5 16.5
t-5.5 31.5q0 16 6 33.5t16.5 32.5t25.5 24.5t34 9.5q27 0 42.5 -24t15.5 -56zM820 -25q0 -20 -9 -35t-21 -25h-9q14 11 23 24.5t9 31.5q0 14 -6 30.5t-31 22.5q2 -12 4 -27.5t2 -39.5q0 -26 -12.5 -45t-31.5 -31t-42.5 -17.5t-45.5 -5.5q-15 0 -30 4.5t-27.5 13.5t-20 21.5
t-7.5 28.5q0 17 7 27.5t16.5 16.5t19.5 8t16 2q11 0 16 -1q8 15 22 28.5t35 22.5v3q-2 8 -2.5 16t-0.5 14q-11 -22 -28 -37t-42 -15t-41 26t-16 64q0 19 7 40.5t15.5 43.5t15.5 41.5t7 33.5q0 17 -3 23t-8 6q-8 0 -15 -5t-13 -11.5t-9.5 -12.5t-4.5 -9q0 -25 -12.5 -41.5
t-31.5 -25.5q0 -92 -37 -136t-109 -44q-19 0 -37.5 4t-32.5 14t-23 25.5t-9 38.5q0 26 15 48t40 22q17 0 24.5 -12t7.5 -25q0 -25 -13.5 -46.5t-38.5 -21.5q-5 0 -10.5 2t-10.5 4q4 -15 17 -25.5t26 -10.5q21 0 36.5 15t27 38.5t19.5 52.5t14 57q-31 13 -45 40
q-12 -5 -18 -5q-71 0 -71 75q0 27 10.5 53.5t29 47.5t44 33.5t54.5 12.5q30 0 49 -5t32.5 -11t23.5 -11t22 -5q5 0 10 0.5t10 1.5v-5q-34 -8 -65.5 -30t-51.5 -50q-3 24 -20 38.5t-43 14.5q-19 0 -36 -8.5t-30 -22.5t-21 -32t-8 -37q0 -53 58 -53q10 0 18 4q-7 14 -7 35
q0 28 14.5 44.5t26.5 16.5q11 0 16.5 -7.5t5.5 -17.5q0 -21 -14.5 -41.5t-31.5 -31.5q6 -13 16.5 -21.5t23.5 -13.5q8 34 20.5 68t38.5 65q4 5 14 14.5t22 19t25.5 17t26.5 9.5v-7q-18 -9 -29.5 -24.5t-18 -34t-9 -39.5t-2.5 -40q0 -22 3 -47q17 8 28.5 23t11.5 35
q0 14 -4 27t-11 20v2q8 -5 12.5 -16t6.5 -22q6 12 21.5 26.5t40.5 14.5q15 0 26.5 -8t19 -21t11 -30.5t3.5 -35.5q0 -12 -7 -31.5t-15.5 -41t-15.5 -44t-7 -40.5q0 -21 12 -21q13 0 23.5 14t19.5 37t16 52.5t13 59.5t11.5 58t10.5 49q8 -4 16 -7t17 -3q14 0 23.5 7t19.5 13
q-5 -26 -13 -60t-15.5 -69.5t-12.5 -69t-3 -57.5l1 -17q20 -5 33 -21t13 -42zM517 -4q0 -38 -25.5 -63.5t-60.5 -31.5q-10 -18 -31.5 -26.5t-40.5 -8.5q-14 0 -31 3.5t-31.5 11t-24.5 19t-10 28.5q0 14 8.5 25t24.5 11h6.5t8.5 -2q-43 38 -84 55t-98 17q-23 0 -48 -2.5
t-60 -7.5q31 11 52.5 17t40.5 13q22 8 43 22.5t37 32.5t25.5 37.5t9.5 37.5q0 45 -29 67.5t-71 22.5q-13 0 -29 -1.5t-29.5 -7t-22.5 -15.5t-9 -27t17.5 -26t36.5 -9t35 11t31 24v-9q-10 -14 -28 -27t-38 -13q-25 0 -44.5 13t-19.5 36q0 19 9.5 31t23.5 18.5t30.5 9
t31.5 2.5q56 0 86 -28.5t30 -76.5q0 -21 -11.5 -41t-26.5 -36.5t-30 -29t-22 -17.5l18 -4q24 -5 45 -12t40 -18.5t36.5 -27.5t35.5 -39h-2v-2q-6 2 -11 3t-10 1q-18 0 -25 -8.5t-7 -19.5q0 -15 10 -25.5t24 -17t29.5 -9.5t26.5 -3q17 0 33.5 7.5t25.5 18.5h-4
q-8 0 -20.5 2.5t-24 8t-19.5 14.5t-8 22q0 15 9.5 21.5t23.5 6.5q23 0 42.5 -15.5t19.5 -36.5q0 -4 -2 -10q13 3 27 9.5t25 17t18 24.5t7 33q0 11 -1 18.5t-5 19.5h4q2 -4 4.5 -15.5t2.5 -22.5zM1671 689q0 33 -5 44.5t-13 11.5q-9 0 -15 -7.5t-9.5 -18t-5.5 -21.5t-3 -18
q-2 -11 -7 -37.5t-10.5 -57.5t-9.5 -59t-4 -40q0 -3 1 -7t7 -4q14 0 27.5 21t24.5 69q2 23 8.5 57.5t13.5 66.5zM1375 699q-1 27 -6.5 36.5t-11.5 9.5q-9 0 -15 -7.5t-9.5 -18t-5.5 -21.5t-3 -18q-2 -11 -7 -37.5t-10.5 -57.5t-9.5 -59t-4 -40q0 -3 1 -7t7 -4q13 0 22 11
t17 36.5t16 68.5t19 108zM1390 406q-3 14 -12 23.5t-23 9.5q-6 0 -10.5 -2.5t-4.5 -10.5q0 -12 14.5 -16t31.5 -4h4zM1107 689q0 33 -5 44.5t-13 11.5q-9 0 -15 -7.5t-9.5 -18t-5.5 -21.5t-3 -18q-2 -11 -7 -37.5t-10.5 -57.5t-9.5 -59t-4 -40q0 -3 1 -7t7 -4q14 0 27.5 21
t24.5 69q2 23 8.5 57.5t13.5 66.5zM1291 272q0 22 -10 22q-12 0 -23 -14.5t-20 -37.5t-16 -51t-12 -55q19 3 34.5 19t25.5 37t15.5 43t5.5 37zM1320 123q0 5 -1.5 9.5t-7.5 4.5q-15 0 -28.5 -11.5t-24 -28.5t-16.5 -36.5t-6 -35.5v-2q12 0 26.5 10t27.5 25t21.5 32.5
t8.5 32.5zM538 689q0 33 -5.5 44.5t-12.5 11.5t-12.5 -8t-10 -18.5t-7 -21.5t-3.5 -17q-2 -11 -7.5 -37.5t-10.5 -57.5t-9 -59t-4 -40q0 -3 1 -7t7 -4q13 0 26.5 21t24.5 69q2 23 8.5 57.5t14.5 66.5zM1007 131q-11 -1 -20 -8t-15.5 -17.5t-10 -23t-3.5 -24.5q0 -9 5 -21.5
t19 -12.5q6 0 10.5 12t7 29t4 35.5t3.5 30.5zM326 868q0 10 -3 17.5t-14 7.5t-21 -12t-27 -48q0 -2 -7 -19.5t-16.5 -42.5t-19 -51.5t-15.5 -45.5q25 11 47.5 31.5t39 46.5t26.5 56t10 60zM422 299q0 8 -3 14t-12 6q-10 0 -16 -6t-9.5 -14.5t-5 -18t-1.5 -16.5q0 -19 5 -29
q16 11 29 29t13 35zM673 -72q0 11 -9 18.5t-20 12.5q-1 -3 -1 -6.5v-6.5q0 -10 3.5 -20t11.5 -10q9 0 12 4t3 8zM724 -72q0 21 -10 46.5t-15 44.5q-17 -5 -30 -15.5t-21 -27.5q20 -7 28.5 -21.5t8.5 -23.5q0 -7 -5.5 -16t-19.5 -9q-12 0 -20 12.5t-8 25.5v9t2 9q-5 1 -8.5 1
h-7.5q-19 0 -30.5 -10.5t-11.5 -29.5q0 -14 6.5 -24.5t16.5 -18t23 -11t26 -3.5q12 0 25 4t24.5 12t19 19.5t7.5 26.5zM245 378q-11 20 -35 32.5t-44 12.5q-5 0 -11.5 -1t-13 -3t-11 -7t-4.5 -12q0 -10 7 -16t17.5 -9.5t22.5 -4.5t21 -1q25 0 51 9zM428 -76q0 18 -16.5 30
t-32.5 12q-11 0 -19 -6t-8 -19q0 -9 6 -15.5t15 -10.5t18.5 -5.5t17.5 -1.5q10 0 14.5 2.5t4.5 13.5z" />
    <glyph glyph-name="paragraph" unicode="&#xb6;" horiz-adv-x="1012" 
d="M962 -200h-240v699h-98v-699h-240v380h-12q-86 0 -147 19t-100 53t-57 81.5t-18 104.5q0 65 18.5 114.5t57.5 82.5t100.5 49.5t147.5 16.5h588v-901z" />
    <glyph glyph-name="periodcentered" unicode="&#xb7;" 
d="M70 550h240v-190h-240v190z" />
    <glyph glyph-name="cedilla" unicode="&#xb8;" horiz-adv-x="406" 
d="M66 -133q19 -5 39 -8t44 -3q27 0 39.5 8.5t12.5 17.5q0 8 -9.5 14.5t-26.5 6.5q-12 0 -24 -2.5t-17 -4.5l-27 21l58 83h76l-26 -38q8 1 16 1.5t19 0.5q57 0 86.5 -20t29.5 -59q0 -26 -12.5 -43t-33.5 -27t-49.5 -14.5t-60.5 -4.5q-42 0 -78.5 5.5t-71.5 14.5z" />
    <glyph glyph-name="uni00B9" unicode="&#xb9;" horiz-adv-x="1195" 
d="M475 437h275q35 0 49.5 -10.5t14.5 -36.5t-14.5 -36t-49.5 -10h-275v93zM316 99h159v119h285q57 0 97.5 12.5t66 35t37.5 54t12 69.5q0 86 -50 130t-164 44h-443v-464zM30 348q0 72 20.5 137.5t66.5 115.5t119.5 79.5t180.5 29.5h358q105 0 179 -30t121 -80t68.5 -115.5
t21.5 -136.5t-21.5 -136t-68.5 -114.5t-121 -78.5t-179 -29h-358q-107 0 -180.5 29t-119.5 78t-66.5 114t-20.5 137z" />
    <glyph glyph-name="ordmasculine" unicode="&#xba;" horiz-adv-x="1199" 
d="M30 348q0 72 20.5 137.5t66.5 115.5t119.5 79.5t180.5 29.5h358q105 0 179 -30t121 -80t68.5 -115.5t21.5 -136.5q0 -93 -37 -173.5t-119 -129.5l160 -170h-194l-114 121q-41 -6 -86 -6h-358q-107 0 -180.5 29t-119.5 78t-66.5 114t-20.5 137z" />
    <glyph glyph-name="guillemotright" unicode="&#xbb;" horiz-adv-x="613" 
d="M286 251l-236 -161v168l125 92l-125 92v168l236 -161v-198zM563 251l-236 -161v168l125 92l-125 92v168l236 -161v-198z" />
    <glyph glyph-name="questiondown" unicode="&#xbf;" horiz-adv-x="960" 
d="M693 410h-240v190h240v-190zM692 352q-16 -52 -53 -85t-82.5 -53t-94.5 -30.5t-89 -18t-66 -15.5t-26 -23q0 -14 5.5 -22t24.5 -12t55 -4.5t98 -0.5h117q30 0 49.5 2.5t32 9t19 17t9.5 25.5h239q-8 -57 -24.5 -102t-49 -76t-85.5 -47.5t-135 -16.5h-268q-107 0 -171 21.5
t-99 55.5t-46 75t-11 79q0 46 16.5 76t43.5 49.5t62.5 29.5t72.5 15.5t73.5 8.5t66.5 7t50.5 12t26.5 23h239z" />
    <glyph glyph-name="Agrave" unicode="&#xc0;" horiz-adv-x="1147" 
d="M1177 0h-273l-68 105h-526l-67 -105h-273l451 700h305zM300 894h303l91 -144h-241zM425 285h296l-148 230z" />
    <glyph glyph-name="Aacute" unicode="&#xc1;" horiz-adv-x="1147" 
d="M1177 0h-273l-68 105h-526l-67 -105h-273l451 700h305zM552 894h303l-153 -144h-241zM425 285h296l-148 230z" />
    <glyph glyph-name="Acircumflex" unicode="&#xc2;" horiz-adv-x="1147" 
d="M1177 0h-273l-68 105h-526l-67 -105h-273l451 700h305zM394 894h358l155 -144h-279l-68 76l-68 -76h-253zM425 285h296l-148 230z" />
    <glyph glyph-name="Atilde" unicode="&#xc3;" horiz-adv-x="1147" 
d="M1177 0h-273l-68 105h-526l-67 -105h-273l451 700h305zM835 923q-9 -49 -24 -82.5t-35 -53.5t-43.5 -29t-48.5 -9q-20 0 -54.5 7.5t-69.5 16.5t-64 16.5t-38 7.5q-17 0 -25.5 -10t-14.5 -37h-107q13 55 32 89t40.5 52.5t45 25t45.5 6.5q9 0 38 -7.5t63.5 -16.5t66 -16.5
t44.5 -7.5q14 0 25 8t18 40h106zM425 285h296l-148 230z" />
    <glyph glyph-name="Adieresis" unicode="&#xc4;" horiz-adv-x="1147" 
d="M612 882h242v-132h-242v132zM292 882h242v-132h-242v132zM425 285h296l-148 230zM1177 0h-273l-68 105h-526l-67 -105h-273l451 700h305z" />
    <glyph glyph-name="Aring" unicode="&#xc5;" horiz-adv-x="1147" 
d="M1177 0h-273l-68 105h-526l-67 -105h-273l451 700h305zM435 868q0 28 11 53.5t29.5 44t43.5 29.5t54 11q28 0 53.5 -11t44 -29.5t29.5 -44t11 -53.5q0 -29 -11 -54t-29.5 -43.5t-44 -29.5t-53.5 -11q-29 0 -54 11t-43.5 29.5t-29.5 43.5t-11 54zM425 285h296l-148 230z
M530 868q0 -18 12.5 -30.5t30.5 -12.5t30.5 12.5t12.5 30.5t-12.5 30.5t-30.5 12.5t-30.5 -12.5t-12.5 -30.5z" />
    <glyph glyph-name="AE" unicode="&#xc6;" horiz-adv-x="1623" 
d="M863 510v-70h673v-180h-673v-70h735v-190h-975v105h-313l-67 -105h-273l451 700h1177v-190h-735zM425 285h198v225h-50z" />
    <glyph glyph-name="Ccedilla" unicode="&#xc7;" horiz-adv-x="1148" 
d="M447 -133q19 -5 39 -8t44 -3q27 0 39.5 8.5t12.5 17.5q0 8 -9.5 14.5t-26.5 6.5q-12 0 -24 -2.5t-17 -4.5l-27 21l51 73h-112q-107 0 -180.5 29t-119.5 77.5t-66.5 113.5t-20.5 137t20.5 137.5t66.5 116t119.5 80t180.5 29.5h318q88 0 154.5 -22t113 -59.5t74.5 -87
t39 -105.5h-251q-20 42 -63.5 64t-121.5 22h-207q-62 0 -101 -14.5t-62 -38.5t-31.5 -55.5t-8.5 -65.5t8.5 -65t31.5 -54.5t62 -37.5t101 -14h207q84 0 128.5 24.5t61.5 70.5h248q-10 -58 -37 -109.5t-73.5 -89.5t-114 -60.5t-158.5 -22.5h-130l-19 -28q8 1 16 1.5t19 0.5
q57 0 86.5 -20t29.5 -59q0 -26 -12.5 -43t-33.5 -27t-49.5 -14.5t-60.5 -4.5q-42 0 -78.5 5.5t-71.5 14.5z" />
    <glyph glyph-name="Egrave" unicode="&#xc8;" horiz-adv-x="1070" 
d="M352 894h303l91 -144h-241zM310 510v-70h673v-180h-673v-70h735v-190h-975v700h975v-190h-735z" />
    <glyph glyph-name="Eacute" unicode="&#xc9;" horiz-adv-x="1070" 
d="M541 894h303l-153 -144h-241zM310 510v-70h673v-180h-673v-70h735v-190h-975v700h975v-190h-735z" />
    <glyph glyph-name="Ecircumflex" unicode="&#xca;" horiz-adv-x="1070" 
d="M406 894h358l155 -144h-279l-68 76l-68 -76h-253zM310 510v-70h673v-180h-673v-70h735v-190h-975v700h975v-190h-735z" />
    <glyph glyph-name="Edieresis" unicode="&#xcb;" horiz-adv-x="1070" 
d="M634 882h242v-132h-242v132zM314 882h242v-132h-242v132zM310 510v-70h673v-180h-673v-70h735v-190h-975v700h975v-190h-735z" />
    <glyph glyph-name="Igrave" unicode="&#xcc;" 
d="M-71 894h303l91 -144h-241zM70 700h240v-700h-240v700z" />
    <glyph glyph-name="Iacute" unicode="&#xcd;" 
d="M147 894h303l-153 -144h-241zM70 700h240v-700h-240v700z" />
    <glyph glyph-name="Icircumflex" unicode="&#xce;" 
d="M21 894h358l155 -144h-279l-68 76l-68 -76h-253zM70 700h240v-700h-240v700z" />
    <glyph glyph-name="Idieresis" unicode="&#xcf;" 
d="M229 882h242v-132h-242v132zM-91 882h242v-132h-242v132zM70 700h240v-700h-240v700z" />
    <glyph glyph-name="Eth" unicode="&#xd0;" horiz-adv-x="1181" 
d="M0 419h70v281h691q105 0 179 -28.5t121 -76.5t68.5 -112t21.5 -135t-21.5 -134.5t-68.5 -111t-121 -75t-179 -27.5h-691v280h-70v139zM310 512v-93h297v-139h-297v-93h396q60 0 100 12.5t63 34.5t32.5 51.5t9.5 63.5t-9.5 63.5t-32.5 51.5t-63 35t-100 13h-396z" />
    <glyph glyph-name="Ntilde" unicode="&#xd1;" horiz-adv-x="1230" 
d="M929 923q-9 -49 -24 -82.5t-35 -53.5t-43.5 -29t-48.5 -9q-20 0 -54.5 7.5t-69.5 16.5t-64 16.5t-38 7.5q-17 0 -25.5 -10t-14.5 -37h-107q13 55 32 89t40.5 52.5t45 25t45.5 6.5q9 0 38 -7.5t63.5 -16.5t66 -16.5t44.5 -7.5q14 0 25 8t18 40h106zM1160 0h-260l-590 449
v-449h-240v701h287l563 -429v428h240v-700z" />
    <glyph glyph-name="Ograve" unicode="&#xd2;" horiz-adv-x="1195" 
d="M367 894h303l91 -144h-241zM270 349q0 -34 8.5 -65t31.5 -55t62 -38t101 -14h247q60 0 100 14t63 38t32.5 55t9.5 65t-9.5 65t-32.5 55t-63 38.5t-100 14.5h-247q-62 0 -101 -14t-62 -38t-31.5 -55.5t-8.5 -65.5zM30 348q0 72 20.5 137.5t66.5 115.5t119.5 79.5
t180.5 29.5h358q105 0 179 -30t121 -80t68.5 -115.5t21.5 -136.5t-21.5 -136t-68.5 -114.5t-121 -78.5t-179 -29h-358q-107 0 -180.5 29t-119.5 78t-66.5 114t-20.5 137z" />
    <glyph glyph-name="Oacute" unicode="&#xd3;" horiz-adv-x="1195" 
d="M578 894h303l-153 -144h-241zM270 349q0 -34 8.5 -65t31.5 -55t62 -38t101 -14h247q60 0 100 14t63 38t32.5 55t9.5 65t-9.5 65t-32.5 55t-63 38.5t-100 14.5h-247q-62 0 -101 -14t-62 -38t-31.5 -55.5t-8.5 -65.5zM30 348q0 72 20.5 137.5t66.5 115.5t119.5 79.5
t180.5 29.5h358q105 0 179 -30t121 -80t68.5 -115.5t21.5 -136.5t-21.5 -136t-68.5 -114.5t-121 -78.5t-179 -29h-358q-107 0 -180.5 29t-119.5 78t-66.5 114t-20.5 137z" />
    <glyph glyph-name="Ocircumflex" unicode="&#xd4;" horiz-adv-x="1195" 
d="M418 894h358l155 -144h-279l-68 76l-68 -76h-253zM270 349q0 -34 8.5 -65t31.5 -55t62 -38t101 -14h247q60 0 100 14t63 38t32.5 55t9.5 65t-9.5 65t-32.5 55t-63 38.5t-100 14.5h-247q-62 0 -101 -14t-62 -38t-31.5 -55.5t-8.5 -65.5zM30 348q0 72 20.5 137.5
t66.5 115.5t119.5 79.5t180.5 29.5h358q105 0 179 -30t121 -80t68.5 -115.5t21.5 -136.5t-21.5 -136t-68.5 -114.5t-121 -78.5t-179 -29h-358q-107 0 -180.5 29t-119.5 78t-66.5 114t-20.5 137z" />
    <glyph glyph-name="Otilde" unicode="&#xd5;" horiz-adv-x="1195" 
d="M859 923q-9 -49 -24 -82.5t-35 -53.5t-43.5 -29t-48.5 -9q-20 0 -54.5 7.5t-69.5 16.5t-64 16.5t-38 7.5q-17 0 -25.5 -10t-14.5 -37h-107q13 55 32 89t40.5 52.5t45 25t45.5 6.5q9 0 38 -7.5t63.5 -16.5t66 -16.5t44.5 -7.5q14 0 25 8t18 40h106zM270 349q0 -34 8.5 -65
t31.5 -55t62 -38t101 -14h247q60 0 100 14t63 38t32.5 55t9.5 65t-9.5 65t-32.5 55t-63 38.5t-100 14.5h-247q-62 0 -101 -14t-62 -38t-31.5 -55.5t-8.5 -65.5zM30 348q0 72 20.5 137.5t66.5 115.5t119.5 79.5t180.5 29.5h358q105 0 179 -30t121 -80t68.5 -115.5
t21.5 -136.5t-21.5 -136t-68.5 -114.5t-121 -78.5t-179 -29h-358q-107 0 -180.5 29t-119.5 78t-66.5 114t-20.5 137z" />
    <glyph glyph-name="Odieresis" unicode="&#xd6;" horiz-adv-x="1195" 
d="M636 882h242v-132h-242v132zM316 882h242v-132h-242v132zM270 349q0 -34 8.5 -65t31.5 -55t62 -38t101 -14h247q60 0 100 14t63 38t32.5 55t9.5 65t-9.5 65t-32.5 55t-63 38.5t-100 14.5h-247q-62 0 -101 -14t-62 -38t-31.5 -55.5t-8.5 -65.5zM30 348q0 72 20.5 137.5
t66.5 115.5t119.5 79.5t180.5 29.5h358q105 0 179 -30t121 -80t68.5 -115.5t21.5 -136.5t-21.5 -136t-68.5 -114.5t-121 -78.5t-179 -29h-358q-107 0 -180.5 29t-119.5 78t-66.5 114t-20.5 137z" />
    <glyph glyph-name="multiply" unicode="&#xd7;" horiz-adv-x="644" 
d="M584 484l-135 -135l136 -136l-127 -127l-136 136l-136 -136l-127 126l136 136l-135 136l127 127l135 -136l135 135z" />
    <glyph glyph-name="Oslash" unicode="&#xd8;" horiz-adv-x="1195" 
d="M355 -7q-89 8 -151 39.5t-100.5 79.5t-56 108.5t-17.5 127.5q0 72 20.5 137.5t66.5 115.5t119.5 79.5t180.5 29.5h276l43 90h150l-44 -94q86 -9 147.5 -42t100.5 -81.5t57 -109t18 -125.5q0 -71 -21.5 -136t-68.5 -114.5t-121 -78.5t-179 -29h-271l-42 -90h-150zM270 349
q0 -32 7.5 -61.5t27 -52.5t53 -38.5t85.5 -18.5l162 344h-132q-62 0 -101 -14t-62 -38t-31.5 -55.5t-8.5 -65.5zM925 349q0 31 -8 60t-27.5 52.5t-52.5 39t-83 19.5l-162 -343h128q60 0 100 14t63 38t32.5 55t9.5 65z" />
    <glyph glyph-name="Ugrave" unicode="&#xd9;" horiz-adv-x="1191" 
d="M378 894h303l91 -144h-241zM295 339q0 -34 8.5 -63.5t31.5 -51.5t62 -34.5t101 -12.5h193q60 0 100 12.5t63 34.5t32.5 51.5t9.5 63.5v361h240v-362q0 -71 -21.5 -134.5t-68.5 -111t-121 -75t-179 -27.5h-304q-107 0 -180.5 27.5t-119.5 74.5t-66.5 110.5t-20.5 135.5
v362h240v-361z" />
    <glyph glyph-name="Uacute" unicode="&#xda;" horiz-adv-x="1191" 
d="M549 894h303l-153 -144h-241zM295 339q0 -34 8.5 -63.5t31.5 -51.5t62 -34.5t101 -12.5h193q60 0 100 12.5t63 34.5t32.5 51.5t9.5 63.5v361h240v-362q0 -71 -21.5 -134.5t-68.5 -111t-121 -75t-179 -27.5h-304q-107 0 -180.5 27.5t-119.5 74.5t-66.5 110.5t-20.5 135.5
v362h240v-361z" />
    <glyph glyph-name="Ucircumflex" unicode="&#xdb;" horiz-adv-x="1191" 
d="M416 894h358l155 -144h-279l-68 76l-68 -76h-253zM295 339q0 -34 8.5 -63.5t31.5 -51.5t62 -34.5t101 -12.5h193q60 0 100 12.5t63 34.5t32.5 51.5t9.5 63.5v361h240v-362q0 -71 -21.5 -134.5t-68.5 -111t-121 -75t-179 -27.5h-304q-107 0 -180.5 27.5t-119.5 74.5
t-66.5 110.5t-20.5 135.5v362h240v-361z" />
    <glyph glyph-name="Udieresis" unicode="&#xdc;" horiz-adv-x="1191" 
d="M634 882h242v-132h-242v132zM314 882h242v-132h-242v132zM295 339q0 -34 8.5 -63.5t31.5 -51.5t62 -34.5t101 -12.5h193q60 0 100 12.5t63 34.5t32.5 51.5t9.5 63.5v361h240v-362q0 -71 -21.5 -134.5t-68.5 -111t-121 -75t-179 -27.5h-304q-107 0 -180.5 27.5
t-119.5 74.5t-66.5 110.5t-20.5 135.5v362h240v-361z" />
    <glyph glyph-name="Yacute" unicode="&#xdd;" horiz-adv-x="1059" 
d="M493 894h303l-153 -144h-241zM650 0h-240v230l-450 470h313l257 -270l257 270h312l-449 -468v-232z" />
    <glyph glyph-name="Thorn" unicode="&#xde;" horiz-adv-x="1082" 
d="M70 701h240v-87h428q86 0 147.5 -16.5t100.5 -49.5t57.5 -82.5t18.5 -114.5q0 -57 -18 -104.5t-57 -81.5t-100 -53t-147 -19h-430v-93h-240v701zM310 423v-140h414q54 0 76 15t22 54q0 41 -22 56t-76 15h-414z" />
    <glyph glyph-name="germandbls" unicode="&#xdf;" horiz-adv-x="2168" 
d="M1903 227q0 12 -8.5 19t-31.5 10t-62.5 3.5t-100.5 0.5h-243q-107 0 -171 21t-99 52.5t-46 68t-11 67.5q0 38 11 79t46 74.5t99 55.5t171 22h378q82 0 135 -16.5t85.5 -46.5t49 -73t24.5 -96h-239q-6 12 -12.5 20t-18 13.5t-30.5 8t-49 2.5h-207q-62 0 -101 -1t-62 -4.5
t-31.5 -11.5t-8.5 -22q0 -12 8.5 -19t31.5 -10t62 -3.5t101 -0.5h243q106 0 170.5 -21t99.5 -52.5t46 -68t11 -67.5q0 -38 -11 -79t-46 -75t-99.5 -55.5t-170.5 -21.5h-418q-82 0 -135 16.5t-85.5 46.5t-49 73t-24.5 96h239q6 -12 12.5 -20t18 -13.5t30.5 -8t49 -2.5h247
q61 0 100.5 0.5t62.5 4.5t31.5 12t8.5 22zM819 227q0 12 -8.5 19t-31.5 10t-62.5 3.5t-100.5 0.5h-243q-107 0 -171 21t-99 52.5t-46 68t-11 67.5q0 38 11 79t46 74.5t99 55.5t171 22h378q82 0 135 -16.5t85.5 -46.5t49 -73t24.5 -96h-239q-6 12 -12.5 20t-18 13.5t-30.5 8
t-49 2.5h-207q-62 0 -101 -1t-62 -4.5t-31.5 -11.5t-8.5 -22q0 -12 8.5 -19t31.5 -10t62 -3.5t101 -0.5h243q106 0 170.5 -21t99.5 -52.5t46 -68t11 -67.5q0 -38 -11 -79t-46 -75t-99.5 -55.5t-170.5 -21.5h-418q-82 0 -135 16.5t-85.5 46.5t-49 73t-24.5 96h239
q6 -12 12.5 -20t18 -13.5t30.5 -8t49 -2.5h247q61 0 100.5 0.5t62.5 4.5t31.5 12t8.5 22z" />
    <glyph glyph-name="agrave" unicode="&#xe0;" horiz-adv-x="1147" 
d="M1177 0h-273l-68 105h-526l-67 -105h-273l451 700h305zM300 894h303l91 -144h-241zM425 285h296l-148 230z" />
    <glyph glyph-name="aacute" unicode="&#xe1;" horiz-adv-x="1147" 
d="M1177 0h-273l-68 105h-526l-67 -105h-273l451 700h305zM552 894h303l-153 -144h-241zM425 285h296l-148 230z" />
    <glyph glyph-name="acircumflex" unicode="&#xe2;" horiz-adv-x="1147" 
d="M1177 0h-273l-68 105h-526l-67 -105h-273l451 700h305zM394 894h358l155 -144h-279l-68 76l-68 -76h-253zM425 285h296l-148 230z" />
    <glyph glyph-name="atilde" unicode="&#xe3;" horiz-adv-x="1147" 
d="M1177 0h-273l-68 105h-526l-67 -105h-273l451 700h305zM835 923q-9 -49 -24 -82.5t-35 -53.5t-43.5 -29t-48.5 -9q-20 0 -54.5 7.5t-69.5 16.5t-64 16.5t-38 7.5q-17 0 -25.5 -10t-14.5 -37h-107q13 55 32 89t40.5 52.5t45 25t45.5 6.5q9 0 38 -7.5t63.5 -16.5t66 -16.5
t44.5 -7.5q14 0 25 8t18 40h106zM425 285h296l-148 230z" />
    <glyph glyph-name="adieresis" unicode="&#xe4;" horiz-adv-x="1147" 
d="M612 882h242v-132h-242v132zM292 882h242v-132h-242v132zM425 285h296l-148 230zM1177 0h-273l-68 105h-526l-67 -105h-273l451 700h305z" />
    <glyph glyph-name="aring" unicode="&#xe5;" horiz-adv-x="1147" 
d="M1177 0h-273l-68 105h-526l-67 -105h-273l451 700h305zM435 868q0 28 11 53.5t29.5 44t43.5 29.5t54 11q28 0 53.5 -11t44 -29.5t29.5 -44t11 -53.5q0 -29 -11 -54t-29.5 -43.5t-44 -29.5t-53.5 -11q-29 0 -54 11t-43.5 29.5t-29.5 43.5t-11 54zM425 285h296l-148 230z
M530 868q0 -18 12.5 -30.5t30.5 -12.5t30.5 12.5t12.5 30.5t-12.5 30.5t-30.5 12.5t-30.5 -12.5t-12.5 -30.5z" />
    <glyph glyph-name="ae" unicode="&#xe6;" horiz-adv-x="1623" 
d="M863 510v-70h673v-180h-673v-70h735v-190h-975v105h-313l-67 -105h-273l451 700h1177v-190h-735zM425 285h198v225h-50z" />
    <glyph glyph-name="ccedilla" unicode="&#xe7;" horiz-adv-x="1148" 
d="M447 -133q19 -5 39 -8t44 -3q27 0 39.5 8.5t12.5 17.5q0 8 -9.5 14.5t-26.5 6.5q-12 0 -24 -2.5t-17 -4.5l-27 21l51 73h-112q-107 0 -180.5 29t-119.5 77.5t-66.5 113.5t-20.5 137t20.5 137.5t66.5 116t119.5 80t180.5 29.5h318q88 0 154.5 -22t113 -59.5t74.5 -87
t39 -105.5h-251q-20 42 -63.5 64t-121.5 22h-207q-62 0 -101 -14.5t-62 -38.5t-31.5 -55.5t-8.5 -65.5t8.5 -65t31.5 -54.5t62 -37.5t101 -14h207q84 0 128.5 24.5t61.5 70.5h248q-10 -58 -37 -109.5t-73.5 -89.5t-114 -60.5t-158.5 -22.5h-130l-19 -28q8 1 16 1.5t19 0.5
q57 0 86.5 -20t29.5 -59q0 -26 -12.5 -43t-33.5 -27t-49.5 -14.5t-60.5 -4.5q-42 0 -78.5 5.5t-71.5 14.5z" />
    <glyph glyph-name="egrave" unicode="&#xe8;" horiz-adv-x="1070" 
d="M352 894h303l91 -144h-241zM310 510v-70h673v-180h-673v-70h735v-190h-975v700h975v-190h-735z" />
    <glyph glyph-name="eacute" unicode="&#xe9;" horiz-adv-x="1070" 
d="M541 894h303l-153 -144h-241zM310 510v-70h673v-180h-673v-70h735v-190h-975v700h975v-190h-735z" />
    <glyph glyph-name="ecircumflex" unicode="&#xea;" horiz-adv-x="1070" 
d="M406 894h358l155 -144h-279l-68 76l-68 -76h-253zM310 510v-70h673v-180h-673v-70h735v-190h-975v700h975v-190h-735z" />
    <glyph glyph-name="edieresis" unicode="&#xeb;" horiz-adv-x="1070" 
d="M634 882h242v-132h-242v132zM314 882h242v-132h-242v132zM310 510v-70h673v-180h-673v-70h735v-190h-975v700h975v-190h-735z" />
    <glyph glyph-name="igrave" unicode="&#xec;" 
d="M-71 894h303l91 -144h-241zM70 700h240v-700h-240v700z" />
    <glyph glyph-name="iacute" unicode="&#xed;" 
d="M147 894h303l-153 -144h-241zM70 700h240v-700h-240v700z" />
    <glyph glyph-name="icircumflex" unicode="&#xee;" 
d="M21 894h358l155 -144h-279l-68 76l-68 -76h-253zM70 700h240v-700h-240v700z" />
    <glyph glyph-name="idieresis" unicode="&#xef;" 
d="M229 882h242v-132h-242v132zM-91 882h242v-132h-242v132zM70 700h240v-700h-240v700z" />
    <glyph glyph-name="eth" unicode="&#xf0;" horiz-adv-x="1181" 
d="M0 419h70v281h691q105 0 179 -28.5t121 -76.5t68.5 -112t21.5 -135t-21.5 -134.5t-68.5 -111t-121 -75t-179 -27.5h-691v280h-70v139zM310 512v-93h297v-139h-297v-93h396q60 0 100 12.5t63 34.5t32.5 51.5t9.5 63.5t-9.5 63.5t-32.5 51.5t-63 35t-100 13h-396z" />
    <glyph glyph-name="ntilde" unicode="&#xf1;" horiz-adv-x="1230" 
d="M929 923q-9 -49 -24 -82.5t-35 -53.5t-43.5 -29t-48.5 -9q-20 0 -54.5 7.5t-69.5 16.5t-64 16.5t-38 7.5q-17 0 -25.5 -10t-14.5 -37h-107q13 55 32 89t40.5 52.5t45 25t45.5 6.5q9 0 38 -7.5t63.5 -16.5t66 -16.5t44.5 -7.5q14 0 25 8t18 40h106zM1160 0h-260l-590 449
v-449h-240v701h287l563 -429v428h240v-700z" />
    <glyph glyph-name="ograve" unicode="&#xf2;" horiz-adv-x="1195" 
d="M367 894h303l91 -144h-241zM270 349q0 -34 8.5 -65t31.5 -55t62 -38t101 -14h247q60 0 100 14t63 38t32.5 55t9.5 65t-9.5 65t-32.5 55t-63 38.5t-100 14.5h-247q-62 0 -101 -14t-62 -38t-31.5 -55.5t-8.5 -65.5zM30 348q0 72 20.5 137.5t66.5 115.5t119.5 79.5
t180.5 29.5h358q105 0 179 -30t121 -80t68.5 -115.5t21.5 -136.5t-21.5 -136t-68.5 -114.5t-121 -78.5t-179 -29h-358q-107 0 -180.5 29t-119.5 78t-66.5 114t-20.5 137z" />
    <glyph glyph-name="oacute" unicode="&#xf3;" horiz-adv-x="1195" 
d="M578 894h303l-153 -144h-241zM270 349q0 -34 8.5 -65t31.5 -55t62 -38t101 -14h247q60 0 100 14t63 38t32.5 55t9.5 65t-9.5 65t-32.5 55t-63 38.5t-100 14.5h-247q-62 0 -101 -14t-62 -38t-31.5 -55.5t-8.5 -65.5zM30 348q0 72 20.5 137.5t66.5 115.5t119.5 79.5
t180.5 29.5h358q105 0 179 -30t121 -80t68.5 -115.5t21.5 -136.5t-21.5 -136t-68.5 -114.5t-121 -78.5t-179 -29h-358q-107 0 -180.5 29t-119.5 78t-66.5 114t-20.5 137z" />
    <glyph glyph-name="ocircumflex" unicode="&#xf4;" horiz-adv-x="1195" 
d="M418 894h358l155 -144h-279l-68 76l-68 -76h-253zM270 349q0 -34 8.5 -65t31.5 -55t62 -38t101 -14h247q60 0 100 14t63 38t32.5 55t9.5 65t-9.5 65t-32.5 55t-63 38.5t-100 14.5h-247q-62 0 -101 -14t-62 -38t-31.5 -55.5t-8.5 -65.5zM30 348q0 72 20.5 137.5
t66.5 115.5t119.5 79.5t180.5 29.5h358q105 0 179 -30t121 -80t68.5 -115.5t21.5 -136.5t-21.5 -136t-68.5 -114.5t-121 -78.5t-179 -29h-358q-107 0 -180.5 29t-119.5 78t-66.5 114t-20.5 137z" />
    <glyph glyph-name="otilde" unicode="&#xf5;" horiz-adv-x="1195" 
d="M859 923q-9 -49 -24 -82.5t-35 -53.5t-43.5 -29t-48.5 -9q-20 0 -54.5 7.5t-69.5 16.5t-64 16.5t-38 7.5q-17 0 -25.5 -10t-14.5 -37h-107q13 55 32 89t40.5 52.5t45 25t45.5 6.5q9 0 38 -7.5t63.5 -16.5t66 -16.5t44.5 -7.5q14 0 25 8t18 40h106zM270 349q0 -34 8.5 -65
t31.5 -55t62 -38t101 -14h247q60 0 100 14t63 38t32.5 55t9.5 65t-9.5 65t-32.5 55t-63 38.5t-100 14.5h-247q-62 0 -101 -14t-62 -38t-31.5 -55.5t-8.5 -65.5zM30 348q0 72 20.5 137.5t66.5 115.5t119.5 79.5t180.5 29.5h358q105 0 179 -30t121 -80t68.5 -115.5
t21.5 -136.5t-21.5 -136t-68.5 -114.5t-121 -78.5t-179 -29h-358q-107 0 -180.5 29t-119.5 78t-66.5 114t-20.5 137z" />
    <glyph glyph-name="odieresis" unicode="&#xf6;" horiz-adv-x="1195" 
d="M636 882h242v-132h-242v132zM316 882h242v-132h-242v132zM270 349q0 -34 8.5 -65t31.5 -55t62 -38t101 -14h247q60 0 100 14t63 38t32.5 55t9.5 65t-9.5 65t-32.5 55t-63 38.5t-100 14.5h-247q-62 0 -101 -14t-62 -38t-31.5 -55.5t-8.5 -65.5zM30 348q0 72 20.5 137.5
t66.5 115.5t119.5 79.5t180.5 29.5h358q105 0 179 -30t121 -80t68.5 -115.5t21.5 -136.5t-21.5 -136t-68.5 -114.5t-121 -78.5t-179 -29h-358q-107 0 -180.5 29t-119.5 78t-66.5 114t-20.5 137z" />
    <glyph glyph-name="divide" unicode="&#xf7;" horiz-adv-x="681" 
d="M59 439h563v-179h-563v179zM220 695h240v-190h-240v190zM220 195h240v-190h-240v190z" />
    <glyph glyph-name="oslash" unicode="&#xf8;" horiz-adv-x="1195" 
d="M355 -7q-89 8 -151 39.5t-100.5 79.5t-56 108.5t-17.5 127.5q0 72 20.5 137.5t66.5 115.5t119.5 79.5t180.5 29.5h276l43 90h150l-44 -94q86 -9 147.5 -42t100.5 -81.5t57 -109t18 -125.5q0 -71 -21.5 -136t-68.5 -114.5t-121 -78.5t-179 -29h-271l-42 -90h-150zM270 349
q0 -32 7.5 -61.5t27 -52.5t53 -38.5t85.5 -18.5l162 344h-132q-62 0 -101 -14t-62 -38t-31.5 -55.5t-8.5 -65.5zM925 349q0 31 -8 60t-27.5 52.5t-52.5 39t-83 19.5l-162 -343h128q60 0 100 14t63 38t32.5 55t9.5 65z" />
    <glyph glyph-name="ugrave" unicode="&#xf9;" horiz-adv-x="1191" 
d="M378 894h303l91 -144h-241zM295 339q0 -34 8.5 -63.5t31.5 -51.5t62 -34.5t101 -12.5h193q60 0 100 12.5t63 34.5t32.5 51.5t9.5 63.5v361h240v-362q0 -71 -21.5 -134.5t-68.5 -111t-121 -75t-179 -27.5h-304q-107 0 -180.5 27.5t-119.5 74.5t-66.5 110.5t-20.5 135.5
v362h240v-361z" />
    <glyph glyph-name="uacute" unicode="&#xfa;" horiz-adv-x="1191" 
d="M549 894h303l-153 -144h-241zM295 339q0 -34 8.5 -63.5t31.5 -51.5t62 -34.5t101 -12.5h193q60 0 100 12.5t63 34.5t32.5 51.5t9.5 63.5v361h240v-362q0 -71 -21.5 -134.5t-68.5 -111t-121 -75t-179 -27.5h-304q-107 0 -180.5 27.5t-119.5 74.5t-66.5 110.5t-20.5 135.5
v362h240v-361z" />
    <glyph glyph-name="ucircumflex" unicode="&#xfb;" horiz-adv-x="1191" 
d="M416 894h358l155 -144h-279l-68 76l-68 -76h-253zM295 339q0 -34 8.5 -63.5t31.5 -51.5t62 -34.5t101 -12.5h193q60 0 100 12.5t63 34.5t32.5 51.5t9.5 63.5v361h240v-362q0 -71 -21.5 -134.5t-68.5 -111t-121 -75t-179 -27.5h-304q-107 0 -180.5 27.5t-119.5 74.5
t-66.5 110.5t-20.5 135.5v362h240v-361z" />
    <glyph glyph-name="udieresis" unicode="&#xfc;" horiz-adv-x="1191" 
d="M634 882h242v-132h-242v132zM314 882h242v-132h-242v132zM295 339q0 -34 8.5 -63.5t31.5 -51.5t62 -34.5t101 -12.5h193q60 0 100 12.5t63 34.5t32.5 51.5t9.5 63.5v361h240v-362q0 -71 -21.5 -134.5t-68.5 -111t-121 -75t-179 -27.5h-304q-107 0 -180.5 27.5
t-119.5 74.5t-66.5 110.5t-20.5 135.5v362h240v-361z" />
    <glyph glyph-name="yacute" unicode="&#xfd;" horiz-adv-x="1059" 
d="M493 894h303l-153 -144h-241zM650 0h-240v230l-450 470h313l257 -270l257 270h312l-449 -468v-232z" />
    <glyph glyph-name="thorn" unicode="&#xfe;" horiz-adv-x="1082" 
d="M70 701h240v-87h428q86 0 147.5 -16.5t100.5 -49.5t57.5 -82.5t18.5 -114.5q0 -57 -18 -104.5t-57 -81.5t-100 -53t-147 -19h-430v-93h-240v701zM310 423v-140h414q54 0 76 15t22 54q0 41 -22 56t-76 15h-414z" />
    <glyph glyph-name="ydieresis" unicode="&#xff;" horiz-adv-x="1059" 
d="M568 882h242v-132h-242v132zM248 882h242v-132h-242v132zM650 0h-240v230l-450 470h313l257 -270l257 270h312l-449 -468v-232z" />
    <glyph glyph-name="OE" unicode="&#x152;" horiz-adv-x="1926" 
d="M1166 510v-70h673v-180h-673v-70h735v-190h-975v10q-68 -20 -151 -20h-358q-107 0 -180.5 29t-119.5 78t-66.5 114t-20.5 137t20.5 137.5t66.5 115.5t119.5 79.5t180.5 29.5h358q43 0 80.5 -5.5t70.5 -15.5v11h975v-190h-735zM270 349q0 -34 8.5 -65t31.5 -55t62 -38
t101 -14h247q60 0 100 14t63 38t32.5 55t9.5 65t-9.5 65t-32.5 55t-63 38.5t-100 14.5h-247q-62 0 -101 -14t-62 -38t-31.5 -55.5t-8.5 -65.5z" />
    <glyph glyph-name="oe" unicode="&#x153;" horiz-adv-x="1926" 
d="M1166 510v-70h673v-180h-673v-70h735v-190h-975v10q-68 -20 -151 -20h-358q-107 0 -180.5 29t-119.5 78t-66.5 114t-20.5 137t20.5 137.5t66.5 115.5t119.5 79.5t180.5 29.5h358q43 0 80.5 -5.5t70.5 -15.5v11h975v-190h-735zM270 349q0 -34 8.5 -65t31.5 -55t62 -38
t101 -14h247q60 0 100 14t63 38t32.5 55t9.5 65t-9.5 65t-32.5 55t-63 38.5t-100 14.5h-247q-62 0 -101 -14t-62 -38t-31.5 -55.5t-8.5 -65.5z" />
    <glyph glyph-name="Scaron" unicode="&#x160;" horiz-adv-x="1084" 
d="M228 894h279l68 -76l68 76h253l-155 -144h-358zM819 227q0 12 -8.5 19t-31.5 10t-62.5 3.5t-100.5 0.5h-243q-107 0 -171 21t-99 52.5t-46 68t-11 67.5q0 38 11 79t46 74.5t99 55.5t171 22h378q82 0 135 -16.5t85.5 -46.5t49 -73t24.5 -96h-239q-6 12 -12.5 20t-18 13.5
t-30.5 8t-49 2.5h-207q-62 0 -101 -1t-62 -4.5t-31.5 -11.5t-8.5 -22q0 -12 8.5 -19t31.5 -10t62 -3.5t101 -0.5h243q106 0 170.5 -21t99.5 -52.5t46 -68t11 -67.5q0 -38 -11 -79t-46 -75t-99.5 -55.5t-170.5 -21.5h-418q-82 0 -135 16.5t-85.5 46.5t-49 73t-24.5 96h239
q6 -12 12.5 -20t18 -13.5t30.5 -8t49 -2.5h247q61 0 100.5 0.5t62.5 4.5t31.5 12t8.5 22z" />
    <glyph glyph-name="scaron" unicode="&#x161;" horiz-adv-x="1084" 
d="M228 894h279l68 -76l68 76h253l-155 -144h-358zM819 227q0 12 -8.5 19t-31.5 10t-62.5 3.5t-100.5 0.5h-243q-107 0 -171 21t-99 52.5t-46 68t-11 67.5q0 38 11 79t46 74.5t99 55.5t171 22h378q82 0 135 -16.5t85.5 -46.5t49 -73t24.5 -96h-239q-6 12 -12.5 20t-18 13.5
t-30.5 8t-49 2.5h-207q-62 0 -101 -1t-62 -4.5t-31.5 -11.5t-8.5 -22q0 -12 8.5 -19t31.5 -10t62 -3.5t101 -0.5h243q106 0 170.5 -21t99.5 -52.5t46 -68t11 -67.5q0 -38 -11 -79t-46 -75t-99.5 -55.5t-170.5 -21.5h-418q-82 0 -135 16.5t-85.5 46.5t-49 73t-24.5 96h239
q6 -12 12.5 -20t18 -13.5t30.5 -8t49 -2.5h247q61 0 100.5 0.5t62.5 4.5t31.5 12t8.5 22z" />
    <glyph glyph-name="Ydieresis" unicode="&#x178;" horiz-adv-x="1059" 
d="M568 882h242v-132h-242v132zM248 882h242v-132h-242v132zM650 0h-240v230l-450 470h313l257 -270l257 270h312l-449 -468v-232z" />
    <glyph glyph-name="Zcaron" unicode="&#x17d;" horiz-adv-x="1043" 
d="M217 894h279l68 -76l68 76h253l-155 -144h-358zM449 190h574v-190h-1003v164l542 346h-519v190h958v-158z" />
    <glyph glyph-name="zcaron" unicode="&#x17e;" horiz-adv-x="1043" 
d="M213 894h279l68 -76l68 76h253l-155 -144h-358zM449 190h574v-190h-1003v164l542 346h-519v190h958v-158z" />
    <glyph glyph-name="florin" unicode="&#x192;" horiz-adv-x="1135" 
d="M70 700h777q110 0 166.5 -50t56.5 -135q0 -23 -7.5 -47t-20.5 -45.5t-31 -38t-38 -25.5q34 -9 57.5 -26.5t38 -39t20.5 -44.5t6 -42q0 -51 -14 -90t-47 -65t-86.5 -39t-131.5 -13h-746v700z" />
    <glyph glyph-name="circumflex" unicode="&#x2c6;" horiz-adv-x="768" 
d="M205 894h358l155 -144h-279l-68 76l-68 -76h-253z" />
    <glyph glyph-name="tilde" unicode="&#x2dc;" horiz-adv-x="624" 
d="M574 923q-9 -49 -24 -82.5t-35 -53.5t-43.5 -29t-48.5 -9q-20 0 -54.5 7.5t-69.5 16.5t-64 16.5t-38 7.5q-17 0 -25.5 -10t-14.5 -37h-107q13 55 32 89t40.5 52.5t45 25t45.5 6.5q9 0 38 -7.5t63.5 -16.5t66 -16.5t44.5 -7.5q14 0 25 8t18 40h106z" />
    <glyph glyph-name="endash" unicode="&#x2013;" horiz-adv-x="681" 
d="M59 439h563v-179h-563v179z" />
    <glyph glyph-name="emdash" unicode="&#x2014;" horiz-adv-x="1061" 
d="M59 439h943v-179h-943v179z" />
    <glyph glyph-name="quoteleft" unicode="&#x2018;" 
d="M310 306h-240v176q0 75 25.5 118.5t62.5 65.5t78.5 28t73.5 6v-90q-26 0 -48 -5.5t-37.5 -18t-24 -34.5t-8.5 -56h118v-190z" />
    <glyph glyph-name="quoteright" unicode="&#x2019;" 
d="M70 700h240v-176q0 -75 -25.5 -118.5t-62.5 -65.5t-78.5 -28t-73.5 -6v90q26 0 48 5t37.5 18t24 35t8.5 56h-118v190z" />
    <glyph glyph-name="quotesinglbase" unicode="&#x201a;" 
d="M70 190h240v-176q0 -75 -25.5 -118.5t-62.5 -65.5t-78.5 -28t-73.5 -6v90q26 0 48 5t37.5 18t24 35t8.5 56h-118v190z" />
    <glyph glyph-name="quotedblleft" unicode="&#x201c;" horiz-adv-x="690" 
d="M310 306h-240v176q0 75 25.5 118.5t62.5 65.5t78.5 28t73.5 6v-90q-26 0 -48 -5.5t-37.5 -18t-24 -34.5t-8.5 -56h118v-190zM620 306h-240v176q0 75 25.5 118.5t62.5 65.5t78.5 28t73.5 6v-90q-26 0 -48 -5.5t-37.5 -18t-24 -34.5t-8.5 -56h118v-190z" />
    <glyph glyph-name="quotedblright" unicode="&#x201d;" horiz-adv-x="690" 
d="M380 700h240v-176q0 -75 -25.5 -118.5t-62.5 -65.5t-78.5 -28t-73.5 -6v90q26 0 48 5t37.5 18t24 35t8.5 56h-118v190zM70 700h240v-176q0 -75 -25.5 -118.5t-62.5 -65.5t-78.5 -28t-73.5 -6v90q26 0 48 5t37.5 18t24 35t8.5 56h-118v190z" />
    <glyph glyph-name="quotedblbase" unicode="&#x201e;" horiz-adv-x="690" 
d="M380 190h240v-176q0 -75 -25.5 -118.5t-62.5 -65.5t-78.5 -28t-73.5 -6v90q26 0 48 5t37.5 18t24 35t8.5 56h-118v190zM70 190h240v-176q0 -75 -25.5 -118.5t-62.5 -65.5t-78.5 -28t-73.5 -6v90q26 0 48 5t37.5 18t24 35t8.5 56h-118v190z" />
    <glyph glyph-name="dagger" unicode="&#x2020;" horiz-adv-x="836" 
d="M50 514h248v186h240v-186h248v-199h-248v-515h-240v515h-248v199z" />
    <glyph glyph-name="daggerdbl" unicode="&#x2021;" horiz-adv-x="836" 
d="M50 164h254v185h-254v181h254v171h228v-171h254v-181h-254v-185h254v-181h-254v-184h-228v184h-254v181z" />
    <glyph glyph-name="bullet" unicode="&#x2022;" horiz-adv-x="456" 
d="M50 350q0 37 14 69.5t38 56.5t56.5 38t69.5 14t69.5 -14t56.5 -38t38 -56.5t14 -69.5t-14 -69.5t-38 -56.5t-56.5 -38t-69.5 -14t-69.5 14t-56.5 38t-38 56.5t-14 69.5z" />
    <glyph glyph-name="ellipsis" unicode="&#x2026;" horiz-adv-x="1140" 
d="M830 190h240v-190h-240v190zM450 190h240v-190h-240v190zM70 190h240v-190h-240v190z" />
    <glyph glyph-name="perthousand" unicode="&#x2030;" horiz-adv-x="1667" 
d="M50 521q0 99 61.5 146t170.5 47q110 0 171 -47t61 -146t-61 -146t-171 -47q-109 0 -170.5 47t-61.5 146zM441 0h-150l423 700h150zM216 521q0 -17 2 -31t9 -24t20 -15t35 -5t35 5t20 15t9 24t2 31t-2 31t-9 23.5t-20 15t-35 5.5t-35 -5.5t-20 -15t-9 -23.5t-2 -31z
M633 173q0 99 61.5 146t170.5 47q110 0 171 -47t61 -146t-61 -146t-171 -47q-109 0 -170.5 47t-61.5 146zM799 173q0 -17 2 -31t9 -24t20 -15t35 -5t35 5t20 15t9 24t2 31t-2 31t-9 23.5t-20 15t-35 5.5t-35 -5.5t-20 -15t-9 -23.5t-2 -31zM1153 173q0 99 61.5 146t170.5 47
q110 0 171 -47t61 -146t-61 -146t-171 -47q-109 0 -170.5 47t-61.5 146zM1319 173q0 -17 2 -31t9 -24t20 -15t35 -5t35 5t20 15t9 24t2 31t-2 31t-9 23.5t-20 15t-35 5.5t-35 -5.5t-20 -15t-9 -23.5t-2 -31z" />
    <glyph glyph-name="guilsinglleft" unicode="&#x2039;" horiz-adv-x="336" 
d="M50 449l236 161v-168l-125 -92l125 -92v-168l-236 161v198z" />
    <glyph glyph-name="guilsinglright" unicode="&#x203a;" horiz-adv-x="336" 
d="M286 251l-236 -161v168l125 92l-125 92v168l236 -161v-198z" />
    <glyph glyph-name="Euro" unicode="&#x20ac;" horiz-adv-x="1210" 
d="M30 437h70q11 57 38 107t73 86.5t112 58t156 21.5h318q88 0 154.5 -22t113 -59.5t74.5 -87t39 -105.5h-251q-20 42 -63.5 64t-121.5 22h-207q-80 0 -123.5 -24t-61.5 -61h445l-20 -68h-443v-38h453l-20 -67h-417q17 -38 60.5 -62.5t126.5 -24.5h207q84 0 128.5 24.5
t61.5 70.5h248q-10 -58 -37 -109.5t-73.5 -89.5t-114 -60.5t-158.5 -22.5h-318q-91 0 -158 21t-113 58t-72.5 87t-36.5 108h-99l20 67h70v38h-80z" />
    <glyph glyph-name="trademark" unicode="&#x2122;" horiz-adv-x="1558" 
d="M693 350v449h251l162 -275l157 275h255v-449h-174v283l-162 -283h-149l-166 281v-281h-174zM429 657v-307h-194v307h-225v142h644v-142h-225z" />
    </font>
</defs>
</svg>
