<?xml version="1.0" standalone="no"?>
<!DOCTYPE svg PUBLIC "-//W3C//DTD SVG 1.1//EN" "http://www.w3.org/Graphics/SVG/1.1/DTD/svg11.dtd" >
<svg xmlns="http://www.w3.org/2000/svg" xmlns:xlink="http://www.w3.org/1999/xlink" version="1.1">
<metadata>
Created by FontForge 20200427 at Mon Jun 22 11:32:44 2020
 By www
</metadata>
<defs>
<font id="MonoLisa-Regular" horiz-adv-x="640" >
  <font-face 
    font-family="."
    font-weight="400"
    font-stretch="normal"
    units-per-em="1000"
    panose-1="0 0 5 0 0 0 0 0 0 0"
    ascent="800"
    descent="-200"
    x-height="550"
    cap-height="700"
    bbox="-661 -270 2480 982"
    underline-thickness="50"
    underline-position="-100"
    unicode-range="U+0021-E0B3"
  />
<missing-glyph 
d="M83 633v67h474v-68l-236 -237zM83 156v380l190 -190zM369 347l188 188v-376zM83 0v63l237 236l237 -237v-62h-474z" />
    <glyph glyph-name=".notdef" 
d="M83 633v67h474v-68l-236 -237zM83 156v380l190 -190zM369 347l188 188v-376zM83 0v63l237 236l237 -237v-62h-474z" />
    <glyph glyph-name=".notdef" 
d="M83 633v67h474v-68l-236 -237zM83 156v380l190 -190zM369 347l188 188v-376zM83 0v63l237 236l237 -237v-62h-474z" />
    <glyph glyph-name=".null" horiz-adv-x="0" 
 />
    <glyph glyph-name="nonmarkingreturn" horiz-adv-x="333" 
 />
    <glyph glyph-name="glyph3" 
d="M83 633v67h474v-68l-236 -237zM83 156v380l190 -190zM369 347l188 188v-376zM83 0v63l237 236l237 -237v-62h-474z" />
    <glyph glyph-name="exclam" unicode="!" 
d="M288 233l-37 467h138l-37 -467h-64zM251 148h138v-148h-138v148z" />
    <glyph glyph-name="quotedbl" unicode="&#x22;" 
d="M245 462h-83l-22 338h127zM478 462h-83l-22 338h127z" />
    <glyph glyph-name="numbersign" unicode="#" 
d="M600 458h-106l-34 -216h140v-76h-152l-27 -166h-80l27 166h-154l-27 -166h-80l27 166h-94v76h106l34 216h-140v76h152l27 166h80l-27 -166h154l27 166h80l-27 -166h94v-76zM380 242l34 216h-154l-34 -216h154z" />
    <glyph glyph-name="dollar" unicode="$" 
d="M547 191q0 -84 -50.5 -134.5t-142.5 -62.5v-94h-90v91q-73 4 -157 30v94q103 -40 184 -40q159 0 159 103q0 36 -19.5 61.5t-51 39.5t-69.5 25.5t-76 25.5t-69.5 33.5t-51 56t-19.5 86.5q0 86 50.5 138t141.5 63v93h90v-92q68 -6 140 -36v-95q-105 47 -185 47
q-140 0 -140 -106q0 -39 19.5 -65.5t51 -40.5t69.5 -25t76 -24t69.5 -32t51 -54.5t19.5 -85.5z" />
    <glyph glyph-name="percent" unicode="%" 
d="M170 396q-61 0 -95.5 39.5t-34.5 110.5q0 77 37 120.5t103 43.5q62 0 97 -40t35 -112q0 -76 -37.5 -119t-104.5 -43zM91 0l377 700h81l-376 -700h-82zM177 465q32 0 46.5 20.5t14.5 67.5t-14.5 67.5t-46.5 20.5q-33 0 -48 -21t-15 -67t15 -67t48 -21zM458 -10
q-61 0 -95.5 39.5t-34.5 110.5q0 77 37 120.5t103 43.5q62 0 97 -40t35 -112q0 -76 -37.5 -119t-104.5 -43zM465 59q32 0 46.5 20.5t14.5 67.5t-14.5 67.5t-46.5 20.5q-33 0 -48 -21t-15 -67t15 -67t48 -21z" />
    <glyph glyph-name="ampersand" unicode="&#x26;" 
d="M585 334q-23 -103 -67 -178l61 -54v-112l-111 96q-87 -96 -207 -96q-93 0 -145.5 51t-52.5 135q0 107 98 195q-46 64 -46 139q0 92 56.5 146t142.5 54q73 0 145 -36v-87q-77 40 -141 40q-56 0 -85 -30t-29 -85q0 -43 21 -77.5t69 -78.5l160 -142q25 51 38 120h93zM271 73
q78 0 136 67l-156 136q-18 15 -33 30q-62 -54 -62 -121q0 -50 30.5 -81t84.5 -31z" />
    <glyph glyph-name="quotesingle" unicode="'" 
d="M362 462h-83l-23 338h128z" />
    <glyph glyph-name="parenleft" unicode="(" 
d="M318 308q0 -264 158 -448h-95q-84 108 -122.5 211t-38.5 221q0 126 38.5 233t122.5 215h95q-158 -184 -158 -432z" />
    <glyph glyph-name="parenright" unicode=")" 
d="M322 292q0 264 -158 448h95q84 -108 122.5 -211t38.5 -221q0 -126 -38.5 -233t-122.5 -215h-95q158 184 158 432z" />
    <glyph glyph-name="asterisk" unicode="*" 
d="M539 515l-57 -19l-138 -21l99 -98l35 -48l-60 -44l-35 48l-63 124l-63 -124l-35 -48l-60 44l35 48l99 98l-138 21l-57 19l24 70l56 -18l124 -63l-22 137v59h74v-59l-22 -137l124 63l56 18z" />
    <glyph glyph-name="plus" unicode="+" 
d="M575 351v-80h-215v-214h-80v214h-215v80h215v214h80v-214h215z" />
    <glyph glyph-name="comma" unicode="," 
d="M251 148h138v-148l-75 -190h-107l121 190h-77v148z" />
    <glyph glyph-name="hyphen" unicode="-" 
d="M80 351h480v-80h-480v80z" />
    <glyph glyph-name="period" unicode="." 
d="M251 148h138v-148h-138v148z" />
    <glyph glyph-name="slash" unicode="/" 
d="M144 -40l274 780h79l-274 -780h-79z" />
    <glyph glyph-name="zero" unicode="0" 
d="M310 -10q-118 0 -182.5 89t-64.5 251q0 182 70 281t199 99q117 0 181 -88.5t64 -250.5q0 -182 -69.5 -281.5t-197.5 -99.5zM320 77q91 0 127 60.5t36 214.5q0 152 -35.5 212t-126.5 60t-127 -60.5t-36 -214.5q0 -153 35.5 -212.5t126.5 -59.5zM251 423h138v-145h-138v145
z" />
    <glyph glyph-name="one" unicode="1" 
d="M390 84h176v-84h-465v84h195v526l-195 -140v118l181 112h108v-616z" />
    <glyph glyph-name="two" unicode="2" 
d="M184 84h382v-84h-489v97l272 231q61 52 85 91t24 83q0 123 -156 123q-95 0 -188 -55v94q98 46 202 46q113 0 176 -52t63 -144q0 -68 -38 -130.5t-125 -132.5z" />
    <glyph glyph-name="three" unicode="3" 
d="M341 439q108 -11 165.5 -59.5t57.5 -129.5q0 -124 -122 -192.5t-344 -68.5v89q182 0 276 42.5t94 122.5q0 64 -56 93.5t-177 29.5l-23 62l208 189h-322v83h415v-97z" />
    <glyph glyph-name="four" unicode="4" 
d="M593 241v-84h-116v-157h-95v157h-333v97l316 446h112v-459h116zM141 241h241v339z" />
    <glyph glyph-name="five" unicode="5" 
d="M336 446q64 0 114 -17.5t83.5 -61t33.5 -109.5q0 -127 -116 -198t-338 -71v89q357 0 357 163q0 63 -47.5 92.5t-120.5 29.5q-59 0 -120 -21l-84 57l51 301h389v-83h-315l-30 -191q71 20 143 20z" />
    <glyph glyph-name="six" unicode="6" 
d="M359 465q101 0 157 -59t56 -170q0 -116 -64 -181t-179 -65q-126 0 -192.5 78.5t-66.5 228.5q0 204 102 308.5t302 104.5v-88q-149 0 -224 -60.5t-84 -186.5q25 43 76.5 66.5t116.5 23.5zM325 76q80 0 115.5 36t35.5 116t-35.5 116t-115.5 36t-116 -35.5t-36 -115.5
q0 -81 35.5 -117t116.5 -36z" />
    <glyph glyph-name="seven" unicode="7" 
d="M80 700h490v-96q-124 -149 -176.5 -287t-52.5 -317h-99q0 155 64 315.5t182 301.5h-408v83z" />
    <glyph glyph-name="eight" unicode="8" 
d="M426 370q74 -26 115 -65t41 -112q0 -95 -71 -149t-199 -54q-121 0 -187.5 50t-66.5 139q0 73 41.5 120.5t104.5 70.5q-110 50 -110 157q0 87 61.5 135t172.5 48q104 0 161.5 -45t57.5 -126q0 -64 -34 -106.5t-87 -62.5zM320 624q-129 0 -129 -93q0 -56 39.5 -84.5
t116.5 -52.5q48 13 75.5 47t27.5 84q0 52 -31.5 75.5t-98.5 23.5zM322 76q163 0 163 110q0 28 -11.5 51t-24.5 36.5t-44.5 27.5t-47.5 19t-57 17q-7 2 -10 3q-135 -35 -135 -143q0 -62 40.5 -91.5t126.5 -29.5z" />
    <glyph glyph-name="nine" unicode="9" 
d="M311 710q126 0 192.5 -78.5t66.5 -228.5q0 -204 -102 -308.5t-302 -104.5v89q149 0 224.5 60.5t83.5 185.5q-25 -43 -77 -66t-116 -23q-101 0 -157 59t-56 170q0 116 64 180.5t179 64.5zM316 320q80 0 115.5 35.5t35.5 115.5q0 81 -35.5 117t-116.5 36q-80 0 -115.5 -36
t-35.5 -116t36 -116t116 -36z" />
    <glyph glyph-name="colon" unicode=":" 
d="M251 550h138v-148h-138v148zM251 148h138v-148h-138v148z" />
    <glyph glyph-name="semicolon" unicode=";" 
d="M251 550h138v-148h-138v148zM251 0v148h138v-148l-75 -190h-107l121 190h-77z" />
    <glyph glyph-name="less" unicode="&#x3c;" 
d="M575 631v-85l-425 -225l425 -225v-85l-510 272v76z" />
    <glyph glyph-name="equal" unicode="=" 
d="M65 367v80h510v-80h-510zM65 175v80h510v-80h-510z" />
    <glyph glyph-name="greater" unicode="&#x3e;" 
d="M65 631l510 -272v-76l-510 -272v85l425 225l-425 225v85z" />
    <glyph glyph-name="question" unicode="?" 
d="M90 710q222 0 344 -60t122 -171q0 -81 -62.5 -132t-174.5 -60l-4 -54h-64l-7 119q220 0 220 119q0 151 -374 151v88zM214 0v148h139v-148h-139z" />
    <glyph glyph-name="at" unicode="@" 
d="M306 710q148 0 227 -96t79 -280q0 -152 -42 -248t-120 -96q-77 0 -113 99q-42 -99 -142 -99q-81 0 -124.5 61t-43.5 172q0 120 58 184t172 64q64 0 129 -19l-1 -204q0 -92 14 -132t45 -40q39 0 55 60.5t16 178.5q0 171 -51.5 241.5t-175.5 70.5q-120 0 -233 -72v86
q111 69 251 69zM208 71q47 0 67 36t20 121v167q-26 8 -52 8q-66 0 -94.5 -39t-28.5 -132q0 -87 20 -124t68 -37z" />
    <glyph glyph-name="A" unicode="A" 
d="M489 0q-16 85 -31 153h-275q-15 -61 -32 -153h-98q69 371 210 700h115q139 -325 209 -700h-98zM202 237h236q-45 186 -118 391q-73 -205 -118 -391z" />
    <glyph glyph-name="B" unicode="B" 
d="M454 374q123 -36 123 -169q0 -98 -62.5 -151.5t-176.5 -53.5h-230v700h218q105 0 163 -44t58 -124q0 -110 -93 -158zM451 511q0 58 -30.5 82t-101.5 24h-117v-212h116q72 0 102.5 24t30.5 82zM347 84q72 0 102.5 27t30.5 90q0 65 -30.5 92.5t-101.5 27.5h-146v-237h145z
" />
    <glyph glyph-name="C" unicode="C" 
d="M484 412q0 110 -39 161t-119 51q-89 0 -128 -64.5t-39 -210.5t39 -209t129 -63q105 0 212 68v-97q-111 -58 -223 -58q-121 0 -187.5 89t-66.5 251q0 182 71.5 281t202.5 99q114 0 179.5 -78.5t65.5 -219.5h-97z" />
    <glyph glyph-name="D" unicode="D" 
d="M323 700q127 0 194 -84t67 -247q0 -182 -72 -275.5t-209 -93.5h-211v700h231zM308 84q98 0 138.5 60t40.5 206t-40.5 206.5t-137.5 60.5h-123v-533h122z" />
    <glyph glyph-name="E" unicode="E" 
d="M551 617h-340v-212h307v-84h-307v-237h340v-84h-434v700h434v-83z" />
    <glyph glyph-name="F" unicode="F" 
d="M560 617h-359v-237h326v-83h-326v-297h-94v700h453v-83z" />
    <glyph glyph-name="G" unicode="G" 
d="M325 354h250v-270q-48 -41 -117.5 -67.5t-145.5 -26.5q-121 0 -187.5 89t-66.5 251q0 182 79 281t224 99q73 0 181 -36v-94q-107 44 -191 44q-105 0 -150.5 -63.5t-45.5 -211.5t38.5 -211t127.5 -61q86 1 159 41v152h-155v84z" />
    <glyph glyph-name="H" unicode="H" 
d="M454 700h94v-700h-94v321h-268v-321h-94v700h94v-295h268v295z" />
    <glyph glyph-name="I" unicode="I" 
d="M550 617h-183v-533h183v-84h-460v84h183v533h-183v83h460v-83z" />
    <glyph glyph-name="J" unicode="J" 
d="M160 700h372v-385q0 -320 -442 -320v89q182 0 265 51.5t83 163.5v318h-278v83z" />
    <glyph glyph-name="K" unicode="K" 
d="M471 0l-191 323h-90v-323h-94v700h94v-296h89l184 296h112l-218 -338l226 -362h-112z" />
    <glyph glyph-name="L" unicode="L" 
d="M203 84h378v-84h-472v700h94v-616z" />
    <glyph glyph-name="M" unicode="M" 
d="M584 0h-95l-22 592l-124 -280h-45l-125 280l-22 -592h-94l34 700h117l112 -252l112 252h118z" />
    <glyph glyph-name="N" unicode="N" 
d="M460 700h94v-700h-104l-270 518v-518h-94v700h104l270 -516v516z" />
    <glyph glyph-name="O" unicode="O" 
d="M310 -10q-120 0 -186 89t-66 251q0 182 71.5 281t202.5 99q119 0 184.5 -88.5t65.5 -250.5q0 -182 -71 -281.5t-201 -99.5zM320 77q89 0 127 63t38 212q0 147 -37.5 209.5t-126.5 62.5q-90 0 -128 -63t-38 -212q0 -148 38 -210t127 -62z" />
    <glyph glyph-name="P" unicode="P" 
d="M330 700q115 0 178 -56t63 -159q0 -116 -68 -179.5t-193 -63.5h-108v-242h-94v700h222zM319 325q84 0 119.5 33.5t35.5 112.5t-35.5 112.5t-118.5 33.5h-118v-292h117z" />
    <glyph glyph-name="Q" unicode="Q" 
d="M436 21q5 -39 35 -54.5t95 -15.5v-89q-94 0 -138.5 32.5t-48.5 103.5q-34 -8 -69 -8q-120 0 -186 89t-66 251q0 182 71.5 281t202.5 99q119 0 184.5 -88.5t65.5 -250.5q0 -269 -146 -350zM155 349q0 -148 38 -210t127 -62t127 63t38 212q0 147 -37.5 209.5t-126.5 62.5
q-90 0 -128 -63t-38 -212z" />
    <glyph glyph-name="R" unicode="R" 
d="M453 0l-147 299h-113v-299h-94v700h246q104 0 160.5 -49t56.5 -140q0 -82 -41 -134.5t-118 -69.5l163 -307h-113zM193 617v-234h141q71 0 101 27t30 90t-29.5 90t-100.5 27h-142z" />
    <glyph glyph-name="S" unicode="S" 
d="M107 115q103 -40 184 -40q159 0 159 103q0 36 -19.5 61.5t-51 39.5t-69.5 25.5t-76 25.5t-69.5 33.5t-51 56t-19.5 86.5q0 97 64 150.5t176 53.5q94 0 182 -38v-95q-105 47 -185 47q-140 0 -140 -106q0 -39 19.5 -65.5t51 -40.5t69.5 -25t76 -24t69.5 -32t51 -54.5
t19.5 -85.5q0 -97 -67 -149t-184 -52q-89 0 -189 31v94z" />
    <glyph glyph-name="T" unicode="T" 
d="M578 700v-83h-211v-617h-94v617h-210v83h515z" />
    <glyph glyph-name="U" unicode="U" 
d="M314 -10q-109 0 -167.5 61.5t-58.5 176.5v472h95v-458q0 -89 31.5 -127t107.5 -38q74 0 105.5 38t31.5 128v457h95v-443q0 -130 -62 -198.5t-178 -68.5z" />
    <glyph glyph-name="V" unicode="V" 
d="M489 700h98q-69 -367 -209 -700h-115q-139 324 -210 700h98q63 -329 169 -627q109 307 169 627z" />
    <glyph glyph-name="W" unicode="W" 
d="M500 700h96q0 -345 -86 -700h-122l-68 270l-68 -270h-121q-87 359 -87 700h96q0 -298 57 -613l102 405h43l102 -407q56 326 56 615z" />
    <glyph glyph-name="X" unicode="X" 
d="M580 0h-111l-149 278l-148 -278h-112l207 354l-203 346h112l144 -270l144 270h112l-203 -346z" />
    <glyph glyph-name="Y" unicode="Y" 
d="M594 700l-227 -465v-235h-94v235l-227 465h112l162 -358l162 358h112z" />
    <glyph glyph-name="Z" unicode="Z" 
d="M178 84h383v-84h-481v96l374 521h-366v83h465v-95z" />
    <glyph glyph-name="bracketleft" unicode="[" 
d="M474 660h-159v-720h159v-80h-249v880h249v-80z" />
    <glyph glyph-name="backslash" unicode="\" 
d="M144 740h79l274 -780h-79z" />
    <glyph glyph-name="bracketright" unicode="]" 
d="M167 740h248v-880h-248v80h158v720h-158v80z" />
    <glyph glyph-name="asciicircum" unicode="^" 
d="M476 474h-76l-80 161l-80 -161h-76l114 226h85z" />
    <glyph glyph-name="underscore" unicode="_" 
d="M53 0h535v-74h-535v74z" />
    <glyph glyph-name="grave" unicode="`" 
d="M352 630l-146 155h124l104 -155h-82z" />
    <glyph glyph-name="a" unicode="a" 
d="M555 0h-89l-20 109q-56 -119 -191 -119q-79 0 -123 39.5t-44 110.5q0 93 81 140.5t265 48.5v47q0 101 -113 101q-90 0 -184 -47v86q102 44 195 44q91 0 141.5 -46.5t50.5 -128.5v-216zM276 73q70 0 114 43t44 109v44q-136 -1 -194.5 -26.5t-58.5 -86.5q0 -83 95 -83z" />
    <glyph glyph-name="b" unicode="b" 
d="M352 560q96 0 148.5 -71.5t52.5 -202.5q0 -142 -73.5 -219t-214.5 -77q-83 0 -166 20v730h90v-273q54 93 163 93zM266 68q104 0 149 49.5t45 162.5q0 109 -30.5 154.5t-102.5 45.5t-105 -48.5t-33 -153.5v-203q35 -7 77 -7z" />
    <glyph glyph-name="c" unicode="c" 
d="M469 351q0 69 -31 99t-101 30q-87 0 -122 -47t-35 -159q0 -109 37.5 -155t128.5 -46q97 0 185 59v-87q-90 -55 -197 -55q-116 0 -181.5 71t-65.5 199q0 143 66.5 221.5t185.5 78.5q99 0 161 -57t62 -152h-93z" />
    <glyph glyph-name="d" unicode="d" 
d="M455 740h89v-740h-67l-15 94q-55 -104 -171 -104q-100 0 -154.5 73t-54.5 207q0 138 54.5 214t154.5 76q108 0 164 -87v267zM315 70q76 0 108 45.5t32 154.5q0 113 -32 161.5t-108 48.5t-107.5 -45.5t-31.5 -154.5q0 -113 32 -161.5t107 -48.5z" />
    <glyph glyph-name="e" unicode="e" 
d="M564 291q0 -33 -1 -50h-391q6 -90 45.5 -129t116.5 -39q98 0 188 56v-86q-91 -53 -197 -53q-116 0 -181.5 69t-65.5 199q0 139 68 220.5t190 81.5q111 0 169.5 -69.5t58.5 -199.5zM329 477q-76 0 -113 -36.5t-43 -122.5h297q-5 87 -36.5 123t-104.5 36z" />
    <glyph glyph-name="f" unicode="f" 
d="M441 673q-127 0 -127 -98v-29h255v-76h-255v-470h-90v470h-143v76h143v22q0 87 54.5 134.5t152.5 47.5q70 0 138 -21v-79q-63 23 -128 23z" />
    <glyph glyph-name="g" unicode="g" 
d="M229 129q184 -2 273.5 -36.5t89.5 -114.5q0 -91 -122 -134.5t-389 -43.5v84q157 0 251 11.5t130 30.5t36 48q0 80 -305 80l-52 53l49 142q-95 39 -95 136q0 83 61.5 129t171.5 46q62 0 110 -17l39 110h104l-94 -136q55 -43 55 -116q0 -81 -61.5 -126.5t-170.5 -45.5
q-32 0 -64 5zM319 477q-68 0 -99 -19.5t-31 -62.5t31 -62.5t99 -19.5t99 19.5t31 62.5t-31 62.5t-99 19.5z" />
    <glyph glyph-name="h" unicode="h" 
d="M395 560q67 0 103.5 -42t36.5 -124v-394h-90v382q0 101 -79 101q-42 0 -79 -27.5t-90 -97.5v-358h-90v740h90v-309q81 129 198 129z" />
    <glyph glyph-name="i" unicode="i" 
d="M413 781v-134h-121v134h121zM397 80h152v-80h-440v80h198v390h-168v80h258v-470z" />
    <glyph glyph-name="j" unicode="j" 
d="M394 781h121v-134h-121v134zM120 470v80h379v-470q0 -128 -101 -204t-278 -76v84q149 0 219.5 51t70.5 133v402h-290z" />
    <glyph glyph-name="k" unicode="k" 
d="M479 0l-178 245h-99v-245h-90v740h90v-415h98l171 225h110l-211 -266l219 -284h-110z" />
    <glyph glyph-name="l" unicode="l" 
d="M459 73q66 0 127 38v-84q-69 -37 -143 -37q-94 0 -144 57.5t-50 171.5v441h-195v80h285v-513q0 -154 120 -154z" />
    <glyph glyph-name="m" unicode="m" 
d="M477 560q110 0 110 -169v-391h-85v380q0 53 -13 78t-46 25q-48 0 -80 -66q1 -8 1 -26v-391h-85v380q0 98 -54 98q-48 0 -84 -78v-400h-85v550h64l17 -95q48 105 127 105q69 0 90 -83q44 83 123 83z" />
    <glyph glyph-name="n" unicode="n" 
d="M396 560q71 0 110.5 -42t39.5 -124v-394h-89v382q0 101 -90 101q-44 0 -83.5 -28t-95.5 -99v-356h-89v550h67l17 -129q86 139 213 139z" />
    <glyph glyph-name="o" unicode="o" 
d="M310 -10q-111 0 -171 70.5t-60 199.5q0 143 66 221.5t185 78.5q111 0 171.5 -70t60.5 -199q0 -144 -66 -222.5t-186 -78.5zM320 73q81 0 114.5 46.5t33.5 157.5q0 110 -33.5 155t-114.5 45q-80 0 -114 -46t-34 -157q0 -110 33.5 -155.5t114.5 -45.5z" />
    <glyph glyph-name="p" unicode="p" 
d="M349 560q100 0 154.5 -73t54.5 -207q0 -138 -54.5 -214t-154.5 -76q-110 0 -163 87v-267h-90v740h68l15 -94q54 104 170 104zM325 70q76 0 108 45.5t32 154.5q0 113 -32 161.5t-108 48.5t-107.5 -45.5t-31.5 -154.5q0 -113 32 -161.5t107 -48.5z" />
    <glyph glyph-name="q" unicode="q" 
d="M376 560q82 0 165 -20v-730h-90v273q-54 -93 -162 -93q-97 0 -149.5 72t-52.5 203q0 142 74 218.5t215 76.5zM313 70q72 0 105 48.5t33 153.5v203q-35 7 -77 7q-104 0 -149 -49.5t-45 -162.5q0 -109 30.5 -154.5t102.5 -45.5z" />
    <glyph glyph-name="r" unicode="r" 
d="M577 472q-157 0 -262 -84v-308h208v-80h-440v80h142v390h-112v80h180l17 -109q46 60 119.5 95t147.5 35v-99z" />
    <glyph glyph-name="s" unicode="s" 
d="M113 117q95 -44 191 -44q132 0 132 73q0 35 -33.5 55t-81 30t-95 23t-81 48t-33.5 92q0 75 53.5 120.5t153.5 45.5q97 0 186 -36v-85q-87 38 -173 38q-129 0 -129 -75q0 -38 33.5 -58.5t81.5 -30.5t96 -23t81.5 -47t33.5 -91q0 -73 -55.5 -117.5t-161.5 -44.5
q-114 0 -199 41v86z" />
    <glyph glyph-name="t" unicode="t" 
d="M534 470h-240v-285q0 -57 27 -84.5t91 -27.5t122 26v-86q-66 -23 -131 -23q-99 0 -149 49.5t-50 133.5v297h-127v58l127 22l21 123h69v-123h240v-80z" />
    <glyph glyph-name="u" unicode="u" 
d="M452 550h90v-550h-68l-17 129q-86 -139 -213 -139q-71 0 -110.5 42t-39.5 124v394h90v-382q0 -101 89 -101q44 0 83.5 28t95.5 98v357z" />
    <glyph glyph-name="v" unicode="v" 
d="M493 550h88q-57 -249 -207 -550h-108q-150 301 -207 550h88q54 -217 173 -478q122 268 173 478z" />
    <glyph glyph-name="w" unicode="w" 
d="M488 550h88q-3 -278 -83 -550h-104l-71 210l-70 -210h-104q-81 278 -83 550h87q1 -220 53 -474l103 311h28l103 -309q52 245 53 472z" />
    <glyph glyph-name="x" unicode="x" 
d="M565 0h-109l-136 217l-136 -217h-109l189 276l-181 274h109l128 -213l128 213h109l-181 -275z" />
    <glyph glyph-name="y" unicode="y" 
d="M478 550h98l-192 -562q-64 -188 -286 -188v84q85 0 133 28.5t69 87.5h-48l-188 550h98l158 -498z" />
    <glyph glyph-name="z" unicode="z" 
d="M200 80h339v-80h-438v91l331 379h-323v80h422v-91z" />
    <glyph glyph-name="braceleft" unicode="{" 
d="M349 465q0 -71 -28 -112t-92 -53q64 -12 92 -52.5t28 -111.5v-157q0 -46 49 -46q36 0 105 29v-86q-67 -26 -122 -26q-58 0 -90 32t-32 89v193q0 40 -22.5 69t-65.5 29h-49v76h49q43 0 65.5 29t22.5 69v193q0 57 32 89t90 32q55 0 122 -26v-86q-69 29 -105 29
q-49 0 -49 -46v-156z" />
    <glyph glyph-name="bar" unicode="|" 
d="M280 740h80v-930h-80v930z" />
    <glyph glyph-name="braceright" unicode="}" 
d="M470 338h49v-76h-49q-43 0 -66 -29t-23 -69v-193q0 -57 -32 -89t-90 -32q-56 0 -121 26v86q68 -29 104 -29q49 0 49 46v157q0 71 28 111.5t93 52.5q-65 12 -93 53t-28 112v156q0 46 -49 46q-36 0 -104 -29v86q65 26 121 26q58 0 90 -32t32 -89v-193q0 -40 23 -69t66 -29z
" />
    <glyph glyph-name="asciitilde" unicode="~" 
d="M65 348q73 46 134 46q49 0 124.5 -43t118.5 -43q48 0 133 47v-80q-71 -47 -134 -47q-48 0 -124 43t-120 43q-50 0 -132 -47v81z" />
    <glyph glyph-name="exclamdown" unicode="&#xa1;" 
d="M389 362h-138v148h138v-148zM352 277l37 -467h-138l37 467h64z" />
    <glyph glyph-name="cent" unicode="&#xa2;" 
d="M180 362q0 -109 37.5 -155t128.5 -46q97 0 185 59v-87q-71 -43 -151 -52v-93h-90v93q-96 13 -149.5 82.5t-53.5 184.5q0 128 53.5 204.5t150.5 91.5v94h90v-93q82 -12 131.5 -67t49.5 -139h-93q0 69 -31 99t-101 30q-87 0 -122 -47t-35 -159z" />
    <glyph glyph-name="sterling" unicode="&#xa3;" 
d="M155 84h417v-84h-502v96q50 24 62 184h-80v84h85v40q0 156 57 231t173 75q88 0 192 -45v-94q-116 53 -186 53q-77 0 -109 -51t-32 -169q0 -27 -1 -40h166v-84h-171q-14 -146 -71 -196z" />
    <glyph glyph-name="currency" unicode="&#xa4;" 
d="M525 328q0 -59 -32 -109l59 -59l-64 -64l-60 60q-52 -29 -108 -29q-58 0 -107 30l-61 -61l-64 64l60 59q-32 50 -32 109t32 109l-60 59l64 64l60 -60q49 30 108 30t108 -30l60 60l64 -64l-59 -59q32 -50 32 -109zM202 328q0 -51 34.5 -86.5t83.5 -35.5q50 0 84.5 35.5
t34.5 86.5t-34.5 86.5t-84.5 35.5q-49 0 -83.5 -35.5t-34.5 -86.5z" />
    <glyph glyph-name="yen" unicode="&#xa5;" 
d="M594 700l-190 -388h136v-83h-173v-68h173v-84h-173v-77h-94v77h-173v84h173v68h-173v83h136l-190 388h112l162 -358l162 358h112z" />
    <glyph glyph-name="brokenbar" unicode="&#xa6;" 
d="M280 420v320h80v-320h-80zM280 -190v320h80v-320h-80z" />
    <glyph glyph-name="section" unicode="&#xa7;" 
d="M551 249q0 -80 -47 -130q28 -44 28 -107q0 -96 -63.5 -147.5t-175.5 -51.5q-93 0 -183 38v95q106 -47 185 -47q140 0 140 101q0 39 -19 65t-49.5 40t-67.5 24.5t-74 24t-67.5 33t-49.5 56t-19 89.5q0 69 36 118q-27 40 -27 102q0 96 63.5 147t175.5 51q94 0 182 -38v-95
q-105 47 -184 47q-140 0 -140 -101q0 -39 19.5 -64t51 -37.5t69.5 -21t76 -20t69.5 -29.5t51 -54t19.5 -88zM186 344q0 -41 26 -68t58.5 -38.5t84 -28t80.5 -32.5q19 25 19 59q0 41 -27 67t-60.5 36t-86.5 24.5t-83 28.5q-11 -19 -11 -48z" />
    <glyph glyph-name="dieresis" unicode="&#xa8;" 
d="M166 765h109v-116h-109v116zM365 765h109v-116h-109v116z" />
    <glyph glyph-name="copyright" unicode="&#xa9;" 
d="M311 -10q-277 0 -277 340q0 380 297 380q275 0 275 -340q0 -380 -295 -380zM320 49q113 0 165 72.5t52 230.5q0 156 -51.5 227.5t-164.5 71.5q-114 0 -166 -72.5t-52 -230.5q0 -156 52 -227.5t165 -71.5zM433 173q-55 -33 -115 -33q-145 0 -145 201q0 220 155 220
q137 0 137 -175h-64q0 109 -76 110q-43 1 -63 -34t-20 -111q0 -77 20.5 -111.5t62.5 -34.5q50 0 108 41v-73z" />
    <glyph glyph-name="ordfeminine" unicode="&#xaa;" 
d="M354 370h-73l-11 56q-40 -62 -118 -62q-48 0 -75.5 23.5t-27.5 66.5q0 113 213 114v21q0 51 -70 51q-56 0 -112 -26v65q62 27 119 27q62 0 99 -29.5t37 -81.5v-122zM178 421q38 0 61 21t23 56v23q-139 0 -139 -59q0 -41 55 -41z" />
    <glyph glyph-name="guillemotleft" unicode="&#xab;" 
d="M340 550l-196 -204l196 -204h-134l-145 204l145 204h134zM579 550l-196 -204l196 -204h-134l-145 204l145 204h134z" />
    <glyph glyph-name="logicalnot" unicode="&#xac;" 
d="M65 405h510v-215h-80v135h-430v80z" />
    <glyph glyph-name="registered" unicode="&#xae;" 
d="M329 711q113 -1 174 -66.5t60 -184.5q-1 -134 -67 -207t-186 -73q-111 1 -172 66.5t-62 184.5q1 134 67 207t186 73zM318 234q95 0 137.5 50.5t41.5 162.5q1 109 -41.5 159.5t-136.5 51.5q-94 0 -136.5 -50.5t-43.5 -162.5q1 -110 43.5 -160t135.5 -51zM424 501
q0 -65 -56 -81l60 -104h-64l-51 99h-27v-99h-57v262h112q39 0 61 -20.5t22 -56.5zM361 496q0 31 -33 31h-42v-63h42q33 0 33 32z" />
    <glyph glyph-name="macron" unicode="&#xaf;" 
d="M189 725h263v-69h-263v69z" />
    <glyph glyph-name="degree" unicode="&#xb0;" 
d="M262 440q-57 0 -96 39t-39 96t39 96t96 39t96 -39t39 -96t-39 -96t-96 -39zM261 507q30 0 49.5 19t19.5 48q0 30 -19.5 49.5t-49.5 19.5q-29 0 -48 -19.5t-19 -49.5q0 -29 19 -48t48 -19z" />
    <glyph glyph-name="plusminus" unicode="&#xb1;" 
d="M362 429h213v-80h-213v-145h-84v145h-213v80h213v145h84v-145zM65 58v80h510v-80h-510z" />
    <glyph glyph-name="uni00B2" unicode="&#xb2;" 
d="M266 559h191v-59h-273v65l143 100q60 41 60 81q0 49 -67 49q-60 0 -125 -39v64q64 35 133 35q59 0 92 -26.5t33 -74.5q0 -72 -90 -131z" />
    <glyph glyph-name="uni00B3" unicode="&#xb3;" 
d="M349 714q111 -16 111 -94q0 -59 -68 -92t-192 -33v60q102 0 148 15t46 48q0 50 -116 50l-11 48l93 76h-160v58h233v-65z" />
    <glyph glyph-name="acute" unicode="&#xb4;" 
d="M288 630h-82l104 155h124z" />
    <glyph glyph-name="paragraph" unicode="&#xb6;" 
d="M89 513q0 88 54 137.5t149 49.5h92v-890h-72v539h-36q-88 0 -137.5 43.5t-49.5 120.5zM445 700h71v-890h-71v890z" />
    <glyph glyph-name="periodcentered" unicode="&#xb7;" 
d="M251 428h138v-148h-138v148z" />
    <glyph glyph-name="cedilla" unicode="&#xb8;" 
d="M0 -206v68q53 0 75.5 9t22.5 31q0 31 -57 31v36q140 0 140 -78q0 -44 -47 -70.5t-134 -26.5z" />
    <glyph glyph-name="uni00B9" unicode="&#xb9;" 
d="M360 558h92v-58h-264v58h108v233l-108 -84v72l101 71h71v-292z" />
    <glyph glyph-name="ordmasculine" unicode="&#xba;" 
d="M196 364q-71 0 -111 43t-40 119q0 85 43 132.5t120 47.5q71 0 111 -42.5t40 -118.5q0 -85 -43 -133t-120 -48zM202 430q83 0 83 106q0 104 -83 104t-83 -105t83 -105z" />
    <glyph glyph-name="guillemotright" unicode="&#xbb;" 
d="M195 550l145 -204l-145 -204h-134l196 204l-196 204h134zM434 550l145 -204l-145 -204h-134l196 204l-196 204h134z" />
    <glyph glyph-name="onequarter" unicode="&#xbc;" 
d="M452 538v-58h-264v58h108v233l-108 -84v72l101 71h71v-292h92zM65 377h511v-54h-511v54zM399 220v-217h60v-59h-60v-74h-64v74h-177v65l173 211h68zM224 3h111v136z" />
    <glyph glyph-name="onehalf" unicode="&#xbd;" 
d="M452 538v-58h-264v58h108v233l-108 -84v72l101 71h71v-292h92zM65 377h511v-54h-511v54zM364 -7l-100 -65h193v-58h-273v65l144 100q59 41 59 81q0 49 -66 49q-60 0 -125 -39v64q62 35 132 35q60 0 92.5 -26.5t32.5 -74.5q0 -73 -89 -131z" />
    <glyph glyph-name="threequarters" unicode="&#xbe;" 
d="M460 600q0 -59 -68 -92t-192 -33v60q102 0 148 15t46 48q0 50 -116 50l-11 48l93 76h-160v58h233v-65l-84 -71q111 -16 111 -94zM65 377h511v-54h-511v54zM399 220v-217h60v-59h-60v-74h-64v74h-177v65l173 211h68zM224 3h111v136z" />
    <glyph glyph-name="questiondown" unicode="&#xbf;" 
d="M426 510v-148h-138v148h138zM176 40q0 -152 374 -152v-88q-222 0 -344 60t-122 171q0 80 62.5 131.5t174.5 61.5l4 53h64l7 -118q-109 0 -164.5 -31t-55.5 -88z" />
    <glyph glyph-name="Agrave" unicode="&#xc0;" 
d="M364 780h-82l-146 155h124zM489 0q-16 85 -31 153h-275q-15 -61 -32 -153h-98q69 371 210 700h115q139 -325 209 -700h-98zM202 237h236q-45 186 -118 391q-73 -205 -118 -391z" />
    <glyph glyph-name="Aacute" unicode="&#xc1;" 
d="M508 935l-146 -155h-82l104 155h124zM489 0q-16 85 -31 153h-275q-15 -61 -32 -153h-98q69 371 210 700h115q139 -325 209 -700h-98zM202 237h236q-45 186 -118 391q-73 -205 -118 -391z" />
    <glyph glyph-name="Acircumflex" unicode="&#xc2;" 
d="M320 878l-92 -98h-79l114 155h114l114 -155h-79zM489 0q-16 85 -31 153h-275q-15 -61 -32 -153h-98q69 371 210 700h115q139 -325 209 -700h-98zM202 237h236q-45 186 -118 391q-73 -205 -118 -391z" />
    <glyph glyph-name="Atilde" unicode="&#xc3;" 
d="M264 851q-28 0 -28 -45h-79q0 119 97 119q31 0 54 -13t38.5 -26t28.5 -13q28 0 28 46h79q0 -120 -97 -120q-32 0 -55 13t-38 26t-28 13zM489 0q-16 85 -31 153h-275q-15 -61 -32 -153h-98q69 371 210 700h115q139 -325 209 -700h-98zM202 237h236q-45 186 -118 391
q-73 -205 -118 -391z" />
    <glyph glyph-name="Adieresis" unicode="&#xc4;" 
d="M275 915v-116h-109v116h109zM474 915v-116h-109v116h109zM489 0q-16 85 -31 153h-275q-15 -61 -32 -153h-98q69 371 210 700h115q139 -325 209 -700h-98zM202 237h236q-45 186 -118 391q-73 -205 -118 -391z" />
    <glyph glyph-name="Aring" unicode="&#xc5;" 
d="M320 776q-44 0 -74.5 30t-30.5 73t30.5 73t74.5 30q45 0 75 -29.5t30 -73.5t-30 -73.5t-75 -29.5zM320 929q-22 0 -34.5 -13.5t-12.5 -36.5t12.5 -36t34.5 -13t35 13.5t13 35.5q0 23 -13 36.5t-35 13.5zM489 0q-16 85 -31 153h-275q-15 -61 -32 -153h-98q69 371 210 700
h115q139 -325 209 -700h-98zM202 237h236q-45 186 -118 391q-73 -205 -118 -391z" />
    <glyph glyph-name="AE" unicode="&#xc6;" 
d="M618 617h-211v-212h178v-84h-178v-237h211v-84h-306v153h-163q-15 -68 -31 -153h-98q69 369 209 700h389v-83zM312 237v380h-29q-69 -195 -115 -380h144z" />
    <glyph glyph-name="Ccedilla" unicode="&#xc7;" 
d="M484 412q0 110 -39 161t-119 51q-89 0 -128 -64.5t-39 -210.5t39 -209t129 -63q105 0 212 68v-97q-111 -58 -223 -58q-121 0 -187.5 89t-66.5 251q0 182 71.5 281t202.5 99q114 0 179.5 -78.5t65.5 -219.5h-97zM248 -206v68q53 0 75.5 9t22.5 31q0 31 -57 31v36
q140 0 140 -78q0 -44 -47 -70.5t-134 -26.5z" />
    <glyph glyph-name="Egrave" unicode="&#xc8;" 
d="M380 780h-82l-146 155h124zM551 617h-340v-212h307v-84h-307v-237h340v-84h-434v700h434v-83z" />
    <glyph glyph-name="Eacute" unicode="&#xc9;" 
d="M525 935l-146 -155h-82l104 155h124zM551 617h-340v-212h307v-84h-307v-237h340v-84h-434v700h434v-83z" />
    <glyph glyph-name="Ecircumflex" unicode="&#xca;" 
d="M337 878l-92 -98h-79l114 155h114l114 -155h-79zM551 617h-340v-212h307v-84h-307v-237h340v-84h-434v700h434v-83z" />
    <glyph glyph-name="Edieresis" unicode="&#xcb;" 
d="M292 915v-116h-109v116h109zM491 915v-116h-109v116h109zM551 617h-340v-212h307v-84h-307v-237h340v-84h-434v700h434v-83z" />
    <glyph glyph-name="Igrave" unicode="&#xcc;" 
d="M364 780h-82l-146 155h124zM550 617h-183v-533h183v-84h-460v84h183v533h-183v83h460v-83z" />
    <glyph glyph-name="Iacute" unicode="&#xcd;" 
d="M508 935l-146 -155h-82l104 155h124zM550 617h-183v-533h183v-84h-460v84h183v533h-183v83h460v-83z" />
    <glyph glyph-name="Icircumflex" unicode="&#xce;" 
d="M320 878l-92 -98h-79l114 155h114l114 -155h-79zM550 617h-183v-533h183v-84h-460v84h183v533h-183v83h460v-83z" />
    <glyph glyph-name="Idieresis" unicode="&#xcf;" 
d="M275 915v-116h-109v116h109zM474 915v-116h-109v116h109zM550 617h-183v-533h183v-84h-460v84h183v533h-183v83h460v-83z" />
    <glyph glyph-name="Eth" unicode="&#xd0;" 
d="M323 700q127 0 194 -84t67 -247q0 -182 -72 -275.5t-209 -93.5h-211v315h-55v76h55v309h231zM308 84q98 0 138.5 60t40.5 206t-40.5 206.5t-137.5 60.5h-123v-226h131v-76h-131v-231h122z" />
    <glyph glyph-name="Ntilde" unicode="&#xd1;" 
d="M264 851q-28 0 -28 -45h-79q0 119 97 119q31 0 54 -13t38.5 -26t28.5 -13q28 0 28 46h79q0 -120 -97 -120q-32 0 -55 13t-38 26t-28 13zM460 700h94v-700h-104l-270 518v-518h-94v700h104l270 -516v516z" />
    <glyph glyph-name="Ograve" unicode="&#xd2;" 
d="M282 780l-146 155h124l104 -155h-82zM310 -10q-120 0 -186 89t-66 251q0 182 71.5 281t202.5 99q119 0 184.5 -88.5t65.5 -250.5q0 -182 -71 -281.5t-201 -99.5zM320 77q89 0 127 63t38 212q0 147 -37.5 209.5t-126.5 62.5q-90 0 -128 -63t-38 -212q0 -148 38 -210
t127 -62z" />
    <glyph glyph-name="Oacute" unicode="&#xd3;" 
d="M362 780h-82l104 155h124zM310 -10q-120 0 -186 89t-66 251q0 182 71.5 281t202.5 99q119 0 184.5 -88.5t65.5 -250.5q0 -182 -71 -281.5t-201 -99.5zM320 77q89 0 127 63t38 212q0 147 -37.5 209.5t-126.5 62.5q-90 0 -128 -63t-38 -212q0 -148 38 -210t127 -62z" />
    <glyph glyph-name="Ocircumflex" unicode="&#xd4;" 
d="M320 878l-92 -98h-79l114 155h114l114 -155h-79zM332 710q119 0 184.5 -88.5t65.5 -250.5q0 -182 -71 -281.5t-201 -99.5q-120 0 -186 89t-66 251q0 182 71.5 281t202.5 99zM320 77q89 0 127 63t38 212q0 147 -37.5 209.5t-126.5 62.5q-90 0 -128 -63t-38 -212
q0 -148 38 -210t127 -62z" />
    <glyph glyph-name="Otilde" unicode="&#xd5;" 
d="M403 919h79q0 -120 -97 -120q-32 0 -55 13t-38 26t-28 13q-28 0 -28 -45h-79q0 119 97 119q31 0 54 -13t38.5 -26t28.5 -13q28 0 28 46zM310 -10q-120 0 -186 89t-66 251q0 182 71.5 281t202.5 99q119 0 184.5 -88.5t65.5 -250.5q0 -182 -71 -281.5t-201 -99.5zM320 77
q89 0 127 63t38 212q0 147 -37.5 209.5t-126.5 62.5q-90 0 -128 -63t-38 -212q0 -148 38 -210t127 -62z" />
    <glyph glyph-name="Odieresis" unicode="&#xd6;" 
d="M166 915h109v-116h-109v116zM365 915h109v-116h-109v116zM310 -10q-120 0 -186 89t-66 251q0 182 71.5 281t202.5 99q119 0 184.5 -88.5t65.5 -250.5q0 -182 -71 -281.5t-201 -99.5zM320 77q89 0 127 63t38 212q0 147 -37.5 209.5t-126.5 62.5q-90 0 -128 -63t-38 -212
q0 -148 38 -210t127 -62z" />
    <glyph glyph-name="multiply" unicode="&#xd7;" 
d="M536 470l-159 -159l159 -159l-57 -57l-159 159l-159 -159l-56 57l158 159l-159 159l57 57l159 -159l159 159z" />
    <glyph glyph-name="Oslash" unicode="&#xd8;" 
d="M509 631q73 -88 73 -260q0 -182 -71 -281.5t-201 -99.5q-67 0 -119 29l-46 -88h-86l72 139q-73 90 -73 260q0 182 71.5 281t202.5 99q67 0 117 -29l46 88h86zM155 349q0 -122 25 -185l228 438q-34 22 -87 22q-90 0 -128 -63t-38 -212zM320 77q89 0 127 63t38 212
q0 121 -25 184l-228 -438q34 -21 88 -21z" />
    <glyph glyph-name="Ugrave" unicode="&#xd9;" 
d="M283 780l-146 155h124l104 -155h-82zM314 -10q-109 0 -167.5 61.5t-58.5 176.5v472h95v-458q0 -89 31.5 -127t107.5 -38q74 0 105.5 38t31.5 128v457h95v-443q0 -130 -62 -198.5t-178 -68.5z" />
    <glyph glyph-name="Uacute" unicode="&#xda;" 
d="M363 780h-82l104 155h124zM314 -10q-109 0 -167.5 61.5t-58.5 176.5v472h95v-458q0 -89 31.5 -127t107.5 -38q74 0 105.5 38t31.5 128v457h95v-443q0 -130 -62 -198.5t-178 -68.5z" />
    <glyph glyph-name="Ucircumflex" unicode="&#xdb;" 
d="M321 878l-92 -98h-79l114 155h114l114 -155h-79zM459 700h95v-443q0 -130 -62 -198.5t-178 -68.5q-109 0 -167.5 61.5t-58.5 176.5v472h95v-458q0 -89 31.5 -127t107.5 -38q74 0 105.5 38t31.5 128v457z" />
    <glyph glyph-name="Udieresis" unicode="&#xdc;" 
d="M167 915h109v-116h-109v116zM366 915h109v-116h-109v116zM314 -10q-109 0 -167.5 61.5t-58.5 176.5v472h95v-458q0 -89 31.5 -127t107.5 -38q74 0 105.5 38t31.5 128v457h95v-443q0 -130 -62 -198.5t-178 -68.5z" />
    <glyph glyph-name="Yacute" unicode="&#xdd;" 
d="M508 935l-146 -155h-82l104 155h124zM594 700l-227 -465v-235h-94v235l-227 465h112l162 -358l162 358h112z" />
    <glyph glyph-name="Thorn" unicode="&#xde;" 
d="M335 586q114 0 176.5 -56t62.5 -159q0 -117 -68.5 -180.5t-191.5 -63.5h-109v-127h-95v700h95v-114h130zM323 211q83 0 118.5 33.5t35.5 111.5q0 79 -35 112.5t-118 33.5h-119v-291h118z" />
    <glyph glyph-name="germandbls" unicode="&#xdf;" 
d="M432 416q150 -32 150 -202q0 -106 -57 -165t-163 -59q-56 0 -117 24v85q65 -26 117 -26q127 0 127 147q0 76 -34.5 108.5t-116.5 32.5h-47v78q82 0 115 25.5t33 91.5q0 64 -29.5 90.5t-98.5 26.5q-73 0 -103.5 -32t-30.5 -107v-534h-90v527q0 107 60 165t173 58
q100 0 156 -47.5t56 -134.5q0 -116 -100 -152z" />
    <glyph glyph-name="agrave" unicode="&#xe0;" 
d="M369 630h-82l-146 155h124zM555 0h-89l-20 109q-56 -119 -191 -119q-79 0 -123 39.5t-44 110.5q0 93 81 140.5t265 48.5v47q0 101 -113 101q-90 0 -184 -47v86q102 44 195 44q91 0 141.5 -46.5t50.5 -128.5v-216zM276 73q70 0 114 43t44 109v44q-136 -1 -194.5 -26.5
t-58.5 -86.5q0 -83 95 -83z" />
    <glyph glyph-name="aacute" unicode="&#xe1;" 
d="M514 785l-146 -155h-82l104 155h124zM555 0h-89l-20 109q-56 -119 -191 -119q-79 0 -123 39.5t-44 110.5q0 93 81 140.5t265 48.5v47q0 101 -113 101q-90 0 -184 -47v86q102 44 195 44q91 0 141.5 -46.5t50.5 -128.5v-216zM276 73q70 0 114 43t44 109v44
q-136 -1 -194.5 -26.5t-58.5 -86.5q0 -83 95 -83z" />
    <glyph glyph-name="acircumflex" unicode="&#xe2;" 
d="M326 728l-92 -98h-79l114 155h114l114 -155h-79zM555 0h-89l-20 109q-56 -119 -191 -119q-79 0 -123 39.5t-44 110.5q0 93 81 140.5t265 48.5v47q0 101 -113 101q-90 0 -184 -47v86q102 44 195 44q91 0 141.5 -46.5t50.5 -128.5v-216zM276 73q70 0 114 43t44 109v44
q-136 -1 -194.5 -26.5t-58.5 -86.5q0 -83 95 -83z" />
    <glyph glyph-name="atilde" unicode="&#xe3;" 
d="M270 701q-28 0 -28 -45h-79q0 119 97 119q31 0 54 -13t38.5 -26t28.5 -13q28 0 28 46h79q0 -120 -97 -120q-32 0 -55 13t-38 26t-28 13zM555 0h-89l-20 109q-56 -119 -191 -119q-79 0 -123 39.5t-44 110.5q0 93 81 140.5t265 48.5v47q0 101 -113 101q-90 0 -184 -47v86
q102 44 195 44q91 0 141.5 -46.5t50.5 -128.5v-216zM276 73q70 0 114 43t44 109v44q-136 -1 -194.5 -26.5t-58.5 -86.5q0 -83 95 -83z" />
    <glyph glyph-name="adieresis" unicode="&#xe4;" 
d="M281 765v-116h-109v116h109zM480 765v-116h-109v116h109zM555 0h-89l-20 109q-56 -119 -191 -119q-79 0 -123 39.5t-44 110.5q0 93 81 140.5t265 48.5v47q0 101 -113 101q-90 0 -184 -47v86q102 44 195 44q91 0 141.5 -46.5t50.5 -128.5v-216zM276 73q70 0 114 43t44 109
v44q-136 -1 -194.5 -26.5t-58.5 -86.5q0 -83 95 -83z" />
    <glyph glyph-name="aring" unicode="&#xe5;" 
d="M326 626q-44 0 -74.5 30t-30.5 73t30.5 73t74.5 30q45 0 75 -29.5t30 -73.5t-30 -73.5t-75 -29.5zM326 779q-22 0 -34.5 -13.5t-12.5 -36.5t12.5 -36t34.5 -13t35 13.5t13 35.5q0 23 -13 36.5t-35 13.5zM555 0h-89l-20 109q-56 -119 -191 -119q-79 0 -123 39.5t-44 110.5
q0 93 81 140.5t265 48.5v47q0 101 -113 101q-90 0 -184 -47v86q102 44 195 44q91 0 141.5 -46.5t50.5 -128.5v-216zM276 73q70 0 114 43t44 109v44q-136 -1 -194.5 -26.5t-58.5 -86.5q0 -83 95 -83z" />
    <glyph glyph-name="ae" unicode="&#xe6;" 
d="M613 291q0 -20 -2 -50h-245q3 -91 25 -129.5t69 -38.5q60 0 121 45v-86q-61 -42 -129 -42q-108 0 -149 116q-19 -56 -57.5 -86t-90.5 -30q-62 0 -97 40t-35 112q0 182 253 187v56q0 51 -18 71.5t-62 20.5q-65 0 -133 -47v86q75 44 146 44q85 0 121 -71q44 71 123 71
q78 0 119 -70t41 -199zM450 477q-41 0 -60.5 -36.5t-22.5 -122.5h154q-2 87 -17 123t-54 36zM183 73q46 0 69.5 40.5t23.5 111.5v44q-160 -5 -160 -115q0 -39 17.5 -60t49.5 -21z" />
    <glyph glyph-name="ccedilla" unicode="&#xe7;" 
d="M469 351q0 69 -31 99t-101 30q-87 0 -122 -47t-35 -159q0 -109 37.5 -155t128.5 -46q97 0 185 59v-87q-90 -55 -197 -55q-116 0 -181.5 71t-65.5 199q0 143 66.5 221.5t185.5 78.5q99 0 161 -57t62 -152h-93zM264 -206v68q53 0 75.5 9t22.5 31q0 31 -57 31v36
q140 0 140 -78q0 -44 -47 -70.5t-134 -26.5z" />
    <glyph glyph-name="egrave" unicode="&#xe8;" 
d="M377 630h-82l-146 155h124zM564 291q0 -33 -1 -50h-391q6 -90 45.5 -129t116.5 -39q98 0 188 56v-86q-91 -53 -197 -53q-116 0 -181.5 69t-65.5 199q0 139 68 220.5t190 81.5q111 0 169.5 -69.5t58.5 -199.5zM329 477q-76 0 -113 -36.5t-43 -122.5h297q-5 87 -36.5 123
t-104.5 36z" />
    <glyph glyph-name="eacute" unicode="&#xe9;" 
d="M521 785l-146 -155h-82l104 155h124zM564 291q0 -33 -1 -50h-391q6 -90 45.5 -129t116.5 -39q98 0 188 56v-86q-91 -53 -197 -53q-116 0 -181.5 69t-65.5 199q0 139 68 220.5t190 81.5q111 0 169.5 -69.5t58.5 -199.5zM329 477q-76 0 -113 -36.5t-43 -122.5h297
q-5 87 -36.5 123t-104.5 36z" />
    <glyph glyph-name="ecircumflex" unicode="&#xea;" 
d="M333 728l-92 -98h-79l114 155h114l114 -155h-79zM564 291q0 -33 -1 -50h-391q6 -90 45.5 -129t116.5 -39q98 0 188 56v-86q-91 -53 -197 -53q-116 0 -181.5 69t-65.5 199q0 139 68 220.5t190 81.5q111 0 169.5 -69.5t58.5 -199.5zM329 477q-76 0 -113 -36.5t-43 -122.5
h297q-5 87 -36.5 123t-104.5 36z" />
    <glyph glyph-name="edieresis" unicode="&#xeb;" 
d="M288 765v-116h-109v116h109zM487 765v-116h-109v116h109zM564 291q0 -33 -1 -50h-391q6 -90 45.5 -129t116.5 -39q98 0 188 56v-86q-91 -53 -197 -53q-116 0 -181.5 69t-65.5 199q0 139 68 220.5t190 81.5q111 0 169.5 -69.5t58.5 -199.5zM329 477q-76 0 -113 -36.5
t-43 -122.5h297q-5 87 -36.5 123t-104.5 36z" />
    <glyph glyph-name="igrave" unicode="&#xec;" 
d="M396 630h-82l-146 155h124zM397 80h152v-80h-440v80h198v390h-168v80h258v-470z" />
    <glyph glyph-name="iacute" unicode="&#xed;" 
d="M540 785l-146 -155h-82l104 155h124zM397 80h152v-80h-440v80h198v390h-168v80h258v-470z" />
    <glyph glyph-name="icircumflex" unicode="&#xee;" 
d="M352 728l-92 -98h-79l114 155h114l114 -155h-79zM397 80h152v-80h-440v80h198v390h-168v80h258v-470z" />
    <glyph glyph-name="idieresis" unicode="&#xef;" 
d="M307 765v-116h-109v116h109zM506 765v-116h-109v116h109zM397 80h152v-80h-440v80h198v390h-168v80h258v-470z" />
    <glyph glyph-name="eth" unicode="&#xf0;" 
d="M450 616q114 -155 114 -345q0 -132 -66.5 -206.5t-184.5 -74.5q-112 0 -174.5 65t-62.5 181q0 127 59.5 198.5t165.5 71.5q104 0 155 -64q-30 81 -83 147l-152 -54v80l96 34q-44 43 -111 91h124q36 -29 68 -62l142 50v-80zM322 73q77 0 112.5 42.5t35.5 132.5
q0 89 -36 131t-115 42q-78 0 -113.5 -41.5t-35.5 -131.5t36.5 -132.5t115.5 -42.5z" />
    <glyph glyph-name="ntilde" unicode="&#xf1;" 
d="M269 701q-28 0 -28 -45h-79q0 119 97 119q31 0 54 -13t38.5 -26t28.5 -13q28 0 28 46h79q0 -120 -97 -120q-32 0 -55 13t-38 26t-28 13zM396 560q71 0 110.5 -42t39.5 -124v-394h-89v382q0 101 -90 101q-44 0 -83.5 -28t-95.5 -99v-356h-89v550h67l17 -129
q86 139 213 139z" />
    <glyph glyph-name="ograve" unicode="&#xf2;" 
d="M282 630l-146 155h124l104 -155h-82zM310 -10q-111 0 -171 70.5t-60 199.5q0 143 66 221.5t185 78.5q111 0 171.5 -70t60.5 -199q0 -144 -66 -222.5t-186 -78.5zM320 73q81 0 114.5 46.5t33.5 157.5q0 110 -33.5 155t-114.5 45q-80 0 -114 -46t-34 -157
q0 -110 33.5 -155.5t114.5 -45.5z" />
    <glyph glyph-name="oacute" unicode="&#xf3;" 
d="M362 630h-82l104 155h124zM310 -10q-111 0 -171 70.5t-60 199.5q0 143 66 221.5t185 78.5q111 0 171.5 -70t60.5 -199q0 -144 -66 -222.5t-186 -78.5zM320 73q81 0 114.5 46.5t33.5 157.5q0 110 -33.5 155t-114.5 45q-80 0 -114 -46t-34 -157q0 -110 33.5 -155.5
t114.5 -45.5z" />
    <glyph glyph-name="ocircumflex" unicode="&#xf4;" 
d="M320 728l-92 -98h-79l114 155h114l114 -155h-79zM330 560q111 0 171.5 -70t60.5 -199q0 -144 -66 -222.5t-186 -78.5q-111 0 -171 70.5t-60 199.5q0 143 66 221.5t185 78.5zM320 73q81 0 114.5 46.5t33.5 157.5q0 110 -33.5 155t-114.5 45q-80 0 -114 -46t-34 -157
q0 -110 33.5 -155.5t114.5 -45.5z" />
    <glyph glyph-name="otilde" unicode="&#xf5;" 
d="M403 769h79q0 -120 -97 -120q-32 0 -55 13t-38 26t-28 13q-28 0 -28 -45h-79q0 119 97 119q31 0 54 -13t38.5 -26t28.5 -13q28 0 28 46zM310 -10q-111 0 -171 70.5t-60 199.5q0 143 66 221.5t185 78.5q111 0 171.5 -70t60.5 -199q0 -144 -66 -222.5t-186 -78.5zM320 73
q81 0 114.5 46.5t33.5 157.5q0 110 -33.5 155t-114.5 45q-80 0 -114 -46t-34 -157q0 -110 33.5 -155.5t114.5 -45.5z" />
    <glyph glyph-name="odieresis" unicode="&#xf6;" 
d="M166 765h109v-116h-109v116zM365 765h109v-116h-109v116zM310 -10q-111 0 -171 70.5t-60 199.5q0 143 66 221.5t185 78.5q111 0 171.5 -70t60.5 -199q0 -144 -66 -222.5t-186 -78.5zM320 73q81 0 114.5 46.5t33.5 157.5q0 110 -33.5 155t-114.5 45q-80 0 -114 -46
t-34 -157q0 -110 33.5 -155.5t114.5 -45.5z" />
    <glyph glyph-name="divide" unicode="&#xf7;" 
d="M251 581h138v-148h-138v148zM65 351h510v-80h-510v80zM251 190h138v-149h-138v149z" />
    <glyph glyph-name="oslash" unicode="&#xf8;" 
d="M563 618l-70 -119q69 -71 69 -208q0 -144 -66 -222.5t-186 -78.5q-58 0 -104 20l-47 -79h-82l71 120q-69 71 -69 209q0 143 66 221.5t185 78.5q59 0 105 -20l46 78h82zM172 274q0 -96 24 -140l195 331q-28 12 -71 12q-80 0 -114 -46t-34 -157zM468 277q0 95 -24 139
l-195 -331q30 -12 71 -12q81 0 114.5 46.5t33.5 157.5z" />
    <glyph glyph-name="ugrave" unicode="&#xf9;" 
d="M363 630h-82l-146 155h124zM452 550h90v-550h-68l-17 129q-86 -139 -213 -139q-71 0 -110.5 42t-39.5 124v394h90v-382q0 -101 89 -101q44 0 83.5 28t95.5 98v357z" />
    <glyph glyph-name="uacute" unicode="&#xfa;" 
d="M507 785l-146 -155h-82l104 155h124zM452 550h90v-550h-68l-17 129q-86 -139 -213 -139q-71 0 -110.5 42t-39.5 124v394h90v-382q0 -101 89 -101q44 0 83.5 28t95.5 98v357z" />
    <glyph glyph-name="ucircumflex" unicode="&#xfb;" 
d="M319 728l-92 -98h-79l114 155h114l114 -155h-79zM452 550h90v-550h-68l-17 129q-86 -139 -213 -139q-71 0 -110.5 42t-39.5 124v394h90v-382q0 -101 89 -101q44 0 83.5 28t95.5 98v357z" />
    <glyph glyph-name="udieresis" unicode="&#xfc;" 
d="M274 765v-116h-109v116h109zM473 765v-116h-109v116h109zM452 550h90v-550h-68l-17 129q-86 -139 -213 -139q-71 0 -110.5 42t-39.5 124v394h90v-382q0 -101 89 -101q44 0 83.5 28t95.5 98v357z" />
    <glyph glyph-name="yacute" unicode="&#xfd;" 
d="M508 785l-146 -155h-82l104 155h124zM478 550h98l-192 -562q-64 -188 -286 -188v84q85 0 133 28.5t69 87.5h-48l-188 550h98l158 -498z" />
    <glyph glyph-name="thorn" unicode="&#xfe;" 
d="M348 560q101 0 155 -72t54 -212q0 -132 -55 -209t-154 -77q-110 0 -163 87v-267h-90v930h90v-269q54 89 163 89zM325 70q75 0 107 46.5t32 157.5t-32 158.5t-107 47.5q-76 0 -108 -46.5t-32 -157.5t32 -158.5t108 -47.5z" />
    <glyph glyph-name="ydieresis" unicode="&#xff;" 
d="M275 765v-116h-109v116h109zM474 765v-116h-109v116h109zM478 550h98l-192 -562q-64 -188 -286 -188v84q85 0 133 28.5t69 87.5h-48l-188 550h98l158 -498z" />
    <glyph glyph-name="Amacron" unicode="&#x100;" 
d="M452 875v-69h-263v69h263zM489 0q-16 85 -31 153h-275q-15 -61 -32 -153h-98q69 371 210 700h115q139 -325 209 -700h-98zM202 237h236q-45 186 -118 391q-73 -205 -118 -391z" />
    <glyph glyph-name="amacron" unicode="&#x101;" 
d="M458 725v-69h-263v69h263zM555 0h-89l-20 109q-56 -119 -191 -119q-79 0 -123 39.5t-44 110.5q0 93 81 140.5t265 48.5v47q0 101 -113 101q-90 0 -184 -47v86q102 44 195 44q91 0 141.5 -46.5t50.5 -128.5v-216zM276 73q70 0 114 43t44 109v44q-136 -1 -194.5 -26.5
t-58.5 -86.5q0 -83 95 -83z" />
    <glyph glyph-name="Abreve" unicode="&#x102;" 
d="M320 783q-64 0 -108 44t-44 108h69q0 -37 23 -60t60 -23t60 23t23 60h69q0 -64 -44 -108t-108 -44zM489 0q-16 85 -31 153h-275q-15 -61 -32 -153h-98q69 371 210 700h115q139 -325 209 -700h-98zM202 237h236q-45 186 -118 391q-73 -205 -118 -391z" />
    <glyph glyph-name="abreve" unicode="&#x103;" 
d="M326 633q-64 0 -108 44t-44 108h69q0 -37 23 -60t60 -23t60 23t23 60h69q0 -64 -44 -108t-108 -44zM555 0h-89l-20 109q-56 -119 -191 -119q-79 0 -123 39.5t-44 110.5q0 93 81 140.5t265 48.5v47q0 101 -113 101q-90 0 -184 -47v86q102 44 195 44q91 0 141.5 -46.5
t50.5 -128.5v-216zM276 73q70 0 114 43t44 109v44q-136 -1 -194.5 -26.5t-58.5 -86.5q0 -83 95 -83z" />
    <glyph glyph-name="Aogonek" unicode="&#x104;" 
d="M467 -89q0 -41 47 -41q32 0 73 24v-67q-55 -32 -111 -32q-46 0 -73.5 24t-27.5 62q0 39 31.5 73.5t80.5 56.5q-10 55 -29 142h-275q-15 -61 -32 -153h-98q69 371 210 700h115q139 -325 209 -700q-120 -32 -120 -89zM202 237h236q-45 186 -118 391q-73 -205 -118 -391z
" />
    <glyph glyph-name="aogonek" unicode="&#x105;" 
d="M435 -89q0 -41 47 -41q32 0 73 24v-67q-55 -32 -111 -32q-46 0 -73.5 24t-27.5 62q0 41 33.5 76.5t86.5 57.5l-17 94q-56 -119 -191 -119q-79 0 -123 39.5t-44 110.5q0 93 81 140.5t265 48.5v47q0 101 -113 101q-90 0 -184 -47v86q102 44 195 44q91 0 141.5 -46.5
t50.5 -128.5v-216l31 -169q-120 -32 -120 -89zM276 73q70 0 114 43t44 109v44q-136 -1 -194.5 -26.5t-58.5 -86.5q0 -83 95 -83z" />
    <glyph glyph-name="Cacute" unicode="&#x106;" 
d="M376 780h-82l104 155h124zM484 412q0 110 -39 161t-119 51q-89 0 -128 -64.5t-39 -210.5t39 -209t129 -63q105 0 212 68v-97q-111 -58 -223 -58q-121 0 -187.5 89t-66.5 251q0 182 71.5 281t202.5 99q114 0 179.5 -78.5t65.5 -219.5h-97z" />
    <glyph glyph-name="cacute" unicode="&#x107;" 
d="M380 630h-82l104 155h124zM469 351q0 69 -31 99t-101 30q-87 0 -122 -47t-35 -159q0 -109 37.5 -155t128.5 -46q97 0 185 59v-87q-90 -55 -197 -55q-116 0 -181.5 71t-65.5 199q0 143 66.5 221.5t185.5 78.5q99 0 161 -57t62 -152h-93z" />
    <glyph glyph-name="Cdotaccent" unicode="&#x10a;" 
d="M274 931h121v-134h-121v134zM484 412q0 110 -39 161t-119 51q-89 0 -128 -64.5t-39 -210.5t39 -209t129 -63q105 0 212 68v-97q-111 -58 -223 -58q-121 0 -187.5 89t-66.5 251q0 182 71.5 281t202.5 99q114 0 179.5 -78.5t65.5 -219.5h-97z" />
    <glyph glyph-name="cdotaccent" unicode="&#x10b;" 
d="M278 781h121v-134h-121v134zM469 351q0 69 -31 99t-101 30q-87 0 -122 -47t-35 -159q0 -109 37.5 -155t128.5 -46q97 0 185 59v-87q-90 -55 -197 -55q-116 0 -181.5 71t-65.5 199q0 143 66.5 221.5t185.5 78.5q99 0 161 -57t62 -152h-93z" />
    <glyph glyph-name="Ccaron" unicode="&#x10c;" 
d="M391 780h-114l-114 155h79l92 -98l92 98h79zM159 349q0 -146 39 -209t129 -63q105 0 212 68v-97q-111 -58 -223 -58q-121 0 -187.5 89t-66.5 251q0 182 71.5 281t202.5 99q114 0 179.5 -78.5t65.5 -219.5h-97q0 110 -39 161t-119 51q-89 0 -128 -64.5t-39 -210.5z" />
    <glyph glyph-name="ccaron" unicode="&#x10d;" 
d="M395 630h-114l-114 155h79l92 -98l92 98h79zM180 274q0 -109 37.5 -155t128.5 -46q97 0 185 59v-87q-90 -55 -197 -55q-116 0 -181.5 71t-65.5 199q0 143 66.5 221.5t185.5 78.5q99 0 161 -57t62 -152h-93q0 69 -31 99t-101 30q-87 0 -122 -47t-35 -159z" />
    <glyph glyph-name="Dcaron" unicode="&#x10e;" 
d="M350 780h-114l-114 155h79l92 -98l92 98h79zM323 700q127 0 194 -84t67 -247q0 -182 -72 -275.5t-209 -93.5h-211v700h231zM308 84q98 0 138.5 60t40.5 206t-40.5 206.5t-137.5 60.5h-123v-533h122z" />
    <glyph glyph-name="dcaron" unicode="&#x10f;" 
d="M593 800h108l-87 -190h-57zM411 473v267h89v-740h-67l-15 94q-54 -104 -171 -104q-100 0 -154.5 73t-54.5 207q0 138 54.5 214t154.5 76q110 0 164 -87zM271 70q76 0 108 45.5t32 154.5q0 113 -32 161.5t-108 48.5q-75 0 -107 -45.5t-32 -154.5q0 -113 32 -161.5
t107 -48.5z" />
    <glyph glyph-name="Dcroat" unicode="&#x110;" 
d="M323 700q127 0 194 -84t67 -247q0 -182 -72 -275.5t-209 -93.5h-211v315h-55v76h55v309h231zM308 84q98 0 138.5 60t40.5 206t-40.5 206.5t-137.5 60.5h-123v-226h131v-76h-131v-231h122z" />
    <glyph glyph-name="dcroat" unicode="&#x111;" 
d="M602 675v-69h-58v-606h-67l-15 94q-55 -104 -171 -104q-100 0 -154.5 73t-54.5 207q0 138 54.5 214t154.5 76q108 0 164 -87v133h-116v69h116v65h89v-65h58zM315 70q76 0 108 45.5t32 154.5q0 113 -32 161.5t-108 48.5t-107.5 -45.5t-31.5 -154.5q0 -113 32 -161.5
t107 -48.5z" />
    <glyph glyph-name="Emacron" unicode="&#x112;" 
d="M469 875v-69h-263v69h263zM551 617h-340v-212h307v-84h-307v-237h340v-84h-434v700h434v-83z" />
    <glyph glyph-name="emacron" unicode="&#x113;" 
d="M465 725v-69h-263v69h263zM564 291q0 -33 -1 -50h-391q6 -90 45.5 -129t116.5 -39q98 0 188 56v-86q-91 -53 -197 -53q-116 0 -181.5 69t-65.5 199q0 139 68 220.5t190 81.5q111 0 169.5 -69.5t58.5 -199.5zM329 477q-76 0 -113 -36.5t-43 -122.5h297q-5 87 -36.5 123
t-104.5 36z" />
    <glyph glyph-name="Edotaccent" unicode="&#x116;" 
d="M398 931v-134h-121v134h121zM551 617h-340v-212h307v-84h-307v-237h340v-84h-434v700h434v-83z" />
    <glyph glyph-name="edotaccent" unicode="&#x117;" 
d="M394 781v-134h-121v134h121zM564 291q0 -33 -1 -50h-391q6 -90 45.5 -129t116.5 -39q98 0 188 56v-86q-91 -53 -197 -53q-116 0 -181.5 69t-65.5 199q0 139 68 220.5t190 81.5q111 0 169.5 -69.5t58.5 -199.5zM329 477q-76 0 -113 -36.5t-43 -122.5h297q-5 87 -36.5 123
t-104.5 36z" />
    <glyph glyph-name="Eogonek" unicode="&#x118;" 
d="M551 617h-340v-212h307v-84h-307v-237h340v-84q-120 -32 -120 -89q0 -41 47 -41q32 0 73 24v-67q-55 -32 -111 -32q-46 0 -73.5 24t-27.5 62q0 69 90 119h-312v700h434v-83z" />
    <glyph glyph-name="eogonek" unicode="&#x119;" 
d="M336 560q112 0 170 -69.5t58 -199.5q0 -33 -1 -50h-391q6 -90 45.5 -129t116.5 -39q98 0 188 56v-86q-51 -29 -102 -41q-57 -14 -90.5 -39t-33.5 -55q0 -17 12 -27.5t36 -10.5q34 0 72 24v-80q-57 -33 -111 -33q-46 0 -73.5 25.5t-27.5 65.5q0 69 82 121
q-99 11 -153.5 79t-54.5 186q0 139 68 220.5t190 81.5zM329 477q-76 0 -113 -36.5t-43 -122.5h297q-5 88 -36.5 123.5t-104.5 35.5z" />
    <glyph glyph-name="Ecaron" unicode="&#x11a;" 
d="M394 780h-114l-114 155h79l92 -98l92 98h79zM551 617h-340v-212h307v-84h-307v-237h340v-84h-434v700h434v-83z" />
    <glyph glyph-name="ecaron" unicode="&#x11b;" 
d="M390 630h-114l-114 155h79l92 -98l92 98h79zM564 291q0 -33 -1 -50h-391q6 -90 45.5 -129t116.5 -39q98 0 188 56v-86q-91 -53 -197 -53q-116 0 -181.5 69t-65.5 199q0 139 68 220.5t190 81.5q111 0 169.5 -69.5t58.5 -199.5zM329 477q-76 0 -113 -36.5t-43 -122.5h297
q-5 87 -36.5 123t-104.5 36z" />
    <glyph glyph-name="Gbreve" unicode="&#x11e;" 
d="M361 783q-64 0 -108 44t-44 108h69q0 -37 23 -60t60 -23t60 23t23 60h69q0 -64 -44 -108t-108 -44zM325 354h250v-270q-48 -41 -117.5 -67.5t-145.5 -26.5q-121 0 -187.5 89t-66.5 251q0 182 79 281t224 99q73 0 181 -36v-94q-107 44 -191 44q-105 0 -150.5 -63.5
t-45.5 -211.5t38.5 -211t127.5 -61q86 1 159 41v152h-155v84z" />
    <glyph glyph-name="gbreve" unicode="&#x11f;" 
d="M324 633q-64 0 -108 44t-44 108h69q0 -37 23 -60t60 -23t60 23t23 60h69q0 -64 -44 -108t-108 -44zM229 129q184 -2 273.5 -36.5t89.5 -114.5q0 -91 -122 -134.5t-389 -43.5v84q157 0 251 11.5t130 30.5t36 48q0 80 -305 80l-52 53l49 142q-95 39 -95 136q0 83 61.5 129
t171.5 46q62 0 110 -17l39 110h104l-94 -136q55 -43 55 -116q0 -81 -61.5 -126.5t-170.5 -45.5q-32 0 -64 5zM319 477q-68 0 -99 -19.5t-31 -62.5t31 -62.5t99 -19.5t99 19.5t31 62.5t-31 62.5t-99 19.5z" />
    <glyph glyph-name="Gdotaccent" unicode="&#x120;" 
d="M422 931v-134h-121v134h121zM325 354h250v-270q-48 -41 -117.5 -67.5t-145.5 -26.5q-121 0 -187.5 89t-66.5 251q0 182 79 281t224 99q73 0 181 -36v-94q-107 44 -191 44q-105 0 -150.5 -63.5t-45.5 -211.5t38.5 -211t127.5 -61q86 1 159 41v152h-155v84z" />
    <glyph glyph-name="gdotaccent" unicode="&#x121;" 
d="M385 781v-134h-121v134h121zM229 129q184 -2 273.5 -36.5t89.5 -114.5q0 -91 -122 -134.5t-389 -43.5v84q157 0 251 11.5t130 30.5t36 48q0 80 -305 80l-52 53l49 142q-95 39 -95 136q0 83 61.5 129t171.5 46q62 0 110 -17l39 110h104l-94 -136q55 -43 55 -116
q0 -81 -61.5 -126.5t-170.5 -45.5q-32 0 -64 5zM319 477q-68 0 -99 -19.5t-31 -62.5t31 -62.5t99 -19.5t99 19.5t31 62.5t-31 62.5t-99 19.5z" />
    <glyph glyph-name="uni0122" unicode="&#x122;" 
d="M325 354h250v-270q-48 -41 -117.5 -67.5t-145.5 -26.5q-121 0 -187.5 89t-66.5 251q0 182 79 281t224 99q73 0 181 -36v-94q-107 44 -191 44q-105 0 -150.5 -63.5t-45.5 -211.5t38.5 -211t127.5 -61q86 1 159 41v152h-155v84zM271 -161v102h97v-102l-51 -109h-66l77 109
h-57z" />
    <glyph glyph-name="uni0123" unicode="&#x123;" 
d="M369 713v-101h-98v101l52 109h66l-77 -109h57zM229 129q184 -2 273.5 -36.5t89.5 -114.5q0 -91 -122 -134.5t-389 -43.5v84q157 0 251 11.5t130 30.5t36 48q0 80 -305 80l-52 53l49 142q-95 39 -95 136q0 83 61.5 129t171.5 46q62 0 110 -17l39 110h104l-94 -136
q55 -43 55 -116q0 -81 -61.5 -126.5t-170.5 -45.5q-32 0 -64 5zM319 477q-68 0 -99 -19.5t-31 -62.5t31 -62.5t99 -19.5t99 19.5t31 62.5t-31 62.5t-99 19.5z" />
    <glyph glyph-name="Hbar" unicode="&#x126;" 
d="M623 597v-74h-75v-523h-94v321h-268v-321h-94v523h-75v74h75v103h94v-103h268v103h94v-103h75zM454 405v118h-268v-118h268z" />
    <glyph glyph-name="hbar" unicode="&#x127;" 
d="M395 560q67 0 103.5 -42t36.5 -124v-394h-90v382q0 101 -79 101q-42 0 -79 -27.5t-90 -97.5v-358h-90v606h-57v69h57v65h90v-65h116v-69h-116v-175q81 129 198 129z" />
    <glyph glyph-name="Imacron" unicode="&#x12a;" 
d="M452 875v-69h-263v69h263zM550 617h-183v-533h183v-84h-460v84h183v533h-183v83h460v-83z" />
    <glyph glyph-name="imacron" unicode="&#x12b;" 
d="M484 725v-69h-263v69h263zM397 80h152v-80h-440v80h198v390h-168v80h258v-470z" />
    <glyph glyph-name="Iogonek" unicode="&#x12e;" 
d="M550 617h-183v-533h183v-84q-120 -32 -120 -89q0 -41 47 -41q32 0 73 24v-67q-55 -32 -111 -32q-46 0 -73.5 24t-27.5 62q0 69 90 119h-338v84h183v533h-183v83h460v-83z" />
    <glyph glyph-name="iogonek" unicode="&#x12f;" 
d="M413 781v-134h-121v134h121zM549 0q-120 -32 -120 -89q0 -41 47 -41q32 0 73 24v-67q-55 -32 -111 -32q-46 0 -73.5 24t-27.5 62q0 69 90 119h-318v80h198v390h-168v80h258v-470h152v-80z" />
    <glyph glyph-name="Idotaccent" unicode="&#x130;" 
d="M381 931v-134h-121v134h121zM550 617h-183v-533h183v-84h-460v84h183v533h-183v83h460v-83z" />
    <glyph glyph-name="dotlessi" unicode="&#x131;" 
d="M397 80h152v-80h-440v80h198v390h-168v80h258v-470z" />
    <glyph glyph-name="uni0136" unicode="&#x136;" 
d="M357 362l226 -362h-112l-191 323h-90v-323h-94v700h94v-296h89l184 296h112zM271 -161v102h97v-102l-51 -109h-66l77 109h-57z" />
    <glyph glyph-name="uni0137" unicode="&#x137;" 
d="M370 284l219 -284h-110l-178 245h-99v-245h-90v740h90v-415h98l171 225h110zM277 -161v102h97v-102l-51 -109h-66l77 109h-57z" />
    <glyph glyph-name="Lacute" unicode="&#x139;" 
d="M344 935l-146 -155h-82l104 155h124zM203 84h378v-84h-472v700h94v-616z" />
    <glyph glyph-name="lacute" unicode="&#x13a;" 
d="M482 975l-146 -155h-82l104 155h124zM459 73q66 0 127 38v-84q-69 -37 -143 -37q-94 0 -144 57.5t-50 171.5v441h-195v80h285v-513q0 -154 120 -154z" />
    <glyph glyph-name="uni013B" unicode="&#x13b;" 
d="M203 84h378v-84h-472v700h94v-616zM296 -161v102h97v-102l-51 -109h-66l77 109h-57z" />
    <glyph glyph-name="uni013C" unicode="&#x13c;" 
d="M459 73q66 0 127 38v-84q-69 -37 -143 -37q-94 0 -144 57.5t-50 171.5v441h-195v80h285v-513q0 -154 120 -154zM373 -161v102h97v-102l-51 -109h-66l77 109h-57z" />
    <glyph glyph-name="Lcaron" unicode="&#x13d;" 
d="M394 765l-76 -190h-57l25 190h108zM203 84h378v-84h-472v700h94v-616z" />
    <glyph glyph-name="lcaron" unicode="&#x13e;" 
d="M539 800l-87 -190h-57l36 190h108zM459 73q66 0 127 38v-84q-69 -37 -143 -37q-94 0 -144 57.5t-50 171.5v441h-195v80h285v-513q0 -154 120 -154z" />
    <glyph glyph-name="Lslash" unicode="&#x141;" 
d="M203 84h378v-84h-472v293l-83 -30v81l83 30v326h94v-293l137 49v-80l-137 -49v-243z" />
    <glyph glyph-name="lslash" unicode="&#x142;" 
d="M459 73q66 0 127 38v-84q-69 -37 -143 -37q-94 0 -144 57.5t-50 171.5v81l-107 -38v80l107 38v280h-195v80h285v-327l107 38v-80l-107 -38v-106q0 -154 120 -154z" />
    <glyph glyph-name="Nacute" unicode="&#x143;" 
d="M508 935l-146 -155h-82l104 155h124zM460 700h94v-700h-104l-270 518v-518h-94v700h104l270 -516v516z" />
    <glyph glyph-name="nacute" unicode="&#x144;" 
d="M513 785l-146 -155h-82l104 155h124zM396 560q71 0 110.5 -42t39.5 -124v-394h-89v382q0 101 -90 101q-44 0 -83.5 -28t-95.5 -99v-356h-89v550h67l17 -129q86 139 213 139z" />
    <glyph glyph-name="uni0145" unicode="&#x145;" 
d="M460 700h94v-700h-104l-270 518v-518h-94v700h104l270 -516v516zM271 -161v102h97v-102l-51 -109h-66l77 109h-57z" />
    <glyph glyph-name="uni0146" unicode="&#x146;" 
d="M396 560q71 0 110.5 -42t39.5 -124v-394h-89v382q0 101 -90 101q-44 0 -83.5 -28t-95.5 -99v-356h-89v550h67l17 -129q86 139 213 139zM276 -161v102h97v-102l-51 -109h-66l77 109h-57z" />
    <glyph glyph-name="Ncaron" unicode="&#x147;" 
d="M377 780h-114l-114 155h79l92 -98l92 98h79zM460 700h94v-700h-104l-270 518v-518h-94v700h104l270 -516v516z" />
    <glyph glyph-name="ncaron" unicode="&#x148;" 
d="M382 630h-114l-114 155h79l92 -98l92 98h79zM396 560q71 0 110.5 -42t39.5 -124v-394h-89v382q0 101 -90 101q-44 0 -83.5 -28t-95.5 -99v-356h-89v550h67l17 -129q86 139 213 139z" />
    <glyph glyph-name="Eng" unicode="&#x14a;" 
d="M460 700h94v-779q0 -57 -32.5 -89t-90.5 -32q-57 0 -124 26v86q68 -29 104 -29q49 0 49 46v69l-280 521v-519h-94v700h104l270 -502v502z" />
    <glyph glyph-name="eng" unicode="&#x14b;" 
d="M392 560q73 0 113.5 -43.5t40.5 -122.5v-374q0 -104 -61 -162t-163 -58v82q64 0 99.5 37t35.5 103v360q0 54 -20.5 77.5t-65.5 23.5q-47 0 -87 -28t-96 -99v-356h-89v550h67l17 -129q86 139 209 139z" />
    <glyph glyph-name="Omacron" unicode="&#x14c;" 
d="M189 875h263v-69h-263v69zM310 -10q-120 0 -186 89t-66 251q0 182 71.5 281t202.5 99q119 0 184.5 -88.5t65.5 -250.5q0 -182 -71 -281.5t-201 -99.5zM320 77q89 0 127 63t38 212q0 147 -37.5 209.5t-126.5 62.5q-90 0 -128 -63t-38 -212q0 -148 38 -210t127 -62z" />
    <glyph glyph-name="omacron" unicode="&#x14d;" 
d="M189 725h263v-69h-263v69zM310 -10q-111 0 -171 70.5t-60 199.5q0 143 66 221.5t185 78.5q111 0 171.5 -70t60.5 -199q0 -144 -66 -222.5t-186 -78.5zM320 73q81 0 114.5 46.5t33.5 157.5q0 110 -33.5 155t-114.5 45q-80 0 -114 -46t-34 -157q0 -110 33.5 -155.5
t114.5 -45.5z" />
    <glyph glyph-name="Ohungarumlaut" unicode="&#x150;" 
d="M298 780h-54l33 155h116zM418 780h-59l94 155h123zM310 -10q-120 0 -186 89t-66 251q0 182 71.5 281t202.5 99q119 0 184.5 -88.5t65.5 -250.5q0 -182 -71 -281.5t-201 -99.5zM320 77q89 0 127 63t38 212q0 147 -37.5 209.5t-126.5 62.5q-90 0 -128 -63t-38 -212
q0 -148 38 -210t127 -62z" />
    <glyph glyph-name="ohungarumlaut" unicode="&#x151;" 
d="M298 630h-54l33 155h116zM418 630h-59l94 155h123zM310 -10q-111 0 -171 70.5t-60 199.5q0 143 66 221.5t185 78.5q111 0 171.5 -70t60.5 -199q0 -144 -66 -222.5t-186 -78.5zM320 73q81 0 114.5 46.5t33.5 157.5q0 110 -33.5 155t-114.5 45q-80 0 -114 -46t-34 -157
q0 -110 33.5 -155.5t114.5 -45.5z" />
    <glyph glyph-name="OE" unicode="&#x152;" 
d="M618 617h-211v-212h178v-84h-178v-237h211v-84h-251q-33 -10 -75 -10q-121 0 -187 89t-66 251q0 181 71.5 280.5t202.5 99.5q35 0 72 -10h233v-83zM136 349q0 -148 38 -210t127 -62h11v547h-10q-89 0 -127.5 -63.5t-38.5 -211.5z" />
    <glyph glyph-name="oe" unicode="&#x153;" 
d="M618 291q0 -35 -1 -50h-254q3 -90 26.5 -129t72.5 -39q64 0 125 45v-86q-61 -42 -130 -42q-93 0 -137 87q-46 -87 -134 -87q-77 0 -119 71t-42 200q0 143 45.5 221t128.5 78q85 0 128 -86q45 86 132 86q77 0 118 -70t41 -199zM200 73q46 0 65 46.5t19 157.5
q0 110 -19 155t-65 45q-45 0 -64 -46t-19 -157q0 -110 19 -155.5t64 -45.5zM450 477q-42 0 -62.5 -36.5t-24.5 -122.5h164q-2 86 -19.5 122.5t-57.5 36.5z" />
    <glyph glyph-name="Racute" unicode="&#x154;" 
d="M496 935l-146 -155h-82l104 155h124zM453 0l-147 299h-113v-299h-94v700h246q104 0 160.5 -49t56.5 -140q0 -82 -41 -134.5t-118 -69.5l163 -307h-113zM193 617v-234h141q71 0 101 27t30 90t-29.5 90t-100.5 27h-142z" />
    <glyph glyph-name="racute" unicode="&#x155;" 
d="M510 785l-146 -155h-82l104 155h124zM577 472q-157 0 -262 -84v-308h208v-80h-440v80h142v390h-112v80h180l17 -109q46 60 119.5 95t147.5 35v-99z" />
    <glyph glyph-name="uni0156" unicode="&#x156;" 
d="M403 307l163 -307h-113l-147 299h-113v-299h-94v700h246q104 0 160.5 -49t56.5 -140q0 -82 -41 -134.5t-118 -69.5zM193 617v-234h141q71 0 101 27t30 90t-29.5 90t-100.5 27h-142zM263 -161v102h97v-102l-51 -109h-66l77 109h-57z" />
    <glyph glyph-name="uni0157" unicode="&#x157;" 
d="M577 472q-157 0 -262 -84v-308h208v-80h-440v80h142v390h-112v80h180l17 -109q46 60 119.5 95t147.5 35v-99zM235 -161v102h97v-102l-51 -109h-66l77 109h-57z" />
    <glyph glyph-name="Rcaron" unicode="&#x158;" 
d="M365 780h-114l-114 155h79l92 -98l92 98h79zM453 0l-147 299h-113v-299h-94v700h246q104 0 160.5 -49t56.5 -140q0 -82 -41 -134.5t-118 -69.5l163 -307h-113zM193 617v-234h141q71 0 101 27t30 90t-29.5 90t-100.5 27h-142z" />
    <glyph glyph-name="rcaron" unicode="&#x159;" 
d="M379 630h-114l-114 155h79l92 -98l92 98h79zM577 472q-157 0 -262 -84v-308h208v-80h-440v80h142v390h-112v80h180l17 -109q46 60 119.5 95t147.5 35v-99z" />
    <glyph glyph-name="Sacute" unicode="&#x15a;" 
d="M365 780h-82l104 155h124zM107 115q103 -40 184 -40q159 0 159 103q0 36 -19.5 61.5t-51 39.5t-69.5 25.5t-76 25.5t-69.5 33.5t-51 56t-19.5 86.5q0 97 64 150.5t176 53.5q94 0 182 -38v-95q-105 47 -185 47q-140 0 -140 -106q0 -39 19.5 -65.5t51 -40.5t69.5 -25
t76 -24t69.5 -32t51 -54.5t19.5 -85.5q0 -97 -67 -149t-184 -52q-89 0 -189 31v94z" />
    <glyph glyph-name="sacute" unicode="&#x15b;" 
d="M362 630h-82l104 155h124zM113 117q95 -44 191 -44q132 0 132 73q0 35 -33.5 55t-81 30t-95 23t-81 48t-33.5 92q0 75 53.5 120.5t153.5 45.5q97 0 186 -36v-85q-87 38 -173 38q-129 0 -129 -75q0 -38 33.5 -58.5t81.5 -30.5t96 -23t81.5 -47t33.5 -91
q0 -73 -55.5 -117.5t-161.5 -44.5q-114 0 -199 41v86z" />
    <glyph glyph-name="Scedilla" unicode="&#x15e;" 
d="M107 115q103 -40 184 -40q159 0 159 103q0 36 -19.5 61.5t-51 39.5t-69.5 25.5t-76 25.5t-69.5 33.5t-51 56t-19.5 86.5q0 97 64 150.5t176 53.5q94 0 182 -38v-95q-105 47 -185 47q-140 0 -140 -106q0 -39 19.5 -65.5t51 -40.5t69.5 -25t76 -24t69.5 -32t51 -54.5
t19.5 -85.5q0 -97 -67 -149t-184 -52q-89 0 -189 31v94zM235 -206v68q53 0 75.5 9t22.5 31q0 31 -57 31v36q140 0 140 -78q0 -44 -47 -70.5t-134 -26.5z" />
    <glyph glyph-name="scedilla" unicode="&#x15f;" 
d="M113 117q95 -44 191 -44q132 0 132 73q0 35 -33.5 55t-81 30t-95 23t-81 48t-33.5 92q0 75 53.5 120.5t153.5 45.5q97 0 186 -36v-85q-87 38 -173 38q-129 0 -129 -75q0 -38 33.5 -58.5t81.5 -30.5t96 -23t81.5 -47t33.5 -91q0 -73 -55.5 -117.5t-161.5 -44.5
q-114 0 -199 41v86zM236 -206v68q53 0 75.5 9t22.5 31q0 31 -57 31v36q140 0 140 -78q0 -44 -47 -70.5t-134 -26.5z" />
    <glyph glyph-name="Scaron" unicode="&#x160;" 
d="M380 780h-114l-114 155h79l92 -98l92 98h79zM191 518q0 -39 19.5 -65.5t51 -40.5t69.5 -25t76 -24t69.5 -32t51 -54.5t19.5 -85.5q0 -97 -67 -149t-184 -52q-89 0 -189 31v94q103 -40 184 -40q159 0 159 103q0 36 -19.5 61.5t-51 39.5t-69.5 25.5t-76 25.5t-69.5 33.5
t-51 56t-19.5 86.5q0 97 64 150.5t176 53.5q94 0 182 -38v-95q-105 47 -185 47q-140 0 -140 -106z" />
    <glyph glyph-name="scaron" unicode="&#x161;" 
d="M377 630h-114l-114 155h79l92 -98l92 98h79zM203 402q0 -38 33.5 -58.5t81.5 -30.5t96 -23t81.5 -47t33.5 -91q0 -73 -55.5 -117.5t-161.5 -44.5q-114 0 -199 41v86q95 -44 191 -44q132 0 132 73q0 35 -33.5 55t-81 30t-95 23t-81 48t-33.5 92q0 75 53.5 120.5
t153.5 45.5q97 0 186 -36v-85q-87 38 -173 38q-129 0 -129 -75z" />
    <glyph glyph-name="uni0162" unicode="&#x162;" 
d="M578 700v-83h-211v-617h-94v617h-210v83h515zM289 -31q140 0 140 -78q0 -44 -47 -70.5t-134 -26.5v68q53 0 75.5 9t22.5 31q0 31 -57 31v36z" />
    <glyph glyph-name="uni0163" unicode="&#x163;" 
d="M534 470h-240v-285q0 -57 27 -84.5t91 -27.5t122 26v-86q-66 -23 -131 -23q-99 0 -149 49.5t-50 133.5v297h-127v58l127 22l21 123h69v-123h240v-80zM344 -31q140 0 140 -78q0 -44 -47 -70.5t-134 -26.5v68q53 0 75.5 9t22.5 31q0 31 -57 31v36z" />
    <glyph glyph-name="Tcaron" unicode="&#x164;" 
d="M377 780h-114l-114 155h79l92 -98l92 98h79zM578 700v-83h-211v-617h-94v617h-210v83h515z" />
    <glyph glyph-name="tcaron" unicode="&#x165;" 
d="M494 800l-87 -190h-57l36 190h108zM534 470h-240v-285q0 -57 27 -84.5t91 -27.5t122 26v-86q-66 -23 -131 -23q-99 0 -149 49.5t-50 133.5v297h-127v58l127 22l21 123h69v-123h240v-80z" />
    <glyph glyph-name="Tbar" unicode="&#x166;" 
d="M578 617h-211v-233h113v-75h-113v-309h-94v309h-112v75h112v233h-210v83h515v-83z" />
    <glyph glyph-name="tbar" unicode="&#x167;" 
d="M534 470h-240v-116h144v-68h-144v-101q0 -57 27 -84.5t91 -27.5t122 26v-86q-66 -23 -131 -23q-99 0 -149 49.5t-50 133.5v113h-82v68h82v116h-127v58l127 22l21 123h69v-123h240v-80z" />
    <glyph glyph-name="Umacron" unicode="&#x16a;" 
d="M190 875h263v-69h-263v69zM314 -10q-109 0 -167.5 61.5t-58.5 176.5v472h95v-458q0 -89 31.5 -127t107.5 -38q74 0 105.5 38t31.5 128v457h95v-443q0 -130 -62 -198.5t-178 -68.5z" />
    <glyph glyph-name="umacron" unicode="&#x16b;" 
d="M451 725v-69h-263v69h263zM452 550h90v-550h-68l-17 129q-86 -139 -213 -139q-71 0 -110.5 42t-39.5 124v394h90v-382q0 -101 89 -101q44 0 83.5 28t95.5 98v357z" />
    <glyph glyph-name="Uring" unicode="&#x16e;" 
d="M321 776q-44 0 -74.5 30t-30.5 73t30.5 73t74.5 30q45 0 75 -29.5t30 -73.5t-30 -73.5t-75 -29.5zM321 830q22 0 35 13.5t13 35.5q0 23 -13 36.5t-35 13.5t-34.5 -13.5t-12.5 -36.5t12.5 -36t34.5 -13zM314 -10q-109 0 -167.5 61.5t-58.5 176.5v472h95v-458
q0 -89 31.5 -127t107.5 -38q74 0 105.5 38t31.5 128v457h95v-443q0 -130 -62 -198.5t-178 -68.5z" />
    <glyph glyph-name="uring" unicode="&#x16f;" 
d="M319 626q-44 0 -74.5 30t-30.5 73t30.5 73t74.5 30q45 0 75 -29.5t30 -73.5t-30 -73.5t-75 -29.5zM319 779q-22 0 -34.5 -13.5t-12.5 -36.5t12.5 -36t34.5 -13t35 13.5t13 35.5q0 23 -13 36.5t-35 13.5zM452 550h90v-550h-68l-17 129q-86 -139 -213 -139q-71 0 -110.5 42
t-39.5 124v394h90v-382q0 -101 89 -101q44 0 83.5 28t95.5 98v357z" />
    <glyph glyph-name="Uhungarumlaut" unicode="&#x170;" 
d="M299 780h-54l33 155h116zM419 780h-59l94 155h123zM314 -10q-109 0 -167.5 61.5t-58.5 176.5v472h95v-458q0 -89 31.5 -127t107.5 -38q74 0 105.5 38t31.5 128v457h95v-443q0 -130 -62 -198.5t-178 -68.5z" />
    <glyph glyph-name="uhungarumlaut" unicode="&#x171;" 
d="M392 785l-95 -155h-54l33 155h116zM417 630h-59l94 155h123zM452 193v357h90v-550h-68l-17 129q-86 -139 -213 -139q-71 0 -110.5 42t-39.5 124v394h90v-382q0 -101 89 -101q44 0 83.5 28t95.5 98z" />
    <glyph glyph-name="Uogonek" unicode="&#x172;" 
d="M458 700h95v-443q0 -199 -145 -251q-109 -41 -109 -95q0 -41 49 -41q32 0 72 24v-80q-59 -33 -111 -33q-47 0 -74 26t-27 66q0 66 74 119q-95 8 -145 68t-50 167v473h95v-459q0 -89 31.5 -126.5t107.5 -37.5q74 0 105.5 38t31.5 128v457z" />
    <glyph glyph-name="uogonek" unicode="&#x173;" 
d="M542 0q-120 -32 -120 -89q0 -41 47 -41q32 0 73 24v-67q-55 -32 -111 -32q-46 0 -73.5 24t-27.5 62q0 45 40.5 83t100.5 59l-14 106q-86 -139 -213 -139q-71 0 -110.5 42t-39.5 124v394h90v-382q0 -101 89 -101q44 0 83.5 28t95.5 98v357h90v-550z" />
    <glyph glyph-name="Wcircumflex" unicode="&#x174;" 
d="M320 878l-92 -98h-79l114 155h114l114 -155h-79zM500 700h96q0 -345 -86 -700h-122l-68 270l-68 -270h-121q-87 359 -87 700h96q0 -298 57 -613l102 405h43l102 -407q56 326 56 615z" />
    <glyph glyph-name="wcircumflex" unicode="&#x175;" 
d="M318 728l-92 -98h-79l114 155h114l114 -155h-79zM488 550h88q-3 -278 -83 -550h-104l-71 210l-70 -210h-104q-81 278 -83 550h87q1 -220 53 -474l103 311h28l103 -309q52 245 53 472z" />
    <glyph glyph-name="Ycircumflex" unicode="&#x176;" 
d="M320 878l-92 -98h-79l114 155h114l114 -155h-79zM594 700l-227 -465v-235h-94v235l-227 465h112l162 -358l162 358h112z" />
    <glyph glyph-name="ycircumflex" unicode="&#x177;" 
d="M320 728l-92 -98h-79l114 155h114l114 -155h-79zM478 550h98l-192 -562q-64 -188 -286 -188v84q85 0 133 28.5t69 87.5h-48l-188 550h98l158 -498z" />
    <glyph glyph-name="Ydieresis" unicode="&#x178;" 
d="M275 915v-116h-109v116h109zM474 915v-116h-109v116h109zM594 700l-227 -465v-235h-94v235l-227 465h112l162 -358l162 358h112z" />
    <glyph glyph-name="Zacute" unicode="&#x179;" 
d="M508 935l-146 -155h-82l104 155h124zM178 84h383v-84h-481v96l374 521h-366v83h465v-95z" />
    <glyph glyph-name="zacute" unicode="&#x17a;" 
d="M504 785l-146 -155h-82l104 155h124zM200 80h339v-80h-438v91l331 379h-323v80h422v-91z" />
    <glyph glyph-name="Zdotaccent" unicode="&#x17b;" 
d="M381 931v-134h-121v134h121zM178 84h383v-84h-481v96l374 521h-366v83h465v-95z" />
    <glyph glyph-name="zdotaccent" unicode="&#x17c;" 
d="M377 781v-134h-121v134h121zM200 80h339v-80h-438v91l331 379h-323v80h422v-91z" />
    <glyph glyph-name="Zcaron" unicode="&#x17d;" 
d="M377 780h-114l-114 155h79l92 -98l92 98h79zM178 84h383v-84h-481v96l374 521h-366v83h465v-95z" />
    <glyph glyph-name="zcaron" unicode="&#x17e;" 
d="M373 630h-114l-114 155h79l92 -98l92 98h79zM200 80h339v-80h-438v91l331 379h-323v80h422v-91z" />
    <glyph glyph-name="florin" unicode="&#x192;" 
d="M451 628q-28 0 -41.5 -11.5t-17.5 -39.5l-17 -142h109v-80h-119l-29 -239q-7 -60 -42.5 -92.5t-93.5 -32.5q-48 0 -103 20v88q51 -24 92 -24q28 0 41.5 11.5t17.5 39.5l28 229h-108v80h118l19 152q7 60 42 92t93 32q52 0 103 -20v-88q-50 25 -92 25z" />
    <glyph glyph-name="uni0218" unicode="&#x218;" 
d="M191 518q0 -39 19.5 -65.5t51 -40.5t69.5 -25t76 -24t69.5 -32t51 -54.5t19.5 -85.5q0 -97 -67 -149t-184 -52q-89 0 -189 31v94q103 -40 184 -40q159 0 159 103q0 36 -19.5 61.5t-51 39.5t-69.5 25.5t-76 25.5t-69.5 33.5t-51 56t-19.5 86.5q0 97 64 150.5t176 53.5
q94 0 182 -38v-95q-105 47 -185 47q-140 0 -140 -106zM258 -161v102h97v-102l-51 -109h-66l77 109h-57z" />
    <glyph glyph-name="uni0219" unicode="&#x219;" 
d="M203 402q0 -38 33.5 -58.5t81.5 -30.5t96 -23t81.5 -47t33.5 -91q0 -73 -55.5 -117.5t-161.5 -44.5q-114 0 -199 41v86q95 -44 191 -44q132 0 132 73q0 35 -33.5 55t-81 30t-95 23t-81 48t-33.5 92q0 75 53.5 120.5t153.5 45.5q97 0 186 -36v-85q-87 38 -173 38
q-129 0 -129 -75zM259 -161v102h97v-102l-51 -109h-66l77 109h-57z" />
    <glyph glyph-name="uni021A" unicode="&#x21a;" 
d="M578 700v-83h-211v-617h-94v617h-210v83h515zM271 -161v102h97v-102l-51 -109h-66l77 109h-57z" />
    <glyph glyph-name="uni021B" unicode="&#x21b;" 
d="M534 470h-240v-285q0 -57 27 -84.5t91 -27.5t122 26v-86q-66 -23 -131 -23q-99 0 -149 49.5t-50 133.5v297h-127v58l127 22l21 123h69v-123h240v-80zM326 -161v102h97v-102l-51 -109h-66l77 109h-57z" />
    <glyph glyph-name="circumflex" unicode="&#x2c6;" 
d="M491 630h-79l-92 98l-92 -98h-79l114 155h114z" />
    <glyph glyph-name="caron" unicode="&#x2c7;" 
d="M412 785h79l-114 -155h-114l-114 155h79l92 -98z" />
    <glyph glyph-name="breve" unicode="&#x2d8;" 
d="M472 785q0 -64 -44 -108t-108 -44t-108 44t-44 108h69q0 -37 23 -60t60 -23t60 23t23 60h69z" />
    <glyph glyph-name="dotaccent" unicode="&#x2d9;" 
d="M260 781h121v-134h-121v134z" />
    <glyph glyph-name="ring" unicode="&#x2da;" 
d="M320 626q-44 0 -74.5 30t-30.5 73t30.5 73t74.5 30q45 0 75 -29.5t30 -73.5t-30 -73.5t-75 -29.5zM320 680q22 0 35 13.5t13 35.5q0 23 -13 36.5t-35 13.5t-34.5 -13.5t-12.5 -36.5t12.5 -36t34.5 -13z" />
    <glyph glyph-name="ogonek" unicode="&#x2db;" 
d="M0 -119q0 54 57.5 97.5t131.5 56.5l23 -35q-120 -32 -120 -89q0 -41 47 -41q32 0 73 24v-67q-55 -32 -111 -32q-46 0 -73.5 24t-27.5 62z" />
    <glyph glyph-name="tilde" unicode="&#x2dc;" 
d="M404 769h79q0 -120 -97 -120q-32 0 -55 13t-38 26t-28 13q-28 0 -28 -45h-79q0 119 97 119q31 0 54 -13t38.5 -26t28.5 -13q28 0 28 46z" />
    <glyph glyph-name="hungarumlaut" unicode="&#x2dd;" 
d="M209 630h-54l33 155h116zM329 630h-59l94 155h123z" />
    <glyph glyph-name="gravecomb" unicode="&#x300;" horiz-adv-x="0" 
d="M-282 630l-146 155h124l104 -155h-82z" />
    <glyph glyph-name="acutecomb" unicode="&#x301;" horiz-adv-x="0" 
d="M-352 630h-82l104 155h124z" />
    <glyph glyph-name="uni0302" unicode="&#x302;" horiz-adv-x="0" 
d="M-149 630h-79l-92 98l-92 -98h-79l114 155h114z" />
    <glyph glyph-name="tildecomb" unicode="&#x303;" horiz-adv-x="0" 
d="M-236 769h79q0 -120 -97 -120q-32 0 -55 13t-38 26t-28 13q-28 0 -28 -45h-79q0 119 97 119q31 0 54 -13t38.5 -26t28.5 -13q28 0 28 46z" />
    <glyph glyph-name="uni0304" unicode="&#x304;" horiz-adv-x="0" 
d="M-451 725h263v-69h-263v69z" />
    <glyph glyph-name="uni0306" unicode="&#x306;" horiz-adv-x="0" 
d="M-168 785q0 -64 -44 -108t-108 -44t-108 44t-44 108h69q0 -37 23 -60t60 -23t60 23t23 60h69z" />
    <glyph glyph-name="uni0307" unicode="&#x307;" horiz-adv-x="0" 
d="M-380 781h121v-134h-121v134z" />
    <glyph glyph-name="uni0308" unicode="&#x308;" horiz-adv-x="0" 
d="M-474 765h109v-116h-109v116zM-275 765h109v-116h-109v116z" />
    <glyph glyph-name="uni030A" unicode="&#x30a;" horiz-adv-x="0" 
d="M-320 626q-44 0 -74.5 30t-30.5 73t30.5 73t74.5 30q45 0 75 -29.5t30 -73.5t-30 -73.5t-75 -29.5zM-320 680q22 0 35 13.5t13 35.5q0 23 -13 36.5t-35 13.5t-34.5 -13.5t-12.5 -36.5t12.5 -36t34.5 -13z" />
    <glyph glyph-name="uni030B" unicode="&#x30b;" horiz-adv-x="0" 
d="M-431 630h-54l33 155h116zM-311 630h-59l94 155h123z" />
    <glyph glyph-name="uni030C" unicode="&#x30c;" horiz-adv-x="0" 
d="M-228 785h79l-114 -155h-114l-114 155h79l92 -98z" />
    <glyph glyph-name="uni0312" unicode="&#x312;" horiz-adv-x="0" 
d="M-518 837l-77 -109h57v-101h-98v101l52 109h66z" />
    <glyph glyph-name="uni0326" unicode="&#x326;" horiz-adv-x="0" 
d="M-641 -59h97v-102l-51 -109h-66l77 109h-57v102z" />
    <glyph glyph-name="uni0327" unicode="&#x327;" horiz-adv-x="0" 
d="M-640 -206v68q53 0 75.5 9t22.5 31q0 31 -57 31v36q140 0 140 -78q0 -44 -47 -70.5t-134 -26.5z" />
    <glyph glyph-name="uni0328" unicode="&#x328;" horiz-adv-x="0" 
d="M-640 -119q0 54 57.5 97.5t131.5 56.5l23 -35q-120 -32 -120 -89q0 -41 47 -41q32 0 73 24v-67q-55 -32 -111 -32q-46 0 -73.5 24t-27.5 62z" />
    <glyph glyph-name="uni0E3F" unicode="&#xe3f;" 
d="M577 205q0 -98 -62.5 -151.5t-175.5 -53.5v-100h-90v100h-141v700h141v100h90v-100q99 -3 153.5 -46.5t54.5 -121.5q0 -110 -93 -158q123 -36 123 -169zM451 511q0 58 -30.5 82t-101.5 24h-117v-212h116q72 0 102.5 24t30.5 82zM347 84q72 0 102.5 27t30.5 90
q0 65 -30.5 92.5t-101.5 27.5h-146v-237h145z" />
    <glyph glyph-name="Wgrave" unicode="&#x1e80;" 
d="M364 780h-82l-146 155h124zM500 700h96q0 -345 -86 -700h-122l-68 270l-68 -270h-121q-87 359 -87 700h96q0 -298 57 -613l102 405h43l102 -407q56 326 56 615z" />
    <glyph glyph-name="wgrave" unicode="&#x1e81;" 
d="M362 630h-82l-146 155h124zM488 550h88q-3 -278 -83 -550h-104l-71 210l-70 -210h-104q-81 278 -83 550h87q1 -220 53 -474l103 311h28l103 -309q52 245 53 472z" />
    <glyph glyph-name="Wacute" unicode="&#x1e82;" 
d="M508 935l-146 -155h-82l104 155h124zM500 700h96q0 -345 -86 -700h-122l-68 270l-68 -270h-121q-87 359 -87 700h96q0 -298 57 -613l102 405h43l102 -407q56 326 56 615z" />
    <glyph glyph-name="wacute" unicode="&#x1e83;" 
d="M506 785l-146 -155h-82l104 155h124zM488 550h88q-3 -278 -83 -550h-104l-71 210l-70 -210h-104q-81 278 -83 550h87q1 -220 53 -474l103 311h28l103 -309q52 245 53 472z" />
    <glyph glyph-name="Wdieresis" unicode="&#x1e84;" 
d="M275 915v-116h-109v116h109zM474 915v-116h-109v116h109zM500 700h96q0 -345 -86 -700h-122l-68 270l-68 -270h-121q-87 359 -87 700h96q0 -298 57 -613l102 405h43l102 -407q56 326 56 615z" />
    <glyph glyph-name="wdieresis" unicode="&#x1e85;" 
d="M273 765v-116h-109v116h109zM472 765v-116h-109v116h109zM488 550h88q-3 -278 -83 -550h-104l-71 210l-70 -210h-104q-81 278 -83 550h87q1 -220 53 -474l103 311h28l103 -309q52 245 53 472z" />
    <glyph glyph-name="uni1E9E" unicode="&#x1e9e;" 
d="M400 437q94 -15 144.5 -68t50.5 -133q0 -109 -88 -178t-243 -69v89q113 0 174 40.5t61 114.5q0 63 -46 98t-134 35l-26 73l151 178h-255v-617h-94v700h449v-97z" />
    <glyph glyph-name="Ygrave" unicode="&#x1ef2;" 
d="M364 780h-82l-146 155h124zM594 700l-227 -465v-235h-94v235l-227 465h112l162 -358l162 358h112z" />
    <glyph glyph-name="ygrave" unicode="&#x1ef3;" 
d="M364 630h-82l-146 155h124zM478 550h98l-192 -562q-64 -188 -286 -188v84q85 0 133 28.5t69 87.5h-48l-188 550h98l158 -498z" />
    <glyph glyph-name="endash" unicode="&#x2013;" 
d="M53 347h535v-74h-535v74z" />
    <glyph glyph-name="emdash" unicode="&#x2014;" 
d="M0 328h640v-52h-640v52z" />
    <glyph glyph-name="quoteleft" unicode="&#x2018;" 
d="M434 800l-122 -190h77v-148h-138v148l76 190h107z" />
    <glyph glyph-name="quoteright" unicode="&#x2019;" 
d="M251 800h138v-148l-75 -190h-107l121 190h-77v148z" />
    <glyph glyph-name="quotesinglbase" unicode="&#x201a;" 
d="M251 148h138v-148l-75 -190h-107l121 190h-77v148z" />
    <glyph glyph-name="quotedblleft" unicode="&#x201c;" 
d="M214 800h107l-122 -190h78v-148h-139v148zM546 800l-122 -190h78v-148h-138v148l75 190h107z" />
    <glyph glyph-name="quotedblright" unicode="&#x201d;" 
d="M138 652v148h139v-148l-76 -190h-107l122 190h-78zM364 800h138v-148l-76 -190h-107l122 190h-77v148z" />
    <glyph glyph-name="quotedblbase" unicode="&#x201e;" 
d="M138 0v148h139v-148l-76 -190h-107l122 190h-78zM364 148h138v-148l-76 -190h-107l122 190h-77v148z" />
    <glyph glyph-name="dagger" unicode="&#x2020;" 
d="M470 623v-59h-117v-295h-66v295h-117v59h117v117h66v-117h117z" />
    <glyph glyph-name="daggerdbl" unicode="&#x2021;" 
d="M470 564h-117v-118h117v-59h-117v-118h-66v118h-117v59h117v118h-117v59h117v117h66v-117h117v-59z" />
    <glyph glyph-name="bullet" unicode="&#x2022;" 
d="M320 194q70 0 109.5 39.5t39.5 109.5t-39.5 109.5t-109.5 39.5t-109.5 -39.5t-39.5 -109.5t39.5 -109.5t109.5 -39.5z" />
    <glyph glyph-name="ellipsis" unicode="&#x2026;" 
d="M53 0v119h112v-119h-112zM264 0v119h112v-119h-112zM475 0v119h112v-119h-112z" />
    <glyph glyph-name="perthousand" unicode="&#x2030;" 
d="M150 462q-55 0 -85.5 31t-30.5 87q0 62 33 96t92 34q55 0 85.5 -31.5t30.5 -87.5q0 -61 -33 -95t-92 -34zM97 0l279 700h62l-279 -700h-62zM155 524q54 0 54 62t-54 62t-54 -62t54 -62zM484 269q-55 0 -85.5 31.5t-30.5 87.5q0 62 33 96t92 34q55 0 85.5 -31.5
t30.5 -87.5q0 -62 -33 -96t-92 -34zM489 332q54 0 54 62q0 61 -54 61t-54 -61q0 -62 54 -62zM484 -9q-55 0 -85.5 31t-30.5 87q0 62 33 96t92 34q55 0 85.5 -31.5t30.5 -87.5q0 -61 -33 -95t-92 -34zM489 53q54 0 54 62t-54 62t-54 -62t54 -62z" />
    <glyph glyph-name="guilsinglleft" unicode="&#x2039;" 
d="M459 550l-195 -204l195 -204h-133l-145 204l145 204h133z" />
    <glyph glyph-name="guilsinglright" unicode="&#x203a;" 
d="M315 550l144 -204l-144 -204h-134l195 204l-195 204h134z" />
    <glyph glyph-name="fraction" unicode="&#x2044;" 
d="M144 -40l274 780h79l-274 -780h-79z" />
    <glyph glyph-name="uni2070" unicode="&#x2070;" 
d="M315 495q-69 0 -106.5 44.5t-37.5 125.5q0 91 41 140.5t115 49.5q68 0 105 -44.5t37 -125.5q0 -91 -40 -140.5t-114 -49.5zM320 555q45 0 64.5 28t19.5 93q0 64 -19.5 91.5t-63.5 27.5q-46 0 -65 -27.5t-19 -93.5q0 -65 19 -92t64 -27zM283 713h74v-75h-74v75z" />
    <glyph glyph-name="uni2074" unicode="&#x2074;" 
d="M459 633v-59h-60v-74h-64v74h-177v65l173 211h68v-217h60zM224 633h111v136z" />
    <glyph glyph-name="uni2075" unicode="&#x2075;" 
d="M321 731q60 0 95.5 -27t35.5 -73q0 -66 -69 -101t-195 -35v60q198 0 198 72q0 50 -84 50q-30 0 -60 -7l-53 23l29 157h217v-58h-169l-10 -68q39 7 65 7z" />
    <glyph glyph-name="uni2076" unicode="&#x2076;" 
d="M349 734q58 0 88.5 -30t30.5 -85q0 -59 -37 -92t-102 -33q-69 0 -105 40t-36 115q0 100 59 152.5t169 52.5v-60q-138 0 -161 -89q34 29 94 29zM330 554q39 0 55.5 14.5t16.5 48.5q0 35 -16 49t-56 14t-57 -14.5t-17 -48.5t17 -48.5t57 -14.5z" />
    <glyph glyph-name="uni2077" unicode="&#x2077;" 
d="M188 850h264v-64q-62 -67 -88 -132.5t-26 -153.5h-69q0 160 120 292h-201v58z" />
    <glyph glyph-name="uni2078" unicode="&#x2078;" 
d="M401 687q64 -22 64 -85q0 -50 -39.5 -78.5t-110.5 -28.5q-67 0 -103.5 26t-36.5 73q0 64 65 93q-48 22 -48 73q0 44 35.5 69.5t98.5 25.5q59 0 91 -23t32 -65q0 -51 -48 -80zM321 796q-65 0 -65 -42q0 -48 81 -53q23 3 36 17.5t13 35.5q0 42 -65 42zM320 555q41 0 60 12
t19 40q0 27 -21.5 41.5t-76.5 18.5q-60 -9 -60 -59q0 -28 18.5 -40.5t60.5 -12.5z" />
    <glyph glyph-name="uni2079" unicode="&#x2079;" 
d="M311 855q69 0 105 -40t36 -115q0 -100 -59 -152.5t-169 -52.5v60q138 0 161 89q-34 -29 -94 -29q-58 0 -88.5 30.5t-30.5 85.5q0 58 37 91t102 33zM310 669q40 0 57 14.5t17 48.5t-16.5 48.5t-57.5 14.5q-39 0 -55.5 -14.5t-16.5 -48.5t16.5 -48.5t55.5 -14.5z" />
    <glyph glyph-name="uni2080" unicode="&#x2080;" 
d="M315 -155q-69 0 -106.5 44.5t-37.5 125.5q0 91 41 140.5t115 49.5q68 0 105 -44.5t37 -125.5q0 -91 -40 -140.5t-114 -49.5zM320 -95q45 0 64.5 27.5t19.5 93.5q0 64 -19.5 91.5t-63.5 27.5q-46 0 -65 -27.5t-19 -93.5q0 -65 19 -92t64 -27zM283 63h74v-75h-74v75z" />
    <glyph glyph-name="uni2081" unicode="&#x2081;" 
d="M360 -92h92v-58h-264v58h108v233l-108 -84v72l101 71h71v-292z" />
    <glyph glyph-name="uni2082" unicode="&#x2082;" 
d="M264 -92h193v-58h-273v65l143 100q60 41 60 81q0 49 -67 49q-60 0 -125 -39v64q64 35 133 35q59 0 92 -26.5t33 -74.5q0 -72 -90 -131z" />
    <glyph glyph-name="uni2083" unicode="&#x2083;" 
d="M349 64q111 -16 111 -94q0 -59 -68 -92t-192 -33v60q102 0 148 15t46 48q0 50 -116 50l-11 48l93 76h-160v58h233v-65z" />
    <glyph glyph-name="uni2084" unicode="&#x2084;" 
d="M459 -18v-58h-60v-74h-64v74h-177v65l173 211h68v-218h60zM223 -18h112v137z" />
    <glyph glyph-name="uni2085" unicode="&#x2085;" 
d="M321 81q60 0 95.5 -27t35.5 -73q0 -66 -69 -101t-195 -35v60q198 0 198 72q0 50 -84 50q-30 0 -60 -7l-53 23l29 157h217v-58h-169l-10 -68q38 7 65 7z" />
    <glyph glyph-name="uni2086" unicode="&#x2086;" 
d="M349 84q58 0 88.5 -30.5t30.5 -85.5q0 -58 -37 -91t-102 -33q-69 0 -105 40t-36 115q0 100 59 152.5t169 52.5v-60q-138 0 -161 -89q34 29 94 29zM330 -96q40 0 56 14t16 49t-16 49t-56 14t-57 -14.5t-17 -48.5t17 -48.5t57 -14.5z" />
    <glyph glyph-name="uni2087" unicode="&#x2087;" 
d="M188 200h264v-64q-62 -67 -88 -132.5t-26 -153.5h-69q0 158 120 292h-201v58z" />
    <glyph glyph-name="uni2088" unicode="&#x2088;" 
d="M401 37q64 -22 64 -85q0 -50 -39.5 -78.5t-110.5 -28.5q-67 0 -103.5 26t-36.5 73q0 64 65 93q-48 22 -48 73q0 44 35.5 69.5t98.5 25.5q59 0 91 -23t32 -65q0 -51 -48 -80zM321 146q-65 0 -65 -42q0 -48 81 -53q23 3 36 17.5t13 35.5q0 42 -65 42zM320 -95q41 0 60 12
t19 40q0 27 -21.5 41.5t-76.5 18.5q-60 -9 -60 -60q0 -28 19 -40t60 -12z" />
    <glyph glyph-name="uni2089" unicode="&#x2089;" 
d="M311 205q69 0 105 -40t36 -115q0 -100 -59 -152.5t-169 -52.5v60q138 0 161 89q-34 -29 -94 -29q-58 0 -88.5 30.5t-30.5 85.5q0 58 37 91t102 33zM310 19q40 0 57 14.5t17 48.5t-16.5 48.5t-57.5 14.5q-39 0 -55.5 -14.5t-16.5 -48.5t16.5 -48.5t55.5 -14.5z" />
    <glyph glyph-name="Euro" unicode="&#x20ac;" 
d="M214 220q15 -76 54 -110t109 -33q94 0 200 68v-95q-103 -60 -217 -60q-99 0 -161.5 59.5t-82.5 170.5h-85v83h76v27q0 28 1 41h-77v84h86q23 124 90 189.5t172 65.5t167.5 -62t66.5 -174h-97q-2 78 -37.5 114t-104.5 36q-72 0 -111.5 -40t-52.5 -129h231l-24 -84h-213
v-22q0 -31 1 -46h192l-25 -83h-158z" />
    <glyph glyph-name="uni20B1" unicode="&#x20b1;" 
d="M359 700q115 0 178 -56t63 -159q0 -116 -68.5 -179.5t-193.5 -63.5h-108v-242h-94v242h-90v83h90v68h-90v84h90v223h223zM347 325q84 0 120 33.5t36 112.5t-36 112.5t-119 33.5h-118v-292h117z" />
    <glyph glyph-name="uni20B9" unicode="&#x20b9;" 
d="M83 700h474v-83h-474v83zM83 473v83h474v-83h-94q-12 -134 -113 -185l200 -288h-114l-177 263q-10 -1 -31 -1h-145v84h154q65 0 95.5 29.5t34.5 97.5h-284z" />
    <glyph glyph-name="uni20BA" unicode="&#x20ba;" 
d="M249 77q180 5 335 87v-88q-184 -82 -429 -82v330l-66 -21v82l66 21v71l-66 -21v82l66 21v141h94v-112l170 53v-82l-170 -53v-71l170 53v-82l-170 -53v-276z" />
    <glyph glyph-name="uni20BD" unicode="&#x20bd;" 
d="M306 269h-93v-68h203v-79h-203v-122h-94v122h-68v79h68v68h-68v79h68v352h208q115 0 177 -50.5t62 -151.5q0 -114 -67.5 -171.5t-192.5 -57.5zM469 482q0 74 -35 104.5t-118 30.5h-103v-269h102q83 0 118.5 30t35.5 104z" />
    <glyph glyph-name="uni20BF" unicode="&#x20bf;" 
d="M577 205q0 -90 -53 -143t-152 -61v-101h-64v100h-49v-100h-64v100h-87v700h87v100h64v-100h49v100h64v-102q84 -10 129.5 -52.5t45.5 -113.5q0 -110 -93 -158q123 -36 123 -169zM451 511q0 58 -30.5 82t-101.5 24h-117v-212h116q72 0 102.5 24t30.5 82zM347 84
q72 0 102.5 27t30.5 90q0 65 -30.5 92.5t-101.5 27.5h-146v-237h145z" />
    <glyph glyph-name="uni2113" unicode="&#x2113;" 
d="M516 541q0 -99 -71.5 -190t-202.5 -148q26 -127 108 -127q20 0 36 5v-83q-20 -5 -39 -5q-96 0 -153 94t-57 242q0 172 61.5 272.5t166.5 100.5q67 0 109 -42.5t42 -118.5zM233 273q193 91 193 254q0 92 -69 92q-126 0 -126 -272q0 -26 2 -74z" />
    <glyph glyph-name="uni2116" unicode="&#x2116;" 
d="M514 243q-57 0 -83 52.5t-26 165.5q0 127 28 186t89 59q56 0 82 -52t26 -167q0 -128 -28 -186t-88 -58zM269 185v515h83v-700h-101l-161 518l1 -518h-83v700h100zM518 636q-22 0 -30.5 -36.5t-8.5 -124.5t8.5 -124.5t30.5 -36.5q21 0 29.5 36t8.5 125q0 88 -8.5 124.5
t-29.5 36.5zM421 110v69h193v-69h-193z" />
    <glyph glyph-name="trademark" unicode="&#x2122;" 
d="M25 641v59h240v-59h-88v-223h-65v223h-87zM600 418h-70l-8 215l-52 -124h-43l-52 126l-7 -217h-70l16 282h90l45 -109l45 109h90z" />
    <glyph glyph-name="uni2150" unicode="&#x2150;" 
d="M452 538v-58h-264v58h108v233l-108 -84v72l101 71h71v-292h92zM65 377h511v-54h-511v54zM188 162v58h264v-64q-62 -67 -88 -132.5t-26 -153.5h-69q0 158 120 292h-201z" />
    <glyph glyph-name="uni2153" unicode="&#x2153;" 
d="M452 538v-58h-264v58h108v233l-108 -84v72l101 71h71v-292h92zM65 377h511v-54h-511v54zM349 84q111 -16 111 -94q0 -59 -68 -92t-192 -33v60q102 0 148 15t46 48q0 50 -116 50l-11 48l93 76h-160v58h233v-65z" />
    <glyph glyph-name="uni2154" unicode="&#x2154;" 
d="M457 539v-59h-273v65l143 100q60 41 60 81q0 49 -67 49q-60 0 -125 -39v64q64 35 133 35q59 0 92 -26.5t33 -74.5q0 -72 -90 -131l-97 -64h191zM65 377h511v-54h-511v54zM349 84q111 -16 111 -94q0 -59 -68 -92t-192 -33v60q102 0 148 15t46 48q0 50 -116 50l-11 48
l93 76h-160v58h233v-65z" />
    <glyph glyph-name="uni2155" unicode="&#x2155;" 
d="M452 538v-58h-264v58h108v233l-108 -84v72l101 71h71v-292h92zM65 377h511v-54h-511v54zM321 101q60 0 95.5 -27t35.5 -73q0 -66 -69 -101t-195 -35v60q198 0 198 72q0 50 -84 50q-30 0 -60 -7l-53 23l29 157h217v-58h-169l-10 -68q38 7 65 7z" />
    <glyph glyph-name="uni2156" unicode="&#x2156;" 
d="M457 539v-59h-273v65l143 100q60 41 60 81q0 49 -67 49q-60 0 -125 -39v64q64 35 133 35q59 0 92 -26.5t33 -74.5q0 -72 -90 -131l-97 -64h191zM65 377h511v-54h-511v54zM321 101q60 0 95.5 -27t35.5 -73q0 -66 -69 -101t-195 -35v60q198 0 198 72q0 50 -84 50
q-30 0 -60 -7l-53 23l29 157h217v-58h-169l-10 -68q38 7 65 7z" />
    <glyph glyph-name="uni2157" unicode="&#x2157;" 
d="M460 600q0 -59 -68 -92t-192 -33v60q102 0 148 15t46 48q0 50 -116 50l-11 48l93 76h-160v58h233v-65l-84 -71q111 -16 111 -94zM65 377h511v-54h-511v54zM321 101q60 0 95.5 -27t35.5 -73q0 -66 -69 -101t-195 -35v60q198 0 198 72q0 50 -84 50q-30 0 -60 -7l-53 23
l29 157h217v-58h-169l-10 -68q38 7 65 7z" />
    <glyph glyph-name="uni2158" unicode="&#x2158;" 
d="M335 480v74h-177v65l173 211h68v-217h60v-59h-60v-74h-64zM224 613h111v136zM65 377h511v-54h-511v54zM321 101q60 0 95.5 -27t35.5 -73q0 -66 -69 -101t-195 -35v60q198 0 198 72q0 50 -84 50q-30 0 -60 -7l-53 23l29 157h217v-58h-169l-10 -68q38 7 65 7z" />
    <glyph glyph-name="uni2159" unicode="&#x2159;" 
d="M452 538v-58h-264v58h108v233l-108 -84v72l101 71h71v-292h92zM65 377h511v-54h-511v54zM349 104q58 0 88.5 -30.5t30.5 -85.5q0 -58 -37 -91t-102 -33q-69 0 -105 40t-36 115q0 100 59 152.5t169 52.5v-60q-138 0 -161 -89q34 29 94 29zM330 -76q40 0 56 14t16 49
t-16 49t-56 14t-57 -14.5t-17 -48.5t17 -48.5t57 -14.5z" />
    <glyph glyph-name="uni215A" unicode="&#x215a;" 
d="M452 611q0 -66 -69 -101t-195 -35v60q198 0 198 72q0 50 -84 50q-30 0 -60 -7l-53 23l29 157h217v-58h-169l-10 -68q39 7 65 7q60 0 95.5 -27t35.5 -73zM65 377h511v-54h-511v54zM349 104q58 0 88.5 -30.5t30.5 -85.5q0 -58 -37 -91t-102 -33q-69 0 -105 40t-36 115
q0 100 59 152.5t169 52.5v-60q-138 0 -161 -89q34 29 94 29zM330 -76q40 0 56 14t16 49t-16 49t-56 14t-57 -14.5t-17 -48.5t17 -48.5t57 -14.5z" />
    <glyph glyph-name="oneeighth" unicode="&#x215b;" 
d="M452 538v-58h-264v58h108v233l-108 -84v72l101 71h71v-292h92zM65 377h511v-54h-511v54zM401 57q64 -22 64 -85q0 -50 -39.5 -78.5t-110.5 -28.5q-67 0 -103.5 26t-36.5 73q0 64 65 93q-48 22 -48 73q0 44 35.5 69.5t98.5 25.5q59 0 91 -23t32 -65q0 -51 -48 -80z
M321 166q-65 0 -65 -42q0 -48 81 -53q23 3 36 17.5t13 35.5q0 42 -65 42zM320 -75q41 0 60 12t19 40q0 27 -21.5 41.5t-76.5 18.5q-60 -9 -60 -60q0 -28 19 -40t60 -12z" />
    <glyph glyph-name="threeeighths" unicode="&#x215c;" 
d="M460 600q0 -59 -68 -92t-192 -33v60q102 0 148 15t46 48q0 50 -116 50l-11 48l93 76h-160v58h233v-65l-84 -71q111 -16 111 -94zM65 377h511v-54h-511v54zM401 57q64 -22 64 -85q0 -50 -39.5 -78.5t-110.5 -28.5q-67 0 -103.5 26t-36.5 73q0 64 65 93q-48 22 -48 73
q0 44 35.5 69.5t98.5 25.5q59 0 91 -23t32 -65q0 -51 -48 -80zM321 166q-65 0 -65 -42q0 -48 81 -53q23 3 36 17.5t13 35.5q0 42 -65 42zM320 -75q41 0 60 12t19 40q0 27 -21.5 41.5t-76.5 18.5q-60 -9 -60 -60q0 -28 19 -40t60 -12z" />
    <glyph glyph-name="fiveeighths" unicode="&#x215d;" 
d="M452 611q0 -66 -69 -101t-195 -35v60q198 0 198 72q0 50 -84 50q-30 0 -60 -7l-53 23l29 157h217v-58h-169l-10 -68q39 7 65 7q60 0 95.5 -27t35.5 -73zM65 377h511v-54h-511v54zM401 57q64 -22 64 -85q0 -50 -39.5 -78.5t-110.5 -28.5q-67 0 -103.5 26t-36.5 73
q0 64 65 93q-48 22 -48 73q0 44 35.5 69.5t98.5 25.5q59 0 91 -23t32 -65q0 -51 -48 -80zM321 166q-65 0 -65 -42q0 -48 81 -53q23 3 36 17.5t13 35.5q0 42 -65 42zM320 -75q41 0 60 12t19 40q0 27 -21.5 41.5t-76.5 18.5q-60 -9 -60 -60q0 -28 19 -40t60 -12z" />
    <glyph glyph-name="seveneighths" unicode="&#x215e;" 
d="M269 480q0 160 120 292h-201v58h264v-64q-62 -67 -88 -132.5t-26 -153.5h-69zM65 377h511v-54h-511v54zM401 57q64 -22 64 -85q0 -50 -39.5 -78.5t-110.5 -28.5q-67 0 -103.5 26t-36.5 73q0 64 65 93q-48 22 -48 73q0 44 35.5 69.5t98.5 25.5q59 0 91 -23t32 -65
q0 -51 -48 -80zM321 166q-65 0 -65 -42q0 -48 81 -53q23 3 36 17.5t13 35.5q0 42 -65 42zM320 -75q41 0 60 12t19 40q0 27 -21.5 41.5t-76.5 18.5q-60 -9 -60 -60q0 -28 19 -40t60 -12z" />
    <glyph glyph-name="arrowleft" unicode="&#x2190;" 
d="M604 351v-80h-431l26 -23l157 -154l-57 -57l-274 274l274 274l57 -57l-157 -153l-26 -24h431z" />
    <glyph glyph-name="arrowup" unicode="&#x2191;" 
d="M320 600l274 -274l-57 -58l-153 158l-24 26v-431h-80v431l-23 -26l-154 -158l-57 58z" />
    <glyph glyph-name="arrowright" unicode="&#x2192;" 
d="M341 585l274 -274l-274 -274l-57 57l157 154l26 23h-431v80h432l-27 24l-157 153z" />
    <glyph glyph-name="arrowdown" unicode="&#x2193;" 
d="M537 352l57 -57l-274 -274l-274 274l57 57l154 -157l23 -26v431h80v-432l24 27z" />
    <glyph glyph-name="arrowboth" unicode="&#x2194;" 
d="M442 497l186 -186l-186 -186l-49 49l80 75l33 26h-371l33 -26l80 -75l-49 -49l-186 186l186 186l49 -49l-80 -75l-34 -26h372l-33 26l-80 75z" />
    <glyph glyph-name="arrowupdn" unicode="&#x2195;" 
d="M382 159l75 80l49 -49l-186 -186l-186 186l49 49l75 -80l24 -30v446l-24 -30l-75 -80l-49 49l186 186l186 -186l-49 -49l-75 80l-24 30v-446z" />
    <glyph glyph-name="uni2196" unicode="&#x2196;" 
d="M555 149l-56 -57l-305 306l2 -36l3 -220h-81v388h387v-81l-219 3l-36 2z" />
    <glyph glyph-name="uni2197" unicode="&#x2197;" 
d="M135 530h387v-388h-81l3 220l2 35l-305 -305l-56 57l305 305l-36 -2l-219 -3v81z" />
    <glyph glyph-name="uni2198" unicode="&#x2198;" 
d="M441 480h81v-388h-387v81l219 -3l36 -2l-305 305l56 57l305 -306l-2 36z" />
    <glyph glyph-name="uni2199" unicode="&#x2199;" 
d="M250 168l36 2l219 3v-81h-387v388h81l-3 -220l-2 -34l305 304l56 -57z" />
    <glyph glyph-name="partialdiff" unicode="&#x2202;" 
d="M334 700q105 -75 167.5 -191.5t62.5 -254.5q0 -124 -66 -194t-184 -70q-113 0 -175.5 63t-62.5 176q0 123 59.5 192.5t165.5 69.5q99 0 151 -57q-67 158 -243 266h125zM322 73q76 0 112 41t36 126t-37 125.5t-114 40.5q-150 0 -150 -166q0 -167 153 -167z" />
    <glyph glyph-name="emptyset" unicode="&#x2205;" 
d="M533 520q57 -71 57 -166q0 -112 -79 -190.5t-191 -78.5q-93 0 -166 57l-47 -47l-47 46l48 48q-57 71 -57 165q0 112 78.5 191t190.5 79q95 0 166 -57l47 47l47 -47zM125 354q0 -63 36 -112l272 272q-50 36 -113 36q-81 0 -138 -57t-57 -139zM320 159q82 0 139 57t57 138
q0 64 -36 113l-273 -272q50 -36 113 -36z" />
    <glyph glyph-name="product" unicode="&#x220f;" 
d="M92 700h456v-700h-94v617h-268v-617h-94v700z" />
    <glyph glyph-name="summation" unicode="&#x2211;" 
d="M553 700v-83h-360l240 -267l-240 -266h360v-84h-466v96l233 254l-233 255v95h466z" />
    <glyph glyph-name="minus" unicode="&#x2212;" 
d="M65 351h510v-80h-510v80z" />
    <glyph glyph-name="radical" unicode="&#x221a;" 
d="M602 700v-80h-110l-215 -620h-118l-121 346h88l92 -277l211 631h173z" />
    <glyph glyph-name="infinity" unicode="&#x221e;" 
d="M457 470q59 0 94 -40t35 -104q0 -69 -39.5 -114t-100.5 -45q-25 0 -45.5 7t-37 24t-23 25.5t-21.5 30.5q-20 -27 -33 -41t-42 -30t-62 -16q-59 0 -93.5 40t-34.5 104q0 69 39 114t99 45q25 0 45.5 -7t37 -24t23 -25.5t21.5 -30.5q19 26 32.5 41t42.5 30.5t63 15.5z
M443 247q26 0 42 18t16 50t-17 53.5t-44 21.5q-50 0 -87 -71q38 -72 90 -72zM198 247q49 0 87 71q-39 71 -90 71q-26 0 -42 -18t-16 -49q0 -32 17 -53.5t44 -21.5z" />
    <glyph glyph-name="integral" unicode="&#x222b;" 
d="M455 750q51 0 103 -20v-88q-50 25 -93 25q-27 0 -40.5 -11.5t-17.5 -39.5l-86 -691q-8 -60 -42.5 -92.5t-92.5 -32.5q-48 0 -103 20v88q51 -24 92 -24q28 0 41.5 11.5t17.5 39.5l85 691q7 60 42.5 92t93.5 32z" />
    <glyph glyph-name="approxequal" unicode="&#x2248;" 
d="M65 443q71 47 134 47q49 0 124.5 -43t118.5 -43q48 0 133 47v-81q-71 -47 -134 -47q-48 0 -124 43t-120 43q-50 0 -132 -47v81zM65 252q71 47 134 47q49 0 124.5 -43t118.5 -43q48 0 133 47v-81q-71 -47 -134 -47q-48 0 -124 43t-120 43q-50 0 -132 -47v81z" />
    <glyph glyph-name="notequal" unicode="&#x2260;" 
d="M575 367h-184l-56 -112h240v-80h-279l-59 -119h-85l59 119h-146v80h185l55 112h-240v80h279l59 119h86l-59 -119h145v-80z" />
    <glyph glyph-name="lessequal" unicode="&#x2264;" 
d="M575 639v-85l-416 -180l416 -181v-85l-510 227v77zM65 0v80h510v-80h-510z" />
    <glyph glyph-name="greaterequal" unicode="&#x2265;" 
d="M65 639l510 -227v-77l-510 -227v85l416 181l-416 180v85zM65 0v80h510v-80h-510z" />
    <glyph glyph-name="block" unicode="&#x2588;" 
d="M640 952v-1200h-640v1200h640z" />
    <glyph glyph-name="ltshade" unicode="&#x2591;" 
d="M40 802v75h40v-75h-40zM120 802v75h40v-75h-40zM200 802v75h39v-75h-39zM280 802v75h40v-75h-40zM360 802v75h40v-75h-40zM440 802v75h40v-75h-40zM520 802v75h40v-75h-40zM599 802v75h41v-75h-41zM40 652v75h40v-75h-40zM120 652v75h40v-75h-40zM200 652v75h39v-75h-39z
M280 652v75h40v-75h-40zM360 652v75h40v-75h-40zM440 652v75h40v-75h-40zM520 652v75h40v-75h-40zM599 652v75h41v-75h-41zM40 502v75h40v-75h-40zM120 502v75h40v-75h-40zM200 502v75h39v-75h-39zM280 502v75h40v-75h-40zM360 502v75h40v-75h-40zM440 502v75h40v-75h-40z
M520 502v75h40v-75h-40zM599 502v75h41v-75h-41zM40 352v75h40v-75h-40zM120 352v75h40v-75h-40zM200 352v75h39v-75h-39zM280 352v75h40v-75h-40zM360 352v75h40v-75h-40zM440 352v75h40v-75h-40zM520 352v75h40v-75h-40zM599 352v75h41v-75h-41zM40 202v75h40v-75h-40z
M120 202v75h40v-75h-40zM200 202v75h39v-75h-39zM280 202v75h40v-75h-40zM360 202v75h40v-75h-40zM440 202v75h40v-75h-40zM520 202v75h40v-75h-40zM599 202v75h41v-75h-41zM40 52v75h40v-75h-40zM120 52v75h40v-75h-40zM200 52v75h39v-75h-39zM280 52v75h40v-75h-40z
M360 52v75h40v-75h-40zM440 52v75h40v-75h-40zM520 52v75h40v-75h-40zM599 52v75h41v-75h-41zM40 -98v75h40v-75h-40zM120 -98v75h40v-75h-40zM200 -98v75h39v-75h-39zM280 -98v75h40v-75h-40zM360 -98v75h40v-75h-40zM440 -98v75h40v-75h-40zM520 -98v75h40v-75h-40z
M599 -98v75h41v-75h-41zM40 -248v75h40v-75h-40zM120 -248v75h40v-75h-40zM200 -248v75h39v-75h-39zM280 -248v75h40v-75h-40zM360 -248v75h40v-75h-40zM440 -248v75h40v-75h-40zM520 -248v75h40v-75h-40zM599 -248v75h41v-75h-41z" />
    <glyph glyph-name="shade" unicode="&#x2592;" 
d="M0 878v74h40v-74h-40zM80 878v74h40v-74h-40zM160 878v74h39v-74h-39zM240 878v74h40v-74h-40zM320 878v74h40v-74h-40zM400 878v74h40v-74h-40zM480 878v74h40v-74h-40zM559 878v74h41v-74h-41zM40 803v74h40v-74h-40zM120 803v74h40v-74h-40zM200 803v74h39v-74h-39z
M280 803v74h40v-74h-40zM360 803v74h40v-74h-40zM440 803v74h40v-74h-40zM520 803v74h40v-74h-40zM599 803v74h41v-74h-41zM0 728v74h40v-74h-40zM80 728v74h40v-74h-40zM160 728v74h39v-74h-39zM240 728v74h40v-74h-40zM320 728v74h40v-74h-40zM400 728v74h40v-74h-40z
M480 728v74h40v-74h-40zM559 728v74h41v-74h-41zM40 653v74h40v-74h-40zM120 653v74h40v-74h-40zM200 653v74h39v-74h-39zM280 653v74h40v-74h-40zM360 653v74h40v-74h-40zM440 653v74h40v-74h-40zM520 653v74h40v-74h-40zM599 653v74h41v-74h-41zM0 578v74h40v-74h-40z
M80 578v74h40v-74h-40zM160 578v74h39v-74h-39zM240 578v74h40v-74h-40zM320 578v74h40v-74h-40zM400 578v74h40v-74h-40zM480 578v74h40v-74h-40zM559 578v74h41v-74h-41zM40 503v74h40v-74h-40zM120 503v74h40v-74h-40zM200 503v74h39v-74h-39zM280 503v74h40v-74h-40z
M360 503v74h40v-74h-40zM440 503v74h40v-74h-40zM520 503v74h40v-74h-40zM599 503v74h41v-74h-41zM0 428v74h40v-74h-40zM80 428v74h40v-74h-40zM160 428v74h39v-74h-39zM240 428v74h40v-74h-40zM320 428v74h40v-74h-40zM400 428v74h40v-74h-40zM480 428v74h40v-74h-40z
M559 428v74h41v-74h-41zM40 353v74h40v-74h-40zM120 353v74h40v-74h-40zM200 353v74h39v-74h-39zM280 353v74h40v-74h-40zM360 353v74h40v-74h-40zM440 353v74h40v-74h-40zM520 353v74h40v-74h-40zM599 353v74h41v-74h-41zM0 278v74h40v-74h-40zM80 278v74h40v-74h-40z
M160 278v74h39v-74h-39zM240 278v74h40v-74h-40zM320 278v74h40v-74h-40zM400 278v74h40v-74h-40zM480 278v74h40v-74h-40zM559 278v74h41v-74h-41zM40 203v74h40v-74h-40zM120 203v74h40v-74h-40zM200 203v74h39v-74h-39zM280 203v74h40v-74h-40zM360 203v74h40v-74h-40z
M440 203v74h40v-74h-40zM520 203v74h40v-74h-40zM599 203v74h41v-74h-41zM0 128v74h40v-74h-40zM80 128v74h40v-74h-40zM160 128v74h39v-74h-39zM240 128v74h40v-74h-40zM320 128v74h40v-74h-40zM400 128v74h40v-74h-40zM480 128v74h40v-74h-40zM559 128v74h41v-74h-41z
M40 53v74h40v-74h-40zM120 53v74h40v-74h-40zM200 53v74h39v-74h-39zM280 53v74h40v-74h-40zM360 53v74h40v-74h-40zM440 53v74h40v-74h-40zM520 53v74h40v-74h-40zM599 53v74h41v-74h-41zM0 -22v74h40v-74h-40zM80 -22v74h40v-74h-40zM160 -22v74h39v-74h-39zM240 -22v74
h40v-74h-40zM320 -22v74h40v-74h-40zM400 -22v74h40v-74h-40zM480 -22v74h40v-74h-40zM559 -22v74h41v-74h-41zM40 -97v74h40v-74h-40zM120 -97v74h40v-74h-40zM200 -97v74h39v-74h-39zM280 -97v74h40v-74h-40zM360 -97v74h40v-74h-40zM440 -97v74h40v-74h-40zM520 -97v74
h40v-74h-40zM599 -97v74h41v-74h-41zM0 -172v74h40v-74h-40zM80 -172v74h40v-74h-40zM160 -172v74h39v-74h-39zM240 -172v74h40v-74h-40zM320 -172v74h40v-74h-40zM400 -172v74h40v-74h-40zM480 -172v74h40v-74h-40zM559 -172v74h41v-74h-41zM40 -247v74h40v-74h-40z
M120 -247v74h40v-74h-40zM200 -247v74h39v-74h-39zM280 -247v74h40v-74h-40zM360 -247v74h40v-74h-40zM440 -247v74h40v-74h-40zM520 -247v74h40v-74h-40zM599 -247v74h41v-74h-41z" />
    <glyph glyph-name="dkshade" unicode="&#x2593;" 
d="M640 -248h-40v75h-40v-75h-40v75h-40v-75h-40v75h-39v-75h-41v75h-40v-75h-40v75h-40v-75h-40v75h-40v-75h-40v75h-40v-75h-39v75h-41v75h41v75h-41v75h41v75h-41v75h41v75h-41v75h41v75h-41v75h41v75h-41v75h41v75h-41v75h41v75h-41v75h640v-1200zM120 802v75h-40v-75
h40zM200 802v75h-40v-75h40zM280 802v75h-40v-75h40zM360 802v75h-40v-75h40zM440 802v75h-39v-75h39zM520 802v75h-40v-75h40zM600 802v75h-40v-75h40zM120 652v75h-40v-75h40zM200 652v75h-40v-75h40zM280 652v75h-40v-75h40zM360 652v75h-40v-75h40zM440 652v75h-39v-75
h39zM520 652v75h-40v-75h40zM600 652v75h-40v-75h40zM120 502v75h-40v-75h40zM200 502v75h-40v-75h40zM280 502v75h-40v-75h40zM360 502v75h-40v-75h40zM440 502v75h-39v-75h39zM520 502v75h-40v-75h40zM600 502v75h-40v-75h40zM120 352v75h-40v-75h40zM200 352v75h-40v-75
h40zM280 352v75h-40v-75h40zM360 352v75h-40v-75h40zM440 352v75h-39v-75h39zM520 352v75h-40v-75h40zM600 352v75h-40v-75h40zM120 202v75h-40v-75h40zM200 202v75h-40v-75h40zM280 202v75h-40v-75h40zM360 202v75h-40v-75h40zM440 202v75h-39v-75h39zM520 202v75h-40v-75
h40zM600 202v75h-40v-75h40zM120 52v75h-40v-75h40zM200 52v75h-40v-75h40zM280 52v75h-40v-75h40zM360 52v75h-40v-75h40zM440 52v75h-39v-75h39zM520 52v75h-40v-75h40zM600 52v75h-40v-75h40zM120 -98v75h-40v-75h40zM200 -98v75h-40v-75h40zM280 -98v75h-40v-75h40z
M360 -98v75h-40v-75h40zM440 -98v75h-39v-75h39zM520 -98v75h-40v-75h40zM600 -98v75h-40v-75h40z" />
    <glyph glyph-name="lozenge" unicode="&#x25ca;" 
d="M372 700l175 -350l-175 -350h-105l-174 350l174 350h105zM320 75l136 275l-136 275l-137 -275z" />
    <glyph glyph-name="uni2610" unicode="&#x2610;" 
d="M605 570v-570h-570v570h570zM516 485h-392v-400h392v400z" />
    <glyph glyph-name="uni2611" unicode="&#x2611;" 
d="M525 570h80v-570h-570v570h404l43 130h88zM516 85v400h-20l-117 -337h-118l-96 275h86l69 -206l90 268h-286v-400h392z" />
    <glyph glyph-name="uni2612" unicode="&#x2612;" 
d="M35 570h570v-570h-570v570zM516 85v400h-392v-400h392zM212 119l-57 57l109 109l-109 109l57 57l109 -109l109 109l56 -57l-108 -109l109 -109l-57 -56l-109 109z" />
    <glyph glyph-name="uniE0A0" unicode="&#xe0a0;" 
d="M216 952v-595l-136 -136v731h136zM463 711l162 -211h-94v-188l-315 -316v-244h-136v310l315 315v123h-95z" />
    <glyph glyph-name="uniE0A1" unicode="&#xe0a1;" 
d="M365 469v-62h-250v440h70v-378h180zM402 367h70v-440h-77l-150 299v-299h-71v440h77l151 -302v302z" />
    <glyph glyph-name="uniE0A2" unicode="&#xe0a2;" 
d="M99 0q-68 0 -68 69v395h79v108q0 87 47.5 135t131.5 48t131.5 -48t47.5 -135v-108h79v-395q0 -69 -69 -69h-379zM289 682q-43 0 -67.5 -26.5t-24.5 -73.5v-118h184v118q0 47 -24.5 73.5t-67.5 26.5zM316 263q33 17 33 54q0 26 -17 43q-18 18 -43 18t-43 -18t-18 -43
q0 -37 33 -54l-33 -158h121z" />
    <glyph glyph-name="uniE0B0" unicode="&#xe0b0;" 
d="M544 353l-544 -601v1200z" />
    <glyph glyph-name="uniE0B1" unicode="&#xe0b1;" 
d="M0 952l547 -599l-547 -601v109l448 492l-448 492v107z" />
    <glyph glyph-name="uniE0B2" unicode="&#xe0b2;" 
d="M96 353l544 599v-1200z" />
    <glyph glyph-name="uniE0B3" unicode="&#xe0b3;" 
d="M640 952v-107l-448 -492l448 -492v-109l-547 601z" />
    <glyph glyph-name="i.loclTRK" 
d="M413 781v-134h-121v134h121zM397 80h152v-80h-440v80h198v390h-168v80h258v-470z" />
    <glyph glyph-name="zero.osf" 
d="M310 -10q-120 0 -186 70.5t-66 198.5q0 144 71.5 222.5t202.5 78.5q119 0 184.5 -70.5t65.5 -198.5q0 -144 -71 -222.5t-201 -78.5zM320 77q89 0 127 45.5t38 153.5q0 107 -37.5 152.5t-126.5 45.5q-90 0 -128 -46t-38 -154q0 -107 38 -152t127 -45zM261 337h118v-124
h-118v124z" />
    <glyph glyph-name="one.osf" 
d="M390 84h176v-84h-465v84h195v374l-195 -111v114l181 89h108v-466z" />
    <glyph glyph-name="two.osf" 
d="M223 84h336v-84h-475v97l252 144q65 38 92 70.5t27 70.5q0 92 -136 92q-102 0 -202 -52v91q101 47 211 47q106 0 165 -48t59 -123q0 -60 -42.5 -114t-143.5 -111z" />
    <glyph glyph-name="three.osf" 
d="M341 289q108 -11 165.5 -59.5t57.5 -129.5q0 -124 -122 -192.5t-344 -68.5v88q183 0 276.5 42.5t93.5 123.5q0 64 -56 93.5t-177 29.5l-23 62l208 189h-322v83h415v-97z" />
    <glyph glyph-name="four.osf" 
d="M593 91v-84h-116v-157h-95v157h-333v97l316 446h112v-459h116zM141 91h241v339z" />
    <glyph glyph-name="five.osf" 
d="M336 296q64 0 114 -17.5t83.5 -61t33.5 -109.5q0 -128 -115.5 -198.5t-338.5 -70.5v88q357 0 357 164q0 63 -47.5 92.5t-120.5 29.5q-59 0 -120 -21l-84 57l51 301h389v-83h-315l-30 -191q71 20 143 20z" />
    <glyph glyph-name="six.osf" 
d="M359 465q101 0 157 -59t56 -170q0 -116 -64 -181t-179 -65q-126 0 -192.5 78.5t-66.5 228.5q0 204 102 308.5t302 104.5v-88q-149 0 -224 -60.5t-84 -186.5q25 43 76.5 66.5t116.5 23.5zM325 76q80 0 115.5 36t35.5 116t-35.5 116t-115.5 36t-116 -35.5t-36 -115.5
q0 -81 35.5 -117t116.5 -36z" />
    <glyph glyph-name="seven.osf" 
d="M80 550h490v-96q-124 -149 -176.5 -287t-52.5 -317h-99q0 155 64 315.5t182 301.5h-408v83z" />
    <glyph glyph-name="eight.osf" 
d="M426 370q74 -26 115 -65t41 -112q0 -95 -71 -149t-199 -54q-121 0 -187.5 50t-66.5 139q0 73 41.5 120.5t104.5 70.5q-110 50 -110 157q0 87 61.5 135t172.5 48q104 0 161.5 -45t57.5 -126q0 -64 -34 -106.5t-87 -62.5zM320 624q-129 0 -129 -93q0 -56 39.5 -84.5
t116.5 -52.5q48 13 75.5 47t27.5 84q0 52 -31.5 75.5t-98.5 23.5zM322 76q163 0 163 110q0 28 -11.5 51t-24.5 36.5t-44.5 27.5t-47.5 19t-57 17q-7 2 -10 3q-135 -35 -135 -143q0 -62 40.5 -91.5t126.5 -29.5z" />
    <glyph glyph-name="nine.osf" 
d="M311 560q126 0 192.5 -78.5t66.5 -228.5q0 -204 -102 -308.5t-302 -104.5v88q149 0 224.5 60.5t83.5 186.5q-25 -43 -77 -66t-116 -23q-101 0 -157 59t-56 170q0 116 64 180.5t179 64.5zM316 170q80 0 115.5 35.5t35.5 115.5q0 81 -35.5 117t-116.5 36q-80 0 -115.5 -36
t-35.5 -116t36 -116t116 -36z" />
    <glyph glyph-name="zero.dnom" 
d="M315 -5q-69 0 -106.5 44.5t-37.5 125.5q0 91 41 140.5t115 49.5q68 0 105 -44.5t37 -125.5q0 -91 -40 -140.5t-114 -49.5zM320 55q45 0 64.5 28t19.5 93q0 64 -19.5 91.5t-63.5 27.5q-46 0 -65 -27.5t-19 -93.5q0 -65 19 -92t64 -27zM283 213h74v-75h-74v75z" />
    <glyph glyph-name="one.dnom" 
d="M360 58h92v-58h-264v58h108v233l-108 -84v72l101 71h71v-292z" />
    <glyph glyph-name="two.dnom" 
d="M266 59h191v-59h-273v65l143 100q60 41 60 81q0 49 -67 49q-60 0 -125 -39v64q64 35 133 35q59 0 92 -26.5t33 -74.5q0 -72 -90 -131z" />
    <glyph glyph-name="three.dnom" 
d="M349 214q111 -16 111 -94q0 -59 -68 -92t-192 -33v60q102 0 148 15t46 48q0 50 -116 50l-11 48l93 76h-160v58h233v-65z" />
    <glyph glyph-name="four.dnom" 
d="M459 133v-59h-60v-74h-64v74h-177v65l173 211h68v-217h60zM224 133h111v136z" />
    <glyph glyph-name="five.dnom" 
d="M321 231q60 0 95.5 -27t35.5 -73q0 -66 -69 -101t-195 -35v60q198 0 198 72q0 50 -84 50q-30 0 -60 -7l-53 23l29 157h217v-58h-169l-10 -68q38 7 65 7z" />
    <glyph glyph-name="six.dnom" 
d="M349 234q58 0 88.5 -30t30.5 -85q0 -59 -37 -92t-102 -33q-69 0 -105 40t-36 115q0 100 59 152.5t169 52.5v-60q-138 0 -161 -89q34 29 94 29zM330 54q39 0 55.5 14.5t16.5 48.5q0 35 -16 49t-56 14t-57 -14.5t-17 -48.5t17 -48.5t57 -14.5z" />
    <glyph glyph-name="seven.dnom" 
d="M188 350h264v-64q-62 -67 -88 -132.5t-26 -153.5h-69q0 160 120 292h-201v58z" />
    <glyph glyph-name="eight.dnom" 
d="M401 187q64 -22 64 -85q0 -50 -39.5 -78.5t-110.5 -28.5q-67 0 -103.5 26t-36.5 73q0 64 65 93q-48 22 -48 73q0 44 35.5 69.5t98.5 25.5q59 0 91 -23t32 -65q0 -51 -48 -80zM321 296q-65 0 -65 -42q0 -48 81 -53q23 3 36 17.5t13 35.5q0 42 -65 42zM320 55q41 0 60 12
t19 40q0 27 -21.5 41.5t-76.5 18.5q-60 -9 -60 -59q0 -28 18.5 -40.5t60.5 -12.5z" />
    <glyph glyph-name="nine.dnom" 
d="M311 355q69 0 105 -40t36 -115q0 -100 -59 -152.5t-169 -52.5v60q138 0 161 89q-34 -29 -94 -29q-58 0 -88.5 30.5t-30.5 85.5q0 58 37 91t102 33zM310 169q40 0 57 14.5t17 48.5t-16.5 48.5t-57.5 14.5q-39 0 -55.5 -14.5t-16.5 -48.5t16.5 -48.5t55.5 -14.5z" />
    <glyph glyph-name="zero.numr" 
d="M315 345q-69 0 -106.5 44.5t-37.5 125.5q0 91 41 140.5t115 49.5q68 0 105 -44.5t37 -125.5q0 -91 -40 -140.5t-114 -49.5zM320 405q45 0 64.5 28t19.5 93q0 64 -19.5 91.5t-63.5 27.5q-46 0 -65 -27.5t-19 -93.5q0 -65 19 -92t64 -27zM283 563h74v-75h-74v75z" />
    <glyph glyph-name="one.numr" 
d="M360 408h92v-58h-264v58h108v233l-108 -84v72l101 71h71v-292z" />
    <glyph glyph-name="two.numr" 
d="M266 409h191v-59h-273v65l143 100q60 41 60 81q0 49 -67 49q-60 0 -125 -39v64q64 35 133 35q59 0 92 -26.5t33 -74.5q0 -72 -90 -131z" />
    <glyph glyph-name="three.numr" 
d="M349 564q111 -16 111 -94q0 -59 -68 -92t-192 -33v60q102 0 148 15t46 48q0 50 -116 50l-11 48l93 76h-160v58h233v-65z" />
    <glyph glyph-name="four.numr" 
d="M459 483v-59h-60v-74h-64v74h-177v65l173 211h68v-217h60zM224 483h111v136z" />
    <glyph glyph-name="five.numr" 
d="M321 581q60 0 95.5 -27t35.5 -73q0 -66 -69 -101t-195 -35v60q198 0 198 72q0 50 -84 50q-30 0 -60 -7l-53 23l29 157h217v-58h-169l-10 -68q39 7 65 7z" />
    <glyph glyph-name="six.numr" 
d="M349 584q58 0 88.5 -30t30.5 -85q0 -59 -37 -92t-102 -33q-69 0 -105 40t-36 115q0 100 59 152.5t169 52.5v-60q-138 0 -161 -89q34 29 94 29zM330 404q39 0 55.5 14.5t16.5 48.5q0 35 -16 49t-56 14t-57 -14.5t-17 -48.5t17 -48.5t57 -14.5z" />
    <glyph glyph-name="seven.numr" 
d="M188 700h264v-64q-62 -67 -88 -132.5t-26 -153.5h-69q0 160 120 292h-201v58z" />
    <glyph glyph-name="eight.numr" 
d="M401 537q64 -22 64 -85q0 -50 -39.5 -78.5t-110.5 -28.5q-67 0 -103.5 26t-36.5 73q0 64 65 93q-48 22 -48 73q0 44 35.5 69.5t98.5 25.5q59 0 91 -23t32 -65q0 -51 -48 -80zM321 646q-65 0 -65 -42q0 -48 81 -53q23 3 36 17.5t13 35.5q0 42 -65 42zM320 405q41 0 60 12
t19 40q0 27 -21.5 41.5t-76.5 18.5q-60 -9 -60 -59q0 -28 18.5 -40.5t60.5 -12.5z" />
    <glyph glyph-name="nine.numr" 
d="M311 705q69 0 105 -40t36 -115q0 -100 -59 -152.5t-169 -52.5v60q138 0 161 89q-34 -29 -94 -29q-58 0 -88.5 30.5t-30.5 85.5q0 58 37 91t102 33zM310 519q40 0 57 14.5t17 48.5t-16.5 48.5t-57.5 14.5q-39 0 -55.5 -14.5t-16.5 -48.5t16.5 -48.5t55.5 -14.5z" />
    <glyph glyph-name="two_fraction_seven" 
d="M457 539v-59h-273v65l143 100q60 41 60 81q0 49 -67 49q-60 0 -125 -39v64q64 35 133 35q59 0 92 -26.5t33 -74.5q0 -72 -90 -131l-97 -64h191zM65 377h511v-54h-511v54zM188 162v58h264v-64q-62 -67 -88 -132.5t-26 -153.5h-69q0 158 120 292h-201z" />
    <glyph glyph-name="three_fraction_seven" 
d="M460 600q0 -59 -68 -92t-192 -33v60q102 0 148 15t46 48q0 50 -116 50l-11 48l93 76h-160v58h233v-65l-84 -71q111 -16 111 -94zM65 377h511v-54h-511v54zM188 162v58h264v-64q-62 -67 -88 -132.5t-26 -153.5h-69q0 158 120 292h-201z" />
    <glyph glyph-name="four_fraction_seven" 
d="M335 480v74h-177v65l173 211h68v-217h60v-59h-60v-74h-64zM224 613h111v136zM65 377h511v-54h-511v54zM188 162v58h264v-64q-62 -67 -88 -132.5t-26 -153.5h-69q0 158 120 292h-201z" />
    <glyph glyph-name="five_fraction_seven" 
d="M452 611q0 -66 -69 -101t-195 -35v60q198 0 198 72q0 50 -84 50q-30 0 -60 -7l-53 23l29 157h217v-58h-169l-10 -68q39 7 65 7q60 0 95.5 -27t35.5 -73zM65 377h511v-54h-511v54zM188 162v58h264v-64q-62 -67 -88 -132.5t-26 -153.5h-69q0 158 120 292h-201z" />
    <glyph glyph-name="six_fraction_seven" 
d="M329 474q-69 0 -105 40t-36 115q0 100 59 152.5t169 52.5v-60q-138 0 -161 -89q34 29 94 29q58 0 88.5 -30t30.5 -85q0 -59 -37 -92t-102 -33zM330 660q-40 0 -57 -14.5t-17 -48.5t17 -48.5t57 -14.5q39 0 55.5 14.5t16.5 48.5q0 35 -16 49t-56 14zM65 377h511v-54h-511
v54zM188 162v58h264v-64q-62 -67 -88 -132.5t-26 -153.5h-69q0 158 120 292h-201z" />
    <glyph glyph-name="colon.case" 
d="M251 576h138v-148h-138v148zM251 251h138v-148h-138v148z" />
    <glyph glyph-name="exclamdown.case" 
d="M389 552h-138v148h138v-148zM352 467l37 -467h-138l37 467h64z" />
    <glyph glyph-name="questiondown.case" 
d="M426 700v-148h-138v148h138zM176 229q0 -151 374 -151v-88q-222 0 -344 60t-122 171q0 80 62.5 131t174.5 61l4 54h64l7 -118q-220 0 -220 -120z" />
    <glyph glyph-name="asterisk.case" 
d="M584 348l-68 -23l-166 -26l118 -118l42 -57l-72 -53l-42 58l-75 149l-76 -149l-43 -58l-72 53l43 57l118 118l-166 26l-68 23l28 85l68 -22l150 -76l-27 165v71h89v-71l-27 -165l150 76l68 22z" />
    <glyph glyph-name="parenleft.case" 
d="M318 359q0 -264 158 -448h-95q-84 108 -122.5 211t-38.5 221q0 126 38.5 233t122.5 215h95q-158 -184 -158 -432z" />
    <glyph glyph-name="parenright.case" 
d="M322 343q0 264 -158 448h95q84 -108 122.5 -211t38.5 -221q0 -126 -38.5 -233t-122.5 -215h-95q158 184 158 432z" />
    <glyph glyph-name="braceleft.case" 
d="M349 516q0 -71 -28 -112t-92 -53q64 -12 92 -52.5t28 -111.5v-157q0 -46 49 -46q36 0 105 29v-86q-67 -26 -122 -26q-58 0 -90 32t-32 89v193q0 40 -22.5 69t-65.5 29h-49v76h49q43 0 65.5 29t22.5 69v193q0 57 32 89t90 32q55 0 122 -26v-86q-69 29 -105 29
q-49 0 -49 -46v-156z" />
    <glyph glyph-name="braceright.case" 
d="M470 389h49v-76h-49q-43 0 -66 -29t-23 -69v-193q0 -57 -32 -89t-90 -32q-56 0 -121 26v86q68 -29 104 -29q49 0 49 46v157q0 71 28 111.5t93 52.5q-65 12 -93 53t-28 112v156q0 46 -49 46q-36 0 -104 -29v86q65 26 121 26q58 0 90 -32t32 -89v-193q0 -40 23 -69t66 -29z
" />
    <glyph glyph-name="bracketleft.case" 
d="M474 711h-159v-720h159v-80h-249v880h249v-80z" />
    <glyph glyph-name="bracketright.case" 
d="M167 791h248v-880h-248v80h158v720h-158v80z" />
    <glyph glyph-name="hyphen_hyphen" 
d="M82 351h510v-80h-510v80zM693 351h510v-80h-510v80z" />
    <glyph glyph-name="hyphen_hyphen_hyphen.liga" 
d="M94 351h510v-80h-510v80zM705 351h510v-80h-510v80zM1316 351h510v-80h-510v80z" />
    <glyph glyph-name="hyphen_hyphen_greater.liga" 
d="M1527 585l274 -274l-274 -274l-57 57l158 154l26 23h-1524v80h1525l-27 24l-158 153z" />
    <glyph glyph-name="hyphen_greater.liga" 
d="M887 585l274 -274l-274 -274l-57 57l158 154l26 23h-884v80h885l-27 24l-158 153z" />
    <glyph glyph-name="hyphen_greater_greater.liga" 
d="M1246 585l274 -274l-274 -274l-57 57l158 154l26 23h-1243v80h1244l-27 24l-158 153zM1527 585l274 -274l-274 -274l-57 57l223 217l-223 217z" />
    <glyph glyph-name="hyphen_less.liga" 
d="M1135 528l-223 -217l223 -217l-57 -57l-234 234h-714v80h714l234 234z" />
    <glyph glyph-name="hyphen_less_less.liga" 
d="M1495 528l-223 -217l223 -217l-57 -57l-234 234h-1074v80h1074l234 234zM1775 528l-223 -217l223 -217l-57 -57l-274 274l274 274z" />
    <glyph glyph-name="hyphen_asciitilde.liga" 
d="M1150 355v-80q-79 -47 -137 -47q-49 0 -126.5 43t-122.5 43q-28 0 -96 -21.5t-115 -21.5h-423v80h418q43 0 114 21.5t104 21.5q50 0 127 -43t121 -43q21 0 45 7.5t39 14.5t52 25z" />
    <glyph glyph-name="braceleft_bar.liga" 
d="M352 670q0 57 32 89t90 32h257v-80h-240q-49 0 -49 -46v-148q0 -71 -28 -112t-92 -53q64 -12 92 -52.5t28 -111.5v-151q0 -46 49 -46h240v-80h-257q-58 0 -90 32t-32 89v184q0 40 -22.5 69t-65.5 29h-49v76h49q43 0 65.5 29t22.5 69v182zM882 791h90v-880h-90v880z" />
    <glyph glyph-name="bracketleft_bar.liga" 
d="M308 -89v880h423v-80h-333v-720h333v-80h-423zM882 791h90v-880h-90v880z" />
    <glyph glyph-name="bracketright_numbersign.liga" 
d="M1200 458h-106l-34 -216h140v-76h-152l-27 -166h-80l27 166h-154l-27 -166h-80l27 166h-368v-255h-248v80h159v720h-159v80h248v-257h426l27 166h80l-27 -166h154l27 166h80l-27 -166h94v-76zM366 242h380l34 216h-414v-216zM980 242l34 216h-154l-34 -216h154z" />
    <glyph glyph-name="period_hyphen.liga" 
d="M323 162q70 0 109 39.5t39 109.5t-39 109.5t-109 39.5t-109.5 -39.5t-39.5 -109.5t39.5 -109.5t109.5 -39.5zM578 351h538v-80h-538v80z" />
    <glyph glyph-name="period_period.liga" 
d="M315 148h139v-148h-139v148zM827 148h138v-148h-138v148z" />
    <glyph glyph-name="period_period_period.liga" 
d="M315 148h139v-148h-139v148zM891 148h138v-148h-138v148zM1467 148h138v-148h-138v148z" />
    <glyph glyph-name="period_period_equal.liga" 
d="M335 162q70 0 109.5 39.5t39.5 109.5t-39.5 109.5t-109.5 39.5t-109.5 -39.5t-39.5 -109.5t39.5 -109.5t109.5 -39.5zM858 162q70 0 109 39.5t39 109.5t-39 109.5t-109 39.5t-109.5 -39.5t-39.5 -109.5t39.5 -109.5t109.5 -39.5zM1233 454h510v-80h-510v80zM1233 248h510
v-80h-510v80z" />
    <glyph glyph-name="period_period_less.liga" 
d="M1630 631v-85l-425 -225l425 -225v-85l-510 272v76zM315 0v148h139v-148h-139zM755 0v148h138v-148h-138z" />
    <glyph glyph-name="period_question.liga" 
d="M613 710q222 0 344 -60t122 -171q0 -81 -62.5 -132t-174.5 -60l-4 -54h-64l-7 119q220 0 220 119q0 151 -374 151v88zM277 0v148h138v-148h-138zM737 0v148h139v-148h-139z" />
    <glyph glyph-name="period_equal.liga" 
d="M335 162q70 0 109.5 39.5t39.5 109.5t-39.5 109.5t-109.5 39.5t-109.5 -39.5t-39.5 -109.5t39.5 -109.5t109.5 -39.5zM603 367v80h510v-80h-510zM603 175v80h510v-80h-510z" />
    <glyph glyph-name="colon_colon.liga" 
d="M318 550h138v-148h-138v148zM824 550h138v-148h-138v148zM318 148h138v-148h-138v148zM824 148h138v-148h-138v148z" />
    <glyph glyph-name="colon_colon_colon.liga" 
d="M318 550h138v-148h-138v148zM891 550h138v-148h-138v148zM1464 550h138v-148h-138v148zM318 148h138v-148h-138v148zM891 148h138v-148h-138v148zM1464 148h138v-148h-138v148z" />
    <glyph glyph-name="colon_colon_equal.liga" 
d="M298 547h138v-148h-138v148zM715 547h139v-148h-139v148zM1154 367v80h510v-80h-510zM1154 175v80h510v-80h-510zM298 222h138v-148h-138v148zM715 222h139v-148h-139v148z" />
    <glyph glyph-name="colon_equal.liga" 
d="M210 547h139v-148h-139v148zM595 367v80h510v-80h-510zM595 175v80h510v-80h-510zM210 222h139v-148h-139v148z" />
    <glyph glyph-name="colon_greater.liga" 
d="M595 631l510 -272v-76l-510 -272v85l425 225l-425 225v85zM208 399v148h138v-148h-138zM208 74v148h138v-148h-138z" />
    <glyph glyph-name="colon_less.liga" 
d="M1105 631v-85l-425 -225l425 -225v-85l-510 272v76zM208 399v148h138v-148h-138zM208 74v148h138v-148h-138z" />
    <glyph glyph-name="semicolon_semicolon.liga" 
d="M318 402v148h138v-148h-138zM824 550h138v-148h-138v148zM318 0v148h138v-148l-75 -190h-107l121 190h-77zM824 0v148h138v-148l-75 -190h-107l121 190h-77z" />
    <glyph glyph-name="exclam_exclam.liga" 
d="M355 233l-37 467h138l-37 -467h-64zM861 233l-37 467h138l-37 -467h-64zM318 148h138v-148h-138v148zM824 148h138v-148h-138v148z" />
    <glyph glyph-name="exclam_exclam_period.liga" 
d="M355 233l-37 467h138l-37 -467h-64zM928 233l-37 467h138l-37 -467h-64zM318 148h138v-148h-138v148zM891 148h138v-148h-138v148zM1464 148h138v-148h-138v148z" />
    <glyph glyph-name="exclam_exclam_exclam.liga" 
d="M355 233l-37 467h138l-37 -467h-64zM928 233l-37 467h138l-37 -467h-64zM1501 233l-37 467h138l-37 -467h-64zM318 148h138v-148h-138v148zM891 148h138v-148h-138v148zM1464 148h138v-148h-138v148z" />
    <glyph glyph-name="exclam_equal.liga" 
d="M1150 367h-439l-56 -112h495v-80h-534l-59 -119h-85l59 119h-401v80h440l55 112h-495v80h534l59 119h86l-59 -119h400v-80z" />
    <glyph glyph-name="exclam_equal_equal.liga" 
d="M1790 473h-707l-60 -122h767v-80h-807l-60 -122h867v-80h-907l-56 -114h-85l56 114h-668v80h708l60 122h-768v80h807l60 122h-867v80h906l57 115h86l-57 -115h668v-80z" />
    <glyph glyph-name="question_period.liga" 
d="M193 710q222 0 344 -60t122 -171q0 -81 -62.5 -132t-174.5 -60l-4 -54h-64l-7 119q220 0 220 119q0 151 -374 151v88zM317 0v148h139v-148h-139zM867 148h138v-148h-138v148z" />
    <glyph glyph-name="question_colon.liga" 
d="M193 710q222 0 344 -60t122 -171q0 -81 -62.5 -132t-174.5 -60l-4 -54h-64l-7 119q220 0 220 119q0 151 -374 151v88zM867 550h138v-148h-138v148zM317 0v148h139v-148h-139zM867 0v148h138v-148h-138z" />
    <glyph glyph-name="question_question.liga" 
d="M142 710q222 0 344 -60t122 -171q0 -81 -62.5 -132t-174.5 -60l-4 -54h-64l-7 119q220 0 220 119q0 151 -374 151v88zM693 710q222 0 344 -60t122 -171q0 -81 -62.5 -132t-174.5 -60l-4 -54h-64l-7 119q220 0 220 119q0 151 -374 151v88zM266 0v148h139v-148h-139zM817 0
v148h139v-148h-139z" />
    <glyph glyph-name="question_equal.liga" 
d="M656 447h449v-80h-488q-62 -70 -195 -80l-4 -54h-64l-7 119q220 0 220 119q0 151 -374 151v88q222 0 344 -60t122 -171q0 -17 -3 -32zM595 175v80h510v-80h-510zM317 0v148h139v-148h-139z" />
    <glyph glyph-name="asterisk_asterisk.liga" 
d="M503 411l68 22l28 -85l-68 -23l-166 -26l118 -118l42 -57l-72 -53l-42 58l-75 149l-76 -149l-43 -58l-72 53l43 57l118 118l-166 26l-68 23l28 85l68 -22l150 -76l-27 165v71h89v-71l-27 -165zM1209 348l-68 -23l-166 -26l118 -118l42 -57l-72 -53l-42 58l-75 149
l-76 -149l-43 -58l-72 53l43 57l118 118l-166 26l-68 23l28 85l68 -22l150 -76l-27 165v71h89v-71l-27 -165l150 76l68 22z" />
    <glyph glyph-name="asterisk_asterisk_asterisk.liga" 
d="M1127 594l68 22l28 -85l-68 -23l-166 -26l118 -118l42 -57l-72 -53l-42 58l-75 149l-76 -149l-43 -58l-72 53l43 57l118 118l-166 26l-68 23l28 85l68 -22l150 -76l-27 165v71h89v-71l-27 -165zM518 411l68 22l28 -85l-68 -23l-166 -26l118 -118l42 -57l-72 -53l-42 58
l-75 149l-76 -149l-43 -58l-72 53l43 57l118 118l-166 26l-68 23l28 85l68 -22l150 -76l-27 165v71h89v-71l-27 -165zM1834 348l-68 -23l-166 -26l118 -118l42 -57l-72 -53l-42 58l-75 149l-76 -149l-43 -58l-72 53l43 57l118 118l-166 26l-68 23l28 85l68 -22l150 -76
l-27 165v71h89v-71l-27 -165l150 76l68 22z" />
    <glyph glyph-name="asterisk_greater.liga" 
d="M675 631l510 -272v-76l-510 -272v85l425 225l-425 225v85zM533 410l68 22l28 -85l-68 -23l-166 -26l118 -118l42 -57l-72 -53l-42 58l-75 149l-76 -149l-43 -58l-72 53l43 57l118 118l-166 26l-68 23l28 85l68 -22l150 -76l-27 165v71h89v-71l-27 -165z" />
    <glyph glyph-name="asterisk_slash.liga" 
d="M1019 740h79l-274 -780h-79zM615 411l68 22l28 -85l-68 -23l-166 -26l118 -118l42 -57l-72 -53l-42 58l-75 149l-76 -149l-43 -58l-72 53l43 57l118 118l-166 26l-68 23l28 85l68 -22l150 -76l-27 165v71h89v-71l-27 -165z" />
    <glyph glyph-name="numbersign_parenleft.liga" 
d="M1150 791q-158 -184 -158 -432q0 -264 158 -448h-95q-100 128 -137 255h-430l-27 -166h-80l27 166h-154l-27 -166h-80l27 166h-94v76h106l34 216h-140v76h152l27 166h80l-27 -166h154l27 166h80l-27 -166h373q36 129 136 257h95zM266 242h154l34 216h-154zM500 242h401
q-7 46 -7 101q0 56 8 115h-368z" />
    <glyph glyph-name="numbersign_braceleft.liga" 
d="M1040 516q0 -71 -27.5 -112t-92.5 -53q65 -12 92.5 -52.5t27.5 -111.5v-157q0 -46 49 -46q36 0 105 29v-86q-67 -26 -122 -26q-58 0 -89.5 32t-31.5 89v144h-463l-27 -166h-80l27 166h-154l-27 -166h-80l27 166h-94v76h106l34 216h-140v76h152l27 166h80l-27 -166h154
l27 166h80l-27 -166h405v146q0 57 31.5 89t89.5 32q55 0 122 -26v-86q-69 29 -105 29q-49 0 -49 -46v-156zM266 242h154l34 216h-154zM862 389q35 0 57 19.5t29 49.5h-414l-34 -216h448q-6 31 -28.5 51t-57.5 20h-49v76h49z" />
    <glyph glyph-name="numbersign_bracketleft.liga" 
d="M1162 711h-159v-720h159v-80h-248v257h-426l-27 -166h-80l27 166h-154l-27 -166h-80l27 166h-94v76h106l34 216h-140v76h152l27 166h80l-27 -166h154l27 166h80l-27 -166h368v255h248v-80zM266 244h154l34 216h-154zM500 244h414v216h-380z" />
    <glyph glyph-name="numbersign_colon.liga" 
d="M653 700l-27 -166h94v-76h-106l-34 -216h140v-76h-152l-27 -166h-80l27 166h-154l-27 -166h-80l27 166h-94v76h106l34 216h-140v76h152l27 166h80l-27 -166h154l27 166h80zM924 586h138v-148h-138v148zM500 242l34 216h-154l-34 -216h154zM924 113v148h138v-148h-138z
" />
    <glyph glyph-name="numbersign_exclam.liga" 
d="M653 700l-27 -166h94v-76h-106l-34 -216h140v-76h-152l-27 -166h-80l27 166h-154l-27 -166h-80l27 166h-94v76h106l34 216h-140v76h152l27 166h80l-27 -166h154l27 166h80zM1025 233h-64l-37 467h138zM500 242l34 216h-154l-34 -216h154zM924 0v148h138v-148h-138z" />
    <glyph glyph-name="numbersign_question.liga" 
d="M767 710q222 0 344 -60t122 -171q0 -81 -62.5 -132t-174.5 -60l-4 -54h-64l-7 119q220 0 220 119q0 151 -374 151v88zM613 700l-27 -166h94v-76h-106l-34 -216h140v-76h-152l-27 -166h-80l27 166h-154l-27 -166h-80l27 166h-94v76h106l34 216h-140v76h152l27 166h80
l-27 -166h154l27 166h80zM460 242l34 216h-154l-34 -216h154zM891 0v148h139v-148h-139z" />
    <glyph glyph-name="numbersign_numbersign.liga" 
d="M1200 458h-106l-34 -216h140v-76h-152l-27 -166h-80l27 166h-154l-27 -166h-80l27 166h-246l-27 -166h-80l27 166h-154l-27 -166h-80l27 166h-94v76h106l34 216h-140v76h152l27 166h80l-27 -166h154l27 166h80l-27 -166h246l27 166h80l-27 -166h154l27 166h80l-27 -166
h94v-76zM266 242h154l34 216h-154zM500 242h246l34 216h-246zM980 242l34 216h-154l-34 -216h154z" />
    <glyph glyph-name="numbersign_numbersign_numbersign.liga" 
d="M1840 458h-106l-34 -216h140v-76h-152l-27 -166h-80l27 166h-154l-27 -166h-80l27 166h-286l-27 -166h-80l27 166h-154l-27 -166h-80l27 166h-286l-27 -166h-80l27 166h-154l-27 -166h-80l27 166h-94v76h106l34 216h-140v76h152l27 166h80l-27 -166h154l27 166h80
l-27 -166h286l27 166h80l-27 -166h154l27 166h80l-27 -166h286l27 166h80l-27 -166h154l27 166h80l-27 -166h94v-76zM266 242h154l34 216h-154zM500 242h286l34 216h-286zM866 242h154l34 216h-154zM1100 242h286l34 216h-286zM1620 242l34 216h-154l-34 -216h154z" />
    <glyph glyph-name="numbersign_numbersign_numbersign_numbersign.liga" 
d="M2480 458h-106l-34 -216h140v-76h-152l-27 -166h-80l27 166h-154l-27 -166h-80l27 166h-299l-27 -166h-80l27 166h-154l-27 -166h-80l27 166h-300l-27 -166h-80l27 166h-154l-27 -166h-80l27 166h-299l-27 -166h-80l27 166h-154l-27 -166h-80l27 166h-94v76h106l34 216
h-140v76h152l27 166h80l-27 -166h154l27 166h80l-27 -166h299l27 166h80l-27 -166h154l27 166h80l-27 -166h300l27 166h80l-27 -166h154l27 166h80l-27 -166h299l27 166h80l-27 -166h154l27 166h80l-27 -166h94v-76zM266 242h154l34 216h-154zM500 242h299l34 216h-299z
M879 242h154l34 216h-154zM1113 242h300l34 216h-300zM1493 242h154l34 216h-154zM1727 242h299l34 216h-299zM2260 242l34 216h-154l-34 -216h154z" />
    <glyph glyph-name="numbersign_equal.liga" 
d="M559 700l-27 -166h94v-76h-106l-34 -216h140v-76h-152l-27 -166h-80l27 166h-154l-27 -166h-80l27 166h-94v76h106l34 216h-140v76h152l27 166h80l-27 -166h154l27 166h80zM699 486h510v-80h-510v80zM406 242l34 216h-154l-34 -216h154zM699 214v80h510v-80h-510z" />
    <glyph glyph-name="numbersign_underscore.liga" 
d="M461 0h739v-74h-830l38 240h-154l-27 -166h-80l27 166h-94v76h106l34 216h-140v76h152l27 166h80l-27 -166h155l26 166h80l-27 -166h94v-76h-106l-34 -216h140v-76h-152zM266 242h154l35 216h-155z" />
    <glyph glyph-name="numbersign_underscore_parenleft.liga" 
d="M1815 740q-158 -184 -158 -432q0 -219 108 -382h-1355l38 240h-154l-27 -166h-80l27 166h-94v76h106l34 216h-140v76h152l27 166h80l-27 -166h155l26 166h80l-27 -166h94v-76h-106l-34 -216h140v-76h-152l-27 -166h1128q-70 137 -70 292q0 126 38.5 233t122.5 215h95z
M306 242h154l35 216h-155z" />
    <glyph glyph-name="slash_asterisk.liga" 
d="M183 -40l274 780h79l-274 -780h-79zM1097 348l-68 -23l-166 -26l118 -118l42 -57l-72 -53l-42 58l-75 149l-76 -149l-43 -58l-72 53l43 57l118 118l-166 26l-68 23l28 85l68 -22l150 -76l-27 165v71h89v-71l-27 -165l150 76l68 22z" />
    <glyph glyph-name="slash_equal.liga" 
d="M214 -40l274 780h79l-274 -780h-79zM529 372l28 80h548v-80h-576zM458 170l28 80h619v-80h-647z" />
    <glyph glyph-name="slash_equal_equal.liga" 
d="M214 -40l274 780h79l-274 -780h-79zM529 372l28 80h1188v-80h-1216zM458 170l28 80h1259v-80h-1287z" />
    <glyph glyph-name="slash_greater.liga" 
d="M526 651l565 -302v-76l-534 -286v86l451 238l-507 268l-231 -658h-79l274 780h79z" />
    <glyph glyph-name="slash_slash.liga" 
d="M207 -40l274 780h79l-274 -780h-79zM699 -40l274 780h79l-274 -780h-79z" />
    <glyph glyph-name="slash_slash_slash.liga" 
d="M207 -40l274 780h79l-274 -780h-79zM784 -40l274 780h79l-274 -780h-79zM1361 -40l274 780h79l-274 -780h-79z" />
    <glyph glyph-name="uni2116.001" 
d="M487 228q-61 0 -88.5 54t-27.5 171q0 132 29.5 192.5t94.5 60.5q61 0 88.5 -54t27.5 -172q0 -133 -29.5 -192.5t-94.5 -59.5zM239 568v132h83v-700h-83v454l-114 122v-576h-83v700h73zM491 636q-25 0 -35.5 -39t-10.5 -130t10.5 -130t35.5 -39t36 38.5t11 130.5
t-11 130.5t-36 38.5zM387 110v69h208v-69h-208z" />
    <glyph glyph-name="arrowright.Spitze" 
d="M236 585l274 -274l-274 -274l-57 57l223 217l-223 217z" />
    <glyph glyph-name="ampersand_ampersand.liga" 
d="M1215 334q-23 -103 -67 -178l61 -54v-112l-111 96q-87 -96 -207 -96q-84 0 -137 43q-54 -43 -114 -43q-76 0 -170 88q-84 -88 -199 -88q-93 0 -145.5 51t-52.5 135q0 109 97 194q-45 67 -45 140q0 92 56.5 146t142.5 54q73 0 145 -36v-87q-77 40 -141 40q-56 0 -85 -30
t-29 -85q0 -42 20 -76.5t65 -77.5l160 -154q28 55 43 130h93q-27 -113 -74 -190q73 -70 122 -70q31 0 65 23q-15 34 -15 79q0 107 98 195q-46 64 -46 139q0 92 56.5 146t142.5 54q73 0 145 -36v-87q-77 40 -141 40q-56 0 -85 -30t-29 -85q0 -43 21 -77.5t69 -78.5l160 -142
q25 51 38 120h93zM901 73q78 0 136 67l-156 136q-18 15 -33 30q-62 -54 -62 -121q0 -50 30.5 -81t84.5 -31zM281 73q74 0 130 60l-158 146l-27 26q-60 -54 -60 -120q0 -50 30.5 -81t84.5 -31z" />
    <glyph glyph-name="bar_braceright.liga" 
d="M308 -89v880h90v-880h-90zM1017 390h49v-76h-49q-43 0 -66 -29t-23 -69v-184q0 -57 -32 -89t-90 -32h-257v80h240q49 0 49 46v151q0 71 28 111.5t93 52.5q-65 12 -93 53t-28 112v148q0 46 -49 46h-240v80h257q58 0 90 -32t32 -89v-182q0 -40 23 -69t66 -29z" />
    <glyph glyph-name="bar_bracketright.liga" 
d="M308 -89v880h90v-880h-90zM549 791h423v-880h-423v80h333v720h-333v80z" />
    <glyph glyph-name="bar_bar_bar_greater.liga" 
d="M455 -118v858h90v-858h-90zM950 -118v858h89v-858h-89zM1538 740l732 -390v-76l-732 -392h-94v858h94zM1526 -35l651 347l-651 345v-692z" />
    <glyph glyph-name="bar_bar_greater.liga" 
d="M388 -118v858h90v-858h-90zM953 740l732 -390v-76l-732 -392h-94v858h94zM941 -35l651 347l-651 345v-692z" />
    <glyph glyph-name="bar_greater.liga" 
d="M351 740l732 -390v-76l-732 -392h-94v858h94zM339 -35l651 347l-651 345v-692z" />
    <glyph glyph-name="dollar_greater.liga" 
d="M677 634l471 -244v-77l-424 -227v85l339 180l-420 215q-126 64 -224 64q-76 0 -111 -31t-35 -81q0 -39 19.5 -65.5t51 -40.5t69.5 -25t76 -24t69.5 -32t51 -54.5t19.5 -85.5q0 -84 -50.5 -134.5t-142.5 -62.5v-94h-90v91q-73 4 -157 30v94q103 -40 184 -40q159 0 159 103
q0 36 -19.5 61.5t-51 39.5t-69.5 25.5t-76 25.5t-69.5 33.5t-51 56t-19.5 86.5q0 86 50.5 138t141.5 63v93h90v-92q102 -11 219 -74z" />
    <glyph glyph-name="plus_plus.liga" 
d="M375 565v-214h215v-80h-215v-214h-81v214h-214v80h214v214h81zM1201 351v-80h-215v-214h-81v214h-214v80h214v214h81v-214h215z" />
    <glyph glyph-name="plus_plus_plus.liga" 
d="M389 565v-214h215v-80h-215v-214h-80v214h-215v80h215v214h80zM1000 565v-214h215v-80h-215v-214h-80v214h-215v80h215v214h80zM1826 351v-80h-215v-214h-80v214h-215v80h215v214h80v-214h215z" />
    <glyph glyph-name="plus_greater.liga" 
d="M640 611l510 -272v-76l-510 -272v85l425 225l-425 225v85zM640 271h-215v-214h-80v214h-215v80h215v214h80v-214h215v-80z" />
    <glyph glyph-name="equal_colon_equal.liga" 
d="M891 547h138v-148h-138v148zM1276 367v80h510v-80h-510zM644 445v-80h-510v80h510zM1276 175v80h510v-80h-510zM644 253v-80h-510v80h510zM891 222h138v-148h-138v148z" />
    <glyph glyph-name="equal_exclam_equal.liga" 
d="M928 233l-37 467h138l-37 -467h-64zM1255 367v80h510v-80h-510zM665 445v-80h-510v80h510zM1255 175v80h510v-80h-510zM665 253v-80h-510v80h510zM891 148h138v-148h-138v148z" />
    <glyph glyph-name="equal_equal.liga" 
d="M130 367v80h1020v-80h-1020zM130 175v80h1020v-80h-1020z" />
    <glyph glyph-name="equal_equal_equal.liga" 
d="M130 553h1660v-80h-1660v80zM130 351h1660v-80h-1660v80zM130 149h1660v-80h-1660v80z" />
    <glyph glyph-name="equal_equal_greater.liga" 
d="M1527 585l274 -274l-274 -274l-57 57l83 81h-1423v80h1506l57 56l-57 56h-1506v80h1423l-83 81z" />
    <glyph glyph-name="equal_greater.liga" 
d="M887 585l274 -274l-274 -274l-57 57l83 81h-783v80h866l57 56l-57 56h-866v80h783l-83 81z" />
    <glyph glyph-name="equal_greater_greater.liga" 
d="M1247 585l274 -274l-274 -274l-57 57l83 81h-1143v80h1226l57 56l-57 56h-1226v80h1143l-83 81zM1527 585l274 -274l-274 -274l-57 57l223 217l-223 217z" />
    <glyph glyph-name="equal_less_less.liga" 
d="M1494 528l-161 -156h-1203v80h1174l133 133zM1775 528l-223 -217l223 -217l-57 -57l-274 274l274 274zM130 250h1203l161 -156l-57 -57l-133 133h-1174v80z" />
    <glyph glyph-name="equal_slash_equal.liga" 
d="M1790 372h-761l-61 -122h822v-80h-861l-56 -114h-77l56 114h-722v80h762l60 122h-822v80h862l56 114h76l-56 -114h722v-80z" />
    <glyph glyph-name="greater_hyphen.liga" 
d="M1150 351v-80h-714l-234 -234l-57 57l223 217l-223 217l57 57l234 -234h714z" />
    <glyph glyph-name="greater_hyphen_greater.liga" 
d="M1527 585l274 -274l-274 -274l-57 57l158 154l26 23h-1218l-234 -234l-57 57l223 217l-223 217l57 57l234 -234h1219l-27 24l-158 153z" />
    <glyph glyph-name="greater_colon.liga" 
d="M175 546v85l510 -272v-76l-510 -272v85l425 225zM934 568h138v-148h-138v148zM934 95v148h138v-148h-138z" />
    <glyph glyph-name="greater_equal.liga" 
d="M348 708l584 -239v-66l-584 -239v85l475 187l-475 187v85zM348 -8v85l584 239v-85z" />
    <glyph glyph-name="greater_equal_greater.liga" 
d="M1527 585l274 -274l-274 -274l-57 57l78 76h-1213l-133 -133l-57 57l161 156h1324l63 61l-63 61h-1324l-161 156l57 57l133 -133h1213l-78 76z" />
    <glyph glyph-name="greater_greater.liga" 
d="M128 546v85l510 -272v-76l-510 -272v85l425 225zM673 631l510 -272v-76l-510 -272v85l425 225l-425 225v85z" />
    <glyph glyph-name="greater_greater_hyphen.liga" 
d="M202 585l274 -274l-274 -274l-57 57l223 217l-223 217zM1790 351v-80h-1073l-234 -234l-58 57l224 217l-224 217l58 57l234 -234h1073z" />
    <glyph glyph-name="greater_greater_equal.liga" 
d="M202 585l274 -274l-274 -274l-57 57l223 217l-223 217zM616 452h1174v-80h-1203l-161 156l57 57zM426 94l161 156h1203v-80h-1174l-133 -133z" />
    <glyph glyph-name="greater_greater_greater.liga" 
d="M188 546v85l510 -272v-76l-510 -272v85l425 225zM733 546v85l510 -272v-76l-510 -272v85l425 225zM1278 631l510 -272v-76l-510 -272v85l425 225l-425 225v85z" />
    <glyph glyph-name="less_hyphen.liga" 
d="M1150 351v-80h-883l26 -23l157 -154l-57 -57l-274 274l274 274l57 -57l-157 -153l-27 -24h884z" />
    <glyph glyph-name="less_hyphen_hyphen.liga" 
d="M1790 351v-80h-1523l26 -23l157 -154l-57 -57l-274 274l274 274l57 -57l-157 -153l-27 -24h1524z" />
    <glyph glyph-name="less_hyphen_greater.liga" 
d="M1527 585l274 -274l-274 -274l-57 57l158 154l26 23h-1387l26 -23l157 -154l-57 -57l-274 274l274 274l57 -57l-157 -153l-27 -24h1389l-27 24l-158 153z" />
    <glyph glyph-name="less_hyphen_less.liga" 
d="M1775 528l-223 -217l223 -217l-57 -57l-234 234h-1217l26 -23l157 -154l-57 -57l-274 274l274 274l57 -57l-157 -153l-27 -24h1218l234 234z" />
    <glyph glyph-name="less_colon.liga" 
d="M175 283v76l510 272v-85l-425 -225l425 -225v-85zM934 547h138v-148h-138v148zM934 74v148h138v-148h-138z" />
    <glyph glyph-name="less_exclam_hyphen_hyphen.liga" 
d="M850 233l-37 467h138l-37 -467h-64zM293 375l-27 -24h432v-80h-431l26 -23l157 -154l-57 -57l-274 274l274 274l57 -57zM1066 351h1364v-80h-1364v80zM812 0v148h139v-148h-139z" />
    <glyph glyph-name="less_asterisk.liga" 
d="M95 283v76l510 272v-85l-425 -225l425 -225v-85zM1178 347l-68 -23l-166 -26l118 -118l43 -57l-72 -53l-43 58l-75 149l-76 -149l-42 -58l-72 53l42 57l118 118l-166 26l-68 23l28 85l68 -22l150 -76l-27 165v71h89v-71l-27 -165l150 76l68 22z" />
    <glyph glyph-name="less_asterisk_greater.liga" 
d="M140 283v76l510 272v-85l-425 -225l425 -225v-85zM1270 631l510 -272v-76l-510 -272v85l425 225l-425 225v85zM1128 410l68 22l28 -85l-68 -23l-166 -26l118 -118l42 -57l-72 -53l-42 58l-75 149l-76 -149l-43 -58l-72 53l43 57l118 118l-166 26l-68 23l28 85l68 -22
l150 -76l-27 165v71h89v-71l-27 -165z" />
    <glyph glyph-name="less_bar.liga" 
d="M929 740h95v-858h-95l-731 392v76zM290 312l651 -347v692z" />
    <glyph glyph-name="less_bar_bar.liga" 
d="M236 350l731 390h95v-858h-95l-731 392v76zM1442 740h90v-858h-90v858zM328 312l651 -347v692z" />
    <glyph glyph-name="less_bar_bar_bar.liga" 
d="M291 350l731 390h95v-858h-95l-731 392v76zM1521 -118v858h90v-858h-90zM2016 740h89v-858h-89v858zM383 312l651 -347v692z" />
    <glyph glyph-name="less_bar_greater.liga" 
d="M90 274v76l738 390v-89l-646 -339l646 -341v-89zM915 -118v858h90v-858h-90zM1093 740l737 -390v-76l-737 -392v89l645 341l-645 339v89z" />
    <glyph glyph-name="less_dollar.liga" 
d="M1103 191q0 -84 -50.5 -134.5t-142.5 -62.5v-94h-90v91q-102 7 -219 69l-469 251v76l424 227v-85l-339 -180l421 -220q116 -59 214 -59q154 0 154 108q0 36 -19.5 61.5t-51 39.5t-69.5 25.5t-76 25.5t-69.5 33.5t-51 56t-19.5 86.5q0 86 50.5 138t141.5 63v93h90v-92
q68 -6 140 -36v-95q-105 47 -185 47q-140 0 -140 -106q0 -39 19.5 -65.5t51 -40.5t69.5 -25t76 -24t69.5 -32t51 -54.5t19.5 -85.5z" />
    <glyph glyph-name="less_dollar_greater.liga" 
d="M1234 634l471 -244v-77l-424 -227v85l339 180l-422 214q-122 65 -222 65q-76 0 -111 -31t-35 -81q0 -39 19.5 -65.5t51 -40.5t69.5 -25t76 -24t69.5 -32t51 -54.5t19.5 -85.5q0 -84 -50.5 -134.5t-142.5 -62.5v-94h-90v91q-102 7 -219 69l-469 251v76l424 227v-85
l-339 -180l421 -220q116 -59 214 -59q154 0 154 108q0 36 -19.5 61.5t-51 39.5t-69.5 25.5t-76 25.5t-69.5 33.5t-51 56t-19.5 86.5q0 86 50.5 138t141.5 63v93h90v-92q102 -11 219 -74z" />
    <glyph glyph-name="less_plus.liga" 
d="M640 546l-425 -225l425 -225v-85l-510 272v76l510 272v-85zM1150 351v-80h-215v-214h-80v214h-215v80h215v214h80v-214h215z" />
    <glyph glyph-name="less_plus_greater.liga" 
d="M135 283v76l510 272v-85l-425 -225l425 -225v-85zM1275 631l510 -272v-76l-510 -272v85l425 225l-425 225v85zM1000 565v-214h215v-80h-215v-214h-80v214h-215v80h215v214h80z" />
    <glyph glyph-name="less_equal.liga" 
d="M932 708v-85l-475 -187l475 -187v-85l-584 239v66zM348 231v85l584 -239v-85z" />
    <glyph glyph-name="less_equal_equal.liga" 
d="M284 367l-57 -56l57 -56h1506v-80h-1423l83 -81l-57 -57l-274 274l274 274l57 -57l-83 -81h1423v-80h-1506z" />
    <glyph glyph-name="less_equal_equal_greater.liga" 
d="M2167 585l274 -274l-274 -274l-57 57l83 81h-1826l83 -81l-57 -57l-274 274l274 274l57 -57l-83 -81h1826l-83 81zM284 255h1992l57 56l-57 56h-1992l-57 -56z" />
    <glyph glyph-name="less_equal_greater.liga" 
d="M1527 585l274 -274l-274 -274l-57 57l83 81h-1186l83 -81l-57 -57l-274 274l274 274l57 -57l-83 -81h1186l-83 81zM284 255h1352l57 56l-57 56h-1352l-57 -56z" />
    <glyph glyph-name="less_equal_less.liga" 
d="M290 250h1324l161 -156l-57 -57l-133 133h-1213l78 -76l-57 -57l-274 274l274 274l57 -57l-78 -76h1213l133 133l57 -57l-161 -156h-1324l-63 -61z" />
    <glyph glyph-name="less_greater.liga" 
d="M640 561l510 -212v-76l-510 -212l-510 212v76zM1051 311l-411 165l-410 -165l410 -165z" />
    <glyph glyph-name="less_less.liga" 
d="M98 263v76l510 272v-85l-426 -225l426 -225v-85zM1153 611v-85l-426 -225l426 -225v-85l-510 272v76z" />
    <glyph glyph-name="less_less_hyphen.liga" 
d="M450 528l-223 -217l223 -217l-57 -57l-274 274l274 274zM1790 351v-80h-1242l26 -23l157 -154l-57 -57l-274 274l274 274l57 -57l-157 -153l-27 -24h1243z" />
    <glyph glyph-name="less_less_equal.liga" 
d="M450 528l-223 -217l223 -217l-57 -57l-274 274l274 274zM564 367l-57 -56l57 -56h1226v-80h-1143l83 -81l-57 -57l-274 274l274 274l57 -57l-83 -81h1143v-80h-1226z" />
    <glyph glyph-name="less_less_less.liga" 
d="M133 283v76l510 272v-85l-426 -225l426 -225v-85zM678 283v76l510 272v-85l-426 -225l426 -225v-85zM1733 631v-85l-426 -225l426 -225v-85l-510 272v76z" />
    <glyph glyph-name="less_asciitilde.liga" 
d="M941 308q20 0 43.5 7t39 14.5t50.5 25.5v-80q-79 -47 -134 -47q-48 0 -124 43t-122 43q-28 0 -100 -21.5t-127 -21.5h-134l182 -177l-57 -57l-274 274l274 274l57 -57l-182 -177h127q52 0 127.5 21.5t107.5 21.5q51 0 127 -43t119 -43z" />
    <glyph glyph-name="less_asciitilde_greater.liga" 
d="M1527 585l274 -274l-274 -274l-57 57l182 177h-77q-54 0 -130 -21.5t-107 -21.5q-51 0 -127 43t-119 43q-42 0 -130 -43t-135 -43q-48 0 -124 43t-122 43q-28 0 -100 -21.5t-128 -21.5h-85l182 -177l-57 -57l-274 274l274 274l57 -57l-182 -177h78q53 0 129 21.5
t108 21.5q50 0 126.5 -43t119.5 -43q42 0 129.5 43t134.5 43q48 0 124 -43t122 -43q28 0 100 21.5t129 21.5h84l-182 177z" />
    <glyph glyph-name="less_asciitilde_asciitilde.liga" 
d="M1531 308q47 0 139 47v-80q-80 -47 -141 -47q-51 0 -127.5 43t-119.5 43q-46 0 -128 -43t-131 -43q-48 0 -124 43t-122 43q-28 0 -100.5 -21.5t-127.5 -21.5h-169l183 -177l-58 -57l-274 274l274 274l58 -57l-183 -177h162q52 0 128.5 21.5t108.5 21.5q50 0 126.5 -43
t119.5 -43q41 0 127.5 43t130.5 43q48 0 125 -43t123 -43z" />
    <glyph glyph-name="less_slash.liga" 
d="M1011 701h79l-274 -780h-79l17 50l-565 302v76l534 286v-85l-450 -239l507 -268z" />
    <glyph glyph-name="less_slash_greater.liga" 
d="M1119 652l566 -303v-76l-534 -286v86l450 238l-508 269l-231 -659h-79l17 50l-565 302v76l534 285v-85l-450 -238l507 -268l231 658h79z" />
    <glyph glyph-name="asciitilde_hyphen.liga" 
d="M130 271v80q81 47 137 47q50 0 127 -43t122 -43q28 0 96 21.5t115 21.5h423v-80h-417q-43 0 -114 -21.5t-104 -21.5q-50 0 -127.5 43t-121.5 43q-20 0 -44 -7t-40 -14.5t-52 -25.5z" />
    <glyph glyph-name="asciitilde_at.liga" 
d="M892 710q162 0 244 -95.5t82 -280.5q0 -153 -40 -248.5t-117 -95.5q-74 0 -107 98q-39 -98 -133 -98q-76 0 -116.5 61t-40.5 172q0 120 54 184t160 64q61 0 121 -19l-1 -204q0 -91 13.5 -131.5t41.5 -40.5q39 0 53.5 59.5t14.5 179.5q0 171 -51.5 241.5t-176.5 70.5
q-70 0 -122 -22t-82.5 -57t-53.5 -77.5t-42 -85.5t-40.5 -78t-56.5 -57t-83 -22q-53 0 -124 43t-114 43q-50 0 -132 -47v81q73 46 133 46q40 0 79 -21.5t74.5 -43t68.5 -21.5q36 0 62.5 22t45 57.5t37 78.5t46 86t64 78.5t98 57.5t141.5 22zM833 71q40 0 57.5 36t17.5 121
v168q-21 7 -46 7q-56 0 -80.5 -39t-24.5 -132q0 -87 17.5 -124t58.5 -37z" />
    <glyph glyph-name="asciitilde_equal.liga" 
d="M250 448q111 46 204 46q75 0 190.5 -43t181.5 -43q73 0 204 47v-80q-109 -47 -205 -47q-74 0 -190 43t-183 43q-77 0 -202 -47v81zM250 250h780v-80h-780v80z" />
    <glyph glyph-name="asciitilde_greater.liga" 
d="M823 585l274 -274l-274 -274l-58 57l183 177h-128q-52 0 -127.5 -21.5t-107.5 -21.5q-50 0 -126.5 43t-119.5 43q-20 0 -43.5 -7t-39 -14.5t-50.5 -25.5v80q79 47 135 47q48 0 124 -43t122 -43q28 0 99.5 21.5t126.5 21.5h135l-183 177z" />
    <glyph glyph-name="asciitilde_asciitilde.liga" 
d="M1160 355v-80q-72 -47 -141 -47q-51 0 -128 43t-120 43q-46 0 -130 -43t-134 -43q-48 0 -124.5 43t-123.5 43q-56 0 -139 -47v80q74 47 140 47q52 0 129 -43t120 -43q45 0 129.5 43t133.5 43q48 0 125.5 -43t123.5 -43q54 0 139 47z" />
    <glyph glyph-name="asciitilde_asciitilde_greater.liga" 
d="M1417 585l274 -274l-274 -274l-57 57l182 177h-161q-52 0 -128.5 -21.5t-108.5 -21.5q-51 0 -127 43t-119 43q-41 0 -127.5 -43t-130.5 -43q-48 0 -125 43t-123 43q-49 0 -139 -47v80q80 47 140 47q51 0 128 -43t120 -43q46 0 127.5 43t130.5 43q48 0 124 -43t122 -43
q29 0 101 21.5t128 21.5h168l-182 177z" />
    <glyph glyph-name="asciicircum_equal.liga" 
d="M561 452h544v-80h-598l-125 253l-126 -253h-93l164 328h111zM542 170v80h563v-80h-563z" />
    <glyph glyph-name="percent_percent.liga" 
d="M237 396q-61 0 -95.5 39.5t-34.5 110.5q0 77 37 120.5t103 43.5q62 0 97 -40t35 -112q0 -76 -37.5 -119t-104.5 -43zM744 396q-61 0 -95.5 39.5t-34.5 110.5q0 77 37 120.5t103 43.5q62 0 97 -40t35 -112q0 -76 -37.5 -119t-104.5 -43zM158 0l377 700h81l-376 -700h-82z
M665 0l377 700h81l-376 -700h-82zM244 465q32 0 46.5 20.5t14.5 67.5t-14.5 67.5t-46.5 20.5q-33 0 -48 -21t-15 -67t15 -67t48 -21zM751 465q32 0 46.5 20.5t14.5 67.5t-14.5 67.5t-46.5 20.5q-33 0 -48 -21t-15 -67t15 -67t48 -21zM525 -10q-61 0 -95.5 39.5t-34.5 110.5
q0 77 37 120.5t103 43.5q62 0 97 -40t35 -112q0 -76 -37.5 -119t-104.5 -43zM1032 -10q-61 0 -95.5 39.5t-34.5 110.5q0 77 37 120.5t103 43.5q62 0 97 -40t35 -112q0 -76 -37.5 -119t-104.5 -43zM532 59q32 0 46.5 20.5t14.5 67.5t-14.5 67.5t-46.5 20.5q-33 0 -48 -21
t-15 -67t15 -67t48 -21zM1039 59q32 0 46.5 20.5t14.5 67.5t-14.5 67.5t-46.5 20.5q-33 0 -48 -21t-15 -67t15 -67t48 -21z" />
    <glyph glyph-name="kai" 
d="M92 -185q-47 0 -92 24v63q34 -22 80 -22q38 0 52 19t14 64v108h69v-102q0 -154 -123 -154z" />
  </font>
</defs>
</svg>
