<?xml version="1.0" standalone="no"?>
<!DOCTYPE svg PUBLIC "-//W3C//DTD SVG 1.1//EN" "http://www.w3.org/Graphics/SVG/1.1/DTD/svg11.dtd" >
<svg xmlns="http://www.w3.org/2000/svg" xmlns:xlink="http://www.w3.org/1999/xlink" version="1.1">
<metadata>
Created by FontForge 20200427 at Mon Jun 12 23:14:52 2017
 By www
Copyright 2017 Fontstore Pte Ltd. All rights reserved.
</metadata>
<defs>
<font id="NeurialGrotesk-Regular" horiz-adv-x="600" >
  <font-face 
    font-family="Neurial Grotesk"
    font-weight="400"
    font-stretch="normal"
    units-per-em="1000"
    panose-1="0 0 5 0 0 0 0 0 0 0"
    ascent="800"
    descent="-200"
    x-height="506"
    cap-height="706"
    bbox="-596 -243 1682 1052"
    underline-thickness="80"
    underline-position="-195"
    unicode-range="U+0020-FB03"
  />
<missing-glyph horiz-adv-x="589" 
d="M41 707h507v-707h-507v707z" />
    <glyph glyph-name="f_f" unicode="ff" horiz-adv-x="660" 
d="M575 665q-37 0 -50.5 -16.5t-13.5 -49.5v-93h125v-73h-125v-433h-83v433h-238v-433h-83v433h-87v73h87v97q0 69 34.5 101.5t104.5 32.5h69v-72h-62q-37 0 -50 -16.5t-13 -49.5v-93h238v97q0 69 34.5 101.5t105.5 32.5h68v-72h-61z" />
    <glyph glyph-name="fi" unicode="fi" horiz-adv-x="582" 
d="M510 506v-506h-82v433h-238v-433h-83v433h-87v73h87v97q0 69 34.5 101.5t104.5 32.5h67v-72h-60q-37 0 -50 -16.5t-13 -49.5v-93h320zM417 729h104v-95h-104v95z" />
    <glyph glyph-name="fl" unicode="fl" horiz-adv-x="560" 
d="M20 506h87v97q0 69 34.5 101.5t104.5 32.5h69v-72h-62q-37 0 -50 -16.5t-13 -49.5v-93h125v-73h-125v-433h-83v433h-87v73zM488 736v-736h-82v736h82z" />
    <glyph glyph-name="f_f_i" unicode="ffi" horiz-adv-x="903" 
d="M832 506v-506h-82v433h-239v-433h-83v433h-238v-433h-83v433h-87v73h87v97q0 69 34.5 101.5t104.5 32.5h69v-72h-62q-37 0 -50 -16.5t-13 -49.5v-93h238v97q0 69 34.5 101.5t105.5 32.5h66v-72h-59q-37 0 -50.5 -16.5t-13.5 -49.5v-93h321zM739 729h104v-95h-104v95z" />
    <glyph glyph-name=".notdef" horiz-adv-x="589" 
d="M41 707h507v-707h-507v707z" />
    <glyph glyph-name=".null" horiz-adv-x="0" 
 />
    <glyph glyph-name="nonmarkingreturn" horiz-adv-x="333" 
 />
    <glyph glyph-name="space" unicode=" " horiz-adv-x="196" 
 />
    <glyph glyph-name="exclam" unicode="!" horiz-adv-x="258" 
d="M86 507v199h84v-199q2 -149 -12 -297h-61q-11 121 -11 297zM71 0v115h115v-115h-115z" />
    <glyph glyph-name="quotedbl" unicode="&#x22;" horiz-adv-x="400" 
d="M76 591v115h83v-115q-2 -85 -15 -133h-53q-13 48 -15 133zM241 591v115h84v-115q-4 -89 -16 -133h-52q-12 41 -16 133z" />
    <glyph glyph-name="numbersign" unicode="#" horiz-adv-x="610" 
d="M561 438h-97l-38 -174h103l-14 -73h-106l-43 -191h-77l42 191h-126l-42 -191h-78l43 191h-93l14 73h95l39 174h-102l14 72h105l44 196h78l-44 -196h125l44 196h79l-45 -196h94zM222 264h126l39 174h-126z" />
    <glyph glyph-name="dollar" unicode="$" horiz-adv-x="623" 
d="M573 191q0 -85 -64 -138.5t-164 -61.5v-89h-75v90q-102 10 -160 64.5t-58 137.5h86q0 -59 46.5 -93.5t132.5 -34.5q71 0 119.5 32.5t48.5 91.5q0 51 -31 77.5t-95 39.5l-115 23q-84 16 -131 64.5t-47 125.5q0 79 56 131t148 63v88h75v-87q97 -8 156 -61.5t59 -141.5h-85
q0 61 -43.5 95t-122.5 34q-68 0 -111.5 -31t-43.5 -87q0 -49 30 -76t92 -39l114 -22q90 -17 136.5 -67t46.5 -128z" />
    <glyph glyph-name="percent" unicode="%" horiz-adv-x="905" 
d="M196 342q-73 0 -114.5 51t-41.5 136q0 83 41.5 134.5t114.5 51.5t114 -51t41 -135t-41 -135.5t-114 -51.5zM188 0l439 706h86l-440 -706h-85zM196 409q80 0 80 120q0 119 -80 119q-81 0 -81 -119q0 -120 81 -120zM709 -10q-73 0 -114 51t-41 136q0 84 41 135t114 51
t114.5 -51t41.5 -135t-41.5 -135.5t-114.5 -51.5zM709 57q81 0 81 120q0 119 -81 119q-80 0 -80 -119q0 -120 80 -120z" />
    <glyph glyph-name="ampersand" unicode="&#x26;" horiz-adv-x="753" 
d="M677 77h48v-77h-53q-48 0 -79.5 13t-60.5 46l-9 10q-85 -79 -212 -79q-104 0 -170 50.5t-66 137.5q0 117 146 198l20 11l-11 13q-79 88 -79 160q0 70 50 113t133 43q80 0 129 -41t49 -108q0 -94 -102 -160l-53 -33l167 -186q43 78 46 176h77q0 -138 -70 -235l13 -15
q33 -37 87 -37zM331 647q-46 0 -72.5 -24t-26.5 -62q0 -30 16 -56.5t48 -62.5l15 -17l47 28q74 43 74 109q0 38 -28 61.5t-73 23.5zM312 61q100 0 163 62l-188 213l-23 -14q-103 -62 -103 -141q0 -58 43 -89t108 -31z" />
    <glyph glyph-name="quotesingle" unicode="'" horiz-adv-x="235" 
d="M76 591v115h83v-115q-2 -85 -15 -133h-53q-13 48 -15 133z" />
    <glyph glyph-name="parenleft" unicode="(" horiz-adv-x="276" 
d="M56 350q-1 115 33 226.5t92 187.5h75q-52 -72 -83.5 -184.5t-31.5 -226.5q0 -115 31.5 -226.5t82.5 -184.5h-74q-58 73 -91.5 183.5t-33.5 224.5z" />
    <glyph glyph-name="parenright" unicode=")" horiz-adv-x="276" 
d="M135 353q0 114 -31.5 226.5t-83.5 184.5h75q58 -76 91.5 -187.5t33.5 -226.5q-1 -114 -34.5 -224.5t-90.5 -183.5h-75q52 72 83.5 184t31.5 227z" />
    <glyph glyph-name="asterisk" unicode="*" horiz-adv-x="347" 
d="M33 594l16 48l56 -19q33 -10 50 -24q-9 18 -9 54v60h52v-60q0 -38 -7 -54q20 16 48 25l57 18l18 -49l-57 -19q-36 -13 -56 -10q23 -15 41 -40l36 -49l-42 -30l-34 47q-22 28 -29 54q-4 -22 -27 -54l-35 -47l-45 30l37 49q22 28 42 40q-22 -3 -57 10z" />
    <glyph glyph-name="plus" unicode="+" 
d="M531 369v-80h-191v-192h-80v192h-191v80h191v192h80v-192h191z" />
    <glyph glyph-name="comma" unicode="," horiz-adv-x="230" 
d="M58 0v115h116v-115l-59 -114h-53l56 114h-60z" />
    <glyph glyph-name="hyphen" unicode="-" horiz-adv-x="412" 
d="M56 326h301v-79h-301v79z" />
    <glyph glyph-name="period" unicode="." horiz-adv-x="227" 
d="M56 0v115h116v-115h-116z" />
    <glyph glyph-name="slash" unicode="/" horiz-adv-x="343" 
d="M6 0l252 706h78l-252 -706h-78z" />
    <glyph glyph-name="zero" unicode="0" horiz-adv-x="664" 
d="M331 716q-135 0 -209.5 -98t-74.5 -265t74.5 -265t209.5 -98q136 0 211 98t75 265t-75 265t-211 98zM531 353q0 -134 -51.5 -211t-148.5 -77t-147.5 77t-50.5 211t50.5 211t147.5 77t148.5 -77t51.5 -211z" />
    <glyph glyph-name="one" unicode="1" horiz-adv-x="357" 
d="M264 0h-84v618l-163 -84v86l163 86h84v-706z" />
    <glyph glyph-name="two" unicode="2" horiz-adv-x="543" 
d="M147 81h353v-81h-467v77l270 252q58 54 82 93t25 82q0 64 -37.5 99.5t-107.5 35.5q-62 0 -103.5 -38t-44.5 -97h-86q6 97 73.5 154.5t160.5 57.5q103 0 168 -54.5t65 -151.5q0 -62 -33 -114t-100 -114z" />
    <glyph glyph-name="three" unicode="3" horiz-adv-x="572" 
d="M398 365q61 -17 94.5 -64t33.5 -109q0 -93 -66.5 -147.5t-178.5 -54.5q-113 0 -179.5 58.5t-66.5 155.5h87q0 -66 41 -103t115 -37t116 35.5t42 95.5q0 61 -41.5 96t-116.5 35h-51v74h49q69 0 106 33t37 90q0 56 -38 88t-103 32q-74 0 -115.5 -37.5t-40.5 -103.5h-85
q0 98 65 156t178 58q102 0 164.5 -51t62.5 -139q0 -53 -28 -96t-81 -65z" />
    <glyph glyph-name="four" unicode="4" horiz-adv-x="577" 
d="M369 0v146h-345v75l336 485h94v-483h103v-77h-103v-146h-85zM115 223h254v365z" />
    <glyph glyph-name="five" unicode="5" horiz-adv-x="555" 
d="M285 476q105 0 170.5 -66.5t65.5 -174.5q0 -113 -69 -179t-178 -66q-97 0 -165 54t-75 145h85q8 -59 49.5 -92t104.5 -33q73 0 116.5 47t43.5 124t-43 123t-115 46q-97 0 -143 -81h-86l68 383h378v-77h-314l-39 -205q52 52 146 52z" />
    <glyph glyph-name="six" unicode="6" horiz-adv-x="598" 
d="M318 487q103 0 172 -66t69 -180q0 -113 -69 -182t-177 -69q-119 0 -192.5 87t-73.5 265q0 174 74.5 274t208.5 100q84 0 148.5 -45t81.5 -127h-86q-37 97 -151 97q-92 0 -139 -66.5t-51 -184.5q24 45 73 71t112 26zM313 66q74 0 118 50t44 124q0 76 -44 124.5t-119 48.5
q-74 0 -120.5 -47t-46.5 -123t46.5 -126.5t121.5 -50.5z" />
    <glyph glyph-name="seven" unicode="7" horiz-adv-x="493" 
d="M379 628h-369v78h470v-73q-105 -139 -179 -308.5t-98 -324.5h-85q26 159 96.5 327.5t164.5 300.5z" />
    <glyph glyph-name="eight" unicode="8" horiz-adv-x="607" 
d="M446 381q53 -23 85.5 -72.5t32.5 -108.5q0 -92 -71.5 -151t-189.5 -59q-117 0 -188.5 58.5t-71.5 150.5q0 59 32.5 109t86.5 73q-90 50 -90 150q0 84 64 134.5t168 50.5t168 -50.5t64 -134.5q0 -102 -90 -150zM304 648q-69 0 -109.5 -32t-40.5 -86q0 -55 41 -87.5
t109 -32.5t108.5 32.5t40.5 87.5t-40.5 86.5t-108.5 31.5zM304 64q80 0 127.5 37t47.5 100q0 64 -47.5 102t-127.5 38t-127.5 -38t-47.5 -102q0 -63 47.5 -100t127.5 -37z" />
    <glyph glyph-name="nine" unicode="9" horiz-adv-x="597" 
d="M286 716q119 0 191.5 -91.5t72.5 -274.5q0 -79 -14.5 -142.5t-45 -113.5t-83 -77t-123.5 -27q-92 0 -154.5 47.5t-78.5 124.5h86q17 -48 56.5 -72.5t91.5 -24.5q90 0 134.5 63t44.5 159q0 19 -1 28q-24 -44 -72.5 -70t-110.5 -26q-104 0 -173 66.5t-69 180.5
q0 113 69 181.5t179 68.5zM450 463q2 76 -44.5 127t-121.5 51t-118.5 -50t-43.5 -125q0 -76 43.5 -124.5t119.5 -48.5q74 0 119 46.5t46 123.5z" />
    <glyph glyph-name="colon" unicode=":" horiz-adv-x="227" 
d="M56 391v115h116v-115h-116zM56 0v115h116v-115h-116z" />
    <glyph glyph-name="semicolon" unicode=";" horiz-adv-x="230" 
d="M58 391v115h116v-115h-116zM58 0v115h116v-115l-59 -114h-53l56 114h-60z" />
    <glyph glyph-name="less" unicode="&#x3c;" 
d="M501 577v-90l-330 -162l330 -159v-89l-405 200v99z" />
    <glyph glyph-name="equal" unicode="=" 
d="M104 476h392v-76h-392v76zM104 262h392v-76h-392v76z" />
    <glyph glyph-name="greater" unicode="&#x3e;" 
d="M99 77v89l330 162l-330 159v90l405 -200v-99z" />
    <glyph glyph-name="question" unicode="?" horiz-adv-x="506" 
d="M34 518q0 86 60 142t158 56q93 0 150.5 -53t57.5 -133q0 -47 -20 -84.5t-48.5 -62t-57 -47t-48.5 -51.5t-20 -64h-77q0 47 18.5 83.5t45.5 60.5t53.5 46t45 51.5t18.5 65.5q0 51 -34 81.5t-88 30.5q-60 1 -93 -34t-33 -88h-88zM170 0v115h116v-115h-116z" />
    <glyph glyph-name="at" unicode="@" horiz-adv-x="875" 
d="M468 715q157 0 262.5 -92.5t105.5 -240.5q0 -119 -55.5 -191.5t-138.5 -72.5q-52 0 -84.5 24.5t-35.5 66.5q-16 -29 -50 -50.5t-79 -21.5q-62 0 -103.5 44t-41.5 123q0 89 52.5 155t134.5 66q45 0 77.5 -21t43.5 -57l17 53h51l-48 -226q-10 -52 9.5 -78.5t61.5 -26.5
q54 0 89.5 59.5t35.5 153.5q0 124 -83 202.5t-218 78.5q-161 0 -263.5 -109t-102.5 -267q0 -133 77 -218t219 -85q97 0 184 41l21 -47q-92 -47 -203 -47q-168 0 -266 99.5t-98 257.5q0 181 122.5 304t306.5 123zM400 190q46 -1 77.5 33t44.5 96q15 69 -7 112t-74 43
q-59 0 -91 -53t-32 -118q0 -52 20.5 -82t61.5 -31z" />
    <glyph glyph-name="A" unicode="A" horiz-adv-x="658" 
d="M555 0l-66 175h-323l-67 -175h-88l273 706h91l272 -706h-92zM194 248h267l-133 351z" />
    <glyph glyph-name="B" unicode="B" horiz-adv-x="663" 
d="M496 366q58 -18 91 -64t33 -109q0 -88 -61 -140.5t-167 -52.5h-315v706h290q107 0 167.5 -49.5t60.5 -133.5q0 -111 -99 -157zM508 513q0 54 -37 85t-107 31h-201v-232h213q61 0 96.5 31t35.5 85zM381 77q73 0 111 32.5t38 89.5q0 58 -37 91.5t-104 33.5h-226v-247h218z
" />
    <glyph glyph-name="C" unicode="C" horiz-adv-x="743" 
d="M381 71q163 0 224 150h94q-32 -107 -114.5 -168.5t-204.5 -61.5q-150 0 -242 99.5t-92 258.5q0 161 92.5 264t243.5 103q122 0 204 -61t113 -169h-94q-60 150 -224 150q-112 0 -179 -79t-67 -205t67 -203.5t179 -77.5z" />
    <glyph glyph-name="D" unicode="D" horiz-adv-x="709" 
d="M77 0h233q166 0 259.5 96.5t93.5 256.5q0 159 -93.5 256t-259.5 97h-233v-706zM163 79v548h153q120 0 189 -73.5t69 -199.5q0 -125 -69 -199.5t-189 -75.5h-153z" />
    <glyph glyph-name="E" unicode="E" horiz-adv-x="597" 
d="M163 79h396v-79h-482v706h463v-79h-377v-233h298v-77h-298v-238z" />
    <glyph glyph-name="F" unicode="F" horiz-adv-x="566" 
d="M537 627h-374v-243h333v-77h-333v-307h-86v706h460v-79z" />
    <glyph glyph-name="G" unicode="G" horiz-adv-x="766" 
d="M387 386h316v-387h-69l-13 112q-38 -59 -101.5 -89.5t-142.5 -30.5q-147 0 -239 98.5t-92 257.5q0 162 94 265.5t245 103.5q123 0 206.5 -61.5t110.5 -165.5h-95q-55 147 -223 147q-113 0 -181 -78.5t-68 -206.5q0 -127 67.5 -204t180.5 -77q55 0 105 20.5t88.5 70
t41.5 120.5l2 -1v30h-233v76z" />
    <glyph glyph-name="H" unicode="H" horiz-adv-x="711" 
d="M548 318h-385v-318h-86v706h86v-308h385v308h85v-706h-85v318z" />
    <glyph glyph-name="I" unicode="I" horiz-adv-x="240" 
d="M163 706v-706h-86v706h86z" />
    <glyph glyph-name="J" unicode="J" horiz-adv-x="546" 
d="M111 203q0 -61 37 -97t101 -36q63 0 100 36.5t37 104.5v495h86v-496q0 -101 -61.5 -160.5t-160.5 -59.5q-101 0 -162 57t-61 156h84z" />
    <glyph glyph-name="K" unicode="K" horiz-adv-x="643" 
d="M77 0v706h85v-410l359 410h101l-270 -306l285 -400h-107l-238 334l-130 -143v-191h-85z" />
    <glyph glyph-name="L" unicode="L" horiz-adv-x="548" 
d="M163 81h355v-81h-441v706h86v-625z" />
    <glyph glyph-name="M" unicode="M" horiz-adv-x="870" 
d="M436 97l258 609h98v-706h-85v377q0 105 9 178l-240 -555h-83l-238 561q7 -60 7 -184v-377h-85v706h100z" />
    <glyph glyph-name="N" unicode="N" horiz-adv-x="709" 
d="M77 0v706h91l381 -571v571h83v-706h-89l-382 568v-568h-84z" />
    <glyph glyph-name="O" unicode="O" horiz-adv-x="764" 
d="M383 -9q-150 0 -243.5 100.5t-93.5 259.5q0 160 93.5 262.5t243.5 102.5q149 0 242 -102.5t93 -262.5t-92.5 -260t-242.5 -100zM383 72q112 0 178.5 76.5t66.5 202.5q0 127 -66.5 205.5t-178.5 78.5q-113 0 -180 -78.5t-67 -205.5q0 -126 67 -202.5t180 -76.5z" />
    <glyph glyph-name="P" unicode="P" horiz-adv-x="637" 
d="M77 0v706h277q112 0 178.5 -64t66.5 -161q0 -98 -66 -161.5t-179 -63.5h-190v-256h-87zM164 333h192q73 0 113 39.5t40 106.5t-40.5 108t-112.5 41h-192v-295z" />
    <glyph glyph-name="Q" unicode="Q" horiz-adv-x="772" 
d="M687 75h51v-75h-63q-37 0 -60.5 10t-41.5 36q-82 -55 -190 -55q-150 0 -243.5 100.5t-93.5 259.5q0 160 93.5 262.5t243.5 102.5q149 0 242 -102.5t93 -262.5q0 -150 -84 -250q10 -15 20.5 -20.5t32.5 -5.5zM136 351q0 -127 67 -203.5t180 -76.5q86 0 146 46l-16 27
q-14 23 -25.5 32t-33.5 9h-70v73h96q20 0 34.5 -4t27 -18t15.5 -18t16 -25l11 -16q44 72 44 174q0 127 -66.5 205.5t-178.5 78.5q-113 0 -180 -78.5t-67 -205.5z" />
    <glyph glyph-name="R" unicode="R" horiz-adv-x="653" 
d="M77 0v706h287q115 0 179.5 -60t64.5 -163q0 -82 -43 -139.5t-121 -75.5l148 -268h-98l-142 257h-190v-257h-85zM162 334h202q75 0 114.5 38t39.5 109t-39.5 109t-114.5 38h-202v-294z" />
    <glyph glyph-name="S" unicode="S" horiz-adv-x="605" 
d="M564 191q0 -92 -74.5 -146.5t-188.5 -54.5q-123 0 -195.5 56t-72.5 148h90q0 -59 47 -93.5t134 -34.5q72 0 121 33.5t49 91.5q0 51 -31.5 78.5t-94.5 38.5l-116 22q-91 16 -137.5 65t-46.5 125q0 88 69.5 142t181.5 54q113 0 183 -54t70 -150h-89q0 61 -44 95t-124 34
q-68 0 -113 -31t-45 -87q0 -49 30 -75.5t93 -38.5l116 -21q188 -34 188 -197z" />
    <glyph glyph-name="T" unicode="T" horiz-adv-x="613" 
d="M349 627v-627h-85v627h-241v79h567v-79h-241z" />
    <glyph glyph-name="U" unicode="U" horiz-adv-x="698" 
d="M157 706v-441q0 -94 50.5 -145.5t141.5 -51.5q90 0 140.5 51.5t50.5 145.5v441h86v-441q0 -125 -75.5 -200t-201.5 -75q-127 0 -202 74.5t-75 200.5v441h85z" />
    <glyph glyph-name="V" unicode="V" horiz-adv-x="683" 
d="M343 102l239 604h91l-285 -706h-94l-283 706h93z" />
    <glyph glyph-name="W" unicode="W" horiz-adv-x="977" 
d="M217 0l-200 706h89l163 -592l173 592h93l171 -595l166 595h88l-205 -706h-97l-172 582l-172 -582h-97z" />
    <glyph glyph-name="X" unicode="X" horiz-adv-x="634" 
d="M618 0h-104l-199 294l-198 -294h-99l238 355l-240 351h104l197 -294l198 294h99l-238 -352z" />
    <glyph glyph-name="Y" unicode="Y" horiz-adv-x="634" 
d="M274 241l-262 465h104l202 -374l203 374h102l-264 -465v-241h-85v241z" />
    <glyph glyph-name="Z" unicode="Z" horiz-adv-x="584" 
d="M141 79h408v-79h-514v72l398 555h-388v79h492v-72z" />
    <glyph glyph-name="bracketleft" unicode="[" horiz-adv-x="296" 
d="M73 775h197v-64h-121v-716h121v-64h-197v844z" />
    <glyph glyph-name="backslash" unicode="\" horiz-adv-x="345" 
d="M339 0h-83l-250 713h83z" />
    <glyph glyph-name="bracketright" unicode="]" horiz-adv-x="296" 
d="M146 -5v716h-120v64h196v-844h-196v64h120z" />
    <glyph glyph-name="asciicircum" unicode="^" 
d="M124 460l137 246h80l135 -246h-81l-94 170l-94 -170h-83z" />
    <glyph glyph-name="underscore" unicode="_" horiz-adv-x="481" 
d="M0 -29h481v-77h-481v77z" />
    <glyph glyph-name="grave" unicode="`" horiz-adv-x="185" 
d="M175 600h-74l-95 131h90z" />
    <glyph glyph-name="a" unicode="a" horiz-adv-x="564" 
d="M518 64h18v-64h-50q-75 0 -82 69q-23 -36 -70 -57.5t-107 -21.5q-85 0 -134 41.5t-49 113.5q0 66 46 106t148 40h160v28q0 66 -34.5 97.5t-93.5 31.5q-58 0 -92 -26t-37 -71h-79q4 78 62 121.5t149 43.5q96 0 152 -51t56 -145v-217q0 -24 7.5 -31.5t29.5 -7.5zM398 207
v23h-152q-117 0 -117 -84q0 -43 30.5 -65.5t81.5 -22.5q67 0 112 38t45 111z" />
    <glyph glyph-name="b" unicode="b" horiz-adv-x="631" 
d="M338 516q103 0 172 -71t69 -193t-69 -192t-172 -70q-59 0 -108.5 23.5t-76.5 66.5l-9 -80h-73v736h83v-315q26 45 75 70t109 25zM325 62q75 0 122 51.5t47 138.5q0 88 -46.5 139.5t-122.5 52.5q-73 0 -121 -53t-48 -140t48 -138t121 -51z" />
    <glyph glyph-name="c" unicode="c" horiz-adv-x="576" 
d="M446 337q-18 51 -56.5 79.5t-89.5 28.5q-73 0 -118.5 -50t-45.5 -141q0 -92 45.5 -141.5t117.5 -49.5q53 0 92.5 29.5t58.5 84.5h87q-21 -86 -84.5 -136t-153.5 -50q-111 0 -179 72.5t-68 190.5t68 190t179 72q90 0 152.5 -47.5t84.5 -131.5h-90z" />
    <glyph glyph-name="d" unicode="d" horiz-adv-x="632" 
d="M478 736h82v-736h-72l-10 86q-26 -45 -75.5 -70.5t-109.5 -25.5q-104 0 -172.5 69.5t-68.5 191.5q0 123 69 194t172 71q61 0 110 -24.5t75 -68.5v313zM306 62q73 0 121.5 51t48.5 138t-48.5 140t-121.5 52q-76 -1 -122.5 -53t-46.5 -139q0 -88 46.5 -138.5t122.5 -50.5z
" />
    <glyph glyph-name="e" unicode="e" horiz-adv-x="598" 
d="M546 266v-36h-406q1 -81 48 -125.5t118 -44.5q52 0 92 25.5t58 73.5h84q-22 -77 -84.5 -122.5t-151.5 -45.5q-112 0 -180 72t-68 191q0 118 68 190t179 72q109 0 176 -68.5t67 -181.5zM303 449q-66 0 -110.5 -40.5t-51.5 -117.5h321q-4 76 -48.5 117t-110.5 41z" />
    <glyph glyph-name="f" unicode="f" horiz-adv-x="338" 
d="M20 506h87v97q0 69 34.5 101.5t104.5 32.5h69v-72h-62q-37 0 -50 -16.5t-13 -49.5v-93h125v-73h-125v-433h-83v433h-87v73z" />
    <glyph glyph-name="g" unicode="g" horiz-adv-x="606" 
d="M463 506h72v-484q0 -106 -65.5 -169t-174.5 -63q-92 0 -153.5 46t-75.5 124h85q12 -49 50.5 -75t93.5 -26q75 0 117 40.5t42 109.5v96q-22 -44 -69.5 -69t-106.5 -25q-98 0 -162 68t-64 184q0 117 64 185t163 68q57 0 102.5 -24t71.5 -68zM292 82q72 0 116 49t44 130
q0 82 -44 132.5t-116 50.5q-71 0 -113 -50.5t-42 -131.5q0 -82 42 -131t113 -49z" />
    <glyph glyph-name="h" unicode="h" horiz-adv-x="585" 
d="M321 516q39 0 72.5 -11t62.5 -35t46 -68t17 -104v-298h-82v284q0 79 -35 117.5t-98 37.5q-72 0 -111.5 -45.5t-39.5 -118.5v-275h-82v736h82v-305q23 40 68 62.5t100 22.5z" />
    <glyph glyph-name="i" unicode="i" horiz-adv-x="225" 
d="M61 615v96h102v-96h-102zM71 0v506h82v-506h-82z" />
    <glyph glyph-name="j" unicode="j" horiz-adv-x="235" 
d="M71 615v96h102v-96h-102zM163 -65q0 -66 -34 -100.5t-96 -34.5h-65v74h54q59 0 59 63v569h82v-571z" />
    <glyph glyph-name="k" unicode="k" horiz-adv-x="518" 
d="M71 0v736h82v-478l245 248h104l-219 -221l220 -285h-103l-175 227l-71 -71v-156h-83z" />
    <glyph glyph-name="l" unicode="l" horiz-adv-x="225" 
d="M153 736v-736h-82v736h82z" />
    <glyph glyph-name="m" unicode="m" horiz-adv-x="871" 
d="M621 516q84 0 134 -52.5t50 -144.5v-319h-83v305q0 135 -117 135q-55 0 -90 -36.5t-37 -106.5v-297h-81v298q0 70 -30.5 106t-85.5 36q-60 0 -94 -36.5t-34 -101.5v-302h-82v506h72l12 -59q40 69 139 69q121 0 165 -98q22 49 66.5 73.5t95.5 24.5z" />
    <glyph glyph-name="n" unicode="n" horiz-adv-x="584" 
d="M318 516q94 0 147 -57.5t53 -155.5v-303h-82v286q0 77 -36.5 116t-100.5 39q-70 0 -108 -45.5t-38 -121.5v-274h-82v506h72l9 -78q46 88 166 88z" />
    <glyph glyph-name="o" unicode="o" horiz-adv-x="616" 
d="M52 252q0 117 71 190.5t185 73.5q115 0 186 -73.5t71 -190.5q0 -116 -71 -189t-186 -73q-114 0 -185 72.5t-71 189.5zM136 253q0 -87 47.5 -139.5t124.5 -52.5t124.5 52.5t47.5 139.5q0 88 -47 140.5t-125 52.5t-125 -52.5t-47 -140.5z" />
    <glyph glyph-name="p" unicode="p" horiz-adv-x="631" 
d="M338 516q103 0 172 -70.5t69 -193.5q0 -121 -68.5 -191.5t-172.5 -70.5q-60 0 -109.5 24t-75.5 68v-282h-82v706h73l9 -84q27 44 76.5 69t108.5 25zM325 62q75 0 122 51t47 139t-46.5 139.5t-122.5 51.5q-73 1 -121 -52t-48 -141q0 -86 48 -137t121 -51z" />
    <glyph glyph-name="q" unicode="q" horiz-adv-x="632" 
d="M488 506h72v-706h-82v282q-26 -44 -75.5 -68t-109.5 -24q-104 0 -172.5 69.5t-68.5 191.5q0 123 69 194t172 71q59 0 108.5 -25t76.5 -69zM306 62q73 0 121.5 51t48.5 138t-48.5 140t-121.5 52q-76 -1 -122.5 -53t-46.5 -139q0 -88 46.5 -138.5t122.5 -50.5z" />
    <glyph glyph-name="r" unicode="r" horiz-adv-x="372" 
d="M283 506h64v-76h-67q-126 0 -126 -151v-279h-82v506h72l11 -72q16 31 50.5 51.5t77.5 20.5z" />
    <glyph glyph-name="s" unicode="s" horiz-adv-x="511" 
d="M40 149h83q1 -45 37 -70t95 -25q58 0 92 22.5t34 61.5q0 34 -19.5 52.5t-63.5 24.5l-105 17q-140 23 -140 138q0 66 55.5 106t140.5 40q91 0 148 -42t58 -116h-81q-1 45 -35 69.5t-89 24.5q-53 0 -84.5 -21.5t-31.5 -58.5q0 -32 21.5 -49t69.5 -24l103 -17
q136 -22 136 -137q0 -73 -58.5 -114t-148.5 -41q-99 0 -157 43t-60 116z" />
    <glyph glyph-name="t" unicode="t" horiz-adv-x="341" 
d="M225 0q-58 0 -91 32t-33 95v305h-91v74h48q24 0 33.5 10.5t9.5 34.5v87h82v-132h119v-74h-119v-294q0 -64 61 -64h57v-74h-76z" />
    <glyph glyph-name="u" unicode="u" horiz-adv-x="570" 
d="M419 506h79v-506h-71l-8 75q-46 -85 -156 -85q-92 0 -144.5 58t-52.5 155v303h80v-290q0 -75 36 -113.5t97 -37.5q67 0 103.5 44.5t36.5 119.5v277z" />
    <glyph glyph-name="v" unicode="v" horiz-adv-x="533" 
d="M99 506l167 -414l168 414h88l-212 -506h-89l-210 506h88z" />
    <glyph glyph-name="w" unicode="w" horiz-adv-x="784" 
d="M107 506l113 -415l132 415h85l131 -415l110 415h86l-146 -506h-94l-131 408l-131 -408h-94l-149 506h88z" />
    <glyph glyph-name="x" unicode="x" horiz-adv-x="516" 
d="M18 0l182 256l-183 250h98l143 -202l143 202h98l-183 -249l182 -257h-97l-143 208l-143 -208h-97z" />
    <glyph glyph-name="y" unicode="y" horiz-adv-x="516" 
d="M100 506l166 -451l153 452l87 -1l-212 -588q-25 -69 -64.5 -93.5t-100.5 -24.5h-100v74h101q40 0 62 21.5t22 63.5q0 20 -9 44l-194 503h89z" />
    <glyph glyph-name="z" unicode="z" horiz-adv-x="494" 
d="M148 73h301v-73h-401v71l299 361h-302v74h402v-72z" />
    <glyph glyph-name="braceleft" unicode="{" horiz-adv-x="286" 
d="M160 649v-210q0 -56 -55 -86q56 -33 56 -85v-204q0 -66 54 -67l44 -1v-65l-56 1q-56 1 -86.5 33.5t-30.5 88.5v199q0 62 -67 65v70q66 5 66 66v203q0 56 32.5 87.5t90.5 31.5h51v-65h-43q-56 0 -56 -62z" />
    <glyph glyph-name="bar" unicode="|" horiz-adv-x="286" 
d="M104 -81v858h78v-858h-78z" />
    <glyph glyph-name="braceright" unicode="}" horiz-adv-x="285" 
d="M82 775q56 -1 86.5 -33.5t30.5 -88.5v-199q0 -60 67 -65v-70q-66 -5 -66 -66v-203q0 -56 -32.5 -87.5t-90.5 -31.5h-51v65h43q56 0 56 62v210q0 56 56 86q-57 31 -57 85v205q0 64 -53 66l-45 1v65z" />
    <glyph glyph-name="asciitilde" unicode="~" 
d="M319 335q3 -3 12.5 -10.5t12 -9.5t9.5 -7t11 -6.5t10 -4.5t12 -3.5t13 -0.5q24 0 38 19t13 53h70q2 -65 -30.5 -106t-87.5 -41q-12 0 -23.5 1.5t-22 5.5t-17 7t-17.5 10.5t-14.5 10t-15 12t-13.5 11.5t-11 10t-11.5 9.5t-10 7.5t-11 7.5t-10 4.5t-12.5 4t-13 1
q-24 0 -38 -19t-13 -53h-70q-2 65 30.5 106t86.5 41q13 0 24 -1.5t22.5 -6.5t18 -7.5t17.5 -11t14 -10.5t14.5 -12t12.5 -11z" />
    <glyph glyph-name="exclamdown" unicode="&#xa1;" horiz-adv-x="258" 
d="M71 710h115v-115h-115v115zM87 203q0 161 11 297h62q13 -139 11 -297v-203h-84v203z" />
    <glyph glyph-name="cent" unicode="&#xa2;" horiz-adv-x="560" 
d="M519 275q-19 -75 -72.5 -123t-131.5 -56v-96h-70v96q-95 12 -151.5 81t-56.5 175q0 105 56.5 174.5t151.5 82.5v97h70v-97q76 -8 129 -54.5t74 -119.5h-88q-19 50 -58 77.5t-89 27.5q-72 0 -117 -49.5t-45 -138.5t45 -137.5t117 -48.5q52 0 91 28.5t58 80.5h87z" />
    <glyph glyph-name="sterling" unicode="&#xa3;" horiz-adv-x="605" 
d="M481 159h84q0 -78 -41.5 -118.5t-120.5 -40.5h-347v74q51 21 79.5 59t28.5 85q0 49 -20 97h-100v69h68q-38 80 -38 145q0 84 60.5 135.5t162.5 51.5q47 0 87.5 -10t74 -30.5t52.5 -57t19 -85.5h-89q0 53 -40 80.5t-106 28.5q-63 0 -99 -31.5t-36 -84.5q0 -8 0.5 -16
t2.5 -17t3.5 -15.5t5.5 -16.5t5.5 -14.5t6.5 -16t6.5 -15t8 -16.5l7.5 -15h209l-4 -69h-176q15 -47 15 -93q0 -92 -72 -144h219q44 0 64 19t20 62z" />
    <glyph glyph-name="currency" unicode="&#xa4;" horiz-adv-x="652" 
d="M566 343q0 -84 -51 -148l74 -74l-49 -48l-75 75q-63 -45 -140 -45q-78 0 -139 44l-75 -74l-48 48l74 74q-51 65 -51 148q0 81 50 147l-73 73l48 48l74 -73q64 45 140 45q79 0 141 -46l74 74l49 -48l-74 -73q51 -65 51 -147zM325 179q68 0 114 47.5t46 116.5
q0 68 -46 115.5t-114 47.5q-67 0 -113 -47.5t-46 -115.5t46 -116t113 -48z" />
    <glyph glyph-name="yen" unicode="&#xa5;" horiz-adv-x="641" 
d="M16 706h104l202 -328l202 328h101l-225 -350h158v-70h-195v-86h195v-70h-195v-130h-85v130h-194v70h194v86h-194v70h157z" />
    <glyph glyph-name="brokenbar" unicode="&#xa6;" horiz-adv-x="286" 
d="M104 424v353h78v-353h-78zM104 -81v353h78v-353h-78z" />
    <glyph glyph-name="section" unicode="&#xa7;" horiz-adv-x="484" 
d="M342 247q79 -37 79 -118q0 -67 -52.5 -103t-133.5 -36q-88 0 -141 41.5t-55 110.5h76q2 -43 31.5 -67t85.5 -24q50 0 80.5 20t30.5 56q0 55 -74 73l-86 22q-132 33 -132 129q0 83 83 111q-82 35 -82 113q0 64 48.5 102.5t128.5 38.5q83 0 133 -41.5t51 -108.5h-74
q-1 40 -30 64.5t-78 24.5q-47 0 -74.5 -21t-27.5 -57q0 -30 21 -46t63 -25l80 -19q129 -31 129 -133q0 -78 -80 -107zM125 355q0 -31 21.5 -47t64.5 -25l3 -1q62 -10 96 10t34 58q0 55 -73 73q-74 13 -110 -7.5t-36 -60.5z" />
    <glyph glyph-name="dieresis" unicode="&#xa8;" horiz-adv-x="360" 
d="M34 614v91h98v-91h-98zM215 614v91h98v-91h-98z" />
    <glyph glyph-name="copyright" unicode="&#xa9;" horiz-adv-x="807" 
d="M404 716q-151 0 -257.5 -106t-106.5 -257q0 -149 107 -256t257 -107q148 0 255.5 107t107.5 256q0 151 -106.5 257t-256.5 106zM706 353q0 -123 -89 -212.5t-213 -89.5t-213 88.5t-89 213.5q0 124 89 213t213 89q123 0 212.5 -89.5t89.5 -212.5zM204 352q0 93 55 153.5
t143 60.5q72 0 122.5 -37.5t69.5 -104.5h-65q-34 87 -127 87q-61 0 -99 -44t-38 -114q0 -71 38 -114.5t99 -43.5q93 0 127 86h65q-19 -66 -70 -103.5t-123 -37.5q-87 0 -142 59.5t-55 152.5z" />
    <glyph glyph-name="ordfeminine" unicode="&#xaa;" horiz-adv-x="261" 
d="M135 716q46 0 73.5 -26.5t27.5 -73.5v-152h-42l-4 29q-6 -14 -27 -24t-47 -10q-38 0 -64.5 21.5t-26.5 58.5q0 34 23.5 55.5t69.5 21.5h70v6q0 50 -57 50q-24 0 -40.5 -11.5t-16.5 -31.5h-45q0 43 31.5 65t74.5 22zM188 551v28h-66q-49 0 -49 -38q0 -41 52 -41
q28 0 45.5 14t17.5 37z" />
    <glyph glyph-name="guillemotleft" unicode="&#xab;" horiz-adv-x="578" 
d="M219 59l-181 224l181 223h91l-181 -223l181 -224h-91zM453 59l-181 224l181 223h91l-181 -223l181 -224h-91z" />
    <glyph glyph-name="logicalnot" unicode="&#xac;" 
d="M76 348h405v-241h-79v161h-326v80z" />
    <glyph glyph-name="registered" unicode="&#xae;" horiz-adv-x="480" 
d="M440 515q0 -83 -58.5 -141.5t-141.5 -58.5q-82 0 -141 59t-59 141q0 83 59 142t141 59q83 0 141.5 -58.5t58.5 -142.5zM397 515q0 66 -45.5 112t-111.5 46t-111 -46t-45 -112q0 -65 45 -110.5t111 -45.5t111.5 45t45.5 111zM206 484h39l35 -72h46l-40 78q40 16 40 61
q0 29 -20 47.5t-50 18.5h-90v-205h40v72zM248 582q37 0 37 -32q0 -35 -37 -35h-42v67h42z" />
    <glyph glyph-name="macron" unicode="&#xaf;" horiz-adv-x="325" 
d="M23 713h279v-64h-279v64z" />
    <glyph glyph-name="degree" unicode="&#xb0;" horiz-adv-x="333" 
d="M166 453q-55 0 -93.5 38t-38.5 93t38.5 93.5t93.5 38.5t94 -38.5t39 -93.5t-38.5 -93t-94.5 -38zM166 512q31 0 52 21t21 51q0 31 -21 52t-52 21q-30 0 -51 -21t-21 -52q0 -30 21 -51t51 -21z" />
    <glyph glyph-name="plusminus" unicode="&#xb1;" 
d="M340 410h192v-80h-192v-166h-80v166h-192v80h192v165h80v-165zM68 0v80h464v-80h-464z" />
    <glyph glyph-name="acute" unicode="&#xb4;" horiz-adv-x="178" 
d="M16 600l79 131h90l-94 -131h-75z" />
    <glyph glyph-name="uni00B5" unicode="&#xb5;" horiz-adv-x="616" 
d="M545 75h22v-75h-31q-38 0 -67.5 16t-39.5 45q-22 -34 -61.5 -52.5t-85.5 -18.5q-43 0 -80 16t-56 47v-229h-80v682h80v-309q0 -62 39 -98t93 -37q56 -2 95 34.5t39 100.5v309h78v-363q0 -33 10.5 -49.5t44.5 -18.5z" />
    <glyph glyph-name="paragraph" unicode="&#xb6;" horiz-adv-x="603" 
d="M421 -91v716h-129v-716h-80v518h-51q-64 0 -101 41.5t-36 100.5q2 57 38 97t99 40h397v-81h-57v-716h-80z" />
    <glyph glyph-name="periodcentered" unicode="&#xb7;" horiz-adv-x="286" 
d="M143 243q-26 0 -45 19t-19 45q0 27 19 46t45 19t45 -19t19 -46q0 -26 -19 -45t-45 -19z" />
    <glyph glyph-name="cedilla" unicode="&#xb8;" horiz-adv-x="265" 
d="M106 6l37 -12l-17 -41q35 4 58 -13.5t23 -48.5q0 -32 -23 -51t-60 -19q-38 0 -62 19.5t-24 47.5h51q3 -24 32 -24t29 27q0 17 -15.5 23.5t-36.5 0.5l-23 11z" />
    <glyph glyph-name="ordmasculine" unicode="&#xba;" horiz-adv-x="304" 
d="M26 581q0 56 35 92.5t90 36.5t91 -36.5t36 -92.5t-35.5 -92t-91.5 -36q-55 0 -90 36t-35 92zM74 580q0 -37 21.5 -60t56.5 -23t56 23t21 60q0 38 -21 62t-56 24q-36 0 -57 -24t-21 -62z" />
    <glyph glyph-name="guillemotright" unicode="&#xbb;" horiz-adv-x="578" 
d="M125 506l181 -223l-181 -224h-91l181 224l-181 223h91zM359 506l181 -223l-181 -224h-91l181 224l-181 223h91z" />
    <glyph glyph-name="onequarter" unicode="&#xbc;" horiz-adv-x="686" 
d="M170 345h-61v299l-82 -40v60l82 42h61v-361zM68 0l452 706h67l-452 -706h-67zM554 0v71h-169v53l168 237h61v-237h54v-53h-54v-71h-60zM450 124h104v151z" />
    <glyph glyph-name="onehalf" unicode="&#xbd;" horiz-adv-x="732" 
d="M109 345v299l-82 -40v60l82 42h61v-361h-61zM520 706h67l-452 -706h-67zM644 141l-98 -83h162v-58h-245v57l135 115q45 39 46 76q1 29 -15.5 45.5t-45.5 16.5q-28 0 -46.5 -16.5t-19.5 -43.5h-59q1 54 37.5 85t89.5 31t87.5 -30t35.5 -80q1 -61 -64 -115z" />
    <glyph glyph-name="threequarters" unicode="&#xbe;" horiz-adv-x="744" 
d="M273 446q0 -47 -35.5 -76.5t-88.5 -29.5q-58 0 -91.5 32t-33.5 86h57q-1 -31 19 -48t49 -17t45.5 15.5t16.5 40.5t-16 40t-45 15h-30v51h27q28 0 44 13.5t16 37.5q0 25 -16.5 38.5t-42.5 13.5q-30 0 -49 -17.5t-18 -47.5h-57q0 53 34 85.5t92 32.5q52 0 85.5 -27.5
t33.5 -75.5q0 -56 -46 -79q50 -23 50 -83zM578 706h67l-452 -706h-67zM673 124h54v-53h-54v-71h-60v71h-169v53l168 237h61v-237zM613 124v151l-104 -151h104z" />
    <glyph glyph-name="questiondown" unicode="&#xbf;" horiz-adv-x="504" 
d="M336 708v-115h-117v115h117zM472 189q0 -85 -60.5 -141t-158.5 -56q-93 0 -150.5 53t-57.5 133q0 47 20 84.5t48.5 62t57 47t48.5 51.5t20 64h77q0 -47 -18.5 -83.5t-45 -60.5t-53 -46t-45 -51.5t-18.5 -65.5q0 -51 33.5 -81.5t87.5 -30.5q60 -1 93.5 33.5t33.5 87.5h88z
" />
    <glyph glyph-name="Agrave" unicode="&#xc0;" horiz-adv-x="658" 
d="M366 759h-74l-95 131h90zM555 0l-66 175h-323l-67 -175h-88l273 706h91l272 -706h-92zM194 248h267l-133 351z" />
    <glyph glyph-name="Aacute" unicode="&#xc1;" horiz-adv-x="658" 
d="M460 890l-94 -131h-75l79 131h90zM555 0l-66 175h-323l-67 -175h-88l273 706h91l272 -706h-92zM194 248h267l-133 351z" />
    <glyph glyph-name="Acircumflex" unicode="&#xc2;" horiz-adv-x="658" 
d="M327 835l-58 -76h-80l100 131h78l99 -131h-82zM555 0l-66 175h-323l-67 -175h-88l273 706h91l272 -706h-92zM194 248h267l-133 351z" />
    <glyph glyph-name="Atilde" unicode="&#xc3;" horiz-adv-x="658" 
d="M238 775h-53q-1 49 20 77t60 28q29 0 67 -19.5t53 -19.5q33 0 35 37h54q1 -49 -20.5 -76.5t-60.5 -27.5q-29 0 -67 19.5t-53 19.5q-33 0 -35 -38zM555 0l-66 175h-323l-67 -175h-88l273 706h91l272 -706h-92zM194 248h267l-133 351z" />
    <glyph glyph-name="Adieresis" unicode="&#xc4;" horiz-adv-x="658" 
d="M287 864v-91h-98v91h98zM468 864v-91h-98v91h98zM555 0l-66 175h-323l-67 -175h-88l273 706h91l272 -706h-92zM194 248h267l-133 351z" />
    <glyph glyph-name="Aring" unicode="&#xc5;" horiz-adv-x="658" 
d="M555 0l-66 175h-323l-67 -175h-88l261 675q-57 30 -57 98q0 49 33 80t81 31t80.5 -31t32.5 -80q0 -68 -55 -98l260 -675h-92zM329 831q-24 0 -40 -16.5t-16 -41.5t16 -41.5t40 -16.5q25 0 41 16.5t16 41.5t-16 41.5t-41 16.5zM194 248h267l-133 351z" />
    <glyph glyph-name="AE" unicode="&#xc6;" horiz-adv-x="986" 
d="M2 0l445 706h483v-79h-360v-233h274v-77h-274v-238h378v-79h-461v177h-273l-111 -177h-101zM259 252h228v361z" />
    <glyph glyph-name="Ccedilla" unicode="&#xc7;" horiz-adv-x="743" 
d="M381 71q163 0 224 150h94q-31 -101 -106.5 -162t-187.5 -67l-16 -38q35 4 58 -13.5t23 -48.5q0 -32 -23 -51t-60 -19q-38 0 -62 19.5t-24 47.5h51q3 -24 32 -24t29 27q0 17 -15.5 23.5t-36.5 0.5l-23 11l25 64q-143 6 -230 104.5t-87 253.5q0 161 92.5 264t243.5 103
q122 0 204 -61t113 -169h-94q-60 150 -224 150q-112 0 -179 -79t-67 -205t67 -203.5t179 -77.5z" />
    <glyph glyph-name="Egrave" unicode="&#xc8;" horiz-adv-x="597" 
d="M341 759h-74l-95 131h90zM163 79h396v-79h-482v706h463v-79h-377v-233h298v-77h-298v-238z" />
    <glyph glyph-name="Eacute" unicode="&#xc9;" horiz-adv-x="597" 
d="M435 890l-94 -131h-75l79 131h90zM163 79h396v-79h-482v706h463v-79h-377v-233h298v-77h-298v-238z" />
    <glyph glyph-name="Ecircumflex" unicode="&#xca;" horiz-adv-x="597" 
d="M302 835l-58 -76h-80l100 131h78l99 -131h-82zM163 79h396v-79h-482v706h463v-79h-377v-233h298v-77h-298v-238z" />
    <glyph glyph-name="Edieresis" unicode="&#xcb;" horiz-adv-x="597" 
d="M262 864v-91h-98v91h98zM443 864v-91h-98v91h98zM163 79h396v-79h-482v706h463v-79h-377v-233h298v-77h-298v-238z" />
    <glyph glyph-name="Igrave" unicode="&#xcc;" horiz-adv-x="240" 
d="M158 759h-74l-95 131h90zM163 706v-706h-86v706h86z" />
    <glyph glyph-name="Iacute" unicode="&#xcd;" horiz-adv-x="240" 
d="M83 759l79 131h90l-94 -131h-75zM163 706v-706h-86v706h86z" />
    <glyph glyph-name="Icircumflex" unicode="&#xce;" horiz-adv-x="240" 
d="M119 835l57 -76h82l-99 131h-78l-100 -131h80zM163 706v-706h-86v706h86z" />
    <glyph glyph-name="Idieresis" unicode="&#xcf;" horiz-adv-x="240" 
d="M-19 773v91h98v-91h-98zM162 773v91h98v-91h-98zM163 706v-706h-86v706h86z" />
    <glyph glyph-name="Eth" unicode="&#xd0;" horiz-adv-x="720" 
d="M321 706q166 0 259.5 -97t93.5 -256q0 -160 -93.5 -256.5t-259.5 -96.5h-233v317h-69v75h69v314h233zM327 79q120 1 189 75.5t69 199.5q0 126 -69 199.5t-189 73.5h-153v-235h121v-75h-121v-238h153z" />
    <glyph glyph-name="Ntilde" unicode="&#xd1;" horiz-adv-x="709" 
d="M293 880q29 0 67 -19.5t53 -19.5q33 0 35 37h54q1 -49 -20.5 -76.5t-60.5 -27.5q-29 0 -67 19.5t-53 19.5q-33 0 -35 -38h-53q-1 49 20 77t60 28zM77 0v706h91l381 -571v571h83v-706h-89l-382 568v-568h-84z" />
    <glyph glyph-name="Ograve" unicode="&#xd2;" horiz-adv-x="764" 
d="M420 761h-74l-95 131h90zM383 -9q-150 0 -243.5 100.5t-93.5 259.5q0 160 93.5 262.5t243.5 102.5q149 0 242 -102.5t93 -262.5t-92.5 -260t-242.5 -100zM383 72q112 0 178.5 76.5t66.5 202.5q0 127 -66.5 205.5t-178.5 78.5q-113 0 -180 -78.5t-67 -205.5
q0 -126 67 -202.5t180 -76.5z" />
    <glyph glyph-name="Oacute" unicode="&#xd3;" horiz-adv-x="764" 
d="M345 761l79 131h90l-94 -131h-75zM383 -9q-150 0 -243.5 100.5t-93.5 259.5q0 160 93.5 262.5t243.5 102.5q149 0 242 -102.5t93 -262.5t-92.5 -260t-242.5 -100zM383 72q112 0 178.5 76.5t66.5 202.5q0 127 -66.5 205.5t-178.5 78.5q-113 0 -180 -78.5t-67 -205.5
q0 -126 67 -202.5t180 -76.5z" />
    <glyph glyph-name="Ocircumflex" unicode="&#xd4;" horiz-adv-x="764" 
d="M381 837l57 -76h82l-99 131h-78l-100 -131h80zM383 -9q-150 0 -243.5 100.5t-93.5 259.5q0 160 93.5 262.5t243.5 102.5q149 0 242 -102.5t93 -262.5t-92.5 -260t-242.5 -100zM383 72q112 0 178.5 76.5t66.5 202.5q0 127 -66.5 205.5t-178.5 78.5q-113 0 -180 -78.5
t-67 -205.5q0 -126 67 -202.5t180 -76.5z" />
    <glyph glyph-name="Otilde" unicode="&#xd5;" horiz-adv-x="764" 
d="M319 882q29 0 67 -19.5t53 -19.5q33 0 35 37h54q1 -49 -20.5 -76.5t-60.5 -27.5q-29 0 -67 19.5t-53 19.5q-33 0 -35 -38h-53q-1 49 20 77t60 28zM383 -9q-150 0 -243.5 100.5t-93.5 259.5q0 160 93.5 262.5t243.5 102.5q149 0 242 -102.5t93 -262.5t-92.5 -260
t-242.5 -100zM383 72q112 0 178.5 76.5t66.5 202.5q0 127 -66.5 205.5t-178.5 78.5q-113 0 -180 -78.5t-67 -205.5q0 -126 67 -202.5t180 -76.5z" />
    <glyph glyph-name="Odieresis" unicode="&#xd6;" horiz-adv-x="764" 
d="M243 775v91h98v-91h-98zM424 775v91h98v-91h-98zM383 -9q-150 0 -243.5 100.5t-93.5 259.5q0 160 93.5 262.5t243.5 102.5q149 0 242 -102.5t93 -262.5t-92.5 -260t-242.5 -100zM383 72q112 0 178.5 76.5t66.5 202.5q0 127 -66.5 205.5t-178.5 78.5q-113 0 -180 -78.5
t-67 -205.5q0 -126 67 -202.5t180 -76.5z" />
    <glyph glyph-name="multiply" unicode="&#xd7;" 
d="M507 472l-150 -150l150 -151l-56 -56l-150 151l-151 -151l-56 56l151 151l-151 150l56 56l151 -150l150 150z" />
    <glyph glyph-name="Oslash" unicode="&#xd8;" horiz-adv-x="773" 
d="M616 628q107 -102 107 -277q0 -160 -93 -260t-243 -100q-97 0 -173 45l-29 -43h-80l56 82q-110 101 -110 276q0 160 93.5 262.5t242.5 102.5q100 0 176 -48l30 44h80zM139 351q0 -129 69 -206l310 456q-58 36 -131 36q-114 0 -181 -79t-67 -207zM387 70q114 0 180.5 77
t66.5 204q0 129 -66 206l-308 -454q55 -33 127 -33z" />
    <glyph glyph-name="Ugrave" unicode="&#xd9;" horiz-adv-x="698" 
d="M386 759h-74l-95 131h90zM157 706v-441q0 -94 50.5 -145.5t141.5 -51.5q90 0 140.5 51.5t50.5 145.5v441h86v-441q0 -125 -75.5 -200t-201.5 -75q-127 0 -202 74.5t-75 200.5v441h85z" />
    <glyph glyph-name="Uacute" unicode="&#xda;" horiz-adv-x="698" 
d="M311 759l79 131h90l-94 -131h-75zM157 706v-441q0 -94 50.5 -145.5t141.5 -51.5q90 0 140.5 51.5t50.5 145.5v441h86v-441q0 -125 -75.5 -200t-201.5 -75q-127 0 -202 74.5t-75 200.5v441h85z" />
    <glyph glyph-name="Ucircumflex" unicode="&#xdb;" horiz-adv-x="698" 
d="M347 835l57 -76h82l-99 131h-78l-100 -131h80zM157 706v-441q0 -94 50.5 -145.5t141.5 -51.5q90 0 140.5 51.5t50.5 145.5v441h86v-441q0 -125 -75.5 -200t-201.5 -75q-127 0 -202 74.5t-75 200.5v441h85z" />
    <glyph glyph-name="Udieresis" unicode="&#xdc;" horiz-adv-x="698" 
d="M209 773v91h98v-91h-98zM390 773v91h98v-91h-98zM157 706v-441q0 -94 50.5 -145.5t141.5 -51.5q90 0 140.5 51.5t50.5 145.5v441h86v-441q0 -125 -75.5 -200t-201.5 -75q-127 0 -202 74.5t-75 200.5v441h85z" />
    <glyph glyph-name="Yacute" unicode="&#xdd;" horiz-adv-x="634" 
d="M280 759l79 131h90l-94 -131h-75zM274 241l-262 465h104l202 -374l203 374h102l-264 -465v-241h-85v241z" />
    <glyph glyph-name="Thorn" unicode="&#xde;" horiz-adv-x="643" 
d="M353 579q112 0 178 -64.5t66 -161.5t-66 -161t-178 -64h-190v-128h-87v706h87v-127h190zM355 206q73 0 114 40t41 106t-41.5 107t-113.5 41h-192v-294h192z" />
    <glyph glyph-name="germandbls" unicode="&#xdf;" horiz-adv-x="584" 
d="M392 401q69 -15 112.5 -65t43.5 -122q0 -102 -63.5 -163t-168.5 -61q-75 0 -118 17v70q41 -20 111 -20q71 0 113.5 41.5t42.5 116.5q0 70 -55.5 106.5t-149.5 35.5v69q69 -5 109 30t40 103q0 51 -34.5 82t-94.5 31q-59 0 -94.5 -38t-35.5 -104v-529h-82v526
q0 96 56.5 153.5t156.5 57.5q96 0 152 -49t56 -127q0 -53 -26 -95.5t-71 -65.5z" />
    <glyph glyph-name="agrave" unicode="&#xe0;" horiz-adv-x="564" 
d="M315 575h-74l-95 131h90zM518 64h18v-64h-50q-75 0 -82 69q-23 -36 -70 -57.5t-107 -21.5q-85 0 -134 41.5t-49 113.5q0 66 46 106t148 40h160v28q0 66 -34.5 97.5t-93.5 31.5q-58 0 -92 -26t-37 -71h-79q4 78 62 121.5t149 43.5q96 0 152 -51t56 -145v-217
q0 -24 7.5 -31.5t29.5 -7.5zM398 207v23h-152q-117 0 -117 -84q0 -43 30.5 -65.5t81.5 -22.5q67 0 112 38t45 111z" />
    <glyph glyph-name="aacute" unicode="&#xe1;" horiz-adv-x="564" 
d="M409 706l-94 -131h-75l79 131h90zM518 64h18v-64h-50q-75 0 -82 69q-23 -36 -70 -57.5t-107 -21.5q-85 0 -134 41.5t-49 113.5q0 66 46 106t148 40h160v28q0 66 -34.5 97.5t-93.5 31.5q-58 0 -92 -26t-37 -71h-79q4 78 62 121.5t149 43.5q96 0 152 -51t56 -145v-217
q0 -24 7.5 -31.5t29.5 -7.5zM398 207v23h-152q-117 0 -117 -84q0 -43 30.5 -65.5t81.5 -22.5q67 0 112 38t45 111z" />
    <glyph glyph-name="acircumflex" unicode="&#xe2;" horiz-adv-x="564" 
d="M276 651l-58 -76h-80l100 131h78l99 -131h-82zM518 64h18v-64h-50q-75 0 -82 69q-23 -36 -70 -57.5t-107 -21.5q-85 0 -134 41.5t-49 113.5q0 66 46 106t148 40h160v28q0 66 -34.5 97.5t-93.5 31.5q-58 0 -92 -26t-37 -71h-79q4 78 62 121.5t149 43.5q96 0 152 -51
t56 -145v-217q0 -24 7.5 -31.5t29.5 -7.5zM398 207v23h-152q-117 0 -117 -84q0 -43 30.5 -65.5t81.5 -22.5q67 0 112 38t45 111z" />
    <glyph glyph-name="atilde" unicode="&#xe3;" horiz-adv-x="564" 
d="M187 591h-53q-1 49 20 77t60 28q29 0 67 -19.5t53 -19.5q33 0 35 37h54q1 -49 -20.5 -76.5t-60.5 -27.5q-29 0 -67 19.5t-53 19.5q-33 0 -35 -38zM518 64h18v-64h-50q-75 0 -82 69q-23 -36 -70 -57.5t-107 -21.5q-85 0 -134 41.5t-49 113.5q0 66 46 106t148 40h160v28
q0 66 -34.5 97.5t-93.5 31.5q-58 0 -92 -26t-37 -71h-79q4 78 62 121.5t149 43.5q96 0 152 -51t56 -145v-217q0 -24 7.5 -31.5t29.5 -7.5zM398 207v23h-152q-117 0 -117 -84q0 -43 30.5 -65.5t81.5 -22.5q67 0 112 38t45 111z" />
    <glyph glyph-name="adieresis" unicode="&#xe4;" horiz-adv-x="564" 
d="M236 680v-91h-98v91h98zM417 680v-91h-98v91h98zM518 64h18v-64h-50q-75 0 -82 69q-23 -36 -70 -57.5t-107 -21.5q-85 0 -134 41.5t-49 113.5q0 66 46 106t148 40h160v28q0 66 -34.5 97.5t-93.5 31.5q-58 0 -92 -26t-37 -71h-79q4 78 62 121.5t149 43.5q96 0 152 -51
t56 -145v-217q0 -24 7.5 -31.5t29.5 -7.5zM398 207v23h-152q-117 0 -117 -84q0 -43 30.5 -65.5t81.5 -22.5q67 0 112 38t45 111z" />
    <glyph glyph-name="aring" unicode="&#xe5;" horiz-adv-x="564" 
d="M518 64h18v-64h-50q-75 0 -82 69q-23 -36 -70 -57.5t-107 -21.5q-85 0 -134 41.5t-49 113.5q0 66 46 106t148 40h160v28q0 66 -34.5 97.5t-93.5 31.5q-58 0 -92 -26t-37 -71h-79q4 61 40.5 101.5t97.5 55.5q-36 31 -36 83q0 49 33 80t81 31t80.5 -31t32.5 -80
q0 -53 -38 -86q61 -18 94.5 -65.5t33.5 -119.5v-217q0 -24 7.5 -31.5t29.5 -7.5zM278 649q-24 0 -40 -16.5t-16 -41.5t16 -41.5t40 -16.5q25 0 41 16.5t16 41.5t-16 41.5t-41 16.5zM398 207v23h-152q-117 0 -117 -84q0 -43 30.5 -65.5t81.5 -22.5q67 0 112 38t45 111z" />
    <glyph glyph-name="ae" unicode="&#xe6;" horiz-adv-x="946" 
d="M894 263v-36h-409q2 -81 48 -124t116 -43q53 0 93.5 25.5t58.5 73.5h84q-21 -77 -83.5 -122.5t-150.5 -45.5q-147 0 -211 113q-29 -58 -83.5 -86t-121.5 -28q-88 0 -139.5 39.5t-51.5 109.5q0 146 194 146h162v35q0 66 -35.5 97.5t-92.5 31.5q-60 0 -95 -28t-38 -74h-75
q4 79 60.5 124t145.5 45q131 0 180 -98q65 98 199 98q110 0 177.5 -69.5t67.5 -183.5zM484 288h326q-4 76 -49.5 118.5t-113.5 42.5t-113.5 -42.5t-49.5 -118.5zM400 208v16h-154q-117 0 -117 -83t115 -83q67 0 111.5 38t44.5 112z" />
    <glyph glyph-name="ccedilla" unicode="&#xe7;" horiz-adv-x="576" 
d="M537 177q-20 -80 -77 -129t-138 -56l-14 -34q35 4 58 -13.5t23 -48.5q0 -32 -23 -51t-60 -19q-38 0 -62 19.5t-24 47.5h51q3 -24 32 -24t29 27q0 17 -15.5 23.5t-36.5 0.5l-23 11l23 61q-103 6 -165.5 77.5t-62.5 184.5q0 118 68 190t179 72q90 0 152.5 -47.5
t84.5 -131.5h-90q-18 51 -56.5 79.5t-89.5 28.5q-73 0 -118.5 -50t-45.5 -141q0 -92 45.5 -141.5t117.5 -49.5q53 0 92.5 29.5t58.5 84.5h87z" />
    <glyph glyph-name="egrave" unicode="&#xe8;" horiz-adv-x="598" 
d="M340 575h-74l-95 131h90zM546 266v-36h-406q1 -81 48 -125.5t118 -44.5q52 0 92 25.5t58 73.5h84q-22 -77 -84.5 -122.5t-151.5 -45.5q-112 0 -180 72t-68 191q0 118 68 190t179 72q109 0 176 -68.5t67 -181.5zM303 449q-66 0 -110.5 -40.5t-51.5 -117.5h321
q-4 76 -48.5 117t-110.5 41z" />
    <glyph glyph-name="eacute" unicode="&#xe9;" horiz-adv-x="598" 
d="M434 706l-94 -131h-75l79 131h90zM546 266v-36h-406q1 -81 48 -125.5t118 -44.5q52 0 92 25.5t58 73.5h84q-22 -77 -84.5 -122.5t-151.5 -45.5q-112 0 -180 72t-68 191q0 118 68 190t179 72q109 0 176 -68.5t67 -181.5zM303 449q-66 0 -110.5 -40.5t-51.5 -117.5h321
q-4 76 -48.5 117t-110.5 41z" />
    <glyph glyph-name="ecircumflex" unicode="&#xea;" horiz-adv-x="598" 
d="M301 651l-58 -76h-80l100 131h78l99 -131h-82zM546 266v-36h-406q1 -81 48 -125.5t118 -44.5q52 0 92 25.5t58 73.5h84q-22 -77 -84.5 -122.5t-151.5 -45.5q-112 0 -180 72t-68 191q0 118 68 190t179 72q109 0 176 -68.5t67 -181.5zM303 449q-66 0 -110.5 -40.5
t-51.5 -117.5h321q-4 76 -48.5 117t-110.5 41z" />
    <glyph glyph-name="edieresis" unicode="&#xeb;" horiz-adv-x="598" 
d="M261 680v-91h-98v91h98zM442 680v-91h-98v91h98zM546 266v-36h-406q1 -81 48 -125.5t118 -44.5q52 0 92 25.5t58 73.5h84q-22 -77 -84.5 -122.5t-151.5 -45.5q-112 0 -180 72t-68 191q0 118 68 190t179 72q109 0 176 -68.5t67 -181.5zM303 449q-66 0 -110.5 -40.5
t-51.5 -117.5h321q-4 76 -48.5 117t-110.5 41z" />
    <glyph glyph-name="igrave" unicode="&#xec;" horiz-adv-x="225" 
d="M149 575h-74l-95 131h90zM71 0v506h82v-506h-82z" />
    <glyph glyph-name="iacute" unicode="&#xed;" horiz-adv-x="225" 
d="M75 575l79 131h90l-94 -131h-75zM71 0v506h82v-506h-82z" />
    <glyph glyph-name="icircumflex" unicode="&#xee;" horiz-adv-x="225" 
d="M111 651l57 -76h82l-99 131h-78l-100 -131h80zM71 0v506h82v-506h-82z" />
    <glyph glyph-name="idieresis" unicode="&#xef;" horiz-adv-x="225" 
d="M-27 589v91h98v-91h-98zM154 589v91h98v-91h-98zM71 0v506h82v-506h-82z" />
    <glyph glyph-name="eth" unicode="&#xf0;" horiz-adv-x="609" 
d="M423 617q64 -71 100.5 -160.5t36.5 -181.5q0 -135 -74 -209.5t-187 -74.5q-110 0 -178.5 73.5t-68.5 189.5q0 119 70 189t175 70q84 0 138 -49q-33 64 -82 120l-107 -50v66l62 29q-53 50 -118 87h116q43 -27 72 -54l122 57v-66zM301 63q73 0 123 50t50 140
q-3 92 -51.5 141t-121.5 49q-72 0 -120 -50t-48 -140t48.5 -140t119.5 -50z" />
    <glyph glyph-name="ntilde" unicode="&#xf1;" horiz-adv-x="584" 
d="M219 591h-53q-1 49 20 77t60 28q29 0 67 -19.5t53 -19.5q33 0 35 37h54q1 -49 -20.5 -76.5t-60.5 -27.5q-29 0 -67 19.5t-53 19.5q-33 0 -35 -38zM318 516q94 0 147 -57.5t53 -155.5v-303h-82v286q0 77 -36.5 116t-100.5 39q-70 0 -108 -45.5t-38 -121.5v-274h-82v506h72
l9 -78q46 88 166 88z" />
    <glyph glyph-name="ograve" unicode="&#xf2;" horiz-adv-x="616" 
d="M345 574h-74l-95 131h90zM52 252q0 117 71 190.5t185 73.5q115 0 186 -73.5t71 -190.5q0 -116 -71 -189t-186 -73q-114 0 -185 72.5t-71 189.5zM136 253q0 -87 47.5 -139.5t124.5 -52.5t124.5 52.5t47.5 139.5q0 88 -47 140.5t-125 52.5t-125 -52.5t-47 -140.5z" />
    <glyph glyph-name="oacute" unicode="&#xf3;" horiz-adv-x="616" 
d="M270 574l79 131h90l-94 -131h-75zM52 252q0 117 71 190.5t185 73.5q115 0 186 -73.5t71 -190.5q0 -116 -71 -189t-186 -73q-114 0 -185 72.5t-71 189.5zM136 253q0 -87 47.5 -139.5t124.5 -52.5t124.5 52.5t47.5 139.5q0 88 -47 140.5t-125 52.5t-125 -52.5t-47 -140.5z
" />
    <glyph glyph-name="ocircumflex" unicode="&#xf4;" horiz-adv-x="616" 
d="M306 650l57 -76h82l-99 131h-78l-100 -131h80zM52 252q0 117 71 190.5t185 73.5q115 0 186 -73.5t71 -190.5q0 -116 -71 -189t-186 -73q-114 0 -185 72.5t-71 189.5zM136 253q0 -87 47.5 -139.5t124.5 -52.5t124.5 52.5t47.5 139.5q0 88 -47 140.5t-125 52.5t-125 -52.5
t-47 -140.5z" />
    <glyph glyph-name="otilde" unicode="&#xf5;" horiz-adv-x="616" 
d="M244 695q29 0 67 -19.5t53 -19.5q33 0 35 37h54q1 -49 -20.5 -76.5t-60.5 -27.5q-29 0 -67 19.5t-53 19.5q-33 0 -35 -38h-53q-1 49 20 77t60 28zM52 252q0 117 71 190.5t185 73.5q115 0 186 -73.5t71 -190.5q0 -116 -71 -189t-186 -73q-114 0 -185 72.5t-71 189.5z
M136 253q0 -87 47.5 -139.5t124.5 -52.5t124.5 52.5t47.5 139.5q0 88 -47 140.5t-125 52.5t-125 -52.5t-47 -140.5z" />
    <glyph glyph-name="odieresis" unicode="&#xf6;" horiz-adv-x="616" 
d="M168 588v91h98v-91h-98zM349 588v91h98v-91h-98zM52 252q0 117 71 190.5t185 73.5q115 0 186 -73.5t71 -190.5q0 -116 -71 -189t-186 -73q-114 0 -185 72.5t-71 189.5zM136 253q0 -87 47.5 -139.5t124.5 -52.5t124.5 52.5t47.5 139.5q0 88 -47 140.5t-125 52.5
t-125 -52.5t-47 -140.5z" />
    <glyph glyph-name="divide" unicode="&#xf7;" 
d="M301 457q-26 0 -43.5 17.5t-17.5 42.5t18 42.5t43 17.5t42.5 -17.5t17.5 -42.5t-17.5 -42.5t-42.5 -17.5zM69 368h462v-80h-462v80zM301 80q-26 0 -43.5 17.5t-17.5 42.5t17.5 42t43.5 17q25 0 42.5 -17t17.5 -42t-17.5 -42.5t-42.5 -17.5z" />
    <glyph glyph-name="oslash" unicode="&#xf8;" horiz-adv-x="617" 
d="M492 445q73 -73 73 -193q0 -117 -71 -189.5t-185 -72.5q-74 0 -133 32l-35 -46h-76l62 83q-75 72 -75 193q0 117 71 190.5t186 73.5q75 0 134 -34l33 44h76zM135 253q0 -78 39 -131l226 302q-42 24 -91 24q-78 0 -126 -53.5t-48 -141.5zM309 59q77 0 125 53.5t48 140.5
q0 77 -38 129l-224 -300q38 -23 89 -23z" />
    <glyph glyph-name="ugrave" unicode="&#xf9;" horiz-adv-x="570" 
d="M319 575h-74l-95 131h90zM419 506h79v-506h-71l-8 75q-46 -85 -156 -85q-92 0 -144.5 58t-52.5 155v303h80v-290q0 -75 36 -113.5t97 -37.5q67 0 103.5 44.5t36.5 119.5v277z" />
    <glyph glyph-name="uacute" unicode="&#xfa;" horiz-adv-x="570" 
d="M413 706l-94 -131h-75l79 131h90zM419 506h79v-506h-71l-8 75q-46 -85 -156 -85q-92 0 -144.5 58t-52.5 155v303h80v-290q0 -75 36 -113.5t97 -37.5q67 0 103.5 44.5t36.5 119.5v277z" />
    <glyph glyph-name="ucircumflex" unicode="&#xfb;" horiz-adv-x="570" 
d="M280 651l-58 -76h-80l100 131h78l99 -131h-82zM419 506h79v-506h-71l-8 75q-46 -85 -156 -85q-92 0 -144.5 58t-52.5 155v303h80v-290q0 -75 36 -113.5t97 -37.5q67 0 103.5 44.5t36.5 119.5v277z" />
    <glyph glyph-name="udieresis" unicode="&#xfc;" horiz-adv-x="570" 
d="M240 680v-91h-98v91h98zM421 680v-91h-98v91h98zM419 506h79v-506h-71l-8 75q-46 -85 -156 -85q-92 0 -144.5 58t-52.5 155v303h80v-290q0 -75 36 -113.5t97 -37.5q67 0 103.5 44.5t36.5 119.5v277z" />
    <glyph glyph-name="yacute" unicode="&#xfd;" horiz-adv-x="516" 
d="M221 575l79 131h90l-94 -131h-75zM100 506l166 -451l153 452l87 -1l-212 -588q-25 -69 -64.5 -93.5t-100.5 -24.5h-100v74h101q40 0 62 21.5t22 63.5q0 20 -9 44l-194 503h89z" />
    <glyph glyph-name="thorn" unicode="&#xfe;" horiz-adv-x="631" 
d="M338 516q103 0 172 -70.5t69 -193.5q0 -121 -68.5 -191.5t-172.5 -70.5q-60 0 -109 23.5t-75 66.5v-280h-83v936h85v-310q28 42 76.5 66t105.5 24zM325 62q75 0 122 51t47 139t-46.5 139.5t-122.5 51.5q-73 1 -121 -52t-48 -141q0 -86 48 -137t121 -51z" />
    <glyph glyph-name="ydieresis" unicode="&#xff;" horiz-adv-x="516" 
d="M119 589v91h98v-91h-98zM300 589v91h98v-91h-98zM100 506l166 -451l153 452l87 -1l-212 -588q-25 -69 -64.5 -93.5t-100.5 -24.5h-100v74h101q40 0 62 21.5t22 63.5q0 20 -9 44l-194 503h89z" />
    <glyph glyph-name="Amacron" unicode="&#x100;" horiz-adv-x="658" 
d="M468 846v-64h-279v64h279zM555 0l-66 175h-323l-67 -175h-88l273 706h91l272 -706h-92zM194 248h267l-133 351z" />
    <glyph glyph-name="amacron" unicode="&#x101;" horiz-adv-x="564" 
d="M418 662v-64h-279v64h279zM518 64h18v-64h-50q-75 0 -82 69q-23 -36 -70 -57.5t-107 -21.5q-85 0 -134 41.5t-49 113.5q0 66 46 106t148 40h160v28q0 66 -34.5 97.5t-93.5 31.5q-58 0 -92 -26t-37 -71h-79q4 78 62 121.5t149 43.5q96 0 152 -51t56 -145v-217
q0 -24 7.5 -31.5t29.5 -7.5zM398 207v23h-152q-117 0 -117 -84q0 -43 30.5 -65.5t81.5 -22.5q67 0 112 38t45 111z" />
    <glyph glyph-name="Abreve" unicode="&#x102;" horiz-adv-x="658" 
d="M329 757q-59 0 -96.5 36t-36.5 95h64q0 -32 18.5 -50t50.5 -18t50.5 18t18.5 50h64q1 -59 -36.5 -95t-96.5 -36zM555 0l-66 175h-323l-67 -175h-88l273 706h91l272 -706h-92zM194 248h267l-133 351z" />
    <glyph glyph-name="abreve" unicode="&#x103;" horiz-adv-x="564" 
d="M278 573q-59 0 -96.5 36t-36.5 95h64q0 -32 18.5 -50t50.5 -18t50.5 18t18.5 50h64q1 -59 -36.5 -95t-96.5 -36zM518 64h18v-64h-50q-75 0 -82 69q-23 -36 -70 -57.5t-107 -21.5q-85 0 -134 41.5t-49 113.5q0 66 46 106t148 40h160v28q0 66 -34.5 97.5t-93.5 31.5
q-58 0 -92 -26t-37 -71h-79q4 78 62 121.5t149 43.5q96 0 152 -51t56 -145v-217q0 -24 7.5 -31.5t29.5 -7.5zM398 207v23h-152q-117 0 -117 -84q0 -43 30.5 -65.5t81.5 -22.5q67 0 112 38t45 111z" />
    <glyph glyph-name="Aogonek" unicode="&#x104;" horiz-adv-x="658" 
d="M574 -69q0 -28 36 -28q18 0 33 8v-54q-26 -13 -54 -13q-34 0 -57.5 18t-23.5 49q0 54 65 89h-18l-66 175h-323l-67 -175h-88l273 706h91l272 -706q-73 -37 -73 -69zM194 248h267l-133 351z" />
    <glyph glyph-name="aogonek" unicode="&#x105;" horiz-adv-x="564" 
d="M536 0q-73 -37 -73 -69q0 -28 36 -28q18 0 33 8v-54q-26 -13 -54 -13q-34 0 -57.5 18t-23.5 49q0 54 68 91q-56 9 -61 67q-23 -36 -70 -57.5t-107 -21.5q-85 0 -134 41.5t-49 113.5q0 66 46 106t148 40h160v28q0 66 -34.5 97.5t-93.5 31.5q-58 0 -92 -26t-37 -71h-79
q4 78 62 121.5t149 43.5q96 0 152 -51t56 -145v-217q0 -24 7.5 -31.5t29.5 -7.5h18v-64zM398 207v23h-152q-117 0 -117 -84q0 -43 30.5 -65.5t81.5 -22.5q67 0 112 38t45 111z" />
    <glyph glyph-name="Cacute" unicode="&#x106;" horiz-adv-x="743" 
d="M346 761l79 131h90l-94 -131h-75zM381 71q163 0 224 150h94q-32 -107 -114.5 -168.5t-204.5 -61.5q-150 0 -242 99.5t-92 258.5q0 161 92.5 264t243.5 103q122 0 204 -61t113 -169h-94q-60 150 -224 150q-112 0 -179 -79t-67 -205t67 -203.5t179 -77.5z" />
    <glyph glyph-name="cacute" unicode="&#x107;" horiz-adv-x="576" 
d="M262 575l79 131h90l-94 -131h-75zM446 337q-18 51 -56.5 79.5t-89.5 28.5q-73 0 -118.5 -50t-45.5 -141q0 -92 45.5 -141.5t117.5 -49.5q53 0 92.5 29.5t58.5 84.5h87q-21 -86 -84.5 -136t-153.5 -50q-111 0 -179 72.5t-68 190.5t68 190t179 72q90 0 152.5 -47.5
t84.5 -131.5h-90z" />
    <glyph glyph-name="Ccircumflex" unicode="&#x108;" horiz-adv-x="743" 
d="M382 837l57 -76h82l-99 131h-78l-100 -131h80zM381 71q163 0 224 150h94q-32 -107 -114.5 -168.5t-204.5 -61.5q-150 0 -242 99.5t-92 258.5q0 161 92.5 264t243.5 103q122 0 204 -61t113 -169h-94q-60 150 -224 150q-112 0 -179 -79t-67 -205t67 -203.5t179 -77.5z" />
    <glyph glyph-name="ccircumflex" unicode="&#x109;" horiz-adv-x="576" 
d="M297 651l57 -76h82l-99 131h-78l-100 -131h80zM446 337q-18 51 -56.5 79.5t-89.5 28.5q-73 0 -118.5 -50t-45.5 -141q0 -92 45.5 -141.5t117.5 -49.5q53 0 92.5 29.5t58.5 84.5h87q-21 -86 -84.5 -136t-153.5 -50q-111 0 -179 72.5t-68 190.5t68 190t179 72
q90 0 152.5 -47.5t84.5 -131.5h-90z" />
    <glyph glyph-name="Cdotaccent" unicode="&#x10a;" horiz-adv-x="743" 
d="M332 802v95h103v-95h-103zM381 71q163 0 224 150h94q-32 -107 -114.5 -168.5t-204.5 -61.5q-150 0 -242 99.5t-92 258.5q0 161 92.5 264t243.5 103q122 0 204 -61t113 -169h-94q-60 150 -224 150q-112 0 -179 -79t-67 -205t67 -203.5t179 -77.5z" />
    <glyph glyph-name="cdotaccent" unicode="&#x10b;" horiz-adv-x="576" 
d="M247 616v95h103v-95h-103zM446 337q-18 51 -56.5 79.5t-89.5 28.5q-73 0 -118.5 -50t-45.5 -141q0 -92 45.5 -141.5t117.5 -49.5q53 0 92.5 29.5t58.5 84.5h87q-21 -86 -84.5 -136t-153.5 -50q-111 0 -179 72.5t-68 190.5t68 190t179 72q90 0 152.5 -47.5t84.5 -131.5
h-90z" />
    <glyph glyph-name="Ccaron" unicode="&#x10c;" horiz-adv-x="743" 
d="M385 816l-58 76h-81l99 -131h77l100 131h-79zM381 71q163 0 224 150h94q-32 -107 -114.5 -168.5t-204.5 -61.5q-150 0 -242 99.5t-92 258.5q0 161 92.5 264t243.5 103q122 0 204 -61t113 -169h-94q-60 150 -224 150q-112 0 -179 -79t-67 -205t67 -203.5t179 -77.5z" />
    <glyph glyph-name="ccaron" unicode="&#x10d;" horiz-adv-x="576" 
d="M300 630l-58 76h-81l99 -131h77l100 131h-79zM446 337q-18 51 -56.5 79.5t-89.5 28.5q-73 0 -118.5 -50t-45.5 -141q0 -92 45.5 -141.5t117.5 -49.5q53 0 92.5 29.5t58.5 84.5h87q-21 -86 -84.5 -136t-153.5 -50q-111 0 -179 72.5t-68 190.5t68 190t179 72
q90 0 152.5 -47.5t84.5 -131.5h-90z" />
    <glyph glyph-name="Dcaron" unicode="&#x10e;" horiz-adv-x="709" 
d="M302 814l-58 76h-81l99 -131h77l100 131h-79zM77 0h233q166 0 259.5 96.5t93.5 256.5q0 159 -93.5 256t-259.5 97h-233v-706zM163 79v548h153q120 0 189 -73.5t69 -199.5q0 -125 -69 -199.5t-189 -75.5h-153z" />
    <glyph glyph-name="dcaron" unicode="&#x10f;" horiz-adv-x="664" 
d="M478 423v313h82v-736h-72l-10 86q-26 -45 -75.5 -70.5t-109.5 -25.5q-104 0 -172.5 69.5t-68.5 191.5q0 123 69 194t172 71q61 0 110 -24.5t75 -68.5zM626 736h82l-45 -176h-55zM306 62q73 0 121.5 51t48.5 138t-48.5 140t-121.5 52q-76 -1 -122.5 -53t-46.5 -139
q0 -88 46.5 -138.5t122.5 -50.5z" />
    <glyph glyph-name="Dcroat" unicode="&#x110;" horiz-adv-x="720" 
d="M321 706q166 0 259.5 -97t93.5 -256q0 -160 -93.5 -256.5t-259.5 -96.5h-233v317h-69v75h69v314h233zM327 79q120 1 189 75.5t69 199.5q0 126 -69 199.5t-189 73.5h-153v-235h121v-75h-121v-238h153z" />
    <glyph glyph-name="dcroat" unicode="&#x111;" horiz-adv-x="637" 
d="M620 645v-69h-60v-576h-72l-10 86q-26 -45 -75.5 -70.5t-109.5 -25.5q-104 0 -172.5 69.5t-68.5 191.5q0 123 69 194t172 71q61 0 110 -24.5t75 -68.5v153h-159v69h159v91h82v-91h60zM306 62q73 0 121.5 51t48.5 138t-48.5 140t-121.5 52q-76 -1 -122.5 -53t-46.5 -139
q0 -88 46.5 -138.5t122.5 -50.5z" />
    <glyph glyph-name="Emacron" unicode="&#x112;" horiz-adv-x="597" 
d="M444 846v-64h-279v64h279zM163 79h396v-79h-482v706h463v-79h-377v-233h298v-77h-298v-238z" />
    <glyph glyph-name="emacron" unicode="&#x113;" horiz-adv-x="598" 
d="M442 662v-64h-279v64h279zM546 266v-36h-406q1 -81 48 -125.5t118 -44.5q52 0 92 25.5t58 73.5h84q-22 -77 -84.5 -122.5t-151.5 -45.5q-112 0 -180 72t-68 191q0 118 68 190t179 72q109 0 176 -68.5t67 -181.5zM303 449q-66 0 -110.5 -40.5t-51.5 -117.5h321
q-4 76 -48.5 117t-110.5 41z" />
    <glyph glyph-name="Ebreve" unicode="&#x114;" horiz-adv-x="597" 
d="M304 757q-59 0 -96.5 36t-36.5 95h64q0 -32 18.5 -50t50.5 -18t50.5 18t18.5 50h64q1 -59 -36.5 -95t-96.5 -36zM163 79h396v-79h-482v706h463v-79h-377v-233h298v-77h-298v-238z" />
    <glyph glyph-name="ebreve" unicode="&#x115;" horiz-adv-x="598" 
d="M303 573q-59 0 -96.5 36t-36.5 95h64q0 -32 18.5 -50t50.5 -18t50.5 18t18.5 50h64q1 -59 -36.5 -95t-96.5 -36zM546 266v-36h-406q1 -81 48 -125.5t118 -44.5q52 0 92 25.5t58 73.5h84q-22 -77 -84.5 -122.5t-151.5 -45.5q-112 0 -180 72t-68 191q0 118 68 190t179 72
q109 0 176 -68.5t67 -181.5zM303 449q-66 0 -110.5 -40.5t-51.5 -117.5h321q-4 76 -48.5 117t-110.5 41z" />
    <glyph glyph-name="Edotaccent" unicode="&#x116;" horiz-adv-x="597" 
d="M355 895v-95h-103v95h103zM163 79h396v-79h-482v706h463v-79h-377v-233h298v-77h-298v-238z" />
    <glyph glyph-name="edotaccent" unicode="&#x117;" horiz-adv-x="598" 
d="M354 711v-95h-103v95h103zM546 266v-36h-406q1 -81 48 -125.5t118 -44.5q52 0 92 25.5t58 73.5h84q-22 -77 -84.5 -122.5t-151.5 -45.5q-112 0 -180 72t-68 191q0 118 68 190t179 72q109 0 176 -68.5t67 -181.5zM303 449q-66 0 -110.5 -40.5t-51.5 -117.5h321
q-4 76 -48.5 117t-110.5 41z" />
    <glyph glyph-name="Eogonek" unicode="&#x118;" horiz-adv-x="597" 
d="M559 0q-73 -37 -73 -69q0 -28 36 -28q18 0 33 8v-54q-26 -13 -54 -13q-34 0 -57.5 18t-23.5 49q0 54 65 89h-408v706h463v-79h-377v-233h298v-77h-298v-238h396v-79z" />
    <glyph glyph-name="eogonek" unicode="&#x119;" horiz-adv-x="598" 
d="M546 266v-36h-406q1 -81 48 -125.5t118 -44.5q52 0 92 25.5t58 73.5h84q-17 -57 -56 -97.5t-96 -58.5q-73 -37 -73 -69q0 -28 36 -28q18 0 33 8v-54q-26 -13 -54 -13q-34 0 -57.5 18t-23.5 49q0 45 45 77q-108 4 -173 75.5t-65 187.5q0 118 68 190t179 72
q109 0 176 -68.5t67 -181.5zM303 449q-66 0 -110.5 -40.5t-51.5 -117.5h321q-4 76 -48.5 117t-110.5 41z" />
    <glyph glyph-name="Ecaron" unicode="&#x11a;" horiz-adv-x="597" 
d="M342 759h-77l-99 131h81l58 -76l58 76h79zM163 79h396v-79h-482v706h463v-79h-377v-233h298v-77h-298v-238z" />
    <glyph glyph-name="ecaron" unicode="&#x11b;" horiz-adv-x="598" 
d="M341 575h-77l-99 131h81l58 -76l58 76h79zM546 266v-36h-406q1 -81 48 -125.5t118 -44.5q52 0 92 25.5t58 73.5h84q-22 -77 -84.5 -122.5t-151.5 -45.5q-112 0 -180 72t-68 191q0 118 68 190t179 72q109 0 176 -68.5t67 -181.5zM303 449q-66 0 -110.5 -40.5t-51.5 -117.5
h321q-4 76 -48.5 117t-110.5 41z" />
    <glyph glyph-name="Gcircumflex" unicode="&#x11c;" horiz-adv-x="766" 
d="M385 837l-58 -76h-80l100 131h78l99 -131h-82zM387 386h316v-387h-69l-13 112q-38 -59 -101.5 -89.5t-142.5 -30.5q-147 0 -239 98.5t-92 257.5q0 162 94 265.5t245 103.5q123 0 206.5 -61.5t110.5 -165.5h-95q-55 147 -223 147q-113 0 -181 -78.5t-68 -206.5
q0 -127 67.5 -204t180.5 -77q55 0 105 20.5t88.5 70t41.5 120.5l2 -1v30h-233v76z" />
    <glyph glyph-name="gcircumflex" unicode="&#x11d;" horiz-adv-x="606" 
d="M291 651l-58 -76h-80l100 131h78l99 -131h-82zM463 506h72v-484q0 -106 -65.5 -169t-174.5 -63q-92 0 -153.5 46t-75.5 124h85q12 -49 50.5 -75t93.5 -26q75 0 117 40.5t42 109.5v96q-22 -44 -69.5 -69t-106.5 -25q-98 0 -162 68t-64 184q0 117 64 185t163 68
q57 0 102.5 -24t71.5 -68zM292 82q72 0 116 49t44 130q0 82 -44 132.5t-116 50.5q-71 0 -113 -50.5t-42 -131.5q0 -82 42 -131t113 -49z" />
    <glyph glyph-name="Gbreve" unicode="&#x11e;" horiz-adv-x="766" 
d="M387 759q-59 0 -96.5 36t-36.5 95h64q0 -32 18.5 -50t50.5 -18t50.5 18t18.5 50h64q1 -59 -36.5 -95t-96.5 -36zM387 386h316v-387h-69l-13 112q-38 -59 -101.5 -89.5t-142.5 -30.5q-147 0 -239 98.5t-92 257.5q0 162 94 265.5t245 103.5q123 0 206.5 -61.5t110.5 -165.5
h-95q-55 147 -223 147q-113 0 -181 -78.5t-68 -206.5q0 -127 67.5 -204t180.5 -77q55 0 105 20.5t88.5 70t41.5 120.5l2 -1v30h-233v76z" />
    <glyph glyph-name="gbreve" unicode="&#x11f;" horiz-adv-x="606" 
d="M293 573q-59 0 -96.5 36t-36.5 95h64q0 -32 18.5 -50t50.5 -18t50.5 18t18.5 50h64q1 -59 -36.5 -95t-96.5 -36zM463 506h72v-484q0 -106 -65.5 -169t-174.5 -63q-92 0 -153.5 46t-75.5 124h85q12 -49 50.5 -75t93.5 -26q75 0 117 40.5t42 109.5v96q-22 -44 -69.5 -69
t-106.5 -25q-98 0 -162 68t-64 184q0 117 64 185t163 68q57 0 102.5 -24t71.5 -68zM292 82q72 0 116 49t44 130q0 82 -44 132.5t-116 50.5q-71 0 -113 -50.5t-42 -131.5q0 -82 42 -131t113 -49z" />
    <glyph glyph-name="Gdotaccent" unicode="&#x120;" horiz-adv-x="766" 
d="M438 897v-95h-103v95h103zM387 386h316v-387h-69l-13 112q-38 -59 -101.5 -89.5t-142.5 -30.5q-147 0 -239 98.5t-92 257.5q0 162 94 265.5t245 103.5q123 0 206.5 -61.5t110.5 -165.5h-95q-55 147 -223 147q-113 0 -181 -78.5t-68 -206.5q0 -127 67.5 -204t180.5 -77
q55 0 105 20.5t88.5 70t41.5 120.5l2 -1v30h-233v76z" />
    <glyph glyph-name="gdotaccent" unicode="&#x121;" horiz-adv-x="606" 
d="M344 711v-95h-103v95h103zM463 506h72v-484q0 -106 -65.5 -169t-174.5 -63q-92 0 -153.5 46t-75.5 124h85q12 -49 50.5 -75t93.5 -26q75 0 117 40.5t42 109.5v96q-22 -44 -69.5 -69t-106.5 -25q-98 0 -162 68t-64 184q0 117 64 185t163 68q57 0 102.5 -24t71.5 -68z
M292 82q72 0 116 49t44 130q0 82 -44 132.5t-116 50.5q-71 0 -113 -50.5t-42 -131.5q0 -82 42 -131t113 -49z" />
    <glyph glyph-name="Gcommaaccent" unicode="&#x122;" horiz-adv-x="766" 
d="M387 386h316v-387h-69l-13 112q-38 -59 -101.5 -89.5t-142.5 -30.5q-147 0 -239 98.5t-92 257.5q0 162 94 265.5t245 103.5q123 0 206.5 -61.5t110.5 -165.5h-95q-55 147 -223 147q-113 0 -181 -78.5t-68 -206.5q0 -127 67.5 -204t180.5 -77q55 0 105 20.5t88.5 70
t41.5 120.5l2 -1v30h-233v76zM343 -158v89h92v-89l-35 -85h-53l36 85h-40z" />
    <glyph glyph-name="gcommaaccent" unicode="&#x123;" horiz-adv-x="606" 
d="M339 676v-89h-92v89l35 85h53l-36 -85h40zM463 506h72v-484q0 -106 -65.5 -169t-174.5 -63q-92 0 -153.5 46t-75.5 124h85q12 -49 50.5 -75t93.5 -26q75 0 117 40.5t42 109.5v96q-22 -44 -69.5 -69t-106.5 -25q-98 0 -162 68t-64 184q0 117 64 185t163 68q57 0 102.5 -24
t71.5 -68zM292 82q72 0 116 49t44 130q0 82 -44 132.5t-116 50.5q-71 0 -113 -50.5t-42 -131.5q0 -82 42 -131t113 -49z" />
    <glyph glyph-name="Hcircumflex" unicode="&#x124;" horiz-adv-x="711" 
d="M354 835l57 -76h82l-99 131h-78l-100 -131h80zM548 318h-385v-318h-86v706h86v-308h385v308h85v-706h-85v318z" />
    <glyph glyph-name="hcircumflex" unicode="&#x125;" horiz-adv-x="585" 
d="M168 762l-57 76l-58 -76h-80l100 131h78l99 -131h-82zM321 516q39 0 72.5 -11t62.5 -35t46 -68t17 -104v-298h-82v284q0 79 -35 117.5t-98 37.5q-72 0 -111.5 -45.5t-39.5 -118.5v-275h-82v736h82v-305q23 40 68 62.5t100 22.5z" />
    <glyph glyph-name="Hbar" unicode="&#x126;" horiz-adv-x="723" 
d="M713 594v-69h-74v-525h-85v318h-385v-318h-86v525h-68v69h68v112h86v-112h385v112h85v-112h74zM554 398v127h-385v-127h385z" />
    <glyph glyph-name="hbar" unicode="&#x127;" horiz-adv-x="587" 
d="M323 516q39 0 72.5 -11t62.5 -35t46 -68t17 -104v-298h-82v284q0 79 -35 117.5t-98 37.5q-72 0 -111.5 -45.5t-39.5 -118.5v-275h-82v576h-55v69h55v91h82v-91h164v-69h-164v-145q23 40 68 62.5t100 22.5z" />
    <glyph glyph-name="Itilde" unicode="&#x128;" horiz-adv-x="240" 
d="M56 880q29 0 67 -19.5t53 -19.5q33 0 35 37h54q1 -49 -20.5 -76.5t-60.5 -27.5q-29 0 -67 19.5t-53 19.5q-33 0 -35 -38h-53q-1 49 20 77t60 28zM163 706v-706h-86v706h86z" />
    <glyph glyph-name="itilde" unicode="&#x129;" horiz-adv-x="225" 
d="M48 696q29 0 67 -19.5t53 -19.5q33 0 35 37h54q1 -49 -20.5 -76.5t-60.5 -27.5q-29 0 -67 19.5t-53 19.5q-33 0 -35 -38h-53q-1 49 20 77t60 28zM71 0v506h82v-506h-82z" />
    <glyph glyph-name="Imacron" unicode="&#x12a;" horiz-adv-x="240" 
d="M-19 846h279v-64h-279v64zM163 706v-706h-86v706h86z" />
    <glyph glyph-name="imacron" unicode="&#x12b;" horiz-adv-x="225" 
d="M-27 662h279v-64h-279v64zM71 0v506h82v-506h-82z" />
    <glyph glyph-name="Ibreve" unicode="&#x12c;" horiz-adv-x="240" 
d="M121 757q-59 0 -96.5 36t-36.5 95h64q0 -32 18.5 -50t50.5 -18t50.5 18t18.5 50h64q1 -59 -36.5 -95t-96.5 -36zM163 706v-706h-86v706h86z" />
    <glyph glyph-name="ibreve" unicode="&#x12d;" horiz-adv-x="225" 
d="M113 573q-59 0 -96.5 36t-36.5 95h64q0 -32 18.5 -50t50.5 -18t50.5 18t18.5 50h64q1 -59 -36.5 -95t-96.5 -36zM71 0v506h82v-506h-82z" />
    <glyph glyph-name="Iogonek" unicode="&#x12e;" horiz-adv-x="240" 
d="M163 0q-73 -37 -73 -69q0 -28 36 -28q18 0 33 8v-54q-26 -13 -54 -13q-34 0 -57.5 18t-23.5 49q0 54 65 89h-12v706h86v-706z" />
    <glyph glyph-name="iogonek" unicode="&#x12f;" horiz-adv-x="225" 
d="M61 711h102v-96h-102v96zM71 0v506h82v-506q-73 -37 -73 -69q0 -28 36 -28q18 0 33 8v-54q-26 -13 -54 -13q-34 0 -57.5 18t-23.5 49q0 54 65 89h-8z" />
    <glyph glyph-name="Idotaccent" unicode="&#x130;" horiz-adv-x="240" 
d="M69 800v95h103v-95h-103zM163 706v-706h-86v706h86z" />
    <glyph glyph-name="dotlessi" unicode="&#x131;" horiz-adv-x="225" 
d="M71 0v506h82v-506h-82z" />
    <glyph glyph-name="IJ" unicode="&#x132;" horiz-adv-x="760" 
d="M163 706v-706h-86v706h86zM323 203q0 -61 37 -97t101 -36q63 0 100 36.5t37 104.5v495h86v-496q0 -101 -61.5 -160.5t-160.5 -59.5q-101 0 -162 57t-61 156h84z" />
    <glyph glyph-name="ij" unicode="&#x133;" horiz-adv-x="455" 
d="M61 615v96h102v-96h-102zM291 615v96h102v-96h-102zM71 0v506h82v-506h-82zM383 -65q0 -66 -34 -100.5t-96 -34.5h-65v74h54q59 0 59 63v569h82v-571z" />
    <glyph glyph-name="Jcircumflex" unicode="&#x134;" horiz-adv-x="546" 
d="M427 835l57 -76h82l-99 131h-78l-100 -131h80zM111 203q0 -61 37 -97t101 -36q63 0 100 36.5t37 104.5v495h86v-496q0 -101 -61.5 -160.5t-160.5 -59.5q-101 0 -162 57t-61 156h84z" />
    <glyph glyph-name="jcircumflex" unicode="&#x135;" horiz-adv-x="235" 
d="M121 651l57 -76h82l-99 131h-78l-100 -131h80zM163 -65q0 -66 -34 -100.5t-96 -34.5h-65v74h54q59 0 59 63v569h82v-571z" />
    <glyph glyph-name="Kcommaaccent" unicode="&#x136;" horiz-adv-x="643" 
d="M352 400l285 -400h-107l-238 334l-130 -143v-191h-85v706h85v-410l359 410h101zM278 -143v89h92v-89l-35 -85h-53l36 85h-40z" />
    <glyph glyph-name="kcommaaccent" unicode="&#x137;" horiz-adv-x="518" 
d="M283 285l220 -285h-103l-175 227l-71 -71v-156h-83v736h82v-478l245 248h104zM231 -136v89h92v-89l-35 -85h-53l36 85h-40z" />
    <glyph glyph-name="Lacute" unicode="&#x139;" horiz-adv-x="548" 
d="M83 759l79 131h90l-94 -131h-75zM163 81h355v-81h-441v706h86v-625z" />
    <glyph glyph-name="lacute" unicode="&#x13a;" horiz-adv-x="225" 
d="M75 770l79 131h90l-94 -131h-75zM153 736v-736h-82v736h82z" />
    <glyph glyph-name="Lcommaaccent" unicode="&#x13b;" horiz-adv-x="548" 
d="M163 81h355v-81h-441v706h86v-625zM259 -145v89h92v-89l-35 -85h-53l36 85h-40z" />
    <glyph glyph-name="lcommaaccent" unicode="&#x13c;" horiz-adv-x="225" 
d="M153 736v-736h-82v736h82zM67 -47h92v-89l-35 -85h-53l36 85h-40v89z" />
    <glyph glyph-name="Lcaron" unicode="&#x13d;" horiz-adv-x="548" 
d="M163 81h355v-81h-441v706h86v-625zM352 706l-45 -176h-55l18 176h82z" />
    <glyph glyph-name="lcaron" unicode="&#x13e;" horiz-adv-x="259" 
d="M153 736v-736h-82v736h82zM301 736l-45 -176h-55l18 176h82z" />
    <glyph glyph-name="Ldot" unicode="&#x13f;" horiz-adv-x="551" 
d="M163 81h355v-81h-441v706h86v-625zM386 354q-21 0 -36 15.5t-15 36.5t15 36.5t36 15.5t36.5 -15.5t15.5 -36.5t-15.5 -36.5t-36.5 -15.5z" />
    <glyph glyph-name="ldot" unicode="&#x140;" horiz-adv-x="332" 
d="M153 736v-736h-82v736h82zM274 323q-21 0 -36 15.5t-15 36.5t15 36.5t36 15.5t36.5 -15.5t15.5 -36.5t-15.5 -36.5t-36.5 -15.5z" />
    <glyph glyph-name="Lslash" unicode="&#x141;" horiz-adv-x="559" 
d="M171 81h355v-81h-441v326l-69 -45v83l69 45v297h86v-241l136 88v-83l-136 -88v-301z" />
    <glyph glyph-name="lslash" unicode="&#x142;" horiz-adv-x="249" 
d="M244 488v-73l-78 -29v-386h-82v354l-78 -29v74l78 29v309h82v-278z" />
    <glyph glyph-name="Nacute" unicode="&#x143;" horiz-adv-x="709" 
d="M319 759l79 131h90l-94 -131h-75zM77 0v706h91l381 -571v571h83v-706h-89l-382 568v-568h-84z" />
    <glyph glyph-name="nacute" unicode="&#x144;" horiz-adv-x="584" 
d="M442 706l-94 -131h-75l79 131h90zM318 516q94 0 147 -57.5t53 -155.5v-303h-82v286q0 77 -36.5 116t-100.5 39q-70 0 -108 -45.5t-38 -121.5v-274h-82v506h72l9 -78q46 88 166 88z" />
    <glyph glyph-name="Ncommaaccent" unicode="&#x145;" horiz-adv-x="709" 
d="M549 706h83v-706h-89l-382 568v-568h-84v706h91l381 -571v571zM308 -134v89h92v-89l-35 -85h-53l36 85h-40z" />
    <glyph glyph-name="ncommaaccent" unicode="&#x146;" horiz-adv-x="584" 
d="M318 516q94 0 147 -57.5t53 -155.5v-303h-82v286q0 77 -36.5 116t-100.5 39q-70 0 -108 -45.5t-38 -121.5v-274h-82v506h72l9 -78q46 88 166 88zM250 -136v89h92v-89l-35 -85h-53l36 85h-40z" />
    <glyph glyph-name="Ncaron" unicode="&#x147;" horiz-adv-x="709" 
d="M358 814l-58 76h-81l99 -131h77l100 131h-79zM77 0v706h91l381 -571v571h83v-706h-89l-382 568v-568h-84z" />
    <glyph glyph-name="ncaron" unicode="&#x148;" horiz-adv-x="584" 
d="M349 575h-77l-99 131h81l58 -76l58 76h79zM318 516q94 0 147 -57.5t53 -155.5v-303h-82v286q0 77 -36.5 116t-100.5 39q-70 0 -108 -45.5t-38 -121.5v-274h-82v506h72l9 -78q46 88 166 88z" />
    <glyph glyph-name="Eng" unicode="&#x14a;" horiz-adv-x="709" 
d="M547 0l-386 568v-568h-84v706h91l381 -561v561h83v-771q0 -66 -34 -100.5t-97 -34.5h-65v76h55q30 0 43 14t13 45v65z" />
    <glyph glyph-name="eng" unicode="&#x14b;" horiz-adv-x="581" 
d="M431 -66v364q0 70 -37.5 106.5t-98.5 36.5q-69 0 -108.5 -44.5t-39.5 -114.5v-282h-83v506h72l9 -66q54 76 166 76q91 0 147 -56t56 -153v-376q0 -61 -35.5 -97.5t-99.5 -36.5h-59v79h57q28 0 41 13.5t13 44.5z" />
    <glyph glyph-name="Omacron" unicode="&#x14c;" horiz-adv-x="764" 
d="M243 848h279v-64h-279v64zM383 -9q-150 0 -243.5 100.5t-93.5 259.5q0 160 93.5 262.5t243.5 102.5q149 0 242 -102.5t93 -262.5t-92.5 -260t-242.5 -100zM383 72q112 0 178.5 76.5t66.5 202.5q0 127 -66.5 205.5t-178.5 78.5q-113 0 -180 -78.5t-67 -205.5
q0 -126 67 -202.5t180 -76.5z" />
    <glyph glyph-name="omacron" unicode="&#x14d;" horiz-adv-x="616" 
d="M169 661h279v-64h-279v64zM52 252q0 117 71 190.5t185 73.5q115 0 186 -73.5t71 -190.5q0 -116 -71 -189t-186 -73q-114 0 -185 72.5t-71 189.5zM136 253q0 -87 47.5 -139.5t124.5 -52.5t124.5 52.5t47.5 139.5q0 88 -47 140.5t-125 52.5t-125 -52.5t-47 -140.5z" />
    <glyph glyph-name="Obreve" unicode="&#x14e;" horiz-adv-x="764" 
d="M383 759q-59 0 -96.5 36t-36.5 95h64q0 -32 18.5 -50t50.5 -18t50.5 18t18.5 50h64q1 -59 -36.5 -95t-96.5 -36zM383 -9q-150 0 -243.5 100.5t-93.5 259.5q0 160 93.5 262.5t243.5 102.5q149 0 242 -102.5t93 -262.5t-92.5 -260t-242.5 -100zM383 72q112 0 178.5 76.5
t66.5 202.5q0 127 -66.5 205.5t-178.5 78.5q-113 0 -180 -78.5t-67 -205.5q0 -126 67 -202.5t180 -76.5z" />
    <glyph glyph-name="obreve" unicode="&#x14f;" horiz-adv-x="616" 
d="M308 572q-59 0 -96.5 36t-36.5 95h64q0 -32 18.5 -50t50.5 -18t50.5 18t18.5 50h64q1 -59 -36.5 -95t-96.5 -36zM52 252q0 117 71 190.5t185 73.5q115 0 186 -73.5t71 -190.5q0 -116 -71 -189t-186 -73q-114 0 -185 72.5t-71 189.5zM136 253q0 -87 47.5 -139.5
t124.5 -52.5t124.5 52.5t47.5 139.5q0 88 -47 140.5t-125 52.5t-125 -52.5t-47 -140.5z" />
    <glyph glyph-name="Ohungarumlaut" unicode="&#x150;" horiz-adv-x="764" 
d="M283 761l79 131h89l-95 -131h-73zM410 761l99 131h89l-115 -131h-73zM383 -9q-150 0 -243.5 100.5t-93.5 259.5q0 160 93.5 262.5t243.5 102.5q149 0 242 -102.5t93 -262.5t-92.5 -260t-242.5 -100zM383 72q112 0 178.5 76.5t66.5 202.5q0 127 -66.5 205.5t-178.5 78.5
q-113 0 -180 -78.5t-67 -205.5q0 -126 67 -202.5t180 -76.5z" />
    <glyph glyph-name="ohungarumlaut" unicode="&#x151;" horiz-adv-x="616" 
d="M208 574l79 131h89l-95 -131h-73zM335 574l99 131h89l-115 -131h-73zM52 252q0 117 71 190.5t185 73.5q115 0 186 -73.5t71 -190.5q0 -116 -71 -189t-186 -73q-114 0 -185 72.5t-71 189.5zM136 253q0 -87 47.5 -139.5t124.5 -52.5t124.5 52.5t47.5 139.5q0 88 -47 140.5
t-125 52.5t-125 -52.5t-47 -140.5z" />
    <glyph glyph-name="OE" unicode="&#x152;" horiz-adv-x="1141" 
d="M725 79h378v-79h-464v113q-40 -58 -106 -90t-148 -32q-148 0 -241 100.5t-93 259.5q0 160 93.5 262.5t242.5 102.5q80 0 145.5 -32.5t106.5 -90.5v113h445v-79h-359v-233h274v-77h-274v-238zM387 72q113 0 179 76.5t66 202.5q0 127 -66 205.5t-179 78.5t-179.5 -78.5
t-66.5 -205.5q0 -126 66.5 -202.5t179.5 -76.5z" />
    <glyph glyph-name="oe" unicode="&#x153;" horiz-adv-x="1022" 
d="M969 265v-36h-409q1 -80 48.5 -124.5t117.5 -44.5q112 0 150 99h85q-22 -77 -85 -122.5t-152 -45.5q-70 0 -124 30t-84 85q-30 -55 -85 -85.5t-127 -30.5q-113 0 -182.5 72.5t-69.5 189.5t69.5 190t182.5 73q70 0 125 -30.5t86 -84.5q29 55 83 85.5t124 30.5
q111 0 179 -69t68 -182zM559 290h326q-4 76 -49 117.5t-114 41.5q-68 0 -113.5 -42t-49.5 -117zM304 61q77 0 123.5 52.5t46.5 139.5t-46.5 139.5t-123.5 52.5t-123 -52.5t-46 -139.5t46 -139.5t123 -52.5z" />
    <glyph glyph-name="Racute" unicode="&#x154;" horiz-adv-x="653" 
d="M276 759l79 131h90l-94 -131h-75zM77 0v706h287q115 0 179.5 -60t64.5 -163q0 -82 -43 -139.5t-121 -75.5l148 -268h-98l-142 257h-190v-257h-85zM162 334h202q75 0 114.5 38t39.5 109t-39.5 109t-114.5 38h-202v-294z" />
    <glyph glyph-name="racute" unicode="&#x155;" horiz-adv-x="372" 
d="M343 706l-94 -131h-75l79 131h90zM283 506h64v-76h-67q-126 0 -126 -151v-279h-82v506h72l11 -72q16 31 50.5 51.5t77.5 20.5z" />
    <glyph glyph-name="Rcommaaccent" unicode="&#x156;" horiz-adv-x="653" 
d="M608 483q0 -82 -43 -139.5t-121 -75.5l148 -268h-98l-142 257h-190v-257h-85v706h287q115 0 179.5 -60t64.5 -163zM162 334h202q75 0 114.5 38t39.5 109t-39.5 109t-114.5 38h-202v-294zM275 -134v89h92v-89l-35 -85h-53l36 85h-40z" />
    <glyph glyph-name="rcommaaccent" unicode="&#x157;" horiz-adv-x="372" 
d="M283 506h64v-76h-67q-126 0 -126 -151v-279h-82v506h72l11 -72q16 31 50.5 51.5t77.5 20.5zM67 -134v89h92v-89l-35 -85h-53l36 85h-40z" />
    <glyph glyph-name="Rcaron" unicode="&#x158;" horiz-adv-x="653" 
d="M315 814l-58 76h-81l99 -131h77l100 131h-79zM77 0v706h287q115 0 179.5 -60t64.5 -163q0 -82 -43 -139.5t-121 -75.5l148 -268h-98l-142 257h-190v-257h-85zM162 334h202q75 0 114.5 38t39.5 109t-39.5 109t-114.5 38h-202v-294z" />
    <glyph glyph-name="rcaron" unicode="&#x159;" horiz-adv-x="372" 
d="M250 575h-77l-99 131h81l58 -76l58 76h79zM155 434q16 31 50.5 51.5t77.5 20.5h64v-76h-67q-126 0 -126 -151v-279h-82v506h72z" />
    <glyph glyph-name="Sacute" unicode="&#x15a;" horiz-adv-x="605" 
d="M259 761l79 131h90l-94 -131h-75zM564 191q0 -92 -74.5 -146.5t-188.5 -54.5q-123 0 -195.5 56t-72.5 148h90q0 -59 47 -93.5t134 -34.5q72 0 121 33.5t49 91.5q0 51 -31.5 78.5t-94.5 38.5l-116 22q-91 16 -137.5 65t-46.5 125q0 88 69.5 142t181.5 54q113 0 183 -54
t70 -150h-89q0 61 -44 95t-124 34q-68 0 -113 -31t-45 -87q0 -49 30 -75.5t93 -38.5l116 -21q188 -34 188 -197z" />
    <glyph glyph-name="sacute" unicode="&#x15b;" horiz-adv-x="511" 
d="M212 575l79 131h90l-94 -131h-75zM40 149h83q1 -45 37 -70t95 -25q58 0 92 22.5t34 61.5q0 34 -19.5 52.5t-63.5 24.5l-105 17q-140 23 -140 138q0 66 55.5 106t140.5 40q91 0 148 -42t58 -116h-81q-1 45 -35 69.5t-89 24.5q-53 0 -84.5 -21.5t-31.5 -58.5
q0 -32 21.5 -49t69.5 -24l103 -17q136 -22 136 -137q0 -73 -58.5 -114t-148.5 -41q-99 0 -157 43t-60 116z" />
    <glyph glyph-name="Scircumflex" unicode="&#x15c;" horiz-adv-x="605" 
d="M295 837l57 -76h82l-99 131h-78l-100 -131h80zM564 191q0 -92 -74.5 -146.5t-188.5 -54.5q-123 0 -195.5 56t-72.5 148h90q0 -59 47 -93.5t134 -34.5q72 0 121 33.5t49 91.5q0 51 -31.5 78.5t-94.5 38.5l-116 22q-91 16 -137.5 65t-46.5 125q0 88 69.5 142t181.5 54
q113 0 183 -54t70 -150h-89q0 61 -44 95t-124 34q-68 0 -113 -31t-45 -87q0 -49 30 -75.5t93 -38.5l116 -21q188 -34 188 -197z" />
    <glyph glyph-name="scircumflex" unicode="&#x15d;" horiz-adv-x="511" 
d="M248 651l57 -76h82l-99 131h-78l-100 -131h80zM40 149h83q1 -45 37 -70t95 -25q58 0 92 22.5t34 61.5q0 34 -19.5 52.5t-63.5 24.5l-105 17q-140 23 -140 138q0 66 55.5 106t140.5 40q91 0 148 -42t58 -116h-81q-1 45 -35 69.5t-89 24.5q-53 0 -84.5 -21.5t-31.5 -58.5
q0 -32 21.5 -49t69.5 -24l103 -17q136 -22 136 -137q0 -73 -58.5 -114t-148.5 -41q-99 0 -157 43t-60 116z" />
    <glyph glyph-name="Scedilla" unicode="&#x15e;" horiz-adv-x="605" 
d="M564 191q0 -88 -69 -142t-176 -59l-15 -36q35 4 58 -13.5t23 -48.5q0 -32 -23 -51t-60 -19q-38 0 -62 19.5t-24 47.5h51q3 -24 32 -24t29 27q0 17 -15.5 23.5t-36.5 0.5l-23 11l25 64q-114 5 -179.5 60t-65.5 143h90q0 -59 47 -93.5t134 -34.5q72 0 121 33.5t49 91.5
q0 51 -31.5 78.5t-94.5 38.5l-116 22q-91 16 -137.5 65t-46.5 125q0 88 69.5 142t181.5 54q113 0 183 -54t70 -150h-89q0 61 -44 95t-124 34q-68 0 -113 -31t-45 -87q0 -49 30 -75.5t93 -38.5l116 -21q188 -34 188 -197z" />
    <glyph glyph-name="scedilla" unicode="&#x15f;" horiz-adv-x="511" 
d="M464 145q0 -69 -52.5 -109.5t-135.5 -44.5l-14 -35q35 4 58 -13.5t23 -48.5q0 -32 -23 -51t-60 -19q-38 0 -62 19.5t-24 47.5h51q3 -24 32 -24t29 27q0 17 -15.5 23.5t-36.5 0.5l-23 11l24 62q-90 4 -141.5 46.5t-53.5 111.5h83q1 -45 37 -70t95 -25q58 0 92 22.5
t34 61.5q0 34 -19.5 52.5t-63.5 24.5l-105 17q-140 23 -140 138q0 66 55.5 106t140.5 40q91 0 148 -42t58 -116h-81q-1 45 -35 69.5t-89 24.5q-53 0 -84.5 -21.5t-31.5 -58.5q0 -32 21.5 -49t69.5 -24l103 -17q136 -22 136 -137z" />
    <glyph glyph-name="Scaron" unicode="&#x160;" horiz-adv-x="605" 
d="M298 816l-58 76h-81l99 -131h77l100 131h-79zM564 191q0 -92 -74.5 -146.5t-188.5 -54.5q-123 0 -195.5 56t-72.5 148h90q0 -59 47 -93.5t134 -34.5q72 0 121 33.5t49 91.5q0 51 -31.5 78.5t-94.5 38.5l-116 22q-91 16 -137.5 65t-46.5 125q0 88 69.5 142t181.5 54
q113 0 183 -54t70 -150h-89q0 61 -44 95t-124 34q-68 0 -113 -31t-45 -87q0 -49 30 -75.5t93 -38.5l116 -21q188 -34 188 -197z" />
    <glyph glyph-name="scaron" unicode="&#x161;" horiz-adv-x="511" 
d="M251 630l-58 76h-81l99 -131h77l100 131h-79zM40 149h83q1 -45 37 -70t95 -25q58 0 92 22.5t34 61.5q0 34 -19.5 52.5t-63.5 24.5l-105 17q-140 23 -140 138q0 66 55.5 106t140.5 40q91 0 148 -42t58 -116h-81q-1 45 -35 69.5t-89 24.5q-53 0 -84.5 -21.5t-31.5 -58.5
q0 -32 21.5 -49t69.5 -24l103 -17q136 -22 136 -137q0 -73 -58.5 -114t-148.5 -41q-99 0 -157 43t-60 116z" />
    <glyph glyph-name="uni0162" unicode="&#x162;" horiz-adv-x="613" 
d="M23 706h567v-79h-241v-627h-85v627h-241v79zM260 -134v89h92v-89l-35 -85h-53l36 85h-40z" />
    <glyph glyph-name="uni0163" unicode="&#x163;" horiz-adv-x="341" 
d="M302 432h-119v-294q0 -64 61 -64h57v-74h-76q-58 0 -91 32t-33 95v305h-91v74h48q24 0 33.5 10.5t9.5 34.5v87h82v-132h119v-74zM162 -134v89h92v-89l-35 -85h-53l36 85h-40z" />
    <glyph glyph-name="Tcaron" unicode="&#x164;" horiz-adv-x="613" 
d="M308 814l-58 76h-81l99 -131h77l100 131h-79zM349 627v-627h-85v627h-241v79h567v-79h-241z" />
    <glyph glyph-name="tcaron" unicode="&#x165;" horiz-adv-x="343" 
d="M336 736l-45 -176h-55l18 176h82zM225 0q-58 0 -91 32t-33 95v305h-91v74h48q24 0 33.5 10.5t9.5 34.5v87h82v-132h119v-74h-119v-294q0 -64 61 -64h57v-74h-76z" />
    <glyph glyph-name="Tbar" unicode="&#x166;" horiz-adv-x="610" 
d="M590 627h-241v-235h107v-70h-107v-322h-85v322h-110v70h110v235h-241v79h567v-79z" />
    <glyph glyph-name="tbar" unicode="&#x167;" horiz-adv-x="353" 
d="M310 245h-122v-107q0 -64 61 -64h57v-74h-76q-58 0 -91 32t-33 95v118h-86v68h86v119h-91v74h48q24 0 33.5 10.5t9.5 34.5v87h82v-132h119v-74h-119v-119h122v-68z" />
    <glyph glyph-name="Utilde" unicode="&#x168;" horiz-adv-x="698" 
d="M284 880q29 0 67 -19.5t53 -19.5q33 0 35 37h54q1 -49 -20.5 -76.5t-60.5 -27.5q-29 0 -67 19.5t-53 19.5q-33 0 -35 -38h-53q-1 49 20 77t60 28zM157 706v-441q0 -94 50.5 -145.5t141.5 -51.5q90 0 140.5 51.5t50.5 145.5v441h86v-441q0 -125 -75.5 -200t-201.5 -75
q-127 0 -202 74.5t-75 200.5v441h85z" />
    <glyph glyph-name="utilde" unicode="&#x169;" horiz-adv-x="570" 
d="M191 591h-53q-1 49 20 77t60 28q29 0 67 -19.5t53 -19.5q33 0 35 37h54q1 -49 -20.5 -76.5t-60.5 -27.5q-29 0 -67 19.5t-53 19.5q-33 0 -35 -38zM419 506h79v-506h-71l-8 75q-46 -85 -156 -85q-92 0 -144.5 58t-52.5 155v303h80v-290q0 -75 36 -113.5t97 -37.5
q67 0 103.5 44.5t36.5 119.5v277z" />
    <glyph glyph-name="Umacron" unicode="&#x16a;" horiz-adv-x="698" 
d="M209 846h279v-64h-279v64zM157 706v-441q0 -94 50.5 -145.5t141.5 -51.5q90 0 140.5 51.5t50.5 145.5v441h86v-441q0 -125 -75.5 -200t-201.5 -75q-127 0 -202 74.5t-75 200.5v441h85z" />
    <glyph glyph-name="umacron" unicode="&#x16b;" horiz-adv-x="570" 
d="M421 662v-64h-279v64h279zM419 506h79v-506h-71l-8 75q-46 -85 -156 -85q-92 0 -144.5 58t-52.5 155v303h80v-290q0 -75 36 -113.5t97 -37.5q67 0 103.5 44.5t36.5 119.5v277z" />
    <glyph glyph-name="Ubreve" unicode="&#x16c;" horiz-adv-x="698" 
d="M349 757q-59 0 -96.5 36t-36.5 95h64q0 -32 18.5 -50t50.5 -18t50.5 18t18.5 50h64q1 -59 -36.5 -95t-96.5 -36zM157 706v-441q0 -94 50.5 -145.5t141.5 -51.5q90 0 140.5 51.5t50.5 145.5v441h86v-441q0 -125 -75.5 -200t-201.5 -75q-127 0 -202 74.5t-75 200.5v441h85z
" />
    <glyph glyph-name="ubreve" unicode="&#x16d;" horiz-adv-x="570" 
d="M282 573q-59 0 -96.5 36t-36.5 95h64q0 -32 18.5 -50t50.5 -18t50.5 18t18.5 50h64q1 -59 -36.5 -95t-96.5 -36zM419 506h79v-506h-71l-8 75q-46 -85 -156 -85q-92 0 -144.5 58t-52.5 155v303h80v-290q0 -75 36 -113.5t97 -37.5q67 0 103.5 44.5t36.5 119.5v277z" />
    <glyph glyph-name="Uring" unicode="&#x16e;" horiz-adv-x="698" 
d="M235 833q0 49 33 80t81 31t80.5 -31t32.5 -80q0 -50 -32.5 -81t-80.5 -31t-81 31t-33 81zM293 833q0 -25 16 -41.5t40 -16.5q25 0 41 16.5t16 41.5t-16 41.5t-41 16.5q-24 0 -40 -16.5t-16 -41.5zM157 706v-441q0 -94 50.5 -145.5t141.5 -51.5q90 0 140.5 51.5
t50.5 145.5v441h86v-441q0 -125 -75.5 -200t-201.5 -75q-127 0 -202 74.5t-75 200.5v441h85z" />
    <glyph glyph-name="uring" unicode="&#x16f;" horiz-adv-x="570" 
d="M282 538q-48 0 -81 31t-33 81q0 49 33 80t81 31t80.5 -31t32.5 -80q0 -50 -32.5 -81t-80.5 -31zM282 708q-24 0 -40 -16.5t-16 -41.5t16 -41.5t40 -16.5q25 0 41 16.5t16 41.5t-16 41.5t-41 16.5zM419 506h79v-506h-71l-8 75q-46 -85 -156 -85q-92 0 -144.5 58t-52.5 155
v303h80v-290q0 -75 36 -113.5t97 -37.5q67 0 103.5 44.5t36.5 119.5v277z" />
    <glyph glyph-name="Uhungarumlaut" unicode="&#x170;" horiz-adv-x="698" 
d="M249 759l79 131h89l-95 -131h-73zM376 759l99 131h89l-115 -131h-73zM157 706v-441q0 -94 50.5 -145.5t141.5 -51.5q90 0 140.5 51.5t50.5 145.5v441h86v-441q0 -125 -75.5 -200t-201.5 -75q-127 0 -202 74.5t-75 200.5v441h85z" />
    <glyph glyph-name="uhungarumlaut" unicode="&#x171;" horiz-adv-x="570" 
d="M350 706l-95 -131h-73l79 131h89zM382 575h-73l99 131h89zM419 506h79v-506h-71l-8 75q-46 -85 -156 -85q-92 0 -144.5 58t-52.5 155v303h80v-290q0 -75 36 -113.5t97 -37.5q67 0 103.5 44.5t36.5 119.5v277z" />
    <glyph glyph-name="Uogonek" unicode="&#x172;" horiz-adv-x="698" 
d="M540 706h86v-441q0 -107 -57 -179t-155 -90q-69 -36 -69 -67q0 -28 36 -28q18 0 33 8v-54q-26 -13 -54 -13q-34 0 -57.5 18t-23.5 49q0 49 52 81q-119 6 -189 80t-70 195v441h85v-441q0 -94 50.5 -145.5t141.5 -51.5q90 0 140.5 51.5t50.5 145.5v441z" />
    <glyph glyph-name="uogonek" unicode="&#x173;" horiz-adv-x="570" 
d="M498 0q-73 -37 -73 -69q0 -28 36 -28q18 0 33 8v-54q-26 -13 -54 -13q-34 0 -57.5 18t-23.5 49q0 54 68 91l-8 73q-46 -85 -156 -85q-92 0 -144.5 58t-52.5 155v303h80v-290q0 -75 36 -113.5t97 -37.5q67 0 103.5 44.5t36.5 119.5v277h79v-506z" />
    <glyph glyph-name="Wcircumflex" unicode="&#x174;" horiz-adv-x="977" 
d="M488 835l57 -76h82l-99 131h-78l-100 -131h80zM217 0l-200 706h89l163 -592l173 592h93l171 -595l166 595h88l-205 -706h-97l-172 582l-172 -582h-97z" />
    <glyph glyph-name="wcircumflex" unicode="&#x175;" horiz-adv-x="784" 
d="M393 651l57 -76h82l-99 131h-78l-100 -131h80zM107 506l113 -415l132 415h85l131 -415l110 415h86l-146 -506h-94l-131 408l-131 -408h-94l-149 506h88z" />
    <glyph glyph-name="Ycircumflex" unicode="&#x176;" horiz-adv-x="634" 
d="M316 835l57 -76h82l-99 131h-78l-100 -131h80zM274 241l-262 465h104l202 -374l203 374h102l-264 -465v-241h-85v241z" />
    <glyph glyph-name="ycircumflex" unicode="&#x177;" horiz-adv-x="516" 
d="M257 651l57 -76h82l-99 131h-78l-100 -131h80zM100 506l166 -451l153 452l87 -1l-212 -588q-25 -69 -64.5 -93.5t-100.5 -24.5h-100v74h101q40 0 62 21.5t22 63.5q0 20 -9 44l-194 503h89z" />
    <glyph glyph-name="Ydieresis" unicode="&#x178;" horiz-adv-x="634" 
d="M178 773v91h98v-91h-98zM359 773v91h98v-91h-98zM274 241l-262 465h104l202 -374l203 374h102l-264 -465v-241h-85v241z" />
    <glyph glyph-name="Zacute" unicode="&#x179;" horiz-adv-x="584" 
d="M255 759l79 131h90l-94 -131h-75zM141 79h408v-79h-514v72l398 555h-388v79h492v-72z" />
    <glyph glyph-name="zacute" unicode="&#x17a;" horiz-adv-x="494" 
d="M209 567l79 131h90l-94 -131h-75zM148 73h301v-73h-401v71l299 361h-302v74h402v-72z" />
    <glyph glyph-name="Zdotaccent" unicode="&#x17b;" horiz-adv-x="584" 
d="M241 800v95h103v-95h-103zM141 79h408v-79h-514v72l398 555h-388v79h492v-72z" />
    <glyph glyph-name="zdotaccent" unicode="&#x17c;" horiz-adv-x="494" 
d="M195 608v95h103v-95h-103zM148 73h301v-73h-401v71l299 361h-302v74h402v-72z" />
    <glyph glyph-name="Zcaron" unicode="&#x17d;" horiz-adv-x="584" 
d="M294 814l-58 76h-81l99 -131h77l100 131h-79zM141 79h408v-79h-514v72l398 555h-388v79h492v-72z" />
    <glyph glyph-name="zcaron" unicode="&#x17e;" horiz-adv-x="494" 
d="M248 622l-58 76h-81l99 -131h77l100 131h-79zM148 73h301v-73h-401v71l299 361h-302v74h402v-72z" />
    <glyph glyph-name="florin" unicode="&#x192;" horiz-adv-x="519" 
d="M411 633q-54 0 -65 -60l-38 -197h143v-72h-157l-57 -295q-25 -132 -140 -132h-55v73h50q55 0 65 58l57 296h-125v72h138l37 192q13 69 48 103.5t99 34.5h54v-73h-54z" />
    <glyph glyph-name="Aringacute" unicode="&#x1fa;" horiz-adv-x="658" 
d="M472 1052l-94 -131h-75l79 131h90zM555 0l-66 175h-323l-67 -175h-88l263 680q-57 30 -57 98q0 49 33 80t81 31t80.5 -31t32.5 -80q0 -71 -58 -99l261 -679h-92zM331 836q-24 0 -40 -16.5t-16 -41.5t16 -41.5t40 -16.5q25 0 41 16.5t16 41.5t-16 41.5t-41 16.5zM194 248
h267l-133 351z" />
    <glyph glyph-name="aringacute" unicode="&#x1fb;" horiz-adv-x="564" 
d="M413 847l-94 -131h-75l79 131h90zM518 64h18v-64h-50q-75 0 -82 69q-23 -36 -70 -57.5t-107 -21.5q-85 0 -134 41.5t-49 113.5q0 66 46 106t148 40h160v28q0 66 -34.5 97.5t-93.5 31.5q-58 0 -92 -26t-37 -71h-79q3 59 37.5 98.5t91.5 55.5q-30 32 -30 78q0 49 33 80
t81 31t80.5 -31t32.5 -80q0 -48 -31 -79q59 -19 91.5 -66t32.5 -118v-217q0 -24 7.5 -31.5t29.5 -7.5zM275 641q-24 0 -40 -16.5t-16 -41.5t16 -41.5t40 -16.5q25 0 41 16.5t16 41.5t-16 41.5t-41 16.5zM398 207v23h-152q-117 0 -117 -84q0 -43 30.5 -65.5t81.5 -22.5
q67 0 112 38t45 111z" />
    <glyph glyph-name="AEacute" unicode="&#x1fc;" horiz-adv-x="986" 
d="M628 778l79 131h90l-94 -131h-75zM2 0l445 706h483v-79h-360v-233h274v-77h-274v-238h378v-79h-461v177h-273l-111 -177h-101zM259 252h228v361z" />
    <glyph glyph-name="aeacute" unicode="&#x1fd;" horiz-adv-x="946" 
d="M584 704l-94 -131h-75l79 131h90zM894 263v-36h-409q2 -81 48 -124t116 -43q53 0 93.5 25.5t58.5 73.5h84q-21 -77 -83.5 -122.5t-150.5 -45.5q-147 0 -211 113q-29 -58 -83.5 -86t-121.5 -28q-88 0 -139.5 39.5t-51.5 109.5q0 146 194 146h162v35q0 66 -35.5 97.5
t-92.5 31.5q-60 0 -95 -28t-38 -74h-75q4 79 60.5 124t145.5 45q131 0 180 -98q65 98 199 98q110 0 177.5 -69.5t67.5 -183.5zM484 288h326q-4 76 -49.5 118.5t-113.5 42.5t-113.5 -42.5t-49.5 -118.5zM400 208v16h-154q-117 0 -117 -83t115 -83q67 0 111.5 38t44.5 112z
" />
    <glyph glyph-name="Oslashacute" unicode="&#x1fe;" horiz-adv-x="773" 
d="M519 892l-94 -131h-75l79 131h90zM616 628q107 -102 107 -277q0 -160 -93 -260t-243 -100q-97 0 -173 45l-29 -43h-80l56 82q-110 101 -110 276q0 160 93.5 262.5t242.5 102.5q100 0 176 -48l30 44h80zM139 351q0 -129 69 -206l310 456q-58 36 -131 36q-114 0 -181 -79
t-67 -207zM387 70q114 0 180.5 77t66.5 204q0 129 -66 206l-308 -454q55 -33 127 -33z" />
    <glyph glyph-name="Scommaaccent" unicode="&#x218;" horiz-adv-x="605" 
d="M376 388q188 -34 188 -197q0 -92 -74.5 -146.5t-188.5 -54.5q-123 0 -195.5 56t-72.5 148h90q0 -59 47 -93.5t134 -34.5q72 0 121 33.5t49 91.5q0 51 -31.5 78.5t-94.5 38.5l-116 22q-91 16 -137.5 65t-46.5 125q0 88 69.5 142t181.5 54q113 0 183 -54t70 -150h-89
q0 61 -44 95t-124 34q-68 0 -113 -31t-45 -87q0 -49 30 -75.5t93 -38.5zM251 -144v89h92v-89l-35 -85h-53l36 85h-40z" />
    <glyph glyph-name="scommaaccent" unicode="&#x219;" horiz-adv-x="511" 
d="M328 282q136 -22 136 -137q0 -73 -58.5 -114t-148.5 -41q-99 0 -157 43t-60 116h83q1 -45 37 -70t95 -25q58 0 92 22.5t34 61.5q0 34 -19.5 52.5t-63.5 24.5l-105 17q-140 23 -140 138q0 66 55.5 106t140.5 40q91 0 148 -42t58 -116h-81q-1 45 -35 69.5t-89 24.5
q-53 0 -84.5 -21.5t-31.5 -58.5q0 -32 21.5 -49t69.5 -24zM209 -142v89h92v-89l-35 -85h-53l36 85h-40z" />
    <glyph glyph-name="uni021A" unicode="&#x21a;" horiz-adv-x="613" 
d="M23 706h567v-79h-241v-627h-85v627h-241v79zM260 -134v89h92v-89l-35 -85h-53l36 85h-40z" />
    <glyph glyph-name="uni021B" unicode="&#x21b;" horiz-adv-x="341" 
d="M302 432h-119v-294q0 -64 61 -64h57v-74h-76q-58 0 -91 32t-33 95v305h-91v74h48q24 0 33.5 10.5t9.5 34.5v87h82v-132h119v-74zM162 -134v89h92v-89l-35 -85h-53l36 85h-40z" />
    <glyph glyph-name="uni0237" unicode="&#x237;" horiz-adv-x="235" 
d="M163 -65q0 -66 -34 -100.5t-96 -34.5h-65v74h54q59 0 59 63v569h82v-571z" />
    <glyph glyph-name="uni02BB" unicode="&#x2bb;" horiz-adv-x="149" 
d="M81 694h40v-89h-92v89l35 85h53z" />
    <glyph glyph-name="uni02BC" unicode="&#x2bc;" horiz-adv-x="267" 
d="M244 736l-45 -176h-55l18 176h82z" />
    <glyph glyph-name="circumflex" unicode="&#x2c6;" horiz-adv-x="346" 
d="M171 676l57 -76h82l-99 131h-78l-100 -131h80z" />
    <glyph glyph-name="caron" unicode="&#x2c7;" horiz-adv-x="346" 
d="M174 655l-58 76h-81l99 -131h77l100 131h-79z" />
    <glyph glyph-name="breve" unicode="&#x2d8;" horiz-adv-x="308" 
d="M155 600q-59 0 -96.5 36t-36.5 95h64q0 -32 18.5 -50t50.5 -18t50.5 18t18.5 50h64q1 -59 -36.5 -95t-96.5 -36z" />
    <glyph glyph-name="dotaccent" unicode="&#x2d9;" horiz-adv-x="198" 
d="M47 642v95h103v-95h-103z" />
    <glyph glyph-name="ring" unicode="&#x2da;" horiz-adv-x="275" 
d="M24 653q0 49 33 80t81 31t80.5 -31t32.5 -80q0 -50 -32.5 -81t-80.5 -31t-81 31t-33 81zM82 653q0 -25 16 -41.5t40 -16.5q25 0 41 16.5t16 41.5t-16 41.5t-41 16.5q-24 0 -40 -16.5t-16 -41.5z" />
    <glyph glyph-name="ogonek" unicode="&#x2db;" horiz-adv-x="227" 
d="M180 -143q-26 -13 -54 -13q-34 0 -57.5 18t-23.5 49q0 61 83 98l56 -9q-73 -37 -73 -69q0 -28 36 -28q18 0 33 8v-54z" />
    <glyph glyph-name="tilde" unicode="&#x2dc;" horiz-adv-x="332" 
d="M117 721q29 0 67 -19.5t53 -19.5q33 0 35 37h54q1 -49 -20.5 -76.5t-60.5 -27.5q-29 0 -67 19.5t-53 19.5q-33 0 -35 -38h-53q-1 49 20 77t60 28z" />
    <glyph glyph-name="hungarumlaut" unicode="&#x2dd;" horiz-adv-x="354" 
d="M36 600l79 131h89l-95 -131h-73zM163 600l99 131h89l-115 -131h-73z" />
    <glyph glyph-name="uni0326" unicode="&#x326;" horiz-adv-x="0" 
d="M-166 -14h92v-89l-35 -85h-53l36 85h-40v89z" />
    <glyph glyph-name="uni0335" unicode="&#x335;" horiz-adv-x="0" 
d="M-304 317h302v-70h-302v70z" />
    <glyph glyph-name="uni0336" unicode="&#x336;" horiz-adv-x="0" 
d="M-596 316h510v-69h-510v69z" />
    <glyph glyph-name="uni0337" unicode="&#x337;" horiz-adv-x="0" 
d="M-459 -26l409 556h75l-408 -556h-76z" />
    <glyph glyph-name="uni0338" unicode="&#x338;" horiz-adv-x="0" 
d="M-553 -7l457 719h80l-457 -719h-80z" />
    <glyph glyph-name="pi" unicode="&#x3c0;" horiz-adv-x="685" 
d="M627 438h-107v-312q0 -44 46 -44h61v-82h-68q-58 0 -89.5 31t-31.5 88v319h-199v-438h-83v438h-98v78h569v-78z" />
    <glyph glyph-name="Wgrave" unicode="&#x1e80;" horiz-adv-x="977" 
d="M527 759h-74l-95 131h90zM217 0l-200 706h89l163 -592l173 592h93l171 -595l166 595h88l-205 -706h-97l-172 582l-172 -582h-97z" />
    <glyph glyph-name="wgrave" unicode="&#x1e81;" horiz-adv-x="784" 
d="M431 575h-74l-95 131h90zM107 506l113 -415l132 415h85l131 -415l110 415h86l-146 -506h-94l-131 408l-131 -408h-94l-149 506h88z" />
    <glyph glyph-name="Wacute" unicode="&#x1e82;" horiz-adv-x="977" 
d="M452 759l79 131h90l-94 -131h-75zM217 0l-200 706h89l163 -592l173 592h93l171 -595l166 595h88l-205 -706h-97l-172 582l-172 -582h-97z" />
    <glyph glyph-name="wacute" unicode="&#x1e83;" horiz-adv-x="784" 
d="M357 575l79 131h90l-94 -131h-75zM107 506l113 -415l132 415h85l131 -415l110 415h86l-146 -506h-94l-131 408l-131 -408h-94l-149 506h88z" />
    <glyph glyph-name="Wdieresis" unicode="&#x1e84;" horiz-adv-x="977" 
d="M350 773v91h98v-91h-98zM531 773v91h98v-91h-98zM217 0l-200 706h89l163 -592l173 592h93l171 -595l166 595h88l-205 -706h-97l-172 582l-172 -582h-97z" />
    <glyph glyph-name="wdieresis" unicode="&#x1e85;" horiz-adv-x="784" 
d="M255 589v91h98v-91h-98zM436 589v91h98v-91h-98zM107 506l113 -415l132 415h85l131 -415l110 415h86l-146 -506h-94l-131 408l-131 -408h-94l-149 506h88z" />
    <glyph glyph-name="Ygrave" unicode="&#x1ef2;" horiz-adv-x="634" 
d="M355 759h-74l-95 131h90zM274 241l-262 465h104l202 -374l203 374h102l-264 -465v-241h-85v241z" />
    <glyph glyph-name="ygrave" unicode="&#x1ef3;" horiz-adv-x="516" 
d="M296 575h-74l-95 131h90zM100 506l166 -451l153 452l87 -1l-212 -588q-25 -69 -64.5 -93.5t-100.5 -24.5h-100v74h101q40 0 62 21.5t22 63.5q0 20 -9 44l-194 503h89z" />
    <glyph glyph-name="endash" unicode="&#x2013;" horiz-adv-x="629" 
d="M54 326h522v-79h-522v79z" />
    <glyph glyph-name="emdash" unicode="&#x2014;" horiz-adv-x="1000" 
d="M54 326h892v-79h-892v79z" />
    <glyph glyph-name="quoteleft" unicode="&#x2018;" horiz-adv-x="230" 
d="M56 484v114l59 115h53l-57 -115h61v-114h-116z" />
    <glyph glyph-name="quoteright" unicode="&#x2019;" horiz-adv-x="230" 
d="M62 484l56 114h-60v115h116v-115l-59 -114h-53z" />
    <glyph glyph-name="quotesinglbase" unicode="&#x201a;" horiz-adv-x="230" 
d="M58 0v115h116v-115l-59 -114h-53l56 114h-60z" />
    <glyph glyph-name="quotedblleft" unicode="&#x201c;" horiz-adv-x="399" 
d="M56 484v114l59 115h53l-57 -115h61v-114h-116zM225 484v114l59 115h53l-57 -115h61v-114h-116z" />
    <glyph glyph-name="quotedblright" unicode="&#x201d;" horiz-adv-x="399" 
d="M62 484l56 114h-60v115h116v-115l-59 -114h-53zM231 484l56 114h-60v115h116v-115l-59 -114h-53z" />
    <glyph glyph-name="quotedblbase" unicode="&#x201e;" horiz-adv-x="399" 
d="M58 0v115h116v-115l-59 -114h-53l56 114h-60zM227 0v115h116v-115l-59 -114h-53l56 114h-60z" />
    <glyph glyph-name="dagger" unicode="&#x2020;" horiz-adv-x="472" 
d="M427 540v-76h-153v-363h-76v363h-153v76h153v166h76v-166h153z" />
    <glyph glyph-name="daggerdbl" unicode="&#x2021;" horiz-adv-x="472" 
d="M427 465h-153v-124h153v-76h-153v-164h-76v164h-153v76h153v124h-153v76h153v165h76v-165h153v-76z" />
    <glyph glyph-name="bullet" unicode="&#x2022;" horiz-adv-x="390" 
d="M195 141q-64 0 -109.5 45.5t-45.5 109.5t45.5 109.5t109.5 45.5t109.5 -45.5t45.5 -109.5t-45.5 -109.5t-109.5 -45.5z" />
    <glyph glyph-name="ellipsis" unicode="&#x2026;" horiz-adv-x="650" 
d="M57 0v116h116v-116h-116zM268 0v116h115v-116h-115zM477 0v116h116v-116h-116z" />
    <glyph glyph-name="perthousand" unicode="&#x2030;" horiz-adv-x="1278" 
d="M40 529q0 83 41.5 134.5t114.5 51.5t114 -51t41 -135t-41 -135.5t-114 -51.5t-114.5 51t-41.5 136zM188 0l439 706h86l-440 -706h-85zM276 529q0 119 -80 119q-81 0 -81 -119q0 -120 81 -120q80 0 80 120zM710 -10q-73 0 -114.5 51t-41.5 136q0 84 41.5 135t114.5 51
q72 0 113.5 -51t41.5 -135t-41 -135.5t-114 -51.5zM1083 -10q-73 0 -114.5 50.5t-41.5 136.5q0 84 41.5 135t114.5 51q72 0 113.5 -51t41.5 -135t-41 -135.5t-114 -51.5zM710 57q80 0 80 120q0 119 -80 119q-81 0 -81 -119q0 -120 81 -120zM1083 57q80 0 80 120
q0 119 -80 119q-81 0 -81 -119q0 -120 81 -120z" />
    <glyph glyph-name="guilsinglleft" unicode="&#x2039;" horiz-adv-x="344" 
d="M219 59l-181 224l181 223h91l-181 -223l181 -224h-91z" />
    <glyph glyph-name="guilsinglright" unicode="&#x203a;" horiz-adv-x="344" 
d="M125 506l181 -223l-181 -224h-91l181 224l-181 223h91z" />
    <glyph glyph-name="uni2042" unicode="&#x2042;" horiz-adv-x="660" 
d="M199 596l15 44l52 -17q32 -10 47 -24q-8 17 -8 51v56h48v-56q0 -36 -7 -51q16 15 45 24l53 17l17 -45l-53 -18q-37 -11 -54 -9q20 -12 40 -38l33 -45l-38 -28l-33 44q-21 28 -27 51q-4 -21 -25 -51l-33 -44l-41 28l35 45q20 27 39 38q-20 -3 -54 10zM31 312l15 44l52 -17
q29 -9 47 -24q-9 17 -9 51v56h48v-56q0 -36 -7 -51q19 15 46 24l52 17l17 -45l-53 -18q-32 -12 -53 -10q21 -13 39 -37l34 -45l-39 -28l-32 44q-20 25 -27 51q-5 -24 -26 -51l-32 -44l-41 28l34 45q20 25 40 37q-21 -1 -54 10zM367 312l15 44l53 -17q27 -9 47 -24
q-9 17 -9 51v56h48v-56q0 -36 -7 -51q19 15 46 24l52 17l17 -45l-53 -18q-32 -12 -53 -10q19 -12 39 -37l34 -45l-39 -28l-32 44q-20 25 -27 51q-5 -24 -26 -51l-32 -44l-41 28l34 45q21 27 40 37q-21 -1 -55 10z" />
    <glyph glyph-name="fraction" unicode="&#x2044;" horiz-adv-x="175" 
d="M-172 0l452 706h67l-452 -706h-67z" />
    <glyph glyph-name="Euro" unicode="&#x20ac;" horiz-adv-x="629" 
d="M397 66q94 0 157 55l46 -70q-89 -66 -203 -66q-119 0 -205 67.5t-117 181.5h-64v68h51q-2 32 -2 49q0 26 3 50h-52v68h64q32 113 118 180t204 67q117 0 203 -66l-46 -70q-63 55 -157 55q-83 0 -142 -44t-86 -122h279l-8 -68h-286q-3 -24 -3 -50q0 -25 3 -49h276l-6 -68
h-255q26 -79 85.5 -123.5t142.5 -44.5z" />
    <glyph glyph-name="uni2116" unicode="&#x2116;" horiz-adv-x="1148" 
d="M731 528q0 86 50 137.5t132 51.5t132 -52t50 -137t-50 -137t-132 -52t-132 52t-50 137zM78 0v706h86l401 -568v568h84v-706h-86l-401 568v-568h-84zM801 528q0 -55 30.5 -88t81.5 -33t81.5 33.5t30.5 87.5q0 56 -30.5 89t-81.5 33t-81.5 -33t-30.5 -89zM789 205v68h247
v-68h-247z" />
    <glyph glyph-name="uni2117" unicode="&#x2117;" horiz-adv-x="480" 
d="M440 515q0 -83 -58.5 -141.5t-141.5 -58.5q-82 0 -141 59t-59 141q0 83 59 142t141 59q83 0 141.5 -58.5t58.5 -142.5zM240 673q-66 0 -111 -46t-45 -112q0 -65 45 -110.5t111 -45.5t111.5 45t45.5 111t-45.5 112t-111.5 46zM214 477h47q31 0 52 18t21 51q0 31 -20 50.5
t-52 19.5h-88v-205h40v66zM257 581q16 0 26 -9t10 -25q0 -15 -10 -25t-26 -10h-43v69h43z" />
    <glyph glyph-name="trademark" unicode="&#x2122;" horiz-adv-x="595" 
d="M22 654v52h242v-52h-95v-236h-54v236h-93zM519 706h51v-288h-52v124q0 41 6 61l-73 -185h-44l-74 184q5 -13 5 -59v-125h-51v288h51l90 -221z" />
    <glyph glyph-name="estimated" unicode="&#x212e;" horiz-adv-x="758" 
d="M47 356q1 159 94 259.5t238 100.5q149 0 240 -89t91 -243q2 -27 0 -53h-562v-182q83 -118 244 -118q77 0 142 37t98 97l38 -14q-37 -75 -111.5 -117.5t-168.5 -42.5q-154 0 -249.5 101t-93.5 264zM148 551v-184h462v202q-38 52 -98.5 80t-132.5 27q-73 -1 -133 -34.5
t-98 -90.5z" />
    <glyph glyph-name="oneeighth" unicode="&#x215b;" horiz-adv-x="728" 
d="M109 345v299l-82 -40v60l82 42h61v-361h-61zM520 706h67l-452 -706h-67zM650 197q24 -12 40 -36t16 -52q0 -51 -37 -82.5t-98 -31.5q-60 0 -97 31.5t-37 82.5q0 28 16 52t41 36q-38 25 -38 71q0 42 32.5 70t83.5 28t83.5 -27.5t32.5 -70.5q0 -49 -38 -71zM572 314
q-25 0 -42 -14.5t-17 -34.5q0 -21 17 -35.5t42 -14.5t41.5 14.5t16.5 35.5t-16.5 35t-41.5 14zM572 48q33 0 53.5 17.5t20.5 45.5q0 27 -20.5 43t-53.5 16q-34 0 -54.5 -16t-20.5 -43q0 -28 20.5 -45.5t54.5 -17.5z" />
    <glyph glyph-name="threeeighths" unicode="&#x215c;" horiz-adv-x="787" 
d="M273 446q0 -47 -35.5 -76.5t-88.5 -29.5q-58 0 -91.5 32t-33.5 86h57q-1 -31 19 -48t49 -17t45.5 15.5t16.5 40.5t-16 40t-45 15h-30v51h27q28 0 44 13.5t16 37.5q0 25 -16.5 38.5t-42.5 13.5q-30 0 -49 -17.5t-18 -47.5h-57q0 53 34 85.5t92 32.5q52 0 85.5 -27.5
t33.5 -75.5q0 -56 -46 -79q50 -23 50 -83zM578 706h67l-452 -706h-67zM709 197q24 -12 40 -36t16 -52q0 -51 -37 -82.5t-98 -31.5q-60 0 -97 31.5t-37 82.5q0 28 16 52t41 36q-38 25 -38 71q0 42 32.5 70t83.5 28t83.5 -27.5t32.5 -70.5q0 -49 -38 -71zM631 314
q-25 0 -42 -14.5t-17 -34.5q0 -21 17 -35.5t42 -14.5t41.5 14.5t16.5 35.5t-16.5 35t-41.5 14zM631 48q33 0 53.5 17.5t20.5 45.5q0 27 -20.5 43t-53.5 16q-34 0 -54.5 -16t-20.5 -43q0 -28 20.5 -45.5t54.5 -17.5z" />
    <glyph glyph-name="fiveeighths" unicode="&#x215d;" horiz-adv-x="796" 
d="M285 469q0 -59 -37 -94t-94 -35q-53 0 -89 29.5t-38 82.5h57q2 -27 21 -43.5t48 -16.5q31 0 50.5 21t19.5 55q0 32 -19.5 52.5t-51.5 20.5q-48 0 -64 -39h-59l37 204h198v-53h-148l-16 -79q27 18 64 18q54 0 87.5 -33.5t33.5 -89.5zM587 706h67l-452 -706h-67zM717 197
q24 -12 40 -36t16 -52q0 -51 -37 -82.5t-98 -31.5q-60 0 -97 31.5t-37 82.5q0 28 16 52t41 36q-38 25 -38 71q0 42 32.5 70t83.5 28t83.5 -27.5t32.5 -70.5q0 -49 -38 -71zM639 314q-25 0 -42 -14.5t-17 -34.5q0 -21 17 -35.5t42 -14.5t41.5 14.5t16.5 35.5t-16.5 35
t-41.5 14zM639 48q33 0 53.5 17.5t20.5 45.5q0 27 -20.5 43t-53.5 16q-34 0 -54.5 -16t-20.5 -43q0 -28 20.5 -45.5t54.5 -17.5z" />
    <glyph glyph-name="seveneighths" unicode="&#x215e;" horiz-adv-x="739" 
d="M120 345h-61q10 75 44.5 156.5t83.5 151.5h-177v53h246v-55q-54 -66 -90 -147.5t-46 -158.5zM530 706h67l-452 -706h-67zM660 197q24 -12 40 -36t16 -52q0 -51 -37 -82.5t-98 -31.5q-60 0 -97 31.5t-37 82.5q0 28 16 52t41 36q-38 25 -38 71q0 42 32.5 70t83.5 28
t83.5 -27.5t32.5 -70.5q0 -49 -38 -71zM582 314q-25 0 -42 -14.5t-17 -34.5q0 -21 17 -35.5t42 -14.5t41.5 14.5t16.5 35.5t-16.5 35t-41.5 14zM582 48q33 0 53.5 17.5t20.5 45.5q0 27 -20.5 43t-53.5 16q-34 0 -54.5 -16t-20.5 -43q0 -28 20.5 -45.5t54.5 -17.5z" />
    <glyph glyph-name="uni2160" unicode="&#x2160;" horiz-adv-x="514" 
d="M454 643h-156v-580h156v-63h-394v63h157v580h-157v63h394v-63z" />
    <glyph glyph-name="uni2161" unicode="&#x2161;" horiz-adv-x="815" 
d="M755 0h-695v63h146v580h-146v63h695v-63h-143v-580h143v-63zM530 643h-243v-580h243v580z" />
    <glyph glyph-name="uni2162" unicode="&#x2162;" horiz-adv-x="1136" 
d="M1076 0h-1016v64h145v578h-145v64h1016v-64h-146v-578h146v-64zM287 64h240v578h-240v-578zM848 642h-240v-578h240v578z" />
    <glyph glyph-name="uni2163" unicode="&#x2163;" horiz-adv-x="1125" 
d="M1065 0h-1005v63h150v579h-150v64h1003v-64h-120l-190 -579h312v-63zM291 63h306l-193 579h-113v-579zM856 642h-363l182 -565z" />
    <glyph glyph-name="uni2164" unicode="&#x2164;" horiz-adv-x="868" 
d="M808 642h-100l-195 -580h292v-62h-738v62h292l-194 580h-105v64h748v-64zM620 642h-367l183 -566z" />
    <glyph glyph-name="uni2165" unicode="&#x2165;" horiz-adv-x="1125" 
d="M1065 0h-1005v64h312l-193 578h-119v64h1005v-64h-146v-578h146v-64zM633 642h-366l182 -565zM526 64h312v578h-118z" />
    <glyph glyph-name="uni2166" unicode="&#x2166;" horiz-adv-x="1449" 
d="M1389 0h-1329v64h309l-191 578h-118v64h1328v-64h-157v-578h157zM632 642h-366l180 -565zM523 64h312v578h-116zM1150 642h-234v-578h234v578z" />
    <glyph glyph-name="uni2167" unicode="&#x2167;" horiz-adv-x="1742" 
d="M1682 0h-1622v64h304l-187 578h-117v64h1621v-64h-150v-578h151v-64zM618 642h-353l176 -567zM518 64h311v578h-124zM910 64h230v578h-230v-578zM1221 64h230v578h-230v-578z" />
    <glyph glyph-name="uni2168" unicode="&#x2168;" horiz-adv-x="1082" 
d="M1022 0h-962v62h146v580h-146v64h961v-64h-98l-209 -297l200 -283h108v-62zM400 642h-114v-580h120l204 283zM661 398l170 244h-338zM498 62h320l-158 231z" />
    <glyph glyph-name="uni2169" unicode="&#x2169;" horiz-adv-x="849" 
d="M788 642h-103l-208 -296l199 -284h113v-62h-729v62h109l204 284l-211 296h-102v64h728v-64zM424 397l168 245h-336zM259 62h322l-158 231z" />
    <glyph glyph-name="arrowleft" unicode="&#x2190;" horiz-adv-x="815" 
d="M373 570l45 -45l-238 -237h575v-63h-575l237 -237l-44 -44l-313 313z" />
    <glyph glyph-name="arrowup" unicode="&#x2191;" horiz-adv-x="750" 
d="M60 385l315 310l315 -310l-44 -44l-240 234v-575h-63v576l-239 -235z" />
    <glyph glyph-name="arrowright" unicode="&#x2192;" horiz-adv-x="815" 
d="M442 569l313 -312l-313 -313l-44 45l237 237h-575v63h575l-236 237z" />
    <glyph glyph-name="arrowdown" unicode="&#x2193;" horiz-adv-x="746" 
d="M686 283l-313 -312l-313 312l45 45l237 -237v575h63v-575l237 237z" />
    <glyph glyph-name="arrowboth" unicode="&#x2194;" horiz-adv-x="957" 
d="M677 33v92l99 101l-366 -1v1l-228 -1l101 -102v-91l-223 224l221 224v-92l-98 -100l225 1v1l366 -1l-98 100v91l221 -223z" />
    <glyph glyph-name="arrowupdn" unicode="&#x2195;" horiz-adv-x="567" 
d="M314 -42l102 100h91l-224 -222l-223 222h90l101 -99l-1 226v141l1 225l-101 -99h-90l223 221l224 -221h-91l-102 100v-594z" />
    <glyph glyph-name="uni2196" unicode="&#x2196;" horiz-adv-x="633" 
d="M502 514v-64h-335l406 -406l-44 -45l-407 407v-335h-62v443h442z" />
    <glyph glyph-name="uni2197" unicode="&#x2197;" horiz-adv-x="634" 
d="M132 514h442v-443h-63v336l-407 -407l-44 45l406 406h-334v63z" />
    <glyph glyph-name="uni2198" unicode="&#x2198;" horiz-adv-x="634" 
d="M574 442v-442h-443v63h336l-407 407l45 44l406 -406v334h63z" />
    <glyph glyph-name="uni2199" unicode="&#x2199;" horiz-adv-x="634" 
d="M502 0h-442v443h63v-336l407 407l44 -45l-406 -406h334v-63z" />
    <glyph glyph-name="partialdiff" unicode="&#x2202;" horiz-adv-x="607" 
d="M324 706q108 -67 170 -179.5t62 -236.5q0 -131 -69 -215.5t-197 -84.5q-114 0 -181 69.5t-67 183.5q0 105 66 178.5t179 73.5q49 0 94 -19.5t69 -53.5q-34 99 -98 164.5t-152 119.5h124zM294 63q77 0 122.5 50.5t45.5 129.5q0 80 -46 130t-122 50q-76 -1 -121.5 -51.5
t-45.5 -129.5t45.5 -129t121.5 -50z" />
    <glyph glyph-name="emptyset" unicode="&#x2205;" horiz-adv-x="640" 
d="M588 493l-69 -72q52 -71 52 -168q0 -114 -68.5 -188t-180.5 -74q-93 0 -159 55l-65 -69l-42 36l70 73q-52 69 -52 167q0 113 69 187.5t179 74.5q94 0 159 -54l65 68zM154 252q0 -59 27 -107l246 259q-44 36 -105 36q-74 0 -121 -53t-47 -135zM492 252q0 63 -29 110
l-246 -259q43 -37 105 -37q75 0 122.5 52.5t47.5 133.5z" />
    <glyph glyph-name="product" unicode="&#x220f;" horiz-adv-x="671" 
d="M615 706v-81h-115v-628h-83v628h-164v-628h-83v628h-114v81h559z" />
    <glyph glyph-name="summation" unicode="&#x2211;" horiz-adv-x="592" 
d="M56 -106v77l224 327l-224 331v77h480v-79h-381l221 -330l-222 -323l382 -1v-79h-480z" />
    <glyph glyph-name="minus" unicode="&#x2212;" 
d="M69 370h462v-80h-462v80z" />
    <glyph glyph-name="radical" unicode="&#x221a;" horiz-adv-x="807" 
d="M758 784v-77h-169l-305 -808h-81l-143 380h82l102 -272l292 777h222z" />
    <glyph glyph-name="infinity" unicode="&#x221e;" horiz-adv-x="949" 
d="M246 63q-87 0 -146.5 59t-59.5 144q0 86 60 145.5t146 59.5q51 0 97 -23.5t72 -50t60 -69.5q25 32 44 52.5t48 44t63 35t73 11.5q86 0 145.5 -60t59.5 -145q0 -84 -59 -143.5t-146 -59.5q-51 0 -96.5 23t-72 50t-59.5 70q-51 -67 -103.5 -105t-125.5 -38zM248 141
q44 0 83.5 28t95.5 98q-55 70 -94 98t-85 28q-53 0 -88.5 -37t-35.5 -89q0 -51 36 -88.5t88 -37.5zM701 141q53 0 88.5 37t35.5 89t-35.5 89t-88.5 37q-46 0 -84 -28t-94 -98q55 -70 93.5 -98t84.5 -28z" />
    <glyph glyph-name="integral" unicode="&#x222b;" horiz-adv-x="451" 
d="M313 782h66v-76h-70q-21 0 -35 -14.5t-14 -35.5v-679q0 -66 -36 -103.5t-97 -37.5h-55v76h58q25 0 38.5 14.5t13.5 38.5l-1 683q0 61 37.5 97.5t94.5 36.5z" />
    <glyph glyph-name="approxequal" unicode="&#x2248;" 
d="M319 468q3 -3 12.5 -10.5t12 -9.5t9.5 -7t11 -6.5t10 -4.5t12 -3.5t13 -0.5q24 0 38 19t13 53h70q2 -65 -30.5 -106t-87.5 -41q-12 0 -23.5 1.5t-22 5.5t-17 7t-17.5 10.5t-14.5 10t-15 12t-13.5 11.5t-11 10t-11.5 9.5t-10 7.5t-11 7.5t-10 4.5t-12.5 4t-13 1
q-24 0 -38 -19t-13 -53h-70q-2 65 30.5 106t86.5 41q13 0 24 -1.5t22.5 -6.5t18 -7.5t17.5 -11t14 -10.5t14.5 -12t12.5 -11zM319 244q3 -3 12.5 -10.5t12 -9.5t9.5 -7t11 -6.5t10 -4.5t12 -3.5t13 -0.5q24 0 38 19t13 53h70q2 -65 -30.5 -106t-87.5 -41q-12 0 -23.5 1.5
t-22 5.5t-17 7t-17.5 10.5t-14.5 10t-15 12t-13.5 11.5t-11 10t-11.5 9.5t-10 7.5t-11 7.5t-10 4.5t-12.5 4t-13 1q-24 0 -38 -19t-13 -53h-70q-2 65 30.5 106t86.5 41q13 0 24 -1.5t22.5 -6.5t18 -7.5t17.5 -11t14 -10.5t14.5 -12t12.5 -11z" />
    <glyph glyph-name="notequal" unicode="&#x2260;" 
d="M498 400h-132l-60 -138h190v-76h-223l-44 -102h-69l44 102h-101v76h134l60 138h-192v76h225l43 99h69l-43 -99h99v-76z" />
    <glyph glyph-name="lessequal" unicode="&#x2264;" 
d="M507 593v-88l-325 -141l325 -140v-86l-407 181v92zM100 79h407v-79h-407v79z" />
    <glyph glyph-name="greaterequal" unicode="&#x2265;" 
d="M93 138v87l325 141l-325 140v87l407 -182v-91zM500 79v-79h-407v79h407z" />
    <glyph glyph-name="filledbox" unicode="&#x25a0;" horiz-adv-x="786" 
d="M40 706h705v-705h-705v705z" />
    <glyph glyph-name="uni25A1" unicode="&#x25a1;" horiz-adv-x="787" 
d="M40 706h706v-706h-706v706zM100 647v-588h587v588h-587z" />
    <glyph glyph-name="triagup" unicode="&#x25b2;" horiz-adv-x="939" 
d="M40 0h859l-430 709z" />
    <glyph glyph-name="uni25B3" unicode="&#x25b3;" horiz-adv-x="935" 
d="M40 0l427 706l428 -706h-855zM143 58h648l-324 536z" />
    <glyph glyph-name="lozenge" unicode="&#x25ca;" horiz-adv-x="593" 
d="M257 0l-217 352l217 354h79l216 -354l-216 -352h-79zM483 352l-187 306l-186 -306l186 -303z" />
    <glyph glyph-name="circle" unicode="&#x25cb;" horiz-adv-x="810" 
d="M404 -10q-151 0 -257.5 107t-106.5 258t107 257.5t257 106.5q151 0 258.5 -106.5t107.5 -257.5t-107.5 -258t-258.5 -107zM405 49q126 0 216 89.5t90 216.5t-90 216.5t-216 89.5q-127 0 -216.5 -89.5t-89.5 -216.5t89.5 -216.5t216.5 -89.5z" />
    <glyph glyph-name="uni25CF" unicode="&#x25cf;" horiz-adv-x="816" 
d="M409 -19q-153 0 -261 107.5t-108 260.5q0 152 108 259.5t261 107.5q152 0 259.5 -107.5t107.5 -259.5q0 -153 -107.5 -260.5t-259.5 -107.5z" />
    <glyph glyph-name="uni262E" unicode="&#x262e;" horiz-adv-x="810" 
d="M404 -11q-151 0 -258 107t-107 259q0 151 107 258t258 107q152 0 259.5 -107t107.5 -258t-108 -258.5t-259 -107.5zM125 226l249 153v282q-117 -11 -197 -99t-80 -207q0 -67 28 -129zM685 227q28 61 28 128q0 119 -79.5 206.5t-196.5 98.5v-281zM374 48v258l-217 -135
q38 -51 94.5 -83.5t122.5 -39.5zM437 48q66 7 122 40t94 84l-216 133v-257z" />
    <glyph glyph-name="uni2713" unicode="&#x2713;" horiz-adv-x="767" 
d="M662 524l42 -42l-419 -410l-205 227l45 43l161 -180z" />
    <glyph glyph-name="uniA7B6" unicode="&#xa7b6;" horiz-adv-x="781" 
d="M568 77h168v-77h-272v74q161 131 161 314q0 112 -62.5 178.5t-171.5 66.5t-171.5 -66t-62.5 -179q0 -184 160 -314v-74h-272v77h168q-146 132 -146 317q0 145 88 233.5t236 88.5t235.5 -88.5t87.5 -233.5q0 -185 -146 -317z" />
    <glyph glyph-name="i.loclTRK" horiz-adv-x="225" 
d="M61 616v95h103v-95h-103zM71 0v506h82v-506h-82z" />
    <glyph glyph-name="f_f_t" horiz-adv-x="986" 
d="M946 432h-119v-294q0 -31 13.5 -47.5t48.5 -16.5h56v-74h-75q-58 0 -91.5 32t-33.5 95v305h-234v-432h-83v432h-238v-432h-83v432h-87v74h87v97q0 69 34.5 101.5t104.5 32.5h69v-72h-62q-37 0 -50 -16.5t-13 -49.5v-93h238v97q0 69 34.5 101.5t105.5 32.5h66v-72h-59
q-37 0 -50.5 -16.5t-13.5 -49.5v-93h190q24 0 34 10.5t10 34.5v87h82v-132h119v-74z" />
    <glyph glyph-name="f_t" horiz-adv-x="664" 
d="M625 432h-119v-294q0 -64 61 -64h57v-74h-76q-58 0 -91 32t-33 95v305h-234v-432h-83v432h-87v74h87v97q0 69 34.5 101.5t104.5 32.5h69v-72h-62q-37 0 -50 -16.5t-13 -49.5v-93h191q24 0 33.5 10.5t9.5 34.5v87h82v-132h119v-74z" />
    <glyph glyph-name="t_t" horiz-adv-x="660" 
d="M621 430h-119v-287q0 -63 61 -63h58l-1 -80h-76q-57 0 -91 34t-34 93v303h-236v-287q0 -63 62 -63h57v-80h-76q-57 0 -91 34t-34 93v303h-90v76h44q46 0 46 49v91h82v-140h190q46 0 46 49v91h83v-140h119v-76z" />
    <glyph glyph-name="zero.tf" horiz-adv-x="650" 
d="M324 716q127 0 197.5 -98t70.5 -265t-70.5 -265t-197.5 -98t-196.5 98t-69.5 265t69.5 265t196.5 98zM324 643q-88 0 -134 -77.5t-46 -212.5q0 -118 34 -190l260 430q-44 50 -114 50zM324 62q88 0 134.5 78t46.5 213q0 117 -34 188l-260 -430q44 -49 113 -49z" />
    <glyph glyph-name="one.tf" horiz-adv-x="650" 
d="M394 81h185v-81h-462v81h193v537l-192 -84v86l192 86h84v-625z" />
    <glyph glyph-name="two.tf" horiz-adv-x="650" 
d="M206 81h353v-81h-467v77l270 252q58 54 82 93t25 82q0 64 -37.5 99.5t-107.5 35.5q-62 0 -103.5 -38t-44.5 -97h-86q6 97 73.5 154.5t160.5 57.5q103 0 168 -54.5t65 -151.5q0 -62 -33 -114t-100 -114z" />
    <glyph glyph-name="three.tf" horiz-adv-x="650" 
d="M442 365q61 -18 94.5 -64.5t33.5 -108.5q0 -93 -66.5 -147.5t-178.5 -54.5q-113 0 -179 58.5t-66 155.5h86q0 -66 41.5 -103t115.5 -37q73 0 115.5 35.5t42.5 95.5q0 61 -42 96t-116 35h-52v74h49q70 0 107 33t37 90q0 56 -38 88t-104 32q-73 0 -114.5 -37.5
t-41.5 -103.5h-85q0 97 65.5 155.5t177.5 58.5q103 0 165.5 -51t62.5 -139q0 -53 -28 -96t-82 -65z" />
    <glyph glyph-name="four.tf" horiz-adv-x="650" 
d="M403 0v146h-345v75l336 485h94v-483h104v-77h-104v-146h-85zM150 223h253v365z" />
    <glyph glyph-name="five.tf" horiz-adv-x="650" 
d="M333 476q105 0 170 -66.5t65 -174.5q0 -113 -68.5 -179t-177.5 -66q-97 0 -165 54t-75 145h85q7 -59 49 -92t105 -33q73 0 116.5 47t43.5 124q0 76 -43.5 122.5t-114.5 46.5q-49 0 -86 -22.5t-57 -58.5h-86l68 383h377v-77h-313l-39 -205q52 52 146 52z" />
    <glyph glyph-name="six.tf" horiz-adv-x="650" 
d="M339 487q103 0 172 -66t69 -180q0 -113 -69 -182t-177 -69q-119 0 -192.5 87t-73.5 265q0 174 74.5 274t209.5 100q84 0 148.5 -45t81.5 -127h-86q-37 97 -152 97q-91 0 -138 -66.5t-51 -183.5q24 45 73 70.5t111 25.5zM334 66q75 0 118.5 49.5t43.5 124.5
q0 76 -43.5 124.5t-119.5 48.5q-74 0 -120.5 -47t-46.5 -123t46.5 -126.5t121.5 -50.5z" />
    <glyph glyph-name="seven.tf" horiz-adv-x="650" 
d="M459 628h-369v78h470v-73q-105 -139 -179 -308.5t-98 -324.5h-85q26 159 96.5 327.5t164.5 300.5z" />
    <glyph glyph-name="eight.tf" horiz-adv-x="650" 
d="M468 381q53 -22 85 -72t32 -109q0 -92 -71 -151t-189 -59t-189 58.5t-71 150.5q0 59 32.5 109t85.5 73q-90 50 -90 150q0 84 64 134.5t168 50.5t168 -50.5t64 -134.5q0 -100 -89 -150zM325 648q-68 0 -108.5 -31.5t-40.5 -86.5t40.5 -87.5t108.5 -32.5t108.5 32.5
t40.5 87.5t-40.5 86.5t-108.5 31.5zM325 64q80 0 127.5 37t47.5 100q0 64 -47.5 102t-127.5 38t-127.5 -38t-47.5 -102q0 -63 47.5 -100t127.5 -37z" />
    <glyph glyph-name="nine.tf" horiz-adv-x="650" 
d="M317 716q120 0 192 -91.5t72 -274.5q0 -79 -14.5 -142.5t-45 -113.5t-83 -77t-123.5 -27q-92 0 -154.5 47.5t-78.5 124.5h86q17 -48 56.5 -72.5t91.5 -24.5q90 0 134.5 63t44.5 159q0 18 -1 27q-25 -44 -73.5 -69.5t-109.5 -25.5q-104 0 -173 66.5t-69 180.5
q0 113 69 181.5t179 68.5zM481 463q2 76 -44.5 127t-121.5 51t-118.5 -50t-43.5 -125q0 -76 43.5 -124.5t119.5 -48.5q74 0 119 46.5t46 123.5z" />
    <glyph glyph-name="zero.dnom" horiz-adv-x="347" 
d="M173 366q-71 0 -110 -51t-39 -135t39 -134.5t110 -50.5t110.5 51t39.5 134q0 84 -39.5 135t-110.5 51zM264 180q0 -60 -24 -94t-67 -34t-66 33.5t-23 94.5t23 94.5t66 33.5t67 -34t24 -94z" />
    <glyph glyph-name="one.dnom" horiz-adv-x="216" 
d="M170 0h-61v300l-82 -40v59l82 42h61v-361z" />
    <glyph glyph-name="two.dnom" horiz-adv-x="304" 
d="M216 141l-98 -83h162v-58h-245v57l135 115q45 39 46 76q1 29 -15.5 45.5t-45.5 16.5q-28 0 -46.5 -16.5t-19.5 -43.5h-59q1 54 37.5 85t89.5 31t87.5 -30t35.5 -80q1 -61 -64 -115z" />
    <glyph glyph-name="three.dnom" horiz-adv-x="298" 
d="M223 184q50 -23 50 -83q0 -47 -35.5 -76.5t-88.5 -29.5q-58 0 -91.5 32t-33.5 86h57q-1 -31 18.5 -48t49.5 -17q29 0 45.5 15.5t16.5 39.5q0 25 -16 40.5t-45 15.5h-30v51h27q28 0 44 13t16 37q0 25 -16.5 39t-42.5 14q-30 0 -49 -17.5t-18 -47.5h-57q0 53 34 85.5
t92 32.5q52 0 85.5 -27.5t33.5 -75.5q0 -56 -46 -79z" />
    <glyph glyph-name="four.dnom" horiz-adv-x="321" 
d="M189 0v71h-169v53l168 237h61v-237h54v-53h-54v-71h-60zM85 124h104v151z" />
    <glyph glyph-name="five.dnom" horiz-adv-x="307" 
d="M164 246q54 0 87.5 -33t33.5 -89q0 -59 -37 -94t-94 -35q-53 0 -89 29t-38 82h57q2 -27 21 -43t48 -16q31 0 50.5 21t19.5 54t-19.5 53.5t-51.5 20.5q-48 0 -64 -39h-59l37 204h198v-53h-148l-16 -80q25 18 64 18z" />
    <glyph glyph-name="six.dnom" horiz-adv-x="323" 
d="M173 249q52 0 88.5 -34t36.5 -91q0 -59 -37 -94t-93 -35q-59 0 -99 43t-40 136q0 88 38.5 140t107.5 52q47 0 81.5 -25.5t42.5 -69.5h-60q-15 42 -67 42q-38 1 -58 -26t-22 -73q27 35 81 35zM166 48q33 0 52.5 21.5t19.5 54.5q0 32 -19.5 53t-52.5 21q-32 0 -52 -20
t-20 -53t20 -55t52 -22z" />
    <glyph glyph-name="seven.dnom" horiz-adv-x="266" 
d="M187 308h-177v53h246v-55q-54 -66 -90 -147.5t-46 -158.5h-61q10 75 44.5 156.5t83.5 151.5z" />
    <glyph glyph-name="eight.dnom" horiz-adv-x="313" 
d="M235 197q24 -12 40 -36t16 -52q0 -51 -37 -82.5t-98 -31.5q-60 0 -97 31.5t-37 82.5q0 28 16 52t41 36q-38 25 -38 71q0 42 32.5 70t83.5 28t83.5 -27.5t32.5 -70.5q0 -49 -38 -71zM157 314q-25 0 -42 -14.5t-17 -34.5q0 -21 17 -35.5t42 -14.5t41.5 14.5t16.5 35.5
t-16.5 35t-41.5 14zM157 48q33 0 53.5 17.5t20.5 45.5q0 27 -20.5 43t-53.5 16q-34 0 -54.5 -16t-20.5 -43q0 -28 20.5 -45.5t54.5 -17.5z" />
    <glyph glyph-name="nine.dnom" horiz-adv-x="324" 
d="M159 366q60 0 98 -44.5t38 -141.5q0 -87 -34 -136t-105 -49q-52 0 -84 25.5t-40 69.5h59q13 -43 65 -43q40 -1 59.5 27.5t17.5 73.5q-27 -37 -82 -37q-52 0 -88.5 34t-36.5 92t38 93.5t95 35.5zM157 163q32 0 52.5 20t20.5 53t-20.5 55t-52.5 22t-52 -21.5t-20 -54.5
t19.5 -53.5t52.5 -20.5z" />
    <glyph glyph-name="zero.numr" horiz-adv-x="347" 
d="M173 711q-71 0 -110.5 -51t-39.5 -134q0 -84 39.5 -135t110.5 -51t111 51t40 135q0 83 -40 134t-111 51zM264 526q0 -61 -24 -96t-67 -35t-66 34.5t-23 96.5q0 60 23 94.5t66 34.5t67 -34.5t24 -94.5z" />
    <glyph glyph-name="one.numr" horiz-adv-x="216" 
d="M170 345h-61v299l-82 -40v60l82 42h61v-361z" />
    <glyph glyph-name="two.numr" horiz-adv-x="304" 
d="M216 486l-98 -83h162v-58h-245v57l135 116q45 40 46 76q1 28 -15.5 44.5t-45.5 16.5q-28 0 -46.5 -16.5t-19.5 -43.5h-59q1 54 37.5 85t89.5 31t87.5 -30t35.5 -80q1 -61 -64 -115z" />
    <glyph glyph-name="three.numr" horiz-adv-x="298" 
d="M223 529q50 -23 50 -83q0 -47 -35.5 -76.5t-88.5 -29.5q-58 0 -91.5 32t-33.5 86h57q-1 -31 19 -48t49 -17t45.5 15.5t16.5 40.5t-16 40t-45 15h-30v51h27q28 0 44 13.5t16 37.5q0 25 -16.5 38.5t-42.5 13.5q-30 0 -49 -17.5t-18 -47.5h-57q0 53 34 85.5t92 32.5
q52 0 85.5 -27.5t33.5 -75.5q0 -56 -46 -79z" />
    <glyph glyph-name="four.numr" horiz-adv-x="321" 
d="M189 345v71h-169v53l168 237h61v-237h54v-53h-54v-71h-60zM85 469h104v152z" />
    <glyph glyph-name="five.numr" horiz-adv-x="307" 
d="M164 592q54 0 87.5 -33.5t33.5 -89.5q0 -59 -37 -94t-94 -35q-53 0 -89 29.5t-38 82.5h57q2 -27 21 -43.5t48 -16.5q31 0 50.5 21t19.5 55q0 32 -19.5 52.5t-51.5 20.5q-48 0 -64 -39h-59l37 204h198v-53h-148l-16 -79q27 18 64 18z" />
    <glyph glyph-name="six.numr" horiz-adv-x="323" 
d="M173 595q51 0 86.5 -34t35.5 -92q0 -59 -36 -94t-91 -35q-59 0 -99 43.5t-40 135.5q0 89 38.5 140.5t107.5 51.5q48 0 82 -25t42 -70h-60q-14 42 -67 42q-39 1 -59.5 -26.5t-21.5 -73.5q26 37 82 37zM166 393q33 0 52.5 21.5t19.5 54.5t-19.5 53.5t-52.5 20.5
q-32 0 -52 -20t-20 -53t20 -55t52 -22z" />
    <glyph glyph-name="seven.numr" horiz-adv-x="266" 
d="M187 653h-177v53h246v-55q-54 -66 -90 -147.5t-46 -158.5h-61q10 75 44.5 156.5t83.5 151.5z" />
    <glyph glyph-name="eight.numr" horiz-adv-x="313" 
d="M235 542q24 -12 40 -35.5t16 -52.5q0 -50 -37 -82t-98 -32q-60 0 -97 31.5t-37 82.5q0 29 16.5 53t41.5 35q-39 25 -39 71q0 42 32.5 70t83.5 28t83.5 -27.5t32.5 -70.5q0 -47 -38 -71zM157 661q-25 0 -42 -14.5t-17 -35.5t17 -36t42 -15t41.5 15t16.5 36t-16.5 35.5
t-41.5 14.5zM157 393q33 0 53.5 17.5t20.5 45.5q0 27 -20.5 43t-53.5 16q-34 0 -54.5 -16t-20.5 -43q0 -28 20.5 -45.5t54.5 -17.5z" />
    <glyph glyph-name="nine.numr" horiz-adv-x="324" 
d="M159 711q60 0 98 -44.5t38 -141.5q0 -87 -34 -136t-105 -49q-51 0 -83.5 26t-40.5 69h59q13 -43 65 -43q40 -1 59.5 28t17.5 74q-27 -37 -82 -37q-51 0 -87 33.5t-36 91.5q0 59 37 94t94 35zM157 508q32 0 52.5 20t20.5 53t-20.5 55t-52.5 22t-52 -21.5t-20 -54.5
q0 -32 20 -53t52 -21z" />
    </font>
</defs>
</svg>
