<?xml version="1.0" standalone="no"?>
<!DOCTYPE svg PUBLIC "-//W3C//DTD SVG 1.1//EN" "http://www.w3.org/Graphics/SVG/1.1/DTD/svg11.dtd" >
<svg xmlns="http://www.w3.org/2000/svg" xmlns:xlink="http://www.w3.org/1999/xlink" version="1.1">
<metadata>
Created by FontForge 20200427 at Mon Oct 21 23:44:17 2013
 By www
Copyright (c) 2013 by Nico Inosanto. All rights reserved.
</metadata>
<defs>
<font id="Radikal-Bold" horiz-adv-x="592" >
  <font-face 
    font-family="Radikal"
    font-weight="700"
    font-stretch="normal"
    units-per-em="1000"
    panose-1="0 0 0 0 0 0 0 0 0 0"
    ascent="750"
    descent="-250"
    x-height="507"
    cap-height="735"
    bbox="-179 -329 1284 1097"
    underline-thickness="50"
    underline-position="-150"
    unicode-range="U+0020-FB01"
  />
<missing-glyph horiz-adv-x="589" 
d="M58 700h472v-700h-472v700zM437 635h-288l144 -229zM466 561l-137 -215l137 -215v430zM293 286l-141 -221h281zM123 556v-420l132 210z" />
    <glyph glyph-name="fi" unicode="fi" horiz-adv-x="669" 
d="M306 760q57 0 93 -18l-38 -123q-18 13 -48 13q-29 0 -45.5 -19.5t-16.5 -53.5v-52h114v-124h-114v-383h-147v383h-88v124h88v47q0 91 55 148.5t147 57.5zM600 507v-507h-147v507h147zM527 753q37 0 61.5 -24.5t24.5 -61.5t-24.5 -61.5t-61.5 -24.5t-61.5 24.5t-24.5 61.5
t24.5 61.5t61.5 24.5z" />
    <glyph glyph-name="f_j" unicode="fj" horiz-adv-x="669" 
d="M306 760q57 0 93 -18l-38 -123q-18 13 -48 13q-29 0 -45.5 -19.5t-16.5 -53.5v-52h114v-124h-114v-383h-147v383h-88v124h88v47q0 91 55 148.5t147 57.5zM600 507v-535q0 -91 -61 -151.5t-155 -60.5q-108 0 -177 72l95 98q36 -42 79 -42q33 0 52.5 19.5t19.5 53.5v546
h147zM527 753q37 0 61.5 -24.5t24.5 -61.5t-24.5 -61.5t-61.5 -24.5t-61.5 24.5t-24.5 61.5t24.5 61.5t61.5 24.5z" />
    <glyph glyph-name=".notdef" horiz-adv-x="589" 
d="M58 700h472v-700h-472v700zM437 635h-288l144 -229zM466 561l-137 -215l137 -215v430zM293 286l-141 -221h281zM123 556v-420l132 210z" />
    <glyph glyph-name=".null" horiz-adv-x="0" 
 />
    <glyph glyph-name="nonmarkingreturn" horiz-adv-x="333" 
 />
    <glyph glyph-name="space" unicode=" " horiz-adv-x="227" 
 />
    <glyph glyph-name="exclam" unicode="!" horiz-adv-x="294" 
d="M220 735v-509h-147v509h147zM147 159q38 0 62.5 -24.5t24.5 -61.5t-24.5 -61.5t-62.5 -24.5q-37 0 -61.5 24.5t-24.5 61.5t24.5 61.5t61.5 24.5z" />
    <glyph glyph-name="quotedbl" unicode="&#x22;" horiz-adv-x="376" 
d="M50 755l134 -24l-64 -276h-55zM237 755l134 -24l-64 -276h-55z" />
    <glyph glyph-name="numbersign" unicode="#" horiz-adv-x="707" 
d="M618 735l-33 -180h104v-118h-124l-26 -141h103v-119h-123l-31 -177h-147l31 177h-119l-30 -177h-149l33 177h-106v119h126l26 141h-105v118h124l32 180h147l-32 -180h119l32 180h148zM418 437h-120l-24 -141h119z" />
    <glyph glyph-name="dollar" unicode="$" horiz-adv-x="596" 
d="M368 869v-126q110 -17 183 -72l-79 -126q-80 64 -179 64q-105 0 -105 -80q0 -32 28.5 -50.5t109.5 -33.5q138 -29 194 -81.5t56 -140.5q0 -91 -55 -152.5t-153 -77.5v-122h-121v119q-143 14 -234 95l83 127q37 -39 94 -62.5t113 -23.5q58 0 89.5 21.5t31.5 61.5
q0 33 -31 53t-111 35q-136 29 -191.5 84t-55.5 141q0 89 57 149.5t155 73.5v124h121z" />
    <glyph glyph-name="percent" unicode="%" horiz-adv-x="900" 
d="M757 735l-473 -735h-140l473 735h140zM211 747q80 0 132.5 -53.5t52.5 -134.5t-52.5 -133.5t-132.5 -52.5q-81 0 -134 52.5t-53 133.5t53 134.5t134 53.5zM211 643q-34 0 -55 -23.5t-21 -60.5q0 -36 21.5 -59t54.5 -23q32 0 53.5 23.5t21.5 58.5q0 37 -21.5 60.5
t-53.5 23.5zM690 361q80 0 133 -53.5t53 -134.5t-53 -133.5t-133 -52.5q-81 0 -133.5 52.5t-52.5 133.5t52.5 134.5t133.5 53.5zM690 257q-34 0 -55 -23.5t-21 -60.5q0 -36 21.5 -59t54.5 -23q32 0 54 23.5t22 58.5q0 36 -22 60t-54 24z" />
    <glyph glyph-name="ampersand" unicode="&#x26;" horiz-adv-x="709" 
d="M293 748q91 0 146.5 -48.5t55.5 -125.5q0 -33 -10 -60t-34.5 -51t-39.5 -35t-49 -34l109 -122l72 94h168l-145 -198l151 -168h-187l-57 64q-89 -74 -207 -74q-101 0 -171.5 55.5t-70.5 150.5q0 70 34.5 114.5t112.5 93.5q-80 91 -80 169q0 77 55.5 126t146.5 49zM275 117
q59 0 109 48l-135 154q-39 -26 -57 -51t-18 -60q0 -42 28 -66.5t73 -24.5zM229 566q0 -38 55 -91q28 17 41 27.5t23.5 27t10.5 37.5q0 29 -17.5 45.5t-46.5 16.5t-47.5 -17t-18.5 -46z" />
    <glyph glyph-name="quotesingle" unicode="'" horiz-adv-x="188" 
d="M50 755l134 -24l-64 -276h-55z" />
    <glyph glyph-name="parenleft" unicode="(" horiz-adv-x="322" 
d="M193 710l112 -78q-59 -74 -92 -152t-33 -191t33 -191t92 -152l-112 -78q-151 189 -151 421t151 421z" />
    <glyph glyph-name="parenright" unicode=")" horiz-adv-x="322" 
d="M129 710q151 -189 151 -421t-151 -421l-112 78q59 72 92 150.5t33 192.5t-33 192.5t-92 150.5z" />
    <glyph glyph-name="asterisk" unicode="*" horiz-adv-x="432" 
d="M268 734l-7 -123l115 45l32 -97l-120 -32l77 -94l-82 -60l-66 96l-67 -96l-82 60l77 94l-120 32l32 97l115 -45l-7 123h103z" />
    <glyph glyph-name="plus" unicode="+" horiz-adv-x="512" 
d="M322 570v-153h154v-134h-154v-154h-134v154h-152v134h152v153h134z" />
    <glyph glyph-name="comma" unicode="," horiz-adv-x="211" 
d="M82 169q39 0 65 -26t26 -65q0 -29 -18 -56l-104 -177h-4v317q21 7 35 7z" />
    <glyph glyph-name="hyphen" unicode="-" horiz-adv-x="431" 
d="M393 326v-135h-356v135h356z" />
    <glyph glyph-name="period" unicode="." horiz-adv-x="254" 
d="M127 171q39 0 65 -25.5t26 -64.5q0 -40 -26 -65.5t-65 -25.5q-40 0 -65.5 25.5t-25.5 65.5q0 39 25.5 64.5t65.5 25.5z" />
    <glyph glyph-name="slash" unicode="/" horiz-adv-x="522" 
d="M517 735l-363 -735h-149l364 735h148z" />
    <glyph glyph-name="zero" unicode="0" horiz-adv-x="595" 
d="M298 748q124 0 194.5 -102.5t70.5 -277.5q0 -176 -70.5 -278.5t-194.5 -102.5t-195 102.5t-71 278.5q0 175 71 277.5t195 102.5zM298 618q-59 0 -87.5 -66.5t-28.5 -183.5q0 -118 28.5 -184.5t87.5 -66.5q58 0 86.5 66.5t28.5 184.5q0 117 -28.5 183.5t-86.5 66.5z" />
    <glyph glyph-name="one" unicode="1" horiz-adv-x="397" 
d="M325 748v-748h-147v502l-108 -57l-60 135l311 168h4z" />
    <glyph glyph-name="two" unicode="2" horiz-adv-x="534" 
d="M257 748q109 0 176 -65t67 -167q0 -58 -20 -106t-61 -104l-128 -174h215v-132h-473v6l262 375q32 46 43.5 74.5t11.5 64.5q0 44 -25.5 70t-67.5 26q-84 0 -102 -109l-134 31q40 210 236 210z" />
    <glyph glyph-name="three" unicode="3" horiz-adv-x="524" 
d="M259 748q105 0 170 -63t65 -160q0 -100 -85 -149q100 -47 100 -160q0 -102 -66.5 -165.5t-177.5 -63.5q-199 0 -246 206l133 32q23 -106 112 -106q44 0 70.5 27t26.5 73q0 44 -28.5 71.5t-73.5 27.5h-77v117h78q37 1 62 25t25 65t-25 66t-64 25q-76 0 -97 -90l-128 54
q25 79 83 123.5t143 44.5z" />
    <glyph glyph-name="four" unicode="4" horiz-adv-x="579" 
d="M473 745v-525h83v-112h-83v-108h-147v108h-328v4l471 633h4zM337 395l-131 -178h131v178z" />
    <glyph glyph-name="five" unicode="5" horiz-adv-x="547" 
d="M480 735v-132h-264v-151q30 13 64 13q108 0 176 -61.5t68 -180.5q0 -104 -67 -170t-179 -66q-191 0 -246 165l125 60q19 -93 111 -93q47 0 77 31t30 80t-30 79.5t-78 30.5q-58 0 -99 -37l-100 45v387h412z" />
    <glyph glyph-name="six" unicode="6" horiz-adv-x="562" 
d="M463 735l-160 -254q98 -8 164.5 -77.5t66.5 -169.5q0 -107 -74 -177t-180 -70q-105 0 -178.5 70t-73.5 177q0 85 49 150l220 351h166zM280 352q-44 0 -73 -32.5t-29 -85.5q0 -52 29 -84.5t73 -32.5q45 0 74.5 32.5t29.5 84.5q0 53 -29.5 85.5t-74.5 32.5z" />
    <glyph glyph-name="seven" unicode="7" horiz-adv-x="548" 
d="M545 735v-6l-354 -729h-159l295 601h-303v134h521z" />
    <glyph glyph-name="eight" unicode="8" horiz-adv-x="562" 
d="M279 748q95 0 161 -59.5t66 -149.5q0 -95 -78 -151q48 -28 76.5 -73t28.5 -98q0 -100 -74 -165t-180 -65q-105 0 -178.5 65t-73.5 165q0 53 27.5 98t74.5 72q-76 55 -76 152q0 90 66 149.5t160 59.5zM279 318q-44 0 -73 -29t-29 -74q0 -44 29 -73t73 -29t74 29t30 73
q0 45 -29.5 74t-74.5 29zM279 623q-38 0 -64 -26t-26 -65q0 -40 26 -66.5t64 -26.5t64 26.5t26 66.5q0 39 -26 65t-64 26z" />
    <glyph glyph-name="nine" unicode="9" horiz-adv-x="562" 
d="M282 748q105 0 178.5 -70t73.5 -177q0 -84 -50 -150l-219 -351h-166l160 254q-98 8 -164.5 77t-66.5 170q0 107 74 177t180 70zM282 618q-45 0 -74.5 -32.5t-29.5 -84.5q0 -53 29.5 -85.5t74.5 -32.5q44 0 73 32.5t29 85.5q0 52 -29 84.5t-73 32.5z" />
    <glyph glyph-name="colon" unicode=":" horiz-adv-x="243" 
d="M122 161q37 0 61 -24.5t24 -61.5t-24 -61t-61 -24t-61.5 24t-24.5 61t24 61.5t62 24.5zM122 517q37 0 61 -24.5t24 -61.5t-24 -61t-61 -24t-61.5 24t-24.5 61t24 61.5t62 24.5z" />
    <glyph glyph-name="semicolon" unicode=";" horiz-adv-x="243" 
d="M94 161q40 0 65.5 -26t25.5 -65q0 -28 -19 -56l-103 -176h-4v316q15 7 35 7zM122 517q37 0 61 -24.5t24 -61.5t-24 -61t-61 -24t-61.5 24t-24.5 61t24 61.5t62 24.5z" />
    <glyph glyph-name="less" unicode="&#x3c;" horiz-adv-x="385" 
d="M368 538l-173 -192l173 -192h-182l-169 190v4l169 190h182z" />
    <glyph glyph-name="equal" unicode="=" horiz-adv-x="512" 
d="M476 283v-134h-440v134h440zM476 548v-135h-440v135h440z" />
    <glyph glyph-name="greater" unicode="&#x3e;" horiz-adv-x="385" 
d="M199 538l169 -190v-4l-169 -190h-182l173 192l-173 192h182z" />
    <glyph glyph-name="question" unicode="?" horiz-adv-x="525" 
d="M256 748q104 0 170.5 -60.5t66.5 -149.5q0 -41 -12.5 -73.5t-30.5 -51t-40 -37t-40 -33.5t-30.5 -38.5t-12.5 -52.5v-26h-147v46q0 45 16.5 79t40 54.5t47 38t40 40.5t16.5 52q0 38 -24.5 59t-61.5 21q-38 0 -62 -23t-29 -61l-145 24q19 92 79.5 142t158.5 50zM254 159
q38 0 62.5 -24.5t24.5 -61.5t-24.5 -61.5t-62.5 -24.5t-62 24.5t-24 61.5t24 61.5t62 24.5z" />
    <glyph glyph-name="at" unicode="@" horiz-adv-x="878" 
d="M438 648q184 0 298.5 -110.5t114.5 -287.5q0 -102 -49 -165t-134 -63q-46 0 -78.5 18t-45.5 45l-2 4q-53 -67 -137 -67q-83 0 -135 61.5t-52 156.5q0 96 52 157.5t135 61.5q84 0 124 -54l6 46h111v-295q0 -43 38 -43q34 0 52.5 37t18.5 100q0 138 -86 223.5t-231 85.5
q-139 0 -227 -89.5t-88 -228.5t85.5 -227.5t221.5 -88.5q69 0 129 24l24 -84q-70 -29 -153 -29q-176 0 -289.5 114t-113.5 291t115.5 292t295.5 115zM436 353q-42 0 -68 -30.5t-26 -82.5q0 -51 26 -81.5t68 -30.5q52 0 87 51v123q-34 51 -87 51z" />
    <glyph glyph-name="A" unicode="A" horiz-adv-x="724" 
d="M364 748l355 -748h-168l-48 114h-282l-48 -114h-168l355 748h4zM362 453l-93 -220h186z" />
    <glyph glyph-name="B" unicode="B" horiz-adv-x="676" 
d="M357 735q109 0 171 -53t62 -146q0 -95 -71 -142q131 -45 131 -180q0 -100 -69 -157t-175 -57h-333v735h284zM383 314h-158v-175h162q50 0 79 22.5t29 64.5q0 43 -29 65.5t-83 22.5zM337 596h-112v-161h116q44 0 70 22t26 59q0 38 -26.5 59t-73.5 21z" />
    <glyph glyph-name="C" unicode="C" horiz-adv-x="682" 
d="M407 748q85 0 148 -27t118 -83l-96 -111q-70 82 -170 82t-161.5 -67.5t-61.5 -173.5t61.5 -174t161.5 -68q102 0 172 84l95 -111q-102 -112 -267 -112t-271 108.5t-106 272.5t106 272t271 108z" />
    <glyph glyph-name="D" unicode="D" horiz-adv-x="738" 
d="M307 735q189 0 295.5 -97t106.5 -270q0 -174 -106 -271t-296 -97h-234v735h234zM302 595h-76v-456h76q123 0 187.5 59.5t64.5 168.5q0 110 -64.5 169t-187.5 59z" />
    <glyph glyph-name="E" unicode="E" 
d="M548 735v-139h-322v-159h279v-129h-279v-169h330v-139h-483v735h475z" />
    <glyph glyph-name="F" unicode="F" horiz-adv-x="555" 
d="M533 735v-139h-307v-169h255v-130h-255v-297h-153v735h460z" />
    <glyph glyph-name="G" unicode="G" horiz-adv-x="749" 
d="M407 748q85 0 148 -27t118 -83l-96 -111q-70 82 -170 82t-161.5 -67.5t-61.5 -173.5t64 -174t169 -68q65 0 122 37v119h-159v131h311v-325q-107 -101 -274 -101q-169 0 -278 108.5t-109 272.5t106 272t271 108z" />
    <glyph glyph-name="H" unicode="H" horiz-adv-x="750" 
d="M676 735v-735h-152v307h-298v-307h-153v735h153v-289h298v289h152z" />
    <glyph glyph-name="I" unicode="I" horiz-adv-x="299" 
d="M226 735v-735h-153v735h153z" />
    <glyph glyph-name="J" unicode="J" horiz-adv-x="568" 
d="M505 735v-515q0 -104 -67.5 -168.5t-173.5 -64.5q-103 0 -175 68.5t-72 191.5h148q0 -59 24 -90t70 -31q44 0 69 27.5t25 74.5v507h152z" />
    <glyph glyph-name="K" unicode="K" horiz-adv-x="706" 
d="M649 735l-217 -353l267 -382h-183l-170 246l-157 -246h-116v735h153v-429l244 429h179z" />
    <glyph glyph-name="L" unicode="L" horiz-adv-x="546" 
d="M226 735v-601h313v-134h-466v735h153z" />
    <glyph glyph-name="M" unicode="M" horiz-adv-x="888" 
d="M814 748v-748h-152v309l-214 -319h-8l-214 319v-309h-153v748h4l367 -518l366 518h4z" />
    <glyph glyph-name="N" unicode="N" horiz-adv-x="737" 
d="M664 735v-748h-4l-434 423v-410h-153v748h4l434 -423v410h153z" />
    <glyph glyph-name="O" unicode="O" horiz-adv-x="814" 
d="M407 748q162 0 270 -108.5t108 -273.5q0 -164 -108 -271.5t-270 -107.5q-163 0 -270 107.5t-107 271.5q0 166 107 274t270 108zM407 609q-98 0 -160.5 -68t-62.5 -175q0 -105 62.5 -172.5t160.5 -67.5t160.5 67.5t62.5 172.5q0 107 -62.5 175t-160.5 68z" />
    <glyph glyph-name="P" unicode="P" horiz-adv-x="650" 
d="M367 735q110 0 184 -65t74 -178t-74 -178t-184 -65h-141v-249h-153v735h294zM352 603h-126v-222h126q55 0 87 28.5t32 82.5q0 53 -32.5 82t-86.5 29z" />
    <glyph glyph-name="Q" unicode="Q" horiz-adv-x="814" 
d="M407 748q162 0 270 -108.5t108 -273.5q0 -155 -98 -261l156 -180h-184l-85 97q-80 -35 -167 -35q-163 0 -270 107.5t-107 271.5q0 166 107 274t270 108zM407 609q-98 0 -160.5 -68t-62.5 -175q0 -105 62.5 -172.5t160.5 -67.5q38 0 68 10l-97 112l107 90l103 -119
q42 65 42 147q0 107 -62.5 175t-160.5 68z" />
    <glyph glyph-name="R" unicode="R" horiz-adv-x="664" 
d="M361 735q110 0 185.5 -64t75.5 -174q0 -75 -36.5 -129.5t-98.5 -82.5l171 -285h-178l-154 259h-101v-259h-152v735h288zM347 603h-122v-212h122q55 0 87.5 27.5t32.5 78.5q0 50 -32.5 78t-87.5 28z" />
    <glyph glyph-name="S" unicode="S" horiz-adv-x="602" 
d="M297 748q157 0 257 -77l-79 -126q-80 64 -179 64q-105 0 -105 -80q0 -32 28.5 -50.5t109.5 -33.5q138 -29 194 -81.5t56 -140.5q0 -107 -74.5 -171.5t-203.5 -64.5q-171 0 -285 98l83 127q37 -39 94 -62.5t113 -23.5q58 0 89.5 21.5t31.5 61.5q0 33 -31 53t-111 35
q-136 29 -191.5 84t-55.5 141q0 100 71 163t188 63z" />
    <glyph glyph-name="T" unicode="T" horiz-adv-x="662" 
d="M646 735v-134h-239v-601h-152v601h-238v134h629z" />
    <glyph glyph-name="U" unicode="U" horiz-adv-x="694" 
d="M630 735v-471q0 -128 -73.5 -202.5t-209.5 -74.5t-209.5 74.5t-73.5 202.5v471h153v-461q0 -68 33 -108t97 -40q63 0 97 40t34 108v461h152z" />
    <glyph glyph-name="V" unicode="V" horiz-adv-x="720" 
d="M714 735l-352 -746h-4l-351 746h168l185 -432l186 432h168z" />
    <glyph glyph-name="W" unicode="W" horiz-adv-x="962" 
d="M955 735l-299 -746h-4l-171 403l-171 -403h-4l-299 746h168l143 -394l161 394h4l161 -394l143 394h168z" />
    <glyph glyph-name="X" unicode="X" horiz-adv-x="697" 
d="M676 735l-220 -362l230 -373h-175l-163 262l-162 -262h-175l230 373l-220 362h176l151 -250l152 250h176z" />
    <glyph glyph-name="Y" unicode="Y" horiz-adv-x="696" 
d="M692 735l-267 -434v-301h-152v298l-269 437h177l167 -284l167 284h177z" />
    <glyph glyph-name="Z" unicode="Z" horiz-adv-x="594" 
d="M559 735v-4l-308 -598h319v-133h-551v4l309 598h-294v133h525z" />
    <glyph glyph-name="bracketleft" unicode="[" horiz-adv-x="333" 
d="M308 699v-116h-114v-588h114v-116h-253v820h253z" />
    <glyph glyph-name="backslash" unicode="\" horiz-adv-x="522" 
d="M153 735l364 -735h-149l-363 735h148z" />
    <glyph glyph-name="bracketright" unicode="]" horiz-adv-x="336" 
d="M281 699v-820h-256v116h116v588h-116v116h256z" />
    <glyph glyph-name="asciicircum" unicode="^" horiz-adv-x="527" 
d="M263 760l247 -298h-130l-117 141l-116 -141h-130z" />
    <glyph glyph-name="underscore" unicode="_" horiz-adv-x="794" 
d="M757 0v-134h-720v134h720z" />
    <glyph glyph-name="grave" unicode="`" horiz-adv-x="334" 
d="M185 718l134 -145h-127l-172 145h165z" />
    <glyph glyph-name="a" unicode="a" horiz-adv-x="608" 
d="M253 517q101 0 148 -67l8 57h132v-507h-132l-8 56q-48 -66 -148 -66t-163 74t-63 189t63 189.5t163 74.5zM289 389q-51 0 -82.5 -37t-31.5 -99t31.5 -98.5t82.5 -36.5q65 0 104 63v144q-39 64 -104 64z" />
    <glyph glyph-name="b" unicode="b" horiz-adv-x="608" 
d="M214 760v-299q50 56 141 56q100 0 163 -74.5t63 -189.5t-63 -189t-163 -74q-99 0 -149 66l-7 -56h-132v760h147zM319 389q-66 0 -105 -64v-144q38 -63 105 -63q51 0 82.5 36.5t31.5 98.5t-31.5 99t-82.5 37z" />
    <glyph glyph-name="c" unicode="c" horiz-adv-x="509" 
d="M289 517q136 0 209 -116l-105 -78q-34 67 -103 67q-54 0 -84.5 -39t-30.5 -98t31 -97.5t85 -38.5q69 0 105 67l103 -79q-73 -115 -209 -115q-116 0 -189.5 74t-73.5 189t73.5 189.5t188.5 74.5z" />
    <glyph glyph-name="d" unicode="d" horiz-adv-x="608" 
d="M541 760v-760h-132l-8 56q-48 -66 -148 -66t-163 74t-63 189t63 189.5t163 74.5q92 0 140 -56v299h148zM289 389q-51 0 -82.5 -37t-31.5 -99t31.5 -98.5t82.5 -36.5q65 0 104 63v144q-39 64 -104 64z" />
    <glyph glyph-name="e" unicode="e" horiz-adv-x="549" 
d="M282 517q114 0 175 -73t61 -184v-47h-343q5 -102 116 -102q73 0 111 52l101 -82q-79 -91 -215 -91q-118 0 -189.5 73.5t-71.5 188.5t71.5 190t183.5 75zM277 406q-44 0 -72 -28t-30 -72h198q-2 44 -27 72t-69 28z" />
    <glyph glyph-name="f" unicode="f" horiz-adv-x="387" 
d="M306 760q72 0 117 -32l-52 -117q-21 21 -57 21q-30 0 -46.5 -19.5t-16.5 -53.5v-52h114v-124h-114v-383h-147v383h-88v124h88v44q0 93 55 151t147 58z" />
    <glyph glyph-name="g" unicode="g" horiz-adv-x="609" 
d="M253 517q102 0 149 -67l7 57h132v-486q0 -121 -75 -191t-200 -70q-152 0 -249 109l96 96q68 -77 151 -77q60 0 94.5 36t35.5 94v39q-48 -56 -141 -56q-100 0 -163 73t-63 185t63 185t163 73zM289 389q-51 0 -82 -35.5t-31 -94.5t31 -94.5t82 -35.5q66 0 105 64v132
q-39 64 -105 64z" />
    <glyph glyph-name="h" unicode="h" horiz-adv-x="596" 
d="M214 760v-298q52 55 136 55q91 0 140.5 -60.5t49.5 -164.5v-292h-147v284q0 43 -22.5 69t-60.5 26q-59 0 -96 -60v-319h-147v760h147z" />
    <glyph glyph-name="i" unicode="i" horiz-adv-x="282" 
d="M214 507v-507h-147v507h147zM141 753q37 0 61.5 -24.5t24.5 -61.5t-24.5 -61.5t-61.5 -24.5t-61.5 24.5t-24.5 61.5t24.5 61.5t61.5 24.5z" />
    <glyph glyph-name="j" unicode="j" horiz-adv-x="282" 
d="M214 507v-535q0 -91 -61 -151.5t-155 -60.5q-108 0 -177 72l95 98q36 -42 79 -42q33 0 52.5 19.5t19.5 53.5v546h147zM141 753q37 0 61.5 -24.5t24.5 -61.5t-24.5 -61.5t-61.5 -24.5t-61.5 24.5t-24.5 61.5t24.5 61.5t61.5 24.5z" />
    <glyph glyph-name="k" unicode="k" horiz-adv-x="578" 
d="M214 760v-514l170 261h176l-155 -209l169 -298h-167l-99 171l-125 -171h-116v760h147z" />
    <glyph glyph-name="l" unicode="l" horiz-adv-x="282" 
d="M214 760v-760h-147v760h147z" />
    <glyph glyph-name="m" unicode="m" horiz-adv-x="907" 
d="M350 517q105 0 152 -87q63 87 167 87q87 0 134.5 -60.5t47.5 -164.5v-292h-148v284q0 43 -20 69t-57 26q-55 0 -94 -60v-319h-147v284q0 43 -20 69t-57 26q-53 0 -94 -60v-319h-147v507h132l7 -56q48 66 144 66z" />
    <glyph glyph-name="n" unicode="n" horiz-adv-x="596" 
d="M350 517q91 0 140.5 -60.5t49.5 -164.5v-292h-147v284q0 43 -22.5 69t-60.5 26q-59 0 -96 -60v-319h-147v507h132l7 -56q45 66 144 66z" />
    <glyph glyph-name="o" unicode="o" horiz-adv-x="588" 
d="M293 517q115 0 191.5 -75.5t76.5 -189.5t-76 -188t-192 -74t-191 74t-75 188t75.5 189.5t190.5 75.5zM293 389q-51 0 -84.5 -39t-33.5 -98q0 -58 33.5 -96t84.5 -38q52 0 85.5 38t33.5 96q0 59 -33.5 98t-85.5 39z" />
    <glyph glyph-name="p" unicode="p" horiz-adv-x="608" 
d="M355 517q100 0 163 -74.5t63 -189.5t-63 -189t-163 -74q-91 0 -141 56v-276h-147v737h132l7 -57q49 67 149 67zM319 389q-66 0 -105 -64v-143q38 -64 105 -64q51 0 82.5 36.5t31.5 98.5t-31.5 99t-82.5 37z" />
    <glyph glyph-name="q" unicode="q" horiz-adv-x="608" 
d="M253 517q101 0 148 -67l8 57h132v-737h-148v276q-48 -56 -140 -56q-100 0 -163 74t-63 189t63 189.5t163 74.5zM289 389q-51 0 -82.5 -37t-31.5 -99t31.5 -98.5t82.5 -36.5q66 0 104 64v143q-39 64 -104 64z" />
    <glyph glyph-name="r" unicode="r" horiz-adv-x="368" 
d="M353 517v-146h-12q-74 0 -127 -67v-304h-147v507h131l9 -67q20 34 58 55.5t88 21.5z" />
    <glyph glyph-name="s" unicode="s" horiz-adv-x="471" 
d="M257 517q113 0 176 -55l-55 -104q-54 43 -121 43q-66 0 -66 -40q0 -19 18 -29.5t73 -23.5q159 -39 159 -150q0 -76 -59.5 -122t-161.5 -46q-123 0 -194 61l56 105q60 -51 139 -51q72 0 72 43q0 21 -18 33t-68 24q-85 21 -124 54.5t-39 91.5q0 76 56.5 121t156.5 45z" />
    <glyph glyph-name="t" unicode="t" horiz-adv-x="424" 
d="M248 675v-168h145v-124h-145v-192q0 -33 19 -51t51 -18q39 0 65 15l37 -116q-52 -31 -116 -31q-94 0 -148.5 52t-54.5 147v194h-91v124h91v168h147z" />
    <glyph glyph-name="u" unicode="u" 
d="M525 507v-507h-132l-7 55q-47 -65 -147 -65q-88 0 -135.5 59.5t-47.5 163.5v294h147v-286q0 -42 20.5 -67.5t57.5 -25.5q58 0 97 60v319h147z" />
    <glyph glyph-name="v" unicode="v" horiz-adv-x="575" 
d="M567 507l-277 -517h-4l-279 517h165l116 -247l115 247h164z" />
    <glyph glyph-name="w" unicode="w" horiz-adv-x="774" 
d="M767 507l-243 -517h-4l-133 250l-133 -250h-4l-243 517h165l94 -240l119 240h4l119 -240l94 240h165z" />
    <glyph glyph-name="x" unicode="x" horiz-adv-x="532" 
d="M519 507l-154 -251l161 -256h-173l-90 150l-89 -150h-173l162 256l-155 251h171l84 -148l86 148h170z" />
    <glyph glyph-name="y" unicode="y" horiz-adv-x="579" 
d="M570 507l-394 -737h-168l202 357l-200 380h164l115 -248l116 248h165z" />
    <glyph glyph-name="z" unicode="z" horiz-adv-x="479" 
d="M455 507v-4l-210 -379h209v-124h-432v4l210 379h-197v124h420z" />
    <glyph glyph-name="braceleft" unicode="{" horiz-adv-x="341" 
d="M316 699v-116q-51 0 -76 -31t-10 -84l8 -39q18 -52 0 -90t-53 -50q35 -12 53 -50t0 -90l-8 -39q-15 -53 10 -84t76 -31v-116q-137 0 -200.5 71t-21.5 187l8 37q15 42 -11 72.5t-71 40.5v4q45 10 71 40.5t11 72.5l-8 37q-42 116 21.5 187t200.5 71z" />
    <glyph glyph-name="bar" unicode="|" horiz-adv-x="251" 
d="M195 699v-820h-139v820h139z" />
    <glyph glyph-name="braceright" unicode="}" horiz-adv-x="341" 
d="M25 699q138 0 201 -71t22 -187l-9 -37q-15 -43 11.5 -73t71.5 -40v-4q-45 -10 -71.5 -40t-11.5 -73l9 -37q41 -116 -22 -187t-201 -71v116q51 0 76 31t10 84l-8 39q-17 52 0.5 90t52.5 50q-35 12 -52.5 50t-0.5 90l8 39q15 53 -10 84t-76 31v116z" />
    <glyph glyph-name="asciitilde" unicode="~" horiz-adv-x="603" 
d="M201 459q44 0 80.5 -20.5t66 -40.5t55.5 -20q68 0 97 71l84 -68q-26 -65 -74 -102t-107 -37q-46 0 -79.5 20.5t-62 41t-60.5 20.5q-68 0 -97 -71l-84 68q26 65 73.5 101.5t107.5 36.5z" />
    <glyph glyph-name="exclamdown" unicode="&#xa1;" horiz-adv-x="294" 
d="M74 -232v509h147v-509h-147zM147 344q-38 0 -62.5 24.5t-24.5 61.5t24.5 61.5t62.5 24.5q37 0 61.5 -24t24.5 -62t-24.5 -62t-61.5 -24z" />
    <glyph glyph-name="cent" unicode="&#xa2;" horiz-adv-x="516" 
d="M350 642v-132q92 -22 148 -109l-105 -78q-34 67 -103 67q-54 0 -84.5 -39t-30.5 -98t31 -97.5t85 -38.5q69 0 105 67l103 -79q-56 -88 -149 -108v-146h-122v146q-91 19 -146 88.5t-55 167.5t55 168t146 89v132h122z" />
    <glyph glyph-name="sterling" unicode="&#xa3;" horiz-adv-x="602" 
d="M312 748q88 0 145 -49.5t77 -116.5l-143 -39q-6 35 -28.5 56t-56.5 21q-42 0 -65.5 -26.5t-23.5 -71.5q0 -35 16 -93h160v-114h-128q7 -25 7 -52q0 -76 -39 -135h120q44 0 63.5 20t19.5 69h144q0 -217 -196 -217h-369v4q3 4 19.5 29.5l22 34t19.5 33.5t19.5 39t14.5 38.5
t11 44t2 44t-5 48.5h-97v114h61q-12 43 -12 83q0 107 66 171.5t176 64.5z" />
    <glyph glyph-name="currency" unicode="&#xa4;" horiz-adv-x="665" 
d="M547 569l94 -93l-118 -117q23 -44 23 -97q0 -54 -24 -97l119 -117l-94 -93l-120 119q-42 -21 -95 -21t-95 21l-119 -119l-94 93l118 117q-23 44 -23 97t23 97l-118 117l94 93l118 -118q46 23 96 23q49 0 97 -23zM332 364q-40 0 -65.5 -29t-25.5 -73q0 -43 25.5 -71.5
t65.5 -28.5t66 28.5t26 71.5q0 44 -26 73t-66 29z" />
    <glyph glyph-name="yen" unicode="&#xa5;" horiz-adv-x="693" 
d="M691 735l-210 -339h108v-106h-166v-74h166v-107h-166v-109h-152v109h-165v107h165v74h-165v106h106l-209 339h177l167 -284l166 284h178z" />
    <glyph glyph-name="brokenbar" unicode="&#xa6;" horiz-adv-x="251" 
d="M195 699v-308h-139v308h139zM195 187v-308h-139v308h139z" />
    <glyph glyph-name="section" unicode="&#xa7;" horiz-adv-x="458" 
d="M229 399q-31 0 -51 -21t-20 -53t20 -52.5t51 -20.5t51.5 20.5t20.5 52.5t-20.5 53t-51.5 21zM249 748q98 0 161 -68l-82 -89q-31 38 -80 38q-35 0 -54 -17t-19 -45q0 -43 47 -59q11 -4 31.5 -7.5t29.5 -5.5q66 -14 106.5 -60.5t40.5 -109.5q0 -87 -73 -134
q59 -38 59 -109q0 -75 -58.5 -127.5t-155.5 -52.5q-116 0 -180 81l87 88q34 -50 94 -50q36 0 56 17.5t20 47.5q0 34 -37 53q-8 4 -17.5 6.5t-22.5 4t-20 3.5q-69 13 -111.5 59.5t-42.5 112.5q0 87 71 132q-60 40 -60 114t57 125.5t153 51.5z" />
    <glyph glyph-name="dieresis" unicode="&#xa8;" horiz-adv-x="366" 
d="M87 719q31 0 50.5 -19.5t19.5 -50.5t-19.5 -50.5t-50.5 -19.5t-50.5 19.5t-19.5 50.5t19.5 50.5t50.5 19.5zM279 719q30 0 50 -19.5t20 -50.5t-20 -50.5t-50 -19.5q-31 0 -50.5 19.5t-19.5 50.5t19.5 50.5t50.5 19.5z" />
    <glyph glyph-name="copyright" unicode="&#xa9;" horiz-adv-x="689" 
d="M359 642q74 0 121 -51l-48 -58q-26 33 -73 33q-44 0 -69 -26t-25 -70q0 -46 25 -72t69 -26t74 33l47 -57q-46 -52 -121 -52q-76 0 -125.5 49t-49.5 125q0 74 49.5 123t125.5 49zM345 785q134 0 224 -92t90 -229q0 -138 -89.5 -229t-224.5 -91q-136 0 -225 90.5t-89 229.5
q0 138 89 229.5t225 91.5zM345 711q-101 0 -167 -71t-66 -176q0 -106 66 -176t167 -70q100 0 166.5 70.5t66.5 175.5t-66.5 176t-166.5 71z" />
    <glyph glyph-name="ordfeminine" unicode="&#xaa;" horiz-adv-x="440" 
d="M178 751q69 0 102 -44l6 37h105v-356h-105l-6 37q-33 -44 -102 -44t-112 52t-43 133t43 133t112 52zM210 649q-31 0 -50 -22t-19 -61t19 -61.5t50 -22.5q39 0 63 39v91q-24 37 -63 37z" />
    <glyph glyph-name="guillemotleft" unicode="&#xab;" horiz-adv-x="539" 
d="M273 458l-120 -202l120 -202h-133l-125 200v4l125 200h133zM524 458l-120 -202l120 -202h-133l-125 200v4l125 200h133z" />
    <glyph glyph-name="logicalnot" unicode="&#xac;" horiz-adv-x="615" 
d="M579 453v-307h-102v206h-441v101h543z" />
    <glyph glyph-name="registered" unicode="&#xae;" horiz-adv-x="689" 
d="M345 785q134 0 224 -92t90 -229q0 -138 -89.5 -229t-224.5 -91q-136 0 -225 90.5t-89 229.5q0 138 89 229.5t225 91.5zM345 711q-101 0 -167 -71t-66 -176q0 -106 66 -176t167 -70q100 0 166.5 70.5t66.5 175.5t-66.5 176t-166.5 71zM216 638h138q51 0 86.5 -30.5
t35.5 -81.5q0 -67 -60 -100l76 -127h-93l-66 112h-36v-112h-81v339zM346 565h-49v-82h49q49 0 49 42q0 40 -49 40z" />
    <glyph glyph-name="macron" unicode="&#xaf;" horiz-adv-x="309" 
d="M291 690v-98h-274v98h274z" />
    <glyph glyph-name="degree" unicode="&#xb0;" horiz-adv-x="364" 
d="M183 747q66 0 110 -44t44 -110t-44 -109t-110 -43q-68 0 -112 43t-44 109t44.5 110t111.5 44zM183 657q-26 0 -43 -18t-17 -46q0 -26 17 -44t43 -18q25 0 41.5 18t16.5 44q0 28 -16.5 46t-41.5 18z" />
    <glyph glyph-name="plusminus" unicode="&#xb1;" horiz-adv-x="512" 
d="M322 688v-153h154v-134h-154v-153h-134v153h-152v134h152v153h134zM476 190v-134h-440v134h440z" />
    <glyph glyph-name="two.sups" unicode="&#xb2;" horiz-adv-x="344" 
d="M171 821q69 0 110.5 -39t41.5 -100q0 -52 -47 -112l-64 -83h113v-93h-290v3l151 226q18 24 24 35.5t6 26.5q0 19 -12.5 30.5t-32.5 11.5q-43 0 -51 -56l-96 22q24 128 147 128z" />
    <glyph glyph-name="three.sups" unicode="&#xb3;" horiz-adv-x="337" 
d="M173 821q65 0 106 -38.5t41 -95.5q0 -53 -45 -82q52 -28 52 -85q0 -59 -41.5 -96.5t-110.5 -37.5q-127 0 -151 122l96 21q8 -49 55 -49q20 0 32.5 12.5t12.5 32.5q0 19 -12.5 31.5t-33.5 12.5h-46v80h46q18 1 29.5 11.5t11.5 27.5q0 18 -12.5 28.5t-31.5 10.5
q-38 0 -45 -42l-92 39q29 97 139 97z" />
    <glyph glyph-name="acute" unicode="&#xb4;" horiz-adv-x="334" 
d="M314 718l-172 -145h-127l134 145h165z" />
    <glyph glyph-name="mu" unicode="&#xb5;" horiz-adv-x="603" 
d="M536 507v-507h-132l-7 55q-48 -65 -133 -65q-30 0 -50 10v-230h-147v737h147v-289q0 -41 21 -65.5t57 -24.5q56 0 97 60v319h147z" />
    <glyph glyph-name="paragraph" unicode="&#xb6;" horiz-adv-x="756" 
d="M727 735v-113h-84v-732h-123v732h-98v-732h-123v414h-3q-119 0 -195.5 53.5t-76.5 157.5q0 107 75.5 163.5t198.5 56.5h429z" />
    <glyph glyph-name="periodcentered" unicode="&#xb7;" horiz-adv-x="233" 
d="M117 346q38 0 63.5 -25.5t25.5 -63.5q0 -39 -25.5 -64t-63.5 -25q-39 0 -64.5 25t-25.5 64q0 38 25.5 63.5t64.5 25.5z" />
    <glyph glyph-name="cedilla" unicode="&#xb8;" horiz-adv-x="248" 
d="M82 26l71 -6l-13 -67q43 -3 69.5 -29.5t26.5 -70.5q0 -51 -34 -80t-87 -29q-68 0 -100 42l47 55q23 -25 51 -25q39 0 39 37q0 34 -45 37q-26 0 -49 -7l-3 4z" />
    <glyph glyph-name="one.sups" unicode="&#xb9;" horiz-adv-x="269" 
d="M225 821v-427h-106v264l-55 -29l-43 98l202 94h2z" />
    <glyph glyph-name="ordmasculine" unicode="&#xba;" horiz-adv-x="425" 
d="M212 751q82 0 136 -52.5t54 -132.5t-54 -132.5t-136 -52.5t-135.5 52.5t-53.5 132.5t53.5 132.5t135.5 52.5zM212 649q-31 0 -51 -23.5t-20 -59.5t20 -60t51 -24t51.5 24t20.5 60t-20.5 59.5t-51.5 23.5z" />
    <glyph glyph-name="guillemotright" unicode="&#xbb;" horiz-adv-x="539" 
d="M148 458l125 -200v-4l-125 -200h-133l120 202l-120 202h133zM399 458l125 -200v-4l-125 -200h-133l120 202l-120 202h133z" />
    <glyph glyph-name="onequarter" unicode="&#xbc;" horiz-adv-x="772" 
d="M628 735l-364 -735h-133l364 735h133zM225 721v-427h-106v264l-55 -29l-43 98l202 94h2zM718 428v-305h44v-76h-44v-47h-105v47h-210v2l313 379h2zM624 213l-78 -95h78v95z" />
    <glyph glyph-name="onehalf" unicode="&#xbd;" horiz-adv-x="830" 
d="M628 735l-364 -735h-133l364 735h133zM225 721v-427h-106v264l-55 -29l-43 98l202 94h2zM657 427q69 0 110.5 -39t41.5 -100q0 -52 -47 -112l-64 -83h113v-93h-290v3l151 226q18 24 24 35.5t6 26.5q0 19 -12.5 30.5t-32.5 11.5q-43 0 -51 -56l-96 22q24 128 147 128z" />
    <glyph glyph-name="threequarters" unicode="&#xbe;" horiz-adv-x="841" 
d="M696 735l-364 -735h-133l364 735h133zM786 428v-305h44v-76h-44v-47h-105v47h-210v2l313 379h2zM692 213l-78 -95h78v95zM173 721q65 0 106 -38.5t41 -95.5q0 -53 -45 -82q52 -28 52 -85q0 -59 -41.5 -96.5t-110.5 -37.5q-127 0 -151 122l96 21q8 -49 55 -49
q20 0 32.5 12.5t12.5 32.5q0 19 -12.5 31.5t-33.5 12.5h-46v80h46q18 1 29.5 11.5t11.5 27.5q0 18 -12.5 28.5t-31.5 10.5q-38 0 -45 -42l-92 39q29 97 139 97z" />
    <glyph glyph-name="questiondown" unicode="&#xbf;" horiz-adv-x="525" 
d="M269 -245q-104 0 -170.5 60.5t-66.5 149.5q0 41 12.5 73.5t30.5 51t40 37t40 33.5t30.5 38.5t12.5 52.5v26h147v-46q0 -45 -16.5 -79t-40 -54.5t-47 -38t-40 -40.5t-16.5 -52q0 -38 24.5 -59t61.5 -21q38 0 62 23t29 61l145 -24q-19 -92 -79.5 -142t-158.5 -50zM271 344
q-38 0 -62.5 24.5t-24.5 61.5t24.5 61.5t62.5 24.5q37 0 61.5 -24t24.5 -62t-24.5 -62t-61.5 -24z" />
    <glyph glyph-name="Agrave" unicode="&#xc0;" horiz-adv-x="724" 
d="M364 748l355 -748h-168l-48 114h-282l-48 -114h-168l355 748h4zM362 453l-93 -220h186zM305 892l126 -120h-142l-157 120h173z" />
    <glyph glyph-name="Aacute" unicode="&#xc1;" horiz-adv-x="724" 
d="M364 748l355 -748h-168l-48 114h-282l-48 -114h-168l355 748h4zM362 453l-93 -220h186zM577 892l-157 -120h-142l126 120h173z" />
    <glyph glyph-name="Acircumflex" unicode="&#xc2;" horiz-adv-x="724" 
d="M364 748l355 -748h-168l-48 114h-282l-48 -114h-168l355 748h4zM362 453l-93 -220h186zM362 926l174 -154h-116l-58 49l-59 -49h-116z" />
    <glyph glyph-name="Atilde" unicode="&#xc3;" horiz-adv-x="724" 
d="M364 748l355 -748h-168l-48 114h-282l-48 -114h-168l355 748h4zM362 453l-93 -220h186zM303 925q31 0 54.5 -17.5t40 -34.5t30.5 -17q30 0 30 63h79q0 -73 -33.5 -112t-84.5 -39q-26 0 -45 11t-28 23.5t-21.5 23.5t-26.5 11q-34 0 -34 -63h-79q0 75 33.5 113t84.5 38z
" />
    <glyph glyph-name="Adieresis" unicode="&#xc4;" horiz-adv-x="724" 
d="M364 748l355 -748h-168l-48 114h-282l-48 -114h-168l355 748h4zM362 453l-93 -220h186zM266 906q31 0 50.5 -19.5t19.5 -50.5q0 -30 -19.5 -50t-50.5 -20t-50.5 20t-19.5 50q0 31 19.5 50.5t50.5 19.5zM458 906q30 0 50 -19.5t20 -50.5q0 -30 -20 -50t-50 -20
q-31 0 -50.5 20t-19.5 50q0 31 19.5 50.5t50.5 19.5z" />
    <glyph glyph-name="Aring" unicode="&#xc5;" horiz-adv-x="724" 
d="M364 748l355 -748h-168l-48 114h-282l-48 -114h-168l355 748h4zM362 453l-93 -220h186zM362 1010q52 0 86.5 -34.5t34.5 -86.5t-34.5 -86t-86.5 -34q-53 0 -88 34t-35 86t35 86.5t88 34.5zM362 933q-18 0 -30.5 -12.5t-12.5 -31.5t12.5 -31t30.5 -12q17 0 29 12t12 31
t-12 31.5t-29 12.5z" />
    <glyph glyph-name="AE" unicode="&#xc6;" horiz-adv-x="890" 
d="M846 735v-139h-375l64 -159h269v-129h-216l70 -169h196v-139h-305l-47 116h-280l-47 -116h-170l326 735h515zM362 466l-94 -235h188z" />
    <glyph glyph-name="Ccedilla" unicode="&#xc7;" horiz-adv-x="682" 
d="M407 748q85 0 148 -27t118 -83l-96 -111q-70 82 -170 82t-161.5 -67.5t-61.5 -173.5t61.5 -174t161.5 -68q102 0 172 84l95 -111q-101 -110 -266 -112l-6 -34q43 -3 69.5 -29.5t26.5 -70.5q0 -51 -34 -80t-87 -29q-68 0 -100 42l47 55q23 -25 51 -25q39 0 39 37
q0 34 -45 37q-26 0 -49 -7l-3 4l20 106q-137 23 -222 126t-85 249q0 164 106 272t271 108z" />
    <glyph glyph-name="Egrave" unicode="&#xc8;" 
d="M548 735v-139h-322v-159h279v-129h-279v-169h330v-139h-483v735h475zM265 892l126 -120h-142l-157 120h173z" />
    <glyph glyph-name="Eacute" unicode="&#xc9;" 
d="M548 735v-139h-322v-159h279v-129h-279v-169h330v-139h-483v735h475zM537 892l-157 -120h-142l126 120h173z" />
    <glyph glyph-name="Ecircumflex" unicode="&#xca;" 
d="M548 735v-139h-322v-159h279v-129h-279v-169h330v-139h-483v735h475zM322 926l174 -154h-116l-58 49l-59 -49h-116z" />
    <glyph glyph-name="Edieresis" unicode="&#xcb;" 
d="M548 735v-139h-322v-159h279v-129h-279v-169h330v-139h-483v735h475zM226 906q31 0 50.5 -19.5t19.5 -50.5q0 -30 -19.5 -50t-50.5 -20t-50.5 20t-19.5 50q0 31 19.5 50.5t50.5 19.5zM418 906q30 0 50 -19.5t20 -50.5q0 -30 -20 -50t-50 -20q-31 0 -50.5 20t-19.5 50
q0 31 19.5 50.5t50.5 19.5z" />
    <glyph glyph-name="Igrave" unicode="&#xcc;" horiz-adv-x="299" 
d="M226 735v-735h-153v735h153zM94 892l126 -120h-142l-157 120h173z" />
    <glyph glyph-name="Iacute" unicode="&#xcd;" horiz-adv-x="299" 
d="M226 735v-735h-153v735h153zM364 892l-157 -120h-142l126 120h173z" />
    <glyph glyph-name="Icircumflex" unicode="&#xce;" horiz-adv-x="299" 
d="M226 735v-735h-153v735h153zM150 926l174 -154h-116l-58 49l-59 -49h-116z" />
    <glyph glyph-name="Idieresis" unicode="&#xcf;" horiz-adv-x="299" 
d="M226 735v-735h-153v735h153zM55 906q31 0 50.5 -19.5t19.5 -50.5q0 -30 -19.5 -50t-50.5 -20t-50.5 20t-19.5 50q0 31 19.5 50.5t50.5 19.5zM247 906q30 0 50 -19.5t20 -50.5q0 -30 -20 -50t-50 -20q-31 0 -50.5 20t-19.5 50q0 31 19.5 50.5t50.5 19.5z" />
    <glyph glyph-name="Eth" unicode="&#xd0;" horiz-adv-x="755" 
d="M323 735q189 0 295.5 -97t106.5 -270q0 -174 -106 -271t-296 -97h-234v330h-82v98h82v307h234zM318 595h-76v-167h102v-98h-102v-191h76q123 0 187.5 59.5t64.5 168.5q0 110 -64.5 169t-187.5 59z" />
    <glyph glyph-name="Ntilde" unicode="&#xd1;" horiz-adv-x="737" 
d="M664 735v-748h-4l-434 423v-410h-153v748h4l434 -423v410h153zM310 925q31 0 54.5 -17.5t40 -34.5t30.5 -17q30 0 30 63h79q0 -73 -33.5 -112t-84.5 -39q-26 0 -45 11t-28 23.5t-21.5 23.5t-26.5 11q-34 0 -34 -63h-79q0 75 33.5 113t84.5 38z" />
    <glyph glyph-name="Ograve" unicode="&#xd2;" horiz-adv-x="814" 
d="M407 748q162 0 270 -108.5t108 -273.5q0 -164 -108 -271.5t-270 -107.5q-163 0 -270 107.5t-107 271.5q0 166 107 274t270 108zM407 609q-98 0 -160.5 -68t-62.5 -175q0 -105 62.5 -172.5t160.5 -67.5t160.5 67.5t62.5 172.5q0 107 -62.5 175t-160.5 68zM350 902
l126 -120h-142l-157 120h173z" />
    <glyph glyph-name="Oacute" unicode="&#xd3;" horiz-adv-x="814" 
d="M407 748q162 0 270 -108.5t108 -273.5q0 -164 -108 -271.5t-270 -107.5q-163 0 -270 107.5t-107 271.5q0 166 107 274t270 108zM407 609q-98 0 -160.5 -68t-62.5 -175q0 -105 62.5 -172.5t160.5 -67.5t160.5 67.5t62.5 172.5q0 107 -62.5 175t-160.5 68zM622 902
l-157 -120h-142l126 120h173z" />
    <glyph glyph-name="Ocircumflex" unicode="&#xd4;" horiz-adv-x="814" 
d="M407 748q162 0 270 -108.5t108 -273.5q0 -164 -108 -271.5t-270 -107.5q-163 0 -270 107.5t-107 271.5q0 166 107 274t270 108zM407 609q-98 0 -160.5 -68t-62.5 -175q0 -105 62.5 -172.5t160.5 -67.5t160.5 67.5t62.5 172.5q0 107 -62.5 175t-160.5 68zM407 936
l174 -154h-116l-58 49l-59 -49h-116z" />
    <glyph glyph-name="Otilde" unicode="&#xd5;" horiz-adv-x="814" 
d="M407 748q162 0 270 -108.5t108 -273.5q0 -164 -108 -271.5t-270 -107.5q-163 0 -270 107.5t-107 271.5q0 166 107 274t270 108zM407 609q-98 0 -160.5 -68t-62.5 -175q0 -105 62.5 -172.5t160.5 -67.5t160.5 67.5t62.5 172.5q0 107 -62.5 175t-160.5 68zM348 935
q31 0 54.5 -17.5t40 -34.5t30.5 -17q30 0 30 63h79q0 -73 -33.5 -112t-84.5 -39q-26 0 -45 11t-28 23.5t-21.5 23.5t-26.5 11q-34 0 -34 -63h-79q0 75 33.5 113t84.5 38z" />
    <glyph glyph-name="Odieresis" unicode="&#xd6;" horiz-adv-x="814" 
d="M407 748q162 0 270 -108.5t108 -273.5q0 -164 -108 -271.5t-270 -107.5q-163 0 -270 107.5t-107 271.5q0 166 107 274t270 108zM407 609q-98 0 -160.5 -68t-62.5 -175q0 -105 62.5 -172.5t160.5 -67.5t160.5 67.5t62.5 172.5q0 107 -62.5 175t-160.5 68zM311 916
q31 0 50.5 -19.5t19.5 -50.5q0 -30 -19.5 -50t-50.5 -20t-50.5 20t-19.5 50q0 31 19.5 50.5t50.5 19.5zM503 916q30 0 50 -19.5t20 -50.5q0 -30 -20 -50t-50 -20q-31 0 -50.5 20t-19.5 50q0 31 19.5 50.5t50.5 19.5z" />
    <glyph glyph-name="multiply" unicode="&#xd7;" horiz-adv-x="491" 
d="M360 559l95 -95l-115 -115l115 -114l-95 -95l-114 115l-115 -115l-94 95l114 114l-114 114l94 95l115 -114z" />
    <glyph glyph-name="Oslash" unicode="&#xd8;" horiz-adv-x="814" 
d="M407 748q70 0 133 -23l50 90h130l-79 -144q68 -52 106 -131t38 -174q0 -164 -108 -271.5t-270 -107.5q-67 0 -132 21l-49 -88h-131l79 142q-68 52 -106 130.5t-38 173.5q0 166 107 274t270 108zM407 609q-98 0 -160.5 -68t-62.5 -175q0 -105 62 -173l225 407q-30 9 -64 9
zM630 366q0 106 -62 174l-224 -406q32 -8 63 -8q98 0 160.5 67.5t62.5 172.5z" />
    <glyph glyph-name="Ugrave" unicode="&#xd9;" horiz-adv-x="694" 
d="M630 735v-471q0 -128 -73.5 -202.5t-209.5 -74.5t-209.5 74.5t-73.5 202.5v471h153v-461q0 -68 33 -108t97 -40q63 0 97 40t34 108v461h152zM290 892l126 -120h-142l-157 120h173z" />
    <glyph glyph-name="Uacute" unicode="&#xda;" horiz-adv-x="694" 
d="M630 735v-471q0 -128 -73.5 -202.5t-209.5 -74.5t-209.5 74.5t-73.5 202.5v471h153v-461q0 -68 33 -108t97 -40q63 0 97 40t34 108v461h152zM562 892l-157 -120h-142l126 120h173z" />
    <glyph glyph-name="Ucircumflex" unicode="&#xdb;" horiz-adv-x="694" 
d="M630 735v-471q0 -128 -73.5 -202.5t-209.5 -74.5t-209.5 74.5t-73.5 202.5v471h153v-461q0 -68 33 -108t97 -40q63 0 97 40t34 108v461h152zM347 926l174 -154h-116l-58 49l-59 -49h-116z" />
    <glyph glyph-name="Udieresis" unicode="&#xdc;" horiz-adv-x="694" 
d="M630 735v-471q0 -128 -73.5 -202.5t-209.5 -74.5t-209.5 74.5t-73.5 202.5v471h153v-461q0 -68 33 -108t97 -40q63 0 97 40t34 108v461h152zM251 906q31 0 50.5 -19.5t19.5 -50.5q0 -30 -19.5 -50t-50.5 -20t-50.5 20t-19.5 50q0 31 19.5 50.5t50.5 19.5zM443 906
q30 0 50 -19.5t20 -50.5q0 -30 -20 -50t-50 -20q-31 0 -50.5 20t-19.5 50q0 31 19.5 50.5t50.5 19.5z" />
    <glyph glyph-name="Yacute" unicode="&#xdd;" horiz-adv-x="696" 
d="M692 735l-267 -434v-301h-152v298l-269 437h177l167 -284l167 284h177zM563 892l-157 -120h-142l126 120h173z" />
    <glyph glyph-name="Thorn" unicode="&#xde;" horiz-adv-x="605" 
d="M226 735v-123h111q100 0 171 -59.5t71 -161.5q0 -101 -71 -160.5t-171 -59.5h-111v-171h-153v735h153zM322 481h-96v-179h96q45 0 74 23.5t29 65.5t-29 66t-74 24z" />
    <glyph glyph-name="germandbls" unicode="&#xdf;" horiz-adv-x="657" 
d="M324 748q109 0 175 -60t66 -154q0 -89 -71 -133q50 -17 84.5 -63.5t34.5 -121.5q0 -104 -67 -166.5t-183 -62.5q-55 0 -98 19l25 130q34 -17 68 -17q44 0 72 26.5t28 72.5q0 73 -78 96q-34 9 -72 9v111q30 0 59 16q44 23 44 73q0 43 -27.5 68.5t-67.5 25.5
q-44 0 -70.5 -27t-26.5 -80v-510h-148v502q0 109 73.5 177.5t179.5 68.5z" />
    <glyph glyph-name="agrave" unicode="&#xe0;" horiz-adv-x="608" 
d="M253 517q101 0 148 -67l8 57h132v-507h-132l-8 56q-48 -66 -148 -66t-163 74t-63 189t63 189.5t163 74.5zM289 389q-51 0 -82.5 -37t-31.5 -99t31.5 -98.5t82.5 -36.5q65 0 104 63v144q-39 64 -104 64zM230 718l134 -145h-127l-172 145h165z" />
    <glyph glyph-name="aacute" unicode="&#xe1;" horiz-adv-x="608" 
d="M253 517q101 0 148 -67l8 57h132v-507h-132l-8 56q-48 -66 -148 -66t-163 74t-63 189t63 189.5t163 74.5zM289 389q-51 0 -82.5 -37t-31.5 -99t31.5 -98.5t82.5 -36.5q65 0 104 63v144q-39 64 -104 64zM520 718l-172 -145h-127l134 145h165z" />
    <glyph glyph-name="acircumflex" unicode="&#xe2;" horiz-adv-x="608" 
d="M253 517q101 0 148 -67l8 57h132v-507h-132l-8 56q-48 -66 -148 -66t-163 74t-63 189t63 189.5t163 74.5zM289 389q-51 0 -82.5 -37t-31.5 -99t31.5 -98.5t82.5 -36.5q65 0 104 63v144q-39 64 -104 64zM295 766l167 -192h-113l-54 57l-54 -57h-113z" />
    <glyph glyph-name="atilde" unicode="&#xe3;" horiz-adv-x="608" 
d="M253 517q101 0 148 -67l8 57h132v-507h-132l-8 56q-48 -66 -148 -66t-163 74t-63 189t63 189.5t163 74.5zM289 389q-51 0 -82.5 -37t-31.5 -99t31.5 -98.5t82.5 -36.5q65 0 104 63v144q-39 64 -104 64zM238 734q25 0 45 -11t31 -23.5t24 -23.5t25 -11q30 0 30 63h79
q0 -76 -33.5 -116.5t-84.5 -40.5q-26 0 -45 11t-28 23.5t-21.5 23.5t-26.5 11q-34 0 -34 -63h-79q0 78 33.5 117.5t84.5 39.5z" />
    <glyph glyph-name="adieresis" unicode="&#xe4;" horiz-adv-x="608" 
d="M253 517q101 0 148 -67l8 57h132v-507h-132l-8 56q-48 -66 -148 -66t-163 74t-63 189t63 189.5t163 74.5zM289 389q-51 0 -82.5 -37t-31.5 -99t31.5 -98.5t82.5 -36.5q65 0 104 63v144q-39 64 -104 64zM200 719q31 0 50.5 -19.5t19.5 -50.5t-19.5 -50.5t-50.5 -19.5
t-50.5 19.5t-19.5 50.5t19.5 50.5t50.5 19.5zM392 719q30 0 50 -19.5t20 -50.5t-20 -50.5t-50 -19.5q-31 0 -50.5 19.5t-19.5 50.5t19.5 50.5t50.5 19.5z" />
    <glyph glyph-name="aring" unicode="&#xe5;" horiz-adv-x="608" 
d="M253 517q101 0 148 -67l8 57h132v-507h-132l-8 56q-48 -66 -148 -66t-163 74t-63 189t63 189.5t163 74.5zM289 389q-51 0 -82.5 -37t-31.5 -99t31.5 -98.5t82.5 -36.5q65 0 104 63v144q-39 64 -104 64zM297 809q52 0 86.5 -34.5t34.5 -86.5t-34.5 -86t-86.5 -34
q-53 0 -88 34t-35 86t35 86.5t88 34.5zM297 732q-18 0 -30.5 -12.5t-12.5 -31.5t12.5 -31t30.5 -12q17 0 29 12t12 31t-12 31.5t-29 12.5z" />
    <glyph glyph-name="ae" unicode="&#xe6;" horiz-adv-x="947" 
d="M684 517q111 0 171.5 -73t60.5 -186v-44h-354q16 -103 127 -103q75 0 116 53l96 -83q-78 -91 -210 -91q-108 0 -154 65l-6 -55h-122l-8 56q-48 -66 -148 -66t-163 74t-63 189t63 189.5t163 74.5q101 0 148 -67l8 57h124l7 -56q51 66 144 66zM289 389q-51 0 -82.5 -37
t-31.5 -99t31.5 -98.5t82.5 -36.5q65 0 104 63v144q-39 64 -104 64zM667 406q-42 0 -71 -26t-35 -74h210q-2 44 -29.5 72t-74.5 28z" />
    <glyph glyph-name="ccedilla" unicode="&#xe7;" horiz-adv-x="509" 
d="M289 517q136 0 209 -116l-105 -78q-34 67 -103 67q-54 0 -84.5 -39t-30.5 -98t31 -97.5t85 -38.5q69 0 105 67l103 -79q-71 -111 -199 -115l-7 -37q43 -3 69.5 -29.5t26.5 -70.5q0 -51 -34 -80t-87 -29q-68 0 -100 42l47 55q23 -25 51 -25q39 0 39 37q0 34 -45 37
q-26 0 -49 -7l-3 4l21 109q-92 19 -147 89t-55 168q0 115 73.5 189.5t188.5 74.5z" />
    <glyph glyph-name="egrave" unicode="&#xe8;" horiz-adv-x="549" 
d="M282 517q114 0 175 -73t61 -184v-47h-343q5 -102 116 -102q73 0 111 52l101 -82q-79 -91 -215 -91q-118 0 -189.5 73.5t-71.5 188.5t71.5 190t183.5 75zM277 406q-44 0 -72 -28t-30 -72h198q-2 44 -27 72t-69 28zM213 718l134 -145h-127l-172 145h165z" />
    <glyph glyph-name="eacute" unicode="&#xe9;" horiz-adv-x="549" 
d="M282 517q114 0 175 -73t61 -184v-47h-343q5 -102 116 -102q73 0 111 52l101 -82q-79 -91 -215 -91q-118 0 -189.5 73.5t-71.5 188.5t71.5 190t183.5 75zM277 406q-44 0 -72 -28t-30 -72h198q-2 44 -27 72t-69 28zM503 718l-172 -145h-127l134 145h165z" />
    <glyph glyph-name="ecircumflex" unicode="&#xea;" horiz-adv-x="549" 
d="M282 517q114 0 175 -73t61 -184v-47h-343q5 -102 116 -102q73 0 111 52l101 -82q-79 -91 -215 -91q-118 0 -189.5 73.5t-71.5 188.5t71.5 190t183.5 75zM277 406q-44 0 -72 -28t-30 -72h198q-2 44 -27 72t-69 28zM279 766l167 -192h-113l-54 57l-54 -57h-113z" />
    <glyph glyph-name="edieresis" unicode="&#xeb;" horiz-adv-x="549" 
d="M282 517q114 0 175 -73t61 -184v-47h-343q5 -102 116 -102q73 0 111 52l101 -82q-79 -91 -215 -91q-118 0 -189.5 73.5t-71.5 188.5t71.5 190t183.5 75zM277 406q-44 0 -72 -28t-30 -72h198q-2 44 -27 72t-69 28zM183 719q31 0 50.5 -19.5t19.5 -50.5t-19.5 -50.5
t-50.5 -19.5t-50.5 19.5t-19.5 50.5t19.5 50.5t50.5 19.5zM375 719q30 0 50 -19.5t20 -50.5t-20 -50.5t-50 -19.5q-31 0 -50.5 19.5t-19.5 50.5t19.5 50.5t50.5 19.5z" />
    <glyph glyph-name="igrave" unicode="&#xec;" horiz-adv-x="282" 
d="M76 718l134 -145h-127l-172 145h165zM214 507v-507h-147v507h147z" />
    <glyph glyph-name="iacute" unicode="&#xed;" horiz-adv-x="282" 
d="M365 718l-172 -145h-127l134 145h165zM214 507v-507h-147v507h147z" />
    <glyph glyph-name="icircumflex" unicode="&#xee;" horiz-adv-x="282" 
d="M214 507v-507h-147v507h147zM142 766l167 -192h-113l-54 57l-54 -57h-113z" />
    <glyph glyph-name="idieresis" unicode="&#xef;" horiz-adv-x="282" 
d="M46 719q31 0 50.5 -19.5t19.5 -50.5t-19.5 -50.5t-50.5 -19.5t-50.5 19.5t-19.5 50.5t19.5 50.5t50.5 19.5zM238 719q30 0 50 -19.5t20 -50.5t-20 -50.5t-50 -19.5q-31 0 -50.5 19.5t-19.5 50.5t19.5 50.5t50.5 19.5zM214 507v-507h-147v507h147z" />
    <glyph glyph-name="eth" unicode="&#xf0;" horiz-adv-x="584" 
d="M521 657v-107h-113l98 -161q50 -64 50 -151q0 -107 -74 -177.5t-187 -70.5t-187 70.5t-74 177.5q0 101 66.5 170.5t170.5 77.5l-39 64h-176v107h110l-62 103h177l62 -103h178zM295 367q-49 0 -81.5 -37t-32.5 -92t32 -91t82 -36q49 0 82 36t33 91t-33 92t-82 37z" />
    <glyph glyph-name="ntilde" unicode="&#xf1;" horiz-adv-x="596" 
d="M350 517q91 0 140.5 -60.5t49.5 -164.5v-292h-147v284q0 43 -22.5 69t-60.5 26q-59 0 -96 -60v-319h-147v507h132l7 -56q45 66 144 66zM245 734q25 0 45 -11t31 -23.5t24 -23.5t25 -11q30 0 30 63h79q0 -76 -33.5 -116.5t-84.5 -40.5q-26 0 -45 11t-28 23.5t-21.5 23.5
t-26.5 11q-34 0 -34 -63h-79q0 78 33.5 117.5t84.5 39.5z" />
    <glyph glyph-name="ograve" unicode="&#xf2;" horiz-adv-x="588" 
d="M293 517q115 0 191.5 -75.5t76.5 -189.5t-76 -188t-192 -74t-191 74t-75 188t75.5 189.5t190.5 75.5zM293 389q-51 0 -84.5 -39t-33.5 -98q0 -58 33.5 -96t84.5 -38q52 0 85.5 38t33.5 96q0 59 -33.5 98t-85.5 39zM227 718l134 -145h-127l-172 145h165z" />
    <glyph glyph-name="oacute" unicode="&#xf3;" horiz-adv-x="588" 
d="M293 517q115 0 191.5 -75.5t76.5 -189.5t-76 -188t-192 -74t-191 74t-75 188t75.5 189.5t190.5 75.5zM293 389q-51 0 -84.5 -39t-33.5 -98q0 -58 33.5 -96t84.5 -38q52 0 85.5 38t33.5 96q0 59 -33.5 98t-85.5 39zM517 718l-172 -145h-127l134 145h165z" />
    <glyph glyph-name="ocircumflex" unicode="&#xf4;" horiz-adv-x="588" 
d="M293 517q115 0 191.5 -75.5t76.5 -189.5t-76 -188t-192 -74t-191 74t-75 188t75.5 189.5t190.5 75.5zM293 389q-51 0 -84.5 -39t-33.5 -98q0 -58 33.5 -96t84.5 -38q52 0 85.5 38t33.5 96q0 59 -33.5 98t-85.5 39zM293 766l167 -192h-113l-54 57l-54 -57h-113z" />
    <glyph glyph-name="otilde" unicode="&#xf5;" horiz-adv-x="588" 
d="M293 517q115 0 191.5 -75.5t76.5 -189.5t-76 -188t-192 -74t-191 74t-75 188t75.5 189.5t190.5 75.5zM293 389q-51 0 -84.5 -39t-33.5 -98q0 -58 33.5 -96t84.5 -38q52 0 85.5 38t33.5 96q0 59 -33.5 98t-85.5 39zM235 734q25 0 45 -11t31 -23.5t24 -23.5t25 -11
q30 0 30 63h79q0 -76 -33.5 -116.5t-84.5 -40.5q-26 0 -45 11t-28 23.5t-21.5 23.5t-26.5 11q-34 0 -34 -63h-79q0 78 33.5 117.5t84.5 39.5z" />
    <glyph glyph-name="odieresis" unicode="&#xf6;" horiz-adv-x="588" 
d="M293 517q115 0 191.5 -75.5t76.5 -189.5t-76 -188t-192 -74t-191 74t-75 188t75.5 189.5t190.5 75.5zM293 389q-51 0 -84.5 -39t-33.5 -98q0 -58 33.5 -96t84.5 -38q52 0 85.5 38t33.5 96q0 59 -33.5 98t-85.5 39zM197 719q31 0 50.5 -19.5t19.5 -50.5t-19.5 -50.5
t-50.5 -19.5t-50.5 19.5t-19.5 50.5t19.5 50.5t50.5 19.5zM389 719q30 0 50 -19.5t20 -50.5t-20 -50.5t-50 -19.5q-31 0 -50.5 19.5t-19.5 50.5t19.5 50.5t50.5 19.5z" />
    <glyph glyph-name="divide" unicode="&#xf7;" horiz-adv-x="512" 
d="M255 645q37 0 61 -24t24 -62q0 -36 -24 -60t-61 -24q-36 0 -60 24t-24 60q0 37 24 61.5t60 24.5zM255 223q37 0 61 -24t24 -61t-24 -61t-61 -24q-36 0 -60 24t-24 61t24 61t60 24zM476 417v-134h-440v134h440z" />
    <glyph glyph-name="oslash" unicode="&#xf8;" horiz-adv-x="588" 
d="M293 517q46 0 90 -14l40 74h93l-60 -111q105 -78 105 -214q0 -114 -76 -188t-192 -74q-43 0 -89 13l-39 -73h-93l59 109q-104 76 -104 213q0 114 75.5 189.5t190.5 75.5zM293 396q-55 0 -90.5 -41t-35.5 -103q0 -57 29 -94l127 234q-13 4 -30 4zM420 252q0 54 -29 94
l-127 -233q14 -3 29 -3q55 0 91 40.5t36 101.5z" />
    <glyph glyph-name="ugrave" unicode="&#xf9;" 
d="M525 507v-507h-132l-7 55q-47 -65 -147 -65q-88 0 -135.5 59.5t-47.5 163.5v294h147v-286q0 -42 20.5 -67.5t57.5 -25.5q58 0 97 60v319h147zM224 718l134 -145h-127l-172 145h165z" />
    <glyph glyph-name="uacute" unicode="&#xfa;" 
d="M525 507v-507h-132l-7 55q-47 -65 -147 -65q-88 0 -135.5 59.5t-47.5 163.5v294h147v-286q0 -42 20.5 -67.5t57.5 -25.5q58 0 97 60v319h147zM514 718l-172 -145h-127l134 145h165z" />
    <glyph glyph-name="ucircumflex" unicode="&#xfb;" 
d="M525 507v-507h-132l-7 55q-47 -65 -147 -65q-88 0 -135.5 59.5t-47.5 163.5v294h147v-286q0 -42 20.5 -67.5t57.5 -25.5q58 0 97 60v319h147zM290 766l167 -192h-113l-54 57l-54 -57h-113z" />
    <glyph glyph-name="udieresis" unicode="&#xfc;" 
d="M525 507v-507h-132l-7 55q-47 -65 -147 -65q-88 0 -135.5 59.5t-47.5 163.5v294h147v-286q0 -42 20.5 -67.5t57.5 -25.5q58 0 97 60v319h147zM194 719q31 0 50.5 -19.5t19.5 -50.5t-19.5 -50.5t-50.5 -19.5t-50.5 19.5t-19.5 50.5t19.5 50.5t50.5 19.5zM386 719
q30 0 50 -19.5t20 -50.5t-20 -50.5t-50 -19.5q-31 0 -50.5 19.5t-19.5 50.5t19.5 50.5t50.5 19.5z" />
    <glyph glyph-name="yacute" unicode="&#xfd;" horiz-adv-x="579" 
d="M570 507l-394 -737h-168l202 357l-200 380h164l115 -248l116 248h165zM501 718l-172 -145h-127l134 145h165z" />
    <glyph glyph-name="thorn" unicode="&#xfe;" horiz-adv-x="606" 
d="M214 760v-299q51 56 141 56q100 0 163 -74.5t63 -189.5t-63 -189t-163 -74q-91 0 -141 56v-276h-147v990h147zM319 389q-66 0 -105 -64v-143q38 -64 105 -64q51 0 82.5 36.5t31.5 98.5t-31.5 99t-82.5 37z" />
    <glyph glyph-name="ydieresis" unicode="&#xff;" horiz-adv-x="579" 
d="M570 507l-394 -737h-168l202 357l-200 380h164l115 -248l116 248h165zM180 719q31 0 50.5 -19.5t19.5 -50.5t-19.5 -50.5t-50.5 -19.5t-50.5 19.5t-19.5 50.5t19.5 50.5t50.5 19.5zM372 719q30 0 50 -19.5t20 -50.5t-20 -50.5t-50 -19.5q-31 0 -50.5 19.5t-19.5 50.5
t19.5 50.5t50.5 19.5z" />
    <glyph glyph-name="Amacron" unicode="&#x100;" horiz-adv-x="724" 
d="M364 748l355 -748h-168l-48 114h-282l-48 -114h-168l355 748h4zM362 453l-93 -220h186zM498 883v-98h-274v98h274z" />
    <glyph glyph-name="amacron" unicode="&#x101;" horiz-adv-x="608" 
d="M253 517q101 0 148 -67l8 57h132v-507h-132l-8 56q-48 -66 -148 -66t-163 74t-63 189t63 189.5t163 74.5zM289 389q-51 0 -82.5 -37t-31.5 -99t31.5 -98.5t82.5 -36.5q65 0 104 63v144q-39 64 -104 64zM432 690v-98h-274v98h274z" />
    <glyph glyph-name="Abreve" unicode="&#x102;" horiz-adv-x="724" 
d="M364 748l355 -748h-168l-48 114h-282l-48 -114h-168l355 748h4zM362 453l-93 -220h186zM527 931q0 -69 -47 -114.5t-118 -45.5q-72 0 -119 45.5t-47 114.5h100q0 -34 18 -56t48 -22q29 0 47 22t18 56h100z" />
    <glyph glyph-name="abreve" unicode="&#x103;" horiz-adv-x="608" 
d="M253 517q101 0 148 -67l8 57h132v-507h-132l-8 56q-48 -66 -148 -66t-163 74t-63 189t63 189.5t163 74.5zM289 389q-51 0 -82.5 -37t-31.5 -99t31.5 -98.5t82.5 -36.5q65 0 104 63v144q-39 64 -104 64zM461 737q0 -73 -47 -120.5t-118 -47.5t-118.5 47.5t-47.5 120.5h100
q0 -32 18.5 -52.5t47.5 -20.5q28 0 46.5 20.5t18.5 52.5h100z" />
    <glyph glyph-name="Aogonek" unicode="&#x104;" horiz-adv-x="724" 
d="M364 748l355 -748h-29q-41 -16 -41 -56q0 -25 16 -39.5t40 -14.5q19 0 35 10l30 -79q-28 -14 -69 -14q-62 0 -103.5 35t-41.5 101q0 33 12 57h-17l-48 114h-282l-48 -114h-168l355 748h4zM362 453l-93 -220h186z" />
    <glyph glyph-name="aogonek" unicode="&#x105;" horiz-adv-x="608" 
d="M253 517q101 0 148 -67l8 57h132v-507h-18q-41 -16 -41 -56q0 -25 16 -39.5t40 -14.5q19 0 35 10l30 -79q-28 -14 -69 -14q-62 0 -103.5 35t-41.5 101q0 39 18 67l-6 46q-48 -66 -148 -66t-163 74t-63 189t63 189.5t163 74.5zM289 389q-51 0 -82.5 -37t-31.5 -99
t31.5 -98.5t82.5 -36.5q65 0 104 63v144q-39 64 -104 64z" />
    <glyph glyph-name="Cacute" unicode="&#x106;" horiz-adv-x="682" 
d="M407 748q85 0 148 -27t118 -83l-96 -111q-70 82 -170 82t-161.5 -67.5t-61.5 -173.5t61.5 -174t161.5 -68q102 0 172 84l95 -111q-102 -112 -267 -112t-271 108.5t-106 272.5t106 272t271 108zM616 902l-157 -120h-142l126 120h173z" />
    <glyph glyph-name="cacute" unicode="&#x107;" horiz-adv-x="509" 
d="M289 517q136 0 209 -116l-105 -78q-34 67 -103 67q-54 0 -84.5 -39t-30.5 -98t31 -97.5t85 -38.5q69 0 105 67l103 -79q-73 -115 -209 -115q-116 0 -189.5 74t-73.5 189t73.5 189.5t188.5 74.5zM509 718l-172 -145h-127l134 145h165z" />
    <glyph glyph-name="Ccircumflex" unicode="&#x108;" horiz-adv-x="682" 
d="M407 748q85 0 148 -27t118 -83l-96 -111q-70 82 -170 82t-161.5 -67.5t-61.5 -173.5t61.5 -174t161.5 -68q102 0 172 84l95 -111q-102 -112 -267 -112t-271 108.5t-106 272.5t106 272t271 108zM401 936l174 -154h-116l-58 49l-59 -49h-116z" />
    <glyph glyph-name="ccircumflex" unicode="&#x109;" horiz-adv-x="509" 
d="M289 517q136 0 209 -116l-105 -78q-34 67 -103 67q-54 0 -84.5 -39t-30.5 -98t31 -97.5t85 -38.5q69 0 105 67l103 -79q-73 -115 -209 -115q-116 0 -189.5 74t-73.5 189t73.5 189.5t188.5 74.5zM285 766l167 -192h-113l-54 57l-54 -57h-113z" />
    <glyph glyph-name="Cdotaccent" unicode="&#x10a;" horiz-adv-x="682" 
d="M407 748q85 0 148 -27t118 -83l-96 -111q-70 82 -170 82t-161.5 -67.5t-61.5 -173.5t61.5 -174t161.5 -68q102 0 172 84l95 -111q-102 -112 -267 -112t-271 108.5t-106 272.5t106 272t271 108zM401 936q35 0 57 -22t22 -57q0 -34 -22.5 -56t-56.5 -22t-56.5 22t-22.5 56
q0 35 22 57t57 22z" />
    <glyph glyph-name="cdotaccent" unicode="&#x10b;" horiz-adv-x="509" 
d="M289 517q136 0 209 -116l-105 -78q-34 67 -103 67q-54 0 -84.5 -39t-30.5 -98t31 -97.5t85 -38.5q69 0 105 67l103 -79q-73 -115 -209 -115q-116 0 -189.5 74t-73.5 189t73.5 189.5t188.5 74.5zM284 750q38 0 62.5 -24.5t24.5 -61.5t-24.5 -61.5t-62.5 -24.5t-62 24
t-24 62t24 62t62 24z" />
    <glyph glyph-name="Ccaron" unicode="&#x10c;" horiz-adv-x="682" 
d="M407 748q85 0 148 -27t118 -83l-96 -111q-70 82 -170 82t-161.5 -67.5t-61.5 -173.5t61.5 -174t161.5 -68q102 0 172 84l95 -111q-102 -112 -267 -112t-271 108.5t-106 272.5t106 272t271 108zM575 925l-174 -154l-175 154h116l59 -49l58 49h116z" />
    <glyph glyph-name="ccaron" unicode="&#x10d;" horiz-adv-x="509" 
d="M289 517q136 0 209 -116l-105 -78q-34 67 -103 67q-54 0 -84.5 -39t-30.5 -98t31 -97.5t85 -38.5q69 0 105 67l103 -79q-73 -115 -209 -115q-116 0 -189.5 74t-73.5 189t73.5 189.5t188.5 74.5zM450 756l-167 -192l-167 192h113l54 -57l54 57h113z" />
    <glyph glyph-name="Dcaron" unicode="&#x10e;" horiz-adv-x="738" 
d="M307 735q189 0 295.5 -97t106.5 -270q0 -174 -106 -271t-296 -97h-234v735h234zM302 595h-76v-456h76q123 0 187.5 59.5t64.5 168.5q0 110 -64.5 169t-187.5 59zM508 915l-174 -154l-175 154h116l59 -49l58 49h116z" />
    <glyph glyph-name="dcaron" unicode="&#x10f;" horiz-adv-x="796" 
d="M541 760v-760h-132l-8 56q-48 -66 -148 -66t-163 74t-63 189t63 189.5t163 74.5q92 0 140 -56v299h148zM289 389q-51 0 -82.5 -37t-31.5 -99t31.5 -98.5t82.5 -36.5q65 0 104 63v144q-39 64 -104 64zM667 759q40 0 65.5 -26t25.5 -65q0 -29 -18 -56l-104 -176h-4v317
q18 6 35 6z" />
    <glyph glyph-name="Dcroat" unicode="&#x110;" horiz-adv-x="755" 
d="M323 735q189 0 295.5 -97t106.5 -270q0 -174 -106 -271t-296 -97h-234v330h-82v98h82v307h234zM318 595h-76v-167h102v-98h-102v-191h76q123 0 187.5 59.5t64.5 168.5q0 110 -64.5 169t-187.5 59z" />
    <glyph glyph-name="dcroat" unicode="&#x111;" horiz-adv-x="617" 
d="M541 760v-84h79v-98h-79v-578h-132l-8 56q-48 -66 -148 -66t-163 74t-63 189t63 189.5t163 74.5q92 0 140 -56v117h-112v98h112v84h148zM289 389q-51 0 -82.5 -37t-31.5 -99t31.5 -98.5t82.5 -36.5q65 0 104 63v144q-39 64 -104 64z" />
    <glyph glyph-name="Emacron" unicode="&#x112;" 
d="M548 735v-139h-322v-159h279v-129h-279v-169h330v-139h-483v735h475zM459 883v-98h-274v98h274z" />
    <glyph glyph-name="emacron" unicode="&#x113;" horiz-adv-x="549" 
d="M282 517q114 0 175 -73t61 -184v-47h-343q5 -102 116 -102q73 0 111 52l101 -82q-79 -91 -215 -91q-118 0 -189.5 73.5t-71.5 188.5t71.5 190t183.5 75zM277 406q-44 0 -72 -28t-30 -72h198q-2 44 -27 72t-69 28zM416 690v-98h-274v98h274z" />
    <glyph glyph-name="Ebreve" unicode="&#x114;" 
d="M548 735v-139h-322v-159h279v-129h-279v-169h330v-139h-483v735h475zM487 931q0 -69 -47 -114.5t-118 -45.5q-72 0 -119 45.5t-47 114.5h100q0 -34 18 -56t48 -22q29 0 47 22t18 56h100z" />
    <glyph glyph-name="ebreve" unicode="&#x115;" horiz-adv-x="549" 
d="M282 517q114 0 175 -73t61 -184v-47h-343q5 -102 116 -102q73 0 111 52l101 -82q-79 -91 -215 -91q-118 0 -189.5 73.5t-71.5 188.5t71.5 190t183.5 75zM277 406q-44 0 -72 -28t-30 -72h198q-2 44 -27 72t-69 28zM444 737q0 -73 -47 -120.5t-118 -47.5t-118.5 47.5
t-47.5 120.5h100q0 -32 18.5 -52.5t47.5 -20.5q28 0 46.5 20.5t18.5 52.5h100z" />
    <glyph glyph-name="Edotaccent" unicode="&#x116;" 
d="M548 735v-139h-322v-159h279v-129h-279v-169h330v-139h-483v735h475zM322 926q34 0 56.5 -22t22.5 -57q0 -34 -22.5 -56t-56.5 -22t-56.5 22t-22.5 56q0 35 22.5 57t56.5 22z" />
    <glyph glyph-name="edotaccent" unicode="&#x117;" horiz-adv-x="549" 
d="M282 517q114 0 175 -73t61 -184v-47h-343q5 -102 116 -102q73 0 111 52l101 -82q-79 -91 -215 -91q-118 0 -189.5 73.5t-71.5 188.5t71.5 190t183.5 75zM277 406q-44 0 -72 -28t-30 -72h198q-2 44 -27 72t-69 28zM278 750q38 0 62.5 -24.5t24.5 -61.5t-24.5 -61.5
t-62.5 -24.5t-62 24t-24 62t24 62t62 24z" />
    <glyph glyph-name="Eogonek" unicode="&#x118;" 
d="M548 735v-139h-322v-159h279v-129h-279v-169h330v-139h-51q-41 -16 -41 -56q0 -25 16 -39.5t40 -14.5q19 0 35 10l30 -79q-28 -14 -69 -14q-62 0 -103.5 35t-41.5 101q0 33 12 57h-310v735h475z" />
    <glyph glyph-name="eogonek" unicode="&#x119;" horiz-adv-x="549" 
d="M282 517q114 0 175 -73t61 -184v-47h-343q5 -102 116 -102q73 0 111 52l101 -82q-44 -50 -101 -72q-22 -16 -22 -46q0 -25 16 -39.5t40 -14.5q19 0 35 10l30 -79q-28 -14 -69 -14q-62 0 -103.5 35t-41.5 101q0 16 3 28h-2q-118 0 -189.5 73.5t-71.5 188.5t71.5 190
t183.5 75zM277 406q-44 0 -72 -28t-30 -72h198q-2 44 -27 72t-69 28z" />
    <glyph glyph-name="Ecaron" unicode="&#x11a;" 
d="M548 735v-139h-322v-159h279v-129h-279v-169h330v-139h-483v735h475zM496 915l-174 -154l-175 154h116l59 -49l58 49h116z" />
    <glyph glyph-name="ecaron" unicode="&#x11b;" horiz-adv-x="549" 
d="M282 517q114 0 175 -73t61 -184v-47h-343q5 -102 116 -102q73 0 111 52l101 -82q-79 -91 -215 -91q-118 0 -189.5 73.5t-71.5 188.5t71.5 190t183.5 75zM277 406q-44 0 -72 -28t-30 -72h198q-2 44 -27 72t-69 28zM446 756l-167 -192l-167 192h113l54 -57l54 57h113z" />
    <glyph glyph-name="Gcircumflex" unicode="&#x11c;" horiz-adv-x="749" 
d="M407 748q85 0 148 -27t118 -83l-96 -111q-70 82 -170 82t-161.5 -67.5t-61.5 -173.5t64 -174t169 -68q65 0 122 37v119h-159v131h311v-325q-107 -101 -274 -101q-169 0 -278 108.5t-109 272.5t106 272t271 108zM401 936l174 -154h-116l-58 49l-59 -49h-116z" />
    <glyph glyph-name="gcircumflex" unicode="&#x11d;" horiz-adv-x="609" 
d="M253 517q102 0 149 -67l7 57h132v-486q0 -121 -75 -191t-200 -70q-152 0 -249 109l96 96q68 -77 151 -77q60 0 94.5 36t35.5 94v39q-48 -56 -141 -56q-100 0 -163 73t-63 185t63 185t163 73zM289 389q-51 0 -82 -35.5t-31 -94.5t31 -94.5t82 -35.5q66 0 105 64v132
q-39 64 -105 64zM289 766l167 -192h-113l-54 57l-54 -57h-113z" />
    <glyph glyph-name="Gbreve" unicode="&#x11e;" horiz-adv-x="749" 
d="M407 748q85 0 148 -27t118 -83l-96 -111q-70 82 -170 82t-161.5 -67.5t-61.5 -173.5t64 -174t169 -68q65 0 122 37v119h-159v131h311v-325q-107 -101 -274 -101q-169 0 -278 108.5t-109 272.5t106 272t271 108zM566 941q0 -69 -47 -114.5t-118 -45.5q-72 0 -119 45.5
t-47 114.5h100q0 -34 18 -56t48 -22q29 0 47 22t18 56h100z" />
    <glyph glyph-name="gbreve" unicode="&#x11f;" horiz-adv-x="609" 
d="M253 517q102 0 149 -67l7 57h132v-486q0 -121 -75 -191t-200 -70q-152 0 -249 109l96 96q68 -77 151 -77q60 0 94.5 36t35.5 94v39q-48 -56 -141 -56q-100 0 -163 73t-63 185t63 185t163 73zM289 389q-51 0 -82 -35.5t-31 -94.5t31 -94.5t82 -35.5q66 0 105 64v132
q-39 64 -105 64zM454 737q0 -73 -47 -120.5t-118 -47.5t-118.5 47.5t-47.5 120.5h100q0 -32 18.5 -52.5t47.5 -20.5q28 0 46.5 20.5t18.5 52.5h100z" />
    <glyph glyph-name="Gdotaccent" unicode="&#x120;" horiz-adv-x="749" 
d="M407 748q85 0 148 -27t118 -83l-96 -111q-70 82 -170 82t-161.5 -67.5t-61.5 -173.5t64 -174t169 -68q65 0 122 37v119h-159v131h311v-325q-107 -101 -274 -101q-169 0 -278 108.5t-109 272.5t106 272t271 108zM401 936q35 0 57 -22t22 -57q0 -34 -22.5 -56t-56.5 -22
t-56.5 22t-22.5 56q0 35 22 57t57 22z" />
    <glyph glyph-name="gdotaccent" unicode="&#x121;" horiz-adv-x="609" 
d="M253 517q102 0 149 -67l7 57h132v-486q0 -121 -75 -191t-200 -70q-152 0 -249 109l96 96q68 -77 151 -77q60 0 94.5 36t35.5 94v39q-48 -56 -141 -56q-100 0 -163 73t-63 185t63 185t163 73zM289 389q-51 0 -82 -35.5t-31 -94.5t31 -94.5t82 -35.5q66 0 105 64v132
q-39 64 -105 64zM288 750q38 0 62.5 -24.5t24.5 -61.5t-24.5 -61.5t-62.5 -24.5t-62 24t-24 62t24 62t62 24z" />
    <glyph glyph-name="Gcommaaccent" unicode="&#x122;" horiz-adv-x="749" 
d="M407 748q85 0 148 -27t118 -83l-96 -111q-70 82 -170 82t-161.5 -67.5t-61.5 -173.5t64 -174t169 -68q65 0 122 37v119h-159v131h311v-325q-107 -101 -274 -101q-169 0 -278 108.5t-109 272.5t106 272t271 108zM381 -45q39 0 64.5 -25.5t25.5 -64.5q0 -35 -18 -56
l-104 -138h-4v278q18 6 36 6z" />
    <glyph glyph-name="gcommaaccent" unicode="&#x123;" horiz-adv-x="609" 
d="M253 517q102 0 149 -67l7 57h132v-486q0 -121 -75 -191t-200 -70q-152 0 -249 109l96 96q68 -77 151 -77q60 0 94.5 36t35.5 94v39q-48 -56 -141 -56q-100 0 -163 73t-63 185t63 185t163 73zM289 389q-51 0 -82 -35.5t-31 -94.5t31 -94.5t82 -35.5q66 0 105 64v132
q-39 64 -105 64zM355 888v-317q-19 -7 -35 -7q-39 0 -65 26t-26 65q0 27 19 56l103 177h4z" />
    <glyph glyph-name="Hcircumflex" unicode="&#x124;" horiz-adv-x="750" 
d="M676 735v-735h-152v307h-298v-307h-153v735h153v-289h298v289h152zM375 926l174 -154h-116l-58 49l-59 -49h-116z" />
    <glyph glyph-name="hcircumflex" unicode="&#x125;" horiz-adv-x="596" 
d="M214 760v-298q52 55 136 55q91 0 140.5 -60.5t49.5 -164.5v-292h-147v284q0 43 -22.5 69t-60.5 26q-59 0 -96 -60v-319h-147v760h147zM150 943l174 -154h-116l-58 49l-59 -49h-116z" />
    <glyph glyph-name="Hbar" unicode="&#x126;" horiz-adv-x="776" 
d="M689 735v-109h76v-98h-76v-528h-152v299h-298v-299h-152v528h-76v98h76v109h152v-109h298v109h152zM239 431h298v97h-298v-97z" />
    <glyph glyph-name="hbar" unicode="&#x127;" horiz-adv-x="606" 
d="M223 760v-84h113v-98h-113v-116q52 55 136 55q91 0 140.5 -60.5t49.5 -164.5v-292h-147v284q0 43 -22.5 69t-60.5 26q-59 0 -96 -60v-319h-147v578h-79v98h79v84h147z" />
    <glyph glyph-name="Itilde" unicode="&#x128;" horiz-adv-x="299" 
d="M226 735v-735h-153v735h153zM92 925q31 0 54.5 -17.5t40 -34.5t30.5 -17q30 0 30 63h79q0 -73 -33.5 -112t-84.5 -39q-26 0 -45 11t-28 23.5t-21.5 23.5t-26.5 11q-34 0 -34 -63h-79q0 75 33.5 113t84.5 38z" />
    <glyph glyph-name="itilde" unicode="&#x129;" horiz-adv-x="282" 
d="M84 734q25 0 45 -11t31 -23.5t24 -23.5t25 -11q30 0 30 63h79q0 -76 -33.5 -116.5t-84.5 -40.5q-26 0 -45 11t-28 23.5t-21.5 23.5t-26.5 11q-34 0 -34 -63h-79q0 78 33.5 117.5t84.5 39.5zM214 507v-507h-147v507h147z" />
    <glyph glyph-name="Imacron" unicode="&#x12a;" horiz-adv-x="299" 
d="M226 735v-735h-153v735h153zM287 883v-98h-274v98h274z" />
    <glyph glyph-name="imacron" unicode="&#x12b;" horiz-adv-x="282" 
d="M279 690v-98h-274v98h274zM214 507v-507h-147v507h147z" />
    <glyph glyph-name="Ibreve" unicode="&#x12c;" horiz-adv-x="299" 
d="M226 735v-735h-153v735h153zM316 931q0 -69 -47 -114.5t-118 -45.5q-72 0 -119 45.5t-47 114.5h100q0 -34 18 -56t48 -22q29 0 47 22t18 56h100z" />
    <glyph glyph-name="ibreve" unicode="&#x12d;" horiz-adv-x="282" 
d="M307 737q0 -73 -47 -120.5t-118 -47.5t-118.5 47.5t-47.5 120.5h100q0 -32 18.5 -52.5t47.5 -20.5q28 0 46.5 20.5t18.5 52.5h100zM214 507v-507h-147v507h147z" />
    <glyph glyph-name="Iogonek" unicode="&#x12e;" horiz-adv-x="299" 
d="M226 735v-735h-46q-41 -16 -41 -56q0 -25 16 -39.5t40 -14.5q19 0 35 10l30 -79q-28 -14 -69 -14q-62 0 -103.5 35t-41.5 101q0 47 27 79v713h153z" />
    <glyph glyph-name="iogonek" unicode="&#x12f;" horiz-adv-x="282" 
d="M214 507v-507h-33q-41 -16 -41 -56q0 -25 16 -39.5t40 -14.5q19 0 35 10l30 -79q-28 -14 -69 -14q-62 0 -103.5 35t-41.5 101q0 41 20 69v495h147zM141 753q37 0 61.5 -24.5t24.5 -61.5t-24.5 -61.5t-61.5 -24.5t-61.5 24.5t-24.5 61.5t24.5 61.5t61.5 24.5z" />
    <glyph glyph-name="Idotaccent" unicode="&#x130;" horiz-adv-x="299" 
d="M226 735v-735h-153v735h153zM149 926q35 0 57 -22t22 -57q0 -34 -22.5 -56t-56.5 -22t-56.5 22t-22.5 56q0 35 22 57t57 22z" />
    <glyph glyph-name="dotlessi" unicode="&#x131;" horiz-adv-x="282" 
d="M214 507v-507h-147v507h147z" />
    <glyph glyph-name="Jcircumflex" unicode="&#x134;" horiz-adv-x="568" 
d="M505 735v-515q0 -104 -67.5 -168.5t-173.5 -64.5q-103 0 -175 68.5t-72 191.5h148q0 -59 24 -90t70 -31q44 0 69 27.5t25 74.5v507h152zM426 926l174 -154h-116l-58 49l-59 -49h-116z" />
    <glyph glyph-name="jcircumflex" unicode="&#x135;" horiz-adv-x="282" 
d="M214 507v-535q0 -91 -61 -151.5t-155 -60.5q-108 0 -177 72l95 98q36 -42 79 -42q33 0 52.5 19.5t19.5 53.5v546h147zM141 766l167 -192h-113l-54 57l-54 -57h-113z" />
    <glyph glyph-name="Kcommaaccent" unicode="&#x136;" horiz-adv-x="706" 
d="M649 735l-217 -353l267 -382h-183l-170 246l-157 -246h-116v735h153v-429l244 429h179zM330 -45q39 0 64.5 -25.5t25.5 -64.5q0 -35 -18 -56l-104 -138h-4v278q18 6 36 6z" />
    <glyph glyph-name="kcommaaccent" unicode="&#x137;" horiz-adv-x="578" 
d="M214 760v-514l170 261h176l-155 -209l169 -298h-167l-99 171l-125 -171h-116v760h147zM274 -45q39 0 64.5 -25.5t25.5 -64.5q0 -35 -18 -56l-104 -138h-4v278q18 6 36 6z" />
    <glyph glyph-name="Lacute" unicode="&#x139;" horiz-adv-x="546" 
d="M226 735v-601h313v-134h-466v735h153zM368 892l-157 -120h-142l126 120h173z" />
    <glyph glyph-name="lacute" unicode="&#x13a;" horiz-adv-x="282" 
d="M214 760v-760h-147v760h147zM366 914l-157 -120h-142l126 120h173z" />
    <glyph glyph-name="Lcommaaccent" unicode="&#x13b;" horiz-adv-x="546" 
d="M226 735v-601h313v-134h-466v735h153zM276 -45q39 0 64.5 -25.5t25.5 -64.5q0 -35 -18 -56l-104 -138h-4v278q18 6 36 6z" />
    <glyph glyph-name="lcommaaccent" unicode="&#x13c;" horiz-adv-x="282" 
d="M214 760v-760h-147v760h147zM114 -45q39 0 64.5 -25.5t25.5 -64.5q0 -35 -18 -56l-104 -138h-4v278q18 6 36 6z" />
    <glyph glyph-name="Lcaron" unicode="&#x13d;" horiz-adv-x="546" 
d="M226 735v-601h313v-134h-466v735h153zM455 759q40 0 65.5 -26t25.5 -65q0 -29 -18 -56l-104 -176h-4v317q18 6 35 6z" />
    <glyph glyph-name="lcaron" unicode="&#x13e;" horiz-adv-x="470" 
d="M214 760v-760h-147v760h147zM341 759q40 0 65.5 -26t25.5 -65q0 -29 -18 -56l-104 -176h-4v317q18 6 35 6z" />
    <glyph glyph-name="Ldot" unicode="&#x13f;" horiz-adv-x="546" 
d="M226 735v-601h313v-134h-466v735h153zM422 450q38 0 63.5 -25.5t25.5 -63.5q0 -39 -25.5 -64t-63.5 -25q-39 0 -64.5 25t-25.5 64q0 38 25.5 63.5t64.5 25.5z" />
    <glyph glyph-name="ldot" unicode="&#x140;" horiz-adv-x="504" 
d="M214 760v-760h-147v760h147zM387 346q38 0 63.5 -25.5t25.5 -63.5q0 -39 -25.5 -64t-63.5 -25q-39 0 -64.5 25t-25.5 64q0 38 25.5 63.5t64.5 25.5z" />
    <glyph glyph-name="Lslash" unicode="&#x141;" horiz-adv-x="577" 
d="M256 735v-311l87 35l39 -107l-126 -50v-168h313v-134h-466v241l-70 -28l-38 107l108 43v372h153z" />
    <glyph glyph-name="lslash" unicode="&#x142;" horiz-adv-x="312" 
d="M228 760v-333l69 30l35 -91l-104 -45v-321h-147v259l-65 -28l-36 91l101 43v395h147z" />
    <glyph glyph-name="Nacute" unicode="&#x143;" horiz-adv-x="737" 
d="M664 735v-748h-4l-434 423v-410h-153v748h4l434 -423v410h153zM583 892l-157 -120h-142l126 120h173z" />
    <glyph glyph-name="nacute" unicode="&#x144;" horiz-adv-x="596" 
d="M350 517q91 0 140.5 -60.5t49.5 -164.5v-292h-147v284q0 43 -22.5 69t-60.5 26q-59 0 -96 -60v-319h-147v507h132l7 -56q45 66 144 66zM527 718l-172 -145h-127l134 145h165z" />
    <glyph glyph-name="Ncommaaccent" unicode="&#x145;" horiz-adv-x="737" 
d="M664 735v-748h-4l-434 423v-410h-153v748h4l434 -423v410h153zM366 -45q39 0 64.5 -25.5t25.5 -64.5q0 -35 -18 -56l-104 -138h-4v278q18 6 36 6z" />
    <glyph glyph-name="ncommaaccent" unicode="&#x146;" horiz-adv-x="596" 
d="M350 517q91 0 140.5 -60.5t49.5 -164.5v-292h-147v284q0 43 -22.5 69t-60.5 26q-59 0 -96 -60v-319h-147v507h132l7 -56q45 66 144 66zM274 -45q39 0 64.5 -25.5t25.5 -64.5q0 -35 -18 -56l-104 -138h-4v278q18 6 36 6z" />
    <glyph glyph-name="Ncaron" unicode="&#x147;" horiz-adv-x="737" 
d="M664 735v-748h-4l-434 423v-410h-153v748h4l434 -423v410h153zM542 915l-174 -154l-175 154h116l59 -49l58 49h116z" />
    <glyph glyph-name="ncaron" unicode="&#x148;" horiz-adv-x="596" 
d="M350 517q91 0 140.5 -60.5t49.5 -164.5v-292h-147v284q0 43 -22.5 69t-60.5 26q-59 0 -96 -60v-319h-147v507h132l7 -56q45 66 144 66zM470 756l-167 -192l-167 192h113l54 -57l54 57h113z" />
    <glyph glyph-name="Eng" unicode="&#x14a;" horiz-adv-x="737" 
d="M664 735v-742q0 -104 -68.5 -168.5t-178.5 -64.5v144q44 0 69 26.5t25 73.5v128l-285 278v-410h-153v748h4l434 -423v410h153z" />
    <glyph glyph-name="eng" unicode="&#x14b;" horiz-adv-x="596" 
d="M350 517q91 0 140.5 -60.5t49.5 -164.5v-320q0 -91 -63 -151.5t-157 -60.5v130q33 0 53 19t20 52v323q0 43 -22.5 69t-60.5 26q-59 0 -96 -60v-319h-147v507h132l7 -56q45 66 144 66z" />
    <glyph glyph-name="Omacron" unicode="&#x14c;" horiz-adv-x="814" 
d="M407 748q162 0 270 -108.5t108 -273.5q0 -164 -108 -271.5t-270 -107.5q-163 0 -270 107.5t-107 271.5q0 166 107 274t270 108zM407 609q-98 0 -160.5 -68t-62.5 -175q0 -105 62.5 -172.5t160.5 -67.5t160.5 67.5t62.5 172.5q0 107 -62.5 175t-160.5 68zM544 893v-98
h-274v98h274z" />
    <glyph glyph-name="omacron" unicode="&#x14d;" horiz-adv-x="588" 
d="M293 517q115 0 191.5 -75.5t76.5 -189.5t-76 -188t-192 -74t-191 74t-75 188t75.5 189.5t190.5 75.5zM293 389q-51 0 -84.5 -39t-33.5 -98q0 -58 33.5 -96t84.5 -38q52 0 85.5 38t33.5 96q0 59 -33.5 98t-85.5 39zM430 690v-98h-274v98h274z" />
    <glyph glyph-name="Obreve" unicode="&#x14e;" horiz-adv-x="814" 
d="M407 748q162 0 270 -108.5t108 -273.5q0 -164 -108 -271.5t-270 -107.5q-163 0 -270 107.5t-107 271.5q0 166 107 274t270 108zM407 609q-98 0 -160.5 -68t-62.5 -175q0 -105 62.5 -172.5t160.5 -67.5t160.5 67.5t62.5 172.5q0 107 -62.5 175t-160.5 68zM572 941
q0 -69 -47 -114.5t-118 -45.5q-72 0 -119 45.5t-47 114.5h100q0 -34 18 -56t48 -22q29 0 47 22t18 56h100z" />
    <glyph glyph-name="obreve" unicode="&#x14f;" horiz-adv-x="588" 
d="M293 517q115 0 191.5 -75.5t76.5 -189.5t-76 -188t-192 -74t-191 74t-75 188t75.5 189.5t190.5 75.5zM293 389q-51 0 -84.5 -39t-33.5 -98q0 -58 33.5 -96t84.5 -38q52 0 85.5 38t33.5 96q0 59 -33.5 98t-85.5 39zM458 737q0 -73 -47 -120.5t-118 -47.5t-118.5 47.5
t-47.5 120.5h100q0 -32 18.5 -52.5t47.5 -20.5q28 0 46.5 20.5t18.5 52.5h100z" />
    <glyph glyph-name="Ohungarumlaut" unicode="&#x150;" horiz-adv-x="814" 
d="M407 748q162 0 270 -108.5t108 -273.5q0 -164 -108 -271.5t-270 -107.5q-163 0 -270 107.5t-107 271.5q0 166 107 274t270 108zM407 609q-98 0 -160.5 -68t-62.5 -175q0 -105 62.5 -172.5t160.5 -67.5t160.5 67.5t62.5 172.5q0 107 -62.5 175t-160.5 68zM460 904
l-99 -121h-104l82 121h121zM647 904l-99 -121h-104l82 121h121z" />
    <glyph glyph-name="ohungarumlaut" unicode="&#x151;" horiz-adv-x="588" 
d="M293 517q115 0 191.5 -75.5t76.5 -189.5t-76 -188t-192 -74t-191 74t-75 188t75.5 189.5t190.5 75.5zM293 389q-51 0 -84.5 -39t-33.5 -98q0 -58 33.5 -96t84.5 -38q52 0 85.5 38t33.5 96q0 59 -33.5 98t-85.5 39zM348 721l-103 -150h-105l86 150h122zM537 721l-102 -150
h-105l86 150h121z" />
    <glyph glyph-name="OE" unicode="&#x152;" horiz-adv-x="1148" 
d="M1106 735v-139h-322v-159h279v-129h-279v-169h330v-139h-483v71q-94 -84 -224 -84q-163 0 -270 107.5t-107 271.5q0 166 107 274t270 108q129 0 224 -85v72h475zM407 609q-98 0 -160.5 -68t-62.5 -175q0 -105 62.5 -173t160.5 -68t160.5 68t62.5 173q0 107 -62.5 175
t-160.5 68z" />
    <glyph glyph-name="oe" unicode="&#x153;" horiz-adv-x="937" 
d="M669 517q114 0 175 -73t61 -184v-47h-343q5 -102 116 -102q73 0 111 52l101 -82q-79 -91 -215 -91q-119 0 -190 74q-76 -74 -192 -74t-191 74t-75 188t75.5 189.5t190.5 75.5q114 0 192 -76q73 76 184 76zM293 389q-51 0 -84.5 -39t-33.5 -98q0 -58 33.5 -96t84.5 -38
q52 0 85.5 38t33.5 96q0 59 -33.5 98t-85.5 39zM664 406q-44 0 -72 -28t-30 -72h198q-2 44 -27 72t-69 28z" />
    <glyph glyph-name="Racute" unicode="&#x154;" horiz-adv-x="664" 
d="M361 735q110 0 185.5 -64t75.5 -174q0 -75 -36.5 -129.5t-98.5 -82.5l171 -285h-178l-154 259h-101v-259h-152v735h288zM347 603h-122v-212h122q55 0 87.5 27.5t32.5 78.5q0 50 -32.5 78t-87.5 28zM537 892l-157 -120h-142l126 120h173z" />
    <glyph glyph-name="racute" unicode="&#x155;" horiz-adv-x="368" 
d="M353 517v-146h-12q-74 0 -127 -67v-304h-147v507h131l9 -67q20 34 58 55.5t88 21.5zM455 718l-172 -145h-127l134 145h165z" />
    <glyph glyph-name="Rcommaaccent" unicode="&#x156;" horiz-adv-x="664" 
d="M361 735q110 0 185.5 -64t75.5 -174q0 -75 -36.5 -129.5t-98.5 -82.5l171 -285h-178l-154 259h-101v-259h-152v735h288zM347 603h-122v-212h122q55 0 87.5 27.5t32.5 78.5q0 50 -32.5 78t-87.5 28zM316 -45q39 0 64.5 -25.5t25.5 -64.5q0 -35 -18 -56l-104 -138h-4v278
q18 6 36 6z" />
    <glyph glyph-name="rcommaaccent" unicode="&#x157;" horiz-adv-x="368" 
d="M353 517v-146h-12q-74 0 -127 -67v-304h-147v507h131l9 -67q20 34 58 55.5t88 21.5zM148 -45q39 0 64.5 -25.5t25.5 -64.5q0 -35 -18 -56l-104 -138h-4v278q18 6 36 6z" />
    <glyph glyph-name="Rcaron" unicode="&#x158;" horiz-adv-x="664" 
d="M361 735q110 0 185.5 -64t75.5 -174q0 -75 -36.5 -129.5t-98.5 -82.5l171 -285h-178l-154 259h-101v-259h-152v735h288zM347 603h-122v-212h122q55 0 87.5 27.5t32.5 78.5q0 50 -32.5 78t-87.5 28zM495 915l-174 -154l-175 154h116l59 -49l58 49h116z" />
    <glyph glyph-name="rcaron" unicode="&#x159;" horiz-adv-x="368" 
d="M353 517v-146h-12q-74 0 -127 -67v-304h-147v507h131l9 -67q20 34 58 55.5t88 21.5zM397 756l-167 -192l-167 192h113l54 -57l54 57h113z" />
    <glyph glyph-name="Sacute" unicode="&#x15a;" horiz-adv-x="602" 
d="M297 748q157 0 257 -77l-79 -126q-80 64 -179 64q-105 0 -105 -80q0 -32 28.5 -50.5t109.5 -33.5q138 -29 194 -81.5t56 -140.5q0 -107 -74.5 -171.5t-203.5 -64.5q-171 0 -285 98l83 127q37 -39 94 -62.5t113 -23.5q58 0 89.5 21.5t31.5 61.5q0 33 -31 53t-111 35
q-136 29 -191.5 84t-55.5 141q0 100 71 163t188 63zM515 899l-157 -120h-142l126 120h173z" />
    <glyph glyph-name="sacute" unicode="&#x15b;" horiz-adv-x="471" 
d="M257 517q113 0 176 -55l-55 -104q-54 43 -121 43q-66 0 -66 -40q0 -19 18 -29.5t73 -23.5q159 -39 159 -150q0 -76 -59.5 -122t-161.5 -46q-123 0 -194 61l56 105q60 -51 139 -51q72 0 72 43q0 21 -18 33t-68 24q-85 21 -124 54.5t-39 91.5q0 76 56.5 121t156.5 45z
M470 718l-172 -145h-127l134 145h165z" />
    <glyph glyph-name="Scircumflex" unicode="&#x15c;" horiz-adv-x="602" 
d="M297 748q157 0 257 -77l-79 -126q-80 64 -179 64q-105 0 -105 -80q0 -32 28.5 -50.5t109.5 -33.5q138 -29 194 -81.5t56 -140.5q0 -107 -74.5 -171.5t-203.5 -64.5q-171 0 -285 98l83 127q37 -39 94 -62.5t113 -23.5q58 0 89.5 21.5t31.5 61.5q0 33 -31 53t-111 35
q-136 29 -191.5 84t-55.5 141q0 100 71 163t188 63zM299 933l174 -154h-116l-58 49l-59 -49h-116z" />
    <glyph glyph-name="scircumflex" unicode="&#x15d;" horiz-adv-x="471" 
d="M257 517q113 0 176 -55l-55 -104q-54 43 -121 43q-66 0 -66 -40q0 -19 18 -29.5t73 -23.5q159 -39 159 -150q0 -76 -59.5 -122t-161.5 -46q-123 0 -194 61l56 105q60 -51 139 -51q72 0 72 43q0 21 -18 33t-68 24q-85 21 -124 54.5t-39 91.5q0 76 56.5 121t156.5 45z
M245 766l167 -192h-113l-54 57l-54 -57h-113z" />
    <glyph glyph-name="Scedilla" unicode="&#x15e;" horiz-adv-x="602" 
d="M297 748q157 0 257 -77l-79 -126q-80 64 -179 64q-105 0 -105 -80q0 -32 28.5 -50.5t109.5 -33.5q138 -29 194 -81.5t56 -140.5q0 -101 -68 -165t-186 -70l-6 -35q43 -3 69.5 -29.5t26.5 -70.5q0 -51 -34 -80t-87 -29q-68 0 -100 42l47 55q23 -25 51 -25q39 0 39 37
q0 34 -45 37q-26 0 -49 -7l-3 4l20 102q-144 14 -238 96l83 127q37 -39 94 -62.5t113 -23.5q58 0 89.5 21.5t31.5 61.5q0 33 -31 53t-111 35q-136 29 -191.5 84t-55.5 141q0 100 71 163t188 63z" />
    <glyph glyph-name="scedilla" unicode="&#x15f;" horiz-adv-x="471" 
d="M257 517q113 0 176 -55l-55 -104q-54 43 -121 43q-66 0 -66 -40q0 -19 18 -29.5t73 -23.5q159 -39 159 -150q0 -69 -49 -113.5t-135 -52.5l-7 -39q43 -3 69.5 -29.5t26.5 -70.5q0 -51 -34 -80t-87 -29q-68 0 -100 42l47 55q23 -25 51 -25q39 0 39 37q0 34 -45 37
q-26 0 -49 -7l-3 4l20 105q-104 10 -159 59l56 105q60 -51 139 -51q72 0 72 43q0 21 -18 33t-68 24q-85 21 -124 54.5t-39 91.5q0 76 56.5 121t156.5 45z" />
    <glyph glyph-name="Scaron" unicode="&#x160;" horiz-adv-x="602" 
d="M297 748q157 0 257 -77l-79 -126q-80 64 -179 64q-105 0 -105 -80q0 -32 28.5 -50.5t109.5 -33.5q138 -29 194 -81.5t56 -140.5q0 -107 -74.5 -171.5t-203.5 -64.5q-171 0 -285 98l83 127q37 -39 94 -62.5t113 -23.5q58 0 89.5 21.5t31.5 61.5q0 33 -31 53t-111 35
q-136 29 -191.5 84t-55.5 141q0 100 71 163t188 63zM473 922l-174 -154l-175 154h116l59 -49l58 49h116z" />
    <glyph glyph-name="scaron" unicode="&#x161;" horiz-adv-x="471" 
d="M257 517q113 0 176 -55l-55 -104q-54 43 -121 43q-66 0 -66 -40q0 -19 18 -29.5t73 -23.5q159 -39 159 -150q0 -76 -59.5 -122t-161.5 -46q-123 0 -194 61l56 105q60 -51 139 -51q72 0 72 43q0 21 -18 33t-68 24q-85 21 -124 54.5t-39 91.5q0 76 56.5 121t156.5 45z
M412 756l-167 -192l-167 192h113l54 -57l54 57h113z" />
    <glyph glyph-name="Tcommaaccent" unicode="&#x162;" horiz-adv-x="662" 
d="M646 735v-134h-239v-601h-152v601h-238v134h629zM304 -45q39 0 64.5 -25.5t25.5 -64.5q0 -35 -18 -56l-104 -138h-4v278q18 6 36 6z" />
    <glyph glyph-name="tcommaaccent" unicode="&#x163;" horiz-adv-x="424" 
d="M248 675v-168h145v-124h-145v-192q0 -33 19 -51t51 -18q39 0 65 15l37 -116q-52 -31 -116 -31q-94 0 -148.5 52t-54.5 147v194h-91v124h91v168h147zM191 -45q39 0 64.5 -25.5t25.5 -64.5q0 -35 -18 -56l-104 -138h-4v278q18 6 36 6z" />
    <glyph glyph-name="Tcaron" unicode="&#x164;" horiz-adv-x="662" 
d="M646 735v-134h-239v-601h-152v601h-238v134h629zM504 915l-174 -154l-175 154h116l59 -49l58 49h116z" />
    <glyph glyph-name="tcaron" unicode="&#x165;" horiz-adv-x="615" 
d="M248 675v-168h145v-124h-145v-192q0 -33 19 -51t51 -18q39 0 65 15l37 -116q-52 -31 -116 -31q-94 0 -148.5 52t-54.5 147v194h-91v124h91v168h147zM485 759q40 0 65.5 -26t25.5 -65q0 -29 -18 -56l-104 -176h-4v317q18 6 35 6z" />
    <glyph glyph-name="Tbar" unicode="&#x166;" horiz-adv-x="662" 
d="M646 735v-134h-239v-206h140v-98h-140v-297h-152v297h-140v98h140v206h-238v134h629z" />
    <glyph glyph-name="tbar" unicode="&#x167;" horiz-adv-x="424" 
d="M248 675v-168h145v-99h-145v-77h145v-98h-145v-42q0 -33 21.5 -51t59.5 -18q37 0 61 11l26 -118q-40 -25 -104 -25q-98 0 -154.5 52t-56.5 147v44h-91v98h91v77h-91v99h91v168h147z" />
    <glyph glyph-name="Utilde" unicode="&#x168;" horiz-adv-x="694" 
d="M630 735v-471q0 -128 -73.5 -202.5t-209.5 -74.5t-209.5 74.5t-73.5 202.5v471h153v-461q0 -68 33 -108t97 -40q63 0 97 40t34 108v461h152zM289 925q31 0 54.5 -17.5t40 -34.5t30.5 -17q30 0 30 63h79q0 -73 -33.5 -112t-84.5 -39q-26 0 -45 11t-28 23.5t-21.5 23.5
t-26.5 11q-34 0 -34 -63h-79q0 75 33.5 113t84.5 38z" />
    <glyph glyph-name="utilde" unicode="&#x169;" 
d="M525 507v-507h-132l-7 55q-47 -65 -147 -65q-88 0 -135.5 59.5t-47.5 163.5v294h147v-286q0 -42 20.5 -67.5t57.5 -25.5q58 0 97 60v319h147zM232 734q25 0 45 -11t31 -23.5t24 -23.5t25 -11q30 0 30 63h79q0 -76 -33.5 -116.5t-84.5 -40.5q-26 0 -45 11t-28 23.5
t-21.5 23.5t-26.5 11q-34 0 -34 -63h-79q0 78 33.5 117.5t84.5 39.5z" />
    <glyph glyph-name="Umacron" unicode="&#x16a;" horiz-adv-x="694" 
d="M630 735v-471q0 -128 -73.5 -202.5t-209.5 -74.5t-209.5 74.5t-73.5 202.5v471h153v-461q0 -68 33 -108t97 -40q63 0 97 40t34 108v461h152zM483 883v-98h-274v98h274z" />
    <glyph glyph-name="umacron" unicode="&#x16b;" 
d="M525 507v-507h-132l-7 55q-47 -65 -147 -65q-88 0 -135.5 59.5t-47.5 163.5v294h147v-286q0 -42 20.5 -67.5t57.5 -25.5q58 0 97 60v319h147zM426 690v-98h-274v98h274z" />
    <glyph glyph-name="Ubreve" unicode="&#x16c;" horiz-adv-x="694" 
d="M630 735v-471q0 -128 -73.5 -202.5t-209.5 -74.5t-209.5 74.5t-73.5 202.5v471h153v-461q0 -68 33 -108t97 -40q63 0 97 40t34 108v461h152zM512 931q0 -69 -47 -114.5t-118 -45.5q-72 0 -119 45.5t-47 114.5h100q0 -34 18 -56t48 -22q29 0 47 22t18 56h100z" />
    <glyph glyph-name="ubreve" unicode="&#x16d;" 
d="M525 507v-507h-132l-7 55q-47 -65 -147 -65q-88 0 -135.5 59.5t-47.5 163.5v294h147v-286q0 -42 20.5 -67.5t57.5 -25.5q58 0 97 60v319h147zM455 737q0 -73 -47 -120.5t-118 -47.5t-118.5 47.5t-47.5 120.5h100q0 -32 18.5 -52.5t47.5 -20.5q28 0 46.5 20.5t18.5 52.5
h100z" />
    <glyph glyph-name="Uring" unicode="&#x16e;" horiz-adv-x="694" 
d="M630 735v-471q0 -128 -73.5 -202.5t-209.5 -74.5t-209.5 74.5t-73.5 202.5v471h153v-461q0 -68 33 -108t97 -40q63 0 97 40t34 108v461h152zM348 1010q52 0 86.5 -34.5t34.5 -86.5t-34.5 -86t-86.5 -34q-53 0 -88 34t-35 86t35 86.5t88 34.5zM348 933q-18 0 -30.5 -12.5
t-12.5 -31.5t12.5 -31t30.5 -12q17 0 29 12t12 31t-12 31.5t-29 12.5z" />
    <glyph glyph-name="uring" unicode="&#x16f;" 
d="M525 507v-507h-132l-7 55q-47 -65 -147 -65q-88 0 -135.5 59.5t-47.5 163.5v294h147v-286q0 -42 20.5 -67.5t57.5 -25.5q58 0 97 60v319h147zM291 809q52 0 86.5 -34.5t34.5 -86.5t-34.5 -86t-86.5 -34q-53 0 -88 34t-35 86t35 86.5t88 34.5zM291 732q-18 0 -30.5 -12.5
t-12.5 -31.5t12.5 -31t30.5 -12q17 0 29 12t12 31t-12 31.5t-29 12.5z" />
    <glyph glyph-name="Uhungarumlaut" unicode="&#x170;" horiz-adv-x="694" 
d="M630 735v-471q0 -128 -73.5 -202.5t-209.5 -74.5t-209.5 74.5t-73.5 202.5v471h153v-461q0 -68 33 -108t97 -40q63 0 97 40t34 108v461h152zM400 894l-99 -121h-104l82 121h121zM587 894l-99 -121h-104l82 121h121z" />
    <glyph glyph-name="uhungarumlaut" unicode="&#x171;" 
d="M525 507v-507h-132l-7 55q-47 -65 -147 -65q-88 0 -135.5 59.5t-47.5 163.5v294h147v-286q0 -42 20.5 -67.5t57.5 -25.5q58 0 97 60v319h147zM345 721l-103 -150h-105l86 150h122zM534 721l-102 -150h-105l86 150h121z" />
    <glyph glyph-name="Uogonek" unicode="&#x172;" horiz-adv-x="694" 
d="M630 735v-471q0 -96 -42 -163t-122 -95q-31 -16 -31 -52q0 -25 16 -39.5t40 -14.5q19 0 35 10l30 -79q-28 -14 -69 -14q-62 0 -103.5 35t-41.5 101q0 14 4 34q-135 0 -208.5 74.5t-73.5 202.5v471h153v-461q0 -68 33 -108t97 -40q63 0 97 40t34 108v461h152z" />
    <glyph glyph-name="uogonek" unicode="&#x173;" 
d="M525 507v-507h-21q-41 -16 -41 -56q0 -25 16 -39.5t40 -14.5q19 0 35 10l30 -79q-28 -14 -69 -14q-62 0 -103.5 35t-41.5 101q0 42 21 71l-5 41q-47 -65 -147 -65q-88 0 -135.5 59.5t-47.5 163.5v294h147v-286q0 -42 20.5 -67.5t57.5 -25.5q58 0 97 60v319h147z" />
    <glyph glyph-name="Wcircumflex" unicode="&#x174;" horiz-adv-x="962" 
d="M955 735l-299 -746h-4l-171 403l-171 -403h-4l-299 746h168l143 -394l161 394h4l161 -394l143 394h168zM481 926l174 -154h-116l-58 49l-59 -49h-116z" />
    <glyph glyph-name="wcircumflex" unicode="&#x175;" horiz-adv-x="774" 
d="M767 507l-243 -517h-4l-133 250l-133 -250h-4l-243 517h165l94 -240l119 240h4l119 -240l94 240h165zM387 766l167 -192h-113l-54 57l-54 -57h-113z" />
    <glyph glyph-name="Ycircumflex" unicode="&#x176;" horiz-adv-x="696" 
d="M692 735l-267 -434v-301h-152v298l-269 437h177l167 -284l167 284h177zM348 926l174 -154h-116l-58 49l-59 -49h-116z" />
    <glyph glyph-name="ycircumflex" unicode="&#x177;" horiz-adv-x="579" 
d="M570 507l-394 -737h-168l202 357l-200 380h164l115 -248l116 248h165zM276 766l167 -192h-113l-54 57l-54 -57h-113z" />
    <glyph glyph-name="Ydieresis" unicode="&#x178;" horiz-adv-x="696" 
d="M692 735l-267 -434v-301h-152v298l-269 437h177l167 -284l167 284h177zM252 906q31 0 50.5 -19.5t19.5 -50.5q0 -30 -19.5 -50t-50.5 -20t-50.5 20t-19.5 50q0 31 19.5 50.5t50.5 19.5zM444 906q30 0 50 -19.5t20 -50.5q0 -30 -20 -50t-50 -20q-31 0 -50.5 20t-19.5 50
q0 31 19.5 50.5t50.5 19.5z" />
    <glyph glyph-name="Zacute" unicode="&#x179;" horiz-adv-x="594" 
d="M559 735v-4l-308 -598h319v-133h-551v4l309 598h-294v133h525zM509 892l-157 -120h-142l126 120h173z" />
    <glyph glyph-name="zacute" unicode="&#x17a;" horiz-adv-x="479" 
d="M455 507v-4l-210 -379h209v-124h-432v4l210 379h-197v124h420zM463 718l-172 -145h-127l134 145h165z" />
    <glyph glyph-name="Zdotaccent" unicode="&#x17b;" horiz-adv-x="594" 
d="M559 735v-4l-308 -598h319v-133h-551v4l309 598h-294v133h525zM294 926q34 0 56.5 -22t22.5 -57q0 -34 -22.5 -56t-56.5 -22t-56.5 22t-22.5 56q0 35 22.5 57t56.5 22z" />
    <glyph glyph-name="zdotaccent" unicode="&#x17c;" horiz-adv-x="479" 
d="M455 507v-4l-210 -379h209v-124h-432v4l210 379h-197v124h420zM237 750q38 0 62.5 -24.5t24.5 -61.5t-24.5 -61.5t-62.5 -24.5q-37 0 -61.5 24t-24.5 62t24.5 62t61.5 24z" />
    <glyph glyph-name="Zcaron" unicode="&#x17d;" horiz-adv-x="594" 
d="M559 735v-4l-308 -598h319v-133h-551v4l309 598h-294v133h525zM468 915l-174 -154l-175 154h116l59 -49l58 49h116z" />
    <glyph glyph-name="zcaron" unicode="&#x17e;" horiz-adv-x="479" 
d="M455 507v-4l-210 -379h209v-124h-432v4l210 379h-197v124h420zM405 756l-167 -192l-167 192h113l54 -57l54 57h113z" />
    <glyph glyph-name="florin" unicode="&#x192;" horiz-adv-x="421" 
d="M334 757q73 0 118 -32l-52 -117q-23 21 -57 21q-57 0 -65 -74l-5 -48h112l-13 -124h-113l-49 -443q-9 -81 -63 -130.5t-138 -49.5q-73 0 -118 32l52 117q23 -21 57 -21q58 0 64 74l47 421h-74l13 124h75l8 70q9 81 63 130.5t138 49.5z" />
    <glyph glyph-name="Aringacute" unicode="&#x1fa;" horiz-adv-x="724" 
d="M364 748l355 -748h-168l-48 114h-282l-48 -114h-168l355 748h4zM559 1097l-131 -111q55 -35 55 -102q0 -52 -34.5 -86t-86.5 -34q-53 0 -88 34t-35 86q0 63 49 99l106 114h165zM362 453l-93 -220h186zM362 928q-18 0 -30.5 -12.5t-12.5 -31.5t12.5 -31t30.5 -12
q17 0 29 12t12 31t-12 31.5t-29 12.5z" />
    <glyph glyph-name="aringacute" unicode="&#x1fb;" horiz-adv-x="608" 
d="M253 517q101 0 148 -67l8 57h132v-507h-132l-8 56q-48 -66 -148 -66t-163 74t-63 189t63 189.5t163 74.5zM501 881l-138 -106q50 -35 50 -99q0 -52 -34.5 -86t-86.5 -34q-53 0 -88 34t-35 86q0 50 33 85l126 120h173zM289 389q-51 0 -82.5 -37t-31.5 -99t31.5 -98.5
t82.5 -36.5q65 0 104 63v144q-39 64 -104 64zM292 720q-18 0 -30.5 -12.5t-12.5 -31.5t12.5 -31t30.5 -12q17 0 29 12t12 31t-12 31.5t-29 12.5z" />
    <glyph glyph-name="AEacute" unicode="&#x1fc;" horiz-adv-x="890" 
d="M846 735v-139h-375l64 -159h269v-129h-216l70 -169h196v-139h-305l-47 116h-280l-47 -116h-170l326 735h515zM362 466l-94 -235h188zM731 892l-157 -120h-142l126 120h173z" />
    <glyph glyph-name="aeacute" unicode="&#x1fd;" horiz-adv-x="947" 
d="M684 517q111 0 171.5 -73t60.5 -186v-44h-354q16 -103 127 -103q75 0 116 53l96 -83q-78 -91 -210 -91q-108 0 -154 65l-6 -55h-122l-8 56q-48 -66 -148 -66t-163 74t-63 189t63 189.5t163 74.5q101 0 148 -67l8 57h124l7 -56q51 66 144 66zM289 389q-51 0 -82.5 -37
t-31.5 -99t31.5 -98.5t82.5 -36.5q65 0 104 63v144q-39 64 -104 64zM667 406q-42 0 -71 -26t-35 -74h210q-2 44 -29.5 72t-74.5 28zM695 718l-172 -145h-127l134 145h165z" />
    <glyph glyph-name="Oslashacute" unicode="&#x1fe;" horiz-adv-x="814" 
d="M407 748q70 0 133 -23l50 90h130l-79 -144q68 -52 106 -131t38 -174q0 -164 -108 -271.5t-270 -107.5q-67 0 -132 21l-49 -88h-131l79 142q-68 52 -106 130.5t-38 173.5q0 166 107 274t270 108zM407 609q-98 0 -160.5 -68t-62.5 -175q0 -105 62 -173l225 407q-30 9 -64 9
zM630 366q0 106 -62 174l-224 -406q32 -8 63 -8q98 0 160.5 67.5t62.5 172.5zM623 902l-157 -120h-142l126 120h173z" />
    <glyph glyph-name="oslashacute" unicode="&#x1ff;" horiz-adv-x="588" 
d="M293 517q46 0 90 -14l40 74h93l-60 -111q105 -78 105 -214q0 -114 -76 -188t-192 -74q-43 0 -89 13l-39 -73h-93l59 109q-104 76 -104 213q0 114 75.5 189.5t190.5 75.5zM502 718l-172 -145h-127l134 145h165zM293 396q-55 0 -90.5 -41t-35.5 -103q0 -57 29 -94l127 234
q-13 4 -30 4zM420 252q0 54 -29 94l-127 -233q14 -3 29 -3q55 0 91 40.5t36 101.5z" />
    <glyph glyph-name="Scommaaccent" unicode="&#x218;" horiz-adv-x="602" 
d="M297 748q157 0 257 -77l-79 -126q-80 64 -179 64q-105 0 -105 -80q0 -32 28.5 -50.5t109.5 -33.5q138 -29 194 -81.5t56 -140.5q0 -107 -74.5 -171.5t-203.5 -64.5q-171 0 -285 98l83 127q37 -39 94 -62.5t113 -23.5q58 0 89.5 21.5t31.5 61.5q0 33 -31 53t-111 35
q-136 29 -191.5 84t-55.5 141q0 100 71 163t188 63zM294 -45q39 0 64.5 -25.5t25.5 -64.5q0 -35 -18 -56l-104 -138h-4v278q18 6 36 6z" />
    <glyph glyph-name="scommaaccent" unicode="&#x219;" horiz-adv-x="471" 
d="M257 517q113 0 176 -55l-55 -104q-54 43 -121 43q-66 0 -66 -40q0 -19 18 -29.5t73 -23.5q159 -39 159 -150q0 -76 -59.5 -122t-161.5 -46q-123 0 -194 61l56 105q60 -51 139 -51q72 0 72 43q0 21 -18 33t-68 24q-85 21 -124 54.5t-39 91.5q0 76 56.5 121t156.5 45z
M207 -45q39 0 64.5 -25.5t25.5 -64.5q0 -35 -18 -56l-104 -138h-4v278q18 6 36 6z" />
    <glyph glyph-name="circumflex" unicode="&#x2c6;" horiz-adv-x="368" 
d="M184 766l167 -192h-113l-54 57l-54 -57h-113z" />
    <glyph glyph-name="caron" unicode="&#x2c7;" horiz-adv-x="368" 
d="M351 756l-167 -192l-167 192h113l54 -57l54 57h113z" />
    <glyph glyph-name="breve" unicode="&#x2d8;" horiz-adv-x="365" 
d="M348 737q0 -73 -47 -120.5t-118 -47.5t-118.5 47.5t-47.5 120.5h100q0 -32 18.5 -52.5t47.5 -20.5q28 0 46.5 20.5t18.5 52.5h100z" />
    <glyph glyph-name="dotaccent" unicode="&#x2d9;" horiz-adv-x="207" 
d="M103 750q38 0 62.5 -24.5t24.5 -61.5t-24.5 -61.5t-62.5 -24.5q-37 0 -61.5 24t-24.5 62t24.5 62t61.5 24z" />
    <glyph glyph-name="ring" unicode="&#x2da;" horiz-adv-x="279" 
d="M140 809q52 0 86.5 -34.5t34.5 -86.5t-34.5 -86t-86.5 -34q-53 0 -88 34t-35 86t35 86.5t88 34.5zM140 732q-18 0 -30.5 -12.5t-12.5 -31.5t12.5 -31t30.5 -12q17 0 29 12t12 31t-12 31.5t-29 12.5z" />
    <glyph glyph-name="ogonek" unicode="&#x2db;" horiz-adv-x="248" 
d="M112 66l42 -66q-41 -16 -41 -56q0 -25 16 -39.5t40 -14.5q19 0 35 10l30 -79q-28 -14 -69 -14q-62 0 -103.5 35t-41.5 101q0 89 92 123z" />
    <glyph glyph-name="tilde" unicode="&#x2dc;" horiz-adv-x="387" 
d="M135 734q25 0 45 -11t31 -23.5t24 -23.5t25 -11q30 0 30 63h79q0 -76 -33.5 -116.5t-84.5 -40.5q-26 0 -45 11t-28 23.5t-21.5 23.5t-26.5 11q-34 0 -34 -63h-79q0 78 33.5 117.5t84.5 39.5z" />
    <glyph glyph-name="hungarumlaut" unicode="&#x2dd;" horiz-adv-x="426" 
d="M254 721l-103 -150h-105l86 150h122zM443 721l-102 -150h-105l86 150h121z" />
    <glyph glyph-name="uni03A9" unicode="&#x3a9;" horiz-adv-x="858" 
d="M431 750q153 0 246 -96.5t93 -246.5q0 -58 -16.5 -110t-33.5 -78.5t-42 -57.5h145v-161h-345v153q125 111 125 247q0 87 -46 138t-126 51t-126.5 -51t-46.5 -138q0 -135 126 -247v-153h-345v161h145q-26 32 -42.5 58t-33.5 78t-17 110q0 150 93.5 246.5t246.5 96.5z" />
    <glyph glyph-name="pi" unicode="&#x3c0;" horiz-adv-x="752" 
d="M630 576l115 -67q-43 -142 -179 -142h-8l-23 -185q-7 -49 26 -49q25 0 50 20l51 -105q-74 -56 -162 -56q-37 0 -61 12.5t-33.5 33.5t-12.5 48.5t2 56.5l29 224h-81l-28 -217q-11 -82 -44 -150h-148q51 105 60 173l26 194h-16q-62 0 -107 -58l-69 102q47 48 90.5 69
t121.5 21h261q64 0 92 17t48 58z" />
    <glyph glyph-name="Wgrave" unicode="&#x1e80;" horiz-adv-x="962" 
d="M955 735l-299 -746h-4l-171 403l-171 -403h-4l-299 746h168l143 -394l161 394h4l161 -394l143 394h168zM424 892l126 -120h-142l-157 120h173z" />
    <glyph glyph-name="wgrave" unicode="&#x1e81;" horiz-adv-x="774" 
d="M767 507l-243 -517h-4l-133 250l-133 -250h-4l-243 517h165l94 -240l119 240h4l119 -240l94 240h165zM321 718l134 -145h-127l-172 145h165z" />
    <glyph glyph-name="Wacute" unicode="&#x1e82;" horiz-adv-x="962" 
d="M955 735l-299 -746h-4l-171 403l-171 -403h-4l-299 746h168l143 -394l161 394h4l161 -394l143 394h168zM696 892l-157 -120h-142l126 120h173z" />
    <glyph glyph-name="wacute" unicode="&#x1e83;" horiz-adv-x="774" 
d="M767 507l-243 -517h-4l-133 250l-133 -250h-4l-243 517h165l94 -240l119 240h4l119 -240l94 240h165zM611 718l-172 -145h-127l134 145h165z" />
    <glyph glyph-name="Wdieresis" unicode="&#x1e84;" horiz-adv-x="962" 
d="M955 735l-299 -746h-4l-171 403l-171 -403h-4l-299 746h168l143 -394l161 394h4l161 -394l143 394h168zM385 906q31 0 50.5 -19.5t19.5 -50.5q0 -30 -19.5 -50t-50.5 -20t-50.5 20t-19.5 50q0 31 19.5 50.5t50.5 19.5zM577 906q30 0 50 -19.5t20 -50.5q0 -30 -20 -50
t-50 -20q-31 0 -50.5 20t-19.5 50q0 31 19.5 50.5t50.5 19.5z" />
    <glyph glyph-name="wdieresis" unicode="&#x1e85;" horiz-adv-x="774" 
d="M767 507l-243 -517h-4l-133 250l-133 -250h-4l-243 517h165l94 -240l119 240h4l119 -240l94 240h165zM291 719q31 0 50.5 -19.5t19.5 -50.5t-19.5 -50.5t-50.5 -19.5t-50.5 19.5t-19.5 50.5t19.5 50.5t50.5 19.5zM483 719q30 0 50 -19.5t20 -50.5t-20 -50.5t-50 -19.5
q-31 0 -50.5 19.5t-19.5 50.5t19.5 50.5t50.5 19.5z" />
    <glyph glyph-name="Ygrave" unicode="&#x1ef2;" horiz-adv-x="696" 
d="M692 735l-267 -434v-301h-152v298l-269 437h177l167 -284l167 284h177zM291 892l126 -120h-142l-157 120h173z" />
    <glyph glyph-name="ygrave" unicode="&#x1ef3;" horiz-adv-x="579" 
d="M570 507l-394 -737h-168l202 357l-200 380h164l115 -248l116 248h165zM211 718l134 -145h-127l-172 145h165z" />
    <glyph glyph-name="endash" unicode="&#x2013;" horiz-adv-x="550" 
d="M512 326v-135h-475v135h475z" />
    <glyph glyph-name="emdash" unicode="&#x2014;" horiz-adv-x="794" 
d="M757 326v-135h-720v135h720z" />
    <glyph glyph-name="quoteleft" unicode="&#x2018;" horiz-adv-x="211" 
d="M163 803v-317q-19 -7 -35 -7q-39 0 -65 26t-26 65q0 28 19 56l103 177h4z" />
    <glyph glyph-name="quoteright" unicode="&#x2019;" horiz-adv-x="211" 
d="M82 759q40 0 65.5 -26t25.5 -65q0 -29 -18 -56l-104 -176h-4v317q18 6 35 6z" />
    <glyph glyph-name="quotesinglbase" unicode="&#x201a;" horiz-adv-x="211" 
d="M82 157q40 0 65.5 -26t25.5 -65q0 -29 -18 -56l-104 -176h-4v316q21 7 35 7z" />
    <glyph glyph-name="quotedblleft" unicode="&#x201c;" horiz-adv-x="411" 
d="M163 803v-317q-19 -7 -35 -7q-39 0 -65 26t-26 65q0 28 19 56l103 177h4zM363 803v-317q-19 -7 -35 -7q-39 0 -65 26t-26 65q0 28 19 56l103 177h4z" />
    <glyph glyph-name="quotedblright" unicode="&#x201d;" horiz-adv-x="411" 
d="M82 759q40 0 65.5 -26t25.5 -65q0 -29 -18 -56l-104 -176h-4v317q18 6 35 6zM282 759q40 0 65.5 -26t25.5 -65q0 -29 -18 -56l-104 -176h-4v317q18 6 35 6z" />
    <glyph glyph-name="quotedblbase" unicode="&#x201e;" horiz-adv-x="430" 
d="M82 157q40 0 65.5 -26t25.5 -65q0 -29 -18 -56l-104 -176h-4v316q21 7 35 7zM301 157q40 0 65.5 -26t25.5 -65q0 -29 -18 -56l-104 -176h-4v316q21 7 35 7z" />
    <glyph glyph-name="dagger" unicode="&#x2020;" horiz-adv-x="495" 
d="M319 735v-166h152v-131h-152v-438h-144v438h-151v131h151v166h144z" />
    <glyph glyph-name="daggerdbl" unicode="&#x2021;" horiz-adv-x="497" 
d="M321 735v-166h152v-131h-152v-141h150v-131h-150v-166h-145v166h-152v131h152v141h-150v131h150v166h145z" />
    <glyph glyph-name="bullet" unicode="&#x2022;" horiz-adv-x="295" 
d="M147 376q51 0 84.5 -33.5t33.5 -84.5q0 -50 -33.5 -83.5t-84.5 -33.5q-50 0 -83.5 33.5t-33.5 83.5q0 51 33.5 84.5t83.5 33.5z" />
    <glyph glyph-name="ellipsis" unicode="&#x2026;" horiz-adv-x="775" 
d="M127 171q39 0 65 -25.5t26 -64.5q0 -40 -26 -65.5t-65 -25.5q-40 0 -65.5 25.5t-25.5 65.5q0 39 25.5 64.5t65.5 25.5zM388 171q39 0 64.5 -25t25.5 -65t-25.5 -65.5t-64.5 -25.5q-40 0 -65.5 25.5t-25.5 65.5q0 39 25.5 64.5t65.5 25.5zM649 171q39 0 64.5 -25t25.5 -65
t-25.5 -65.5t-64.5 -25.5q-40 0 -65.5 25.5t-25.5 65.5q0 39 25.5 64.5t65.5 25.5z" />
    <glyph glyph-name="perthousand" unicode="&#x2030;" horiz-adv-x="1313" 
d="M754 735l-472 -735h-141l473 735h140zM208 747q80 0 133 -53.5t53 -134.5t-53 -133.5t-133 -52.5q-81 0 -133.5 52.5t-52.5 133.5t52.5 134.5t133.5 53.5zM208 643q-33 0 -54.5 -23.5t-21.5 -60.5q0 -35 21.5 -58.5t54.5 -23.5q32 0 53.5 23.5t21.5 58.5q0 37 -21.5 60.5
t-53.5 23.5zM687 361q80 0 133 -53.5t53 -134.5t-53 -133.5t-133 -52.5t-133 52.5t-53 133.5t53 134.5t133 53.5zM687 257q-33 0 -54.5 -23.5t-21.5 -60.5q0 -35 21.5 -58.5t54.5 -23.5t54.5 23.5t21.5 58.5q0 37 -21.5 60.5t-54.5 23.5zM1098 361q80 0 133 -53.5t53 -134.5
t-53 -133.5t-133 -52.5q-81 0 -133.5 52.5t-52.5 133.5t52.5 134.5t133.5 53.5zM1098 257q-33 0 -54.5 -23.5t-21.5 -60.5q0 -35 21.5 -58.5t54.5 -23.5t54.5 23.5t21.5 58.5q0 37 -21.5 60.5t-54.5 23.5z" />
    <glyph glyph-name="guilsinglleft" unicode="&#x2039;" horiz-adv-x="394" 
d="M379 458l-194 -202l194 -202h-174l-190 200v4l190 200h174z" />
    <glyph glyph-name="guilsinglright" unicode="&#x203a;" horiz-adv-x="394" 
d="M189 458l190 -200v-4l-190 -200h-174l194 202l-194 202h174z" />
    <glyph glyph-name="fraction" unicode="&#x2044;" horiz-adv-x="237" 
d="M367 735l-364 -735h-133l364 735h133z" />
    <glyph glyph-name="zero.sups" unicode="&#x2070;" horiz-adv-x="382" 
d="M199 820q75 0 118.5 -58.5t43.5 -157.5q0 -100 -43.5 -159t-118.5 -59t-119 59t-44 159q0 99 44 157.5t119 58.5zM199 728q-55 0 -55 -124q0 -125 55 -125t55 125q0 124 -55 124z" />
    <glyph glyph-name="four.sups" unicode="&#x2074;" horiz-adv-x="377" 
d="M324 822v-305h44v-76h-44v-47h-105v47h-210v2l313 379h2zM230 607l-78 -95h78v95z" />
    <glyph glyph-name="five.sups" unicode="&#x2075;" horiz-adv-x="354" 
d="M312 813v-93h-151v-61q14 4 27 4q67 0 109 -34.5t42 -105.5q0 -62 -41.5 -99.5t-111.5 -37.5q-121 0 -152 98l90 43q7 -47 55 -47q23 0 38 13.5t15 35.5q0 21 -15 34.5t-40 13.5q-30 0 -48 -18l-74 32v222h257z" />
    <glyph glyph-name="six.sups" unicode="&#x2076;" horiz-adv-x="365" 
d="M311 813l-92 -143q55 -9 91 -48t36 -93q0 -62 -45.5 -102.5t-111.5 -40.5q-65 0 -110 40.5t-45 102.5q0 44 24 79l133 205h120zM189 586q-22 0 -36.5 -15.5t-14.5 -41.5q0 -25 14.5 -39.5t36.5 -14.5q24 0 38.5 14.5t14.5 39.5q0 27 -14.5 42t-38.5 15z" />
    <glyph glyph-name="seven.sups" unicode="&#x2077;" horiz-adv-x="355" 
d="M353 813v-4l-206 -415h-114l165 323h-166v96h321z" />
    <glyph glyph-name="eight.sups" unicode="&#x2078;" horiz-adv-x="365" 
d="M189 821q59 0 100.5 -35.5t41.5 -89.5q0 -48 -41 -81q56 -40 56 -94q0 -59 -45.5 -97t-111.5 -38q-65 0 -110 38t-45 97q0 57 55 93q-41 34 -41 82q0 54 41 89.5t100 35.5zM189 569q-22 0 -37 -14t-15 -36q0 -21 15 -34t37 -13q23 0 38 13t15 34q0 22 -15 36t-38 14z
M189 737q-20 0 -33.5 -13.5t-13.5 -33.5q0 -19 13.5 -31.5t33.5 -12.5q21 0 34.5 12.5t13.5 31.5q0 20 -13.5 33.5t-34.5 13.5z" />
    <glyph glyph-name="nine.sups" unicode="&#x2079;" horiz-adv-x="365" 
d="M191 821q65 0 110 -40.5t45 -102.5q0 -44 -24 -79l-133 -205h-120l92 142q-55 9 -91 48t-36 94q0 62 45.5 102.5t111.5 40.5zM191 732q-24 0 -38.5 -14.5t-14.5 -39.5q0 -27 14.5 -42t38.5 -15q22 0 36.5 15.5t14.5 41.5q0 25 -14.5 39.5t-36.5 14.5z" />
    <glyph glyph-name="n.sups" unicode="&#x207f;" horiz-adv-x="431" 
d="M256 751q65 0 99 -42.5t34 -117.5v-203h-118v197q0 25 -12.5 40.5t-34.5 15.5q-37 0 -58 -35v-218h-117v356h105l5 -36q30 43 97 43z" />
    <glyph glyph-name="Euro" unicode="&#x20ac;" horiz-adv-x="665" 
d="M432 328v-94h-162q42 -116 148 -116q83 0 139 74l90 -105q-88 -100 -229 -100q-114 0 -195 65t-112 182h-81v94h66q-1 13 -1 40q0 29 1 44h-66v94h82q31 114 111.5 178t193.5 64q141 0 228 -100l-90 -105q-53 73 -138 73q-103 0 -145 -110h160v-94h-180q-2 -28 -2 -44
q0 -27 1 -40h181z" />
    <glyph glyph-name="afii61289" unicode="&#x2113;" horiz-adv-x="584" 
d="M346 750q75 0 124 -43.5t49 -122.5q0 -49 -18.5 -98.5t-53.5 -95t-67 -79t-77 -73.5v-65q0 -60 53 -60q12 0 24 4.5t20 9t18.5 16.5t15.5 18t16.5 22t14.5 21l84 -68q-40 -65 -97.5 -107t-129.5 -42q-76 0 -113 35.5t-37 90.5v23q-46 -42 -71 -63l-71 103q80 66 136 120
v266q0 97 44.5 142.5t135.5 45.5zM345 639q-53 0 -53 -64v-192q42 40 74 93.5t32 102.5q0 28 -14 44t-39 16z" />
    <glyph glyph-name="trademark" unicode="&#x2122;" horiz-adv-x="887" 
d="M372 735v-101h-121v-275h-106v275h-121v101h348zM850 742v-383h-105v125l-103 -130h-4l-102 130v-125h-105v383h2l207 -243l208 243h2z" />
    <glyph glyph-name="Omega" unicode="&#x2126;" horiz-adv-x="858" 
d="M431 750q153 0 246 -96.5t93 -246.5q0 -58 -16.5 -110t-33.5 -78.5t-42 -57.5h145v-161h-345v153q125 111 125 247q0 87 -46 138t-126 51t-126.5 -51t-46.5 -138q0 -135 126 -247v-153h-345v161h145q-26 32 -42.5 58t-33.5 78t-17 110q0 150 93.5 246.5t246.5 96.5z" />
    <glyph glyph-name="estimated" unicode="&#x212e;" horiz-adv-x="591" 
d="M308 502q-64 0 -102 -25q-34 -16 -34 -60v-110h257v110q0 28 -6 42.5t-26 22.5q-35 20 -89 20zM308 534q109 0 178.5 -68t69.5 -191h-384v-171q0 -44 35 -62q39 -23 101 -23q136 0 217 125l27 -17q-90 -140 -244 -140q-118 0 -195.5 75.5t-77.5 197.5q0 123 77.5 198.5
t195.5 75.5z" />
    <glyph glyph-name="partialdiff" unicode="&#x2202;" horiz-adv-x="548" 
d="M257 748q263 0 263 -415q0 -129 -34 -204q-62 -138 -211 -138q-107 0 -176.5 66.5t-69.5 172.5q0 107 67 173.5t169 66.5q69 0 108 -44q-2 87 -34.5 135.5t-92.5 48.5q-72 0 -115 -68l-98 92q81 114 224 114zM277 338q-44 0 -71.5 -30t-27.5 -78t27.5 -77.5t71.5 -29.5
q43 0 71 29.5t28 77.5t-28 78t-71 30z" />
    <glyph glyph-name="uni2206" unicode="&#x2206;" horiz-adv-x="721" 
d="M361 646l325 -646h-651zM361 380l-133 -264h265z" />
    <glyph glyph-name="product" unicode="&#x220f;" horiz-adv-x="706" 
d="M671 740v-138h-103v-703h-137v703h-156v-703h-138v703h-102v138h636z" />
    <glyph glyph-name="summation" unicode="&#x2211;" horiz-adv-x="610" 
d="M563 740v-148h-319l149 -208l-158 -236h340v-148h-540v99l187 282l-184 260v99h525z" />
    <glyph glyph-name="minus" unicode="&#x2212;" horiz-adv-x="512" 
d="M476 417v-134h-440v134h440z" />
    <glyph glyph-name="radical" unicode="&#x221a;" horiz-adv-x="697" 
d="M552 697l124 -53l-306 -719l-170 320l-109 -66l-68 109l251 150l92 -191z" />
    <glyph glyph-name="infinity" unicode="&#x221e;" horiz-adv-x="768" 
d="M545 493q84 0 136.5 -56.5t52.5 -140.5t-52.5 -141t-136.5 -57q-80 0 -164 80l-13 13l-13 -13q-69 -65 -144 -65q-79 0 -126.5 52t-47.5 130t47.5 131t126.5 53q70 0 143 -69l13 -13l9 11q40 41 79 63t90 22zM547 369q-25 0 -45.5 -14.5t-46.5 -44.5l-12 -15l13 -15
q19 -20 29 -29t27.5 -19t34.5 -10q29 0 47 21t18 53q0 31 -18 52t-47 21zM208 359q-25 0 -40 -18.5t-15 -45.5t15 -45t40 -18q41 0 77 47l11 15l-12 13q-42 52 -76 52z" />
    <glyph glyph-name="integral" unicode="&#x222b;" horiz-adv-x="434" 
d="M281 750q73 0 129 -23l-26 -115q-38 14 -68 14q-40 0 -40 -50v-591q0 -95 -33.5 -135.5t-105.5 -40.5q-71 0 -130 23l27 116q35 -15 69 -15q41 0 41 52v591q0 94 33 134t104 40z" />
    <glyph glyph-name="approxequal" unicode="&#x2248;" horiz-adv-x="603" 
d="M201 328q44 0 80.5 -20.5t66 -41t55.5 -20.5q67 0 97 71l84 -68q-26 -64 -74 -101t-107 -37q-46 0 -79.5 20.5t-62 41t-60.5 20.5q-68 0 -97 -71l-84 68q27 64 74.5 101t106.5 37zM201 578q35 0 66 -12.5t49.5 -28t42 -28t44.5 -12.5q68 0 97 71l84 -68q-26 -65 -74 -102
t-107 -37q-46 0 -79.5 20.5t-62 41t-60.5 20.5q-68 0 -97 -71l-84 68q26 65 73.5 101.5t107.5 36.5z" />
    <glyph glyph-name="notequal" unicode="&#x2260;" horiz-adv-x="512" 
d="M476 283v-134h-230l-33 -94h-124l33 94h-86v134h134l47 130h-181v135h229l46 126h124l-46 -126h87v-135h-135l-47 -130h182z" />
    <glyph glyph-name="lessequal" unicode="&#x2264;" horiz-adv-x="385" 
d="M368 621l-169 -164l169 -165h-185l-166 163v4l166 162h185zM368 241v-133h-351v133h351z" />
    <glyph glyph-name="greaterequal" unicode="&#x2265;" horiz-adv-x="385" 
d="M203 621l165 -162v-4l-165 -163h-186l170 165l-170 164h186zM368 241v-133h-351v133h351z" />
    <glyph glyph-name="lozenge" unicode="&#x25ca;" horiz-adv-x="569" 
d="M332 738l212 -402l-212 -401h-90l-212 401l212 402h90zM288 523l-105 -187l105 -188l104 188z" />
    <glyph glyph-name="commaaccent" unicode="&#xf6c3;" horiz-adv-x="199" 
d="M76 -45q39 0 64.5 -25.5t25.5 -64.5q0 -35 -18 -56l-104 -138h-4v278q18 6 36 6z" />
    <glyph glyph-name="CR" horiz-adv-x="250" 
 />
    <glyph glyph-name="germandbls.cap" horiz-adv-x="688" 
d="M344 748q170 0 280 -131l-111 -185q145 -53 145 -204q0 -107 -72.5 -174t-190.5 -67q-82 0 -128 24l35 135q34 -20 81 -20q46 0 78.5 32t32.5 81q0 116 -184 116l-2 5l125 214q-35 33 -97 33q-55 0 -87.5 -33.5t-32.5 -93.5v-480h-148v480q0 118 78 193t198 75z" />
    <glyph glyph-name="endash_guilsinglright" horiz-adv-x="668" 
d="M331 547l303 -272l-303 -273l-68 83l148 129h-377v120h379l-150 130z" />
    <glyph glyph-name="emdash_guilsinglright" horiz-adv-x="988" 
d="M651 547l303 -272l-303 -273l-68 83l148 129h-697v120h699l-150 130z" />
    <glyph glyph-name="guilsinglleft_endash" horiz-adv-x="668" 
d="M337 547l68 -83l-150 -130h379v-120h-377l148 -129l-68 -83l-303 273z" />
    <glyph glyph-name="guilsinglleft_emdash" horiz-adv-x="988" 
d="M337 547l68 -83l-150 -130h699v-120h-697l148 -129l-68 -83l-303 273z" />
    <glyph glyph-name="at.cap" horiz-adv-x="878" 
d="M438 774q184 0 298.5 -110.5t114.5 -287.5q0 -102 -49 -165t-134 -63q-46 0 -78.5 18t-45.5 45l-2 4q-53 -67 -137 -67q-83 0 -135 61.5t-52 156.5q0 96 52 157.5t135 61.5q84 0 124 -54l6 46h111v-295q0 -43 38 -43q34 0 52.5 37t18.5 100q0 138 -86 223.5t-231 85.5
q-139 0 -227 -89.5t-88 -228.5t85.5 -227.5t221.5 -88.5q69 0 129 24l24 -84q-70 -29 -153 -29q-176 0 -289.5 114t-113.5 291t115.5 292t295.5 115zM436 479q-42 0 -68 -30.5t-26 -82.5q0 -51 26 -81.5t68 -30.5q52 0 87 51v123q-34 51 -87 51z" />
    <glyph glyph-name="grave.cap" horiz-adv-x="334" 
d="M193 892l126 -120h-142l-157 120h173z" />
    <glyph glyph-name="acute.cap" horiz-adv-x="334" 
d="M314 892l-157 -120h-142l126 120h173z" />
    <glyph glyph-name="circumflex.cap" horiz-adv-x="384" 
d="M192 926l174 -154h-116l-58 49l-59 -49h-116z" />
    <glyph glyph-name="caron.cap" horiz-adv-x="384" 
d="M366 915l-174 -154l-175 154h116l59 -49l58 49h116z" />
    <glyph glyph-name="tilde.cap" horiz-adv-x="387" 
d="M135 925q31 0 54.5 -17.5t40 -34.5t30.5 -17q30 0 30 63h79q0 -73 -33.5 -112t-84.5 -39q-26 0 -45 11t-28 23.5t-21.5 23.5t-26.5 11q-34 0 -34 -63h-79q0 75 33.5 113t84.5 38z" />
    <glyph glyph-name="dieresis.cap" horiz-adv-x="366" 
d="M87 906q31 0 50.5 -19.5t19.5 -50.5q0 -30 -19.5 -50t-50.5 -20t-50.5 20t-19.5 50q0 31 19.5 50.5t50.5 19.5zM279 906q30 0 50 -19.5t20 -50.5q0 -30 -20 -50t-50 -20q-31 0 -50.5 20t-19.5 50q0 31 19.5 50.5t50.5 19.5z" />
    <glyph glyph-name="macron.cap" horiz-adv-x="309" 
d="M291 883v-98h-274v98h274z" />
    <glyph glyph-name="breve.cap" horiz-adv-x="365" 
d="M348 931q0 -69 -47 -114.5t-118 -45.5q-72 0 -119 45.5t-47 114.5h100q0 -34 18 -56t48 -22q29 0 47 22t18 56h100z" />
    <glyph glyph-name="ring.cap" horiz-adv-x="279" 
d="M140 1010q52 0 86.5 -34.5t34.5 -86.5t-34.5 -86t-86.5 -34q-53 0 -88 34t-35 86t35 86.5t88 34.5zM140 933q-18 0 -30.5 -12.5t-12.5 -31.5t12.5 -31t30.5 -12q17 0 29 12t12 31t-12 31.5t-29 12.5z" />
    <glyph glyph-name="hungarumlaut.cap" horiz-adv-x="426" 
d="M255 894l-99 -121h-104l82 121h121zM442 894l-99 -121h-104l82 121h121z" />
    <glyph glyph-name="dotaccent.cap" horiz-adv-x="192" 
d="M96 926q34 0 56.5 -22t22.5 -57q0 -34 -22.5 -56t-56.5 -22t-56.5 22t-22.5 56q0 35 22.5 57t56.5 22z" />
    <glyph glyph-name="parenleft.cap" horiz-adv-x="322" 
d="M193 788l112 -78q-59 -74 -92 -152t-33 -191t33 -191t92 -152l-112 -78q-151 189 -151 421t151 421z" />
    <glyph glyph-name="parenright.cap" horiz-adv-x="322" 
d="M129 788q151 -189 151 -421t-151 -421l-112 78q59 72 92 150.5t33 192.5t-33 192.5t-92 150.5z" />
    <glyph glyph-name="bracketleft.cap" horiz-adv-x="333" 
d="M308 777v-116h-114v-588h114v-116h-253v820h253z" />
    <glyph glyph-name="bracketright.cap" horiz-adv-x="336" 
d="M281 777v-820h-256v116h116v588h-116v116h256z" />
    <glyph glyph-name="braceleft.cap" horiz-adv-x="341" 
d="M316 777v-116q-51 0 -76 -31t-10 -84l8 -39q18 -52 0 -90t-53 -50q35 -12 53 -50t0 -90l-8 -39q-15 -53 10 -84t76 -31v-116q-137 0 -200.5 71t-21.5 187l8 37q15 42 -11 72.5t-71 40.5v4q45 10 71 40.5t11 72.5l-8 37q-42 116 21.5 187t200.5 71z" />
    <glyph glyph-name="braceright.cap" horiz-adv-x="341" 
d="M25 777q138 0 201 -71t22 -187l-9 -37q-15 -43 11.5 -73t71.5 -40v-4q-45 -10 -71.5 -40t-11.5 -73l9 -37q41 -116 -22 -187t-201 -71v116q51 0 76 31t10 84l-8 39q-17 52 0.5 90t52.5 50q-35 12 -52.5 50t-0.5 90l8 39q15 53 -10 84t-76 31v116z" />
    <glyph glyph-name="guilsinglleft.cap" horiz-adv-x="394" 
d="M379 576l-194 -222l194 -222h-174l-190 220v4l190 220h174z" />
    <glyph glyph-name="guilsinglright.cap" horiz-adv-x="394" 
d="M189 576l190 -220v-4l-190 -220h-174l194 222l-194 222h174z" />
    <glyph glyph-name="guillemotleft.cap" horiz-adv-x="554" 
d="M289 576l-136 -222l136 -222h-134l-140 220v4l140 220h134zM539 576l-135 -222l135 -222h-133l-140 220v4l140 220h133z" />
    <glyph glyph-name="guillemotright.cap" horiz-adv-x="554" 
d="M148 576l141 -220v-4l-141 -220h-133l135 222l-135 222h133zM399 576l140 -220v-4l-140 -220h-133l135 222l-135 222h133z" />
    <glyph glyph-name="exclamdown.cap" horiz-adv-x="294" 
d="M74 0v509h147v-509h-147zM147 576q-38 0 -62.5 24.5t-24.5 61.5t24.5 61.5t62.5 24.5q37 0 61.5 -24t24.5 -62t-24.5 -62t-61.5 -24z" />
    <glyph glyph-name="questiondown.cap" horiz-adv-x="525" 
d="M269 -13q-104 0 -170.5 60.5t-66.5 149.5q0 41 12.5 73.5t30.5 51t40 37t40 33.5t30.5 38.5t12.5 52.5v26h147v-46q0 -45 -16.5 -79t-40 -54.5t-47 -38t-40 -40.5t-16.5 -52q0 -38 24.5 -59t61.5 -21q38 0 62 23t29 61l145 -24q-19 -92 -79.5 -142t-158.5 -50zM271 576
q-38 0 -62.5 24.5t-24.5 61.5t24.5 61.5t62.5 24.5q37 0 61.5 -24t24.5 -62t-24.5 -62t-61.5 -24z" />
    <glyph glyph-name="endash.cap" horiz-adv-x="550" 
d="M512 424v-135h-475v135h475z" />
    <glyph glyph-name="periodcentered.cap" horiz-adv-x="233" 
d="M117 444q38 0 63.5 -25.5t25.5 -63.5q0 -39 -25.5 -64t-63.5 -25q-39 0 -64.5 25t-25.5 64q0 38 25.5 63.5t64.5 25.5z" />
    <glyph glyph-name="emdash.cap" horiz-adv-x="794" 
d="M757 424v-135h-720v135h720z" />
    <glyph glyph-name="hyphen.cap" horiz-adv-x="431" 
d="M393 424v-135h-356v135h356z" />
    <glyph glyph-name="zero.dnom" horiz-adv-x="397" 
d="M199 426q75 0 118.5 -58.5t43.5 -157.5q0 -100 -43.5 -159t-118.5 -59t-119 59t-44 159q0 99 44 157.5t119 58.5zM199 334q-55 0 -55 -124q0 -125 55 -125t55 125q0 124 -55 124z" />
    <glyph glyph-name="one.dnom" horiz-adv-x="284" 
d="M225 427v-427h-106v264l-55 -29l-43 98l202 94h2z" />
    <glyph glyph-name="two.dnom" horiz-adv-x="359" 
d="M171 427q69 0 110.5 -39t41.5 -100q0 -52 -47 -112l-64 -83h113v-93h-290v3l151 226q18 24 24 35.5t6 26.5q0 19 -12.5 30.5t-32.5 11.5q-43 0 -51 -56l-96 22q24 128 147 128z" />
    <glyph glyph-name="three.dnom" horiz-adv-x="353" 
d="M173 427q65 0 106 -38.5t41 -95.5q0 -53 -45 -82q52 -28 52 -85q0 -59 -41.5 -96.5t-110.5 -37.5q-127 0 -151 122l96 21q8 -49 55 -49q20 0 32.5 12.5t12.5 32.5q0 19 -12.5 31.5t-33.5 12.5h-46v80h46q18 1 29.5 11.5t11.5 27.5q0 18 -12.5 28.5t-31.5 10.5
q-38 0 -45 -42l-92 39q29 97 139 97z" />
    <glyph glyph-name="four.dnom" horiz-adv-x="393" 
d="M324 428v-305h44v-76h-44v-47h-105v47h-210v2l313 379h2zM230 213l-78 -95h78v95z" />
    <glyph glyph-name="five.dnom" horiz-adv-x="369" 
d="M312 419v-93h-151v-61q14 4 27 4q67 0 109 -34.5t42 -105.5q0 -62 -41.5 -99.5t-111.5 -37.5q-121 0 -152 98l90 43q7 -47 55 -47q23 0 38 13.5t15 35.5q0 21 -15 34.5t-40 13.5q-30 0 -48 -18l-74 32v222h257z" />
    <glyph glyph-name="six.dnom" horiz-adv-x="380" 
d="M311 419l-92 -143q55 -9 91 -48t36 -93q0 -62 -45.5 -102.5t-111.5 -40.5q-65 0 -110 40.5t-45 102.5q0 44 24 79l133 205h120zM189 192q-22 0 -36.5 -15.5t-14.5 -41.5q0 -25 14.5 -39.5t36.5 -14.5q24 0 38.5 14.5t14.5 39.5q0 27 -14.5 42t-38.5 15z" />
    <glyph glyph-name="seven.dnom" horiz-adv-x="371" 
d="M353 419v-4l-206 -415h-114l165 323h-166v96h321z" />
    <glyph glyph-name="eight.dnom" horiz-adv-x="381" 
d="M189 427q59 0 100.5 -35.5t41.5 -89.5q0 -48 -41 -81q56 -40 56 -94q0 -59 -45.5 -97t-111.5 -38q-65 0 -110 38t-45 97q0 57 55 93q-41 34 -41 82q0 54 41 89.5t100 35.5zM189 175q-22 0 -37 -14t-15 -36q0 -21 15 -34t37 -13q23 0 38 13t15 34q0 22 -15 36t-38 14z
M189 343q-20 0 -33.5 -13.5t-13.5 -33.5q0 -19 13.5 -31.5t33.5 -12.5q21 0 34.5 12.5t13.5 31.5q0 20 -13.5 33.5t-34.5 13.5z" />
    <glyph glyph-name="nine.dnom" horiz-adv-x="380" 
d="M191 427q65 0 110 -40.5t45 -102.5q0 -44 -24 -79l-133 -205h-120l92 142q-55 9 -91 48t-36 94q0 62 45.5 102.5t111.5 40.5zM191 338q-24 0 -38.5 -14.5t-14.5 -39.5q0 -27 14.5 -42t38.5 -15q22 0 36.5 15.5t14.5 41.5q0 25 -14.5 39.5t-36.5 14.5z" />
    <glyph glyph-name="zero.numr" horiz-adv-x="382" 
d="M199 740q75 0 118.5 -58.5t43.5 -157.5q0 -100 -43.5 -159t-118.5 -59t-119 59t-44 159q0 99 44 157.5t119 58.5zM199 648q-55 0 -55 -124q0 -125 55 -125t55 125q0 124 -55 124z" />
    <glyph glyph-name="one.numr" horiz-adv-x="269" 
d="M225 741v-427h-106v264l-55 -29l-43 98l202 94h2z" />
    <glyph glyph-name="two.numr" horiz-adv-x="344" 
d="M171 741q69 0 110.5 -39t41.5 -100q0 -52 -47 -112l-64 -83h113v-93h-290v3l151 226q18 24 24 35.5t6 26.5q0 19 -12.5 30.5t-32.5 11.5q-43 0 -51 -56l-96 22q24 128 147 128z" />
    <glyph glyph-name="three.numr" horiz-adv-x="337" 
d="M173 741q65 0 106 -38.5t41 -95.5q0 -53 -45 -82q52 -28 52 -85q0 -59 -41.5 -96.5t-110.5 -37.5q-127 0 -151 122l96 21q8 -49 55 -49q20 0 32.5 12.5t12.5 32.5q0 19 -12.5 31.5t-33.5 12.5h-46v80h46q18 1 29.5 11.5t11.5 27.5q0 18 -12.5 28.5t-31.5 10.5
q-38 0 -45 -42l-92 39q29 97 139 97z" />
    <glyph glyph-name="four.numr" horiz-adv-x="377" 
d="M324 742v-305h44v-76h-44v-47h-105v47h-210v2l313 379h2zM230 527l-78 -95h78v95z" />
    <glyph glyph-name="five.numr" horiz-adv-x="354" 
d="M312 733v-93h-151v-61q14 4 27 4q67 0 109 -34.5t42 -105.5q0 -62 -41.5 -99.5t-111.5 -37.5q-121 0 -152 98l90 43q7 -47 55 -47q23 0 38 13.5t15 35.5q0 21 -15 34.5t-40 13.5q-30 0 -48 -18l-74 32v222h257z" />
    <glyph glyph-name="six.numr" horiz-adv-x="365" 
d="M311 733l-92 -143q55 -9 91 -48t36 -93q0 -62 -45.5 -102.5t-111.5 -40.5q-65 0 -110 40.5t-45 102.5q0 44 24 79l133 205h120zM189 506q-22 0 -36.5 -15.5t-14.5 -41.5q0 -25 14.5 -39.5t36.5 -14.5q24 0 38.5 14.5t14.5 39.5q0 27 -14.5 42t-38.5 15z" />
    <glyph glyph-name="seven.numr" horiz-adv-x="355" 
d="M353 733v-4l-206 -415h-114l165 323h-166v96h321z" />
    <glyph glyph-name="eight.numr" horiz-adv-x="365" 
d="M189 741q59 0 100.5 -35.5t41.5 -89.5q0 -48 -41 -81q56 -40 56 -94q0 -59 -45.5 -97t-111.5 -38q-65 0 -110 38t-45 97q0 57 55 93q-41 34 -41 82q0 54 41 89.5t100 35.5zM189 489q-22 0 -37 -14t-15 -36q0 -21 15 -34t37 -13q23 0 38 13t15 34q0 22 -15 36t-38 14z
M189 657q-20 0 -33.5 -13.5t-13.5 -33.5q0 -19 13.5 -31.5t33.5 -12.5q21 0 34.5 12.5t13.5 31.5q0 20 -13.5 33.5t-34.5 13.5z" />
    <glyph glyph-name="nine.numr" horiz-adv-x="365" 
d="M191 741q65 0 110 -40.5t45 -102.5q0 -44 -24 -79l-133 -205h-120l92 142q-55 9 -91 48t-36 94q0 62 45.5 102.5t111.5 40.5zM191 652q-24 0 -38.5 -14.5t-14.5 -39.5q0 -27 14.5 -42t38.5 -15q22 0 36.5 15.5t14.5 41.5q0 25 -14.5 39.5t-36.5 14.5z" />
    <glyph glyph-name="zero.subs" horiz-adv-x="382" 
d="M199 326q75 0 118.5 -58.5t43.5 -157.5q0 -100 -43.5 -159t-118.5 -59t-119 59t-44 159q0 99 44 157.5t119 58.5zM199 234q-55 0 -55 -124q0 -125 55 -125t55 125q0 124 -55 124z" />
    <glyph glyph-name="one.subs" horiz-adv-x="269" 
d="M225 327v-427h-106v264l-55 -29l-43 98l202 94h2z" />
    <glyph glyph-name="two.subs" horiz-adv-x="344" 
d="M171 327q69 0 110.5 -39t41.5 -100q0 -52 -47 -112l-64 -83h113v-93h-290v3l151 226q18 24 24 35.5t6 26.5q0 19 -12.5 30.5t-32.5 11.5q-43 0 -51 -56l-96 22q24 128 147 128z" />
    <glyph glyph-name="three.subs" horiz-adv-x="337" 
d="M173 327q65 0 106 -38.5t41 -95.5q0 -53 -45 -82q52 -28 52 -85q0 -59 -41.5 -96.5t-110.5 -37.5q-127 0 -151 122l96 21q8 -49 55 -49q20 0 32.5 12.5t12.5 32.5q0 19 -12.5 31.5t-33.5 12.5h-46v80h46q18 1 29.5 11.5t11.5 27.5q0 18 -12.5 28.5t-31.5 10.5
q-38 0 -45 -42l-92 39q29 97 139 97z" />
    <glyph glyph-name="four.subs" horiz-adv-x="377" 
d="M324 328v-305h44v-76h-44v-47h-105v47h-210v2l313 379h2zM230 113l-78 -95h78v95z" />
    <glyph glyph-name="five.subs" horiz-adv-x="354" 
d="M312 319v-93h-151v-61q14 4 27 4q67 0 109 -34.5t42 -105.5q0 -62 -41.5 -99.5t-111.5 -37.5q-121 0 -152 98l90 43q7 -47 55 -47q23 0 38 13.5t15 35.5q0 21 -15 34.5t-40 13.5q-30 0 -48 -18l-74 32v222h257z" />
    <glyph glyph-name="six.subs" horiz-adv-x="365" 
d="M311 319l-92 -143q55 -9 91 -48t36 -93q0 -62 -45.5 -102.5t-111.5 -40.5q-65 0 -110 40.5t-45 102.5q0 44 24 79l133 205h120zM189 92q-22 0 -36.5 -15.5t-14.5 -41.5q0 -25 14.5 -39.5t36.5 -14.5q24 0 38.5 14.5t14.5 39.5q0 27 -14.5 42t-38.5 15z" />
    <glyph glyph-name="seven.subs" horiz-adv-x="355" 
d="M353 319v-4l-206 -415h-114l165 323h-166v96h321z" />
    <glyph glyph-name="eight.subs" horiz-adv-x="365" 
d="M189 327q59 0 100.5 -35.5t41.5 -89.5q0 -48 -41 -81q56 -40 56 -94q0 -59 -45.5 -97t-111.5 -38q-65 0 -110 38t-45 97q0 57 55 93q-41 34 -41 82q0 54 41 89.5t100 35.5zM189 75q-22 0 -37 -14t-15 -36q0 -21 15 -34t37 -13q23 0 38 13t15 34q0 22 -15 36t-38 14z
M189 243q-20 0 -33.5 -13.5t-13.5 -33.5q0 -19 13.5 -31.5t33.5 -12.5q21 0 34.5 12.5t13.5 31.5q0 20 -13.5 33.5t-34.5 13.5z" />
    <glyph glyph-name="nine.subs" horiz-adv-x="365" 
d="M191 327q65 0 110 -40.5t45 -102.5q0 -44 -24 -79l-133 -205h-120l92 142q-55 9 -91 48t-36 94q0 62 45.5 102.5t111.5 40.5zM191 238q-24 0 -38.5 -14.5t-14.5 -39.5q0 -27 14.5 -42t38.5 -15q22 0 36.5 15.5t14.5 41.5q0 25 -14.5 39.5t-36.5 14.5z" />
    <glyph glyph-name="zero.lnum" horiz-adv-x="600" 
d="M300 748q124 0 195 -102.5t71 -277.5q0 -176 -71 -278.5t-195 -102.5t-195 102.5t-71 278.5q0 175 71 277.5t195 102.5zM300 618q-59 0 -87.5 -66.5t-28.5 -183.5q0 -118 28.5 -184.5t87.5 -66.5t87.5 66.5t28.5 184.5q0 117 -28.5 183.5t-87.5 66.5z" />
    <glyph glyph-name="one.lnum" horiz-adv-x="600" 
d="M399 748v-614h123v-134h-405v134h135v370l-145 -74l-62 134l350 184h4z" />
    <glyph glyph-name="two.lnum" horiz-adv-x="600" 
d="M289 748q109 0 176 -65t67 -167q0 -57 -20.5 -105t-62.5 -105l-130 -174h218v-132h-468v6l257 375q32 46 44 74.5t12 64.5q0 44 -26 70t-67 26q-86 0 -102 -109l-134 31q40 210 236 210z" />
    <glyph glyph-name="three.lnum" horiz-adv-x="600" 
d="M297 748q105 0 169.5 -63t64.5 -160q0 -101 -84 -149q100 -47 100 -160q0 -102 -66.5 -165.5t-177.5 -63.5q-199 0 -247 206l134 32q23 -106 112 -106q43 0 70 27.5t27 73.5q0 44 -28.5 72t-73.5 28h-78v113h79q37 2 61.5 25.5t24.5 65.5t-25 67t-63 25q-77 0 -97 -90
l-128 54q25 79 82.5 123.5t143.5 44.5z" />
    <glyph glyph-name="four.lnum" horiz-adv-x="600" 
d="M490 745v-525h82v-112h-82v-108h-148v108h-328v4l471 633h5zM354 395l-131 -178h131v178z" />
    <glyph glyph-name="five.lnum" horiz-adv-x="600" 
d="M510 735v-132h-264v-153q26 13 64 13q108 0 176.5 -61t68.5 -179q0 -104 -67 -170t-179 -66q-192 0 -247 165l126 60q20 -93 111 -93q47 0 77 31t30 80q0 50 -30.5 81t-80.5 31q-55 0 -96 -37l-100 43v387h411z" />
    <glyph glyph-name="six.lnum" horiz-adv-x="600" 
d="M483 735l-160 -254q98 -9 163.5 -78t65.5 -169q0 -107 -74 -177t-180 -70q-105 0 -178.5 70t-73.5 177q0 85 49 150l220 351h168zM298 352q-44 0 -73 -32.5t-29 -85.5q0 -52 29 -84.5t73 -32.5q45 0 74.5 32.5t29.5 84.5q0 53 -29.5 85.5t-74.5 32.5z" />
    <glyph glyph-name="seven.lnum" horiz-adv-x="600" 
d="M579 735v-6l-354 -729h-159l296 601h-304v134h521z" />
    <glyph glyph-name="eight.lnum" horiz-adv-x="600" 
d="M299 748q95 0 161 -59.5t66 -149.5q0 -94 -77 -151q48 -29 76 -73.5t28 -97.5q0 -100 -74 -165t-180 -65q-105 0 -178.5 65t-73.5 165q0 53 27.5 98t75.5 72q-77 56 -77 152q0 90 66 149.5t160 59.5zM299 318q-44 0 -73 -29t-29 -74q0 -44 29 -73t73 -29t74 29t30 73
q0 45 -29.5 74t-74.5 29zM299 623q-38 0 -63.5 -26t-25.5 -65q0 -40 25.5 -66.5t63.5 -26.5t64 26.5t26 66.5q0 39 -26 65t-64 26z" />
    <glyph glyph-name="nine.lnum" horiz-adv-x="600" 
d="M301 748q105 0 178.5 -70t73.5 -177q0 -84 -50 -150l-219 -351h-168l159 254q-97 9 -162.5 78t-65.5 169q0 107 74 177t180 70zM301 618q-45 0 -74.5 -32.5t-29.5 -84.5q0 -53 29.5 -85.5t74.5 -32.5q44 0 73 32.5t29 85.5q0 52 -29 84.5t-73 32.5z" />
    <glyph glyph-name="zero.tnum" horiz-adv-x="596" 
d="M298 570q116 0 191 -82t75 -208t-75 -208t-191 -82t-191 82t-75 208q0 125 75.5 207.5t190.5 82.5zM298 442q-51 0 -84.5 -45t-33.5 -117t33 -117t85 -45q51 0 84 45t33 117t-32.5 117t-84.5 45z" />
    <glyph glyph-name="one.tnum" horiz-adv-x="397" 
d="M325 570v-570h-147v325l-108 -59l-60 136l311 168h4z" />
    <glyph glyph-name="two.tnum" horiz-adv-x="534" 
d="M262 570q99 0 162.5 -59.5t63.5 -142.5q0 -45 -15 -82t-30.5 -55.5t-47.5 -49.5l-54 -49h161v-132h-451v6l196 205q38 39 51.5 54.5t26.5 41t13 51.5q0 37 -23.5 58.5t-60.5 21.5q-58 0 -82 -65l-123 60q58 137 213 137z" />
    <glyph glyph-name="three.tnum" horiz-adv-x="524" 
d="M259 570q105 0 170 -61t65 -155q0 -98 -85 -145q100 -45 100 -156q0 -99 -66.5 -160.5t-177.5 -61.5q-199 0 -246 200l133 31q24 -103 112 -103q44 0 70.5 27t26.5 71q0 43 -28.5 70t-73.5 27h-77v111h78q37 1 62 24t25 63q0 41 -25 65.5t-64 24.5q-75 0 -97 -88l-128 52
q24 77 82.5 120.5t143.5 43.5z" />
    <glyph glyph-name="four.tnum" horiz-adv-x="579" 
d="M473 570v-509h83v-109h-83v-105h-147v105h-328v4l471 614h4zM337 231l-131 -174h131v174z" />
    <glyph glyph-name="five.tnum" horiz-adv-x="547" 
d="M480 560v-128h-264v-148q27 12 64 12q108 0 176 -59t68 -174q0 -101 -67 -165t-179 -64q-191 0 -246 160l125 59q20 -92 111 -92q47 0 77 30.5t30 78.5t-30.5 78t-79.5 30q-55 0 -97 -36l-100 42v376h412z" />
    <glyph glyph-name="six.tnum" horiz-adv-x="562" 
d="M465 713l-160 -247q97 -9 163 -76t66 -163q0 -104 -74 -172t-180 -68q-105 0 -178.5 68t-73.5 172q0 79 46 141l223 345h168zM280 341q-44 0 -73 -32t-29 -82q0 -51 29 -82.5t73 -31.5q45 0 74.5 31.5t29.5 82.5q0 50 -29.5 82t-74.5 32z" />
    <glyph glyph-name="seven.tnum" horiz-adv-x="548" 
d="M545 560v-6l-354 -707h-159l295 582h-303v131h521z" />
    <glyph glyph-name="eight.tnum" horiz-adv-x="562" 
d="M279 726q94 0 160.5 -58t66.5 -145q0 -92 -78 -147q48 -28 76.5 -71.5t28.5 -94.5q0 -97 -74 -160t-180 -63q-105 0 -178.5 63t-73.5 160q0 52 27.5 95.5t74.5 69.5q-76 53 -76 148q0 87 66 145t160 58zM279 308q-44 0 -73 -28.5t-29 -71.5t29 -71t73 -28t74 28t30 71
t-30 71.5t-74 28.5zM279 604q-38 0 -64 -25.5t-26 -63.5q0 -39 26 -64.5t64 -25.5t64 25.5t26 64.5q0 38 -26 63.5t-64 25.5z" />
    <glyph glyph-name="nine.tnum" horiz-adv-x="562" 
d="M282 570q105 0 178.5 -68t73.5 -172q0 -78 -47 -141l-222 -345h-168l160 247q-97 8 -163 75t-66 164q0 104 74 172t180 68zM282 444q-45 0 -74.5 -31.5t-29.5 -82.5q0 -50 29.5 -82t74.5 -32q44 0 73 32t29 82q0 51 -29 82.5t-73 31.5z" />
    <glyph glyph-name="a.sups" horiz-adv-x="440" 
d="M178 751q69 0 102 -44l6 37h105v-356h-105l-6 37q-33 -44 -102 -44t-112 52t-43 133t43 133t112 52zM210 649q-31 0 -50 -22t-19 -61t19 -61.5t50 -22.5q39 0 63 39v91q-24 37 -63 37z" />
    <glyph glyph-name="b.sups" horiz-adv-x="440" 
d="M166 920v-205q34 36 95 36q69 0 112.5 -52t43.5 -133t-43.5 -133t-112.5 -52q-67 0 -102 44l-5 -37h-105v532h117zM230 649q-39 0 -64 -38v-90q26 -39 64 -39q31 0 49.5 22.5t18.5 61.5t-18.5 61t-49.5 22z" />
    <glyph glyph-name="c.sups" horiz-adv-x="373" 
d="M209 751q102 0 155 -83l-86 -64q-26 46 -68 46q-33 0 -51 -24t-18 -60t18 -60t51 -24q43 0 69 46l86 -63q-54 -84 -155 -84q-82 0 -134.5 52.5t-52.5 132.5t53 132.5t133 52.5z" />
    <glyph glyph-name="d.sups" horiz-adv-x="440" 
d="M391 920v-532h-105l-6 37q-33 -44 -102 -44t-112 52t-43 133t43 133t112 52q63 0 95 -36v205h118zM210 649q-31 0 -50 -22t-19 -61t19 -61.5t50 -22.5q39 0 63 39v90q-24 38 -63 38z" />
    <glyph glyph-name="e.sups" horiz-adv-x="401" 
d="M207 751q81 0 124 -51.5t43 -129.5v-32h-235q2 -29 21 -45t52 -16q46 0 71 34l81 -66q-58 -64 -154 -64q-84 0 -135.5 52t-51.5 133q0 80 51 132.5t133 52.5zM201 667q-27 0 -43.5 -17.5t-18.5 -43.5h123q-2 27 -17.5 44t-43.5 17z" />
    <glyph glyph-name="f.sups" horiz-adv-x="290" 
d="M227 920q52 0 84 -21l-41 -94q-14 14 -37 14q-39 0 -39 -46v-29h76v-99h-76v-257h-117v257h-61v99h61v23q0 68 40.5 110.5t109.5 42.5z" />
    <glyph glyph-name="g.sups" horiz-adv-x="441" 
d="M179 751q71 0 101 -44l7 37h104v-339q0 -86 -53.5 -135.5t-144.5 -49.5q-109 0 -179 78l76 76q47 -53 102 -53q37 0 59 23t22 58v27q-31 -35 -94 -35q-69 0 -112.5 50.5t-43.5 127.5q0 78 43.5 128.5t112.5 50.5zM210 650q-31 0 -49.5 -20.5t-18.5 -57.5q0 -36 18.5 -57
t49.5 -21q38 0 63 38v81q-24 37 -63 37z" />
    <glyph glyph-name="h.sups" horiz-adv-x="431" 
d="M166 920v-205q32 36 90 36q65 0 99 -42.5t34 -117.5v-203h-118v197q0 25 -12.5 40.5t-34.5 15.5q-37 0 -58 -35v-218h-117v532h117z" />
    <glyph glyph-name="i.sups" horiz-adv-x="216" 
d="M166 744v-356h-117v356h117zM108 923q29 0 47.5 -19t18.5 -49q0 -29 -18.5 -47.5t-47.5 -18.5t-48 18.5t-19 47.5q0 30 19 49t48 19z" />
    <glyph glyph-name="j.sups" horiz-adv-x="226" 
d="M176 744v-367q0 -71 -49 -114t-132 -43v101q30 0 47 12.5t17 34.5v376h117zM118 923q29 0 48 -19t19 -49q0 -29 -19 -47.5t-48 -18.5t-48 18.5t-19 47.5q0 30 19 49t48 19z" />
    <glyph glyph-name="k.sups" horiz-adv-x="425" 
d="M166 920v-336l105 160h141l-109 -143l116 -213h-133l-60 112l-85 -112h-92v532h117z" />
    <glyph glyph-name="l.sups" horiz-adv-x="216" 
d="M166 920v-532h-117v532h117z" />
    <glyph glyph-name="m.sups" horiz-adv-x="644" 
d="M258 751q69 0 104 -57q42 57 113 57q61 0 94.5 -42.5t33.5 -117.5v-203h-117v197q0 25 -12 40.5t-34 15.5q-33 0 -55 -33v-220h-118v197q0 56 -45 56q-33 0 -56 -35v-218h-117v356h105l5 -36q32 43 99 43z" />
    <glyph glyph-name="o.sups" horiz-adv-x="425" 
d="M212 751q82 0 136 -52.5t54 -132.5t-54 -132.5t-136 -52.5t-135.5 52.5t-53.5 132.5t53.5 132.5t135.5 52.5zM212 649q-31 0 -51 -23.5t-20 -59.5t20 -60t51 -24t51.5 24t20.5 60t-20.5 59.5t-51.5 23.5z" />
    <glyph glyph-name="p.sups" horiz-adv-x="440" 
d="M261 751q69 0 112.5 -52t43.5 -133q0 -80 -43.5 -132.5t-112.5 -52.5q-61 0 -95 36v-190h-117v517h105l5 -37q35 44 102 44zM230 650q-37 0 -64 -38v-91q25 -38 64 -38q31 0 49.5 22t18.5 61t-18.5 61.5t-49.5 22.5z" />
    <glyph glyph-name="q.sups" horiz-adv-x="440" 
d="M178 751q69 0 102 -44l6 37h105v-517h-118v190q-32 -36 -95 -36q-68 0 -111.5 52.5t-43.5 132.5q0 81 43 133t112 52zM210 650q-31 0 -50 -22.5t-19 -61.5t19 -61t50 -22q39 0 63 38v91q-25 38 -63 38z" />
    <glyph glyph-name="r.sups" horiz-adv-x="277" 
d="M262 751v-116h-10q-52 0 -86 -41v-206h-117v356h104l7 -46q33 53 102 53z" />
    <glyph glyph-name="s.sups" horiz-adv-x="344" 
d="M190 751q82 0 127 -39l-44 -81q-37 31 -83 31q-39 0 -39 -26q0 -11 12.5 -17.5t49.5 -15.5q55 -14 80.5 -37.5t25.5 -62.5q0 -55 -43.5 -88.5t-117.5 -33.5q-87 0 -138 44l45 80q41 -35 94 -35q43 0 43 26q0 12 -11 19t-44 15q-60 16 -86.5 38t-26.5 62q0 55 41.5 88
t114.5 33z" />
    <glyph glyph-name="t.sups" horiz-adv-x="313" 
d="M190 861v-117h97v-99h-97v-117q0 -20 12 -31.5t32 -11.5q26 0 43 11l29 -92q-36 -23 -83 -23q-70 0 -110 38.5t-40 107.5v118h-62v99h62v117h117z" />
    <glyph glyph-name="u.sups" horiz-adv-x="429" 
d="M380 744v-356h-105l-5 35q-33 -42 -99 -42q-63 0 -96 42.5t-33 116.5v204h117v-197q0 -56 46 -56q37 0 57 35v218h118z" />
    <glyph glyph-name="v.sups" horiz-adv-x="420" 
d="M412 744l-200 -363h-3l-200 363h131l70 -150l71 150h131z" />
    <glyph glyph-name="w.sups" horiz-adv-x="554" 
d="M545 744l-176 -363h-3l-89 156l-91 -156h-2l-175 363h131l57 -147l79 147h2l78 -147l58 147h131z" />
    <glyph glyph-name="x.sups" horiz-adv-x="391" 
d="M380 744l-106 -177l112 -179h-138l-54 95l-54 -95h-137l110 179l-105 177h136l50 -94l50 94h136z" />
    <glyph glyph-name="y.sups" horiz-adv-x="423" 
d="M414 744l-284 -517h-134l153 264l-140 253h132l70 -150l71 150h132z" />
    <glyph glyph-name="z.sups" horiz-adv-x="352" 
d="M331 744v-3l-135 -255h133v-98h-310v3l135 254h-126v99h303z" />
    <glyph glyph-name="G.smcp_I.smcp" horiz-adv-x="689" 
d="M345 785q134 0 224 -92t90 -229q0 -138 -89.5 -229t-224.5 -91q-136 0 -225 90.5t-89 229.5q0 138 89 229.5t225 91.5zM345 711q-101 0 -167 -71t-66 -176q0 -106 66 -176t167 -70q100 0 166.5 70.5t66.5 175.5t-66.5 176t-166.5 71z" />
    <glyph glyph-name="zero.slash" horiz-adv-x="595" 
d="M298 748q124 0 194.5 -102.5t70.5 -277.5q0 -176 -70.5 -278.5t-194.5 -102.5t-195 102.5t-71 278.5q0 175 71 277.5t195 102.5zM298 625q-116 0 -116 -257q0 -60 6 -107l179 326q-27 38 -69 38zM413 368q0 56 -6 102l-179 -324q28 -37 70 -37q58 0 86.5 68.5t28.5 190.5
z" />
    </font>
</defs>
</svg>
