<?xml version="1.0" standalone="no"?>
<!DOCTYPE svg PUBLIC "-//W3C//DTD SVG 1.1//EN" "http://www.w3.org/Graphics/SVG/1.1/DTD/svg11.dtd" >
<svg xmlns="http://www.w3.org/2000/svg" xmlns:xlink="http://www.w3.org/1999/xlink" version="1.1">
<metadata>
Created by FontForge 20200427 at Tue May  1 08:10:14 2018
 By www
(c) 2015-2017 Apple Inc. All rights reserved.
</metadata>
<defs>
<font id="SFProText-Regular" horiz-adv-x="1800" >
  <font-face 
    font-family="SF Pro Text"
    font-weight="400"
    font-stretch="normal"
    units-per-em="2048"
    panose-1="0 0 5 0 0 0 0 0 0 0"
    ascent="1638"
    descent="-410"
    x-height="1078"
    cap-height="1443"
    bbox="-458 -531 2698 2205"
    underline-thickness="120"
    underline-position="-370"
    unicode-range="U+0020-1F189"
  />
<missing-glyph horiz-adv-x="2048" 
d="M99 -494v284h1848v-284h-1848zM99 -62v284h1848v-284h-1848zM99 370v284h1848v-284h-1848zM99 802v284h1848v-284h-1848zM99 1234v284h1848v-284h-1848zM99 1666v284h1848v-284h-1848z" />
    <glyph glyph-name="uni2780" unicode="&#x31;&#x20dd;" 
d="M998 388h-130v571h-6l-166 -114v117l172 119h130v-693zM899 78q107 0 203 32.5t175 91.5t136.5 139t89 176.5t31.5 202.5t-31.5 202.5t-89 176.5t-136.5 139t-175 91.5t-203 32.5t-203 -32.5t-175 -91.5t-136.5 -139t-89 -176.5t-31.5 -202.5t31.5 -202.5t89 -176.5
t136.5 -139t175 -91.5t203 -32.5zM899 -50q-127 0 -242.5 39t-212 110t-167.5 167.5t-110 212t-39 242.5t39 242.5t110 212t167.5 167.5t212 110t242.5 39t242.5 -39t212 -110t167.5 -167.5t110 -212t39 -242.5t-39 -242.5t-110 -212t-167.5 -167.5t-212 -110t-242.5 -39z
" />
    <glyph glyph-name="uni2781" unicode="&#x32;&#x20dd;" 
d="M781 878h-124v6q0 52 26.5 100.5t80.5 79t136 30.5q73 0 127 -25.5t84 -69t30 -98.5q0 -46 -18 -83t-47 -69.5t-61 -66.5l-174 -185v-6h313v-103h-492v77l268 280q30 31 56 66t26 79q0 46 -32.5 74.5t-81.5 28.5q-56 0 -86.5 -32.5t-30.5 -76.5v-3.5v-2.5zM899 78
q107 0 203 32.5t175 91.5t136.5 139t89 176.5t31.5 202.5t-31.5 202.5t-89 176.5t-136.5 139t-175 91.5t-203 32.5t-203 -32.5t-175 -91.5t-136.5 -139t-89 -176.5t-31.5 -202.5t31.5 -202.5t89 -176.5t136.5 -139t175 -91.5t203 -32.5zM899 -50q-127 0 -242.5 39t-212 110
t-167.5 167.5t-110 212t-39 242.5t39 242.5t110 212t167.5 167.5t212 110t242.5 39t242.5 -39t212 -110t167.5 -167.5t110 -212t39 -242.5t-39 -242.5t-110 -212t-167.5 -167.5t-212 -110t-242.5 -39z" />
    <glyph glyph-name="uni2782" unicode="&#x33;&#x20dd;" 
d="M819 696v98h77q51 0 84.5 29.5t33.5 73.5q-1 43 -34 71t-84 28q-53 0 -85 -27t-34 -62h-122q2 51 30.5 93.5t82 68t131.5 25.5q74 0 128 -23.5t84 -64t32 -91.5q1 -49 -22 -83.5t-54.5 -54t-58.5 -23.5v-6q33 -4 69 -22t61.5 -53.5t26.5 -91.5q1 -64 -35.5 -110t-98 -71
t-136.5 -25q-80 0 -136 25.5t-86.5 68t-32.5 94.5h120q4 -38 41.5 -63.5t94.5 -26.5q63 0 101.5 32t38.5 81q-1 48 -38 79t-98 31h-81zM899 78q107 0 203 32.5t175 91.5t136.5 139t89 176.5t31.5 202.5t-31.5 202.5t-89 176.5t-136.5 139t-175 91.5t-203 32.5t-203 -32.5
t-175 -91.5t-136.5 -139t-89 -176.5t-31.5 -202.5t31.5 -202.5t89 -176.5t136.5 -139t175 -91.5t203 -32.5zM899 -50q-127 0 -242.5 39t-212 110t-167.5 167.5t-110 212t-39 242.5t39 242.5t110 212t167.5 167.5t212 110t242.5 39t242.5 -39t212 -110t167.5 -167.5t110 -212
t39 -242.5t-39 -242.5t-110 -212t-167.5 -167.5t-212 -110t-242.5 -39z" />
    <glyph glyph-name="uni2783" unicode="&#x34;&#x20dd;" 
d="M874 1081h189v-458h91v-102h-91v-133h-123v133h-352v103q65 115 139 229t147 228zM709 623h231v361h-6q-58 -85 -116 -176t-109 -181v-4zM899 78q107 0 203 32.5t175 91.5t136.5 139t89 176.5t31.5 202.5t-31.5 202.5t-89 176.5t-136.5 139t-175 91.5t-203 32.5
t-203 -32.5t-175 -91.5t-136.5 -139t-89 -176.5t-31.5 -202.5t31.5 -202.5t89 -176.5t136.5 -139t175 -91.5t203 -32.5zM899 -50q-127 0 -242.5 39t-212 110t-167.5 167.5t-110 212t-39 242.5t39 242.5t110 212t167.5 167.5t212 110t242.5 39t242.5 -39t212 -110
t167.5 -167.5t110 -212t39 -242.5t-39 -242.5t-110 -212t-167.5 -167.5t-212 -110t-242.5 -39z" />
    <glyph glyph-name="uni2784" unicode="&#x35;&#x20dd;" 
d="M651 562h121q9 -45 48.5 -66t86.5 -21q35 0 66.5 16.5t51.5 48t20 76.5q0 40 -19 69.5t-51 45.5t-69 16q-51 0 -82.5 -22.5t-43.5 -45.5h-114l32 402h434v-102h-329l-17 -195h6q7 11 26.5 25t49.5 24.5t71 10.5q63 0 116 -26.5t85 -77t32 -121.5q0 -73 -34 -128
t-94.5 -85.5t-141.5 -30.5q-73 0 -128.5 24.5t-87.5 67t-35 95.5zM899 78q107 0 203 32.5t175 91.5t136.5 139t89 176.5t31.5 202.5t-31.5 202.5t-89 176.5t-136.5 139t-175 91.5t-203 32.5t-203 -32.5t-175 -91.5t-136.5 -139t-89 -176.5t-31.5 -202.5t31.5 -202.5
t89 -176.5t136.5 -139t175 -91.5t203 -32.5zM899 -50q-127 0 -242.5 39t-212 110t-167.5 167.5t-110 212t-39 242.5t39 242.5t110 212t167.5 167.5t212 110t242.5 39t242.5 -39t212 -110t167.5 -167.5t110 -212t39 -242.5t-39 -242.5t-110 -212t-167.5 -167.5t-212 -110
t-242.5 -39z" />
    <glyph glyph-name="uni2785" unicode="&#x36;&#x20dd;" 
d="M909 377q-82 0 -146 39t-101 117t-37 195q0 115 35 197t99.5 126t152.5 44q69 0 122.5 -23.5t87 -65.5t42.5 -97h-129q-9 40 -41.5 62t-78.5 22q-79 0 -122.5 -64.5t-44.5 -186.5h8q25 49 73.5 75.5t110.5 26.5q67 0 120 -29t83 -80.5t30 -117.5q0 -70 -33.5 -124
t-93 -85t-137.5 -31zM908 479q39 0 70.5 17.5t50 48.5t18.5 69q0 60 -38 97.5t-100 37.5t-101 -37.5t-39 -95.5q0 -39 18.5 -70t50 -49t70.5 -18zM899 78q107 0 203 32.5t175 91.5t136.5 139t89 176.5t31.5 202.5t-31.5 202.5t-89 176.5t-136.5 139t-175 91.5t-203 32.5
t-203 -32.5t-175 -91.5t-136.5 -139t-89 -176.5t-31.5 -202.5t31.5 -202.5t89 -176.5t136.5 -139t175 -91.5t203 -32.5zM899 -50q-127 0 -242.5 39t-212 110t-167.5 167.5t-110 212t-39 242.5t39 242.5t110 212t167.5 167.5t212 110t242.5 39t242.5 -39t212 -110
t167.5 -167.5t110 -212t39 -242.5t-39 -242.5t-110 -212t-167.5 -167.5t-212 -110t-242.5 -39z" />
    <glyph glyph-name="uni2786" unicode="&#x37;&#x20dd;" 
d="M671 1071h491v-105l-296 -588h-137l301 584v6h-359v103zM899 78q107 0 203 32.5t175 91.5t136.5 139t89 176.5t31.5 202.5t-31.5 202.5t-89 176.5t-136.5 139t-175 91.5t-203 32.5t-203 -32.5t-175 -91.5t-136.5 -139t-89 -176.5t-31.5 -202.5t31.5 -202.5t89 -176.5
t136.5 -139t175 -91.5t203 -32.5zM899 -50q-127 0 -242.5 39t-212 110t-167.5 167.5t-110 212t-39 242.5t39 242.5t110 212t167.5 167.5t212 110t242.5 39t242.5 -39t212 -110t167.5 -167.5t110 -212t39 -242.5t-39 -242.5t-110 -212t-167.5 -167.5t-212 -110t-242.5 -39z
" />
    <glyph glyph-name="uni2787" unicode="&#x38;&#x20dd;" 
d="M899 467q63 0 104 33.5t41 85.5t-40.5 85.5t-104.5 33.5t-105 -34t-41 -85q0 -52 41 -85.5t105 -33.5zM899 793q53 0 87 29.5t34 75.5t-34 74.5t-87 28.5t-87 -28.5t-34 -74.5t34 -75.5t87 -29.5zM897 375q-82 0 -143 25.5t-95.5 71t-34.5 106.5q0 64 41.5 112t109.5 61
v5q-57 18 -89.5 59t-32.5 96q0 53 31.5 94.5t87 65t127.5 23.5t127.5 -23.5t87 -65t31.5 -94.5q0 -55 -33 -97t-89 -58v-5q68 -13 109.5 -60.5t41.5 -111.5q0 -61 -35 -107t-97.5 -71.5t-144.5 -25.5zM899 78q107 0 203 32.5t175 91.5t136.5 139t89 176.5t31.5 202.5
t-31.5 202.5t-89 176.5t-136.5 139t-175 91.5t-203 32.5t-203 -32.5t-175 -91.5t-136.5 -139t-89 -176.5t-31.5 -202.5t31.5 -202.5t89 -176.5t136.5 -139t175 -91.5t203 -32.5zM899 -50q-127 0 -242.5 39t-212 110t-167.5 167.5t-110 212t-39 242.5t39 242.5t110 212
t167.5 167.5t212 110t242.5 39t242.5 -39t212 -110t167.5 -167.5t110 -212t39 -242.5t-39 -242.5t-110 -212t-167.5 -167.5t-212 -110t-242.5 -39z" />
    <glyph glyph-name="uni2788" unicode="&#x39;&#x20dd;" 
d="M885 377q-65 0 -118 23t-87.5 64.5t-45.5 97.5h129q11 -38 44.5 -60.5t79.5 -22.5q76 0 119 65.5t44 184.5h-8q-25 -48 -73.5 -74.5t-110.5 -26.5q-67 0 -120 29t-83 80.5t-30 117.5q0 70 33.5 124t93 85t137.5 31q86 0 149.5 -40.5t99 -119t35.5 -191.5q0 -173 -76 -270
t-212 -97zM889 724q62 0 101 37t39 95q0 39 -18 70t-49.5 49t-71.5 18t-71.5 -17.5t-49.5 -48.5t-18 -69q0 -59 38.5 -96.5t99.5 -37.5zM899 78q107 0 203 32.5t175 91.5t136.5 139t89 176.5t31.5 202.5t-31.5 202.5t-89 176.5t-136.5 139t-175 91.5t-203 32.5t-203 -32.5
t-175 -91.5t-136.5 -139t-89 -176.5t-31.5 -202.5t31.5 -202.5t89 -176.5t136.5 -139t175 -91.5t203 -32.5zM899 -50q-127 0 -242.5 39t-212 110t-167.5 167.5t-110 212t-39 242.5t39 242.5t110 212t167.5 167.5t212 110t242.5 39t242.5 -39t212 -110t167.5 -167.5t110 -212
t39 -242.5t-39 -242.5t-110 -212t-167.5 -167.5t-212 -110t-242.5 -39z" />
    <glyph glyph-name="uni24B6" unicode="A&#x20dd;" 
d="M799 688h200l-95 287h-10zM709 408h-132l248 693h148l248 -693h-132l-62 186h-256zM899 78q107 0 203 32.5t175 91.5t136.5 139t89 176.5t31.5 202.5t-31.5 202.5t-89 176.5t-136.5 139t-175 91.5t-203 32.5t-203 -32.5t-175 -91.5t-136.5 -139t-89 -176.5t-31.5 -202.5
t31.5 -202.5t89 -176.5t136.5 -139t175 -91.5t203 -32.5zM899 -50q-127 0 -242.5 39t-212 110t-167.5 167.5t-110 212t-39 242.5t39 242.5t110 212t167.5 167.5t212 110t242.5 39t242.5 -39t212 -110t167.5 -167.5t110 -212t39 -242.5t-39 -242.5t-110 -212t-167.5 -167.5
t-212 -110t-242.5 -39z" />
    <glyph glyph-name="uni24B7" unicode="B&#x20dd;" 
d="M662 388v693h294q97 0 154 -45.5t57 -125.5q0 -62 -34 -100t-88 -52v-5q68 -7 114.5 -50t46.5 -120q0 -61 -32 -105t-89 -67t-132 -23h-291zM791 984v-194h98q78 0 114 25t36 74q0 44 -29 69.5t-82 25.5h-137zM791 700v-215h111q91 0 131 25.5t40 78.5q0 52 -35 81.5
t-101 29.5h-146zM899 78q107 0 203 32.5t175 91.5t136.5 139t89 176.5t31.5 202.5t-31.5 202.5t-89 176.5t-136.5 139t-175 91.5t-203 32.5t-203 -32.5t-175 -91.5t-136.5 -139t-89 -176.5t-31.5 -202.5t31.5 -202.5t89 -176.5t136.5 -139t175 -91.5t203 -32.5zM899 -50
q-127 0 -242.5 39t-212 110t-167.5 167.5t-110 212t-39 242.5t39 242.5t110 212t167.5 167.5t212 110t242.5 39t242.5 -39t212 -110t167.5 -167.5t110 -212t39 -242.5t-39 -242.5t-110 -212t-167.5 -167.5t-212 -110t-242.5 -39z" />
    <glyph glyph-name="uni24B8" unicode="C&#x20dd;" 
d="M1067 606h132q-10 -70 -50.5 -121.5t-105 -80.5t-146.5 -29q-97 0 -170 45t-113.5 126t-40.5 188t40.5 188t113.5 126.5t170 45.5q84 0 149 -30t105 -84t50 -126h-130q-8 59 -56 97t-116 38q-58 0 -102 -32t-68 -89.5t-24 -133.5t24 -133.5t68 -89t102 -31.5
q65 0 112.5 35.5t55.5 90.5zM899 78q107 0 203 32.5t175 91.5t136.5 139t89 176.5t31.5 202.5t-31.5 202.5t-89 176.5t-136.5 139t-175 91.5t-203 32.5t-203 -32.5t-175 -91.5t-136.5 -139t-89 -176.5t-31.5 -202.5t31.5 -202.5t89 -176.5t136.5 -139t175 -91.5t203 -32.5z
M899 -50q-127 0 -242.5 39t-212 110t-167.5 167.5t-110 212t-39 242.5t39 242.5t110 212t167.5 167.5t212 110t242.5 39t242.5 -39t212 -110t167.5 -167.5t110 -212t39 -242.5t-39 -242.5t-110 -212t-167.5 -167.5t-212 -110t-242.5 -39z" />
    <glyph glyph-name="uni24B9" unicode="D&#x20dd;" 
d="M655 1081h256q164 0 243.5 -89.5t79.5 -255.5t-80 -257t-243 -91h-256v693zM785 978v-487h110q105 0 155 60.5t50 182.5t-50 183t-155 61h-110zM899 78q107 0 203 32.5t175 91.5t136.5 139t89 176.5t31.5 202.5t-31.5 202.5t-89 176.5t-136.5 139t-175 91.5t-203 32.5
t-203 -32.5t-175 -91.5t-136.5 -139t-89 -176.5t-31.5 -202.5t31.5 -202.5t89 -176.5t136.5 -139t175 -91.5t203 -32.5zM899 -50q-127 0 -242.5 39t-212 110t-167.5 167.5t-110 212t-39 242.5t39 242.5t110 212t167.5 167.5t212 110t242.5 39t242.5 -39t212 -110
t167.5 -167.5t110 -212t39 -242.5t-39 -242.5t-110 -212t-167.5 -167.5t-212 -110t-242.5 -39z" />
    <glyph glyph-name="uni24BA" unicode="E&#x20dd;" 
d="M1134 491v-103h-459v693h459v-103h-330v-190h311v-98h-311v-199h330zM899 78q107 0 203 32.5t175 91.5t136.5 139t89 176.5t31.5 202.5t-31.5 202.5t-89 176.5t-136.5 139t-175 91.5t-203 32.5t-203 -32.5t-175 -91.5t-136.5 -139t-89 -176.5t-31.5 -202.5t31.5 -202.5
t89 -176.5t136.5 -139t175 -91.5t203 -32.5zM899 -50q-127 0 -242.5 39t-212 110t-167.5 167.5t-110 212t-39 242.5t39 242.5t110 212t167.5 167.5t212 110t242.5 39t242.5 -39t212 -110t167.5 -167.5t110 -212t39 -242.5t-39 -242.5t-110 -212t-167.5 -167.5t-212 -110
t-242.5 -39z" />
    <glyph glyph-name="uni24BB" unicode="F&#x20dd;" 
d="M837 388h-131v693h454v-104h-323v-205h295v-102h-295v-282zM899 78q107 0 203 32.5t175 91.5t136.5 139t89 176.5t31.5 202.5t-31.5 202.5t-89 176.5t-136.5 139t-175 91.5t-203 32.5t-203 -32.5t-175 -91.5t-136.5 -139t-89 -176.5t-31.5 -202.5t31.5 -202.5t89 -176.5
t136.5 -139t175 -91.5t203 -32.5zM899 -50q-127 0 -242.5 39t-212 110t-167.5 167.5t-110 212t-39 242.5t39 242.5t110 212t167.5 167.5t212 110t242.5 39t242.5 -39t212 -110t167.5 -167.5t110 -212t39 -242.5t-39 -242.5t-110 -212t-167.5 -167.5t-212 -110t-242.5 -39z
" />
    <glyph glyph-name="uni24BC" unicode="G&#x20dd;" 
d="M1070 604v57h-160v95h284v-122q0 -76 -33.5 -134t-99 -91.5t-162.5 -33.5t-170.5 45t-114.5 126t-41 188t41 188t114.5 126.5t170.5 45.5q81 0 145.5 -29t105 -80.5t49.5 -120.5h-130q-6 36 -29.5 64t-59.5 44.5t-79 16.5q-60 0 -104 -31.5t-68 -88.5t-24 -135
q0 -77 24 -134t68 -88.5t104 -31.5q82 0 125.5 34.5t43.5 89.5zM899 78q107 0 203 32.5t175 91.5t136.5 139t89 176.5t31.5 202.5t-31.5 202.5t-89 176.5t-136.5 139t-175 91.5t-203 32.5t-203 -32.5t-175 -91.5t-136.5 -139t-89 -176.5t-31.5 -202.5t31.5 -202.5t89 -176.5
t136.5 -139t175 -91.5t203 -32.5zM899 -50q-127 0 -242.5 39t-212 110t-167.5 167.5t-110 212t-39 242.5t39 242.5t110 212t167.5 167.5t212 110t242.5 39t242.5 -39t212 -110t167.5 -167.5t110 -212t39 -242.5t-39 -242.5t-110 -212t-167.5 -167.5t-212 -110t-242.5 -39z
" />
    <glyph glyph-name="uni24BD" unicode="H&#x20dd;" 
d="M1190 388h-130v304h-321v-304h-130v693h130v-286h321v286h130v-693zM899 78q107 0 203 32.5t175 91.5t136.5 139t89 176.5t31.5 202.5t-31.5 202.5t-89 176.5t-136.5 139t-175 91.5t-203 32.5t-203 -32.5t-175 -91.5t-136.5 -139t-89 -176.5t-31.5 -202.5t31.5 -202.5
t89 -176.5t136.5 -139t175 -91.5t203 -32.5zM899 -50q-127 0 -242.5 39t-212 110t-167.5 167.5t-110 212t-39 242.5t39 242.5t110 212t167.5 167.5t212 110t242.5 39t242.5 -39t212 -110t167.5 -167.5t110 -212t39 -242.5t-39 -242.5t-110 -212t-167.5 -167.5t-212 -110
t-242.5 -39z" />
    <glyph glyph-name="uni24BE" unicode="I&#x20dd;" 
d="M965 388h-132v693h132v-693zM899 78q107 0 203 32.5t175 91.5t136.5 139t89 176.5t31.5 202.5t-31.5 202.5t-89 176.5t-136.5 139t-175 91.5t-203 32.5t-203 -32.5t-175 -91.5t-136.5 -139t-89 -176.5t-31.5 -202.5t31.5 -202.5t89 -176.5t136.5 -139t175 -91.5
t203 -32.5zM899 -50q-127 0 -242.5 39t-212 110t-167.5 167.5t-110 212t-39 242.5t39 242.5t110 212t167.5 167.5t212 110t242.5 39t242.5 -39t212 -110t167.5 -167.5t110 -212t39 -242.5t-39 -242.5t-110 -212t-167.5 -167.5t-212 -110t-242.5 -39z" />
    <glyph glyph-name="uni24BF" unicode="J&#x20dd;" 
d="M635 576h126q1 -40 28.5 -65.5t71.5 -25.5q53 0 80 30t27 85v481h130v-477q0 -111 -63 -170t-173 -59q-74 0 -124.5 27t-76.5 72.5t-26 101.5zM899 78q107 0 203 32.5t175 91.5t136.5 139t89 176.5t31.5 202.5t-31.5 202.5t-89 176.5t-136.5 139t-175 91.5t-203 32.5
t-203 -32.5t-175 -91.5t-136.5 -139t-89 -176.5t-31.5 -202.5t31.5 -202.5t89 -176.5t136.5 -139t175 -91.5t203 -32.5zM899 -50q-127 0 -242.5 39t-212 110t-167.5 167.5t-110 212t-39 242.5t39 242.5t110 212t167.5 167.5t212 110t242.5 39t242.5 -39t212 -110
t167.5 -167.5t110 -212t39 -242.5t-39 -242.5t-110 -212t-167.5 -167.5t-212 -110t-242.5 -39z" />
    <glyph glyph-name="uni24C0" unicode="&#x212a;&#x20dd;" 
d="M1214 1081l-263 -297l274 -396h-158l-212 312l-78 -84v-228h-130v693h130v-317h5l287 317h145zM899 78q107 0 203 32.5t175 91.5t136.5 139t89 176.5t31.5 202.5t-31.5 202.5t-89 176.5t-136.5 139t-175 91.5t-203 32.5t-203 -32.5t-175 -91.5t-136.5 -139t-89 -176.5
t-31.5 -202.5t31.5 -202.5t89 -176.5t136.5 -139t175 -91.5t203 -32.5zM899 -50q-127 0 -242.5 39t-212 110t-167.5 167.5t-110 212t-39 242.5t39 242.5t110 212t167.5 167.5t212 110t242.5 39t242.5 -39t212 -110t167.5 -167.5t110 -212t39 -242.5t-39 -242.5t-110 -212
t-167.5 -167.5t-212 -110t-242.5 -39z" />
    <glyph glyph-name="uni24C1" unicode="L&#x20dd;" 
d="M1167 495v-107h-446v693h131v-586h315zM899 78q107 0 203 32.5t175 91.5t136.5 139t89 176.5t31.5 202.5t-31.5 202.5t-89 176.5t-136.5 139t-175 91.5t-203 32.5t-203 -32.5t-175 -91.5t-136.5 -139t-89 -176.5t-31.5 -202.5t31.5 -202.5t89 -176.5t136.5 -139
t175 -91.5t203 -32.5zM899 -50q-127 0 -242.5 39t-212 110t-167.5 167.5t-110 212t-39 242.5t39 242.5t110 212t167.5 167.5t212 110t242.5 39t242.5 -39t212 -110t167.5 -167.5t110 -212t39 -242.5t-39 -242.5t-110 -212t-167.5 -167.5t-212 -110t-242.5 -39z" />
    <glyph glyph-name="uni24C2" unicode="M&#x20dd;" 
d="M667 388h-117v693h132l216 -533h4l216 533h130v-693h-117v473h-6l-180 -453h-91l-181 453h-6v-473zM899 78q107 0 203 32.5t175 91.5t136.5 139t89 176.5t31.5 202.5t-31.5 202.5t-89 176.5t-136.5 139t-175 91.5t-203 32.5t-203 -32.5t-175 -91.5t-136.5 -139
t-89 -176.5t-31.5 -202.5t31.5 -202.5t89 -176.5t136.5 -139t175 -91.5t203 -32.5zM899 -50q-127 0 -242.5 39t-212 110t-167.5 167.5t-110 212t-39 242.5t39 242.5t110 212t167.5 167.5t212 110t242.5 39t242.5 -39t212 -110t167.5 -167.5t110 -212t39 -242.5t-39 -242.5
t-110 -212t-167.5 -167.5t-212 -110t-242.5 -39z" />
    <glyph glyph-name="uni24C3" unicode="N&#x20dd;" 
d="M737 388h-124v693h111l331 -482h6v482h124v-693h-111l-332 484h-5v-484zM899 78q107 0 203 32.5t175 91.5t136.5 139t89 176.5t31.5 202.5t-31.5 202.5t-89 176.5t-136.5 139t-175 91.5t-203 32.5t-203 -32.5t-175 -91.5t-136.5 -139t-89 -176.5t-31.5 -202.5
t31.5 -202.5t89 -176.5t136.5 -139t175 -91.5t203 -32.5zM899 -50q-127 0 -242.5 39t-212 110t-167.5 167.5t-110 212t-39 242.5t39 242.5t110 212t167.5 167.5t212 110t242.5 39t242.5 -39t212 -110t167.5 -167.5t110 -212t39 -242.5t-39 -242.5t-110 -212t-167.5 -167.5
t-212 -110t-242.5 -39z" />
    <glyph glyph-name="uni24C4" unicode="O&#x20dd;" 
d="M899 480q54 0 98 29.5t70 86t26 138.5t-26 139t-70 86.5t-98 29.5t-98 -29.5t-70 -86.5t-26 -139t26 -138.5t70 -86t98 -29.5zM899 375q-90 0 -164 42t-118 122.5t-44 194.5q0 115 44 195.5t118 122.5t164 42t164 -42t118 -122.5t44 -195.5q0 -114 -44 -194.5
t-118 -122.5t-164 -42zM899 78q107 0 203 32.5t175 91.5t136.5 139t89 176.5t31.5 202.5t-31.5 202.5t-89 176.5t-136.5 139t-175 91.5t-203 32.5t-203 -32.5t-175 -91.5t-136.5 -139t-89 -176.5t-31.5 -202.5t31.5 -202.5t89 -176.5t136.5 -139t175 -91.5t203 -32.5z
M899 -50q-127 0 -242.5 39t-212 110t-167.5 167.5t-110 212t-39 242.5t39 242.5t110 212t167.5 167.5t212 110t242.5 39t242.5 -39t212 -110t167.5 -167.5t110 -212t39 -242.5t-39 -242.5t-110 -212t-167.5 -167.5t-212 -110t-242.5 -39z" />
    <glyph glyph-name="uni24C5" unicode="P&#x20dd;" 
d="M961 1081q76 0 130.5 -30t83 -81.5t28.5 -115.5q0 -65 -29 -116t-83 -80t-131 -29h-153v-241h-129v693h283zM1070 854q0 60 -34.5 93t-96.5 33h-132v-251h132q62 0 96.5 32.5t34.5 92.5zM899 78q107 0 203 32.5t175 91.5t136.5 139t89 176.5t31.5 202.5t-31.5 202.5
t-89 176.5t-136.5 139t-175 91.5t-203 32.5t-203 -32.5t-175 -91.5t-136.5 -139t-89 -176.5t-31.5 -202.5t31.5 -202.5t89 -176.5t136.5 -139t175 -91.5t203 -32.5zM899 -50q-127 0 -242.5 39t-212 110t-167.5 167.5t-110 212t-39 242.5t39 242.5t110 212t167.5 167.5
t212 110t242.5 39t242.5 -39t212 -110t167.5 -167.5t110 -212t39 -242.5t-39 -242.5t-110 -212t-167.5 -167.5t-212 -110t-242.5 -39z" />
    <glyph glyph-name="uni24C6" unicode="Q&#x20dd;" 
d="M1199 319h-128l-56 76q-55 -20 -116 -20q-90 0 -164 42t-118 122.5t-44 194.5q0 115 44 195.5t118 122.5t164 42t164 -42t118 -122.5t44 -195.5q0 -98 -32.5 -170t-87.5 -118zM899 480q13 0 25.5 1.5t23.5 5.5l-84 115h126l44 -60q27 32 43 80.5t16 111.5q0 82 -26 139
t-70 86.5t-98 29.5t-98 -29.5t-70 -86.5t-26 -139t26 -138.5t70 -86t98 -29.5zM899 78q107 0 203 32.5t175 91.5t136.5 139t89 176.5t31.5 202.5t-31.5 202.5t-89 176.5t-136.5 139t-175 91.5t-203 32.5t-203 -32.5t-175 -91.5t-136.5 -139t-89 -176.5t-31.5 -202.5
t31.5 -202.5t89 -176.5t136.5 -139t175 -91.5t203 -32.5zM899 -50q-127 0 -242.5 39t-212 110t-167.5 167.5t-110 212t-39 242.5t39 242.5t110 212t167.5 167.5t212 110t242.5 39t242.5 -39t212 -110t167.5 -167.5t110 -212t39 -242.5t-39 -242.5t-110 -212t-167.5 -167.5
t-212 -110t-242.5 -39z" />
    <glyph glyph-name="uni24C7" unicode="R&#x20dd;" 
d="M933 1081q117 0 183 -59t66 -157q0 -49 -18.5 -88t-48.5 -66t-66 -40l146 -283h-146l-128 263h-142v-263h-128v693h282zM779 747h132q64 0 100.5 29t36.5 85q0 59 -36.5 89.5t-96.5 30.5h-136v-234zM899 78q107 0 203 32.5t175 91.5t136.5 139t89 176.5t31.5 202.5
t-31.5 202.5t-89 176.5t-136.5 139t-175 91.5t-203 32.5t-203 -32.5t-175 -91.5t-136.5 -139t-89 -176.5t-31.5 -202.5t31.5 -202.5t89 -176.5t136.5 -139t175 -91.5t203 -32.5zM899 -50q-127 0 -242.5 39t-212 110t-167.5 167.5t-110 212t-39 242.5t39 242.5t110 212
t167.5 167.5t212 110t242.5 39t242.5 -39t212 -110t167.5 -167.5t110 -212t39 -242.5t-39 -242.5t-110 -212t-167.5 -167.5t-212 -110t-242.5 -39z" />
    <glyph glyph-name="uni24C8" unicode="S&#x20dd;" 
d="M619 582h127q5 -48 48 -77.5t110 -29.5t106.5 28t39.5 75q0 36 -27 58.5t-88 37.5l-117 26q-88 20 -134 68t-46 121q0 61 33.5 107.5t93.5 72.5t139 26q77 0 136.5 -25.5t93.5 -71.5t35 -106h-124q-4 47 -42.5 75.5t-99.5 28.5q-60 0 -97 -28t-37 -72q0 -65 100 -87
l117 -26q99 -23 146 -70t47 -124q0 -66 -34.5 -114t-98 -74t-150.5 -26q-83 0 -144.5 25.5t-96 71.5t-36.5 110zM899 78q107 0 203 32.5t175 91.5t136.5 139t89 176.5t31.5 202.5t-31.5 202.5t-89 176.5t-136.5 139t-175 91.5t-203 32.5t-203 -32.5t-175 -91.5t-136.5 -139
t-89 -176.5t-31.5 -202.5t31.5 -202.5t89 -176.5t136.5 -139t175 -91.5t203 -32.5zM899 -50q-127 0 -242.5 39t-212 110t-167.5 167.5t-110 212t-39 242.5t39 242.5t110 212t167.5 167.5t212 110t242.5 39t242.5 -39t212 -110t167.5 -167.5t110 -212t39 -242.5t-39 -242.5
t-110 -212t-167.5 -167.5t-212 -110t-242.5 -39z" />
    <glyph glyph-name="uni24C9" unicode="T&#x20dd;" 
d="M965 368h-132v588h-210v105h552v-105h-210v-588zM899 78q107 0 203 32.5t175 91.5t136.5 139t89 176.5t31.5 202.5t-31.5 202.5t-89 176.5t-136.5 139t-175 91.5t-203 32.5t-203 -32.5t-175 -91.5t-136.5 -139t-89 -176.5t-31.5 -202.5t31.5 -202.5t89 -176.5t136.5 -139
t175 -91.5t203 -32.5zM899 -50q-127 0 -242.5 39t-212 110t-167.5 167.5t-110 212t-39 242.5t39 242.5t110 212t167.5 167.5t212 110t242.5 39t242.5 -39t212 -110t167.5 -167.5t110 -212t39 -242.5t-39 -242.5t-110 -212t-167.5 -167.5t-212 -110t-242.5 -39z" />
    <glyph glyph-name="uni24CA" unicode="U&#x20dd;" 
d="M899 462q71 0 114.5 40.5t43.5 115.5v443h130v-454q0 -75 -35.5 -132t-100 -88.5t-152.5 -31.5t-152.5 31.5t-100 88.5t-35.5 132v454h130v-443q0 -75 43.5 -115.5t114.5 -40.5zM899 78q107 0 203 32.5t175 91.5t136.5 139t89 176.5t31.5 202.5t-31.5 202.5t-89 176.5
t-136.5 139t-175 91.5t-203 32.5t-203 -32.5t-175 -91.5t-136.5 -139t-89 -176.5t-31.5 -202.5t31.5 -202.5t89 -176.5t136.5 -139t175 -91.5t203 -32.5zM899 -50q-127 0 -242.5 39t-212 110t-167.5 167.5t-110 212t-39 242.5t39 242.5t110 212t167.5 167.5t212 110
t242.5 39t242.5 -39t212 -110t167.5 -167.5t110 -212t39 -242.5t-39 -242.5t-110 -212t-167.5 -167.5t-212 -110t-242.5 -39z" />
    <glyph glyph-name="uni24CB" unicode="V&#x20dd;" 
d="M821 368l-250 693h151l174 -555h6l174 555h151l-250 -693h-156zM899 78q107 0 203 32.5t175 91.5t136.5 139t89 176.5t31.5 202.5t-31.5 202.5t-89 176.5t-136.5 139t-175 91.5t-203 32.5t-203 -32.5t-175 -91.5t-136.5 -139t-89 -176.5t-31.5 -202.5t31.5 -202.5
t89 -176.5t136.5 -139t175 -91.5t203 -32.5zM899 -50q-127 0 -242.5 39t-212 110t-167.5 167.5t-110 212t-39 242.5t39 242.5t110 212t167.5 167.5t212 110t242.5 39t242.5 -39t212 -110t167.5 -167.5t110 -212t39 -242.5t-39 -242.5t-110 -212t-167.5 -167.5t-212 -110
t-242.5 -39z" />
    <glyph glyph-name="uni24CC" unicode="W&#x20dd;" 
d="M897 869l-140 -501h-119l-195 693h143l117 -518h6l133 518h114l133 -518h6l117 518h143l-195 -693h-119l-140 501h-4zM899 78q107 0 203 32.5t175 91.5t136.5 139t89 176.5t31.5 202.5t-31.5 202.5t-89 176.5t-136.5 139t-175 91.5t-203 32.5t-203 -32.5t-175 -91.5
t-136.5 -139t-89 -176.5t-31.5 -202.5t31.5 -202.5t89 -176.5t136.5 -139t175 -91.5t203 -32.5zM899 -50q-127 0 -242.5 39t-212 110t-167.5 167.5t-110 212t-39 242.5t39 242.5t110 212t167.5 167.5t212 110t242.5 39t242.5 -39t212 -110t167.5 -167.5t110 -212t39 -242.5
t-39 -242.5t-110 -212t-167.5 -167.5t-212 -110t-242.5 -39z" />
    <glyph glyph-name="uni24CD" unicode="X&#x20dd;" 
d="M1213 1081l-233 -348l230 -345h-152l-161 253h-6l-163 -253h-143l229 349l-227 344h155l159 -256h6l158 256h148zM899 78q107 0 203 32.5t175 91.5t136.5 139t89 176.5t31.5 202.5t-31.5 202.5t-89 176.5t-136.5 139t-175 91.5t-203 32.5t-203 -32.5t-175 -91.5
t-136.5 -139t-89 -176.5t-31.5 -202.5t31.5 -202.5t89 -176.5t136.5 -139t175 -91.5t203 -32.5zM899 -50q-127 0 -242.5 39t-212 110t-167.5 167.5t-110 212t-39 242.5t39 242.5t110 212t167.5 167.5t212 110t242.5 39t242.5 -39t212 -110t167.5 -167.5t110 -212t39 -242.5
t-39 -242.5t-110 -212t-167.5 -167.5t-212 -110t-242.5 -39z" />
    <glyph glyph-name="uni24CE" unicode="Y&#x20dd;" 
d="M965 383h-131v273l-243 420h145l162 -297h5l162 297h142l-242 -418v-275zM899 78q107 0 203 32.5t175 91.5t136.5 139t89 176.5t31.5 202.5t-31.5 202.5t-89 176.5t-136.5 139t-175 91.5t-203 32.5t-203 -32.5t-175 -91.5t-136.5 -139t-89 -176.5t-31.5 -202.5
t31.5 -202.5t89 -176.5t136.5 -139t175 -91.5t203 -32.5zM899 -50q-127 0 -242.5 39t-212 110t-167.5 167.5t-110 212t-39 242.5t39 242.5t110 212t167.5 167.5t212 110t242.5 39t242.5 -39t212 -110t167.5 -167.5t110 -212t39 -242.5t-39 -242.5t-110 -212t-167.5 -167.5
t-212 -110t-242.5 -39z" />
    <glyph glyph-name="uni24CF" unicode="Z&#x20dd;" 
d="M634 388v83l361 499v7h-350v104h509v-83l-360 -499v-7h370v-104h-530zM899 78q107 0 203 32.5t175 91.5t136.5 139t89 176.5t31.5 202.5t-31.5 202.5t-89 176.5t-136.5 139t-175 91.5t-203 32.5t-203 -32.5t-175 -91.5t-136.5 -139t-89 -176.5t-31.5 -202.5t31.5 -202.5
t89 -176.5t136.5 -139t175 -91.5t203 -32.5zM899 -50q-127 0 -242.5 39t-212 110t-167.5 167.5t-110 212t-39 242.5t39 242.5t110 212t167.5 167.5t212 110t242.5 39t242.5 -39t212 -110t167.5 -167.5t110 -212t39 -242.5t-39 -242.5t-110 -212t-167.5 -167.5t-212 -110
t-242.5 -39z" />
    <glyph glyph-name="u1F10B" unicode="&#x23;&#x20dd;" 
d="M899 486q66 0 105 65t39 184t-39 184t-105 65t-105 -65t-39 -184t39 -184t105 -65zM899 376q-78 0 -138.5 42t-95 122t-34.5 195t34.5 195t95 122t138.5 42t138.5 -42t95 -122t34.5 -195t-34.5 -195t-95 -122t-138.5 -42zM899 78q107 0 203 32.5t175 91.5t136.5 139
t89 176.5t31.5 202.5t-31.5 202.5t-89 176.5t-136.5 139t-175 91.5t-203 32.5t-203 -32.5t-175 -91.5t-136.5 -139t-89 -176.5t-31.5 -202.5t31.5 -202.5t89 -176.5t136.5 -139t175 -91.5t203 -32.5zM899 -50q-127 0 -242.5 39t-212 110t-167.5 167.5t-110 212t-39 242.5
t39 242.5t110 212t167.5 167.5t212 110t242.5 39t242.5 -39t212 -110t167.5 -167.5t110 -212t39 -242.5t-39 -242.5t-110 -212t-167.5 -167.5t-212 -110t-242.5 -39z" />
    <glyph glyph-name="u1F10C" unicode="&#x30;&#x20dd;&#x25cf;" 
d="M895 461q-70 0 -109 70.5t-39 203.5t39 203.5t109 70.5t109 -70.5t39 -203.5t-39 -203.5t-109 -70.5zM895 338q92 0 159.5 48t105 137t37.5 212t-37.5 212t-105 137t-159.5 48t-159.5 -48t-105 -137t-37.5 -212t37.5 -212t105 -137t159.5 -48zM899 -50q-127 0 -242.5 39
t-212 110t-167.5 167.5t-110 212t-39 242.5t39 242.5t110 212t167.5 167.5t212 110t242.5 39t242.5 -39t212 -110t167.5 -167.5t110 -212t39 -242.5t-39 -242.5t-110 -212t-167.5 -167.5t-212 -110t-242.5 -39z" />
    <glyph glyph-name="uni278A" unicode="&#x31;&#x20dd;&#x25cf;" 
d="M1012 353v765h-148l-191 -132v-140l187 128h1v-621h151zM899 -50q-127 0 -242.5 39t-212 110t-167.5 167.5t-110 212t-39 242.5t39 242.5t110 212t167.5 167.5t212 110t242.5 39t242.5 -39t212 -110t167.5 -167.5t110 -212t39 -242.5t-39 -242.5t-110 -212t-167.5 -167.5
t-212 -110t-242.5 -39z" />
    <glyph glyph-name="uni278B" unicode="&#x32;&#x20dd;&#x25cf;" 
d="M771 886v11q0 46 31.5 80.5t90.5 34.5q50 0 84.5 -30t34.5 -77q0 -48 -28 -85.5t-60 -70.5l-293 -306v-91h546v122h-342v0l203 212q33 35 61.5 69.5t46 73.5t17.5 87q0 62 -33 110.5t-93.5 76.5t-141.5 28q-91 0 -151 -34t-89.5 -87.5t-29.5 -112.5v-11h146zM899 -50
q-127 0 -242.5 39t-212 110t-167.5 167.5t-110 212t-39 242.5t39 242.5t110 212t167.5 167.5t212 110t242.5 39t242.5 -39t212 -110t167.5 -167.5t110 -212t39 -242.5t-39 -242.5t-110 -212t-167.5 -167.5t-212 -110t-242.5 -39z" />
    <glyph glyph-name="uni278C" unicode="&#x33;&#x20dd;&#x25cf;" 
d="M803 688h93q64 0 102 -32.5t39 -82.5q0 -51 -39.5 -84t-106.5 -33q-59 1 -99 29t-45 69h-140q2 -59 36 -108t96 -78.5t151 -29.5q83 0 151.5 27.5t109 79.5t39.5 124q-2 61 -29 100.5t-65.5 60t-74.5 24.5v0v0q29 6 63 28t58 60t23 91q-2 57 -35.5 102.5t-93.5 71.5
t-141 26q-86 -1 -146 -30t-92 -77.5t-34 -107.5h144q2 38 35 67.5t89 29.5q54 0 88.5 -28.5t35.5 -74.5q0 -46 -35 -76t-89 -30h-88v-118zM899 -50q-127 0 -242.5 39t-212 110t-167.5 167.5t-110 212t-39 242.5t39 242.5t110 212t167.5 167.5t212 110t242.5 39t242.5 -39
t212 -110t167.5 -167.5t110 -212t39 -242.5t-39 -242.5t-110 -212t-167.5 -167.5t-212 -110t-242.5 -39z" />
    <glyph glyph-name="uni278D" unicode="&#x34;&#x20dd;&#x25cf;" 
d="M867 1118q-60 -94 -107 -167t-84 -131t-66.5 -108t-56.5 -97v-117h383v-145h145v145h100v120h-100v500h-214zM936 618h-241v1q55 95 117.5 191.5t123.5 188.5v0v0v-381zM899 -50q-127 0 -242.5 39t-212 110t-167.5 167.5t-110 212t-39 242.5t39 242.5t110 212
t167.5 167.5t212 110t242.5 39t242.5 -39t212 -110t167.5 -167.5t110 -212t39 -242.5t-39 -242.5t-110 -212t-167.5 -167.5t-212 -110t-242.5 -39z" />
    <glyph glyph-name="uni278E" unicode="&#x35;&#x20dd;&#x25cf;" 
d="M618 552q3 -61 38.5 -109t97 -76t143.5 -28q88 0 155.5 34t105.5 95t38 143q0 79 -35.5 134.5t-94.5 85t-129 29.5q-64 0 -104 -22t-56 -41v0v0l17 201h359v120h-483l-35 -448h131q13 25 47 49.5t88 24.5q40 0 73 -17t53 -48t20 -73q0 -48 -21 -81t-54 -50t-69 -17
q-50 0 -92 23.5t-51 70.5h-142zM899 -50q-127 0 -242.5 39t-212 110t-167.5 167.5t-110 212t-39 242.5t39 242.5t110 212t167.5 167.5t212 110t242.5 39t242.5 -39t212 -110t167.5 -167.5t110 -212t39 -242.5t-39 -242.5t-110 -212t-167.5 -167.5t-212 -110t-242.5 -39z" />
    <glyph glyph-name="uni278F" unicode="&#x36;&#x20dd;&#x25cf;" 
d="M911 341q85 0 150.5 34t102.5 94.5t37 137.5q0 72 -32.5 128.5t-89.5 88.5t-130 32q-67 0 -118 -29t-78 -82h-9q1 127 45.5 196t125.5 69q47 0 80 -23t43 -64h153q-10 62 -47.5 109t-97 73.5t-133.5 26.5q-97 0 -168 -48t-109.5 -138.5t-38.5 -216.5q0 -129 40.5 -215.5
t111.5 -129.5t162 -43zM909 462q-40 0 -72 19t-50.5 52t-18.5 73q0 60 39.5 99t102.5 39t102 -39t39 -101q0 -40 -18.5 -72t-51 -51t-72.5 -19zM899 -50q-127 0 -242.5 39t-212 110t-167.5 167.5t-110 212t-39 242.5t39 242.5t110 212t167.5 167.5t212 110t242.5 39
t242.5 -39t212 -110t167.5 -167.5t110 -212t39 -242.5t-39 -242.5t-110 -212t-167.5 -167.5t-212 -110t-242.5 -39z" />
    <glyph glyph-name="uni2790" unicode="&#x37;&#x20dd;&#x25cf;" 
d="M640 1108v-123h392v-1l-332 -641h159l325 645v120h-544zM899 -50q-127 0 -242.5 39t-212 110t-167.5 167.5t-110 212t-39 242.5t39 242.5t110 212t167.5 167.5t212 110t242.5 39t242.5 -39t212 -110t167.5 -167.5t110 -212t39 -242.5t-39 -242.5t-110 -212t-167.5 -167.5
t-212 -110t-242.5 -39z" />
    <glyph glyph-name="uni2791" unicode="&#x38;&#x20dd;&#x25cf;" 
d="M895 805q-56 0 -90.5 30t-34.5 78t34.5 78t90.5 30t90.5 -30t34.5 -78t-34.5 -78t-90.5 -30zM895 449q-67 0 -110.5 35.5t-43.5 88.5q0 54 43.5 89.5t110.5 35.5t110.5 -35.5t43.5 -89.5q0 -53 -43.5 -88.5t-110.5 -35.5zM895 338q90 0 158.5 28.5t107 79.5t38.5 119
q0 70 -44 121.5t-119 67.5v0v0q62 21 96.5 66.5t34.5 107.5q0 60 -34.5 106.5t-96 72.5t-141.5 26t-141.5 -26t-96 -72.5t-34.5 -106.5q0 -62 34.5 -107.5t96.5 -66.5v0v0q-75 -16 -119 -67.5t-44 -121.5q0 -68 38.5 -119t107 -79.5t158.5 -28.5zM899 -50q-127 0 -242.5 39
t-212 110t-167.5 167.5t-110 212t-39 242.5t39 242.5t110 212t167.5 167.5t212 110t242.5 39t242.5 -39t212 -110t167.5 -167.5t110 -212t39 -242.5t-39 -242.5t-110 -212t-167.5 -167.5t-212 -110t-242.5 -39z" />
    <glyph glyph-name="uni2792" unicode="&#x39;&#x20dd;&#x25cf;" 
d="M884 341q99 0 170 48t109 138.5t38 215.5q0 123 -38.5 210t-109 133t-166.5 46q-85 0 -150.5 -34t-102.5 -94t-37 -138q0 -72 32.5 -128t89.5 -88.5t130 -32.5q67 0 118 29t78 82h9q0 -125 -44.5 -195t-123.5 -70q-47 0 -81 23t-45 63h-153q11 -63 49.5 -109.5t97 -72.5
t130.5 -26zM888 730q-62 0 -101.5 39t-39.5 101q0 40 18.5 71.5t50.5 50t73 18.5q40 0 72 -19t50.5 -51t18.5 -72q0 -59 -40 -98.5t-102 -39.5zM899 -50q-127 0 -242.5 39t-212 110t-167.5 167.5t-110 212t-39 242.5t39 242.5t110 212t167.5 167.5t212 110t242.5 39
t242.5 -39t212 -110t167.5 -167.5t110 -212t39 -242.5t-39 -242.5t-110 -212t-167.5 -167.5t-212 -110t-242.5 -39z" />
    <glyph glyph-name="u1F130" unicode="A&#x20de;" 
d="M799 668h200l-95 287h-10zM709 388h-132l248 693h148l248 -693h-132l-62 186h-256zM415 1464h968q72 0 130.5 -34.5t93 -92t34.5 -127.5v-976q0 -70 -34.5 -127.5t-93 -92t-130.5 -34.5h-968q-71 0 -129.5 34.5t-93.5 92t-35 127.5v976q0 70 35 127.5t93.5 92t129.5 34.5
zM1512 1208q0 38 -19.5 69t-52 50t-71.5 19h-940q-38 0 -71 -18.5t-52.5 -50t-19.5 -69.5v-972q0 -38 19.5 -69t52.5 -50t71 -19h940q39 0 71.5 19t52 50t19.5 69v972z" />
    <glyph glyph-name="u1F131" unicode="B&#x20de;" 
d="M662 388v693h294q97 0 154 -45.5t57 -125.5q0 -62 -34 -100t-88 -52v-5q68 -7 114.5 -50t46.5 -120q0 -61 -32 -105t-89 -67t-132 -23h-291zM791 984v-194h98q78 0 114 25t36 74q0 44 -29 69.5t-82 25.5h-137zM791 700v-215h111q91 0 131 25.5t40 78.5q0 52 -35 81.5
t-101 29.5h-146zM415 1464h968q72 0 130.5 -34.5t93 -92t34.5 -127.5v-976q0 -70 -34.5 -127.5t-93 -92t-130.5 -34.5h-968q-71 0 -129.5 34.5t-93.5 92t-35 127.5v976q0 70 35 127.5t93.5 92t129.5 34.5zM1512 1208q0 38 -19.5 69t-52 50t-71.5 19h-940q-38 0 -71 -18.5
t-52.5 -50t-19.5 -69.5v-972q0 -38 19.5 -69t52.5 -50t71 -19h940q39 0 71.5 19t52 50t19.5 69v972z" />
    <glyph glyph-name="u1F132" unicode="C&#x20de;" 
d="M1067 606h132q-10 -70 -50.5 -121.5t-105 -80.5t-146.5 -29q-97 0 -170 45t-113.5 126t-40.5 188t40.5 188t113.5 126.5t170 45.5q84 0 149 -30t105 -84t50 -126h-130q-8 59 -56 97t-116 38q-58 0 -102 -32t-68 -89.5t-24 -133.5t24 -133.5t68 -89t102 -31.5
q65 0 112.5 35.5t55.5 90.5zM415 1464h968q72 0 130.5 -34.5t93 -92t34.5 -127.5v-976q0 -70 -34.5 -127.5t-93 -92t-130.5 -34.5h-968q-71 0 -129.5 34.5t-93.5 92t-35 127.5v976q0 70 35 127.5t93.5 92t129.5 34.5zM1512 1208q0 38 -19.5 69t-52 50t-71.5 19h-940
q-38 0 -71 -18.5t-52.5 -50t-19.5 -69.5v-972q0 -38 19.5 -69t52.5 -50t71 -19h940q39 0 71.5 19t52 50t19.5 69v972z" />
    <glyph glyph-name="u1F133" unicode="D&#x20de;" 
d="M632 1081h256q163 0 243 -89.5t80 -255.5t-80 -257t-243 -91h-256v693zM762 978v-487h110q105 0 155 60.5t50 182.5t-50 183t-155 61h-110zM415 1464h968q72 0 130.5 -34.5t93 -92t34.5 -127.5v-976q0 -70 -34.5 -127.5t-93 -92t-130.5 -34.5h-968q-71 0 -129.5 34.5
t-93.5 92t-35 127.5v976q0 70 35 127.5t93.5 92t129.5 34.5zM1512 1208q0 38 -19.5 69t-52 50t-71.5 19h-940q-38 0 -71 -18.5t-52.5 -50t-19.5 -69.5v-972q0 -38 19.5 -69t52.5 -50t71 -19h940q39 0 71.5 19t52 50t19.5 69v972z" />
    <glyph glyph-name="u1F134" unicode="E&#x20de;" 
d="M1134 491v-103h-459v693h459v-103h-330v-190h311v-98h-311v-199h330zM415 1464h968q72 0 130.5 -34.5t93 -92t34.5 -127.5v-976q0 -70 -34.5 -127.5t-93 -92t-130.5 -34.5h-968q-71 0 -129.5 34.5t-93.5 92t-35 127.5v976q0 70 35 127.5t93.5 92t129.5 34.5zM1512 1208
q0 38 -19.5 69t-52 50t-71.5 19h-940q-38 0 -71 -18.5t-52.5 -50t-19.5 -69.5v-972q0 -38 19.5 -69t52.5 -50t71 -19h940q39 0 71.5 19t52 50t19.5 69v972z" />
    <glyph glyph-name="u1F135" unicode="F&#x20de;" 
d="M837 388h-131v693h454v-104h-323v-205h295v-102h-295v-282zM415 1464h968q72 0 130.5 -34.5t93 -92t34.5 -127.5v-976q0 -70 -34.5 -127.5t-93 -92t-130.5 -34.5h-968q-71 0 -129.5 34.5t-93.5 92t-35 127.5v976q0 70 35 127.5t93.5 92t129.5 34.5zM1512 1208
q0 38 -19.5 69t-52 50t-71.5 19h-940q-38 0 -71 -18.5t-52.5 -50t-19.5 -69.5v-972q0 -38 19.5 -69t52.5 -50t71 -19h940q39 0 71.5 19t52 50t19.5 69v972z" />
    <glyph glyph-name="u1F136" unicode="G&#x20de;" 
d="M1070 604v57h-160v95h284v-122q0 -76 -33.5 -134t-99 -91.5t-162.5 -33.5t-170.5 45t-114.5 126t-41 188t41 188t114.5 126.5t170.5 45.5q81 0 145.5 -29t105 -80.5t49.5 -120.5h-130q-6 36 -29.5 64t-59.5 44.5t-79 16.5q-60 0 -104 -31.5t-68 -88.5t-24 -135
q0 -77 24 -134t68 -88.5t104 -31.5q82 0 125.5 34.5t43.5 89.5zM415 1464h968q72 0 130.5 -34.5t93 -92t34.5 -127.5v-976q0 -70 -34.5 -127.5t-93 -92t-130.5 -34.5h-968q-71 0 -129.5 34.5t-93.5 92t-35 127.5v976q0 70 35 127.5t93.5 92t129.5 34.5zM1512 1208
q0 38 -19.5 69t-52 50t-71.5 19h-940q-38 0 -71 -18.5t-52.5 -50t-19.5 -69.5v-972q0 -38 19.5 -69t52.5 -50t71 -19h940q39 0 71.5 19t52 50t19.5 69v972z" />
    <glyph glyph-name="u1F137" unicode="H&#x20de;" 
d="M1190 388h-130v304h-321v-304h-130v693h130v-286h321v286h130v-693zM415 1464h968q72 0 130.5 -34.5t93 -92t34.5 -127.5v-976q0 -70 -34.5 -127.5t-93 -92t-130.5 -34.5h-968q-71 0 -129.5 34.5t-93.5 92t-35 127.5v976q0 70 35 127.5t93.5 92t129.5 34.5zM1512 1208
q0 38 -19.5 69t-52 50t-71.5 19h-940q-38 0 -71 -18.5t-52.5 -50t-19.5 -69.5v-972q0 -38 19.5 -69t52.5 -50t71 -19h940q39 0 71.5 19t52 50t19.5 69v972z" />
    <glyph glyph-name="u1F138" unicode="I&#x20de;" 
d="M965 388h-132v693h132v-693zM415 1464h968q72 0 130.5 -34.5t93 -92t34.5 -127.5v-976q0 -70 -34.5 -127.5t-93 -92t-130.5 -34.5h-968q-71 0 -129.5 34.5t-93.5 92t-35 127.5v976q0 70 35 127.5t93.5 92t129.5 34.5zM1512 1208q0 38 -19.5 69t-52 50t-71.5 19h-940
q-38 0 -71 -18.5t-52.5 -50t-19.5 -69.5v-972q0 -38 19.5 -69t52.5 -50t71 -19h940q39 0 71.5 19t52 50t19.5 69v972z" />
    <glyph glyph-name="u1F139" unicode="J&#x20de;" 
d="M635 576h126q1 -40 28.5 -65.5t71.5 -25.5q53 0 80 30t27 85v481h130v-477q0 -111 -63 -170t-173 -59q-74 0 -124.5 27t-76.5 72.5t-26 101.5zM415 1464h968q72 0 130.5 -34.5t93 -92t34.5 -127.5v-976q0 -70 -34.5 -127.5t-93 -92t-130.5 -34.5h-968q-71 0 -129.5 34.5
t-93.5 92t-35 127.5v976q0 70 35 127.5t93.5 92t129.5 34.5zM1512 1208q0 38 -19.5 69t-52 50t-71.5 19h-940q-38 0 -71 -18.5t-52.5 -50t-19.5 -69.5v-972q0 -38 19.5 -69t52.5 -50t71 -19h940q39 0 71.5 19t52 50t19.5 69v972z" />
    <glyph glyph-name="u1F13A" unicode="&#x212a;&#x20de;" 
d="M1214 1081l-263 -297l274 -396h-158l-212 312l-78 -84v-228h-130v693h130v-317h5l287 317h145zM415 1464h968q72 0 130.5 -34.5t93 -92t34.5 -127.5v-976q0 -70 -34.5 -127.5t-93 -92t-130.5 -34.5h-968q-71 0 -129.5 34.5t-93.5 92t-35 127.5v976q0 70 35 127.5t93.5 92
t129.5 34.5zM1512 1208q0 38 -19.5 69t-52 50t-71.5 19h-940q-38 0 -71 -18.5t-52.5 -50t-19.5 -69.5v-972q0 -38 19.5 -69t52.5 -50t71 -19h940q39 0 71.5 19t52 50t19.5 69v972z" />
    <glyph glyph-name="u1F13B" unicode="L&#x20de;" 
d="M1177 495v-107h-446v693h131v-586h315zM415 1464h968q72 0 130.5 -34.5t93 -92t34.5 -127.5v-976q0 -70 -34.5 -127.5t-93 -92t-130.5 -34.5h-968q-71 0 -129.5 34.5t-93.5 92t-35 127.5v976q0 70 35 127.5t93.5 92t129.5 34.5zM1512 1208q0 38 -19.5 69t-52 50t-71.5 19
h-940q-38 0 -71 -18.5t-52.5 -50t-19.5 -69.5v-972q0 -38 19.5 -69t52.5 -50t71 -19h940q39 0 71.5 19t52 50t19.5 69v972z" />
    <glyph glyph-name="u1F13C" unicode="M&#x20de;" 
d="M667 388h-117v693h132l216 -533h4l216 533h130v-693h-117v473h-6l-180 -453h-91l-181 453h-6v-473zM415 1464h968q72 0 130.5 -34.5t93 -92t34.5 -127.5v-976q0 -70 -34.5 -127.5t-93 -92t-130.5 -34.5h-968q-71 0 -129.5 34.5t-93.5 92t-35 127.5v976q0 70 35 127.5
t93.5 92t129.5 34.5zM1512 1208q0 38 -19.5 69t-52 50t-71.5 19h-940q-38 0 -71 -18.5t-52.5 -50t-19.5 -69.5v-972q0 -38 19.5 -69t52.5 -50t71 -19h940q39 0 71.5 19t52 50t19.5 69v972z" />
    <glyph glyph-name="u1F13D" unicode="N&#x20de;" 
d="M737 388h-124v693h111l331 -482h6v482h124v-693h-111l-332 484h-5v-484zM415 1464h968q72 0 130.5 -34.5t93 -92t34.5 -127.5v-976q0 -70 -34.5 -127.5t-93 -92t-130.5 -34.5h-968q-71 0 -129.5 34.5t-93.5 92t-35 127.5v976q0 70 35 127.5t93.5 92t129.5 34.5z
M1512 1208q0 38 -19.5 69t-52 50t-71.5 19h-940q-38 0 -71 -18.5t-52.5 -50t-19.5 -69.5v-972q0 -38 19.5 -69t52.5 -50t71 -19h940q39 0 71.5 19t52 50t19.5 69v972z" />
    <glyph glyph-name="u1F13E" unicode="O&#x20de;" 
d="M899 480q54 0 98 29.5t70 86t26 138.5t-26 139t-70 86.5t-98 29.5t-98 -29.5t-70 -86.5t-26 -139t26 -138.5t70 -86t98 -29.5zM899 375q-90 0 -164 42t-118 122.5t-44 194.5q0 115 44 195.5t118 122.5t164 42t164 -42t118 -122.5t44 -195.5q0 -114 -44 -194.5
t-118 -122.5t-164 -42zM415 1464h968q72 0 130.5 -34.5t93 -92t34.5 -127.5v-976q0 -70 -34.5 -127.5t-93 -92t-130.5 -34.5h-968q-71 0 -129.5 34.5t-93.5 92t-35 127.5v976q0 70 35 127.5t93.5 92t129.5 34.5zM1512 1208q0 38 -19.5 69t-52 50t-71.5 19h-940
q-38 0 -71 -18.5t-52.5 -50t-19.5 -69.5v-972q0 -38 19.5 -69t52.5 -50t71 -19h940q39 0 71.5 19t52 50t19.5 69v972z" />
    <glyph glyph-name="u1F13F" unicode="P&#x20de;" 
d="M961 1081q76 0 130.5 -30t83 -81.5t28.5 -115.5q0 -65 -29 -116t-83 -80t-131 -29h-153v-241h-129v693h283zM1070 854q0 60 -34.5 93t-96.5 33h-132v-251h132q62 0 96.5 32.5t34.5 92.5zM415 1464h968q72 0 130.5 -34.5t93 -92t34.5 -127.5v-976q0 -70 -34.5 -127.5
t-93 -92t-130.5 -34.5h-968q-71 0 -129.5 34.5t-93.5 92t-35 127.5v976q0 70 35 127.5t93.5 92t129.5 34.5zM1512 1208q0 38 -19.5 69t-52 50t-71.5 19h-940q-38 0 -71 -18.5t-52.5 -50t-19.5 -69.5v-972q0 -38 19.5 -69t52.5 -50t71 -19h940q39 0 71.5 19t52 50t19.5 69
v972z" />
    <glyph glyph-name="u1F140" unicode="Q&#x20de;" 
d="M1199 319h-128l-56 76q-55 -20 -116 -20q-90 0 -164 42t-118 122.5t-44 194.5q0 115 44 195.5t118 122.5t164 42t164 -42t118 -122.5t44 -195.5q0 -98 -32.5 -170t-87.5 -118zM899 480q13 0 25.5 1.5t23.5 5.5l-84 115h126l44 -60q27 32 43 80.5t16 111.5q0 82 -26 139
t-70 86.5t-98 29.5t-98 -29.5t-70 -86.5t-26 -139t26 -138.5t70 -86t98 -29.5zM415 1464h968q72 0 130.5 -34.5t93 -92t34.5 -127.5v-976q0 -70 -34.5 -127.5t-93 -92t-130.5 -34.5h-968q-71 0 -129.5 34.5t-93.5 92t-35 127.5v976q0 70 35 127.5t93.5 92t129.5 34.5z
M1512 1208q0 38 -19.5 69t-52 50t-71.5 19h-940q-38 0 -71 -18.5t-52.5 -50t-19.5 -69.5v-972q0 -38 19.5 -69t52.5 -50t71 -19h940q39 0 71.5 19t52 50t19.5 69v972z" />
    <glyph glyph-name="u1F141" unicode="R&#x20de;" 
d="M933 1081q117 0 183 -59t66 -157q0 -49 -18.5 -88t-48.5 -66t-66 -40l146 -283h-146l-128 263h-142v-263h-128v693h282zM779 747h132q64 0 100.5 29t36.5 85q0 59 -36.5 89.5t-96.5 30.5h-136v-234zM415 1464h968q72 0 130.5 -34.5t93 -92t34.5 -127.5v-976
q0 -70 -34.5 -127.5t-93 -92t-130.5 -34.5h-968q-71 0 -129.5 34.5t-93.5 92t-35 127.5v976q0 70 35 127.5t93.5 92t129.5 34.5zM1512 1208q0 38 -19.5 69t-52 50t-71.5 19h-940q-38 0 -71 -18.5t-52.5 -50t-19.5 -69.5v-972q0 -38 19.5 -69t52.5 -50t71 -19h940
q39 0 71.5 19t52 50t19.5 69v972z" />
    <glyph glyph-name="u1F142" unicode="S&#x20de;" 
d="M619 582h127q5 -48 48 -77.5t110 -29.5t106.5 28t39.5 75q0 36 -27 58.5t-88 37.5l-117 26q-88 20 -134 68t-46 121q0 61 33.5 107.5t93.5 72.5t139 26q77 0 136.5 -25.5t93.5 -71.5t35 -106h-124q-4 47 -42.5 75.5t-99.5 28.5q-60 0 -97 -28t-37 -72q0 -65 100 -87
l117 -26q99 -23 146 -70t47 -124q0 -66 -34.5 -114t-98 -74t-150.5 -26q-83 0 -144.5 25.5t-96 71.5t-36.5 110zM415 1464h968q72 0 130.5 -34.5t93 -92t34.5 -127.5v-976q0 -70 -34.5 -127.5t-93 -92t-130.5 -34.5h-968q-71 0 -129.5 34.5t-93.5 92t-35 127.5v976
q0 70 35 127.5t93.5 92t129.5 34.5zM1512 1208q0 38 -19.5 69t-52 50t-71.5 19h-940q-38 0 -71 -18.5t-52.5 -50t-19.5 -69.5v-972q0 -38 19.5 -69t52.5 -50t71 -19h940q39 0 71.5 19t52 50t19.5 69v972z" />
    <glyph glyph-name="u1F143" unicode="T&#x20de;" 
d="M965 388h-132v588h-210v105h552v-105h-210v-588zM415 1464h968q72 0 130.5 -34.5t93 -92t34.5 -127.5v-976q0 -70 -34.5 -127.5t-93 -92t-130.5 -34.5h-968q-71 0 -129.5 34.5t-93.5 92t-35 127.5v976q0 70 35 127.5t93.5 92t129.5 34.5zM1512 1208q0 38 -19.5 69t-52 50
t-71.5 19h-940q-38 0 -71 -18.5t-52.5 -50t-19.5 -69.5v-972q0 -38 19.5 -69t52.5 -50t71 -19h940q39 0 71.5 19t52 50t19.5 69v972z" />
    <glyph glyph-name="u1F144" unicode="U&#x20de;" 
d="M899 482q71 0 114.5 40.5t43.5 115.5v443h130v-454q0 -75 -35.5 -132t-100 -88.5t-152.5 -31.5t-152.5 31.5t-100 88.5t-35.5 132v454h130v-443q0 -75 43.5 -115.5t114.5 -40.5zM415 1464h968q72 0 130.5 -34.5t93 -92t34.5 -127.5v-976q0 -70 -34.5 -127.5t-93 -92
t-130.5 -34.5h-968q-71 0 -129.5 34.5t-93.5 92t-35 127.5v976q0 70 35 127.5t93.5 92t129.5 34.5zM1512 1208q0 38 -19.5 69t-52 50t-71.5 19h-940q-38 0 -71 -18.5t-52.5 -50t-19.5 -69.5v-972q0 -38 19.5 -69t52.5 -50t71 -19h940q39 0 71.5 19t52 50t19.5 69v972z" />
    <glyph glyph-name="u1F145" unicode="V&#x20de;" 
d="M821 388l-250 693h151l174 -555h6l174 555h151l-250 -693h-156zM415 1464h968q72 0 130.5 -34.5t93 -92t34.5 -127.5v-976q0 -70 -34.5 -127.5t-93 -92t-130.5 -34.5h-968q-71 0 -129.5 34.5t-93.5 92t-35 127.5v976q0 70 35 127.5t93.5 92t129.5 34.5zM1512 1208
q0 38 -19.5 69t-52 50t-71.5 19h-940q-38 0 -71 -18.5t-52.5 -50t-19.5 -69.5v-972q0 -38 19.5 -69t52.5 -50t71 -19h940q39 0 71.5 19t52 50t19.5 69v972z" />
    <glyph glyph-name="u1F146" unicode="W&#x20de;" 
d="M897 889l-140 -501h-119l-195 693h143l117 -518h6l133 518h114l133 -518h6l117 518h143l-195 -693h-119l-140 501h-4zM415 1464h968q72 0 130.5 -34.5t93 -92t34.5 -127.5v-976q0 -70 -34.5 -127.5t-93 -92t-130.5 -34.5h-968q-71 0 -129.5 34.5t-93.5 92t-35 127.5v976
q0 70 35 127.5t93.5 92t129.5 34.5zM1512 1208q0 38 -19.5 69t-52 50t-71.5 19h-940q-38 0 -71 -18.5t-52.5 -50t-19.5 -69.5v-972q0 -38 19.5 -69t52.5 -50t71 -19h940q39 0 71.5 19t52 50t19.5 69v972z" />
    <glyph glyph-name="u1F147" unicode="X&#x20de;" 
d="M1213 1081l-233 -348l230 -345h-152l-161 253h-6l-163 -253h-143l229 349l-227 344h155l159 -256h6l158 256h148zM415 1464h968q72 0 130.5 -34.5t93 -92t34.5 -127.5v-976q0 -70 -34.5 -127.5t-93 -92t-130.5 -34.5h-968q-71 0 -129.5 34.5t-93.5 92t-35 127.5v976
q0 70 35 127.5t93.5 92t129.5 34.5zM1512 1208q0 38 -19.5 69t-52 50t-71.5 19h-940q-38 0 -71 -18.5t-52.5 -50t-19.5 -69.5v-972q0 -38 19.5 -69t52.5 -50t71 -19h940q39 0 71.5 19t52 50t19.5 69v972z" />
    <glyph glyph-name="u1F148" unicode="Y&#x20de;" 
d="M965 388h-131v273l-243 420h145l162 -297h5l162 297h142l-242 -418v-275zM415 1464h968q72 0 130.5 -34.5t93 -92t34.5 -127.5v-976q0 -70 -34.5 -127.5t-93 -92t-130.5 -34.5h-968q-71 0 -129.5 34.5t-93.5 92t-35 127.5v976q0 70 35 127.5t93.5 92t129.5 34.5z
M1512 1208q0 38 -19.5 69t-52 50t-71.5 19h-940q-38 0 -71 -18.5t-52.5 -50t-19.5 -69.5v-972q0 -38 19.5 -69t52.5 -50t71 -19h940q39 0 71.5 19t52 50t19.5 69v972z" />
    <glyph glyph-name="u1F149" unicode="Z&#x20de;" 
d="M634 388v83l361 499v7h-350v104h509v-83l-360 -499v-7h370v-104h-530zM415 1464h968q72 0 130.5 -34.5t93 -92t34.5 -127.5v-976q0 -70 -34.5 -127.5t-93 -92t-130.5 -34.5h-968q-71 0 -129.5 34.5t-93.5 92t-35 127.5v976q0 70 35 127.5t93.5 92t129.5 34.5zM1512 1208
q0 38 -19.5 69t-52 50t-71.5 19h-940q-38 0 -71 -18.5t-52.5 -50t-19.5 -69.5v-972q0 -38 19.5 -69t52.5 -50t71 -19h940q39 0 71.5 19t52 50t19.5 69v972z" />
    <glyph glyph-name="u1F150" unicode="A&#x20dd;&#x25cf;" 
d="M1000 690h-202l99 297h4zM697 374l67 202h270l67 -202h156l-273 766h-170l-273 -766h156zM899 -50q-127 0 -242.5 39t-212 110t-167.5 167.5t-110 212t-39 242.5t39 242.5t110 212t167.5 167.5t212 110t242.5 39t242.5 -39t212 -110t167.5 -167.5t110 -212t39 -242.5
t-39 -242.5t-110 -212t-167.5 -167.5t-212 -110t-242.5 -39z" />
    <glyph glyph-name="u1F151" unicode="B&#x20dd;&#x25cf;" 
d="M628 354h323q86 0 150 26.5t98.5 75.5t34.5 116q0 76 -45 126.5t-124 62.5v0v0q60 18 93 62.5t33 105.5q0 88 -64 139.5t-173 51.5h-326v-766zM779 1005h145q54 0 85 -26.5t31 -72.5q0 -104 -158 -104h-103v203zM779 694h155q68 0 105.5 -30.5t37.5 -86.5
q0 -55 -43.5 -81.5t-137.5 -26.5h-117v225zM899 -50q-127 0 -242.5 39t-212 110t-167.5 167.5t-110 212t-39 242.5t39 242.5t110 212t167.5 167.5t212 110t242.5 39t242.5 -39t212 -110t167.5 -167.5t110 -212t39 -242.5t-39 -242.5t-110 -212t-167.5 -167.5t-212 -110
t-242.5 -39z" />
    <glyph glyph-name="u1F152" unicode="C&#x20dd;&#x25cf;" 
d="M1074 593q-6 -33 -30.5 -61t-61.5 -44.5t-82 -16.5q-61 0 -106 32.5t-70.5 91.5t-25.5 139q0 79 25.5 138.5t70.5 92.5t106 33q46 0 84 -18t63 -48t31 -66h155q-10 80 -54 139.5t-116 92.5t-165 33q-107 0 -187.5 -50t-125 -139.5t-44.5 -207.5t44.5 -207t125 -139
t187.5 -50q90 0 160.5 32t115.5 89t57 134h-157zM899 -50q-127 0 -242.5 39t-212 110t-167.5 167.5t-110 212t-39 242.5t39 242.5t110 212t167.5 167.5t212 110t242.5 39t242.5 -39t212 -110t167.5 -167.5t110 -212t39 -242.5t-39 -242.5t-110 -212t-167.5 -167.5t-212 -110
t-242.5 -39z" />
    <glyph glyph-name="u1F153" unicode="D&#x20dd;&#x25cf;" 
d="M620 1120v-766h285q175 0 266 98t91 286t-90.5 285t-266.5 97h-285zM772 997h115q111 0 165 -64.5t54 -196.5t-54 -195.5t-165 -63.5h-115v520zM899 -50q-127 0 -242.5 39t-212 110t-167.5 167.5t-110 212t-39 242.5t39 242.5t110 212t167.5 167.5t212 110t242.5 39
t242.5 -39t212 -110t167.5 -167.5t110 -212t39 -242.5t-39 -242.5t-110 -212t-167.5 -167.5t-212 -110t-242.5 -39z" />
    <glyph glyph-name="u1F154" unicode="E&#x20dd;&#x25cf;" 
d="M1158 477h-361v206h339v117h-339v197h361v123h-514v-766h514v123zM899 -50q-127 0 -242.5 39t-212 110t-167.5 167.5t-110 212t-39 242.5t39 242.5t110 212t167.5 167.5t212 110t242.5 39t242.5 -39t212 -110t167.5 -167.5t110 -212t39 -242.5t-39 -242.5t-110 -212
t-167.5 -167.5t-212 -110t-242.5 -39z" />
    <glyph glyph-name="u1F155" unicode="F&#x20dd;&#x25cf;" 
d="M829 354v307h324v123h-324v212h353v124h-505v-766h152zM899 -50q-127 0 -242.5 39t-212 110t-167.5 167.5t-110 212t-39 242.5t39 242.5t110 212t167.5 167.5t212 110t242.5 39t242.5 -39t212 -110t167.5 -167.5t110 -212t39 -242.5t-39 -242.5t-110 -212t-167.5 -167.5
t-212 -110t-242.5 -39z" />
    <glyph glyph-name="u1F156" unicode="G&#x20dd;&#x25cf;" 
d="M1076 620q0 -38 -19.5 -70.5t-58.5 -52t-96 -19.5q-92 0 -147.5 68t-55.5 188q0 121 55.5 189t147.5 68q73 0 120 -30.5t53 -73.5h157q-11 71 -55.5 126t-115.5 86t-160 31q-107 0 -188.5 -50t-127 -139t-45.5 -207t45 -207t126 -138.5t188 -49.5q102 0 175 40.5
t112 108.5t39 152v134h-312v-127h163v-27zM899 -50q-127 0 -242.5 39t-212 110t-167.5 167.5t-110 212t-39 242.5t39 242.5t110 212t167.5 167.5t212 110t242.5 39t242.5 -39t212 -110t167.5 -167.5t110 -212t39 -242.5t-39 -242.5t-110 -212t-167.5 -167.5t-212 -110
t-242.5 -39z" />
    <glyph glyph-name="u1F157" unicode="H&#x20dd;&#x25cf;" 
d="M1221 354v766h-151v-312h-341v312h-152v-766h152v330h341v-330h151zM899 -50q-127 0 -242.5 39t-212 110t-167.5 167.5t-110 212t-39 242.5t39 242.5t110 212t167.5 167.5t212 110t242.5 39t242.5 -39t212 -110t167.5 -167.5t110 -212t39 -242.5t-39 -242.5t-110 -212
t-167.5 -167.5t-212 -110t-242.5 -39z" />
    <glyph glyph-name="u1F158" unicode="I&#x20dd;&#x25cf;" 
d="M975 354v766h-152v-766h152zM899 -50q-127 0 -242.5 39t-212 110t-167.5 167.5t-110 212t-39 242.5t39 242.5t110 212t167.5 167.5t212 110t242.5 39t242.5 -39t212 -110t167.5 -167.5t110 -212t39 -242.5t-39 -242.5t-110 -212t-167.5 -167.5t-212 -110t-242.5 -39z" />
    <glyph glyph-name="u1F159" unicode="J&#x20dd;&#x25cf;" 
d="M605 570q0 -70 31.5 -121.5t89 -80t133.5 -28.5q125 0 194 67t69 188v525h-153v-530q0 -119 -112 -119q-46 0 -74 27.5t-29 71.5h-149zM899 -50q-127 0 -242.5 39t-212 110t-167.5 167.5t-110 212t-39 242.5t39 242.5t110 212t167.5 167.5t212 110t242.5 39t242.5 -39
t212 -110t167.5 -167.5t110 -212t39 -242.5t-39 -242.5t-110 -212t-167.5 -167.5t-212 -110t-242.5 -39z" />
    <glyph glyph-name="u1F15A" unicode="&#x212a;&#x20dd;&#x25cf;" 
d="M1247 1120h-172l-311 -343v0v343h-152v-766h152v252l79 85l230 -337h185l-304 436zM899 -50q-127 0 -242.5 39t-212 110t-167.5 167.5t-110 212t-39 242.5t39 242.5t110 212t167.5 167.5t212 110t242.5 39t242.5 -39t212 -110t167.5 -167.5t110 -212t39 -242.5
t-39 -242.5t-110 -212t-167.5 -167.5t-212 -110t-242.5 -39z" />
    <glyph glyph-name="u1F15B" unicode="L&#x20dd;&#x25cf;" 
d="M1189 481h-344v639h-153v-766h497v127zM899 -50q-127 0 -242.5 39t-212 110t-167.5 167.5t-110 212t-39 242.5t39 242.5t110 212t167.5 167.5t212 110t242.5 39t242.5 -39t212 -110t167.5 -167.5t110 -212t39 -242.5t-39 -242.5t-110 -212t-167.5 -167.5t-212 -110
t-242.5 -39z" />
    <glyph glyph-name="u1F15C" unicode="M&#x20dd;&#x25cf;" 
d="M650 354v521v0l196 -495h106l195 491v0v-517h139v766h-152l-236 -582v0l-233 582h-153v-766h138zM899 -50q-127 0 -242.5 39t-212 110t-167.5 167.5t-110 212t-39 242.5t39 242.5t110 212t167.5 167.5t212 110t242.5 39t242.5 -39t212 -110t167.5 -167.5t110 -212
t39 -242.5t-39 -242.5t-110 -212t-167.5 -167.5t-212 -110t-242.5 -39z" />
    <glyph glyph-name="u1F15D" unicode="N&#x20dd;&#x25cf;" 
d="M727 354v523v0l359 -523h131v766h-146v-524v0l-361 524h-129v-766h146zM899 -50q-127 0 -242.5 39t-212 110t-167.5 167.5t-110 212t-39 242.5t39 242.5t110 212t167.5 167.5t212 110t242.5 39t242.5 -39t212 -110t167.5 -167.5t110 -212t39 -242.5t-39 -242.5t-110 -212
t-167.5 -167.5t-212 -110t-242.5 -39z" />
    <glyph glyph-name="u1F15E" unicode="O&#x20dd;&#x25cf;" 
d="M899 465q-57 0 -103.5 31t-74.5 91t-28 147q0 88 28 148t74.5 91t103.5 31t103.5 -31t74.5 -91t28 -148q0 -87 -28 -147t-74.5 -91t-103.5 -31zM899 338q100 0 181.5 46.5t130 135t48.5 214.5q0 127 -48.5 215.5t-130 135t-181.5 46.5t-181.5 -46.5t-130 -135
t-48.5 -215.5q0 -126 48.5 -214.5t130 -135t181.5 -46.5zM899 -50q-127 0 -242.5 39t-212 110t-167.5 167.5t-110 212t-39 242.5t39 242.5t110 212t167.5 167.5t212 110t242.5 39t242.5 -39t212 -110t167.5 -167.5t110 -212t39 -242.5t-39 -242.5t-110 -212t-167.5 -167.5
t-212 -110t-242.5 -39z" />
    <glyph glyph-name="u1F15F" unicode="P&#x20dd;&#x25cf;" 
d="M959 1120h-314v-766h152v263h161q81 0 142.5 31t95.5 87.5t34 131.5t-34 132t-95 89t-142 32zM1074 867q0 -62 -36.5 -97t-101.5 -35h-139v264h139q66 0 102 -35t36 -97zM899 -50q-127 0 -242.5 39t-212 110t-167.5 167.5t-110 212t-39 242.5t39 242.5t110 212
t167.5 167.5t212 110t242.5 39t242.5 -39t212 -110t167.5 -167.5t110 -212t39 -242.5t-39 -242.5t-110 -212t-167.5 -167.5t-212 -110t-242.5 -39z" />
    <glyph glyph-name="u1F160" unicode="Q&#x20dd;&#x25cf;" 
d="M1239 280l-106 142q58 50 92 129t34 183q0 127 -48.5 215.5t-130 135t-181.5 46.5t-181.5 -46.5t-130 -135t-48.5 -215.5q0 -126 48.5 -214.5t130 -135t181.5 -46.5q66 0 125 21l57 -79h158zM899 465q-57 0 -103.5 31t-74.5 91t-28 147q0 88 28 148t74.5 91t103.5 31
t103.5 -31t74.5 -91t28 -148q0 -64 -15.5 -113t-42.5 -83l-46 62h-152l94 -130q-10 -2 -21.5 -3.5t-22.5 -1.5zM899 -50q-127 0 -242.5 39t-212 110t-167.5 167.5t-110 212t-39 242.5t39 242.5t110 212t167.5 167.5t212 110t242.5 39t242.5 -39t212 -110t167.5 -167.5
t110 -212t39 -242.5t-39 -242.5t-110 -212t-167.5 -167.5t-212 -110t-242.5 -39z" />
    <glyph glyph-name="u1F161" unicode="R&#x20dd;&#x25cf;" 
d="M767 755v245h143q66 0 103.5 -33t37.5 -92q0 -57 -37.5 -88.5t-106.5 -31.5h-140zM930 1120h-313v-766h150v287h147l139 -287h173l-161 310q65 24 103.5 82t38.5 133q0 112 -74.5 176.5t-202.5 64.5zM899 -50q-127 0 -242.5 39t-212 110t-167.5 167.5t-110 212t-39 242.5
t39 242.5t110 212t167.5 167.5t212 110t242.5 39t242.5 -39t212 -110t167.5 -167.5t110 -212t39 -242.5t-39 -242.5t-110 -212t-167.5 -167.5t-212 -110t-242.5 -39z" />
    <glyph glyph-name="u1F162" unicode="S&#x20dd;&#x25cf;" 
d="M588 576q2 -73 40.5 -126t106.5 -82t161 -29q97 0 167 29t108.5 82.5t38.5 126.5q0 87 -52.5 140t-163.5 78l-127 28q-105 23 -105 90q0 47 38.5 75.5t102.5 28.5t105 -31t46 -82h145q-1 69 -38.5 121.5t-103.5 81.5t-153 29t-153.5 -29t-104 -81t-37.5 -121
q0 -81 51 -135t149 -76l127 -30q65 -14 93.5 -37t28.5 -61q0 -50 -41.5 -78.5t-112.5 -28.5t-116.5 32t-49.5 85h-150zM899 -50q-127 0 -242.5 39t-212 110t-167.5 167.5t-110 212t-39 242.5t39 242.5t110 212t167.5 167.5t212 110t242.5 39t242.5 -39t212 -110
t167.5 -167.5t110 -212t39 -242.5t-39 -242.5t-110 -212t-167.5 -167.5t-212 -110t-242.5 -39z" />
    <glyph glyph-name="u1F163" unicode="T&#x20dd;&#x25cf;" 
d="M975 334v641h229v125h-610v-125h229v-641h152zM899 -50q-127 0 -242.5 39t-212 110t-167.5 167.5t-110 212t-39 242.5t39 242.5t110 212t167.5 167.5t212 110t242.5 39t242.5 -39t212 -110t167.5 -167.5t110 -212t39 -242.5t-39 -242.5t-110 -212t-167.5 -167.5
t-212 -110t-242.5 -39z" />
    <glyph glyph-name="u1F164" unicode="U&#x20dd;&#x25cf;" 
d="M899 448q-79 0 -123 43.5t-44 120.5v488h-153v-500q0 -84 39.5 -147t111.5 -98t169 -35q96 0 168 35t112 98t40 147v500h-153v-488q0 -77 -44.5 -120.5t-122.5 -43.5zM899 -50q-127 0 -242.5 39t-212 110t-167.5 167.5t-110 212t-39 242.5t39 242.5t110 212t167.5 167.5
t212 110t242.5 39t242.5 -39t212 -110t167.5 -167.5t110 -212t39 -242.5t-39 -242.5t-110 -212t-167.5 -167.5t-212 -110t-242.5 -39z" />
    <glyph glyph-name="u1F165" unicode="V&#x20dd;&#x25cf;" 
d="M985 334l277 766h-175l-186 -608h-4l-186 608h-175l277 -766h172zM899 -50q-127 0 -242.5 39t-212 110t-167.5 167.5t-110 212t-39 242.5t39 242.5t110 212t167.5 167.5t212 110t242.5 39t242.5 -39t212 -110t167.5 -167.5t110 -212t39 -242.5t-39 -242.5t-110 -212
t-167.5 -167.5t-212 -110t-242.5 -39z" />
    <glyph glyph-name="u1F166" unicode="W&#x20dd;&#x25cf;" 
d="M897 875h4l151 -541h139l216 766h-168l-122 -566h-4l-145 566h-138l-145 -566h-4l-122 566h-168l217 -766h138zM899 -50q-127 0 -242.5 39t-212 110t-167.5 167.5t-110 212t-39 242.5t39 242.5t110 212t167.5 167.5t212 110t242.5 39t242.5 -39t212 -110t167.5 -167.5
t110 -212t39 -242.5t-39 -242.5t-110 -212t-167.5 -167.5t-212 -110t-242.5 -39z" />
    <glyph glyph-name="u1F167" unicode="X&#x20dd;&#x25cf;" 
d="M1251 1120h-174l-168 -279h-4l-173 279h-182l250 -380l-253 -386h170l175 275h3l175 -275h177l-254 381zM899 -50q-127 0 -242.5 39t-212 110t-167.5 167.5t-110 212t-39 242.5t39 242.5t110 212t167.5 167.5t212 110t242.5 39t242.5 -39t212 -110t167.5 -167.5t110 -212
t39 -242.5t-39 -242.5t-110 -212t-167.5 -167.5t-212 -110t-242.5 -39z" />
    <glyph glyph-name="u1F168" unicode="Y&#x20dd;&#x25cf;" 
d="M823 349h152v302l271 464h-169l-176 -324h-4l-176 324h-169l271 -464v-302zM899 -50q-127 0 -242.5 39t-212 110t-167.5 167.5t-110 212t-39 242.5t39 242.5t110 212t167.5 167.5t212 110t242.5 39t242.5 -39t212 -110t167.5 -167.5t110 -212t39 -242.5t-39 -242.5
t-110 -212t-167.5 -167.5t-212 -110t-242.5 -39z" />
    <glyph glyph-name="u1F169" unicode="Z&#x20dd;&#x25cf;" 
d="M604 354h590v124h-405v0l394 545v97h-567v-124h383v-1l-395 -544v-97zM899 -50q-127 0 -242.5 39t-212 110t-167.5 167.5t-110 212t-39 242.5t39 242.5t110 212t167.5 167.5t212 110t242.5 39t242.5 -39t212 -110t167.5 -167.5t110 -212t39 -242.5t-39 -242.5t-110 -212
t-167.5 -167.5t-212 -110t-242.5 -39z" />
    <glyph glyph-name="u1F170" unicode="A&#x20de;&#x25a0;" 
d="M1000 670h-202l99 297h4zM697 354l67 202h270l67 -202h156l-273 766h-170l-273 -766h156zM415 1464h968q72 0 130.5 -34.5t93 -92t34.5 -127.5v-976q0 -70 -34.5 -127.5t-93 -92t-130.5 -34.5h-968q-71 0 -129.5 34.5t-93.5 92t-35 127.5v976q0 70 35 127.5t93.5 92
t129.5 34.5z" />
    <glyph glyph-name="u1F171" unicode="B&#x20de;&#x25a0;" 
d="M628 354h323q84 0 147.5 25.5t99.5 74.5t36 118q0 82 -48.5 130t-120.5 59v0v0q56 17 91 59t35 109q0 89 -65 140t-172 51h-326v-766zM779 1005h145q55 0 85.5 -27t30.5 -72q0 -52 -37.5 -78t-120.5 -26h-103v203zM779 694h155q70 0 106.5 -31t36.5 -86q0 -54 -42.5 -81
t-138.5 -27h-117v225zM415 1464h968q72 0 130.5 -34.5t93 -92t34.5 -127.5v-976q0 -70 -34.5 -127.5t-93 -92t-130.5 -34.5h-968q-71 0 -129.5 34.5t-93.5 92t-35 127.5v976q0 70 35 127.5t93.5 92t129.5 34.5z" />
    <glyph glyph-name="u1F172" unicode="C&#x20de;&#x25a0;" 
d="M1074 593q-6 -33 -30.5 -61t-61.5 -44.5t-82 -16.5q-61 0 -106 32.5t-70.5 91.5t-25.5 139q0 79 25.5 138.5t70.5 92.5t106 33q46 0 84 -18t63 -48t31 -66h155q-10 80 -54 139.5t-116 92.5t-165 33q-107 0 -187.5 -50t-125 -139.5t-44.5 -207.5t44.5 -207t125 -139
t187.5 -50q90 0 160.5 32t115.5 89t57 134h-157zM415 1464h968q72 0 130.5 -34.5t93 -92t34.5 -127.5v-976q0 -70 -34.5 -127.5t-93 -92t-130.5 -34.5h-968q-71 0 -129.5 34.5t-93.5 92t-35 127.5v976q0 70 35 127.5t93.5 92t129.5 34.5z" />
    <glyph glyph-name="u1F173" unicode="D&#x20de;&#x25a0;" 
d="M597 1120v-766h285q180 0 268.5 100.5t88.5 283.5t-88 282.5t-269 99.5h-285zM749 997h115q113 0 166 -65.5t53 -195.5t-53 -194.5t-166 -64.5h-115v520zM415 1464h968q72 0 130.5 -34.5t93 -92t34.5 -127.5v-976q0 -70 -34.5 -127.5t-93 -92t-130.5 -34.5h-968
q-71 0 -129.5 34.5t-93.5 92t-35 127.5v976q0 70 35 127.5t93.5 92t129.5 34.5z" />
    <glyph glyph-name="u1F174" unicode="E&#x20de;&#x25a0;" 
d="M1158 477h-361v206h339v117h-339v197h361v123h-514v-766h514v123zM415 1464h968q72 0 130.5 -34.5t93 -92t34.5 -127.5v-976q0 -70 -34.5 -127.5t-93 -92t-130.5 -34.5h-968q-71 0 -129.5 34.5t-93.5 92t-35 127.5v976q0 70 35 127.5t93.5 92t129.5 34.5z" />
    <glyph glyph-name="u1F175" unicode="F&#x20de;&#x25a0;" 
d="M829 354v307h324v123h-324v212h353v124h-505v-766h152zM415 1464h968q72 0 130.5 -34.5t93 -92t34.5 -127.5v-976q0 -70 -34.5 -127.5t-93 -92t-130.5 -34.5h-968q-71 0 -129.5 34.5t-93.5 92t-35 127.5v976q0 70 35 127.5t93.5 92t129.5 34.5z" />
    <glyph glyph-name="u1F176" unicode="G&#x20de;&#x25a0;" 
d="M1076 620q0 -38 -19.5 -70.5t-58.5 -52t-96 -19.5q-92 0 -147.5 68t-55.5 188q0 121 55.5 189t147.5 68q73 0 120 -30.5t53 -73.5h157q-11 71 -55.5 126t-115.5 86t-160 31q-107 0 -188.5 -50t-127 -139t-45.5 -207t45 -207t126 -138.5t188 -49.5q102 0 175 40.5
t112 108.5t39 152v134h-312v-127h163v-27zM415 1464h968q72 0 130.5 -34.5t93 -92t34.5 -127.5v-976q0 -70 -34.5 -127.5t-93 -92t-130.5 -34.5h-968q-71 0 -129.5 34.5t-93.5 92t-35 127.5v976q0 70 35 127.5t93.5 92t129.5 34.5z" />
    <glyph glyph-name="u1F177" unicode="H&#x20de;&#x25a0;" 
d="M1221 354v766h-151v-312h-341v312h-152v-766h152v330h341v-330h151zM415 1464h968q72 0 130.5 -34.5t93 -92t34.5 -127.5v-976q0 -70 -34.5 -127.5t-93 -92t-130.5 -34.5h-968q-71 0 -129.5 34.5t-93.5 92t-35 127.5v976q0 70 35 127.5t93.5 92t129.5 34.5z" />
    <glyph glyph-name="u1F178" unicode="I&#x20de;&#x25a0;" 
d="M975 354v766h-152v-766h152zM415 1464h968q72 0 130.5 -34.5t93 -92t34.5 -127.5v-976q0 -70 -34.5 -127.5t-93 -92t-130.5 -34.5h-968q-71 0 -129.5 34.5t-93.5 92t-35 127.5v976q0 70 35 127.5t93.5 92t129.5 34.5z" />
    <glyph glyph-name="u1F179" unicode="J&#x20de;&#x25a0;" 
d="M605 570q0 -64 29 -116t86 -83t139 -31q122 0 192.5 65t70.5 190v525h-153v-530q0 -58 -28 -88.5t-84 -30.5q-46 0 -74 27.5t-29 71.5h-149zM415 1464h968q72 0 130.5 -34.5t93 -92t34.5 -127.5v-976q0 -70 -34.5 -127.5t-93 -92t-130.5 -34.5h-968q-71 0 -129.5 34.5
t-93.5 92t-35 127.5v976q0 70 35 127.5t93.5 92t129.5 34.5z" />
    <glyph glyph-name="u1F17A" unicode="&#x212a;&#x20de;&#x25a0;" 
d="M1247 1120h-172l-311 -343v0v343h-152v-766h152v252l79 85l230 -337h185q-73 107 -151 218t-153 218zM415 1464h968q72 0 130.5 -34.5t93 -92t34.5 -127.5v-976q0 -70 -34.5 -127.5t-93 -92t-130.5 -34.5h-968q-71 0 -129.5 34.5t-93.5 92t-35 127.5v976q0 70 35 127.5
t93.5 92t129.5 34.5z" />
    <glyph glyph-name="u1F17B" unicode="L&#x20de;&#x25a0;" 
d="M1199 481h-344v639h-153v-766h497v127zM415 1464h968q72 0 130.5 -34.5t93 -92t34.5 -127.5v-976q0 -70 -34.5 -127.5t-93 -92t-130.5 -34.5h-968q-71 0 -129.5 34.5t-93.5 92t-35 127.5v976q0 70 35 127.5t93.5 92t129.5 34.5z" />
    <glyph glyph-name="u1F17C" unicode="M&#x20de;&#x25a0;" 
d="M650 354v521v0l196 -495h106l195 491v0v-517h139v766h-152l-236 -582v0l-233 582h-153v-766h138zM415 1464h968q72 0 130.5 -34.5t93 -92t34.5 -127.5v-976q0 -70 -34.5 -127.5t-93 -92t-130.5 -34.5h-968q-71 0 -129.5 34.5t-93.5 92t-35 127.5v976q0 70 35 127.5
t93.5 92t129.5 34.5z" />
    <glyph glyph-name="u1F17D" unicode="N&#x20de;&#x25a0;" 
d="M727 354v523v0l359 -523h131v766h-146v-524v0l-361 524h-129v-766h146zM415 1464h968q72 0 130.5 -34.5t93 -92t34.5 -127.5v-976q0 -70 -34.5 -127.5t-93 -92t-130.5 -34.5h-968q-71 0 -129.5 34.5t-93.5 92t-35 127.5v976q0 70 35 127.5t93.5 92t129.5 34.5z" />
    <glyph glyph-name="u1F17E" unicode="O&#x20de;&#x25a0;" 
d="M899 465q-57 0 -103.5 31t-74.5 91t-28 147q0 88 28 148t74.5 91t103.5 31t103.5 -31t74.5 -91t28 -148q0 -87 -28 -147t-74.5 -91t-103.5 -31zM899 338q100 0 181.5 46.5t130 135t48.5 214.5q0 127 -48.5 215.5t-130 135t-181.5 46.5t-181.5 -46.5t-130 -135
t-48.5 -215.5q0 -126 48.5 -214.5t130 -135t181.5 -46.5zM415 1464h968q72 0 130.5 -34.5t93 -92t34.5 -127.5v-976q0 -70 -34.5 -127.5t-93 -92t-130.5 -34.5h-968q-71 0 -129.5 34.5t-93.5 92t-35 127.5v976q0 70 35 127.5t93.5 92t129.5 34.5z" />
    <glyph glyph-name="u1F17F" unicode="P&#x20de;&#x25a0;" 
d="M959 1120h-314v-766h152v263h161q85 0 146 32.5t93.5 89t32.5 128.5t-32.5 129.5t-93 90.5t-145.5 33zM1074 867q0 -62 -36.5 -97t-101.5 -35h-139v264h139q65 0 101.5 -34t36.5 -98zM415 1464h968q72 0 130.5 -34.5t93 -92t34.5 -127.5v-976q0 -70 -34.5 -127.5t-93 -92
t-130.5 -34.5h-968q-71 0 -129.5 34.5t-93.5 92t-35 127.5v976q0 70 35 127.5t93.5 92t129.5 34.5z" />
    <glyph glyph-name="u1F180" unicode="Q&#x20de;&#x25a0;" 
d="M1239 280l-106 142q58 50 92 129t34 183q0 127 -48.5 215.5t-130 135t-181.5 46.5t-181.5 -46.5t-130 -135t-48.5 -215.5q0 -126 48.5 -214.5t130 -135t181.5 -46.5q66 0 125 21l57 -79h158zM899 465q-57 0 -103.5 31t-74.5 91t-28 147q0 88 28 148t74.5 91t103.5 31
t103.5 -31t74.5 -91t28 -148q0 -64 -15.5 -113t-42.5 -83l-46 62h-152l94 -130q-10 -2 -21.5 -3.5t-22.5 -1.5zM415 1464h968q72 0 130.5 -34.5t93 -92t34.5 -127.5v-976q0 -70 -34.5 -127.5t-93 -92t-130.5 -34.5h-968q-71 0 -129.5 34.5t-93.5 92t-35 127.5v976
q0 70 35 127.5t93.5 92t129.5 34.5z" />
    <glyph glyph-name="u1F181" unicode="R&#x20de;&#x25a0;" 
d="M767 755v245h143q64 0 102.5 -32t38.5 -93q0 -59 -38 -89.5t-106 -30.5h-140zM930 1120h-313v-766h150v287h147l139 -287h173l-161 310q59 22 100.5 77t41.5 138q0 110 -73 175.5t-204 65.5zM415 1464h968q72 0 130.5 -34.5t93 -92t34.5 -127.5v-976q0 -70 -34.5 -127.5
t-93 -92t-130.5 -34.5h-968q-71 0 -129.5 34.5t-93.5 92t-35 127.5v976q0 70 35 127.5t93.5 92t129.5 34.5z" />
    <glyph glyph-name="u1F182" unicode="S&#x20de;&#x25a0;" 
d="M588 576q2 -73 40.5 -126t106.5 -82t161 -29q97 0 167 29t108.5 82.5t38.5 126.5q0 87 -52.5 140t-163.5 78l-127 28q-105 23 -105 90q0 47 38.5 75.5t102.5 28.5t105 -31t46 -82h145q-1 69 -38.5 121.5t-103.5 81.5t-153 29t-153.5 -29t-104 -81t-37.5 -121
q0 -81 51 -135t149 -76l127 -30q65 -14 93.5 -37t28.5 -61q0 -50 -41.5 -78.5t-112.5 -28.5t-116.5 32t-49.5 85h-150zM415 1464h968q72 0 130.5 -34.5t93 -92t34.5 -127.5v-976q0 -70 -34.5 -127.5t-93 -92t-130.5 -34.5h-968q-71 0 -129.5 34.5t-93.5 92t-35 127.5v976
q0 70 35 127.5t93.5 92t129.5 34.5z" />
    <glyph glyph-name="u1F183" unicode="T&#x20de;&#x25a0;" 
d="M975 354v641h229v125h-610v-125h229v-641h152zM415 1464h968q72 0 130.5 -34.5t93 -92t34.5 -127.5v-976q0 -70 -34.5 -127.5t-93 -92t-130.5 -34.5h-968q-71 0 -129.5 34.5t-93.5 92t-35 127.5v976q0 70 35 127.5t93.5 92t129.5 34.5z" />
    <glyph glyph-name="u1F184" unicode="U&#x20de;&#x25a0;" 
d="M899 468q-79 0 -123 43.5t-44 120.5v488h-153v-500q0 -84 39.5 -147t111.5 -98t169 -35q96 0 168 35t112 98t40 147v500h-153v-488q0 -77 -44.5 -120.5t-122.5 -43.5zM415 1464h968q72 0 130.5 -34.5t93 -92t34.5 -127.5v-976q0 -70 -34.5 -127.5t-93 -92t-130.5 -34.5
h-968q-71 0 -129.5 34.5t-93.5 92t-35 127.5v976q0 70 35 127.5t93.5 92t129.5 34.5z" />
    <glyph glyph-name="u1F185" unicode="V&#x20de;&#x25a0;" 
d="M985 354l277 766h-175l-186 -608h-4l-186 608h-175l277 -766h172zM415 1464h968q72 0 130.5 -34.5t93 -92t34.5 -127.5v-976q0 -70 -34.5 -127.5t-93 -92t-130.5 -34.5h-968q-71 0 -129.5 34.5t-93.5 92t-35 127.5v976q0 70 35 127.5t93.5 92t129.5 34.5z" />
    <glyph glyph-name="u1F186" unicode="W&#x20de;&#x25a0;" 
d="M897 895h4l151 -541h139l216 766h-168l-122 -566h-4l-145 566h-138l-145 -566h-4l-122 566h-168l217 -766h138zM415 1464h968q72 0 130.5 -34.5t93 -92t34.5 -127.5v-976q0 -70 -34.5 -127.5t-93 -92t-130.5 -34.5h-968q-71 0 -129.5 34.5t-93.5 92t-35 127.5v976
q0 70 35 127.5t93.5 92t129.5 34.5z" />
    <glyph glyph-name="u1F187" unicode="X&#x20de;&#x25a0;" 
d="M1251 1120h-174l-168 -279h-4l-173 279h-182l250 -380l-253 -386h170l175 275h3l175 -275h177l-254 381zM415 1464h968q72 0 130.5 -34.5t93 -92t34.5 -127.5v-976q0 -70 -34.5 -127.5t-93 -92t-130.5 -34.5h-968q-71 0 -129.5 34.5t-93.5 92t-35 127.5v976
q0 70 35 127.5t93.5 92t129.5 34.5z" />
    <glyph glyph-name="u1F188" unicode="Y&#x20de;&#x25a0;" 
d="M823 354h152v302l271 464h-169l-176 -324h-4l-176 324h-169l271 -464v-302zM415 1464h968q72 0 130.5 -34.5t93 -92t34.5 -127.5v-976q0 -70 -34.5 -127.5t-93 -92t-130.5 -34.5h-968q-71 0 -129.5 34.5t-93.5 92t-35 127.5v976q0 70 35 127.5t93.5 92t129.5 34.5z" />
    <glyph glyph-name="u1F189" unicode="Z&#x20de;&#x25a0;" 
d="M604 354h590v124h-405v0l394 545v97h-567v-124h383v-1l-395 -544v-97zM415 1464h968q72 0 130.5 -34.5t93 -92t34.5 -127.5v-976q0 -70 -34.5 -127.5t-93 -92t-130.5 -34.5h-968q-71 0 -129.5 34.5t-93.5 92t-35 127.5v976q0 70 35 127.5t93.5 92t129.5 34.5z" />
    <glyph glyph-name="plus_uni20DD.liga" unicode="&#x2b;&#x20dd;" 
d="M953 682v-217h-108v217h-212v102h212v209h108v-209h212v-102h-212zM899 78q107 0 203 32.5t175 91.5t136.5 139t89 176.5t31.5 202.5t-31.5 202.5t-89 176.5t-136.5 139t-175 91.5t-203 32.5t-203 -32.5t-175 -91.5t-136.5 -139t-89 -176.5t-31.5 -202.5t31.5 -202.5
t89 -176.5t136.5 -139t175 -91.5t203 -32.5zM899 -50q-127 0 -242.5 39t-212 110t-167.5 167.5t-110 212t-39 242.5t39 242.5t110 212t167.5 167.5t212 110t242.5 39t242.5 -39t212 -110t167.5 -167.5t110 -212t39 -242.5t-39 -242.5t-110 -212t-167.5 -167.5t-212 -110
t-242.5 -39z" />
    <glyph glyph-name="minus_uni20DD.liga" unicode="&#x2212;&#x20dd;" 
d="M1154 677h-510v104h510v-104zM899 78q107 0 203 32.5t175 91.5t136.5 139t89 176.5t31.5 202.5t-31.5 202.5t-89 176.5t-136.5 139t-175 91.5t-203 32.5t-203 -32.5t-175 -91.5t-136.5 -139t-89 -176.5t-31.5 -202.5t31.5 -202.5t89 -176.5t136.5 -139t175 -91.5
t203 -32.5zM899 -50q-127 0 -242.5 39t-212 110t-167.5 167.5t-110 212t-39 242.5t39 242.5t110 212t167.5 167.5t212 110t242.5 39t242.5 -39t212 -110t167.5 -167.5t110 -212t39 -242.5t-39 -242.5t-110 -212t-167.5 -167.5t-212 -110t-242.5 -39z" />
    <glyph glyph-name="multiply_uni20DD.liga" unicode="&#xd7;&#x20dd;" 
d="M899 802l163 156l77 -73l-163 -156l163 -156l-77 -73l-163 156l-163 -156l-77 73l163 156l-163 156l77 73zM899 78q107 0 203 32.5t175 91.5t136.5 139t89 176.5t31.5 202.5t-31.5 202.5t-89 176.5t-136.5 139t-175 91.5t-203 32.5t-203 -32.5t-175 -91.5t-136.5 -139
t-89 -176.5t-31.5 -202.5t31.5 -202.5t89 -176.5t136.5 -139t175 -91.5t203 -32.5zM899 -50q-127 0 -242.5 39t-212 110t-167.5 167.5t-110 212t-39 242.5t39 242.5t110 212t167.5 167.5t212 110t242.5 39t242.5 -39t212 -110t167.5 -167.5t110 -212t39 -242.5t-39 -242.5
t-110 -212t-167.5 -167.5t-212 -110t-242.5 -39z" />
    <glyph glyph-name="divide_uni20DD.liga" unicode="&#xf7;&#x20dd;" 
d="M1154 683h-510v91h510v-91zM820 934q0 34 22.5 55t55.5 21q35 0 58.5 -21t23.5 -55q0 -32 -23.5 -52.5t-58.5 -20.5q-33 0 -55.5 20.5t-22.5 52.5zM820 527q0 34 22.5 55t56.5 21t57.5 -21t23.5 -55q0 -31 -23.5 -52t-57.5 -21t-56.5 21t-22.5 52zM899 78q107 0 203 32.5
t175 91.5t136.5 139t89 176.5t31.5 202.5t-31.5 202.5t-89 176.5t-136.5 139t-175 91.5t-203 32.5t-203 -32.5t-175 -91.5t-136.5 -139t-89 -176.5t-31.5 -202.5t31.5 -202.5t89 -176.5t136.5 -139t175 -91.5t203 -32.5zM899 -50q-127 0 -242.5 39t-212 110t-167.5 167.5
t-110 212t-39 242.5t39 242.5t110 212t167.5 167.5t212 110t242.5 39t242.5 -39t212 -110t167.5 -167.5t110 -212t39 -242.5t-39 -242.5t-110 -212t-167.5 -167.5t-212 -110t-242.5 -39z" />
    <glyph glyph-name="equal_uni20DD.liga" unicode="&#x3d;&#x20dd;" 
d="M1140 567h-482v95h482v-95zM1140 795h-482v96h482v-96zM899 78q107 0 203 32.5t175 91.5t136.5 139t89 176.5t31.5 202.5t-31.5 202.5t-89 176.5t-136.5 139t-175 91.5t-203 32.5t-203 -32.5t-175 -91.5t-136.5 -139t-89 -176.5t-31.5 -202.5t31.5 -202.5t89 -176.5
t136.5 -139t175 -91.5t203 -32.5zM899 -50q-127 0 -242.5 39t-212 110t-167.5 167.5t-110 212t-39 242.5t39 242.5t110 212t167.5 167.5t212 110t242.5 39t242.5 -39t212 -110t167.5 -167.5t110 -212t39 -242.5t-39 -242.5t-110 -212t-167.5 -167.5t-212 -110t-242.5 -39z
" />
    <glyph glyph-name="greater_uni20DD.liga" unicode="&#x3e;&#x20dd;" 
d="M1165 764v-84l-482 -246v122l337 167v5l-337 173v124zM899 78q107 0 203 32.5t175 91.5t136.5 139t89 176.5t31.5 202.5t-31.5 202.5t-89 176.5t-136.5 139t-175 91.5t-203 32.5t-203 -32.5t-175 -91.5t-136.5 -139t-89 -176.5t-31.5 -202.5t31.5 -202.5t89 -176.5
t136.5 -139t175 -91.5t203 -32.5zM899 -50q-127 0 -242.5 39t-212 110t-167.5 167.5t-110 212t-39 242.5t39 242.5t110 212t167.5 167.5t212 110t242.5 39t242.5 -39t212 -110t167.5 -167.5t110 -212t39 -242.5t-39 -242.5t-110 -212t-167.5 -167.5t-212 -110t-242.5 -39z
" />
    <glyph glyph-name="less_uni20DD.liga" unicode="&#x3c;&#x20dd;" 
d="M634 680v84l481 261v-124l-338 -173v-5l338 -167v-122zM899 78q107 0 203 32.5t175 91.5t136.5 139t89 176.5t31.5 202.5t-31.5 202.5t-89 176.5t-136.5 139t-175 91.5t-203 32.5t-203 -32.5t-175 -91.5t-136.5 -139t-89 -176.5t-31.5 -202.5t31.5 -202.5t89 -176.5
t136.5 -139t175 -91.5t203 -32.5zM899 -50q-127 0 -242.5 39t-212 110t-167.5 167.5t-110 212t-39 242.5t39 242.5t110 212t167.5 167.5t212 110t242.5 39t242.5 -39t212 -110t167.5 -167.5t110 -212t39 -242.5t-39 -242.5t-110 -212t-167.5 -167.5t-212 -110t-242.5 -39z
" />
    <glyph glyph-name="zero_uni20DD.liga" unicode="&#x30;&#x20dd;" 
d="M1186 802h-112l-30 -139h107l-19 -90h-107l-40 -190h-98l41 190h-131l-40 -190h-98l40 190h-105l18 90h106l30 139h-101l18 90h103l38 184h97l-38 -184h130l39 184h97l-38 -184h111zM841 806l-33 -153h144l33 153h-144zM899 78q107 0 203 32.5t175 91.5t136.5 139
t89 176.5t31.5 202.5t-31.5 202.5t-89 176.5t-136.5 139t-175 91.5t-203 32.5t-203 -32.5t-175 -91.5t-136.5 -139t-89 -176.5t-31.5 -202.5t31.5 -202.5t89 -176.5t136.5 -139t175 -91.5t203 -32.5zM899 -50q-127 0 -242.5 39t-212 110t-167.5 167.5t-110 212t-39 242.5
t39 242.5t110 212t167.5 167.5t212 110t242.5 39t242.5 -39t212 -110t167.5 -167.5t110 -212t39 -242.5t-39 -242.5t-110 -212t-167.5 -167.5t-212 -110t-242.5 -39z" />
    <glyph glyph-name="triagdn_uni20DD.liga" unicode="&#x25bc;&#x20dd;" 
d="M1213 945l-314 -543l-313 543h627zM899 78q107 0 203 32.5t175 91.5t136.5 139t89 176.5t31.5 202.5t-31.5 202.5t-89 176.5t-136.5 139t-175 91.5t-203 32.5t-203 -32.5t-175 -91.5t-136.5 -139t-89 -176.5t-31.5 -202.5t31.5 -202.5t89 -176.5t136.5 -139t175 -91.5
t203 -32.5zM899 -50q-127 0 -242.5 39t-212 110t-167.5 167.5t-110 212t-39 242.5t39 242.5t110 212t167.5 167.5t212 110t242.5 39t242.5 -39t212 -110t167.5 -167.5t110 -212t39 -242.5t-39 -242.5t-110 -212t-167.5 -167.5t-212 -110t-242.5 -39z" />
    <glyph glyph-name="triagup_uni20DD.liga" unicode="&#x25b2;&#x20dd;" 
d="M1213 513h-627l313 543zM899 78q107 0 203 32.5t175 91.5t136.5 139t89 176.5t31.5 202.5t-31.5 202.5t-89 176.5t-136.5 139t-175 91.5t-203 32.5t-203 -32.5t-175 -91.5t-136.5 -139t-89 -176.5t-31.5 -202.5t31.5 -202.5t89 -176.5t136.5 -139t175 -91.5t203 -32.5z
M899 -50q-127 0 -242.5 39t-212 110t-167.5 167.5t-110 212t-39 242.5t39 242.5t110 212t167.5 167.5t212 110t242.5 39t242.5 -39t212 -110t167.5 -167.5t110 -212t39 -242.5t-39 -242.5t-110 -212t-167.5 -167.5t-212 -110t-242.5 -39z" />
    <glyph glyph-name="uni25C0_uni20DD.liga" unicode="&#x25c0;&#x20dd;" 
d="M1115 415l-543 314l543 313v-627zM899 78q107 0 203 32.5t175 91.5t136.5 139t89 176.5t31.5 202.5t-31.5 202.5t-89 176.5t-136.5 139t-175 91.5t-203 32.5t-203 -32.5t-175 -91.5t-136.5 -139t-89 -176.5t-31.5 -202.5t31.5 -202.5t89 -176.5t136.5 -139t175 -91.5
t203 -32.5zM899 -50q-127 0 -242.5 39t-212 110t-167.5 167.5t-110 212t-39 242.5t39 242.5t110 212t167.5 167.5t212 110t242.5 39t242.5 -39t212 -110t167.5 -167.5t110 -212t39 -242.5t-39 -242.5t-110 -212t-167.5 -167.5t-212 -110t-242.5 -39z" />
    <glyph glyph-name="uni25B6_uni20DD.liga" unicode="&#x25b6;&#x20dd;" 
d="M683 415v627l543 -313zM899 78q107 0 203 32.5t175 91.5t136.5 139t89 176.5t31.5 202.5t-31.5 202.5t-89 176.5t-136.5 139t-175 91.5t-203 32.5t-203 -32.5t-175 -91.5t-136.5 -139t-89 -176.5t-31.5 -202.5t31.5 -202.5t89 -176.5t136.5 -139t175 -91.5t203 -32.5z
M899 -50q-127 0 -242.5 39t-212 110t-167.5 167.5t-110 212t-39 242.5t39 242.5t110 212t167.5 167.5t212 110t242.5 39t242.5 -39t212 -110t167.5 -167.5t110 -212t39 -242.5t-39 -242.5t-110 -212t-167.5 -167.5t-212 -110t-242.5 -39z" />
    <glyph glyph-name="question_uni20DD.liga" unicode="&#x3f;&#x20dd;" 
d="M797 454q0 34 25 55.5t63 21.5q40 0 65 -21.5t25 -55.5q0 -32 -25 -53.5t-65 -21.5q-38 0 -63 21.5t-25 53.5zM823 606v33q-3 57 24.5 94.5t71.5 67.5q38 26 60 47.5t22 59.5q0 47 -32.5 68.5t-73.5 21.5q-54 0 -81.5 -31t-27.5 -75h-119q-1 56 19 95t54 63t76 34.5
t85 10.5q60 0 112.5 -20t84.5 -60t32 -101q0 -44 -15.5 -73.5t-39.5 -50.5t-50 -39q-31 -23 -50 -38.5t-27.5 -33t-8.5 -46.5v-27h-116zM899 78q107 0 203 32.5t175 91.5t136.5 139t89 176.5t31.5 202.5t-31.5 202.5t-89 176.5t-136.5 139t-175 91.5t-203 32.5t-203 -32.5
t-175 -91.5t-136.5 -139t-89 -176.5t-31.5 -202.5t31.5 -202.5t89 -176.5t136.5 -139t175 -91.5t203 -32.5zM899 -50q-127 0 -242.5 39t-212 110t-167.5 167.5t-110 212t-39 242.5t39 242.5t110 212t167.5 167.5t212 110t242.5 39t242.5 -39t212 -110t167.5 -167.5t110 -212
t39 -242.5t-39 -242.5t-110 -212t-167.5 -167.5t-212 -110t-242.5 -39z" />
    <glyph glyph-name="exclam_uni20DD.liga" unicode="&#x21;&#x20dd;" 
d="M810 454q0 34 24.5 56t64.5 22t64.5 -22t24.5 -56q0 -32 -24.5 -53.5t-64.5 -21.5t-64.5 21.5t-24.5 53.5zM829 1081h141l-15 -454h-111zM899 78q107 0 203 32.5t175 91.5t136.5 139t89 176.5t31.5 202.5t-31.5 202.5t-89 176.5t-136.5 139t-175 91.5t-203 32.5
t-203 -32.5t-175 -91.5t-136.5 -139t-89 -176.5t-31.5 -202.5t31.5 -202.5t89 -176.5t136.5 -139t175 -91.5t203 -32.5zM899 -50q-127 0 -242.5 39t-212 110t-167.5 167.5t-110 212t-39 242.5t39 242.5t110 212t167.5 167.5t212 110t242.5 39t242.5 -39t212 -110
t167.5 -167.5t110 -212t39 -242.5t-39 -242.5t-110 -212t-167.5 -167.5t-212 -110t-242.5 -39z" />
    <glyph glyph-name="uni2717_uni20DD.liga" unicode="&#x2717;&#x20dd;" 
d="M903 806l259 258l82 -81l-258 -259l258 -259l-82 -83l-259 258l-259 -258l-83 83l258 259l-259 260l82 82zM899 78q107 0 203 32.5t175 91.5t136.5 139t89 176.5t31.5 202.5t-31.5 202.5t-89 176.5t-136.5 139t-175 91.5t-203 32.5t-203 -32.5t-175 -91.5t-136.5 -139
t-89 -176.5t-31.5 -202.5t31.5 -202.5t89 -176.5t136.5 -139t175 -91.5t203 -32.5zM899 -50q-127 0 -242.5 39t-212 110t-167.5 167.5t-110 212t-39 242.5t39 242.5t110 212t167.5 167.5t212 110t242.5 39t242.5 -39t212 -110t167.5 -167.5t110 -212t39 -242.5t-39 -242.5
t-110 -212t-167.5 -167.5t-212 -110t-242.5 -39z" />
    <glyph glyph-name="uni2713_uni20DD.liga" unicode="&#x2713;&#x20dd;" 
d="M1322 950l-546 -544l-288 285l88 87l199 -198l459 458zM899 78q107 0 203 32.5t175 91.5t136.5 139t89 176.5t31.5 202.5t-31.5 202.5t-89 176.5t-136.5 139t-175 91.5t-203 32.5t-203 -32.5t-175 -91.5t-136.5 -139t-89 -176.5t-31.5 -202.5t31.5 -202.5t89 -176.5
t136.5 -139t175 -91.5t203 -32.5zM899 -50q-127 0 -242.5 39t-212 110t-167.5 167.5t-110 212t-39 242.5t39 242.5t110 212t167.5 167.5t212 110t242.5 39t242.5 -39t212 -110t167.5 -167.5t110 -212t39 -242.5t-39 -242.5t-110 -212t-167.5 -167.5t-212 -110t-242.5 -39z
" />
    <glyph glyph-name="zero_uni20DE.liga" unicode="&#x30;&#x20de;" 
d="M899 486q66 0 105 65t39 184t-39 184t-105 65t-105 -65t-39 -184t39 -184t105 -65zM899 376q-78 0 -138.5 42t-95 122t-34.5 195t34.5 195t95 122t138.5 42t138.5 -42t95 -122t34.5 -195t-34.5 -195t-95 -122t-138.5 -42zM415 1464h968q72 0 130.5 -34.5t93 -92
t34.5 -127.5v-976q0 -70 -34.5 -127.5t-93 -92t-130.5 -34.5h-968q-71 0 -129.5 34.5t-93.5 92t-35 127.5v976q0 70 35 127.5t93.5 92t129.5 34.5zM1512 1208q0 38 -19.5 69t-52 50t-71.5 19h-940q-38 0 -71 -18.5t-52.5 -50t-19.5 -69.5v-972q0 -38 19.5 -69t52.5 -50
t71 -19h940q39 0 71.5 19t52 50t19.5 69v972z" />
    <glyph glyph-name="one_uni20DE.liga" unicode="&#x31;&#x20de;" 
d="M1008 388h-130v571h-6l-166 -114v117l172 119h130v-693zM415 1464h968q72 0 130.5 -34.5t93 -92t34.5 -127.5v-976q0 -70 -34.5 -127.5t-93 -92t-130.5 -34.5h-968q-71 0 -129.5 34.5t-93.5 92t-35 127.5v976q0 70 35 127.5t93.5 92t129.5 34.5zM1512 1208q0 38 -19.5 69
t-52 50t-71.5 19h-940q-38 0 -71 -18.5t-52.5 -50t-19.5 -69.5v-972q0 -38 19.5 -69t52.5 -50t71 -19h940q39 0 71.5 19t52 50t19.5 69v972z" />
    <glyph glyph-name="two_uni20DE.liga" unicode="&#x32;&#x20de;" 
d="M781 878h-124v6q0 52 26.5 100.5t80.5 79t136 30.5q73 0 127 -25.5t84 -69t30 -98.5q0 -46 -18 -83t-47 -69.5t-61 -66.5l-174 -185v-6h313v-103h-492v77l268 280q30 31 56 66t26 79q0 46 -32.5 74.5t-81.5 28.5q-56 0 -86.5 -32.5t-30.5 -76.5v-3.5v-2.5zM415 1464h968
q72 0 130.5 -34.5t93 -92t34.5 -127.5v-976q0 -70 -34.5 -127.5t-93 -92t-130.5 -34.5h-968q-71 0 -129.5 34.5t-93.5 92t-35 127.5v976q0 70 35 127.5t93.5 92t129.5 34.5zM1512 1208q0 38 -19.5 69t-52 50t-71.5 19h-940q-38 0 -71 -18.5t-52.5 -50t-19.5 -69.5v-972
q0 -38 19.5 -69t52.5 -50t71 -19h940q39 0 71.5 19t52 50t19.5 69v972z" />
    <glyph glyph-name="three_uni20DE.liga" unicode="&#x33;&#x20de;" 
d="M819 696v98h77q51 0 84.5 29.5t33.5 73.5q-1 43 -34 71t-84 28q-53 0 -85 -27t-34 -62h-122q2 51 30.5 93.5t82 68t131.5 25.5q74 0 128 -23.5t84 -64t32 -91.5q1 -49 -22 -83.5t-54.5 -54t-58.5 -23.5v-6q33 -4 69 -22t61.5 -53.5t26.5 -91.5q1 -64 -35.5 -110t-98 -71
t-136.5 -25q-80 0 -136 25.5t-86.5 68t-32.5 94.5h120q4 -38 41.5 -63.5t94.5 -26.5q63 0 101.5 32t38.5 81q-1 48 -38 79t-98 31h-81zM415 1464h968q72 0 130.5 -34.5t93 -92t34.5 -127.5v-976q0 -70 -34.5 -127.5t-93 -92t-130.5 -34.5h-968q-71 0 -129.5 34.5t-93.5 92
t-35 127.5v976q0 70 35 127.5t93.5 92t129.5 34.5zM1512 1208q0 38 -19.5 69t-52 50t-71.5 19h-940q-38 0 -71 -18.5t-52.5 -50t-19.5 -69.5v-972q0 -38 19.5 -69t52.5 -50t71 -19h940q39 0 71.5 19t52 50t19.5 69v972z" />
    <glyph glyph-name="four_uni20DE.liga" unicode="&#x34;&#x20de;" 
d="M894 1081h189v-458h91v-102h-91v-133h-123v133h-352v103q65 115 139 229t147 228zM729 623h231v361h-6q-58 -85 -116 -176t-109 -181v-4zM415 1464h968q72 0 130.5 -34.5t93 -92t34.5 -127.5v-976q0 -70 -34.5 -127.5t-93 -92t-130.5 -34.5h-968q-71 0 -129.5 34.5
t-93.5 92t-35 127.5v976q0 70 35 127.5t93.5 92t129.5 34.5zM1512 1208q0 38 -19.5 69t-52 50t-71.5 19h-940q-38 0 -71 -18.5t-52.5 -50t-19.5 -69.5v-972q0 -38 19.5 -69t52.5 -50t71 -19h940q39 0 71.5 19t52 50t19.5 69v972z" />
    <glyph glyph-name="five_uni20DE.liga" unicode="&#x35;&#x20de;" 
d="M651 562h121q9 -45 48.5 -66t86.5 -21q35 0 66.5 16.5t51.5 48t20 76.5q0 40 -19 69.5t-51 45.5t-69 16q-51 0 -82.5 -22.5t-43.5 -45.5h-114l32 402h434v-102h-329l-17 -195h6q7 11 26.5 25t49.5 24.5t71 10.5q63 0 116 -26.5t85 -77t32 -121.5q0 -73 -34 -128
t-94.5 -85.5t-141.5 -30.5q-73 0 -128.5 24.5t-87.5 67t-35 95.5zM415 1464h968q72 0 130.5 -34.5t93 -92t34.5 -127.5v-976q0 -70 -34.5 -127.5t-93 -92t-130.5 -34.5h-968q-71 0 -129.5 34.5t-93.5 92t-35 127.5v976q0 70 35 127.5t93.5 92t129.5 34.5zM1512 1208
q0 38 -19.5 69t-52 50t-71.5 19h-940q-38 0 -71 -18.5t-52.5 -50t-19.5 -69.5v-972q0 -38 19.5 -69t52.5 -50t71 -19h940q39 0 71.5 19t52 50t19.5 69v972z" />
    <glyph glyph-name="six_uni20DE.liga" unicode="&#x36;&#x20de;" 
d="M924 377q-87 0 -154.5 39t-106 117.5t-38.5 195.5q0 115 37 197.5t105 126.5t161 44q71 0 127.5 -23.5t91.5 -65.5t44 -97h-129q-10 40 -45 62t-87 22q-85 0 -133 -65t-49 -187h9q27 49 78.5 76t118.5 27q71 0 127.5 -29.5t88.5 -81t32 -117.5q0 -70 -35.5 -124.5
t-98.5 -85.5t-144 -31zM923 478q43 0 77.5 18t54.5 49t20 70q0 60 -42 98t-109 38t-110 -38t-43 -96q0 -39 20 -70.5t54 -50t78 -18.5zM415 1464h968q72 0 130.5 -34.5t93 -92t34.5 -127.5v-976q0 -70 -34.5 -127.5t-93 -92t-130.5 -34.5h-968q-71 0 -129.5 34.5t-93.5 92
t-35 127.5v976q0 70 35 127.5t93.5 92t129.5 34.5zM1512 1208q0 38 -19.5 69t-52 50t-71.5 19h-940q-38 0 -71 -18.5t-52.5 -50t-19.5 -69.5v-972q0 -38 19.5 -69t52.5 -50t71 -19h940q39 0 71.5 19t52 50t19.5 69v972z" />
    <glyph glyph-name="seven_uni20DE.liga" unicode="&#x37;&#x20de;" 
d="M661 1081h491v-105l-296 -588h-137l301 584v6h-359v103zM415 1464h968q72 0 130.5 -34.5t93 -92t34.5 -127.5v-976q0 -70 -34.5 -127.5t-93 -92t-130.5 -34.5h-968q-71 0 -129.5 34.5t-93.5 92t-35 127.5v976q0 70 35 127.5t93.5 92t129.5 34.5zM1512 1208q0 38 -19.5 69
t-52 50t-71.5 19h-940q-38 0 -71 -18.5t-52.5 -50t-19.5 -69.5v-972q0 -38 19.5 -69t52.5 -50t71 -19h940q39 0 71.5 19t52 50t19.5 69v972z" />
    <glyph glyph-name="eight_uni20DE.liga" unicode="&#x38;&#x20de;" 
d="M899 467q63 0 104 33.5t41 85.5t-40.5 85.5t-104.5 33.5t-105 -34t-41 -85q0 -52 41 -85.5t105 -33.5zM899 793q53 0 87 29.5t34 75.5t-34 74.5t-87 28.5t-87 -28.5t-34 -74.5t34 -75.5t87 -29.5zM897 375q-82 0 -143 25.5t-95.5 71t-34.5 106.5q0 64 41.5 112t109.5 61
v5q-57 18 -89.5 59t-32.5 96q0 53 31.5 94.5t87 65t127.5 23.5t127.5 -23.5t87 -65t31.5 -94.5q0 -55 -33 -97t-89 -58v-5q68 -13 109.5 -60.5t41.5 -111.5q0 -61 -35 -107t-97.5 -71.5t-144.5 -25.5zM415 1464h968q72 0 130.5 -34.5t93 -92t34.5 -127.5v-976
q0 -70 -34.5 -127.5t-93 -92t-130.5 -34.5h-968q-71 0 -129.5 34.5t-93.5 92t-35 127.5v976q0 70 35 127.5t93.5 92t129.5 34.5zM1512 1208q0 38 -19.5 69t-52 50t-71.5 19h-940q-38 0 -71 -18.5t-52.5 -50t-19.5 -69.5v-972q0 -38 19.5 -69t52.5 -50t71 -19h940
q39 0 71.5 19t52 50t19.5 69v972z" />
    <glyph glyph-name="nine_uni20DE.liga" unicode="&#x39;&#x20de;" 
d="M898 377q-68 0 -123.5 23t-92 65t-47.5 98h129q13 -39 49.5 -61.5t86.5 -22.5q84 0 130.5 66t47.5 186h-9q-26 -49 -77.5 -76t-118.5 -27q-72 0 -128 29.5t-88 81t-32 117.5q0 70 35.5 124.5t98 85.5t143.5 31q89 0 157 -40.5t105.5 -119.5t37.5 -192q0 -115 -36 -197.5
t-104.5 -126.5t-163.5 -44zM903 724q44 0 79 17.5t54.5 47.5t19.5 68q0 39 -20 70.5t-54.5 49.5t-77.5 18t-78 -18t-55 -48.5t-20 -68.5q0 -60 42.5 -98t109.5 -38zM415 1464h968q72 0 130.5 -34.5t93 -92t34.5 -127.5v-976q0 -70 -34.5 -127.5t-93 -92t-130.5 -34.5h-968
q-71 0 -129.5 34.5t-93.5 92t-35 127.5v976q0 70 35 127.5t93.5 92t129.5 34.5zM1512 1208q0 38 -19.5 69t-52 50t-71.5 19h-940q-38 0 -71 -18.5t-52.5 -50t-19.5 -69.5v-972q0 -38 19.5 -69t52.5 -50t71 -19h940q39 0 71.5 19t52 50t19.5 69v972z" />
    <glyph glyph-name="plus_uni20DE.liga" unicode="&#x2b;&#x20de;" 
d="M953 682v-217h-108v217h-212v102h212v209h108v-209h212v-102h-212zM415 1464h968q72 0 130.5 -34.5t93 -92t34.5 -127.5v-976q0 -70 -34.5 -127.5t-93 -92t-130.5 -34.5h-968q-71 0 -129.5 34.5t-93.5 92t-35 127.5v976q0 70 35 127.5t93.5 92t129.5 34.5zM1512 1208
q0 38 -19.5 69t-52 50t-71.5 19h-940q-38 0 -71 -18.5t-52.5 -50t-19.5 -69.5v-972q0 -38 19.5 -69t52.5 -50t71 -19h940q39 0 71.5 19t52 50t19.5 69v972z" />
    <glyph glyph-name="minus_uni20DE.liga" unicode="&#x2212;&#x20de;" 
d="M1154 677h-510v104h510v-104zM415 1464h968q72 0 130.5 -34.5t93 -92t34.5 -127.5v-976q0 -70 -34.5 -127.5t-93 -92t-130.5 -34.5h-968q-71 0 -129.5 34.5t-93.5 92t-35 127.5v976q0 70 35 127.5t93.5 92t129.5 34.5zM1512 1208q0 38 -19.5 69t-52 50t-71.5 19h-940
q-38 0 -71 -18.5t-52.5 -50t-19.5 -69.5v-972q0 -38 19.5 -69t52.5 -50t71 -19h940q39 0 71.5 19t52 50t19.5 69v972z" />
    <glyph glyph-name="multiply_uni20DE.liga" unicode="&#xd7;&#x20de;" 
d="M899 802l163 156l77 -73l-163 -156l163 -156l-77 -73l-163 156l-163 -156l-77 73l163 156l-163 156l77 73zM415 1464h968q72 0 130.5 -34.5t93 -92t34.5 -127.5v-976q0 -70 -34.5 -127.5t-93 -92t-130.5 -34.5h-968q-71 0 -129.5 34.5t-93.5 92t-35 127.5v976
q0 70 35 127.5t93.5 92t129.5 34.5zM1512 1208q0 38 -19.5 69t-52 50t-71.5 19h-940q-38 0 -71 -18.5t-52.5 -50t-19.5 -69.5v-972q0 -38 19.5 -69t52.5 -50t71 -19h940q39 0 71.5 19t52 50t19.5 69v972z" />
    <glyph glyph-name="divide_uni20DE.liga" unicode="&#xf7;&#x20de;" 
d="M1154 683h-510v91h510v-91zM820 934q0 34 22.5 55t55.5 21q35 0 58.5 -21t23.5 -55q0 -32 -23.5 -52.5t-58.5 -20.5q-33 0 -55.5 20.5t-22.5 52.5zM820 527q0 34 22.5 55t56.5 21t57.5 -21t23.5 -55q0 -31 -23.5 -52t-57.5 -21t-56.5 21t-22.5 52zM415 1464h968
q72 0 130.5 -34.5t93 -92t34.5 -127.5v-976q0 -70 -34.5 -127.5t-93 -92t-130.5 -34.5h-968q-71 0 -129.5 34.5t-93.5 92t-35 127.5v976q0 70 35 127.5t93.5 92t129.5 34.5zM1512 1208q0 38 -19.5 69t-52 50t-71.5 19h-940q-38 0 -71 -18.5t-52.5 -50t-19.5 -69.5v-972
q0 -38 19.5 -69t52.5 -50t71 -19h940q39 0 71.5 19t52 50t19.5 69v972z" />
    <glyph glyph-name="equal_uni20DE.liga" unicode="&#x3d;&#x20de;" 
d="M1140 567h-482v95h482v-95zM1140 795h-482v96h482v-96zM415 1464h968q72 0 130.5 -34.5t93 -92t34.5 -127.5v-976q0 -70 -34.5 -127.5t-93 -92t-130.5 -34.5h-968q-71 0 -129.5 34.5t-93.5 92t-35 127.5v976q0 70 35 127.5t93.5 92t129.5 34.5zM1512 1208q0 38 -19.5 69
t-52 50t-71.5 19h-940q-38 0 -71 -18.5t-52.5 -50t-19.5 -69.5v-972q0 -38 19.5 -69t52.5 -50t71 -19h940q39 0 71.5 19t52 50t19.5 69v972z" />
    <glyph glyph-name="greater_uni20DE.liga" unicode="&#x3e;&#x20de;" 
d="M1165 764v-84l-482 -246v122l337 167v5l-337 173v124zM415 1464h968q72 0 130.5 -34.5t93 -92t34.5 -127.5v-976q0 -70 -34.5 -127.5t-93 -92t-130.5 -34.5h-968q-71 0 -129.5 34.5t-93.5 92t-35 127.5v976q0 70 35 127.5t93.5 92t129.5 34.5zM1512 1208q0 38 -19.5 69
t-52 50t-71.5 19h-940q-38 0 -71 -18.5t-52.5 -50t-19.5 -69.5v-972q0 -38 19.5 -69t52.5 -50t71 -19h940q39 0 71.5 19t52 50t19.5 69v972z" />
    <glyph glyph-name="less_uni20DE.liga" unicode="&#x3c;&#x20de;" 
d="M634 680v84l481 261v-124l-338 -173v-5l338 -167v-122zM415 1464h968q72 0 130.5 -34.5t93 -92t34.5 -127.5v-976q0 -70 -34.5 -127.5t-93 -92t-130.5 -34.5h-968q-71 0 -129.5 34.5t-93.5 92t-35 127.5v976q0 70 35 127.5t93.5 92t129.5 34.5zM1512 1208q0 38 -19.5 69
t-52 50t-71.5 19h-940q-38 0 -71 -18.5t-52.5 -50t-19.5 -69.5v-972q0 -38 19.5 -69t52.5 -50t71 -19h940q39 0 71.5 19t52 50t19.5 69v972z" />
    <glyph glyph-name="numbersign_uni20DE.liga" unicode="&#x23;&#x20de;" 
d="M1186 802h-112l-30 -139h107l-19 -90h-107l-40 -190h-98l41 190h-131l-40 -190h-98l40 190h-105l18 90h106l30 139h-101l18 90h103l38 184h97l-38 -184h130l39 184h97l-38 -184h111zM841 806l-33 -153h144l33 153h-144zM415 1464h968q72 0 130.5 -34.5t93 -92
t34.5 -127.5v-976q0 -70 -34.5 -127.5t-93 -92t-130.5 -34.5h-968q-71 0 -129.5 34.5t-93.5 92t-35 127.5v976q0 70 35 127.5t93.5 92t129.5 34.5zM1512 1208q0 38 -19.5 69t-52 50t-71.5 19h-940q-38 0 -71 -18.5t-52.5 -50t-19.5 -69.5v-972q0 -38 19.5 -69t52.5 -50
t71 -19h940q39 0 71.5 19t52 50t19.5 69v972z" />
    <glyph glyph-name="triagdn_uni20DE.liga" unicode="&#x25bc;&#x20de;" 
d="M1214 945l-314 -543l-314 543h628zM415 1464h968q72 0 130.5 -34.5t93 -92t34.5 -127.5v-976q0 -70 -34.5 -127.5t-93 -92t-130.5 -34.5h-968q-71 0 -129.5 34.5t-93.5 92t-35 127.5v976q0 70 35 127.5t93.5 92t129.5 34.5zM1512 1208q0 38 -19.5 69t-52 50t-71.5 19
h-940q-38 0 -71 -18.5t-52.5 -50t-19.5 -69.5v-972q0 -38 19.5 -69t52.5 -50t71 -19h940q39 0 71.5 19t52 50t19.5 69v972z" />
    <glyph glyph-name="triagup_uni20DE.liga" unicode="&#x25b2;&#x20de;" 
d="M1213 513h-627l313 543zM415 1464h968q72 0 130.5 -34.5t93 -92t34.5 -127.5v-976q0 -70 -34.5 -127.5t-93 -92t-130.5 -34.5h-968q-71 0 -129.5 34.5t-93.5 92t-35 127.5v976q0 70 35 127.5t93.5 92t129.5 34.5zM1512 1208q0 38 -19.5 69t-52 50t-71.5 19h-940
q-38 0 -71 -18.5t-52.5 -50t-19.5 -69.5v-972q0 -38 19.5 -69t52.5 -50t71 -19h940q39 0 71.5 19t52 50t19.5 69v972z" />
    <glyph glyph-name="uni25C0_uni20DE.liga" unicode="&#x25c0;&#x20de;" 
d="M1115 415l-543 314l543 313v-627zM415 1464h968q72 0 130.5 -34.5t93 -92t34.5 -127.5v-976q0 -70 -34.5 -127.5t-93 -92t-130.5 -34.5h-968q-71 0 -129.5 34.5t-93.5 92t-35 127.5v976q0 70 35 127.5t93.5 92t129.5 34.5zM1512 1208q0 38 -19.5 69t-52 50t-71.5 19h-940
q-38 0 -71 -18.5t-52.5 -50t-19.5 -69.5v-972q0 -38 19.5 -69t52.5 -50t71 -19h940q39 0 71.5 19t52 50t19.5 69v972z" />
    <glyph glyph-name="uni25B6_uni20DE.liga" unicode="&#x25b6;&#x20de;" 
d="M683 415v627l543 -313zM415 1464h968q72 0 130.5 -34.5t93 -92t34.5 -127.5v-976q0 -70 -34.5 -127.5t-93 -92t-130.5 -34.5h-968q-71 0 -129.5 34.5t-93.5 92t-35 127.5v976q0 70 35 127.5t93.5 92t129.5 34.5zM1512 1208q0 38 -19.5 69t-52 50t-71.5 19h-940
q-38 0 -71 -18.5t-52.5 -50t-19.5 -69.5v-972q0 -38 19.5 -69t52.5 -50t71 -19h940q39 0 71.5 19t52 50t19.5 69v972z" />
    <glyph glyph-name="question_uni20DE.liga" unicode="&#x3f;&#x20de;" 
d="M797 454q0 34 25 55.5t63 21.5q40 0 65 -21.5t25 -55.5q0 -32 -25 -53.5t-65 -21.5q-38 0 -63 21.5t-25 53.5zM667 892q-1 56 19 95t54 63t76 34.5t85 10.5q60 0 112.5 -20t84.5 -60t32 -101q0 -44 -15.5 -73.5t-39.5 -50.5t-50 -39q-31 -23 -50 -38.5t-27.5 -33
t-8.5 -46.5v-27h-116v33q-3 57 24.5 94.5t71.5 67.5q38 26 60 47.5t22 59.5q0 47 -32.5 68.5t-73.5 21.5q-54 0 -81.5 -31t-27.5 -75h-119zM415 1464h968q72 0 130.5 -34.5t93 -92t34.5 -127.5v-976q0 -70 -34.5 -127.5t-93 -92t-130.5 -34.5h-968q-71 0 -129.5 34.5
t-93.5 92t-35 127.5v976q0 70 35 127.5t93.5 92t129.5 34.5zM1512 1208q0 38 -19.5 69t-52 50t-71.5 19h-940q-38 0 -71 -18.5t-52.5 -50t-19.5 -69.5v-972q0 -38 19.5 -69t52.5 -50t71 -19h940q39 0 71.5 19t52 50t19.5 69v972z" />
    <glyph glyph-name="exclam_uni20DE.liga" unicode="&#x21;&#x20de;" 
d="M810 454q0 34 24.5 56t64.5 22t64.5 -22t24.5 -56q0 -32 -24.5 -53.5t-64.5 -21.5t-64.5 21.5t-24.5 53.5zM829 1081h141l-15 -454h-111zM415 1464h968q72 0 130.5 -34.5t93 -92t34.5 -127.5v-976q0 -70 -34.5 -127.5t-93 -92t-130.5 -34.5h-968q-71 0 -129.5 34.5
t-93.5 92t-35 127.5v976q0 70 35 127.5t93.5 92t129.5 34.5zM1512 1208q0 38 -19.5 69t-52 50t-71.5 19h-940q-38 0 -71 -18.5t-52.5 -50t-19.5 -69.5v-972q0 -38 19.5 -69t52.5 -50t71 -19h940q39 0 71.5 19t52 50t19.5 69v972z" />
    <glyph glyph-name="uni2717_uni20DE.liga" unicode="&#x2717;&#x20de;" 
d="M903 806l259 258l82 -81l-258 -259l258 -259l-82 -83l-259 258l-259 -258l-83 83l258 259l-259 260l82 82zM415 1464h968q72 0 130.5 -34.5t93 -92t34.5 -127.5v-976q0 -70 -34.5 -127.5t-93 -92t-130.5 -34.5h-968q-71 0 -129.5 34.5t-93.5 92t-35 127.5v976
q0 70 35 127.5t93.5 92t129.5 34.5zM1512 1208q0 38 -19.5 69t-52 50t-71.5 19h-940q-38 0 -71 -18.5t-52.5 -50t-19.5 -69.5v-972q0 -38 19.5 -69t52.5 -50t71 -19h940q39 0 71.5 19t52 50t19.5 69v972z" />
    <glyph glyph-name="uni2713_uni20DE.liga" unicode="&#x2713;&#x20de;" 
d="M1322 950l-546 -544l-288 285l88 87l199 -198l459 458zM415 1464h968q72 0 130.5 -34.5t93 -92t34.5 -127.5v-976q0 -70 -34.5 -127.5t-93 -92t-130.5 -34.5h-968q-71 0 -129.5 34.5t-93.5 92t-35 127.5v976q0 70 35 127.5t93.5 92t129.5 34.5zM1512 1208q0 38 -19.5 69
t-52 50t-71.5 19h-940q-38 0 -71 -18.5t-52.5 -50t-19.5 -69.5v-972q0 -38 19.5 -69t52.5 -50t71 -19h940q39 0 71.5 19t52 50t19.5 69v972z" />
    <glyph glyph-name="plus_uni20DD_H18533.liga" unicode="&#x2b;&#x20dd;&#x25cf;" 
d="M964 674h231v121h-231v228h-130v-228h-231v-121h231v-237h130v237zM899 -50q-127 0 -242.5 39t-212 110t-167.5 167.5t-110 212t-39 242.5t39 242.5t110 212t167.5 167.5t212 110t242.5 39t242.5 -39t212 -110t167.5 -167.5t110 -212t39 -242.5t-39 -242.5t-110 -212
t-167.5 -167.5t-212 -110t-242.5 -39z" />
    <glyph glyph-name="minus_uni20DD_H18533.liga" unicode="&#x2212;&#x20dd;&#x25cf;" 
d="M1183 668v124h-568v-124h568zM899 -50q-127 0 -242.5 39t-212 110t-167.5 167.5t-110 212t-39 242.5t39 242.5t110 212t167.5 167.5t212 110t242.5 39t242.5 -39t212 -110t167.5 -167.5t110 -212t39 -242.5t-39 -242.5t-110 -212t-167.5 -167.5t-212 -110t-242.5 -39z
" />
    <glyph glyph-name="multiply_uni20DD_H18533.liga" unicode="&#xd7;&#x20dd;&#x25cf;" 
d="M899 817l-178 170l-91 -87l178 -171l-178 -169l91 -87l178 169l178 -169l91 87l-178 169l178 171l-91 87zM899 -50q-127 0 -242.5 39t-212 110t-167.5 167.5t-110 212t-39 242.5t39 242.5t110 212t167.5 167.5t212 110t242.5 39t242.5 -39t212 -110t167.5 -167.5
t110 -212t39 -242.5t-39 -242.5t-110 -212t-167.5 -167.5t-212 -110t-242.5 -39z" />
    <glyph glyph-name="divide_uni20DD_H18533.liga" unicode="&#xf7;&#x20dd;&#x25cf;" 
d="M807 953q0 -37 26.5 -61t64.5 -24q39 0 66.5 24t27.5 61q0 39 -27 63.5t-67 24.5q-38 0 -64.5 -24.5t-26.5 -63.5zM1183 674v110h-568v-110h568zM807 510q0 -37 26.5 -61t65.5 -24t66 24t27 61q0 39 -27 63.5t-66 24.5t-65.5 -24.5t-26.5 -63.5zM899 -50
q-127 0 -242.5 39t-212 110t-167.5 167.5t-110 212t-39 242.5t39 242.5t110 212t167.5 167.5t212 110t242.5 39t242.5 -39t212 -110t167.5 -167.5t110 -212t39 -242.5t-39 -242.5t-110 -212t-167.5 -167.5t-212 -110t-242.5 -39z" />
    <glyph glyph-name="equal_uni20DD_H18533.liga" unicode="&#x3d;&#x20dd;&#x25cf;" 
d="M1166 796v116h-534v-116h534zM1166 548v115h-534v-115h534zM899 -50q-127 0 -242.5 39t-212 110t-167.5 167.5t-110 212t-39 242.5t39 242.5t110 212t167.5 167.5t212 110t242.5 39t242.5 -39t212 -110t167.5 -167.5t110 -212t39 -242.5t-39 -242.5t-110 -212
t-167.5 -167.5t-212 -110t-242.5 -39z" />
    <glyph glyph-name="greater_uni20DD_H18533.liga" unicode="&#x3e;&#x20dd;&#x25cf;" 
d="M1187 770l-535 290v-145l368 -190l1 -1l-369 -179v-145l535 274v96zM899 -50q-127 0 -242.5 39t-212 110t-167.5 167.5t-110 212t-39 242.5t39 242.5t110 212t167.5 167.5t212 110t242.5 39t242.5 -39t212 -110t167.5 -167.5t110 -212t39 -242.5t-39 -242.5t-110 -212
t-167.5 -167.5t-212 -110t-242.5 -39z" />
    <glyph glyph-name="less_uni20DD_H18533.liga" unicode="&#x3c;&#x20dd;&#x25cf;" 
d="M603 674l534 -274v145l-367 179v1l367 190v145l-534 -290v-96zM899 -50q-127 0 -242.5 39t-212 110t-167.5 167.5t-110 212t-39 242.5t39 242.5t110 212t167.5 167.5t212 110t242.5 39t242.5 -39t212 -110t167.5 -167.5t110 -212t39 -242.5t-39 -242.5t-110 -212
t-167.5 -167.5t-212 -110t-242.5 -39z" />
    <glyph glyph-name="numbersign_uni20DD_H18533.liga" unicode="&#x23;&#x20dd;&#x25cf;" 
d="M839 809h147l-34 -157h-146zM1216 805l22 108h-122l42 200h-117l-41 -200h-132l42 200h-117l-41 -200h-113l-22 -108h111l-30 -141h-116l-22 -110h114l-43 -206h117l44 206h132l-44 -206h117l43 206h117l23 110h-116l29 141h123zM899 -50q-127 0 -242.5 39t-212 110
t-167.5 167.5t-110 212t-39 242.5t39 242.5t110 212t167.5 167.5t212 110t242.5 39t242.5 -39t212 -110t167.5 -167.5t110 -212t39 -242.5t-39 -242.5t-110 -212t-167.5 -167.5t-212 -110t-242.5 -39z" />
    <glyph glyph-name="triagdn_uni20DD_H18533.liga" unicode="&#x25bc;&#x20dd;&#x25cf;" 
d="M1245 980h-691l345 -598zM899 -50q-127 0 -242.5 39t-212 110t-167.5 167.5t-110 212t-39 242.5t39 242.5t110 212t167.5 167.5t212 110t242.5 39t242.5 -39t212 -110t167.5 -167.5t110 -212t39 -242.5t-39 -242.5t-110 -212t-167.5 -167.5t-212 -110t-242.5 -39z" />
    <glyph glyph-name="triagup_uni20DD_H18533.liga" unicode="&#x25b2;&#x20dd;&#x25cf;" 
d="M1245 493l-346 598l-345 -598h691zM899 -50q-127 0 -242.5 39t-212 110t-167.5 167.5t-110 212t-39 242.5t39 242.5t110 212t167.5 167.5t212 110t242.5 39t242.5 -39t212 -110t167.5 -167.5t110 -212t39 -242.5t-39 -242.5t-110 -212t-167.5 -167.5t-212 -110
t-242.5 -39z" />
    <glyph glyph-name="uni25C0_uni20DD_H18533.liga" unicode="&#x25c0;&#x20dd;&#x25cf;" 
d="M1143 392v689l-599 -344zM899 -50q-127 0 -242.5 39t-212 110t-167.5 167.5t-110 212t-39 242.5t39 242.5t110 212t167.5 167.5t212 110t242.5 39t242.5 -39t212 -110t167.5 -167.5t110 -212t39 -242.5t-39 -242.5t-110 -212t-167.5 -167.5t-212 -110t-242.5 -39z" />
    <glyph glyph-name="uni25B6_uni20DD_H18533.liga" unicode="&#x25b6;&#x20dd;&#x25cf;" 
d="M655 392l599 345l-599 344v-689zM899 -50q-127 0 -242.5 39t-212 110t-167.5 167.5t-110 212t-39 242.5t39 242.5t110 212t167.5 167.5t212 110t242.5 39t242.5 -39t212 -110t167.5 -167.5t110 -212t39 -242.5t-39 -242.5t-110 -212t-167.5 -167.5t-212 -110t-242.5 -39z
" />
    <glyph glyph-name="question_uni20DD_H18533.liga" unicode="&#x3f;&#x20dd;&#x25cf;" 
d="M778 429q0 -37 29 -62t73 -25q47 0 75 25t28 62q0 41 -28 65.5t-75 24.5q-44 0 -73 -24.5t-29 -65.5zM807 590h137v34q0 30 9 48.5t28.5 35t53.5 40.5q28 20 55 44t44.5 57t17.5 82q0 67 -35.5 112.5t-93.5 68t-126 22.5q-48 0 -94 -12t-84 -39t-60.5 -70t-22.5 -106v-5
h140q0 47 29 81t86 34q42 0 76 -22t34 -71q0 -39 -24.5 -62.5t-62.5 -49.5q-49 -34 -80 -76t-27 -105v-41zM901 -50q-127 0 -242.5 39t-212 110t-167.5 167.5t-110 212t-39 242.5t39 242.5t110 212t167.5 167.5t212 110t242.5 39t242.5 -39t212 -110t167.5 -167.5t110 -212
t39 -242.5t-39 -242.5t-110 -212t-167.5 -167.5t-212 -110t-242.5 -39z" />
    <glyph glyph-name="exclam_uni20DD_H18533.liga" unicode="&#x21;&#x20dd;&#x25cf;" 
d="M816 1118l17 -505h132l17 505h-166zM797 430q0 -37 28.5 -62t73.5 -25t73.5 25t28.5 62q0 40 -28.5 64.5t-73.5 24.5t-73.5 -24.5t-28.5 -64.5zM899 -50q-127 0 -242.5 39t-212 110t-167.5 167.5t-110 212t-39 242.5t39 242.5t110 212t167.5 167.5t212 110t242.5 39
t242.5 -39t212 -110t167.5 -167.5t110 -212t39 -242.5t-39 -242.5t-110 -212t-167.5 -167.5t-212 -110t-242.5 -39z" />
    <glyph glyph-name="uni2717_uni20DD_H18533.liga" unicode="&#x2717;&#x20dd;&#x25cf;" 
d="M903 816l-286 287l-91 -90l285 -287l-284 -284l92 -92l284 284l285 -284l90 92l-284 284l284 284l-90 91zM899 -50q-127 0 -242.5 39t-212 110t-167.5 167.5t-110 212t-39 242.5t39 242.5t110 212t167.5 167.5t212 110t242.5 39t242.5 -39t212 -110t167.5 -167.5
t110 -212t39 -242.5t-39 -242.5t-110 -212t-167.5 -167.5t-212 -110t-242.5 -39z" />
    <glyph glyph-name="uni2713_uni20DD_H18533.liga" unicode="&#x2713;&#x20dd;&#x25cf;" 
d="M763 377l600 599l-97 96l-504 -503l-218 217l-97 -96zM899 -50q-127 0 -242.5 39t-212 110t-167.5 167.5t-110 212t-39 242.5t39 242.5t110 212t167.5 167.5t212 110t242.5 39t242.5 -39t212 -110t167.5 -167.5t110 -212t39 -242.5t-39 -242.5t-110 -212t-167.5 -167.5
t-212 -110t-242.5 -39z" />
    <glyph glyph-name="zero_uni20DE_filledbox.liga" unicode="&#x30;&#x20de;&#x25a0;" 
d="M895 461q-70 0 -109 70.5t-39 203.5t39 203.5t109 70.5t109 -70.5t39 -203.5t-39 -203.5t-109 -70.5zM895 338q92 0 159.5 48t105 137t37.5 212t-37.5 212t-105 137t-159.5 48t-159.5 -48t-105 -137t-37.5 -212t37.5 -212t105 -137t159.5 -48zM415 1464h968
q72 0 130.5 -34.5t93 -92t34.5 -127.5v-976q0 -70 -34.5 -127.5t-93 -92t-130.5 -34.5h-968q-71 0 -129.5 34.5t-93.5 92t-35 127.5v976q0 70 35 127.5t93.5 92t129.5 34.5z" />
    <glyph glyph-name="one_uni20DE_filledbox.liga" unicode="&#x31;&#x20de;&#x25a0;" 
d="M1022 353v765h-148l-191 -132v-140l187 128h1v-621h151zM415 1464h968q72 0 130.5 -34.5t93 -92t34.5 -127.5v-976q0 -70 -34.5 -127.5t-93 -92t-130.5 -34.5h-968q-71 0 -129.5 34.5t-93.5 92t-35 127.5v976q0 70 35 127.5t93.5 92t129.5 34.5z" />
    <glyph glyph-name="two_uni20DE_filledbox.liga" unicode="&#x32;&#x20de;&#x25a0;" 
d="M771 886v11q0 46 31.5 80.5t90.5 34.5q50 0 84.5 -30t34.5 -77q0 -48 -28 -85.5t-60 -70.5l-293 -306v-91h546v122h-342v0l203 212q33 35 61.5 69.5t46 73.5t17.5 87q0 62 -33 110.5t-93.5 76.5t-141.5 28q-91 0 -151 -34t-89.5 -87.5t-29.5 -112.5v-11h146zM415 1464
h968q72 0 130.5 -34.5t93 -92t34.5 -127.5v-976q0 -70 -34.5 -127.5t-93 -92t-130.5 -34.5h-968q-71 0 -129.5 34.5t-93.5 92t-35 127.5v976q0 70 35 127.5t93.5 92t129.5 34.5z" />
    <glyph glyph-name="three_uni20DE_filledbox.liga" unicode="&#x33;&#x20de;&#x25a0;" 
d="M803 688h93q64 0 102 -32.5t39 -82.5q0 -51 -39.5 -84t-106.5 -33q-59 1 -99 29t-45 69h-140q2 -59 36 -108t96 -78.5t151 -29.5q83 0 151.5 27.5t109 79.5t39.5 124q-2 61 -29 100.5t-65.5 60t-74.5 24.5v0v0q29 6 63 28t58 60t23 91q-2 57 -35.5 102.5t-93.5 71.5
t-141 26q-86 -1 -146 -30t-92 -77.5t-34 -107.5h144q2 38 35 67.5t89 29.5q54 0 88.5 -28.5t35.5 -74.5q0 -46 -35 -76t-89 -30h-88v-118zM415 1464h968q72 0 130.5 -34.5t93 -92t34.5 -127.5v-976q0 -70 -34.5 -127.5t-93 -92t-130.5 -34.5h-968q-71 0 -129.5 34.5
t-93.5 92t-35 127.5v976q0 70 35 127.5t93.5 92t129.5 34.5z" />
    <glyph glyph-name="four_uni20DE_filledbox.liga" unicode="&#x34;&#x20de;&#x25a0;" 
d="M887 1118q-60 -94 -107 -167t-84 -131t-66.5 -108t-56.5 -97v-117h383v-145h145v145h100v120h-100v500h-214zM956 618h-241v1q55 95 117.5 191.5t123.5 188.5v0v0v-381zM415 1464h968q72 0 130.5 -34.5t93 -92t34.5 -127.5v-976q0 -70 -34.5 -127.5t-93 -92t-130.5 -34.5
h-968q-71 0 -129.5 34.5t-93.5 92t-35 127.5v976q0 70 35 127.5t93.5 92t129.5 34.5z" />
    <glyph glyph-name="five_uni20DE_filledbox.liga" unicode="&#x35;&#x20de;&#x25a0;" 
d="M618 552q3 -61 38.5 -109t97 -76t143.5 -28q88 0 155.5 34t105.5 95t38 143q0 79 -35.5 134.5t-94.5 85t-129 29.5q-64 0 -104 -22t-56 -41v0v0q4 49 8 100t9 101h359v120h-483l-35 -448h131q13 25 47 49.5t88 24.5q40 0 73 -17t53 -48t20 -73q0 -48 -21 -81t-54 -50
t-69 -17q-50 0 -92 23.5t-51 70.5h-142zM415 1464h968q72 0 130.5 -34.5t93 -92t34.5 -127.5v-976q0 -70 -34.5 -127.5t-93 -92t-130.5 -34.5h-968q-71 0 -129.5 34.5t-93.5 92t-35 127.5v976q0 70 35 127.5t93.5 92t129.5 34.5z" />
    <glyph glyph-name="six_uni20DE_filledbox.liga" unicode="&#x36;&#x20de;&#x25a0;" 
d="M911 341q85 0 150.5 34t102.5 94.5t37 137.5q0 72 -32.5 128.5t-89.5 88.5t-130 32q-67 0 -118 -29t-78 -82h-9q1 127 45.5 196t125.5 69q47 0 80 -23t43 -64h153q-10 62 -47.5 109t-97 73.5t-133.5 26.5q-97 0 -168 -48t-109.5 -138.5t-38.5 -216.5q0 -129 40.5 -215.5
t111.5 -129.5t162 -43zM909 462q-40 0 -72 19t-50.5 52t-18.5 73q0 60 39.5 99t102.5 39t102 -39t39 -101q0 -40 -18.5 -72t-51 -51t-72.5 -19zM415 1464h968q72 0 130.5 -34.5t93 -92t34.5 -127.5v-976q0 -70 -34.5 -127.5t-93 -92t-130.5 -34.5h-968q-71 0 -129.5 34.5
t-93.5 92t-35 127.5v976q0 70 35 127.5t93.5 92t129.5 34.5z" />
    <glyph glyph-name="seven_uni20DE_filledbox.liga" unicode="&#x37;&#x20de;&#x25a0;" 
d="M630 1118v-123h392v-1l-332 -641h159l325 645v120h-544zM415 1464h968q72 0 130.5 -34.5t93 -92t34.5 -127.5v-976q0 -70 -34.5 -127.5t-93 -92t-130.5 -34.5h-968q-71 0 -129.5 34.5t-93.5 92t-35 127.5v976q0 70 35 127.5t93.5 92t129.5 34.5z" />
    <glyph glyph-name="eight_uni20DE_filledbox.liga" unicode="&#x38;&#x20de;&#x25a0;" 
d="M895 805q-56 0 -90.5 30t-34.5 78t34.5 78t90.5 30t90.5 -30t34.5 -78t-34.5 -78t-90.5 -30zM895 449q-67 0 -110.5 35.5t-43.5 88.5q0 54 43.5 89.5t110.5 35.5t110.5 -35.5t43.5 -89.5q0 -53 -43.5 -88.5t-110.5 -35.5zM895 338q90 0 158.5 28.5t107 79.5t38.5 119
q0 70 -44 121.5t-119 67.5v0v0q62 21 96.5 66.5t34.5 107.5q0 60 -34.5 106.5t-96 72.5t-141.5 26t-141.5 -26t-96 -72.5t-34.5 -106.5q0 -62 34.5 -107.5t96.5 -66.5v0v0q-75 -16 -119 -67.5t-44 -121.5q0 -68 38.5 -119t107 -79.5t158.5 -28.5zM415 1464h968
q72 0 130.5 -34.5t93 -92t34.5 -127.5v-976q0 -70 -34.5 -127.5t-93 -92t-130.5 -34.5h-968q-71 0 -129.5 34.5t-93.5 92t-35 127.5v976q0 70 35 127.5t93.5 92t129.5 34.5z" />
    <glyph glyph-name="nine_uni20DE_filledbox.liga" unicode="&#x39;&#x20de;&#x25a0;" 
d="M884 341q99 0 170 48t109 138.5t38 215.5q0 123 -38.5 210t-109 133t-166.5 46q-85 0 -150.5 -34t-102.5 -94t-37 -138q0 -72 32.5 -128t89.5 -88.5t130 -32.5q67 0 118 29t78 82h9q0 -125 -44.5 -195t-123.5 -70q-47 0 -81 23t-45 63h-153q11 -63 49.5 -109.5t97 -72.5
t130.5 -26zM888 730q-62 0 -101.5 39t-39.5 101q0 40 18.5 71.5t50.5 50t73 18.5q40 0 72 -19t50.5 -51t18.5 -72q0 -59 -40 -98.5t-102 -39.5zM415 1464h968q72 0 130.5 -34.5t93 -92t34.5 -127.5v-976q0 -70 -34.5 -127.5t-93 -92t-130.5 -34.5h-968q-71 0 -129.5 34.5
t-93.5 92t-35 127.5v976q0 70 35 127.5t93.5 92t129.5 34.5z" />
    <glyph glyph-name="plus_uni20DE_filledbox.liga" unicode="&#x2b;&#x20de;&#x25a0;" 
d="M964 674h231v121h-231v228h-130v-228h-231v-121h231v-237h130v237zM415 1464h968q72 0 130.5 -34.5t93 -92t34.5 -127.5v-976q0 -70 -34.5 -127.5t-93 -92t-130.5 -34.5h-968q-71 0 -129.5 34.5t-93.5 92t-35 127.5v976q0 70 35 127.5t93.5 92t129.5 34.5z" />
    <glyph glyph-name="minus_uni20DE_filledbox.liga" unicode="&#x2212;&#x20de;&#x25a0;" 
d="M1183 668v124h-568v-124h568zM415 1464h968q72 0 130.5 -34.5t93 -92t34.5 -127.5v-976q0 -70 -34.5 -127.5t-93 -92t-130.5 -34.5h-968q-71 0 -129.5 34.5t-93.5 92t-35 127.5v976q0 70 35 127.5t93.5 92t129.5 34.5z" />
    <glyph glyph-name="multiply_uni20DE_filledbox.liga" unicode="&#xd7;&#x20de;&#x25a0;" 
d="M899 817l-178 170l-91 -87l178 -171l-178 -169l91 -87l178 169l178 -169l91 87l-178 169l178 171l-91 87zM415 1464h968q72 0 130.5 -34.5t93 -92t34.5 -127.5v-976q0 -70 -34.5 -127.5t-93 -92t-130.5 -34.5h-968q-71 0 -129.5 34.5t-93.5 92t-35 127.5v976
q0 70 35 127.5t93.5 92t129.5 34.5z" />
    <glyph glyph-name="divide_uni20DE_filledbox.liga" unicode="&#xf7;&#x20de;&#x25a0;" 
d="M807 953q0 -37 26.5 -61t64.5 -24q39 0 66.5 24t27.5 61q0 39 -27 63.5t-67 24.5q-38 0 -64.5 -24.5t-26.5 -63.5zM1183 674v110h-568v-110h568zM807 510q0 -37 26.5 -61t65.5 -24t66 24t27 61q0 39 -27 63.5t-66 24.5t-65.5 -24.5t-26.5 -63.5zM415 1464h968
q72 0 130.5 -34.5t93 -92t34.5 -127.5v-976q0 -70 -34.5 -127.5t-93 -92t-130.5 -34.5h-968q-71 0 -129.5 34.5t-93.5 92t-35 127.5v976q0 70 35 127.5t93.5 92t129.5 34.5z" />
    <glyph glyph-name="equal_uni20DE_filledbox.liga" unicode="&#x3d;&#x20de;&#x25a0;" 
d="M1166 796v116h-534v-116h534zM1166 548v115h-534v-115h534zM415 1464h968q72 0 130.5 -34.5t93 -92t34.5 -127.5v-976q0 -70 -34.5 -127.5t-93 -92t-130.5 -34.5h-968q-71 0 -129.5 34.5t-93.5 92t-35 127.5v976q0 70 35 127.5t93.5 92t129.5 34.5z" />
    <glyph glyph-name="greater_uni20DE_filledbox.liga" unicode="&#x3e;&#x20de;&#x25a0;" 
d="M1187 770l-535 290v-145l368 -190l1 -1l-369 -179v-145l535 274v96zM415 1464h968q72 0 130.5 -34.5t93 -92t34.5 -127.5v-976q0 -70 -34.5 -127.5t-93 -92t-130.5 -34.5h-968q-71 0 -129.5 34.5t-93.5 92t-35 127.5v976q0 70 35 127.5t93.5 92t129.5 34.5z" />
    <glyph glyph-name="less_uni20DE_filledbox.liga" unicode="&#x3c;&#x20de;&#x25a0;" 
d="M603 674l534 -274v145q-90 45 -183 90t-184 89v1l367 190v145l-534 -290v-96zM415 1464h968q72 0 130.5 -34.5t93 -92t34.5 -127.5v-976q0 -70 -34.5 -127.5t-93 -92t-130.5 -34.5h-968q-71 0 -129.5 34.5t-93.5 92t-35 127.5v976q0 70 35 127.5t93.5 92t129.5 34.5z" />
    <glyph glyph-name="numbersign_uni20DE_filledbox.liga" unicode="&#x23;&#x20de;&#x25a0;" 
d="M839 809h147l-34 -157h-146zM1216 805l22 108h-122l42 200h-117l-41 -200h-132l42 200h-117l-41 -200h-113l-22 -108h111l-30 -141h-116l-22 -110h114l-43 -206h117l44 206h132l-44 -206h117l43 206h117l23 110h-116l29 141h123zM415 1464h968q72 0 130.5 -34.5t93 -92
t34.5 -127.5v-976q0 -70 -34.5 -127.5t-93 -92t-130.5 -34.5h-968q-71 0 -129.5 34.5t-93.5 92t-35 127.5v976q0 70 35 127.5t93.5 92t129.5 34.5z" />
    <glyph glyph-name="triagdn_uni20DE_filledbox.liga" unicode="&#x25bc;&#x20de;&#x25a0;" 
d="M1245 975h-691l345 -599zM415 1464h968q72 0 130.5 -34.5t93 -92t34.5 -127.5v-976q0 -70 -34.5 -127.5t-93 -92t-130.5 -34.5h-968q-71 0 -129.5 34.5t-93.5 92t-35 127.5v976q0 70 35 127.5t93.5 92t129.5 34.5z" />
    <glyph glyph-name="triagup_uni20DE_filledbox.liga" unicode="&#x25b2;&#x20de;&#x25a0;" 
d="M1245 493l-346 598l-345 -598h691zM415 1464h968q72 0 130.5 -34.5t93 -92t34.5 -127.5v-976q0 -70 -34.5 -127.5t-93 -92t-130.5 -34.5h-968q-71 0 -129.5 34.5t-93.5 92t-35 127.5v976q0 70 35 127.5t93.5 92t129.5 34.5z" />
    <glyph glyph-name="uni25C0_uni20DE_filledbox.liga" unicode="&#x25c0;&#x20de;&#x25a0;" 
d="M1143 392v689l-599 -344zM415 1464h968q72 0 130.5 -34.5t93 -92t34.5 -127.5v-976q0 -70 -34.5 -127.5t-93 -92t-130.5 -34.5h-968q-71 0 -129.5 34.5t-93.5 92t-35 127.5v976q0 70 35 127.5t93.5 92t129.5 34.5z" />
    <glyph glyph-name="uni25B6_uni20DE_filledbox.liga" unicode="&#x25b6;&#x20de;&#x25a0;" 
d="M655 392l599 345l-599 344v-689zM415 1464h968q72 0 130.5 -34.5t93 -92t34.5 -127.5v-976q0 -70 -34.5 -127.5t-93 -92t-130.5 -34.5h-968q-71 0 -129.5 34.5t-93.5 92t-35 127.5v976q0 70 35 127.5t93.5 92t129.5 34.5z" />
    <glyph glyph-name="question_uni20DE_filledbox.liga" unicode="&#x3f;&#x20de;&#x25a0;" 
d="M778 429q0 -37 29 -62t73 -25q47 0 75 25t28 62q0 41 -28 65.5t-75 24.5q-44 0 -73 -24.5t-29 -65.5zM897 1134q-48 0 -94 -12t-84 -39t-60.5 -70t-22.5 -106v-5h140q0 47 29 81t86 34q42 0 76 -22t34 -71q0 -39 -24.5 -62.5t-62.5 -49.5q-49 -34 -80 -76t-27 -105v-41
h137v34q0 30 9 48.5t28.5 35t53.5 40.5q28 20 55 44t44.5 57t17.5 82q0 67 -35.5 112.5t-93.5 68t-126 22.5zM415 1464h968q72 0 130.5 -34.5t93 -92t34.5 -127.5v-976q0 -70 -34.5 -127.5t-93 -92t-130.5 -34.5h-968q-71 0 -129.5 34.5t-93.5 92t-35 127.5v976
q0 70 35 127.5t93.5 92t129.5 34.5z" />
    <glyph glyph-name="exclam_uni20DE_filledbox.liga" unicode="&#x21;&#x20de;&#x25a0;" 
d="M816 1118l17 -505h132l17 505h-166zM797 430q0 -37 28.5 -62t73.5 -25t73.5 25t28.5 62q0 40 -28.5 64.5t-73.5 24.5t-73.5 -24.5t-28.5 -64.5zM415 1464h968q72 0 130.5 -34.5t93 -92t34.5 -127.5v-976q0 -70 -34.5 -127.5t-93 -92t-130.5 -34.5h-968q-71 0 -129.5 34.5
t-93.5 92t-35 127.5v976q0 70 35 127.5t93.5 92t129.5 34.5z" />
    <glyph glyph-name="uni2717_uni20DE_filledbox.liga" unicode="&#x2717;&#x20de;&#x25a0;" 
d="M526 1013l285 -287l-284 -284l92 -92l284 284l285 -284l90 92l-284 284l284 284l-90 91l-285 -285l-286 287zM415 1464h968q72 0 130.5 -34.5t93 -92t34.5 -127.5v-976q0 -70 -34.5 -127.5t-93 -92t-130.5 -34.5h-968q-71 0 -129.5 34.5t-93.5 92t-35 127.5v976
q0 70 35 127.5t93.5 92t129.5 34.5z" />
    <glyph glyph-name="uni2713_uni20DE_filledbox.liga" unicode="&#x2713;&#x20de;&#x25a0;" 
d="M763 377l600 599l-97 96l-504 -503l-218 217l-97 -96zM415 1464h968q72 0 130.5 -34.5t93 -92t34.5 -127.5v-976q0 -70 -34.5 -127.5t-93 -92t-130.5 -34.5h-968q-71 0 -129.5 34.5t-93.5 92t-35 127.5v976q0 70 35 127.5t93.5 92t129.5 34.5z" />
    <glyph glyph-name=".notdef" horiz-adv-x="2048" 
d="M99 -494v284h1848v-284h-1848zM99 -62v284h1848v-284h-1848zM99 370v284h1848v-284h-1848zM99 802v284h1848v-284h-1848zM99 1234v284h1848v-284h-1848zM99 1666v284h1848v-284h-1848z" />
    <glyph glyph-name="glyph1" horiz-adv-x="0" 
 />
    <glyph glyph-name="glyph2" horiz-adv-x="0" 
 />
    <glyph glyph-name="space" unicode=" " horiz-adv-x="578" 
 />
    <glyph glyph-name="exclam" unicode="!" horiz-adv-x="637" 
d="M217 1444h200l-17 -964h-166zM318 -18q-61 0 -100 39t-39 100t39 100.5t100 39.5t99.5 -39.5t38.5 -100.5t-38.5 -100t-99.5 -39z" />
    <glyph glyph-name="quotedbl" unicode="&#x22;" horiz-adv-x="895" 
d="M338 904h-160v539h160v-539zM715 904h-160v539h160v-539z" />
    <glyph glyph-name="numbersign" unicode="#" horiz-adv-x="1296" 
d="M662 0l82 403h-328l-82 -403h-142l81 403h-234l28 144h237l73 364h-247l29 143h247l81 389h142l-78 -389h326l81 389h143l-80 -389h249l-28 -143h-251l-75 -364h261l-28 -144h-262l-82 -403h-143zM444 544h330l75 369h-330z" />
    <glyph glyph-name="dollar" unicode="$" horiz-adv-x="1328" 
d="M725 633v-449q93 7 149.5 37.5t82.5 77.5t26 105q0 55 -22 97.5t-76.5 74.5t-153.5 56zM605 832v425q-76 -10 -127.5 -41t-78 -75.5t-26.5 -92.5q0 -74 51.5 -129t180.5 -87zM725 803l31 -7q129 -31 218.5 -79t136 -121t46.5 -178q0 -90 -34 -160t-93.5 -118.5
t-138 -76.5t-166.5 -35v-173h-120v174q-89 8 -168 38t-139.5 80t-96 120t-38.5 157h174q9 -62 39 -113t86.5 -84t142.5 -42v477l-23 6q-187 45 -285 132.5t-98 235.5q0 108 52 189t144 130t210 59v174h120v-173q87 -8 161.5 -38.5t131.5 -80.5t89.5 -118t35.5 -151h-174
q-10 101 -76.5 159.5t-167.5 71.5v-455z" />
    <glyph glyph-name="percent" unicode="%" horiz-adv-x="1720" 
d="M377 790q-98 0 -168.5 41t-108 117t-37.5 182q0 105 38 181t108.5 117t167.5 41t167 -41t108 -117t38 -181q0 -106 -37.5 -182.5t-107.5 -117t-168 -40.5zM377 921q76 0 117 55t41 153t-41.5 153t-116.5 55q-76 0 -117.5 -55t-41.5 -153q0 -99 41.5 -153.5t117.5 -54.5z
M442 0h-163l997 1443h163zM1342 -14q-97 0 -167.5 41t-108.5 117t-38 182q0 105 38 181t108.5 117t167.5 41t167 -41t108 -117t38 -181q0 -106 -37.5 -182.5t-108 -117t-167.5 -40.5zM1342 117q76 0 117 55t41 153t-41 153t-117 55t-117 -55t-41 -153q0 -99 41 -153.5
t117 -54.5z" />
    <glyph glyph-name="ampersand" unicode="&#x26;" horiz-adv-x="1457" 
d="M1202 0l-133 144q-92 -81 -214 -126t-253 -45q-108 0 -197 30t-154.5 85t-101 130.5t-35.5 166.5q0 128 70.5 227.5t215.5 175.5q10 4 27 13t29 15q-67 70 -106.5 127t-57 108t-17.5 103q0 69 27.5 128t77.5 103t117 68t146 24q106 0 189.5 -42t131 -115.5t47.5 -167.5
q0 -74 -31.5 -136.5t-100 -120t-180.5 -116.5l361 -388q34 67 51 160t17 228v25h168v-26q0 -168 -30 -293t-89 -216l251 -269h-226zM504 682q-104 -54 -157 -127t-53 -158q0 -81 41 -142t113.5 -95.5t169.5 -34.5q65 0 129.5 16.5t120 46.5t95.5 72l-408 446q-8 -3 -24 -11
t-27 -13zM602 881q88 45 140.5 86t76 84t23.5 95q0 56 -25 98.5t-69.5 66t-103.5 23.5q-57 0 -101.5 -24t-70 -67t-25.5 -99q0 -40 15 -79t49 -83t91 -101z" />
    <glyph glyph-name="quotesingle" unicode="'" horiz-adv-x="518" 
d="M338 904h-160v539h160v-539z" />
    <glyph glyph-name="parenleft" unicode="(" horiz-adv-x="782" 
d="M241 600q0 270 70 493t214 413h146q-53 -68 -99 -170t-80.5 -224.5t-54 -253.5t-19.5 -258q0 -128 19 -259t53.5 -253.5t80.5 -224.5t100 -170h-146q-144 191 -214 413.5t-70 493.5z" />
    <glyph glyph-name="parenright" unicode=")" horiz-adv-x="782" 
d="M539 600q0 -271 -70 -493.5t-214 -413.5h-146q54 68 100 170t80.5 224.5t53.5 253.5t19 259q0 127 -19.5 258t-54 253.5t-80.5 224.5t-99 170h146q144 -190 214 -413t70 -493z" />
    <glyph glyph-name="asterisk" unicode="*" horiz-adv-x="940" 
d="M755 825l-234 158l16 -279h-136l16 280l-234 -159l-67 116l250 131l-250 132l67 118l234 -163l-16 284h136l-16 -284l234 163l67 -118l-249 -132l249 -131z" />
    <glyph glyph-name="plus" unicode="+" horiz-adv-x="1328" 
d="M744 488v-422h-162v422h-402v162h402v422h162v-422h402v-162h-402z" />
    <glyph glyph-name="comma" unicode="," horiz-adv-x="608" 
d="M270 -367h-129l95 569h191z" />
    <glyph glyph-name="uni2011" unicode="&#x2011;" horiz-adv-x="966" 
d="M810 499h-656v163h656v-163z" />
    <glyph glyph-name="uni2011" unicode="-" horiz-adv-x="966" 
d="M810 499h-656v163h656v-163z" />
    <glyph glyph-name="period" unicode="." horiz-adv-x="608" 
d="M303 -10q-36 0 -65.5 17.5t-47 47t-17.5 65.5t17.5 65.5t47 47t65.5 17.5t65.5 -17.5t47 -47t17.5 -65.5t-17.5 -65.5t-47 -47t-65.5 -17.5z" />
    <glyph glyph-name="slash" unicode="/" horiz-adv-x="682" 
d="M154 -307h-146l520 1813h146z" />
    <glyph glyph-name="zero" unicode="0" horiz-adv-x="1290" 
d="M645 -34q-163 0 -277 89t-174.5 258t-60.5 409q0 238 60.5 407t175.5 258.5t276 89.5q160 0 274.5 -90t175 -259.5t60.5 -408.5t-60 -407.5t-174 -257t-276 -88.5zM645 123q160 0 244.5 154.5t84.5 444.5q0 287 -85.5 442t-243.5 155q-106 0 -179.5 -70t-112.5 -203.5
t-39 -323.5q0 -290 85.5 -444.5t245.5 -154.5z" />
    <glyph glyph-name="one" unicode="1" horiz-adv-x="955" 
d="M505 0v1243h-16l-367 -266v190l384 276h179v-1443h-180z" />
    <glyph glyph-name="two" unicode="2" horiz-adv-x="1237" 
d="M151 1036q0 96 35 177t98.5 140t150 91.5t190.5 32.5q94 0 175 -30t142 -84.5t94.5 -128.5t33.5 -162q0 -62 -15.5 -119.5t-53 -119.5t-102 -138.5t-161.5 -177.5l-328 -339v-16h684v-162h-934v124l488 528q69 75 115 129.5t73 98t38.5 84.5t11.5 89q0 77 -33 137t-94 95
t-146 35q-86 0 -151 -35.5t-101 -99t-36 -149.5h-174z" />
    <glyph glyph-name="three" unicode="3" horiz-adv-x="1284" 
d="M463 665v154h171q83 0 147 32.5t100.5 90.5t36.5 133q0 67 -33 123t-95 89t-149 33q-130 0 -210.5 -65t-91.5 -186h-175q9 117 69.5 209.5t167 145.5t252.5 53q107 0 190.5 -31t141 -84.5t87 -122t29.5 -144.5q0 -87 -33.5 -154t-91.5 -112t-132 -66v-16
q93 -15 163 -61.5t109 -121t39 -175.5q0 -91 -38.5 -168t-108 -134t-161.5 -89t-200 -32q-146 0 -258.5 50.5t-178 141.5t-71.5 214h174q8 -76 51.5 -132t115.5 -86.5t165 -30.5q95 0 168.5 34t115 95t41.5 142q0 84 -39.5 144.5t-113.5 93.5t-175 33h-179z" />
    <glyph glyph-name="four" unicode="4" horiz-adv-x="1318" 
d="M819 0v299h-703v164q97 163 201.5 332t210 333t206.5 315h261v-983h205v-161h-205v-299h-176zM300 471v-12h520v817h-12q-81 -121 -168.5 -257t-174 -275.5t-165.5 -272.5z" />
    <glyph glyph-name="five" unicode="5" horiz-adv-x="1267" 
d="M640 -34q-102 0 -188 30t-150.5 85t-102.5 131t-44 169h177q8 -77 49.5 -135t108.5 -90t152 -32q95 0 165.5 42.5t109.5 118.5t39 177q0 98 -39 171t-108 114t-160 41q-103 0 -181 -45t-121 -125h-169l83 825h801v-161h-660l-45 -470h16q105 131 321 131q91 0 171 -34
t141 -97t95.5 -150.5t34.5 -194.5q0 -111 -35.5 -203t-101.5 -159t-157 -103t-202 -36z" />
    <glyph glyph-name="six" unicode="6" horiz-adv-x="1305" 
d="M670 -33q-118 0 -217 45.5t-172 137t-113.5 228.5t-40.5 319q0 248 67.5 422.5t192 266t295.5 91.5q131 0 231 -45.5t162 -128.5t80 -195h-185q-23 100 -98 154.5t-184 54.5q-180 0 -280.5 -149t-105.5 -443h16q53 105 154 163.5t230 58.5q103 0 189.5 -36t150.5 -100.5
t99 -153t35 -193.5q0 -109 -37 -200t-105 -157.5t-160.5 -103t-203.5 -36.5zM668 125q69 0 128.5 25t104 70.5t69 106t24.5 131.5q0 98 -41 173.5t-114.5 117.5t-168.5 42t-169.5 -42t-116.5 -115.5t-42 -169.5q0 -72 24.5 -134t69 -108t104 -71.5t128.5 -25.5z" />
    <glyph glyph-name="seven" unicode="7" horiz-adv-x="1167" 
d="M220 0l648 1268v14h-772v161h955v-167l-642 -1276h-189z" />
    <glyph glyph-name="eight" unicode="8" horiz-adv-x="1308" 
d="M653 -34q-115 0 -210 30.5t-164.5 86.5t-107.5 133t-38 170q0 94 37.5 171t105 128.5t157.5 68.5v16q-74 20 -128 66t-83.5 112t-29.5 144q0 84 34 154.5t95.5 122t146 80t185.5 28.5t185.5 -28.5t146 -80t95.5 -122t34 -154.5q0 -79 -29 -144.5t-83.5 -111.5t-128.5 -66
v-16q90 -17 157.5 -68.5t105 -128.5t37.5 -171q0 -93 -38 -170t-107.5 -133t-164.5 -86.5t-210 -30.5zM653 120q100 0 176 35.5t119 98t43 145.5t-43 145.5t-119 98t-176 35.5t-176 -35.5t-119 -98t-43 -145.5t43 -145.5t119 -98t176 -35.5zM653 830q85 0 149 30.5t99.5 86
t35.5 128.5q0 75 -35.5 130.5t-99 86.5t-149.5 31t-149.5 -31t-99 -86.5t-35.5 -130.5q0 -73 35.5 -128.5t99.5 -86t149 -30.5z" />
    <glyph glyph-name="nine" unicode="9" horiz-adv-x="1305" 
d="M621 -33q-122 0 -221 45t-164 127.5t-88 196.5h185q28 -98 106 -153.5t184 -55.5q176 0 273 152t105 440h-16q-53 -105 -154 -163.5t-230 -58.5q-103 0 -189.5 36t-150.5 100.5t-99 153t-35 193.5q0 109 37 200t105 157.5t160.5 103t203.5 36.5q117 0 216 -45t172.5 -136
t114 -228t40.5 -321q0 -248 -65 -422.5t-189.5 -266t-300.5 -91.5zM633 653q96 0 170 42t116 115.5t42 169.5q0 72 -24.5 134t-69 108t-104 71.5t-128.5 25.5t-128.5 -25t-104 -70.5t-69 -106t-24.5 -131.5q0 -98 41 -173.5t114 -117.5t169 -42z" />
    <glyph glyph-name="colon" unicode=":" horiz-adv-x="608" 
d="M303 -10q-36 0 -65.5 17.5t-47 47t-17.5 65.5t17.5 65.5t47 47t65.5 17.5t65.5 -17.5t47 -47t17.5 -65.5t-17.5 -65.5t-47 -47t-65.5 -17.5zM303 764q-36 0 -65.5 17.5t-47 47t-17.5 65.5t17.5 65.5t47 47t65.5 17.5t65.5 -17.5t47 -47t17.5 -65.5t-17.5 -65.5t-47 -47
t-65.5 -17.5z" />
    <glyph glyph-name="semicolon" unicode=";" horiz-adv-x="608" 
d="M303 764q-36 0 -65.5 17.5t-47 47t-17.5 65.5t17.5 65.5t47 47t65.5 17.5t65.5 -17.5t47 -47t17.5 -65.5t-17.5 -65.5t-47 -47t-65.5 -17.5zM270 -367h-129l95 569h191z" />
    <glyph glyph-name="less" unicode="&#x3c;" horiz-adv-x="1328" 
d="M1146 901l-759 -322v-9l759 -333v-181l-966 436v152l966 438v-181z" />
    <glyph glyph-name="equal" unicode="=" horiz-adv-x="1328" 
d="M1126 276h-926v154h926v-154zM1126 709h-926v154h926v-154z" />
    <glyph glyph-name="greater" unicode="&#x3e;" horiz-adv-x="1328" 
d="M180 901v181l966 -438v-152l-966 -436v181l759 333v9z" />
    <glyph glyph-name="question" unicode="?" horiz-adv-x="1050" 
d="M79 1066q4 81 33 151.5t83.5 123.5t134.5 83t185 30q94 0 172 -27.5t134.5 -76.5t87 -115t30.5 -143q0 -118 -56.5 -202.5t-152.5 -142.5q-63 -37 -98.5 -71t-50 -73t-14.5 -92v-65h-175v92q-1 99 48 170.5t152 133.5q58 36 93.5 71t51.5 76t16 94q0 62 -30 110.5
t-85 76.5t-130 28q-113 0 -181.5 -62.5t-76.5 -169.5h-171zM493 -18q-61 0 -100 39t-39 100t39 100.5t100 39.5t99.5 -39.5t38.5 -100.5t-38.5 -100t-99.5 -39z" />
    <glyph glyph-name="at" unicode="@" horiz-adv-x="1880" 
d="M933 875q-100 0 -156.5 -74t-56.5 -205q0 -130 56.5 -205t154.5 -75q68 0 119 34.5t78.5 97t27.5 148.5t-27.5 148.5t-77.5 96.5t-118 34zM968 1435q177 0 324 -53.5t254 -151.5t165.5 -233t58.5 -298t-46 -282.5t-130.5 -185t-199.5 -65.5q-59 0 -106.5 21.5t-77.5 59.5
t-36 87h-16q-32 -76 -97 -117.5t-153 -41.5q-104 0 -182.5 53.5t-122 149t-43.5 222.5q0 122 44.5 215t122.5 145.5t181 52.5q79 0 142 -38t92 -103h16v122h151v-587q0 -53 29.5 -82t83.5 -29q63 0 109.5 50t72 141t25.5 214q0 135 -48.5 247t-138.5 192.5t-213.5 124.5
t-273.5 44q-147 0 -269.5 -52.5t-213 -148.5t-140 -226.5t-49.5 -286.5q0 -160 49.5 -289.5t142 -221.5t222.5 -141.5t290 -49.5q68 0 133 6t118 16.5t84 25.5v-126q-67 -23 -155 -36t-182 -13q-194 0 -349.5 58.5t-265.5 167.5t-169 263t-59 346q0 186 59.5 339t169.5 264
t261.5 171t335.5 60z" />
    <glyph glyph-name="A" unicode="A" horiz-adv-x="1380" 
d="M1121 0l-145 413h-574l-145 -413h-189l532 1443h178l532 -1443h-189zM681 1210l-226 -644h468l-226 644h-16z" />
    <glyph glyph-name="B" unicode="B" horiz-adv-x="1346" 
d="M746 0h-563v1443h552q132 0 228 -44t147.5 -124.5t51.5 -191.5q0 -75 -33.5 -141.5t-89.5 -112t-126 -57.5v-16q98 -12 170.5 -59t112 -122t39.5 -170q0 -127 -58.5 -217.5t-168 -139t-262.5 -48.5zM363 1284v-463h288q329 0 329 231q0 110 -74.5 171t-208.5 61h-334z
M363 159h356q163 0 247 65t84 190q0 252 -348 252h-339v-507z" />
    <glyph glyph-name="C" unicode="C" horiz-adv-x="1466" 
d="M764 -34q-147 0 -264.5 52.5t-201 151t-127.5 238t-44 313.5q0 175 44 314.5t127 238t200.5 151t264.5 52.5q114 0 213 -34t177 -96.5t128 -148.5t66 -190h-183q-24 93 -81 161t-138.5 105t-181.5 37q-138 0 -239.5 -72t-156.5 -204.5t-55 -313.5t55 -313t156.5 -204
t240.5 -72q101 0 183 32.5t138 93t79 144.5h183q-24 -132 -104 -230t-203 -152t-276 -54z" />
    <glyph glyph-name="D" unicode="D" horiz-adv-x="1488" 
d="M183 1443h495q214 0 366.5 -85.5t233.5 -247t81 -388.5t-81 -389t-233 -247.5t-367 -85.5h-495v1443zM363 1281v-1119h303q161 0 275 66t174 191t60 301t-60.5 302t-174.5 192.5t-274 66.5h-303z" />
    <glyph glyph-name="E" unicode="E" horiz-adv-x="1220" 
d="M1077 162v-162h-894v1443h894v-162h-714v-463h677v-160h-677v-496h714z" />
    <glyph glyph-name="F" unicode="F" horiz-adv-x="1172" 
d="M363 0h-180v1443h876v-162h-696v-496h639v-160h-639v-625z" />
    <glyph glyph-name="G" unicode="G" horiz-adv-x="1529" 
d="M1394 558q0 -134 -43.5 -242.5t-124.5 -187t-194 -120.5t-251 -42q-150 0 -270.5 53t-206 152t-131.5 238.5t-46 312.5q0 171 46.5 310t132.5 238.5t206.5 153t268.5 53.5q160 0 287 -56.5t209 -160.5t108 -247h-183q-47 146 -154 222t-267 76q-107 0 -193.5 -41.5
t-148 -118.5t-94.5 -185.5t-33 -243.5q0 -182 57 -314.5t162.5 -204t250.5 -71.5q129 0 226.5 51.5t152 143.5t54.5 214v35h-406v158h585v-176z" />
    <glyph glyph-name="H" unicode="H" horiz-adv-x="1520" 
d="M1335 0h-180v657h-792v-657h-180v1443h180v-624h792v624h180v-1443z" />
    <glyph glyph-name="I" unicode="I" horiz-adv-x="548" 
d="M363 0h-180v1443h180v-1443z" />
    <glyph glyph-name="J" unicode="J" horiz-adv-x="1102" 
d="M85 337h179q2 -61 31.5 -107t81 -72t119.5 -26q115 0 178 69t63 202v1040h180v-1041q0 -138 -50.5 -235.5t-145 -149t-224.5 -51.5q-121 0 -214 46.5t-145.5 130t-52.5 194.5z" />
    <glyph glyph-name="uni212A" unicode="&#x212a;" horiz-adv-x="1349" 
d="M363 0h-180v1443h180v-701h16l632 701h226l-577 -623l630 -820h-233l-521 695l-173 -191v-504z" />
    <glyph glyph-name="uni212A" unicode="K" horiz-adv-x="1349" 
d="M363 0h-180v1443h180v-701h16l632 701h226l-577 -623l630 -820h-233l-521 695l-173 -191v-504z" />
    <glyph glyph-name="L" unicode="L" horiz-adv-x="1163" 
d="M1059 162v-162h-876v1443h180v-1281h696z" />
    <glyph glyph-name="M" unicode="M" horiz-adv-x="1790" 
d="M1605 0h-168v1102h-12l-455 -1102h-152l-455 1102h-12v-1102h-168v1443h209l494 -1204h16l494 1204h209v-1443z" />
    <glyph glyph-name="N" unicode="N" horiz-adv-x="1520" 
d="M361 0h-178v1443h175l783 -1123h16v1123h178v-1443h-175l-783 1119h-16v-1119z" />
    <glyph glyph-name="O" unicode="O" horiz-adv-x="1580" 
d="M789 1477q154 0 276.5 -52.5t208.5 -151.5t131.5 -238t45.5 -313q0 -173 -45.5 -312.5t-131 -238.5t-208.5 -152t-277 -53q-155 0 -278 53t-208.5 152t-130.5 238.5t-45 312.5q0 174 46 313.5t132 238t208.5 151t275.5 52.5zM789 1311q-147 0 -254 -72t-165 -204.5
t-58 -312.5q0 -179 56.5 -311.5t163.5 -205.5t257 -73q148 0 255 73t164.5 205.5t57.5 311.5q0 180 -58 312.5t-164.5 204.5t-254.5 72z" />
    <glyph glyph-name="P" unicode="P" horiz-adv-x="1301" 
d="M183 1443h545q102 0 187 -34t146.5 -96.5t95 -148t33.5 -188.5q0 -101 -34 -185.5t-96.5 -146t-147 -95.5t-186.5 -34h-363v-515h-180v1443zM363 1283v-608h318q154 0 239 79t85 222q0 148 -83.5 227.5t-240.5 79.5h-318z" />
    <glyph glyph-name="Q" unicode="Q" horiz-adv-x="1579" 
d="M790 -34q-154 0 -276.5 52t-209 150t-132 238t-45.5 315t46 314.5t132.5 238t209 151t275.5 52.5q152 0 274 -52.5t208 -151t132 -238.5t46 -314q0 -215 -66.5 -378t-189.5 -252l183 -254h-202l-127 173q-117 -44 -258 -44zM791 132q81 0 154 22l-191 259h204l131 -174
q85 67 130.5 192t45.5 290q0 181 -58 313.5t-164.5 204.5t-252.5 72q-147 0 -254 -72t-165.5 -204.5t-58.5 -313.5q0 -182 58 -314t165.5 -203.5t255.5 -71.5z" />
    <glyph glyph-name="R" unicode="R" horiz-adv-x="1338" 
d="M363 1283v-552h355q139 0 214.5 71.5t75.5 204.5q0 130 -79.5 203t-218.5 73h-347zM363 571v-571h-180v1443h551q139 0 242.5 -53.5t160.5 -150t57 -226.5q0 -101 -35 -184t-99.5 -142t-155.5 -88l334 -599h-211l-309 571v0h-355z" />
    <glyph glyph-name="S" unicode="S" horiz-adv-x="1305" 
d="M114 377h182q11 -75 60 -130.5t129 -86t182 -30.5q97 0 173 32t120 88t44 128q0 92 -70 153t-219 98l-185 48q-196 49 -285 142t-89 247q0 92 36.5 167.5t104 130t161.5 84t208 29.5q105 0 194 -29.5t156 -83t106.5 -126.5t45.5 -160h-181q-19 111 -105.5 173.5
t-221.5 62.5q-96 0 -167.5 -30t-111.5 -84.5t-40 -127.5q0 -85 64.5 -138t213.5 -91l151 -40q149 -37 241.5 -90.5t135 -130t42.5 -182.5q0 -132 -66 -229.5t-187 -151t-286 -53.5q-153 0 -270.5 51t-187 143t-78.5 217z" />
    <glyph glyph-name="T" unicode="T" horiz-adv-x="1298" 
d="M738 0h-180v1281h-465v162h1110v-162h-465v-1281z" />
    <glyph glyph-name="U" unicode="U" horiz-adv-x="1510" 
d="M361 1443v-935q0 -109 46 -194t134 -133.5t213 -48.5t213 48.5t134 133.5t46 194v935h180v-947q0 -116 -39 -212.5t-113 -168t-180.5 -110.5t-240.5 -39t-240.5 39t-180.5 110.5t-113 168t-39 212.5v947h180z" />
    <glyph glyph-name="V" unicode="V" horiz-adv-x="1380" 
d="M778 0h-178l-532 1443h189l424 -1210h16l424 1210h189z" />
    <glyph glyph-name="W" unicode="W" horiz-adv-x="1982" 
d="M984 1139l-332 -1139h-170l-393 1443h188l287 -1173h12l323 1173h182l323 -1173h12l287 1173h188l-393 -1443h-170l-332 1139h-12z" />
    <glyph glyph-name="X" unicode="X" horiz-adv-x="1390" 
d="M89 0l494 726v0l-488 717h217l380 -574h16l386 574h205l-500 -725v0l489 -718h-216l-378 569h-16l-385 -569h-204z" />
    <glyph glyph-name="Y" unicode="Y" horiz-adv-x="1344" 
d="M761 0h-180v621l-512 822h205l389 -641h16l389 641h205l-512 -822v-621z" />
    <glyph glyph-name="Z" unicode="Z" horiz-adv-x="1355" 
d="M143 0v128l817 1137v16h-789v162h1022v-128l-813 -1137v-16h830v-162h-1067z" />
    <glyph glyph-name="bracketleft" unicode="[" horiz-adv-x="782" 
d="M267 1506h434v-136h-266v-1541h266v-136h-434v1813z" />
    <glyph glyph-name="backslash" unicode="\" horiz-adv-x="682" 
d="M530 -307l-530 1813h152l530 -1813h-152z" />
    <glyph glyph-name="bracketright" unicode="]" horiz-adv-x="782" 
d="M513 1506v-1813h-434v136h266v1541h-266v136h434z" />
    <glyph glyph-name="asciicircum" unicode="^" horiz-adv-x="940" 
d="M461 1243l-220 -481h-163l292 620h198l292 -620h-163l-220 481h-16z" />
    <glyph glyph-name="underscore" unicode="_" horiz-adv-x="916" 
d="M926 -235h-936v128h936v-128z" />
    <glyph glyph-name="grave" unicode="`" horiz-adv-x="1024" 
d="M551 1228l-231 340h206l177 -340h-152z" />
    <glyph glyph-name="a" unicode="a" horiz-adv-x="1130" 
d="M493 132q88 0 158 35.5t110 96.5t40 138v99l-290 -19q-123 -8 -179.5 -51.5t-56.5 -124.5q0 -55 28.5 -94t78 -59.5t111.5 -20.5zM461 -19q-104 0 -186.5 39t-130 111.5t-47.5 170.5q0 145 102.5 226.5t290.5 92.5l311 19v98q0 100 -61.5 153t-182.5 53q-97 0 -161 -35
t-82 -99h-174q11 86 68 151t148.5 100.5t206.5 35.5q132 0 223.5 -43t139 -123.5t47.5 -192.5v-738h-164v159h-16q-52 -86 -138 -132t-194 -46z" />
    <glyph glyph-name="b" unicode="b" horiz-adv-x="1258" 
d="M697 -19q-112 0 -203.5 50.5t-142.5 140.5h-16v-172h-164v1506h172v-598h16q30 58 81 100.5t117 65.5t140 23q103 0 186 -39.5t142.5 -112.5t91.5 -176t32 -230q0 -126 -32 -229t-91.5 -176.5t-143 -113t-185.5 -39.5zM657 942q-98 0 -169.5 -49t-110 -139t-38.5 -215
t38.5 -215t110 -139t169.5 -49t168.5 48t108 138.5t37.5 216.5t-37.5 216.5t-108 138.5t-168.5 48z" />
    <glyph glyph-name="c" unicode="c" horiz-adv-x="1146" 
d="M1053 748h-174q-14 54 -50 98t-93 70t-135 26q-97 0 -168 -49t-109.5 -138.5t-38.5 -211.5q0 -125 39 -216t110 -141t167 -50q109 0 181.5 49t96.5 140h174q-16 -99 -73 -177t-153 -122.5t-225 -44.5q-151 0 -262 69t-172 195.5t-61 297.5q0 126 34.5 228t99 175t156 112
t204.5 39q131 0 227 -47.5t153 -126.5t72 -175z" />
    <glyph glyph-name="d" unicode="d" horiz-adv-x="1258" 
d="M560 -19q-138 0 -240 69t-157.5 194.5t-55.5 294.5q0 127 32 229.5t91.5 176t143 113t186.5 39.5q113 0 202.5 -50.5t135.5 -138.5h15v598h172v-1506h-164v172h-16q-51 -90 -142 -140.5t-203 -50.5zM600 942q-98 0 -168.5 -48.5t-108.5 -139t-38 -215.5
q0 -126 37.5 -216.5t108.5 -138.5t169 -48t169 49t109.5 139t38.5 215q0 123 -38.5 213.5t-110 140t-168.5 49.5z" />
    <glyph glyph-name="e" unicode="e" horiz-adv-x="1170" 
d="M591 945q-86 0 -152.5 -39.5t-106 -110.5t-46.5 -167h594q-2 96 -38.5 167t-100.5 110.5t-150 39.5zM875 279h172q-25 -92 -87.5 -159t-155.5 -103t-211 -36q-150 0 -259 68t-168 193.5t-59 295.5q0 127 34 230t98 176.5t153.5 113t200.5 39.5q146 0 250.5 -65.5
t161 -187.5t56.5 -289v-66h-775v-8q5 -107 44 -185t107 -120.5t160 -42.5q104 0 174 37.5t104 108.5z" />
    <glyph glyph-name="f" unicode="f" horiz-adv-x="741" 
d="M233 0v934h-179v144h179v120q0 161 79.5 239.5t233.5 78.5q31 0 60 -2.5t56 -7.5v-140q-16 3 -37 4t-44 1q-93 0 -134.5 -44.5t-41.5 -133.5v-115h247v-144h-247v-934h-172z" />
    <glyph glyph-name="g" unicode="g" horiz-adv-x="1248" 
d="M597 168q100 0 171.5 48t110 135t38.5 204t-38.5 204t-110 135t-171.5 48t-169.5 -48t-106 -135t-36.5 -204t36.5 -204t106 -135t169.5 -48zM605 -414q-130 0 -227 36.5t-154.5 103t-70.5 155.5h182q14 -66 84 -105.5t186 -39.5q145 0 226.5 67.5t81.5 186.5v212h-16
q-51 -89 -139 -137.5t-199 -48.5q-140 0 -241 67.5t-156 189t-55 282.5q0 121 31.5 220.5t90.5 171.5t142.5 111t187.5 39q76 0 143 -23.5t119.5 -66t83.5 -100.5h16v171h164v-1097q0 -121 -59 -209.5t-166.5 -137t-254.5 -48.5z" />
    <glyph glyph-name="h" unicode="h" horiz-adv-x="1216" 
d="M171 0v1506h172v-598h16q40 89 124 139t208 50q114 0 197.5 -47t129 -136.5t45.5 -215.5v-698h-172v656q0 143 -63.5 214.5t-185.5 71.5q-97 0 -163.5 -38t-101 -106.5t-34.5 -159.5v-638h-172z" />
    <glyph glyph-name="i" unicode="i" horiz-adv-x="504" 
d="M165 0v1078h172v-1078h-172zM251 1286q-33 0 -60.5 16t-43.5 43.5t-16 60.5t16 60.5t43.5 43.5t60.5 16t60.5 -16t43.5 -43.5t16 -60.5t-16 -60.5t-43.5 -43.5t-60.5 -16z" />
    <glyph glyph-name="j" unicode="j" horiz-adv-x="504" 
d="M338 1078v-1131q0 -167 -80 -242t-250 -75h-30v147h26q92 0 127 39t35 128v1134h172zM254 1286q-33 0 -60.5 16t-43.5 43.5t-16 60.5t16 60.5t43.5 43.5t60.5 16t60.5 -16t43.5 -43.5t16 -60.5t-16 -60.5t-43.5 -43.5t-60.5 -16z" />
    <glyph glyph-name="k" unicode="k" horiz-adv-x="1112" 
d="M359 607l468 471h211l-464 -462l495 -616h-219l-404 505l-103 -96v-409h-172v1506h172v-899h16z" />
    <glyph glyph-name="l" unicode="l" horiz-adv-x="516" 
d="M171 0v1506h172v-1506h-172z" />
    <glyph glyph-name="m" unicode="m" horiz-adv-x="1782" 
d="M161 0v1078h164v-170h16q37 90 115 139.5t186 49.5q109 0 185 -52.5t113 -136.5h16q43 86 130.5 137.5t199.5 51.5q165 0 254 -91.5t89 -260.5v-745h-172v705q0 237 -227 237q-75 0 -131 -33.5t-87.5 -90t-31.5 -125.5v-693h-172v732q0 64 -28 111t-78.5 73t-118.5 26
q-70 0 -127 -37t-90 -99t-33 -138v-668h-172z" />
    <glyph glyph-name="n" unicode="n" horiz-adv-x="1195" 
d="M161 0v1078h164v-170h16q40 89 120 139t204 50q182 0 279.5 -103.5t97.5 -295.5v-698h-172v656q0 146 -62.5 216t-191.5 70q-86 0 -149.5 -36.5t-98.5 -105t-35 -162.5v-638h-172z" />
    <glyph glyph-name="o" unicode="o" horiz-adv-x="1210" 
d="M604 -19q-153 0 -264.5 67.5t-172 192.5t-60.5 298t60.5 298.5t172 192.5t264.5 67t264.5 -67t172 -192.5t60.5 -298.5t-60.5 -298t-172 -192.5t-264.5 -67.5zM604 136q153 0 236 106t83 297q0 192 -83 297.5t-236 105.5t-236 -105.5t-83 -297.5q0 -191 83 -297t236 -106
z" />
    <glyph glyph-name="p" unicode="p" horiz-adv-x="1248" 
d="M686 1097q137 0 239 -69t158 -194.5t56 -294.5q0 -126 -32 -229t-91.5 -176.5t-143 -113t-186.5 -39.5q-115 0 -204 47.5t-133 133.5h-16v-522h-172v1438h164v-180h16q52 93 143.5 146t201.5 53zM645 136q99 0 169.5 48t108.5 138.5t38 216.5t-37.5 216.5t-108 138.5
t-169.5 48q-97 0 -168.5 -49t-110.5 -139.5t-39 -214.5q0 -123 39 -213.5t110 -140t168 -49.5z" />
    <glyph glyph-name="q" unicode="q" horiz-adv-x="1248" 
d="M558 1097q73 0 140 -24.5t120 -69.5t85 -105h16v180h166v-1438h-174v522h-16q-52 -88 -137.5 -134.5t-199.5 -46.5q-137 0 -238.5 68.5t-157 194t-55.5 295.5q0 127 32 229.5t91.5 176t142.5 113t185 39.5zM597 136q98 0 170 49t110.5 139.5t38.5 214.5q0 123 -39 213.5
t-110.5 140t-168.5 49.5q-98 0 -168 -48t-107.5 -138.5t-37.5 -216.5q0 -127 37 -217t107 -138t168 -48z" />
    <glyph glyph-name="r" unicode="r" horiz-adv-x="780" 
d="M161 0v1078h164v-160h16q16 52 59.5 92.5t106 63.5t133.5 23q21 0 45 -1.5t41 -3.5v-172q-7 2 -27 4.5t-43 4t-40 1.5q-82 0 -146 -34t-100.5 -93t-36.5 -135v-668h-172z" />
    <glyph glyph-name="s" unicode="s" horiz-adv-x="1072" 
d="M136 783q0 67 30.5 124.5t85 100t127.5 66t159 23.5q113 0 200.5 -35.5t141 -100.5t64.5 -153h-170q-17 64 -78 103.5t-159 39.5q-64 0 -115.5 -20.5t-82 -56.5t-30.5 -84q0 -56 46 -92t141 -59l166 -40q152 -37 226.5 -106.5t74.5 -185.5q0 -72 -32.5 -132t-91.5 -103.5
t-137.5 -67t-170.5 -23.5q-120 0 -212 36t-147 102.5t-65 155.5h177q22 -68 85.5 -108.5t167.5 -40.5q72 0 128.5 21.5t88.5 59t32 87.5q0 110 -171 152l-185 45q-151 37 -222.5 106t-71.5 186z" />
    <glyph glyph-name="t" unicode="t" horiz-adv-x="744" 
d="M233 1357h172v-279h240v-144h-240v-610q0 -95 38 -138t122 -43q23 0 39.5 1t40.5 3v-145q-26 -4 -51 -7t-50 -3q-111 0 -179.5 29t-100 92.5t-31.5 166.5v654h-174v144h174v279z" />
    <glyph glyph-name="u" unicode="u" horiz-adv-x="1196" 
d="M1033 1078v-1078h-164v169h-16q-40 -90 -125 -139t-209 -49q-182 0 -275 104t-93 295v698h172v-656q0 -146 57.5 -215t186.5 -69q142 0 218 80t76 222v638h172z" />
    <glyph glyph-name="v" unicode="v" horiz-adv-x="1110" 
d="M1041 1078l-399 -1078h-176l-399 1078h184l295 -888h16l295 888h184z" />
    <glyph glyph-name="w" unicode="w" horiz-adv-x="1586" 
d="M1517 1078l-302 -1078h-175l-241 834h-16l-240 -834h-174l-302 1078h174l212 -862h16l241 862h165l241 -862h16l212 862h173z" />
    <glyph glyph-name="x" unicode="x" horiz-adv-x="1076" 
d="M543 407h-16l-256 -407h-195l369 539l-373 539h205l256 -401h16l253 401h195l-366 -532l371 -546h-204z" />
    <glyph glyph-name="y" unicode="y" horiz-adv-x="1112" 
d="M253 -390q-17 0 -38 1.5t-39 4.5v147q16 -3 35 -4t37 -1q74 0 119 40t79 137l20 64l-399 1079h186l296 -887h16l295 887h183l-421 -1144q-35 -94 -70 -156.5t-77 -99.5t-96 -52.5t-126 -15.5z" />
    <glyph glyph-name="z" unicode="z" horiz-adv-x="1104" 
d="M136 0v126l622 792v16h-621v144h826v-129l-619 -789v-16h622v-144h-830z" />
    <glyph glyph-name="braceleft" unicode="{" horiz-adv-x="782" 
d="M244 588q110 -11 164.5 -68.5t54.5 -165.5v-295q0 -120 46 -172.5t152 -52.5h40v-141h-55q-177 0 -262 84.5t-85 259.5v255q0 80 -20.5 126.5t-69 66.5t-130.5 20v190q82 0 130.5 20t69 66.5t20.5 126.5v254q0 175 85 259.5t262 84.5h55v-141h-40q-106 0 -152 -52.5
t-46 -172.5v-294q0 -108 -54.5 -165.5t-164.5 -68.5v-24z" />
    <glyph glyph-name="bar" unicode="|" horiz-adv-x="682" 
d="M413 -307h-146v1813h146v-1813z" />
    <glyph glyph-name="braceright" unicode="}" horiz-adv-x="782" 
d="M536 588v24q-110 11 -164.5 68.5t-54.5 165.5v294q0 120 -46 172.5t-152 52.5h-40v141h55q177 0 262 -84.5t85 -259.5v-254q0 -80 20.5 -126.5t69 -66.5t130.5 -20v-190q-82 0 -130.5 -20t-69 -66.5t-20.5 -126.5v-255q0 -175 -85 -259.5t-262 -84.5h-55v141h40
q106 0 152 52.5t46 172.5v295q0 108 54.5 165.5t164.5 68.5z" />
    <glyph glyph-name="asciitilde" unicode="~" horiz-adv-x="1328" 
d="M879 380q-53 0 -95 14t-86 45.5t-102 83.5q-49 43 -81 60t-66 17q-61 0 -96 -45t-40 -134h-155q0 91 24.5 155.5t66.5 105t93.5 59.5t105.5 19q53 0 97 -15.5t88 -47t96 -80.5q36 -33 61 -49.5t45.5 -22t41.5 -5.5q125 0 136 179h155q0 -91 -24.5 -155.5t-66 -105
t-93 -59.5t-105.5 -19z" />
    <glyph glyph-name="uni00A0" unicode="&#xa0;" horiz-adv-x="578" 
 />
    <glyph glyph-name="exclamdown" unicode="&#xa1;" horiz-adv-x="637" 
d="M217 -342l17 964h166l17 -964h-200zM318 841q-61 0 -100 39.5t-39 100.5t39 100t100 39t99.5 -39t38.5 -100t-38.5 -100.5t-99.5 -39.5z" />
    <glyph glyph-name="cent" unicode="&#xa2;" horiz-adv-x="1328" 
d="M630 333v778q-79 -15 -137.5 -64.5t-91 -131.5t-32.5 -193q0 -171 71.5 -269t189.5 -120zM988 537h171q-13 -99 -68 -177t-142.5 -126t-198.5 -58v-176h-120v178q-133 14 -231 83t-152.5 186t-54.5 275q0 154 54.5 271.5t152.5 188t231 85.5v175h120v-174q91 -8 163 -41
t123.5 -83.5t82 -113t38.5 -129.5h-170q-17 82 -76.5 140.5t-160.5 72.5v-784q95 11 156.5 64t81.5 143z" />
    <glyph glyph-name="sterling" unicode="&#xa3;" horiz-adv-x="1328" 
d="M403 154h786v-154h-1062v152q66 15 122.5 48.5t98 81t64.5 103.5t23 116q0 40 -7 79t-18 77h-283v136h236q-24 66 -43.5 132.5t-19.5 134.5q0 130 62 223.5t177.5 143.5t277.5 50q92 0 171 -15t129 -38v-160q-25 14 -71.5 26.5t-103.5 20t-116 7.5q-161 0 -251.5 -67.5
t-90.5 -186.5q0 -70 19 -137t43 -134h469v-136h-425q10 -37 16 -74t6 -75q0 -82 -29 -148.5t-76.5 -114.5t-103.5 -77v-14z" />
    <glyph glyph-name="currency" unicode="&#xa4;" horiz-adv-x="1328" 
d="M400 656q0 -54 20.5 -102t57 -84.5t84.5 -57t102 -20.5t102 20.5t84.5 57t57 84.5t20.5 102t-20.5 102t-57 84.5t-84.5 57t-102 20.5t-102 -20.5t-84.5 -57t-57 -84.5t-20.5 -102zM1156 1043l-168 -169q31 -46 49 -101.5t18 -116.5t-18 -116.5t-50 -102.5l169 -169
l-106 -106l-169 169q-46 -31 -101.5 -48.5t-115.5 -17.5q-61 0 -116.5 17.5t-102.5 49.5l-169 -170l-106 106l170 170q-31 47 -49 102.5t-18 115.5t18 115t49 102l-170 170l106 106l169 -169q47 32 102.5 49.5t116.5 17.5t116 -17.5t102 -49.5l168 169z" />
    <glyph glyph-name="yen" unicode="&#xa5;" horiz-adv-x="1328" 
d="M1253 1422l-443 -723h282v-120h-341v-160h341v-120h-341v-299h-176v299h-341v120h341v160h-341v120h282l-443 723h203l384 -658h6l384 658h203z" />
    <glyph glyph-name="brokenbar" unicode="&#xa6;" horiz-adv-x="682" 
d="M413 781h-146v725h146v-725zM413 -307h-146v725h146v-725z" />
    <glyph glyph-name="section" unicode="&#xa7;" horiz-adv-x="1224" 
d="M546 433l83 -18q64 0 116 26.5t82 72.5t30 103q0 68 -45 113.5t-130 64.5l-83 18q-65 0 -118 -27t-84.5 -73t-31.5 -102q0 -65 47.5 -112t133.5 -66zM616 -254q-118 0 -210 39.5t-147.5 110t-61.5 163.5h176q7 -50 41 -87.5t88.5 -58.5t122.5 -21q71 0 125 22.5t84 62.5
t30 93q0 59 -50 100t-158 70l-141 38q-170 46 -248.5 118.5t-78.5 180.5q0 98 62.5 169.5t175.5 103.5v16q-229 89 -229 283q0 97 51.5 171t144.5 115.5t215 41.5q114 0 201.5 -36.5t141.5 -103.5t65 -159h-173q-10 70 -75 111.5t-164 41.5q-70 0 -122.5 -21.5t-82 -60.5
t-29.5 -90q0 -60 48.5 -101t156.5 -70l141 -38q165 -44 241.5 -115.5t76.5 -175.5q0 -71 -33.5 -132t-93 -104t-137.5 -58v-16q264 -59 264 -267q0 -74 -30.5 -135.5t-86.5 -106.5t-132.5 -69.5t-168.5 -24.5z" />
    <glyph glyph-name="dieresis" unicode="&#xa8;" horiz-adv-x="1024" 
d="M294 1286q-33 0 -60 16t-43.5 43.5t-16.5 60.5t16.5 60.5t43.5 43.5t60 16t60 -16t43.5 -43.5t16.5 -60.5t-16.5 -60.5t-43.5 -43.5t-60 -16zM728 1286q-33 0 -60 16t-43.5 43.5t-16.5 60.5t16.5 60.5t43.5 43.5t60 16t60 -16t43.5 -43.5t16.5 -60.5t-16.5 -60.5
t-43.5 -43.5t-60 -16z" />
    <glyph glyph-name="copyright" unicode="&#xa9;" horiz-adv-x="1742" 
d="M870 -168q-134 0 -254 39t-218.5 111t-170.5 170.5t-111 218.5t-39 255t39 255t110.5 218.5t170.5 170.5t218.5 111t254.5 39t255 -39t218.5 -110.5t170 -170t110.5 -219t39 -255.5t-39 -255t-110.5 -218.5t-170.5 -170.5t-218.5 -111t-254.5 -39zM870 -28
q111 0 209.5 32t179.5 91t140 140.5t91 180.5t32 210q0 140 -49 259t-137.5 207.5t-207.5 138t-258 49.5q-111 0 -209.5 -32t-179.5 -91t-140 -140.5t-91 -180.5t-32 -210t32 -210t91 -180t140 -140.5t179.5 -91.5t209.5 -32zM1248 768h-139q-18 71 -78.5 113.5t-143.5 42.5
q-78 0 -134.5 -36t-87.5 -102.5t-31 -157.5q0 -92 31 -159.5t87.5 -104t134.5 -36.5q88 0 146 39.5t76 111.5h139q-13 -84 -61 -146t-125 -95.5t-174 -33.5q-121 0 -210 52t-137.5 147t-48.5 225q0 128 48.5 222.5t137.5 146t209 51.5q96 0 172.5 -35t126 -98t62.5 -147z
" />
    <glyph glyph-name="ordfeminine" unicode="&#xaa;" horiz-adv-x="812" 
d="M359 843q55 0 98.5 20t68.5 55t25 79v60l-181 -12q-77 -5 -113 -30t-36 -71q0 -48 39 -74.5t99 -26.5zM318 721q-73 0 -129.5 26.5t-89 74.5t-32.5 114q0 97 73 152t209 63l202 11v62q0 56 -39 86t-113 30q-62 0 -102 -20.5t-53 -58.5h-148q7 63 48 108.5t108 70.5
t154 25q143 0 220.5 -64t77.5 -177v-491h-149v100h-11q-34 -53 -93 -82.5t-133 -29.5z" />
    <glyph glyph-name="guillemotleft" unicode="&#xab;" horiz-adv-x="1395" 
d="M381 573v-16l351 -412h-204l-350 416v8l350 416h204zM864 573v-16l351 -412h-204l-350 416v8l350 416h204z" />
    <glyph glyph-name="logicalnot" unicode="&#xac;" horiz-adv-x="1328" 
d="M1121 651v-585h-162v423h-754v162h916z" />
    <glyph glyph-name="registered" unicode="&#xae;" horiz-adv-x="1260" 
d="M629 449q-109 0 -204 40t-166.5 111.5t-111.5 166.5t-40 204t40 204t111.5 166.5t166.5 111.5t204 40q110 0 204.5 -40t166 -111.5t111.5 -166.5t40 -204t-40 -204t-111.5 -166.5t-166 -111.5t-204.5 -40zM629 553q88 0 164 32t133 89.5t89 133.5t32 163q0 88 -32 164
t-89 133t-133 89t-164 32q-87 0 -163 -32t-133.5 -89t-89.5 -133t-32 -164q0 -87 32 -163t89.5 -133.5t133.5 -89.5t163 -32zM526 733h-98v499h249q50 0 89.5 -20t62 -54.5t22.5 -78.5q0 -60 -30 -98.5t-86 -51.5l138 -196h-120l-129 183h-98v-183zM526 1143v-143h124
q92 0 92 74q0 69 -89 69h-127z" />
    <glyph glyph-name="macron" unicode="&#xaf;" horiz-adv-x="1024" 
d="M838 1472v-136h-654v136h654z" />
    <glyph glyph-name="degree" unicode="&#xb0;" horiz-adv-x="940" 
d="M469 742q-72 0 -132.5 25.5t-104.5 71t-68.5 105t-24.5 128.5t24.5 128.5t68.5 105t104.5 71t132.5 25.5t132 -25.5t104.5 -71t69 -105t24.5 -128.5t-24.5 -128.5t-69 -105t-104.5 -71t-132 -25.5zM469 882q54 0 94.5 26t63 69t22.5 95q0 53 -22.5 96t-63 68.5
t-94.5 25.5q-55 0 -95.5 -25.5t-62.5 -68.5t-22 -96q0 -52 22 -95t62 -69t96 -26z" />
    <glyph glyph-name="plusminus" unicode="&#xb1;" horiz-adv-x="1328" 
d="M1172 66h-1017v149h1017v-149zM738 628v-295h-149v295h-434v149h434v295h149v-295h434v-149h-434z" />
    <glyph glyph-name="uni00B2" unicode="&#xb2;" horiz-adv-x="819" 
d="M94 1336q0 82 41 145t113.5 98.5t166.5 35.5q90 0 157.5 -32.5t105.5 -88.5t38 -128q0 -50 -18 -94t-61.5 -95t-121.5 -122l-194 -177v-10h408v-135h-626v111l312 296q57 54 87.5 89t42.5 63t12 59q0 56 -40 94.5t-111 38.5q-73 0 -117 -41.5t-44 -106.5h-151z" />
    <glyph glyph-name="uni00B3" unicode="&#xb3;" horiz-adv-x="846" 
d="M308 1114v121h111q69 0 112.5 35.5t43.5 91.5q0 52 -40.5 87.5t-112.5 35.5q-73 0 -117.5 -34t-49.5 -96h-150q4 77 44.5 135.5t112 91.5t169.5 33q96 0 163 -31.5t102 -84.5t34 -115q0 -78 -46.5 -128t-117.5 -68v-11q92 -13 145.5 -67.5t53.5 -142.5
q0 -75 -44.5 -132.5t-121 -90.5t-174.5 -33t-172.5 32.5t-118 91.5t-47.5 138h154q5 -59 54.5 -93t127.5 -34q79 0 128.5 36.5t49.5 97.5q0 62 -48 98t-131 36h-114z" />
    <glyph glyph-name="acute" unicode="&#xb4;" horiz-adv-x="1024" 
d="M472 1228h-152l177 340h206z" />
    <glyph glyph-name="mu" unicode="&#x3bc;" horiz-adv-x="1258" 
d="M161 -360v1438h172v-654q0 -145 61 -215.5t183 -70.5q86 0 150 36.5t99 104t35 161.5v638h172v-809q0 -74 22.5 -101t77.5 -27q12 0 24 1t25 3v-145q-19 -5 -37 -7.5t-45 -2.5q-74 0 -120.5 16t-72.5 53t-36 99l-2 12h-16q-42 -94 -108.5 -141.5t-175.5 -47.5
q-77 0 -133.5 32.5t-86.5 96.5h-16v-470h-172z" />
    <glyph glyph-name="mu" unicode="&#xb5;" horiz-adv-x="1258" 
d="M161 -360v1438h172v-654q0 -145 61 -215.5t183 -70.5q86 0 150 36.5t99 104t35 161.5v638h172v-809q0 -74 22.5 -101t77.5 -27q12 0 24 1t25 3v-145q-19 -5 -37 -7.5t-45 -2.5q-74 0 -120.5 16t-72.5 53t-36 99l-2 12h-16q-42 -94 -108.5 -141.5t-175.5 -47.5
q-77 0 -133.5 32.5t-86.5 96.5h-16v-470h-172z" />
    <glyph glyph-name="paragraph" unicode="&#xb6;" horiz-adv-x="1224" 
d="M727 -220h-160v834h-19q-96 0 -178.5 30.5t-144 85t-96 129.5t-34.5 163q0 92 34.5 169t96.5 133.5t144.5 87.5t178.5 31h178v-1663zM879 -220v1663h160v-1663h-160z" />
    <glyph glyph-name="periodcentered" unicode="&#xb7;" horiz-adv-x="608" 
d="M303 409q-36 0 -65.5 17.5t-47 47.5t-17.5 65q0 36 17.5 65.5t47 47t65.5 17.5t65.5 -17.5t47 -47t17.5 -65.5q0 -35 -17.5 -65t-47 -47.5t-65.5 -17.5z" />
    <glyph glyph-name="cedilla" unicode="&#xb8;" horiz-adv-x="1024" 
d="M381 -240v90l97 172h131v-22l-78 -132q102 0 162.5 -43t60.5 -120q0 -70 -36.5 -112.5t-95.5 -62t-127 -19.5q-35 0 -71.5 5t-73.5 13v116q12 -3 44 -8t69 -5q32 0 61 6t48 21t19 40q0 36 -37.5 48.5t-111.5 12.5h-61z" />
    <glyph glyph-name="uni00B9" unicode="&#xb9;" horiz-adv-x="641" 
d="M312 733v700h-11l-225 -149v153l236 156h160v-860h-160z" />
    <glyph glyph-name="ordmasculine" unicode="&#xba;" horiz-adv-x="864" 
d="M431 719q-111 0 -191 45t-123 128.5t-43 199.5t43 199.5t123.5 128.5t190.5 45t190.5 -45t123.5 -128.5t43 -199.5t-43 -200t-123 -128.5t-191 -44.5zM431 848q95 0 146.5 64t51.5 180t-52 180t-146 64t-146 -64t-52 -180t51.5 -180t146.5 -64z" />
    <glyph glyph-name="guillemotright" unicode="&#xbb;" horiz-adv-x="1395" 
d="M529 573l-351 412h204l350 -416v-8l-350 -416h-204l351 412v16zM1012 573l-351 412h204l350 -416v-8l-350 -416h-204l351 412v16z" />
    <glyph glyph-name="onequarter" unicode="&#xbc;" horiz-adv-x="1885" 
d="M312 583v700h-11l-225 -149v153l236 156h160v-860h-160zM485 0h-163l997 1443h163zM1535 0v162h-442v132q88 146 182 289.5t186 276.5h228v-564h122v-134h-122v-162h-154zM1243 301v-9h294v439h-9q-70 -99 -144.5 -211t-140.5 -219z" />
    <glyph glyph-name="onehalf" unicode="&#xbd;" horiz-adv-x="1952" 
d="M312 583v700h-11l-225 -149v153l236 156h160v-860h-160zM485 0h-163l997 1443h163zM1227 603q0 82 41 145t113 98.5t167 35.5q89 0 157 -32t106 -88.5t38 -128.5q0 -50 -18 -94t-62 -95.5t-121 -121.5l-194 -177v-10h408v-135h-626v111l312 296q57 54 87.5 89t42.5 62.5
t12 59.5q0 56 -40 94.5t-111 38.5q-74 0 -117.5 -41.5t-43.5 -106.5h-151z" />
    <glyph glyph-name="threequarters" unicode="&#xbe;" horiz-adv-x="2090" 
d="M308 964v121h111q69 0 112.5 35.5t43.5 91.5q0 52 -40.5 87.5t-112.5 35.5q-73 0 -117.5 -34t-49.5 -96h-150q4 77 44.5 135.5t112 91.5t169.5 33q96 0 163 -31.5t102 -84.5t34 -115q0 -78 -46.5 -128t-117.5 -68v-11q92 -13 145.5 -67.5t53.5 -142.5q0 -75 -44.5 -132.5
t-121 -90.5t-174.5 -33t-172.5 32.5t-118 91.5t-47.5 138h154q5 -59 54.5 -93t127.5 -34q79 0 128.5 36.5t49.5 97.5q0 62 -48 98t-131 36h-114zM690 0h-163l997 1443h163zM1740 0v162h-442v132q88 146 182.5 289.5t185.5 276.5h228v-564h122v-134h-122v-162h-154zM1448 301
v-9h294v439h-9q-70 -99 -144.5 -211t-140.5 -219z" />
    <glyph glyph-name="questiondown" unicode="&#xbf;" horiz-adv-x="1050" 
d="M969 35q-5 -109 -55 -197t-145.5 -140t-234.5 -52q-95 0 -173 27.5t-134.5 76.5t-87 115.5t-30.5 144.5q0 116 57 200.5t152 142.5q63 38 98.5 72t49.5 72.5t14 91.5v65h175v-92q2 -99 -47 -170.5t-152 -133.5q-57 -36 -92.5 -70.5t-52 -75t-16.5 -93.5q0 -63 30 -112
t85.5 -77t130.5 -28q112 0 180.5 62.5t76.5 170.5h171zM556 840q-61 0 -100 39t-39 100q0 60 39 100t100 40t99.5 -40t38.5 -100q0 -61 -38.5 -100t-99.5 -39z" />
    <glyph glyph-name="Agrave" unicode="&#xc0;" horiz-adv-x="1380" 
d="M1121 0l-145 413h-574l-145 -413h-189l532 1443h178l532 -1443h-189zM681 1210l-226 -644h468l-226 644h-16zM606 1575l-241 298h216l177 -298h-152z" />
    <glyph glyph-name="Aacute" unicode="&#xc1;" horiz-adv-x="1380" 
d="M1121 0l-145 413h-574l-145 -413h-189l532 1443h178l532 -1443h-189zM681 1210l-226 -644h468l-226 644h-16zM772 1575h-152l177 298h216z" />
    <glyph glyph-name="Acircumflex" unicode="&#xc2;" horiz-adv-x="1380" 
d="M1121 0l-145 413h-574l-145 -413h-189l532 1443h178l532 -1443h-189zM681 1210l-226 -644h468l-226 644h-16zM607 1873h164l300 -298h-202l-172 177h-16l-172 -177h-202z" />
    <glyph glyph-name="Atilde" unicode="&#xc3;" horiz-adv-x="1380" 
d="M1121 0l-145 413h-574l-145 -413h-189l532 1443h178l532 -1443h-189zM681 1210l-226 -644h468l-226 644h-16zM813 1580q-49 0 -81 15t-53.5 37.5t-39 45t-36.5 37.5t-46 15q-36 0 -56 -34.5t-20 -119.5h-142q0 136 57.5 212t163.5 76q48 0 80.5 -16t55.5 -39t41 -46.5
t37.5 -39.5t46.5 -16q40 0 58 37.5t18 122.5h142q0 -137 -58.5 -212t-167.5 -75z" />
    <glyph glyph-name="Adieresis" unicode="&#xc4;" horiz-adv-x="1380" 
d="M1121 0l-145 413h-574l-145 -413h-189l532 1443h178l532 -1443h-189zM681 1210l-226 -644h468l-226 644h-16zM472 1631q-33 0 -60 16t-43.5 43.5t-16.5 60.5t16.5 60t43.5 43.5t60 16.5t60 -16.5t43.5 -43.5t16.5 -60t-16.5 -60.5t-43.5 -43.5t-60 -16zM906 1631
q-33 0 -60 16t-43.5 43.5t-16.5 60.5t16.5 60t43.5 43.5t60 16.5t60 -16.5t43.5 -43.5t16.5 -60t-16.5 -60.5t-43.5 -43.5t-60 -16z" />
    <glyph glyph-name="uni212B" unicode="&#x212b;" horiz-adv-x="1380" 
d="M1121 0l-145 413h-574l-145 -413h-189l532 1443h178l532 -1443h-189zM681 1210l-226 -644h468l-226 644h-16zM689 1551q-55 0 -100 26t-72 70.5t-27 100.5t27 100.5t72 70.5t100 26t100 -26t72 -70.5t27 -100.5t-27 -100.5t-72 -70.5t-100 -26zM689 1643q46 0 75.5 30
t29.5 75q0 46 -29.5 75.5t-75.5 29.5t-75.5 -29.5t-29.5 -75.5q0 -45 29.5 -75t75.5 -30z" />
    <glyph glyph-name="uni212B" unicode="&#xc5;" horiz-adv-x="1380" 
d="M1121 0l-145 413h-574l-145 -413h-189l532 1443h178l532 -1443h-189zM681 1210l-226 -644h468l-226 644h-16zM689 1551q-55 0 -100 26t-72 70.5t-27 100.5t27 100.5t72 70.5t100 26t100 -26t72 -70.5t27 -100.5t-27 -100.5t-72 -70.5t-100 -26zM689 1643q46 0 75.5 30
t29.5 75q0 46 -29.5 75.5t-75.5 29.5t-75.5 -29.5t-29.5 -75.5q0 -45 29.5 -75t75.5 -30z" />
    <glyph glyph-name="AE" unicode="&#xc6;" horiz-adv-x="1966" 
d="M838 1292l-310 -680h457v680h-147zM985 0v459h-527l-209 -459h-181l651 1443h1104v-162h-658v-473h621v-160h-621v-486h658v-162h-838z" />
    <glyph glyph-name="Ccedilla" unicode="&#xc7;" horiz-adv-x="1466" 
d="M1347 1008h-183q-24 93 -81 161t-138.5 105t-181.5 37q-138 0 -239.5 -72t-156.5 -204.5t-55 -313.5t55 -313t156.5 -204t240.5 -72q101 0 183 32.5t138 93t79 144.5h183q-22 -121 -90.5 -213.5t-174 -148.5t-239.5 -70l-60 -102q102 0 162.5 -43t60.5 -120
q0 -70 -36.5 -112.5t-95.5 -62t-127 -19.5q-35 0 -71.5 5t-73.5 13v116q12 -3 44 -8t69 -5q32 0 61 6t48 21t19 40q0 36 -37.5 48.5t-111.5 12.5h-61v90l67 119q-177 15 -305.5 110.5t-198 258.5t-69.5 383q0 175 44 314.5t127 238t200.5 151t264.5 52.5q114 0 213 -34
t177 -96.5t128 -148.5t66 -190z" />
    <glyph glyph-name="Egrave" unicode="&#xc8;" horiz-adv-x="1220" 
d="M1077 162v-162h-894v1443h894v-162h-714v-463h677v-160h-677v-496h714zM547 1575l-241 298h216l177 -298h-152z" />
    <glyph glyph-name="Eacute" unicode="&#xc9;" horiz-adv-x="1220" 
d="M1077 162v-162h-894v1443h894v-162h-714v-463h677v-160h-677v-496h714zM713 1575h-152l177 298h216z" />
    <glyph glyph-name="Ecircumflex" unicode="&#xca;" horiz-adv-x="1220" 
d="M1077 162v-162h-894v1443h894v-162h-714v-463h677v-160h-677v-496h714zM548 1873h164l300 -298h-202l-172 177h-16l-172 -177h-202z" />
    <glyph glyph-name="Edieresis" unicode="&#xcb;" horiz-adv-x="1220" 
d="M1077 162v-162h-894v1443h894v-162h-714v-463h677v-160h-677v-496h714zM413 1631q-33 0 -60.5 16t-43.5 43.5t-16 60.5t16 60t43.5 43.5t60.5 16.5t60.5 -16.5t43.5 -43.5t16 -60t-16 -60.5t-43.5 -43.5t-60.5 -16zM847 1631q-33 0 -60.5 16t-43.5 43.5t-16 60.5t16 60
t43.5 43.5t60.5 16.5t60.5 -16.5t43.5 -43.5t16 -60t-16 -60.5t-43.5 -43.5t-60.5 -16z" />
    <glyph glyph-name="Igrave" unicode="&#xcc;" horiz-adv-x="548" 
d="M364 0h-180v1443h180v-1443zM191 1575l-241 298h216l177 -298h-152z" />
    <glyph glyph-name="Iacute" unicode="&#xcd;" horiz-adv-x="548" 
d="M363 0h-180v1443h180v-1443zM356 1575h-152l177 298h216z" />
    <glyph glyph-name="Icircumflex" unicode="&#xce;" horiz-adv-x="548" 
d="M364 0h-180v1443h180v-1443zM192 1873h164l300 -298h-202l-172 177h-16l-172 -177h-202z" />
    <glyph glyph-name="Idieresis" unicode="&#xcf;" horiz-adv-x="548" 
d="M364 0h-180v1443h180v-1443zM57 1631q-33 0 -60 16t-43.5 43.5t-16.5 60.5t16.5 60t43.5 43.5t60 16.5t60 -16.5t43.5 -43.5t16.5 -60t-16.5 -60.5t-43.5 -43.5t-60 -16zM491 1631q-33 0 -60 16t-43.5 43.5t-16.5 60.5t16.5 60t43.5 43.5t60 16.5t60 -16.5t43.5 -43.5
t16.5 -60t-16.5 -60.5t-43.5 -43.5t-60 -16z" />
    <glyph glyph-name="Eth" unicode="&#xd0;" horiz-adv-x="1488" 
d="M363 162h303q161 0 275 66t174 191t60 301t-60.5 302t-174.5 192.5t-274 66.5h-303v-456h309v-162h-309v-501zM183 1443h495q214 0 366.5 -85.5t233.5 -247t81 -388.5t-81 -389t-233 -247.5t-367 -85.5h-495v663h-158v162h158v618z" />
    <glyph glyph-name="Ntilde" unicode="&#xd1;" horiz-adv-x="1520" 
d="M361 0h-178v1443h175l783 -1123h16v1123h178v-1443h-175l-783 1119h-16v-1119zM883 1580q-49 0 -81 15t-53.5 37.5t-39 45t-36.5 37.5t-46 15q-36 0 -56 -34.5t-20 -119.5h-142q0 136 57.5 212t163.5 76q48 0 80.5 -16t55.5 -39t41 -46.5t37.5 -39.5t46.5 -16
q40 0 58 37.5t18 122.5h142q0 -137 -58.5 -212t-167.5 -75z" />
    <glyph glyph-name="Ograve" unicode="&#xd2;" horiz-adv-x="1580" 
d="M789 1477q154 0 276.5 -52.5t208.5 -151.5t131.5 -238t45.5 -313q0 -173 -45.5 -312.5t-131 -238.5t-208.5 -152t-277 -53q-155 0 -278 53t-208.5 152t-130.5 238.5t-45 312.5q0 174 46 313.5t132 238t208.5 151t275.5 52.5zM789 1311q-147 0 -254 -72t-165 -204.5
t-58 -312.5q0 -179 56.5 -311.5t163.5 -205.5t257 -73q148 0 255 73t164.5 205.5t57.5 311.5q0 180 -58 312.5t-164.5 204.5t-254.5 72zM706 1575l-241 298h216l177 -298h-152z" />
    <glyph glyph-name="Oacute" unicode="&#xd3;" horiz-adv-x="1580" 
d="M789 1477q154 0 276.5 -52.5t208.5 -151.5t131.5 -238t45.5 -313q0 -173 -45.5 -312.5t-131 -238.5t-208.5 -152t-277 -53q-155 0 -278 53t-208.5 152t-130.5 238.5t-45 312.5q0 174 46 313.5t132 238t208.5 151t275.5 52.5zM789 1311q-147 0 -254 -72t-165 -204.5
t-58 -312.5q0 -179 56.5 -311.5t163.5 -205.5t257 -73q148 0 255 73t164.5 205.5t57.5 311.5q0 180 -58 312.5t-164.5 204.5t-254.5 72zM872 1575h-152l177 298h216z" />
    <glyph glyph-name="Ocircumflex" unicode="&#xd4;" horiz-adv-x="1580" 
d="M789 1477q154 0 276.5 -52.5t208.5 -151.5t131.5 -238t45.5 -313q0 -173 -45.5 -312.5t-131 -238.5t-208.5 -152t-277 -53q-155 0 -278 53t-208.5 152t-130.5 238.5t-45 312.5q0 174 46 313.5t132 238t208.5 151t275.5 52.5zM789 1311q-147 0 -254 -72t-165 -204.5
t-58 -312.5q0 -179 56.5 -311.5t163.5 -205.5t257 -73q148 0 255 73t164.5 205.5t57.5 311.5q0 180 -58 312.5t-164.5 204.5t-254.5 72zM707 1873h164l300 -298h-202l-172 177h-16l-172 -177h-202z" />
    <glyph glyph-name="Otilde" unicode="&#xd5;" horiz-adv-x="1580" 
d="M789 1477q154 0 276.5 -52.5t208.5 -151.5t131.5 -238t45.5 -313q0 -173 -45.5 -312.5t-131 -238.5t-208.5 -152t-277 -53q-155 0 -278 53t-208.5 152t-130.5 238.5t-45 312.5q0 174 46 313.5t132 238t208.5 151t275.5 52.5zM789 1311q-147 0 -254 -72t-165 -204.5
t-58 -312.5q0 -179 56.5 -311.5t163.5 -205.5t257 -73q148 0 255 73t164.5 205.5t57.5 311.5q0 180 -58 312.5t-164.5 204.5t-254.5 72zM913 1580q-49 0 -81 15t-53.5 37.5t-39 45t-36.5 37.5t-46 15q-36 0 -56 -34.5t-20 -119.5h-142q0 136 57.5 212t163.5 76
q48 0 80.5 -16t55.5 -39t41 -46.5t37.5 -39.5t46.5 -16q40 0 58 37.5t18 122.5h142q0 -137 -58.5 -212t-167.5 -75z" />
    <glyph glyph-name="Odieresis" unicode="&#xd6;" horiz-adv-x="1580" 
d="M789 1477q154 0 276.5 -52.5t208.5 -151.5t131.5 -238t45.5 -313q0 -173 -45.5 -312.5t-131 -238.5t-208.5 -152t-277 -53q-155 0 -278 53t-208.5 152t-130.5 238.5t-45 312.5q0 174 46 313.5t132 238t208.5 151t275.5 52.5zM789 1311q-147 0 -254 -72t-165 -204.5
t-58 -312.5q0 -179 56.5 -311.5t163.5 -205.5t257 -73q148 0 255 73t164.5 205.5t57.5 311.5q0 180 -58 312.5t-164.5 204.5t-254.5 72zM572 1631q-33 0 -60 16t-43.5 43.5t-16.5 60.5t16.5 60t43.5 43.5t60 16.5t60 -16.5t43.5 -43.5t16.5 -60t-16.5 -60.5t-43.5 -43.5
t-60 -16zM1006 1631q-33 0 -60 16t-43.5 43.5t-16.5 60.5t16.5 60t43.5 43.5t60 16.5t60 -16.5t43.5 -43.5t16.5 -60t-16.5 -60.5t-43.5 -43.5t-60 -16z" />
    <glyph glyph-name="multiply" unicode="&#xd7;" horiz-adv-x="1328" 
d="M663 464l-342 -342l-104 104l341 343l-341 343l104 104l342 -342l342 342l104 -104l-341 -343l341 -343l-104 -104z" />
    <glyph glyph-name="Oslash" unicode="&#xd8;" horiz-adv-x="1580" 
d="M1193 1086l-728 -837q61 -60 142.5 -92.5t181.5 -32.5q151 0 260 74t167.5 208t58.5 316q0 108 -21 200t-61 164zM385 357l728 837q-62 61 -143.5 93.5t-180.5 32.5q-150 0 -259 -73t-168 -207.5t-59 -317.5q0 -218 82 -365zM1432 1361l-119 -137q67 -96 102.5 -222.5
t35.5 -279.5q0 -172 -45.5 -311.5t-131 -239t-208.5 -152.5t-277 -53q-134 0 -244 40t-192 114l-113 -130l-94 92l119 137q-68 96 -103 223t-35 280q0 174 46 313.5t132 238t208.5 151t275.5 52.5q133 0 243 -40t193 -114l113 130z" />
    <glyph glyph-name="Ugrave" unicode="&#xd9;" horiz-adv-x="1510" 
d="M361 1443v-935q0 -109 46 -194t134 -133.5t213 -48.5t213 48.5t134 133.5t46 194v935h180v-947q0 -116 -39 -212.5t-113 -168t-180.5 -110.5t-240.5 -39t-240.5 39t-180.5 110.5t-113 168t-39 212.5v947h180zM671 1575l-241 298h216l177 -298h-152z" />
    <glyph glyph-name="Uacute" unicode="&#xda;" horiz-adv-x="1510" 
d="M361 1443v-935q0 -109 46 -194t134 -133.5t213 -48.5t213 48.5t134 133.5t46 194v935h180v-947q0 -116 -39 -212.5t-113 -168t-180.5 -110.5t-240.5 -39t-240.5 39t-180.5 110.5t-113 168t-39 212.5v947h180zM837 1575h-152l177 298h216z" />
    <glyph glyph-name="Ucircumflex" unicode="&#xdb;" horiz-adv-x="1510" 
d="M361 1443v-935q0 -109 46 -194t134 -133.5t213 -48.5t213 48.5t134 133.5t46 194v935h180v-947q0 -116 -39 -212.5t-113 -168t-180.5 -110.5t-240.5 -39t-240.5 39t-180.5 110.5t-113 168t-39 212.5v947h180zM672 1873h164l300 -298h-202l-172 177h-16l-172 -177h-202z
" />
    <glyph glyph-name="Udieresis" unicode="&#xdc;" horiz-adv-x="1510" 
d="M361 1443v-935q0 -109 46 -194t134 -133.5t213 -48.5t213 48.5t134 133.5t46 194v935h180v-947q0 -116 -39 -212.5t-113 -168t-180.5 -110.5t-240.5 -39t-240.5 39t-180.5 110.5t-113 168t-39 212.5v947h180zM537 1631q-33 0 -60.5 16t-43.5 43.5t-16 60.5t16 60
t43.5 43.5t60.5 16.5t60.5 -16.5t43.5 -43.5t16 -60t-16 -60.5t-43.5 -43.5t-60.5 -16zM971 1631q-33 0 -60.5 16t-43.5 43.5t-16 60.5t16 60t43.5 43.5t60.5 16.5t60.5 -16.5t43.5 -43.5t16 -60t-16 -60.5t-43.5 -43.5t-60.5 -16z" />
    <glyph glyph-name="Yacute" unicode="&#xdd;" horiz-adv-x="1344" 
d="M761 0h-180v621l-512 822h205l389 -641h16l389 641h205l-512 -822v-621zM754 1575h-152l177 298h216z" />
    <glyph glyph-name="Thorn" unicode="&#xde;" horiz-adv-x="1280" 
d="M183 1443h180v-266h373q83 0 158.5 -27.5t135 -81t94 -130.5t34.5 -176t-35 -176.5t-94.5 -131t-135.5 -81.5t-159 -28h-371v-345h-180v1443zM363 1017v-512h322q83 0 148 28.5t102.5 85.5t37.5 143t-37.5 142.5t-102.5 84.5t-148 28h-322z" />
    <glyph glyph-name="germandbls" unicode="&#xdf;" horiz-adv-x="1274" 
d="M395 0h-171v1101q0 123 53 211.5t147.5 136t218.5 47.5q92 0 168 -27.5t131 -77.5t85.5 -118.5t30.5 -151.5t-30.5 -151t-82.5 -115.5t-116 -67.5v-18q101 -10 176.5 -54t117.5 -121.5t42 -186.5q0 -89 -32.5 -165.5t-92.5 -134t-143.5 -89.5t-186.5 -32q-83 0 -144 13
v153q26 -6 61.5 -10t70.5 -4q95 0 161 35t100.5 96t34.5 140q0 124 -88.5 196.5t-251.5 72.5h-61v170h51q111 0 178 67.5t67 196.5q0 64 -29 117t-83.5 84t-130.5 31q-117 0 -184 -68.5t-67 -191.5v-1084z" />
    <glyph glyph-name="agrave" unicode="&#xe0;" horiz-adv-x="1130" 
d="M493 132q88 0 158 35.5t110 96.5t40 138v99l-290 -19q-123 -8 -179.5 -51.5t-56.5 -124.5q0 -55 28.5 -94t78 -59.5t111.5 -20.5zM461 -19q-104 0 -186.5 39t-130 111.5t-47.5 170.5q0 145 102.5 226.5t290.5 92.5l311 19v98q0 100 -61.5 153t-182.5 53q-97 0 -161 -35
t-82 -99h-174q11 86 68 151t148.5 100.5t206.5 35.5q132 0 223.5 -43t139 -123.5t47.5 -192.5v-738h-164v159h-16q-52 -86 -138 -132t-194 -46zM485 1228l-231 340h206l177 -340h-152z" />
    <glyph glyph-name="aacute" unicode="&#xe1;" horiz-adv-x="1130" 
d="M493 132q88 0 158 35.5t110 96.5t40 138v99l-290 -19q-123 -8 -179.5 -51.5t-56.5 -124.5q0 -55 28.5 -94t78 -59.5t111.5 -20.5zM461 -19q-104 0 -186.5 39t-130 111.5t-47.5 170.5q0 145 102.5 226.5t290.5 92.5l311 19v98q0 100 -61.5 153t-182.5 53q-97 0 -161 -35
t-82 -99h-174q11 86 68 151t148.5 100.5t206.5 35.5q132 0 223.5 -43t139 -123.5t47.5 -192.5v-738h-164v159h-16q-52 -86 -138 -132t-194 -46zM641 1228h-152l177 340h206z" />
    <glyph glyph-name="acircumflex" unicode="&#xe2;" horiz-adv-x="1130" 
d="M493 132q88 0 158 35.5t110 96.5t40 138v99l-290 -19q-123 -8 -179.5 -51.5t-56.5 -124.5q0 -55 28.5 -94t78 -59.5t111.5 -20.5zM461 -19q-104 0 -186.5 39t-130 111.5t-47.5 170.5q0 145 102.5 226.5t290.5 92.5l311 19v98q0 100 -61.5 153t-182.5 53q-97 0 -161 -35
t-82 -99h-174q11 86 68 151t148.5 100.5t206.5 35.5q132 0 223.5 -43t139 -123.5t47.5 -192.5v-738h-164v159h-16q-52 -86 -138 -132t-194 -46zM664 1568l242 -340h-188l-147 227h-16l-147 -227h-188l242 340h202z" />
    <glyph glyph-name="atilde" unicode="&#xe3;" horiz-adv-x="1130" 
d="M493 132q88 0 158 35.5t110 96.5t40 138v99l-290 -19q-123 -8 -179.5 -51.5t-56.5 -124.5q0 -55 28.5 -94t78 -59.5t111.5 -20.5zM461 -19q-104 0 -186.5 39t-130 111.5t-47.5 170.5q0 145 102.5 226.5t290.5 92.5l311 19v98q0 100 -61.5 153t-182.5 53q-97 0 -161 -35
t-82 -99h-174q11 86 68 151t148.5 100.5t206.5 35.5q132 0 223.5 -43t139 -123.5t47.5 -192.5v-738h-164v159h-16q-52 -86 -138 -132t-194 -46zM687 1235q-49 0 -81 15t-53.5 37.5t-39 45t-36.5 37.5t-46 15q-36 0 -56 -34.5t-20 -119.5h-142q0 137 57.5 212.5t163.5 75.5
q48 0 80.5 -16t55.5 -39.5t41 -46.5t37.5 -39t46.5 -16q40 0 58 37.5t18 122.5h142q0 -136 -58.5 -211.5t-167.5 -75.5z" />
    <glyph glyph-name="adieresis" unicode="&#xe4;" horiz-adv-x="1130" 
d="M493 132q88 0 158 35.5t110 96.5t40 138v99l-290 -19q-123 -8 -179.5 -51.5t-56.5 -124.5q0 -55 28.5 -94t78 -59.5t111.5 -20.5zM461 -19q-104 0 -186.5 39t-130 111.5t-47.5 170.5q0 145 102.5 226.5t290.5 92.5l311 19v98q0 100 -61.5 153t-182.5 53q-97 0 -161 -35
t-82 -99h-174q11 86 68 151t148.5 100.5t206.5 35.5q132 0 223.5 -43t139 -123.5t47.5 -192.5v-738h-164v159h-16q-52 -86 -138 -132t-194 -46zM346 1286q-33 0 -60 16t-43.5 43.5t-16.5 60.5t16.5 60.5t43.5 43.5t60 16t60 -16t43.5 -43.5t16.5 -60.5t-16.5 -60.5
t-43.5 -43.5t-60 -16zM780 1286q-33 0 -60 16t-43.5 43.5t-16.5 60.5t16.5 60.5t43.5 43.5t60 16t60 -16t43.5 -43.5t16.5 -60.5t-16.5 -60.5t-43.5 -43.5t-60 -16z" />
    <glyph glyph-name="aring" unicode="&#xe5;" horiz-adv-x="1130" 
d="M493 132q88 0 158 35.5t110 96.5t40 138v99l-290 -19q-123 -8 -179.5 -51.5t-56.5 -124.5q0 -55 28.5 -94t78 -59.5t111.5 -20.5zM461 -19q-104 0 -186.5 39t-130 111.5t-47.5 170.5q0 145 102.5 226.5t290.5 92.5l311 19v98q0 100 -61.5 153t-182.5 53q-97 0 -161 -35
t-82 -99h-174q11 86 68 151t148.5 100.5t206.5 35.5q132 0 223.5 -43t139 -123.5t47.5 -192.5v-738h-164v159h-16q-52 -86 -138 -132t-194 -46zM563 1228q-64 0 -116.5 30.5t-84 82t-31.5 116.5t31.5 116.5t84 82t116.5 30.5t116.5 -30.5t84 -82t31.5 -116.5t-31.5 -116.5
t-84 -82t-116.5 -30.5zM563 1334q52 0 87 35t35 88t-35 88t-87 35t-87 -35t-35 -88t35 -88t87 -35z" />
    <glyph glyph-name="ae" unicode="&#xe6;" horiz-adv-x="1849" 
d="M1286 -19q-87 0 -164 30t-135 82t-87 119h-16q-53 -108 -157.5 -169.5t-248.5 -61.5q-113 0 -199 39t-134 111.5t-48 170.5q0 145 102.5 226.5t290.5 92.5l311 19v98q0 100 -61.5 153t-182.5 53q-97 0 -161 -35t-82 -99h-174q11 86 68 151t148 100.5t207 35.5
q128 0 217.5 -52.5t130.5 -132.5h16q32 53 86 95t124 66t147 24q143 0 245 -63.5t156.5 -181.5t54.5 -284v-68h-768v-18q5 -106 45.5 -184t110 -121t162.5 -43q101 0 165 35.5t99 109.5h172q-41 -143 -155.5 -220.5t-284.5 -77.5zM1275 946q-87 0 -153 -37.5t-104.5 -106
t-45.5 -163.5h587q-2 90 -39 159.5t-100.5 108.5t-144.5 39zM503 132q86 0 153.5 37.5t106 100.5t38.5 140v91l-290 -19q-123 -8 -179.5 -51.5t-56.5 -124.5q0 -55 29 -94t80 -59.5t119 -20.5z" />
    <glyph glyph-name="ccedilla" unicode="&#xe7;" horiz-adv-x="1146" 
d="M1053 748h-174q-14 54 -50 98t-93 70t-135 26q-97 0 -168 -49t-109.5 -138.5t-38.5 -211.5q0 -125 39 -216t110 -141t167 -50q109 0 181.5 49t96.5 140h174q-14 -87 -60 -158t-122 -118t-178 -62l-71 -119q102 0 162.5 -43t60.5 -120q0 -70 -36.5 -112.5t-95.5 -62
t-127 -19.5q-35 0 -71.5 5t-73.5 13v116q12 -3 44 -8t69 -5q31 0 60.5 6t48.5 21t19 40q0 36 -37.5 48.5t-111.5 12.5h-61v90l75 133q-135 13 -233.5 85t-152.5 193t-54 282q0 126 34.5 228t99 175t156 112t204.5 39q131 0 227 -47.5t153 -126.5t72 -175z" />
    <glyph glyph-name="egrave" unicode="&#xe8;" horiz-adv-x="1170" 
d="M591 945q-86 0 -152.5 -39.5t-106 -110.5t-46.5 -167h594q-2 96 -38.5 167t-100.5 110.5t-150 39.5zM875 279h172q-25 -92 -87.5 -159t-155.5 -103t-211 -36q-150 0 -259 68t-168 193.5t-59 295.5q0 127 34 230t98 176.5t153.5 113t200.5 39.5q146 0 250.5 -65.5
t161 -187.5t56.5 -289v-66h-775v-8q5 -107 44 -185t107 -120.5t160 -42.5q104 0 174 37.5t104 108.5zM515 1228l-231 340h206l177 -340h-152z" />
    <glyph glyph-name="eacute" unicode="&#xe9;" horiz-adv-x="1170" 
d="M591 945q-86 0 -152.5 -39.5t-106 -110.5t-46.5 -167h594q-2 96 -38.5 167t-100.5 110.5t-150 39.5zM875 279h172q-25 -92 -87.5 -159t-155.5 -103t-211 -36q-150 0 -259 68t-168 193.5t-59 295.5q0 127 34 230t98 176.5t153.5 113t200.5 39.5q146 0 250.5 -65.5
t161 -187.5t56.5 -289v-66h-775v-8q5 -107 44 -185t107 -120.5t160 -42.5q104 0 174 37.5t104 108.5zM671 1228h-152l177 340h206z" />
    <glyph glyph-name="ecircumflex" unicode="&#xea;" horiz-adv-x="1170" 
d="M591 945q-86 0 -152.5 -39.5t-106 -110.5t-46.5 -167h594q-2 96 -38.5 167t-100.5 110.5t-150 39.5zM875 279h172q-25 -92 -87.5 -159t-155.5 -103t-211 -36q-150 0 -259 68t-168 193.5t-59 295.5q0 127 34 230t98 176.5t153.5 113t200.5 39.5q146 0 250.5 -65.5
t161 -187.5t56.5 -289v-66h-775v-8q5 -107 44 -185t107 -120.5t160 -42.5q104 0 174 37.5t104 108.5zM694 1568l242 -340h-188l-147 227h-16l-147 -227h-188l242 340h202z" />
    <glyph glyph-name="edieresis" unicode="&#xeb;" horiz-adv-x="1170" 
d="M591 945q-86 0 -152.5 -39.5t-106 -110.5t-46.5 -167h594q-2 96 -38.5 167t-100.5 110.5t-150 39.5zM875 279h172q-25 -92 -87.5 -159t-155.5 -103t-211 -36q-150 0 -259 68t-168 193.5t-59 295.5q0 127 34 230t98 176.5t153.5 113t200.5 39.5q146 0 250.5 -65.5
t161 -187.5t56.5 -289v-66h-775v-8q5 -107 44 -185t107 -120.5t160 -42.5q104 0 174 37.5t104 108.5zM376 1286q-33 0 -60 16t-43.5 43.5t-16.5 60.5t16.5 60.5t43.5 43.5t60 16t60 -16t43.5 -43.5t16.5 -60.5t-16.5 -60.5t-43.5 -43.5t-60 -16zM810 1286q-33 0 -60 16
t-43.5 43.5t-16.5 60.5t16.5 60.5t43.5 43.5t60 16t60 -16t43.5 -43.5t16.5 -60.5t-16.5 -60.5t-43.5 -43.5t-60 -16z" />
    <glyph glyph-name="igrave" unicode="&#xec;" horiz-adv-x="504" 
d="M166 0v1078h172v-1078h-172zM174 1228l-231 340h206l177 -340h-152z" />
    <glyph glyph-name="iacute" unicode="&#xed;" horiz-adv-x="504" 
d="M165 0v1078h172v-1078h-172zM329 1228h-152l177 340h206z" />
    <glyph glyph-name="icircumflex" unicode="&#xee;" horiz-adv-x="504" 
d="M166 0v1078h172v-1078h-172zM353 1568l242 -340h-188l-147 227h-16l-147 -227h-188l242 340h202z" />
    <glyph glyph-name="idieresis" unicode="&#xef;" horiz-adv-x="504" 
d="M166 0v1078h172v-1078h-172zM35 1286q-33 0 -60 16t-43.5 43.5t-16.5 60.5t16.5 60.5t43.5 43.5t60 16t60 -16t43.5 -43.5t16.5 -60.5t-16.5 -60.5t-43.5 -43.5t-60 -16zM469 1286q-33 0 -60 16t-43.5 43.5t-16.5 60.5t16.5 60.5t43.5 43.5t60 16t60 -16t43.5 -43.5
t16.5 -60.5t-16.5 -60.5t-43.5 -43.5t-60 -16z" />
    <glyph glyph-name="eth" unicode="&#xf0;" horiz-adv-x="1192" 
d="M600 132q97 0 169 47.5t111.5 132t39.5 197.5q0 117 -40 204.5t-111.5 136t-168.5 48.5t-168.5 -48.5t-110.5 -136t-39 -204.5q0 -113 39 -197.5t110.5 -132t168.5 -47.5zM873 1440l-176 -100q189 -139 287.5 -335.5t98.5 -443.5q0 -177 -58.5 -307.5t-167 -201.5
t-257.5 -71q-153 0 -263.5 64.5t-170 183.5t-59.5 280q0 121 32.5 219.5t92.5 169.5t143 109.5t185 38.5q67 0 129 -24.5t109 -65t70 -88.5h15q-39 122 -120.5 220.5t-196.5 177.5l-291 -165v130l180 103q-87 46 -186 87v126q178 -53 321 -137l281 160z" />
    <glyph glyph-name="ntilde" unicode="&#xf1;" horiz-adv-x="1195" 
d="M161 0v1078h164v-170h16q40 89 120 139t204 50q182 0 279.5 -103.5t97.5 -295.5v-698h-172v656q0 146 -62.5 216t-191.5 70q-86 0 -149.5 -36.5t-98.5 -105t-35 -162.5v-638h-172zM726 1235q-49 0 -81 15t-53.5 37.5t-39 45t-36.5 37.5t-46 15q-36 0 -56 -34.5
t-20 -119.5h-142q0 137 57.5 212.5t163.5 75.5q48 0 80.5 -16t55.5 -39.5t41 -46.5t37.5 -39t46.5 -16q41 0 58.5 37.5t17.5 122.5h142q0 -136 -58.5 -211.5t-167.5 -75.5z" />
    <glyph glyph-name="ograve" unicode="&#xf2;" horiz-adv-x="1210" 
d="M604 -19q-153 0 -264.5 67.5t-172 192.5t-60.5 298t60.5 298.5t172 192.5t264.5 67t264.5 -67t172 -192.5t60.5 -298.5t-60.5 -298t-172 -192.5t-264.5 -67.5zM604 136q153 0 236 106t83 297q0 192 -83 297.5t-236 105.5t-236 -105.5t-83 -297.5q0 -191 83 -297t236 -106
zM526 1228l-231 340h206l177 -340h-152z" />
    <glyph glyph-name="oacute" unicode="&#xf3;" horiz-adv-x="1210" 
d="M604 -19q-153 0 -264.5 67.5t-172 192.5t-60.5 298t60.5 298.5t172 192.5t264.5 67t264.5 -67t172 -192.5t60.5 -298.5t-60.5 -298t-172 -192.5t-264.5 -67.5zM604 136q153 0 236 106t83 297q0 192 -83 297.5t-236 105.5t-236 -105.5t-83 -297.5q0 -191 83 -297t236 -106
zM682 1228h-152l177 340h206z" />
    <glyph glyph-name="ocircumflex" unicode="&#xf4;" horiz-adv-x="1210" 
d="M604 -19q-153 0 -264.5 67.5t-172 192.5t-60.5 298t60.5 298.5t172 192.5t264.5 67t264.5 -67t172 -192.5t60.5 -298.5t-60.5 -298t-172 -192.5t-264.5 -67.5zM604 136q153 0 236 106t83 297q0 192 -83 297.5t-236 105.5t-236 -105.5t-83 -297.5q0 -191 83 -297t236 -106
zM705 1568l242 -340h-188l-147 227h-16l-147 -227h-188l242 340h202z" />
    <glyph glyph-name="otilde" unicode="&#xf5;" horiz-adv-x="1210" 
d="M604 -19q-153 0 -264.5 67.5t-172 192.5t-60.5 298t60.5 298.5t172 192.5t264.5 67t264.5 -67t172 -192.5t60.5 -298.5t-60.5 -298t-172 -192.5t-264.5 -67.5zM604 136q153 0 236 106t83 297q0 192 -83 297.5t-236 105.5t-236 -105.5t-83 -297.5q0 -191 83 -297t236 -106
zM728 1235q-49 0 -81 15t-53.5 37.5t-39 45t-36.5 37.5t-46 15q-36 0 -56 -34.5t-20 -119.5h-142q0 137 57.5 212.5t163.5 75.5q48 0 80.5 -16t55.5 -39.5t41 -46.5t37.5 -39t46.5 -16q41 0 58.5 37.5t17.5 122.5h142q0 -136 -58.5 -211.5t-167.5 -75.5z" />
    <glyph glyph-name="odieresis" unicode="&#xf6;" horiz-adv-x="1210" 
d="M604 -19q-153 0 -264.5 67.5t-172 192.5t-60.5 298t60.5 298.5t172 192.5t264.5 67t264.5 -67t172 -192.5t60.5 -298.5t-60.5 -298t-172 -192.5t-264.5 -67.5zM604 136q153 0 236 106t83 297q0 192 -83 297.5t-236 105.5t-236 -105.5t-83 -297.5q0 -191 83 -297t236 -106
zM387 1286q-33 0 -60.5 16t-43.5 43.5t-16 60.5t16 60.5t43.5 43.5t60.5 16t60.5 -16t43.5 -43.5t16 -60.5t-16 -60.5t-43.5 -43.5t-60.5 -16zM821 1286q-33 0 -60.5 16t-43.5 43.5t-16 60.5t16 60.5t43.5 43.5t60.5 16t60.5 -16t43.5 -43.5t16 -60.5t-16 -60.5t-43.5 -43.5
t-60.5 -16z" />
    <glyph glyph-name="divide" unicode="&#xf7;" horiz-adv-x="1328" 
d="M664 832q-54 0 -90 35t-36 90q0 54 36 89.5t90 35.5q53 0 88.5 -35.5t35.5 -89.5q0 -55 -35.5 -90t-88.5 -35zM664 56q-54 0 -90 35t-36 90q0 54 36 89.5t90 35.5q53 0 88.5 -35.5t35.5 -89.5q0 -55 -35.5 -90t-88.5 -35zM1146 493h-966v152h966v-152z" />
    <glyph glyph-name="oslash" unicode="&#xf8;" horiz-adv-x="1210" 
d="M891 768l-495 -567q81 -72 208 -72q157 0 242.5 108t85.5 302q0 135 -41 229zM317 311l496 567q-40 34 -92.5 52.5t-116.5 18.5q-157 0 -242.5 -107t-85.5 -303q0 -134 41 -228zM1098 1005l-92 -106q46 -69 70.5 -160t24.5 -200q0 -173 -60.5 -298t-172 -192.5
t-264.5 -67.5q-188 0 -312 101l-88 -101l-94 92l93 106q-46 70 -71 160.5t-25 199.5q0 173 60.5 298.5t172 192.5t264.5 67q94 0 172.5 -25.5t139.5 -74.5l88 100z" />
    <glyph glyph-name="ugrave" unicode="&#xf9;" horiz-adv-x="1196" 
d="M1033 1078v-1078h-164v169h-16q-40 -90 -125 -139t-209 -49q-182 0 -275 104t-93 295v698h172v-656q0 -146 57.5 -215t186.5 -69q142 0 218 80t76 222v638h172zM514 1228l-231 340h206l177 -340h-152z" />
    <glyph glyph-name="uacute" unicode="&#xfa;" horiz-adv-x="1196" 
d="M1033 1078v-1078h-164v169h-16q-40 -90 -125 -139t-209 -49q-182 0 -275 104t-93 295v698h172v-656q0 -146 57.5 -215t186.5 -69q142 0 218 80t76 222v638h172zM670 1228h-152l177 340h206z" />
    <glyph glyph-name="ucircumflex" unicode="&#xfb;" horiz-adv-x="1196" 
d="M1033 1078v-1078h-164v169h-16q-40 -90 -125 -139t-209 -49q-182 0 -275 104t-93 295v698h172v-656q0 -146 57.5 -215t186.5 -69q142 0 218 80t76 222v638h172zM693 1568l242 -340h-188l-147 227h-16l-147 -227h-188l242 340h202z" />
    <glyph glyph-name="udieresis" unicode="&#xfc;" horiz-adv-x="1196" 
d="M1033 1078v-1078h-164v169h-16q-40 -90 -125 -139t-209 -49q-182 0 -275 104t-93 295v698h172v-656q0 -146 57.5 -215t186.5 -69q142 0 218 80t76 222v638h172zM375 1286q-33 0 -60.5 16t-43.5 43.5t-16 60.5t16 60.5t43.5 43.5t60.5 16t60.5 -16t43.5 -43.5t16 -60.5
t-16 -60.5t-43.5 -43.5t-60.5 -16zM809 1286q-33 0 -60.5 16t-43.5 43.5t-16 60.5t16 60.5t43.5 43.5t60.5 16t60.5 -16t43.5 -43.5t16 -60.5t-16 -60.5t-43.5 -43.5t-60.5 -16z" />
    <glyph glyph-name="yacute" unicode="&#xfd;" horiz-adv-x="1112" 
d="M253 -390q-17 0 -38 1.5t-39 4.5v147q16 -3 35 -4t37 -1q74 0 119 40t79 137l20 64l-399 1079h186l296 -887h16l295 887h183l-421 -1144q-35 -94 -70 -156.5t-77 -99.5t-96 -52.5t-126 -15.5zM628 1228h-152l177 340h206z" />
    <glyph glyph-name="thorn" unicode="&#xfe;" horiz-adv-x="1258" 
d="M696 1097q137 0 239 -69t158 -194.5t56 -294.5q0 -126 -32 -229t-91.5 -176.5t-143 -113t-186.5 -39.5q-115 0 -204 47.5t-133 133.5h-16v-522h-172v1866h164v-608h16q52 93 143.5 146t201.5 53zM655 136q99 0 169.5 48t108.5 138.5t38 216.5t-37.5 216.5t-108 138.5
t-169.5 48q-97 0 -168.5 -49t-110.5 -139.5t-39 -214.5q0 -123 39 -213.5t110 -140t168 -49.5z" />
    <glyph glyph-name="ydieresis" unicode="&#xff;" horiz-adv-x="1112" 
d="M253 -390q-17 0 -38 1.5t-39 4.5v147q16 -3 35 -4t37 -1q74 0 119 40t79 137l20 64l-399 1079h186l296 -887h16l295 887h183l-421 -1144q-35 -94 -70 -156.5t-77 -99.5t-96 -52.5t-126 -15.5zM333 1286q-33 0 -60.5 16t-43.5 43.5t-16 60.5t16 60.5t43.5 43.5t60.5 16
t60.5 -16t43.5 -43.5t16 -60.5t-16 -60.5t-43.5 -43.5t-60.5 -16zM767 1286q-33 0 -60.5 16t-43.5 43.5t-16 60.5t16 60.5t43.5 43.5t60.5 16t60.5 -16t43.5 -43.5t16 -60.5t-16 -60.5t-43.5 -43.5t-60.5 -16z" />
    <glyph glyph-name="Amacron" unicode="&#x100;" horiz-adv-x="1380" 
d="M1121 0l-145 413h-574l-145 -413h-189l532 1443h178l532 -1443h-189zM681 1210l-226 -644h468l-226 644h-16zM1016 1817v-136h-654v136h654z" />
    <glyph glyph-name="amacron" unicode="&#x101;" horiz-adv-x="1130" 
d="M493 132q88 0 158 35.5t110 96.5t40 138v99l-290 -19q-123 -8 -179.5 -51.5t-56.5 -124.5q0 -55 28.5 -94t78 -59.5t111.5 -20.5zM461 -19q-104 0 -186.5 39t-130 111.5t-47.5 170.5q0 145 102.5 226.5t290.5 92.5l311 19v98q0 100 -61.5 153t-182.5 53q-97 0 -161 -35
t-82 -99h-174q11 86 68 151t148.5 100.5t206.5 35.5q132 0 223.5 -43t139 -123.5t47.5 -192.5v-738h-164v159h-16q-52 -86 -138 -132t-194 -46zM890 1472v-136h-654v136h654z" />
    <glyph glyph-name="Abreve" unicode="&#x102;" horiz-adv-x="1380" 
d="M1121 0l-145 413h-574l-145 -413h-189l532 1443h178l532 -1443h-189zM681 1210l-226 -644h468l-226 644h-16zM335 1873h154q0 -79 51 -126t149 -47t149 47t51 126h154q0 -89 -41.5 -156.5t-120.5 -104.5t-192 -37t-192 37t-120.5 104.5t-41.5 156.5z" />
    <glyph glyph-name="abreve" unicode="&#x103;" horiz-adv-x="1130" 
d="M493 132q88 0 158 35.5t110 96.5t40 138v99l-290 -19q-123 -8 -179.5 -51.5t-56.5 -124.5q0 -55 28.5 -94t78 -59.5t111.5 -20.5zM461 -19q-104 0 -186.5 39t-130 111.5t-47.5 170.5q0 145 102.5 226.5t290.5 92.5l311 19v98q0 100 -61.5 153t-182.5 53q-97 0 -161 -35
t-82 -99h-174q11 86 68 151t148.5 100.5t206.5 35.5q132 0 223.5 -43t139 -123.5t47.5 -192.5v-738h-164v159h-16q-52 -86 -138 -132t-194 -46zM214 1568h154q0 -94 46.5 -153t148.5 -59t148.5 59t46.5 153h154q0 -100 -39.5 -176.5t-117.5 -120t-192 -43.5t-192 43.5
t-117.5 120t-39.5 176.5z" />
    <glyph glyph-name="Aogonek" unicode="&#x104;" horiz-adv-x="1380" 
d="M455 566h468l-226 644h-16zM778 1443l532 -1443q-42 -26 -80.5 -56t-62.5 -65t-24 -76q0 -44 28.5 -69t78.5 -25q33 0 69 10v-135q-26 -9 -55 -14t-58 -5q-59 0 -112.5 20.5t-86.5 63.5t-33 108q0 61 35.5 123t111.5 121l-145 412h-574l-145 -413h-189l532 1443h178z" />
    <glyph glyph-name="aogonek" unicode="&#x105;" horiz-adv-x="1130" 
d="M801 402v99l-290 -19q-123 -8 -179.5 -51.5t-56.5 -124.5q0 -55 28.5 -94t78 -59.5t111.5 -20.5q88 0 158 35.5t110 96.5t40 138zM973 738v-738q-42 -26 -80.5 -56t-62.5 -65t-24 -76q0 -44 28.5 -69t78.5 -25q33 0 69 10v-135q-26 -9 -55 -14t-58 -5q-60 0 -113 20.5
t-86 63.5t-33 108q0 66 41 133t131 130v139h-16q-52 -86 -138 -132t-194 -46q-104 0 -186.5 39t-130 111.5t-47.5 170.5q0 145 102.5 226.5t290.5 92.5l311 19v98q0 100 -61.5 153t-182.5 53q-97 0 -161 -35t-82 -99h-174q11 86 68 151t148.5 100.5t206.5 35.5
q132 0 223.5 -43t139 -123.5t47.5 -192.5z" />
    <glyph glyph-name="Cacute" unicode="&#x106;" horiz-adv-x="1466" 
d="M764 -34q-147 0 -264.5 52.5t-201 151t-127.5 238t-44 313.5q0 175 44 314.5t127 238t200.5 151t264.5 52.5q114 0 213 -34t177 -96.5t128 -148.5t66 -190h-183q-24 93 -81 161t-138.5 105t-181.5 37q-138 0 -239.5 -72t-156.5 -204.5t-55 -313.5t55 -313t156.5 -204
t240.5 -72q101 0 183 32.5t138 93t79 144.5h183q-24 -132 -104 -230t-203 -152t-276 -54zM846 1575h-152l177 298h216z" />
    <glyph glyph-name="cacute" unicode="&#x107;" horiz-adv-x="1146" 
d="M1053 748h-174q-14 54 -50 98t-93 70t-135 26q-97 0 -168 -49t-109.5 -138.5t-38.5 -211.5q0 -125 39 -216t110 -141t167 -50q109 0 181.5 49t96.5 140h174q-16 -99 -73 -177t-153 -122.5t-225 -44.5q-151 0 -262 69t-172 195.5t-61 297.5q0 126 34.5 228t99 175t156 112
t204.5 39q131 0 227 -47.5t153 -126.5t72 -175zM677 1228h-152l177 340h206z" />
    <glyph glyph-name="Ccircumflex" unicode="&#x108;" horiz-adv-x="1466" 
d="M764 -34q-147 0 -264.5 52.5t-201 151t-127.5 238t-44 313.5q0 175 44 314.5t127 238t200.5 151t264.5 52.5q114 0 213 -34t177 -96.5t128 -148.5t66 -190h-183q-24 93 -81 161t-138.5 105t-181.5 37q-138 0 -239.5 -72t-156.5 -204.5t-55 -313.5t55 -313t156.5 -204
t240.5 -72q101 0 183 32.5t138 93t79 144.5h183q-24 -132 -104 -230t-203 -152t-276 -54zM681 1873h164l300 -298h-202l-172 177h-16l-172 -177h-202z" />
    <glyph glyph-name="ccircumflex" unicode="&#x109;" horiz-adv-x="1146" 
d="M1053 748h-174q-14 54 -50 98t-93 70t-135 26q-97 0 -168 -49t-109.5 -138.5t-38.5 -211.5q0 -125 39 -216t110 -141t167 -50q109 0 181.5 49t96.5 140h174q-16 -99 -73 -177t-153 -122.5t-225 -44.5q-151 0 -262 69t-172 195.5t-61 297.5q0 126 34.5 228t99 175t156 112
t204.5 39q131 0 227 -47.5t153 -126.5t72 -175zM700 1568l242 -340h-188l-147 227h-16l-147 -227h-188l242 340h202z" />
    <glyph glyph-name="Cdotaccent" unicode="&#x10a;" horiz-adv-x="1466" 
d="M764 -34q-147 0 -264.5 52.5t-201 151t-127.5 238t-44 313.5q0 175 44 314.5t127 238t200.5 151t264.5 52.5q114 0 213 -34t177 -96.5t128 -148.5t66 -190h-183q-24 93 -81 161t-138.5 105t-181.5 37q-138 0 -239.5 -72t-156.5 -204.5t-55 -313.5t55 -313t156.5 -204
t240.5 -72q101 0 183 32.5t138 93t79 144.5h183q-24 -132 -104 -230t-203 -152t-276 -54zM763 1631q-33 0 -60.5 16t-43.5 43.5t-16 60.5t16 60t43.5 43.5t60.5 16.5t60.5 -16.5t43.5 -43.5t16 -60t-16 -60.5t-43.5 -43.5t-60.5 -16z" />
    <glyph glyph-name="cdotaccent" unicode="&#x10b;" horiz-adv-x="1146" 
d="M1053 748h-174q-14 54 -50 98t-93 70t-135 26q-97 0 -168 -49t-109.5 -138.5t-38.5 -211.5q0 -125 39 -216t110 -141t167 -50q109 0 181.5 49t96.5 140h174q-16 -99 -73 -177t-153 -122.5t-225 -44.5q-151 0 -262 69t-172 195.5t-61 297.5q0 126 34.5 228t99 175t156 112
t204.5 39q131 0 227 -47.5t153 -126.5t72 -175zM599 1286q-33 0 -60.5 16t-43.5 43.5t-16 60.5t16 60.5t43.5 43.5t60.5 16t60.5 -16t43.5 -43.5t16 -60.5t-16 -60.5t-43.5 -43.5t-60.5 -16z" />
    <glyph glyph-name="Ccaron" unicode="&#x10c;" horiz-adv-x="1466" 
d="M764 -34q-147 0 -264.5 52.5t-201 151t-127.5 238t-44 313.5q0 175 44 314.5t127 238t200.5 151t264.5 52.5q114 0 213 -34t177 -96.5t128 -148.5t66 -190h-183q-24 93 -81 161t-138.5 105t-181.5 37q-138 0 -239.5 -72t-156.5 -204.5t-55 -313.5t55 -313t156.5 -204
t240.5 -72q101 0 183 32.5t138 93t79 144.5h183q-24 -132 -104 -230t-203 -152t-276 -54zM681 1575l-300 298h202l172 -177h16l172 177h202l-300 -298h-164z" />
    <glyph glyph-name="ccaron" unicode="&#x10d;" horiz-adv-x="1146" 
d="M1053 748h-174q-14 54 -50 98t-93 70t-135 26q-97 0 -168 -49t-109.5 -138.5t-38.5 -211.5q0 -125 39 -216t110 -141t167 -50q109 0 181.5 49t96.5 140h174q-16 -99 -73 -177t-153 -122.5t-225 -44.5q-151 0 -262 69t-172 195.5t-61 297.5q0 126 34.5 228t99 175t156 112
t204.5 39q131 0 227 -47.5t153 -126.5t72 -175zM700 1228h-202l-242 340h188l147 -227h16l147 227h188z" />
    <glyph glyph-name="Dcaron" unicode="&#x10e;" horiz-adv-x="1488" 
d="M183 1443h495q214 0 366.5 -85.5t233.5 -247t81 -388.5t-81 -389t-233 -247.5t-367 -85.5h-495v1443zM363 1281v-1119h303q161 0 275 66t174 191t60 301t-60.5 302t-174.5 192.5t-274 66.5h-303zM531 1575l-300 298h202l172 -177h16l172 177h202l-300 -298h-164z" />
    <glyph glyph-name="dcaron" unicode="&#x10f;" horiz-adv-x="1395" 
d="M1236 1568h178l-58 -490h-120v490zM560 -19q-138 0 -240 69t-157.5 194.5t-55.5 294.5q0 127 32 229.5t91.5 176t143 113t186.5 39.5q113 0 202.5 -50.5t135.5 -138.5h15v598h172v-1506h-164v172h-16q-51 -90 -142 -140.5t-203 -50.5zM600 942q-98 0 -168.5 -48.5
t-108.5 -139t-38 -215.5q0 -126 37.5 -216.5t108.5 -138.5t169 -48t169 49t109.5 139t38.5 215q0 123 -38.5 213.5t-110 140t-168.5 49.5z" />
    <glyph glyph-name="Dcroat" unicode="&#x110;" horiz-adv-x="1488" 
d="M363 162h303q161 0 275 66t174 191t60 301t-60.5 302t-174.5 192.5t-274 66.5h-303v-456h309v-162h-309v-501zM183 1443h495q214 0 366.5 -85.5t233.5 -247t81 -388.5t-81 -389t-233 -247.5t-367 -85.5h-495v663h-158v162h158v618z" />
    <glyph glyph-name="dcroat" unicode="&#x111;" horiz-adv-x="1258" 
d="M600 136q98 0 169 49t109.5 139t38.5 215q0 123 -38.5 213.5t-110 140t-168.5 49.5q-98 0 -168.5 -48.5t-108.5 -139t-38 -215.5q0 -126 37.5 -216.5t108.5 -138.5t169 -48zM1229 1401v-124h-144v-1277h-164v172h-16q-51 -90 -142 -140.5t-203 -50.5q-138 0 -240 69
t-157.5 194.5t-55.5 294.5q0 127 32 229.5t91.5 176t143 113t186.5 39.5q113 0 202.5 -50.5t135.5 -138.5h15v369h-260v124h260v105h172v-105h144z" />
    <glyph glyph-name="Emacron" unicode="&#x112;" horiz-adv-x="1220" 
d="M1077 162v-162h-894v1443h894v-162h-714v-463h677v-160h-677v-496h714zM957 1817v-136h-654v136h654z" />
    <glyph glyph-name="emacron" unicode="&#x113;" horiz-adv-x="1170" 
d="M591 945q-86 0 -152.5 -39.5t-106 -110.5t-46.5 -167h594q-2 96 -38.5 167t-100.5 110.5t-150 39.5zM875 279h172q-25 -92 -87.5 -159t-155.5 -103t-211 -36q-150 0 -259 68t-168 193.5t-59 295.5q0 127 34 230t98 176.5t153.5 113t200.5 39.5q146 0 250.5 -65.5
t161 -187.5t56.5 -289v-66h-775v-8q5 -107 44 -185t107 -120.5t160 -42.5q104 0 174 37.5t104 108.5zM920 1472v-136h-654v136h654z" />
    <glyph glyph-name="Ebreve" unicode="&#x114;" horiz-adv-x="1220" 
d="M1077 162v-162h-894v1443h894v-162h-714v-463h677v-160h-677v-496h714zM276 1873h154q0 -79 51.5 -126t148.5 -47t148.5 47t51.5 126h154q0 -89 -41.5 -156.5t-120.5 -104.5t-192 -37t-192 37t-120.5 104.5t-41.5 156.5z" />
    <glyph glyph-name="ebreve" unicode="&#x115;" horiz-adv-x="1170" 
d="M591 945q-86 0 -152.5 -39.5t-106 -110.5t-46.5 -167h594q-2 96 -38.5 167t-100.5 110.5t-150 39.5zM875 279h172q-25 -92 -87.5 -159t-155.5 -103t-211 -36q-150 0 -259 68t-168 193.5t-59 295.5q0 127 34 230t98 176.5t153.5 113t200.5 39.5q146 0 250.5 -65.5
t161 -187.5t56.5 -289v-66h-775v-8q5 -107 44 -185t107 -120.5t160 -42.5q104 0 174 37.5t104 108.5zM244 1568h154q0 -94 46.5 -153t148.5 -59t148.5 59t46.5 153h154q0 -100 -39.5 -176.5t-117.5 -120t-192 -43.5t-192 43.5t-117.5 120t-39.5 176.5z" />
    <glyph glyph-name="Edotaccent" unicode="&#x116;" horiz-adv-x="1220" 
d="M1077 162v-162h-894v1443h894v-162h-714v-463h677v-160h-677v-496h714zM630 1631q-33 0 -60 16t-43.5 43.5t-16.5 60.5t16.5 60t43.5 43.5t60 16.5t60 -16.5t43.5 -43.5t16.5 -60t-16.5 -60.5t-43.5 -43.5t-60 -16z" />
    <glyph glyph-name="edotaccent" unicode="&#x117;" horiz-adv-x="1170" 
d="M591 945q-86 0 -152.5 -39.5t-106 -110.5t-46.5 -167h594q-2 96 -38.5 167t-100.5 110.5t-150 39.5zM875 279h172q-25 -92 -87.5 -159t-155.5 -103t-211 -36q-150 0 -259 68t-168 193.5t-59 295.5q0 127 34 230t98 176.5t153.5 113t200.5 39.5q146 0 250.5 -65.5
t161 -187.5t56.5 -289v-66h-775v-8q5 -107 44 -185t107 -120.5t160 -42.5q104 0 174 37.5t104 108.5zM593 1286q-33 0 -60.5 16t-43.5 43.5t-16 60.5t16 60.5t43.5 43.5t60.5 16t60.5 -16t43.5 -43.5t16 -60.5t-16 -60.5t-43.5 -43.5t-60.5 -16z" />
    <glyph glyph-name="Eogonek" unicode="&#x118;" horiz-adv-x="1220" 
d="M1077 162v-162q-42 -26 -80.5 -56t-62.5 -65t-24 -76q0 -44 28.5 -69t78.5 -25q33 0 69 10v-135q-26 -9 -55 -14t-58 -5q-60 0 -113 20.5t-86 63.5t-33 108q0 61 34.5 123t110.5 120h-703v1443h894v-162h-714v-463h677v-160h-677v-496h714z" />
    <glyph glyph-name="eogonek" unicode="&#x119;" horiz-adv-x="1170" 
d="M286 628h594q-2 96 -38.5 167t-100.5 110.5t-150 39.5t-152.5 -39.5t-106 -110.5t-46.5 -167zM1061 489h-775v-8q5 -107 44 -185t107 -120.5t160 -42.5q104 0 174 37.5t104 108.5h172q-30 -112 -117 -187q-37 -36 -75 -71.5t-69.5 -71.5t-51 -72.5t-19.5 -74.5
q0 -14 6.5 -36.5t29 -40t69.5 -17.5q16 0 34.5 2.5t41.5 8.5v-135q-26 -9 -55 -14t-58 -5q-60 0 -114 20t-88.5 62.5t-34.5 107.5q0 115 138 232q-43 -6 -91 -6q-150 0 -259 68t-168 193.5t-59 295.5q0 127 34 230t98 176.5t153.5 113t200.5 39.5q146 0 250.5 -65.5
t161 -187.5t56.5 -289v-66z" />
    <glyph glyph-name="Ecaron" unicode="&#x11a;" horiz-adv-x="1220" 
d="M1077 162v-162h-894v1443h894v-162h-714v-463h677v-160h-677v-496h714zM548 1575l-300 298h202l172 -177h16l172 177h202l-300 -298h-164z" />
    <glyph glyph-name="ecaron" unicode="&#x11b;" horiz-adv-x="1170" 
d="M591 945q-86 0 -152.5 -39.5t-106 -110.5t-46.5 -167h594q-2 96 -38.5 167t-100.5 110.5t-150 39.5zM875 279h172q-25 -92 -87.5 -159t-155.5 -103t-211 -36q-150 0 -259 68t-168 193.5t-59 295.5q0 127 34 230t98 176.5t153.5 113t200.5 39.5q146 0 250.5 -65.5
t161 -187.5t56.5 -289v-66h-775v-8q5 -107 44 -185t107 -120.5t160 -42.5q104 0 174 37.5t104 108.5zM694 1228h-202l-242 340h188l147 -227h16l147 227h188z" />
    <glyph glyph-name="Gcircumflex" unicode="&#x11c;" horiz-adv-x="1529" 
d="M1394 558q0 -134 -43.5 -242.5t-124.5 -187t-194 -120.5t-251 -42q-150 0 -270.5 53t-206 152t-131.5 238.5t-46 312.5q0 171 46.5 310t132.5 238.5t206.5 153t268.5 53.5q160 0 287 -56.5t209 -160.5t108 -247h-183q-47 146 -154 222t-267 76q-107 0 -193.5 -41.5
t-148 -118.5t-94.5 -185.5t-33 -243.5q0 -182 57 -314.5t162.5 -204t250.5 -71.5q129 0 226.5 51.5t152 143.5t54.5 214v35h-406v158h585v-176zM699 1873h164l300 -298h-202l-172 177h-16l-172 -177h-202z" />
    <glyph glyph-name="gcircumflex" unicode="&#x11d;" horiz-adv-x="1248" 
d="M597 168q100 0 171.5 48t110 135t38.5 204t-38.5 204t-110 135t-171.5 48t-169.5 -48t-106 -135t-36.5 -204t36.5 -204t106 -135t169.5 -48zM605 -414q-130 0 -227 36.5t-154.5 103t-70.5 155.5h182q14 -66 84 -105.5t186 -39.5q145 0 226.5 67.5t81.5 186.5v212h-16
q-51 -89 -139 -137.5t-199 -48.5q-140 0 -241 67.5t-156 189t-55 282.5q0 121 31.5 220.5t90.5 171.5t142.5 111t187.5 39q76 0 143 -23.5t119.5 -66t83.5 -100.5h16v171h164v-1097q0 -121 -59 -209.5t-166.5 -137t-254.5 -48.5zM714 1568l242 -340h-188l-147 227h-16
l-147 -227h-188l242 340h202z" />
    <glyph glyph-name="Gbreve" unicode="&#x11e;" horiz-adv-x="1529" 
d="M1394 558q0 -134 -43.5 -242.5t-124.5 -187t-194 -120.5t-251 -42q-150 0 -270.5 53t-206 152t-131.5 238.5t-46 312.5q0 171 46.5 310t132.5 238.5t206.5 153t268.5 53.5q160 0 287 -56.5t209 -160.5t108 -247h-183q-47 146 -154 222t-267 76q-107 0 -193.5 -41.5
t-148 -118.5t-94.5 -185.5t-33 -243.5q0 -182 57 -314.5t162.5 -204t250.5 -71.5q129 0 226.5 51.5t152 143.5t54.5 214v35h-406v158h585v-176zM427 1873h154q0 -79 51 -126t149 -47t149 47t51 126h154q0 -89 -41.5 -156.5t-120.5 -104.5t-192 -37t-192 37t-120.5 104.5
t-41.5 156.5z" />
    <glyph glyph-name="gbreve" unicode="&#x11f;" horiz-adv-x="1248" 
d="M597 168q100 0 171.5 48t110 135t38.5 204t-38.5 204t-110 135t-171.5 48t-169.5 -48t-106 -135t-36.5 -204t36.5 -204t106 -135t169.5 -48zM605 -414q-130 0 -227 36.5t-154.5 103t-70.5 155.5h182q14 -66 84 -105.5t186 -39.5q145 0 226.5 67.5t81.5 186.5v212h-16
q-51 -89 -139 -137.5t-199 -48.5q-140 0 -241 67.5t-156 189t-55 282.5q0 121 31.5 220.5t90.5 171.5t142.5 111t187.5 39q76 0 143 -23.5t119.5 -66t83.5 -100.5h16v171h164v-1097q0 -121 -59 -209.5t-166.5 -137t-254.5 -48.5zM264 1568h154q0 -94 46.5 -153t148.5 -59
t148.5 59t46.5 153h154q0 -100 -39.5 -176.5t-117.5 -120t-192 -43.5t-192 43.5t-117.5 120t-39.5 176.5z" />
    <glyph glyph-name="Gdotaccent" unicode="&#x120;" horiz-adv-x="1529" 
d="M1394 558q0 -134 -43.5 -242.5t-124.5 -187t-194 -120.5t-251 -42q-150 0 -270.5 53t-206 152t-131.5 238.5t-46 312.5q0 171 46.5 310t132.5 238.5t206.5 153t268.5 53.5q160 0 287 -56.5t209 -160.5t108 -247h-183q-47 146 -154 222t-267 76q-107 0 -193.5 -41.5
t-148 -118.5t-94.5 -185.5t-33 -243.5q0 -182 57 -314.5t162.5 -204t250.5 -71.5q129 0 226.5 51.5t152 143.5t54.5 214v35h-406v158h585v-176zM781 1631q-33 0 -60.5 16t-43.5 43.5t-16 60.5t16 60t43.5 43.5t60.5 16.5t60.5 -16.5t43.5 -43.5t16 -60t-16 -60.5
t-43.5 -43.5t-60.5 -16z" />
    <glyph glyph-name="gdotaccent" unicode="&#x121;" horiz-adv-x="1248" 
d="M597 168q100 0 171.5 48t110 135t38.5 204t-38.5 204t-110 135t-171.5 48t-169.5 -48t-106 -135t-36.5 -204t36.5 -204t106 -135t169.5 -48zM605 -414q-130 0 -227 36.5t-154.5 103t-70.5 155.5h182q14 -66 84 -105.5t186 -39.5q145 0 226.5 67.5t81.5 186.5v212h-16
q-51 -89 -139 -137.5t-199 -48.5q-140 0 -241 67.5t-156 189t-55 282.5q0 121 31.5 220.5t90.5 171.5t142.5 111t187.5 39q76 0 143 -23.5t119.5 -66t83.5 -100.5h16v171h164v-1097q0 -121 -59 -209.5t-166.5 -137t-254.5 -48.5zM613 1286q-33 0 -60.5 16t-43.5 43.5
t-16 60.5t16 60.5t43.5 43.5t60.5 16t60.5 -16t43.5 -43.5t16 -60.5t-16 -60.5t-43.5 -43.5t-60.5 -16z" />
    <glyph glyph-name="Gcommaaccent" unicode="&#x122;" horiz-adv-x="1529" 
d="M1394 558q0 -134 -43.5 -242.5t-124.5 -187t-194 -120.5t-251 -42q-150 0 -270.5 53t-206 152t-131.5 238.5t-46 312.5q0 171 46.5 310t132.5 238.5t206.5 153t268.5 53.5q160 0 287 -56.5t209 -160.5t108 -247h-183q-47 146 -154 222t-267 76q-107 0 -193.5 -41.5
t-148 -118.5t-94.5 -185.5t-33 -243.5q0 -182 57 -314.5t162.5 -204t250.5 -71.5q129 0 226.5 51.5t152 143.5t54.5 214v35h-406v158h585v-176zM735 -494h-127l82 377h182z" />
    <glyph glyph-name="gcommaaccent" unicode="&#x123;" horiz-adv-x="1248" 
d="M597 168q100 0 171.5 48t110 135t38.5 204t-38.5 204t-110 135t-171.5 48t-169.5 -48t-106 -135t-36.5 -204t36.5 -204t106 -135t169.5 -48zM605 -414q-130 0 -227 36.5t-154.5 103t-70.5 155.5h182q14 -66 84 -105.5t186 -39.5q145 0 226.5 67.5t81.5 186.5v212h-16
q-51 -89 -139 -137.5t-199 -48.5q-140 0 -241 67.5t-156 189t-55 282.5q0 121 31.5 220.5t90.5 171.5t142.5 111t187.5 39q76 0 143 -23.5t119.5 -66t83.5 -100.5h16v171h164v-1097q0 -121 -59 -209.5t-166.5 -137t-254.5 -48.5zM659 1605h127l-82 -377h-182z" />
    <glyph glyph-name="Hcircumflex" unicode="&#x124;" horiz-adv-x="1520" 
d="M1335 0h-180v657h-792v-657h-180v1443h180v-624h792v624h180v-1443zM677 1873h164l300 -298h-202l-172 177h-16l-172 -177h-202z" />
    <glyph glyph-name="hcircumflex" unicode="&#x125;" horiz-adv-x="1216" 
d="M172 0v1506h172v-598h16q40 89 124 139t208 50q114 0 197.5 -47t129 -136.5t45.5 -215.5v-698h-172v656q0 143 -63.5 214.5t-185.5 71.5q-97 0 -163.5 -38t-101 -106.5t-34.5 -159.5v-638h-172zM176 1936h164l300 -298h-202l-172 177h-16l-172 -177h-202z" />
    <glyph glyph-name="Hbar" unicode="&#x126;" horiz-adv-x="1520" 
d="M1155 819v256h-792v-256h792zM1479 1217v-142h-144v-1075h-180v657h-792v-657h-180v1075h-144v142h144v226h180v-226h792v226h180v-226h144z" />
    <glyph glyph-name="hbar" unicode="&#x127;" horiz-adv-x="1216" 
d="M343 908h16q40 89 124 139t208 50q114 0 197.5 -47t129 -136.5t45.5 -215.5v-698h-172v656q0 143 -63.5 214.5t-185.5 71.5q-97 0 -163.5 -38t-101 -106.5t-34.5 -159.5v-638h-172v1277h-144v124h144v105h172v-105h260v-124h-260v-369z" />
    <glyph glyph-name="Itilde" unicode="&#x128;" horiz-adv-x="548" 
d="M364 0h-180v1443h180v-1443zM398 1580q-49 0 -81 15t-53.5 37.5t-39 45t-36.5 37.5t-46 15q-36 0 -56 -34.5t-20 -119.5h-142q0 136 57.5 212t163.5 76q48 0 80.5 -16t55.5 -39t41 -46.5t37.5 -39.5t46.5 -16q40 0 58 37.5t18 122.5h142q0 -137 -58.5 -212t-167.5 -75z
" />
    <glyph glyph-name="itilde" unicode="&#x129;" horiz-adv-x="504" 
d="M166 0v1078h172v-1078h-172zM376 1235q-49 0 -81 15t-53.5 37.5t-39 45t-36.5 37.5t-46 15q-36 0 -56 -34.5t-20 -119.5h-142q0 137 57.5 212.5t163.5 75.5q48 0 80.5 -16t55.5 -39.5t41 -46.5t37.5 -39t46.5 -16q40 0 58 37.5t18 122.5h142q0 -136 -58.5 -211.5
t-167.5 -75.5z" />
    <glyph glyph-name="Imacron" unicode="&#x12a;" horiz-adv-x="548" 
d="M364 0h-180v1443h180v-1443zM601 1817v-136h-654v136h654z" />
    <glyph glyph-name="imacron" unicode="&#x12b;" horiz-adv-x="504" 
d="M166 0v1078h172v-1078h-172zM530 1472v-136h-556v136h556z" />
    <glyph glyph-name="Ibreve" unicode="&#x12c;" horiz-adv-x="548" 
d="M364 0h-180v1443h180v-1443zM-80 1873h154q0 -79 51 -126t149 -47t149 47t51 126h154q0 -89 -41.5 -156.5t-120.5 -104.5t-192 -37t-192 37t-120.5 104.5t-41.5 156.5z" />
    <glyph glyph-name="ibreve" unicode="&#x12d;" horiz-adv-x="504" 
d="M166 0v1078h172v-1078h-172zM-97 1568h154q0 -94 46.5 -153t148.5 -59t148.5 59t46.5 153h154q0 -100 -39.5 -176.5t-117.5 -120t-192 -43.5t-192 43.5t-117.5 120t-39.5 176.5z" />
    <glyph glyph-name="Iogonek" unicode="&#x12e;" horiz-adv-x="548" 
d="M363 1443v-1443q-42 -26 -80 -56t-62.5 -65t-24.5 -76q0 -44 28.5 -69t78.5 -25q33 0 69 10v-135q-26 -9 -55 -14t-58 -5q-60 0 -113 20.5t-86 63.5t-33 108q0 63 37 127t119 124v1435h180z" />
    <glyph glyph-name="iogonek" unicode="&#x12f;" horiz-adv-x="504" 
d="M252 1286q-33 0 -60.5 16t-43.5 43.5t-16 60.5t16 60.5t43.5 43.5t60.5 16t60.5 -16t43.5 -43.5t16 -60.5t-16 -60.5t-43.5 -43.5t-60.5 -16zM338 1078v-1078q-42 -26 -80 -56t-62.5 -65t-24.5 -76q0 -44 28.5 -69t78.5 -25q33 0 69 10v-135q-26 -9 -55 -14t-58 -5
q-60 0 -113 20.5t-86 63.5t-33 108t39 130t125 127v1064h172z" />
    <glyph glyph-name="Idotaccent" unicode="&#x130;" horiz-adv-x="548" 
d="M363 0h-180v1443h180v-1443zM273 1631q-33 0 -60.5 16t-43.5 43.5t-16 60.5t16 60t43.5 43.5t60.5 16.5t60.5 -16.5t43.5 -43.5t16 -60t-16 -60.5t-43.5 -43.5t-60.5 -16z" />
    <glyph glyph-name="dotlessi" unicode="&#x131;" horiz-adv-x="504" 
d="M165 0v1078h172v-1078h-172z" />
    <glyph glyph-name="IJ" unicode="&#x132;" horiz-adv-x="1650" 
d="M363 0h-180v1443h180v-1443zM633 337h179q2 -61 31.5 -107t81 -72t119.5 -26q115 0 178 69t63 202v1040h180v-1041q0 -138 -50.5 -235.5t-145 -149t-224.5 -51.5q-121 0 -214 46.5t-145.5 130t-52.5 194.5z" />
    <glyph glyph-name="ij" unicode="&#x133;" horiz-adv-x="1008" 
d="M165 0v1078h172v-1078h-172zM251 1286q-33 0 -60.5 16t-43.5 43.5t-16 60.5t16 60.5t43.5 43.5t60.5 16t60.5 -16t43.5 -43.5t16 -60.5t-16 -60.5t-43.5 -43.5t-60.5 -16zM841 1078v-1131q0 -167 -80 -242t-250 -75h-30v147h26q92 0 127 39t35 128v1134h172zM757 1286
q-33 0 -60.5 16t-43.5 43.5t-16 60.5t16 60.5t43.5 43.5t60.5 16t60.5 -16t43.5 -43.5t16 -60.5t-16 -60.5t-43.5 -43.5t-60.5 -16z" />
    <glyph glyph-name="Jcircumflex" unicode="&#x134;" horiz-adv-x="1102" 
d="M85 337h179q2 -61 31.5 -107t81 -72t119.5 -26q115 0 178 69t63 202v1040h180v-1041q0 -138 -50.5 -235.5t-145 -149t-224.5 -51.5q-121 0 -214 46.5t-145.5 130t-52.5 194.5zM745 1873h164l300 -298h-202l-172 177h-16l-172 -177h-202z" />
    <glyph glyph-name="jcircumflex" unicode="&#x135;" horiz-adv-x="504" 
d="M338 1078v-1131q0 -167 -80 -242t-250 -75h-30v147h26q92 0 127 39t35 128v1134h172zM355 1568l242 -340h-188l-147 227h-16l-147 -227h-188l242 340h202z" />
    <glyph glyph-name="Kcommaaccent" unicode="&#x136;" horiz-adv-x="1349" 
d="M363 0h-180v1443h180v-701h16l632 701h226l-577 -623l630 -820h-233l-521 695l-173 -191v-504zM606 -494h-127l82 377h182z" />
    <glyph glyph-name="kcommaaccent" unicode="&#x137;" horiz-adv-x="1112" 
d="M359 607l468 471h211l-464 -462l495 -616h-219l-404 505l-103 -96v-409h-172v1506h172v-899h16zM556 -494h-127l82 377h182z" />
    <glyph glyph-name="Lacute" unicode="&#x139;" horiz-adv-x="1163" 
d="M1059 162v-162h-876v1443h180v-1281h696zM356 1575h-152l177 298h216z" />
    <glyph glyph-name="lacute" unicode="&#x13a;" horiz-adv-x="516" 
d="M171 0v1506h172v-1506h-172zM340 1638h-152l177 298h216z" />
    <glyph glyph-name="Lcommaaccent" unicode="&#x13b;" horiz-adv-x="1163" 
d="M1059 162v-162h-876v1443h180v-1281h696zM575 -494h-127l82 377h182z" />
    <glyph glyph-name="lcommaaccent" unicode="&#x13c;" horiz-adv-x="516" 
d="M171 0v1506h172v-1506h-172zM211 -494h-127l82 377h182z" />
    <glyph glyph-name="Lcaron" unicode="&#x13d;" horiz-adv-x="1163" 
d="M1059 162v-162h-876v1443h180v-1281h696zM645 1568h173l-53 -520h-120v520z" />
    <glyph glyph-name="lcaron" unicode="&#x13e;" horiz-adv-x="653" 
d="M171 0v1506h172v-1506h-172zM494 1568h178l-58 -490h-120v490z" />
    <glyph glyph-name="Lslash" unicode="&#x141;" horiz-adv-x="1163" 
d="M363 162h696v-162h-876v714l-166 -77v142l166 77v587h180v-503l288 134v-142l-288 -134v-636z" />
    <glyph glyph-name="lslash" unicode="&#x142;" horiz-adv-x="516" 
d="M471 999v-144l-128 -63v-792h-172v709l-128 -63v144l128 63v653h172v-570z" />
    <glyph glyph-name="Nacute" unicode="&#x143;" horiz-adv-x="1520" 
d="M361 0h-178v1443h175l783 -1123h16v1123h178v-1443h-175l-783 1119h-16v-1119zM842 1575h-152l177 298h216z" />
    <glyph glyph-name="nacute" unicode="&#x144;" horiz-adv-x="1195" 
d="M161 0v1078h164v-170h16q40 89 120 139t204 50q182 0 279.5 -103.5t97.5 -295.5v-698h-172v656q0 146 -62.5 216t-191.5 70q-86 0 -149.5 -36.5t-98.5 -105t-35 -162.5v-638h-172zM680 1228h-152l177 340h206z" />
    <glyph glyph-name="Ncommaaccent" unicode="&#x145;" horiz-adv-x="1520" 
d="M361 0h-178v1443h175l783 -1123h16v1123h178v-1443h-175l-783 1119h-16v-1119zM713 -494h-127l82 377h182z" />
    <glyph glyph-name="ncommaaccent" unicode="&#x146;" horiz-adv-x="1195" 
d="M161 0v1078h164v-170h16q40 89 120 139t204 50q182 0 279.5 -103.5t97.5 -295.5v-698h-172v656q0 146 -62.5 216t-191.5 70q-86 0 -149.5 -36.5t-98.5 -105t-35 -162.5v-638h-172zM556 -494h-127l82 377h182z" />
    <glyph glyph-name="Ncaron" unicode="&#x147;" horiz-adv-x="1520" 
d="M361 0h-178v1443h175l783 -1123h16v1123h178v-1443h-175l-783 1119h-16v-1119zM677 1575l-300 298h202l172 -177h16l172 177h202l-300 -298h-164z" />
    <glyph glyph-name="ncaron" unicode="&#x148;" horiz-adv-x="1195" 
d="M161 0v1078h164v-170h16q40 89 120 139t204 50q182 0 279.5 -103.5t97.5 -295.5v-698h-172v656q0 146 -62.5 216t-191.5 70q-86 0 -149.5 -36.5t-98.5 -105t-35 -162.5v-638h-172zM703 1228h-202l-242 340h188l147 -227h16l147 227h188z" />
    <glyph glyph-name="Omacron" unicode="&#x14c;" horiz-adv-x="1580" 
d="M789 1477q154 0 276.5 -52.5t208.5 -151.5t131.5 -238t45.5 -313q0 -173 -45.5 -312.5t-131 -238.5t-208.5 -152t-277 -53q-155 0 -278 53t-208.5 152t-130.5 238.5t-45 312.5q0 174 46 313.5t132 238t208.5 151t275.5 52.5zM789 1311q-147 0 -254 -72t-165 -204.5
t-58 -312.5q0 -179 56.5 -311.5t163.5 -205.5t257 -73q148 0 255 73t164.5 205.5t57.5 311.5q0 180 -58 312.5t-164.5 204.5t-254.5 72zM1116 1817v-136h-654v136h654z" />
    <glyph glyph-name="omacron" unicode="&#x14d;" horiz-adv-x="1210" 
d="M604 -19q-153 0 -264.5 67.5t-172 192.5t-60.5 298t60.5 298.5t172 192.5t264.5 67t264.5 -67t172 -192.5t60.5 -298.5t-60.5 -298t-172 -192.5t-264.5 -67.5zM604 136q153 0 236 106t83 297q0 192 -83 297.5t-236 105.5t-236 -105.5t-83 -297.5q0 -191 83 -297t236 -106
zM931 1472v-136h-654v136h654z" />
    <glyph glyph-name="Obreve" unicode="&#x14e;" horiz-adv-x="1580" 
d="M789 1477q154 0 276.5 -52.5t208.5 -151.5t131.5 -238t45.5 -313q0 -173 -45.5 -312.5t-131 -238.5t-208.5 -152t-277 -53q-155 0 -278 53t-208.5 152t-130.5 238.5t-45 312.5q0 174 46 313.5t132 238t208.5 151t275.5 52.5zM789 1311q-147 0 -254 -72t-165 -204.5
t-58 -312.5q0 -179 56.5 -311.5t163.5 -205.5t257 -73q148 0 255 73t164.5 205.5t57.5 311.5q0 180 -58 312.5t-164.5 204.5t-254.5 72zM435 1873h154q0 -79 51 -126t149 -47t149 47t51 126h154q0 -89 -41.5 -156.5t-120.5 -104.5t-192 -37t-192 37t-120.5 104.5
t-41.5 156.5z" />
    <glyph glyph-name="obreve" unicode="&#x14f;" horiz-adv-x="1210" 
d="M604 -19q-153 0 -264.5 67.5t-172 192.5t-60.5 298t60.5 298.5t172 192.5t264.5 67t264.5 -67t172 -192.5t60.5 -298.5t-60.5 -298t-172 -192.5t-264.5 -67.5zM604 136q153 0 236 106t83 297q0 192 -83 297.5t-236 105.5t-236 -105.5t-83 -297.5q0 -191 83 -297t236 -106
zM255 1568h154q0 -94 46.5 -153t148.5 -59t148.5 59t46.5 153h154q0 -100 -40 -176.5t-117.5 -120t-191.5 -43.5t-191.5 43.5t-117.5 120t-40 176.5z" />
    <glyph glyph-name="Ohungarumlaut" unicode="&#x150;" horiz-adv-x="1580" 
d="M789 1477q154 0 276.5 -52.5t208.5 -151.5t131.5 -238t45.5 -313q0 -173 -45.5 -312.5t-131 -238.5t-208.5 -152t-277 -53q-155 0 -278 53t-208.5 152t-130.5 238.5t-45 312.5q0 174 46 313.5t132 238t208.5 151t275.5 52.5zM789 1311q-147 0 -254 -72t-165 -204.5
t-58 -312.5q0 -179 56.5 -311.5t163.5 -205.5t257 -73q148 0 255 73t164.5 205.5t57.5 311.5q0 180 -58 312.5t-164.5 204.5t-254.5 72zM1012 1575h-142l166 298h206zM681 1575h-142l126 298h191z" />
    <glyph glyph-name="ohungarumlaut" unicode="&#x151;" horiz-adv-x="1210" 
d="M604 -19q-153 0 -264.5 67.5t-172 192.5t-60.5 298t60.5 298.5t172 192.5t264.5 67t264.5 -67t172 -192.5t60.5 -298.5t-60.5 -298t-172 -192.5t-264.5 -67.5zM604 136q153 0 236 106t83 297q0 192 -83 297.5t-236 105.5t-236 -105.5t-83 -297.5q0 -191 83 -297t236 -106
zM821 1228h-142l177 340h206zM504 1228h-133l111 340h199z" />
    <glyph glyph-name="OE" unicode="&#x152;" horiz-adv-x="2325" 
d="M800 1311q-151 0 -260 -71.5t-168.5 -203.5t-59.5 -314q0 -183 59 -315.5t168.5 -203.5t260.5 -71q145 0 249.5 71t161 203.5t56.5 315.5t-56.5 315t-161 203t-249.5 71zM1288 0v247h-16q-44 -84 -120 -147.5t-172.5 -98.5t-199.5 -35q-151 0 -271.5 52.5t-206 151
t-130.5 238.5t-45 314q0 173 45.5 312.5t131 238.5t206 151.5t270.5 52.5q101 0 197 -34t173 -95.5t122 -141.5h16v237h894v-162h-732v-463h695v-160h-695v-496h732v-162h-894z" />
    <glyph glyph-name="oe" unicode="&#x153;" horiz-adv-x="1987" 
d="M1410 -19q-89 0 -168 28.5t-137 79.5t-85 120h-16q-28 -69 -87 -120t-139.5 -79.5t-173.5 -28.5q-154 0 -265.5 67.5t-171.5 192.5t-60 298t60 298t171.5 192.5t265.5 67.5q135 0 241 -61.5t160 -170.5h16q54 109 157 170.5t232 61.5q145 0 250 -65.5t161.5 -186.5
t56.5 -289v-66h-775v-8q4 -107 43.5 -185t108 -120.5t159.5 -42.5q210 0 278 145h172q-27 -93 -89.5 -160t-155 -102.5t-209.5 -35.5zM1697 629q-2 95 -38.5 166.5t-101 111t-149.5 39.5t-151.5 -39.5t-107 -110.5t-46.5 -167h594zM285 539q0 -192 83.5 -297.5t235.5 -105.5
t235.5 105.5t83.5 297.5q0 193 -83.5 298t-235.5 105t-235.5 -105t-83.5 -298z" />
    <glyph glyph-name="Racute" unicode="&#x154;" horiz-adv-x="1338" 
d="M363 1283v-552h355q139 0 214.5 71.5t75.5 204.5q0 130 -79.5 203t-218.5 73h-347zM363 571v-571h-180v1443h551q139 0 242.5 -53.5t160.5 -150t57 -226.5q0 -101 -35 -184t-99.5 -142t-155.5 -88l334 -599h-211l-309 571v0h-355zM691 1575h-152l177 298h216z" />
    <glyph glyph-name="racute" unicode="&#x155;" horiz-adv-x="780" 
d="M161 0v1078h164v-160h16q16 52 59.5 92.5t106 63.5t133.5 23q21 0 45 -1.5t41 -3.5v-172q-7 2 -27 4.5t-43 4t-40 1.5q-82 0 -146 -34t-100.5 -93t-36.5 -135v-668h-172zM455 1228h-152l177 340h206z" />
    </font>
</defs>
</svg>
