<?xml version="1.0" standalone="no"?>
<!DOCTYPE svg PUBLIC "-//W3C//DTD SVG 1.1//EN" "http://www.w3.org/Graphics/SVG/1.1/DTD/svg11.dtd" >
<svg xmlns="http://www.w3.org/2000/svg" xmlns:xlink="http://www.w3.org/1999/xlink" version="1.1">
<metadata>
Created by FontForge 20200427 at Fri Dec 12 19:38:32 2014
 By www
Copyright (c) 2000 by Rian Hughes / Device Fonts. All rights reserved.
</metadata>
<defs>
<font id="ZingerW00-Italic" horiz-adv-x="1555" >
  <font-face 
    font-family="ZingerW00-Italic"
    font-weight="401"
    font-style="italic"
    font-stretch="normal"
    units-per-em="1000"
    panose-1="2 0 5 7 3 0 0 2 0 4"
    ascent="800"
    descent="-200"
    x-height="700"
    cap-height="700"
    bbox="-165 -161 2185 1045"
    underline-thickness="50"
    underline-position="-175"
    slope="-30"
    unicode-range="U+0020-FB02"
  />
<missing-glyph horiz-adv-x="450" 
d="M50 653h350v-653h-350v653zM70 20l144 306l-144 307v-613zM380 633l-144 -307l144 -306v613zM92 20h266l-133 283zM225 350l133 283h-266z" />
    <glyph glyph-name="uniFB01" unicode="fi" horiz-adv-x="1418" 
 />
    <glyph glyph-name="uniFB02" unicode="fl" horiz-adv-x="1420" 
 />
    <glyph glyph-name=".notdef" horiz-adv-x="450" 
d="M50 653h350v-653h-350v653zM70 20l144 306l-144 307v-613zM380 633l-144 -307l144 -306v613zM92 20h266l-133 283zM225 350l133 283h-266z" />
    <glyph glyph-name="glyph1" horiz-adv-x="0" 
 />
    <glyph glyph-name="glyph1" horiz-adv-x="0" 
 />
    <glyph glyph-name="glyph2" horiz-adv-x="0" 
 />
    <glyph glyph-name="space" unicode=" " horiz-adv-x="1182" 
d="M1193 0h-1196l42 83h1195z" />
    <glyph glyph-name="exclam" unicode="!" horiz-adv-x="1287" 
d="M1317 0h-1040l41 83h1041zM360 343l-120 -184h-29l64 184l181 357h85zM196 0h-104l46 83h103z" />
    <glyph glyph-name="quotedbl" unicode="&#x22;" horiz-adv-x="1278" 
d="M533 612l-120 -183h-30l65 183l44 88h85zM394 612l-120 -183h-29l64 183l45 88h85zM1308 0h-1309l42 83h1309z" />
    <glyph glyph-name="numbersign" unicode="#" horiz-adv-x="1629" 
d="M1659 0h-1275l93 183h-198l-92 -183h-84l92 183h-110l39 77h110l97 192h-110l39 77h110l86 171h84l-86 -171h197l86 171h83l-86 -171h116l-39 -77h-116l-97 -192h116l-39 -77h-116l-50 -100h1192zM415 452l-97 -192h197l97 192h-197z" />
    <glyph glyph-name="dollar" unicode="$" horiz-adv-x="1544" 
d="M1574 0h-1280l-46 -92h-85l47 92h-89q-47 0 -71.5 3t-31.5 14t1 33t27 61l41 83h85l-57 -111h346l119 235h-293q-46 0 -71 3t-31.5 15.5t3 37.5t31.5 69l67 132q22 44 38 69t35 37.5t47 15.5t74 3h83l46 92h84l-46 -92h79q42 0 66.5 -2.5t33.5 -12.5t3.5 -30t-23.5 -56
l-42 -81h-83l50 101h-338l-111 -220h292q46 0 70.5 -3t31.5 -15.5t-2.5 -37.5t-31.5 -69l-97 -191h1071z" />
    <glyph glyph-name="percent" unicode="%" horiz-adv-x="1964" 
d="M1994 0h-1761l42 83l532 538h-178l-88 -174q-22 -43 -37.5 -68t-34.5 -37.5t-44.5 -15.5t-66.5 -3h-79q-42 0 -64 3t-28 15.5t3 37.5t31 68l65 129q22 43 37.5 68t34 37.5t44 15.5t67.5 3h482l-39 -78l-520 -539h1644zM1067 285q-22 -43 -37.5 -68t-34.5 -37.5
t-44.5 -15.5t-66.5 -3h-79q-41 0 -63.5 3t-28.5 15.5t3 37.5t31 68l65 128q22 43 37.5 68t34 37.5t44 15.5t67.5 3h79q42 0 64.5 -3t28.5 -15.5t-3.5 -37.5t-31.5 -68zM917 459l-110 -220h156l111 220h-157zM391 621l-111 -219h157l111 219h-157z" />
    <glyph glyph-name="ampersand" unicode="&#x26;" horiz-adv-x="1652" 
d="M1682 0h-1077l42 83h1076zM759 315h-67l-96 -190q-22 -44 -38 -69t-35 -37.5t-46 -15.5t-71 -3h-277q-45 0 -69.5 3t-31 15.5t2.5 37.5t31 69l56 112q16 32 29 54t28 36t33.5 20.5t45.5 6.5l1 3q-26 0 -38 6.5t-13.5 19.5t6.5 32.5t21 45.5l62 123q21 41 36.5 64.5t34 35
t45.5 14t71 2.5h158q45 0 69 -2.5t30.5 -14.5t-2.5 -36t-31 -67l-30 -59h-82l49 98h-243l-111 -219h514zM245 315l-118 -232h365l118 232h-365z" />
    <glyph glyph-name="quotesingle" unicode="'" horiz-adv-x="1132" 
d="M394 612l-120 -183h-29l64 183l45 89h85zM1162 0h-1163l42 83h1163z" />
    <glyph glyph-name="asterisk" unicode="*" horiz-adv-x="1589" 
d="M752 476l-214 -62l142 -71l45 -36l-74 -69l-45 37l-92 117l-69 -189l-37 -74h-79l37 74l121 188l-207 -126l-83 -37l-5 84l83 36l211 66l-139 72l-46 37l74 69l46 -37l90 -119l71 191l37 73h79l-37 -73l-124 -190l210 123l83 37l5 -84zM1619 0h-1620l42 83h1620z" />
    <glyph glyph-name="plus" unicode="+" horiz-adv-x="1514" 
d="M659 361h-197l-101 -202h-84l101 202h-197l42 83h197l99 196h84l-99 -196h196zM1544 0h-1545l42 83h1545z" />
    <glyph glyph-name="comma" unicode="," horiz-adv-x="1325" 
d="M1355 0h-1358l42 83h98l84 76h-65l46 92h159l-46 -90l-84 -78h1166z" />
    <glyph glyph-name="hyphen" unicode="-" horiz-adv-x="1393" 
d="M1423 0h-1424l42 83h1424zM529 316h-370l41 82h371z" />
    <glyph glyph-name="period" unicode="." horiz-adv-x="1199" 
d="M1229 0h-1232l42 83h1232zM259 159h-103l46 92h103z" />
    <glyph glyph-name="slash" unicode="/" horiz-adv-x="1475" 
d="M1505 0h-1504l42 83l653 617h117l-652 -617h1386z" />
    <glyph glyph-name="zero" unicode="0" 
d="M1585 0h-988l42 83h988zM576 125q-22 -44 -38 -69t-35.5 -37.5t-47 -15.5t-72.5 -3h-252q-45 0 -69.5 3t-31.5 15.5t2 37.5t31 69l227 450q22 44 38 69t35 37.5t47 15.5t74 3h252q45 0 70 -3t31.5 -15t-3 -37t-31.5 -70zM396 619l-271 -536h345l271 536h-345z" />
    <glyph glyph-name="one" unicode="1" horiz-adv-x="1127" 
d="M1157 0h-1156l311 617h-113l42 83h197l-311 -617h1072z" />
    <glyph glyph-name="two" unicode="2" 
d="M1585 0h-1585l138 274q22 44 38 69t35 37.5t47 15.5t74 3h292l111 220h-339l-50 -101h-84l41 81q18 36 33 56t33.5 30t45.5 12.5t69 2.5h246q45 0 69 -3.5t31.5 -14.5t0.5 -33.5t-26 -59.5l-83 -163q-19 -38 -34 -59.5t-34.5 -32t-46.5 -13.5t-70 -3h-293l-118 -235h1501
z" />
    <glyph glyph-name="three" unicode="3" 
d="M1585 0h-1455q-45 0 -69 3t-31 15.5t2 37.5t31 69l67 132h84l-88 -174h344l119 232h-249l41 83h249l111 221h-345l-65 -128h-83l42 84q22 45 38.5 70t36 37t47 15t72.5 3h257q45 0 70 -3t31.5 -15t-3 -37t-31.5 -70l-55 -111q-15 -31 -28 -51.5t-27 -33t-32 -17.5t-45 -5
l-2 -3q27 0 39.5 -6.5t13 -20.5t-8.5 -36t-25 -54l-78 -154h1067z" />
    <glyph glyph-name="four" unicode="4" 
d="M1585 0h-1230l81 159h-375l41 71l485 470h112l-494 -470h272l131 272h84l-131 -272h111l-41 -71h-111l-39 -76h1146z" />
    <glyph glyph-name="five" unicode="5" 
d="M1585 0h-1465q-46 0 -70.5 3t-32 14t0.5 33t28 61l42 83h84l-56 -111h345l118 235h-428l193 382h499l-92 -182h-84l50 101h-331l-111 -220h299q46 0 70.5 -3t31 -15.5t-3 -37.5t-31.5 -69l-96 -191h1082z" />
    <glyph glyph-name="six" unicode="6" 
d="M1585 0h-1455q-46 0 -70.5 3t-31 15t3 37t31.5 69l227 450q22 44 38 69.5t35.5 38t47 15.5t72.5 3h251q43 0 67.5 -2.5t33 -13t2 -32t-25.5 -59.5l-40 -79h-84l53 104h-344l-104 -205h299q45 0 70 -3t31.5 -15t-3 -37t-31.5 -70l-104 -205h1073zM250 329l-124 -246h344
l124 246h-344z" />
    <glyph glyph-name="seven" unicode="7" 
d="M1585 0h-1465l43 83l556 536h-343l-86 -170h-84l127 251h534l-41 -81l-552 -536h1353z" />
    <glyph glyph-name="eight" unicode="8" 
d="M1585 0h-1455q-45 0 -69 3t-31 15.5t2 37.5t31 69l57 112q16 32 28.5 54t27 36t33 20.5t45.5 6.5l1 3q-27 0 -39 5t-13.5 17.5t7.5 33t24 51.5l56 111q22 45 38.5 70t36 37t47 15t72.5 3h249q45 0 70 -3t32 -15t-2.5 -37t-31.5 -70l-56 -111q-16 -31 -28 -51.5t-25.5 -33
t-31 -17.5t-44.5 -5l-2 -3q27 0 39 -6.5t12 -20.5t-9.5 -36t-25.5 -54l-78 -154h1075zM398 619l-111 -221h338l112 221h-339zM245 315l-118 -232h339l118 232h-339z" />
    <glyph glyph-name="nine" unicode="9" 
d="M1585 0h-1458q-43 0 -67.5 2.5t-33 13t-2 31.5t25.5 59l40 79h84l-52 -102h349l103 204h-299q-45 0 -70 3t-31.5 15t2.5 37t32 70l82 163q22 45 38.5 70t36 37t47 15t72.5 3h252q46 0 70.5 -3t31 -15.5t-3 -37.5t-31.5 -69l-248 -492h1072zM397 619l-125 -249h344
l125 249h-344z" />
    <glyph glyph-name="colon" unicode=":" horiz-adv-x="1199" 
d="M403 446h-103l46 91h103zM1229 0h-1232l42 83h1232zM259 159h-103l46 92h103z" />
    <glyph glyph-name="semicolon" unicode=";" horiz-adv-x="1325" 
d="M403 446h-103l46 91h103zM1355 0h-1358l42 83h98l84 76h-65l46 92h159l-46 -90l-84 -78h1166z" />
    <glyph glyph-name="less" unicode="&#x3c;" horiz-adv-x="1685" 
d="M1715 0h-1584l-8 272l283 266h91l-240 -223h495l-41 -85h-493l6 -147h1533z" />
    <glyph glyph-name="equal" unicode="=" horiz-adv-x="1500" 
d="M565 389h-371l42 83h371zM1530 0h-1532l42 83h1532zM490 240h-371l42 83h370z" />
    <glyph glyph-name="greater" unicode="&#x3e;" horiz-adv-x="1665" 
d="M1695 0h-1350l246 230h-493l41 85h495l-15 223h91l14 -266l-195 -189h1208z" />
    <glyph glyph-name="question" unicode="?" horiz-adv-x="1535" 
d="M1565 0h-1252l41 83h1253zM667 443q-22 -44 -38 -69t-35 -37.5t-47 -15.5t-74 -3h-98l-81 -159h-84l58 115q22 44 38 69t35 37.5t47 15.5t74 3h99l110 220h-339l-74 -146h-84l51 102q22 45 38.5 70t36 37t47 15t72.5 3h247q46 0 70.5 -3t31.5 -15.5t-2.5 -37.5t-31.5 -69
zM224 0h-104l46 83h103z" />
    <glyph glyph-name="at" unicode="@" horiz-adv-x="1843" 
d="M1873 0h-1749q-42 0 -65.5 2.5t-30 14.5t2 36.5t30.5 68.5l297 587q21 43 36.5 67.5t34 36.5t44.5 15t70 3h504q43 0 66.5 -3t30 -15t-3 -36.5t-31.5 -67.5l-276 -550h-208l19 40h-21l-47 -40h-213q-45 0 -69 3t-30.5 15.5t3 37.5t31.5 69l139 275q22 45 37.5 70t34.5 37
t46 14.5t72 2.5h312l-228 -453h84l267 529h-605l-340 -676h1800zM537 612l-192 -382h296l192 382h-296z" />
    <glyph glyph-name="A" unicode="A" 
d="M1585 0h-1107l24 147h-322l-124 -147h-102l124 147h-62l41 81h90l329 389h-119l42 83h275l-100 -617h1053zM581 623l-334 -395h270l65 395h-1z" />
    <glyph glyph-name="B" unicode="B" 
d="M1585 0h-1585l159 315h-58l41 83h59l110 219h-112l42 83h496q45 0 70 -3t32 -15t-2.5 -37t-31.5 -70l-56 -111q-16 -31 -28 -51.5t-25.5 -33t-31 -17.5t-44.5 -5l-2 -3q27 0 39 -6.5t12 -20.5t-9.5 -36t-25.5 -54l-56 -112q-6 -12 -12 -22.5t-11 -19.5h1072zM396 619
l-111 -221h344l112 221h-345zM243 315l-117 -232h344l118 232h-345z" />
    <glyph glyph-name="C" unicode="C" 
d="M1585 0h-1454q-45 0 -69.5 3t-31.5 15.5t2 37.5t31 69l227 450q22 44 38 69t35 37.5t47 15.5t74 3h252q45 0 70 -3t31.5 -15t-3 -37t-31.5 -70l-58 -115h-84l80 157h-346l-269 -534h345l88 174h84l-88 -174h1072z" />
    <glyph glyph-name="D" unicode="D" 
d="M1585 0h-1585l311 617h-112l42 83h496q45 0 70 -3t32 -15t-2.5 -37t-31.5 -70l-249 -492h1071zM396 619l-270 -536h345l270 536h-345z" />
    <glyph glyph-name="E" unicode="E" horiz-adv-x="1506" 
d="M1536 0h-1536l159 315h-58l41 83h59l110 219h-112l42 83h590l-42 -83h-393l-110 -219h351l-42 -83h-351l-118 -232h1452z" />
    <glyph glyph-name="F" unicode="F" horiz-adv-x="1494" 
d="M1524 0h-1346l41 83h1347zM792 617h-396l-110 -219h335l-42 -83h-335l-159 -315h-85l159 315h-58l41 83h59l110 219h-112l42 83h593z" />
    <glyph glyph-name="G" unicode="G" 
d="M1585 0h-1454q-45 0 -69.5 3t-31.5 15.5t2 37.5t31 69l227 450q22 44 38 69t35 37.5t47 15.5t74 3h252q43 0 67.5 -2.5t32.5 -13t1.5 -32t-25.5 -59.5l-40 -81h-84l53 107h-345l-271 -536h346l117 232h-224l42 83h308l-159 -315h1072z" />
    <glyph glyph-name="H" unicode="H" 
d="M1585 0h-1156l159 315h-345l-159 -315h-84l159 315h-58l41 83h59l110 219h-112l42 83h196l-152 -302h345l152 302h84l-311 -617h1072z" />
    <glyph glyph-name="I" unicode="I" horiz-adv-x="1127" 
d="M1157 0h-1156l311 617h-113l42 83h197l-311 -617h1072z" />
    <glyph glyph-name="J" unicode="J" 
d="M1585 0h-1474q-45 0 -69.5 3t-31.5 15.5t2 37.5t31 69l67 132h84l-89 -174h336l269 534h-511l42 83h595q-75 -148 -126.5 -250t-85.5 -170l-53 -106t-29 -57t-13 -25t-5 -9h1103z" />
    <glyph glyph-name="K" unicode="K" horiz-adv-x="1500" 
d="M1530 0h-1131l-130 367l-185 -367h-84l311 617h-112l42 83h196l-151 -300l422 300h133l-480 -335l100 -282h1111z" />
    <glyph glyph-name="L" unicode="L" 
d="M1585 0h-989l41 83h990zM511 0h-511l311 617h-112l42 83h197l-312 -617h342l88 175h85z" />
    <glyph glyph-name="M" unicode="M" horiz-adv-x="1710" 
d="M1740 0h-1156l293 582l-515 -582h-55l78 596l-300 -596h-85l311 617h-112l42 83h236l-80 -560l485 560h139l-311 -617h1072z" />
    <glyph glyph-name="N" unicode="N" 
d="M1585 0h-1150l-63 571l-288 -571h-84l311 617h-112l42 83h195l66 -575l290 575h84l-311 -617h1062z" />
    <glyph glyph-name="O" unicode="O" 
d="M1585 0h-988l42 83h988zM576 125q-22 -44 -38 -69t-35.5 -37.5t-47 -15.5t-72.5 -3h-252q-45 0 -69.5 3t-31.5 15.5t2 37.5t31 69l227 450q22 44 38 69t35 37.5t47 15.5t74 3h252q45 0 70 -3t31.5 -15t-3 -37t-31.5 -70zM396 619l-271 -536h345l271 536h-345z" />
    <glyph glyph-name="P" unicode="P" 
d="M1585 0h-1417l42 83h1417zM707 412q-23 -45 -39 -70t-35.5 -37t-47 -15t-72.5 -3h-284l-145 -287h-84l145 287h-59l42 82h58l125 248h-112l42 83h481q45 0 70 -3t32 -15t-2.5 -37t-31.5 -70zM396 619l-125 -249h329l125 249h-329z" />
    <glyph glyph-name="Q" unicode="Q" horiz-adv-x="1447" 
d="M1477 0h-1244q-45 0 -69.5 3t-31.5 15t1.5 36.5t30.5 68.5l20 39h-80q-45 0 -69.5 3t-31.5 15t2 36.5t31 68.5l146 290q22 44 38 69t35 37.5t47 15.5t74 3h252q45 0 70 -3t32 -15t-2 -37t-31 -68l-148 -292q-22 -43 -38 -67.5t-35.5 -37t-47 -15.5t-72.5 -3h-88l-41 -79
h1292zM287 617l-111 -222h79q45 0 69.5 -3t31.5 -15t-1.5 -36.5t-30.5 -67.5l-15 -31h134l190 375h-346zM135 315l-37 -73h127l37 73h-127z" />
    <glyph glyph-name="R" unicode="R" 
d="M1585 0h-1181l-158 320l-162 -320h-84l159 315h-58l41 83h59l111 219h-113l42 83h482q44 0 68 -3t31.5 -14.5t0 -33.5t-26.5 -60l-84 -166q-19 -38 -34 -59.5t-33.5 -32t-44.5 -13.5t-68 -3h-190l117 -232h1168zM396 619l-111 -222h328l112 222h-329z" />
    <glyph glyph-name="S" unicode="S" 
d="M1585 0h-1464q-47 0 -71.5 3t-32 14t0.5 33t28 61l42 83h84l-57 -111h346l119 235h-293q-46 0 -70.5 3t-31 15.5t3.5 37.5t33 69l68 132q22 44 38 69t35.5 37.5t47 15.5t73.5 3h252q42 0 64.5 -2.5t29.5 -12.5t0.5 -30t-24.5 -56l-41 -81h-84l50 99h-339l-110 -218h292
q46 0 70.5 -3t31.5 -15.5t-2.5 -37.5t-31.5 -69l-98 -191h1083z" />
    <glyph glyph-name="T" unicode="T" horiz-adv-x="1415" 
d="M1445 0h-1326l311 617h-287l42 83h586l-42 -83h-215l-270 -534h1243z" />
    <glyph glyph-name="U" unicode="U" 
d="M1585 0h-1454q-45 0 -69.5 3t-31.5 15.5t2 37.5t31 69l248 492h-112l42 83h197l-313 -617h346l312 617h84l-313 -617h1073z" />
    <glyph glyph-name="V" unicode="V" horiz-adv-x="1507" 
d="M1537 0h-1400l106 617h-92l42 83h149l-112 -622h2l515 622h104l-517 -617h1245z" />
    <glyph glyph-name="W" unicode="W" horiz-adv-x="1885" 
d="M1915 0h-1324l130 587l-465 -587h-120l132 617h-89l42 83h151l-136 -602h1l478 602h108l-130 -602l474 602h102l-492 -617h1180z" />
    <glyph glyph-name="X" unicode="X" 
d="M1585 0h-1142l-41 303l-332 -303h-119l435 390l-36 227h-151l42 83h187l34 -247l278 247h125l-383 -333l40 -284h1105z" />
    <glyph glyph-name="Y" unicode="Y" horiz-adv-x="1475" 
d="M1505 0h-1383l83 164l17 453h-103l42 83h154l-30 -432h2l405 432h114l-519 -535l-41 -82h1301z" />
    <glyph glyph-name="Z" unicode="Z" 
d="M1585 0h-1604l41 82l658 535h-481l42 83h597l-42 -83l-658 -534h1489z" />
    <glyph glyph-name="backslash" unicode="\" horiz-adv-x="1414" 
d="M1444 0h-1102l-34 700h96l30 -617h1052z" />
    <glyph glyph-name="asciicircum" unicode="^" horiz-adv-x="1615" 
d="M549 257l-78 136l-215 -136l-47 52l229 142h87l88 -142z" />
    <glyph glyph-name="underscore" unicode="_" horiz-adv-x="1599" 
d="M438 -161h-539l41 82h539z" />
    <glyph glyph-name="grave" unicode="`" horiz-adv-x="1599" 
d="M675 747l-71 123l62 39l70 -126z" />
    <glyph glyph-name="a" unicode="a" horiz-adv-x="1575" 
d="M1606 159h-1140l27 55l-71 -55h-226q-42 0 -65 2.5t-29 14.5t3 36t30 66l30 61q21 42 35.5 65.5t32.5 35.5t43.5 14.5t68.5 2.5h271l85 168h-498l38 75h452q43 0 65.5 -3t28.5 -15t-3 -36t-30 -66l-176 -350h1124zM1585 0h-1590l42 83h1590zM268 392l-81 -162h315l82 162
h-316z" />
    <glyph glyph-name="b" unicode="b" horiz-adv-x="1575" 
d="M1605 159h-1402l-21 55l-28 -55h-74l339 672h75l-67 -131h263q45 0 69.5 -3t31 -15t-3 -36t-30.5 -67l-152 -302q-8 -14 -14 -25.5t-11 -21.5h1121zM1585 0h-1585l42 83h1585zM391 626l-200 -396h315l200 396h-315z" />
    <glyph glyph-name="c" unicode="c" horiz-adv-x="1575" 
d="M1605 159h-1403q-45 0 -68.5 2.5t-30 14.5t3 37t31.5 69l154 304q21 41 35.5 64t33 34t45 13.5t70.5 2.5h209q44 0 68 -3t31.5 -14.5t-0.5 -34.5t-29 -64l-42 -82h-73l63 124h-317l-200 -396h317l68 136h74l-71 -136h1127zM1585 0h-1590l42 83h1590z" />
    <glyph glyph-name="d" unicode="d" horiz-adv-x="1575" 
d="M1605 159h-1138l28 55l-77 -55l-216 -1q-45 0 -68.5 2.5t-30.5 14.5t2.5 36t30.5 66l156 309q21 41 35.5 64t33 34t45 13.5t70.5 2.5h263l67 131h73l-303 -601h1125zM1585 0h-1590l42 83h1590zM386 627l-200 -397h316l201 397h-317z" />
    <glyph glyph-name="e" unicode="e" horiz-adv-x="1575" 
d="M1605 159h-1403q-45 0 -68.5 2.5t-29.5 14.5t3.5 37t31.5 69l153 304q21 41 35.5 64t33 34t45 13.5t70.5 2.5h209q45 0 69 -3t31 -15t-3 -37t-32 -70l-93 -183h-389l-82 -162h316l40 78h72q-5 -10 -12 -23.5t-13 -25.5q-7 -14 -15 -29h1127zM1585 0h-1590l42 83h1590z
M386 626l-86 -170h317l86 170h-317z" />
    <glyph glyph-name="f" unicode="f" horiz-adv-x="1274" 
d="M1304 159h-1227l236 467h-109l37 74h109q24 49 40 75.5t35.5 38.5t47 14t75.5 2h62l-35 -70h-123l-31 -60h120l-35 -72h-121l-200 -398h1215zM1284 0h-1287l42 83h1287z" />
    <glyph glyph-name="g" unicode="g" horiz-adv-x="1575" 
d="M1605 159h-1065l-21 -41q-21 -43 -36.5 -66.5t-34 -35t-45 -14t-71.5 -2.5h-338l42 83h393l38 76h-265q-45 0 -69 3t-30 15.5t3.5 37t31.5 67.5l154 304q21 41 35.5 64t33 34t45 13.5t70.5 2.5h209l26 -57l28 57h73l-236 -470h1125zM1585 0h-1054l42 83h1054zM386 626
l-200 -396h317l199 396h-316z" />
    <glyph glyph-name="h" unicode="h" horiz-adv-x="1575" 
d="M1605 159h-1136l236 467h-316l-236 -467h-74l339 672h74l-65 -131h264q45 0 69 -2.5t31 -14t-2.5 -35t-30.5 -66.5l-178 -352h1121zM1585 0h-1586l42 83h1586z" />
    <glyph glyph-name="i" unicode="i" horiz-adv-x="1186" 
d="M458 760h-74l36 73h75zM1216 159h-1136l236 467h-112l37 74h187l-238 -470h1122zM1196 0h-1196l42 83h1195z" />
    <glyph glyph-name="j" unicode="j" horiz-adv-x="1186" 
d="M458 760h-74l36 73h75zM1216 159h-1061l-22 -44q-21 -42 -35.5 -64.5t-31 -33.5t-40 -13.5t-62.5 -3.5h-56l43 83h91l274 543h-112l37 74h187l-237 -470h1121zM1196 0h-1053l42 83h1053z" />
    <glyph glyph-name="k" unicode="k" horiz-adv-x="1489" 
d="M1519 159h-1088l-139 271l-137 -271h-75l338 669h74l-176 -349l338 221h116l-405 -260l103 -210h1147zM1499 0h-1499l42 83h1499z" />
    <glyph glyph-name="l" unicode="l" horiz-adv-x="1185" 
d="M1215 159h-1135l338 669h74l-303 -598h1122zM1195 0h-1195l42 83h1195z" />
    <glyph glyph-name="m" unicode="m" horiz-adv-x="1826" 
d="M1856 159h-1137l236 467h-244l-236 -467h-76l236 467h-248l-236 -467h-75l236 467h-108l37 74h183l-27 -55l76 55h274l-27 -55l76 55h152q42 0 64 -3t28 -15.5t-3.5 -37.5t-31.5 -69l-175 -345h1122zM1836 0h-1840l42 83h1840z" />
    <glyph glyph-name="n" unicode="n" horiz-adv-x="1575" 
d="M1605 159h-1135v1q3 5 29 56q11 22 28 55.5t42 83t58.5 116t78.5 155.5h-317l-236 -467h-76l236 467h-109l37 74h185l-29 -57l76 57h217q45 0 69 -3t30.5 -15.5t-3 -37.5t-31.5 -69l-174 -345h1120zM1585 0h-1588l42 83h1588z" />
    <glyph glyph-name="o" unicode="o" horiz-adv-x="1575" 
d="M1605 159h-1403q-45 0 -69 2.5t-30.5 14.5t2.5 37t32 69l155 304q21 41 35.5 64t33 34t45 13.5t70.5 2.5h209q45 0 69 -3t31 -15.5t-3 -37.5t-32 -69l-176 -345h1127zM1585 0h-1590l42 83h1590zM386 626l-200 -396h317l200 396h-317z" />
    <glyph glyph-name="p" unicode="p" horiz-adv-x="1575" 
d="M1605 159h-1451l-81 -159h-74l317 626h-112l37 74h187l-29 -57l76 57h215q45 0 69 -3t31 -15t-2 -36t-31 -67l-177 -349h1121zM1585 0h-1428l42 83h1428zM391 626l-200 -396h315l200 396h-315z" />
    <glyph glyph-name="q" unicode="q" horiz-adv-x="1575" 
d="M1605 159h-1065l-38 -76h1125l-42 -83h-1200l81 159h-264q-45 0 -69 3t-30 15.5t3.5 37t31.5 67.5l154 304q21 41 35.5 64t33 34t45 13.5t70.5 2.5h214l21 -57l28 57h73l-236 -470h1125zM313 0h-318l42 83h318zM386 626l-200 -396h316l200 396h-316z" />
    <glyph glyph-name="r" unicode="r" horiz-adv-x="1511" 
d="M1541 159h-1307l35 71h1368zM670 469h-74l79 157h-284l-236 -467h-75l236 467h-112l37 74h187l-28 -55l76 55h181q46 0 70.5 -3t31 -15.5t-3.5 -37.5t-32 -69zM1521 0h-1521l42 83h1521z" />
    <glyph glyph-name="s" unicode="s" horiz-adv-x="1575" 
d="M1605 159h-1414q-43 0 -65.5 3t-28.5 15t4 37t32 69l17 34h76l-43 -87h321l81 162h-271q-43 0 -66 2.5t-29 14t3.5 35t30.5 65.5l39 77q21 41 35.5 64t33 34t45 13.5t70.5 2.5h214q43 0 66 -2.5t29.5 -14t-2 -33.5t-28.5 -61l-19 -39h-75l38 75h-312l-85 -169h270
q43 0 66 -2.5t29 -14.5t-3.5 -35.5t-30.5 -65.5l-54 -108h1122zM1585 0h-1590l42 83h1590z" />
    <glyph glyph-name="t" unicode="t" horiz-adv-x="1337" 
d="M1367 159h-1161q-46 0 -71 2.5t-32 14t2 35.5t30 67l176 348h-107l37 74h107l66 131h73l-67 -131h190l-36 -73h-190l-201 -397h1279zM1347 0h-1352l42 83h1351z" />
    <glyph glyph-name="u" unicode="u" horiz-adv-x="1575" 
d="M1605 159h-1133l28 55l-77 -55h-216q-45 0 -69 2.5t-30.5 14.5t3 37t31.5 69l174 344h-112l37 74h186l-236 -470h317l236 470h76l-237 -470h1118zM1585 0h-1590l42 83h1590z" />
    <glyph glyph-name="v" unicode="v" horiz-adv-x="1359" 
d="M1389 159h-1296l46 467h-95l37 74h136l-51 -445h6l398 445h90l-427 -470h1252zM1369 0h-1534l42 83h1534z" />
    <glyph glyph-name="w" unicode="w" horiz-adv-x="1707" 
d="M1737 159h-1265l65 425h-6l-364 -425h-73l69 467h-91l37 74h139l-72 -437h4l366 437h75l-67 -437l370 437h86l-403 -470h1226zM1717 0h-1854l42 83h1854z" />
    <glyph glyph-name="x" unicode="x" horiz-adv-x="1543" 
d="M1573 159h-1107l-60 230l-281 -230h-100l359 298l-48 169h-164l37 74h190l44 -198l243 198h115l-335 -265l60 -205h1143zM1553 0h-1590l42 83h1590z" />
    <glyph glyph-name="y" unicode="y" horiz-adv-x="1575" 
d="M1605 159h-1060l-21 -41q-21 -43 -36.5 -66.5t-34 -35t-45 -14t-71.5 -2.5h-342l42 83h396l39 76h-269q-45 0 -69.5 2.5t-31 14t3 35.5t31.5 67l175 348h-108l37 74h184l-238 -470h321l236 470h73l-236 -470h1120zM1585 0h-1043l42 83h1043z" />
    <glyph glyph-name="z" unicode="z" horiz-adv-x="1535" 
d="M1565 159h-1490l36 72l515 394l-422 1l37 74h534l-36 -75l-519 -395h1441zM1545 0h-1550l42 83h1550z" />
    <glyph glyph-name="bar" unicode="|" horiz-adv-x="1122" 
d="M1152 0h-1153l354 700h85l-312 -617h1068z" />
    <glyph glyph-name="asciitilde" unicode="~" horiz-adv-x="1574" 
d="M659 371q-17 -34 -31 -54t-30.5 -30.5t-38.5 -13.5t-55 -3h-68q-31 0 -48.5 1.5t-23.5 9t-1.5 22t18.5 41.5l17 34h-134l-58 -113l-60 20l30 59q18 36 31 56.5t29 30.5t38.5 12.5t60.5 2.5h60q31 0 49.5 -1t25 -8.5t2 -23.5t-19.5 -45l-15 -31h134l57 112l60 -20z" />
    <glyph glyph-name="uni00A0" unicode="&#xa0;" horiz-adv-x="1723" 
d="M1733 0h-1736l42 83h1736z" />
    <glyph glyph-name="exclamdown" unicode="&#xa1;" horiz-adv-x="1177" 
d="M404 610h-104l46 90h104zM1207 0h-1206l180 357l120 183h30l-65 -183l-138 -274h1121z" />
    <glyph glyph-name="cent" unicode="&#xa2;" horiz-adv-x="1556" 
d="M1585 0h-1291l-46 -92h-85l47 92h-79q-45 0 -69.5 3t-31.5 15.5t2 37.5t31 69l227 450q22 44 38 69t35 37.5t47 15.5t74 3h79l46 92h84l-46 -92h89q45 0 70 -3t31.5 -15t-3 -37t-31.5 -70l-58 -115h-84l80 157h-346l-269 -534h345l88 174h84l-88 -174h1072z" />
    <glyph glyph-name="sterling" unicode="&#xa3;" horiz-adv-x="1661" 
d="M1691 0h-1721l41 83h95l117 232h-67l42 83h67l89 177q22 45 38.5 70t35.5 37t46 15t71 3h251q44 0 68 -3t30.5 -15t-3 -37t-31.5 -70l-58 -115h-82l80 159h-341l-112 -221h212l-42 -83h-211l-118 -232h341l88 174h83l-88 -174h1121z" />
    <glyph glyph-name="yen" unicode="&#xa5;" horiz-adv-x="1530" 
d="M1560 0h-1383l82 164l6 152h-146l42 82h107l9 219h-103l41 83h155l-31 -432h2l405 432h114l-292 -302h134l-41 -82h-173l-146 -151l-42 -82h1301z" />
    <glyph glyph-name="brokenbar" unicode="&#xa6;" horiz-adv-x="1122" 
d="M298 424h-84l139 276h85zM1152 0h-1153l158 312h85l-116 -229h1068z" />
    <glyph glyph-name="dieresis" unicode="&#xa8;" horiz-adv-x="1608" 
d="M802 751h-101l44 87h101zM565 751h-101l44 87h101z" />
    <glyph glyph-name="copyright" unicode="&#xa9;" horiz-adv-x="1843" 
d="M1873 0h-1749q-42 0 -65.5 3t-30 15t2.5 36.5t31 67.5l296 587q21 43 36.5 67.5t34 36.5t44.5 15t70 3h504q43 0 66.5 -3t30 -15t-2.5 -36.5t-31 -67.5l-315 -626h1121zM457 760l-341 -677h606l340 677h-605zM848 497l-86 -24l60 119h-294l-178 -352h294l67 131l61 -24
l-29 -58q-22 -43 -37 -67t-33 -36t-43 -14.5t-67 -2.5h-199q-42 0 -64.5 2.5t-28.5 14.5t3.5 36t31.5 67l127 254q22 43 37 67t32.5 36t43 14.5t67.5 2.5h199q41 0 63.5 -2.5t29.5 -13t-1.5 -33t-28.5 -62.5z" />
    <glyph glyph-name="ordfeminine" unicode="&#xaa;" 
d="M626 334h-73l27 52l-76 -52h-214q-45 0 -69 2.5t-30.5 14.5t3 37t32.5 69l60 119q22 45 37.5 70t34 37t45.5 14.5t72 2.5h335zM1585 0h-1588l42 83h1588zM360 159h-103l45 93h104zM387 628l-113 -223h315l112 223h-314z" />
    <glyph glyph-name="guillemotleft" unicode="&#xab;" horiz-adv-x="1416" 
d="M443 410l18 -251h-87l-20 276l278 265h101zM287 410l19 -251h-87l-21 275l278 266h102zM1446 0h-1449l42 83h1449z" />
    <glyph glyph-name="registered" unicode="&#xae;" horiz-adv-x="1843" 
d="M1873 0h-1749q-42 0 -65.5 3t-30 15t2.5 36.5t31 67.5l296 587q21 43 36.5 67.5t34 36.5t44.5 15t70 3h504q43 0 66.5 -3t30 -15t-2.5 -36.5t-31 -67.5l-315 -626h1121zM457 760l-341 -677h606l340 677h-605zM844 496q-17 -34 -28.5 -53t-25.5 -28.5t-34 -12t-53 -2.5
h-184l165 -235h-82l-153 221l16 31h-24l-127 -252h-73l252 498h338q34 0 52 -2t23.5 -11.5t-1.5 -28.5t-24 -53zM529 590l-65 -128h289l65 128h-289z" />
    <glyph glyph-name="macron" unicode="&#xaf;" horiz-adv-x="1608" 
d="M802 751h-338l39 78h339z" />
    <glyph glyph-name="degree" unicode="&#xb0;" horiz-adv-x="1450" 
d="M572 423q-24 -47 -40.5 -73t-36 -39t-48 -16t-75.5 -3h-95q-48 0 -73.5 3t-32 15.5t3.5 39t33 73.5l74 145q24 47 40 73.5t35.5 39.5t48 16t76.5 3h95q48 0 73.5 -3t32.5 -16t-3 -39.5t-34 -73.5zM1480 0h-1481l42 83h1481zM388 624l-130 -257h210l130 257h-210z" />
    <glyph glyph-name="acute" unicode="&#xb4;" horiz-adv-x="1599" 
d="M622 762l-44 61l170 111l44 -64z" />
    <glyph glyph-name="paragraph" unicode="&#xb6;" horiz-adv-x="1361" 
d="M1391 0h-1211l204 403h-60q-49 0 -75.5 2.5t-34 15t1.5 37.5t31 70l23 47q22 45 38.5 70t37 37t50 15t78.5 3h148l-311 -617h1121z" />
    <glyph glyph-name="periodcentered" unicode="&#xb7;" horiz-adv-x="1147" 
d="M1177 0h-1180l42 83h1180zM260 310h-104l46 91h104z" />
    <glyph glyph-name="cedilla" unicode="&#xb8;" horiz-adv-x="1563" 
d="M229 -89h-84l65 129h84z" />
    <glyph glyph-name="ordmasculine" unicode="&#xba;" 
d="M689 457q-22 -44 -37.5 -69t-34.5 -37t-45.5 -15t-71.5 -3h-209q-45 0 -69 3t-30.5 15t3 37t32.5 69l60 120q22 45 37.5 69.5t34.5 36.5t46 14.5t72 2.5h208q45 0 69.5 -2.5t30.5 -14.5t-3.5 -36.5t-31.5 -69.5zM1585 0h-1588l42 83h1588zM359 159h-103l45 92h104z
M388 629l-112 -224h314l112 224h-314z" />
    <glyph glyph-name="guillemotright" unicode="&#xbb;" horiz-adv-x="1416" 
d="M318 159h-101l290 291l-18 250h87l20 -275zM1446 0h-1449l42 83h1449zM162 159h-101l290 290l-18 251h87l20 -275z" />
    <glyph glyph-name="questiondown" unicode="&#xbf;" 
d="M620 609h-103l46 91h103zM1585 0h-1464q-47 0 -71.5 3t-31 15t3 37t31.5 69l66 133q22 44 37.5 69t35 37t47.5 15t74 3h99l80 160h84l-76 -151q-16 -31 -30 -49t-33 -27t-45.5 -11.5t-67.5 -2.5h-98l-111 -217h341l72 147h84l-72 -147h1087z" />
    <glyph glyph-name="Agrave" unicode="&#xc0;" 
d="M1585 0h-1107l24 147h-322l-124 -147h-102l124 147h-62l41 83h90l329 387h-119l42 83h275l-100 -617h1053zM581 623l-334 -393h270l65 393h-1zM632 732l-71 123l62 38l70 -125z" />
    <glyph glyph-name="Aacute" unicode="&#xc1;" 
d="M1585 0h-1107l24 147h-322l-124 -147h-102l124 147h-62l41 83h90l329 387h-119l42 83h275l-100 -617h1053zM581 623l-334 -393h270l65 393h-1zM610 746l-44 61l170 110l44 -63z" />
    <glyph glyph-name="Acircumflex" unicode="&#xc2;" 
d="M1585 0h-1107l24 147h-322l-124 -147h-102l124 147h-62l41 83h90l329 387h-119l42 83h275l-100 -617h1053zM581 623l-334 -393h270l65 393h-1zM757 745l-79 135l-214 -135l-37 57l219 137h86l93 -147z" />
    <glyph glyph-name="Atilde" unicode="&#xc3;" 
d="M1585 0h-1107l24 147h-322l-124 -147h-102l124 147h-62l41 83h90l329 387h-119l42 83h275l-100 -617h1053zM581 623l-334 -393h270l65 393h-1zM896 851q-16 -38 -28.5 -58.5t-29 -30t-40.5 -11.5t-62 -2h-62q-31 0 -49.5 0.5t-25 7.5t-2 22.5t19.5 44.5l17 34h-134
l-58 -109h-65l36 75q17 37 30 57.5t28.5 30.5t39 12t61.5 2h60q31 0 49.5 -1.5t25.5 -9t2 -23.5t-20 -45l-16 -30h135l52 102h65z" />
    <glyph glyph-name="Adieresis" unicode="&#xc4;" 
d="M1585 0h-1107l24 147h-322l-124 -147h-102l124 147h-62l41 83h90l329 387h-119l42 83h275l-100 -617h1053zM581 623l-334 -393h270l65 393h-1zM801 751h-101l44 87h101zM564 751h-101l44 87h101z" />
    <glyph glyph-name="Aring" unicode="&#xc5;" 
d="M1585 0h-1107l24 147h-322l-124 -147h-102l124 147h-62l41 83h90l329 387h-119l42 83h275l-100 -617h1053zM581 623l-334 -393h270l65 393h-1zM843 879q-24 -47 -40.5 -73.5t-36 -39t-48 -15.5t-76.5 -3h-32q-48 0 -73.5 3t-32.5 15.5t3 39t34 73.5l16 31q24 47 40 73
t35.5 39t48 15.5t76.5 2.5h33q48 0 73.5 -2.5t32.5 -15.5t-3.5 -39t-34.5 -73zM661 969l-75 -149h155l75 149h-155z" />
    <glyph glyph-name="AE" unicode="&#xc6;" horiz-adv-x="1974" 
d="M2004 0h-1536l74 147h-362l-124 -147h-102l124 147h-62l41 83h90l329 387h-119l42 83h900l-42 -83h-393l-110 -219h351l-42 -83h-351l-118 -232h1452zM581 617l-334 -387h336l196 387h-198z" />
    <glyph glyph-name="Ccedilla" unicode="&#xc7;" 
d="M1585 0h-1286l-45 -89h-84l45 89h-84q-45 0 -69.5 3t-31.5 15.5t2 37.5t31 69l227 450q22 44 38 69t35 37.5t47 15.5t74 3h252q45 0 70 -3t31.5 -15t-3 -37t-31.5 -70l-58 -115h-84l80 157h-346l-269 -534h345l88 174h84l-88 -174h1072z" />
    <glyph glyph-name="Egrave" unicode="&#xc8;" horiz-adv-x="1506" 
d="M1536 0h-1536l159 315h-58l41 83h59l110 219h-112l42 83h590l-42 -83h-393l-110 -219h351l-42 -83h-351l-118 -232h1452zM650 730l-71 123l62 38l69 -125z" />
    <glyph glyph-name="Eacute" unicode="&#xc9;" horiz-adv-x="1506" 
d="M1536 0h-1536l159 315h-58l41 83h59l110 219h-112l42 83h590l-42 -83h-393l-110 -219h351l-42 -83h-351l-118 -232h1452zM604 744l-44 61l171 110l43 -63z" />
    <glyph glyph-name="Ecircumflex" unicode="&#xca;" horiz-adv-x="1506" 
d="M1536 0h-1536l159 315h-58l41 83h59l110 219h-112l42 83h590l-42 -83h-393l-110 -219h351l-42 -83h-351l-118 -232h1452zM758 744l-79 135l-214 -135l-37 56l219 138h86l93 -147z" />
    <glyph glyph-name="Edieresis" unicode="&#xcb;" horiz-adv-x="1506" 
d="M1536 0h-1536l159 315h-58l41 83h59l110 219h-112l42 83h590l-42 -83h-393l-110 -219h351l-42 -83h-351l-118 -232h1452zM793 751h-102l44 87h101zM555 751h-101l44 87h101z" />
    <glyph glyph-name="Igrave" unicode="&#xcc;" horiz-adv-x="1127" 
d="M1157 0h-1156l311 617h-113l42 83h197l-311 -617h1072zM447 732l-72 123l63 38l69 -125z" />
    <glyph glyph-name="Iacute" unicode="&#xcd;" horiz-adv-x="1127" 
d="M1157 0h-1156l311 617h-113l42 83h197l-311 -617h1072zM400 747l-45 61l171 110l44 -63z" />
    <glyph glyph-name="Icircumflex" unicode="&#xce;" horiz-adv-x="1127" 
d="M1157 0h-1156l311 617h-113l42 83h197l-311 -617h1072zM582 742l-78 136l-215 -136l-37 57l219 137h87l93 -147z" />
    <glyph glyph-name="Idieresis" unicode="&#xcf;" horiz-adv-x="1127" 
d="M557 751h-101l44 87h101zM391 751h-101l43 87h101zM1157 0h-1156l311 617h-113l42 83h197l-311 -617h1072z" />
    <glyph glyph-name="Eth" unicode="&#xd0;" 
d="M1585 0h-1585l159 315h-79l42 83h79l110 219h-112l42 83h496q45 0 70 -3t32 -15t-2.5 -37t-31.5 -70l-249 -492h1071zM396 619l-111 -221h162l-42 -83h-162l-117 -232h345l270 536h-345z" />
    <glyph glyph-name="Ntilde" unicode="&#xd1;" 
d="M1585 0h-1150l-63 571l-288 -571h-84l311 617h-112l42 83h195l66 -575l290 575h84l-311 -617h1062zM928 850q-17 -37 -29.5 -57.5t-28.5 -30t-39.5 -11.5t-61.5 -2h-63q-31 0 -49 0.5t-24.5 7.5t-2 22t19.5 45l17 33h-134l-59 -108h-65l36 75q18 36 30.5 56.5t28.5 30.5
t39.5 12t61.5 2h60q31 0 49 -1t24.5 -8.5t2 -23.5t-19.5 -45l-15 -31h135l51 102h66z" />
    <glyph glyph-name="Ograve" unicode="&#xd2;" 
d="M1585 0h-988l42 83h988zM576 125q-22 -44 -38 -69t-35.5 -37.5t-47 -15.5t-72.5 -3h-252q-45 0 -69.5 3t-31.5 15.5t2 37.5t31 69l227 450q22 44 38 69t35 37.5t47 15.5t74 3h252q45 0 70 -3t31.5 -15t-3 -37t-31.5 -70zM396 619l-271 -536h345l271 536h-345zM667 734
l-72 123l63 38l69 -125z" />
    <glyph glyph-name="Oacute" unicode="&#xd3;" 
d="M1585 0h-988l42 83h988zM576 125q-22 -44 -38 -69t-35.5 -37.5t-47 -15.5t-72.5 -3h-252q-45 0 -69.5 3t-31.5 15.5t2 37.5t31 69l227 450q22 44 38 69t35 37.5t47 15.5t74 3h252q45 0 70 -3t31.5 -15t-3 -37t-31.5 -70zM396 619l-271 -536h345l271 536h-345zM609 745
l-44 61l170 110l44 -63z" />
    <glyph glyph-name="Ocircumflex" unicode="&#xd4;" 
d="M1585 0h-988l42 83h988zM576 125q-22 -44 -38 -69t-35.5 -37.5t-47 -15.5t-72.5 -3h-252q-45 0 -69.5 3t-31.5 15.5t2 37.5t31 69l227 450q22 44 38 69t35 37.5t47 15.5t74 3h252q45 0 70 -3t31.5 -15t-3 -37t-31.5 -70zM396 619l-271 -536h345l271 536h-345zM801 746
l-79 135l-214 -135l-37 56l219 138h87l93 -147z" />
    <glyph glyph-name="Otilde" unicode="&#xd5;" 
d="M1585 0h-988l42 83h988zM576 125q-22 -44 -38 -69t-35.5 -37.5t-47 -15.5t-72.5 -3h-252q-45 0 -69.5 3t-31.5 15.5t2 37.5t31 69l227 450q22 44 38 69t35 37.5t47 15.5t74 3h252q45 0 70 -3t31.5 -15t-3 -37t-31.5 -70zM396 619l-271 -536h345l271 536h-345zM924 851
q-16 -38 -28.5 -58.5t-29 -30t-40 -11.5t-61.5 -2h-63q-31 0 -49 0.5t-24 7.5t-1.5 22t18.5 45l16 34h-134l-58 -109h-65l36 75q17 37 30 57.5t29 30.5t39 12t61 2h60q31 0 49.5 -1t25 -8.5t2 -23.5t-19.5 -46l-15 -30h134l52 102h65z" />
    <glyph glyph-name="Odieresis" unicode="&#xd6;" 
d="M1585 0h-988l42 83h988zM576 125q-22 -44 -38 -69t-35.5 -37.5t-47 -15.5t-72.5 -3h-252q-45 0 -69.5 3t-31.5 15.5t2 37.5t31 69l227 450q22 44 38 69t35 37.5t47 15.5t74 3h252q45 0 70 -3t31.5 -15t-3 -37t-31.5 -70zM396 619l-271 -536h345l271 536h-345zM808 751
h-101l44 87h101zM571 751h-101l44 87h101z" />
    <glyph glyph-name="multiply" unicode="&#xd7;" horiz-adv-x="1441" 
d="M1471 0h-1472l42 83h1472zM438 347l70 -141l-78 -52l-70 141l-212 -141l-40 76l212 141l-73 146l78 52l73 -146l228 151l40 -76z" />
    <glyph glyph-name="Oslash" unicode="&#xd8;" 
d="M1585 0h-988l42 83h988zM713 700h23q45 0 70 -3t31.5 -15t-3 -37t-31.5 -70l-227 -450q-22 -44 -38 -69t-35.5 -37.5t-47 -15.5t-72.5 -3h-136l-100 -94h-93l100 94h-23q-45 0 -69.5 3t-31.5 15.5t2 37.5t31 69l227 450q22 44 38 69t35 37.5t47 15.5t74 3h136l98 92h92z
M396 619l-271 -536h345l271 536h-345z" />
    <glyph glyph-name="Ugrave" unicode="&#xd9;" 
d="M1585 0h-1454q-45 0 -69.5 3t-31.5 15.5t2 37.5t31 69l248 492h-112l42 83h197l-313 -617h346l312 617h84l-313 -617h1073zM662 732l-71 123l63 38l69 -125z" />
    <glyph glyph-name="Uacute" unicode="&#xda;" 
d="M1585 0h-1454q-45 0 -69.5 3t-31.5 15.5t2 37.5t31 69l248 492h-112l42 83h197l-313 -617h346l312 617h84l-313 -617h1073zM605 747l-44 61l171 110l44 -63z" />
    <glyph glyph-name="Ucircumflex" unicode="&#xdb;" 
d="M1585 0h-1454q-45 0 -69.5 3t-31.5 15.5t2 37.5t31 69l248 492h-112l42 83h197l-313 -617h346l312 617h84l-313 -617h1073zM799 745l-79 135l-215 -135l-36 57l219 137h86l93 -147z" />
    <glyph glyph-name="Udieresis" unicode="&#xdc;" 
d="M1585 0h-1454q-45 0 -69.5 3t-31.5 15.5t2 37.5t31 69l248 492h-112l42 83h197l-313 -617h346l312 617h84l-313 -617h1073zM805 749h-101l44 87h101zM567 749h-101l44 87h101z" />
    <glyph glyph-name="Yacute" unicode="&#xdd;" horiz-adv-x="1475" 
d="M1505 0h-1383l83 164l17 453h-103l42 83h154l-30 -432h2l405 432h114l-519 -535l-41 -82h1301zM527 763l-44 61l171 110l43 -63z" />
    <glyph glyph-name="Thorn" unicode="&#xde;" 
d="M1585 0h-1417l42 83h1417zM673 343q-23 -45 -39 -70t-35.5 -37t-47 -15t-72.5 -3h-285l-110 -218h-84l110 218h-58l41 82h59l125 249h-113l42 82h113l35 70h84l-35 -70h284q45 0 70 -2.5t32 -15t-2.5 -37.5t-31.5 -70zM362 550l-126 -250h329l126 250h-329z" />
    <glyph glyph-name="germandbls" unicode="&#xdf;" horiz-adv-x="1703" 
d="M1753 159h-1414q-43 0 -65.5 3t-28 15t4.5 37t31 69l5 11l88 23l-43 -87h321l81 162h-271q-43 0 -66 2.5t-29 14t3 35t30 65.5l36 70q21 42 35.5 66t32 36t43 15.5t68.5 3.5h135l32 62h-328l-305 -603h-72l236 471h-98l36 70h98l8 16q21 42 36 65t32.5 34.5t42.5 13.5
t67 2h238q43 0 65.5 -3.5t29.5 -13.5t0.5 -28t-21.5 -48l-8 -16q-15 -29 -27.5 -46.5t-29.5 -27.5t-43 -13t-68 -3h-134l-87 -176h270q43 0 66 -3t29 -14.5t-3.5 -35t-30.5 -65.5l-56 -109l1 1h1122zM1733 0h-1736l42 83h1735z" />
    <glyph glyph-name="agrave" unicode="&#xe0;" horiz-adv-x="1575" 
d="M636 731l-71 123l62 38l70 -125zM1606 159h-1140l27 55l-71 -55h-226q-42 0 -65 2.5t-29 14.5t3 36t30 66l30 61q21 42 35.5 65.5t32.5 35.5t43.5 14.5t68.5 2.5h271l85 168h-498l38 75h452q43 0 65.5 -3.5t28.5 -15.5t-3 -35.5t-30 -65.5l-176 -350h1124zM1585 0h-1590
l42 83h1590zM268 393l-81 -163h315l82 163h-316z" />
    <glyph glyph-name="aacute" unicode="&#xe1;" horiz-adv-x="1575" 
d="M1606 159h-1140l27 55l-71 -55h-226q-42 0 -65 2.5t-29 14.5t3 36t30 66l30 61q21 42 35.5 65.5t32.5 35.5t43.5 14.5t68.5 2.5h271l85 168h-498l38 75h452q43 0 65.5 -3.5t28.5 -15.5t-3 -35.5t-30 -65.5l-176 -350h1124zM1585 0h-1590l42 83h1590zM268 393l-81 -163
h315l82 163h-316zM581 740l-44 61l171 110l44 -63z" />
    <glyph glyph-name="acircumflex" unicode="&#xe2;" horiz-adv-x="1575" 
d="M1606 159h-1140l27 55l-71 -55h-226q-42 0 -65 2.5t-29 14.5t3 36t30 66l30 61q21 42 35.5 65.5t32.5 35.5t43.5 14.5t68.5 2.5h271l85 168h-498l38 75h452q43 0 65.5 -3.5t28.5 -15.5t-3 -35.5t-30 -65.5l-176 -350h1124zM1585 0h-1590l42 83h1590zM268 393l-81 -163
h315l82 163h-316zM771 739l-79 135l-214 -135l-37 56l219 138h86l93 -147z" />
    <glyph glyph-name="atilde" unicode="&#xe3;" horiz-adv-x="1575" 
d="M1606 159h-1140l27 55l-71 -55h-226q-42 0 -65 2.5t-29 14.5t3 36t30 66l30 61q21 42 35.5 65.5t32.5 35.5t43.5 14.5t68.5 2.5h271l85 168h-498l38 75h452q43 0 65.5 -3.5t28.5 -15.5t-3 -35.5t-30 -65.5l-176 -350h1124zM1585 0h-1590l42 83h1590zM268 393l-81 -163
h315l82 163h-316zM877 855q-16 -36 -28 -56t-27.5 -29.5t-37.5 -11.5t-58 -2h-58q-29 0 -46 0.5t-23 7.5t-1.5 21.5t19.5 43.5l16 33h-125l-56 -106h-61l35 73q17 36 29.5 56t27.5 29.5t36.5 11.5t57.5 2h56q29 0 46 -1t23 -8.5t1 -23t-19 -43.5l-15 -30h125l51 100h61z" />
    <glyph glyph-name="adieresis" unicode="&#xe4;" horiz-adv-x="1575" 
d="M1606 160l-1140 -1l27 55l-71 -55h-226q-42 0 -65 2.5t-29 14.5t3 36t30 66l30 61q21 42 35.5 65.5t32.5 35.5t43.5 14.5t68.5 2.5h271l85 168h-498l38 75h452q43 0 65.5 -3.5t28.5 -15.5t-3 -35.5t-30 -65.5l-176 -350h1124zM1585 0h-1590l42 83h1590zM268 393l-81 -163
h315l82 163h-316zM782 749h-101l44 87h101zM545 749h-101l44 87h101z" />
    <glyph glyph-name="aring" unicode="&#xe5;" horiz-adv-x="1575" 
d="M1606 159h-1140l27 55l-71 -55h-226q-42 0 -65 2.5t-29 14.5t3 36t30 66l30 61q21 42 35.5 65.5t32.5 35.5t43.5 14.5t68.5 2.5h271l85 168h-498l38 75h452q43 0 65.5 -3t28.5 -15t-3 -36t-30 -66l-176 -350h1124zM1585 0h-1590l42 83h1590zM268 393l-81 -163h315l82 163
h-316zM829 884q-24 -47 -40.5 -73.5t-36 -39t-48 -15.5t-75.5 -3h-33q-47 0 -72.5 3t-32.5 15.5t3 39t34 73.5l15 30q24 47 40 73.5t35.5 39t48 15.5t76.5 3h33q48 0 73.5 -3t32.5 -15.5t-3.5 -39t-34.5 -73.5zM648 974l-76 -150h155l75 150h-154z" />
    <glyph glyph-name="ae" unicode="&#xe6;" horiz-adv-x="1945" 
d="M1996 159h-1794q-45 0 -69 2.5t-30.5 14.5t3 37t31.5 69l148 293q22 44 37.5 69t34 37.5t45.5 15.5t72 3h602q70 0 91 -11q17 -10 9 -35t-36 -79l-92 -183h-1h-389l-81 -162h315l40 78h1h71l1 1t-2 -5t-11.5 -22.5t-26.5 -51.5h1126zM1976 0h-1981l42 83h1980zM777 626
l-83 -164h316l83 164h-316zM386 626l-200 -396h317l200 396h-317z" />
    <glyph glyph-name="ccedilla" unicode="&#xe7;" horiz-adv-x="1575" 
d="M1605 159h-1403q-45 0 -68.5 2.5t-30 14.5t3 37t31.5 69l154 304q21 41 35.5 64t33 34t45 13.5t70.5 2.5h209q44 0 68 -3t31.5 -14.5t-0.5 -34.5t-29 -64l-42 -82h-73l63 124h-317l-200 -396h317l68 136h74l-71 -136h1127zM1585 0h-1311l-45 -89h-84l45 89h-195l42 83
h1590z" />
    <glyph glyph-name="egrave" unicode="&#xe8;" horiz-adv-x="1575" 
d="M634 726l-71 123l62 38l70 -125zM1605 159h-1403q-45 0 -68.5 2.5t-29.5 14.5t3.5 37t31.5 69l153 304q21 41 35.5 64t33 34t45 13.5t70.5 2.5h209q45 0 69 -3t31 -15t-3 -37t-32 -70l-93 -183h-389l-82 -162h316l40 78h72q-5 -10 -12 -23.5t-13 -25.5q-7 -14 -15 -29
h1127zM1585 0h-1590l42 83h1590zM386 626l-86 -170h317l86 170h-317z" />
    <glyph glyph-name="eacute" unicode="&#xe9;" horiz-adv-x="1575" 
d="M1605 159h-1403q-45 0 -68.5 2.5t-29.5 14.5t3.5 37t31.5 69l153 304q21 41 35.5 64t33 34t45 13.5t70.5 2.5h209q45 0 69 -3t31 -15t-3 -37t-32 -70l-93 -183h-389l-82 -162h316l40 78h72q-5 -10 -12 -23.5t-13 -25.5q-7 -14 -15 -29h1127zM1585 0h-1590l42 83h1590z
M386 626l-86 -170h317l86 170h-317zM579 744l-44 61l170 110l44 -63z" />
    <glyph glyph-name="ecircumflex" unicode="&#xea;" horiz-adv-x="1575" 
d="M1605 159h-1403q-45 0 -68.5 2.5t-29.5 14.5t3.5 37t31.5 69l153 304q21 41 35.5 64t33 34t45 13.5t70.5 2.5h209q45 0 69 -3t31 -15t-3 -37t-32 -70l-93 -183h-389l-82 -162h316l40 78h72q-5 -10 -12 -23.5t-13 -25.5q-7 -14 -15 -29h1127zM1585 0h-1590l42 83h1590z
M386 626l-86 -170h317l86 170h-317zM768 742l-79 135l-214 -136l-37 57l219 138h87l93 -147z" />
    <glyph glyph-name="edieresis" unicode="&#xeb;" horiz-adv-x="1575" 
d="M1605 159h-1403q-45 0 -68.5 2.5t-29.5 14.5t3.5 37t31.5 69l153 304q21 41 35.5 64t33 34t45 13.5t70.5 2.5h209q45 0 69 -3t31 -15t-3 -37t-32 -70l-93 -183h-389l-82 -162h316l40 78h72q-5 -10 -12 -23.5t-13 -25.5q-7 -14 -15 -29h1127zM1585 0h-1590l42 83h1590z
M386 626l-86 -170h317l86 170h-317zM780 750h-101l44 87h101zM543 750h-101l43 87h101z" />
    <glyph glyph-name="igrave" unicode="&#xec;" horiz-adv-x="1186" 
d="M426 724l-58 125l59 39l56 -127zM1216 159h-1136l236 467h-112l37 74h187l-238 -470h1122zM1196 0h-1196l42 83h1195z" />
    <glyph glyph-name="iacute" unicode="&#xed;" horiz-adv-x="1186" 
d="M386 743l-38 59l158 106l37 -61zM1216 159h-1136l236 467h-112l37 74h187l-238 -470h1122zM1196 0h-1196l42 83h1195z" />
    <glyph glyph-name="icircumflex" unicode="&#xee;" horiz-adv-x="1186" 
d="M1216 159h-1136l236 467h-112l37 74h187l-238 -470h1122zM1196 0h-1196l42 83h1195zM572 745l-73 129l-202 -129l-34 54l206 131h81l86 -140z" />
    <glyph glyph-name="idieresis" unicode="&#xef;" horiz-adv-x="1186" 
d="M552 756h-101l44 87h101zM390 756h-101l44 87h101zM1216 159h-1136l236 467h-112l37 74h187l-238 -470h1122zM1196 0h-1196l42 83h1195z" />
    <glyph glyph-name="eth" unicode="&#xf0;" horiz-adv-x="1575" 
d="M1605 159h-1138l28 55l-77 -55h-216q-45 0 -68.5 2.5t-30.5 14t2.5 35.5t30.5 66l156 309q21 41 35.5 64t33 34t45 13.5t70.5 2.5h263l67 131h73l-182 -360h77l-36 -71h-77l-85 -170h1125zM1585 0h-1590l42 83h1590zM386 627l-200 -397h316l86 170h-165l36 71h165l79 156
h-317z" />
    <glyph glyph-name="ntilde" unicode="&#xf1;" horiz-adv-x="1575" 
d="M1605 159h-1135v1q3 5 29 56q11 22 28 55.5t42 83t58.5 116t78.5 155.5h-317l-236 -467h-76l236 467h-109l37 74h185l-29 -57l76 57h217q45 0 69 -3t30.5 -15.5t-3 -37.5t-31.5 -69l-174 -345h1120zM1585 0h-1588l42 83h1588zM880 853q-16 -37 -28 -57t-28 -29.5
t-38 -11.5t-57 -2h-58q-29 0 -46 0.5t-22.5 7.5t-1 22t19.5 44l17 34h-125l-57 -108h-61l36 74q17 36 29.5 56.5t28 30.5t37 12t56.5 2h56q28 0 45 -1t23 -8.5t1.5 -23.5t-19.5 -45l-15 -30h125l51 101h61z" />
    <glyph glyph-name="ograve" unicode="&#xf2;" horiz-adv-x="1575" 
d="M638 731l-72 123l63 38l69 -125zM1605 159h-1403q-45 0 -69 2.5t-30.5 14.5t2.5 37t32 69l155 304q21 41 35.5 64t33 34t45 13.5t70.5 2.5h209q45 0 69 -3t31 -15.5t-3 -37.5t-32 -69l-176 -345h1127zM1585 0h-1590l42 83h1590zM386 626l-200 -396h317l200 396h-317z" />
    <glyph glyph-name="oacute" unicode="&#xf3;" horiz-adv-x="1575" 
d="M1605 159h-1403q-45 0 -69 2.5t-30.5 14.5t2.5 37t32 69l155 304q21 41 35.5 64t33 34t45 13.5t70.5 2.5h209q45 0 69 -3t31 -15.5t-3 -37.5t-32 -69l-176 -345h1127zM1585 0h-1590l42 83h1590zM386 626l-200 -396h317l200 396h-317zM581 739l-44 61l171 110l44 -63z" />
    <glyph glyph-name="ocircumflex" unicode="&#xf4;" horiz-adv-x="1575" 
d="M1605 159h-1403q-45 0 -69 2.5t-30.5 14.5t2.5 37t32 69l155 304q21 41 35.5 64t33 34t45 13.5t70.5 2.5h209q45 0 69 -3t31 -15.5t-3 -37.5t-32 -69l-176 -345h1127zM1585 0h-1590l42 83h1590zM386 626l-200 -396h317l200 396h-317zM762 734l-82 127l-208 -127l-38 53
l213 129h85l96 -138z" />
    <glyph glyph-name="otilde" unicode="&#xf5;" horiz-adv-x="1575" 
d="M1605 159h-1403q-45 0 -69 2.5t-30.5 14.5t2.5 37t32 69l155 304q21 41 35.5 64t33 34t45 13.5t70.5 2.5h209q45 0 69 -3t31 -15.5t-3 -37.5t-32 -69l-176 -345h1127zM1585 0h-1590l42 83h1590zM386 626l-200 -396h317l200 396h-317zM869 839q-14 -33 -25 -50.5t-26 -26
t-37 -10t-57 -1.5h-58q-29 0 -45.5 0.5t-22.5 6.5t-2.5 19t16.5 39l15 29h-124l-51 -94h-60l31 65q15 32 26.5 49t26 25t36 9t56.5 1h55q29 0 46 -0.5t23 -6t2.5 -19t-16.5 -38.5l-14 -26h125l45 90h60z" />
    <glyph glyph-name="odieresis" unicode="&#xf6;" horiz-adv-x="1575" 
d="M1605 159h-1403q-45 0 -69 2.5t-30.5 14.5t2.5 37t32 69l155 304q21 41 35.5 64t33 34t45 13.5t70.5 2.5h209q45 0 69 -3t31 -15.5t-3 -37.5t-32 -69l-176 -345h1127zM1585 0h-1590l42 83h1590zM386 626l-200 -396h317l200 396h-317zM782 755h-101l44 87h101zM545 755
h-101l44 87h101z" />
    <glyph glyph-name="divide" unicode="&#xf7;" horiz-adv-x="1641" 
 />
    <glyph glyph-name="oslash" unicode="&#xf8;" 
d="M1605 159h-1297l-80 -76h1399l-42 -83h-1590l42 83h106l80 76h-21q-45 0 -69 2.5t-30.5 14.5t3 37t31.5 69l148 293q22 45 37.5 70t34.5 37t46 15t72 3h98l100 93h85l-101 -93h28q45 0 69.5 -3t31 -15.5t-3.5 -37.5t-32 -69l-176 -345h1127zM386 626l-200 -396h317
l200 396h-317z" />
    <glyph glyph-name="ugrave" unicode="&#xf9;" horiz-adv-x="1575" 
d="M638 728l-72 124l63 38l69 -126zM1605 159h-1133l28 55l-77 -55h-216q-45 0 -69 2.5t-30.5 14.5t3 37t31.5 69l174 344h-112l37 74h186l-236 -470h317l236 470h76l-237 -470h1118zM1585 0h-1590l42 83h1590z" />
    <glyph glyph-name="uacute" unicode="&#xfa;" horiz-adv-x="1575" 
d="M1605 159h-1133l28 55l-77 -55h-216q-45 0 -69 2.5t-30.5 14.5t3 37t31.5 69l174 344h-112l37 74h186l-236 -470h317l236 470h76l-237 -470h1118zM1585 0h-1590l42 83h1590zM586 745l-44 61l170 110l44 -63z" />
    <glyph glyph-name="ucircumflex" unicode="&#xfb;" horiz-adv-x="1575" 
d="M1605 159h-1133l28 55l-77 -55h-216q-45 0 -69 2.5t-30.5 14.5t3 37t31.5 69l174 344h-112l37 74h186l-236 -470h317l236 470h76l-237 -470h1118zM1585 0h-1590l42 83h1590zM770 741l-81 132l-213 -133l-38 56l218 134h87l95 -144z" />
    <glyph glyph-name="udieresis" unicode="&#xfc;" horiz-adv-x="1575" 
d="M1605 159h-1133l28 55l-77 -55h-216q-45 0 -69 2.5t-30.5 14.5t3 37t31.5 69l174 344h-112l37 74h186l-236 -470h317l236 470h76l-237 -470h1118zM1585 0h-1590l42 83h1590zM787 754h-101l43 87h102zM549 754h-101l44 87h101z" />
    <glyph glyph-name="yacute" unicode="&#xfd;" horiz-adv-x="1583" 
d="M1613 159h-1061l-20 -41q-21 -43 -36.5 -66.5t-34 -35t-45.5 -14t-72 -2.5h-341l42 83h395l39 76h-268q-45 0 -69.5 2.5t-31 14t2.5 35.5t31 67l176 348h-109l37 74h184l-238 -470h321l237 470h73l-237 -470h1120zM1593 0h-1044l42 83h1043zM619 758l-44 61l171 110
l43 -63z" />
    <glyph glyph-name="thorn" unicode="&#xfe;" horiz-adv-x="1575" 
d="M1605 159h-1451l-81 -159h-74q79 156 138.5 275t104 207t74.5 148t50 99q46 92 53 103h75l-95 -189l76 57h215q45 0 69 -3t31 -15t-2 -36t-31 -67l-177 -349h1121zM1585 0h-1428l42 83h1428zM391 626l-200 -396h315l200 396h-315z" />
    <glyph glyph-name="ydieresis" unicode="&#xff;" horiz-adv-x="1583" 
d="M1613 159h-1061l-20 -41q-21 -43 -36.5 -66.5t-34 -35t-45.5 -14t-72 -2.5h-341l42 83h395l39 76h-268q-45 0 -69.5 2.5t-31 14t2.5 35.5t31 67l176 348h-109l37 74h184l-238 -470h321l237 470h73l-237 -470h1120zM1593 0h-1044l42 83h1043zM791 753h-101l44 87h101z
M554 753h-101l44 87h101z" />
    <glyph glyph-name="dotlessi" unicode="&#x131;" horiz-adv-x="1186" 
d="M1216 159h-1136l236 467h-112l37 74h176q17 0 11 1l-238 -471h1122zM1196 0h-1196l42 83h1195z" />
    <glyph glyph-name="Lslash" unicode="&#x141;" 
d="M1585 0h-989l41 83h990zM511 0h-511l159 315h-79l42 83h79l110 219h-112l42 83h197l-153 -302h162l-42 -83h-161l-118 -232h342l88 175h85z" />
    <glyph glyph-name="lslash" unicode="&#x142;" horiz-adv-x="1185" 
d="M1215 159h-1016h-119l122 241h-71l35 71h71l181 357h74l-180 -357h77l-36 -71h-77l-87 -170h1122zM1195 0h-1195l42 83h1195z" />
    <glyph glyph-name="OE" unicode="&#x152;" horiz-adv-x="1936" 
d="M1966 0h-1835q-45 0 -69.5 3t-31.5 15.5t2 37.5t31 69l227 450q22 44 38 69t35 37.5t47 15.5t74 3h777l-42 -83h-393l-111 -219h351l-41 -83h-352l-117 -232h1452zM741 617q-45 0 -87 0.5t-83.5 0.5t-84 0.5t-90.5 0.5l-271 -536h345l118 232h-58l42 83h58z" />
    <glyph glyph-name="oe" unicode="&#x153;" horiz-adv-x="1947" 
d="M1997 159h-1795q-45 0 -69 2.5t-30.5 14.5t3 37t31.5 69l155 304q21 41 35.5 64t33 34t45 13.5t70.5 2.5h601q45 0 69 -3t30.5 -15t-3.5 -37t-32 -70l-92 -183h-390l-81 -162h316l40 78h72q-5 -10 -12 -23.5t-13 -25.5q-7 -14 -15 -29h1126zM1977 0h-1982l42 83h1981z
M778 626l-86 -170h316l86 170h-316zM386 626l-200 -396h317l200 396h-317z" />
    <glyph glyph-name="Scaron" unicode="&#x160;" 
d="M1585 0h-1464q-47 0 -71.5 3t-32 14t0.5 33t28 61l42 83h84l-57 -111h346l119 235h-293q-46 0 -70.5 3t-31 15.5t3.5 37.5t33 69l68 132q22 44 38 69t35.5 37.5t47 15.5t73.5 3h252q42 0 64.5 -2.5t29.5 -12.5t0.5 -30t-24.5 -56l-41 -81h-84l50 99h-339l-110 -218h292
q46 0 70.5 -3t31.5 -15.5t-2.5 -37.5t-31.5 -69l-98 -191h1083zM673 754h-86l-93 148l68 46l79 -135l214 136l37 -57z" />
    <glyph glyph-name="scaron" unicode="&#x161;" horiz-adv-x="1575" 
d="M1605 159h-1414q-43 0 -65.5 3t-28.5 15t4 37t32 69l17 34h76l-43 -87h321l81 162h-271q-43 0 -66 2.5t-29 14t3.5 35t30.5 65.5l39 77q21 41 35.5 64t33 34t45 13.5t70.5 2.5h214q43 0 66 -2.5t29.5 -14t-2 -33.5t-28.5 -61l-19 -39h-75l38 75h-312l-85 -169h270
q43 0 66 -2.5t29 -14.5t-3.5 -35.5t-30.5 -65.5l-54 -108h1122zM1585 0h-1590l42 83h1590zM654 757h-87l-93 147l68 47l79 -135l215 135l37 -56z" />
    <glyph glyph-name="Ydieresis" unicode="&#x178;" horiz-adv-x="1475" 
d="M1505 0h-1383l83 164l17 453h-103l42 83h154l-30 -432h2l405 432h114l-519 -535l-41 -82h1301zM676 751h-101l44 87h101zM438 751h-101l44 87h101z" />
    <glyph glyph-name="Zcaron" unicode="&#x17d;" 
d="M1585 0h-1604l41 82l658 535h-481l42 83h597l-42 -83l-658 -534h1489zM657 748h-86l-93 148l68 46l79 -135l214 136l37 -57z" />
    <glyph glyph-name="zcaron" unicode="&#x17e;" horiz-adv-x="1535" 
d="M1565 159h-1490l37 72l514 394l-422 1l37 74h534l-36 -75l-518 -395h1440zM1545 0h-1550l42 83h1550zM638 749h-86l-93 147l68 47l79 -135l214 135l37 -56z" />
    <glyph glyph-name="florin" unicode="&#x192;" horiz-adv-x="1317" 
d="M1347 0h-1165l42 83h1165zM603 762h-122l-64 -129h120l-36 -71h-120l-282 -562h-71l281 562h-54l36 71h54l40 81q21 42 36 65.5t34 35t46.5 14t74.5 2.5h64z" />
    <glyph glyph-name="circumflex" unicode="&#x2c6;" horiz-adv-x="1615" 
d="M811 768l-79 135l-215 -135l-36 56l219 138h86l93 -147z" />
    <glyph glyph-name="caron" unicode="&#x2c7;" horiz-adv-x="1615" 
d="M679 751h-87l-93 148l69 46l79 -135l214 136l37 -57z" />
    <glyph glyph-name="breve" unicode="&#x2d8;" horiz-adv-x="1610" 
d="M886 905q-28 -55 -45.5 -86t-38 -46t-50 -18.5t-80.5 -3.5h-76q-51 0 -77 3.5t-31 18.5t8 46t41 86l3 7h73l-44 -86h206l46 88h69z" />
    <glyph glyph-name="dotaccent" unicode="&#x2d9;" horiz-adv-x="1608" 
d="M682 751h-101l44 87h101z" />
    <glyph glyph-name="ring" unicode="&#x2da;" horiz-adv-x="1620" 
d="M855 882q-24 -47 -40.5 -73.5t-36 -39t-48 -15.5t-75.5 -3h-33q-47 0 -72.5 3t-32.5 15.5t3 39t34 73.5l15 30q24 47 40.5 73.5t36 39t48 15.5t76.5 3h32q48 0 74 -3t33 -16t-3 -39.5t-35 -72.5zM674 972l-75 -150h154l75 150h-154z" />
    <glyph glyph-name="ogonek" unicode="&#x2db;" horiz-adv-x="1607" 
d="M28 -110l-102 -38l110 216h83z" />
    <glyph glyph-name="tilde" unicode="&#x2dc;" horiz-adv-x="1574" 
d="M901 851q-16 -38 -28.5 -58.5t-29 -30t-40 -11.5t-61.5 -2h-63q-31 0 -49 0.5t-24.5 7.5t-2 22.5t19.5 44.5l17 34h-134l-59 -109h-65l36 75q18 37 30.5 57.5t28.5 30.5t39 12t61 2h60q31 0 49.5 -1t25 -8.5t2 -23.5t-19.5 -45l-15 -31h135l51 102h65z" />
    <glyph glyph-name="hungarumlaut" unicode="&#x2dd;" horiz-adv-x="1599" 
d="M805 751h-89l66 133l66 -47zM554 751h-89l66 133l66 -47z" />
    <glyph glyph-name="pi" unicode="&#x3c0;" horiz-adv-x="1843" 
d="M1873 0h-1749q-42 0 -65.5 3t-30 15t2.5 36.5t31 67.5l296 587q21 43 36.5 67.5t34 36.5t44.5 15t70 3h504q43 0 66.5 -3t30 -15t-2.5 -36.5t-31 -67.5l-315 -626h1121zM457 760l-341 -677h606l340 677h-605zM816 439q-17 -33 -29 -51.5t-26 -28.5t-34 -12.5t-53 -2.5
h-270l-90 -179h-73l252 498h338q34 0 52 -2t23.5 -11.5t-1.5 -28.5t-24 -53zM529 590l-89 -175h289l89 175h-289z" />
    <glyph glyph-name="endash" unicode="&#x2013;" 
d="M1585 0h-1588l42 83h1588zM610 316h-453l41 82h454z" />
    <glyph glyph-name="emdash" unicode="&#x2014;" horiz-adv-x="1833" 
d="M1863 0h-1866l42 83h1865zM888 316h-731l41 82h731z" />
    <glyph glyph-name="quoteleft" unicode="&#x2018;" horiz-adv-x="1320" 
d="M306 439h-84l136 270l66 -35zM1350 0h-1353l42 83h1353z" />
    <glyph glyph-name="quoteright" unicode="&#x2019;" horiz-adv-x="1320" 
d="M301 430l-66 36l118 234h85zM1350 0h-1353l42 83h1353z" />
    <glyph glyph-name="quotesinglbase" unicode="&#x201a;" horiz-adv-x="1325" 
d="M1355 0h-1358l42 83h98l84 76h-65l46 92h159l-46 -92l-84 -76h1166z" />
    <glyph glyph-name="quotedblleft" unicode="&#x201c;" horiz-adv-x="1320" 
d="M450 439h-84l136 270l66 -35zM306 439h-84l136 270l66 -35zM1350 0h-1353l42 83h1353z" />
    <glyph glyph-name="quotedblright" unicode="&#x201d;" horiz-adv-x="1320" 
d="M445 430l-66 36l118 234h84zM301 430l-66 36l118 234h85zM1350 0h-1353l42 83h1353z" />
    <glyph glyph-name="quotedblbase" unicode="&#x201e;" horiz-adv-x="1562" 
d="M1592 0h-1595l42 83h98l84 76h-65l46 92h159l-46 -92l-84 -76h142l85 76h-65l45 92h160l-46 -92l-84 -76h1166z" />
    <glyph glyph-name="dagger" unicode="&#x2020;" horiz-adv-x="1466" 
 />
    <glyph glyph-name="daggerdbl" unicode="&#x2021;" horiz-adv-x="1466" 
 />
    <glyph glyph-name="bullet" unicode="&#x2022;" horiz-adv-x="1763" 
d="M726 125q-22 -44 -38 -69t-35 -37.5t-45.5 -15.5t-69.5 -3h-412q-43 0 -66.5 3t-30 15.5t2.5 37.5t31 69l227 450q22 44 38 69t34.5 37.5t45.5 15.5t71 3h412q43 0 67 -3t30 -15t-3.5 -37t-31.5 -70z" />
    <glyph glyph-name="ellipsis" unicode="&#x2026;" 
d="M1585 0h-1588l42 83h1588zM614 159h-104l46 92h103zM436 159h-103l46 92h103zM259 159h-103l46 92h103z" />
    <glyph glyph-name="perthousand" unicode="&#x2030;" horiz-adv-x="2317" 
 />
    <glyph glyph-name="guilsinglleft" unicode="&#x2039;" horiz-adv-x="1258" 
d="M287 410l19 -251h-87l-21 275l278 266h102zM1288 0h-1291l42 83h1290z" />
    <glyph glyph-name="guilsinglright" unicode="&#x203a;" horiz-adv-x="1261" 
d="M1291 0h-1294l42 83h1293zM162 159h-101l290 290l-18 251h87l21 -275z" />
    <glyph glyph-name="Euro" unicode="&#x20ac;" horiz-adv-x="1651" 
d="M1683 0h-1504q-45 0 -69.5 3t-31.5 15.5t2 37.5t31 69l96 191h-85l41 82h86l89 177q22 44 38 69t35 37.5t47 15.5t74 3h252q45 0 70 -3t31.5 -15t-3 -37t-31.5 -70l-57 -114h-84l79 158h-345l-111 -221h217l-41 -82h-218l-118 -233h346l88 174h84l-89 -174h1122z" />
    <glyph glyph-name="trademark" unicode="&#x2122;" horiz-adv-x="2113" 
d="M1126 207h-76l205 405l-366 -405h-58l44 405l-205 -405h-76l249 493h112l-45 -372h4l331 372h130zM2143 0h-2146l42 83h2146zM770 629h-192l-213 -422h-72l213 422h-191l35 71h456z" />
    <glyph glyph-name="minus" unicode="&#x2212;" horiz-adv-x="1479" 
d="M1509 0h-1510l42 83h1509zM612 316h-453l41 82h454z" />
    <glyph glyph-name="lozenge" unicode="&#x25ca;" horiz-adv-x="1072" 
d="M1020 306q9 -7 11 -15t-1.5 -14t-11 -8.5t-17.5 2.5l-55 27l-34 -74q13 -7 22.5 -20.5t13 -29t1 -32t-11.5 -29.5q-14 -21 -36.5 -30.5t-51.5 3.5q-9 -17 -14.5 -28.5t-9.5 -18.5q-4 -8 -6 -13q-6 -12 -14 -13.5t-16 3.5l-20 10q-8 5 -10.5 13t2.5 16l28 57q0 -1 -3 1
q-2 1 -6 3.5t-11 7.5q-9 6 -12 13.5t-1.5 15t7.5 13.5t14 7q-9 6 -10 15.5t3.5 17.5t13 12t19.5 0q-4 7 -3 15.5t6 14.5t13 8.5t18 -1.5l17 -7l37 77l-41 19q-10 5 -13.5 12t-1.5 13t8.5 10t17.5 3l69 -7zM893 577q11 -1 15.5 -8t4 -15t-6.5 -14.5t-17 -5.5q-49 4 -75.5 6
t-38.5 3l-16 1q26 -29 40.5 -66.5t14.5 -79.5q0 -46 -17.5 -86.5t-47.5 -71t-70.5 -48t-86.5 -17.5t-86.5 17.5t-70.5 48t-47.5 71t-17.5 86.5q0 44 16 83t43.5 68.5t65 48t80.5 21.5q4 1 28 5q20 4 64 12t126 23q10 2 16.5 -3.5t7.5 -14t-3.5 -16t-14.5 -9.5l-108 -19l6 -3
q1 -1 2 -1q4 0 25 -2q18 -2 57 -5.5t112 -8.5zM311 272q6 -30 -0.5 -61t-27.5 -57q-18 -22 -42 -35t-50 -16t-52 4.5t-48 25.5t-34.5 41.5t-15.5 50t4.5 52.5t25.5 48t42 35t50 16t52 -4t48 -25q15 -12 25 -26h62zM725 488q9 5 10.5 13t-2 14.5t-10.5 9.5t-15 -1l-84 -46
q-14 -8 -14 -18t15 -16l84 -37q8 -4 15 -0.5t10 10t1 14t-11 11.5l-48 20zM556 506q-17 20 -43 22.5t-46 -13.5q-21 -17 -23 -43.5t15 -46.5t43 -22.5t46 14.5t22.5 43t-14.5 46zM685 332q10 0 14.5 6t4.5 13t-4.5 13t-14.5 6h-192q-22 0 -22 -19q0 -29 11 -49t24 -31
q11 -9 25 -16q12 -6 27.5 -11.5t35.5 -6.5q10 -1 15 5t6 13.5t-3.5 13.5t-14.5 6q-14 1 -25.5 4.5t-20.5 8.5q-11 5 -19 12q-12 12 -18 32h171zM284 227q-4 5 -6 5.5t-4 0.5q-10 0 -10 -9q0 -7 7 -9h3q3 -1 2 -3q0 -2 -2 -2t-5 3l-6 -4q6 -6 11 -6q10 0 10 10q0 6 -7 8l-3 1
q-3 0 -3 2t3 2q2 0 5 -3zM258 221h-11v5h11v6h-19v-28h19v7h-11v4h11v6zM205 274h-8v-14v-1l-22 17v-31h8v14v2l22 -17v30zM232 233h-8v-11h-13v11h-8v-29h8v11h13v-11h8v29zM132 301q0 8 -5.5 13t-13.5 6q-8 0 -14 -5.5t-6 -13.5t5.5 -13t13.5 -5t14 5t6 13zM154 275
l-18 -27l8 -3l2 5h15l3 -5l7 3zM196 221h-18v-6h10v-4q-1 0 -2 -0.5t-3 -0.5q-9 0 -9 8t9 8q2 0 7 -3l5 5q-8 5 -13 5q-7 0 -11.5 -4.5t-4.5 -10.5q0 -14 17 -14q8 0 13 4v13zM132 274h-8v-29h8v29zM113 258q3 3 3 7q0 9 -10 9h-11v-29h8v10h3q0 -1 1 -1l8 -9l5 5zM161 233
h-8v-15q0 -7 -7 -7t-7 7v15h-8v-15q0 -15 15 -15t15 15v15zM193 182q0 9 -10 9t-10 -9v-11q0 -9 10 -9t10 9v11zM167 182q0 9 -11 9q-10 0 -10 -9v-11q0 -9 10 -9q11 0 11 9v11zM124 233h-8v-11h-13v11h-8v-29h8v11h13v-11h8v29zM140 182q0 9 -10 9t-10 -9v-11q0 -9 10 -9
t10 9v11zM114 169h-5h-3q1 1 1 2l3 4q4 4 3 7q0 9 -10 9q-5 0 -9 -4l-1 -2l6 -5l1 2q1 2 3 2q3 0 3 -3l-1 -2l-13 -17h22v7zM526 475q0 -10 -6.5 -16.5t-16.5 -6.5t-17 7.5t-7 17.5t7.5 17t17.5 6t16.5 -8t5.5 -17zM126 301q0 -12 -13 -12q-14 0 -14 12q0 13 14 13
q13 0 13 -13zM150 256l4 6l3 -6h-7zM108 265q0 -3 -3 -3h-2v5h2q3 0 3 -2zM185 171q0 -2 -2 -2t-2 2v11q0 2 2 2t2 -2v-11zM159 171q0 -2 -3 -2q-2 0 -2 2v11q0 2 2 2q3 0 3 -2v-11zM132 171q0 -2 -2 -2q-3 0 -3 2v11q0 2 3 2q2 0 2 -2v-11zM118 301q-3 -3 -5 -3q-4 0 -4 3
q0 4 4 4l5 -3l4 4q-5 4 -9 4q-10 0 -10 -9t10 -9q4 0 9 5z" />
    <glyph glyph-name="glyph216" horiz-adv-x="673" 
d="M596 425q1 -2 3.5 -4t7.5 -2q3 0 5 1t4 3l11 -8q-8 -5 -11.5 -6.5t-8.5 -1.5q-11 0 -18.5 7t-7.5 17q0 9 7.5 16t18.5 7t18.5 -7t7.5 -22h-37zM574 420q-13 -13 -24 -13q-11 1 -18.5 7.5t-7.5 16.5q0 9 7.5 16t18.5 7q9 0 24 -12l-11 -10q-9 8 -13 8q-10 0 -10 -9
q0 -10 10 -10q4 0 13 8zM515 466q1 -3 -1.5 -5.5t-5.5 -3.5q-9 0 -9 7q-2 8 7 8q7 2 9 -6zM329 720q-1 -33 -24.5 -56.5t-56.5 -23.5q-34 0 -57 23.5t-22 56.5t24.5 56.5t56.5 23.5q34 0 57 -23.5t22 -56.5zM499 408v45h15v-45h-15zM465 405l-27 42l13 7q2 -5 4 -8t4 -5
q2 -3 3 -5q0 -1 2 -3q1 -1 1 -2q1 1 1 2t1 2q0 1 1 1q1 2 3 5q2 2 3.5 5t4.5 7l12 -7zM398 425q1 -2 3 -4t7 -2q4 0 5.5 1l4.5 3l11 -8q-8 -5 -12 -6.5t-9 -1.5q-11 0 -18.5 7t-7.5 17q0 9 7.5 16t18.5 7t18.5 -7t7.5 -22h-36zM358 408v3q-4 -4 -12 -4q-11 0 -17.5 7
t-6.5 17t6.5 16.5t17.5 6.5q8 0 12 -4v15h15v-57h-15zM432 328q-36 -5 -54 -10t-26 -16.5t-10 -32t-8 -56.5q-7 -41 -13 -80q-5 -34 -11 -70.5t-10 -62.5q-46 -1 -81 20.5t-59 47.5q-28 31 -50 70q-21 42 -36 90t-23.5 90.5t-10 73t3.5 36.5q4 4 10 7q11 6 29 0
q-6 -53 -8 -90.5t2 -73.5l48 7q-2 11 -5 32.5t-5.5 47.5t-4 54t-1 52.5t3 43t8.5 25.5q4 3 10 6q5 2 12 2.5t17 -3.5q-5 -30 -9.5 -65t-7.5 -70t-4.5 -67t-0.5 -56l48 8q-1 7 -1 31t0.5 56.5t2.5 69.5t5.5 69.5t8 56.5t11.5 31q5 4 11 6q5 2 12 2t17 -4q-10 -40 -19.5 -88.5
t-17 -94t-12 -82t-4.5 -51.5l43 6q10 97 19 153.5t15 85.5q7 34 13 46q5 6 11 9q5 2 13 2t19 -7q-26 -64 -41 -119.5t-24 -97.5q-11 -49 -15 -91q-4 -46 -1.5 -72.5t9.5 -38.5t16.5 -12t18.5 8.5t16 22t9 29.5q5 36 -1.5 63.5t-11 46t-1 27.5t28.5 8q10 0 25 -2.5t29.5 -6.5
t26.5 -9.5t15 -12.5zM617 436q0 2 -2.5 4t-7.5 2t-7.5 -2t-3.5 -4h21zM292 721q2 17 -9.5 29t-30.5 12h-30l-10 -83h30q19 0 33.5 12.5t16.5 29.5zM419 436q-1 2 -3.5 4t-7.5 2t-7 -2t-3 -4h21zM358 431q0 3 -3 6t-7 3q-11 0 -11 -9q0 -10 11 -10q10 0 10 10zM270 721
q-1 -9 -8.5 -15t-18.5 -6h-6l5 42h6q11 0 17 -6t5 -15z" />
    </font>
</defs>
</svg>
