  0
SECTION
  2
HEADER
  9
$ACADVER
  1
AC1009
  9
$INSBASE
 10
0.0
 20
0.0
 30
0.0
  9
$EXTMIN
 10
-3004.695064057835225
 20
2221.6288922908302084
 30
-0.0015258207003583
  9
$EXTMAX
 10
-595.7302421426192041
 20
4148.4162596004080115
 30
0.0000000349246037
  9
$LIMMIN
 10
0.0
 20
0.0
  9
$LIMMAX
 10
12.0
 20
9.0
  9
$ORTHOMODE
 70
     1
  9
$REGENMODE
 70
     1
  9
$FILLMODE
 70
     1
  9
$QTEXTMODE
 70
     0
  9
$MIRRTEXT
 70
     1
  9
$DRAGMODE
 70
     2
  9
$LTSCALE
 40
100.0
  9
$OSMODE
 70
   255
  9
$ATTMODE
 70
     1
  9
$TEXTSIZE
 40
50.0
  9
$TRACEWID
 40
0.05
  9
$TEXTSTYLE
  7
T25
  9
$CLAYER
  8
0
  9
$CELTYPE
  6
BYLAYER
  9
$CECOLOR
 62
   256
  9
$DIMSCALE
 40
10.0
  9
$DIMASZ
 40
1.0
  9
$DIMEXO
 40
3.0
  9
$DIMDLI
 40
0.0
  9
$DIMRND
 40
0.0
  9
$DIMDLE
 40
0.0
  9
$DIMEXE
 40
1.0
  9
$DIMTP
 40
0.0
  9
$DIMTM
 40
0.0
  9
$DIMTXT
 40
1.0
  9
$DIMCEN
 40
0.0
  9
$DIMTSZ
 40
0.0
  9
$DIMTOL
 70
     0
  9
$DIMLIM
 70
     0
  9
$DIMTIH
 70
     0
  9
$DIMTOH
 70
     0
  9
$DIMSE1
 70
     1
  9
$DIMSE2
 70
     1
  9
$DIMTAD
 70
     0
  9
$DIMZIN
 70
     1
  9
$DIMBLK
  1

  9
$DIMASO
 70
     1
  9
$DIMSHO
 70
     1
  9
$DIMPOST
  1

  9
$DIMAPOST
  1

  9
$DIMALT
 70
     0
  9
$DIMALTD
 70
     0
  9
$DIMALTF
 40
0.039
  9
$DIMLFAC
 40
1.0
  9
$DIMTOFL
 70
     1
  9
$DIMTVP
 40
0.8
  9
$DIMTIX
 70
     1
  9
$DIMSOXD
 70
     0
  9
$DIMSAH
 70
     1
  9
$DIMBLK1
  1
DIMDOT
  9
$DIMBLK2
  1
DIMDOT
  9
$DIMSTYLE
  2
REND
  9
$DIMCLRD
 70
     1
  9
$DIMCLRE
 70
   141
  9
$DIMCLRT
 70
     0
  9
$DIMTFAC
 40
1.0
  9
$DIMGAP
 40
0.5
  9
$LUNITS
 70
     2
  9
$LUPREC
 70
     4
  9
$SKETCHINC
 40
0.1
  9
$FILLETRAD
 40
0.0
  9
$AUNITS
 70
     0
  9
$AUPREC
 70
     0
  9
$MENU
  1
.
  9
$ELEVATION
 40
0.0
  9
$PELEVATION
 40
0.0
  9
$THICKNESS
 40
0.0
  9
$LIMCHECK
 70
     0
  9
$BLIPMODE
 70
     0
  9
$CHAMFERA
 40
0.5
  9
$CHAMFERB
 40
0.5
  9
$SKPOLY
 70
     0
  9
$TDCREATE
 40
2453284.3702893517911434
  9
$TDUPDATE
 40
2459984.3976041660644114
  9
$TDINDWG
 40
0.1181584722
  9
$TDUSRTIMER
 40
0.1181313426
  9
$USRTIMER
 70
     1
  9
$ANGBASE
 50
0.0
  9
$ANGDIR
 70
     0
  9
$PDMODE
 70
     0
  9
$PDSIZE
 40
0.0
  9
$PLINEWID
 40
0.0
  9
$COORDS
 70
     1
  9
$SPLFRAME
 70
     0
  9
$SPLINETYPE
 70
     6
  9
$SPLINESEGS
 70
     8
  9
$ATTDIA
 70
     1
  9
$ATTREQ
 70
     1
  9
$HANDLING
 70
     1
  9
$HANDSEED
  5
F8E
  9
$SURFTAB1
 70
     6
  9
$SURFTAB2
 70
     6
  9
$SURFTYPE
 70
     6
  9
$SURFU
 70
     6
  9
$SURFV
 70
     6
  9
$UCSNAME
  2

  9
$UCSORG
 10
0.0
 20
0.0
 30
0.0
  9
$UCSXDIR
 10
1.0
 20
0.0
 30
0.0
  9
$UCSYDIR
 10
0.0
 20
1.0
 30
0.0
  9
$PUCSNAME
  2

  9
$PUCSORG
 10
0.0
 20
0.0
 30
0.0
  9
$PUCSXDIR
 10
1.0
 20
0.0
 30
0.0
  9
$PUCSYDIR
 10
0.0
 20
1.0
 30
0.0
  9
$USERI1
 70
     0
  9
$USERI2
 70
     0
  9
$USERI3
 70
     0
  9
$USERI4
 70
     0
  9
$USERI5
 70
     0
  9
$USERR1
 40
0.0
  9
$USERR2
 40
0.0
  9
$USERR3
 40
0.0
  9
$USERR4
 40
0.0
  9
$USERR5
 40
0.0
  9
$WORLDVIEW
 70
     1
  9
$SHADEDGE
 70
     3
  9
$SHADEDIF
 70
    70
  9
$TILEMODE
 70
     1
  9
$MAXACTVP
 70
    64
  9
$PLIMCHECK
 70
     0
  9
$PEXTMIN
 10
1.0000000000000000E+20
 20
1.0000000000000000E+20
 30
1.0000000000000000E+20
  9
$PEXTMAX
 10
-1.0000000000000000E+20
 20
-1.0000000000000000E+20
 30
-1.0000000000000000E+20
  9
$PLIMMIN
 10
0.0
 20
0.0
  9
$PLIMMAX
 10
12.0
 20
9.0
  9
$UNITMODE
 70
     0
  9
$VISRETAIN
 70
     1
  9
$PLINEGEN
 70
     0
  9
$PSLTSCALE
 70
     1
  0
ENDSEC
  0
SECTION
  2
TABLES
  0
TABLE
  2
VPORT
 70
     1
  0
VPORT
  2
*ACTIVE
 70
     0
 10
0.0
 20
0.0
 11
1.0
 21
1.0
 12
-1800.212653100227044
 22
3185.0225759456188825
 13
0.0
 23
0.0
 14
0.5
 24
0.5
 15
0.5
 25
0.5
 16
0.0
 26
0.0
 36
1.0
 17
0.0
 27
0.0
 37
0.0
 40
1941.6852077784660651
 41
2.411612903225806
 42
50.0
 43
0.0
 44
0.0
 50
0.0
 51
0.0
 71
     0
 72
   100
 73
     1
 74
     3
 75
     0
 76
     0
 77
     0
 78
     0
  0
ENDTAB
  0
TABLE
  2
LTYPE
 70
     2
  0
LTYPE
  2
CONTINUOUS
 70
     0
  3
Solid line
 72
    65
 73
     0
 40
0.0
  0
LTYPE
  2
DASHED
 70
     0
  3
Dashed __ __ __ __ __ __ __ __ __ __ __ __ __ _
 72
    65
 73
     2
 40
0.75
 49
0.5
 49
-0.25
  0
ENDTAB
  0
TABLE
  2
LAYER
 70
     2
  0
LAYER
  2
0
 70
     0
 62
     7
  6
CONTINUOUS
  0
LAYER
  2
A--L23
 70
     0
 62
     7
  6
CONTINUOUS
  0
ENDTAB
  0
TABLE
  2
STYLE
 70
     6
  0
STYLE
  2
STANDARD
 70
     0
 40
0.0
 41
1.0
 50
0.0
 71
     0
 42
0.2
  3
txt
  4

  0
STYLE
  2
T25
 70
     0
 40
50.0
 41
1.0
 50
0.0
 71
     0
 42
50.0
  3
txt
  4

  0
ENDTAB
  0
TABLE
  2
VIEW
 70
     1
  0
ENDTAB
  0
TABLE
  2
UCS
 70
     0
  0
ENDTAB
  0
TABLE
  2
APPID
 70
    27
  0
APPID
  2
ACAD
 70
     0
  0
APPID
  2
VBI
 70
     0
  0
APPID
  2
AVE_RENDER
 70
     0
  0
APPID
  2
AVE_ENTITY_MATERIAL
 70
     0
  0
APPID
  2
AVE_FINISH
 70
     0
  0
APPID
  2
AVE_MATERIAL
 70
     0
  0
APPID
  2
AVE_GLOBAL
 70
     0
  0
APPID
  2
ACAD_EXEMPT_FROM_CAD_STANDARDS
 70
     0
  0
APPID
  2
ACAD_DSTYLE_DIM_LINETYPE
 70
     0
  0
APPID
  2
ACAD_DSTYLE_DIM_EXT1_LINETYPE
 70
     0
  0
APPID
  2
ACAD_DSTYLE_DIM_EXT2_LINETYPE
 70
     0
  0
APPID
  2
ACAECLAYERSTANDARD
 70
     0
  0
APPID
  2
ACAD_MATERIAL_MAPPER
 70
     0
  0
APPID
  2
ACAD_PSEXT
 70
     0
  0
APPID
  2
ACAUTHENVIRON
 70
     0
  0
APPID
  2
ACDBDYNAMICBLOCKTRUENAME
 70
     0
  0
APPID
  2
ACDBDYNAMICBLOCKGUID
 70
     0
  0
APPID
  2
ACDBBLOCKREPETAG
 70
     0
  0
APPID
  2
ACDBBLOCKREPBTAG
 70
     0
  0
APPID
  2
ACAD_NAV_VCDISPLAY
 70
     0
  0
APPID
  2
ACADANNOPO
 70
     0
  0
APPID
  2
ACADANNOTATIVE
 70
     0
  0
APPID
  2
ACAD_DSTYLE_DIMJAG
 70
     0
  0
APPID
  2
ACAD_DSTYLE_DIMTALN
 70
     0
  0
APPID
  2
ACCMTRANSPARENCY
 70
     0
  0
APPID
  2
CONTENTBLOCKICON
 70
     0
  0
APPID
  2
ACAD_MLEADERVER
 70
     0
  0
ENDTAB
  0
TABLE
  2
DIMSTYLE
 70
     3
  0
DIMSTYLE
  2
REND
 70
     0
  3

  4

  5

  6
DIMDOT
  7
DIMDOT
 40
10.0
 41
1.0
 42
3.0
 43
0.0
 44
1.0
 45
0.0
 46
0.0
 47
0.0
 48
0.0
140
1.0
141
0.0
142
0.0
143
0.039
144
1.0
145
0.8
146
1.0
147
0.5
 71
     0
 72
     0
 73
     0
 74
     0
 75
     1
 76
     1
 77
     0
 78
     1
170
     0
171
     0
172
     1
173
     1
174
     1
175
     0
176
     1
177
   141
178
     0
  0
DIMSTYLE
  2
STANDARD
 70
     0
  3

  4

  5

  6

  7

 40
1.0
 41
0.18
 42
0.0625
 43
0.38
 44
0.18
 45
0.0
 46
0.0
 47
0.0
 48
0.0
140
0.18
141
0.09
142
0.0
143
25.3999999999999986
144
1.0
145
0.0
146
1.0
147
0.09
 71
     0
 72
     0
 73
     1
 74
     1
 75
     0
 76
     0
 77
     0
 78
     0
170
     0
171
     2
172
     0
173
     0
174
     0
175
     0
176
     0
177
     0
178
     0
  0
ENDTAB
  0
ENDSEC
  0
SECTION
  2
BLOCKS
  0
BLOCK
  8
0
  2
$MODEL_SPACE
 70
     0
 10
0.0
 20
0.0
 30
0.0
  3
$MODEL_SPACE
  1

  0
ENDBLK
  5
21
  8
0
  0
BLOCK
 67
     1
  8
0
  2
$PAPER_SPACE
 70
     0
 10
0.0
 20
0.0
 30
0.0
  3
$PAPER_SPACE
  1

  0
ENDBLK
  5
1D
 67
     1
  8
0
  0
BLOCK
  8
0
  2
DIMDOT
 70
     0
 10
0.0
 20
0.0
 30
0.0
  3
DIMDOT
  1
DIMDOT
  0
LINE
  5
69
  8
0
 62
     0
 10
-2.0
 20
0.0
 30
0.0
 11
2.0
 21
0.0
 31
0.0
  0
LINE
  5
6A
  8
0
 62
     0
 10
0.0
 20
-3.5
 30
0.0
 11
0.0
 21
3.5
 31
0.0
  0
CIRCLE
  5
6B
  8
0
 62
     0
 10
0.0
 20
0.0
 30
0.0
 40
0.5
  0
CIRCLE
  5
6C
  8
0
 62
     0
 10
0.0
 20
0.0
 30
0.0
 40
0.25
  0
ENDBLK
  5
39
  8
0
  0
BLOCK
  8
0
  2
VBI_AL200_DDRSN_NP
 70
     0
 10
0.0
 20
0.0
 30
0.0
  3
VBI_AL200_DDRSN_NP
  1

  0
POLYLINE
  5
5E5
  8
A--L23
 62
     1
 66
     1
 10
0.0
 20
0.0
 30
0.0
 70
     1
  0
VERTEX
  5
EC9
  8
A--L23
 62
     1
 10
591.4443650813774411
 20
30.8894444302714
 30
0.0
  0
VERTEX
  5
ECA
  8
A--L23
 62
     1
 10
577.3022294576441027
 20
45.0315800540120108
 30
0.0
  0
VERTEX
  5
ECB
  8
A--L23
 62
     1
 10
574.4147601696605534
 20
65.2438650698895799
 30
0.0
  0
VERTEX
  5
ECC
  8
A--L23
 62
     1
 10
585.0213618874622625
 20
75.8504667876841268
 30
0.0
  0
VERTEX
  5
ECD
  8
A--L23
 62
     1
 10
581.4852813742401167
 20
100.6030303803418064
 30
0.0
  0
VERTEX
  5
ECE
  8
A--L23
 62
     1
 10
567.3431457505066646
 20
114.7451660040678973
 30
0.0
  0
VERTEX
  5
ECF
  8
A--L23
 62
     1
 10
562.3933982822054531
 20
149.3933982822053963
 30
0.0
  0
VERTEX
  5
ED0
  8
A--L23
 62
     1
 10
573.0000000000001137
 20
160.0
 30
0.0
  0
VERTEX
  5
ED1
  8
A--L23
 62
     1
 10
573.0000000000001137
 20
200.0
 30
0.0
  0
VERTEX
  5
ED2
  8
A--L23
 62
     1
 10
627.0000000000001137
 20
200.0
 30
0.0
  0
VERTEX
  5
ED3
  8
A--L23
 62
     1
 10
627.0000000000001137
 20
160.0
 30
0.0
  0
VERTEX
  5
ED4
  8
A--L23
 62
     1
 10
637.6066017177945469
 20
149.3933982822053963
 30
0.0
  0
VERTEX
  5
ED5
  8
A--L23
 62
     1
 10
632.6568542494934491
 20
114.7451660040678973
 30
0.0
  0
VERTEX
  5
ED6
  8
A--L23
 62
     1
 10
618.5147186257601106
 20
100.6030303803418064
 30
0.0
  0
VERTEX
  5
ED7
  8
A--L23
 62
     1
 10
614.9786381125378512
 20
75.8504667876841268
 30
0.0
  0
VERTEX
  5
ED8
  8
A--L23
 62
     1
 10
625.5852398303395603
 20
65.2438650698895799
 30
0.0
  0
VERTEX
  5
ED9
  8
A--L23
 62
     1
 10
622.6977705423561247
 20
45.0315800540120108
 30
0.0
  0
VERTEX
  5
EDA
  8
A--L23
 62
     1
 10
608.5556349186226726
 20
30.8894444302714
 30
0.0
  0
VERTEX
  5
EDB
  8
A--L23
 62
     1
 10
607.0000000000001137
 20
20.0
 30
0.0
  0
VERTEX
  5
EDC
  8
A--L23
 62
     1
 10
600.0
 20
19.9999999999999396
 30
0.0
  0
VERTEX
  5
EDD
  8
A--L23
 62
     1
 10
593.0000000000001137
 20
20.0
 30
0.0
  0
SEQEND
  5
EDE
  8
A--L23
 62
     1
  0
INSERT
  5
5E6
  8
0
  2
*U6
 10
0.0
 20
0.0
 30
0.0
  0
ENDBLK
  5
2E0
  8
0
  0
BLOCK
  8
0
  2
VBI_AL200_DDRSN_PP
 70
     0
 10
0.0
 20
0.0
 30
0.0
  3
VBI_AL200_DDRSN_PP
  1

  0
INSERT
  5
71A
  8
0
  2
*U7
 10
0.0
 20
0.0
 30
0.0
  0
ENDBLK
  5
307
  8
0
  0
BLOCK
  8
0
  2
*U4
 70
     1
 10
0.0
 20
0.0
 30
0.0
  3
*U4
  1

  0
POLYLINE
  5
4E4
  8
A--L23
 66
     1
 10
0.0
 20
0.0
 30
0.0
 70
     1
1001
ACDBBLOCKREPETAG
1070
     1
1071
        0
1005
4E4
  0
VERTEX
  5
EBC
  8
A--L23
 10
0.0
 20
0.0
 30
0.0
  0
VERTEX
  5
EBD
  8
A--L23
 10
2400.0
 20
0.0
 30
0.0
  0
VERTEX
  5
EBE
  8
A--L23
 10
2400.0
 20
199.9999999999994884
 30
0.0
  0
VERTEX
  5
EBF
  8
A--L23
 10
0.0
 20
199.9999999999994884
 30
0.0
  0
SEQEND
  5
EC0
  8
A--L23
  0
LINE
  5
4E5
  8
A--L23
  6
DASHED
 10
2400.0
 20
165.0
 30
0.0
 11
0.0
 21
165.0
 31
0.0
1001
ACDBBLOCKREPETAG
1070
     1
1071
        1
1005
4E5
  0
LINE
  5
4E6
  8
A--L23
  6
DASHED
 10
2400.0
 20
95.0
 30
0.0
 11
0.0
 21
95.0
 31
0.0
1001
ACDBBLOCKREPETAG
1070
     1
1071
        2
1005
4E6
  0
ENDBLK
  5
322
  8
0
  0
BLOCK
  8
0
  2
*U5
 70
     1
 10
0.0
 20
0.0
 30
0.0
  3
*U5
  1

  0
POLYLINE
  5
4FB
  8
A--L23
 66
     1
 10
0.0
 20
0.0
 30
0.0
 70
     1
1001
ACDBBLOCKREPETAG
1070
     1
1071
        0
1005
4FB
  0
VERTEX
  5
EC1
  8
A--L23
 10
0.0
 20
0.0
 30
0.0
  0
VERTEX
  5
EC2
  8
A--L23
 10
2400.0
 20
0.0
 30
0.0
  0
VERTEX
  5
EC3
  8
A--L23
 10
2400.0
 20
199.9999999999994884
 30
0.0
  0
VERTEX
  5
EC4
  8
A--L23
 10
0.0
 20
199.9999999999994884
 30
0.0
  0
SEQEND
  5
EC5
  8
A--L23
  0
LINE
  5
4FC
  8
A--L23
  6
DASHED
 10
2400.0
 20
165.0
 30
0.0
 11
0.0
 21
165.0
 31
0.0
1001
ACDBBLOCKREPETAG
1070
     1
1071
        1
1005
4FC
  0
LINE
  5
4FD
  8
A--L23
  6
DASHED
 10
2400.0
 20
95.0
 30
0.0
 11
0.0
 21
95.0
 31
0.0
1001
ACDBBLOCKREPETAG
1070
     1
1071
        2
1005
4FD
  0
ENDBLK
  5
4FA
  8
0
  0
BLOCK
  8
0
  2
*U6
 70
     1
 10
0.0
 20
0.0
 30
0.0
  3
*U6
  1

  0
ARC
  5
EE0
  8
0
 10
-180.4999999999704983
 20
147.0060438920918102
 30
0.0
 40
14.9999999999706404
 50
0.0
 51
72.5423968764238225
  0
LINE
  5
EE1
  8
0
 10
-165.4999999999998863
 20
147.0060438920918102
 30
0.0
 11
-165.4999999999926104
 21
104.9999999999854055
 31
0.0
  0
ARC
  5
EE2
  8
0
 10
-175.5000000000071054
 20
105.0
 30
0.0
 40
10.0000000000145306
 50
270.0000000000414957
 51
359.9999999999166107
  0
LINE
  5
EE3
  8
0
 10
-175.4999999999998863
 20
94.9999999999854481
 30
0.0
 11
-224.5000000000144098
 21
94.9999999999927098
 31
0.0
  0
ARC
  5
EE4
  8
0
 10
-224.4999999999998863
 20
104.9999999999926956
 30
0.0
 40
10.0
 50
180.0
 51
269.9999999998750013
  0
LINE
  5
EE5
  8
0
 10
-234.4999999999998863
 20
104.9999999999854055
 30
0.0
 11
-234.5000000000003126
 21
147.0060438920772867
 31
0.0
  0
ARC
  5
EE6
  8
0
 10
-219.4999999999996874
 20
147.0060438920772867
 30
0.0
 40
15.0000000000006199
 50
107.4576031237219951
 51
180.0000000000003126
  0
ARC
  5
EE7
  8
0
 10
-200.0000000000121076
 20
84.999995800137782
 30
0.0
 40
79.9999999998424443
 50
72.5423968762451779
 51
107.4576031237483988
  0
ARC
  5
EE8
  8
0
 10
119.5000000000294023
 20
147.0060438920916965
 30
0.0
 40
14.9999999999706404
 50
0.0
 51
72.5423968764237088
  0
LINE
  5
EE9
  8
0
 10
134.5000000000001137
 20
147.0060438920918102
 30
0.0
 11
134.5000000000073896
 21
104.9999999999854055
 31
0.0
  0
ARC
  5
EEA
  8
0
 10
124.4999999999927951
 20
105.0
 30
0.0
 40
10.0000000000145306
 50
270.0000000000416094
 51
359.9999999999167244
  0
LINE
  5
EEB
  8
0
 10
124.5000000000000995
 20
94.9999999999854481
 30
0.0
 11
75.4999999999855618
 21
94.999999999992724
 31
0.0
  0
ARC
  5
EEC
  8
0
 10
75.5000000000001137
 20
104.9999999999926956
 30
0.0
 40
10.0
 50
180.0
 51
269.9999999998748876
  0
LINE
  5
EED
  8
0
 10
65.5000000000001137
 20
104.9999999999854055
 30
0.0
 11
65.4999999999996589
 21
147.0060438920772867
 31
0.0
  0
ARC
  5
EEE
  8
0
 10
80.5000000000002274
 20
147.0060438920774004
 30
0.0
 40
15.0000000000005702
 50
107.4576031237217961
 51
180.0000000000003979
  0
ARC
  5
EEF
  8
0
 10
99.9999999999878071
 20
84.9999958001377962
 30
0.0
 40
79.9999999998424585
 50
72.5423968762451352
 51
107.4576031237482994
  0
ARC
  5
EF0
  8
0
 10
496.5000000000001137
 20
132.9999999999853912
 30
0.0
 40
30.0
 50
0.0
 51
180.0
  0
LINE
  5
EF1
  8
0
 10
526.5000000000001137
 20
132.9999999999853912
 30
0.0
 11
526.5000000000075033
 21
104.9999999999854055
 31
0.0
  0
ARC
  5
EF2
  8
0
 10
516.499999999992724
 20
105.000000000000199
 30
0.0
 40
10.0000000000148201
 50
270.0000000000422915
 51
359.9999999999150759
  0
LINE
  5
EF3
  8
0
 10
516.5
 20
94.9999999999854481
 30
0.0
 11
476.4999999999855049
 21
94.999999999992724
 31
0.0
  0
ARC
  5
EF4
  8
0
 10
476.5000000000001137
 20
104.9999999999926956
 30
0.0
 40
10.0
 50
180.0
 51
269.9999999998748876
  0
LINE
  5
EF5
  8
0
 10
466.5
 20
104.9999999999854055
 30
0.0
 11
466.5
 21
132.9999999999853912
 31
0.0
  0
ARC
  5
EF6
  8
0
 10
219.5000000000295017
 20
147.0060438920918102
 30
0.0
 40
14.9999999999706404
 50
0.0
 51
72.5423968764238225
  0
LINE
  5
EF7
  8
0
 10
234.5000000000001137
 20
147.0060438920918102
 30
0.0
 11
234.5000000000073896
 21
104.9999999999854055
 31
0.0
  0
ARC
  5
EF8
  8
0
 10
224.4999999999928946
 20
105.0
 30
0.0
 40
10.0000000000145306
 50
270.0000000000414957
 51
359.9999999999166107
  0
LINE
  5
EF9
  8
0
 10
224.5000000000001137
 20
94.9999999999854481
 30
0.0
 11
175.4999999999855049
 21
94.9999999999927098
 31
0.0
  0
ARC
  5
EFA
  8
0
 10
175.5000000000001137
 20
104.9999999999926956
 30
0.0
 40
10.0
 50
180.0
 51
269.9999999998750013
  0
LINE
  5
EFB
  8
0
 10
165.5000000000001137
 20
104.9999999999854055
 30
0.0
 11
165.4999999999996021
 21
147.0060438920772867
 31
0.0
  0
ARC
  5
EFC
  8
0
 10
180.5000000000003126
 20
147.0060438920772867
 30
0.0
 40
15.0000000000006199
 50
107.4576031237219951
 51
180.0000000000003126
  0
ARC
  5
EFD
  8
0
 10
199.9999999999878924
 20
84.999995800137782
 30
0.0
 40
79.9999999998424443
 50
72.5423968762451779
 51
107.4576031237483988
  0
ARC
  5
EFE
  8
0
 10
-280.4999999999703846
 20
147.0060438920918102
 30
0.0
 40
14.9999999999705498
 50
0.0
 51
72.5423968764241636
  0
LINE
  5
EFF
  8
0
 10
-265.4999999999998863
 20
147.0060438920918102
 30
0.0
 11
-265.4999999999926104
 21
104.9999999999854055
 31
0.0
  0
ARC
  5
F00
  8
0
 10
-275.5000000000069917
 20
104.9999999999999005
 30
0.0
 40
10.0000000000144809
 50
270.0000000000409841
 51
359.9999999999170086
  0
LINE
  5
F01
  8
0
 10
-275.4999999999998863
 20
94.9999999999854481
 30
0.0
 11
-324.5000000000143814
 21
95.0000000000073044
 31
0.0
  0
ARC
  5
F02
  8
0
 10
-324.4999999999998863
 20
105.0000000000073044
 30
0.0
 40
10.0
 50
180.0
 51
269.9999999998748876
  0
LINE
  5
F03
  8
0
 10
-334.4999999999998863
 20
105.0
 30
0.0
 11
-334.5000000000002842
 21
147.0060438920918102
 31
0.0
  0
ARC
  5
F04
  8
0
 10
-319.4999999999997158
 20
147.0060438920918955
 30
0.0
 40
15.0000000000006199
 50
107.4576031237219951
 51
180.0000000000003126
  0
ARC
  5
F05
  8
0
 10
-300.0000000000352998
 20
84.9999958001444469
 30
0.0
 40
79.9999999998430553
 50
72.5423968762278832
 51
107.4576031237308058
  0
ARC
  5
F06
  8
0
 10
-496.4999999999997726
 20
133.0
 30
0.0
 40
30.0
 50
0.0
 51
180.0
  0
LINE
  5
F07
  8
0
 10
-466.4999999999998863
 20
133.0
 30
0.0
 11
-466.4999999999924967
 21
105.0
 31
0.0
  0
ARC
  5
F08
  8
0
 10
-476.5000000000069917
 20
105.0000000000144951
 30
0.0
 40
10.0000000000144809
 50
270.0000000000409841
 51
359.9999999999170086
  0
LINE
  5
F09
  8
0
 10
-476.4999999999997726
 20
95.0
 30
0.0
 11
-516.5000000000144382
 21
95.0000000000073044
 31
0.0
  0
ARC
  5
F0A
  8
0
 10
-516.4999999999998863
 20
105.0000000000073044
 30
0.0
 40
10.0
 50
180.0
 51
269.9999999998748876
  0
LINE
  5
F0B
  8
0
 10
-526.4999999999997726
 20
105.0
 30
0.0
 11
-526.4999999999997726
 21
133.0
 31
0.0
  0
ARC
  5
F0C
  8
0
 10
19.5000000000294804
 20
147.0060438920916965
 30
0.0
 40
14.9999999999706297
 50
0.0
 51
72.5423968764237515
  0
LINE
  5
F0D
  8
0
 10
34.5000000000001208
 20
147.0060438920918102
 30
0.0
 11
34.5000000000073896
 21
104.9999999999854055
 31
0.0
  0
ARC
  5
F0E
  8
0
 10
24.4999999999928413
 20
105.0
 30
0.0
 40
10.0000000000145501
 50
270.0000000000417231
 51
359.9999999999166107
  0
LINE
  5
F0F
  8
0
 10
24.5000000000001208
 20
94.9999999999854481
 30
0.0
 11
-24.5000000000144382
 21
94.999999999992724
 31
0.0
  0
ARC
  5
F10
  8
0
 10
-24.4999999999999005
 20
104.9999999999926956
 30
0.0
 40
9.9999999999999858
 50
180.0
 51
269.999999999875115
  0
LINE
  5
F11
  8
0
 10
-34.4999999999998934
 20
104.9999999999854055
 30
0.0
 11
-34.5000000000003482
 21
147.0060438920772867
 31
0.0
  0
ARC
  5
F12
  8
0
 10
-19.4999999999997691
 20
147.0060438920774004
 30
0.0
 40
15.0000000000005702
 50
107.4576031237217961
 51
180.0000000000003979
  0
ARC
  5
F13
  8
0
 10
-0.0000000000122158
 20
84.9999958001377536
 30
0.0
 40
79.9999999998424869
 50
72.5423968762451068
 51
107.4576031237482994
  0
ARC
  5
F14
  8
0
 10
419.5000000000296154
 20
147.0060438920918102
 30
0.0
 40
14.9999999999705498
 50
0.0
 51
72.5423968764241636
  0
LINE
  5
F15
  8
0
 10
434.5000000000001137
 20
147.0060438920918102
 30
0.0
 11
434.5000000000073896
 21
104.9999999999854055
 31
0.0
  0
ARC
  5
F16
  8
0
 10
424.4999999999928946
 20
104.9999999999999005
 30
0.0
 40
10.0000000000144809
 50
270.0000000000409841
 51
359.9999999999170086
  0
LINE
  5
F17
  8
0
 10
424.5
 20
94.9999999999854481
 30
0.0
 11
375.4999999999856186
 21
94.999999999992724
 31
0.0
  0
ARC
  5
F18
  8
0
 10
375.5000000000001137
 20
104.9999999999926956
 30
0.0
 40
10.0
 50
180.0
 51
269.9999999998748876
  0
LINE
  5
F19
  8
0
 10
365.5000000000001137
 20
104.9999999999854055
 30
0.0
 11
365.4999999999997158
 21
147.0060438920772867
 31
0.0
  0
ARC
  5
F1A
  8
0
 10
380.5000000000002842
 20
147.0060438920772867
 30
0.0
 40
15.0000000000006199
 50
107.4576031237219951
 51
180.0000000000003126
  0
ARC
  5
F1B
  8
0
 10
399.9999999999877787
 20
84.999995800137782
 30
0.0
 40
79.9999999998424585
 50
72.5423968762451494
 51
107.4576031237482994
  0
ARC
  5
F1C
  8
0
 10
319.5000000000296154
 20
147.0060438920918102
 30
0.0
 40
14.9999999999705498
 50
0.0
 51
72.5423968764241636
  0
LINE
  5
F1D
  8
0
 10
334.5000000000001137
 20
147.0060438920918102
 30
0.0
 11
334.5000000000073896
 21
104.9999999999854055
 31
0.0
  0
ARC
  5
F1E
  8
0
 10
324.4999999999928946
 20
104.9999999999999005
 30
0.0
 40
10.0000000000144809
 50
270.0000000000409841
 51
359.9999999999170086
  0
LINE
  5
F1F
  8
0
 10
324.5000000000001137
 20
94.9999999999854481
 30
0.0
 11
275.4999999999856186
 21
94.999999999992724
 31
0.0
  0
ARC
  5
F20
  8
0
 10
275.5000000000001137
 20
104.9999999999926956
 30
0.0
 40
10.0
 50
180.0
 51
269.9999999998748876
  0
LINE
  5
F21
  8
0
 10
265.5000000000001137
 20
104.9999999999854055
 30
0.0
 11
265.4999999999997158
 21
147.0060438920772867
 31
0.0
  0
ARC
  5
F22
  8
0
 10
280.5000000000002842
 20
147.0060438920772867
 30
0.0
 40
15.0000000000006199
 50
107.4576031237219951
 51
180.0000000000003126
  0
ARC
  5
F23
  8
0
 10
299.9999999999877787
 20
84.999995800137782
 30
0.0
 40
79.9999999998424585
 50
72.5423968762451494
 51
107.4576031237482994
  0
ARC
  5
F24
  8
0
 10
-380.4999999999703846
 20
147.0060438921063906
 30
0.0
 40
14.9999999999705498
 50
0.0
 51
72.5423968764241636
  0
LINE
  5
F25
  8
0
 10
-365.4999999999998863
 20
147.0060438921063906
 30
0.0
 11
-365.4999999999926104
 21
105.0
 31
0.0
  0
ARC
  5
F26
  8
0
 10
-375.5000000000069917
 20
105.0000000000144951
 30
0.0
 40
10.0000000000144809
 50
270.0000000000409841
 51
359.9999999999170086
  0
LINE
  5
F27
  8
0
 10
-375.4999999999998863
 20
95.0
 30
0.0
 11
-424.5000000000143814
 21
95.0000000000073044
 31
0.0
  0
ARC
  5
F28
  8
0
 10
-424.4999999999998863
 20
105.0000000000073044
 30
0.0
 40
10.0
 50
180.0
 51
269.9999999998748876
  0
LINE
  5
F29
  8
0
 10
-434.4999999999997726
 20
105.0
 30
0.0
 11
-434.5000000000002842
 21
147.0060438920918102
 31
0.0
  0
ARC
  5
F2A
  8
0
 10
-419.4999999999997158
 20
147.0060438920918955
 30
0.0
 40
15.0000000000006199
 50
107.4576031237219951
 51
180.0000000000003126
  0
ARC
  5
F2B
  8
0
 10
-400.0000000000121076
 20
84.9999958001523339
 30
0.0
 40
79.9999999998424585
 50
72.5423968762451494
 51
107.4576031237482994
  0
ARC
  5
F2C
  8
0
 10
-80.4999999999704841
 20
147.0060438920918102
 30
0.0
 40
14.9999999999705995
 50
0.0
 51
72.5423968764239362
  0
LINE
  5
F2D
  8
0
 10
-65.4999999999998863
 20
147.0060438920918102
 30
0.0
 11
-65.4999999999925961
 21
104.9999999999854055
 31
0.0
  0
ARC
  5
F2E
  8
0
 10
-75.5000000000071765
 20
105.0
 30
0.0
 40
10.0000000000145803
 50
270.0000000000417799
 51
359.999999999916497
  0
LINE
  5
F2F
  8
0
 10
-75.4999999999998863
 20
94.9999999999854481
 30
0.0
 11
-124.5000000000143956
 21
94.9999999999927098
 31
0.0
  0
ARC
  5
F30
  8
0
 10
-124.4999999999999005
 20
104.9999999999926956
 30
0.0
 40
10.0
 50
180.0
 51
269.9999999998750013
  0
LINE
  5
F31
  8
0
 10
-134.4999999999998863
 20
104.9999999999854055
 30
0.0
 11
-134.5000000000003126
 21
147.0060438920772867
 31
0.0
  0
ARC
  5
F32
  8
0
 10
-119.4999999999997016
 20
147.0060438920772867
 30
0.0
 40
15.0000000000006199
 50
107.4576031237219951
 51
180.0000000000003126
  0
ARC
  5
F33
  8
0
 10
-100.0000000000121929
 20
84.9999958001377962
 30
0.0
 40
79.9999999998424585
 50
72.5423968762451352
 51
107.4576031237482994
  0
LINE
  5
F34
  8
0
 10
-597.9999999999997726
 20
20.0
 30
0.0
 11
-592.9999999999997726
 21
20.0
 31
0.0
  0
LINE
  5
F35
  8
0
 10
-597.9999999999997726
 20
10.0
 30
0.0
 11
-597.9999999999997726
 21
20.0
 31
0.0
  0
LINE
  5
F36
  8
0
 10
-587.9999999999998863
 20
0.0
 30
0.0
 11
-597.9999999999997726
 21
10.0
 31
0.0
  0
LINE
  5
F37
  8
0
 10
588.0000000000001137
 20
0.0
 30
0.0
 11
-587.9999999999998863
 21
0.0
 31
0.0
  0
LINE
  5
F38
  8
0
 10
598.0000000000001137
 20
10.0
 30
0.0
 11
588.0000000000001137
 21
0.0
 31
0.0
  0
LINE
  5
F39
  8
0
 10
598.0000000000001137
 20
20.0
 30
0.0
 11
598.0000000000001137
 21
10.0
 31
0.0
  0
LINE
  5
F3A
  8
0
 10
593.0000000000001137
 20
20.0
 30
0.0
 11
598.0000000000001137
 21
20.0
 31
0.0
  0
LINE
  5
F3B
  8
0
 10
591.4443650813774411
 20
30.8894444302714
 30
0.0
 11
593.0000000000001137
 21
20.0
 31
0.0
  0
LINE
  5
F3C
  8
0
 10
577.3022294576441027
 20
45.0315800540120108
 30
0.0
 11
591.4443650813774411
 21
30.8894444302714
 31
0.0
  0
LINE
  5
F3D
  8
0
 10
574.4147601696605534
 20
65.2438650698895799
 30
0.0
 11
577.3022294576441027
 21
45.0315800540120108
 31
0.0
  0
LINE
  5
F3E
  8
0
 10
585.0213618874622625
 20
75.8504667876841268
 30
0.0
 11
574.4147601696605534
 21
65.2438650698895799
 31
0.0
  0
LINE
  5
F3F
  8
0
 10
581.4852813742401167
 20
100.6030303803418064
 30
0.0
 11
585.0213618874622625
 21
75.8504667876841268
 31
0.0
  0
LINE
  5
F40
  8
0
 10
567.3431457505066646
 20
114.7451660040678973
 30
0.0
 11
581.4852813742401167
 21
100.6030303803418064
 31
0.0
  0
LINE
  5
F41
  8
0
 10
562.3933982822054531
 20
149.3933982822053963
 30
0.0
 11
567.3431457505066646
 21
114.7451660040678973
 31
0.0
  0
LINE
  5
F42
  8
0
 10
573.0000000000001137
 20
160.0
 30
0.0
 11
562.3933982822054531
 21
149.3933982822053963
 31
0.0
  0
LINE
  5
F43
  8
0
 10
573.0000000000001137
 20
200.0
 30
0.0
 11
573.0000000000001137
 21
160.0
 31
0.0
  0
LINE
  5
F44
  8
0
 10
-572.9999999999997726
 20
200.0
 30
0.0
 11
573.0000000000001137
 21
200.0
 31
0.0
  0
LINE
  5
F45
  8
0
 10
-572.9999999999997726
 20
160.0
 30
0.0
 11
-572.9999999999997726
 21
200.0
 31
0.0
  0
LINE
  5
F46
  8
0
 10
-562.3933982822053395
 20
149.3933982822053963
 30
0.0
 11
-572.9999999999997726
 21
160.0
 31
0.0
  0
LINE
  5
F47
  8
0
 10
-567.3431457505065509
 20
114.7451660040678973
 30
0.0
 11
-562.3933982822053395
 21
149.3933982822053963
 31
0.0
  0
LINE
  5
F48
  8
0
 10
-581.4852813742397757
 20
100.6030303803418064
 30
0.0
 11
-567.3431457505065509
 21
114.7451660040678973
 31
0.0
  0
LINE
  5
F49
  8
0
 10
-585.0213618874621488
 20
75.8504667876841268
 30
0.0
 11
-581.4852813742397757
 21
100.6030303803418064
 31
0.0
  0
LINE
  5
F4A
  8
0
 10
-574.414760169660326
 20
65.2438650698895799
 30
0.0
 11
-585.0213618874621488
 21
75.8504667876841268
 31
0.0
  0
LINE
  5
F4B
  8
0
 10
-577.3022294576437616
 20
45.0315800540120108
 30
0.0
 11
-574.414760169660326
 21
65.2438650698895799
 31
0.0
  0
LINE
  5
F4C
  8
0
 10
-591.4443650813772138
 20
30.8894444302714
 30
0.0
 11
-577.3022294576437616
 21
45.0315800540120108
 31
0.0
  0
LINE
  5
F4D
  8
0
 10
-592.9999999999997726
 20
20.0
 30
0.0
 11
-591.4443650813772138
 21
30.8894444302714
 31
0.0
  0
ENDBLK
  5
F4F
  8
0
  0
BLOCK
  8
0
  2
*U7
 70
     1
 10
0.0
 20
0.0
 30
0.0
  3
*U7
  1

  0
ARC
  5
F51
  8
A--L23
 10
-400.0000000000121076
 20
84.9999958001523623
 30
0.0
 40
79.99999999984243
 50
72.5423968762451352
 51
107.4576031237482994
  0
ARC
  5
F52
  8
A--L23
 10
-380.4999999999703846
 20
147.0060438921063906
 30
0.0
 40
14.9999999999705498
 50
0.0
 51
72.5423968764241636
  0
LINE
  5
F53
  8
A--L23
 10
-365.4999999999998863
 20
147.0060438921063906
 30
0.0
 11
-365.4999999999924967
 21
105.0
 31
0.0
  0
ARC
  5
F54
  8
A--L23
 10
-375.5000000000069917
 20
105.0000000000143956
 30
0.0
 40
10.0000000000144595
 50
270.0000000000406999
 51
359.9999999999171223
  0
LINE
  5
F55
  8
A--L23
 10
-375.4999999999998863
 20
95.0
 30
0.0
 11
-424.5000000000216005
 21
95.000000000007276
 31
0.0
  0
ARC
  5
F56
  8
A--L23
 10
-424.5000000000034106
 20
105.0000000000036948
 30
0.0
 40
9.9999999999964189
 50
180.0
 51
269.9999999998743192
  0
LINE
  5
F57
  8
A--L23
 10
-434.4999999999997726
 20
105.0
 30
0.0
 11
-434.5000000000002842
 21
147.0060438920918102
 31
0.0
  0
ARC
  5
F58
  8
A--L23
 10
-419.4999999999997158
 20
147.0060438920918955
 30
0.0
 40
15.0000000000006199
 50
107.4576031237219951
 51
180.0000000000003126
  0
ARC
  5
F59
  8
A--L23
 10
-300.0000000000352998
 20
84.9999958001443048
 30
0.0
 40
79.999999999843169
 50
72.5423968762279827
 51
107.4576031237308058
  0
ARC
  5
F5A
  8
A--L23
 10
-280.4999999999703846
 20
147.0060438920918102
 30
0.0
 40
14.9999999999705498
 50
0.0
 51
72.5423968764241636
  0
LINE
  5
F5B
  8
A--L23
 10
-265.4999999999998863
 20
147.0060438920918102
 30
0.0
 11
-265.4999999999924967
 21
104.9999999999854055
 31
0.0
  0
ARC
  5
F5C
  8
A--L23
 10
-275.5000000000069917
 20
104.9999999999999005
 30
0.0
 40
10.0000000000144595
 50
270.0000000000406999
 51
359.9999999999171223
  0
LINE
  5
F5D
  8
A--L23
 10
-275.4999999999998863
 20
94.9999999999854481
 30
0.0
 11
-324.5000000000217142
 21
95.000000000007276
 31
0.0
  0
ARC
  5
F5E
  8
A--L23
 10
-324.5000000000035243
 20
105.0000000000036948
 30
0.0
 40
9.9999999999964189
 50
180.0
 51
269.9999999998743192
  0
LINE
  5
F5F
  8
A--L23
 10
-334.4999999999998863
 20
105.0
 30
0.0
 11
-334.5000000000002842
 21
147.0060438920918102
 31
0.0
  0
ARC
  5
F60
  8
A--L23
 10
-319.4999999999997158
 20
147.0060438920918955
 30
0.0
 40
15.0000000000006199
 50
107.4576031237219951
 51
180.0000000000003126
  0
ARC
  5
F61
  8
A--L23
 10
-200.000000000011994
 20
84.9999958001380662
 30
0.0
 40
79.9999999998421458
 50
72.5423968762451636
 51
107.4576031237484983
  0
ARC
  5
F62
  8
A--L23
 10
-180.4999999999704983
 20
147.0060438920918102
 30
0.0
 40
14.9999999999706404
 50
0.0
 51
72.5423968764237941
  0
LINE
  5
F63
  8
A--L23
 10
-165.4999999999998863
 20
147.0060438920918102
 30
0.0
 11
-165.4999999999926104
 21
104.9999999999854055
 31
0.0
  0
ARC
  5
F64
  8
A--L23
 10
-175.5000000000071054
 20
105.0
 30
0.0
 40
10.0000000000145199
 50
270.000000000041382
 51
359.9999999999167812
  0
LINE
  5
F65
  8
A--L23
 10
-175.4999999999998863
 20
94.9999999999854481
 30
0.0
 11
-224.5000000000217142
 21
94.999999999992724
 31
0.0
  0
ARC
  5
F66
  8
A--L23
 10
-224.5000000000034959
 20
104.9999999999891003
 30
0.0
 40
9.9999999999964189
 50
180.0
 51
269.9999999998743192
  0
LINE
  5
F67
  8
A--L23
 10
-234.4999999999998863
 20
104.9999999999854055
 30
0.0
 11
-234.5000000000003126
 21
147.0060438920772867
 31
0.0
  0
ARC
  5
F68
  8
A--L23
 10
-219.499999999999801
 20
147.0060438920774004
 30
0.0
 40
15.00000000000054
 50
107.4576031237218956
 51
180.0000000000003979
  0
LINE
  5
F69
  8
A--L23
 10
-466.4999999999998863
 20
133.0
 30
0.0
 11
-466.4999999999924967
 21
105.0
 31
0.0
  0
ARC
  5
F6A
  8
A--L23
 10
-476.5000000000068781
 20
105.0000000000143956
 30
0.0
 40
10.00000000001444
 50
270.0000000001235776
 51
0.0
  0
LINE
  5
F6B
  8
A--L23
 10
-476.4999999999997726
 20
95.0000000000000284
 30
0.0
 11
-516.5000000000217142
 21
95.000000000007276
 31
0.0
  0
ARC
  5
F6C
  8
A--L23
 10
-516.5000000000032969
 20
105.0000000000037943
 30
0.0
 40
9.9999999999965894
 50
180.0000000000221121
 51
269.9999999998951239
  0
LINE
  5
F6D
  8
A--L23
 10
-526.4999999999998863
 20
105.0
 30
0.0
 11
-526.4999999999997726
 21
133.0
 31
0.0
  0
ARC
  5
F6E
  8
A--L23
 10
-496.4999999999997726
 20
133.0
 30
0.0
 40
30.0
 50
0.0
 51
180.0
  0
ARC
  5
F6F
  8
A--L23
 10
-100.0000000000120934
 20
84.9999958001380662
 30
0.0
 40
79.9999999998422169
 50
72.5423968762450784
 51
107.4576031237483988
  0
ARC
  5
F70
  8
A--L23
 10
-80.4999999999705977
 20
147.0060438920916965
 30
0.0
 40
14.9999999999707203
 50
0.0
 51
72.542396876423382
  0
LINE
  5
F71
  8
A--L23
 10
-65.4999999999998863
 20
147.0060438920918102
 30
0.0
 11
-65.4999999999925961
 21
104.9999999999854055
 31
0.0
  0
ARC
  5
F72
  8
A--L23
 10
-75.5000000000071196
 20
105.0
 30
0.0
 40
10.0000000000145199
 50
270.000000000041382
 51
359.9999999999167244
  0
LINE
  5
F73
  8
A--L23
 10
-75.4999999999998863
 20
94.9999999999854481
 30
0.0
 11
-124.5000000000217
 21
94.999999999992724
 31
0.0
  0
ARC
  5
F74
  8
A--L23
 10
-124.5000000000034959
 20
104.9999999999891003
 30
0.0
 40
9.999999999996362
 50
180.0
 51
269.9999999998748876
  0
LINE
  5
F75
  8
A--L23
 10
-134.4999999999998863
 20
104.9999999999854055
 30
0.0
 11
-134.5000000000003126
 21
147.0060438920772867
 31
0.0
  0
ARC
  5
F76
  8
A--L23
 10
-119.4999999999997016
 20
147.0060438920774004
 30
0.0
 40
15.0000000000006199
 50
107.4576031237219951
 51
180.0000000000003979
  0
LINE
  5
F77
  8
A--L23
 10
-597.9999999999997726
 20
10.0
 30
0.0
 11
-597.9999999999997726
 21
20.0
 31
0.0
  0
LINE
  5
F78
  8
A--L23
 10
-587.9999999999998863
 20
0.0
 30
0.0
 11
-597.9999999999997726
 21
10.0
 31
0.0
  0
LINE
  5
F79
  8
A--L23
 10
0.0000000000001137
 20
0.0
 30
0.0
 11
-587.9999999999998863
 21
0.0
 31
0.0
  0
LINE
  5
F7A
  8
A--L23
 10
0.0000000000001137
 20
94.9999999999890861
 30
0.0
 11
0.0000000000001137
 21
0.0
 31
0.0
  0
LINE
  5
F7B
  8
A--L23
 10
-24.5000000000217
 20
94.999999999992724
 30
0.0
 11
0.0000000000001137
 21
94.9999999999890861
 31
0.0
  0
ARC
  5
F7C
  8
A--L23
 10
-24.5000000000034817
 20
104.9999999999891003
 30
0.0
 40
9.9999999999964047
 50
180.0
 51
269.999999999874376
  0
LINE
  5
F7D
  8
A--L23
 10
-34.5000000000003268
 20
147.0060438920772867
 30
0.0
 11
-34.4999999999998934
 21
104.9999999999854055
 31
0.0
  0
ARC
  5
F7E
  8
A--L23
 10
-19.4999999999998117
 20
147.0060438920774004
 30
0.0
 40
15.0000000000005098
 50
107.4576031237216966
 51
180.0000000000007105
  0
ARC
  5
F7F
  8
A--L23
 10
-0.0000000000121432
 20
84.9999958001379241
 30
0.0
 40
79.9999999998423164
 50
89.9999999999912177
 51
107.4576031237483988
  0
LINE
  5
F80
  8
A--L23
 10
0.0000000000001137
 20
200.0
 30
0.0
 11
0.0000000000001137
 21
164.999995799980212
 31
0.0
  0
LINE
  5
F81
  8
A--L23
 10
-572.9999999999997726
 20
200.0
 30
0.0
 11
0.0000000000001137
 21
200.0
 31
0.0
  0
LINE
  5
F82
  8
A--L23
 10
-572.9999999999997726
 20
160.0
 30
0.0
 11
-572.9999999999997726
 21
200.0
 31
0.0
  0
LINE
  5
F83
  8
A--L23
 10
-562.3933982822053395
 20
149.3933982822053963
 30
0.0
 11
-572.9999999999997726
 21
160.0
 31
0.0
  0
LINE
  5
F84
  8
A--L23
 10
-567.3431457505065509
 20
114.7451660040678973
 30
0.0
 11
-562.3933982822053395
 21
149.3933982822053963
 31
0.0
  0
LINE
  5
F85
  8
A--L23
 10
-581.4852813742397757
 20
100.6030303803418064
 30
0.0
 11
-567.3431457505065509
 21
114.7451660040678973
 31
0.0
  0
LINE
  5
F86
  8
A--L23
 10
-585.0213618874621488
 20
75.8504667876841268
 30
0.0
 11
-581.4852813742397757
 21
100.6030303803418064
 31
0.0
  0
LINE
  5
F87
  8
A--L23
 10
-574.414760169660326
 20
65.2438650698895799
 30
0.0
 11
-585.0213618874621488
 21
75.8504667876841268
 31
0.0
  0
LINE
  5
F88
  8
A--L23
 10
-577.3022294576437616
 20
45.0315800540120108
 30
0.0
 11
-574.414760169660326
 21
65.2438650698895799
 31
0.0
  0
LINE
  5
F89
  8
A--L23
 10
-591.4443650813772138
 20
30.8894444302714
 30
0.0
 11
-577.3022294576437616
 21
45.0315800540120108
 31
0.0
  0
LINE
  5
F8A
  8
A--L23
 10
-592.9999999999997726
 20
20.0
 30
0.0
 11
-591.4443650813772138
 21
30.8894444302714
 31
0.0
  0
LINE
  5
F8B
  8
A--L23
 10
-597.9999999999997726
 20
20.0
 30
0.0
 11
-592.9999999999997726
 21
20.0
 31
0.0
  0
ENDBLK
  5
F8D
  8
0
  0
ENDSEC
  0
SECTION
  2
ENTITIES
  0
TEXT
  5
118
  8
0
 10
-3004.3983731911889663
 20
4021.8230784719280564
 30
0.0
 40
100.0
  1
Appartementenvloer 200
  7
T25
  0
TEXT
  5
119
  8
0
 10
-3003.8597395632677944
 20
3521.5198612450039946
 30
0.0
 40
75.0
  1
Dwarsdoorsnede
  7
T25
  0
TEXT
  5
11A
  8
0
 10
-3000.8728959553491222
 20
3123.3241199879271335
 30
0.0
 40
50.0
  1
standaard element
  7
T25
  0
TEXT
  5
11B
  8
0
 10
-3003.7288001062038347
 20
2521.4906985891698241
 30
0.0
 40
75.0
  1
Langsdoorsnede
  7
T25
  0
TEXT
  5
186
  8
0
 10
-1200.8728959553479854
 20
3123.3241199879271335
 30
0.0
 40
50.0
  1
pasplaat (600 mm)
  7
T25
  0
TEXT
  5
25E
  8
0
 10
-1852.2857915463359859
 20
3123.3241199879271335
 30
0.0
 40
50.0
  1
voeg
  7
T25
  0
INSERT
  5
2EE
  8
0
  2
VBI_AL200_DDRSN_NP
 10
-2397.746738812365038
 20
3221.7943083745622062
 30
0.0
  0
INSERT
  5
31F
  8
0
  2
VBI_AL200_DDRSN_PP
 10
-595.7467383084247103
 20
3221.794307969430065
 30
0.0
  0
INSERT
  5
326
  8
0
  2
*U5
 10
-2995.7467382851168622
 20
2221.7943081836369856
 30
0.0
  0
ENDSEC
  0
EOF
