  0
SECTION
  2
HEADER
  9
$ACADVER
  1
AC1009
  9
$INSBASE
 10
0.0
 20
0.0
 30
0.0
  9
$EXTMIN
 10
-3004.695064057835225
 20
2221.6288922908302084
 30
-0.0015258207003583
  9
$EXTMAX
 10
-595.7302421426192041
 20
4148.4162596004080115
 30
0.0000000349246037
  9
$LIMMIN
 10
0.0
 20
0.0
  9
$LIMMAX
 10
12.0
 20
9.0
  9
$ORTHOMODE
 70
     0
  9
$REGENMODE
 70
     1
  9
$FILLMODE
 70
     1
  9
$QTEXTMODE
 70
     0
  9
$MIRRTEXT
 70
     1
  9
$DRAGMODE
 70
     2
  9
$LTSCALE
 40
100.0
  9
$OSMODE
 70
   255
  9
$ATTMODE
 70
     1
  9
$TEXTSIZE
 40
50.0
  9
$TRACEWID
 40
0.05
  9
$TEXTSTYLE
  7
T25
  9
$CLAYER
  8
A--L23
  9
$CELTYPE
  6
BYLAYER
  9
$CECOLOR
 62
   256
  9
$DIMSCALE
 40
10.0
  9
$DIMASZ
 40
1.0
  9
$DIMEXO
 40
3.0
  9
$DIMDLI
 40
0.0
  9
$DIMRND
 40
0.0
  9
$DIMDLE
 40
0.0
  9
$DIMEXE
 40
1.0
  9
$DIMTP
 40
0.0
  9
$DIMTM
 40
0.0
  9
$DIMTXT
 40
1.0
  9
$DIMCEN
 40
0.0
  9
$DIMTSZ
 40
0.0
  9
$DIMTOL
 70
     0
  9
$DIMLIM
 70
     0
  9
$DIMTIH
 70
     0
  9
$DIMTOH
 70
     0
  9
$DIMSE1
 70
     1
  9
$DIMSE2
 70
     1
  9
$DIMTAD
 70
     0
  9
$DIMZIN
 70
     1
  9
$DIMBLK
  1

  9
$DIMASO
 70
     1
  9
$DIMSHO
 70
     1
  9
$DIMPOST
  1

  9
$DIMAPOST
  1

  9
$DIMALT
 70
     0
  9
$DIMALTD
 70
     0
  9
$DIMALTF
 40
0.039
  9
$DIMLFAC
 40
1.0
  9
$DIMTOFL
 70
     1
  9
$DIMTVP
 40
0.8
  9
$DIMTIX
 70
     1
  9
$DIMSOXD
 70
     0
  9
$DIMSAH
 70
     1
  9
$DIMBLK1
  1
DIMDOT
  9
$DIMBLK2
  1
DIMDOT
  9
$DIMSTYLE
  2
REND
  9
$DIMCLRD
 70
     1
  9
$DIMCLRE
 70
   141
  9
$DIMCLRT
 70
     0
  9
$DIMTFAC
 40
1.0
  9
$DIMGAP
 40
0.5
  9
$LUNITS
 70
     2
  9
$LUPREC
 70
     4
  9
$SKETCHINC
 40
0.1
  9
$FILLETRAD
 40
0.0
  9
$AUNITS
 70
     0
  9
$AUPREC
 70
     0
  9
$MENU
  1
.
  9
$ELEVATION
 40
0.0
  9
$PELEVATION
 40
0.0
  9
$THICKNESS
 40
0.0
  9
$LIMCHECK
 70
     0
  9
$BLIPMODE
 70
     0
  9
$CHAMFERA
 40
0.5
  9
$CHAMFERB
 40
0.5
  9
$SKPOLY
 70
     0
  9
$TDCREATE
 40
2453284.3702893517911434
  9
$TDUPDATE
 40
2459984.3969212961383164
  9
$TDINDWG
 40
0.071312037
  9
$TDUSRTIMER
 40
0.0712849074
  9
$USRTIMER
 70
     1
  9
$ANGBASE
 50
0.0
  9
$ANGDIR
 70
     0
  9
$PDMODE
 70
     0
  9
$PDSIZE
 40
0.0
  9
$PLINEWID
 40
0.0
  9
$COORDS
 70
     1
  9
$SPLFRAME
 70
     0
  9
$SPLINETYPE
 70
     6
  9
$SPLINESEGS
 70
     8
  9
$ATTDIA
 70
     1
  9
$ATTREQ
 70
     1
  9
$HANDLING
 70
     1
  9
$HANDSEED
  5
D2E
  9
$SURFTAB1
 70
     6
  9
$SURFTAB2
 70
     6
  9
$SURFTYPE
 70
     6
  9
$SURFU
 70
     6
  9
$SURFV
 70
     6
  9
$UCSNAME
  2

  9
$UCSORG
 10
0.0
 20
0.0
 30
0.0
  9
$UCSXDIR
 10
1.0
 20
0.0
 30
0.0
  9
$UCSYDIR
 10
0.0
 20
1.0
 30
0.0
  9
$PUCSNAME
  2

  9
$PUCSORG
 10
0.0
 20
0.0
 30
0.0
  9
$PUCSXDIR
 10
1.0
 20
0.0
 30
0.0
  9
$PUCSYDIR
 10
0.0
 20
1.0
 30
0.0
  9
$USERI1
 70
     0
  9
$USERI2
 70
     0
  9
$USERI3
 70
     0
  9
$USERI4
 70
     0
  9
$USERI5
 70
     0
  9
$USERR1
 40
0.0
  9
$USERR2
 40
0.0
  9
$USERR3
 40
0.0
  9
$USERR4
 40
0.0
  9
$USERR5
 40
0.0
  9
$WORLDVIEW
 70
     1
  9
$SHADEDGE
 70
     3
  9
$SHADEDIF
 70
    70
  9
$TILEMODE
 70
     1
  9
$MAXACTVP
 70
    64
  9
$PLIMCHECK
 70
     0
  9
$PEXTMIN
 10
1.0000000000000000E+20
 20
1.0000000000000000E+20
 30
1.0000000000000000E+20
  9
$PEXTMAX
 10
-1.0000000000000000E+20
 20
-1.0000000000000000E+20
 30
-1.0000000000000000E+20
  9
$PLIMMIN
 10
0.0
 20
0.0
  9
$PLIMMAX
 10
12.0
 20
9.0
  9
$UNITMODE
 70
     0
  9
$VISRETAIN
 70
     1
  9
$PLINEGEN
 70
     0
  9
$PSLTSCALE
 70
     1
  0
ENDSEC
  0
SECTION
  2
TABLES
  0
TABLE
  2
VPORT
 70
     1
  0
VPORT
  2
*ACTIVE
 70
     0
 10
0.0
 20
0.0
 11
1.0
 21
1.0
 12
-1800.212653100227044
 22
3185.0225759456188825
 13
0.0
 23
0.0
 14
0.5
 24
0.5
 15
0.5
 25
0.5
 16
0.0
 26
0.0
 36
1.0
 17
0.0
 27
0.0
 37
0.0
 40
1941.6852077784660651
 41
2.411612903225806
 42
50.0
 43
0.0
 44
0.0
 50
0.0
 51
0.0
 71
     0
 72
   100
 73
     1
 74
     3
 75
     0
 76
     0
 77
     0
 78
     0
  0
ENDTAB
  0
TABLE
  2
LTYPE
 70
     2
  0
LTYPE
  2
CONTINUOUS
 70
     0
  3
Solid line
 72
    65
 73
     0
 40
0.0
  0
LTYPE
  2
DASHED
 70
     0
  3
Dashed __ __ __ __ __ __ __ __ __ __ __ __ __ _
 72
    65
 73
     2
 40
0.75
 49
0.5
 49
-0.25
  0
ENDTAB
  0
TABLE
  2
LAYER
 70
     2
  0
LAYER
  2
0
 70
     0
 62
     7
  6
CONTINUOUS
  0
LAYER
  2
A--L23
 70
     0
 62
     7
  6
CONTINUOUS
  0
ENDTAB
  0
TABLE
  2
STYLE
 70
     6
  0
STYLE
  2
STANDARD
 70
     0
 40
0.0
 41
1.0
 50
0.0
 71
     0
 42
0.2
  3
txt
  4

  0
STYLE
  2
T25
 70
     0
 40
50.0
 41
1.0
 50
0.0
 71
     0
 42
50.0
  3
txt
  4

  0
ENDTAB
  0
TABLE
  2
VIEW
 70
     1
  0
ENDTAB
  0
TABLE
  2
UCS
 70
     0
  0
ENDTAB
  0
TABLE
  2
APPID
 70
    23
  0
APPID
  2
ACAD
 70
     0
  0
APPID
  2
VBI
 70
     0
  0
APPID
  2
AVE_RENDER
 70
     0
  0
APPID
  2
AVE_ENTITY_MATERIAL
 70
     0
  0
APPID
  2
AVE_FINISH
 70
     0
  0
APPID
  2
AVE_MATERIAL
 70
     0
  0
APPID
  2
AVE_GLOBAL
 70
     0
  0
APPID
  2
ACAD_EXEMPT_FROM_CAD_STANDARDS
 70
     0
  0
APPID
  2
ACAD_DSTYLE_DIM_LINETYPE
 70
     0
  0
APPID
  2
ACAD_DSTYLE_DIM_EXT1_LINETYPE
 70
     0
  0
APPID
  2
ACAD_DSTYLE_DIM_EXT2_LINETYPE
 70
     0
  0
APPID
  2
ACAECLAYERSTANDARD
 70
     0
  0
APPID
  2
ACAD_MATERIAL_MAPPER
 70
     0
  0
APPID
  2
ACAD_PSEXT
 70
     0
  0
APPID
  2
ACAUTHENVIRON
 70
     0
  0
APPID
  2
ACDBDYNAMICBLOCKTRUENAME
 70
     0
  0
APPID
  2
ACDBDYNAMICBLOCKGUID
 70
     0
  0
APPID
  2
ACDBBLOCKREPETAG
 70
     0
  0
APPID
  2
ACAD_NAV_VCDISPLAY
 70
     0
  0
APPID
  2
ACDBBLOCKREPBTAG
 70
     0
  0
APPID
  2
ACADANNOPO
 70
     0
  0
APPID
  2
CONTENTBLOCKICON
 70
     0
  0
APPID
  2
ACAD_MLEADERVER
 70
     0
  0
ENDTAB
  0
TABLE
  2
DIMSTYLE
 70
     3
  0
DIMSTYLE
  2
REND
 70
     0
  3

  4

  5

  6
DIMDOT
  7
DIMDOT
 40
10.0
 41
1.0
 42
3.0
 43
0.0
 44
1.0
 45
0.0
 46
0.0
 47
0.0
 48
0.0
140
1.0
141
0.0
142
0.0
143
0.039
144
1.0
145
0.8
146
1.0
147
0.5
 71
     0
 72
     0
 73
     0
 74
     0
 75
     1
 76
     1
 77
     0
 78
     1
170
     0
171
     0
172
     1
173
     1
174
     1
175
     0
176
     1
177
   141
178
     0
  0
DIMSTYLE
  2
STANDARD
 70
     0
  3

  4

  5

  6

  7

 40
1.0
 41
0.18
 42
0.0625
 43
0.38
 44
0.18
 45
0.0
 46
0.0
 47
0.0
 48
0.0
140
0.18
141
0.09
142
0.0
143
25.3999999999999986
144
1.0
145
0.0
146
1.0
147
0.09
 71
     0
 72
     0
 73
     1
 74
     1
 75
     0
 76
     0
 77
     0
 78
     0
170
     0
171
     2
172
     0
173
     0
174
     0
175
     0
176
     0
177
     0
178
     0
  0
ENDTAB
  0
ENDSEC
  0
SECTION
  2
BLOCKS
  0
BLOCK
  8
0
  2
$MODEL_SPACE
 70
     0
 10
0.0
 20
0.0
 30
0.0
  3
$MODEL_SPACE
  1

  0
ENDBLK
  5
21
  8
0
  0
BLOCK
 67
     1
  8
0
  2
$PAPER_SPACE
 70
     0
 10
0.0
 20
0.0
 30
0.0
  3
$PAPER_SPACE
  1

  0
ENDBLK
  5
1D
 67
     1
  8
0
  0
BLOCK
  8
0
  2
DIMDOT
 70
     0
 10
0.0
 20
0.0
 30
0.0
  3
DIMDOT
  1
DIMDOT
  0
LINE
  5
69
  8
0
 62
     0
 10
-2.0
 20
0.0
 30
0.0
 11
2.0
 21
0.0
 31
0.0
  0
LINE
  5
6A
  8
0
 62
     0
 10
0.0
 20
-3.5
 30
0.0
 11
0.0
 21
3.5
 31
0.0
  0
CIRCLE
  5
6B
  8
0
 62
     0
 10
0.0
 20
0.0
 30
0.0
 40
0.5
  0
CIRCLE
  5
6C
  8
0
 62
     0
 10
0.0
 20
0.0
 30
0.0
 40
0.25
  0
ENDBLK
  5
39
  8
0
  0
BLOCK
  8
0
  2
VBI_AL260-DDRSN-NP
 70
     0
 10
0.0
 20
0.0
 30
0.0
  3
VBI_AL260-DDRSN-NP
  1

  0
POLYLINE
  5
3B0
  8
A--L23
 62
     1
 66
     1
 10
0.0
 20
0.0
 30
0.0
 70
     1
  0
VERTEX
  5
C41
  8
A--L23
 62
     1
 10
600.0
 20
260.0000000000003979
 30
0.0
  0
VERTEX
  5
C42
  8
A--L23
 62
     1
 10
573.0
 20
260.0000000000003979
 30
0.0
  0
VERTEX
  5
C43
  8
A--L23
 62
     1
 10
573.0
 20
220.0000000000005116
 30
0.0
  0
VERTEX
  5
C44
  8
A--L23
 62
     1
 10
561.0
 20
208.0
 30
0.0
  0
VERTEX
  5
C45
  8
A--L23
 62
     1
 10
561.0
 20
140.0
 30
0.0
  0
VERTEX
  5
C46
  8
A--L23
 62
     1
 10
573.0
 20
128.0
 30
0.0
  0
VERTEX
  5
C47
  8
A--L23
 62
     1
 10
573.0
 20
95.0
 30
0.0
  0
VERTEX
  5
C48
  8
A--L23
 62
     1
 10
563.337650603987754
 20
84.6612861462667752
 30
0.0
  0
VERTEX
  5
C49
  8
A--L23
 62
     1
 10
571.917816867646593
 20
52.4856626575451628
 30
0.0
  0
VERTEX
  5
C4A
  8
A--L23
 62
     1
 10
588.4597590336197754
 20
37.0259036239258421
 30
0.0
  0
VERTEX
  5
C4B
  8
A--L23
 62
     1
 10
593.0
 20
20.0
 30
0.0
  0
VERTEX
  5
C4C
  8
A--L23
 62
     1
 10
600.0
 20
20.0
 30
0.0
  0
VERTEX
  5
C4D
  8
A--L23
 62
     1
 10
607.0
 20
20.0
 30
0.0
  0
VERTEX
  5
C4E
  8
A--L23
 62
     1
 10
611.5402409663801109
 20
37.0259036239258421
 30
0.0
  0
VERTEX
  5
C4F
  8
A--L23
 62
     1
 10
628.0821831323532933
 20
52.4856626575451628
 30
0.0
  0
VERTEX
  5
C50
  8
A--L23
 62
     1
 10
636.6623493960121323
 20
84.6612861462667752
 30
0.0
  0
VERTEX
  5
C51
  8
A--L23
 62
     1
 10
627.0
 20
95.0
 30
0.0
  0
VERTEX
  5
C52
  8
A--L23
 62
     1
 10
627.0
 20
128.0
 30
0.0
  0
VERTEX
  5
C53
  8
A--L23
 62
     1
 10
639.0
 20
140.0
 30
0.0
  0
VERTEX
  5
C54
  8
A--L23
 62
     1
 10
639.0
 20
208.0
 30
0.0
  0
VERTEX
  5
C55
  8
A--L23
 62
     1
 10
627.0
 20
220.0000000000005116
 30
0.0
  0
VERTEX
  5
C56
  8
A--L23
 62
     1
 10
627.0
 20
260.0000000000003979
 30
0.0
  0
SEQEND
  5
C57
  8
A--L23
 62
     1
  0
POLYLINE
  5
3E7
  8
A--L23
 66
     1
 10
0.0
 20
0.0
 30
0.0
 70
     1
  0
VERTEX
  5
C5C
  8
A--L23
 10
-467.4999999999989768
 20
145.0
 30
0.0
 42
-0.4142135623730951
  0
VERTEX
  5
C5D
  8
A--L23
 10
-477.4999999999989768
 20
135.0
 30
0.0
  0
VERTEX
  5
C5E
  8
A--L23
 10
-512.9999999999990905
 20
135.0
 30
0.0
 42
-0.4142135623730951
  0
VERTEX
  5
C5F
  8
A--L23
 10
-522.9999999999989768
 20
145.0
 30
0.0
  0
VERTEX
  5
C60
  8
A--L23
 10
-522.9999999999989768
 20
179.25
 30
0.0
 42
-0.9999999999999998
  0
VERTEX
  5
C61
  8
A--L23
 10
-467.4999999999989768
 20
179.25
 30
0.0
  0
SEQEND
  5
C62
  8
A--L23
  0
POLYLINE
  5
3E8
  8
A--L23
 66
     1
 10
0.0
 20
0.0
 30
0.0
  0
VERTEX
  5
C63
  8
A--L23
 10
-572.9999999999989768
 20
128.0
 30
0.0
  0
VERTEX
  5
C64
  8
A--L23
 10
-560.9999999999990905
 20
140.0
 30
0.0
  0
VERTEX
  5
C65
  8
A--L23
 10
-560.9999999999990905
 20
208.0
 30
0.0
  0
VERTEX
  5
C66
  8
A--L23
 10
-572.9999999999989768
 20
220.0
 30
0.0
  0
VERTEX
  5
C67
  8
A--L23
 10
-572.9999999999989768
 20
260.0
 30
0.0
  0
VERTEX
  5
C68
  8
A--L23
 10
573.0
 20
260.0
 30
0.0
  0
VERTEX
  5
C69
  8
A--L23
 10
573.0
 20
220.0
 30
0.0
  0
VERTEX
  5
C6A
  8
A--L23
 10
561.0
 20
208.0
 30
0.0
  0
VERTEX
  5
C6B
  8
A--L23
 10
561.0
 20
140.0
 30
0.0
  0
VERTEX
  5
C6C
  8
A--L23
 10
573.0
 20
128.0
 30
0.0
  0
VERTEX
  5
C6D
  8
A--L23
 10
573.0
 20
95.0
 30
0.0
  0
VERTEX
  5
C6E
  8
A--L23
 10
563.3376506039876404
 20
84.6612861462672441
 30
0.0
  0
VERTEX
  5
C6F
  8
A--L23
 10
571.9178168676470477
 20
52.4856626575456104
 30
0.0
  0
VERTEX
  5
C70
  8
A--L23
 10
588.4597590336197754
 20
37.0259036239258421
 30
0.0
  0
VERTEX
  5
C71
  8
A--L23
 10
593.0
 20
20.0
 30
0.0
  0
VERTEX
  5
C72
  8
A--L23
 10
598.0
 20
20.0
 30
0.0
  0
VERTEX
  5
C73
  8
A--L23
 10
598.0
 20
10.0
 30
0.0
  0
VERTEX
  5
C74
  8
A--L23
 10
588.0
 20
0.0
 30
0.0
  0
VERTEX
  5
C75
  8
A--L23
 10
-587.9999999999990905
 20
0.0
 30
0.0
  0
VERTEX
  5
C76
  8
A--L23
 10
-597.9999999999989768
 20
10.0
 30
0.0
  0
VERTEX
  5
C77
  8
A--L23
 10
-597.9999999999989768
 20
20.0
 30
0.0
  0
VERTEX
  5
C78
  8
A--L23
 10
-592.9999999999989768
 20
20.0
 30
0.0
  0
VERTEX
  5
C79
  8
A--L23
 10
-588.4597590336188659
 20
37.0259036239258421
 30
0.0
  0
VERTEX
  5
C7A
  8
A--L23
 10
-571.9178168676470477
 20
52.4856626575456104
 30
0.0
  0
VERTEX
  5
C7B
  8
A--L23
 10
-563.3376506039885498
 20
84.6612861462672441
 30
0.0
  0
VERTEX
  5
C7C
  8
A--L23
 10
-572.9999999999989768
 20
95.0
 30
0.0
  0
VERTEX
  5
C7D
  8
A--L23
 10
-572.9999999999989768
 20
128.0
 30
0.0
  0
SEQEND
  5
C7E
  8
A--L23
  0
POLYLINE
  5
3E9
  8
A--L23
 66
     1
 10
0.0
 20
0.0
 30
0.0
 70
     1
  0
VERTEX
  5
C7F
  8
A--L23
 10
467.4999999999998863
 20
145.0
 30
0.0
 42
0.4142135623730951
  0
VERTEX
  5
C80
  8
A--L23
 10
477.5
 20
135.0
 30
0.0
  0
VERTEX
  5
C81
  8
A--L23
 10
513.0
 20
135.0
 30
0.0
 42
0.4142135623730951
  0
VERTEX
  5
C82
  8
A--L23
 10
523.0
 20
145.0
 30
0.0
  0
VERTEX
  5
C83
  8
A--L23
 10
523.0
 20
179.25
 30
0.0
 42
0.9999999999999998
  0
VERTEX
  5
C84
  8
A--L23
 10
467.4999999999998863
 20
179.25
 30
0.0
  0
SEQEND
  5
C85
  8
A--L23
  0
POLYLINE
  5
3EA
  8
A--L23
 66
     1
 10
0.0
 20
0.0
 30
0.0
 70
     1
  0
VERTEX
  5
C86
  8
A--L23
 10
376.5
 20
135.0
 30
0.0
  0
VERTEX
  5
C87
  8
A--L23
 10
423.5
 20
135.0
 30
0.0
 42
0.4142135623730951
  0
VERTEX
  5
C88
  8
A--L23
 10
433.4999999999998863
 20
145.0
 30
0.0
  0
VERTEX
  5
C89
  8
A--L23
 10
433.4999999999990905
 20
204.7111455021949951
 30
0.0
 42
0.2590418533120909
  0
VERTEX
  5
C8A
  8
A--L23
 10
426.4285463275008965
 20
217.4444935745850955
 30
0.0
 42
0.2858859981903208
  0
VERTEX
  5
C8B
  8
A--L23
 10
373.571403470358689
 20
217.4443893779171049
 30
0.0
 42
0.2590408015288197
  0
VERTEX
  5
C8C
  8
A--L23
 10
366.4999999999990905
 20
204.7110725645252103
 30
0.0
  0
VERTEX
  5
C8D
  8
A--L23
 10
366.5
 20
145.0
 30
0.0
 42
0.4142135623730951
  0
SEQEND
  5
C8E
  8
A--L23
  0
POLYLINE
  5
3EB
  8
A--L23
 66
     1
 10
0.0
 20
0.0
 30
0.0
 70
     1
  0
VERTEX
  5
C8F
  8
A--L23
 10
276.5
 20
135.0
 30
0.0
  0
VERTEX
  5
C90
  8
A--L23
 10
323.5
 20
135.0
 30
0.0
 42
0.4142135623730951
  0
VERTEX
  5
C91
  8
A--L23
 10
333.5
 20
145.0
 30
0.0
  0
VERTEX
  5
C92
  8
A--L23
 10
333.4999999999990905
 20
204.7111455021949951
 30
0.0
 42
0.2590418533120909
  0
VERTEX
  5
C93
  8
A--L23
 10
326.4285463275010102
 20
217.4444935745850955
 30
0.0
 42
0.2858859981903208
  0
VERTEX
  5
C94
  8
A--L23
 10
273.571403470358689
 20
217.4443893779171049
 30
0.0
 42
0.2590408015288197
  0
VERTEX
  5
C95
  8
A--L23
 10
266.4999999999990905
 20
204.7110725645252103
 30
0.0
  0
VERTEX
  5
C96
  8
A--L23
 10
266.5
 20
145.0
 30
0.0
 42
0.4142135623730951
  0
SEQEND
  5
C97
  8
A--L23
  0
POLYLINE
  5
3EC
  8
A--L23
 66
     1
 10
0.0
 20
0.0
 30
0.0
 70
     1
  0
VERTEX
  5
C98
  8
A--L23
 10
176.5
 20
135.0
 30
0.0
  0
VERTEX
  5
C99
  8
A--L23
 10
223.5
 20
135.0
 30
0.0
 42
0.4142135623730951
  0
VERTEX
  5
C9A
  8
A--L23
 10
233.5
 20
145.0
 30
0.0
  0
VERTEX
  5
C9B
  8
A--L23
 10
233.4999999999990905
 20
204.7111455021949951
 30
0.0
 42
0.2590418533120909
  0
VERTEX
  5
C9C
  8
A--L23
 10
226.4285463275010102
 20
217.4444935745850955
 30
0.0
 42
0.2858859981903208
  0
VERTEX
  5
C9D
  8
A--L23
 10
173.571403470358689
 20
217.4443893779171049
 30
0.0
 42
0.2590408015288197
  0
VERTEX
  5
C9E
  8
A--L23
 10
166.4999999999990905
 20
204.7110725645252103
 30
0.0
  0
VERTEX
  5
C9F
  8
A--L23
 10
166.5
 20
145.0
 30
0.0
 42
0.4142135623730951
  0
SEQEND
  5
CA0
  8
A--L23
  0
POLYLINE
  5
3ED
  8
A--L23
 66
     1
 10
0.0
 20
0.0
 30
0.0
 70
     1
  0
VERTEX
  5
CA1
  8
A--L23
 10
76.5
 20
135.0
 30
0.0
  0
VERTEX
  5
CA2
  8
A--L23
 10
123.5
 20
135.0
 30
0.0
 42
0.4142135623730951
  0
VERTEX
  5
CA3
  8
A--L23
 10
133.5
 20
145.0
 30
0.0
  0
VERTEX
  5
CA4
  8
A--L23
 10
133.4999999999990905
 20
204.7111455021949951
 30
0.0
 42
0.2590418533120909
  0
VERTEX
  5
CA5
  8
A--L23
 10
126.4285463275008965
 20
217.4444935745850955
 30
0.0
 42
0.2858859981903208
  0
VERTEX
  5
CA6
  8
A--L23
 10
73.5714034703587458
 20
217.4443893779171049
 30
0.0
 42
0.2590408015288197
  0
VERTEX
  5
CA7
  8
A--L23
 10
66.4999999999990905
 20
204.7110725645252103
 30
0.0
  0
VERTEX
  5
CA8
  8
A--L23
 10
66.5
 20
145.0
 30
0.0
 42
0.4142135623730951
  0
SEQEND
  5
CA9
  8
A--L23
  0
POLYLINE
  5
3EE
  8
A--L23
 66
     1
 10
0.0
 20
0.0
 30
0.0
 70
     1
  0
VERTEX
  5
CAA
  8
A--L23
 10
-23.5
 20
135.0
 30
0.0
  0
VERTEX
  5
CAB
  8
A--L23
 10
23.5
 20
135.0
 30
0.0
 42
0.4142135623730951
  0
VERTEX
  5
CAC
  8
A--L23
 10
33.5
 20
145.0
 30
0.0
  0
VERTEX
  5
CAD
  8
A--L23
 10
33.4999999999990905
 20
204.7111455021949951
 30
0.0
 42
0.2590418533120909
  0
VERTEX
  5
CAE
  8
A--L23
 10
26.4285463275009604
 20
217.4444935745850955
 30
0.0
 42
0.2858859981903208
  0
VERTEX
  5
CAF
  8
A--L23
 10
-26.4285965296412506
 20
217.4443893779171049
 30
0.0
 42
0.2590408015288197
  0
VERTEX
  5
CB0
  8
A--L23
 10
-33.5000000000009095
 20
204.7110725645252103
 30
0.0
  0
VERTEX
  5
CB1
  8
A--L23
 10
-33.5
 20
145.0
 30
0.0
 42
0.4142135623730951
  0
SEQEND
  5
CB2
  8
A--L23
  0
POLYLINE
  5
3EF
  8
A--L23
 66
     1
 10
0.0
 20
0.0
 30
0.0
 70
     1
  0
VERTEX
  5
CB3
  8
A--L23
 10
-123.5
 20
135.0
 30
0.0
  0
VERTEX
  5
CB4
  8
A--L23
 10
-76.5
 20
135.0
 30
0.0
 42
0.4142135623730951
  0
VERTEX
  5
CB5
  8
A--L23
 10
-66.5
 20
145.0
 30
0.0
  0
VERTEX
  5
CB6
  8
A--L23
 10
-66.5000000000008953
 20
204.7111455021949951
 30
0.0
 42
0.2590418533120909
  0
VERTEX
  5
CB7
  8
A--L23
 10
-73.5714536724990467
 20
217.4444935745850955
 30
0.0
 42
0.2858859981903208
  0
VERTEX
  5
CB8
  8
A--L23
 10
-126.4285965296411973
 20
217.4443893779171049
 30
0.0
 42
0.2590408015288197
  0
VERTEX
  5
CB9
  8
A--L23
 10
-133.5
 20
204.7110725645252103
 30
0.0
  0
VERTEX
  5
CBA
  8
A--L23
 10
-133.5
 20
145.0
 30
0.0
 42
0.4142135623730951
  0
SEQEND
  5
CBB
  8
A--L23
  0
POLYLINE
  5
3F0
  8
A--L23
 66
     1
 10
0.0
 20
0.0
 30
0.0
 70
     1
  0
VERTEX
  5
CBC
  8
A--L23
 10
-223.5
 20
135.0
 30
0.0
  0
VERTEX
  5
CBD
  8
A--L23
 10
-176.5
 20
135.0
 30
0.0
 42
0.4142135623730951
  0
VERTEX
  5
CBE
  8
A--L23
 10
-166.5
 20
145.0
 30
0.0
  0
VERTEX
  5
CBF
  8
A--L23
 10
-166.5000000000009095
 20
204.7111455021949951
 30
0.0
 42
0.2590418533120909
  0
VERTEX
  5
CC0
  8
A--L23
 10
-173.5714536724989898
 20
217.4444935745850955
 30
0.0
 42
0.2858859981903208
  0
VERTEX
  5
CC1
  8
A--L23
 10
-226.428596529641311
 20
217.4443893779171049
 30
0.0
 42
0.2590408015288197
  0
VERTEX
  5
CC2
  8
A--L23
 10
-233.5000000000009095
 20
204.7110725645252103
 30
0.0
  0
VERTEX
  5
CC3
  8
A--L23
 10
-233.5
 20
145.0
 30
0.0
 42
0.4142135623730951
  0
SEQEND
  5
CC4
  8
A--L23
  0
POLYLINE
  5
3F1
  8
A--L23
 66
     1
 10
0.0
 20
0.0
 30
0.0
 70
     1
  0
VERTEX
  5
CC5
  8
A--L23
 10
-323.5
 20
135.0
 30
0.0
  0
VERTEX
  5
CC6
  8
A--L23
 10
-276.5
 20
135.0
 30
0.0
 42
0.4142135623730951
  0
VERTEX
  5
CC7
  8
A--L23
 10
-266.5
 20
145.0
 30
0.0
  0
VERTEX
  5
CC8
  8
A--L23
 10
-266.5
 20
204.7111455021949951
 30
0.0
 42
0.2590418533120909
  0
VERTEX
  5
CC9
  8
A--L23
 10
-273.5714536724989898
 20
217.4444935745850955
 30
0.0
 42
0.2858859981903208
  0
VERTEX
  5
CCA
  8
A--L23
 10
-326.428596529641311
 20
217.4443893779171049
 30
0.0
 42
0.2590408015288197
  0
VERTEX
  5
CCB
  8
A--L23
 10
-333.5
 20
204.7110725645252103
 30
0.0
  0
VERTEX
  5
CCC
  8
A--L23
 10
-333.5
 20
145.0
 30
0.0
 42
0.4142135623730951
  0
SEQEND
  5
CCD
  8
A--L23
  0
POLYLINE
  5
3F2
  8
A--L23
 66
     1
 10
0.0
 20
0.0
 30
0.0
 70
     1
  0
VERTEX
  5
CCE
  8
A--L23
 10
-423.4999999999989768
 20
135.0
 30
0.0
  0
VERTEX
  5
CCF
  8
A--L23
 10
-376.4999999999990905
 20
135.0
 30
0.0
 42
0.4142135623730951
  0
VERTEX
  5
CD0
  8
A--L23
 10
-366.5
 20
145.0
 30
0.0
  0
VERTEX
  5
CD1
  8
A--L23
 10
-366.5000000000009095
 20
204.7111455021949951
 30
0.0
 42
0.2590418533120909
  0
VERTEX
  5
CD2
  8
A--L23
 10
-373.5714536724980803
 20
217.4444935745850955
 30
0.0
 42
0.2858859981903208
  0
VERTEX
  5
CD3
  8
A--L23
 10
-426.4285965296411973
 20
217.4443893779171049
 30
0.0
 42
0.2590408015288197
  0
VERTEX
  5
CD4
  8
A--L23
 10
-433.5000000000007958
 20
204.7110725645252103
 30
0.0
  0
VERTEX
  5
CD5
  8
A--L23
 10
-433.4999999999990905
 20
145.0
 30
0.0
 42
0.4142135623730951
  0
SEQEND
  5
CD6
  8
A--L23
  0
ENDBLK
  5
2FF
  8
0
  0
BLOCK
  8
0
  2
VBI_AL260-DDRSN-PP
 70
     0
 10
0.0
 20
0.0
 30
0.0
  3
VBI_AL260-DDRSN-PP
  1

  0
POLYLINE
  5
413
  8
A--L23
 66
     1
 10
0.0
 20
0.0
 30
0.0
 70
     1
  0
VERTEX
  5
CD7
  8
A--L23
 10
-467.4999999999998863
 20
145.0
 30
0.0
 42
-0.4142135623730951
  0
VERTEX
  5
CD8
  8
A--L23
 10
-477.5
 20
135.0
 30
0.0
  0
VERTEX
  5
CD9
  8
A--L23
 10
-513.0
 20
135.0
 30
0.0
 42
-0.4142135623730951
  0
VERTEX
  5
CDA
  8
A--L23
 10
-523.0
 20
145.0
 30
0.0
  0
VERTEX
  5
CDB
  8
A--L23
 10
-523.0
 20
179.25
 30
0.0
 42
-0.9999999999999998
  0
VERTEX
  5
CDC
  8
A--L23
 10
-467.4999999999998863
 20
179.25
 30
0.0
  0
SEQEND
  5
CDD
  8
A--L23
  0
POLYLINE
  5
41B
  8
A--L23
 66
     1
 10
0.0
 20
0.0
 30
0.0
 70
     1
  0
VERTEX
  5
CDE
  8
A--L23
 10
-123.5000000000008953
 20
135.0
 30
0.0
  0
VERTEX
  5
CDF
  8
A--L23
 10
-76.5000000000008953
 20
135.0
 30
0.0
 42
0.4142135623730951
  0
VERTEX
  5
CE0
  8
A--L23
 10
-66.5000000000008953
 20
145.0
 30
0.0
  0
VERTEX
  5
CE1
  8
A--L23
 10
-66.500000000001819
 20
204.7111455021949951
 30
0.0
 42
0.2590418533120909
  0
VERTEX
  5
CE2
  8
A--L23
 10
-73.5714536724999562
 20
217.4444935745850955
 30
0.0
 42
0.2858859981903208
  0
VERTEX
  5
CE3
  8
A--L23
 10
-126.4285965296421068
 20
217.4443893779171049
 30
0.0
 42
0.2590408015288197
  0
VERTEX
  5
CE4
  8
A--L23
 10
-133.5000000000009095
 20
204.7110725645252103
 30
0.0
  0
VERTEX
  5
CE5
  8
A--L23
 10
-133.5000000000009095
 20
145.0
 30
0.0
 42
0.4142135623730951
  0
SEQEND
  5
CE6
  8
A--L23
  0
POLYLINE
  5
41C
  8
A--L23
 66
     1
 10
0.0
 20
0.0
 30
0.0
 70
     1
  0
VERTEX
  5
CE7
  8
A--L23
 10
-223.5000000000009095
 20
135.0
 30
0.0
  0
VERTEX
  5
CE8
  8
A--L23
 10
-176.5000000000009095
 20
135.0
 30
0.0
 42
0.4142135623730951
  0
VERTEX
  5
CE9
  8
A--L23
 10
-166.5000000000009095
 20
145.0
 30
0.0
  0
VERTEX
  5
CEA
  8
A--L23
 10
-166.5000000000017906
 20
204.7111455021949951
 30
0.0
 42
0.2590418533120909
  0
VERTEX
  5
CEB
  8
A--L23
 10
-173.5714536724998993
 20
217.4444935745850955
 30
0.0
 42
0.2858859981903208
  0
VERTEX
  5
CEC
  8
A--L23
 10
-226.4285965296421921
 20
217.4443893779171049
 30
0.0
 42
0.2590408015288197
  0
VERTEX
  5
CED
  8
A--L23
 10
-233.5000000000017906
 20
204.7110725645252103
 30
0.0
  0
VERTEX
  5
CEE
  8
A--L23
 10
-233.5000000000009095
 20
145.0
 30
0.0
 42
0.4142135623730951
  0
SEQEND
  5
CEF
  8
A--L23
  0
POLYLINE
  5
41D
  8
A--L23
 66
     1
 10
0.0
 20
0.0
 30
0.0
 70
     1
  0
VERTEX
  5
CF0
  8
A--L23
 10
-323.5000000000009095
 20
135.0
 30
0.0
  0
VERTEX
  5
CF1
  8
A--L23
 10
-276.5000000000009095
 20
135.0
 30
0.0
 42
0.4142135623730951
  0
VERTEX
  5
CF2
  8
A--L23
 10
-266.5000000000009095
 20
145.0
 30
0.0
  0
VERTEX
  5
CF3
  8
A--L23
 10
-266.5000000000009095
 20
204.7111455021949951
 30
0.0
 42
0.2590418533120909
  0
VERTEX
  5
CF4
  8
A--L23
 10
-273.571453672500013
 20
217.4444935745850955
 30
0.0
 42
0.2858859981903208
  0
VERTEX
  5
CF5
  8
A--L23
 10
-326.4285965296422205
 20
217.4443893779171049
 30
0.0
 42
0.2590408015288197
  0
VERTEX
  5
CF6
  8
A--L23
 10
-333.5000000000009095
 20
204.7110725645252103
 30
0.0
  0
VERTEX
  5
CF7
  8
A--L23
 10
-333.5000000000009095
 20
145.0
 30
0.0
 42
0.4142135623730951
  0
SEQEND
  5
CF8
  8
A--L23
  0
POLYLINE
  5
41E
  8
A--L23
 66
     1
 10
0.0
 20
0.0
 30
0.0
 70
     1
  0
VERTEX
  5
CF9
  8
A--L23
 10
-423.5
 20
135.0
 30
0.0
  0
VERTEX
  5
CFA
  8
A--L23
 10
-376.5
 20
135.0
 30
0.0
 42
0.4142135623730951
  0
VERTEX
  5
CFB
  8
A--L23
 10
-366.5000000000009095
 20
145.0
 30
0.0
  0
VERTEX
  5
CFC
  8
A--L23
 10
-366.500000000001819
 20
204.7111455021949951
 30
0.0
 42
0.2590418533120909
  0
VERTEX
  5
CFD
  8
A--L23
 10
-373.5714536724989898
 20
217.4444935745850955
 30
0.0
 42
0.2858859981903208
  0
VERTEX
  5
CFE
  8
A--L23
 10
-426.4285965296421068
 20
217.4443893779171049
 30
0.0
 42
0.2590408015288197
  0
VERTEX
  5
CFF
  8
A--L23
 10
-433.500000000001819
 20
204.7110725645252103
 30
0.0
  0
VERTEX
  5
D00
  8
A--L23
 10
-433.4999999999998863
 20
145.0
 30
0.0
 42
0.4142135623730951
  0
SEQEND
  5
D01
  8
A--L23
  0
POLYLINE
  5
445
  8
A--L23
 66
     1
 10
0.0
 20
0.0
 30
0.0
 70
     1
  0
VERTEX
  5
D02
  8
A--L23
 10
-588.4597590336197754
 20
37.0259036239258421
 30
0.0
  0
VERTEX
  5
D03
  8
A--L23
 10
-571.9178168676480709
 20
52.4856626575456104
 30
0.0
  0
VERTEX
  5
D04
  8
A--L23
 10
-563.3376506039893457
 20
84.6612861462672441
 30
0.0
  0
VERTEX
  5
D05
  8
A--L23
 10
-573.0
 20
95.0
 30
0.0
  0
VERTEX
  5
D06
  8
A--L23
 10
-573.0
 20
128.0
 30
0.0
  0
VERTEX
  5
D07
  8
A--L23
 10
-561.0
 20
140.0
 30
0.0
  0
VERTEX
  5
D08
  8
A--L23
 10
-561.0
 20
208.0
 30
0.0
  0
VERTEX
  5
D09
  8
A--L23
 10
-573.0
 20
220.0
 30
0.0
  0
VERTEX
  5
D0A
  8
A--L23
 10
-573.0
 20
260.0
 30
0.0
  0
VERTEX
  5
D0B
  8
A--L23
 10
0.0
 20
260.0
 30
0.0
  0
VERTEX
  5
D0C
  8
A--L23
 10
-0.0000000000000542
 20
224.9999999999149907
 30
0.0
 42
0.1198224791300833
  0
VERTEX
  5
D0D
  8
A--L23
 10
-26.4285965296421708
 20
217.4443893779171049
 30
0.0
 42
0.2590408015288196
  0
VERTEX
  5
D0E
  8
A--L23
 10
-33.500000000001819
 20
204.7110725645252103
 30
0.0
  0
VERTEX
  5
D0F
  8
A--L23
 10
-33.5000000000009095
 20
145.0
 30
0.0
 42
0.4142135623730951
  0
VERTEX
  5
D10
  8
A--L23
 10
-23.5000000000009095
 20
135.0
 30
0.0
  0
VERTEX
  5
D11
  8
A--L23
 10
0.0
 20
135.0
 30
0.0
  0
VERTEX
  5
D12
  8
A--L23
 10
0.0
 20
0.0000000000000568
 30
0.0
  0
VERTEX
  5
D13
  8
A--L23
 10
-588.0
 20
0.0
 30
0.0
  0
VERTEX
  5
D14
  8
A--L23
 10
-598.0
 20
10.0
 30
0.0
  0
VERTEX
  5
D15
  8
A--L23
 10
-598.0
 20
20.0
 30
0.0
  0
VERTEX
  5
D16
  8
A--L23
 10
-593.0
 20
20.0
 30
0.0
  0
SEQEND
  5
D17
  8
A--L23
  0
ENDBLK
  5
325
  8
0
  0
BLOCK
  8
0
  2
*U4
 70
     1
 10
0.0
 20
0.0
 30
0.0
  3
*U4
  1

  0
POLYLINE
  5
45B
  8
A--L23
 66
     1
 10
0.0
 20
0.0
 30
0.0
 70
     1
1001
ACDBBLOCKREPETAG
1070
     1
1071
        0
1005
45B
  0
VERTEX
  5
D18
  8
A--L23
 10
0.0
 20
259.9999999999996021
 30
0.0
  0
VERTEX
  5
D19
  8
A--L23
 10
2400.0
 20
259.9999999999996021
 30
0.0
  0
VERTEX
  5
D1A
  8
A--L23
 10
2400.0
 20
0.0
 30
0.0
  0
VERTEX
  5
D1B
  8
A--L23
 10
0.0
 20
0.0
 30
0.0
  0
SEQEND
  5
D1C
  8
A--L23
  0
POLYLINE
  5
45C
  8
A--L23
  6
DASHED
 66
     1
 10
0.0
 20
0.0
 30
0.0
1001
ACDBBLOCKREPETAG
1070
     1
1071
        1
1005
45C
  0
VERTEX
  5
D1D
  8
A--L23
  6
DASHED
 10
0.0000000000004547
 20
225.0
 30
0.0
  0
VERTEX
  5
D1E
  8
A--L23
  6
DASHED
 10
2400.0
 20
225.0
 30
0.0
  0
SEQEND
  5
D1F
  8
A--L23
  6
DASHED
  0
POLYLINE
  5
45D
  8
A--L23
  6
DASHED
 66
     1
 10
0.0
 20
0.0
 30
0.0
1001
ACDBBLOCKREPETAG
1070
     1
1071
        2
1005
45D
  0
VERTEX
  5
D20
  8
A--L23
  6
DASHED
 10
0.0
 20
135.0
 30
0.0
  0
VERTEX
  5
D21
  8
A--L23
  6
DASHED
 10
2400.0
 20
135.0
 30
0.0
  0
SEQEND
  5
D22
  8
A--L23
  6
DASHED
  0
ENDBLK
  5
349
  8
0
  0
BLOCK
  8
0
  2
*U5
 70
     1
 10
0.0
 20
0.0
 30
0.0
  3
*U5
  1

  0
POLYLINE
  5
481
  8
A--L23
 66
     1
 10
0.0
 20
0.0
 30
0.0
 70
     1
1001
ACDBBLOCKREPETAG
1070
     1
1071
        0
1005
481
  0
VERTEX
  5
D23
  8
A--L23
 10
0.0
 20
259.9999999999996021
 30
0.0
  0
VERTEX
  5
D24
  8
A--L23
 10
2400.0
 20
259.9999999999996021
 30
0.0
  0
VERTEX
  5
D25
  8
A--L23
 10
2400.0
 20
0.0
 30
0.0
  0
VERTEX
  5
D26
  8
A--L23
 10
0.0
 20
0.0
 30
0.0
  0
SEQEND
  5
D27
  8
A--L23
  0
POLYLINE
  5
482
  8
A--L23
  6
DASHED
 66
     1
 10
0.0
 20
0.0
 30
0.0
1001
ACDBBLOCKREPETAG
1070
     1
1071
        1
1005
482
  0
VERTEX
  5
D28
  8
A--L23
  6
DASHED
 10
0.0000000000004547
 20
225.0
 30
0.0
  0
VERTEX
  5
D29
  8
A--L23
  6
DASHED
 10
2400.0
 20
225.0
 30
0.0
  0
SEQEND
  5
D2A
  8
A--L23
  6
DASHED
  0
POLYLINE
  5
483
  8
A--L23
  6
DASHED
 66
     1
 10
0.0
 20
0.0
 30
0.0
1001
ACDBBLOCKREPETAG
1070
     1
1071
        2
1005
483
  0
VERTEX
  5
D2B
  8
A--L23
  6
DASHED
 10
0.0
 20
135.0
 30
0.0
  0
VERTEX
  5
D2C
  8
A--L23
  6
DASHED
 10
2400.0
 20
135.0
 30
0.0
  0
SEQEND
  5
D2D
  8
A--L23
  6
DASHED
  0
ENDBLK
  5
480
  8
0
  0
ENDSEC
  0
SECTION
  2
ENTITIES
  0
TEXT
  5
118
  8
0
 10
-3004.3983731911889663
 20
4021.8230784719280564
 30
0.0
 40
100.0
  1
Appartementenvloer 260
  7
T25
  0
TEXT
  5
119
  8
0
 10
-3003.8597395632677944
 20
3581.5198612450039946
 30
0.0
 40
75.0
  1
Dwarsdoorsnede
  7
T25
  0
TEXT
  5
11A
  8
0
 10
-3000.8728959553491222
 20
3123.3241199879271335
 30
0.0
 40
50.0
  1
standaard element
  7
T25
  0
TEXT
  5
11B
  8
0
 10
-3003.7288001062038347
 20
2581.4906985891711884
 30
0.0
 40
75.0
  1
Langsdoorsnede
  7
T25
  0
TEXT
  5
186
  8
0
 10
-1200.8728959553479854
 20
3123.3241199879271335
 30
0.0
 40
50.0
  1
pasplaat (600 mm)
  7
T25
  0
TEXT
  5
284
  8
0
 10
-1853.2446293070679531
 20
3123.3241199879271335
 30
0.0
 40
50.0
  1
voeg
  7
T25
  0
INSERT
  5
30D
  8
A--L23
  2
VBI_AL260-DDRSN-NP
 10
-2397.7467380724028772
 20
3221.7943071467930167
 30
0.0
  0
INSERT
  5
341
  8
A--L23
  2
VBI_AL260-DDRSN-PP
 10
-595.7467383084247103
 20
3221.7943071467930167
 30
0.0
  0
INSERT
  5
34D
  8
A--L23
  2
*U5
 10
-2995.7467382851168622
 20
2221.7943081836369856
 30
0.0
  0
ENDSEC
  0
EOF
