  0
SECTION
  2
HEADER
  9
$ACADVER
  1
AC1009
  9
$INSBASE
 10
0.0
 20
0.0
 30
0.0
  9
$EXTMIN
 10
-3004.4904193412071436
 20
2175.1049527861628121
 30
-0.0015258207003583
  9
$EXTMAX
 10
-459.9105849619645028
 20
4148.4162596004080115
 30
0.0000000349246037
  9
$LIMMIN
 10
0.0
 20
0.0
  9
$LIMMAX
 10
12.0
 20
9.0
  9
$ORTHOMODE
 70
     1
  9
$REGENMODE
 70
     1
  9
$FILLMODE
 70
     1
  9
$QTEXTMODE
 70
     0
  9
$MIRRTEXT
 70
     1
  9
$DRAGMODE
 70
     2
  9
$LTSCALE
 40
100.0
  9
$OSMODE
 70
   255
  9
$ATTMODE
 70
     1
  9
$TEXTSIZE
 40
50.0
  9
$TRACEWID
 40
0.05
  9
$TEXTSTYLE
  7
T25
  9
$CLAYER
  8
A--L23
  9
$CELTYPE
  6
BYLAYER
  9
$CECOLOR
 62
   256
  9
$DIMSCALE
 40
1.0
  9
$DIMASZ
 40
1.0
  9
$DIMEXO
 40
3.0
  9
$DIMDLI
 40
0.0
  9
$DIMRND
 40
0.0
  9
$DIMDLE
 40
0.0
  9
$DIMEXE
 40
1.0
  9
$DIMTP
 40
0.0
  9
$DIMTM
 40
0.0
  9
$DIMTXT
 40
1.0
  9
$DIMCEN
 40
0.0
  9
$DIMTSZ
 40
0.0
  9
$DIMTOL
 70
     0
  9
$DIMLIM
 70
     0
  9
$DIMTIH
 70
     0
  9
$DIMTOH
 70
     0
  9
$DIMSE1
 70
     1
  9
$DIMSE2
 70
     1
  9
$DIMTAD
 70
     0
  9
$DIMZIN
 70
     1
  9
$DIMBLK
  1

  9
$DIMASO
 70
     1
  9
$DIMSHO
 70
     1
  9
$DIMPOST
  1

  9
$DIMAPOST
  1

  9
$DIMALT
 70
     0
  9
$DIMALTD
 70
     0
  9
$DIMALTF
 40
0.039
  9
$DIMLFAC
 40
1.0
  9
$DIMTOFL
 70
     1
  9
$DIMTVP
 40
0.8
  9
$DIMTIX
 70
     1
  9
$DIMSOXD
 70
     0
  9
$DIMSAH
 70
     1
  9
$DIMBLK1
  1
DIMDOT
  9
$DIMBLK2
  1
DIMDOT
  9
$DIMSTYLE
  2
REND
  9
$DIMCLRD
 70
     1
  9
$DIMCLRE
 70
   141
  9
$DIMCLRT
 70
     0
  9
$DIMTFAC
 40
1.0
  9
$DIMGAP
 40
0.5
  9
$LUNITS
 70
     2
  9
$LUPREC
 70
     4
  9
$SKETCHINC
 40
0.1
  9
$FILLETRAD
 40
0.0
  9
$AUNITS
 70
     0
  9
$AUPREC
 70
     2
  9
$MENU
  1
.
  9
$ELEVATION
 40
0.0
  9
$PELEVATION
 40
0.0
  9
$THICKNESS
 40
0.0
  9
$LIMCHECK
 70
     0
  9
$BLIPMODE
 70
     0
  9
$CHAMFERA
 40
0.5
  9
$CHAMFERB
 40
0.5
  9
$SKPOLY
 70
     0
  9
$TDCREATE
 40
2453284.3702893517911434
  9
$TDUPDATE
 40
2459984.3937962958589196
  9
$TDINDWG
 40
0.2447810185
  9
$TDUSRTIMER
 40
0.2447538889
  9
$USRTIMER
 70
     1
  9
$ANGBASE
 50
0.0
  9
$ANGDIR
 70
     0
  9
$PDMODE
 70
     0
  9
$PDSIZE
 40
0.0
  9
$PLINEWID
 40
0.0
  9
$COORDS
 70
     1
  9
$SPLFRAME
 70
     0
  9
$SPLINETYPE
 70
     6
  9
$SPLINESEGS
 70
     8
  9
$ATTDIA
 70
     1
  9
$ATTREQ
 70
     1
  9
$HANDLING
 70
     1
  9
$HANDSEED
  5
191F
  9
$SURFTAB1
 70
    15
  9
$SURFTAB2
 70
     6
  9
$SURFTYPE
 70
     6
  9
$SURFU
 70
     6
  9
$SURFV
 70
     6
  9
$UCSNAME
  2

  9
$UCSORG
 10
0.0
 20
0.0
 30
0.0
  9
$UCSXDIR
 10
1.0
 20
0.0
 30
0.0
  9
$UCSYDIR
 10
0.0
 20
1.0
 30
0.0
  9
$PUCSNAME
  2

  9
$PUCSORG
 10
0.0
 20
0.0
 30
0.0
  9
$PUCSXDIR
 10
1.0
 20
0.0
 30
0.0
  9
$PUCSYDIR
 10
0.0
 20
1.0
 30
0.0
  9
$USERI1
 70
     0
  9
$USERI2
 70
     0
  9
$USERI3
 70
     0
  9
$USERI4
 70
     0
  9
$USERI5
 70
     0
  9
$USERR1
 40
0.0
  9
$USERR2
 40
0.0
  9
$USERR3
 40
0.0
  9
$USERR4
 40
0.0
  9
$USERR5
 40
0.0
  9
$WORLDVIEW
 70
     1
  9
$SHADEDGE
 70
     3
  9
$SHADEDIF
 70
    70
  9
$TILEMODE
 70
     1
  9
$MAXACTVP
 70
    64
  9
$PLIMCHECK
 70
     0
  9
$PEXTMIN
 10
1.0000000000000000E+20
 20
1.0000000000000000E+20
 30
1.0000000000000000E+20
  9
$PEXTMAX
 10
-1.0000000000000000E+20
 20
-1.0000000000000000E+20
 30
-1.0000000000000000E+20
  9
$PLIMMIN
 10
0.0
 20
0.0
  9
$PLIMMAX
 10
12.0
 20
9.0
  9
$UNITMODE
 70
     0
  9
$VISRETAIN
 70
     1
  9
$PLINEGEN
 70
     0
  9
$PSLTSCALE
 70
     1
  0
ENDSEC
  0
SECTION
  2
TABLES
  0
TABLE
  2
VPORT
 70
     1
  0
VPORT
  2
*ACTIVE
 70
     0
 10
0.0
 20
0.0
 11
1.0
 21
1.0
 12
-1732.200502151586079
 22
3161.7606061932860939
 13
0.0
 23
0.0
 14
0.5
 24
0.5
 15
0.5
 25
0.5
 16
0.0
 26
0.0
 36
1.0
 17
0.0
 27
0.0
 37
0.0
 40
1988.5688684648700928
 41
2.411612903225806
 42
50.0
 43
0.0
 44
0.0
 50
0.0
 51
0.0
 71
     0
 72
   100
 73
     1
 74
     3
 75
     1
 76
     0
 77
     0
 78
     0
  0
ENDTAB
  0
TABLE
  2
LTYPE
 70
     3
  0
LTYPE
  2
CONTINUOUS
 70
     0
  3
Solid line
 72
    65
 73
     0
 40
0.0
  0
LTYPE
  2
DASHED
 70
     0
  3
Dashed __ __ __ __ __ __ __ __ __ __ __ __ __ _
 72
    65
 73
     2
 40
0.75
 49
0.5
 49
-0.25
  0
LTYPE
  2
DASHED2
 70
     0
  3
Dashed (.5x) _ _ _ _ _ _ _ _ _ _ _ _ _ _ _ _ _
 72
    65
 73
     2
 40
0.375
 49
0.25
 49
-0.125
  0
ENDTAB
  0
TABLE
  2
LAYER
 70
     2
  0
LAYER
  2
0
 70
     0
 62
     7
  6
CONTINUOUS
  0
LAYER
  2
A--L23
 70
     0
 62
     7
  6
CONTINUOUS
  0
ENDTAB
  0
TABLE
  2
STYLE
 70
     6
  0
STYLE
  2
STANDARD
 70
     0
 40
0.0
 41
1.0
 50
0.0
 71
     0
 42
0.2
  3
txt
  4

  0
STYLE
  2
T25
 70
     0
 40
50.0
 41
1.0
 50
0.0
 71
     0
 42
50.0
  3
txt
  4

  0
ENDTAB
  0
TABLE
  2
VIEW
 70
     1
  0
ENDTAB
  0
TABLE
  2
UCS
 70
     0
  0
ENDTAB
  0
TABLE
  2
APPID
 70
    28
  0
APPID
  2
ACAD
 70
     0
  0
APPID
  2
VBI
 70
     0
  0
APPID
  2
AVE_RENDER
 70
     0
  0
APPID
  2
AVE_ENTITY_MATERIAL
 70
     0
  0
APPID
  2
AVE_FINISH
 70
     0
  0
APPID
  2
AVE_MATERIAL
 70
     0
  0
APPID
  2
AVE_GLOBAL
 70
     0
  0
APPID
  2
ACAD_EXEMPT_FROM_CAD_STANDARDS
 70
     0
  0
APPID
  2
ACAD_DSTYLE_DIM_LINETYPE
 70
     0
  0
APPID
  2
ACAD_DSTYLE_DIM_EXT1_LINETYPE
 70
     0
  0
APPID
  2
ACAD_DSTYLE_DIM_EXT2_LINETYPE
 70
     0
  0
APPID
  2
ACAD_PSEXT
 70
     0
  0
APPID
  2
ACAD_MATERIAL_MAPPER
 70
     0
  0
APPID
  2
ACDBDYNAMICBLOCKGUID
 70
     0
  0
APPID
  2
ACDBBLOCKREPETAG
 70
     0
  0
APPID
  2
ACAUTHENVIRON
 70
     0
  0
APPID
  2
ACDBDYNAMICBLOCKTRUENAME
 70
     0
  0
APPID
  2
ACDBBLOCKREPBTAG
 70
     0
  0
APPID
  2
MANULPOINTSASSOCIATIVE
 70
     0
  0
APPID
  2
ACAD_NAV_VCDISPLAY
 70
     0
  0
APPID
  2
ACADANNOPO
 70
     0
  0
APPID
  2
ACADANNOTATIVE
 70
     0
  0
APPID
  2
ACAD_DSTYLE_DIMJAG
 70
     0
  0
APPID
  2
ACAD_DSTYLE_DIMTALN
 70
     0
  0
APPID
  2
ACAECLAYERSTANDARD
 70
     0
  0
APPID
  2
ACCMTRANSPARENCY
 70
     0
  0
APPID
  2
CONTENTBLOCKICON
 70
     0
  0
APPID
  2
ACAD_MLEADERVER
 70
     0
  0
ENDTAB
  0
TABLE
  2
DIMSTYLE
 70
     3
  0
DIMSTYLE
  2
REND
 70
     0
  3

  4

  5

  6
DIMDOT
  7
DIMDOT
 40
10.0
 41
1.0
 42
3.0
 43
0.0
 44
1.0
 45
0.0
 46
0.0
 47
0.0
 48
0.0
140
1.0
141
0.0
142
0.0
143
0.039
144
1.0
145
0.8
146
1.0
147
0.5
 71
     0
 72
     0
 73
     0
 74
     0
 75
     1
 76
     1
 77
     0
 78
     1
170
     0
171
     0
172
     1
173
     1
174
     1
175
     0
176
     1
177
   141
178
     0
  0
DIMSTYLE
  2
STANDARD
 70
     0
  3

  4

  5

  6

  7

 40
1.0
 41
0.18
 42
0.0625
 43
0.38
 44
0.18
 45
0.0
 46
0.0
 47
0.0
 48
0.0
140
0.18
141
0.09
142
0.0
143
25.3999999999999986
144
1.0
145
0.0
146
1.0
147
0.09
 71
     0
 72
     0
 73
     1
 74
     1
 75
     0
 76
     0
 77
     0
 78
     0
170
     0
171
     2
172
     0
173
     0
174
     0
175
     0
176
     0
177
     0
178
     0
  0
ENDTAB
  0
ENDSEC
  0
SECTION
  2
BLOCKS
  0
BLOCK
  8
0
  2
$MODEL_SPACE
 70
     0
 10
0.0
 20
0.0
 30
0.0
  3
$MODEL_SPACE
  1

  0
ENDBLK
  5
21
  8
0
  0
BLOCK
 67
     1
  8
0
  2
$PAPER_SPACE
 70
     0
 10
0.0
 20
0.0
 30
0.0
  3
$PAPER_SPACE
  1

  0
ENDBLK
  5
1D
 67
     1
  8
0
  0
BLOCK
  8
0
  2
DIMDOT
 70
     0
 10
0.0
 20
0.0
 30
0.0
  3
DIMDOT
  1
DIMDOT
  0
LINE
  5
69
  8
0
 62
     0
 10
-2.0
 20
0.0
 30
0.0
 11
2.0
 21
0.0
 31
0.0
  0
LINE
  5
6A
  8
0
 62
     0
 10
0.0
 20
-3.5
 30
0.0
 11
0.0
 21
3.5
 31
0.0
  0
CIRCLE
  5
6B
  8
0
 62
     0
 10
0.0
 20
0.0
 30
0.0
 40
0.5
  0
CIRCLE
  5
6C
  8
0
 62
     0
 10
0.0
 20
0.0
 30
0.0
 40
0.25
  0
ENDBLK
  5
39
  8
0
  0
BLOCK
  8
0
  2
VBI_KS200_DDRSN_NP
 70
     0
 10
0.0
 20
0.0
 30
0.0
  3
VBI_KS200_DDRSN_NP
  1

  0
POLYLINE
  5
F04
  8
A--L23
 66
     1
 10
0.0
 20
0.0
 30
0.0
  0
VERTEX
  5
17ED
  8
A--L23
 10
599.999999999998181
 20
-0.0000000000004547
 30
0.0
  0
VERTEX
  5
17EE
  8
A--L23
 10
599.999999999998181
 20
-152.0000000000003979
 30
0.0
  0
VERTEX
  5
17EF
  8
A--L23
 10
-600.0000000000022737
 20
-152.0000000000003979
 30
0.0
  0
VERTEX
  5
17F0
  8
A--L23
 10
-600.0000000000022737
 20
-0.0000000000004547
 30
0.0
  0
VERTEX
  5
17F1
  8
A--L23
 10
599.999999999998181
 20
-0.0000000000004547
 30
0.0
  0
SEQEND
  5
17F2
  8
A--L23
  0
POLYLINE
  5
F05
  8
A--L23
 66
     1
 10
0.0
 20
0.0
 30
0.0
  0
VERTEX
  5
17F3
  8
A--L23
 10
-600.0000000000013642
 20
-63.8478877581369488
 30
0.0
  0
VERTEX
  5
17F4
  8
A--L23
 10
-537.0941887457224766
 20
-152.0000000000009095
 30
0.0
  0
VERTEX
  5
17F5
  8
A--L23
 10
-428.6261887457197872
 20
-0.0000000000009095
 30
0.0
  0
VERTEX
  5
17F6
  8
A--L23
 10
-320.1581887457209064
 20
-152.0000000000009095
 30
0.0
  0
VERTEX
  5
17F7
  8
A--L23
 10
-211.6901887457183875
 20
-0.0000000000009095
 30
0.0
  0
VERTEX
  5
17F8
  8
A--L23
 10
-103.222188745719393
 20
-152.0000000000009095
 30
0.0
  0
VERTEX
  5
17F9
  8
A--L23
 10
5.245811254283125
 20
-0.0000000000009095
 30
0.0
  0
VERTEX
  5
17FA
  8
A--L23
 10
113.7138112542820068
 20
-152.0000000000009095
 30
0.0
  0
VERTEX
  5
17FB
  8
A--L23
 10
222.1818112542846109
 20
-0.0000000000009095
 30
0.0
  0
VERTEX
  5
17FC
  8
A--L23
 10
330.649811254283577
 20
-152.0000000000009095
 30
0.0
  0
VERTEX
  5
17FD
  8
A--L23
 10
439.1178112542855843
 20
-0.0000000000009095
 30
0.0
  0
VERTEX
  5
17FE
  8
A--L23
 10
547.5858112542846357
 20
-152.0000000000003979
 30
0.0
  0
VERTEX
  5
17FF
  8
A--L23
 10
599.999999999998181
 20
-78.5501651238291743
 30
0.0
  0
SEQEND
  5
1800
  8
A--L23
  0
INSERT
  5
F3A
  8
A--L23
  2
*U6
 10
0.0
 20
0.0
 30
0.0
  0
POLYLINE
  5
FC4
  8
0
 62
     1
 66
     1
 10
0.0
 20
0.0
 30
0.0
 70
     1
  0
VERTEX
  5
186E
  8
0
 62
     1
 10
572.9999999999979536
 20
199.9999999999994884
 30
0.0
  0
VERTEX
  5
186F
  8
0
 62
     1
 10
572.9999999999979536
 20
159.9999999999994884
 30
0.0
  0
VERTEX
  5
1870
  8
0
 62
     1
 10
562.3933982822034068
 20
149.3933982822049984
 30
0.0
  0
VERTEX
  5
1871
  8
0
 62
     1
 10
567.3431457505190565
 20
114.7451660040674
 30
0.0
  0
VERTEX
  5
1872
  8
0
 62
     1
 10
581.4852813742452327
 20
100.6030303803412949
 30
0.0
  0
VERTEX
  5
1873
  8
0
 62
     1
 10
585.0213618874674921
 20
75.850466787683672
 30
0.0
  0
VERTEX
  5
1874
  8
0
 62
     1
 10
574.4147601696583934
 20
65.2438650698891252
 30
0.0
  0
VERTEX
  5
1875
  8
0
 62
     1
 10
577.3022294576492186
 20
45.031580054011549
 30
0.0
  0
VERTEX
  5
1876
  8
0
 62
     1
 10
591.4443650813751674
 20
30.8894444302709417
 30
0.0
  0
VERTEX
  5
1877
  8
0
 62
     1
 10
592.9999999999979536
 20
19.9999999999995417
 30
0.0
  0
VERTEX
  5
1878
  8
0
 62
     1
 10
592.9999999999979536
 20
-0.0000000000004547
 30
0.0
  0
VERTEX
  5
1879
  8
0
 62
     1
 10
606.9999999999984084
 20
-0.0000000000004547
 30
0.0
  0
VERTEX
  5
187A
  8
0
 62
     1
 10
606.9999999999984084
 20
19.9999999999995417
 30
0.0
  0
VERTEX
  5
187B
  8
0
 62
     1
 10
608.5556349186210809
 20
30.8894444302709417
 30
0.0
  0
VERTEX
  5
187C
  8
0
 62
     1
 10
622.697770542346916
 20
45.031580054011549
 30
0.0
  0
VERTEX
  5
187D
  8
0
 62
     1
 10
625.5852398303377413
 20
65.2438650698891252
 30
0.0
  0
VERTEX
  5
187E
  8
0
 62
     1
 10
614.9786381125287562
 20
75.850466787683672
 30
0.0
  0
VERTEX
  5
187F
  8
0
 62
     1
 10
618.5147186257511294
 20
100.6030303803412949
 30
0.0
  0
VERTEX
  5
1880
  8
0
 62
     1
 10
632.6568542494768508
 20
114.7451660040674
 30
0.0
  0
VERTEX
  5
1881
  8
0
 62
     1
 10
637.6066017177927279
 20
149.3933982822049984
 30
0.0
  0
VERTEX
  5
1882
  8
0
 62
     1
 10
626.9999999999980673
 20
159.9999999999994884
 30
0.0
  0
VERTEX
  5
1883
  8
0
 62
     1
 10
626.9999999999980673
 20
199.9999999999994884
 30
0.0
  0
SEQEND
  5
1884
  8
0
 62
     1
  0
ENDBLK
  5
830
  8
0
  0
BLOCK
  8
0
  2
VBI_KS200_DDRSN_PP
 70
     0
 10
0.0
 20
0.0
 30
0.0
  3
VBI_KS200_DDRSN_PP
  1

  0
LINE
  5
FFF
  8
A--L23
 62
     1
 10
478.1999999999993065
 20
0.0
 30
0.0
 11
502.0
 21
-140.0000000000003979
 31
0.0
  0
LINE
  5
1000
  8
A--L23
 62
     1
 10
572.0
 20
-140.0000000000003979
 30
0.0
 11
576.1999999999992497
 21
-0.0000000000004547
 31
0.0
  0
POLYLINE
  5
1001
  8
A--L23
 66
     1
 10
0.0
 20
0.0
 30
0.0
  0
VERTEX
  5
1885
  8
A--L23
 10
599.9999999999990905
 20
-0.0000000000004547
 30
0.0
  0
VERTEX
  5
1886
  8
A--L23
 10
-600.0
 20
-0.0000000000004547
 30
0.0
  0
VERTEX
  5
1887
  8
A--L23
 10
-600.0
 20
-152.0000000000003979
 30
0.0
  0
VERTEX
  5
1888
  8
A--L23
 10
349.9999999999990905
 20
-152.0000000000003979
 30
0.0
  0
VERTEX
  5
1889
  8
A--L23
 10
349.9999999999990905
 20
-140.0000000000003979
 30
0.0
  0
VERTEX
  5
188A
  8
A--L23
 10
599.9999999999990905
 20
-140.0000000000003979
 30
0.0
  0
VERTEX
  5
188B
  8
A--L23
 10
599.9999999999990905
 20
-0.0000000000004547
 30
0.0
  0
SEQEND
  5
188C
  8
A--L23
  0
POLYLINE
  5
1002
  8
A--L23
 66
     1
 10
0.0
 20
0.0
 30
0.0
  0
VERTEX
  5
188D
  8
A--L23
 10
-600.0
 20
-63.8478877581365012
 30
0.0
  0
VERTEX
  5
188E
  8
A--L23
 10
-537.0941887457211124
 20
-152.0000000000003979
 30
0.0
  0
VERTEX
  5
188F
  8
A--L23
 10
-428.6261887457184798
 20
-0.0000000000004547
 30
0.0
  0
VERTEX
  5
1890
  8
A--L23
 10
-320.158188745719599
 20
-152.0000000000003979
 30
0.0
  0
VERTEX
  5
1891
  8
A--L23
 10
-211.6901887457169948
 20
-0.0000000000004547
 30
0.0
  0
VERTEX
  5
1892
  8
A--L23
 10
-103.2221887457180998
 20
-152.0000000000003979
 30
0.0
  0
VERTEX
  5
1893
  8
A--L23
 10
5.2458112542844901
 20
-0.0000000000004547
 30
0.0
  0
VERTEX
  5
1894
  8
A--L23
 10
113.7138112542833994
 20
-152.0000000000003979
 30
0.0
  0
VERTEX
  5
1895
  8
A--L23
 10
222.1818112542860035
 20
-0.0000000000004547
 30
0.0
  0
VERTEX
  5
1896
  8
A--L23
 10
330.6498112542849981
 20
-152.0000000000003979
 30
0.0
  0
VERTEX
  5
1897
  8
A--L23
 10
439.1178112542875169
 20
-0.0000000000004547
 30
0.0
  0
VERTEX
  5
1898
  8
A--L23
 10
539.0225480963918017
 20
-140.0000000000003979
 30
0.0
  0
VERTEX
  5
1899
  8
A--L23
 10
599.9999999999990905
 20
-54.5501651238328122
 30
0.0
  0
SEQEND
  5
189A
  8
A--L23
  0
INSERT
  5
101C
  8
A--L23
  2
*U7
 10
0.0
 20
0.0
 30
0.0
  0
POLYLINE
  5
101D
  8
0
 62
     1
 66
     1
 10
0.0
 20
0.0
 30
0.0
 70
     1
  0
VERTEX
  5
1908
  8
0
 62
     1
 10
572.9999999999995453
 20
200.0
 30
0.0
  0
VERTEX
  5
1909
  8
0
 62
     1
 10
572.9999999999995453
 20
160.0
 30
0.0
  0
VERTEX
  5
190A
  8
0
 62
     1
 10
562.3933982822049984
 20
149.3933982822053963
 30
0.0
  0
VERTEX
  5
190B
  8
0
 62
     1
 10
567.3431457505206481
 20
114.7451660040678973
 30
0.0
  0
VERTEX
  5
190C
  8
0
 62
     1
 10
581.4852813742468243
 20
100.6030303803418064
 30
0.0
  0
VERTEX
  5
190D
  8
0
 62
     1
 10
585.0213618874690837
 20
75.8504667876841268
 30
0.0
  0
VERTEX
  5
190E
  8
0
 62
     1
 10
574.4147601696598713
 20
65.2438650698895799
 30
0.0
  0
VERTEX
  5
190F
  8
0
 62
     1
 10
577.3022294576508102
 20
45.0315800540120108
 30
0.0
  0
VERTEX
  5
1910
  8
0
 62
     1
 10
591.444365081376759
 20
30.8894444302714
 30
0.0
  0
VERTEX
  5
1911
  8
0
 62
     1
 10
592.9999999999995453
 20
20.0
 30
0.0
  0
VERTEX
  5
1912
  8
0
 62
     1
 10
592.9999999999995453
 20
0.0
 30
0.0
  0
VERTEX
  5
1913
  8
0
 62
     1
 10
607.0
 20
0.0
 30
0.0
  0
VERTEX
  5
1914
  8
0
 62
     1
 10
607.0
 20
20.0
 30
0.0
  0
VERTEX
  5
1915
  8
0
 62
     1
 10
608.5556349186226726
 20
30.8894444302714
 30
0.0
  0
VERTEX
  5
1916
  8
0
 62
     1
 10
622.6977705423485077
 20
45.0315800540120108
 30
0.0
  0
VERTEX
  5
1917
  8
0
 62
     1
 10
625.5852398303393329
 20
65.2438650698895799
 30
0.0
  0
VERTEX
  5
1918
  8
0
 62
     1
 10
614.9786381125303478
 20
75.8504667876841268
 30
0.0
  0
VERTEX
  5
1919
  8
0
 62
     1
 10
618.514718625752721
 20
100.6030303803418064
 30
0.0
  0
VERTEX
  5
191A
  8
0
 62
     1
 10
632.6568542494785561
 20
114.7451660040678973
 30
0.0
  0
VERTEX
  5
191B
  8
0
 62
     1
 10
637.6066017177943195
 20
149.3933982822053963
 30
0.0
  0
VERTEX
  5
191C
  8
0
 62
     1
 10
626.9999999999996589
 20
160.0
 30
0.0
  0
VERTEX
  5
191D
  8
0
 62
     1
 10
626.9999999999996589
 20
200.0
 30
0.0
  0
SEQEND
  5
191E
  8
0
 62
     1
  0
ENDBLK
  5
849
  8
0
  0
BLOCK
  8
0
  2
*U4
 70
     1
 10
0.0
 20
0.0
 30
0.0
  3
*U4
  1

  0
POLYLINE
  5
E3C
  8
A--L23
  6
DASHED
 66
     1
 10
0.0
 20
0.0
 30
0.0
1001
ACDBBLOCKREPETAG
1070
     1
1071
        0
1005
E3C
  0
VERTEX
  5
17B2
  8
A--L23
  6
DASHED
 10
-2997.746738285119136
 20
2422.3054207893010243
 30
0.0
  0
VERTEX
  5
17B3
  8
A--L23
  6
DASHED
 10
-497.7467382851186244
 20
2422.3054207893010243
 30
0.0
  0
SEQEND
  5
17B4
  8
A--L23
  6
DASHED
  0
POLYLINE
  5
E3D
  8
A--L23
  6
DASHED
 66
     1
 10
0.0
 20
0.0
 30
0.0
1001
ACDBBLOCKREPETAG
1070
     1
1071
        1
1005
E3D
  0
VERTEX
  5
17B5
  8
A--L23
  6
DASHED
 10
-2997.746738285119136
 20
2492.3054165893008758
 30
0.0
  0
VERTEX
  5
17B6
  8
A--L23
  6
DASHED
 10
-497.7467382851186812
 20
2492.3054165893008758
 30
0.0
  0
SEQEND
  5
17B7
  8
A--L23
  6
DASHED
  0
POLYLINE
  5
E3E
  8
0
 66
     1
 10
0.0
 20
0.0
 30
0.0
 70
     1
1001
ACDBBLOCKREPETAG
1070
     1
1071
        4
1005
E3E
  0
VERTEX
  5
17B8
  8
0
 10
-2997.746738285119136
 20
2187.3054208635658142
 30
0.0
  0
VERTEX
  5
17B9
  8
0
 10
-2997.746738285119136
 20
2527.3054207893010243
 30
0.0
  0
VERTEX
  5
17BA
  8
0
 10
-497.7467382851186812
 20
2527.3054207893010243
 30
0.0
  0
VERTEX
  5
17BB
  8
0
 10
-497.7467382851182265
 20
2187.3054215910838138
 30
0.0
  0
VERTEX
  5
17BC
  8
0
 10
-602.7467382851185675
 20
2187.3054215910838138
 30
0.0
  0
VERTEX
  5
17BD
  8
0
 10
-616.3467381861755712
 20
2327.3054207893010243
 30
0.0
  0
VERTEX
  5
17BE
  8
0
 10
-2879.1467382851201364
 20
2327.3054207893010243
 30
0.0
  0
VERTEX
  5
17BF
  8
0
 10
-2892.746738285119136
 20
2187.3054208635658142
 30
0.0
  0
SEQEND
  5
17C0
  8
0
  0
POLYLINE
  5
E3F
  8
A--L23
 66
     1
 10
0.0
 20
0.0
 30
0.0
1001
ACDBBLOCKREPETAG
1070
     1
1071
        3
1005
E3F
  0
VERTEX
  5
17C1
  8
A--L23
 10
-2899.746738285119136
 20
2187.3054208635658142
 30
0.0
  0
VERTEX
  5
17C2
  8
A--L23
 10
-2747.746738285119136
 20
2187.3054208635658142
 30
0.0
  0
VERTEX
  5
17C3
  8
A--L23
 10
-2747.746738285119136
 20
2175.3054208635658142
 30
0.0
  0
VERTEX
  5
17C4
  8
A--L23
 10
-747.7467382851186812
 20
2175.3054215910838138
 30
0.0
  0
VERTEX
  5
17C5
  8
A--L23
 10
-747.7467382851186812
 20
2187.3054215910838138
 30
0.0
  0
VERTEX
  5
17C6
  8
A--L23
 10
-602.7467382851185675
 20
2187.3054215910838138
 30
0.0
  0
SEQEND
  5
17C7
  8
A--L23
  0
LINE
  5
E40
  8
A--L23
 10
-2227.1318197931268514
 20
2175.3054210503978538
 30
0.0
 11
-2333.0712135505459628
 21
2327.3054207893010243
 31
0.0
1001
ACDBBLOCKREPETAG
1070
     1
1071
        6
1005
E40
  0
LINE
  5
E41
  8
A--L23
 10
-2333.0712135505459628
 20
2327.3054207893010243
 30
0.0
 11
-2439.0106073616798312
 21
2175.3054209733249991
 31
0.0
1001
ACDBBLOCKREPETAG
1070
     1
1071
        5
1005
E41
  0
LINE
  5
E42
  8
A--L23
 10
-2439.0106073616798312
 20
2175.3054209733249991
 30
0.0
 11
-2544.9500009781168046
 21
2327.3054205099488172
 31
0.0
1001
ACDBBLOCKREPETAG
1070
     1
1071
        7
1005
E42
  0
LINE
  5
E43
  8
A--L23
 10
-2544.9500009781168046
 20
2327.3054205099488172
 30
0.0
 11
-2650.8893946482689898
 21
2175.3054208962530538
 31
0.0
1001
ACDBBLOCKREPETAG
1070
     1
1071
        8
1005
E43
  0
LINE
  5
E44
  8
A--L23
 10
-2650.8893946482689898
 20
2175.3054208962530538
 30
0.0
 11
-2756.8287883113539465
 21
2327.3054204998088608
 31
0.0
1001
ACDBBLOCKREPETAG
1070
     1
1071
        9
1005
E44
  0
LINE
  5
E45
  8
A--L23
 10
-2756.8287883113539465
 20
2327.3054204998088608
 30
0.0
 11
-2850.1621211192577903
 21
2187.3054208635658142
 31
0.0
1001
ACDBBLOCKREPETAG
1070
     1
1071
       10
1005
E45
  0
LINE
  5
E46
  8
A--L23
 10
-2850.1621211192577903
 20
2187.3054208635658142
 30
0.0
 11
-2887.5374120223259524
 21
2240.930838246229996
 31
0.0
1001
ACDBBLOCKREPETAG
1070
     1
1071
       11
1005
E46
  0
LINE
  5
E47
  8
A--L23
 10
-1254.3616566781679467
 20
2175.3054210503978538
 30
0.0
 11
-1148.4222629207490627
 21
2327.3054207893010243
 31
0.0
1001
ACDBBLOCKREPETAG
1070
     1
1071
       12
1005
E47
  0
LINE
  5
E48
  8
A--L23
 10
-1148.4222629207490627
 20
2327.3054207893010243
 30
0.0
 11
-1042.4828691096149669
 21
2175.3054209733249991
 31
0.0
1001
ACDBBLOCKREPETAG
1070
     1
1071
       13
1005
E48
  0
LINE
  5
E49
  8
A--L23
 10
-1042.4828691096149669
 20
2175.3054209733249991
 30
0.0
 11
-936.5434754931776524
 21
2327.3054205099488172
 31
0.0
1001
ACDBBLOCKREPETAG
1070
     1
1071
       14
1005
E49
  0
LINE
  5
E4A
  8
A--L23
 10
-936.5434754931776524
 20
2327.3054205099488172
 30
0.0
 11
-830.6040818230266041
 21
2175.3054208962530538
 31
0.0
1001
ACDBBLOCKREPETAG
1070
     1
1071
       15
1005
E4A
  0
LINE
  5
E4B
  8
A--L23
 10
-830.6040818230266041
 20
2175.3054208962530538
 30
0.0
 11
-724.6646881599408516
 21
2327.3054204998088608
 31
0.0
1001
ACDBBLOCKREPETAG
1070
     1
1071
       16
1005
E4B
  0
LINE
  5
E4C
  8
A--L23
 10
-724.6646881599408516
 20
2327.3054204998088608
 30
0.0
 11
-631.3313553520373489
 21
2187.3054208635658142
 31
0.0
1001
ACDBBLOCKREPETAG
1070
     1
1071
       17
1005
E4C
  0
LINE
  5
E4D
  8
A--L23
 10
-631.3313553520373489
 20
2187.3054208635658142
 30
0.0
 11
-606.2434608905028881
 21
2223.3010955257677779
 31
0.0
1001
ACDBBLOCKREPETAG
1070
     1
1071
       18
1005
E4D
  0
POLYLINE
  5
E4E
  8
A--L23
  6
DASHED2
 66
     1
 10
0.0
 20
0.0
 30
0.0
1001
ACDBBLOCKREPETAG
1070
     1
1071
       19
1005
E4E
  0
VERTEX
  5
17C8
  8
A--L23
  6
DASHED2
 10
-616.3467381861755712
 20
2327.3054207893010243
 30
0.0
  0
VERTEX
  5
17C9
  8
A--L23
  6
DASHED2
 10
-497.746738285118397
 20
2327.3054207893010243
 30
0.0
  0
SEQEND
  5
17CA
  8
A--L23
  6
DASHED2
  0
POLYLINE
  5
E4F
  8
A--L23
  6
DASHED2
 66
     1
 10
0.0
 20
0.0
 30
0.0
1001
ACDBBLOCKREPETAG
1070
     1
1071
       20
1005
E4F
  0
VERTEX
  5
17CB
  8
A--L23
  6
DASHED2
 10
-2879.1467382851201364
 20
2327.3054207893010243
 30
0.0
  0
VERTEX
  5
17CC
  8
A--L23
  6
DASHED2
 10
-2997.746738285119136
 20
2327.3054207893010243
 30
0.0
  0
SEQEND
  5
17CD
  8
A--L23
  6
DASHED2
  0
ENDBLK
  5
864
  8
0
  0
BLOCK
  8
0
  2
*U5
 70
     1
 10
0.0
 20
0.0
 30
0.0
  3
*U5
  1

  0
POLYLINE
  5
E64
  8
A--L23
  6
DASHED
 66
     1
 10
0.0
 20
0.0
 30
0.0
1001
ACDBBLOCKREPETAG
1070
     1
1071
        0
1005
E64
  0
VERTEX
  5
17CE
  8
A--L23
  6
DASHED
 10
-2997.746738285119136
 20
2422.3054207893010243
 30
0.0
  0
VERTEX
  5
17CF
  8
A--L23
  6
DASHED
 10
-497.7467382851186244
 20
2422.3054207893010243
 30
0.0
  0
SEQEND
  5
17D0
  8
A--L23
  6
DASHED
  0
POLYLINE
  5
E65
  8
A--L23
  6
DASHED
 66
     1
 10
0.0
 20
0.0
 30
0.0
1001
ACDBBLOCKREPETAG
1070
     1
1071
        1
1005
E65
  0
VERTEX
  5
17D1
  8
A--L23
  6
DASHED
 10
-2997.746738285119136
 20
2492.3054165893008758
 30
0.0
  0
VERTEX
  5
17D2
  8
A--L23
  6
DASHED
 10
-497.7467382851186812
 20
2492.3054165893008758
 30
0.0
  0
SEQEND
  5
17D3
  8
A--L23
  6
DASHED
  0
POLYLINE
  5
E66
  8
0
 66
     1
 10
0.0
 20
0.0
 30
0.0
 70
     1
1001
ACDBBLOCKREPETAG
1070
     1
1071
        4
1005
E66
  0
VERTEX
  5
17D4
  8
0
 10
-2997.746738285119136
 20
2187.3054208635658142
 30
0.0
  0
VERTEX
  5
17D5
  8
0
 10
-2997.746738285119136
 20
2527.3054207893010243
 30
0.0
  0
VERTEX
  5
17D6
  8
0
 10
-497.7467382851186812
 20
2527.3054207893010243
 30
0.0
  0
VERTEX
  5
17D7
  8
0
 10
-497.7467382851182265
 20
2187.3054215910838138
 30
0.0
  0
VERTEX
  5
17D8
  8
0
 10
-602.7467382851185675
 20
2187.3054215910838138
 30
0.0
  0
VERTEX
  5
17D9
  8
0
 10
-616.3467381861755712
 20
2327.3054207893010243
 30
0.0
  0
VERTEX
  5
17DA
  8
0
 10
-2879.1467382851201364
 20
2327.3054207893010243
 30
0.0
  0
VERTEX
  5
17DB
  8
0
 10
-2892.746738285119136
 20
2187.3054208635658142
 30
0.0
  0
SEQEND
  5
17DC
  8
0
  0
POLYLINE
  5
E67
  8
A--L23
 66
     1
 10
0.0
 20
0.0
 30
0.0
1001
ACDBBLOCKREPETAG
1070
     1
1071
        3
1005
E67
  0
VERTEX
  5
17DD
  8
A--L23
 10
-2899.746738285119136
 20
2187.3054208635658142
 30
0.0
  0
VERTEX
  5
17DE
  8
A--L23
 10
-2747.746738285119136
 20
2187.3054208635658142
 30
0.0
  0
VERTEX
  5
17DF
  8
A--L23
 10
-2747.746738285119136
 20
2175.3054208635658142
 30
0.0
  0
VERTEX
  5
17E0
  8
A--L23
 10
-747.7467382851186812
 20
2175.3054215910838138
 30
0.0
  0
VERTEX
  5
17E1
  8
A--L23
 10
-747.7467382851186812
 20
2187.3054215910838138
 30
0.0
  0
VERTEX
  5
17E2
  8
A--L23
 10
-602.7467382851185675
 20
2187.3054215910838138
 30
0.0
  0
SEQEND
  5
17E3
  8
A--L23
  0
LINE
  5
E68
  8
A--L23
 10
-2227.1318197931268514
 20
2175.3054210503978538
 30
0.0
 11
-2333.0712135505459628
 21
2327.3054207893010243
 31
0.0
1001
ACDBBLOCKREPETAG
1070
     1
1071
        6
1005
E68
  0
LINE
  5
E69
  8
A--L23
 10
-2333.0712135505459628
 20
2327.3054207893010243
 30
0.0
 11
-2439.0106073616798312
 21
2175.3054209733249991
 31
0.0
1001
ACDBBLOCKREPETAG
1070
     1
1071
        5
1005
E69
  0
LINE
  5
E6A
  8
A--L23
 10
-2439.0106073616798312
 20
2175.3054209733249991
 30
0.0
 11
-2544.9500009781168046
 21
2327.3054205099488172
 31
0.0
1001
ACDBBLOCKREPETAG
1070
     1
1071
        7
1005
E6A
  0
LINE
  5
E6B
  8
A--L23
 10
-2544.9500009781168046
 20
2327.3054205099488172
 30
0.0
 11
-2650.8893946482689898
 21
2175.3054208962530538
 31
0.0
1001
ACDBBLOCKREPETAG
1070
     1
1071
        8
1005
E6B
  0
LINE
  5
E6C
  8
A--L23
 10
-2650.8893946482689898
 20
2175.3054208962530538
 30
0.0
 11
-2756.8287883113539465
 21
2327.3054204998088608
 31
0.0
1001
ACDBBLOCKREPETAG
1070
     1
1071
        9
1005
E6C
  0
LINE
  5
E6D
  8
A--L23
 10
-2756.8287883113539465
 20
2327.3054204998088608
 30
0.0
 11
-2850.1621211192577903
 21
2187.3054208635658142
 31
0.0
1001
ACDBBLOCKREPETAG
1070
     1
1071
       10
1005
E6D
  0
LINE
  5
E6E
  8
A--L23
 10
-2850.1621211192577903
 20
2187.3054208635658142
 30
0.0
 11
-2887.5374120223259524
 21
2240.930838246229996
 31
0.0
1001
ACDBBLOCKREPETAG
1070
     1
1071
       11
1005
E6E
  0
LINE
  5
E6F
  8
A--L23
 10
-1254.3616566781679467
 20
2175.3054210503978538
 30
0.0
 11
-1148.4222629207490627
 21
2327.3054207893010243
 31
0.0
1001
ACDBBLOCKREPETAG
1070
     1
1071
       12
1005
E6F
  0
LINE
  5
E70
  8
A--L23
 10
-1148.4222629207490627
 20
2327.3054207893010243
 30
0.0
 11
-1042.4828691096149669
 21
2175.3054209733249991
 31
0.0
1001
ACDBBLOCKREPETAG
1070
     1
1071
       13
1005
E70
  0
LINE
  5
E71
  8
A--L23
 10
-1042.4828691096149669
 20
2175.3054209733249991
 30
0.0
 11
-936.5434754931776524
 21
2327.3054205099488172
 31
0.0
1001
ACDBBLOCKREPETAG
1070
     1
1071
       14
1005
E71
  0
LINE
  5
E72
  8
A--L23
 10
-936.5434754931776524
 20
2327.3054205099488172
 30
0.0
 11
-830.6040818230266041
 21
2175.3054208962530538
 31
0.0
1001
ACDBBLOCKREPETAG
1070
     1
1071
       15
1005
E72
  0
LINE
  5
E73
  8
A--L23
 10
-830.6040818230266041
 20
2175.3054208962530538
 30
0.0
 11
-724.6646881599408516
 21
2327.3054204998088608
 31
0.0
1001
ACDBBLOCKREPETAG
1070
     1
1071
       16
1005
E73
  0
LINE
  5
E74
  8
A--L23
 10
-724.6646881599408516
 20
2327.3054204998088608
 30
0.0
 11
-631.3313553520373489
 21
2187.3054208635658142
 31
0.0
1001
ACDBBLOCKREPETAG
1070
     1
1071
       17
1005
E74
  0
LINE
  5
E75
  8
A--L23
 10
-631.3313553520373489
 20
2187.3054208635658142
 30
0.0
 11
-606.2434608905028881
 21
2223.3010955257677779
 31
0.0
1001
ACDBBLOCKREPETAG
1070
     1
1071
       18
1005
E75
  0
POLYLINE
  5
E76
  8
A--L23
  6
DASHED2
 66
     1
 10
0.0
 20
0.0
 30
0.0
1001
ACDBBLOCKREPETAG
1070
     1
1071
       19
1005
E76
  0
VERTEX
  5
17E4
  8
A--L23
  6
DASHED2
 10
-616.3467381861755712
 20
2327.3054207893010243
 30
0.0
  0
VERTEX
  5
17E5
  8
A--L23
  6
DASHED2
 10
-497.746738285118397
 20
2327.3054207893010243
 30
0.0
  0
SEQEND
  5
17E6
  8
A--L23
  6
DASHED2
  0
POLYLINE
  5
E77
  8
A--L23
  6
DASHED2
 66
     1
 10
0.0
 20
0.0
 30
0.0
1001
ACDBBLOCKREPETAG
1070
     1
1071
       20
1005
E77
  0
VERTEX
  5
17E7
  8
A--L23
  6
DASHED2
 10
-2879.1467382851201364
 20
2327.3054207893010243
 30
0.0
  0
VERTEX
  5
17E8
  8
A--L23
  6
DASHED2
 10
-2997.746738285119136
 20
2327.3054207893010243
 30
0.0
  0
SEQEND
  5
17E9
  8
A--L23
  6
DASHED2
  0
ENDBLK
  5
E63
  8
0
  0
BLOCK
  8
0
  2
*U6
 70
     1
 10
0.0
 20
0.0
 30
0.0
  3
*U6
  1

  0
ARC
  5
1802
  8
0
 10
-400.0000000000164846
 20
84.999995800171078
 30
0.0
 40
79.9999999998277929
 50
72.5423968762391951
 51
107.4576031237509994
  0
ARC
  5
1803
  8
0
 10
-380.5000000000164846
 20
147.0060438920768036
 30
0.0
 40
15.0000000000144897
 50
0.0
 51
72.5423968761842843
  0
LINE
  5
1804
  8
0
 10
-365.5000000000021032
 20
147.0060438921059074
 30
0.0
 11
-365.4999999999874944
 21
104.9999999999995026
 31
0.0
  0
ARC
  5
1805
  8
0
 10
-375.5000000000019895
 20
105.0000000000139977
 30
0.0
 40
10.0000000000144809
 50
269.9999999999997158
 51
359.9999999999170086
  0
LINE
  5
1806
  8
0
 10
-375.5000000000019895
 20
94.9999999999995453
 30
0.0
 11
-424.5000000000601972
 21
95.0000000000140545
 31
0.0
  0
ARC
  5
1807
  8
0
 10
-424.4999999999945999
 20
105.0000000000214015
 30
0.0
 40
10.0000000000073292
 50
180.0
 51
269.99999999949938
  0
LINE
  5
1808
  8
0
 10
-434.5000000000019895
 20
104.9999999999995026
 30
0.0
 11
-434.4999999999889155
 21
147.0060438920912986
 31
0.0
  0
ARC
  5
1809
  8
0
 10
-419.4999999999997158
 20
147.0060438921086075
 30
0.0
 40
14.9999999999891998
 50
107.4576031237499052
 51
180.0000000000659099
  0
ARC
  5
180A
  8
0
 10
399.9999999999835154
 20
84.9999958001565403
 30
0.0
 40
79.9999999998277929
 50
72.5423968762391951
 51
107.4576031237509994
  0
ARC
  5
180B
  8
0
 10
419.5000000000579803
 20
147.0060438921169919
 30
0.0
 40
14.9999999999399094
 50
0.0
 51
72.5423968766024103
  0
LINE
  5
180C
  8
0
 10
434.4999999999978968
 20
147.0060438920912986
 30
0.0
 11
434.5000000000123919
 21
104.9999999999849933
 31
0.0
  0
ARC
  5
180D
  8
0
 10
424.4999999999980105
 20
104.9999999999994031
 30
0.0
 40
10.0000000000144809
 50
269.9999999999997158
 51
359.9999999999170086
  0
LINE
  5
180E
  8
0
 10
424.4999999999978968
 20
94.9999999999849791
 30
0.0
 11
375.4999999999978968
 21
94.9999999999849365
 31
0.0
  0
ARC
  5
180F
  8
0
 10
375.4999999999906777
 20
104.9999999999776037
 30
0.0
 40
9.999999999992724
 50
180.0
 51
270.0000000000836735
  0
LINE
  5
1810
  8
0
 10
365.4999999999980105
 20
104.9999999999849933
 30
0.0
 11
365.5000000000147793
 21
147.0060438920768036
 31
0.0
  0
ARC
  5
1811
  8
0
 10
380.4999999999852776
 20
147.0060438921090054
 30
0.0
 40
14.9999999999704894
 50
107.4576031237122038
 51
180.0000000001228102
  0
ARC
  5
1812
  8
0
 10
-300.000000000031207
 20
84.9999958000118312
 30
0.0
 40
79.999999999970214
 50
72.5423968762602698
 51
107.4576031237066047
  0
ARC
  5
1813
  8
0
 10
-280.4999999999420197
 20
147.0060438921169919
 30
0.0
 40
14.9999999999399094
 50
0.0
 51
72.5423968766024103
  0
LINE
  5
1814
  8
0
 10
-265.5000000000021032
 20
147.0060438920912986
 30
0.0
 11
-265.4999999999874944
 21
104.9999999999849933
 31
0.0
  0
ARC
  5
1815
  8
0
 10
-275.5000000000019895
 20
104.9999999999994031
 30
0.0
 40
10.0000000000144809
 50
269.9999999999997158
 51
359.9999999999170086
  0
LINE
  5
1816
  8
0
 10
-275.5000000000019895
 20
94.9999999999849791
 30
0.0
 11
-324.5000000000603109
 21
95.0000000000140545
 31
0.0
  0
ARC
  5
1817
  8
0
 10
-324.4999999999947136
 20
105.0000000000214015
 30
0.0
 40
10.0000000000073292
 50
180.0
 51
269.99999999949938
  0
LINE
  5
1818
  8
0
 10
-334.5000000000021032
 20
104.9999999999995026
 30
0.0
 11
-334.4999999999889155
 21
147.0060438920912986
 31
0.0
  0
ARC
  5
1819
  8
0
 10
-319.5000000000022737
 20
147.0060438921051968
 30
0.0
 40
14.9999999999865405
 50
107.457603123735197
 51
180.0000000000528928
  0
LINE
  5
181A
  8
0
 10
526.4999999999979536
 20
132.9999999999849933
 30
0.0
 11
526.5000000000123919
 21
104.9999999999849933
 31
0.0
  0
ARC
  5
181B
  8
0
 10
516.4999999999979536
 20
104.9999999999994031
 30
0.0
 40
10.00000000001444
 50
270.0000000000823093
 51
0.0
  0
LINE
  5
181C
  8
0
 10
516.4999999999979536
 20
94.999999999985036
 30
0.0
 11
476.4999999999978968
 21
94.9999999999849791
 31
0.0
  0
ARC
  5
181D
  8
0
 10
476.4999999999906777
 20
104.9999999999776037
 30
0.0
 40
9.9999999999926672
 50
179.9999999999579074
 51
270.0000000000417231
  0
LINE
  5
181E
  8
0
 10
466.4999999999980105
 20
104.9999999999849933
 30
0.0
 11
466.4999999999978968
 21
132.9999999999849933
 31
0.0
  0
ARC
  5
181F
  8
0
 10
496.4999999999978968
 20
132.9999999999849933
 30
0.0
 40
30.0
 50
0.0
 51
180.0
  0
ARC
  5
1820
  8
0
 10
-200.000000000016513
 20
84.9999958001569098
 30
0.0
 40
79.9999999998274234
 50
72.5423968762391524
 51
107.4576031237510989
  0
ARC
  5
1821
  8
0
 10
-180.4999999999417923
 20
147.0060438921171055
 30
0.0
 40
14.9999999999397993
 50
0.0
 51
72.5423968766031635
  0
LINE
  5
1822
  8
0
 10
-165.5000000000019895
 20
147.0060438920912986
 30
0.0
 11
-165.4999999999874944
 21
104.9999999999849933
 31
0.0
  0
ARC
  5
1823
  8
0
 10
-175.5000000000019895
 20
104.9999999999995026
 30
0.0
 40
10.0000000000145501
 50
270.0
 51
359.9999999999166107
  0
LINE
  5
1824
  8
0
 10
-175.5000000000019895
 20
94.9999999999849791
 30
0.0
 11
-224.5000000000019895
 21
94.9999999999849791
 31
0.0
  0
ARC
  5
1825
  8
0
 10
-224.5000000000092939
 20
104.9999999999777032
 30
0.0
 40
9.999999999992724
 50
180.0
 51
270.0000000000832756
  0
LINE
  5
1826
  8
0
 10
-234.5000000000021032
 20
104.9999999999849933
 30
0.0
 11
-234.4999999999851923
 21
147.0060438920768036
 31
0.0
  0
ARC
  5
1827
  8
0
 10
-219.5000000000146088
 20
147.0060438921088917
 30
0.0
 40
14.99999999997058
 50
107.4576031237125022
 51
180.0000000001224976
  0
LINE
  5
1828
  8
0
 10
-526.5000000000164846
 20
104.9999999999849933
 30
0.0
 11
-526.5000000000020464
 21
132.9999999999849933
 31
0.0
  0
ARC
  5
1829
  8
0
 10
-496.5000000000019895
 20
132.9999999999849933
 30
0.0
 40
30.0
 50
0.0
 51
180.0
  0
LINE
  5
182A
  8
0
 10
-466.5000000000019895
 20
132.9999999999849933
 30
0.0
 11
-466.5000000000019895
 21
104.9999999999849933
 31
0.0
  0
ARC
  5
182B
  8
0
 10
-476.4999999999948272
 20
104.9999999999778026
 30
0.0
 40
9.9999999999927951
 50
269.999999999958618
 51
0.000000000041247
  0
LINE
  5
182C
  8
0
 10
-476.5000000000019895
 20
94.9999999999849791
 30
0.0
 11
-516.5000000000020464
 21
94.999999999985036
 31
0.0
  0
ARC
  5
182D
  8
0
 10
-516.5000000000020464
 20
104.9999999999994031
 30
0.0
 40
10.00000000001444
 50
180.0
 51
269.999999999917577
  0
ARC
  5
182E
  8
0
 10
99.9999999999835296
 20
84.9999958001565545
 30
0.0
 40
79.9999999998277644
 50
72.5423968762391951
 51
107.4576031237509994
  0
ARC
  5
182F
  8
0
 10
119.500000000058094
 20
147.0060438921171055
 30
0.0
 40
14.9999999999398295
 50
0.0
 51
72.5423968766029788
  0
LINE
  5
1830
  8
0
 10
134.4999999999978968
 20
147.0060438920912986
 30
0.0
 11
134.5000000000125056
 21
104.9999999999849933
 31
0.0
  0
ARC
  5
1831
  8
0
 10
124.4999999999979963
 20
104.9999999999995026
 30
0.0
 40
10.0000000000145199
 50
269.9999999999997726
 51
359.9999999999167812
  0
LINE
  5
1832
  8
0
 10
124.4999999999978968
 20
94.9999999999849791
 30
0.0
 11
75.4999999999979536
 21
94.9999999999849791
 31
0.0
  0
ARC
  5
1833
  8
0
 10
75.4999999999906777
 20
104.9999999999777032
 30
0.0
 40
9.999999999992724
 50
180.0
 51
270.0000000000832756
  0
LINE
  5
1834
  8
0
 10
65.4999999999979536
 20
104.9999999999849933
 30
0.0
 11
65.5000000000148077
 21
147.0060438920768036
 31
0.0
  0
ARC
  5
1835
  8
0
 10
80.4999999999854197
 20
147.0060438921088917
 30
0.0
 40
14.9999999999706208
 50
107.4576031237127012
 51
180.0000000001224123
  0
ARC
  5
1836
  8
0
 10
199.999999999983487
 20
84.9999958001569098
 30
0.0
 40
79.9999999998274234
 50
72.5423968762391524
 51
107.4576031237510989
  0
ARC
  5
1837
  8
0
 10
219.5000000000582077
 20
147.0060438921171055
 30
0.0
 40
14.9999999999397993
 50
0.0
 51
72.5423968766031635
  0
LINE
  5
1838
  8
0
 10
234.4999999999980105
 20
147.0060438920912986
 30
0.0
 11
234.5000000000125056
 21
104.9999999999849933
 31
0.0
  0
ARC
  5
1839
  8
0
 10
224.4999999999980105
 20
104.9999999999995026
 30
0.0
 40
10.0000000000145501
 50
270.0
 51
359.9999999999166107
  0
LINE
  5
183A
  8
0
 10
224.4999999999980105
 20
94.9999999999849791
 30
0.0
 11
175.4999999999978968
 21
94.9999999999849791
 31
0.0
  0
ARC
  5
183B
  8
0
 10
175.4999999999907061
 20
104.9999999999777032
 30
0.0
 40
9.999999999992724
 50
180.0
 51
270.0000000000832756
  0
LINE
  5
183C
  8
0
 10
165.4999999999978968
 20
104.9999999999849933
 30
0.0
 11
165.5000000000148077
 21
147.0060438920768036
 31
0.0
  0
ARC
  5
183D
  8
0
 10
180.4999999999853912
 20
147.0060438921088917
 30
0.0
 40
14.99999999997058
 50
107.4576031237125022
 51
180.0000000001224976
  0
ARC
  5
183E
  8
0
 10
-0.0000000000165091
 20
84.9999958001559008
 30
0.0
 40
79.9999999998284039
 50
72.542396876239323
 51
107.4576031237509
  0
ARC
  5
183F
  8
0
 10
19.5000000000581295
 20
147.0060438921171055
 30
0.0
 40
14.9999999999398206
 50
0.0
 51
72.542396876602993
  0
LINE
  5
1840
  8
0
 10
34.4999999999979465
 20
147.0060438920912986
 30
0.0
 11
34.5000000000125127
 21
104.9999999999849933
 31
0.0
  0
ARC
  5
1841
  8
0
 10
24.4999999999979501
 20
104.9999999999995026
 30
0.0
 40
10.0000000000145501
 50
270.0
 51
359.9999999999166107
  0
LINE
  5
1842
  8
0
 10
24.4999999999979501
 20
94.9999999999849791
 30
0.0
 11
-24.5000000000020499
 21
94.9999999999849791
 31
0.0
  0
ARC
  5
1843
  8
0
 10
-24.5000000000093294
 20
104.9999999999777032
 30
0.0
 40
9.9999999999927152
 50
180.0
 51
270.0000000000833893
  0
LINE
  5
1844
  8
0
 10
-34.5000000000020535
 20
104.9999999999849933
 30
0.0
 11
-34.4999999999851994
 21
147.0060438920768036
 31
0.0
  0
ARC
  5
1845
  8
0
 10
-19.5000000000145697
 20
147.0060438921088917
 30
0.0
 40
14.9999999999706208
 50
107.4576031237127012
 51
180.0000000001224123
  0
ARC
  5
1846
  8
0
 10
299.9999999999835154
 20
84.9999958001565403
 30
0.0
 40
79.9999999998277929
 50
72.5423968762391951
 51
107.4576031237509994
  0
ARC
  5
1847
  8
0
 10
319.5000000000579803
 20
147.0060438921169919
 30
0.0
 40
14.9999999999399094
 50
0.0
 51
72.5423968766024103
  0
LINE
  5
1848
  8
0
 10
334.4999999999980105
 20
147.0060438920912986
 30
0.0
 11
334.5000000000125056
 21
104.9999999999849933
 31
0.0
  0
ARC
  5
1849
  8
0
 10
324.4999999999980105
 20
104.9999999999994031
 30
0.0
 40
10.0000000000144809
 50
269.9999999999997158
 51
359.9999999999170086
  0
LINE
  5
184A
  8
0
 10
324.4999999999980105
 20
94.9999999999849791
 30
0.0
 11
275.4999999999978968
 21
94.9999999999849365
 31
0.0
  0
ARC
  5
184B
  8
0
 10
275.4999999999906777
 20
104.9999999999776037
 30
0.0
 40
9.999999999992724
 50
180.0
 51
270.0000000000836735
  0
LINE
  5
184C
  8
0
 10
265.4999999999978968
 20
104.9999999999849933
 30
0.0
 11
265.5000000000147793
 21
147.0060438920768036
 31
0.0
  0
ARC
  5
184D
  8
0
 10
280.4999999999852776
 20
147.0060438921090054
 30
0.0
 40
14.9999999999704894
 50
107.4576031237122038
 51
180.0000000001228102
  0
ARC
  5
184E
  8
0
 10
-100.0000000000163993
 20
84.9999958001565545
 30
0.0
 40
79.9999999998277644
 50
72.5423968762391951
 51
107.4576031237509994
  0
ARC
  5
184F
  8
0
 10
-80.4999999999419344
 20
147.0060438921169919
 30
0.0
 40
14.9999999999398792
 50
0.0
 51
72.5423968766026945
  0
LINE
  5
1850
  8
0
 10
-65.5000000000020464
 20
147.0060438920912986
 30
0.0
 11
-65.4999999999874944
 21
104.9999999999849933
 31
0.0
  0
ARC
  5
1851
  8
0
 10
-75.5000000000020464
 20
104.9999999999995026
 30
0.0
 40
10.0000000000145501
 50
270.0
 51
359.9999999999166107
  0
LINE
  5
1852
  8
0
 10
-75.5000000000020464
 20
94.9999999999849791
 30
0.0
 11
-124.5000000000020037
 21
94.9999999999849791
 31
0.0
  0
ARC
  5
1853
  8
0
 10
-124.5000000000092939
 20
104.9999999999777032
 30
0.0
 40
9.9999999999927525
 50
180.0
 51
270.0000000000831051
  0
LINE
  5
1854
  8
0
 10
-134.5000000000019895
 20
104.9999999999849933
 30
0.0
 11
-134.4999999999851923
 21
147.0060438920768036
 31
0.0
  0
ARC
  5
1855
  8
0
 10
-119.5000000000144951
 20
147.0060438921088064
 30
0.0
 40
14.9999999999706795
 50
107.4576031237127012
 51
180.0000000001222134
  0
LINE
  5
1856
  8
0
 10
591.4443650813751674
 20
30.8894444302709417
 30
0.0
 11
592.9999999999979536
 21
19.9999999999995417
 31
0.0
  0
LINE
  5
1857
  8
0
 10
577.3022294576492186
 20
45.031580054011549
 30
0.0
 11
591.4443650813751674
 21
30.8894444302709417
 31
0.0
  0
LINE
  5
1858
  8
0
 10
574.4147601696583934
 20
65.2438650698891252
 30
0.0
 11
577.3022294576492186
 21
45.031580054011549
 31
0.0
  0
LINE
  5
1859
  8
0
 10
585.0213618874674921
 20
75.850466787683672
 30
0.0
 11
574.4147601696583934
 21
65.2438650698891252
 31
0.0
  0
LINE
  5
185A
  8
0
 10
581.4852813742452327
 20
100.6030303803412949
 30
0.0
 11
585.0213618874674921
 21
75.850466787683672
 31
0.0
  0
LINE
  5
185B
  8
0
 10
567.3431457505190565
 20
114.7451660040674
 30
0.0
 11
581.4852813742452327
 21
100.6030303803412949
 31
0.0
  0
LINE
  5
185C
  8
0
 10
562.3933982822034068
 20
149.3933982822049984
 30
0.0
 11
567.3431457505190565
 21
114.7451660040674
 31
0.0
  0
LINE
  5
185D
  8
0
 10
572.9999999999979536
 20
159.9999999999994884
 30
0.0
 11
562.3933982822034068
 21
149.3933982822049984
 31
0.0
  0
LINE
  5
185E
  8
0
 10
572.9999999999979536
 20
199.9999999999994884
 30
0.0
 11
572.9999999999979536
 21
159.9999999999994884
 31
0.0
  0
LINE
  5
185F
  8
0
 10
-573.0000000000020464
 20
199.9999999999994884
 30
0.0
 11
572.9999999999979536
 21
199.9999999999994884
 31
0.0
  0
LINE
  5
1860
  8
0
 10
-573.0000000000020464
 20
159.9999999999994884
 30
0.0
 11
-573.0000000000020464
 21
199.9999999999994884
 31
0.0
  0
LINE
  5
1861
  8
0
 10
-562.3933982822074995
 20
149.3933982822049984
 30
0.0
 11
-573.0000000000020464
 21
159.9999999999994884
 31
0.0
  0
LINE
  5
1862
  8
0
 10
-567.3431457504940454
 20
114.7451660040674
 30
0.0
 11
-562.3933982822074995
 21
149.3933982822049984
 31
0.0
  0
LINE
  5
1863
  8
0
 10
-581.4852813742346598
 20
100.6030303803412949
 30
0.0
 11
-567.3431457504940454
 21
114.7451660040674
 31
0.0
  0
LINE
  5
1864
  8
0
 10
-585.0213618874570329
 20
75.850466787683672
 30
0.0
 11
-581.4852813742346598
 21
100.6030303803412949
 31
0.0
  0
LINE
  5
1865
  8
0
 10
-574.4147601696623724
 20
65.2438650698891252
 30
0.0
 11
-585.0213618874570329
 21
75.850466787683672
 31
0.0
  0
LINE
  5
1866
  8
0
 10
-577.3022294576386457
 20
45.031580054011549
 30
0.0
 11
-574.4147601696623724
 21
65.2438650698891252
 31
0.0
  0
LINE
  5
1867
  8
0
 10
-591.4443650813792601
 20
30.8894444302709417
 30
0.0
 11
-577.3022294576386457
 21
45.031580054011549
 31
0.0
  0
LINE
  5
1868
  8
0
 10
-593.0000000000020464
 20
19.9999999999995417
 30
0.0
 11
-591.4443650813792601
 21
30.8894444302709417
 31
0.0
  0
LINE
  5
1869
  8
0
 10
-593.0000000000020464
 20
-0.0000000000004547
 30
0.0
 11
-593.0000000000020464
 21
19.9999999999995417
 31
0.0
  0
LINE
  5
186A
  8
0
 10
592.9999999999979536
 20
-0.0000000000004547
 30
0.0
 11
-593.0000000000020464
 21
-0.0000000000004547
 31
0.0
  0
LINE
  5
186B
  8
0
 10
592.9999999999979536
 20
19.9999999999995417
 30
0.0
 11
592.9999999999979536
 21
-0.0000000000004547
 31
0.0
  0
ENDBLK
  5
186D
  8
0
  0
BLOCK
  8
0
  2
*U7
 70
     1
 10
0.0
 20
0.0
 30
0.0
  3
*U7
  1

  0
ARC
  5
189C
  8
0
 10
-400.000000000014893
 20
84.999995800171547
 30
0.0
 40
79.9999999998277929
 50
72.5423968762391951
 51
107.4576031237509994
  0
ARC
  5
189D
  8
0
 10
-380.500000000014893
 20
147.0060438920772867
 30
0.0
 40
15.0000000000144897
 50
0.0
 51
72.5423968761842843
  0
LINE
  5
189E
  8
0
 10
-365.5000000000005116
 20
147.0060438921063906
 30
0.0
 11
-365.4999999999859028
 21
105.0
 31
0.0
  0
ARC
  5
189F
  8
0
 10
-375.5000000000003979
 20
105.0000000000144951
 30
0.0
 40
10.0000000000144809
 50
269.9999999999997158
 51
359.9999999999170086
  0
LINE
  5
18A0
  8
0
 10
-375.5000000000005116
 20
95.0
 30
0.0
 11
-424.5000000000586056
 21
95.0000000000145093
 31
0.0
  0
ARC
  5
18A1
  8
0
 10
-424.4999999999931219
 20
105.0000000000217995
 30
0.0
 40
10.0000000000073292
 50
180.0
 51
269.99999999949938
  0
LINE
  5
18A2
  8
0
 10
-434.5000000000005116
 20
105.0
 30
0.0
 11
-434.4999999999873239
 21
147.0060438920918102
 31
0.0
  0
ARC
  5
18A3
  8
0
 10
-419.4999999999981242
 20
147.0060438921090906
 30
0.0
 40
14.9999999999891998
 50
107.4576031237499052
 51
180.0000000000659099
  0
ARC
  5
18A4
  8
0
 10
399.999999999985107
 20
84.9999958001569951
 30
0.0
 40
79.9999999998277929
 50
72.5423968762391951
 51
107.4576031237509994
  0
ARC
  5
18A5
  8
0
 10
419.5000000000595719
 20
147.0060438921173898
 30
0.0
 40
14.9999999999399094
 50
0.0
 51
72.5423968766024103
  0
LINE
  5
18A6
  8
0
 10
434.4999999999994884
 20
147.0060438920918102
 30
0.0
 11
434.5000000000139835
 21
104.9999999999854055
 31
0.0
  0
ARC
  5
18A7
  8
0
 10
424.4999999999994884
 20
104.9999999999999005
 30
0.0
 40
10.0000000000144809
 50
269.9999999999997158
 51
359.9999999999170086
  0
LINE
  5
18A8
  8
0
 10
424.4999999999994884
 20
94.9999999999854481
 30
0.0
 11
375.4999999999994884
 21
94.9999999999853912
 31
0.0
  0
ARC
  5
18A9
  8
0
 10
375.4999999999923261
 20
104.9999999999781011
 30
0.0
 40
9.999999999992724
 50
180.0
 51
270.0000000000836735
  0
LINE
  5
18AA
  8
0
 10
365.4999999999994884
 20
104.9999999999854055
 30
0.0
 11
365.5000000000164277
 21
147.0060438920772867
 31
0.0
  0
ARC
  5
18AB
  8
0
 10
380.499999999986926
 20
147.0060438921094033
 30
0.0
 40
14.9999999999704894
 50
107.4576031237122038
 51
180.0000000001228102
  0
ARC
  5
18AC
  8
0
 10
-300.0000000000296154
 20
84.9999958000122859
 30
0.0
 40
79.999999999970214
 50
72.5423968762602698
 51
107.4576031237066047
  0
ARC
  5
18AD
  8
0
 10
-280.4999999999404281
 20
147.0060438921173898
 30
0.0
 40
14.9999999999399094
 50
0.0
 51
72.5423968766024103
  0
LINE
  5
18AE
  8
0
 10
-265.5000000000005116
 20
147.0060438920918102
 30
0.0
 11
-265.4999999999859028
 21
104.9999999999854055
 31
0.0
  0
ARC
  5
18AF
  8
0
 10
-275.5000000000003979
 20
104.9999999999999005
 30
0.0
 40
10.0000000000144809
 50
269.9999999999997158
 51
359.9999999999170086
  0
LINE
  5
18B0
  8
0
 10
-275.5000000000005116
 20
94.9999999999854481
 30
0.0
 11
-324.5000000000587193
 21
95.0000000000145093
 31
0.0
  0
ARC
  5
18B1
  8
0
 10
-324.4999999999931219
 20
105.0000000000217995
 30
0.0
 40
10.0000000000073292
 50
180.0
 51
269.99999999949938
  0
LINE
  5
18B2
  8
0
 10
-334.5000000000005116
 20
105.0
 30
0.0
 11
-334.4999999999873239
 21
147.0060438920918102
 31
0.0
  0
ARC
  5
18B3
  8
0
 10
-319.5000000000006821
 20
147.0060438921057084
 30
0.0
 40
14.9999999999865405
 50
107.457603123735197
 51
180.0000000000528928
  0
LINE
  5
18B4
  8
0
 10
526.4999999999995453
 20
132.9999999999853912
 30
0.0
 11
526.5000000000139835
 21
104.9999999999854055
 31
0.0
  0
ARC
  5
18B5
  8
0
 10
516.4999999999995453
 20
104.9999999999999005
 30
0.0
 40
10.00000000001444
 50
270.0000000000823093
 51
0.0
  0
LINE
  5
18B6
  8
0
 10
516.4999999999995453
 20
94.9999999999854765
 30
0.0
 11
476.4999999999994884
 21
94.9999999999854481
 31
0.0
  0
ARC
  5
18B7
  8
0
 10
476.4999999999922125
 20
104.9999999999781011
 30
0.0
 40
9.9999999999926672
 50
179.9999999999579074
 51
270.0000000000417231
  0
LINE
  5
18B8
  8
0
 10
466.4999999999996021
 20
104.9999999999854055
 30
0.0
 11
466.4999999999994884
 21
132.9999999999853912
 31
0.0
  0
ARC
  5
18B9
  8
0
 10
496.4999999999994884
 20
132.9999999999853912
 30
0.0
 40
30.0
 50
0.0
 51
180.0
  0
ARC
  5
18BA
  8
0
 10
-200.000000000014893
 20
84.9999958001573646
 30
0.0
 40
79.9999999998274234
 50
72.5423968762391524
 51
107.4576031237510989
  0
ARC
  5
18BB
  8
0
 10
-180.4999999999402007
 20
147.0060438921175034
 30
0.0
 40
14.9999999999397993
 50
0.0
 51
72.5423968766031635
  0
LINE
  5
18BC
  8
0
 10
-165.5000000000003979
 20
147.0060438920918102
 30
0.0
 11
-165.4999999999859028
 21
104.9999999999854055
 31
0.0
  0
ARC
  5
18BD
  8
0
 10
-175.5000000000003979
 20
105.0
 30
0.0
 40
10.0000000000145501
 50
270.0
 51
359.9999999999166107
  0
LINE
  5
18BE
  8
0
 10
-175.5000000000003979
 20
94.9999999999854481
 30
0.0
 11
-224.5000000000003979
 21
94.9999999999854481
 31
0.0
  0
ARC
  5
18BF
  8
0
 10
-224.5000000000077023
 20
104.9999999999781011
 30
0.0
 40
9.999999999992724
 50
180.0
 51
270.0000000000832756
  0
LINE
  5
18C0
  8
0
 10
-234.5000000000005116
 20
104.9999999999854055
 30
0.0
 11
-234.4999999999836007
 21
147.0060438920772867
 31
0.0
  0
ARC
  5
18C1
  8
0
 10
-219.5000000000129887
 20
147.0060438921094033
 30
0.0
 40
14.99999999997058
 50
107.4576031237125022
 51
180.0000000001224976
  0
LINE
  5
18C2
  8
0
 10
-526.500000000014893
 20
104.9999999999854055
 30
0.0
 11
-526.5000000000004547
 21
132.9999999999853912
 31
0.0
  0
ARC
  5
18C3
  8
0
 10
-496.5000000000003979
 20
132.9999999999853912
 30
0.0
 40
30.0
 50
0.0
 51
180.0
  0
LINE
  5
18C4
  8
0
 10
-466.5000000000003979
 20
132.9999999999853912
 30
0.0
 11
-466.5000000000003979
 21
104.9999999999854055
 31
0.0
  0
ARC
  5
18C5
  8
0
 10
-476.4999999999931788
 20
104.9999999999782005
 30
0.0
 40
9.9999999999927951
 50
269.999999999958618
 51
0.000000000041247
  0
LINE
  5
18C6
  8
0
 10
-476.5000000000005116
 20
94.9999999999854481
 30
0.0
 11
-516.5000000000004547
 21
94.9999999999854765
 31
0.0
  0
ARC
  5
18C7
  8
0
 10
-516.5000000000004547
 20
104.9999999999999005
 30
0.0
 40
10.00000000001444
 50
180.0
 51
269.999999999917577
  0
ARC
  5
18C8
  8
0
 10
99.9999999999851354
 20
84.9999958001570093
 30
0.0
 40
79.9999999998277644
 50
72.5423968762391951
 51
107.4576031237509994
  0
ARC
  5
18C9
  8
0
 10
119.5000000000596998
 20
147.0060438921175034
 30
0.0
 40
14.9999999999398295
 50
0.0
 51
72.5423968766029788
  0
LINE
  5
18CA
  8
0
 10
134.4999999999994884
 20
147.0060438920918102
 30
0.0
 11
134.5000000000140972
 21
104.9999999999854055
 31
0.0
  0
ARC
  5
18CB
  8
0
 10
124.4999999999995026
 20
105.0
 30
0.0
 40
10.0000000000145199
 50
269.9999999999997726
 51
359.9999999999167812
  0
LINE
  5
18CC
  8
0
 10
124.4999999999995026
 20
94.9999999999854481
 30
0.0
 11
75.4999999999995453
 21
94.9999999999854481
 31
0.0
  0
ARC
  5
18CD
  8
0
 10
75.4999999999922693
 20
104.9999999999781011
 30
0.0
 40
9.999999999992724
 50
180.0
 51
270.0000000000832756
  0
LINE
  5
18CE
  8
0
 10
65.4999999999995453
 20
104.9999999999854055
 30
0.0
 11
65.5000000000163993
 21
147.0060438920772867
 31
0.0
  0
ARC
  5
18CF
  8
0
 10
80.4999999999870255
 20
147.0060438921092896
 30
0.0
 40
14.9999999999706208
 50
107.4576031237127012
 51
180.0000000001224123
  0
ARC
  5
18D0
  8
0
 10
199.999999999985107
 20
84.9999958001573646
 30
0.0
 40
79.9999999998274234
 50
72.5423968762391524
 51
107.4576031237510989
  0
ARC
  5
18D1
  8
0
 10
219.5000000000597993
 20
147.0060438921175034
 30
0.0
 40
14.9999999999397993
 50
0.0
 51
72.5423968766031635
  0
LINE
  5
18D2
  8
0
 10
234.4999999999994884
 20
147.0060438920918102
 30
0.0
 11
234.5000000000140972
 21
104.9999999999854055
 31
0.0
  0
ARC
  5
18D3
  8
0
 10
224.4999999999996021
 20
105.0
 30
0.0
 40
10.0000000000145501
 50
270.0
 51
359.9999999999166107
  0
LINE
  5
18D4
  8
0
 10
224.4999999999996021
 20
94.9999999999854481
 30
0.0
 11
175.4999999999994884
 21
94.9999999999854481
 31
0.0
  0
ARC
  5
18D5
  8
0
 10
175.4999999999922125
 20
104.9999999999781011
 30
0.0
 40
9.999999999992724
 50
180.0
 51
270.0000000000832756
  0
LINE
  5
18D6
  8
0
 10
165.4999999999994884
 20
104.9999999999854055
 30
0.0
 11
165.5000000000163993
 21
147.0060438920772867
 31
0.0
  0
ARC
  5
18D7
  8
0
 10
180.4999999999870113
 20
147.0060438921094033
 30
0.0
 40
14.99999999997058
 50
107.4576031237125022
 51
180.0000000001224976
  0
ARC
  5
18D8
  8
0
 10
-0.0000000000149175
 20
84.9999958001563556
 30
0.0
 40
79.9999999998284039
 50
72.542396876239323
 51
107.4576031237509
  0
ARC
  5
18D9
  8
0
 10
19.5000000000597211
 20
147.0060438921175034
 30
0.0
 40
14.9999999999398206
 50
0.0
 51
72.542396876602993
  0
LINE
  5
18DA
  8
0
 10
34.4999999999995524
 20
147.0060438920918102
 30
0.0
 11
34.5000000000140972
 21
104.9999999999854055
 31
0.0
  0
ARC
  5
18DB
  8
0
 10
24.4999999999995488
 20
105.0
 30
0.0
 40
10.0000000000145501
 50
270.0
 51
359.9999999999166107
  0
LINE
  5
18DC
  8
0
 10
24.4999999999995488
 20
94.9999999999854481
 30
0.0
 11
-24.5000000000004512
 21
94.9999999999854481
 31
0.0
  0
ARC
  5
18DD
  8
0
 10
-24.5000000000077414
 20
104.9999999999781011
 30
0.0
 40
9.9999999999927152
 50
180.0
 51
270.0000000000833893
  0
LINE
  5
18DE
  8
0
 10
-34.5000000000004476
 20
104.9999999999854055
 30
0.0
 11
-34.4999999999836007
 21
147.0060438920772867
 31
0.0
  0
ARC
  5
18DF
  8
0
 10
-19.5000000000129816
 20
147.0060438921092896
 30
0.0
 40
14.9999999999706208
 50
107.4576031237127012
 51
180.0000000001224123
  0
ARC
  5
18E0
  8
0
 10
299.999999999985107
 20
84.9999958001569951
 30
0.0
 40
79.9999999998277929
 50
72.5423968762391951
 51
107.4576031237509994
  0
ARC
  5
18E1
  8
0
 10
319.5000000000595719
 20
147.0060438921173898
 30
0.0
 40
14.9999999999399094
 50
0.0
 51
72.5423968766024103
  0
LINE
  5
18E2
  8
0
 10
334.4999999999994884
 20
147.0060438920918102
 30
0.0
 11
334.5000000000140972
 21
104.9999999999854055
 31
0.0
  0
ARC
  5
18E3
  8
0
 10
324.4999999999996021
 20
104.9999999999999005
 30
0.0
 40
10.0000000000144809
 50
269.9999999999997158
 51
359.9999999999170086
  0
LINE
  5
18E4
  8
0
 10
324.4999999999996021
 20
94.9999999999854481
 30
0.0
 11
275.4999999999994884
 21
94.9999999999853912
 31
0.0
  0
ARC
  5
18E5
  8
0
 10
275.4999999999923261
 20
104.9999999999781011
 30
0.0
 40
9.999999999992724
 50
180.0
 51
270.0000000000836735
  0
LINE
  5
18E6
  8
0
 10
265.4999999999994884
 20
104.9999999999854055
 30
0.0
 11
265.5000000000164277
 21
147.0060438920772867
 31
0.0
  0
ARC
  5
18E7
  8
0
 10
280.499999999986926
 20
147.0060438921094033
 30
0.0
 40
14.9999999999704894
 50
107.4576031237122038
 51
180.0000000001228102
  0
ARC
  5
18E8
  8
0
 10
-100.0000000000147935
 20
84.9999958001570093
 30
0.0
 40
79.9999999998277644
 50
72.5423968762391951
 51
107.4576031237509994
  0
ARC
  5
18E9
  8
0
 10
-80.4999999999403286
 20
147.0060438921175034
 30
0.0
 40
14.9999999999398792
 50
0.0
 51
72.5423968766026945
  0
LINE
  5
18EA
  8
0
 10
-65.5000000000004547
 20
147.0060438920918102
 30
0.0
 11
-65.4999999999859028
 21
104.9999999999854055
 31
0.0
  0
ARC
  5
18EB
  8
0
 10
-75.5000000000004547
 20
105.0
 30
0.0
 40
10.0000000000145501
 50
270.0
 51
359.9999999999166107
  0
LINE
  5
18EC
  8
0
 10
-75.5000000000004547
 20
94.9999999999854481
 30
0.0
 11
-124.5000000000003979
 21
94.9999999999854339
 31
0.0
  0
ARC
  5
18ED
  8
0
 10
-124.5000000000077023
 20
104.9999999999781011
 30
0.0
 40
9.9999999999927525
 50
180.0
 51
270.0000000000831051
  0
LINE
  5
18EE
  8
0
 10
-134.5000000000003979
 20
104.9999999999854055
 30
0.0
 11
-134.4999999999836007
 21
147.0060438920772867
 31
0.0
  0
ARC
  5
18EF
  8
0
 10
-119.5000000000129035
 20
147.0060438921092896
 30
0.0
 40
14.9999999999706795
 50
107.4576031237127012
 51
180.0000000001222134
  0
LINE
  5
18F0
  8
0
 10
591.444365081376759
 20
30.8894444302714
 30
0.0
 11
592.9999999999995453
 21
20.0
 31
0.0
  0
LINE
  5
18F1
  8
0
 10
577.3022294576508102
 20
45.0315800540120108
 30
0.0
 11
591.444365081376759
 21
30.8894444302714
 31
0.0
  0
LINE
  5
18F2
  8
0
 10
574.4147601696598713
 20
65.2438650698895799
 30
0.0
 11
577.3022294576508102
 21
45.0315800540120108
 31
0.0
  0
LINE
  5
18F3
  8
0
 10
585.0213618874690837
 20
75.8504667876841268
 30
0.0
 11
574.4147601696598713
 21
65.2438650698895799
 31
0.0
  0
LINE
  5
18F4
  8
0
 10
581.4852813742468243
 20
100.6030303803418064
 30
0.0
 11
585.0213618874690837
 21
75.8504667876841268
 31
0.0
  0
LINE
  5
18F5
  8
0
 10
567.3431457505206481
 20
114.7451660040678973
 30
0.0
 11
581.4852813742468243
 21
100.6030303803418064
 31
0.0
  0
LINE
  5
18F6
  8
0
 10
562.3933982822049984
 20
149.3933982822053963
 30
0.0
 11
567.3431457505206481
 21
114.7451660040678973
 31
0.0
  0
LINE
  5
18F7
  8
0
 10
572.9999999999995453
 20
160.0
 30
0.0
 11
562.3933982822049984
 21
149.3933982822053963
 31
0.0
  0
LINE
  5
18F8
  8
0
 10
572.9999999999995453
 20
200.0
 30
0.0
 11
572.9999999999995453
 21
160.0
 31
0.0
  0
LINE
  5
18F9
  8
0
 10
-573.0000000000004547
 20
200.0
 30
0.0
 11
572.9999999999995453
 21
200.0
 31
0.0
  0
LINE
  5
18FA
  8
0
 10
-573.0000000000004547
 20
160.0
 30
0.0
 11
-573.0000000000004547
 21
200.0
 31
0.0
  0
LINE
  5
18FB
  8
0
 10
-562.3933982822059079
 20
149.3933982822053963
 30
0.0
 11
-573.0000000000004547
 21
160.0
 31
0.0
  0
LINE
  5
18FC
  8
0
 10
-567.3431457504924538
 20
114.7451660040678973
 30
0.0
 11
-562.3933982822059079
 21
149.3933982822053963
 31
0.0
  0
LINE
  5
18FD
  8
0
 10
-581.4852813742331819
 20
100.6030303803418064
 30
0.0
 11
-567.3431457504924538
 21
114.7451660040678973
 31
0.0
  0
LINE
  5
18FE
  8
0
 10
-585.0213618874554413
 20
75.8504667876841268
 30
0.0
 11
-581.4852813742331819
 21
100.6030303803418064
 31
0.0
  0
LINE
  5
18FF
  8
0
 10
-574.4147601696607808
 20
65.2438650698895799
 30
0.0
 11
-585.0213618874554413
 21
75.8504667876841268
 31
0.0
  0
LINE
  5
1900
  8
0
 10
-577.3022294576370541
 20
45.0315800540120108
 30
0.0
 11
-574.4147601696607808
 21
65.2438650698895799
 31
0.0
  0
LINE
  5
1901
  8
0
 10
-591.4443650813777822
 20
30.8894444302714
 30
0.0
 11
-577.3022294576370541
 21
45.0315800540120108
 31
0.0
  0
LINE
  5
1902
  8
0
 10
-593.0000000000004547
 20
20.0
 30
0.0
 11
-591.4443650813777822
 21
30.8894444302714
 31
0.0
  0
LINE
  5
1903
  8
0
 10
-593.0000000000004547
 20
0.0
 30
0.0
 11
-593.0000000000004547
 21
20.0
 31
0.0
  0
LINE
  5
1904
  8
0
 10
592.9999999999995453
 20
0.0
 30
0.0
 11
-593.0000000000004547
 21
0.0
 31
0.0
  0
LINE
  5
1905
  8
0
 10
592.9999999999995453
 20
20.0
 30
0.0
 11
592.9999999999995453
 21
0.0
 31
0.0
  0
ENDBLK
  5
1907
  8
0
  0
ENDSEC
  0
SECTION
  2
ENTITIES
  0
TEXT
  5
118
  8
0
 10
-3004.3983731911889663
 20
4021.8230784719280564
 30
0.0
 40
100.0
  1
gesoleerde leidingvloer, Rc=4,2 m2K/W
  7
T25
  0
TEXT
  5
119
  8
0
 10
-3003.8597395632677944
 20
3489.4499675982569897
 30
0.0
 40
75.0
  1
Dwarsdoorsnede
  7
T25
  0
TEXT
  5
11A
  8
0
 10
-3000.8728959553491222
 20
2982.4253216635452191
 30
0.0
 40
50.0
  1
standaard element
  7
T25
  0
TEXT
  5
11B
  8
0
 10
-3003.7288001062038347
 20
2593.205089347116882
 30
0.0
 40
75.0
  1
Langsdoorsnede
  7
T25
  0
TEXT
  5
31C
  8
0
 10
-1897.6947802216980108
 20
2982.4253216635452191
 30
0.0
 40
50.0
  1
voeg
  7
T25
  0
INSERT
  5
846
  8
A--L23
  2
VBI_KS200_DDRSN_NP
 10
-2397.7467382851168622
 20
3227.3054207893010243
 30
0.0
  0
INSERT
  5
861
  8
A--L23
  2
VBI_KS200_DDRSN_PP
 10
-1097.7467382851179991
 20
3227.3054207893010243
 30
0.0
  0
TEXT
  5
93A
  8
0
 10
-1700.8728959553500317
 20
2982.4253216635461285
 30
0.0
 40
50.0
  1
element met gesoleerde randoplegging
  7
T25
  0
INSERT
  5
BEA
  8
A--L23
  2
*U5
 10
0.0
 20
0.0
 30
0.0
  0
ENDSEC
  0
EOF
